%TF.GenerationSoftware,KiCad,Pcbnew,9.0.4*%
%TF.CreationDate,2026-04-21T08:37:50+02:00*%
%TF.ProjectId,asst_slave_d25,61737374-5f73-46c6-9176-655f6432352e,rev?*%
%TF.SameCoordinates,Original*%
%TF.FileFunction,Copper,L1,Top*%
%TF.FilePolarity,Positive*%
%FSLAX46Y46*%
G04 Gerber Fmt 4.6, Leading zero omitted, Abs format (unit mm)*
G04 Created by KiCad (PCBNEW 9.0.4) date 2026-04-21 08:37:50*
%MOMM*%
%LPD*%
G01*
G04 APERTURE LIST*
G04 Aperture macros list*
%AMRoundRect*
0 Rectangle with rounded corners*
0 $1 Rounding radius*
0 $2 $3 $4 $5 $6 $7 $8 $9 X,Y pos of 4 corners*
0 Add a 4 corners polygon primitive as box body*
4,1,4,$2,$3,$4,$5,$6,$7,$8,$9,$2,$3,0*
0 Add four circle primitives for the rounded corners*
1,1,$1+$1,$2,$3*
1,1,$1+$1,$4,$5*
1,1,$1+$1,$6,$7*
1,1,$1+$1,$8,$9*
0 Add four rect primitives between the rounded corners*
20,1,$1+$1,$2,$3,$4,$5,0*
20,1,$1+$1,$4,$5,$6,$7,0*
20,1,$1+$1,$6,$7,$8,$9,0*
20,1,$1+$1,$8,$9,$2,$3,0*%
G04 Aperture macros list end*
%TA.AperFunction,ComponentPad*%
%ADD10C,1.600000*%
%TD*%
%TA.AperFunction,ComponentPad*%
%ADD11C,1.440000*%
%TD*%
%TA.AperFunction,ComponentPad*%
%ADD12RoundRect,0.250000X-0.950000X-0.550000X0.950000X-0.550000X0.950000X0.550000X-0.950000X0.550000X0*%
%TD*%
%TA.AperFunction,ComponentPad*%
%ADD13O,2.400000X1.600000*%
%TD*%
%TA.AperFunction,ComponentPad*%
%ADD14R,1.800000X1.800000*%
%TD*%
%TA.AperFunction,ComponentPad*%
%ADD15C,1.800000*%
%TD*%
%TA.AperFunction,ComponentPad*%
%ADD16C,4.000000*%
%TD*%
%TA.AperFunction,ComponentPad*%
%ADD17R,1.600000X1.600000*%
%TD*%
%TA.AperFunction,ComponentPad*%
%ADD18R,1.700000X1.700000*%
%TD*%
%TA.AperFunction,ComponentPad*%
%ADD19C,1.700000*%
%TD*%
%TA.AperFunction,ComponentPad*%
%ADD20RoundRect,0.249200X0.450800X0.450800X-0.450800X0.450800X-0.450800X-0.450800X0.450800X-0.450800X0*%
%TD*%
%TA.AperFunction,ComponentPad*%
%ADD21C,1.400000*%
%TD*%
%TA.AperFunction,ViaPad*%
%ADD22C,1.500000*%
%TD*%
%TA.AperFunction,Conductor*%
%ADD23C,0.800000*%
%TD*%
G04 APERTURE END LIST*
D10*
%TO.P,R17,2*%
%TO.N,Net-(R17-Pad2)*%
X91948000Y-80942000D03*
%TO.P,R17,1*%
%TO.N,ERREUR*%
X91948000Y-70782000D03*
%TD*%
D11*
%TO.P,RV2,1,1*%
%TO.N,Net-(U2A--)*%
X117348000Y-105664000D03*
%TO.P,RV2,2,2*%
%TO.N,Net-(R17-Pad2)*%
X114808000Y-108204000D03*
%TO.P,RV2,3,3*%
X117348000Y-110744000D03*
%TD*%
D10*
%TO.P,R7,1*%
%TO.N,Net-(U1B--)*%
X94234000Y-103124000D03*
%TO.P,R7,2*%
%TO.N,Net-(R7-Pad2)*%
X94234000Y-92964000D03*
%TD*%
%TO.P,R12,1*%
%TO.N,Net-(U1D--)*%
X73406000Y-80772000D03*
%TO.P,R12,2*%
%TO.N,PID_OUT*%
X83566000Y-80772000D03*
%TD*%
%TO.P,R9,1*%
%TO.N,PID_Gain_OUT*%
X89916000Y-103124000D03*
%TO.P,R9,2*%
%TO.N,Net-(U1D--)*%
X89916000Y-92964000D03*
%TD*%
D11*
%TO.P,RV1,1,1*%
%TO.N,PID_Gain_OUT*%
X102870000Y-105664000D03*
%TO.P,RV1,2,2*%
%TO.N,Net-(R7-Pad2)*%
X100330000Y-108204000D03*
%TO.P,RV1,3,3*%
X102870000Y-110744000D03*
%TD*%
D10*
%TO.P,R19,1*%
%TO.N,Net-(U2C--)*%
X87630000Y-67818000D03*
%TO.P,R19,2*%
%TO.N,Net-(R19-Pad2)*%
X87630000Y-57658000D03*
%TD*%
D11*
%TO.P,RV4,1,1*%
%TO.N,Net-(R6-Pad2)*%
X109728000Y-59182000D03*
%TO.P,RV4,2,2*%
X112268000Y-56642000D03*
%TO.P,RV4,3,3*%
%TO.N,GND*%
X109728000Y-54102000D03*
%TD*%
D12*
%TO.P,U1,1*%
%TO.N,N/C*%
X73406000Y-92964000D03*
D13*
%TO.P,U1,2*%
X73406000Y-95504000D03*
%TO.P,U1,3*%
X73406000Y-98044000D03*
%TO.P,U1,4,V+*%
%TO.N,+15V*%
X73406000Y-100584000D03*
%TO.P,U1,5,+*%
%TO.N,GND*%
X73406000Y-103124000D03*
%TO.P,U1,6,-*%
%TO.N,Net-(U1B--)*%
X73406000Y-105664000D03*
%TO.P,U1,7*%
%TO.N,PID_Gain_OUT*%
X73406000Y-108204000D03*
%TO.P,U1,8*%
%TO.N,LED_IN*%
X81026000Y-108204000D03*
%TO.P,U1,9,-*%
%TO.N,Net-(U1C--)*%
X81026000Y-105664000D03*
%TO.P,U1,10,+*%
%TO.N,Net-(U1C-+)*%
X81026000Y-103124000D03*
%TO.P,U1,11,V-*%
%TO.N,-15V*%
X81026000Y-100584000D03*
%TO.P,U1,12,+*%
%TO.N,GND*%
X81026000Y-98044000D03*
%TO.P,U1,13,-*%
%TO.N,Net-(U1D--)*%
X81026000Y-95504000D03*
%TO.P,U1,14*%
%TO.N,PID_OUT*%
X81026000Y-92964000D03*
%TD*%
D10*
%TO.P,R16,1*%
%TO.N,GND*%
X69850000Y-45212000D03*
%TO.P,R16,2*%
%TO.N,Net-(U2B-+)*%
X69850000Y-55372000D03*
%TD*%
%TO.P,R1,1*%
%TO.N,PID_OUT*%
X85598000Y-92964000D03*
%TO.P,R1,2*%
%TO.N,Net-(U1C-+)*%
X85598000Y-103124000D03*
%TD*%
D14*
%TO.P,D3,1,K*%
%TO.N,OUT4*%
X122174000Y-85344000D03*
D15*
%TO.P,D3,2,A*%
%TO.N,IN2*%
X119634000Y-85344000D03*
%TD*%
D10*
%TO.P,R15,1*%
%TO.N,IN1*%
X68834000Y-68834000D03*
%TO.P,R15,2*%
%TO.N,Net-(U2B-+)*%
X68834000Y-58674000D03*
%TD*%
D16*
%TO.P,J1,0,PAD*%
%TO.N,GND*%
X57000000Y-57912000D03*
X57000000Y-105012000D03*
D17*
%TO.P,J1,1,1*%
%TO.N,5V*%
X58420000Y-98082000D03*
D10*
%TO.P,J1,2,2*%
%TO.N,Offset*%
X58420000Y-95312000D03*
%TO.P,J1,3,3*%
%TO.N,RVAR_15V*%
X58420000Y-92542000D03*
%TO.P,J1,4,4*%
%TO.N,+15V*%
X58420000Y-89772000D03*
%TO.P,J1,5,5*%
%TO.N,GND*%
X58420000Y-87002000D03*
%TO.P,J1,6,6*%
%TO.N,-15V*%
X58420000Y-84232000D03*
%TO.P,J1,7,7*%
%TO.N,OUT4*%
X58420000Y-81462000D03*
%TO.P,J1,8,8*%
%TO.N,ERREUR*%
X58420000Y-78692000D03*
%TO.P,J1,9,9*%
%TO.N,OUT2*%
X58420000Y-75922000D03*
%TO.P,J1,10,10*%
%TO.N,MESURE*%
X58420000Y-73152000D03*
%TO.P,J1,11,11*%
%TO.N,IN1*%
X58420000Y-70382000D03*
%TO.P,J1,12,12*%
%TO.N,IN2*%
X58420000Y-67612000D03*
%TO.P,J1,13,13*%
%TO.N,SEL1*%
X58420000Y-64842000D03*
%TO.P,J1,14,P14*%
%TO.N,3.3V*%
X55580000Y-96697000D03*
%TO.P,J1,15,P15*%
%TO.N,RVAR_3.3V*%
X55580000Y-93927000D03*
%TO.P,J1,16,P16*%
%TO.N,GND*%
X55580000Y-91157000D03*
%TO.P,J1,17,P17*%
X55580000Y-88387000D03*
%TO.P,J1,18,P18*%
X55580000Y-85617000D03*
%TO.P,J1,19,P19*%
X55580000Y-82847000D03*
%TO.P,J1,20,P20*%
X55580000Y-80077000D03*
%TO.P,J1,21,P21*%
X55580000Y-77307000D03*
%TO.P,J1,22,P22*%
X55580000Y-74537000D03*
%TO.P,J1,23,P23*%
X55580000Y-71767000D03*
%TO.P,J1,24,P24*%
%TO.N,SEL3*%
X55580000Y-68997000D03*
%TO.P,J1,25,P25*%
%TO.N,SEL2*%
X55580000Y-66227000D03*
%TD*%
%TO.P,R13,1*%
%TO.N,Net-(U2B--)*%
X91948000Y-57574000D03*
%TO.P,R13,2*%
%TO.N,ERREUR*%
X91948000Y-67734000D03*
%TD*%
%TO.P,R2,1*%
%TO.N,Offset*%
X69342000Y-113792000D03*
%TO.P,R2,2*%
%TO.N,Net-(U1C-+)*%
X79502000Y-113792000D03*
%TD*%
D18*
%TO.P,J5,1,Pin_1*%
%TO.N,MESURE*%
X107950000Y-45466000D03*
D19*
%TO.P,J5,2,Pin_2*%
%TO.N,Net-(J5-Pin_2)*%
X107950000Y-48006000D03*
%TD*%
D18*
%TO.P,J3,1,Pin_1*%
%TO.N,Net-(J3-Pin_1)*%
X117348000Y-98552000D03*
D19*
%TO.P,J3,2,Pin_2*%
%TO.N,Net-(J3-Pin_2)*%
X114808000Y-98552000D03*
%TD*%
D10*
%TO.P,R5,1*%
%TO.N,OUT2*%
X63754000Y-75946000D03*
%TO.P,R5,2*%
%TO.N,GND*%
X63754000Y-86106000D03*
%TD*%
%TO.P,R8,1*%
%TO.N,ERREUR*%
X67818000Y-95504000D03*
%TO.P,R8,2*%
%TO.N,Net-(U1B--)*%
X67818000Y-105664000D03*
%TD*%
%TO.P,C2,1*%
%TO.N,ERREUR*%
X73406000Y-69342000D03*
%TO.P,C2,2*%
%TO.N,Net-(U2C--)*%
X75946000Y-69342000D03*
X78486000Y-69342000D03*
X81026000Y-69342000D03*
%TD*%
%TO.P,R10,1*%
%TO.N,Net-(R10-Pad1)*%
X73406000Y-84582000D03*
%TO.P,R10,2*%
%TO.N,Net-(U1D--)*%
X83566000Y-84582000D03*
%TD*%
D14*
%TO.P,D1,1,K*%
%TO.N,OUT2*%
X129540000Y-79502000D03*
D15*
%TO.P,D1,2,A*%
%TO.N,LED_IN*%
X132080000Y-79502000D03*
%TD*%
D10*
%TO.P,C1,1*%
%TO.N,Net-(U2A--)*%
X82296000Y-40894000D03*
%TO.P,C1,2*%
%TO.N,Net-(J3-Pin_1)*%
X79756000Y-40894000D03*
X77216000Y-40894000D03*
X74676000Y-40894000D03*
%TD*%
%TO.P,R22,1*%
%TO.N,OUT4*%
X91440000Y-88392000D03*
%TO.P,R22,2*%
%TO.N,GND*%
X81280000Y-88392000D03*
%TD*%
%TO.P,R20,1*%
%TO.N,Net-(J4-Pin_2)*%
X100965000Y-81026000D03*
%TO.P,R20,2*%
%TO.N,Net-(U1D--)*%
X100965000Y-70866000D03*
%TD*%
%TO.P,R4,1*%
%TO.N,Net-(U1C--)*%
X91440000Y-106172000D03*
%TO.P,R4,2*%
%TO.N,LED_IN*%
X91440000Y-116332000D03*
%TD*%
%TO.P,R21,1*%
%TO.N,GND*%
X90678000Y-48514000D03*
%TO.P,R21,2*%
%TO.N,Net-(J5-Pin_2)*%
X100838000Y-48514000D03*
%TD*%
D20*
%TO.P,D2,1,K*%
%TO.N,+15V*%
X129789000Y-55126000D03*
D21*
%TO.P,D2,2,A*%
%TO.N,Net-(D2-A)*%
X127229000Y-55126000D03*
%TD*%
D10*
%TO.P,R14,1*%
%TO.N,Net-(J5-Pin_2)*%
X100838000Y-44958000D03*
%TO.P,R14,2*%
%TO.N,Net-(U2B--)*%
X90678000Y-44958000D03*
%TD*%
D18*
%TO.P,J4,1,Pin_1*%
%TO.N,Net-(J4-Pin_1)*%
X131826000Y-98552000D03*
D19*
%TO.P,J4,2,Pin_2*%
%TO.N,Net-(J4-Pin_2)*%
X129286000Y-98552000D03*
%TD*%
D10*
%TO.P,R6,1*%
%TO.N,Net-(D2-A)*%
X97028000Y-62357000D03*
%TO.P,R6,2*%
%TO.N,Net-(R6-Pad2)*%
X97028000Y-52197000D03*
%TD*%
D11*
%TO.P,RV3,1,1*%
%TO.N,Net-(J4-Pin_1)*%
X131826000Y-105664000D03*
%TO.P,RV3,2,2*%
%TO.N,Net-(R19-Pad2)*%
X129286000Y-108204000D03*
%TO.P,RV3,3,3*%
X131826000Y-110744000D03*
%TD*%
D10*
%TO.P,R3,1*%
%TO.N,GND*%
X87376000Y-116332000D03*
%TO.P,R3,2*%
%TO.N,Net-(U1C--)*%
X87376000Y-106172000D03*
%TD*%
D12*
%TO.P,U2,1*%
%TO.N,Net-(J3-Pin_1)*%
X74676000Y-48514000D03*
D13*
%TO.P,U2,2,-*%
%TO.N,Net-(U2A--)*%
X74676000Y-51054000D03*
%TO.P,U2,3,+*%
%TO.N,GND*%
X74676000Y-53594000D03*
%TO.P,U2,4,V+*%
%TO.N,+15V*%
X74676000Y-56134000D03*
%TO.P,U2,5,+*%
%TO.N,Net-(U2B-+)*%
X74676000Y-58674000D03*
%TO.P,U2,6,-*%
%TO.N,Net-(U2B--)*%
X74676000Y-61214000D03*
%TO.P,U2,7*%
%TO.N,ERREUR*%
X74676000Y-63754000D03*
%TO.P,U2,8*%
%TO.N,Net-(J4-Pin_1)*%
X82296000Y-63754000D03*
%TO.P,U2,9,-*%
%TO.N,Net-(U2C--)*%
X82296000Y-61214000D03*
%TO.P,U2,10,+*%
%TO.N,GND*%
X82296000Y-58674000D03*
%TO.P,U2,11,V-*%
%TO.N,-15V*%
X82296000Y-56134000D03*
%TO.P,U2,12,+*%
%TO.N,Net-(D2-A)*%
X82296000Y-53594000D03*
%TO.P,U2,13,-*%
%TO.N,MESURE*%
X82296000Y-51054000D03*
%TO.P,U2,14*%
X82296000Y-48514000D03*
%TD*%
D10*
%TO.P,R18,1*%
%TO.N,Net-(J3-Pin_2)*%
X96774000Y-81026000D03*
%TO.P,R18,2*%
%TO.N,Net-(U1D--)*%
X96774000Y-70866000D03*
%TD*%
D22*
%TO.N,+15V*%
X94996000Y-113030000D03*
X94996000Y-119634000D03*
X136144000Y-86106000D03*
%TO.N,IN2*%
X119634000Y-60833000D03*
%TO.N,Net-(U2A--)*%
X114300000Y-40132000D03*
%TO.N,OUT2*%
X114554000Y-75946000D03*
X117348000Y-67310000D03*
%TO.N,Net-(J3-Pin_1)*%
X111760000Y-89916000D03*
%TO.N,-15V*%
X75438000Y-88646000D03*
%TO.N,ERREUR*%
X67612000Y-72898000D03*
%TO.N,Net-(U1D--)*%
X85090000Y-73406000D03*
%TO.N,Net-(U2B--)*%
X79883000Y-45085000D03*
%TD*%
D23*
%TO.N,Net-(U1D--)*%
X81788000Y-84582000D02*
X83566000Y-84582000D01*
X80518000Y-83312000D02*
X81788000Y-84582000D01*
X80518000Y-77978000D02*
X80518000Y-83312000D01*
X85090000Y-73406000D02*
X80518000Y-77978000D01*
%TO.N,-15V*%
X83820000Y-56134000D02*
X82296000Y-56134000D01*
X85090000Y-57404000D02*
X83820000Y-56134000D01*
X85090000Y-69342000D02*
X85090000Y-57404000D01*
X82296000Y-72136000D02*
X85090000Y-69342000D01*
X77216000Y-99314000D02*
X77216000Y-90297000D01*
X77216000Y-90297000D02*
X75565000Y-88646000D01*
X75565000Y-73279000D02*
X76708000Y-72136000D01*
X75565000Y-88646000D02*
X75565000Y-73279000D01*
X76708000Y-72136000D02*
X82296000Y-72136000D01*
X78486000Y-100584000D02*
X77216000Y-99314000D01*
X81026000Y-100584000D02*
X78486000Y-100584000D01*
%TO.N,+15V*%
X71120000Y-58674000D02*
X71120000Y-99822000D01*
X74676000Y-56134000D02*
X73660000Y-56134000D01*
X71120000Y-99822000D02*
X71882000Y-100584000D01*
X71882000Y-100584000D02*
X73406000Y-100584000D01*
X94996000Y-119634000D02*
X94996000Y-113030000D01*
X136144000Y-61481000D02*
X129789000Y-55126000D01*
X73660000Y-56134000D02*
X71120000Y-58674000D01*
X136144000Y-86106000D02*
X136144000Y-61481000D01*
%TO.N,IN2*%
X119634000Y-60833000D02*
X119634000Y-85344000D01*
%TO.N,Net-(U2A--)*%
X125603000Y-97409000D02*
X117348000Y-105664000D01*
X119634000Y-45466000D02*
X119634000Y-53848000D01*
X119634000Y-53848000D02*
X125603000Y-59817000D01*
X125603000Y-59817000D02*
X125603000Y-97409000D01*
X114300000Y-40132000D02*
X119634000Y-45466000D01*
%TO.N,OUT2*%
X114554000Y-75946000D02*
X114554000Y-70104000D01*
X114554000Y-70104000D02*
X117348000Y-67310000D01*
%TO.N,Net-(J3-Pin_1)*%
X100076000Y-37846000D02*
X80899000Y-37846000D01*
X80899000Y-37846000D02*
X79756000Y-38989000D01*
X111760000Y-89916000D02*
X104140000Y-82296000D01*
X79756000Y-38989000D02*
X79756000Y-40894000D01*
X104140000Y-41910000D02*
X100076000Y-37846000D01*
X104140000Y-82296000D02*
X104140000Y-41910000D01*
%TO.N,OUT4*%
X108204000Y-91948000D02*
X120396000Y-91948000D01*
X122174000Y-90170000D02*
X122174000Y-85344000D01*
X106172000Y-89916000D02*
X108204000Y-91948000D01*
X92964000Y-89916000D02*
X106172000Y-89916000D01*
X91440000Y-88392000D02*
X92964000Y-89916000D01*
X120396000Y-91948000D02*
X122174000Y-90170000D01*
%TO.N,ERREUR*%
X58420000Y-78692000D02*
X67612000Y-78692000D01*
X67564000Y-78740000D02*
X67564000Y-95250000D01*
X67564000Y-95250000D02*
X67818000Y-95504000D01*
X67564000Y-78644000D02*
X67612000Y-78692000D01*
X67564000Y-72946000D02*
X67564000Y-78644000D01*
X67612000Y-72898000D02*
X67564000Y-72946000D01*
X67612000Y-78692000D02*
X67564000Y-78740000D01*
%TO.N,MESURE*%
X71374000Y-48260000D02*
X73406000Y-46228000D01*
X77724000Y-46228000D02*
X80010000Y-48514000D01*
X67564000Y-48260000D02*
X71374000Y-48260000D01*
X63246000Y-71628000D02*
X63246000Y-52578000D01*
X80010000Y-48514000D02*
X82296000Y-48514000D01*
X73406000Y-46228000D02*
X77724000Y-46228000D01*
X63246000Y-52578000D02*
X67564000Y-48260000D01*
X58420000Y-73152000D02*
X61722000Y-73152000D01*
X61722000Y-73152000D02*
X63246000Y-71628000D01*
%TO.N,PID_Gain_OUT*%
X89408000Y-108966000D02*
X89408000Y-103632000D01*
X102870000Y-102362000D02*
X102870000Y-105664000D01*
X101346000Y-100838000D02*
X102870000Y-102362000D01*
X73406000Y-108204000D02*
X75438000Y-110236000D01*
X89408000Y-103632000D02*
X92202000Y-100838000D01*
X88138000Y-110236000D02*
X89408000Y-108966000D01*
X92202000Y-100838000D02*
X101346000Y-100838000D01*
X75438000Y-110236000D02*
X88138000Y-110236000D01*
%TO.N,PID_OUT*%
X85598000Y-82804000D02*
X83566000Y-80772000D01*
X85598000Y-92964000D02*
X85598000Y-82804000D01*
%TO.N,Net-(U1B--)*%
X94234000Y-110236000D02*
X94234000Y-103124000D01*
X70993000Y-111633000D02*
X92837000Y-111633000D01*
X67818000Y-105664000D02*
X67818000Y-108458000D01*
X92837000Y-111633000D02*
X94234000Y-110236000D01*
X67818000Y-108458000D02*
X70993000Y-111633000D01*
%TO.N,Net-(U1C--)*%
X86868000Y-105664000D02*
X87376000Y-106172000D01*
X81026000Y-105664000D02*
X86868000Y-105664000D01*
%TO.N,Net-(U1D--)*%
X83566000Y-84582000D02*
X83566000Y-94234000D01*
X83566000Y-94234000D02*
X82296000Y-95504000D01*
X82296000Y-95504000D02*
X81026000Y-95504000D01*
%TO.N,Net-(U2B--)*%
X90551000Y-45085000D02*
X90678000Y-44958000D01*
X79883000Y-45085000D02*
X90551000Y-45085000D01*
%TO.N,Net-(D2-A)*%
X97028000Y-56515000D02*
X97028000Y-62357000D01*
X82296000Y-53594000D02*
X94107000Y-53594000D01*
X94107000Y-53594000D02*
X97028000Y-56515000D01*
%TD*%
M02*
