M48
; DRILL file {KiCad 9.0.4} date 2026-04-20T21:37:58+0200
; FORMAT={-:-/ absolute / metric / decimal}
; #@! TF.CreationDate,2026-04-20T21:37:58+02:00
; #@! TF.GenerationSoftware,Kicad,Pcbnew,9.0.4
; #@! TF.FileFunction,Plated,1,2,PTH
FMAT,2
METRIC
; #@! TA.AperFunction,Plated,PTH,ComponentDrill
T1C0.700
; #@! TA.AperFunction,Plated,PTH,ViaDrill
T2C0.800
; #@! TA.AperFunction,Plated,PTH,ComponentDrill
T3C0.800
; #@! TA.AperFunction,Plated,PTH,ComponentDrill
T4C0.900
; #@! TA.AperFunction,Plated,PTH,ComponentDrill
T5C1.000
; #@! TA.AperFunction,Plated,PTH,ComponentDrill
T6C3.200
%
G90
G05
T1
X127.229Y-55.126
X129.789Y-55.126
T2
X67.612Y-72.898
X75.438Y-88.646
X79.883Y-45.085
X86.995Y-73.406
X94.996Y-113.03
X94.996Y-119.634
X111.76Y-89.916
X114.3Y-40.132
X114.554Y-75.946
X117.348Y-67.31
X119.634Y-60.833
X136.144Y-86.106
T3
X63.754Y-75.946
X63.754Y-86.106
X67.818Y-95.504
X67.818Y-105.664
X68.834Y-58.674
X68.834Y-68.834
X69.342Y-113.792
X69.85Y-45.212
X69.85Y-55.372
X73.406Y-69.342
X73.406Y-80.772
X73.406Y-84.582
X73.406Y-92.964
X73.406Y-95.504
X73.406Y-98.044
X73.406Y-100.584
X73.406Y-103.124
X73.406Y-105.664
X73.406Y-108.204
X74.676Y-40.894
X74.676Y-48.514
X74.676Y-51.054
X74.676Y-53.594
X74.676Y-56.134
X74.676Y-58.674
X74.676Y-61.214
X74.676Y-63.754
X75.946Y-69.342
X77.216Y-40.894
X78.486Y-69.342
X79.502Y-113.792
X79.756Y-40.894
X81.026Y-69.342
X81.026Y-92.964
X81.026Y-95.504
X81.026Y-98.044
X81.026Y-100.584
X81.026Y-103.124
X81.026Y-105.664
X81.026Y-108.204
X81.28Y-88.392
X82.296Y-40.894
X82.296Y-48.514
X82.296Y-51.054
X82.296Y-53.594
X82.296Y-56.134
X82.296Y-58.674
X82.296Y-61.214
X82.296Y-63.754
X83.566Y-80.772
X83.566Y-84.582
X85.598Y-92.964
X85.598Y-103.124
X87.376Y-106.172
X87.376Y-116.332
X87.63Y-57.658
X87.63Y-67.818
X89.916Y-92.964
X89.916Y-103.124
X90.678Y-44.958
X90.678Y-48.514
X91.44Y-88.392
X91.44Y-106.172
X91.44Y-116.332
X91.948Y-57.574
X91.948Y-67.734
X91.948Y-70.782
X91.948Y-80.942
X94.234Y-92.964
X94.234Y-103.124
X96.774Y-70.866
X96.774Y-81.026
X97.028Y-52.197
X97.028Y-62.357
X100.33Y-108.204
X100.838Y-44.958
X100.838Y-48.514
X100.965Y-70.866
X100.965Y-81.026
X102.87Y-105.664
X102.87Y-110.744
X109.728Y-54.102
X109.728Y-59.182
X112.268Y-56.642
X114.808Y-108.204
X117.348Y-105.664
X117.348Y-110.744
X129.286Y-108.204
X131.826Y-105.664
X131.826Y-110.744
T4
X119.634Y-85.344
X122.174Y-85.344
X129.54Y-79.502
X132.08Y-79.502
T5
X55.58Y-66.227
X55.58Y-68.997
X55.58Y-71.767
X55.58Y-74.537
X55.58Y-77.307
X55.58Y-80.077
X55.58Y-82.847
X55.58Y-85.617
X55.58Y-88.387
X55.58Y-91.157
X55.58Y-93.927
X55.58Y-96.697
X58.42Y-64.842
X58.42Y-67.612
X58.42Y-70.382
X58.42Y-73.152
X58.42Y-75.922
X58.42Y-78.692
X58.42Y-81.462
X58.42Y-84.232
X58.42Y-87.002
X58.42Y-89.772
X58.42Y-92.542
X58.42Y-95.312
X58.42Y-98.082
X107.95Y-45.466
X107.95Y-48.006
X114.808Y-98.552
X117.348Y-98.552
X129.286Y-98.552
X131.826Y-98.552
T6
X57.0Y-57.912
X57.0Y-105.012
M30
