%TF.GenerationSoftware,KiCad,Pcbnew,9.0.4*%
%TF.CreationDate,2026-04-21T13:26:40+02:00*%
%TF.ProjectId,asst_slave_d25,61737374-5f73-46c6-9176-655f6432352e,rev?*%
%TF.SameCoordinates,Original*%
%TF.FileFunction,Soldermask,Top*%
%TF.FilePolarity,Negative*%
%FSLAX46Y46*%
G04 Gerber Fmt 4.6, Leading zero omitted, Abs format (unit mm)*
G04 Created by KiCad (PCBNEW 9.0.4) date 2026-04-21 13:26:40*
%MOMM*%
%LPD*%
G01*
G04 APERTURE LIST*
G04 APERTURE END LIST*
G36*
X129969199Y-118492272D02*
G01*
X130247167Y-118566754D01*
X130513035Y-118676880D01*
X130762255Y-118820767D01*
X130990561Y-118995952D01*
X131194048Y-119199439D01*
X131369233Y-119427745D01*
X131513120Y-119676965D01*
X131623246Y-119942833D01*
X131697728Y-120220801D01*
X131735290Y-120506113D01*
X131735290Y-120793887D01*
X131697728Y-121079199D01*
X131623246Y-121357167D01*
X131513120Y-121623035D01*
X131369233Y-121872255D01*
X131194048Y-122100561D01*
X130990561Y-122304048D01*
X130762255Y-122479233D01*
X130513035Y-122623120D01*
X130247167Y-122733246D01*
X129969199Y-122807728D01*
X129683887Y-122845290D01*
X129396113Y-122845290D01*
X129110801Y-122807728D01*
X128832833Y-122733246D01*
X128566965Y-122623120D01*
X128317745Y-122479233D01*
X128089439Y-122304048D01*
X127885952Y-122100561D01*
X127710767Y-121872255D01*
X127566880Y-121623035D01*
X127456754Y-121357167D01*
X127382272Y-121079199D01*
X127344710Y-120793887D01*
X127344710Y-120506113D01*
X127382272Y-120220801D01*
X127456754Y-119942833D01*
X127566880Y-119676965D01*
X127710767Y-119427745D01*
X127885952Y-119199439D01*
X128089439Y-118995952D01*
X128317745Y-118820767D01*
X128566965Y-118676880D01*
X128832833Y-118566754D01*
X129110801Y-118492272D01*
X129396113Y-118454710D01*
X129683887Y-118454710D01*
X129969199Y-118492272D01*
G37*
G36*
X63929199Y-114682272D02*
G01*
X64207167Y-114756754D01*
X64473035Y-114866880D01*
X64722255Y-115010767D01*
X64950561Y-115185952D01*
X65154048Y-115389439D01*
X65329233Y-115617745D01*
X65473120Y-115866965D01*
X65583246Y-116132833D01*
X65657728Y-116410801D01*
X65695290Y-116696113D01*
X65695290Y-116983887D01*
X65657728Y-117269199D01*
X65583246Y-117547167D01*
X65473120Y-117813035D01*
X65329233Y-118062255D01*
X65154048Y-118290561D01*
X64950561Y-118494048D01*
X64722255Y-118669233D01*
X64473035Y-118813120D01*
X64207167Y-118923246D01*
X63929199Y-118997728D01*
X63643887Y-119035290D01*
X63356113Y-119035290D01*
X63070801Y-118997728D01*
X62792833Y-118923246D01*
X62526965Y-118813120D01*
X62277745Y-118669233D01*
X62049439Y-118494048D01*
X61845952Y-118290561D01*
X61670767Y-118062255D01*
X61526880Y-117813035D01*
X61416754Y-117547167D01*
X61342272Y-117269199D01*
X61304710Y-116983887D01*
X61304710Y-116696113D01*
X61342272Y-116410801D01*
X61416754Y-116132833D01*
X61526880Y-115866965D01*
X61670767Y-115617745D01*
X61845952Y-115389439D01*
X62049439Y-115185952D01*
X62277745Y-115010767D01*
X62526965Y-114866880D01*
X62792833Y-114756754D01*
X63070801Y-114682272D01*
X63356113Y-114644710D01*
X63643887Y-114644710D01*
X63929199Y-114682272D01*
G37*
G36*
X87622742Y-115518601D02*
G01*
X87776687Y-115582367D01*
X87915234Y-115674941D01*
X88033059Y-115792766D01*
X88125633Y-115931313D01*
X88189399Y-116085258D01*
X88221907Y-116248685D01*
X88221907Y-116415315D01*
X88189399Y-116578742D01*
X88125633Y-116732687D01*
X88033059Y-116871234D01*
X87915234Y-116989059D01*
X87776687Y-117081633D01*
X87622742Y-117145399D01*
X87459315Y-117177907D01*
X87292685Y-117177907D01*
X87129258Y-117145399D01*
X86975313Y-117081633D01*
X86836766Y-116989059D01*
X86718941Y-116871234D01*
X86626367Y-116732687D01*
X86562601Y-116578742D01*
X86530093Y-116415315D01*
X86530093Y-116248685D01*
X86562601Y-116085258D01*
X86626367Y-115931313D01*
X86718941Y-115792766D01*
X86836766Y-115674941D01*
X86975313Y-115582367D01*
X87129258Y-115518601D01*
X87292685Y-115486093D01*
X87459315Y-115486093D01*
X87622742Y-115518601D01*
G37*
G36*
X91686742Y-115518601D02*
G01*
X91840687Y-115582367D01*
X91979234Y-115674941D01*
X92097059Y-115792766D01*
X92189633Y-115931313D01*
X92253399Y-116085258D01*
X92285907Y-116248685D01*
X92285907Y-116415315D01*
X92253399Y-116578742D01*
X92189633Y-116732687D01*
X92097059Y-116871234D01*
X91979234Y-116989059D01*
X91840687Y-117081633D01*
X91686742Y-117145399D01*
X91523315Y-117177907D01*
X91356685Y-117177907D01*
X91193258Y-117145399D01*
X91039313Y-117081633D01*
X90900766Y-116989059D01*
X90782941Y-116871234D01*
X90690367Y-116732687D01*
X90626601Y-116578742D01*
X90594093Y-116415315D01*
X90594093Y-116248685D01*
X90626601Y-116085258D01*
X90690367Y-115931313D01*
X90782941Y-115792766D01*
X90900766Y-115674941D01*
X91039313Y-115582367D01*
X91193258Y-115518601D01*
X91356685Y-115486093D01*
X91523315Y-115486093D01*
X91686742Y-115518601D01*
G37*
G36*
X69588742Y-112978601D02*
G01*
X69742687Y-113042367D01*
X69881234Y-113134941D01*
X69999059Y-113252766D01*
X70091633Y-113391313D01*
X70155399Y-113545258D01*
X70187907Y-113708685D01*
X70187907Y-113875315D01*
X70155399Y-114038742D01*
X70091633Y-114192687D01*
X69999059Y-114331234D01*
X69881234Y-114449059D01*
X69742687Y-114541633D01*
X69588742Y-114605399D01*
X69425315Y-114637907D01*
X69258685Y-114637907D01*
X69095258Y-114605399D01*
X68941313Y-114541633D01*
X68802766Y-114449059D01*
X68684941Y-114331234D01*
X68592367Y-114192687D01*
X68528601Y-114038742D01*
X68496093Y-113875315D01*
X68496093Y-113708685D01*
X68528601Y-113545258D01*
X68592367Y-113391313D01*
X68684941Y-113252766D01*
X68802766Y-113134941D01*
X68941313Y-113042367D01*
X69095258Y-112978601D01*
X69258685Y-112946093D01*
X69425315Y-112946093D01*
X69588742Y-112978601D01*
G37*
G36*
X79748742Y-112978601D02*
G01*
X79902687Y-113042367D01*
X80041234Y-113134941D01*
X80159059Y-113252766D01*
X80251633Y-113391313D01*
X80315399Y-113545258D01*
X80347907Y-113708685D01*
X80347907Y-113875315D01*
X80315399Y-114038742D01*
X80251633Y-114192687D01*
X80159059Y-114331234D01*
X80041234Y-114449059D01*
X79902687Y-114541633D01*
X79748742Y-114605399D01*
X79585315Y-114637907D01*
X79418685Y-114637907D01*
X79255258Y-114605399D01*
X79101313Y-114541633D01*
X78962766Y-114449059D01*
X78844941Y-114331234D01*
X78752367Y-114192687D01*
X78688601Y-114038742D01*
X78656093Y-113875315D01*
X78656093Y-113708685D01*
X78688601Y-113545258D01*
X78752367Y-113391313D01*
X78844941Y-113252766D01*
X78962766Y-113134941D01*
X79101313Y-113042367D01*
X79255258Y-112978601D01*
X79418685Y-112946093D01*
X79585315Y-112946093D01*
X79748742Y-112978601D01*
G37*
G36*
X103093519Y-110007156D02*
G01*
X103232975Y-110064921D01*
X103358483Y-110148782D01*
X103465218Y-110255517D01*
X103549079Y-110381025D01*
X103606844Y-110520481D01*
X103636292Y-110668527D01*
X103636292Y-110819473D01*
X103606844Y-110967519D01*
X103549079Y-111106975D01*
X103465218Y-111232483D01*
X103358483Y-111339218D01*
X103232975Y-111423079D01*
X103093519Y-111480844D01*
X102945473Y-111510292D01*
X102794527Y-111510292D01*
X102646481Y-111480844D01*
X102507025Y-111423079D01*
X102381517Y-111339218D01*
X102274782Y-111232483D01*
X102190921Y-111106975D01*
X102133156Y-110967519D01*
X102103708Y-110819473D01*
X102103708Y-110668527D01*
X102133156Y-110520481D01*
X102190921Y-110381025D01*
X102274782Y-110255517D01*
X102381517Y-110148782D01*
X102507025Y-110064921D01*
X102646481Y-110007156D01*
X102794527Y-109977708D01*
X102945473Y-109977708D01*
X103093519Y-110007156D01*
G37*
G36*
X117571519Y-110007156D02*
G01*
X117710975Y-110064921D01*
X117836483Y-110148782D01*
X117943218Y-110255517D01*
X118027079Y-110381025D01*
X118084844Y-110520481D01*
X118114292Y-110668527D01*
X118114292Y-110819473D01*
X118084844Y-110967519D01*
X118027079Y-111106975D01*
X117943218Y-111232483D01*
X117836483Y-111339218D01*
X117710975Y-111423079D01*
X117571519Y-111480844D01*
X117423473Y-111510292D01*
X117272527Y-111510292D01*
X117124481Y-111480844D01*
X116985025Y-111423079D01*
X116859517Y-111339218D01*
X116752782Y-111232483D01*
X116668921Y-111106975D01*
X116611156Y-110967519D01*
X116581708Y-110819473D01*
X116581708Y-110668527D01*
X116611156Y-110520481D01*
X116668921Y-110381025D01*
X116752782Y-110255517D01*
X116859517Y-110148782D01*
X116985025Y-110064921D01*
X117124481Y-110007156D01*
X117272527Y-109977708D01*
X117423473Y-109977708D01*
X117571519Y-110007156D01*
G37*
G36*
X132049519Y-110007156D02*
G01*
X132188975Y-110064921D01*
X132314483Y-110148782D01*
X132421218Y-110255517D01*
X132505079Y-110381025D01*
X132562844Y-110520481D01*
X132592292Y-110668527D01*
X132592292Y-110819473D01*
X132562844Y-110967519D01*
X132505079Y-111106975D01*
X132421218Y-111232483D01*
X132314483Y-111339218D01*
X132188975Y-111423079D01*
X132049519Y-111480844D01*
X131901473Y-111510292D01*
X131750527Y-111510292D01*
X131602481Y-111480844D01*
X131463025Y-111423079D01*
X131337517Y-111339218D01*
X131230782Y-111232483D01*
X131146921Y-111106975D01*
X131089156Y-110967519D01*
X131059708Y-110819473D01*
X131059708Y-110668527D01*
X131089156Y-110520481D01*
X131146921Y-110381025D01*
X131230782Y-110255517D01*
X131337517Y-110148782D01*
X131463025Y-110064921D01*
X131602481Y-110007156D01*
X131750527Y-109977708D01*
X131901473Y-109977708D01*
X132049519Y-110007156D01*
G37*
G36*
X73889315Y-107358093D02*
G01*
X74052742Y-107390601D01*
X74206687Y-107454367D01*
X74345234Y-107546941D01*
X74463059Y-107664766D01*
X74555633Y-107803313D01*
X74619399Y-107957258D01*
X74651907Y-108120685D01*
X74651907Y-108287315D01*
X74619399Y-108450742D01*
X74555633Y-108604687D01*
X74463059Y-108743234D01*
X74345234Y-108861059D01*
X74206687Y-108953633D01*
X74052742Y-109017399D01*
X73889315Y-109049907D01*
X73806000Y-109054000D01*
X73802940Y-109054000D01*
X73009060Y-109054000D01*
X73006000Y-109054000D01*
X72922685Y-109049907D01*
X72759258Y-109017399D01*
X72605313Y-108953633D01*
X72466766Y-108861059D01*
X72348941Y-108743234D01*
X72256367Y-108604687D01*
X72192601Y-108450742D01*
X72160093Y-108287315D01*
X72160093Y-108120685D01*
X72192601Y-107957258D01*
X72256367Y-107803313D01*
X72348941Y-107664766D01*
X72466766Y-107546941D01*
X72605313Y-107454367D01*
X72759258Y-107390601D01*
X72922685Y-107358093D01*
X73006000Y-107354000D01*
X73806000Y-107354000D01*
X73889315Y-107358093D01*
G37*
G36*
X81509315Y-107358093D02*
G01*
X81672742Y-107390601D01*
X81826687Y-107454367D01*
X81965234Y-107546941D01*
X82083059Y-107664766D01*
X82175633Y-107803313D01*
X82239399Y-107957258D01*
X82271907Y-108120685D01*
X82271907Y-108287315D01*
X82239399Y-108450742D01*
X82175633Y-108604687D01*
X82083059Y-108743234D01*
X81965234Y-108861059D01*
X81826687Y-108953633D01*
X81672742Y-109017399D01*
X81509315Y-109049907D01*
X81426000Y-109054000D01*
X81422940Y-109054000D01*
X80629060Y-109054000D01*
X80626000Y-109054000D01*
X80542685Y-109049907D01*
X80379258Y-109017399D01*
X80225313Y-108953633D01*
X80086766Y-108861059D01*
X79968941Y-108743234D01*
X79876367Y-108604687D01*
X79812601Y-108450742D01*
X79780093Y-108287315D01*
X79780093Y-108120685D01*
X79812601Y-107957258D01*
X79876367Y-107803313D01*
X79968941Y-107664766D01*
X80086766Y-107546941D01*
X80225313Y-107454367D01*
X80379258Y-107390601D01*
X80542685Y-107358093D01*
X80626000Y-107354000D01*
X81426000Y-107354000D01*
X81509315Y-107358093D01*
G37*
G36*
X100553519Y-107467156D02*
G01*
X100692975Y-107524921D01*
X100818483Y-107608782D01*
X100925218Y-107715517D01*
X101009079Y-107841025D01*
X101066844Y-107980481D01*
X101096292Y-108128527D01*
X101096292Y-108279473D01*
X101066844Y-108427519D01*
X101009079Y-108566975D01*
X100925218Y-108692483D01*
X100818483Y-108799218D01*
X100692975Y-108883079D01*
X100553519Y-108940844D01*
X100405473Y-108970292D01*
X100254527Y-108970292D01*
X100106481Y-108940844D01*
X99967025Y-108883079D01*
X99841517Y-108799218D01*
X99734782Y-108692483D01*
X99650921Y-108566975D01*
X99593156Y-108427519D01*
X99563708Y-108279473D01*
X99563708Y-108128527D01*
X99593156Y-107980481D01*
X99650921Y-107841025D01*
X99734782Y-107715517D01*
X99841517Y-107608782D01*
X99967025Y-107524921D01*
X100106481Y-107467156D01*
X100254527Y-107437708D01*
X100405473Y-107437708D01*
X100553519Y-107467156D01*
G37*
G36*
X115031519Y-107467156D02*
G01*
X115170975Y-107524921D01*
X115296483Y-107608782D01*
X115403218Y-107715517D01*
X115487079Y-107841025D01*
X115544844Y-107980481D01*
X115574292Y-108128527D01*
X115574292Y-108279473D01*
X115544844Y-108427519D01*
X115487079Y-108566975D01*
X115403218Y-108692483D01*
X115296483Y-108799218D01*
X115170975Y-108883079D01*
X115031519Y-108940844D01*
X114883473Y-108970292D01*
X114732527Y-108970292D01*
X114584481Y-108940844D01*
X114445025Y-108883079D01*
X114319517Y-108799218D01*
X114212782Y-108692483D01*
X114128921Y-108566975D01*
X114071156Y-108427519D01*
X114041708Y-108279473D01*
X114041708Y-108128527D01*
X114071156Y-107980481D01*
X114128921Y-107841025D01*
X114212782Y-107715517D01*
X114319517Y-107608782D01*
X114445025Y-107524921D01*
X114584481Y-107467156D01*
X114732527Y-107437708D01*
X114883473Y-107437708D01*
X115031519Y-107467156D01*
G37*
G36*
X129509519Y-107467156D02*
G01*
X129648975Y-107524921D01*
X129774483Y-107608782D01*
X129881218Y-107715517D01*
X129965079Y-107841025D01*
X130022844Y-107980481D01*
X130052292Y-108128527D01*
X130052292Y-108279473D01*
X130022844Y-108427519D01*
X129965079Y-108566975D01*
X129881218Y-108692483D01*
X129774483Y-108799218D01*
X129648975Y-108883079D01*
X129509519Y-108940844D01*
X129361473Y-108970292D01*
X129210527Y-108970292D01*
X129062481Y-108940844D01*
X128923025Y-108883079D01*
X128797517Y-108799218D01*
X128690782Y-108692483D01*
X128606921Y-108566975D01*
X128549156Y-108427519D01*
X128519708Y-108279473D01*
X128519708Y-108128527D01*
X128549156Y-107980481D01*
X128606921Y-107841025D01*
X128690782Y-107715517D01*
X128797517Y-107608782D01*
X128923025Y-107524921D01*
X129062481Y-107467156D01*
X129210527Y-107437708D01*
X129361473Y-107437708D01*
X129509519Y-107467156D01*
G37*
G36*
X57399935Y-103001390D02*
G01*
X57658951Y-103070793D01*
X57906692Y-103173411D01*
X58138919Y-103307487D01*
X58351659Y-103470728D01*
X58541272Y-103660341D01*
X58704513Y-103873081D01*
X58838589Y-104105308D01*
X58941207Y-104353049D01*
X59010610Y-104612065D01*
X59045611Y-104877924D01*
X59045611Y-105146076D01*
X59010610Y-105411935D01*
X58941207Y-105670951D01*
X58838589Y-105918692D01*
X58704513Y-106150919D01*
X58541272Y-106363659D01*
X58351659Y-106553272D01*
X58138919Y-106716513D01*
X57906692Y-106850589D01*
X57658951Y-106953207D01*
X57399935Y-107022610D01*
X57134076Y-107057611D01*
X56865924Y-107057611D01*
X56600065Y-107022610D01*
X56341049Y-106953207D01*
X56093308Y-106850589D01*
X55861081Y-106716513D01*
X55648341Y-106553272D01*
X55458728Y-106363659D01*
X55295487Y-106150919D01*
X55161411Y-105918692D01*
X55058793Y-105670951D01*
X54989390Y-105411935D01*
X54954389Y-105146076D01*
X54954389Y-104877924D01*
X54989390Y-104612065D01*
X55058793Y-104353049D01*
X55161411Y-104105308D01*
X55295487Y-103873081D01*
X55458728Y-103660341D01*
X55648341Y-103470728D01*
X55861081Y-103307487D01*
X56093308Y-103173411D01*
X56341049Y-103070793D01*
X56600065Y-103001390D01*
X56865924Y-102966389D01*
X57134076Y-102966389D01*
X57399935Y-103001390D01*
G37*
G36*
X87622742Y-105358601D02*
G01*
X87776687Y-105422367D01*
X87915234Y-105514941D01*
X88033059Y-105632766D01*
X88125633Y-105771313D01*
X88189399Y-105925258D01*
X88221907Y-106088685D01*
X88221907Y-106255315D01*
X88189399Y-106418742D01*
X88125633Y-106572687D01*
X88033059Y-106711234D01*
X87915234Y-106829059D01*
X87776687Y-106921633D01*
X87622742Y-106985399D01*
X87459315Y-107017907D01*
X87292685Y-107017907D01*
X87129258Y-106985399D01*
X86975313Y-106921633D01*
X86836766Y-106829059D01*
X86718941Y-106711234D01*
X86626367Y-106572687D01*
X86562601Y-106418742D01*
X86530093Y-106255315D01*
X86530093Y-106088685D01*
X86562601Y-105925258D01*
X86626367Y-105771313D01*
X86718941Y-105632766D01*
X86836766Y-105514941D01*
X86975313Y-105422367D01*
X87129258Y-105358601D01*
X87292685Y-105326093D01*
X87459315Y-105326093D01*
X87622742Y-105358601D01*
G37*
G36*
X91686742Y-105358601D02*
G01*
X91840687Y-105422367D01*
X91979234Y-105514941D01*
X92097059Y-105632766D01*
X92189633Y-105771313D01*
X92253399Y-105925258D01*
X92285907Y-106088685D01*
X92285907Y-106255315D01*
X92253399Y-106418742D01*
X92189633Y-106572687D01*
X92097059Y-106711234D01*
X91979234Y-106829059D01*
X91840687Y-106921633D01*
X91686742Y-106985399D01*
X91523315Y-107017907D01*
X91356685Y-107017907D01*
X91193258Y-106985399D01*
X91039313Y-106921633D01*
X90900766Y-106829059D01*
X90782941Y-106711234D01*
X90690367Y-106572687D01*
X90626601Y-106418742D01*
X90594093Y-106255315D01*
X90594093Y-106088685D01*
X90626601Y-105925258D01*
X90690367Y-105771313D01*
X90782941Y-105632766D01*
X90900766Y-105514941D01*
X91039313Y-105422367D01*
X91193258Y-105358601D01*
X91356685Y-105326093D01*
X91523315Y-105326093D01*
X91686742Y-105358601D01*
G37*
G36*
X73889315Y-104818093D02*
G01*
X74052742Y-104850601D01*
X74206687Y-104914367D01*
X74345234Y-105006941D01*
X74463059Y-105124766D01*
X74555633Y-105263313D01*
X74619399Y-105417258D01*
X74651907Y-105580685D01*
X74651907Y-105747315D01*
X74619399Y-105910742D01*
X74555633Y-106064687D01*
X74463059Y-106203234D01*
X74345234Y-106321059D01*
X74206687Y-106413633D01*
X74052742Y-106477399D01*
X73889315Y-106509907D01*
X73806000Y-106514000D01*
X73802940Y-106514000D01*
X73009060Y-106514000D01*
X73006000Y-106514000D01*
X72922685Y-106509907D01*
X72759258Y-106477399D01*
X72605313Y-106413633D01*
X72466766Y-106321059D01*
X72348941Y-106203234D01*
X72256367Y-106064687D01*
X72192601Y-105910742D01*
X72160093Y-105747315D01*
X72160093Y-105580685D01*
X72192601Y-105417258D01*
X72256367Y-105263313D01*
X72348941Y-105124766D01*
X72466766Y-105006941D01*
X72605313Y-104914367D01*
X72759258Y-104850601D01*
X72922685Y-104818093D01*
X73006000Y-104814000D01*
X73806000Y-104814000D01*
X73889315Y-104818093D01*
G37*
G36*
X81509315Y-104818093D02*
G01*
X81672742Y-104850601D01*
X81826687Y-104914367D01*
X81965234Y-105006941D01*
X82083059Y-105124766D01*
X82175633Y-105263313D01*
X82239399Y-105417258D01*
X82271907Y-105580685D01*
X82271907Y-105747315D01*
X82239399Y-105910742D01*
X82175633Y-106064687D01*
X82083059Y-106203234D01*
X81965234Y-106321059D01*
X81826687Y-106413633D01*
X81672742Y-106477399D01*
X81509315Y-106509907D01*
X81426000Y-106514000D01*
X81422940Y-106514000D01*
X80629060Y-106514000D01*
X80626000Y-106514000D01*
X80542685Y-106509907D01*
X80379258Y-106477399D01*
X80225313Y-106413633D01*
X80086766Y-106321059D01*
X79968941Y-106203234D01*
X79876367Y-106064687D01*
X79812601Y-105910742D01*
X79780093Y-105747315D01*
X79780093Y-105580685D01*
X79812601Y-105417258D01*
X79876367Y-105263313D01*
X79968941Y-105124766D01*
X80086766Y-105006941D01*
X80225313Y-104914367D01*
X80379258Y-104850601D01*
X80542685Y-104818093D01*
X80626000Y-104814000D01*
X81426000Y-104814000D01*
X81509315Y-104818093D01*
G37*
G36*
X68064742Y-104850601D02*
G01*
X68218687Y-104914367D01*
X68357234Y-105006941D01*
X68475059Y-105124766D01*
X68567633Y-105263313D01*
X68631399Y-105417258D01*
X68663907Y-105580685D01*
X68663907Y-105747315D01*
X68631399Y-105910742D01*
X68567633Y-106064687D01*
X68475059Y-106203234D01*
X68357234Y-106321059D01*
X68218687Y-106413633D01*
X68064742Y-106477399D01*
X67901315Y-106509907D01*
X67734685Y-106509907D01*
X67571258Y-106477399D01*
X67417313Y-106413633D01*
X67278766Y-106321059D01*
X67160941Y-106203234D01*
X67068367Y-106064687D01*
X67004601Y-105910742D01*
X66972093Y-105747315D01*
X66972093Y-105580685D01*
X67004601Y-105417258D01*
X67068367Y-105263313D01*
X67160941Y-105124766D01*
X67278766Y-105006941D01*
X67417313Y-104914367D01*
X67571258Y-104850601D01*
X67734685Y-104818093D01*
X67901315Y-104818093D01*
X68064742Y-104850601D01*
G37*
G36*
X103093519Y-104927156D02*
G01*
X103232975Y-104984921D01*
X103358483Y-105068782D01*
X103465218Y-105175517D01*
X103549079Y-105301025D01*
X103606844Y-105440481D01*
X103636292Y-105588527D01*
X103636292Y-105739473D01*
X103606844Y-105887519D01*
X103549079Y-106026975D01*
X103465218Y-106152483D01*
X103358483Y-106259218D01*
X103232975Y-106343079D01*
X103093519Y-106400844D01*
X102945473Y-106430292D01*
X102794527Y-106430292D01*
X102646481Y-106400844D01*
X102507025Y-106343079D01*
X102381517Y-106259218D01*
X102274782Y-106152483D01*
X102190921Y-106026975D01*
X102133156Y-105887519D01*
X102103708Y-105739473D01*
X102103708Y-105588527D01*
X102133156Y-105440481D01*
X102190921Y-105301025D01*
X102274782Y-105175517D01*
X102381517Y-105068782D01*
X102507025Y-104984921D01*
X102646481Y-104927156D01*
X102794527Y-104897708D01*
X102945473Y-104897708D01*
X103093519Y-104927156D01*
G37*
G36*
X117571519Y-104927156D02*
G01*
X117710975Y-104984921D01*
X117836483Y-105068782D01*
X117943218Y-105175517D01*
X118027079Y-105301025D01*
X118084844Y-105440481D01*
X118114292Y-105588527D01*
X118114292Y-105739473D01*
X118084844Y-105887519D01*
X118027079Y-106026975D01*
X117943218Y-106152483D01*
X117836483Y-106259218D01*
X117710975Y-106343079D01*
X117571519Y-106400844D01*
X117423473Y-106430292D01*
X117272527Y-106430292D01*
X117124481Y-106400844D01*
X116985025Y-106343079D01*
X116859517Y-106259218D01*
X116752782Y-106152483D01*
X116668921Y-106026975D01*
X116611156Y-105887519D01*
X116581708Y-105739473D01*
X116581708Y-105588527D01*
X116611156Y-105440481D01*
X116668921Y-105301025D01*
X116752782Y-105175517D01*
X116859517Y-105068782D01*
X116985025Y-104984921D01*
X117124481Y-104927156D01*
X117272527Y-104897708D01*
X117423473Y-104897708D01*
X117571519Y-104927156D01*
G37*
G36*
X132049519Y-104927156D02*
G01*
X132188975Y-104984921D01*
X132314483Y-105068782D01*
X132421218Y-105175517D01*
X132505079Y-105301025D01*
X132562844Y-105440481D01*
X132592292Y-105588527D01*
X132592292Y-105739473D01*
X132562844Y-105887519D01*
X132505079Y-106026975D01*
X132421218Y-106152483D01*
X132314483Y-106259218D01*
X132188975Y-106343079D01*
X132049519Y-106400844D01*
X131901473Y-106430292D01*
X131750527Y-106430292D01*
X131602481Y-106400844D01*
X131463025Y-106343079D01*
X131337517Y-106259218D01*
X131230782Y-106152483D01*
X131146921Y-106026975D01*
X131089156Y-105887519D01*
X131059708Y-105739473D01*
X131059708Y-105588527D01*
X131089156Y-105440481D01*
X131146921Y-105301025D01*
X131230782Y-105175517D01*
X131337517Y-105068782D01*
X131463025Y-104984921D01*
X131602481Y-104927156D01*
X131750527Y-104897708D01*
X131901473Y-104897708D01*
X132049519Y-104927156D01*
G37*
G36*
X73889315Y-102278093D02*
G01*
X74052742Y-102310601D01*
X74206687Y-102374367D01*
X74345234Y-102466941D01*
X74463059Y-102584766D01*
X74555633Y-102723313D01*
X74619399Y-102877258D01*
X74651907Y-103040685D01*
X74651907Y-103207315D01*
X74619399Y-103370742D01*
X74555633Y-103524687D01*
X74463059Y-103663234D01*
X74345234Y-103781059D01*
X74206687Y-103873633D01*
X74052742Y-103937399D01*
X73889315Y-103969907D01*
X73806000Y-103974000D01*
X73802940Y-103974000D01*
X73009060Y-103974000D01*
X73006000Y-103974000D01*
X72922685Y-103969907D01*
X72759258Y-103937399D01*
X72605313Y-103873633D01*
X72466766Y-103781059D01*
X72348941Y-103663234D01*
X72256367Y-103524687D01*
X72192601Y-103370742D01*
X72160093Y-103207315D01*
X72160093Y-103040685D01*
X72192601Y-102877258D01*
X72256367Y-102723313D01*
X72348941Y-102584766D01*
X72466766Y-102466941D01*
X72605313Y-102374367D01*
X72759258Y-102310601D01*
X72922685Y-102278093D01*
X73006000Y-102274000D01*
X73806000Y-102274000D01*
X73889315Y-102278093D01*
G37*
G36*
X81509315Y-102278093D02*
G01*
X81672742Y-102310601D01*
X81826687Y-102374367D01*
X81965234Y-102466941D01*
X82083059Y-102584766D01*
X82175633Y-102723313D01*
X82239399Y-102877258D01*
X82271907Y-103040685D01*
X82271907Y-103207315D01*
X82239399Y-103370742D01*
X82175633Y-103524687D01*
X82083059Y-103663234D01*
X81965234Y-103781059D01*
X81826687Y-103873633D01*
X81672742Y-103937399D01*
X81509315Y-103969907D01*
X81426000Y-103974000D01*
X81422940Y-103974000D01*
X80629060Y-103974000D01*
X80626000Y-103974000D01*
X80542685Y-103969907D01*
X80379258Y-103937399D01*
X80225313Y-103873633D01*
X80086766Y-103781059D01*
X79968941Y-103663234D01*
X79876367Y-103524687D01*
X79812601Y-103370742D01*
X79780093Y-103207315D01*
X79780093Y-103040685D01*
X79812601Y-102877258D01*
X79876367Y-102723313D01*
X79968941Y-102584766D01*
X80086766Y-102466941D01*
X80225313Y-102374367D01*
X80379258Y-102310601D01*
X80542685Y-102278093D01*
X80626000Y-102274000D01*
X81426000Y-102274000D01*
X81509315Y-102278093D01*
G37*
G36*
X85844742Y-102310601D02*
G01*
X85998687Y-102374367D01*
X86137234Y-102466941D01*
X86255059Y-102584766D01*
X86347633Y-102723313D01*
X86411399Y-102877258D01*
X86443907Y-103040685D01*
X86443907Y-103207315D01*
X86411399Y-103370742D01*
X86347633Y-103524687D01*
X86255059Y-103663234D01*
X86137234Y-103781059D01*
X85998687Y-103873633D01*
X85844742Y-103937399D01*
X85681315Y-103969907D01*
X85514685Y-103969907D01*
X85351258Y-103937399D01*
X85197313Y-103873633D01*
X85058766Y-103781059D01*
X84940941Y-103663234D01*
X84848367Y-103524687D01*
X84784601Y-103370742D01*
X84752093Y-103207315D01*
X84752093Y-103040685D01*
X84784601Y-102877258D01*
X84848367Y-102723313D01*
X84940941Y-102584766D01*
X85058766Y-102466941D01*
X85197313Y-102374367D01*
X85351258Y-102310601D01*
X85514685Y-102278093D01*
X85681315Y-102278093D01*
X85844742Y-102310601D01*
G37*
G36*
X90162742Y-102310601D02*
G01*
X90316687Y-102374367D01*
X90455234Y-102466941D01*
X90573059Y-102584766D01*
X90665633Y-102723313D01*
X90729399Y-102877258D01*
X90761907Y-103040685D01*
X90761907Y-103207315D01*
X90729399Y-103370742D01*
X90665633Y-103524687D01*
X90573059Y-103663234D01*
X90455234Y-103781059D01*
X90316687Y-103873633D01*
X90162742Y-103937399D01*
X89999315Y-103969907D01*
X89832685Y-103969907D01*
X89669258Y-103937399D01*
X89515313Y-103873633D01*
X89376766Y-103781059D01*
X89258941Y-103663234D01*
X89166367Y-103524687D01*
X89102601Y-103370742D01*
X89070093Y-103207315D01*
X89070093Y-103040685D01*
X89102601Y-102877258D01*
X89166367Y-102723313D01*
X89258941Y-102584766D01*
X89376766Y-102466941D01*
X89515313Y-102374367D01*
X89669258Y-102310601D01*
X89832685Y-102278093D01*
X89999315Y-102278093D01*
X90162742Y-102310601D01*
G37*
G36*
X94480742Y-102310601D02*
G01*
X94634687Y-102374367D01*
X94773234Y-102466941D01*
X94891059Y-102584766D01*
X94983633Y-102723313D01*
X95047399Y-102877258D01*
X95079907Y-103040685D01*
X95079907Y-103207315D01*
X95047399Y-103370742D01*
X94983633Y-103524687D01*
X94891059Y-103663234D01*
X94773234Y-103781059D01*
X94634687Y-103873633D01*
X94480742Y-103937399D01*
X94317315Y-103969907D01*
X94150685Y-103969907D01*
X93987258Y-103937399D01*
X93833313Y-103873633D01*
X93694766Y-103781059D01*
X93576941Y-103663234D01*
X93484367Y-103524687D01*
X93420601Y-103370742D01*
X93388093Y-103207315D01*
X93388093Y-103040685D01*
X93420601Y-102877258D01*
X93484367Y-102723313D01*
X93576941Y-102584766D01*
X93694766Y-102466941D01*
X93833313Y-102374367D01*
X93987258Y-102310601D01*
X94150685Y-102278093D01*
X94317315Y-102278093D01*
X94480742Y-102310601D01*
G37*
G36*
X73889315Y-99738093D02*
G01*
X74052742Y-99770601D01*
X74206687Y-99834367D01*
X74345234Y-99926941D01*
X74463059Y-100044766D01*
X74555633Y-100183313D01*
X74619399Y-100337258D01*
X74651907Y-100500685D01*
X74651907Y-100667315D01*
X74619399Y-100830742D01*
X74555633Y-100984687D01*
X74463059Y-101123234D01*
X74345234Y-101241059D01*
X74206687Y-101333633D01*
X74052742Y-101397399D01*
X73889315Y-101429907D01*
X73806000Y-101434000D01*
X73802940Y-101434000D01*
X73009060Y-101434000D01*
X73006000Y-101434000D01*
X72922685Y-101429907D01*
X72759258Y-101397399D01*
X72605313Y-101333633D01*
X72466766Y-101241059D01*
X72348941Y-101123234D01*
X72256367Y-100984687D01*
X72192601Y-100830742D01*
X72160093Y-100667315D01*
X72160093Y-100500685D01*
X72192601Y-100337258D01*
X72256367Y-100183313D01*
X72348941Y-100044766D01*
X72466766Y-99926941D01*
X72605313Y-99834367D01*
X72759258Y-99770601D01*
X72922685Y-99738093D01*
X73006000Y-99734000D01*
X73806000Y-99734000D01*
X73889315Y-99738093D01*
G37*
G36*
X81509315Y-99738093D02*
G01*
X81672742Y-99770601D01*
X81826687Y-99834367D01*
X81965234Y-99926941D01*
X82083059Y-100044766D01*
X82175633Y-100183313D01*
X82239399Y-100337258D01*
X82271907Y-100500685D01*
X82271907Y-100667315D01*
X82239399Y-100830742D01*
X82175633Y-100984687D01*
X82083059Y-101123234D01*
X81965234Y-101241059D01*
X81826687Y-101333633D01*
X81672742Y-101397399D01*
X81509315Y-101429907D01*
X81426000Y-101434000D01*
X81422940Y-101434000D01*
X80629060Y-101434000D01*
X80626000Y-101434000D01*
X80542685Y-101429907D01*
X80379258Y-101397399D01*
X80225313Y-101333633D01*
X80086766Y-101241059D01*
X79968941Y-101123234D01*
X79876367Y-100984687D01*
X79812601Y-100830742D01*
X79780093Y-100667315D01*
X79780093Y-100500685D01*
X79812601Y-100337258D01*
X79876367Y-100183313D01*
X79968941Y-100044766D01*
X80086766Y-99926941D01*
X80225313Y-99834367D01*
X80379258Y-99770601D01*
X80542685Y-99738093D01*
X80626000Y-99734000D01*
X81426000Y-99734000D01*
X81509315Y-99738093D01*
G37*
G36*
X118217134Y-97655806D02*
G01*
X118233355Y-97666645D01*
X118244194Y-97682866D01*
X118248000Y-97702000D01*
X118248000Y-99402000D01*
X118244194Y-99421134D01*
X118233355Y-99437355D01*
X118217134Y-99448194D01*
X118198000Y-99452000D01*
X116498000Y-99452000D01*
X116478866Y-99448194D01*
X116462645Y-99437355D01*
X116451806Y-99421134D01*
X116448000Y-99402000D01*
X116448000Y-97702000D01*
X116451806Y-97682866D01*
X116462645Y-97666645D01*
X116478866Y-97655806D01*
X116498000Y-97652000D01*
X118198000Y-97652000D01*
X118217134Y-97655806D01*
G37*
G36*
X132695134Y-97655806D02*
G01*
X132711355Y-97666645D01*
X132722194Y-97682866D01*
X132726000Y-97702000D01*
X132726000Y-99402000D01*
X132722194Y-99421134D01*
X132711355Y-99437355D01*
X132695134Y-99448194D01*
X132676000Y-99452000D01*
X130976000Y-99452000D01*
X130956866Y-99448194D01*
X130940645Y-99437355D01*
X130929806Y-99421134D01*
X130926000Y-99402000D01*
X130926000Y-97702000D01*
X130929806Y-97682866D01*
X130940645Y-97666645D01*
X130956866Y-97655806D01*
X130976000Y-97652000D01*
X132676000Y-97652000D01*
X132695134Y-97655806D01*
G37*
G36*
X115069256Y-97690754D02*
G01*
X115232257Y-97758271D01*
X115378954Y-97856291D01*
X115503709Y-97981046D01*
X115601729Y-98127743D01*
X115669246Y-98290744D01*
X115703666Y-98463785D01*
X115703666Y-98640215D01*
X115669246Y-98813256D01*
X115601729Y-98976257D01*
X115503709Y-99122954D01*
X115378954Y-99247709D01*
X115232257Y-99345729D01*
X115069256Y-99413246D01*
X114896215Y-99447666D01*
X114719785Y-99447666D01*
X114546744Y-99413246D01*
X114383743Y-99345729D01*
X114237046Y-99247709D01*
X114112291Y-99122954D01*
X114014271Y-98976257D01*
X113946754Y-98813256D01*
X113912334Y-98640215D01*
X113912334Y-98463785D01*
X113946754Y-98290744D01*
X114014271Y-98127743D01*
X114112291Y-97981046D01*
X114237046Y-97856291D01*
X114383743Y-97758271D01*
X114546744Y-97690754D01*
X114719785Y-97656334D01*
X114896215Y-97656334D01*
X115069256Y-97690754D01*
G37*
G36*
X129547256Y-97690754D02*
G01*
X129710257Y-97758271D01*
X129856954Y-97856291D01*
X129981709Y-97981046D01*
X130079729Y-98127743D01*
X130147246Y-98290744D01*
X130181666Y-98463785D01*
X130181666Y-98640215D01*
X130147246Y-98813256D01*
X130079729Y-98976257D01*
X129981709Y-99122954D01*
X129856954Y-99247709D01*
X129710257Y-99345729D01*
X129547256Y-99413246D01*
X129374215Y-99447666D01*
X129197785Y-99447666D01*
X129024744Y-99413246D01*
X128861743Y-99345729D01*
X128715046Y-99247709D01*
X128590291Y-99122954D01*
X128492271Y-98976257D01*
X128424754Y-98813256D01*
X128390334Y-98640215D01*
X128390334Y-98463785D01*
X128424754Y-98290744D01*
X128492271Y-98127743D01*
X128590291Y-97981046D01*
X128715046Y-97856291D01*
X128861743Y-97758271D01*
X129024744Y-97690754D01*
X129197785Y-97656334D01*
X129374215Y-97656334D01*
X129547256Y-97690754D01*
G37*
G36*
X59239134Y-97235806D02*
G01*
X59255355Y-97246645D01*
X59266194Y-97262866D01*
X59270000Y-97282000D01*
X59270000Y-98882000D01*
X59266194Y-98901134D01*
X59255355Y-98917355D01*
X59239134Y-98928194D01*
X59220000Y-98932000D01*
X57620000Y-98932000D01*
X57600866Y-98928194D01*
X57584645Y-98917355D01*
X57573806Y-98901134D01*
X57570000Y-98882000D01*
X57570000Y-97282000D01*
X57573806Y-97262866D01*
X57584645Y-97246645D01*
X57600866Y-97235806D01*
X57620000Y-97232000D01*
X59220000Y-97232000D01*
X59239134Y-97235806D01*
G37*
G36*
X73889315Y-97198093D02*
G01*
X74052742Y-97230601D01*
X74206687Y-97294367D01*
X74345234Y-97386941D01*
X74463059Y-97504766D01*
X74555633Y-97643313D01*
X74619399Y-97797258D01*
X74651907Y-97960685D01*
X74651907Y-98127315D01*
X74619399Y-98290742D01*
X74555633Y-98444687D01*
X74463059Y-98583234D01*
X74345234Y-98701059D01*
X74206687Y-98793633D01*
X74052742Y-98857399D01*
X73889315Y-98889907D01*
X73806000Y-98894000D01*
X73802940Y-98894000D01*
X73009060Y-98894000D01*
X73006000Y-98894000D01*
X72922685Y-98889907D01*
X72759258Y-98857399D01*
X72605313Y-98793633D01*
X72466766Y-98701059D01*
X72348941Y-98583234D01*
X72256367Y-98444687D01*
X72192601Y-98290742D01*
X72160093Y-98127315D01*
X72160093Y-97960685D01*
X72192601Y-97797258D01*
X72256367Y-97643313D01*
X72348941Y-97504766D01*
X72466766Y-97386941D01*
X72605313Y-97294367D01*
X72759258Y-97230601D01*
X72922685Y-97198093D01*
X73006000Y-97194000D01*
X73806000Y-97194000D01*
X73889315Y-97198093D01*
G37*
G36*
X81509315Y-97198093D02*
G01*
X81672742Y-97230601D01*
X81826687Y-97294367D01*
X81965234Y-97386941D01*
X82083059Y-97504766D01*
X82175633Y-97643313D01*
X82239399Y-97797258D01*
X82271907Y-97960685D01*
X82271907Y-98127315D01*
X82239399Y-98290742D01*
X82175633Y-98444687D01*
X82083059Y-98583234D01*
X81965234Y-98701059D01*
X81826687Y-98793633D01*
X81672742Y-98857399D01*
X81509315Y-98889907D01*
X81426000Y-98894000D01*
X81422940Y-98894000D01*
X80629060Y-98894000D01*
X80626000Y-98894000D01*
X80542685Y-98889907D01*
X80379258Y-98857399D01*
X80225313Y-98793633D01*
X80086766Y-98701059D01*
X79968941Y-98583234D01*
X79876367Y-98444687D01*
X79812601Y-98290742D01*
X79780093Y-98127315D01*
X79780093Y-97960685D01*
X79812601Y-97797258D01*
X79876367Y-97643313D01*
X79968941Y-97504766D01*
X80086766Y-97386941D01*
X80225313Y-97294367D01*
X80379258Y-97230601D01*
X80542685Y-97198093D01*
X80626000Y-97194000D01*
X81426000Y-97194000D01*
X81509315Y-97198093D01*
G37*
G36*
X55826742Y-95883601D02*
G01*
X55980687Y-95947367D01*
X56119234Y-96039941D01*
X56237059Y-96157766D01*
X56329633Y-96296313D01*
X56393399Y-96450258D01*
X56425907Y-96613685D01*
X56425907Y-96780315D01*
X56393399Y-96943742D01*
X56329633Y-97097687D01*
X56237059Y-97236234D01*
X56119234Y-97354059D01*
X55980687Y-97446633D01*
X55826742Y-97510399D01*
X55663315Y-97542907D01*
X55496685Y-97542907D01*
X55333258Y-97510399D01*
X55179313Y-97446633D01*
X55040766Y-97354059D01*
X54922941Y-97236234D01*
X54830367Y-97097687D01*
X54766601Y-96943742D01*
X54734093Y-96780315D01*
X54734093Y-96613685D01*
X54766601Y-96450258D01*
X54830367Y-96296313D01*
X54922941Y-96157766D01*
X55040766Y-96039941D01*
X55179313Y-95947367D01*
X55333258Y-95883601D01*
X55496685Y-95851093D01*
X55663315Y-95851093D01*
X55826742Y-95883601D01*
G37*
G36*
X73889315Y-94658093D02*
G01*
X74052742Y-94690601D01*
X74206687Y-94754367D01*
X74345234Y-94846941D01*
X74463059Y-94964766D01*
X74555633Y-95103313D01*
X74619399Y-95257258D01*
X74651907Y-95420685D01*
X74651907Y-95587315D01*
X74619399Y-95750742D01*
X74555633Y-95904687D01*
X74463059Y-96043234D01*
X74345234Y-96161059D01*
X74206687Y-96253633D01*
X74052742Y-96317399D01*
X73889315Y-96349907D01*
X73806000Y-96354000D01*
X73802940Y-96354000D01*
X73009060Y-96354000D01*
X73006000Y-96354000D01*
X72922685Y-96349907D01*
X72759258Y-96317399D01*
X72605313Y-96253633D01*
X72466766Y-96161059D01*
X72348941Y-96043234D01*
X72256367Y-95904687D01*
X72192601Y-95750742D01*
X72160093Y-95587315D01*
X72160093Y-95420685D01*
X72192601Y-95257258D01*
X72256367Y-95103313D01*
X72348941Y-94964766D01*
X72466766Y-94846941D01*
X72605313Y-94754367D01*
X72759258Y-94690601D01*
X72922685Y-94658093D01*
X73006000Y-94654000D01*
X73806000Y-94654000D01*
X73889315Y-94658093D01*
G37*
G36*
X81509315Y-94658093D02*
G01*
X81672742Y-94690601D01*
X81826687Y-94754367D01*
X81965234Y-94846941D01*
X82083059Y-94964766D01*
X82175633Y-95103313D01*
X82239399Y-95257258D01*
X82271907Y-95420685D01*
X82271907Y-95587315D01*
X82239399Y-95750742D01*
X82175633Y-95904687D01*
X82083059Y-96043234D01*
X81965234Y-96161059D01*
X81826687Y-96253633D01*
X81672742Y-96317399D01*
X81509315Y-96349907D01*
X81426000Y-96354000D01*
X81422940Y-96354000D01*
X80629060Y-96354000D01*
X80626000Y-96354000D01*
X80542685Y-96349907D01*
X80379258Y-96317399D01*
X80225313Y-96253633D01*
X80086766Y-96161059D01*
X79968941Y-96043234D01*
X79876367Y-95904687D01*
X79812601Y-95750742D01*
X79780093Y-95587315D01*
X79780093Y-95420685D01*
X79812601Y-95257258D01*
X79876367Y-95103313D01*
X79968941Y-94964766D01*
X80086766Y-94846941D01*
X80225313Y-94754367D01*
X80379258Y-94690601D01*
X80542685Y-94658093D01*
X80626000Y-94654000D01*
X81426000Y-94654000D01*
X81509315Y-94658093D01*
G37*
G36*
X68064742Y-94690601D02*
G01*
X68218687Y-94754367D01*
X68357234Y-94846941D01*
X68475059Y-94964766D01*
X68567633Y-95103313D01*
X68631399Y-95257258D01*
X68663907Y-95420685D01*
X68663907Y-95587315D01*
X68631399Y-95750742D01*
X68567633Y-95904687D01*
X68475059Y-96043234D01*
X68357234Y-96161059D01*
X68218687Y-96253633D01*
X68064742Y-96317399D01*
X67901315Y-96349907D01*
X67734685Y-96349907D01*
X67571258Y-96317399D01*
X67417313Y-96253633D01*
X67278766Y-96161059D01*
X67160941Y-96043234D01*
X67068367Y-95904687D01*
X67004601Y-95750742D01*
X66972093Y-95587315D01*
X66972093Y-95420685D01*
X67004601Y-95257258D01*
X67068367Y-95103313D01*
X67160941Y-94964766D01*
X67278766Y-94846941D01*
X67417313Y-94754367D01*
X67571258Y-94690601D01*
X67734685Y-94658093D01*
X67901315Y-94658093D01*
X68064742Y-94690601D01*
G37*
G36*
X58666742Y-94498601D02*
G01*
X58820687Y-94562367D01*
X58959234Y-94654941D01*
X59077059Y-94772766D01*
X59169633Y-94911313D01*
X59233399Y-95065258D01*
X59265907Y-95228685D01*
X59265907Y-95395315D01*
X59233399Y-95558742D01*
X59169633Y-95712687D01*
X59077059Y-95851234D01*
X58959234Y-95969059D01*
X58820687Y-96061633D01*
X58666742Y-96125399D01*
X58503315Y-96157907D01*
X58336685Y-96157907D01*
X58173258Y-96125399D01*
X58019313Y-96061633D01*
X57880766Y-95969059D01*
X57762941Y-95851234D01*
X57670367Y-95712687D01*
X57606601Y-95558742D01*
X57574093Y-95395315D01*
X57574093Y-95228685D01*
X57606601Y-95065258D01*
X57670367Y-94911313D01*
X57762941Y-94772766D01*
X57880766Y-94654941D01*
X58019313Y-94562367D01*
X58173258Y-94498601D01*
X58336685Y-94466093D01*
X58503315Y-94466093D01*
X58666742Y-94498601D01*
G37*
G36*
X55826742Y-93113601D02*
G01*
X55980687Y-93177367D01*
X56119234Y-93269941D01*
X56237059Y-93387766D01*
X56329633Y-93526313D01*
X56393399Y-93680258D01*
X56425907Y-93843685D01*
X56425907Y-94010315D01*
X56393399Y-94173742D01*
X56329633Y-94327687D01*
X56237059Y-94466234D01*
X56119234Y-94584059D01*
X55980687Y-94676633D01*
X55826742Y-94740399D01*
X55663315Y-94772907D01*
X55496685Y-94772907D01*
X55333258Y-94740399D01*
X55179313Y-94676633D01*
X55040766Y-94584059D01*
X54922941Y-94466234D01*
X54830367Y-94327687D01*
X54766601Y-94173742D01*
X54734093Y-94010315D01*
X54734093Y-93843685D01*
X54766601Y-93680258D01*
X54830367Y-93526313D01*
X54922941Y-93387766D01*
X55040766Y-93269941D01*
X55179313Y-93177367D01*
X55333258Y-93113601D01*
X55496685Y-93081093D01*
X55663315Y-93081093D01*
X55826742Y-93113601D01*
G37*
G36*
X74424685Y-92121969D02*
G01*
X74440461Y-92128934D01*
X74448222Y-92130164D01*
X74480542Y-92146632D01*
X74525541Y-92166501D01*
X74603499Y-92244459D01*
X74623370Y-92289464D01*
X74639835Y-92321777D01*
X74641063Y-92329535D01*
X74648031Y-92345315D01*
X74656000Y-92414000D01*
X74656000Y-93514000D01*
X74648031Y-93582685D01*
X74641063Y-93598464D01*
X74639835Y-93606222D01*
X74623373Y-93638528D01*
X74603499Y-93683541D01*
X74525541Y-93761499D01*
X74480528Y-93781373D01*
X74448222Y-93797835D01*
X74440464Y-93799063D01*
X74424685Y-93806031D01*
X74356000Y-93814000D01*
X72456000Y-93814000D01*
X72387315Y-93806031D01*
X72371535Y-93799063D01*
X72363777Y-93797835D01*
X72331464Y-93781370D01*
X72286459Y-93761499D01*
X72208501Y-93683541D01*
X72188632Y-93638542D01*
X72172164Y-93606222D01*
X72170934Y-93598461D01*
X72163969Y-93582685D01*
X72156000Y-93514000D01*
X72156000Y-92414000D01*
X72163969Y-92345315D01*
X72170934Y-92329539D01*
X72172164Y-92321777D01*
X72188635Y-92289449D01*
X72208501Y-92244459D01*
X72286459Y-92166501D01*
X72331449Y-92146635D01*
X72363777Y-92130164D01*
X72371539Y-92128934D01*
X72387315Y-92121969D01*
X72456000Y-92114000D01*
X74356000Y-92114000D01*
X74424685Y-92121969D01*
G37*
G36*
X81509315Y-92118093D02*
G01*
X81672742Y-92150601D01*
X81826687Y-92214367D01*
X81965234Y-92306941D01*
X82083059Y-92424766D01*
X82175633Y-92563313D01*
X82239399Y-92717258D01*
X82271907Y-92880685D01*
X82271907Y-93047315D01*
X82239399Y-93210742D01*
X82175633Y-93364687D01*
X82083059Y-93503234D01*
X81965234Y-93621059D01*
X81826687Y-93713633D01*
X81672742Y-93777399D01*
X81509315Y-93809907D01*
X81426000Y-93814000D01*
X81422940Y-93814000D01*
X80629060Y-93814000D01*
X80626000Y-93814000D01*
X80542685Y-93809907D01*
X80379258Y-93777399D01*
X80225313Y-93713633D01*
X80086766Y-93621059D01*
X79968941Y-93503234D01*
X79876367Y-93364687D01*
X79812601Y-93210742D01*
X79780093Y-93047315D01*
X79780093Y-92880685D01*
X79812601Y-92717258D01*
X79876367Y-92563313D01*
X79968941Y-92424766D01*
X80086766Y-92306941D01*
X80225313Y-92214367D01*
X80379258Y-92150601D01*
X80542685Y-92118093D01*
X80626000Y-92114000D01*
X81426000Y-92114000D01*
X81509315Y-92118093D01*
G37*
G36*
X85844742Y-92150601D02*
G01*
X85998687Y-92214367D01*
X86137234Y-92306941D01*
X86255059Y-92424766D01*
X86347633Y-92563313D01*
X86411399Y-92717258D01*
X86443907Y-92880685D01*
X86443907Y-93047315D01*
X86411399Y-93210742D01*
X86347633Y-93364687D01*
X86255059Y-93503234D01*
X86137234Y-93621059D01*
X85998687Y-93713633D01*
X85844742Y-93777399D01*
X85681315Y-93809907D01*
X85514685Y-93809907D01*
X85351258Y-93777399D01*
X85197313Y-93713633D01*
X85058766Y-93621059D01*
X84940941Y-93503234D01*
X84848367Y-93364687D01*
X84784601Y-93210742D01*
X84752093Y-93047315D01*
X84752093Y-92880685D01*
X84784601Y-92717258D01*
X84848367Y-92563313D01*
X84940941Y-92424766D01*
X85058766Y-92306941D01*
X85197313Y-92214367D01*
X85351258Y-92150601D01*
X85514685Y-92118093D01*
X85681315Y-92118093D01*
X85844742Y-92150601D01*
G37*
G36*
X90162742Y-92150601D02*
G01*
X90316687Y-92214367D01*
X90455234Y-92306941D01*
X90573059Y-92424766D01*
X90665633Y-92563313D01*
X90729399Y-92717258D01*
X90761907Y-92880685D01*
X90761907Y-93047315D01*
X90729399Y-93210742D01*
X90665633Y-93364687D01*
X90573059Y-93503234D01*
X90455234Y-93621059D01*
X90316687Y-93713633D01*
X90162742Y-93777399D01*
X89999315Y-93809907D01*
X89832685Y-93809907D01*
X89669258Y-93777399D01*
X89515313Y-93713633D01*
X89376766Y-93621059D01*
X89258941Y-93503234D01*
X89166367Y-93364687D01*
X89102601Y-93210742D01*
X89070093Y-93047315D01*
X89070093Y-92880685D01*
X89102601Y-92717258D01*
X89166367Y-92563313D01*
X89258941Y-92424766D01*
X89376766Y-92306941D01*
X89515313Y-92214367D01*
X89669258Y-92150601D01*
X89832685Y-92118093D01*
X89999315Y-92118093D01*
X90162742Y-92150601D01*
G37*
G36*
X94480742Y-92150601D02*
G01*
X94634687Y-92214367D01*
X94773234Y-92306941D01*
X94891059Y-92424766D01*
X94983633Y-92563313D01*
X95047399Y-92717258D01*
X95079907Y-92880685D01*
X95079907Y-93047315D01*
X95047399Y-93210742D01*
X94983633Y-93364687D01*
X94891059Y-93503234D01*
X94773234Y-93621059D01*
X94634687Y-93713633D01*
X94480742Y-93777399D01*
X94317315Y-93809907D01*
X94150685Y-93809907D01*
X93987258Y-93777399D01*
X93833313Y-93713633D01*
X93694766Y-93621059D01*
X93576941Y-93503234D01*
X93484367Y-93364687D01*
X93420601Y-93210742D01*
X93388093Y-93047315D01*
X93388093Y-92880685D01*
X93420601Y-92717258D01*
X93484367Y-92563313D01*
X93576941Y-92424766D01*
X93694766Y-92306941D01*
X93833313Y-92214367D01*
X93987258Y-92150601D01*
X94150685Y-92118093D01*
X94317315Y-92118093D01*
X94480742Y-92150601D01*
G37*
G36*
X58666742Y-91728601D02*
G01*
X58820687Y-91792367D01*
X58959234Y-91884941D01*
X59077059Y-92002766D01*
X59169633Y-92141313D01*
X59233399Y-92295258D01*
X59265907Y-92458685D01*
X59265907Y-92625315D01*
X59233399Y-92788742D01*
X59169633Y-92942687D01*
X59077059Y-93081234D01*
X58959234Y-93199059D01*
X58820687Y-93291633D01*
X58666742Y-93355399D01*
X58503315Y-93387907D01*
X58336685Y-93387907D01*
X58173258Y-93355399D01*
X58019313Y-93291633D01*
X57880766Y-93199059D01*
X57762941Y-93081234D01*
X57670367Y-92942687D01*
X57606601Y-92788742D01*
X57574093Y-92625315D01*
X57574093Y-92458685D01*
X57606601Y-92295258D01*
X57670367Y-92141313D01*
X57762941Y-92002766D01*
X57880766Y-91884941D01*
X58019313Y-91792367D01*
X58173258Y-91728601D01*
X58336685Y-91696093D01*
X58503315Y-91696093D01*
X58666742Y-91728601D01*
G37*
G36*
X55826742Y-90343601D02*
G01*
X55980687Y-90407367D01*
X56119234Y-90499941D01*
X56237059Y-90617766D01*
X56329633Y-90756313D01*
X56393399Y-90910258D01*
X56425907Y-91073685D01*
X56425907Y-91240315D01*
X56393399Y-91403742D01*
X56329633Y-91557687D01*
X56237059Y-91696234D01*
X56119234Y-91814059D01*
X55980687Y-91906633D01*
X55826742Y-91970399D01*
X55663315Y-92002907D01*
X55496685Y-92002907D01*
X55333258Y-91970399D01*
X55179313Y-91906633D01*
X55040766Y-91814059D01*
X54922941Y-91696234D01*
X54830367Y-91557687D01*
X54766601Y-91403742D01*
X54734093Y-91240315D01*
X54734093Y-91073685D01*
X54766601Y-90910258D01*
X54830367Y-90756313D01*
X54922941Y-90617766D01*
X55040766Y-90499941D01*
X55179313Y-90407367D01*
X55333258Y-90343601D01*
X55496685Y-90311093D01*
X55663315Y-90311093D01*
X55826742Y-90343601D01*
G37*
G36*
X58666742Y-88958601D02*
G01*
X58820687Y-89022367D01*
X58959234Y-89114941D01*
X59077059Y-89232766D01*
X59169633Y-89371313D01*
X59233399Y-89525258D01*
X59265907Y-89688685D01*
X59265907Y-89855315D01*
X59233399Y-90018742D01*
X59169633Y-90172687D01*
X59077059Y-90311234D01*
X58959234Y-90429059D01*
X58820687Y-90521633D01*
X58666742Y-90585399D01*
X58503315Y-90617907D01*
X58336685Y-90617907D01*
X58173258Y-90585399D01*
X58019313Y-90521633D01*
X57880766Y-90429059D01*
X57762941Y-90311234D01*
X57670367Y-90172687D01*
X57606601Y-90018742D01*
X57574093Y-89855315D01*
X57574093Y-89688685D01*
X57606601Y-89525258D01*
X57670367Y-89371313D01*
X57762941Y-89232766D01*
X57880766Y-89114941D01*
X58019313Y-89022367D01*
X58173258Y-88958601D01*
X58336685Y-88926093D01*
X58503315Y-88926093D01*
X58666742Y-88958601D01*
G37*
G36*
X81526742Y-87578601D02*
G01*
X81680687Y-87642367D01*
X81819234Y-87734941D01*
X81937059Y-87852766D01*
X82029633Y-87991313D01*
X82093399Y-88145258D01*
X82125907Y-88308685D01*
X82125907Y-88475315D01*
X82093399Y-88638742D01*
X82029633Y-88792687D01*
X81937059Y-88931234D01*
X81819234Y-89049059D01*
X81680687Y-89141633D01*
X81526742Y-89205399D01*
X81363315Y-89237907D01*
X81196685Y-89237907D01*
X81033258Y-89205399D01*
X80879313Y-89141633D01*
X80740766Y-89049059D01*
X80622941Y-88931234D01*
X80530367Y-88792687D01*
X80466601Y-88638742D01*
X80434093Y-88475315D01*
X80434093Y-88308685D01*
X80466601Y-88145258D01*
X80530367Y-87991313D01*
X80622941Y-87852766D01*
X80740766Y-87734941D01*
X80879313Y-87642367D01*
X81033258Y-87578601D01*
X81196685Y-87546093D01*
X81363315Y-87546093D01*
X81526742Y-87578601D01*
G37*
G36*
X91686742Y-87578601D02*
G01*
X91840687Y-87642367D01*
X91979234Y-87734941D01*
X92097059Y-87852766D01*
X92189633Y-87991313D01*
X92253399Y-88145258D01*
X92285907Y-88308685D01*
X92285907Y-88475315D01*
X92253399Y-88638742D01*
X92189633Y-88792687D01*
X92097059Y-88931234D01*
X91979234Y-89049059D01*
X91840687Y-89141633D01*
X91686742Y-89205399D01*
X91523315Y-89237907D01*
X91356685Y-89237907D01*
X91193258Y-89205399D01*
X91039313Y-89141633D01*
X90900766Y-89049059D01*
X90782941Y-88931234D01*
X90690367Y-88792687D01*
X90626601Y-88638742D01*
X90594093Y-88475315D01*
X90594093Y-88308685D01*
X90626601Y-88145258D01*
X90690367Y-87991313D01*
X90782941Y-87852766D01*
X90900766Y-87734941D01*
X91039313Y-87642367D01*
X91193258Y-87578601D01*
X91356685Y-87546093D01*
X91523315Y-87546093D01*
X91686742Y-87578601D01*
G37*
G36*
X55826742Y-87573601D02*
G01*
X55980687Y-87637367D01*
X56119234Y-87729941D01*
X56237059Y-87847766D01*
X56329633Y-87986313D01*
X56393399Y-88140258D01*
X56425907Y-88303685D01*
X56425907Y-88470315D01*
X56393399Y-88633742D01*
X56329633Y-88787687D01*
X56237059Y-88926234D01*
X56119234Y-89044059D01*
X55980687Y-89136633D01*
X55826742Y-89200399D01*
X55663315Y-89232907D01*
X55496685Y-89232907D01*
X55333258Y-89200399D01*
X55179313Y-89136633D01*
X55040766Y-89044059D01*
X54922941Y-88926234D01*
X54830367Y-88787687D01*
X54766601Y-88633742D01*
X54734093Y-88470315D01*
X54734093Y-88303685D01*
X54766601Y-88140258D01*
X54830367Y-87986313D01*
X54922941Y-87847766D01*
X55040766Y-87729941D01*
X55179313Y-87637367D01*
X55333258Y-87573601D01*
X55496685Y-87541093D01*
X55663315Y-87541093D01*
X55826742Y-87573601D01*
G37*
G36*
X58666742Y-86188601D02*
G01*
X58820687Y-86252367D01*
X58959234Y-86344941D01*
X59077059Y-86462766D01*
X59169633Y-86601313D01*
X59233399Y-86755258D01*
X59265907Y-86918685D01*
X59265907Y-87085315D01*
X59233399Y-87248742D01*
X59169633Y-87402687D01*
X59077059Y-87541234D01*
X58959234Y-87659059D01*
X58820687Y-87751633D01*
X58666742Y-87815399D01*
X58503315Y-87847907D01*
X58336685Y-87847907D01*
X58173258Y-87815399D01*
X58019313Y-87751633D01*
X57880766Y-87659059D01*
X57762941Y-87541234D01*
X57670367Y-87402687D01*
X57606601Y-87248742D01*
X57574093Y-87085315D01*
X57574093Y-86918685D01*
X57606601Y-86755258D01*
X57670367Y-86601313D01*
X57762941Y-86462766D01*
X57880766Y-86344941D01*
X58019313Y-86252367D01*
X58173258Y-86188601D01*
X58336685Y-86156093D01*
X58503315Y-86156093D01*
X58666742Y-86188601D01*
G37*
G36*
X64000742Y-85292601D02*
G01*
X64154687Y-85356367D01*
X64293234Y-85448941D01*
X64411059Y-85566766D01*
X64503633Y-85705313D01*
X64567399Y-85859258D01*
X64599907Y-86022685D01*
X64599907Y-86189315D01*
X64567399Y-86352742D01*
X64503633Y-86506687D01*
X64411059Y-86645234D01*
X64293234Y-86763059D01*
X64154687Y-86855633D01*
X64000742Y-86919399D01*
X63837315Y-86951907D01*
X63670685Y-86951907D01*
X63507258Y-86919399D01*
X63353313Y-86855633D01*
X63214766Y-86763059D01*
X63096941Y-86645234D01*
X63004367Y-86506687D01*
X62940601Y-86352742D01*
X62908093Y-86189315D01*
X62908093Y-86022685D01*
X62940601Y-85859258D01*
X63004367Y-85705313D01*
X63096941Y-85566766D01*
X63214766Y-85448941D01*
X63353313Y-85356367D01*
X63507258Y-85292601D01*
X63670685Y-85260093D01*
X63837315Y-85260093D01*
X64000742Y-85292601D01*
G37*
G36*
X55826742Y-84803601D02*
G01*
X55980687Y-84867367D01*
X56119234Y-84959941D01*
X56237059Y-85077766D01*
X56329633Y-85216313D01*
X56393399Y-85370258D01*
X56425907Y-85533685D01*
X56425907Y-85700315D01*
X56393399Y-85863742D01*
X56329633Y-86017687D01*
X56237059Y-86156234D01*
X56119234Y-86274059D01*
X55980687Y-86366633D01*
X55826742Y-86430399D01*
X55663315Y-86462907D01*
X55496685Y-86462907D01*
X55333258Y-86430399D01*
X55179313Y-86366633D01*
X55040766Y-86274059D01*
X54922941Y-86156234D01*
X54830367Y-86017687D01*
X54766601Y-85863742D01*
X54734093Y-85700315D01*
X54734093Y-85533685D01*
X54766601Y-85370258D01*
X54830367Y-85216313D01*
X54922941Y-85077766D01*
X55040766Y-84959941D01*
X55179313Y-84867367D01*
X55333258Y-84803601D01*
X55496685Y-84771093D01*
X55663315Y-84771093D01*
X55826742Y-84803601D01*
G37*
G36*
X123093134Y-84397806D02*
G01*
X123109355Y-84408645D01*
X123120194Y-84424866D01*
X123124000Y-84444000D01*
X123124000Y-86244000D01*
X123120194Y-86263134D01*
X123109355Y-86279355D01*
X123093134Y-86290194D01*
X123074000Y-86294000D01*
X121274000Y-86294000D01*
X121254866Y-86290194D01*
X121238645Y-86279355D01*
X121227806Y-86263134D01*
X121224000Y-86244000D01*
X121224000Y-84444000D01*
X121227806Y-84424866D01*
X121238645Y-84408645D01*
X121254866Y-84397806D01*
X121274000Y-84394000D01*
X123074000Y-84394000D01*
X123093134Y-84397806D01*
G37*
G36*
X119716468Y-84398575D02*
G01*
X119727116Y-84398575D01*
X119768725Y-84406851D01*
X119855683Y-84420624D01*
X119883653Y-84429712D01*
X119909770Y-84434907D01*
X119946625Y-84450173D01*
X119997398Y-84466670D01*
X120044959Y-84490903D01*
X120081827Y-84506175D01*
X120103978Y-84520976D01*
X120130171Y-84534322D01*
X120201375Y-84586054D01*
X120236674Y-84609640D01*
X120244206Y-84617172D01*
X120250723Y-84621907D01*
X120356092Y-84727276D01*
X120360826Y-84733792D01*
X120368360Y-84741326D01*
X120391948Y-84776629D01*
X120443677Y-84847828D01*
X120457021Y-84874018D01*
X120471825Y-84896173D01*
X120487098Y-84933045D01*
X120511329Y-84980601D01*
X120527823Y-85031366D01*
X120543093Y-85068230D01*
X120548289Y-85094352D01*
X120557375Y-85122316D01*
X120571147Y-85209268D01*
X120579425Y-85250884D01*
X120579425Y-85261531D01*
X120580686Y-85269493D01*
X120580686Y-85418506D01*
X120579425Y-85426467D01*
X120579425Y-85437116D01*
X120571146Y-85478735D01*
X120557375Y-85565683D01*
X120548289Y-85593645D01*
X120543093Y-85619770D01*
X120527822Y-85656637D01*
X120511329Y-85707398D01*
X120487100Y-85754948D01*
X120471825Y-85791827D01*
X120457019Y-85813984D01*
X120443677Y-85840171D01*
X120391957Y-85911358D01*
X120368360Y-85946674D01*
X120360823Y-85954210D01*
X120356092Y-85960723D01*
X120250723Y-86066092D01*
X120244210Y-86070823D01*
X120236674Y-86078360D01*
X120201358Y-86101957D01*
X120130171Y-86153677D01*
X120103984Y-86167019D01*
X120081827Y-86181825D01*
X120044948Y-86197100D01*
X119997398Y-86221329D01*
X119946637Y-86237822D01*
X119909770Y-86253093D01*
X119883645Y-86258289D01*
X119855683Y-86267375D01*
X119768735Y-86281146D01*
X119727116Y-86289425D01*
X119716467Y-86289425D01*
X119708506Y-86290686D01*
X119559494Y-86290686D01*
X119551532Y-86289425D01*
X119540884Y-86289425D01*
X119499266Y-86281146D01*
X119412316Y-86267375D01*
X119384352Y-86258289D01*
X119358230Y-86253093D01*
X119321366Y-86237823D01*
X119270601Y-86221329D01*
X119223045Y-86197098D01*
X119186173Y-86181825D01*
X119164018Y-86167021D01*
X119137828Y-86153677D01*
X119066629Y-86101948D01*
X119031326Y-86078360D01*
X119023792Y-86070826D01*
X119017276Y-86066092D01*
X118911907Y-85960723D01*
X118907172Y-85954206D01*
X118899640Y-85946674D01*
X118876054Y-85911375D01*
X118824322Y-85840171D01*
X118810976Y-85813978D01*
X118796175Y-85791827D01*
X118780903Y-85754959D01*
X118756670Y-85707398D01*
X118740173Y-85656625D01*
X118724907Y-85619770D01*
X118719712Y-85593653D01*
X118710624Y-85565683D01*
X118696851Y-85478725D01*
X118688575Y-85437116D01*
X118688575Y-85426467D01*
X118687314Y-85418506D01*
X118687314Y-85269493D01*
X118688575Y-85261531D01*
X118688575Y-85250884D01*
X118696850Y-85209278D01*
X118710624Y-85122316D01*
X118719712Y-85094344D01*
X118724907Y-85068230D01*
X118740171Y-85031377D01*
X118756670Y-84980601D01*
X118780906Y-84933035D01*
X118796175Y-84896173D01*
X118810973Y-84874024D01*
X118824322Y-84847828D01*
X118876062Y-84776612D01*
X118899640Y-84741326D01*
X118907170Y-84733795D01*
X118911907Y-84727276D01*
X119017276Y-84621907D01*
X119023795Y-84617170D01*
X119031326Y-84609640D01*
X119066612Y-84586062D01*
X119137828Y-84534322D01*
X119164024Y-84520973D01*
X119186173Y-84506175D01*
X119223035Y-84490906D01*
X119270601Y-84466670D01*
X119321377Y-84450171D01*
X119358230Y-84434907D01*
X119384344Y-84429712D01*
X119412316Y-84420624D01*
X119499276Y-84406851D01*
X119540884Y-84398575D01*
X119551532Y-84398575D01*
X119559494Y-84397314D01*
X119708506Y-84397314D01*
X119716468Y-84398575D01*
G37*
G36*
X73652742Y-83768601D02*
G01*
X73806687Y-83832367D01*
X73945234Y-83924941D01*
X74063059Y-84042766D01*
X74155633Y-84181313D01*
X74219399Y-84335258D01*
X74251907Y-84498685D01*
X74251907Y-84665315D01*
X74219399Y-84828742D01*
X74155633Y-84982687D01*
X74063059Y-85121234D01*
X73945234Y-85239059D01*
X73806687Y-85331633D01*
X73652742Y-85395399D01*
X73489315Y-85427907D01*
X73322685Y-85427907D01*
X73159258Y-85395399D01*
X73005313Y-85331633D01*
X72866766Y-85239059D01*
X72748941Y-85121234D01*
X72656367Y-84982687D01*
X72592601Y-84828742D01*
X72560093Y-84665315D01*
X72560093Y-84498685D01*
X72592601Y-84335258D01*
X72656367Y-84181313D01*
X72748941Y-84042766D01*
X72866766Y-83924941D01*
X73005313Y-83832367D01*
X73159258Y-83768601D01*
X73322685Y-83736093D01*
X73489315Y-83736093D01*
X73652742Y-83768601D01*
G37*
G36*
X83812742Y-83768601D02*
G01*
X83966687Y-83832367D01*
X84105234Y-83924941D01*
X84223059Y-84042766D01*
X84315633Y-84181313D01*
X84379399Y-84335258D01*
X84411907Y-84498685D01*
X84411907Y-84665315D01*
X84379399Y-84828742D01*
X84315633Y-84982687D01*
X84223059Y-85121234D01*
X84105234Y-85239059D01*
X83966687Y-85331633D01*
X83812742Y-85395399D01*
X83649315Y-85427907D01*
X83482685Y-85427907D01*
X83319258Y-85395399D01*
X83165313Y-85331633D01*
X83026766Y-85239059D01*
X82908941Y-85121234D01*
X82816367Y-84982687D01*
X82752601Y-84828742D01*
X82720093Y-84665315D01*
X82720093Y-84498685D01*
X82752601Y-84335258D01*
X82816367Y-84181313D01*
X82908941Y-84042766D01*
X83026766Y-83924941D01*
X83165313Y-83832367D01*
X83319258Y-83768601D01*
X83482685Y-83736093D01*
X83649315Y-83736093D01*
X83812742Y-83768601D01*
G37*
G36*
X58666742Y-83418601D02*
G01*
X58820687Y-83482367D01*
X58959234Y-83574941D01*
X59077059Y-83692766D01*
X59169633Y-83831313D01*
X59233399Y-83985258D01*
X59265907Y-84148685D01*
X59265907Y-84315315D01*
X59233399Y-84478742D01*
X59169633Y-84632687D01*
X59077059Y-84771234D01*
X58959234Y-84889059D01*
X58820687Y-84981633D01*
X58666742Y-85045399D01*
X58503315Y-85077907D01*
X58336685Y-85077907D01*
X58173258Y-85045399D01*
X58019313Y-84981633D01*
X57880766Y-84889059D01*
X57762941Y-84771234D01*
X57670367Y-84632687D01*
X57606601Y-84478742D01*
X57574093Y-84315315D01*
X57574093Y-84148685D01*
X57606601Y-83985258D01*
X57670367Y-83831313D01*
X57762941Y-83692766D01*
X57880766Y-83574941D01*
X58019313Y-83482367D01*
X58173258Y-83418601D01*
X58336685Y-83386093D01*
X58503315Y-83386093D01*
X58666742Y-83418601D01*
G37*
G36*
X55826742Y-82033601D02*
G01*
X55980687Y-82097367D01*
X56119234Y-82189941D01*
X56237059Y-82307766D01*
X56329633Y-82446313D01*
X56393399Y-82600258D01*
X56425907Y-82763685D01*
X56425907Y-82930315D01*
X56393399Y-83093742D01*
X56329633Y-83247687D01*
X56237059Y-83386234D01*
X56119234Y-83504059D01*
X55980687Y-83596633D01*
X55826742Y-83660399D01*
X55663315Y-83692907D01*
X55496685Y-83692907D01*
X55333258Y-83660399D01*
X55179313Y-83596633D01*
X55040766Y-83504059D01*
X54922941Y-83386234D01*
X54830367Y-83247687D01*
X54766601Y-83093742D01*
X54734093Y-82930315D01*
X54734093Y-82763685D01*
X54766601Y-82600258D01*
X54830367Y-82446313D01*
X54922941Y-82307766D01*
X55040766Y-82189941D01*
X55179313Y-82097367D01*
X55333258Y-82033601D01*
X55496685Y-82001093D01*
X55663315Y-82001093D01*
X55826742Y-82033601D01*
G37*
G36*
X58666742Y-80648601D02*
G01*
X58820687Y-80712367D01*
X58959234Y-80804941D01*
X59077059Y-80922766D01*
X59169633Y-81061313D01*
X59233399Y-81215258D01*
X59265907Y-81378685D01*
X59265907Y-81545315D01*
X59233399Y-81708742D01*
X59169633Y-81862687D01*
X59077059Y-82001234D01*
X58959234Y-82119059D01*
X58820687Y-82211633D01*
X58666742Y-82275399D01*
X58503315Y-82307907D01*
X58336685Y-82307907D01*
X58173258Y-82275399D01*
X58019313Y-82211633D01*
X57880766Y-82119059D01*
X57762941Y-82001234D01*
X57670367Y-81862687D01*
X57606601Y-81708742D01*
X57574093Y-81545315D01*
X57574093Y-81378685D01*
X57606601Y-81215258D01*
X57670367Y-81061313D01*
X57762941Y-80922766D01*
X57880766Y-80804941D01*
X58019313Y-80712367D01*
X58173258Y-80648601D01*
X58336685Y-80616093D01*
X58503315Y-80616093D01*
X58666742Y-80648601D01*
G37*
G36*
X97020742Y-80212601D02*
G01*
X97174687Y-80276367D01*
X97313234Y-80368941D01*
X97431059Y-80486766D01*
X97523633Y-80625313D01*
X97587399Y-80779258D01*
X97619907Y-80942685D01*
X97619907Y-81109315D01*
X97587399Y-81272742D01*
X97523633Y-81426687D01*
X97431059Y-81565234D01*
X97313234Y-81683059D01*
X97174687Y-81775633D01*
X97020742Y-81839399D01*
X96857315Y-81871907D01*
X96690685Y-81871907D01*
X96527258Y-81839399D01*
X96373313Y-81775633D01*
X96234766Y-81683059D01*
X96116941Y-81565234D01*
X96024367Y-81426687D01*
X95960601Y-81272742D01*
X95928093Y-81109315D01*
X95928093Y-80942685D01*
X95960601Y-80779258D01*
X96024367Y-80625313D01*
X96116941Y-80486766D01*
X96234766Y-80368941D01*
X96373313Y-80276367D01*
X96527258Y-80212601D01*
X96690685Y-80180093D01*
X96857315Y-80180093D01*
X97020742Y-80212601D01*
G37*
G36*
X101211742Y-80212601D02*
G01*
X101365687Y-80276367D01*
X101504234Y-80368941D01*
X101622059Y-80486766D01*
X101714633Y-80625313D01*
X101778399Y-80779258D01*
X101810907Y-80942685D01*
X101810907Y-81109315D01*
X101778399Y-81272742D01*
X101714633Y-81426687D01*
X101622059Y-81565234D01*
X101504234Y-81683059D01*
X101365687Y-81775633D01*
X101211742Y-81839399D01*
X101048315Y-81871907D01*
X100881685Y-81871907D01*
X100718258Y-81839399D01*
X100564313Y-81775633D01*
X100425766Y-81683059D01*
X100307941Y-81565234D01*
X100215367Y-81426687D01*
X100151601Y-81272742D01*
X100119093Y-81109315D01*
X100119093Y-80942685D01*
X100151601Y-80779258D01*
X100215367Y-80625313D01*
X100307941Y-80486766D01*
X100425766Y-80368941D01*
X100564313Y-80276367D01*
X100718258Y-80212601D01*
X100881685Y-80180093D01*
X101048315Y-80180093D01*
X101211742Y-80212601D01*
G37*
G36*
X92194742Y-80128601D02*
G01*
X92348687Y-80192367D01*
X92487234Y-80284941D01*
X92605059Y-80402766D01*
X92697633Y-80541313D01*
X92761399Y-80695258D01*
X92793907Y-80858685D01*
X92793907Y-81025315D01*
X92761399Y-81188742D01*
X92697633Y-81342687D01*
X92605059Y-81481234D01*
X92487234Y-81599059D01*
X92348687Y-81691633D01*
X92194742Y-81755399D01*
X92031315Y-81787907D01*
X91864685Y-81787907D01*
X91701258Y-81755399D01*
X91547313Y-81691633D01*
X91408766Y-81599059D01*
X91290941Y-81481234D01*
X91198367Y-81342687D01*
X91134601Y-81188742D01*
X91102093Y-81025315D01*
X91102093Y-80858685D01*
X91134601Y-80695258D01*
X91198367Y-80541313D01*
X91290941Y-80402766D01*
X91408766Y-80284941D01*
X91547313Y-80192367D01*
X91701258Y-80128601D01*
X91864685Y-80096093D01*
X92031315Y-80096093D01*
X92194742Y-80128601D01*
G37*
G36*
X73652742Y-79958601D02*
G01*
X73806687Y-80022367D01*
X73945234Y-80114941D01*
X74063059Y-80232766D01*
X74155633Y-80371313D01*
X74219399Y-80525258D01*
X74251907Y-80688685D01*
X74251907Y-80855315D01*
X74219399Y-81018742D01*
X74155633Y-81172687D01*
X74063059Y-81311234D01*
X73945234Y-81429059D01*
X73806687Y-81521633D01*
X73652742Y-81585399D01*
X73489315Y-81617907D01*
X73322685Y-81617907D01*
X73159258Y-81585399D01*
X73005313Y-81521633D01*
X72866766Y-81429059D01*
X72748941Y-81311234D01*
X72656367Y-81172687D01*
X72592601Y-81018742D01*
X72560093Y-80855315D01*
X72560093Y-80688685D01*
X72592601Y-80525258D01*
X72656367Y-80371313D01*
X72748941Y-80232766D01*
X72866766Y-80114941D01*
X73005313Y-80022367D01*
X73159258Y-79958601D01*
X73322685Y-79926093D01*
X73489315Y-79926093D01*
X73652742Y-79958601D01*
G37*
G36*
X83812742Y-79958601D02*
G01*
X83966687Y-80022367D01*
X84105234Y-80114941D01*
X84223059Y-80232766D01*
X84315633Y-80371313D01*
X84379399Y-80525258D01*
X84411907Y-80688685D01*
X84411907Y-80855315D01*
X84379399Y-81018742D01*
X84315633Y-81172687D01*
X84223059Y-81311234D01*
X84105234Y-81429059D01*
X83966687Y-81521633D01*
X83812742Y-81585399D01*
X83649315Y-81617907D01*
X83482685Y-81617907D01*
X83319258Y-81585399D01*
X83165313Y-81521633D01*
X83026766Y-81429059D01*
X82908941Y-81311234D01*
X82816367Y-81172687D01*
X82752601Y-81018742D01*
X82720093Y-80855315D01*
X82720093Y-80688685D01*
X82752601Y-80525258D01*
X82816367Y-80371313D01*
X82908941Y-80232766D01*
X83026766Y-80114941D01*
X83165313Y-80022367D01*
X83319258Y-79958601D01*
X83482685Y-79926093D01*
X83649315Y-79926093D01*
X83812742Y-79958601D01*
G37*
G36*
X55826742Y-79263601D02*
G01*
X55980687Y-79327367D01*
X56119234Y-79419941D01*
X56237059Y-79537766D01*
X56329633Y-79676313D01*
X56393399Y-79830258D01*
X56425907Y-79993685D01*
X56425907Y-80160315D01*
X56393399Y-80323742D01*
X56329633Y-80477687D01*
X56237059Y-80616234D01*
X56119234Y-80734059D01*
X55980687Y-80826633D01*
X55826742Y-80890399D01*
X55663315Y-80922907D01*
X55496685Y-80922907D01*
X55333258Y-80890399D01*
X55179313Y-80826633D01*
X55040766Y-80734059D01*
X54922941Y-80616234D01*
X54830367Y-80477687D01*
X54766601Y-80323742D01*
X54734093Y-80160315D01*
X54734093Y-79993685D01*
X54766601Y-79830258D01*
X54830367Y-79676313D01*
X54922941Y-79537766D01*
X55040766Y-79419941D01*
X55179313Y-79327367D01*
X55333258Y-79263601D01*
X55496685Y-79231093D01*
X55663315Y-79231093D01*
X55826742Y-79263601D01*
G37*
G36*
X130459134Y-78555806D02*
G01*
X130475355Y-78566645D01*
X130486194Y-78582866D01*
X130490000Y-78602000D01*
X130490000Y-80402000D01*
X130486194Y-80421134D01*
X130475355Y-80437355D01*
X130459134Y-80448194D01*
X130440000Y-80452000D01*
X128640000Y-80452000D01*
X128620866Y-80448194D01*
X128604645Y-80437355D01*
X128593806Y-80421134D01*
X128590000Y-80402000D01*
X128590000Y-78602000D01*
X128593806Y-78582866D01*
X128604645Y-78566645D01*
X128620866Y-78555806D01*
X128640000Y-78552000D01*
X130440000Y-78552000D01*
X130459134Y-78555806D01*
G37*
G36*
X132162468Y-78556575D02*
G01*
X132173116Y-78556575D01*
X132214725Y-78564851D01*
X132301683Y-78578624D01*
X132329653Y-78587712D01*
X132355770Y-78592907D01*
X132392625Y-78608173D01*
X132443398Y-78624670D01*
X132490959Y-78648903D01*
X132527827Y-78664175D01*
X132549978Y-78678976D01*
X132576171Y-78692322D01*
X132647375Y-78744054D01*
X132682674Y-78767640D01*
X132690206Y-78775172D01*
X132696723Y-78779907D01*
X132802092Y-78885276D01*
X132806826Y-78891792D01*
X132814360Y-78899326D01*
X132837948Y-78934629D01*
X132889677Y-79005828D01*
X132903021Y-79032018D01*
X132917825Y-79054173D01*
X132933098Y-79091045D01*
X132957329Y-79138601D01*
X132973823Y-79189366D01*
X132989093Y-79226230D01*
X132994289Y-79252352D01*
X133003375Y-79280316D01*
X133017147Y-79367268D01*
X133025425Y-79408884D01*
X133025425Y-79419531D01*
X133026686Y-79427493D01*
X133026686Y-79576506D01*
X133025425Y-79584467D01*
X133025425Y-79595116D01*
X133017146Y-79636735D01*
X133003375Y-79723683D01*
X132994289Y-79751645D01*
X132989093Y-79777770D01*
X132973822Y-79814637D01*
X132957329Y-79865398D01*
X132933100Y-79912948D01*
X132917825Y-79949827D01*
X132903019Y-79971984D01*
X132889677Y-79998171D01*
X132837957Y-80069358D01*
X132814360Y-80104674D01*
X132806823Y-80112210D01*
X132802092Y-80118723D01*
X132696723Y-80224092D01*
X132690210Y-80228823D01*
X132682674Y-80236360D01*
X132647358Y-80259957D01*
X132576171Y-80311677D01*
X132549984Y-80325019D01*
X132527827Y-80339825D01*
X132490948Y-80355100D01*
X132443398Y-80379329D01*
X132392637Y-80395822D01*
X132355770Y-80411093D01*
X132329645Y-80416289D01*
X132301683Y-80425375D01*
X132214735Y-80439146D01*
X132173116Y-80447425D01*
X132162467Y-80447425D01*
X132154506Y-80448686D01*
X132005494Y-80448686D01*
X131997532Y-80447425D01*
X131986884Y-80447425D01*
X131945266Y-80439146D01*
X131858316Y-80425375D01*
X131830352Y-80416289D01*
X131804230Y-80411093D01*
X131767366Y-80395823D01*
X131716601Y-80379329D01*
X131669045Y-80355098D01*
X131632173Y-80339825D01*
X131610018Y-80325021D01*
X131583828Y-80311677D01*
X131512629Y-80259948D01*
X131477326Y-80236360D01*
X131469792Y-80228826D01*
X131463276Y-80224092D01*
X131357907Y-80118723D01*
X131353172Y-80112206D01*
X131345640Y-80104674D01*
X131322054Y-80069375D01*
X131270322Y-79998171D01*
X131256976Y-79971978D01*
X131242175Y-79949827D01*
X131226903Y-79912959D01*
X131202670Y-79865398D01*
X131186173Y-79814625D01*
X131170907Y-79777770D01*
X131165712Y-79751653D01*
X131156624Y-79723683D01*
X131142851Y-79636725D01*
X131134575Y-79595116D01*
X131134575Y-79584467D01*
X131133314Y-79576506D01*
X131133314Y-79427493D01*
X131134575Y-79419531D01*
X131134575Y-79408884D01*
X131142850Y-79367278D01*
X131156624Y-79280316D01*
X131165712Y-79252344D01*
X131170907Y-79226230D01*
X131186171Y-79189377D01*
X131202670Y-79138601D01*
X131226906Y-79091035D01*
X131242175Y-79054173D01*
X131256973Y-79032024D01*
X131270322Y-79005828D01*
X131322062Y-78934612D01*
X131345640Y-78899326D01*
X131353170Y-78891795D01*
X131357907Y-78885276D01*
X131463276Y-78779907D01*
X131469795Y-78775170D01*
X131477326Y-78767640D01*
X131512612Y-78744062D01*
X131583828Y-78692322D01*
X131610024Y-78678973D01*
X131632173Y-78664175D01*
X131669035Y-78648906D01*
X131716601Y-78624670D01*
X131767377Y-78608171D01*
X131804230Y-78592907D01*
X131830344Y-78587712D01*
X131858316Y-78578624D01*
X131945276Y-78564851D01*
X131986884Y-78556575D01*
X131997532Y-78556575D01*
X132005494Y-78555314D01*
X132154506Y-78555314D01*
X132162468Y-78556575D01*
G37*
G36*
X58666742Y-77878601D02*
G01*
X58820687Y-77942367D01*
X58959234Y-78034941D01*
X59077059Y-78152766D01*
X59169633Y-78291313D01*
X59233399Y-78445258D01*
X59265907Y-78608685D01*
X59265907Y-78775315D01*
X59233399Y-78938742D01*
X59169633Y-79092687D01*
X59077059Y-79231234D01*
X58959234Y-79349059D01*
X58820687Y-79441633D01*
X58666742Y-79505399D01*
X58503315Y-79537907D01*
X58336685Y-79537907D01*
X58173258Y-79505399D01*
X58019313Y-79441633D01*
X57880766Y-79349059D01*
X57762941Y-79231234D01*
X57670367Y-79092687D01*
X57606601Y-78938742D01*
X57574093Y-78775315D01*
X57574093Y-78608685D01*
X57606601Y-78445258D01*
X57670367Y-78291313D01*
X57762941Y-78152766D01*
X57880766Y-78034941D01*
X58019313Y-77942367D01*
X58173258Y-77878601D01*
X58336685Y-77846093D01*
X58503315Y-77846093D01*
X58666742Y-77878601D01*
G37*
G36*
X55826742Y-76493601D02*
G01*
X55980687Y-76557367D01*
X56119234Y-76649941D01*
X56237059Y-76767766D01*
X56329633Y-76906313D01*
X56393399Y-77060258D01*
X56425907Y-77223685D01*
X56425907Y-77390315D01*
X56393399Y-77553742D01*
X56329633Y-77707687D01*
X56237059Y-77846234D01*
X56119234Y-77964059D01*
X55980687Y-78056633D01*
X55826742Y-78120399D01*
X55663315Y-78152907D01*
X55496685Y-78152907D01*
X55333258Y-78120399D01*
X55179313Y-78056633D01*
X55040766Y-77964059D01*
X54922941Y-77846234D01*
X54830367Y-77707687D01*
X54766601Y-77553742D01*
X54734093Y-77390315D01*
X54734093Y-77223685D01*
X54766601Y-77060258D01*
X54830367Y-76906313D01*
X54922941Y-76767766D01*
X55040766Y-76649941D01*
X55179313Y-76557367D01*
X55333258Y-76493601D01*
X55496685Y-76461093D01*
X55663315Y-76461093D01*
X55826742Y-76493601D01*
G37*
G36*
X64000742Y-75132601D02*
G01*
X64154687Y-75196367D01*
X64293234Y-75288941D01*
X64411059Y-75406766D01*
X64503633Y-75545313D01*
X64567399Y-75699258D01*
X64599907Y-75862685D01*
X64599907Y-76029315D01*
X64567399Y-76192742D01*
X64503633Y-76346687D01*
X64411059Y-76485234D01*
X64293234Y-76603059D01*
X64154687Y-76695633D01*
X64000742Y-76759399D01*
X63837315Y-76791907D01*
X63670685Y-76791907D01*
X63507258Y-76759399D01*
X63353313Y-76695633D01*
X63214766Y-76603059D01*
X63096941Y-76485234D01*
X63004367Y-76346687D01*
X62940601Y-76192742D01*
X62908093Y-76029315D01*
X62908093Y-75862685D01*
X62940601Y-75699258D01*
X63004367Y-75545313D01*
X63096941Y-75406766D01*
X63214766Y-75288941D01*
X63353313Y-75196367D01*
X63507258Y-75132601D01*
X63670685Y-75100093D01*
X63837315Y-75100093D01*
X64000742Y-75132601D01*
G37*
G36*
X58666742Y-75108601D02*
G01*
X58820687Y-75172367D01*
X58959234Y-75264941D01*
X59077059Y-75382766D01*
X59169633Y-75521313D01*
X59233399Y-75675258D01*
X59265907Y-75838685D01*
X59265907Y-76005315D01*
X59233399Y-76168742D01*
X59169633Y-76322687D01*
X59077059Y-76461234D01*
X58959234Y-76579059D01*
X58820687Y-76671633D01*
X58666742Y-76735399D01*
X58503315Y-76767907D01*
X58336685Y-76767907D01*
X58173258Y-76735399D01*
X58019313Y-76671633D01*
X57880766Y-76579059D01*
X57762941Y-76461234D01*
X57670367Y-76322687D01*
X57606601Y-76168742D01*
X57574093Y-76005315D01*
X57574093Y-75838685D01*
X57606601Y-75675258D01*
X57670367Y-75521313D01*
X57762941Y-75382766D01*
X57880766Y-75264941D01*
X58019313Y-75172367D01*
X58173258Y-75108601D01*
X58336685Y-75076093D01*
X58503315Y-75076093D01*
X58666742Y-75108601D01*
G37*
G36*
X55826742Y-73723601D02*
G01*
X55980687Y-73787367D01*
X56119234Y-73879941D01*
X56237059Y-73997766D01*
X56329633Y-74136313D01*
X56393399Y-74290258D01*
X56425907Y-74453685D01*
X56425907Y-74620315D01*
X56393399Y-74783742D01*
X56329633Y-74937687D01*
X56237059Y-75076234D01*
X56119234Y-75194059D01*
X55980687Y-75286633D01*
X55826742Y-75350399D01*
X55663315Y-75382907D01*
X55496685Y-75382907D01*
X55333258Y-75350399D01*
X55179313Y-75286633D01*
X55040766Y-75194059D01*
X54922941Y-75076234D01*
X54830367Y-74937687D01*
X54766601Y-74783742D01*
X54734093Y-74620315D01*
X54734093Y-74453685D01*
X54766601Y-74290258D01*
X54830367Y-74136313D01*
X54922941Y-73997766D01*
X55040766Y-73879941D01*
X55179313Y-73787367D01*
X55333258Y-73723601D01*
X55496685Y-73691093D01*
X55663315Y-73691093D01*
X55826742Y-73723601D01*
G37*
G36*
X58666742Y-72338601D02*
G01*
X58820687Y-72402367D01*
X58959234Y-72494941D01*
X59077059Y-72612766D01*
X59169633Y-72751313D01*
X59233399Y-72905258D01*
X59265907Y-73068685D01*
X59265907Y-73235315D01*
X59233399Y-73398742D01*
X59169633Y-73552687D01*
X59077059Y-73691234D01*
X58959234Y-73809059D01*
X58820687Y-73901633D01*
X58666742Y-73965399D01*
X58503315Y-73997907D01*
X58336685Y-73997907D01*
X58173258Y-73965399D01*
X58019313Y-73901633D01*
X57880766Y-73809059D01*
X57762941Y-73691234D01*
X57670367Y-73552687D01*
X57606601Y-73398742D01*
X57574093Y-73235315D01*
X57574093Y-73068685D01*
X57606601Y-72905258D01*
X57670367Y-72751313D01*
X57762941Y-72612766D01*
X57880766Y-72494941D01*
X58019313Y-72402367D01*
X58173258Y-72338601D01*
X58336685Y-72306093D01*
X58503315Y-72306093D01*
X58666742Y-72338601D01*
G37*
G36*
X55826742Y-70953601D02*
G01*
X55980687Y-71017367D01*
X56119234Y-71109941D01*
X56237059Y-71227766D01*
X56329633Y-71366313D01*
X56393399Y-71520258D01*
X56425907Y-71683685D01*
X56425907Y-71850315D01*
X56393399Y-72013742D01*
X56329633Y-72167687D01*
X56237059Y-72306234D01*
X56119234Y-72424059D01*
X55980687Y-72516633D01*
X55826742Y-72580399D01*
X55663315Y-72612907D01*
X55496685Y-72612907D01*
X55333258Y-72580399D01*
X55179313Y-72516633D01*
X55040766Y-72424059D01*
X54922941Y-72306234D01*
X54830367Y-72167687D01*
X54766601Y-72013742D01*
X54734093Y-71850315D01*
X54734093Y-71683685D01*
X54766601Y-71520258D01*
X54830367Y-71366313D01*
X54922941Y-71227766D01*
X55040766Y-71109941D01*
X55179313Y-71017367D01*
X55333258Y-70953601D01*
X55496685Y-70921093D01*
X55663315Y-70921093D01*
X55826742Y-70953601D01*
G37*
G36*
X97020742Y-70052601D02*
G01*
X97174687Y-70116367D01*
X97313234Y-70208941D01*
X97431059Y-70326766D01*
X97523633Y-70465313D01*
X97587399Y-70619258D01*
X97619907Y-70782685D01*
X97619907Y-70949315D01*
X97587399Y-71112742D01*
X97523633Y-71266687D01*
X97431059Y-71405234D01*
X97313234Y-71523059D01*
X97174687Y-71615633D01*
X97020742Y-71679399D01*
X96857315Y-71711907D01*
X96690685Y-71711907D01*
X96527258Y-71679399D01*
X96373313Y-71615633D01*
X96234766Y-71523059D01*
X96116941Y-71405234D01*
X96024367Y-71266687D01*
X95960601Y-71112742D01*
X95928093Y-70949315D01*
X95928093Y-70782685D01*
X95960601Y-70619258D01*
X96024367Y-70465313D01*
X96116941Y-70326766D01*
X96234766Y-70208941D01*
X96373313Y-70116367D01*
X96527258Y-70052601D01*
X96690685Y-70020093D01*
X96857315Y-70020093D01*
X97020742Y-70052601D01*
G37*
G36*
X101211742Y-70052601D02*
G01*
X101365687Y-70116367D01*
X101504234Y-70208941D01*
X101622059Y-70326766D01*
X101714633Y-70465313D01*
X101778399Y-70619258D01*
X101810907Y-70782685D01*
X101810907Y-70949315D01*
X101778399Y-71112742D01*
X101714633Y-71266687D01*
X101622059Y-71405234D01*
X101504234Y-71523059D01*
X101365687Y-71615633D01*
X101211742Y-71679399D01*
X101048315Y-71711907D01*
X100881685Y-71711907D01*
X100718258Y-71679399D01*
X100564313Y-71615633D01*
X100425766Y-71523059D01*
X100307941Y-71405234D01*
X100215367Y-71266687D01*
X100151601Y-71112742D01*
X100119093Y-70949315D01*
X100119093Y-70782685D01*
X100151601Y-70619258D01*
X100215367Y-70465313D01*
X100307941Y-70326766D01*
X100425766Y-70208941D01*
X100564313Y-70116367D01*
X100718258Y-70052601D01*
X100881685Y-70020093D01*
X101048315Y-70020093D01*
X101211742Y-70052601D01*
G37*
G36*
X92194742Y-69968601D02*
G01*
X92348687Y-70032367D01*
X92487234Y-70124941D01*
X92605059Y-70242766D01*
X92697633Y-70381313D01*
X92761399Y-70535258D01*
X92793907Y-70698685D01*
X92793907Y-70865315D01*
X92761399Y-71028742D01*
X92697633Y-71182687D01*
X92605059Y-71321234D01*
X92487234Y-71439059D01*
X92348687Y-71531633D01*
X92194742Y-71595399D01*
X92031315Y-71627907D01*
X91864685Y-71627907D01*
X91701258Y-71595399D01*
X91547313Y-71531633D01*
X91408766Y-71439059D01*
X91290941Y-71321234D01*
X91198367Y-71182687D01*
X91134601Y-71028742D01*
X91102093Y-70865315D01*
X91102093Y-70698685D01*
X91134601Y-70535258D01*
X91198367Y-70381313D01*
X91290941Y-70242766D01*
X91408766Y-70124941D01*
X91547313Y-70032367D01*
X91701258Y-69968601D01*
X91864685Y-69936093D01*
X92031315Y-69936093D01*
X92194742Y-69968601D01*
G37*
G36*
X58666742Y-69568601D02*
G01*
X58820687Y-69632367D01*
X58959234Y-69724941D01*
X59077059Y-69842766D01*
X59169633Y-69981313D01*
X59233399Y-70135258D01*
X59265907Y-70298685D01*
X59265907Y-70465315D01*
X59233399Y-70628742D01*
X59169633Y-70782687D01*
X59077059Y-70921234D01*
X58959234Y-71039059D01*
X58820687Y-71131633D01*
X58666742Y-71195399D01*
X58503315Y-71227907D01*
X58336685Y-71227907D01*
X58173258Y-71195399D01*
X58019313Y-71131633D01*
X57880766Y-71039059D01*
X57762941Y-70921234D01*
X57670367Y-70782687D01*
X57606601Y-70628742D01*
X57574093Y-70465315D01*
X57574093Y-70298685D01*
X57606601Y-70135258D01*
X57670367Y-69981313D01*
X57762941Y-69842766D01*
X57880766Y-69724941D01*
X58019313Y-69632367D01*
X58173258Y-69568601D01*
X58336685Y-69536093D01*
X58503315Y-69536093D01*
X58666742Y-69568601D01*
G37*
G36*
X73652742Y-68528601D02*
G01*
X73806687Y-68592367D01*
X73945234Y-68684941D01*
X74063059Y-68802766D01*
X74155633Y-68941313D01*
X74219399Y-69095258D01*
X74251907Y-69258685D01*
X74251907Y-69425315D01*
X74219399Y-69588742D01*
X74155633Y-69742687D01*
X74063059Y-69881234D01*
X73945234Y-69999059D01*
X73806687Y-70091633D01*
X73652742Y-70155399D01*
X73489315Y-70187907D01*
X73322685Y-70187907D01*
X73159258Y-70155399D01*
X73005313Y-70091633D01*
X72866766Y-69999059D01*
X72748941Y-69881234D01*
X72656367Y-69742687D01*
X72592601Y-69588742D01*
X72560093Y-69425315D01*
X72560093Y-69258685D01*
X72592601Y-69095258D01*
X72656367Y-68941313D01*
X72748941Y-68802766D01*
X72866766Y-68684941D01*
X73005313Y-68592367D01*
X73159258Y-68528601D01*
X73322685Y-68496093D01*
X73489315Y-68496093D01*
X73652742Y-68528601D01*
G37*
G36*
X76192742Y-68528601D02*
G01*
X76346687Y-68592367D01*
X76485234Y-68684941D01*
X76603059Y-68802766D01*
X76695633Y-68941313D01*
X76759399Y-69095258D01*
X76791907Y-69258685D01*
X76791907Y-69425315D01*
X76759399Y-69588742D01*
X76695633Y-69742687D01*
X76603059Y-69881234D01*
X76485234Y-69999059D01*
X76346687Y-70091633D01*
X76192742Y-70155399D01*
X76029315Y-70187907D01*
X75862685Y-70187907D01*
X75699258Y-70155399D01*
X75545313Y-70091633D01*
X75406766Y-69999059D01*
X75288941Y-69881234D01*
X75196367Y-69742687D01*
X75132601Y-69588742D01*
X75100093Y-69425315D01*
X75100093Y-69258685D01*
X75132601Y-69095258D01*
X75196367Y-68941313D01*
X75288941Y-68802766D01*
X75406766Y-68684941D01*
X75545313Y-68592367D01*
X75699258Y-68528601D01*
X75862685Y-68496093D01*
X76029315Y-68496093D01*
X76192742Y-68528601D01*
G37*
G36*
X78732742Y-68528601D02*
G01*
X78886687Y-68592367D01*
X79025234Y-68684941D01*
X79143059Y-68802766D01*
X79235633Y-68941313D01*
X79299399Y-69095258D01*
X79331907Y-69258685D01*
X79331907Y-69425315D01*
X79299399Y-69588742D01*
X79235633Y-69742687D01*
X79143059Y-69881234D01*
X79025234Y-69999059D01*
X78886687Y-70091633D01*
X78732742Y-70155399D01*
X78569315Y-70187907D01*
X78402685Y-70187907D01*
X78239258Y-70155399D01*
X78085313Y-70091633D01*
X77946766Y-69999059D01*
X77828941Y-69881234D01*
X77736367Y-69742687D01*
X77672601Y-69588742D01*
X77640093Y-69425315D01*
X77640093Y-69258685D01*
X77672601Y-69095258D01*
X77736367Y-68941313D01*
X77828941Y-68802766D01*
X77946766Y-68684941D01*
X78085313Y-68592367D01*
X78239258Y-68528601D01*
X78402685Y-68496093D01*
X78569315Y-68496093D01*
X78732742Y-68528601D01*
G37*
G36*
X81272742Y-68528601D02*
G01*
X81426687Y-68592367D01*
X81565234Y-68684941D01*
X81683059Y-68802766D01*
X81775633Y-68941313D01*
X81839399Y-69095258D01*
X81871907Y-69258685D01*
X81871907Y-69425315D01*
X81839399Y-69588742D01*
X81775633Y-69742687D01*
X81683059Y-69881234D01*
X81565234Y-69999059D01*
X81426687Y-70091633D01*
X81272742Y-70155399D01*
X81109315Y-70187907D01*
X80942685Y-70187907D01*
X80779258Y-70155399D01*
X80625313Y-70091633D01*
X80486766Y-69999059D01*
X80368941Y-69881234D01*
X80276367Y-69742687D01*
X80212601Y-69588742D01*
X80180093Y-69425315D01*
X80180093Y-69258685D01*
X80212601Y-69095258D01*
X80276367Y-68941313D01*
X80368941Y-68802766D01*
X80486766Y-68684941D01*
X80625313Y-68592367D01*
X80779258Y-68528601D01*
X80942685Y-68496093D01*
X81109315Y-68496093D01*
X81272742Y-68528601D01*
G37*
G36*
X55826742Y-68183601D02*
G01*
X55980687Y-68247367D01*
X56119234Y-68339941D01*
X56237059Y-68457766D01*
X56329633Y-68596313D01*
X56393399Y-68750258D01*
X56425907Y-68913685D01*
X56425907Y-69080315D01*
X56393399Y-69243742D01*
X56329633Y-69397687D01*
X56237059Y-69536234D01*
X56119234Y-69654059D01*
X55980687Y-69746633D01*
X55826742Y-69810399D01*
X55663315Y-69842907D01*
X55496685Y-69842907D01*
X55333258Y-69810399D01*
X55179313Y-69746633D01*
X55040766Y-69654059D01*
X54922941Y-69536234D01*
X54830367Y-69397687D01*
X54766601Y-69243742D01*
X54734093Y-69080315D01*
X54734093Y-68913685D01*
X54766601Y-68750258D01*
X54830367Y-68596313D01*
X54922941Y-68457766D01*
X55040766Y-68339941D01*
X55179313Y-68247367D01*
X55333258Y-68183601D01*
X55496685Y-68151093D01*
X55663315Y-68151093D01*
X55826742Y-68183601D01*
G37*
G36*
X69080742Y-68020601D02*
G01*
X69234687Y-68084367D01*
X69373234Y-68176941D01*
X69491059Y-68294766D01*
X69583633Y-68433313D01*
X69647399Y-68587258D01*
X69679907Y-68750685D01*
X69679907Y-68917315D01*
X69647399Y-69080742D01*
X69583633Y-69234687D01*
X69491059Y-69373234D01*
X69373234Y-69491059D01*
X69234687Y-69583633D01*
X69080742Y-69647399D01*
X68917315Y-69679907D01*
X68750685Y-69679907D01*
X68587258Y-69647399D01*
X68433313Y-69583633D01*
X68294766Y-69491059D01*
X68176941Y-69373234D01*
X68084367Y-69234687D01*
X68020601Y-69080742D01*
X67988093Y-68917315D01*
X67988093Y-68750685D01*
X68020601Y-68587258D01*
X68084367Y-68433313D01*
X68176941Y-68294766D01*
X68294766Y-68176941D01*
X68433313Y-68084367D01*
X68587258Y-68020601D01*
X68750685Y-67988093D01*
X68917315Y-67988093D01*
X69080742Y-68020601D01*
G37*
G36*
X87876742Y-67004601D02*
G01*
X88030687Y-67068367D01*
X88169234Y-67160941D01*
X88287059Y-67278766D01*
X88379633Y-67417313D01*
X88443399Y-67571258D01*
X88475907Y-67734685D01*
X88475907Y-67901315D01*
X88443399Y-68064742D01*
X88379633Y-68218687D01*
X88287059Y-68357234D01*
X88169234Y-68475059D01*
X88030687Y-68567633D01*
X87876742Y-68631399D01*
X87713315Y-68663907D01*
X87546685Y-68663907D01*
X87383258Y-68631399D01*
X87229313Y-68567633D01*
X87090766Y-68475059D01*
X86972941Y-68357234D01*
X86880367Y-68218687D01*
X86816601Y-68064742D01*
X86784093Y-67901315D01*
X86784093Y-67734685D01*
X86816601Y-67571258D01*
X86880367Y-67417313D01*
X86972941Y-67278766D01*
X87090766Y-67160941D01*
X87229313Y-67068367D01*
X87383258Y-67004601D01*
X87546685Y-66972093D01*
X87713315Y-66972093D01*
X87876742Y-67004601D01*
G37*
G36*
X92194742Y-66920601D02*
G01*
X92348687Y-66984367D01*
X92487234Y-67076941D01*
X92605059Y-67194766D01*
X92697633Y-67333313D01*
X92761399Y-67487258D01*
X92793907Y-67650685D01*
X92793907Y-67817315D01*
X92761399Y-67980742D01*
X92697633Y-68134687D01*
X92605059Y-68273234D01*
X92487234Y-68391059D01*
X92348687Y-68483633D01*
X92194742Y-68547399D01*
X92031315Y-68579907D01*
X91864685Y-68579907D01*
X91701258Y-68547399D01*
X91547313Y-68483633D01*
X91408766Y-68391059D01*
X91290941Y-68273234D01*
X91198367Y-68134687D01*
X91134601Y-67980742D01*
X91102093Y-67817315D01*
X91102093Y-67650685D01*
X91134601Y-67487258D01*
X91198367Y-67333313D01*
X91290941Y-67194766D01*
X91408766Y-67076941D01*
X91547313Y-66984367D01*
X91701258Y-66920601D01*
X91864685Y-66888093D01*
X92031315Y-66888093D01*
X92194742Y-66920601D01*
G37*
G36*
X58666742Y-66798601D02*
G01*
X58820687Y-66862367D01*
X58959234Y-66954941D01*
X59077059Y-67072766D01*
X59169633Y-67211313D01*
X59233399Y-67365258D01*
X59265907Y-67528685D01*
X59265907Y-67695315D01*
X59233399Y-67858742D01*
X59169633Y-68012687D01*
X59077059Y-68151234D01*
X58959234Y-68269059D01*
X58820687Y-68361633D01*
X58666742Y-68425399D01*
X58503315Y-68457907D01*
X58336685Y-68457907D01*
X58173258Y-68425399D01*
X58019313Y-68361633D01*
X57880766Y-68269059D01*
X57762941Y-68151234D01*
X57670367Y-68012687D01*
X57606601Y-67858742D01*
X57574093Y-67695315D01*
X57574093Y-67528685D01*
X57606601Y-67365258D01*
X57670367Y-67211313D01*
X57762941Y-67072766D01*
X57880766Y-66954941D01*
X58019313Y-66862367D01*
X58173258Y-66798601D01*
X58336685Y-66766093D01*
X58503315Y-66766093D01*
X58666742Y-66798601D01*
G37*
G36*
X55826742Y-65413601D02*
G01*
X55980687Y-65477367D01*
X56119234Y-65569941D01*
X56237059Y-65687766D01*
X56329633Y-65826313D01*
X56393399Y-65980258D01*
X56425907Y-66143685D01*
X56425907Y-66310315D01*
X56393399Y-66473742D01*
X56329633Y-66627687D01*
X56237059Y-66766234D01*
X56119234Y-66884059D01*
X55980687Y-66976633D01*
X55826742Y-67040399D01*
X55663315Y-67072907D01*
X55496685Y-67072907D01*
X55333258Y-67040399D01*
X55179313Y-66976633D01*
X55040766Y-66884059D01*
X54922941Y-66766234D01*
X54830367Y-66627687D01*
X54766601Y-66473742D01*
X54734093Y-66310315D01*
X54734093Y-66143685D01*
X54766601Y-65980258D01*
X54830367Y-65826313D01*
X54922941Y-65687766D01*
X55040766Y-65569941D01*
X55179313Y-65477367D01*
X55333258Y-65413601D01*
X55496685Y-65381093D01*
X55663315Y-65381093D01*
X55826742Y-65413601D01*
G37*
G36*
X58666742Y-64028601D02*
G01*
X58820687Y-64092367D01*
X58959234Y-64184941D01*
X59077059Y-64302766D01*
X59169633Y-64441313D01*
X59233399Y-64595258D01*
X59265907Y-64758685D01*
X59265907Y-64925315D01*
X59233399Y-65088742D01*
X59169633Y-65242687D01*
X59077059Y-65381234D01*
X58959234Y-65499059D01*
X58820687Y-65591633D01*
X58666742Y-65655399D01*
X58503315Y-65687907D01*
X58336685Y-65687907D01*
X58173258Y-65655399D01*
X58019313Y-65591633D01*
X57880766Y-65499059D01*
X57762941Y-65381234D01*
X57670367Y-65242687D01*
X57606601Y-65088742D01*
X57574093Y-64925315D01*
X57574093Y-64758685D01*
X57606601Y-64595258D01*
X57670367Y-64441313D01*
X57762941Y-64302766D01*
X57880766Y-64184941D01*
X58019313Y-64092367D01*
X58173258Y-64028601D01*
X58336685Y-63996093D01*
X58503315Y-63996093D01*
X58666742Y-64028601D01*
G37*
G36*
X75159315Y-62908093D02*
G01*
X75322742Y-62940601D01*
X75476687Y-63004367D01*
X75615234Y-63096941D01*
X75733059Y-63214766D01*
X75825633Y-63353313D01*
X75889399Y-63507258D01*
X75921907Y-63670685D01*
X75921907Y-63837315D01*
X75889399Y-64000742D01*
X75825633Y-64154687D01*
X75733059Y-64293234D01*
X75615234Y-64411059D01*
X75476687Y-64503633D01*
X75322742Y-64567399D01*
X75159315Y-64599907D01*
X75076000Y-64604000D01*
X75072940Y-64604000D01*
X74279060Y-64604000D01*
X74276000Y-64604000D01*
X74192685Y-64599907D01*
X74029258Y-64567399D01*
X73875313Y-64503633D01*
X73736766Y-64411059D01*
X73618941Y-64293234D01*
X73526367Y-64154687D01*
X73462601Y-64000742D01*
X73430093Y-63837315D01*
X73430093Y-63670685D01*
X73462601Y-63507258D01*
X73526367Y-63353313D01*
X73618941Y-63214766D01*
X73736766Y-63096941D01*
X73875313Y-63004367D01*
X74029258Y-62940601D01*
X74192685Y-62908093D01*
X74276000Y-62904000D01*
X75076000Y-62904000D01*
X75159315Y-62908093D01*
G37*
G36*
X82779315Y-62908093D02*
G01*
X82942742Y-62940601D01*
X83096687Y-63004367D01*
X83235234Y-63096941D01*
X83353059Y-63214766D01*
X83445633Y-63353313D01*
X83509399Y-63507258D01*
X83541907Y-63670685D01*
X83541907Y-63837315D01*
X83509399Y-64000742D01*
X83445633Y-64154687D01*
X83353059Y-64293234D01*
X83235234Y-64411059D01*
X83096687Y-64503633D01*
X82942742Y-64567399D01*
X82779315Y-64599907D01*
X82696000Y-64604000D01*
X82692940Y-64604000D01*
X81899060Y-64604000D01*
X81896000Y-64604000D01*
X81812685Y-64599907D01*
X81649258Y-64567399D01*
X81495313Y-64503633D01*
X81356766Y-64411059D01*
X81238941Y-64293234D01*
X81146367Y-64154687D01*
X81082601Y-64000742D01*
X81050093Y-63837315D01*
X81050093Y-63670685D01*
X81082601Y-63507258D01*
X81146367Y-63353313D01*
X81238941Y-63214766D01*
X81356766Y-63096941D01*
X81495313Y-63004367D01*
X81649258Y-62940601D01*
X81812685Y-62908093D01*
X81896000Y-62904000D01*
X82696000Y-62904000D01*
X82779315Y-62908093D01*
G37*
G36*
X97274742Y-61543601D02*
G01*
X97428687Y-61607367D01*
X97567234Y-61699941D01*
X97685059Y-61817766D01*
X97777633Y-61956313D01*
X97841399Y-62110258D01*
X97873907Y-62273685D01*
X97873907Y-62440315D01*
X97841399Y-62603742D01*
X97777633Y-62757687D01*
X97685059Y-62896234D01*
X97567234Y-63014059D01*
X97428687Y-63106633D01*
X97274742Y-63170399D01*
X97111315Y-63202907D01*
X96944685Y-63202907D01*
X96781258Y-63170399D01*
X96627313Y-63106633D01*
X96488766Y-63014059D01*
X96370941Y-62896234D01*
X96278367Y-62757687D01*
X96214601Y-62603742D01*
X96182093Y-62440315D01*
X96182093Y-62273685D01*
X96214601Y-62110258D01*
X96278367Y-61956313D01*
X96370941Y-61817766D01*
X96488766Y-61699941D01*
X96627313Y-61607367D01*
X96781258Y-61543601D01*
X96944685Y-61511093D01*
X97111315Y-61511093D01*
X97274742Y-61543601D01*
G37*
G36*
X75159315Y-60368093D02*
G01*
X75322742Y-60400601D01*
X75476687Y-60464367D01*
X75615234Y-60556941D01*
X75733059Y-60674766D01*
X75825633Y-60813313D01*
X75889399Y-60967258D01*
X75921907Y-61130685D01*
X75921907Y-61297315D01*
X75889399Y-61460742D01*
X75825633Y-61614687D01*
X75733059Y-61753234D01*
X75615234Y-61871059D01*
X75476687Y-61963633D01*
X75322742Y-62027399D01*
X75159315Y-62059907D01*
X75076000Y-62064000D01*
X75072940Y-62064000D01*
X74279060Y-62064000D01*
X74276000Y-62064000D01*
X74192685Y-62059907D01*
X74029258Y-62027399D01*
X73875313Y-61963633D01*
X73736766Y-61871059D01*
X73618941Y-61753234D01*
X73526367Y-61614687D01*
X73462601Y-61460742D01*
X73430093Y-61297315D01*
X73430093Y-61130685D01*
X73462601Y-60967258D01*
X73526367Y-60813313D01*
X73618941Y-60674766D01*
X73736766Y-60556941D01*
X73875313Y-60464367D01*
X74029258Y-60400601D01*
X74192685Y-60368093D01*
X74276000Y-60364000D01*
X75076000Y-60364000D01*
X75159315Y-60368093D01*
G37*
G36*
X82779315Y-60368093D02*
G01*
X82942742Y-60400601D01*
X83096687Y-60464367D01*
X83235234Y-60556941D01*
X83353059Y-60674766D01*
X83445633Y-60813313D01*
X83509399Y-60967258D01*
X83541907Y-61130685D01*
X83541907Y-61297315D01*
X83509399Y-61460742D01*
X83445633Y-61614687D01*
X83353059Y-61753234D01*
X83235234Y-61871059D01*
X83096687Y-61963633D01*
X82942742Y-62027399D01*
X82779315Y-62059907D01*
X82696000Y-62064000D01*
X82692940Y-62064000D01*
X81899060Y-62064000D01*
X81896000Y-62064000D01*
X81812685Y-62059907D01*
X81649258Y-62027399D01*
X81495313Y-61963633D01*
X81356766Y-61871059D01*
X81238941Y-61753234D01*
X81146367Y-61614687D01*
X81082601Y-61460742D01*
X81050093Y-61297315D01*
X81050093Y-61130685D01*
X81082601Y-60967258D01*
X81146367Y-60813313D01*
X81238941Y-60674766D01*
X81356766Y-60556941D01*
X81495313Y-60464367D01*
X81649258Y-60400601D01*
X81812685Y-60368093D01*
X81896000Y-60364000D01*
X82696000Y-60364000D01*
X82779315Y-60368093D01*
G37*
G36*
X57399935Y-55901390D02*
G01*
X57658951Y-55970793D01*
X57906692Y-56073411D01*
X58138919Y-56207487D01*
X58351659Y-56370728D01*
X58541272Y-56560341D01*
X58704513Y-56773081D01*
X58838589Y-57005308D01*
X58941207Y-57253049D01*
X59010610Y-57512065D01*
X59045611Y-57777924D01*
X59045611Y-58046076D01*
X59010610Y-58311935D01*
X58941207Y-58570951D01*
X58838589Y-58818692D01*
X58704513Y-59050919D01*
X58541272Y-59263659D01*
X58351659Y-59453272D01*
X58138919Y-59616513D01*
X57906692Y-59750589D01*
X57658951Y-59853207D01*
X57399935Y-59922610D01*
X57134076Y-59957611D01*
X56865924Y-59957611D01*
X56600065Y-59922610D01*
X56341049Y-59853207D01*
X56093308Y-59750589D01*
X55861081Y-59616513D01*
X55648341Y-59453272D01*
X55458728Y-59263659D01*
X55295487Y-59050919D01*
X55161411Y-58818692D01*
X55058793Y-58570951D01*
X54989390Y-58311935D01*
X54954389Y-58046076D01*
X54954389Y-57777924D01*
X54989390Y-57512065D01*
X55058793Y-57253049D01*
X55161411Y-57005308D01*
X55295487Y-56773081D01*
X55458728Y-56560341D01*
X55648341Y-56370728D01*
X55861081Y-56207487D01*
X56093308Y-56073411D01*
X56341049Y-55970793D01*
X56600065Y-55901390D01*
X56865924Y-55866389D01*
X57134076Y-55866389D01*
X57399935Y-55901390D01*
G37*
G36*
X109951519Y-58445156D02*
G01*
X110090975Y-58502921D01*
X110216483Y-58586782D01*
X110323218Y-58693517D01*
X110407079Y-58819025D01*
X110464844Y-58958481D01*
X110494292Y-59106527D01*
X110494292Y-59257473D01*
X110464844Y-59405519D01*
X110407079Y-59544975D01*
X110323218Y-59670483D01*
X110216483Y-59777218D01*
X110090975Y-59861079D01*
X109951519Y-59918844D01*
X109803473Y-59948292D01*
X109652527Y-59948292D01*
X109504481Y-59918844D01*
X109365025Y-59861079D01*
X109239517Y-59777218D01*
X109132782Y-59670483D01*
X109048921Y-59544975D01*
X108991156Y-59405519D01*
X108961708Y-59257473D01*
X108961708Y-59106527D01*
X108991156Y-58958481D01*
X109048921Y-58819025D01*
X109132782Y-58693517D01*
X109239517Y-58586782D01*
X109365025Y-58502921D01*
X109504481Y-58445156D01*
X109652527Y-58415708D01*
X109803473Y-58415708D01*
X109951519Y-58445156D01*
G37*
G36*
X75159315Y-57828093D02*
G01*
X75322742Y-57860601D01*
X75476687Y-57924367D01*
X75615234Y-58016941D01*
X75733059Y-58134766D01*
X75825633Y-58273313D01*
X75889399Y-58427258D01*
X75921907Y-58590685D01*
X75921907Y-58757315D01*
X75889399Y-58920742D01*
X75825633Y-59074687D01*
X75733059Y-59213234D01*
X75615234Y-59331059D01*
X75476687Y-59423633D01*
X75322742Y-59487399D01*
X75159315Y-59519907D01*
X75076000Y-59524000D01*
X75072940Y-59524000D01*
X74279060Y-59524000D01*
X74276000Y-59524000D01*
X74192685Y-59519907D01*
X74029258Y-59487399D01*
X73875313Y-59423633D01*
X73736766Y-59331059D01*
X73618941Y-59213234D01*
X73526367Y-59074687D01*
X73462601Y-58920742D01*
X73430093Y-58757315D01*
X73430093Y-58590685D01*
X73462601Y-58427258D01*
X73526367Y-58273313D01*
X73618941Y-58134766D01*
X73736766Y-58016941D01*
X73875313Y-57924367D01*
X74029258Y-57860601D01*
X74192685Y-57828093D01*
X74276000Y-57824000D01*
X75076000Y-57824000D01*
X75159315Y-57828093D01*
G37*
G36*
X82779315Y-57828093D02*
G01*
X82942742Y-57860601D01*
X83096687Y-57924367D01*
X83235234Y-58016941D01*
X83353059Y-58134766D01*
X83445633Y-58273313D01*
X83509399Y-58427258D01*
X83541907Y-58590685D01*
X83541907Y-58757315D01*
X83509399Y-58920742D01*
X83445633Y-59074687D01*
X83353059Y-59213234D01*
X83235234Y-59331059D01*
X83096687Y-59423633D01*
X82942742Y-59487399D01*
X82779315Y-59519907D01*
X82696000Y-59524000D01*
X82692940Y-59524000D01*
X81899060Y-59524000D01*
X81896000Y-59524000D01*
X81812685Y-59519907D01*
X81649258Y-59487399D01*
X81495313Y-59423633D01*
X81356766Y-59331059D01*
X81238941Y-59213234D01*
X81146367Y-59074687D01*
X81082601Y-58920742D01*
X81050093Y-58757315D01*
X81050093Y-58590685D01*
X81082601Y-58427258D01*
X81146367Y-58273313D01*
X81238941Y-58134766D01*
X81356766Y-58016941D01*
X81495313Y-57924367D01*
X81649258Y-57860601D01*
X81812685Y-57828093D01*
X81896000Y-57824000D01*
X82696000Y-57824000D01*
X82779315Y-57828093D01*
G37*
G36*
X69080742Y-57860601D02*
G01*
X69234687Y-57924367D01*
X69373234Y-58016941D01*
X69491059Y-58134766D01*
X69583633Y-58273313D01*
X69647399Y-58427258D01*
X69679907Y-58590685D01*
X69679907Y-58757315D01*
X69647399Y-58920742D01*
X69583633Y-59074687D01*
X69491059Y-59213234D01*
X69373234Y-59331059D01*
X69234687Y-59423633D01*
X69080742Y-59487399D01*
X68917315Y-59519907D01*
X68750685Y-59519907D01*
X68587258Y-59487399D01*
X68433313Y-59423633D01*
X68294766Y-59331059D01*
X68176941Y-59213234D01*
X68084367Y-59074687D01*
X68020601Y-58920742D01*
X67988093Y-58757315D01*
X67988093Y-58590685D01*
X68020601Y-58427258D01*
X68084367Y-58273313D01*
X68176941Y-58134766D01*
X68294766Y-58016941D01*
X68433313Y-57924367D01*
X68587258Y-57860601D01*
X68750685Y-57828093D01*
X68917315Y-57828093D01*
X69080742Y-57860601D01*
G37*
G36*
X87876742Y-56844601D02*
G01*
X88030687Y-56908367D01*
X88169234Y-57000941D01*
X88287059Y-57118766D01*
X88379633Y-57257313D01*
X88443399Y-57411258D01*
X88475907Y-57574685D01*
X88475907Y-57741315D01*
X88443399Y-57904742D01*
X88379633Y-58058687D01*
X88287059Y-58197234D01*
X88169234Y-58315059D01*
X88030687Y-58407633D01*
X87876742Y-58471399D01*
X87713315Y-58503907D01*
X87546685Y-58503907D01*
X87383258Y-58471399D01*
X87229313Y-58407633D01*
X87090766Y-58315059D01*
X86972941Y-58197234D01*
X86880367Y-58058687D01*
X86816601Y-57904742D01*
X86784093Y-57741315D01*
X86784093Y-57574685D01*
X86816601Y-57411258D01*
X86880367Y-57257313D01*
X86972941Y-57118766D01*
X87090766Y-57000941D01*
X87229313Y-56908367D01*
X87383258Y-56844601D01*
X87546685Y-56812093D01*
X87713315Y-56812093D01*
X87876742Y-56844601D01*
G37*
G36*
X92194742Y-56760601D02*
G01*
X92348687Y-56824367D01*
X92487234Y-56916941D01*
X92605059Y-57034766D01*
X92697633Y-57173313D01*
X92761399Y-57327258D01*
X92793907Y-57490685D01*
X92793907Y-57657315D01*
X92761399Y-57820742D01*
X92697633Y-57974687D01*
X92605059Y-58113234D01*
X92487234Y-58231059D01*
X92348687Y-58323633D01*
X92194742Y-58387399D01*
X92031315Y-58419907D01*
X91864685Y-58419907D01*
X91701258Y-58387399D01*
X91547313Y-58323633D01*
X91408766Y-58231059D01*
X91290941Y-58113234D01*
X91198367Y-57974687D01*
X91134601Y-57820742D01*
X91102093Y-57657315D01*
X91102093Y-57490685D01*
X91134601Y-57327258D01*
X91198367Y-57173313D01*
X91290941Y-57034766D01*
X91408766Y-56916941D01*
X91547313Y-56824367D01*
X91701258Y-56760601D01*
X91864685Y-56728093D01*
X92031315Y-56728093D01*
X92194742Y-56760601D01*
G37*
G36*
X112491519Y-55905156D02*
G01*
X112630975Y-55962921D01*
X112756483Y-56046782D01*
X112863218Y-56153517D01*
X112947079Y-56279025D01*
X113004844Y-56418481D01*
X113034292Y-56566527D01*
X113034292Y-56717473D01*
X113004844Y-56865519D01*
X112947079Y-57004975D01*
X112863218Y-57130483D01*
X112756483Y-57237218D01*
X112630975Y-57321079D01*
X112491519Y-57378844D01*
X112343473Y-57408292D01*
X112192527Y-57408292D01*
X112044481Y-57378844D01*
X111905025Y-57321079D01*
X111779517Y-57237218D01*
X111672782Y-57130483D01*
X111588921Y-57004975D01*
X111531156Y-56865519D01*
X111501708Y-56717473D01*
X111501708Y-56566527D01*
X111531156Y-56418481D01*
X111588921Y-56279025D01*
X111672782Y-56153517D01*
X111779517Y-56046782D01*
X111905025Y-55962921D01*
X112044481Y-55905156D01*
X112192527Y-55875708D01*
X112343473Y-55875708D01*
X112491519Y-55905156D01*
G37*
G36*
X75159315Y-55288093D02*
G01*
X75322742Y-55320601D01*
X75476687Y-55384367D01*
X75615234Y-55476941D01*
X75733059Y-55594766D01*
X75825633Y-55733313D01*
X75889399Y-55887258D01*
X75921907Y-56050685D01*
X75921907Y-56217315D01*
X75889399Y-56380742D01*
X75825633Y-56534687D01*
X75733059Y-56673234D01*
X75615234Y-56791059D01*
X75476687Y-56883633D01*
X75322742Y-56947399D01*
X75159315Y-56979907D01*
X75076000Y-56984000D01*
X75072940Y-56984000D01*
X74279060Y-56984000D01*
X74276000Y-56984000D01*
X74192685Y-56979907D01*
X74029258Y-56947399D01*
X73875313Y-56883633D01*
X73736766Y-56791059D01*
X73618941Y-56673234D01*
X73526367Y-56534687D01*
X73462601Y-56380742D01*
X73430093Y-56217315D01*
X73430093Y-56050685D01*
X73462601Y-55887258D01*
X73526367Y-55733313D01*
X73618941Y-55594766D01*
X73736766Y-55476941D01*
X73875313Y-55384367D01*
X74029258Y-55320601D01*
X74192685Y-55288093D01*
X74276000Y-55284000D01*
X75076000Y-55284000D01*
X75159315Y-55288093D01*
G37*
G36*
X82779315Y-55288093D02*
G01*
X82942742Y-55320601D01*
X83096687Y-55384367D01*
X83235234Y-55476941D01*
X83353059Y-55594766D01*
X83445633Y-55733313D01*
X83509399Y-55887258D01*
X83541907Y-56050685D01*
X83541907Y-56217315D01*
X83509399Y-56380742D01*
X83445633Y-56534687D01*
X83353059Y-56673234D01*
X83235234Y-56791059D01*
X83096687Y-56883633D01*
X82942742Y-56947399D01*
X82779315Y-56979907D01*
X82696000Y-56984000D01*
X82692940Y-56984000D01*
X81899060Y-56984000D01*
X81896000Y-56984000D01*
X81812685Y-56979907D01*
X81649258Y-56947399D01*
X81495313Y-56883633D01*
X81356766Y-56791059D01*
X81238941Y-56673234D01*
X81146367Y-56534687D01*
X81082601Y-56380742D01*
X81050093Y-56217315D01*
X81050093Y-56050685D01*
X81082601Y-55887258D01*
X81146367Y-55733313D01*
X81238941Y-55594766D01*
X81356766Y-55476941D01*
X81495313Y-55384367D01*
X81649258Y-55320601D01*
X81812685Y-55288093D01*
X81896000Y-55284000D01*
X82696000Y-55284000D01*
X82779315Y-55288093D01*
G37*
G36*
X70096742Y-54558601D02*
G01*
X70250687Y-54622367D01*
X70389234Y-54714941D01*
X70507059Y-54832766D01*
X70599633Y-54971313D01*
X70663399Y-55125258D01*
X70695907Y-55288685D01*
X70695907Y-55455315D01*
X70663399Y-55618742D01*
X70599633Y-55772687D01*
X70507059Y-55911234D01*
X70389234Y-56029059D01*
X70250687Y-56121633D01*
X70096742Y-56185399D01*
X69933315Y-56217907D01*
X69766685Y-56217907D01*
X69603258Y-56185399D01*
X69449313Y-56121633D01*
X69310766Y-56029059D01*
X69192941Y-55911234D01*
X69100367Y-55772687D01*
X69036601Y-55618742D01*
X69004093Y-55455315D01*
X69004093Y-55288685D01*
X69036601Y-55125258D01*
X69100367Y-54971313D01*
X69192941Y-54832766D01*
X69310766Y-54714941D01*
X69449313Y-54622367D01*
X69603258Y-54558601D01*
X69766685Y-54526093D01*
X69933315Y-54526093D01*
X70096742Y-54558601D01*
G37*
G36*
X130308302Y-54383947D02*
G01*
X130324053Y-54390901D01*
X130331776Y-54392125D01*
X130363946Y-54408516D01*
X130408889Y-54428361D01*
X130486639Y-54506111D01*
X130506486Y-54551061D01*
X130522874Y-54583223D01*
X130524096Y-54590943D01*
X130531053Y-54606698D01*
X130539000Y-54675200D01*
X130539000Y-55576800D01*
X130531053Y-55645302D01*
X130524096Y-55661056D01*
X130522874Y-55668776D01*
X130506489Y-55700931D01*
X130486639Y-55745889D01*
X130408889Y-55823639D01*
X130363931Y-55843489D01*
X130331776Y-55859874D01*
X130324056Y-55861096D01*
X130308302Y-55868053D01*
X130239800Y-55876000D01*
X129338200Y-55876000D01*
X129269698Y-55868053D01*
X129253943Y-55861096D01*
X129246223Y-55859874D01*
X129214061Y-55843486D01*
X129169111Y-55823639D01*
X129091361Y-55745889D01*
X129071516Y-55700946D01*
X129055125Y-55668776D01*
X129053901Y-55661053D01*
X129046947Y-55645302D01*
X129039000Y-55576800D01*
X129039000Y-54675200D01*
X129046947Y-54606698D01*
X129053901Y-54590947D01*
X129055125Y-54583223D01*
X129071519Y-54551046D01*
X129091361Y-54506111D01*
X129169111Y-54428361D01*
X129214046Y-54408519D01*
X129246223Y-54392125D01*
X129253947Y-54390901D01*
X129269698Y-54383947D01*
X129338200Y-54376000D01*
X130239800Y-54376000D01*
X130308302Y-54383947D01*
G37*
G36*
X127446714Y-54408295D02*
G01*
X127582548Y-54464559D01*
X127704795Y-54546242D01*
X127808758Y-54650205D01*
X127890441Y-54772452D01*
X127946705Y-54908286D01*
X127975389Y-55052487D01*
X127975389Y-55199513D01*
X127946705Y-55343714D01*
X127890441Y-55479548D01*
X127808758Y-55601795D01*
X127704795Y-55705758D01*
X127582548Y-55787441D01*
X127446714Y-55843705D01*
X127302513Y-55872389D01*
X127155487Y-55872389D01*
X127011286Y-55843705D01*
X126875452Y-55787441D01*
X126753205Y-55705758D01*
X126649242Y-55601795D01*
X126567559Y-55479548D01*
X126511295Y-55343714D01*
X126482611Y-55199513D01*
X126482611Y-55052487D01*
X126511295Y-54908286D01*
X126567559Y-54772452D01*
X126649242Y-54650205D01*
X126753205Y-54546242D01*
X126875452Y-54464559D01*
X127011286Y-54408295D01*
X127155487Y-54379611D01*
X127302513Y-54379611D01*
X127446714Y-54408295D01*
G37*
G36*
X109951519Y-53365156D02*
G01*
X110090975Y-53422921D01*
X110216483Y-53506782D01*
X110323218Y-53613517D01*
X110407079Y-53739025D01*
X110464844Y-53878481D01*
X110494292Y-54026527D01*
X110494292Y-54177473D01*
X110464844Y-54325519D01*
X110407079Y-54464975D01*
X110323218Y-54590483D01*
X110216483Y-54697218D01*
X110090975Y-54781079D01*
X109951519Y-54838844D01*
X109803473Y-54868292D01*
X109652527Y-54868292D01*
X109504481Y-54838844D01*
X109365025Y-54781079D01*
X109239517Y-54697218D01*
X109132782Y-54590483D01*
X109048921Y-54464975D01*
X108991156Y-54325519D01*
X108961708Y-54177473D01*
X108961708Y-54026527D01*
X108991156Y-53878481D01*
X109048921Y-53739025D01*
X109132782Y-53613517D01*
X109239517Y-53506782D01*
X109365025Y-53422921D01*
X109504481Y-53365156D01*
X109652527Y-53335708D01*
X109803473Y-53335708D01*
X109951519Y-53365156D01*
G37*
G36*
X75159315Y-52748093D02*
G01*
X75322742Y-52780601D01*
X75476687Y-52844367D01*
X75615234Y-52936941D01*
X75733059Y-53054766D01*
X75825633Y-53193313D01*
X75889399Y-53347258D01*
X75921907Y-53510685D01*
X75921907Y-53677315D01*
X75889399Y-53840742D01*
X75825633Y-53994687D01*
X75733059Y-54133234D01*
X75615234Y-54251059D01*
X75476687Y-54343633D01*
X75322742Y-54407399D01*
X75159315Y-54439907D01*
X75076000Y-54444000D01*
X75072940Y-54444000D01*
X74279060Y-54444000D01*
X74276000Y-54444000D01*
X74192685Y-54439907D01*
X74029258Y-54407399D01*
X73875313Y-54343633D01*
X73736766Y-54251059D01*
X73618941Y-54133234D01*
X73526367Y-53994687D01*
X73462601Y-53840742D01*
X73430093Y-53677315D01*
X73430093Y-53510685D01*
X73462601Y-53347258D01*
X73526367Y-53193313D01*
X73618941Y-53054766D01*
X73736766Y-52936941D01*
X73875313Y-52844367D01*
X74029258Y-52780601D01*
X74192685Y-52748093D01*
X74276000Y-52744000D01*
X75076000Y-52744000D01*
X75159315Y-52748093D01*
G37*
G36*
X82779315Y-52748093D02*
G01*
X82942742Y-52780601D01*
X83096687Y-52844367D01*
X83235234Y-52936941D01*
X83353059Y-53054766D01*
X83445633Y-53193313D01*
X83509399Y-53347258D01*
X83541907Y-53510685D01*
X83541907Y-53677315D01*
X83509399Y-53840742D01*
X83445633Y-53994687D01*
X83353059Y-54133234D01*
X83235234Y-54251059D01*
X83096687Y-54343633D01*
X82942742Y-54407399D01*
X82779315Y-54439907D01*
X82696000Y-54444000D01*
X82692940Y-54444000D01*
X81899060Y-54444000D01*
X81896000Y-54444000D01*
X81812685Y-54439907D01*
X81649258Y-54407399D01*
X81495313Y-54343633D01*
X81356766Y-54251059D01*
X81238941Y-54133234D01*
X81146367Y-53994687D01*
X81082601Y-53840742D01*
X81050093Y-53677315D01*
X81050093Y-53510685D01*
X81082601Y-53347258D01*
X81146367Y-53193313D01*
X81238941Y-53054766D01*
X81356766Y-52936941D01*
X81495313Y-52844367D01*
X81649258Y-52780601D01*
X81812685Y-52748093D01*
X81896000Y-52744000D01*
X82696000Y-52744000D01*
X82779315Y-52748093D01*
G37*
G36*
X97274742Y-51383601D02*
G01*
X97428687Y-51447367D01*
X97567234Y-51539941D01*
X97685059Y-51657766D01*
X97777633Y-51796313D01*
X97841399Y-51950258D01*
X97873907Y-52113685D01*
X97873907Y-52280315D01*
X97841399Y-52443742D01*
X97777633Y-52597687D01*
X97685059Y-52736234D01*
X97567234Y-52854059D01*
X97428687Y-52946633D01*
X97274742Y-53010399D01*
X97111315Y-53042907D01*
X96944685Y-53042907D01*
X96781258Y-53010399D01*
X96627313Y-52946633D01*
X96488766Y-52854059D01*
X96370941Y-52736234D01*
X96278367Y-52597687D01*
X96214601Y-52443742D01*
X96182093Y-52280315D01*
X96182093Y-52113685D01*
X96214601Y-51950258D01*
X96278367Y-51796313D01*
X96370941Y-51657766D01*
X96488766Y-51539941D01*
X96627313Y-51447367D01*
X96781258Y-51383601D01*
X96944685Y-51351093D01*
X97111315Y-51351093D01*
X97274742Y-51383601D01*
G37*
G36*
X75159315Y-50208093D02*
G01*
X75322742Y-50240601D01*
X75476687Y-50304367D01*
X75615234Y-50396941D01*
X75733059Y-50514766D01*
X75825633Y-50653313D01*
X75889399Y-50807258D01*
X75921907Y-50970685D01*
X75921907Y-51137315D01*
X75889399Y-51300742D01*
X75825633Y-51454687D01*
X75733059Y-51593234D01*
X75615234Y-51711059D01*
X75476687Y-51803633D01*
X75322742Y-51867399D01*
X75159315Y-51899907D01*
X75076000Y-51904000D01*
X75072940Y-51904000D01*
X74279060Y-51904000D01*
X74276000Y-51904000D01*
X74192685Y-51899907D01*
X74029258Y-51867399D01*
X73875313Y-51803633D01*
X73736766Y-51711059D01*
X73618941Y-51593234D01*
X73526367Y-51454687D01*
X73462601Y-51300742D01*
X73430093Y-51137315D01*
X73430093Y-50970685D01*
X73462601Y-50807258D01*
X73526367Y-50653313D01*
X73618941Y-50514766D01*
X73736766Y-50396941D01*
X73875313Y-50304367D01*
X74029258Y-50240601D01*
X74192685Y-50208093D01*
X74276000Y-50204000D01*
X75076000Y-50204000D01*
X75159315Y-50208093D01*
G37*
G36*
X82779315Y-50208093D02*
G01*
X82942742Y-50240601D01*
X83096687Y-50304367D01*
X83235234Y-50396941D01*
X83353059Y-50514766D01*
X83445633Y-50653313D01*
X83509399Y-50807258D01*
X83541907Y-50970685D01*
X83541907Y-51137315D01*
X83509399Y-51300742D01*
X83445633Y-51454687D01*
X83353059Y-51593234D01*
X83235234Y-51711059D01*
X83096687Y-51803633D01*
X82942742Y-51867399D01*
X82779315Y-51899907D01*
X82696000Y-51904000D01*
X82692940Y-51904000D01*
X81899060Y-51904000D01*
X81896000Y-51904000D01*
X81812685Y-51899907D01*
X81649258Y-51867399D01*
X81495313Y-51803633D01*
X81356766Y-51711059D01*
X81238941Y-51593234D01*
X81146367Y-51454687D01*
X81082601Y-51300742D01*
X81050093Y-51137315D01*
X81050093Y-50970685D01*
X81082601Y-50807258D01*
X81146367Y-50653313D01*
X81238941Y-50514766D01*
X81356766Y-50396941D01*
X81495313Y-50304367D01*
X81649258Y-50240601D01*
X81812685Y-50208093D01*
X81896000Y-50204000D01*
X82696000Y-50204000D01*
X82779315Y-50208093D01*
G37*
G36*
X75694685Y-47671969D02*
G01*
X75710461Y-47678934D01*
X75718222Y-47680164D01*
X75750542Y-47696632D01*
X75795541Y-47716501D01*
X75873499Y-47794459D01*
X75893370Y-47839464D01*
X75909835Y-47871777D01*
X75911063Y-47879535D01*
X75918031Y-47895315D01*
X75926000Y-47964000D01*
X75926000Y-49064000D01*
X75918031Y-49132685D01*
X75911063Y-49148464D01*
X75909835Y-49156222D01*
X75893373Y-49188528D01*
X75873499Y-49233541D01*
X75795541Y-49311499D01*
X75750528Y-49331373D01*
X75718222Y-49347835D01*
X75710464Y-49349063D01*
X75694685Y-49356031D01*
X75626000Y-49364000D01*
X73726000Y-49364000D01*
X73657315Y-49356031D01*
X73641535Y-49349063D01*
X73633777Y-49347835D01*
X73601464Y-49331370D01*
X73556459Y-49311499D01*
X73478501Y-49233541D01*
X73458632Y-49188542D01*
X73442164Y-49156222D01*
X73440934Y-49148461D01*
X73433969Y-49132685D01*
X73426000Y-49064000D01*
X73426000Y-47964000D01*
X73433969Y-47895315D01*
X73440934Y-47879539D01*
X73442164Y-47871777D01*
X73458635Y-47839449D01*
X73478501Y-47794459D01*
X73556459Y-47716501D01*
X73601449Y-47696635D01*
X73633777Y-47680164D01*
X73641539Y-47678934D01*
X73657315Y-47671969D01*
X73726000Y-47664000D01*
X75626000Y-47664000D01*
X75694685Y-47671969D01*
G37*
G36*
X82779315Y-47668093D02*
G01*
X82942742Y-47700601D01*
X83096687Y-47764367D01*
X83235234Y-47856941D01*
X83353059Y-47974766D01*
X83445633Y-48113313D01*
X83509399Y-48267258D01*
X83541907Y-48430685D01*
X83541907Y-48597315D01*
X83509399Y-48760742D01*
X83445633Y-48914687D01*
X83353059Y-49053234D01*
X83235234Y-49171059D01*
X83096687Y-49263633D01*
X82942742Y-49327399D01*
X82779315Y-49359907D01*
X82696000Y-49364000D01*
X82692940Y-49364000D01*
X81899060Y-49364000D01*
X81896000Y-49364000D01*
X81812685Y-49359907D01*
X81649258Y-49327399D01*
X81495313Y-49263633D01*
X81356766Y-49171059D01*
X81238941Y-49053234D01*
X81146367Y-48914687D01*
X81082601Y-48760742D01*
X81050093Y-48597315D01*
X81050093Y-48430685D01*
X81082601Y-48267258D01*
X81146367Y-48113313D01*
X81238941Y-47974766D01*
X81356766Y-47856941D01*
X81495313Y-47764367D01*
X81649258Y-47700601D01*
X81812685Y-47668093D01*
X81896000Y-47664000D01*
X82696000Y-47664000D01*
X82779315Y-47668093D01*
G37*
G36*
X90924742Y-47700601D02*
G01*
X91078687Y-47764367D01*
X91217234Y-47856941D01*
X91335059Y-47974766D01*
X91427633Y-48113313D01*
X91491399Y-48267258D01*
X91523907Y-48430685D01*
X91523907Y-48597315D01*
X91491399Y-48760742D01*
X91427633Y-48914687D01*
X91335059Y-49053234D01*
X91217234Y-49171059D01*
X91078687Y-49263633D01*
X90924742Y-49327399D01*
X90761315Y-49359907D01*
X90594685Y-49359907D01*
X90431258Y-49327399D01*
X90277313Y-49263633D01*
X90138766Y-49171059D01*
X90020941Y-49053234D01*
X89928367Y-48914687D01*
X89864601Y-48760742D01*
X89832093Y-48597315D01*
X89832093Y-48430685D01*
X89864601Y-48267258D01*
X89928367Y-48113313D01*
X90020941Y-47974766D01*
X90138766Y-47856941D01*
X90277313Y-47764367D01*
X90431258Y-47700601D01*
X90594685Y-47668093D01*
X90761315Y-47668093D01*
X90924742Y-47700601D01*
G37*
G36*
X101084742Y-47700601D02*
G01*
X101238687Y-47764367D01*
X101377234Y-47856941D01*
X101495059Y-47974766D01*
X101587633Y-48113313D01*
X101651399Y-48267258D01*
X101683907Y-48430685D01*
X101683907Y-48597315D01*
X101651399Y-48760742D01*
X101587633Y-48914687D01*
X101495059Y-49053234D01*
X101377234Y-49171059D01*
X101238687Y-49263633D01*
X101084742Y-49327399D01*
X100921315Y-49359907D01*
X100754685Y-49359907D01*
X100591258Y-49327399D01*
X100437313Y-49263633D01*
X100298766Y-49171059D01*
X100180941Y-49053234D01*
X100088367Y-48914687D01*
X100024601Y-48760742D01*
X99992093Y-48597315D01*
X99992093Y-48430685D01*
X100024601Y-48267258D01*
X100088367Y-48113313D01*
X100180941Y-47974766D01*
X100298766Y-47856941D01*
X100437313Y-47764367D01*
X100591258Y-47700601D01*
X100754685Y-47668093D01*
X100921315Y-47668093D01*
X101084742Y-47700601D01*
G37*
G36*
X108211256Y-47144754D02*
G01*
X108374257Y-47212271D01*
X108520954Y-47310291D01*
X108645709Y-47435046D01*
X108743729Y-47581743D01*
X108811246Y-47744744D01*
X108845666Y-47917785D01*
X108845666Y-48094215D01*
X108811246Y-48267256D01*
X108743729Y-48430257D01*
X108645709Y-48576954D01*
X108520954Y-48701709D01*
X108374257Y-48799729D01*
X108211256Y-48867246D01*
X108038215Y-48901666D01*
X107861785Y-48901666D01*
X107688744Y-48867246D01*
X107525743Y-48799729D01*
X107379046Y-48701709D01*
X107254291Y-48576954D01*
X107156271Y-48430257D01*
X107088754Y-48267256D01*
X107054334Y-48094215D01*
X107054334Y-47917785D01*
X107088754Y-47744744D01*
X107156271Y-47581743D01*
X107254291Y-47435046D01*
X107379046Y-47310291D01*
X107525743Y-47212271D01*
X107688744Y-47144754D01*
X107861785Y-47110334D01*
X108038215Y-47110334D01*
X108211256Y-47144754D01*
G37*
G36*
X63929199Y-43562272D02*
G01*
X64207167Y-43636754D01*
X64473035Y-43746880D01*
X64722255Y-43890767D01*
X64950561Y-44065952D01*
X65154048Y-44269439D01*
X65329233Y-44497745D01*
X65473120Y-44746965D01*
X65583246Y-45012833D01*
X65657728Y-45290801D01*
X65695290Y-45576113D01*
X65695290Y-45863887D01*
X65657728Y-46149199D01*
X65583246Y-46427167D01*
X65473120Y-46693035D01*
X65329233Y-46942255D01*
X65154048Y-47170561D01*
X64950561Y-47374048D01*
X64722255Y-47549233D01*
X64473035Y-47693120D01*
X64207167Y-47803246D01*
X63929199Y-47877728D01*
X63643887Y-47915290D01*
X63356113Y-47915290D01*
X63070801Y-47877728D01*
X62792833Y-47803246D01*
X62526965Y-47693120D01*
X62277745Y-47549233D01*
X62049439Y-47374048D01*
X61845952Y-47170561D01*
X61670767Y-46942255D01*
X61526880Y-46693035D01*
X61416754Y-46427167D01*
X61342272Y-46149199D01*
X61304710Y-45863887D01*
X61304710Y-45576113D01*
X61342272Y-45290801D01*
X61416754Y-45012833D01*
X61526880Y-44746965D01*
X61670767Y-44497745D01*
X61845952Y-44269439D01*
X62049439Y-44065952D01*
X62277745Y-43890767D01*
X62526965Y-43746880D01*
X62792833Y-43636754D01*
X63070801Y-43562272D01*
X63356113Y-43524710D01*
X63643887Y-43524710D01*
X63929199Y-43562272D01*
G37*
G36*
X108819134Y-44569806D02*
G01*
X108835355Y-44580645D01*
X108846194Y-44596866D01*
X108850000Y-44616000D01*
X108850000Y-46316000D01*
X108846194Y-46335134D01*
X108835355Y-46351355D01*
X108819134Y-46362194D01*
X108800000Y-46366000D01*
X107100000Y-46366000D01*
X107080866Y-46362194D01*
X107064645Y-46351355D01*
X107053806Y-46335134D01*
X107050000Y-46316000D01*
X107050000Y-44616000D01*
X107053806Y-44596866D01*
X107064645Y-44580645D01*
X107080866Y-44569806D01*
X107100000Y-44566000D01*
X108800000Y-44566000D01*
X108819134Y-44569806D01*
G37*
G36*
X70096742Y-44398601D02*
G01*
X70250687Y-44462367D01*
X70389234Y-44554941D01*
X70507059Y-44672766D01*
X70599633Y-44811313D01*
X70663399Y-44965258D01*
X70695907Y-45128685D01*
X70695907Y-45295315D01*
X70663399Y-45458742D01*
X70599633Y-45612687D01*
X70507059Y-45751234D01*
X70389234Y-45869059D01*
X70250687Y-45961633D01*
X70096742Y-46025399D01*
X69933315Y-46057907D01*
X69766685Y-46057907D01*
X69603258Y-46025399D01*
X69449313Y-45961633D01*
X69310766Y-45869059D01*
X69192941Y-45751234D01*
X69100367Y-45612687D01*
X69036601Y-45458742D01*
X69004093Y-45295315D01*
X69004093Y-45128685D01*
X69036601Y-44965258D01*
X69100367Y-44811313D01*
X69192941Y-44672766D01*
X69310766Y-44554941D01*
X69449313Y-44462367D01*
X69603258Y-44398601D01*
X69766685Y-44366093D01*
X69933315Y-44366093D01*
X70096742Y-44398601D01*
G37*
G36*
X90924742Y-44144601D02*
G01*
X91078687Y-44208367D01*
X91217234Y-44300941D01*
X91335059Y-44418766D01*
X91427633Y-44557313D01*
X91491399Y-44711258D01*
X91523907Y-44874685D01*
X91523907Y-45041315D01*
X91491399Y-45204742D01*
X91427633Y-45358687D01*
X91335059Y-45497234D01*
X91217234Y-45615059D01*
X91078687Y-45707633D01*
X90924742Y-45771399D01*
X90761315Y-45803907D01*
X90594685Y-45803907D01*
X90431258Y-45771399D01*
X90277313Y-45707633D01*
X90138766Y-45615059D01*
X90020941Y-45497234D01*
X89928367Y-45358687D01*
X89864601Y-45204742D01*
X89832093Y-45041315D01*
X89832093Y-44874685D01*
X89864601Y-44711258D01*
X89928367Y-44557313D01*
X90020941Y-44418766D01*
X90138766Y-44300941D01*
X90277313Y-44208367D01*
X90431258Y-44144601D01*
X90594685Y-44112093D01*
X90761315Y-44112093D01*
X90924742Y-44144601D01*
G37*
G36*
X101084742Y-44144601D02*
G01*
X101238687Y-44208367D01*
X101377234Y-44300941D01*
X101495059Y-44418766D01*
X101587633Y-44557313D01*
X101651399Y-44711258D01*
X101683907Y-44874685D01*
X101683907Y-45041315D01*
X101651399Y-45204742D01*
X101587633Y-45358687D01*
X101495059Y-45497234D01*
X101377234Y-45615059D01*
X101238687Y-45707633D01*
X101084742Y-45771399D01*
X100921315Y-45803907D01*
X100754685Y-45803907D01*
X100591258Y-45771399D01*
X100437313Y-45707633D01*
X100298766Y-45615059D01*
X100180941Y-45497234D01*
X100088367Y-45358687D01*
X100024601Y-45204742D01*
X99992093Y-45041315D01*
X99992093Y-44874685D01*
X100024601Y-44711258D01*
X100088367Y-44557313D01*
X100180941Y-44418766D01*
X100298766Y-44300941D01*
X100437313Y-44208367D01*
X100591258Y-44144601D01*
X100754685Y-44112093D01*
X100921315Y-44112093D01*
X101084742Y-44144601D01*
G37*
G36*
X129969199Y-39752272D02*
G01*
X130247167Y-39826754D01*
X130513035Y-39936880D01*
X130762255Y-40080767D01*
X130990561Y-40255952D01*
X131194048Y-40459439D01*
X131369233Y-40687745D01*
X131513120Y-40936965D01*
X131623246Y-41202833D01*
X131697728Y-41480801D01*
X131735290Y-41766113D01*
X131735290Y-42053887D01*
X131697728Y-42339199D01*
X131623246Y-42617167D01*
X131513120Y-42883035D01*
X131369233Y-43132255D01*
X131194048Y-43360561D01*
X130990561Y-43564048D01*
X130762255Y-43739233D01*
X130513035Y-43883120D01*
X130247167Y-43993246D01*
X129969199Y-44067728D01*
X129683887Y-44105290D01*
X129396113Y-44105290D01*
X129110801Y-44067728D01*
X128832833Y-43993246D01*
X128566965Y-43883120D01*
X128317745Y-43739233D01*
X128089439Y-43564048D01*
X127885952Y-43360561D01*
X127710767Y-43132255D01*
X127566880Y-42883035D01*
X127456754Y-42617167D01*
X127382272Y-42339199D01*
X127344710Y-42053887D01*
X127344710Y-41766113D01*
X127382272Y-41480801D01*
X127456754Y-41202833D01*
X127566880Y-40936965D01*
X127710767Y-40687745D01*
X127885952Y-40459439D01*
X128089439Y-40255952D01*
X128317745Y-40080767D01*
X128566965Y-39936880D01*
X128832833Y-39826754D01*
X129110801Y-39752272D01*
X129396113Y-39714710D01*
X129683887Y-39714710D01*
X129969199Y-39752272D01*
G37*
G36*
X74922742Y-40080601D02*
G01*
X75076687Y-40144367D01*
X75215234Y-40236941D01*
X75333059Y-40354766D01*
X75425633Y-40493313D01*
X75489399Y-40647258D01*
X75521907Y-40810685D01*
X75521907Y-40977315D01*
X75489399Y-41140742D01*
X75425633Y-41294687D01*
X75333059Y-41433234D01*
X75215234Y-41551059D01*
X75076687Y-41643633D01*
X74922742Y-41707399D01*
X74759315Y-41739907D01*
X74592685Y-41739907D01*
X74429258Y-41707399D01*
X74275313Y-41643633D01*
X74136766Y-41551059D01*
X74018941Y-41433234D01*
X73926367Y-41294687D01*
X73862601Y-41140742D01*
X73830093Y-40977315D01*
X73830093Y-40810685D01*
X73862601Y-40647258D01*
X73926367Y-40493313D01*
X74018941Y-40354766D01*
X74136766Y-40236941D01*
X74275313Y-40144367D01*
X74429258Y-40080601D01*
X74592685Y-40048093D01*
X74759315Y-40048093D01*
X74922742Y-40080601D01*
G37*
G36*
X77462742Y-40080601D02*
G01*
X77616687Y-40144367D01*
X77755234Y-40236941D01*
X77873059Y-40354766D01*
X77965633Y-40493313D01*
X78029399Y-40647258D01*
X78061907Y-40810685D01*
X78061907Y-40977315D01*
X78029399Y-41140742D01*
X77965633Y-41294687D01*
X77873059Y-41433234D01*
X77755234Y-41551059D01*
X77616687Y-41643633D01*
X77462742Y-41707399D01*
X77299315Y-41739907D01*
X77132685Y-41739907D01*
X76969258Y-41707399D01*
X76815313Y-41643633D01*
X76676766Y-41551059D01*
X76558941Y-41433234D01*
X76466367Y-41294687D01*
X76402601Y-41140742D01*
X76370093Y-40977315D01*
X76370093Y-40810685D01*
X76402601Y-40647258D01*
X76466367Y-40493313D01*
X76558941Y-40354766D01*
X76676766Y-40236941D01*
X76815313Y-40144367D01*
X76969258Y-40080601D01*
X77132685Y-40048093D01*
X77299315Y-40048093D01*
X77462742Y-40080601D01*
G37*
G36*
X80002742Y-40080601D02*
G01*
X80156687Y-40144367D01*
X80295234Y-40236941D01*
X80413059Y-40354766D01*
X80505633Y-40493313D01*
X80569399Y-40647258D01*
X80601907Y-40810685D01*
X80601907Y-40977315D01*
X80569399Y-41140742D01*
X80505633Y-41294687D01*
X80413059Y-41433234D01*
X80295234Y-41551059D01*
X80156687Y-41643633D01*
X80002742Y-41707399D01*
X79839315Y-41739907D01*
X79672685Y-41739907D01*
X79509258Y-41707399D01*
X79355313Y-41643633D01*
X79216766Y-41551059D01*
X79098941Y-41433234D01*
X79006367Y-41294687D01*
X78942601Y-41140742D01*
X78910093Y-40977315D01*
X78910093Y-40810685D01*
X78942601Y-40647258D01*
X79006367Y-40493313D01*
X79098941Y-40354766D01*
X79216766Y-40236941D01*
X79355313Y-40144367D01*
X79509258Y-40080601D01*
X79672685Y-40048093D01*
X79839315Y-40048093D01*
X80002742Y-40080601D01*
G37*
G36*
X82542742Y-40080601D02*
G01*
X82696687Y-40144367D01*
X82835234Y-40236941D01*
X82953059Y-40354766D01*
X83045633Y-40493313D01*
X83109399Y-40647258D01*
X83141907Y-40810685D01*
X83141907Y-40977315D01*
X83109399Y-41140742D01*
X83045633Y-41294687D01*
X82953059Y-41433234D01*
X82835234Y-41551059D01*
X82696687Y-41643633D01*
X82542742Y-41707399D01*
X82379315Y-41739907D01*
X82212685Y-41739907D01*
X82049258Y-41707399D01*
X81895313Y-41643633D01*
X81756766Y-41551059D01*
X81638941Y-41433234D01*
X81546367Y-41294687D01*
X81482601Y-41140742D01*
X81450093Y-40977315D01*
X81450093Y-40810685D01*
X81482601Y-40647258D01*
X81546367Y-40493313D01*
X81638941Y-40354766D01*
X81756766Y-40236941D01*
X81895313Y-40144367D01*
X82049258Y-40080601D01*
X82212685Y-40048093D01*
X82379315Y-40048093D01*
X82542742Y-40080601D01*
G37*
M02*
