%TF.GenerationSoftware,KiCad,Pcbnew,8.0.1*%
%TF.CreationDate,2025-05-23T10:34:09+02:00*%
%TF.ProjectId,Regul_Temp_L432KC,52656775-6c5f-4546-956d-705f4c343332,rev?*%
%TF.SameCoordinates,Original*%
%TF.FileFunction,Legend,Top*%
%TF.FilePolarity,Positive*%
%FSLAX46Y46*%
G04 Gerber Fmt 4.6, Leading zero omitted, Abs format (unit mm)*
G04 Created by KiCad (PCBNEW 8.0.1) date 2025-05-23 10:34:09*
%MOMM*%
%LPD*%
G01*
G04 APERTURE LIST*
%ADD10C,0.200000*%
%ADD11C,0.100000*%
%ADD12C,0.150000*%
%ADD13C,0.120000*%
%ADD14C,0.000000*%
%ADD15C,0.127000*%
G04 APERTURE END LIST*
D10*
X191389000Y-123825000D02*
X219329000Y-123825000D01*
X219329000Y-151765000D01*
X191389000Y-151765000D01*
X191389000Y-123825000D01*
D11*
X193770476Y-86994419D02*
X193770476Y-85994419D01*
X193770476Y-85994419D02*
X194103809Y-86708704D01*
X194103809Y-86708704D02*
X194437142Y-85994419D01*
X194437142Y-85994419D02*
X194437142Y-86994419D01*
X195103809Y-85994419D02*
X195294285Y-85994419D01*
X195294285Y-85994419D02*
X195389523Y-86042038D01*
X195389523Y-86042038D02*
X195484761Y-86137276D01*
X195484761Y-86137276D02*
X195532380Y-86327752D01*
X195532380Y-86327752D02*
X195532380Y-86661085D01*
X195532380Y-86661085D02*
X195484761Y-86851561D01*
X195484761Y-86851561D02*
X195389523Y-86946800D01*
X195389523Y-86946800D02*
X195294285Y-86994419D01*
X195294285Y-86994419D02*
X195103809Y-86994419D01*
X195103809Y-86994419D02*
X195008571Y-86946800D01*
X195008571Y-86946800D02*
X194913333Y-86851561D01*
X194913333Y-86851561D02*
X194865714Y-86661085D01*
X194865714Y-86661085D02*
X194865714Y-86327752D01*
X194865714Y-86327752D02*
X194913333Y-86137276D01*
X194913333Y-86137276D02*
X195008571Y-86042038D01*
X195008571Y-86042038D02*
X195103809Y-85994419D01*
X195960952Y-86994419D02*
X195960952Y-85994419D01*
X195960952Y-85994419D02*
X196199047Y-85994419D01*
X196199047Y-85994419D02*
X196341904Y-86042038D01*
X196341904Y-86042038D02*
X196437142Y-86137276D01*
X196437142Y-86137276D02*
X196484761Y-86232514D01*
X196484761Y-86232514D02*
X196532380Y-86422990D01*
X196532380Y-86422990D02*
X196532380Y-86565847D01*
X196532380Y-86565847D02*
X196484761Y-86756323D01*
X196484761Y-86756323D02*
X196437142Y-86851561D01*
X196437142Y-86851561D02*
X196341904Y-86946800D01*
X196341904Y-86946800D02*
X196199047Y-86994419D01*
X196199047Y-86994419D02*
X195960952Y-86994419D01*
X196960952Y-86470609D02*
X197294285Y-86470609D01*
X197437142Y-86994419D02*
X196960952Y-86994419D01*
X196960952Y-86994419D02*
X196960952Y-85994419D01*
X196960952Y-85994419D02*
X197437142Y-85994419D01*
X212669619Y-149240419D02*
X212860095Y-149240419D01*
X212860095Y-149240419D02*
X212955333Y-149288038D01*
X212955333Y-149288038D02*
X213050571Y-149383276D01*
X213050571Y-149383276D02*
X213098190Y-149573752D01*
X213098190Y-149573752D02*
X213098190Y-149907085D01*
X213098190Y-149907085D02*
X213050571Y-150097561D01*
X213050571Y-150097561D02*
X212955333Y-150192800D01*
X212955333Y-150192800D02*
X212860095Y-150240419D01*
X212860095Y-150240419D02*
X212669619Y-150240419D01*
X212669619Y-150240419D02*
X212574381Y-150192800D01*
X212574381Y-150192800D02*
X212479143Y-150097561D01*
X212479143Y-150097561D02*
X212431524Y-149907085D01*
X212431524Y-149907085D02*
X212431524Y-149573752D01*
X212431524Y-149573752D02*
X212479143Y-149383276D01*
X212479143Y-149383276D02*
X212574381Y-149288038D01*
X212574381Y-149288038D02*
X212669619Y-149240419D01*
X214002952Y-150240419D02*
X213526762Y-150240419D01*
X213526762Y-150240419D02*
X213526762Y-149240419D01*
X214336286Y-149716609D02*
X214669619Y-149716609D01*
X214812476Y-150240419D02*
X214336286Y-150240419D01*
X214336286Y-150240419D02*
X214336286Y-149240419D01*
X214336286Y-149240419D02*
X214812476Y-149240419D01*
X215241048Y-150240419D02*
X215241048Y-149240419D01*
X215241048Y-149240419D02*
X215479143Y-149240419D01*
X215479143Y-149240419D02*
X215622000Y-149288038D01*
X215622000Y-149288038D02*
X215717238Y-149383276D01*
X215717238Y-149383276D02*
X215764857Y-149478514D01*
X215764857Y-149478514D02*
X215812476Y-149668990D01*
X215812476Y-149668990D02*
X215812476Y-149811847D01*
X215812476Y-149811847D02*
X215764857Y-150002323D01*
X215764857Y-150002323D02*
X215717238Y-150097561D01*
X215717238Y-150097561D02*
X215622000Y-150192800D01*
X215622000Y-150192800D02*
X215479143Y-150240419D01*
X215479143Y-150240419D02*
X215241048Y-150240419D01*
X180117180Y-131960571D02*
X180164800Y-132008190D01*
X180164800Y-132008190D02*
X180212419Y-132151047D01*
X180212419Y-132151047D02*
X180212419Y-132246285D01*
X180212419Y-132246285D02*
X180164800Y-132389142D01*
X180164800Y-132389142D02*
X180069561Y-132484380D01*
X180069561Y-132484380D02*
X179974323Y-132531999D01*
X179974323Y-132531999D02*
X179783847Y-132579618D01*
X179783847Y-132579618D02*
X179640990Y-132579618D01*
X179640990Y-132579618D02*
X179450514Y-132531999D01*
X179450514Y-132531999D02*
X179355276Y-132484380D01*
X179355276Y-132484380D02*
X179260038Y-132389142D01*
X179260038Y-132389142D02*
X179212419Y-132246285D01*
X179212419Y-132246285D02*
X179212419Y-132151047D01*
X179212419Y-132151047D02*
X179260038Y-132008190D01*
X179260038Y-132008190D02*
X179307657Y-131960571D01*
X179212419Y-131341523D02*
X179212419Y-131151047D01*
X179212419Y-131151047D02*
X179260038Y-131055809D01*
X179260038Y-131055809D02*
X179355276Y-130960571D01*
X179355276Y-130960571D02*
X179545752Y-130912952D01*
X179545752Y-130912952D02*
X179879085Y-130912952D01*
X179879085Y-130912952D02*
X180069561Y-130960571D01*
X180069561Y-130960571D02*
X180164800Y-131055809D01*
X180164800Y-131055809D02*
X180212419Y-131151047D01*
X180212419Y-131151047D02*
X180212419Y-131341523D01*
X180212419Y-131341523D02*
X180164800Y-131436761D01*
X180164800Y-131436761D02*
X180069561Y-131531999D01*
X180069561Y-131531999D02*
X179879085Y-131579618D01*
X179879085Y-131579618D02*
X179545752Y-131579618D01*
X179545752Y-131579618D02*
X179355276Y-131531999D01*
X179355276Y-131531999D02*
X179260038Y-131436761D01*
X179260038Y-131436761D02*
X179212419Y-131341523D01*
X180212419Y-130484380D02*
X179212419Y-130484380D01*
X179212419Y-130484380D02*
X180212419Y-129912952D01*
X180212419Y-129912952D02*
X179212419Y-129912952D01*
X180164800Y-129484380D02*
X180212419Y-129341523D01*
X180212419Y-129341523D02*
X180212419Y-129103428D01*
X180212419Y-129103428D02*
X180164800Y-129008190D01*
X180164800Y-129008190D02*
X180117180Y-128960571D01*
X180117180Y-128960571D02*
X180021942Y-128912952D01*
X180021942Y-128912952D02*
X179926704Y-128912952D01*
X179926704Y-128912952D02*
X179831466Y-128960571D01*
X179831466Y-128960571D02*
X179783847Y-129008190D01*
X179783847Y-129008190D02*
X179736228Y-129103428D01*
X179736228Y-129103428D02*
X179688609Y-129293904D01*
X179688609Y-129293904D02*
X179640990Y-129389142D01*
X179640990Y-129389142D02*
X179593371Y-129436761D01*
X179593371Y-129436761D02*
X179498133Y-129484380D01*
X179498133Y-129484380D02*
X179402895Y-129484380D01*
X179402895Y-129484380D02*
X179307657Y-129436761D01*
X179307657Y-129436761D02*
X179260038Y-129389142D01*
X179260038Y-129389142D02*
X179212419Y-129293904D01*
X179212419Y-129293904D02*
X179212419Y-129055809D01*
X179212419Y-129055809D02*
X179260038Y-128912952D01*
X180212419Y-128484380D02*
X179212419Y-128484380D01*
X179260038Y-127484381D02*
X179212419Y-127579619D01*
X179212419Y-127579619D02*
X179212419Y-127722476D01*
X179212419Y-127722476D02*
X179260038Y-127865333D01*
X179260038Y-127865333D02*
X179355276Y-127960571D01*
X179355276Y-127960571D02*
X179450514Y-128008190D01*
X179450514Y-128008190D02*
X179640990Y-128055809D01*
X179640990Y-128055809D02*
X179783847Y-128055809D01*
X179783847Y-128055809D02*
X179974323Y-128008190D01*
X179974323Y-128008190D02*
X180069561Y-127960571D01*
X180069561Y-127960571D02*
X180164800Y-127865333D01*
X180164800Y-127865333D02*
X180212419Y-127722476D01*
X180212419Y-127722476D02*
X180212419Y-127627238D01*
X180212419Y-127627238D02*
X180164800Y-127484381D01*
X180164800Y-127484381D02*
X180117180Y-127436762D01*
X180117180Y-127436762D02*
X179783847Y-127436762D01*
X179783847Y-127436762D02*
X179783847Y-127627238D01*
X180212419Y-127008190D02*
X179212419Y-127008190D01*
X179212419Y-127008190D02*
X180212419Y-126436762D01*
X180212419Y-126436762D02*
X179212419Y-126436762D01*
X179688609Y-125960571D02*
X179688609Y-125627238D01*
X180212419Y-125484381D02*
X180212419Y-125960571D01*
X180212419Y-125960571D02*
X179212419Y-125960571D01*
X179212419Y-125960571D02*
X179212419Y-125484381D01*
X248340857Y-87756419D02*
X248340857Y-86756419D01*
X248340857Y-86756419D02*
X248674190Y-87470704D01*
X248674190Y-87470704D02*
X249007523Y-86756419D01*
X249007523Y-86756419D02*
X249007523Y-87756419D01*
X249864666Y-87708800D02*
X249769428Y-87756419D01*
X249769428Y-87756419D02*
X249578952Y-87756419D01*
X249578952Y-87756419D02*
X249483714Y-87708800D01*
X249483714Y-87708800D02*
X249436095Y-87613561D01*
X249436095Y-87613561D02*
X249436095Y-87232609D01*
X249436095Y-87232609D02*
X249483714Y-87137371D01*
X249483714Y-87137371D02*
X249578952Y-87089752D01*
X249578952Y-87089752D02*
X249769428Y-87089752D01*
X249769428Y-87089752D02*
X249864666Y-87137371D01*
X249864666Y-87137371D02*
X249912285Y-87232609D01*
X249912285Y-87232609D02*
X249912285Y-87327847D01*
X249912285Y-87327847D02*
X249436095Y-87423085D01*
X250293238Y-87708800D02*
X250388476Y-87756419D01*
X250388476Y-87756419D02*
X250578952Y-87756419D01*
X250578952Y-87756419D02*
X250674190Y-87708800D01*
X250674190Y-87708800D02*
X250721809Y-87613561D01*
X250721809Y-87613561D02*
X250721809Y-87565942D01*
X250721809Y-87565942D02*
X250674190Y-87470704D01*
X250674190Y-87470704D02*
X250578952Y-87423085D01*
X250578952Y-87423085D02*
X250436095Y-87423085D01*
X250436095Y-87423085D02*
X250340857Y-87375466D01*
X250340857Y-87375466D02*
X250293238Y-87280228D01*
X250293238Y-87280228D02*
X250293238Y-87232609D01*
X250293238Y-87232609D02*
X250340857Y-87137371D01*
X250340857Y-87137371D02*
X250436095Y-87089752D01*
X250436095Y-87089752D02*
X250578952Y-87089752D01*
X250578952Y-87089752D02*
X250674190Y-87137371D01*
X251578952Y-87089752D02*
X251578952Y-87756419D01*
X251150381Y-87089752D02*
X251150381Y-87613561D01*
X251150381Y-87613561D02*
X251198000Y-87708800D01*
X251198000Y-87708800D02*
X251293238Y-87756419D01*
X251293238Y-87756419D02*
X251436095Y-87756419D01*
X251436095Y-87756419D02*
X251531333Y-87708800D01*
X251531333Y-87708800D02*
X251578952Y-87661180D01*
X252055143Y-87756419D02*
X252055143Y-87089752D01*
X252055143Y-87280228D02*
X252102762Y-87184990D01*
X252102762Y-87184990D02*
X252150381Y-87137371D01*
X252150381Y-87137371D02*
X252245619Y-87089752D01*
X252245619Y-87089752D02*
X252340857Y-87089752D01*
X253055143Y-87708800D02*
X252959905Y-87756419D01*
X252959905Y-87756419D02*
X252769429Y-87756419D01*
X252769429Y-87756419D02*
X252674191Y-87708800D01*
X252674191Y-87708800D02*
X252626572Y-87613561D01*
X252626572Y-87613561D02*
X252626572Y-87232609D01*
X252626572Y-87232609D02*
X252674191Y-87137371D01*
X252674191Y-87137371D02*
X252769429Y-87089752D01*
X252769429Y-87089752D02*
X252959905Y-87089752D01*
X252959905Y-87089752D02*
X253055143Y-87137371D01*
X253055143Y-87137371D02*
X253102762Y-87232609D01*
X253102762Y-87232609D02*
X253102762Y-87327847D01*
X253102762Y-87327847D02*
X252626572Y-87423085D01*
X220954667Y-86550038D02*
X220888000Y-86502419D01*
X220888000Y-86502419D02*
X220788000Y-86502419D01*
X220788000Y-86502419D02*
X220688000Y-86550038D01*
X220688000Y-86550038D02*
X220621334Y-86645276D01*
X220621334Y-86645276D02*
X220588000Y-86740514D01*
X220588000Y-86740514D02*
X220554667Y-86930990D01*
X220554667Y-86930990D02*
X220554667Y-87073847D01*
X220554667Y-87073847D02*
X220588000Y-87264323D01*
X220588000Y-87264323D02*
X220621334Y-87359561D01*
X220621334Y-87359561D02*
X220688000Y-87454800D01*
X220688000Y-87454800D02*
X220788000Y-87502419D01*
X220788000Y-87502419D02*
X220854667Y-87502419D01*
X220854667Y-87502419D02*
X220954667Y-87454800D01*
X220954667Y-87454800D02*
X220988000Y-87407180D01*
X220988000Y-87407180D02*
X220988000Y-87073847D01*
X220988000Y-87073847D02*
X220854667Y-87073847D01*
X221288000Y-87502419D02*
X221288000Y-86502419D01*
X221288000Y-86502419D02*
X221688000Y-87502419D01*
X221688000Y-87502419D02*
X221688000Y-86502419D01*
X222021333Y-87502419D02*
X222021333Y-86502419D01*
X222021333Y-86502419D02*
X222188000Y-86502419D01*
X222188000Y-86502419D02*
X222288000Y-86550038D01*
X222288000Y-86550038D02*
X222354667Y-86645276D01*
X222354667Y-86645276D02*
X222388000Y-86740514D01*
X222388000Y-86740514D02*
X222421333Y-86930990D01*
X222421333Y-86930990D02*
X222421333Y-87073847D01*
X222421333Y-87073847D02*
X222388000Y-87264323D01*
X222388000Y-87264323D02*
X222354667Y-87359561D01*
X222354667Y-87359561D02*
X222288000Y-87454800D01*
X222288000Y-87454800D02*
X222188000Y-87502419D01*
X222188000Y-87502419D02*
X222021333Y-87502419D01*
X179212419Y-121991237D02*
X179212419Y-121419809D01*
X180212419Y-121705523D02*
X179212419Y-121705523D01*
X180212419Y-120515047D02*
X179736228Y-120848380D01*
X180212419Y-121086475D02*
X179212419Y-121086475D01*
X179212419Y-121086475D02*
X179212419Y-120705523D01*
X179212419Y-120705523D02*
X179260038Y-120610285D01*
X179260038Y-120610285D02*
X179307657Y-120562666D01*
X179307657Y-120562666D02*
X179402895Y-120515047D01*
X179402895Y-120515047D02*
X179545752Y-120515047D01*
X179545752Y-120515047D02*
X179640990Y-120562666D01*
X179640990Y-120562666D02*
X179688609Y-120610285D01*
X179688609Y-120610285D02*
X179736228Y-120705523D01*
X179736228Y-120705523D02*
X179736228Y-121086475D01*
X180212419Y-120086475D02*
X179212419Y-120086475D01*
X180212419Y-119610285D02*
X179212419Y-119610285D01*
X179212419Y-119610285D02*
X179926704Y-119276952D01*
X179926704Y-119276952D02*
X179212419Y-118943619D01*
X179212419Y-118943619D02*
X180212419Y-118943619D01*
X224290475Y-150962475D02*
X224290475Y-149962475D01*
X224290475Y-149962475D02*
X224671427Y-149962475D01*
X224671427Y-149962475D02*
X224766665Y-150010094D01*
X224766665Y-150010094D02*
X224814284Y-150057713D01*
X224814284Y-150057713D02*
X224861903Y-150152951D01*
X224861903Y-150152951D02*
X224861903Y-150295808D01*
X224861903Y-150295808D02*
X224814284Y-150391046D01*
X224814284Y-150391046D02*
X224766665Y-150438665D01*
X224766665Y-150438665D02*
X224671427Y-150486284D01*
X224671427Y-150486284D02*
X224290475Y-150486284D01*
X225195237Y-149962475D02*
X225433332Y-150962475D01*
X225433332Y-150962475D02*
X225623808Y-150248189D01*
X225623808Y-150248189D02*
X225814284Y-150962475D01*
X225814284Y-150962475D02*
X226052380Y-149962475D01*
X226433332Y-150962475D02*
X226433332Y-149962475D01*
X226433332Y-149962475D02*
X226766665Y-150676760D01*
X226766665Y-150676760D02*
X227099998Y-149962475D01*
X227099998Y-149962475D02*
X227099998Y-150962475D01*
X227338094Y-151057713D02*
X228099998Y-151057713D01*
X228909522Y-150867236D02*
X228861903Y-150914856D01*
X228861903Y-150914856D02*
X228719046Y-150962475D01*
X228719046Y-150962475D02*
X228623808Y-150962475D01*
X228623808Y-150962475D02*
X228480951Y-150914856D01*
X228480951Y-150914856D02*
X228385713Y-150819617D01*
X228385713Y-150819617D02*
X228338094Y-150724379D01*
X228338094Y-150724379D02*
X228290475Y-150533903D01*
X228290475Y-150533903D02*
X228290475Y-150391046D01*
X228290475Y-150391046D02*
X228338094Y-150200570D01*
X228338094Y-150200570D02*
X228385713Y-150105332D01*
X228385713Y-150105332D02*
X228480951Y-150010094D01*
X228480951Y-150010094D02*
X228623808Y-149962475D01*
X228623808Y-149962475D02*
X228719046Y-149962475D01*
X228719046Y-149962475D02*
X228861903Y-150010094D01*
X228861903Y-150010094D02*
X228909522Y-150057713D01*
X229480951Y-150962475D02*
X229385713Y-150914856D01*
X229385713Y-150914856D02*
X229338094Y-150867236D01*
X229338094Y-150867236D02*
X229290475Y-150771998D01*
X229290475Y-150771998D02*
X229290475Y-150486284D01*
X229290475Y-150486284D02*
X229338094Y-150391046D01*
X229338094Y-150391046D02*
X229385713Y-150343427D01*
X229385713Y-150343427D02*
X229480951Y-150295808D01*
X229480951Y-150295808D02*
X229623808Y-150295808D01*
X229623808Y-150295808D02*
X229719046Y-150343427D01*
X229719046Y-150343427D02*
X229766665Y-150391046D01*
X229766665Y-150391046D02*
X229814284Y-150486284D01*
X229814284Y-150486284D02*
X229814284Y-150771998D01*
X229814284Y-150771998D02*
X229766665Y-150867236D01*
X229766665Y-150867236D02*
X229719046Y-150914856D01*
X229719046Y-150914856D02*
X229623808Y-150962475D01*
X229623808Y-150962475D02*
X229480951Y-150962475D01*
X230242856Y-150295808D02*
X230242856Y-150962475D01*
X230242856Y-150391046D02*
X230290475Y-150343427D01*
X230290475Y-150343427D02*
X230385713Y-150295808D01*
X230385713Y-150295808D02*
X230528570Y-150295808D01*
X230528570Y-150295808D02*
X230623808Y-150343427D01*
X230623808Y-150343427D02*
X230671427Y-150438665D01*
X230671427Y-150438665D02*
X230671427Y-150962475D01*
X231004761Y-150295808D02*
X231385713Y-150295808D01*
X231147618Y-149962475D02*
X231147618Y-150819617D01*
X231147618Y-150819617D02*
X231195237Y-150914856D01*
X231195237Y-150914856D02*
X231290475Y-150962475D01*
X231290475Y-150962475D02*
X231385713Y-150962475D01*
X231719047Y-150962475D02*
X231719047Y-150295808D01*
X231719047Y-150486284D02*
X231766666Y-150391046D01*
X231766666Y-150391046D02*
X231814285Y-150343427D01*
X231814285Y-150343427D02*
X231909523Y-150295808D01*
X231909523Y-150295808D02*
X232004761Y-150295808D01*
X232480952Y-150962475D02*
X232385714Y-150914856D01*
X232385714Y-150914856D02*
X232338095Y-150867236D01*
X232338095Y-150867236D02*
X232290476Y-150771998D01*
X232290476Y-150771998D02*
X232290476Y-150486284D01*
X232290476Y-150486284D02*
X232338095Y-150391046D01*
X232338095Y-150391046D02*
X232385714Y-150343427D01*
X232385714Y-150343427D02*
X232480952Y-150295808D01*
X232480952Y-150295808D02*
X232623809Y-150295808D01*
X232623809Y-150295808D02*
X232719047Y-150343427D01*
X232719047Y-150343427D02*
X232766666Y-150391046D01*
X232766666Y-150391046D02*
X232814285Y-150486284D01*
X232814285Y-150486284D02*
X232814285Y-150771998D01*
X232814285Y-150771998D02*
X232766666Y-150867236D01*
X232766666Y-150867236D02*
X232719047Y-150914856D01*
X232719047Y-150914856D02*
X232623809Y-150962475D01*
X232623809Y-150962475D02*
X232480952Y-150962475D01*
X233385714Y-150962475D02*
X233290476Y-150914856D01*
X233290476Y-150914856D02*
X233242857Y-150819617D01*
X233242857Y-150819617D02*
X233242857Y-149962475D01*
X233528572Y-151057713D02*
X234290476Y-151057713D01*
X234385715Y-149962475D02*
X234957143Y-149962475D01*
X234671429Y-150962475D02*
X234671429Y-149962475D01*
X235671429Y-150914856D02*
X235576191Y-150962475D01*
X235576191Y-150962475D02*
X235385715Y-150962475D01*
X235385715Y-150962475D02*
X235290477Y-150914856D01*
X235290477Y-150914856D02*
X235242858Y-150819617D01*
X235242858Y-150819617D02*
X235242858Y-150438665D01*
X235242858Y-150438665D02*
X235290477Y-150343427D01*
X235290477Y-150343427D02*
X235385715Y-150295808D01*
X235385715Y-150295808D02*
X235576191Y-150295808D01*
X235576191Y-150295808D02*
X235671429Y-150343427D01*
X235671429Y-150343427D02*
X235719048Y-150438665D01*
X235719048Y-150438665D02*
X235719048Y-150533903D01*
X235719048Y-150533903D02*
X235242858Y-150629141D01*
X236147620Y-150962475D02*
X236147620Y-150295808D01*
X236147620Y-150391046D02*
X236195239Y-150343427D01*
X236195239Y-150343427D02*
X236290477Y-150295808D01*
X236290477Y-150295808D02*
X236433334Y-150295808D01*
X236433334Y-150295808D02*
X236528572Y-150343427D01*
X236528572Y-150343427D02*
X236576191Y-150438665D01*
X236576191Y-150438665D02*
X236576191Y-150962475D01*
X236576191Y-150438665D02*
X236623810Y-150343427D01*
X236623810Y-150343427D02*
X236719048Y-150295808D01*
X236719048Y-150295808D02*
X236861905Y-150295808D01*
X236861905Y-150295808D02*
X236957144Y-150343427D01*
X236957144Y-150343427D02*
X237004763Y-150438665D01*
X237004763Y-150438665D02*
X237004763Y-150962475D01*
X237480953Y-150295808D02*
X237480953Y-151295808D01*
X237480953Y-150343427D02*
X237576191Y-150295808D01*
X237576191Y-150295808D02*
X237766667Y-150295808D01*
X237766667Y-150295808D02*
X237861905Y-150343427D01*
X237861905Y-150343427D02*
X237909524Y-150391046D01*
X237909524Y-150391046D02*
X237957143Y-150486284D01*
X237957143Y-150486284D02*
X237957143Y-150771998D01*
X237957143Y-150771998D02*
X237909524Y-150867236D01*
X237909524Y-150867236D02*
X237861905Y-150914856D01*
X237861905Y-150914856D02*
X237766667Y-150962475D01*
X237766667Y-150962475D02*
X237576191Y-150962475D01*
X237576191Y-150962475D02*
X237480953Y-150914856D01*
X227361904Y-152572419D02*
X226885714Y-152572419D01*
X226885714Y-152572419D02*
X226885714Y-151572419D01*
X227695238Y-152048609D02*
X228028571Y-152048609D01*
X228171428Y-152572419D02*
X227695238Y-152572419D01*
X227695238Y-152572419D02*
X227695238Y-151572419D01*
X227695238Y-151572419D02*
X228171428Y-151572419D01*
X228600000Y-151905752D02*
X228600000Y-152572419D01*
X228600000Y-152000990D02*
X228647619Y-151953371D01*
X228647619Y-151953371D02*
X228742857Y-151905752D01*
X228742857Y-151905752D02*
X228885714Y-151905752D01*
X228885714Y-151905752D02*
X228980952Y-151953371D01*
X228980952Y-151953371D02*
X229028571Y-152048609D01*
X229028571Y-152048609D02*
X229028571Y-152572419D01*
X229457143Y-152524800D02*
X229552381Y-152572419D01*
X229552381Y-152572419D02*
X229742857Y-152572419D01*
X229742857Y-152572419D02*
X229838095Y-152524800D01*
X229838095Y-152524800D02*
X229885714Y-152429561D01*
X229885714Y-152429561D02*
X229885714Y-152381942D01*
X229885714Y-152381942D02*
X229838095Y-152286704D01*
X229838095Y-152286704D02*
X229742857Y-152239085D01*
X229742857Y-152239085D02*
X229600000Y-152239085D01*
X229600000Y-152239085D02*
X229504762Y-152191466D01*
X229504762Y-152191466D02*
X229457143Y-152096228D01*
X229457143Y-152096228D02*
X229457143Y-152048609D01*
X229457143Y-152048609D02*
X229504762Y-151953371D01*
X229504762Y-151953371D02*
X229600000Y-151905752D01*
X229600000Y-151905752D02*
X229742857Y-151905752D01*
X229742857Y-151905752D02*
X229838095Y-151953371D01*
X230314286Y-152048609D02*
X230647619Y-152048609D01*
X230790476Y-152572419D02*
X230314286Y-152572419D01*
X230314286Y-152572419D02*
X230314286Y-151572419D01*
X230314286Y-151572419D02*
X230790476Y-151572419D01*
X231933334Y-151667657D02*
X231980953Y-151620038D01*
X231980953Y-151620038D02*
X232076191Y-151572419D01*
X232076191Y-151572419D02*
X232314286Y-151572419D01*
X232314286Y-151572419D02*
X232409524Y-151620038D01*
X232409524Y-151620038D02*
X232457143Y-151667657D01*
X232457143Y-151667657D02*
X232504762Y-151762895D01*
X232504762Y-151762895D02*
X232504762Y-151858133D01*
X232504762Y-151858133D02*
X232457143Y-152000990D01*
X232457143Y-152000990D02*
X231885715Y-152572419D01*
X231885715Y-152572419D02*
X232504762Y-152572419D01*
X233123810Y-151572419D02*
X233219048Y-151572419D01*
X233219048Y-151572419D02*
X233314286Y-151620038D01*
X233314286Y-151620038D02*
X233361905Y-151667657D01*
X233361905Y-151667657D02*
X233409524Y-151762895D01*
X233409524Y-151762895D02*
X233457143Y-151953371D01*
X233457143Y-151953371D02*
X233457143Y-152191466D01*
X233457143Y-152191466D02*
X233409524Y-152381942D01*
X233409524Y-152381942D02*
X233361905Y-152477180D01*
X233361905Y-152477180D02*
X233314286Y-152524800D01*
X233314286Y-152524800D02*
X233219048Y-152572419D01*
X233219048Y-152572419D02*
X233123810Y-152572419D01*
X233123810Y-152572419D02*
X233028572Y-152524800D01*
X233028572Y-152524800D02*
X232980953Y-152477180D01*
X232980953Y-152477180D02*
X232933334Y-152381942D01*
X232933334Y-152381942D02*
X232885715Y-152191466D01*
X232885715Y-152191466D02*
X232885715Y-151953371D01*
X232885715Y-151953371D02*
X232933334Y-151762895D01*
X232933334Y-151762895D02*
X232980953Y-151667657D01*
X232980953Y-151667657D02*
X233028572Y-151620038D01*
X233028572Y-151620038D02*
X233123810Y-151572419D01*
X233838096Y-151667657D02*
X233885715Y-151620038D01*
X233885715Y-151620038D02*
X233980953Y-151572419D01*
X233980953Y-151572419D02*
X234219048Y-151572419D01*
X234219048Y-151572419D02*
X234314286Y-151620038D01*
X234314286Y-151620038D02*
X234361905Y-151667657D01*
X234361905Y-151667657D02*
X234409524Y-151762895D01*
X234409524Y-151762895D02*
X234409524Y-151858133D01*
X234409524Y-151858133D02*
X234361905Y-152000990D01*
X234361905Y-152000990D02*
X233790477Y-152572419D01*
X233790477Y-152572419D02*
X234409524Y-152572419D01*
X235314286Y-151572419D02*
X234838096Y-151572419D01*
X234838096Y-151572419D02*
X234790477Y-152048609D01*
X234790477Y-152048609D02*
X234838096Y-152000990D01*
X234838096Y-152000990D02*
X234933334Y-151953371D01*
X234933334Y-151953371D02*
X235171429Y-151953371D01*
X235171429Y-151953371D02*
X235266667Y-152000990D01*
X235266667Y-152000990D02*
X235314286Y-152048609D01*
X235314286Y-152048609D02*
X235361905Y-152143847D01*
X235361905Y-152143847D02*
X235361905Y-152381942D01*
X235361905Y-152381942D02*
X235314286Y-152477180D01*
X235314286Y-152477180D02*
X235266667Y-152524800D01*
X235266667Y-152524800D02*
X235171429Y-152572419D01*
X235171429Y-152572419D02*
X234933334Y-152572419D01*
X234933334Y-152572419D02*
X234838096Y-152524800D01*
X234838096Y-152524800D02*
X234790477Y-152477180D01*
X188167241Y-115408774D02*
X188167241Y-114408774D01*
X188167241Y-114408774D02*
X188738669Y-115408774D01*
X188738669Y-115408774D02*
X188738669Y-114408774D01*
X189643431Y-114742107D02*
X189643431Y-115408774D01*
X189214860Y-114742107D02*
X189214860Y-115265916D01*
X189214860Y-115265916D02*
X189262479Y-115361155D01*
X189262479Y-115361155D02*
X189357717Y-115408774D01*
X189357717Y-115408774D02*
X189500574Y-115408774D01*
X189500574Y-115408774D02*
X189595812Y-115361155D01*
X189595812Y-115361155D02*
X189643431Y-115313535D01*
X190548193Y-115361155D02*
X190452955Y-115408774D01*
X190452955Y-115408774D02*
X190262479Y-115408774D01*
X190262479Y-115408774D02*
X190167241Y-115361155D01*
X190167241Y-115361155D02*
X190119622Y-115313535D01*
X190119622Y-115313535D02*
X190072003Y-115218297D01*
X190072003Y-115218297D02*
X190072003Y-114932583D01*
X190072003Y-114932583D02*
X190119622Y-114837345D01*
X190119622Y-114837345D02*
X190167241Y-114789726D01*
X190167241Y-114789726D02*
X190262479Y-114742107D01*
X190262479Y-114742107D02*
X190452955Y-114742107D01*
X190452955Y-114742107D02*
X190548193Y-114789726D01*
X191119622Y-115408774D02*
X191024384Y-115361155D01*
X191024384Y-115361155D02*
X190976765Y-115265916D01*
X190976765Y-115265916D02*
X190976765Y-114408774D01*
X191881527Y-115361155D02*
X191786289Y-115408774D01*
X191786289Y-115408774D02*
X191595813Y-115408774D01*
X191595813Y-115408774D02*
X191500575Y-115361155D01*
X191500575Y-115361155D02*
X191452956Y-115265916D01*
X191452956Y-115265916D02*
X191452956Y-114884964D01*
X191452956Y-114884964D02*
X191500575Y-114789726D01*
X191500575Y-114789726D02*
X191595813Y-114742107D01*
X191595813Y-114742107D02*
X191786289Y-114742107D01*
X191786289Y-114742107D02*
X191881527Y-114789726D01*
X191881527Y-114789726D02*
X191929146Y-114884964D01*
X191929146Y-114884964D02*
X191929146Y-114980202D01*
X191929146Y-114980202D02*
X191452956Y-115075440D01*
X192500575Y-115408774D02*
X192405337Y-115361155D01*
X192405337Y-115361155D02*
X192357718Y-115313535D01*
X192357718Y-115313535D02*
X192310099Y-115218297D01*
X192310099Y-115218297D02*
X192310099Y-114932583D01*
X192310099Y-114932583D02*
X192357718Y-114837345D01*
X192357718Y-114837345D02*
X192405337Y-114789726D01*
X192405337Y-114789726D02*
X192500575Y-114742107D01*
X192500575Y-114742107D02*
X192643432Y-114742107D01*
X192643432Y-114742107D02*
X192738670Y-114789726D01*
X192738670Y-114789726D02*
X192786289Y-114837345D01*
X192786289Y-114837345D02*
X192833908Y-114932583D01*
X192833908Y-114932583D02*
X192833908Y-115218297D01*
X192833908Y-115218297D02*
X192786289Y-115313535D01*
X192786289Y-115313535D02*
X192738670Y-115361155D01*
X192738670Y-115361155D02*
X192643432Y-115408774D01*
X192643432Y-115408774D02*
X192500575Y-115408774D01*
X194548194Y-114456393D02*
X194452956Y-114408774D01*
X194452956Y-114408774D02*
X194310099Y-114408774D01*
X194310099Y-114408774D02*
X194167242Y-114456393D01*
X194167242Y-114456393D02*
X194072004Y-114551631D01*
X194072004Y-114551631D02*
X194024385Y-114646869D01*
X194024385Y-114646869D02*
X193976766Y-114837345D01*
X193976766Y-114837345D02*
X193976766Y-114980202D01*
X193976766Y-114980202D02*
X194024385Y-115170678D01*
X194024385Y-115170678D02*
X194072004Y-115265916D01*
X194072004Y-115265916D02*
X194167242Y-115361155D01*
X194167242Y-115361155D02*
X194310099Y-115408774D01*
X194310099Y-115408774D02*
X194405337Y-115408774D01*
X194405337Y-115408774D02*
X194548194Y-115361155D01*
X194548194Y-115361155D02*
X194595813Y-115313535D01*
X194595813Y-115313535D02*
X194595813Y-114980202D01*
X194595813Y-114980202D02*
X194405337Y-114980202D01*
X195452956Y-114742107D02*
X195452956Y-115408774D01*
X195214861Y-114361155D02*
X194976766Y-115075440D01*
X194976766Y-115075440D02*
X195595813Y-115075440D01*
X195881528Y-114408774D02*
X196500575Y-114408774D01*
X196500575Y-114408774D02*
X196167242Y-114789726D01*
X196167242Y-114789726D02*
X196310099Y-114789726D01*
X196310099Y-114789726D02*
X196405337Y-114837345D01*
X196405337Y-114837345D02*
X196452956Y-114884964D01*
X196452956Y-114884964D02*
X196500575Y-114980202D01*
X196500575Y-114980202D02*
X196500575Y-115218297D01*
X196500575Y-115218297D02*
X196452956Y-115313535D01*
X196452956Y-115313535D02*
X196405337Y-115361155D01*
X196405337Y-115361155D02*
X196310099Y-115408774D01*
X196310099Y-115408774D02*
X196024385Y-115408774D01*
X196024385Y-115408774D02*
X195929147Y-115361155D01*
X195929147Y-115361155D02*
X195881528Y-115313535D01*
X197452956Y-115408774D02*
X196881528Y-115408774D01*
X197167242Y-115408774D02*
X197167242Y-114408774D01*
X197167242Y-114408774D02*
X197072004Y-114551631D01*
X197072004Y-114551631D02*
X196976766Y-114646869D01*
X196976766Y-114646869D02*
X196881528Y-114694488D01*
X197881528Y-115408774D02*
X197881528Y-114408774D01*
X198452956Y-115408774D02*
X198024385Y-114837345D01*
X198452956Y-114408774D02*
X197881528Y-114980202D01*
X199214861Y-114884964D02*
X199357718Y-114932583D01*
X199357718Y-114932583D02*
X199405337Y-114980202D01*
X199405337Y-114980202D02*
X199452956Y-115075440D01*
X199452956Y-115075440D02*
X199452956Y-115218297D01*
X199452956Y-115218297D02*
X199405337Y-115313535D01*
X199405337Y-115313535D02*
X199357718Y-115361155D01*
X199357718Y-115361155D02*
X199262480Y-115408774D01*
X199262480Y-115408774D02*
X198881528Y-115408774D01*
X198881528Y-115408774D02*
X198881528Y-114408774D01*
X198881528Y-114408774D02*
X199214861Y-114408774D01*
X199214861Y-114408774D02*
X199310099Y-114456393D01*
X199310099Y-114456393D02*
X199357718Y-114504012D01*
X199357718Y-114504012D02*
X199405337Y-114599250D01*
X199405337Y-114599250D02*
X199405337Y-114694488D01*
X199405337Y-114694488D02*
X199357718Y-114789726D01*
X199357718Y-114789726D02*
X199310099Y-114837345D01*
X199310099Y-114837345D02*
X199214861Y-114884964D01*
X199214861Y-114884964D02*
X198881528Y-114884964D01*
X252190476Y-122570419D02*
X252523809Y-123570419D01*
X252523809Y-123570419D02*
X252857142Y-122570419D01*
X253190476Y-123570419D02*
X253190476Y-122570419D01*
X253190476Y-122570419D02*
X253523809Y-123284704D01*
X253523809Y-123284704D02*
X253857142Y-122570419D01*
X253857142Y-122570419D02*
X253857142Y-123570419D01*
X254523809Y-122570419D02*
X254714285Y-122570419D01*
X254714285Y-122570419D02*
X254809523Y-122618038D01*
X254809523Y-122618038D02*
X254904761Y-122713276D01*
X254904761Y-122713276D02*
X254952380Y-122903752D01*
X254952380Y-122903752D02*
X254952380Y-123237085D01*
X254952380Y-123237085D02*
X254904761Y-123427561D01*
X254904761Y-123427561D02*
X254809523Y-123522800D01*
X254809523Y-123522800D02*
X254714285Y-123570419D01*
X254714285Y-123570419D02*
X254523809Y-123570419D01*
X254523809Y-123570419D02*
X254428571Y-123522800D01*
X254428571Y-123522800D02*
X254333333Y-123427561D01*
X254333333Y-123427561D02*
X254285714Y-123237085D01*
X254285714Y-123237085D02*
X254285714Y-122903752D01*
X254285714Y-122903752D02*
X254333333Y-122713276D01*
X254333333Y-122713276D02*
X254428571Y-122618038D01*
X254428571Y-122618038D02*
X254523809Y-122570419D01*
X255238095Y-122570419D02*
X255809523Y-122570419D01*
X255523809Y-123570419D02*
X255523809Y-122570419D01*
X241816190Y-87232609D02*
X242149523Y-87232609D01*
X242292380Y-87756419D02*
X241816190Y-87756419D01*
X241816190Y-87756419D02*
X241816190Y-86756419D01*
X241816190Y-86756419D02*
X242292380Y-86756419D01*
X242720952Y-87756419D02*
X242720952Y-87089752D01*
X242720952Y-87280228D02*
X242768571Y-87184990D01*
X242768571Y-87184990D02*
X242816190Y-87137371D01*
X242816190Y-87137371D02*
X242911428Y-87089752D01*
X242911428Y-87089752D02*
X243006666Y-87089752D01*
X243340000Y-87756419D02*
X243340000Y-87089752D01*
X243340000Y-87280228D02*
X243387619Y-87184990D01*
X243387619Y-87184990D02*
X243435238Y-87137371D01*
X243435238Y-87137371D02*
X243530476Y-87089752D01*
X243530476Y-87089752D02*
X243625714Y-87089752D01*
X244340000Y-87708800D02*
X244244762Y-87756419D01*
X244244762Y-87756419D02*
X244054286Y-87756419D01*
X244054286Y-87756419D02*
X243959048Y-87708800D01*
X243959048Y-87708800D02*
X243911429Y-87613561D01*
X243911429Y-87613561D02*
X243911429Y-87232609D01*
X243911429Y-87232609D02*
X243959048Y-87137371D01*
X243959048Y-87137371D02*
X244054286Y-87089752D01*
X244054286Y-87089752D02*
X244244762Y-87089752D01*
X244244762Y-87089752D02*
X244340000Y-87137371D01*
X244340000Y-87137371D02*
X244387619Y-87232609D01*
X244387619Y-87232609D02*
X244387619Y-87327847D01*
X244387619Y-87327847D02*
X243911429Y-87423085D01*
X245244762Y-87089752D02*
X245244762Y-87756419D01*
X244816191Y-87089752D02*
X244816191Y-87613561D01*
X244816191Y-87613561D02*
X244863810Y-87708800D01*
X244863810Y-87708800D02*
X244959048Y-87756419D01*
X244959048Y-87756419D02*
X245101905Y-87756419D01*
X245101905Y-87756419D02*
X245197143Y-87708800D01*
X245197143Y-87708800D02*
X245244762Y-87661180D01*
X245720953Y-87756419D02*
X245720953Y-87089752D01*
X245720953Y-87280228D02*
X245768572Y-87184990D01*
X245768572Y-87184990D02*
X245816191Y-87137371D01*
X245816191Y-87137371D02*
X245911429Y-87089752D01*
X245911429Y-87089752D02*
X246006667Y-87089752D01*
X231965523Y-116220419D02*
X231489333Y-116220419D01*
X231489333Y-116220419D02*
X231441714Y-116696609D01*
X231441714Y-116696609D02*
X231489333Y-116648990D01*
X231489333Y-116648990D02*
X231584571Y-116601371D01*
X231584571Y-116601371D02*
X231822666Y-116601371D01*
X231822666Y-116601371D02*
X231917904Y-116648990D01*
X231917904Y-116648990D02*
X231965523Y-116696609D01*
X231965523Y-116696609D02*
X232013142Y-116791847D01*
X232013142Y-116791847D02*
X232013142Y-117029942D01*
X232013142Y-117029942D02*
X231965523Y-117125180D01*
X231965523Y-117125180D02*
X231917904Y-117172800D01*
X231917904Y-117172800D02*
X231822666Y-117220419D01*
X231822666Y-117220419D02*
X231584571Y-117220419D01*
X231584571Y-117220419D02*
X231489333Y-117172800D01*
X231489333Y-117172800D02*
X231441714Y-117125180D01*
X232298857Y-116220419D02*
X232632190Y-117220419D01*
X232632190Y-117220419D02*
X232965523Y-116220419D01*
X206906667Y-87502419D02*
X206906667Y-86502419D01*
X206906667Y-86502419D02*
X207173334Y-86502419D01*
X207173334Y-86502419D02*
X207240001Y-86550038D01*
X207240001Y-86550038D02*
X207273334Y-86597657D01*
X207273334Y-86597657D02*
X207306667Y-86692895D01*
X207306667Y-86692895D02*
X207306667Y-86835752D01*
X207306667Y-86835752D02*
X207273334Y-86930990D01*
X207273334Y-86930990D02*
X207240001Y-86978609D01*
X207240001Y-86978609D02*
X207173334Y-87026228D01*
X207173334Y-87026228D02*
X206906667Y-87026228D01*
X207540001Y-86502419D02*
X207706667Y-87502419D01*
X207706667Y-87502419D02*
X207840001Y-86788133D01*
X207840001Y-86788133D02*
X207973334Y-87502419D01*
X207973334Y-87502419D02*
X208140001Y-86502419D01*
X208406667Y-87502419D02*
X208406667Y-86502419D01*
X208406667Y-86502419D02*
X208640001Y-87216704D01*
X208640001Y-87216704D02*
X208873334Y-86502419D01*
X208873334Y-86502419D02*
X208873334Y-87502419D01*
X209573334Y-87502419D02*
X209173334Y-87502419D01*
X209373334Y-87502419D02*
X209373334Y-86502419D01*
X209373334Y-86502419D02*
X209306667Y-86645276D01*
X209306667Y-86645276D02*
X209240001Y-86740514D01*
X209240001Y-86740514D02*
X209173334Y-86788133D01*
X210373334Y-86454800D02*
X209773334Y-87740514D01*
X211106667Y-86597657D02*
X211140000Y-86550038D01*
X211140000Y-86550038D02*
X211206667Y-86502419D01*
X211206667Y-86502419D02*
X211373334Y-86502419D01*
X211373334Y-86502419D02*
X211440000Y-86550038D01*
X211440000Y-86550038D02*
X211473334Y-86597657D01*
X211473334Y-86597657D02*
X211506667Y-86692895D01*
X211506667Y-86692895D02*
X211506667Y-86788133D01*
X211506667Y-86788133D02*
X211473334Y-86930990D01*
X211473334Y-86930990D02*
X211073334Y-87502419D01*
X211073334Y-87502419D02*
X211506667Y-87502419D01*
X212306667Y-86454800D02*
X211706667Y-87740514D01*
X213040000Y-87454800D02*
X213140000Y-87502419D01*
X213140000Y-87502419D02*
X213306667Y-87502419D01*
X213306667Y-87502419D02*
X213373333Y-87454800D01*
X213373333Y-87454800D02*
X213406667Y-87407180D01*
X213406667Y-87407180D02*
X213440000Y-87311942D01*
X213440000Y-87311942D02*
X213440000Y-87216704D01*
X213440000Y-87216704D02*
X213406667Y-87121466D01*
X213406667Y-87121466D02*
X213373333Y-87073847D01*
X213373333Y-87073847D02*
X213306667Y-87026228D01*
X213306667Y-87026228D02*
X213173333Y-86978609D01*
X213173333Y-86978609D02*
X213106667Y-86930990D01*
X213106667Y-86930990D02*
X213073333Y-86883371D01*
X213073333Y-86883371D02*
X213040000Y-86788133D01*
X213040000Y-86788133D02*
X213040000Y-86692895D01*
X213040000Y-86692895D02*
X213073333Y-86597657D01*
X213073333Y-86597657D02*
X213106667Y-86550038D01*
X213106667Y-86550038D02*
X213173333Y-86502419D01*
X213173333Y-86502419D02*
X213340000Y-86502419D01*
X213340000Y-86502419D02*
X213440000Y-86550038D01*
X213740000Y-87502419D02*
X213740000Y-86502419D01*
X214440000Y-86550038D02*
X214373333Y-86502419D01*
X214373333Y-86502419D02*
X214273333Y-86502419D01*
X214273333Y-86502419D02*
X214173333Y-86550038D01*
X214173333Y-86550038D02*
X214106667Y-86645276D01*
X214106667Y-86645276D02*
X214073333Y-86740514D01*
X214073333Y-86740514D02*
X214040000Y-86930990D01*
X214040000Y-86930990D02*
X214040000Y-87073847D01*
X214040000Y-87073847D02*
X214073333Y-87264323D01*
X214073333Y-87264323D02*
X214106667Y-87359561D01*
X214106667Y-87359561D02*
X214173333Y-87454800D01*
X214173333Y-87454800D02*
X214273333Y-87502419D01*
X214273333Y-87502419D02*
X214340000Y-87502419D01*
X214340000Y-87502419D02*
X214440000Y-87454800D01*
X214440000Y-87454800D02*
X214473333Y-87407180D01*
X214473333Y-87407180D02*
X214473333Y-87073847D01*
X214473333Y-87073847D02*
X214340000Y-87073847D01*
X215273333Y-86454800D02*
X214673333Y-87740514D01*
X215939999Y-86502419D02*
X216339999Y-86502419D01*
X216139999Y-87502419D02*
X216139999Y-86502419D01*
X216573332Y-87502419D02*
X216573332Y-86502419D01*
X216906665Y-87502419D02*
X216906665Y-86502419D01*
X217306665Y-87502419D02*
X217006665Y-86930990D01*
X217306665Y-86502419D02*
X216906665Y-87073847D01*
X180164800Y-141183999D02*
X180212419Y-141041142D01*
X180212419Y-141041142D02*
X180212419Y-140803047D01*
X180212419Y-140803047D02*
X180164800Y-140707809D01*
X180164800Y-140707809D02*
X180117180Y-140660190D01*
X180117180Y-140660190D02*
X180021942Y-140612571D01*
X180021942Y-140612571D02*
X179926704Y-140612571D01*
X179926704Y-140612571D02*
X179831466Y-140660190D01*
X179831466Y-140660190D02*
X179783847Y-140707809D01*
X179783847Y-140707809D02*
X179736228Y-140803047D01*
X179736228Y-140803047D02*
X179688609Y-140993523D01*
X179688609Y-140993523D02*
X179640990Y-141088761D01*
X179640990Y-141088761D02*
X179593371Y-141136380D01*
X179593371Y-141136380D02*
X179498133Y-141183999D01*
X179498133Y-141183999D02*
X179402895Y-141183999D01*
X179402895Y-141183999D02*
X179307657Y-141136380D01*
X179307657Y-141136380D02*
X179260038Y-141088761D01*
X179260038Y-141088761D02*
X179212419Y-140993523D01*
X179212419Y-140993523D02*
X179212419Y-140755428D01*
X179212419Y-140755428D02*
X179260038Y-140612571D01*
X179212419Y-140279237D02*
X180212419Y-140041142D01*
X180212419Y-140041142D02*
X179498133Y-139850666D01*
X179498133Y-139850666D02*
X180212419Y-139660190D01*
X180212419Y-139660190D02*
X179212419Y-139422095D01*
X180212419Y-139041142D02*
X179212419Y-139041142D01*
X179212419Y-138707809D02*
X179212419Y-138136381D01*
X180212419Y-138422095D02*
X179212419Y-138422095D01*
X180117180Y-137231619D02*
X180164800Y-137279238D01*
X180164800Y-137279238D02*
X180212419Y-137422095D01*
X180212419Y-137422095D02*
X180212419Y-137517333D01*
X180212419Y-137517333D02*
X180164800Y-137660190D01*
X180164800Y-137660190D02*
X180069561Y-137755428D01*
X180069561Y-137755428D02*
X179974323Y-137803047D01*
X179974323Y-137803047D02*
X179783847Y-137850666D01*
X179783847Y-137850666D02*
X179640990Y-137850666D01*
X179640990Y-137850666D02*
X179450514Y-137803047D01*
X179450514Y-137803047D02*
X179355276Y-137755428D01*
X179355276Y-137755428D02*
X179260038Y-137660190D01*
X179260038Y-137660190D02*
X179212419Y-137517333D01*
X179212419Y-137517333D02*
X179212419Y-137422095D01*
X179212419Y-137422095D02*
X179260038Y-137279238D01*
X179260038Y-137279238D02*
X179307657Y-137231619D01*
X180212419Y-136803047D02*
X179212419Y-136803047D01*
X179688609Y-136803047D02*
X179688609Y-136231619D01*
X180212419Y-136231619D02*
X179212419Y-136231619D01*
X178871905Y-102996419D02*
X178871905Y-101996419D01*
X178871905Y-101996419D02*
X179205238Y-102710704D01*
X179205238Y-102710704D02*
X179538571Y-101996419D01*
X179538571Y-101996419D02*
X179538571Y-102996419D01*
X180014762Y-102472609D02*
X180348095Y-102472609D01*
X180490952Y-102996419D02*
X180014762Y-102996419D01*
X180014762Y-102996419D02*
X180014762Y-101996419D01*
X180014762Y-101996419D02*
X180490952Y-101996419D01*
X180871905Y-102948800D02*
X181014762Y-102996419D01*
X181014762Y-102996419D02*
X181252857Y-102996419D01*
X181252857Y-102996419D02*
X181348095Y-102948800D01*
X181348095Y-102948800D02*
X181395714Y-102901180D01*
X181395714Y-102901180D02*
X181443333Y-102805942D01*
X181443333Y-102805942D02*
X181443333Y-102710704D01*
X181443333Y-102710704D02*
X181395714Y-102615466D01*
X181395714Y-102615466D02*
X181348095Y-102567847D01*
X181348095Y-102567847D02*
X181252857Y-102520228D01*
X181252857Y-102520228D02*
X181062381Y-102472609D01*
X181062381Y-102472609D02*
X180967143Y-102424990D01*
X180967143Y-102424990D02*
X180919524Y-102377371D01*
X180919524Y-102377371D02*
X180871905Y-102282133D01*
X180871905Y-102282133D02*
X180871905Y-102186895D01*
X180871905Y-102186895D02*
X180919524Y-102091657D01*
X180919524Y-102091657D02*
X180967143Y-102044038D01*
X180967143Y-102044038D02*
X181062381Y-101996419D01*
X181062381Y-101996419D02*
X181300476Y-101996419D01*
X181300476Y-101996419D02*
X181443333Y-102044038D01*
X181871905Y-101996419D02*
X181871905Y-102805942D01*
X181871905Y-102805942D02*
X181919524Y-102901180D01*
X181919524Y-102901180D02*
X181967143Y-102948800D01*
X181967143Y-102948800D02*
X182062381Y-102996419D01*
X182062381Y-102996419D02*
X182252857Y-102996419D01*
X182252857Y-102996419D02*
X182348095Y-102948800D01*
X182348095Y-102948800D02*
X182395714Y-102901180D01*
X182395714Y-102901180D02*
X182443333Y-102805942D01*
X182443333Y-102805942D02*
X182443333Y-101996419D01*
X183490952Y-102996419D02*
X183157619Y-102520228D01*
X182919524Y-102996419D02*
X182919524Y-101996419D01*
X182919524Y-101996419D02*
X183300476Y-101996419D01*
X183300476Y-101996419D02*
X183395714Y-102044038D01*
X183395714Y-102044038D02*
X183443333Y-102091657D01*
X183443333Y-102091657D02*
X183490952Y-102186895D01*
X183490952Y-102186895D02*
X183490952Y-102329752D01*
X183490952Y-102329752D02*
X183443333Y-102424990D01*
X183443333Y-102424990D02*
X183395714Y-102472609D01*
X183395714Y-102472609D02*
X183300476Y-102520228D01*
X183300476Y-102520228D02*
X182919524Y-102520228D01*
X183919524Y-102472609D02*
X184252857Y-102472609D01*
X184395714Y-102996419D02*
X183919524Y-102996419D01*
X183919524Y-102996419D02*
X183919524Y-101996419D01*
X183919524Y-101996419D02*
X184395714Y-101996419D01*
D12*
X263082819Y-123523333D02*
X263797104Y-123523333D01*
X263797104Y-123523333D02*
X263939961Y-123570952D01*
X263939961Y-123570952D02*
X264035200Y-123666190D01*
X264035200Y-123666190D02*
X264082819Y-123809047D01*
X264082819Y-123809047D02*
X264082819Y-123904285D01*
X264082819Y-122999523D02*
X264082819Y-122809047D01*
X264082819Y-122809047D02*
X264035200Y-122713809D01*
X264035200Y-122713809D02*
X263987580Y-122666190D01*
X263987580Y-122666190D02*
X263844723Y-122570952D01*
X263844723Y-122570952D02*
X263654247Y-122523333D01*
X263654247Y-122523333D02*
X263273295Y-122523333D01*
X263273295Y-122523333D02*
X263178057Y-122570952D01*
X263178057Y-122570952D02*
X263130438Y-122618571D01*
X263130438Y-122618571D02*
X263082819Y-122713809D01*
X263082819Y-122713809D02*
X263082819Y-122904285D01*
X263082819Y-122904285D02*
X263130438Y-122999523D01*
X263130438Y-122999523D02*
X263178057Y-123047142D01*
X263178057Y-123047142D02*
X263273295Y-123094761D01*
X263273295Y-123094761D02*
X263511390Y-123094761D01*
X263511390Y-123094761D02*
X263606628Y-123047142D01*
X263606628Y-123047142D02*
X263654247Y-122999523D01*
X263654247Y-122999523D02*
X263701866Y-122904285D01*
X263701866Y-122904285D02*
X263701866Y-122713809D01*
X263701866Y-122713809D02*
X263654247Y-122618571D01*
X263654247Y-122618571D02*
X263606628Y-122570952D01*
X263606628Y-122570952D02*
X263511390Y-122523333D01*
X181403666Y-109920819D02*
X181403666Y-110635104D01*
X181403666Y-110635104D02*
X181356047Y-110777961D01*
X181356047Y-110777961D02*
X181260809Y-110873200D01*
X181260809Y-110873200D02*
X181117952Y-110920819D01*
X181117952Y-110920819D02*
X181022714Y-110920819D01*
X181832238Y-110016057D02*
X181879857Y-109968438D01*
X181879857Y-109968438D02*
X181975095Y-109920819D01*
X181975095Y-109920819D02*
X182213190Y-109920819D01*
X182213190Y-109920819D02*
X182308428Y-109968438D01*
X182308428Y-109968438D02*
X182356047Y-110016057D01*
X182356047Y-110016057D02*
X182403666Y-110111295D01*
X182403666Y-110111295D02*
X182403666Y-110206533D01*
X182403666Y-110206533D02*
X182356047Y-110349390D01*
X182356047Y-110349390D02*
X181784619Y-110920819D01*
X181784619Y-110920819D02*
X182403666Y-110920819D01*
X255222819Y-135476523D02*
X255937104Y-135476523D01*
X255937104Y-135476523D02*
X256079961Y-135524142D01*
X256079961Y-135524142D02*
X256175200Y-135619380D01*
X256175200Y-135619380D02*
X256222819Y-135762237D01*
X256222819Y-135762237D02*
X256222819Y-135857475D01*
X256222819Y-134476523D02*
X256222819Y-135047951D01*
X256222819Y-134762237D02*
X255222819Y-134762237D01*
X255222819Y-134762237D02*
X255365676Y-134857475D01*
X255365676Y-134857475D02*
X255460914Y-134952713D01*
X255460914Y-134952713D02*
X255508533Y-135047951D01*
X256222819Y-133524142D02*
X256222819Y-134095570D01*
X256222819Y-133809856D02*
X255222819Y-133809856D01*
X255222819Y-133809856D02*
X255365676Y-133905094D01*
X255365676Y-133905094D02*
X255460914Y-134000332D01*
X255460914Y-134000332D02*
X255508533Y-134095570D01*
X249856666Y-95212819D02*
X249856666Y-95927104D01*
X249856666Y-95927104D02*
X249809047Y-96069961D01*
X249809047Y-96069961D02*
X249713809Y-96165200D01*
X249713809Y-96165200D02*
X249570952Y-96212819D01*
X249570952Y-96212819D02*
X249475714Y-96212819D01*
X250761428Y-95212819D02*
X250570952Y-95212819D01*
X250570952Y-95212819D02*
X250475714Y-95260438D01*
X250475714Y-95260438D02*
X250428095Y-95308057D01*
X250428095Y-95308057D02*
X250332857Y-95450914D01*
X250332857Y-95450914D02*
X250285238Y-95641390D01*
X250285238Y-95641390D02*
X250285238Y-96022342D01*
X250285238Y-96022342D02*
X250332857Y-96117580D01*
X250332857Y-96117580D02*
X250380476Y-96165200D01*
X250380476Y-96165200D02*
X250475714Y-96212819D01*
X250475714Y-96212819D02*
X250666190Y-96212819D01*
X250666190Y-96212819D02*
X250761428Y-96165200D01*
X250761428Y-96165200D02*
X250809047Y-96117580D01*
X250809047Y-96117580D02*
X250856666Y-96022342D01*
X250856666Y-96022342D02*
X250856666Y-95784247D01*
X250856666Y-95784247D02*
X250809047Y-95689009D01*
X250809047Y-95689009D02*
X250761428Y-95641390D01*
X250761428Y-95641390D02*
X250666190Y-95593771D01*
X250666190Y-95593771D02*
X250475714Y-95593771D01*
X250475714Y-95593771D02*
X250380476Y-95641390D01*
X250380476Y-95641390D02*
X250332857Y-95689009D01*
X250332857Y-95689009D02*
X250285238Y-95784247D01*
X255484333Y-112171819D02*
X255151000Y-111695628D01*
X254912905Y-112171819D02*
X254912905Y-111171819D01*
X254912905Y-111171819D02*
X255293857Y-111171819D01*
X255293857Y-111171819D02*
X255389095Y-111219438D01*
X255389095Y-111219438D02*
X255436714Y-111267057D01*
X255436714Y-111267057D02*
X255484333Y-111362295D01*
X255484333Y-111362295D02*
X255484333Y-111505152D01*
X255484333Y-111505152D02*
X255436714Y-111600390D01*
X255436714Y-111600390D02*
X255389095Y-111648009D01*
X255389095Y-111648009D02*
X255293857Y-111695628D01*
X255293857Y-111695628D02*
X254912905Y-111695628D01*
X255960524Y-112171819D02*
X256151000Y-112171819D01*
X256151000Y-112171819D02*
X256246238Y-112124200D01*
X256246238Y-112124200D02*
X256293857Y-112076580D01*
X256293857Y-112076580D02*
X256389095Y-111933723D01*
X256389095Y-111933723D02*
X256436714Y-111743247D01*
X256436714Y-111743247D02*
X256436714Y-111362295D01*
X256436714Y-111362295D02*
X256389095Y-111267057D01*
X256389095Y-111267057D02*
X256341476Y-111219438D01*
X256341476Y-111219438D02*
X256246238Y-111171819D01*
X256246238Y-111171819D02*
X256055762Y-111171819D01*
X256055762Y-111171819D02*
X255960524Y-111219438D01*
X255960524Y-111219438D02*
X255912905Y-111267057D01*
X255912905Y-111267057D02*
X255865286Y-111362295D01*
X255865286Y-111362295D02*
X255865286Y-111600390D01*
X255865286Y-111600390D02*
X255912905Y-111695628D01*
X255912905Y-111695628D02*
X255960524Y-111743247D01*
X255960524Y-111743247D02*
X256055762Y-111790866D01*
X256055762Y-111790866D02*
X256246238Y-111790866D01*
X256246238Y-111790866D02*
X256341476Y-111743247D01*
X256341476Y-111743247D02*
X256389095Y-111695628D01*
X256389095Y-111695628D02*
X256436714Y-111600390D01*
X258095761Y-112485057D02*
X258000523Y-112437438D01*
X258000523Y-112437438D02*
X257905285Y-112342200D01*
X257905285Y-112342200D02*
X257762428Y-112199342D01*
X257762428Y-112199342D02*
X257667190Y-112151723D01*
X257667190Y-112151723D02*
X257571952Y-112151723D01*
X257619571Y-112389819D02*
X257524333Y-112342200D01*
X257524333Y-112342200D02*
X257429095Y-112246961D01*
X257429095Y-112246961D02*
X257381476Y-112056485D01*
X257381476Y-112056485D02*
X257381476Y-111723152D01*
X257381476Y-111723152D02*
X257429095Y-111532676D01*
X257429095Y-111532676D02*
X257524333Y-111437438D01*
X257524333Y-111437438D02*
X257619571Y-111389819D01*
X257619571Y-111389819D02*
X257810047Y-111389819D01*
X257810047Y-111389819D02*
X257905285Y-111437438D01*
X257905285Y-111437438D02*
X258000523Y-111532676D01*
X258000523Y-111532676D02*
X258048142Y-111723152D01*
X258048142Y-111723152D02*
X258048142Y-112056485D01*
X258048142Y-112056485D02*
X258000523Y-112246961D01*
X258000523Y-112246961D02*
X257905285Y-112342200D01*
X257905285Y-112342200D02*
X257810047Y-112389819D01*
X257810047Y-112389819D02*
X257619571Y-112389819D01*
X259000523Y-112389819D02*
X258429095Y-112389819D01*
X258714809Y-112389819D02*
X258714809Y-111389819D01*
X258714809Y-111389819D02*
X258619571Y-111532676D01*
X258619571Y-111532676D02*
X258524333Y-111627914D01*
X258524333Y-111627914D02*
X258429095Y-111675533D01*
X223988333Y-100573819D02*
X223655000Y-100097628D01*
X223416905Y-100573819D02*
X223416905Y-99573819D01*
X223416905Y-99573819D02*
X223797857Y-99573819D01*
X223797857Y-99573819D02*
X223893095Y-99621438D01*
X223893095Y-99621438D02*
X223940714Y-99669057D01*
X223940714Y-99669057D02*
X223988333Y-99764295D01*
X223988333Y-99764295D02*
X223988333Y-99907152D01*
X223988333Y-99907152D02*
X223940714Y-100002390D01*
X223940714Y-100002390D02*
X223893095Y-100050009D01*
X223893095Y-100050009D02*
X223797857Y-100097628D01*
X223797857Y-100097628D02*
X223416905Y-100097628D01*
X224321667Y-99573819D02*
X224940714Y-99573819D01*
X224940714Y-99573819D02*
X224607381Y-99954771D01*
X224607381Y-99954771D02*
X224750238Y-99954771D01*
X224750238Y-99954771D02*
X224845476Y-100002390D01*
X224845476Y-100002390D02*
X224893095Y-100050009D01*
X224893095Y-100050009D02*
X224940714Y-100145247D01*
X224940714Y-100145247D02*
X224940714Y-100383342D01*
X224940714Y-100383342D02*
X224893095Y-100478580D01*
X224893095Y-100478580D02*
X224845476Y-100526200D01*
X224845476Y-100526200D02*
X224750238Y-100573819D01*
X224750238Y-100573819D02*
X224464524Y-100573819D01*
X224464524Y-100573819D02*
X224369286Y-100526200D01*
X224369286Y-100526200D02*
X224321667Y-100478580D01*
X223117580Y-134856438D02*
X223165200Y-134904057D01*
X223165200Y-134904057D02*
X223212819Y-135046914D01*
X223212819Y-135046914D02*
X223212819Y-135142152D01*
X223212819Y-135142152D02*
X223165200Y-135285009D01*
X223165200Y-135285009D02*
X223069961Y-135380247D01*
X223069961Y-135380247D02*
X222974723Y-135427866D01*
X222974723Y-135427866D02*
X222784247Y-135475485D01*
X222784247Y-135475485D02*
X222641390Y-135475485D01*
X222641390Y-135475485D02*
X222450914Y-135427866D01*
X222450914Y-135427866D02*
X222355676Y-135380247D01*
X222355676Y-135380247D02*
X222260438Y-135285009D01*
X222260438Y-135285009D02*
X222212819Y-135142152D01*
X222212819Y-135142152D02*
X222212819Y-135046914D01*
X222212819Y-135046914D02*
X222260438Y-134904057D01*
X222260438Y-134904057D02*
X222308057Y-134856438D01*
X223212819Y-133904057D02*
X223212819Y-134475485D01*
X223212819Y-134189771D02*
X222212819Y-134189771D01*
X222212819Y-134189771D02*
X222355676Y-134285009D01*
X222355676Y-134285009D02*
X222450914Y-134380247D01*
X222450914Y-134380247D02*
X222498533Y-134475485D01*
X185880476Y-140805819D02*
X185880476Y-141520104D01*
X185880476Y-141520104D02*
X185832857Y-141662961D01*
X185832857Y-141662961D02*
X185737619Y-141758200D01*
X185737619Y-141758200D02*
X185594762Y-141805819D01*
X185594762Y-141805819D02*
X185499524Y-141805819D01*
X186880476Y-141805819D02*
X186309048Y-141805819D01*
X186594762Y-141805819D02*
X186594762Y-140805819D01*
X186594762Y-140805819D02*
X186499524Y-140948676D01*
X186499524Y-140948676D02*
X186404286Y-141043914D01*
X186404286Y-141043914D02*
X186309048Y-141091533D01*
X187737619Y-141139152D02*
X187737619Y-141805819D01*
X187499524Y-140758200D02*
X187261429Y-141472485D01*
X187261429Y-141472485D02*
X187880476Y-141472485D01*
X241770819Y-136905904D02*
X242580342Y-136905904D01*
X242580342Y-136905904D02*
X242675580Y-136858285D01*
X242675580Y-136858285D02*
X242723200Y-136810666D01*
X242723200Y-136810666D02*
X242770819Y-136715428D01*
X242770819Y-136715428D02*
X242770819Y-136524952D01*
X242770819Y-136524952D02*
X242723200Y-136429714D01*
X242723200Y-136429714D02*
X242675580Y-136382095D01*
X242675580Y-136382095D02*
X242580342Y-136334476D01*
X242580342Y-136334476D02*
X241770819Y-136334476D01*
X242770819Y-135334476D02*
X242770819Y-135905904D01*
X242770819Y-135620190D02*
X241770819Y-135620190D01*
X241770819Y-135620190D02*
X241913676Y-135715428D01*
X241913676Y-135715428D02*
X242008914Y-135810666D01*
X242008914Y-135810666D02*
X242056533Y-135905904D01*
X193889333Y-131264819D02*
X193556000Y-130788628D01*
X193317905Y-131264819D02*
X193317905Y-130264819D01*
X193317905Y-130264819D02*
X193698857Y-130264819D01*
X193698857Y-130264819D02*
X193794095Y-130312438D01*
X193794095Y-130312438D02*
X193841714Y-130360057D01*
X193841714Y-130360057D02*
X193889333Y-130455295D01*
X193889333Y-130455295D02*
X193889333Y-130598152D01*
X193889333Y-130598152D02*
X193841714Y-130693390D01*
X193841714Y-130693390D02*
X193794095Y-130741009D01*
X193794095Y-130741009D02*
X193698857Y-130788628D01*
X193698857Y-130788628D02*
X193317905Y-130788628D01*
X194222667Y-130264819D02*
X194889333Y-130264819D01*
X194889333Y-130264819D02*
X194460762Y-131264819D01*
X230532819Y-124816238D02*
X230056628Y-125149571D01*
X230532819Y-125387666D02*
X229532819Y-125387666D01*
X229532819Y-125387666D02*
X229532819Y-125006714D01*
X229532819Y-125006714D02*
X229580438Y-124911476D01*
X229580438Y-124911476D02*
X229628057Y-124863857D01*
X229628057Y-124863857D02*
X229723295Y-124816238D01*
X229723295Y-124816238D02*
X229866152Y-124816238D01*
X229866152Y-124816238D02*
X229961390Y-124863857D01*
X229961390Y-124863857D02*
X230009009Y-124911476D01*
X230009009Y-124911476D02*
X230056628Y-125006714D01*
X230056628Y-125006714D02*
X230056628Y-125387666D01*
X229532819Y-124530523D02*
X230532819Y-124197190D01*
X230532819Y-124197190D02*
X229532819Y-123863857D01*
X230532819Y-123006714D02*
X230532819Y-123578142D01*
X230532819Y-123292428D02*
X229532819Y-123292428D01*
X229532819Y-123292428D02*
X229675676Y-123387666D01*
X229675676Y-123387666D02*
X229770914Y-123482904D01*
X229770914Y-123482904D02*
X229818533Y-123578142D01*
X223988333Y-109123819D02*
X223655000Y-108647628D01*
X223416905Y-109123819D02*
X223416905Y-108123819D01*
X223416905Y-108123819D02*
X223797857Y-108123819D01*
X223797857Y-108123819D02*
X223893095Y-108171438D01*
X223893095Y-108171438D02*
X223940714Y-108219057D01*
X223940714Y-108219057D02*
X223988333Y-108314295D01*
X223988333Y-108314295D02*
X223988333Y-108457152D01*
X223988333Y-108457152D02*
X223940714Y-108552390D01*
X223940714Y-108552390D02*
X223893095Y-108600009D01*
X223893095Y-108600009D02*
X223797857Y-108647628D01*
X223797857Y-108647628D02*
X223416905Y-108647628D01*
X224940714Y-109123819D02*
X224369286Y-109123819D01*
X224655000Y-109123819D02*
X224655000Y-108123819D01*
X224655000Y-108123819D02*
X224559762Y-108266676D01*
X224559762Y-108266676D02*
X224464524Y-108361914D01*
X224464524Y-108361914D02*
X224369286Y-108409533D01*
X238509819Y-99440904D02*
X239319342Y-99440904D01*
X239319342Y-99440904D02*
X239414580Y-99393285D01*
X239414580Y-99393285D02*
X239462200Y-99345666D01*
X239462200Y-99345666D02*
X239509819Y-99250428D01*
X239509819Y-99250428D02*
X239509819Y-99059952D01*
X239509819Y-99059952D02*
X239462200Y-98964714D01*
X239462200Y-98964714D02*
X239414580Y-98917095D01*
X239414580Y-98917095D02*
X239319342Y-98869476D01*
X239319342Y-98869476D02*
X238509819Y-98869476D01*
X238605057Y-98440904D02*
X238557438Y-98393285D01*
X238557438Y-98393285D02*
X238509819Y-98298047D01*
X238509819Y-98298047D02*
X238509819Y-98059952D01*
X238509819Y-98059952D02*
X238557438Y-97964714D01*
X238557438Y-97964714D02*
X238605057Y-97917095D01*
X238605057Y-97917095D02*
X238700295Y-97869476D01*
X238700295Y-97869476D02*
X238795533Y-97869476D01*
X238795533Y-97869476D02*
X238938390Y-97917095D01*
X238938390Y-97917095D02*
X239509819Y-98488523D01*
X239509819Y-98488523D02*
X239509819Y-97869476D01*
X200583819Y-89512333D02*
X201298104Y-89512333D01*
X201298104Y-89512333D02*
X201440961Y-89559952D01*
X201440961Y-89559952D02*
X201536200Y-89655190D01*
X201536200Y-89655190D02*
X201583819Y-89798047D01*
X201583819Y-89798047D02*
X201583819Y-89893285D01*
X200917152Y-88607571D02*
X201583819Y-88607571D01*
X200536200Y-88845666D02*
X201250485Y-89083761D01*
X201250485Y-89083761D02*
X201250485Y-88464714D01*
X223252819Y-117173333D02*
X223967104Y-117173333D01*
X223967104Y-117173333D02*
X224109961Y-117220952D01*
X224109961Y-117220952D02*
X224205200Y-117316190D01*
X224205200Y-117316190D02*
X224252819Y-117459047D01*
X224252819Y-117459047D02*
X224252819Y-117554285D01*
X223252819Y-116792380D02*
X223252819Y-116173333D01*
X223252819Y-116173333D02*
X223633771Y-116506666D01*
X223633771Y-116506666D02*
X223633771Y-116363809D01*
X223633771Y-116363809D02*
X223681390Y-116268571D01*
X223681390Y-116268571D02*
X223729009Y-116220952D01*
X223729009Y-116220952D02*
X223824247Y-116173333D01*
X223824247Y-116173333D02*
X224062342Y-116173333D01*
X224062342Y-116173333D02*
X224157580Y-116220952D01*
X224157580Y-116220952D02*
X224205200Y-116268571D01*
X224205200Y-116268571D02*
X224252819Y-116363809D01*
X224252819Y-116363809D02*
X224252819Y-116649523D01*
X224252819Y-116649523D02*
X224205200Y-116744761D01*
X224205200Y-116744761D02*
X224157580Y-116792380D01*
X237704333Y-143626819D02*
X237371000Y-143150628D01*
X237132905Y-143626819D02*
X237132905Y-142626819D01*
X237132905Y-142626819D02*
X237513857Y-142626819D01*
X237513857Y-142626819D02*
X237609095Y-142674438D01*
X237609095Y-142674438D02*
X237656714Y-142722057D01*
X237656714Y-142722057D02*
X237704333Y-142817295D01*
X237704333Y-142817295D02*
X237704333Y-142960152D01*
X237704333Y-142960152D02*
X237656714Y-143055390D01*
X237656714Y-143055390D02*
X237609095Y-143103009D01*
X237609095Y-143103009D02*
X237513857Y-143150628D01*
X237513857Y-143150628D02*
X237132905Y-143150628D01*
X238609095Y-142626819D02*
X238132905Y-142626819D01*
X238132905Y-142626819D02*
X238085286Y-143103009D01*
X238085286Y-143103009D02*
X238132905Y-143055390D01*
X238132905Y-143055390D02*
X238228143Y-143007771D01*
X238228143Y-143007771D02*
X238466238Y-143007771D01*
X238466238Y-143007771D02*
X238561476Y-143055390D01*
X238561476Y-143055390D02*
X238609095Y-143103009D01*
X238609095Y-143103009D02*
X238656714Y-143198247D01*
X238656714Y-143198247D02*
X238656714Y-143436342D01*
X238656714Y-143436342D02*
X238609095Y-143531580D01*
X238609095Y-143531580D02*
X238561476Y-143579200D01*
X238561476Y-143579200D02*
X238466238Y-143626819D01*
X238466238Y-143626819D02*
X238228143Y-143626819D01*
X238228143Y-143626819D02*
X238132905Y-143579200D01*
X238132905Y-143579200D02*
X238085286Y-143531580D01*
X198673819Y-126825333D02*
X199388104Y-126825333D01*
X199388104Y-126825333D02*
X199530961Y-126872952D01*
X199530961Y-126872952D02*
X199626200Y-126968190D01*
X199626200Y-126968190D02*
X199673819Y-127111047D01*
X199673819Y-127111047D02*
X199673819Y-127206285D01*
X199102390Y-126206285D02*
X199054771Y-126301523D01*
X199054771Y-126301523D02*
X199007152Y-126349142D01*
X199007152Y-126349142D02*
X198911914Y-126396761D01*
X198911914Y-126396761D02*
X198864295Y-126396761D01*
X198864295Y-126396761D02*
X198769057Y-126349142D01*
X198769057Y-126349142D02*
X198721438Y-126301523D01*
X198721438Y-126301523D02*
X198673819Y-126206285D01*
X198673819Y-126206285D02*
X198673819Y-126015809D01*
X198673819Y-126015809D02*
X198721438Y-125920571D01*
X198721438Y-125920571D02*
X198769057Y-125872952D01*
X198769057Y-125872952D02*
X198864295Y-125825333D01*
X198864295Y-125825333D02*
X198911914Y-125825333D01*
X198911914Y-125825333D02*
X199007152Y-125872952D01*
X199007152Y-125872952D02*
X199054771Y-125920571D01*
X199054771Y-125920571D02*
X199102390Y-126015809D01*
X199102390Y-126015809D02*
X199102390Y-126206285D01*
X199102390Y-126206285D02*
X199150009Y-126301523D01*
X199150009Y-126301523D02*
X199197628Y-126349142D01*
X199197628Y-126349142D02*
X199292866Y-126396761D01*
X199292866Y-126396761D02*
X199483342Y-126396761D01*
X199483342Y-126396761D02*
X199578580Y-126349142D01*
X199578580Y-126349142D02*
X199626200Y-126301523D01*
X199626200Y-126301523D02*
X199673819Y-126206285D01*
X199673819Y-126206285D02*
X199673819Y-126015809D01*
X199673819Y-126015809D02*
X199626200Y-125920571D01*
X199626200Y-125920571D02*
X199578580Y-125872952D01*
X199578580Y-125872952D02*
X199483342Y-125825333D01*
X199483342Y-125825333D02*
X199292866Y-125825333D01*
X199292866Y-125825333D02*
X199197628Y-125872952D01*
X199197628Y-125872952D02*
X199150009Y-125920571D01*
X199150009Y-125920571D02*
X199102390Y-126015809D01*
X249898819Y-135683523D02*
X250613104Y-135683523D01*
X250613104Y-135683523D02*
X250755961Y-135731142D01*
X250755961Y-135731142D02*
X250851200Y-135826380D01*
X250851200Y-135826380D02*
X250898819Y-135969237D01*
X250898819Y-135969237D02*
X250898819Y-136064475D01*
X250898819Y-134683523D02*
X250898819Y-135254951D01*
X250898819Y-134969237D02*
X249898819Y-134969237D01*
X249898819Y-134969237D02*
X250041676Y-135064475D01*
X250041676Y-135064475D02*
X250136914Y-135159713D01*
X250136914Y-135159713D02*
X250184533Y-135254951D01*
X249994057Y-134302570D02*
X249946438Y-134254951D01*
X249946438Y-134254951D02*
X249898819Y-134159713D01*
X249898819Y-134159713D02*
X249898819Y-133921618D01*
X249898819Y-133921618D02*
X249946438Y-133826380D01*
X249946438Y-133826380D02*
X249994057Y-133778761D01*
X249994057Y-133778761D02*
X250089295Y-133731142D01*
X250089295Y-133731142D02*
X250184533Y-133731142D01*
X250184533Y-133731142D02*
X250327390Y-133778761D01*
X250327390Y-133778761D02*
X250898819Y-134350189D01*
X250898819Y-134350189D02*
X250898819Y-133731142D01*
X206039819Y-90503333D02*
X206754104Y-90503333D01*
X206754104Y-90503333D02*
X206896961Y-90550952D01*
X206896961Y-90550952D02*
X206992200Y-90646190D01*
X206992200Y-90646190D02*
X207039819Y-90789047D01*
X207039819Y-90789047D02*
X207039819Y-90884285D01*
X206039819Y-89550952D02*
X206039819Y-90027142D01*
X206039819Y-90027142D02*
X206516009Y-90074761D01*
X206516009Y-90074761D02*
X206468390Y-90027142D01*
X206468390Y-90027142D02*
X206420771Y-89931904D01*
X206420771Y-89931904D02*
X206420771Y-89693809D01*
X206420771Y-89693809D02*
X206468390Y-89598571D01*
X206468390Y-89598571D02*
X206516009Y-89550952D01*
X206516009Y-89550952D02*
X206611247Y-89503333D01*
X206611247Y-89503333D02*
X206849342Y-89503333D01*
X206849342Y-89503333D02*
X206944580Y-89550952D01*
X206944580Y-89550952D02*
X206992200Y-89598571D01*
X206992200Y-89598571D02*
X207039819Y-89693809D01*
X207039819Y-89693809D02*
X207039819Y-89931904D01*
X207039819Y-89931904D02*
X206992200Y-90027142D01*
X206992200Y-90027142D02*
X206944580Y-90074761D01*
X222845333Y-122290819D02*
X222512000Y-121814628D01*
X222273905Y-122290819D02*
X222273905Y-121290819D01*
X222273905Y-121290819D02*
X222654857Y-121290819D01*
X222654857Y-121290819D02*
X222750095Y-121338438D01*
X222750095Y-121338438D02*
X222797714Y-121386057D01*
X222797714Y-121386057D02*
X222845333Y-121481295D01*
X222845333Y-121481295D02*
X222845333Y-121624152D01*
X222845333Y-121624152D02*
X222797714Y-121719390D01*
X222797714Y-121719390D02*
X222750095Y-121767009D01*
X222750095Y-121767009D02*
X222654857Y-121814628D01*
X222654857Y-121814628D02*
X222273905Y-121814628D01*
X223226286Y-121386057D02*
X223273905Y-121338438D01*
X223273905Y-121338438D02*
X223369143Y-121290819D01*
X223369143Y-121290819D02*
X223607238Y-121290819D01*
X223607238Y-121290819D02*
X223702476Y-121338438D01*
X223702476Y-121338438D02*
X223750095Y-121386057D01*
X223750095Y-121386057D02*
X223797714Y-121481295D01*
X223797714Y-121481295D02*
X223797714Y-121576533D01*
X223797714Y-121576533D02*
X223750095Y-121719390D01*
X223750095Y-121719390D02*
X223178667Y-122290819D01*
X223178667Y-122290819D02*
X223797714Y-122290819D01*
X211669333Y-135328819D02*
X211336000Y-134852628D01*
X211097905Y-135328819D02*
X211097905Y-134328819D01*
X211097905Y-134328819D02*
X211478857Y-134328819D01*
X211478857Y-134328819D02*
X211574095Y-134376438D01*
X211574095Y-134376438D02*
X211621714Y-134424057D01*
X211621714Y-134424057D02*
X211669333Y-134519295D01*
X211669333Y-134519295D02*
X211669333Y-134662152D01*
X211669333Y-134662152D02*
X211621714Y-134757390D01*
X211621714Y-134757390D02*
X211574095Y-134805009D01*
X211574095Y-134805009D02*
X211478857Y-134852628D01*
X211478857Y-134852628D02*
X211097905Y-134852628D01*
X212240762Y-134757390D02*
X212145524Y-134709771D01*
X212145524Y-134709771D02*
X212097905Y-134662152D01*
X212097905Y-134662152D02*
X212050286Y-134566914D01*
X212050286Y-134566914D02*
X212050286Y-134519295D01*
X212050286Y-134519295D02*
X212097905Y-134424057D01*
X212097905Y-134424057D02*
X212145524Y-134376438D01*
X212145524Y-134376438D02*
X212240762Y-134328819D01*
X212240762Y-134328819D02*
X212431238Y-134328819D01*
X212431238Y-134328819D02*
X212526476Y-134376438D01*
X212526476Y-134376438D02*
X212574095Y-134424057D01*
X212574095Y-134424057D02*
X212621714Y-134519295D01*
X212621714Y-134519295D02*
X212621714Y-134566914D01*
X212621714Y-134566914D02*
X212574095Y-134662152D01*
X212574095Y-134662152D02*
X212526476Y-134709771D01*
X212526476Y-134709771D02*
X212431238Y-134757390D01*
X212431238Y-134757390D02*
X212240762Y-134757390D01*
X212240762Y-134757390D02*
X212145524Y-134805009D01*
X212145524Y-134805009D02*
X212097905Y-134852628D01*
X212097905Y-134852628D02*
X212050286Y-134947866D01*
X212050286Y-134947866D02*
X212050286Y-135138342D01*
X212050286Y-135138342D02*
X212097905Y-135233580D01*
X212097905Y-135233580D02*
X212145524Y-135281200D01*
X212145524Y-135281200D02*
X212240762Y-135328819D01*
X212240762Y-135328819D02*
X212431238Y-135328819D01*
X212431238Y-135328819D02*
X212526476Y-135281200D01*
X212526476Y-135281200D02*
X212574095Y-135233580D01*
X212574095Y-135233580D02*
X212621714Y-135138342D01*
X212621714Y-135138342D02*
X212621714Y-134947866D01*
X212621714Y-134947866D02*
X212574095Y-134852628D01*
X212574095Y-134852628D02*
X212526476Y-134805009D01*
X212526476Y-134805009D02*
X212431238Y-134757390D01*
X186007476Y-130264819D02*
X186007476Y-130979104D01*
X186007476Y-130979104D02*
X185959857Y-131121961D01*
X185959857Y-131121961D02*
X185864619Y-131217200D01*
X185864619Y-131217200D02*
X185721762Y-131264819D01*
X185721762Y-131264819D02*
X185626524Y-131264819D01*
X187007476Y-131264819D02*
X186436048Y-131264819D01*
X186721762Y-131264819D02*
X186721762Y-130264819D01*
X186721762Y-130264819D02*
X186626524Y-130407676D01*
X186626524Y-130407676D02*
X186531286Y-130502914D01*
X186531286Y-130502914D02*
X186436048Y-130550533D01*
X187340810Y-130264819D02*
X187959857Y-130264819D01*
X187959857Y-130264819D02*
X187626524Y-130645771D01*
X187626524Y-130645771D02*
X187769381Y-130645771D01*
X187769381Y-130645771D02*
X187864619Y-130693390D01*
X187864619Y-130693390D02*
X187912238Y-130741009D01*
X187912238Y-130741009D02*
X187959857Y-130836247D01*
X187959857Y-130836247D02*
X187959857Y-131074342D01*
X187959857Y-131074342D02*
X187912238Y-131169580D01*
X187912238Y-131169580D02*
X187864619Y-131217200D01*
X187864619Y-131217200D02*
X187769381Y-131264819D01*
X187769381Y-131264819D02*
X187483667Y-131264819D01*
X187483667Y-131264819D02*
X187388429Y-131217200D01*
X187388429Y-131217200D02*
X187340810Y-131169580D01*
X243506666Y-95466819D02*
X243506666Y-96181104D01*
X243506666Y-96181104D02*
X243459047Y-96323961D01*
X243459047Y-96323961D02*
X243363809Y-96419200D01*
X243363809Y-96419200D02*
X243220952Y-96466819D01*
X243220952Y-96466819D02*
X243125714Y-96466819D01*
X243887619Y-95466819D02*
X244554285Y-95466819D01*
X244554285Y-95466819D02*
X244125714Y-96466819D01*
X221321333Y-148366819D02*
X220988000Y-147890628D01*
X220749905Y-148366819D02*
X220749905Y-147366819D01*
X220749905Y-147366819D02*
X221130857Y-147366819D01*
X221130857Y-147366819D02*
X221226095Y-147414438D01*
X221226095Y-147414438D02*
X221273714Y-147462057D01*
X221273714Y-147462057D02*
X221321333Y-147557295D01*
X221321333Y-147557295D02*
X221321333Y-147700152D01*
X221321333Y-147700152D02*
X221273714Y-147795390D01*
X221273714Y-147795390D02*
X221226095Y-147843009D01*
X221226095Y-147843009D02*
X221130857Y-147890628D01*
X221130857Y-147890628D02*
X220749905Y-147890628D01*
X222178476Y-147366819D02*
X221988000Y-147366819D01*
X221988000Y-147366819D02*
X221892762Y-147414438D01*
X221892762Y-147414438D02*
X221845143Y-147462057D01*
X221845143Y-147462057D02*
X221749905Y-147604914D01*
X221749905Y-147604914D02*
X221702286Y-147795390D01*
X221702286Y-147795390D02*
X221702286Y-148176342D01*
X221702286Y-148176342D02*
X221749905Y-148271580D01*
X221749905Y-148271580D02*
X221797524Y-148319200D01*
X221797524Y-148319200D02*
X221892762Y-148366819D01*
X221892762Y-148366819D02*
X222083238Y-148366819D01*
X222083238Y-148366819D02*
X222178476Y-148319200D01*
X222178476Y-148319200D02*
X222226095Y-148271580D01*
X222226095Y-148271580D02*
X222273714Y-148176342D01*
X222273714Y-148176342D02*
X222273714Y-147938247D01*
X222273714Y-147938247D02*
X222226095Y-147843009D01*
X222226095Y-147843009D02*
X222178476Y-147795390D01*
X222178476Y-147795390D02*
X222083238Y-147747771D01*
X222083238Y-147747771D02*
X221892762Y-147747771D01*
X221892762Y-147747771D02*
X221797524Y-147795390D01*
X221797524Y-147795390D02*
X221749905Y-147843009D01*
X221749905Y-147843009D02*
X221702286Y-147938247D01*
X248188819Y-126912666D02*
X247712628Y-127245999D01*
X248188819Y-127484094D02*
X247188819Y-127484094D01*
X247188819Y-127484094D02*
X247188819Y-127103142D01*
X247188819Y-127103142D02*
X247236438Y-127007904D01*
X247236438Y-127007904D02*
X247284057Y-126960285D01*
X247284057Y-126960285D02*
X247379295Y-126912666D01*
X247379295Y-126912666D02*
X247522152Y-126912666D01*
X247522152Y-126912666D02*
X247617390Y-126960285D01*
X247617390Y-126960285D02*
X247665009Y-127007904D01*
X247665009Y-127007904D02*
X247712628Y-127103142D01*
X247712628Y-127103142D02*
X247712628Y-127484094D01*
X247522152Y-126055523D02*
X248188819Y-126055523D01*
X247141200Y-126293618D02*
X247855485Y-126531713D01*
X247855485Y-126531713D02*
X247855485Y-125912666D01*
X185721666Y-122390819D02*
X185721666Y-123105104D01*
X185721666Y-123105104D02*
X185674047Y-123247961D01*
X185674047Y-123247961D02*
X185578809Y-123343200D01*
X185578809Y-123343200D02*
X185435952Y-123390819D01*
X185435952Y-123390819D02*
X185340714Y-123390819D01*
X186721666Y-123390819D02*
X186150238Y-123390819D01*
X186435952Y-123390819D02*
X186435952Y-122390819D01*
X186435952Y-122390819D02*
X186340714Y-122533676D01*
X186340714Y-122533676D02*
X186245476Y-122628914D01*
X186245476Y-122628914D02*
X186150238Y-122676533D01*
X204843142Y-93164819D02*
X204509809Y-92688628D01*
X204271714Y-93164819D02*
X204271714Y-92164819D01*
X204271714Y-92164819D02*
X204652666Y-92164819D01*
X204652666Y-92164819D02*
X204747904Y-92212438D01*
X204747904Y-92212438D02*
X204795523Y-92260057D01*
X204795523Y-92260057D02*
X204843142Y-92355295D01*
X204843142Y-92355295D02*
X204843142Y-92498152D01*
X204843142Y-92498152D02*
X204795523Y-92593390D01*
X204795523Y-92593390D02*
X204747904Y-92641009D01*
X204747904Y-92641009D02*
X204652666Y-92688628D01*
X204652666Y-92688628D02*
X204271714Y-92688628D01*
X205795523Y-93164819D02*
X205224095Y-93164819D01*
X205509809Y-93164819D02*
X205509809Y-92164819D01*
X205509809Y-92164819D02*
X205414571Y-92307676D01*
X205414571Y-92307676D02*
X205319333Y-92402914D01*
X205319333Y-92402914D02*
X205224095Y-92450533D01*
X206414571Y-92164819D02*
X206509809Y-92164819D01*
X206509809Y-92164819D02*
X206605047Y-92212438D01*
X206605047Y-92212438D02*
X206652666Y-92260057D01*
X206652666Y-92260057D02*
X206700285Y-92355295D01*
X206700285Y-92355295D02*
X206747904Y-92545771D01*
X206747904Y-92545771D02*
X206747904Y-92783866D01*
X206747904Y-92783866D02*
X206700285Y-92974342D01*
X206700285Y-92974342D02*
X206652666Y-93069580D01*
X206652666Y-93069580D02*
X206605047Y-93117200D01*
X206605047Y-93117200D02*
X206509809Y-93164819D01*
X206509809Y-93164819D02*
X206414571Y-93164819D01*
X206414571Y-93164819D02*
X206319333Y-93117200D01*
X206319333Y-93117200D02*
X206271714Y-93069580D01*
X206271714Y-93069580D02*
X206224095Y-92974342D01*
X206224095Y-92974342D02*
X206176476Y-92783866D01*
X206176476Y-92783866D02*
X206176476Y-92545771D01*
X206176476Y-92545771D02*
X206224095Y-92355295D01*
X206224095Y-92355295D02*
X206271714Y-92260057D01*
X206271714Y-92260057D02*
X206319333Y-92212438D01*
X206319333Y-92212438D02*
X206414571Y-92164819D01*
D13*
%TO.C,J9*%
X256988000Y-121860000D02*
X256988000Y-124520000D01*
X259588000Y-121860000D02*
X256988000Y-121860000D01*
X259588000Y-121860000D02*
X259588000Y-124520000D01*
X259588000Y-124520000D02*
X256988000Y-124520000D01*
X262188000Y-123190000D02*
X262188000Y-124520000D01*
X262188000Y-124520000D02*
X260858000Y-124520000D01*
%TO.C,J2*%
X180407000Y-106426000D02*
X180407000Y-103826000D01*
X180407000Y-109026000D02*
X180407000Y-107696000D01*
X181737000Y-109026000D02*
X180407000Y-109026000D01*
X183067000Y-103826000D02*
X180407000Y-103826000D01*
X183067000Y-106426000D02*
X180407000Y-106426000D01*
X183067000Y-106426000D02*
X183067000Y-103826000D01*
%TO.C,J11*%
X256858000Y-127607000D02*
X256858000Y-128527000D01*
X256858000Y-128527000D02*
X258458000Y-128527000D01*
X256858000Y-140807000D02*
X256858000Y-141727000D01*
X256858000Y-141727000D02*
X264678000Y-141727000D01*
X258458000Y-127607000D02*
X258458000Y-128527000D01*
X258458000Y-128527000D02*
X258458000Y-128807000D01*
X258458000Y-140527000D02*
X257243000Y-140527000D01*
X258458000Y-140527000D02*
X258458000Y-140807000D01*
X258458000Y-140807000D02*
X256858000Y-140807000D01*
X258458000Y-141727000D02*
X258458000Y-140807000D01*
X260318000Y-130167000D02*
X264678000Y-130167000D01*
X260318000Y-139167000D02*
X260318000Y-130167000D01*
X260818000Y-128367000D02*
X262418000Y-128367000D01*
X260818000Y-129367000D02*
X260818000Y-128367000D01*
X260818000Y-139967000D02*
X260818000Y-140967000D01*
X260818000Y-140967000D02*
X262418000Y-140967000D01*
X262418000Y-128367000D02*
X262418000Y-129367000D01*
X262418000Y-129367000D02*
X260818000Y-129367000D01*
X262418000Y-139967000D02*
X260818000Y-139967000D01*
X262418000Y-139967000D02*
X264678000Y-139967000D01*
X262418000Y-140467000D02*
X264678000Y-140467000D01*
X262418000Y-140967000D02*
X262418000Y-139967000D01*
X264678000Y-127607000D02*
X256858000Y-127607000D01*
X264678000Y-139167000D02*
X260318000Y-139167000D01*
X264678000Y-141727000D02*
X264678000Y-127607000D01*
%TO.C,J6*%
X248860000Y-91694000D02*
X248860000Y-94294000D01*
X248860000Y-91694000D02*
X251520000Y-91694000D01*
X248860000Y-94294000D02*
X251520000Y-94294000D01*
X250190000Y-89094000D02*
X251520000Y-89094000D01*
X251520000Y-89094000D02*
X251520000Y-90424000D01*
X251520000Y-91694000D02*
X251520000Y-94294000D01*
%TO.C,R9*%
X251611000Y-109347000D02*
X252381000Y-109347000D01*
X252381000Y-107977000D02*
X252381000Y-110717000D01*
X252381000Y-110717000D02*
X258921000Y-110717000D01*
X258921000Y-107977000D02*
X252381000Y-107977000D01*
X258921000Y-110717000D02*
X258921000Y-107977000D01*
X259691000Y-109347000D02*
X258921000Y-109347000D01*
%TO.C,Q1*%
X253071000Y-112935000D02*
X253071000Y-117576000D01*
X253071000Y-112935000D02*
X263311000Y-112935000D01*
X253071000Y-114445000D02*
X263311000Y-114445000D01*
X253071000Y-117576000D02*
X263311000Y-117576000D01*
X256341000Y-112935000D02*
X256341000Y-114445000D01*
X260042000Y-112935000D02*
X260042000Y-114445000D01*
X263311000Y-112935000D02*
X263311000Y-117576000D01*
%TO.C,R3*%
X220115000Y-102489000D02*
X220885000Y-102489000D01*
X220885000Y-101119000D02*
X220885000Y-103859000D01*
X220885000Y-103859000D02*
X227425000Y-103859000D01*
X227425000Y-101119000D02*
X220885000Y-101119000D01*
X227425000Y-103859000D02*
X227425000Y-101119000D01*
X228195000Y-102489000D02*
X227425000Y-102489000D01*
%TO.C,C1*%
X225528000Y-134929772D02*
X223999000Y-134929772D01*
X225528000Y-134969772D02*
X224003000Y-134969772D01*
X225528000Y-135009772D02*
X224007000Y-135009772D01*
X225528000Y-135049772D02*
X224012000Y-135049772D01*
X225528000Y-135089772D02*
X224018000Y-135089772D01*
X225528000Y-135129772D02*
X224025000Y-135129772D01*
X225528000Y-135169772D02*
X224032000Y-135169772D01*
X225528000Y-135209772D02*
X224040000Y-135209772D01*
X225528000Y-135249772D02*
X224048000Y-135249772D01*
X225528000Y-135289772D02*
X224057000Y-135289772D01*
X225528000Y-135329772D02*
X224067000Y-135329772D01*
X225528000Y-135369772D02*
X224077000Y-135369772D01*
X225528000Y-135410772D02*
X224088000Y-135410772D01*
X225528000Y-135450772D02*
X224100000Y-135450772D01*
X225528000Y-135490772D02*
X224113000Y-135490772D01*
X225528000Y-135530772D02*
X224126000Y-135530772D01*
X225528000Y-135570772D02*
X224140000Y-135570772D01*
X225528000Y-135610772D02*
X224154000Y-135610772D01*
X225528000Y-135650772D02*
X224170000Y-135650772D01*
X225528000Y-135690772D02*
X224186000Y-135690772D01*
X225528000Y-135730772D02*
X224203000Y-135730772D01*
X225528000Y-135770772D02*
X224220000Y-135770772D01*
X225528000Y-135810772D02*
X224239000Y-135810772D01*
X225528000Y-135850772D02*
X224258000Y-135850772D01*
X225528000Y-135890772D02*
X224278000Y-135890772D01*
X225528000Y-135930772D02*
X224300000Y-135930772D01*
X225528000Y-135970772D02*
X224321000Y-135970772D01*
X225528000Y-136010772D02*
X224344000Y-136010772D01*
X225528000Y-136050772D02*
X224368000Y-136050772D01*
X225528000Y-136090772D02*
X224393000Y-136090772D01*
X225528000Y-136130772D02*
X224419000Y-136130772D01*
X225528000Y-136170772D02*
X224446000Y-136170772D01*
X225528000Y-136210772D02*
X224473000Y-136210772D01*
X225528000Y-136250772D02*
X224503000Y-136250772D01*
X225528000Y-136290772D02*
X224533000Y-136290772D01*
X225528000Y-136330772D02*
X224564000Y-136330772D01*
X225528000Y-136370772D02*
X224597000Y-136370772D01*
X225528000Y-136410772D02*
X224631000Y-136410772D01*
X225528000Y-136450772D02*
X224667000Y-136450772D01*
X225528000Y-136490772D02*
X224704000Y-136490772D01*
X225528000Y-136530772D02*
X224742000Y-136530772D01*
X225528000Y-136570772D02*
X224783000Y-136570772D01*
X225528000Y-136610772D02*
X224825000Y-136610772D01*
X225528000Y-136650772D02*
X224869000Y-136650772D01*
X225528000Y-136690772D02*
X224915000Y-136690772D01*
X225528000Y-136730772D02*
X224963000Y-136730772D01*
X225528000Y-136770772D02*
X225014000Y-136770772D01*
X225528000Y-136810772D02*
X225068000Y-136810772D01*
X225528000Y-136850772D02*
X225125000Y-136850772D01*
X225528000Y-136890772D02*
X225185000Y-136890772D01*
X225528000Y-136930772D02*
X225249000Y-136930772D01*
X225528000Y-136970772D02*
X225317000Y-136970772D01*
X226852000Y-137290772D02*
X226284000Y-137290772D01*
X227086000Y-137250772D02*
X226050000Y-137250772D01*
X227245000Y-137210772D02*
X225891000Y-137210772D01*
X227373000Y-137170772D02*
X225763000Y-137170772D01*
X227483000Y-137130772D02*
X225653000Y-137130772D01*
X227579000Y-137090772D02*
X225557000Y-137090772D01*
X227666000Y-137050772D02*
X225470000Y-137050772D01*
X227746000Y-137010772D02*
X225390000Y-137010772D01*
X227819000Y-136970772D02*
X227608000Y-136970772D01*
X227887000Y-136930772D02*
X227608000Y-136930772D01*
X227951000Y-136890772D02*
X227608000Y-136890772D01*
X228011000Y-136850772D02*
X227608000Y-136850772D01*
X228043000Y-131884997D02*
X228043000Y-132384997D01*
X228068000Y-136810772D02*
X227608000Y-136810772D01*
X228122000Y-136770772D02*
X227608000Y-136770772D01*
X228173000Y-136730772D02*
X227608000Y-136730772D01*
X228221000Y-136690772D02*
X227608000Y-136690772D01*
X228267000Y-136650772D02*
X227608000Y-136650772D01*
X228293000Y-132134997D02*
X227793000Y-132134997D01*
X228311000Y-136610772D02*
X227608000Y-136610772D01*
X228353000Y-136570772D02*
X227608000Y-136570772D01*
X228394000Y-136530772D02*
X227608000Y-136530772D01*
X228432000Y-136490772D02*
X227608000Y-136490772D01*
X228469000Y-136450772D02*
X227608000Y-136450772D01*
X228505000Y-136410772D02*
X227608000Y-136410772D01*
X228539000Y-136370772D02*
X227608000Y-136370772D01*
X228572000Y-136330772D02*
X227608000Y-136330772D01*
X228603000Y-136290772D02*
X227608000Y-136290772D01*
X228633000Y-136250772D02*
X227608000Y-136250772D01*
X228663000Y-136210772D02*
X227608000Y-136210772D01*
X228690000Y-136170772D02*
X227608000Y-136170772D01*
X228717000Y-136130772D02*
X227608000Y-136130772D01*
X228743000Y-136090772D02*
X227608000Y-136090772D01*
X228768000Y-136050772D02*
X227608000Y-136050772D01*
X228792000Y-136010772D02*
X227608000Y-136010772D01*
X228815000Y-135970772D02*
X227608000Y-135970772D01*
X228836000Y-135930772D02*
X227608000Y-135930772D01*
X228858000Y-135890772D02*
X227608000Y-135890772D01*
X228878000Y-135850772D02*
X227608000Y-135850772D01*
X228897000Y-135810772D02*
X227608000Y-135810772D01*
X228916000Y-135770772D02*
X227608000Y-135770772D01*
X228933000Y-135730772D02*
X227608000Y-135730772D01*
X228950000Y-135690772D02*
X227608000Y-135690772D01*
X228966000Y-135650772D02*
X227608000Y-135650772D01*
X228982000Y-135610772D02*
X227608000Y-135610772D01*
X228996000Y-135570772D02*
X227608000Y-135570772D01*
X229010000Y-135530772D02*
X227608000Y-135530772D01*
X229023000Y-135490772D02*
X227608000Y-135490772D01*
X229036000Y-135450772D02*
X227608000Y-135450772D01*
X229048000Y-135410772D02*
X227608000Y-135410772D01*
X229059000Y-135369772D02*
X227608000Y-135369772D01*
X229069000Y-135329772D02*
X227608000Y-135329772D01*
X229079000Y-135289772D02*
X227608000Y-135289772D01*
X229088000Y-135249772D02*
X227608000Y-135249772D01*
X229096000Y-135209772D02*
X227608000Y-135209772D01*
X229104000Y-135169772D02*
X227608000Y-135169772D01*
X229111000Y-135129772D02*
X227608000Y-135129772D01*
X229118000Y-135089772D02*
X227608000Y-135089772D01*
X229124000Y-135049772D02*
X227608000Y-135049772D01*
X229129000Y-135009772D02*
X227608000Y-135009772D01*
X229133000Y-134969772D02*
X227608000Y-134969772D01*
X229137000Y-134929772D02*
X227608000Y-134929772D01*
X229141000Y-134889772D02*
X223995000Y-134889772D01*
X229144000Y-134849772D02*
X223992000Y-134849772D01*
X229146000Y-134809772D02*
X223990000Y-134809772D01*
X229147000Y-134769772D02*
X223989000Y-134769772D01*
X229148000Y-134689772D02*
X223988000Y-134689772D01*
X229148000Y-134729772D02*
X223988000Y-134729772D01*
X229188000Y-134689772D02*
G75*
G02*
X223948000Y-134689772I-2620000J0D01*
G01*
X223948000Y-134689772D02*
G75*
G02*
X229188000Y-134689772I2620000J0D01*
G01*
%TO.C,J14*%
X181804000Y-137033000D02*
X181804000Y-142173000D01*
X181804000Y-137033000D02*
X184464000Y-137033000D01*
X181804000Y-142173000D02*
X184464000Y-142173000D01*
X183134000Y-134433000D02*
X184464000Y-134433000D01*
X184464000Y-134433000D02*
X184464000Y-135763000D01*
X184464000Y-137033000D02*
X184464000Y-142173000D01*
D14*
%TO.C,G\u002A\u002A\u002A*%
G36*
X252120208Y-152599341D02*
G01*
X252124620Y-152616395D01*
X252110545Y-152658012D01*
X252080506Y-152672157D01*
X252064603Y-152663818D01*
X252048077Y-152623396D01*
X252063273Y-152588066D01*
X252086482Y-152579758D01*
X252120208Y-152599341D01*
G37*
G36*
X253051123Y-151062841D02*
G01*
X253077595Y-151094979D01*
X253074925Y-151116833D01*
X253045307Y-151152871D01*
X253011932Y-151141432D01*
X252997858Y-151116699D01*
X252994428Y-151069745D01*
X253027388Y-151056580D01*
X253051123Y-151062841D01*
G37*
G36*
X246857769Y-152567815D02*
G01*
X246881595Y-152594305D01*
X246880634Y-152611553D01*
X246851072Y-152642534D01*
X246806792Y-152652428D01*
X246776616Y-152637159D01*
X246776243Y-152599145D01*
X246784392Y-152581195D01*
X246817709Y-152561029D01*
X246857769Y-152567815D01*
G37*
G36*
X252349344Y-151829406D02*
G01*
X252356319Y-151835120D01*
X252370554Y-151875213D01*
X252352009Y-151910654D01*
X252328024Y-151918696D01*
X252295415Y-151900176D01*
X252288516Y-151891056D01*
X252285546Y-151852280D01*
X252312447Y-151826265D01*
X252349344Y-151829406D01*
G37*
G36*
X250775554Y-151828769D02*
G01*
X250784474Y-151859715D01*
X250775063Y-151912433D01*
X250754283Y-151964585D01*
X250729102Y-151993831D01*
X250723735Y-151994973D01*
X250707502Y-151972903D01*
X250700796Y-151920197D01*
X250712244Y-151853113D01*
X250742270Y-151822117D01*
X250775554Y-151828769D01*
G37*
G36*
X251659428Y-152563748D02*
G01*
X251657176Y-152591486D01*
X251627602Y-152631041D01*
X251585924Y-152666377D01*
X251547713Y-152681459D01*
X251525831Y-152671953D01*
X251537227Y-152635611D01*
X251540604Y-152629172D01*
X251580679Y-152580226D01*
X251626969Y-152556203D01*
X251659428Y-152563748D01*
G37*
G36*
X240962858Y-150048239D02*
G01*
X240962858Y-150393171D01*
X240898497Y-150393171D01*
X240845105Y-150381474D01*
X240821372Y-150359909D01*
X240816955Y-150322552D01*
X240814449Y-150245705D01*
X240814039Y-150140700D01*
X240815813Y-150023022D01*
X240823019Y-149719397D01*
X240892939Y-149711352D01*
X240962858Y-149703307D01*
X240962858Y-150048239D01*
G37*
G36*
X246697331Y-152719151D02*
G01*
X246709005Y-152769650D01*
X246698394Y-152821806D01*
X246674349Y-152830321D01*
X246648552Y-152792390D01*
X246645960Y-152784795D01*
X246613461Y-152739073D01*
X246587039Y-152725166D01*
X246557434Y-152714849D01*
X246574662Y-152701435D01*
X246588234Y-152695387D01*
X246653927Y-152686430D01*
X246697331Y-152719151D01*
G37*
G36*
X250573669Y-149044089D02*
G01*
X250573669Y-149477856D01*
X250738935Y-149477856D01*
X250904200Y-149477856D01*
X250904200Y-149566845D01*
X250904200Y-149655834D01*
X250636706Y-149655834D01*
X250369213Y-149655834D01*
X250376096Y-149140969D01*
X250382979Y-148626104D01*
X250478324Y-148618213D01*
X250573669Y-148610322D01*
X250573669Y-149044089D01*
G37*
G36*
X241483257Y-150654026D02*
G01*
X241492169Y-150682722D01*
X241487392Y-150704632D01*
X241474430Y-150778267D01*
X241471714Y-150819047D01*
X241455532Y-150864791D01*
X241421053Y-150874180D01*
X241388235Y-150843299D01*
X241385098Y-150836036D01*
X241373598Y-150781217D01*
X241369665Y-150721622D01*
X241376806Y-150668235D01*
X241407618Y-150649077D01*
X241436194Y-150647425D01*
X241483257Y-150654026D01*
G37*
G36*
X243270998Y-150984003D02*
G01*
X243266901Y-151118000D01*
X243261097Y-151209028D01*
X243252437Y-151264966D01*
X243239771Y-151293691D01*
X243224481Y-151302699D01*
X243179277Y-151299529D01*
X243167274Y-151292415D01*
X243160304Y-151261365D01*
X243154611Y-151190159D01*
X243150792Y-151089489D01*
X243149445Y-150973718D01*
X243149445Y-150672851D01*
X243213791Y-150672851D01*
X243278137Y-150672851D01*
X243270998Y-150984003D01*
G37*
G36*
X252107203Y-152717351D02*
G01*
X252119062Y-152754987D01*
X252124064Y-152829143D01*
X252124620Y-152884863D01*
X252122377Y-152981561D01*
X252114313Y-153036905D01*
X252098422Y-153060246D01*
X252086482Y-153062841D01*
X252065761Y-153052374D01*
X252053902Y-153014738D01*
X252048900Y-152940582D01*
X252048344Y-152884863D01*
X252050587Y-152788164D01*
X252058652Y-152732821D01*
X252074542Y-152709480D01*
X252086482Y-152706885D01*
X252107203Y-152717351D01*
G37*
G36*
X252356754Y-151948332D02*
G01*
X252371496Y-151968418D01*
X252376345Y-152015566D01*
X252374235Y-152100961D01*
X252373680Y-152113717D01*
X252362910Y-152222681D01*
X252342653Y-152284012D01*
X252313378Y-152296705D01*
X252294653Y-152283657D01*
X252285551Y-152250847D01*
X252279229Y-152182749D01*
X252277173Y-152105150D01*
X252278785Y-152017212D01*
X252286080Y-151968674D01*
X252302743Y-151948122D01*
X252329185Y-151944122D01*
X252356754Y-151948332D01*
G37*
G36*
X253047944Y-151191826D02*
G01*
X253059803Y-151229461D01*
X253064805Y-151303618D01*
X253065361Y-151359337D01*
X253063118Y-151456036D01*
X253055053Y-151511379D01*
X253039163Y-151534720D01*
X253027223Y-151537315D01*
X253006502Y-151526848D01*
X252994642Y-151489213D01*
X252989641Y-151415057D01*
X252989085Y-151359337D01*
X252991328Y-151262639D01*
X252999392Y-151207295D01*
X253015283Y-151183954D01*
X253027223Y-151181359D01*
X253047944Y-151191826D01*
G37*
G36*
X254143466Y-152591596D02*
G01*
X254152347Y-152626756D01*
X254155315Y-152698386D01*
X254153284Y-152810438D01*
X254146485Y-152936972D01*
X254135085Y-153016765D01*
X254118440Y-153053773D01*
X254113173Y-153056875D01*
X254097566Y-153051003D01*
X254088685Y-153015842D01*
X254085717Y-152944212D01*
X254087748Y-152832160D01*
X254094547Y-152705626D01*
X254105947Y-152625833D01*
X254122592Y-152588825D01*
X254127859Y-152585723D01*
X254143466Y-152591596D01*
G37*
G36*
X243245541Y-150041810D02*
G01*
X243242323Y-150178585D01*
X243238398Y-150272752D01*
X243232238Y-150332543D01*
X243222311Y-150366195D01*
X243207089Y-150381943D01*
X243185041Y-150388020D01*
X243181113Y-150388598D01*
X243130887Y-150381588D01*
X243110344Y-150361692D01*
X243105658Y-150323599D01*
X243102933Y-150246098D01*
X243102380Y-150140605D01*
X243104101Y-150023022D01*
X243111307Y-149719397D01*
X243181977Y-149711280D01*
X243252647Y-149703162D01*
X243245541Y-150041810D01*
G37*
G36*
X246886983Y-152844645D02*
G01*
X246889295Y-152936334D01*
X246895313Y-153011109D01*
X246902416Y-153048048D01*
X246901985Y-153077286D01*
X246863441Y-153087816D01*
X246844377Y-153088266D01*
X246770906Y-153088266D01*
X246781131Y-152907310D01*
X246783958Y-152802237D01*
X246777178Y-152738315D01*
X246759701Y-152706561D01*
X246756537Y-152704295D01*
X246748187Y-152688699D01*
X246788288Y-152682145D01*
X246804350Y-152681849D01*
X246886983Y-152681459D01*
X246886983Y-152844645D01*
G37*
G36*
X253336941Y-151190532D02*
G01*
X253365819Y-151211815D01*
X253353731Y-151235855D01*
X253299828Y-151252881D01*
X253266904Y-151265432D01*
X253248834Y-151299370D01*
X253239744Y-151367845D01*
X253238256Y-151390722D01*
X253227763Y-151471048D01*
X253209545Y-151521472D01*
X253198844Y-151531079D01*
X253181228Y-151522144D01*
X253171075Y-151476768D01*
X253167193Y-151388594D01*
X253167063Y-151361456D01*
X253167063Y-151181359D01*
X253270883Y-151181359D01*
X253336941Y-151190532D01*
G37*
G36*
X243810506Y-149782961D02*
G01*
X243803665Y-149837473D01*
X243774584Y-149857415D01*
X243746943Y-149859237D01*
X243683379Y-149859237D01*
X243683379Y-150126204D01*
X243683379Y-150393171D01*
X243619815Y-150393171D01*
X243556252Y-150393171D01*
X243556252Y-150126204D01*
X243556252Y-149859237D01*
X243492688Y-149859237D01*
X243447261Y-149851028D01*
X243430643Y-149816130D01*
X243429125Y-149782961D01*
X243429125Y-149706684D01*
X243619815Y-149706684D01*
X243810506Y-149706684D01*
X243810506Y-149782961D01*
G37*
G36*
X245030927Y-149782961D02*
G01*
X245024085Y-149837473D01*
X244995004Y-149857415D01*
X244967363Y-149859237D01*
X244903799Y-149859237D01*
X244903799Y-150126204D01*
X244903799Y-150393171D01*
X244840236Y-150393171D01*
X244776672Y-150393171D01*
X244776672Y-150126204D01*
X244776672Y-149859237D01*
X244713109Y-149859237D01*
X244667682Y-149851028D01*
X244651063Y-149816130D01*
X244649545Y-149782961D01*
X244649545Y-149706684D01*
X244840236Y-149706684D01*
X245030927Y-149706684D01*
X245030927Y-149782961D01*
G37*
G36*
X251960910Y-152711813D02*
G01*
X251991252Y-152727516D01*
X251991264Y-152738666D01*
X251960379Y-152767716D01*
X251926855Y-152778406D01*
X251893931Y-152790958D01*
X251875861Y-152824896D01*
X251866771Y-152893371D01*
X251865283Y-152916247D01*
X251852696Y-153006136D01*
X251829288Y-153053740D01*
X251797232Y-153055484D01*
X251786144Y-153046420D01*
X251777043Y-153013610D01*
X251770720Y-152945511D01*
X251768664Y-152867912D01*
X251768664Y-152706885D01*
X251885197Y-152706885D01*
X251960910Y-152711813D01*
G37*
G36*
X251962001Y-151191037D02*
G01*
X251997260Y-151213705D01*
X251996316Y-151239819D01*
X251953916Y-151259833D01*
X251940286Y-151262223D01*
X251906074Y-151273568D01*
X251887302Y-151303947D01*
X251877900Y-151366606D01*
X251875394Y-151403832D01*
X251865723Y-151488938D01*
X251847752Y-151530446D01*
X251830899Y-151537315D01*
X251810729Y-151525685D01*
X251799202Y-151484875D01*
X251794484Y-151406004D01*
X251794090Y-151359337D01*
X251794090Y-151181359D01*
X251895791Y-151181359D01*
X251962001Y-151191037D01*
G37*
G36*
X246505879Y-152683842D02*
G01*
X246524815Y-152697695D01*
X246533440Y-152733266D01*
X246534569Y-152800748D01*
X246531723Y-152891219D01*
X246532990Y-152981124D01*
X246544155Y-153030089D01*
X246554113Y-153037415D01*
X246580660Y-153055408D01*
X246581877Y-153062841D01*
X246559647Y-153080152D01*
X246505499Y-153088214D01*
X246499245Y-153088288D01*
X246416612Y-153088310D01*
X246416612Y-152884939D01*
X246417463Y-152783948D01*
X246421953Y-152723459D01*
X246432992Y-152693131D01*
X246453488Y-152682620D01*
X246473819Y-152681514D01*
X246505879Y-152683842D01*
G37*
G36*
X248745133Y-151695018D02*
G01*
X248760476Y-151717962D01*
X248767099Y-151769934D01*
X248768464Y-151855133D01*
X248770049Y-151944572D01*
X248777108Y-151994436D01*
X248793100Y-152015962D01*
X248819315Y-152020398D01*
X248860728Y-152036296D01*
X248870166Y-152058536D01*
X248853372Y-152085055D01*
X248797703Y-152095982D01*
X248768464Y-152096674D01*
X248666762Y-152096674D01*
X248666762Y-151893271D01*
X248667824Y-151791927D01*
X248672714Y-151731189D01*
X248683989Y-151700828D01*
X248704206Y-151690616D01*
X248717613Y-151689868D01*
X248745133Y-151695018D01*
G37*
G36*
X248844740Y-150774367D02*
G01*
X248844740Y-150876254D01*
X247204002Y-150876254D01*
X246869298Y-150876123D01*
X246581966Y-150875678D01*
X246338527Y-150874844D01*
X246135504Y-150873544D01*
X245969418Y-150871703D01*
X245836790Y-150869242D01*
X245734143Y-150866087D01*
X245657998Y-150862161D01*
X245604877Y-150857388D01*
X245571301Y-150851691D01*
X245553792Y-150844994D01*
X245549339Y-150839965D01*
X245541543Y-150786433D01*
X245543781Y-150744620D01*
X245552148Y-150685563D01*
X247198444Y-150679022D01*
X248844740Y-150672480D01*
X248844740Y-150774367D01*
G37*
G36*
X248844740Y-151206599D02*
G01*
X248844740Y-151308486D01*
X247204002Y-151308486D01*
X246869298Y-151308355D01*
X246581966Y-151307911D01*
X246338527Y-151307077D01*
X246135504Y-151305777D01*
X245969418Y-151303935D01*
X245836790Y-151301474D01*
X245734143Y-151298319D01*
X245657998Y-151294393D01*
X245604877Y-151289620D01*
X245571301Y-151283923D01*
X245553792Y-151277226D01*
X245549339Y-151272197D01*
X245541543Y-151218666D01*
X245543781Y-151176852D01*
X245552148Y-151117796D01*
X247198444Y-151111254D01*
X248844740Y-151104712D01*
X248844740Y-151206599D01*
G37*
G36*
X250403773Y-151090184D02*
G01*
X250415637Y-151128012D01*
X250420595Y-151202508D01*
X250421117Y-151256174D01*
X250421117Y-151432690D01*
X250528955Y-151440508D01*
X250604763Y-151452912D01*
X250640281Y-151478669D01*
X250645234Y-151492821D01*
X250643354Y-151517601D01*
X250618742Y-151531113D01*
X250560856Y-151536567D01*
X250499257Y-151537315D01*
X250344840Y-151537315D01*
X250344840Y-151308486D01*
X250346327Y-151196850D01*
X250351751Y-151127313D01*
X250362562Y-151091186D01*
X250380207Y-151079778D01*
X250382979Y-151079657D01*
X250403773Y-151090184D01*
G37*
G36*
X242920616Y-149781847D02*
G01*
X242914006Y-149836871D01*
X242885751Y-149857235D01*
X242857053Y-149859237D01*
X242793489Y-149859237D01*
X242793489Y-150126204D01*
X242793489Y-150393171D01*
X242729926Y-150393171D01*
X242666362Y-150393171D01*
X242666362Y-150126204D01*
X242666362Y-149859237D01*
X242601110Y-149859237D01*
X242554618Y-149851909D01*
X242541796Y-149819387D01*
X242543902Y-149789317D01*
X242550483Y-149753176D01*
X242567456Y-149731707D01*
X242606199Y-149720332D01*
X242678092Y-149714473D01*
X242736282Y-149711927D01*
X242920616Y-149704457D01*
X242920616Y-149781847D01*
G37*
G36*
X244455619Y-151696940D02*
G01*
X244493874Y-151714773D01*
X244491569Y-151738289D01*
X244458854Y-151756949D01*
X244436359Y-151780802D01*
X244424306Y-151836703D01*
X244420716Y-151933835D01*
X244420716Y-151934129D01*
X244418096Y-152025958D01*
X244408747Y-152076646D01*
X244390438Y-152095703D01*
X244382578Y-152096674D01*
X244361186Y-152085641D01*
X244349296Y-152046217D01*
X244344719Y-151968916D01*
X244344440Y-151931409D01*
X244341894Y-151838709D01*
X244332796Y-151787187D01*
X244314957Y-151767354D01*
X244306302Y-151766144D01*
X244272594Y-151745792D01*
X244268164Y-151728006D01*
X244283137Y-151702868D01*
X244334050Y-151691418D01*
X244382578Y-151689868D01*
X244455619Y-151696940D01*
G37*
G36*
X254637140Y-151954429D02*
G01*
X254688780Y-151990313D01*
X254712194Y-152059223D01*
X254713015Y-152165472D01*
X254700835Y-152244804D01*
X254681187Y-152288635D01*
X254660575Y-152293578D01*
X254645506Y-152256248D01*
X254641737Y-152202574D01*
X254635292Y-152101517D01*
X254614067Y-152043237D01*
X254575227Y-152021084D01*
X254564070Y-152020398D01*
X254535387Y-152029411D01*
X254519153Y-152064188D01*
X254510557Y-152136335D01*
X254509583Y-152151883D01*
X254499114Y-152233102D01*
X254480969Y-152283995D01*
X254470116Y-152293842D01*
X254452499Y-152284906D01*
X254442346Y-152239530D01*
X254438465Y-152151357D01*
X254438334Y-152124219D01*
X254438334Y-151944122D01*
X254551854Y-151944122D01*
X254637140Y-151954429D01*
G37*
G36*
X245016897Y-151698156D02*
G01*
X245050853Y-151717719D01*
X245042850Y-151740606D01*
X244989811Y-151758866D01*
X244971759Y-151761476D01*
X244922527Y-151779988D01*
X244904362Y-151809933D01*
X244920599Y-151835533D01*
X244954650Y-151842420D01*
X244996063Y-151858318D01*
X245005501Y-151880558D01*
X244984304Y-151911618D01*
X244954650Y-151918696D01*
X244911204Y-151933779D01*
X244901160Y-151967766D01*
X244921801Y-152003769D01*
X244970412Y-152024898D01*
X244971759Y-152025066D01*
X245035137Y-152041236D01*
X245052802Y-152063787D01*
X245027829Y-152084765D01*
X244963294Y-152096222D01*
X244944056Y-152096674D01*
X244827523Y-152096674D01*
X244827523Y-151893271D01*
X244827523Y-151689868D01*
X244944056Y-151689868D01*
X245016897Y-151698156D01*
G37*
G36*
X247637033Y-151893271D02*
G01*
X247637033Y-152083962D01*
X247541483Y-152091865D01*
X247465068Y-152088701D01*
X247432116Y-152063762D01*
X247426021Y-152020630D01*
X247423996Y-151944441D01*
X247425044Y-151902243D01*
X247499850Y-151902243D01*
X247500727Y-151970696D01*
X247509135Y-152014846D01*
X247529866Y-152043139D01*
X247549433Y-152029484D01*
X247564000Y-151982716D01*
X247569733Y-151911667D01*
X247568651Y-151877749D01*
X247559428Y-151806130D01*
X247544650Y-151761200D01*
X247535331Y-151753431D01*
X247518929Y-151775877D01*
X247506510Y-151831392D01*
X247499850Y-151902243D01*
X247425044Y-151902243D01*
X247425964Y-151865168D01*
X247433629Y-151702580D01*
X247535331Y-151702580D01*
X247637033Y-151702580D01*
X247637033Y-151893271D01*
G37*
G36*
X251876742Y-148876904D02*
G01*
X251913262Y-148895286D01*
X251943953Y-148909177D01*
X251957986Y-148895286D01*
X251996182Y-148874499D01*
X252061751Y-148868587D01*
X252133385Y-148877739D01*
X252176030Y-148893370D01*
X252218121Y-148936315D01*
X252248313Y-149016035D01*
X252267409Y-149136414D01*
X252276211Y-149301338D01*
X252277031Y-149382510D01*
X252277173Y-149655834D01*
X252175471Y-149655834D01*
X252073769Y-149655834D01*
X252073769Y-149349040D01*
X252073769Y-149042246D01*
X252003849Y-149050291D01*
X251933930Y-149058336D01*
X251926766Y-149357085D01*
X251919603Y-149655834D01*
X251831421Y-149655834D01*
X251743239Y-149655834D01*
X251743239Y-149261740D01*
X251743239Y-148867645D01*
X251814430Y-148867645D01*
X251876742Y-148876904D01*
G37*
G36*
X242740896Y-151698080D02*
G01*
X242788999Y-151728794D01*
X242812650Y-151791125D01*
X242818915Y-151893271D01*
X242812550Y-151996006D01*
X242788747Y-152058074D01*
X242740440Y-152088592D01*
X242661277Y-152096674D01*
X242564660Y-152096674D01*
X242564660Y-151893271D01*
X242666362Y-151893271D01*
X242668557Y-151977861D01*
X242676885Y-152021070D01*
X242693963Y-152032249D01*
X242704500Y-152029593D01*
X242730927Y-151997588D01*
X242742041Y-151924193D01*
X242742638Y-151893271D01*
X242735786Y-151806322D01*
X242714119Y-151762546D01*
X242704500Y-151756949D01*
X242682916Y-151757355D01*
X242671192Y-151785822D01*
X242666712Y-151851699D01*
X242666362Y-151893271D01*
X242564660Y-151893271D01*
X242564660Y-151689868D01*
X242661277Y-151689868D01*
X242740896Y-151698080D01*
G37*
G36*
X251577974Y-148715093D02*
G01*
X251577974Y-148804082D01*
X251406352Y-148811600D01*
X251234730Y-148819118D01*
X251234730Y-148919658D01*
X251234730Y-149020198D01*
X251349145Y-149020198D01*
X251419446Y-149022098D01*
X251452736Y-149034973D01*
X251462853Y-149069586D01*
X251463559Y-149109187D01*
X251461117Y-149163866D01*
X251444563Y-149189758D01*
X251400060Y-149197627D01*
X251349145Y-149198176D01*
X251234730Y-149198176D01*
X251234730Y-149338016D01*
X251234730Y-149477856D01*
X251412708Y-149477856D01*
X251590686Y-149477856D01*
X251590686Y-149566845D01*
X251590686Y-149655834D01*
X251310480Y-149655834D01*
X251030274Y-149655834D01*
X251037157Y-149140969D01*
X251044040Y-148626104D01*
X251311007Y-148626104D01*
X251577974Y-148626104D01*
X251577974Y-148715093D01*
G37*
G36*
X252827658Y-151197261D02*
G01*
X252885372Y-151249559D01*
X252911760Y-151336838D01*
X252912808Y-151361836D01*
X252894584Y-151446355D01*
X252847758Y-151506471D01*
X252784101Y-151535528D01*
X252715385Y-151526868D01*
X252673121Y-151497399D01*
X252625810Y-151422748D01*
X252614009Y-151340289D01*
X252619283Y-151320676D01*
X252693415Y-151320676D01*
X252698031Y-151383831D01*
X252708891Y-151409228D01*
X252745108Y-151454595D01*
X252783073Y-151450458D01*
X252809945Y-151424300D01*
X252833864Y-151366431D01*
X252824748Y-151307709D01*
X252787689Y-151268157D01*
X252768796Y-151262510D01*
X252719030Y-151275272D01*
X252693415Y-151320676D01*
X252619283Y-151320676D01*
X252634553Y-151263897D01*
X252684274Y-151207446D01*
X252744237Y-151185810D01*
X252827658Y-151197261D01*
G37*
G36*
X253310144Y-152715072D02*
G01*
X253360388Y-152745396D01*
X253386788Y-152806499D01*
X253395663Y-152907022D01*
X253395891Y-152934042D01*
X253391632Y-153015496D01*
X253377223Y-153055243D01*
X253359082Y-153062841D01*
X253334617Y-153045539D01*
X253319918Y-152989038D01*
X253314588Y-152929357D01*
X253307272Y-152850359D01*
X253293585Y-152810118D01*
X253268228Y-152796555D01*
X253256052Y-152795874D01*
X253225539Y-152803138D01*
X253208491Y-152832985D01*
X253199610Y-152897497D01*
X253197516Y-152929357D01*
X253187845Y-153014464D01*
X253169874Y-153055971D01*
X253153021Y-153062841D01*
X253132851Y-153051211D01*
X253121325Y-153010401D01*
X253116606Y-152931529D01*
X253116212Y-152884863D01*
X253116212Y-152706885D01*
X253229732Y-152706885D01*
X253310144Y-152715072D01*
G37*
G36*
X253573869Y-148715093D02*
G01*
X253573869Y-148816795D01*
X253408604Y-148816795D01*
X253243339Y-148816795D01*
X253243339Y-148918496D01*
X253243339Y-149020198D01*
X253357753Y-149020198D01*
X253428055Y-149022098D01*
X253461344Y-149034973D01*
X253471462Y-149069586D01*
X253472168Y-149109187D01*
X253469725Y-149163866D01*
X253453172Y-149189758D01*
X253408668Y-149197627D01*
X253357753Y-149198176D01*
X253243339Y-149198176D01*
X253243339Y-149338016D01*
X253243339Y-149477856D01*
X253421317Y-149477856D01*
X253599295Y-149477856D01*
X253599295Y-149566845D01*
X253599295Y-149655834D01*
X253319615Y-149655834D01*
X253039936Y-149655834D01*
X253039936Y-149134612D01*
X253039936Y-148613391D01*
X253306902Y-148613391D01*
X253573869Y-148613391D01*
X253573869Y-148715093D01*
G37*
G36*
X243387099Y-151698641D02*
G01*
X243397544Y-151731221D01*
X243400588Y-151796998D01*
X243398412Y-151886915D01*
X243390987Y-152083962D01*
X243314585Y-152091464D01*
X243249516Y-152087049D01*
X243206527Y-152067310D01*
X243187671Y-152025417D01*
X243176599Y-151955327D01*
X243173101Y-151871970D01*
X243176967Y-151790275D01*
X243187985Y-151725173D01*
X243205946Y-151691594D01*
X243211847Y-151689868D01*
X243233285Y-151703331D01*
X243246984Y-151749219D01*
X243255082Y-151835780D01*
X243256341Y-151861489D01*
X243265508Y-151963470D01*
X243279758Y-152015572D01*
X243295908Y-152018092D01*
X243310775Y-151971325D01*
X243321175Y-151875568D01*
X243322228Y-151855363D01*
X243329421Y-151761326D01*
X243341895Y-151709276D01*
X243362067Y-151690430D01*
X243367792Y-151689868D01*
X243387099Y-151698641D01*
G37*
G36*
X251444406Y-151950832D02*
G01*
X251499365Y-151967613D01*
X251509325Y-151974632D01*
X251528588Y-152016818D01*
X251538937Y-152085062D01*
X251540679Y-152163373D01*
X251534125Y-152235757D01*
X251519585Y-152286221D01*
X251503026Y-152300078D01*
X251478561Y-152282777D01*
X251463862Y-152226275D01*
X251458532Y-152166594D01*
X251451216Y-152087596D01*
X251437529Y-152047356D01*
X251412172Y-152033792D01*
X251399996Y-152033111D01*
X251369483Y-152040375D01*
X251352435Y-152070223D01*
X251343553Y-152134734D01*
X251341460Y-152166594D01*
X251331789Y-152251701D01*
X251313818Y-152293209D01*
X251296965Y-152300078D01*
X251276795Y-152288448D01*
X251265268Y-152247638D01*
X251260550Y-152168767D01*
X251260156Y-152122100D01*
X251260156Y-151944122D01*
X251369485Y-151944122D01*
X251444406Y-151950832D01*
G37*
G36*
X251799277Y-151964879D02*
G01*
X251834972Y-151983747D01*
X251831387Y-152005542D01*
X251784419Y-152022370D01*
X251763851Y-152025029D01*
X251679675Y-152033111D01*
X251775021Y-152089461D01*
X251843051Y-152142148D01*
X251870198Y-152192811D01*
X251870366Y-152196624D01*
X251848237Y-152250523D01*
X251791988Y-152286149D01*
X251716826Y-152297579D01*
X251647893Y-152283239D01*
X251618578Y-152249656D01*
X251616112Y-152235031D01*
X251631996Y-152211477D01*
X251684868Y-152213423D01*
X251689304Y-152214286D01*
X251753759Y-152218088D01*
X251775223Y-152200329D01*
X251752391Y-152168564D01*
X251702359Y-152138626D01*
X251642967Y-152103599D01*
X251620608Y-152065640D01*
X251620816Y-152026378D01*
X251631678Y-151981104D01*
X251660663Y-151961335D01*
X251723597Y-151956842D01*
X251728407Y-151956835D01*
X251799277Y-151964879D01*
G37*
G36*
X253004554Y-151953959D02*
G01*
X253056587Y-151979173D01*
X253082580Y-152033757D01*
X253090620Y-152127191D01*
X253090786Y-152150639D01*
X253087748Y-152238191D01*
X253077002Y-152284753D01*
X253056102Y-152299913D01*
X253052648Y-152300078D01*
X253029775Y-152287651D01*
X253017923Y-152243978D01*
X253014510Y-152159468D01*
X253014510Y-152158470D01*
X253012913Y-152078021D01*
X253004821Y-152036852D01*
X252985286Y-152023416D01*
X252957303Y-152024986D01*
X252923091Y-152036331D01*
X252904319Y-152066710D01*
X252894917Y-152129369D01*
X252892411Y-152166594D01*
X252882913Y-152254401D01*
X252866005Y-152295348D01*
X252839638Y-152293145D01*
X252828057Y-152283128D01*
X252819160Y-152250550D01*
X252813022Y-152182806D01*
X252811107Y-152108147D01*
X252811107Y-151950116D01*
X252918387Y-151948636D01*
X253004554Y-151953959D01*
G37*
G36*
X241751047Y-150048239D02*
G01*
X241751047Y-150393171D01*
X241688386Y-150393171D01*
X241653043Y-150385032D01*
X241615241Y-150355700D01*
X241568051Y-150297803D01*
X241504549Y-150203969D01*
X241491339Y-150183454D01*
X241356953Y-149973736D01*
X241349568Y-150183454D01*
X241345216Y-150286246D01*
X241338800Y-150348408D01*
X241326920Y-150380145D01*
X241306173Y-150391661D01*
X241279648Y-150393171D01*
X241217113Y-150393171D01*
X241217113Y-150049928D01*
X241217113Y-149706684D01*
X241277595Y-149706684D01*
X241314918Y-149716678D01*
X241356439Y-149751505D01*
X241409221Y-149818432D01*
X241461929Y-149896334D01*
X241585781Y-150085983D01*
X241598494Y-149902690D01*
X241606087Y-149807876D01*
X241615735Y-149752439D01*
X241632359Y-149724986D01*
X241660880Y-149714122D01*
X241681127Y-149711352D01*
X241751047Y-149703307D01*
X241751047Y-150048239D01*
G37*
G36*
X247698080Y-152509485D02*
G01*
X247737245Y-152518022D01*
X247750993Y-152533425D01*
X247751447Y-152538279D01*
X247738954Y-152561094D01*
X247694405Y-152565846D01*
X247649745Y-152561278D01*
X247548044Y-152547637D01*
X247548044Y-152805239D01*
X247547362Y-152921856D01*
X247544115Y-152996775D01*
X247536497Y-153039141D01*
X247522701Y-153058100D01*
X247500923Y-153062800D01*
X247497193Y-153062841D01*
X247474121Y-153059374D01*
X247459321Y-153042860D01*
X247450972Y-153004129D01*
X247447254Y-152934010D01*
X247446348Y-152823333D01*
X247446342Y-152806638D01*
X247446342Y-152550436D01*
X247350997Y-152558651D01*
X247289916Y-152558167D01*
X247262110Y-152545856D01*
X247261878Y-152541529D01*
X247288294Y-152529879D01*
X247354193Y-152519402D01*
X247448211Y-152511593D01*
X247509776Y-152508917D01*
X247625067Y-152506792D01*
X247698080Y-152509485D01*
G37*
G36*
X251643394Y-151203595D02*
G01*
X251697758Y-151264297D01*
X251717813Y-151354458D01*
X251717813Y-151354983D01*
X251698680Y-151436370D01*
X251649827Y-151501666D01*
X251584078Y-151535543D01*
X251565261Y-151537315D01*
X251509911Y-151520059D01*
X251463559Y-151486464D01*
X251421618Y-151415829D01*
X251419280Y-151387629D01*
X251498568Y-151387629D01*
X251514684Y-151423231D01*
X251556887Y-151457787D01*
X251595743Y-151444654D01*
X251614950Y-151424300D01*
X251639078Y-151366001D01*
X251629507Y-151307242D01*
X251591433Y-151267855D01*
X251572516Y-151262341D01*
X251525792Y-151269543D01*
X251500802Y-151315847D01*
X251499757Y-151319879D01*
X251498568Y-151387629D01*
X251419280Y-151387629D01*
X251414977Y-151335721D01*
X251438992Y-151260423D01*
X251489020Y-151204215D01*
X251560418Y-151181379D01*
X251562762Y-151181359D01*
X251643394Y-151203595D01*
G37*
G36*
X245738241Y-151706663D02*
G01*
X245759490Y-151729102D01*
X245763179Y-151775612D01*
X245733168Y-151788737D01*
X245692010Y-151772058D01*
X245646042Y-151754334D01*
X245628949Y-151768980D01*
X245642245Y-151805501D01*
X245681029Y-151848037D01*
X245751205Y-151927255D01*
X245775955Y-152002878D01*
X245764365Y-152052180D01*
X245721565Y-152086248D01*
X245656792Y-152095688D01*
X245592893Y-152079900D01*
X245563966Y-152057459D01*
X245544483Y-152017927D01*
X245562436Y-151987539D01*
X245592710Y-151972497D01*
X245618558Y-152001329D01*
X245649882Y-152038083D01*
X245667826Y-152045824D01*
X245691107Y-152030003D01*
X245677602Y-151985694D01*
X245629026Y-151917626D01*
X245615711Y-151902099D01*
X245559683Y-151828972D01*
X245541829Y-151775716D01*
X245559514Y-151731868D01*
X245569946Y-151720378D01*
X245619813Y-151695568D01*
X245683446Y-151691343D01*
X245738241Y-151706663D01*
G37*
G36*
X248198322Y-151701238D02*
G01*
X248237955Y-151740614D01*
X248256665Y-151815893D01*
X248259956Y-151893271D01*
X248252849Y-151998060D01*
X248228239Y-152061474D01*
X248181190Y-152091409D01*
X248132828Y-152096674D01*
X248070824Y-152085575D01*
X248036212Y-152066164D01*
X248017790Y-152021526D01*
X248008111Y-151946010D01*
X248007546Y-151893271D01*
X248107403Y-151893271D01*
X248111263Y-151974529D01*
X248121346Y-152029620D01*
X248132828Y-152045824D01*
X248146371Y-152022665D01*
X248155553Y-151962165D01*
X248158254Y-151893271D01*
X248154394Y-151812013D01*
X248144311Y-151756923D01*
X248132828Y-151740719D01*
X248119285Y-151763877D01*
X248110104Y-151824377D01*
X248107403Y-151893271D01*
X248007546Y-151893271D01*
X248007177Y-151858834D01*
X248014987Y-151779212D01*
X248031541Y-151726361D01*
X248036212Y-151720378D01*
X248083756Y-151696884D01*
X248132828Y-151689868D01*
X248198322Y-151701238D01*
G37*
G36*
X251123735Y-151845654D02*
G01*
X251169616Y-151856250D01*
X251177666Y-151874202D01*
X251148048Y-151895657D01*
X251086505Y-151911051D01*
X251061133Y-151913802D01*
X250994402Y-151927773D01*
X250956823Y-151951773D01*
X250953242Y-151976552D01*
X250988503Y-151992861D01*
X251018614Y-151994973D01*
X251068458Y-152006891D01*
X251082178Y-152045824D01*
X251067280Y-152085699D01*
X251018614Y-152096674D01*
X250968770Y-152108592D01*
X250955051Y-152147525D01*
X250962537Y-152179303D01*
X250993622Y-152194330D01*
X251061246Y-152198357D01*
X251069465Y-152198376D01*
X251140965Y-152201703D01*
X251174775Y-152215519D01*
X251183836Y-152245574D01*
X251183879Y-152249227D01*
X251178313Y-152277628D01*
X251153862Y-152292975D01*
X251098895Y-152299143D01*
X251031327Y-152300078D01*
X250878774Y-152300078D01*
X250878774Y-152071249D01*
X250878774Y-151842420D01*
X251033446Y-151842420D01*
X251123735Y-151845654D01*
G37*
G36*
X253569999Y-152610585D02*
G01*
X253573869Y-152641202D01*
X253586768Y-152693909D01*
X253612008Y-152706885D01*
X253645716Y-152727237D01*
X253650146Y-152745023D01*
X253629794Y-152778731D01*
X253612008Y-152783161D01*
X253585489Y-152799955D01*
X253574562Y-152855624D01*
X253573869Y-152884863D01*
X253579621Y-152954326D01*
X253599460Y-152983765D01*
X253614126Y-152986564D01*
X253643503Y-153002071D01*
X253643801Y-153018346D01*
X253609967Y-153050237D01*
X253552205Y-153053324D01*
X253529375Y-153046294D01*
X253508829Y-153012810D01*
X253498385Y-152940255D01*
X253497593Y-152908169D01*
X253492947Y-152836348D01*
X253481086Y-152791144D01*
X253472168Y-152783161D01*
X253449611Y-152762567D01*
X253446742Y-152745023D01*
X253459533Y-152711174D01*
X253470399Y-152706885D01*
X253492288Y-152685335D01*
X253502181Y-152651669D01*
X253521283Y-152600509D01*
X253548703Y-152586111D01*
X253569999Y-152610585D01*
G37*
G36*
X248842820Y-150118952D02*
G01*
X248840251Y-150166294D01*
X248829770Y-150220597D01*
X248802254Y-150252751D01*
X248743293Y-150276751D01*
X248719118Y-150283936D01*
X248543417Y-150324570D01*
X248319056Y-150359500D01*
X248047920Y-150388591D01*
X247731891Y-150411711D01*
X247372856Y-150428727D01*
X246972699Y-150439506D01*
X246533304Y-150443915D01*
X246449668Y-150444022D01*
X245539435Y-150444022D01*
X245539435Y-150359128D01*
X245539435Y-150274234D01*
X246551369Y-150256887D01*
X246790736Y-150252279D01*
X247028949Y-150246759D01*
X247257778Y-150240582D01*
X247468996Y-150234007D01*
X247654373Y-150227289D01*
X247805683Y-150220686D01*
X247914695Y-150214455D01*
X247917986Y-150214223D01*
X248088774Y-150200276D01*
X248261290Y-150183072D01*
X248425975Y-150163857D01*
X248573270Y-150143877D01*
X248693616Y-150124378D01*
X248777454Y-150106607D01*
X248802203Y-150098948D01*
X248832877Y-150093826D01*
X248842820Y-150118952D01*
G37*
G36*
X250585973Y-152608112D02*
G01*
X250633532Y-152618495D01*
X250649645Y-152638726D01*
X250649946Y-152643321D01*
X250634972Y-152668458D01*
X250584059Y-152679909D01*
X250535531Y-152681459D01*
X250460119Y-152686450D01*
X250425769Y-152703421D01*
X250421117Y-152719597D01*
X250443219Y-152750271D01*
X250484680Y-152757736D01*
X250534524Y-152769654D01*
X250548244Y-152808586D01*
X250533346Y-152848462D01*
X250484680Y-152859437D01*
X250434836Y-152871355D01*
X250421117Y-152910288D01*
X250428603Y-152942066D01*
X250459688Y-152957093D01*
X250527312Y-152961120D01*
X250535531Y-152961139D01*
X250607031Y-152964466D01*
X250640841Y-152978282D01*
X250649902Y-153008337D01*
X250649946Y-153011990D01*
X250644379Y-153040391D01*
X250619928Y-153055738D01*
X250564961Y-153061906D01*
X250497393Y-153062841D01*
X250344840Y-153062841D01*
X250344840Y-152834012D01*
X250344840Y-152605183D01*
X250497393Y-152605183D01*
X250585973Y-152608112D01*
G37*
G36*
X250609310Y-151828793D02*
G01*
X250618192Y-151863980D01*
X250621179Y-151935601D01*
X250619150Y-152048601D01*
X250611807Y-152285103D01*
X250515105Y-152291234D01*
X250424903Y-152282728D01*
X250368909Y-152247870D01*
X250328083Y-152179629D01*
X250325239Y-152150391D01*
X250405275Y-152150391D01*
X250421391Y-152185994D01*
X250463594Y-152220550D01*
X250502450Y-152207417D01*
X250521657Y-152187063D01*
X250545784Y-152128763D01*
X250536213Y-152070005D01*
X250498140Y-152030618D01*
X250479223Y-152025104D01*
X250432499Y-152032306D01*
X250407508Y-152078610D01*
X250406463Y-152082641D01*
X250405275Y-152150391D01*
X250325239Y-152150391D01*
X250320537Y-152102046D01*
X250341500Y-152028670D01*
X250386200Y-151973048D01*
X250449869Y-151948726D01*
X250473861Y-151949823D01*
X250526704Y-151950499D01*
X250548712Y-151923161D01*
X250553354Y-151897002D01*
X250570858Y-151844728D01*
X250593725Y-151822864D01*
X250609310Y-151828793D01*
G37*
G36*
X252476706Y-151085060D02*
G01*
X252480576Y-151115677D01*
X252493475Y-151168383D01*
X252518714Y-151181359D01*
X252552423Y-151201711D01*
X252556852Y-151219497D01*
X252536500Y-151253206D01*
X252518714Y-151257635D01*
X252492196Y-151274429D01*
X252481268Y-151330099D01*
X252480576Y-151359337D01*
X252486328Y-151428800D01*
X252506166Y-151458240D01*
X252520833Y-151461039D01*
X252548703Y-151475227D01*
X252544634Y-151504500D01*
X252513554Y-151528918D01*
X252503365Y-151531701D01*
X252455034Y-151521651D01*
X252435552Y-151507547D01*
X252416042Y-151463957D01*
X252405133Y-151392844D01*
X252404300Y-151366965D01*
X252399030Y-151300516D01*
X252385760Y-151261734D01*
X252378874Y-151257635D01*
X252356318Y-151237042D01*
X252353449Y-151219497D01*
X252366240Y-151185648D01*
X252377106Y-151181359D01*
X252398995Y-151159810D01*
X252408888Y-151126143D01*
X252427990Y-151074983D01*
X252455410Y-151060586D01*
X252476706Y-151085060D01*
G37*
G36*
X254892121Y-151847822D02*
G01*
X254895992Y-151878440D01*
X254908890Y-151931146D01*
X254934130Y-151944122D01*
X254967838Y-151964474D01*
X254972268Y-151982260D01*
X254951916Y-152015968D01*
X254934130Y-152020398D01*
X254907611Y-152037192D01*
X254896684Y-152092861D01*
X254895992Y-152122100D01*
X254901743Y-152191563D01*
X254921582Y-152221003D01*
X254936249Y-152223802D01*
X254965685Y-152239316D01*
X254966039Y-152255583D01*
X254934375Y-152284722D01*
X254882300Y-152296892D01*
X254839175Y-152285544D01*
X254837738Y-152284200D01*
X254827159Y-152250063D01*
X254820676Y-152183748D01*
X254819715Y-152143288D01*
X254814993Y-152072171D01*
X254802960Y-152027801D01*
X254794290Y-152020398D01*
X254771733Y-151999805D01*
X254768864Y-151982260D01*
X254781655Y-151948411D01*
X254792522Y-151944122D01*
X254814411Y-151922573D01*
X254824303Y-151888906D01*
X254843405Y-151837746D01*
X254870825Y-151823348D01*
X254892121Y-151847822D01*
G37*
G36*
X246338616Y-151702845D02*
G01*
X246390036Y-151743902D01*
X246403899Y-151794683D01*
X246389302Y-151834423D01*
X246357632Y-151838741D01*
X246327071Y-151808859D01*
X246319587Y-151789011D01*
X246300574Y-151749397D01*
X246279921Y-151753172D01*
X246262255Y-151793265D01*
X246252208Y-151862601D01*
X246251347Y-151893271D01*
X246257530Y-151971381D01*
X246272993Y-152022786D01*
X246293107Y-152040414D01*
X246313241Y-152017191D01*
X246319587Y-151997531D01*
X246343947Y-151957448D01*
X246377286Y-151944635D01*
X246401144Y-151962892D01*
X246403899Y-151980181D01*
X246389520Y-152053402D01*
X246342238Y-152089808D01*
X246285967Y-152096674D01*
X246221363Y-152087303D01*
X246186325Y-152063715D01*
X246185677Y-152062215D01*
X246179897Y-152019960D01*
X246178082Y-151944451D01*
X246180118Y-151865168D01*
X246185515Y-151777047D01*
X246194959Y-151727556D01*
X246214099Y-151704499D01*
X246248588Y-151695679D01*
X246259241Y-151694387D01*
X246338616Y-151702845D01*
G37*
G36*
X248351958Y-152671775D02*
G01*
X248396248Y-152694901D01*
X248411746Y-152744443D01*
X248412413Y-152766848D01*
X248412318Y-152846725D01*
X248361936Y-152764092D01*
X248324093Y-152706346D01*
X248295399Y-152685409D01*
X248259450Y-152694125D01*
X248232859Y-152707779D01*
X248199257Y-152741098D01*
X248185094Y-152802508D01*
X248183679Y-152845540D01*
X248187080Y-152923989D01*
X248195583Y-152985039D01*
X248199112Y-152997198D01*
X248234554Y-153030839D01*
X248290231Y-153033757D01*
X248347262Y-153007722D01*
X248372928Y-152980907D01*
X248402096Y-152947560D01*
X248412418Y-152959302D01*
X248412508Y-152963109D01*
X248391211Y-153018194D01*
X248337208Y-153052634D01*
X248265334Y-153063838D01*
X248190421Y-153049212D01*
X248132828Y-153011990D01*
X248093248Y-152940904D01*
X248082981Y-152850209D01*
X248104441Y-152763448D01*
X248106866Y-152758738D01*
X248155545Y-152712162D01*
X248232503Y-152679035D01*
X248315471Y-152667260D01*
X248351958Y-152671775D01*
G37*
G36*
X250901103Y-151188312D02*
G01*
X250949414Y-151218336D01*
X250973942Y-151283364D01*
X250980476Y-151384879D01*
X250980476Y-151531321D01*
X250885131Y-151532590D01*
X250809521Y-151526939D01*
X250750325Y-151511438D01*
X250745291Y-151508899D01*
X250709508Y-151463613D01*
X250704900Y-151417898D01*
X250784145Y-151417898D01*
X250788899Y-151434179D01*
X250826292Y-151455555D01*
X250872523Y-151446888D01*
X250896811Y-151419677D01*
X250887632Y-151388313D01*
X250849648Y-151373644D01*
X250804168Y-151383739D01*
X250803291Y-151384272D01*
X250784145Y-151417898D01*
X250704900Y-151417898D01*
X250703092Y-151399959D01*
X250728057Y-151342436D01*
X250731307Y-151338997D01*
X250778158Y-151316186D01*
X250833009Y-151308486D01*
X250889603Y-151300167D01*
X250901317Y-151281540D01*
X250870106Y-151262106D01*
X250821567Y-151252890D01*
X250757776Y-151237925D01*
X250742088Y-151215728D01*
X250774289Y-151194920D01*
X250823228Y-151185981D01*
X250901103Y-151188312D01*
G37*
G36*
X251250700Y-152715724D02*
G01*
X251299738Y-152738095D01*
X251322939Y-152764336D01*
X251355587Y-152842522D01*
X251355126Y-152923050D01*
X251327094Y-152993530D01*
X251277033Y-153041574D01*
X251210481Y-153054790D01*
X251194389Y-153051847D01*
X251148920Y-153047797D01*
X251133924Y-153076772D01*
X251133029Y-153100494D01*
X251119852Y-153151980D01*
X251094890Y-153164542D01*
X251076171Y-153155550D01*
X251064561Y-153122752D01*
X251058583Y-153057415D01*
X251056763Y-152950806D01*
X251056752Y-152938938D01*
X251056752Y-152854480D01*
X251137433Y-152854480D01*
X251143217Y-152917890D01*
X251172244Y-152963500D01*
X251212314Y-152983993D01*
X251251229Y-152972051D01*
X251272868Y-152935713D01*
X251278773Y-152868602D01*
X251272398Y-152832530D01*
X251240338Y-152792589D01*
X251194188Y-152787949D01*
X251153160Y-152815485D01*
X251137433Y-152854480D01*
X251056752Y-152854480D01*
X251056752Y-152713334D01*
X251170386Y-152711053D01*
X251250700Y-152715724D01*
G37*
G36*
X253349515Y-151952354D02*
G01*
X253415312Y-151990127D01*
X253441646Y-152026858D01*
X253462685Y-152091791D01*
X253446106Y-152129593D01*
X253387316Y-152145795D01*
X253341421Y-152147525D01*
X253271975Y-152153490D01*
X253248700Y-152172160D01*
X253249820Y-152179307D01*
X253280423Y-152203484D01*
X253327260Y-152212252D01*
X253391273Y-152221807D01*
X253417668Y-152243759D01*
X253400184Y-152272262D01*
X253395155Y-152275646D01*
X253318468Y-152298368D01*
X253243490Y-152271111D01*
X253217914Y-152249227D01*
X253179198Y-152181105D01*
X253168019Y-152096197D01*
X253178943Y-152045824D01*
X253256052Y-152045824D01*
X253265053Y-152064677D01*
X253305402Y-152071249D01*
X253353897Y-152062729D01*
X253370466Y-152045824D01*
X253349238Y-152024961D01*
X253321116Y-152020398D01*
X253272443Y-152032073D01*
X253256052Y-152045824D01*
X253178943Y-152045824D01*
X253185185Y-152017042D01*
X253208390Y-151982703D01*
X253274020Y-151948645D01*
X253349515Y-151952354D01*
G37*
G36*
X243015788Y-150673821D02*
G01*
X243068818Y-150679058D01*
X243091946Y-150692052D01*
X243095642Y-150716294D01*
X243094006Y-150730058D01*
X243065093Y-150781479D01*
X243029575Y-150795272D01*
X243003509Y-150802170D01*
X242986578Y-150820402D01*
X242976351Y-150859684D01*
X242970395Y-150929735D01*
X242966278Y-151040272D01*
X242966012Y-151049231D01*
X242961007Y-151167091D01*
X242953311Y-151242710D01*
X242941339Y-151284689D01*
X242923512Y-151301626D01*
X242919376Y-151302714D01*
X242874170Y-151299530D01*
X242862169Y-151292415D01*
X242854387Y-151260683D01*
X242848326Y-151190391D01*
X242844845Y-151093821D01*
X242844340Y-151037282D01*
X242843546Y-150926190D01*
X242839806Y-150856428D01*
X242831081Y-150818484D01*
X242815334Y-150802845D01*
X242793489Y-150799978D01*
X242753614Y-150785080D01*
X242742638Y-150736414D01*
X242745220Y-150703332D01*
X242760316Y-150684333D01*
X242798953Y-150675515D01*
X242872159Y-150672981D01*
X242922385Y-150672851D01*
X243015788Y-150673821D01*
G37*
G36*
X250780567Y-152713360D02*
G01*
X250817792Y-152739558D01*
X250826660Y-152751379D01*
X250849950Y-152782337D01*
X250869351Y-152768549D01*
X250880038Y-152751379D01*
X250918460Y-152714503D01*
X250943601Y-152706885D01*
X250972466Y-152711484D01*
X250976523Y-152732923D01*
X250955509Y-152782667D01*
X250941231Y-152810726D01*
X250917431Y-152866081D01*
X250921411Y-152907398D01*
X250953944Y-152959585D01*
X250993996Y-153020688D01*
X251002519Y-153051970D01*
X250980841Y-153062422D01*
X250969205Y-153062841D01*
X250928366Y-153043729D01*
X250892929Y-153006332D01*
X250853349Y-152949824D01*
X250813769Y-153006332D01*
X250771649Y-153051497D01*
X250739211Y-153060405D01*
X250726222Y-153030375D01*
X250726222Y-153030360D01*
X250739889Y-152986869D01*
X250767993Y-152938242D01*
X250794523Y-152892379D01*
X250792170Y-152853905D01*
X250767993Y-152807891D01*
X250739066Y-152754675D01*
X250726257Y-152722712D01*
X250726222Y-152722031D01*
X250743220Y-152705524D01*
X250780567Y-152713360D01*
G37*
G36*
X251607260Y-152716667D02*
G01*
X251672285Y-152755501D01*
X251711986Y-152822312D01*
X251717813Y-152865095D01*
X251708332Y-152893427D01*
X251671881Y-152906950D01*
X251600286Y-152910288D01*
X251530717Y-152912250D01*
X251503032Y-152920930D01*
X251508324Y-152940518D01*
X251515767Y-152950061D01*
X251569531Y-152978106D01*
X251607869Y-152975002D01*
X251654333Y-152978027D01*
X251668592Y-153005181D01*
X251645755Y-153037703D01*
X251626745Y-153047408D01*
X251549447Y-153061053D01*
X251484015Y-153030658D01*
X251463559Y-153011990D01*
X251423621Y-152942464D01*
X251413911Y-152858151D01*
X251427261Y-152808586D01*
X251501697Y-152808586D01*
X251510699Y-152827440D01*
X251551048Y-152834012D01*
X251599543Y-152825492D01*
X251616112Y-152808586D01*
X251594884Y-152787724D01*
X251566761Y-152783161D01*
X251518088Y-152794836D01*
X251501697Y-152808586D01*
X251427261Y-152808586D01*
X251434785Y-152780652D01*
X251459205Y-152748963D01*
X251531403Y-152712318D01*
X251607260Y-152716667D01*
G37*
G36*
X252223299Y-151188340D02*
G01*
X252271631Y-151218460D01*
X252296131Y-151283638D01*
X252302598Y-151384409D01*
X252302598Y-151530381D01*
X252204253Y-151530381D01*
X252128870Y-151524555D01*
X252070755Y-151510227D01*
X252064413Y-151507159D01*
X252030913Y-151463256D01*
X252027542Y-151425621D01*
X252099195Y-151425621D01*
X252118810Y-151453028D01*
X252161704Y-151460062D01*
X252203946Y-151445249D01*
X252215366Y-151432771D01*
X252214309Y-151399374D01*
X252181366Y-151376291D01*
X252135439Y-151376338D01*
X252133282Y-151377122D01*
X252102117Y-151410193D01*
X252099195Y-151425621D01*
X252027542Y-151425621D01*
X252025293Y-151400507D01*
X252049166Y-151343607D01*
X252053429Y-151338997D01*
X252100280Y-151316186D01*
X252155131Y-151308486D01*
X252211725Y-151300167D01*
X252223439Y-151281540D01*
X252192228Y-151262106D01*
X252143689Y-151252890D01*
X252079898Y-151237925D01*
X252064210Y-151215728D01*
X252096411Y-151194920D01*
X252145350Y-151185981D01*
X252223299Y-151188340D01*
G37*
G36*
X253885740Y-152709867D02*
G01*
X253938287Y-152728072D01*
X253950166Y-152737395D01*
X253967111Y-152778429D01*
X253978189Y-152851460D01*
X253980676Y-152909970D01*
X253980676Y-153052035D01*
X253879426Y-153056073D01*
X253794520Y-153048294D01*
X253739586Y-153021521D01*
X253702552Y-152957993D01*
X253704244Y-152943424D01*
X253784346Y-152943424D01*
X253789099Y-152959704D01*
X253826492Y-152981081D01*
X253872723Y-152972413D01*
X253897011Y-152945202D01*
X253887832Y-152913838D01*
X253849848Y-152899170D01*
X253804368Y-152909265D01*
X253803492Y-152909798D01*
X253784346Y-152943424D01*
X253704244Y-152943424D01*
X253709572Y-152897549D01*
X253754643Y-152852215D01*
X253831761Y-152834017D01*
X253833209Y-152834012D01*
X253884525Y-152826165D01*
X253904400Y-152808586D01*
X253882306Y-152790734D01*
X253829073Y-152783163D01*
X253828124Y-152783161D01*
X253767568Y-152771790D01*
X253751847Y-152745023D01*
X253773173Y-152719087D01*
X253824253Y-152707120D01*
X253885740Y-152709867D01*
G37*
G36*
X254278802Y-151964074D02*
G01*
X254336724Y-152016802D01*
X254361861Y-152094437D01*
X254362058Y-152102332D01*
X254352577Y-152130664D01*
X254316125Y-152144188D01*
X254244530Y-152147525D01*
X254174961Y-152149487D01*
X254147276Y-152158167D01*
X254152569Y-152177755D01*
X254160011Y-152187298D01*
X254213516Y-152215343D01*
X254250555Y-152212630D01*
X254304033Y-152211019D01*
X254324386Y-152231977D01*
X254304083Y-152263340D01*
X254288165Y-152273377D01*
X254208105Y-152298491D01*
X254142186Y-152277240D01*
X254122370Y-152260162D01*
X254073645Y-152183961D01*
X254062200Y-152101283D01*
X254078619Y-152045824D01*
X254158654Y-152045824D01*
X254180458Y-152064774D01*
X254223718Y-152071249D01*
X254266977Y-152063178D01*
X254273069Y-152045824D01*
X254237207Y-152024465D01*
X254208005Y-152020398D01*
X254167511Y-152031335D01*
X254158654Y-152045824D01*
X254078619Y-152045824D01*
X254084632Y-152025513D01*
X254137538Y-151970034D01*
X254201499Y-151949050D01*
X254278802Y-151964074D01*
G37*
G36*
X252152218Y-151961365D02*
G01*
X252170314Y-151976046D01*
X252196238Y-152023960D01*
X252214321Y-152077748D01*
X252222248Y-152119963D01*
X252210371Y-152140403D01*
X252167174Y-152146963D01*
X252112545Y-152147525D01*
X252035836Y-152152241D01*
X252004301Y-152167341D01*
X252003975Y-152179307D01*
X252034577Y-152203484D01*
X252081414Y-152212252D01*
X252145427Y-152221807D01*
X252171822Y-152243759D01*
X252154338Y-152272262D01*
X252149309Y-152275646D01*
X252072623Y-152298368D01*
X251997644Y-152271111D01*
X251972068Y-152249227D01*
X251933684Y-152181834D01*
X251922035Y-152097571D01*
X251932579Y-152045824D01*
X252010206Y-152045824D01*
X252019207Y-152064677D01*
X252059556Y-152071249D01*
X252108052Y-152062729D01*
X252124620Y-152045824D01*
X252103392Y-152024961D01*
X252075270Y-152020398D01*
X252026597Y-152032073D01*
X252010206Y-152045824D01*
X251932579Y-152045824D01*
X251938048Y-152018981D01*
X251961171Y-151984076D01*
X252018288Y-151953399D01*
X252090015Y-151945520D01*
X252152218Y-151961365D01*
G37*
G36*
X252982794Y-152733065D02*
G01*
X252999981Y-152746839D01*
X253031933Y-152803576D01*
X253039936Y-152848541D01*
X253034237Y-152888072D01*
X253007733Y-152905847D01*
X252946310Y-152910258D01*
X252936115Y-152910288D01*
X252866050Y-152916101D01*
X252842004Y-152934356D01*
X252843100Y-152942070D01*
X252873767Y-152966028D01*
X252919235Y-152973852D01*
X252982078Y-152982749D01*
X253009896Y-153004901D01*
X252995394Y-153033493D01*
X252988348Y-153038408D01*
X252909198Y-153061472D01*
X252831115Y-153039029D01*
X252797250Y-153010725D01*
X252761836Y-152941570D01*
X252751329Y-152855106D01*
X252760475Y-152808586D01*
X252836532Y-152808586D01*
X252858336Y-152827537D01*
X252901596Y-152834012D01*
X252944855Y-152825941D01*
X252950947Y-152808586D01*
X252915085Y-152787227D01*
X252885882Y-152783161D01*
X252845389Y-152794098D01*
X252836532Y-152808586D01*
X252760475Y-152808586D01*
X252766973Y-152775531D01*
X252783709Y-152747399D01*
X252839763Y-152714590D01*
X252914168Y-152709792D01*
X252982794Y-152733065D01*
G37*
G36*
X253626893Y-151198603D02*
G01*
X253644988Y-151213283D01*
X253670912Y-151261197D01*
X253688996Y-151314985D01*
X253696922Y-151357200D01*
X253685045Y-151377640D01*
X253641849Y-151384201D01*
X253587220Y-151384763D01*
X253510511Y-151389478D01*
X253478976Y-151404578D01*
X253478649Y-151416544D01*
X253509252Y-151440721D01*
X253556088Y-151449489D01*
X253620102Y-151459044D01*
X253646497Y-151480996D01*
X253629012Y-151509499D01*
X253623984Y-151512883D01*
X253547297Y-151535605D01*
X253472319Y-151508348D01*
X253446742Y-151486464D01*
X253408358Y-151419072D01*
X253396710Y-151334808D01*
X253407254Y-151283061D01*
X253484880Y-151283061D01*
X253493882Y-151301914D01*
X253534231Y-151308486D01*
X253582726Y-151299966D01*
X253599295Y-151283061D01*
X253578067Y-151262198D01*
X253549945Y-151257635D01*
X253501271Y-151269311D01*
X253484880Y-151283061D01*
X253407254Y-151283061D01*
X253412723Y-151256218D01*
X253435846Y-151221313D01*
X253492963Y-151190636D01*
X253564690Y-151182757D01*
X253626893Y-151198603D01*
G37*
G36*
X241287805Y-150969836D02*
G01*
X241280676Y-151295774D01*
X241128124Y-151300020D01*
X241021337Y-151295886D01*
X240934764Y-151279325D01*
X240907711Y-151268506D01*
X240847684Y-151212253D01*
X240806278Y-151128186D01*
X240797255Y-151069915D01*
X240931077Y-151069915D01*
X240950762Y-151135469D01*
X240999025Y-151174439D01*
X241059679Y-151183122D01*
X241116537Y-151157818D01*
X241144988Y-151118837D01*
X241159718Y-151060977D01*
X241139444Y-151004908D01*
X241131144Y-150991710D01*
X241075828Y-150939558D01*
X241016839Y-150931197D01*
X240966030Y-150961991D01*
X240935254Y-151027310D01*
X240931077Y-151069915D01*
X240797255Y-151069915D01*
X240792374Y-151038396D01*
X240798760Y-150997424D01*
X240846779Y-150905497D01*
X240919520Y-150842114D01*
X241004818Y-150814852D01*
X241075809Y-150824847D01*
X241116819Y-150836101D01*
X241136131Y-150820290D01*
X241144694Y-150766367D01*
X241145729Y-150754297D01*
X241156285Y-150690644D01*
X241181901Y-150661573D01*
X241224242Y-150652018D01*
X241294935Y-150643898D01*
X241287805Y-150969836D01*
G37*
G36*
X241584387Y-151705681D02*
G01*
X241632722Y-151750874D01*
X241638430Y-151822077D01*
X241624900Y-151865477D01*
X241609759Y-151951709D01*
X241622771Y-152004666D01*
X241643898Y-152064154D01*
X241644509Y-152090157D01*
X241622663Y-152096522D01*
X241609884Y-152096674D01*
X241574899Y-152075063D01*
X241544697Y-152022820D01*
X241543833Y-152020398D01*
X241518990Y-151967574D01*
X241495269Y-151944186D01*
X241494305Y-151944122D01*
X241478196Y-151966226D01*
X241471369Y-152019481D01*
X241471367Y-152020398D01*
X241459996Y-152080954D01*
X241433229Y-152096674D01*
X241413660Y-152087094D01*
X241401917Y-152052333D01*
X241396305Y-151983364D01*
X241395091Y-151893271D01*
X241395091Y-151810638D01*
X241475955Y-151810638D01*
X241482119Y-151857259D01*
X241509505Y-151867846D01*
X241540975Y-151850295D01*
X241543055Y-151810638D01*
X241527094Y-151765926D01*
X241509505Y-151753431D01*
X241486562Y-151775056D01*
X241475955Y-151810638D01*
X241395091Y-151810638D01*
X241395091Y-151689868D01*
X241495898Y-151689868D01*
X241584387Y-151705681D01*
G37*
G36*
X242153097Y-151696490D02*
G01*
X242175105Y-151723725D01*
X242193238Y-151782622D01*
X242206846Y-151848777D01*
X242224795Y-151939644D01*
X242240876Y-152014871D01*
X242250005Y-152052180D01*
X242244667Y-152087216D01*
X242214679Y-152096940D01*
X242180350Y-152079798D01*
X242167048Y-152058536D01*
X242135035Y-152024745D01*
X242116995Y-152020398D01*
X242085662Y-152040809D01*
X242081577Y-152058536D01*
X242060650Y-152090316D01*
X242034953Y-152096674D01*
X242012533Y-152093791D01*
X242001613Y-152078447D01*
X242001805Y-152040604D01*
X242012720Y-151970222D01*
X242027095Y-151893271D01*
X242029702Y-151880558D01*
X242107003Y-151880558D01*
X242114506Y-151928358D01*
X242128902Y-151944122D01*
X242141136Y-151922968D01*
X242138651Y-151880558D01*
X242126232Y-151832921D01*
X242116751Y-151816995D01*
X242109414Y-151838820D01*
X242107003Y-151880558D01*
X242029702Y-151880558D01*
X242047888Y-151791855D01*
X242065708Y-151730825D01*
X242085140Y-151700281D01*
X242110767Y-151690324D01*
X242121262Y-151689868D01*
X242153097Y-151696490D01*
G37*
G36*
X243882026Y-151696490D02*
G01*
X243904034Y-151723725D01*
X243922167Y-151782622D01*
X243935775Y-151848777D01*
X243953724Y-151939644D01*
X243969805Y-152014871D01*
X243978934Y-152052180D01*
X243973596Y-152087216D01*
X243943608Y-152096940D01*
X243909279Y-152079798D01*
X243895977Y-152058536D01*
X243863964Y-152024745D01*
X243845924Y-152020398D01*
X243814591Y-152040809D01*
X243810506Y-152058536D01*
X243789579Y-152090316D01*
X243763882Y-152096674D01*
X243741462Y-152093791D01*
X243730542Y-152078447D01*
X243730734Y-152040604D01*
X243741649Y-151970222D01*
X243756024Y-151893271D01*
X243758630Y-151880558D01*
X243835932Y-151880558D01*
X243843435Y-151928358D01*
X243857831Y-151944122D01*
X243870065Y-151922968D01*
X243867580Y-151880558D01*
X243855161Y-151832921D01*
X243845680Y-151816995D01*
X243838343Y-151838820D01*
X243835932Y-151880558D01*
X243758630Y-151880558D01*
X243776816Y-151791855D01*
X243794637Y-151730825D01*
X243814069Y-151700281D01*
X243839696Y-151690324D01*
X243850191Y-151689868D01*
X243882026Y-151696490D01*
G37*
G36*
X252734830Y-152134811D02*
G01*
X252730875Y-152248387D01*
X252717897Y-152321115D01*
X252694876Y-152361825D01*
X252640319Y-152394377D01*
X252582467Y-152399438D01*
X252544140Y-152376354D01*
X252549299Y-152354101D01*
X252564951Y-152350929D01*
X252609909Y-152332902D01*
X252636172Y-152309123D01*
X252656334Y-152279792D01*
X252637508Y-152278381D01*
X252614821Y-152285106D01*
X252540661Y-152287229D01*
X252482108Y-152250308D01*
X252445783Y-152185351D01*
X252438306Y-152103381D01*
X252531427Y-152103381D01*
X252538612Y-152180419D01*
X252563467Y-152215787D01*
X252606463Y-152217976D01*
X252636907Y-152188371D01*
X252645841Y-152121752D01*
X252639594Y-152059438D01*
X252614707Y-152031504D01*
X252588634Y-152024986D01*
X252549729Y-152026326D01*
X252533946Y-152054490D01*
X252531427Y-152103381D01*
X252438306Y-152103381D01*
X252438304Y-152103363D01*
X252459976Y-152027660D01*
X252488149Y-151983306D01*
X252528618Y-151961295D01*
X252599184Y-151952939D01*
X252614350Y-151952293D01*
X252734830Y-151947751D01*
X252734830Y-152134811D01*
G37*
G36*
X247014020Y-151694114D02*
G01*
X247029205Y-151713673D01*
X247036795Y-151758773D01*
X247039348Y-151839642D01*
X247039535Y-151893271D01*
X247038473Y-151994615D01*
X247033584Y-152055353D01*
X247022309Y-152085714D01*
X247002091Y-152095926D01*
X246988684Y-152096674D01*
X246953637Y-152086720D01*
X246939496Y-152047859D01*
X246937833Y-152007685D01*
X246929563Y-151941868D01*
X246903169Y-151918857D01*
X246899695Y-151918696D01*
X246871488Y-151937994D01*
X246861626Y-151999581D01*
X246861557Y-152007685D01*
X246853287Y-152073503D01*
X246826892Y-152096514D01*
X246823419Y-152096674D01*
X246803851Y-152087094D01*
X246792107Y-152052333D01*
X246786495Y-151983364D01*
X246785281Y-151893271D01*
X246787077Y-151788907D01*
X246793595Y-151726273D01*
X246806527Y-151696343D01*
X246823419Y-151689868D01*
X246853697Y-151712609D01*
X246861557Y-151766144D01*
X246872928Y-151826700D01*
X246899695Y-151842420D01*
X246929973Y-151819679D01*
X246937833Y-151766144D01*
X246945825Y-151710312D01*
X246975558Y-151690655D01*
X246988684Y-151689868D01*
X247014020Y-151694114D01*
G37*
G36*
X251123208Y-151073029D02*
G01*
X251132870Y-151116019D01*
X251133029Y-151126903D01*
X251138843Y-151176572D01*
X251166980Y-151190857D01*
X251206165Y-151187243D01*
X251275588Y-151198643D01*
X251328020Y-151246281D01*
X251357837Y-151316831D01*
X251359419Y-151396968D01*
X251327144Y-151473368D01*
X251326975Y-151473599D01*
X251284528Y-151501758D01*
X251216190Y-151522296D01*
X251142975Y-151531598D01*
X251085900Y-151526048D01*
X251070979Y-151517641D01*
X251064409Y-151487282D01*
X251059446Y-151419045D01*
X251056997Y-151328955D01*
X251137433Y-151328955D01*
X251143217Y-151392365D01*
X251172244Y-151437975D01*
X251212314Y-151458467D01*
X251251229Y-151446525D01*
X251272868Y-151410188D01*
X251278773Y-151343077D01*
X251272398Y-151307004D01*
X251240338Y-151267064D01*
X251194188Y-151262424D01*
X251153160Y-151289960D01*
X251137433Y-151328955D01*
X251056997Y-151328955D01*
X251056914Y-151325894D01*
X251056752Y-151294256D01*
X251058930Y-151184505D01*
X251066502Y-151116329D01*
X251081023Y-151080599D01*
X251094890Y-151070463D01*
X251123208Y-151073029D01*
G37*
G36*
X240969786Y-151701845D02*
G01*
X241022723Y-151736988D01*
X241039135Y-151781970D01*
X241022631Y-151812208D01*
X240987731Y-151812654D01*
X240956349Y-151784510D01*
X240953046Y-151777245D01*
X240931031Y-151746582D01*
X240909842Y-151759377D01*
X240893648Y-151808348D01*
X240886623Y-151886212D01*
X240886582Y-151893271D01*
X240892776Y-151974373D01*
X240908647Y-152025084D01*
X240930126Y-152038785D01*
X240953147Y-152008855D01*
X240954900Y-152004465D01*
X240956031Y-151962440D01*
X240942007Y-151949884D01*
X240912357Y-151927728D01*
X240924572Y-151904783D01*
X240971374Y-151893326D01*
X240975571Y-151893271D01*
X241016524Y-151898822D01*
X241034726Y-151925005D01*
X241039112Y-151986116D01*
X241039135Y-151994973D01*
X241039135Y-152096674D01*
X240936635Y-152096674D01*
X240861306Y-152088232D01*
X240822390Y-152065304D01*
X240820912Y-152062215D01*
X240815132Y-152019960D01*
X240813317Y-151944451D01*
X240815354Y-151865168D01*
X240820750Y-151777047D01*
X240830194Y-151727556D01*
X240849335Y-151704499D01*
X240883823Y-151695679D01*
X240894476Y-151694387D01*
X240969786Y-151701845D01*
G37*
G36*
X244141037Y-149956137D02*
G01*
X244142799Y-150079857D01*
X244148976Y-150162290D01*
X244160899Y-150212909D01*
X244179901Y-150241185D01*
X244181306Y-150242387D01*
X244230291Y-150262064D01*
X244263939Y-150249154D01*
X244284264Y-150226768D01*
X244298051Y-150183770D01*
X244306924Y-150110836D01*
X244312509Y-149998643D01*
X244313548Y-149964592D01*
X244317256Y-149848231D01*
X244322165Y-149773492D01*
X244330772Y-149731164D01*
X244345575Y-149712034D01*
X244369072Y-149706891D01*
X244383468Y-149706684D01*
X244446142Y-149706684D01*
X244446142Y-149997231D01*
X244445658Y-150122779D01*
X244442864Y-150207797D01*
X244435746Y-150262606D01*
X244422289Y-150297528D01*
X244400479Y-150322882D01*
X244379149Y-150340475D01*
X244283907Y-150385786D01*
X244180903Y-150386421D01*
X244085799Y-150342708D01*
X244075251Y-150334145D01*
X244045077Y-150305822D01*
X244025235Y-150275723D01*
X244013426Y-150232980D01*
X244007346Y-150166723D01*
X244004694Y-150066085D01*
X244003913Y-149997259D01*
X244001197Y-149719397D01*
X244071117Y-149711352D01*
X244141037Y-149703307D01*
X244141037Y-149956137D01*
G37*
G36*
X248640914Y-148613096D02*
G01*
X248641107Y-148613391D01*
X248656658Y-148639906D01*
X248661033Y-148664889D01*
X248650074Y-148697346D01*
X248619622Y-148746282D01*
X248565520Y-148820704D01*
X248513304Y-148890193D01*
X248276629Y-149162682D01*
X248006164Y-149397837D01*
X247704211Y-149594147D01*
X247373068Y-149750102D01*
X247039535Y-149857959D01*
X246876221Y-149889870D01*
X246678099Y-149912380D01*
X246460425Y-149924997D01*
X246238453Y-149927230D01*
X246027441Y-149918589D01*
X245842644Y-149898581D01*
X245831827Y-149896863D01*
X245693533Y-149869543D01*
X245605460Y-149840738D01*
X245571480Y-149816815D01*
X245549948Y-149778572D01*
X245549304Y-149764617D01*
X245576785Y-149763374D01*
X245644262Y-149767101D01*
X245741201Y-149775065D01*
X245842757Y-149785021D01*
X246221643Y-149799930D01*
X246604235Y-149767469D01*
X246981087Y-149689303D01*
X247342751Y-149567094D01*
X247513173Y-149490853D01*
X247849456Y-149300548D01*
X248153567Y-149073736D01*
X248421604Y-148813535D01*
X248546860Y-148664242D01*
X248592115Y-148611435D01*
X248620136Y-148596183D01*
X248640914Y-148613096D01*
G37*
G36*
X242027985Y-150686376D02*
G01*
X242111718Y-150746449D01*
X242172933Y-150833183D01*
X242202713Y-150944299D01*
X242201598Y-151023400D01*
X242165820Y-151145217D01*
X242091944Y-151234655D01*
X241983918Y-151287932D01*
X241912318Y-151300373D01*
X241815599Y-151300174D01*
X241740784Y-151276516D01*
X241708068Y-151257193D01*
X241634647Y-151184238D01*
X241583843Y-151090833D01*
X241558830Y-151017388D01*
X241555457Y-150977956D01*
X241700196Y-150977956D01*
X241720503Y-151071727D01*
X241773536Y-151138756D01*
X241847458Y-151173810D01*
X241930433Y-151171659D01*
X242010627Y-151127070D01*
X242019169Y-151118951D01*
X242071159Y-151037031D01*
X242081577Y-150977956D01*
X242060836Y-150897479D01*
X242008214Y-150827055D01*
X241938112Y-150782421D01*
X241895471Y-150774552D01*
X241805932Y-150797498D01*
X241737900Y-150858480D01*
X241702687Y-150945717D01*
X241700196Y-150977956D01*
X241555457Y-150977956D01*
X241554226Y-150963561D01*
X241570007Y-150902406D01*
X241583642Y-150865604D01*
X241646212Y-150758223D01*
X241730848Y-150688886D01*
X241828633Y-150655318D01*
X241930651Y-150655240D01*
X242027985Y-150686376D01*
G37*
G36*
X253740829Y-151947918D02*
G01*
X253846542Y-151949594D01*
X253912634Y-151954557D01*
X253950335Y-151965925D01*
X253970875Y-151986819D01*
X253983595Y-152015361D01*
X254000142Y-152087482D01*
X254002548Y-152166132D01*
X253992465Y-152235448D01*
X253971547Y-152279569D01*
X253955251Y-152287365D01*
X253930547Y-152272058D01*
X253915736Y-152220645D01*
X253909372Y-152152284D01*
X253901982Y-152072846D01*
X253888819Y-152033729D01*
X253865673Y-152024427D01*
X253858521Y-152025395D01*
X253830823Y-152044206D01*
X253814811Y-152094433D01*
X253807726Y-152166833D01*
X253798033Y-152251863D01*
X253780013Y-152293281D01*
X253763231Y-152300078D01*
X253739881Y-152285086D01*
X253728535Y-152234424D01*
X253726422Y-152172153D01*
X253721081Y-152086544D01*
X253703167Y-152040842D01*
X253685718Y-152028608D01*
X253640091Y-152031864D01*
X253611262Y-152082149D01*
X253599851Y-152178284D01*
X253599684Y-152192020D01*
X253592673Y-152270301D01*
X253572206Y-152299874D01*
X253539969Y-152283128D01*
X253531122Y-152250592D01*
X253524988Y-152182765D01*
X253523019Y-152106144D01*
X253523019Y-151946111D01*
X253740829Y-151947918D01*
G37*
G36*
X245647493Y-152503623D02*
G01*
X245780900Y-152513744D01*
X245882441Y-152542069D01*
X245945245Y-152586119D01*
X245960918Y-152616668D01*
X245961702Y-152686059D01*
X245948105Y-152728829D01*
X245904363Y-152769366D01*
X245829033Y-152805271D01*
X245741287Y-152828830D01*
X245687024Y-152833870D01*
X245658864Y-152846222D01*
X245642995Y-152890143D01*
X245636173Y-152954554D01*
X245625816Y-153033999D01*
X245605042Y-153073802D01*
X245583930Y-153083545D01*
X245564811Y-153082828D01*
X245552081Y-153066586D01*
X245544466Y-153026639D01*
X245540692Y-152954806D01*
X245539487Y-152842904D01*
X245539435Y-152797738D01*
X245539435Y-152668747D01*
X245641137Y-152668747D01*
X245644028Y-152739613D01*
X245657236Y-152773182D01*
X245687558Y-152782889D01*
X245699043Y-152783161D01*
X245764659Y-152768584D01*
X245813457Y-152743581D01*
X245861535Y-152689536D01*
X245865044Y-152634612D01*
X245829238Y-152588098D01*
X245759373Y-152559280D01*
X245706372Y-152554332D01*
X245666147Y-152558838D01*
X245647089Y-152581462D01*
X245641409Y-152635870D01*
X245641137Y-152668747D01*
X245539435Y-152668747D01*
X245539435Y-152503481D01*
X245647493Y-152503623D01*
G37*
G36*
X247973248Y-152713580D02*
G01*
X247981118Y-152720360D01*
X248026665Y-152773668D01*
X248025291Y-152809701D01*
X247976363Y-152829393D01*
X247904000Y-152834012D01*
X247828483Y-152836152D01*
X247790806Y-152846754D01*
X247778006Y-152872086D01*
X247776872Y-152895496D01*
X247787069Y-152980214D01*
X247821276Y-153025031D01*
X247880482Y-153037415D01*
X247946545Y-153020880D01*
X247991159Y-152967495D01*
X248017724Y-152928530D01*
X248029786Y-152933575D01*
X248030109Y-152938129D01*
X248010291Y-152999400D01*
X247956877Y-153040582D01*
X247884220Y-153058519D01*
X247806673Y-153050056D01*
X247738587Y-153012040D01*
X247730454Y-153003995D01*
X247686455Y-152928929D01*
X247681609Y-152850430D01*
X247708162Y-152777274D01*
X247732920Y-152748154D01*
X247780503Y-152748154D01*
X247783301Y-152784952D01*
X247828523Y-152806797D01*
X247853149Y-152808586D01*
X247909990Y-152798763D01*
X247929425Y-152775533D01*
X247909938Y-152721605D01*
X247863252Y-152699515D01*
X247823828Y-152708969D01*
X247780503Y-152748154D01*
X247732920Y-152748154D01*
X247758357Y-152718236D01*
X247824440Y-152682091D01*
X247898655Y-152677614D01*
X247973248Y-152713580D01*
G37*
G36*
X248568061Y-152560311D02*
G01*
X248587222Y-152588019D01*
X248590486Y-152641113D01*
X248593103Y-152698609D01*
X248609936Y-152715925D01*
X248654460Y-152703725D01*
X248664724Y-152699871D01*
X248736572Y-152685445D01*
X248784286Y-152708675D01*
X248810866Y-152773168D01*
X248819310Y-152882532D01*
X248819315Y-152885857D01*
X248824917Y-152982339D01*
X248840986Y-153036792D01*
X248851097Y-153046002D01*
X248852274Y-153055258D01*
X248812640Y-153060672D01*
X248806602Y-153060879D01*
X248730326Y-153062931D01*
X248730326Y-152893502D01*
X248726196Y-152790151D01*
X248712015Y-152732011D01*
X248685094Y-152713980D01*
X248644221Y-152730013D01*
X248618638Y-152769380D01*
X248601266Y-152838173D01*
X248593633Y-152917812D01*
X248597265Y-152989719D01*
X248613689Y-153035313D01*
X248618774Y-153039722D01*
X248629489Y-153055699D01*
X248593054Y-153062205D01*
X248577773Y-153062510D01*
X248501497Y-153062957D01*
X248509753Y-152830388D01*
X248511789Y-152709234D01*
X248507085Y-152630981D01*
X248494882Y-152588031D01*
X248484327Y-152576465D01*
X248475350Y-152560660D01*
X248515266Y-152554781D01*
X248520566Y-152554721D01*
X248568061Y-152560311D01*
G37*
G36*
X242456433Y-150661132D02*
G01*
X242539482Y-150679851D01*
X242610711Y-150705738D01*
X242644941Y-150727706D01*
X242684601Y-150798037D01*
X242684791Y-150876967D01*
X242651763Y-150950837D01*
X242591768Y-151005989D01*
X242511057Y-151028762D01*
X242507143Y-151028807D01*
X242467864Y-151032716D01*
X242446794Y-151052928D01*
X242436802Y-151102174D01*
X242432505Y-151162052D01*
X242422269Y-151249077D01*
X242402631Y-151293444D01*
X242385442Y-151302771D01*
X242340227Y-151299533D01*
X242328235Y-151292415D01*
X242319979Y-151259874D01*
X242314380Y-151189662D01*
X242311340Y-151094045D01*
X242310764Y-150985289D01*
X242312555Y-150875659D01*
X242313508Y-150852597D01*
X242437533Y-150852597D01*
X242449736Y-150892105D01*
X242494228Y-150897127D01*
X242494481Y-150897091D01*
X242542916Y-150873233D01*
X242559908Y-150844472D01*
X242552732Y-150810411D01*
X242506843Y-150800003D01*
X242502961Y-150799978D01*
X242452491Y-150810900D01*
X242437558Y-150849968D01*
X242437533Y-150852597D01*
X242313508Y-150852597D01*
X242316616Y-150777423D01*
X242322851Y-150702845D01*
X242331163Y-150664192D01*
X242333200Y-150661764D01*
X242381145Y-150653723D01*
X242456433Y-150661132D01*
G37*
G36*
X252536177Y-152715379D02*
G01*
X252613643Y-152728968D01*
X252658220Y-152762506D01*
X252678721Y-152823028D01*
X252683956Y-152917570D01*
X252683980Y-152927860D01*
X252680073Y-153011438D01*
X252666767Y-153053385D01*
X252647170Y-153062841D01*
X252622705Y-153045539D01*
X252608006Y-152989038D01*
X252602676Y-152929357D01*
X252595360Y-152850359D01*
X252581673Y-152810118D01*
X252556316Y-152796555D01*
X252544140Y-152795874D01*
X252513783Y-152803046D01*
X252496749Y-152832583D01*
X252487823Y-152896515D01*
X252485546Y-152931014D01*
X252474069Y-153017157D01*
X252455628Y-153054934D01*
X252435188Y-153045411D01*
X252417713Y-152989654D01*
X252409328Y-152914646D01*
X252401647Y-152835868D01*
X252387204Y-152796083D01*
X252360972Y-152783466D01*
X252353449Y-152783161D01*
X252324084Y-152791553D01*
X252307569Y-152824613D01*
X252298879Y-152894169D01*
X252297571Y-152914646D01*
X252285784Y-152995606D01*
X252264694Y-153047476D01*
X252239358Y-153063415D01*
X252214834Y-153036581D01*
X252212179Y-153030142D01*
X252205528Y-152984924D01*
X252203938Y-152909374D01*
X252205809Y-152856407D01*
X252213609Y-152719597D01*
X252417013Y-152714705D01*
X252536177Y-152715379D01*
G37*
G36*
X247187678Y-152667507D02*
G01*
X247241845Y-152690814D01*
X247267770Y-152737109D01*
X247268364Y-152747043D01*
X247257972Y-152797753D01*
X247235022Y-152804111D01*
X247211854Y-152763851D01*
X247210146Y-152757736D01*
X247183507Y-152719295D01*
X247123277Y-152706950D01*
X247116327Y-152706885D01*
X247057700Y-152716964D01*
X247042118Y-152742853D01*
X247066943Y-152778031D01*
X247129533Y-152815976D01*
X247166662Y-152831249D01*
X247241192Y-152864845D01*
X247278066Y-152901272D01*
X247288718Y-152938467D01*
X247274833Y-153005231D01*
X247222691Y-153052431D01*
X247142866Y-153074696D01*
X247045931Y-153066658D01*
X247039535Y-153065024D01*
X246985655Y-153031445D01*
X246967926Y-152979203D01*
X246970431Y-152924468D01*
X246990904Y-152914182D01*
X247021881Y-152948756D01*
X247035637Y-152975449D01*
X247066963Y-153021234D01*
X247115332Y-153034401D01*
X247147776Y-153032656D01*
X247208174Y-153016894D01*
X247230226Y-152989335D01*
X247226309Y-152966989D01*
X247207963Y-152947076D01*
X247165295Y-152923060D01*
X247088409Y-152888406D01*
X247056889Y-152874828D01*
X246992962Y-152840749D01*
X246968162Y-152805346D01*
X246967900Y-152776636D01*
X246995380Y-152721751D01*
X247050480Y-152684351D01*
X247119234Y-152665811D01*
X247187678Y-152667507D01*
G37*
G36*
X252686643Y-148873647D02*
G01*
X252787059Y-148889635D01*
X252842031Y-148916381D01*
X252856534Y-148958035D01*
X252842800Y-149003883D01*
X252819928Y-149041214D01*
X252785869Y-149056280D01*
X252723621Y-149054767D01*
X252698564Y-149052117D01*
X252625937Y-149047105D01*
X252591145Y-149055490D01*
X252582278Y-149079802D01*
X252603104Y-149117312D01*
X252654289Y-149156590D01*
X252664911Y-149162287D01*
X252786443Y-149239396D01*
X252859731Y-149324837D01*
X252887079Y-149421422D01*
X252887383Y-149433717D01*
X252865784Y-149538135D01*
X252807010Y-149616924D01*
X252720096Y-149665677D01*
X252614078Y-149679990D01*
X252497991Y-149655455D01*
X252463586Y-149640373D01*
X252410895Y-149609829D01*
X252395866Y-149578380D01*
X252409107Y-149525848D01*
X252409605Y-149524416D01*
X252434739Y-149472513D01*
X252467226Y-149460514D01*
X252490159Y-149466020D01*
X252585772Y-149487397D01*
X252656376Y-149484748D01*
X252696434Y-149463230D01*
X252700411Y-149428002D01*
X252662770Y-149384221D01*
X252611714Y-149352774D01*
X252498640Y-149277077D01*
X252429715Y-149190723D01*
X252406533Y-149098790D01*
X252430688Y-149006357D01*
X252481743Y-148938843D01*
X252533970Y-148892390D01*
X252581937Y-148871960D01*
X252648112Y-148870402D01*
X252686643Y-148873647D01*
G37*
G36*
X242275563Y-149730828D02*
G01*
X242312373Y-149754622D01*
X242352906Y-149791917D01*
X242356365Y-149818317D01*
X242329064Y-149850743D01*
X242287131Y-149881080D01*
X242245286Y-149871736D01*
X242234064Y-149865096D01*
X242170857Y-149836145D01*
X242137240Y-149841012D01*
X242133987Y-149871618D01*
X242161870Y-149919883D01*
X242221661Y-149977730D01*
X242223180Y-149978924D01*
X242306848Y-150059953D01*
X242364507Y-150147090D01*
X242386665Y-150225884D01*
X242386682Y-150227799D01*
X242369761Y-150272415D01*
X242328593Y-150326348D01*
X242324274Y-150330763D01*
X242242898Y-150379573D01*
X242145010Y-150392790D01*
X242053019Y-150367543D01*
X242050107Y-150365883D01*
X242000894Y-150321744D01*
X241979864Y-150291448D01*
X241968955Y-150248799D01*
X242000016Y-150218151D01*
X242007093Y-150214234D01*
X242057813Y-150199928D01*
X242104550Y-150225735D01*
X242108171Y-150228963D01*
X242161402Y-150256435D01*
X242208988Y-150250164D01*
X242233508Y-150213537D01*
X242234130Y-150204476D01*
X242215586Y-150167723D01*
X242168337Y-150116128D01*
X242134410Y-150086601D01*
X242068162Y-150023215D01*
X242016695Y-149956228D01*
X242003527Y-149931231D01*
X241986149Y-149871795D01*
X241998766Y-149823964D01*
X242023140Y-149787698D01*
X242095218Y-149729197D01*
X242185083Y-149709586D01*
X242275563Y-149730828D01*
G37*
G36*
X244228927Y-150661172D02*
G01*
X244238069Y-150693382D01*
X244241904Y-150756335D01*
X244242732Y-150859276D01*
X244242738Y-150882113D01*
X244245717Y-151012558D01*
X244256461Y-151100035D01*
X244277680Y-151152177D01*
X244312087Y-151176617D01*
X244349041Y-151181359D01*
X244378216Y-151173186D01*
X244398797Y-151143661D01*
X244412624Y-151085281D01*
X244421539Y-150990538D01*
X244427026Y-150863541D01*
X244431380Y-150762037D01*
X244438468Y-150701198D01*
X244451159Y-150670836D01*
X244472319Y-150660767D01*
X244484280Y-150660138D01*
X244507307Y-150663865D01*
X244522564Y-150681092D01*
X244532072Y-150720882D01*
X244537848Y-150792303D01*
X244541912Y-150904420D01*
X244542379Y-150921012D01*
X244544960Y-151039587D01*
X244543476Y-151118900D01*
X244535931Y-151170497D01*
X244520329Y-151205924D01*
X244494672Y-151236729D01*
X244486328Y-151245186D01*
X244402250Y-151296377D01*
X244304444Y-151306862D01*
X244210810Y-151275756D01*
X244188348Y-151259935D01*
X244161792Y-151235188D01*
X244144481Y-151205371D01*
X244134449Y-151159877D01*
X244129735Y-151088101D01*
X244128373Y-150979435D01*
X244128324Y-150935761D01*
X244128820Y-150814502D01*
X244131542Y-150734915D01*
X244138340Y-150687825D01*
X244151064Y-150664053D01*
X244171564Y-150654424D01*
X244185531Y-150652013D01*
X244212180Y-150650464D01*
X244228927Y-150661172D01*
G37*
G36*
X244945932Y-150673785D02*
G01*
X244999149Y-150679228D01*
X245023679Y-150693135D01*
X245030602Y-150719465D01*
X245030927Y-150736414D01*
X245026184Y-150775638D01*
X245002874Y-150794222D01*
X244947372Y-150799735D01*
X244916512Y-150799978D01*
X244840021Y-150805349D01*
X244805772Y-150823093D01*
X244802098Y-150836654D01*
X244824419Y-150864453D01*
X244893172Y-150879692D01*
X244910156Y-150881148D01*
X244978519Y-150889550D01*
X245009889Y-150907617D01*
X245018119Y-150944502D01*
X245018214Y-150952530D01*
X245012341Y-150993169D01*
X244985485Y-151013565D01*
X244923792Y-151022870D01*
X244910156Y-151023912D01*
X244841702Y-151032398D01*
X244810303Y-151050554D01*
X244802166Y-151087303D01*
X244802098Y-151093832D01*
X244806970Y-151131976D01*
X244830588Y-151150184D01*
X244886454Y-151155677D01*
X244918201Y-151155934D01*
X244988930Y-151157936D01*
X245021518Y-151169417D01*
X245028659Y-151198591D01*
X245026259Y-151225854D01*
X245018526Y-151264705D01*
X244998314Y-151286493D01*
X244953054Y-151297231D01*
X244870181Y-151302934D01*
X244864618Y-151303205D01*
X244780225Y-151304380D01*
X244717322Y-151299875D01*
X244692996Y-151292611D01*
X244685949Y-151261480D01*
X244680193Y-151190203D01*
X244676332Y-151089479D01*
X244674971Y-150973718D01*
X244674971Y-150672851D01*
X244852949Y-150672851D01*
X244945932Y-150673785D01*
G37*
G36*
X246235497Y-152680266D02*
G01*
X246271695Y-152697848D01*
X246291709Y-152724694D01*
X246300290Y-152774279D01*
X246302192Y-152860080D01*
X246302198Y-152869402D01*
X246307348Y-152974533D01*
X246322365Y-153035175D01*
X246333980Y-153047969D01*
X246333610Y-153055238D01*
X246293123Y-153054876D01*
X246276772Y-153053358D01*
X246199765Y-153052500D01*
X246136185Y-153063379D01*
X246134425Y-153064018D01*
X246064664Y-153068135D01*
X246020236Y-153053753D01*
X245963120Y-153008081D01*
X245952074Y-152959491D01*
X246049550Y-152959491D01*
X246057822Y-153001060D01*
X246090537Y-153032828D01*
X246138729Y-153030093D01*
X246185800Y-152997814D01*
X246211074Y-152955279D01*
X246226490Y-152895926D01*
X246211290Y-152872069D01*
X246157434Y-152874788D01*
X246141200Y-152877758D01*
X246073337Y-152907351D01*
X246049550Y-152959491D01*
X245952074Y-152959491D01*
X245951464Y-152956810D01*
X245981554Y-152907278D01*
X246049673Y-152866823D01*
X246125159Y-152846566D01*
X246191474Y-152831082D01*
X246219174Y-152808812D01*
X246221009Y-152774326D01*
X246195204Y-152728212D01*
X246143289Y-152711552D01*
X246092809Y-152712639D01*
X246073369Y-152725762D01*
X246059425Y-152761511D01*
X246036039Y-152797370D01*
X246010349Y-152827258D01*
X246000117Y-152817982D01*
X245997901Y-152766921D01*
X246003645Y-152711175D01*
X246032610Y-152683922D01*
X246082944Y-152671013D01*
X246163756Y-152667123D01*
X246235497Y-152680266D01*
G37*
G36*
X249616326Y-148588683D02*
G01*
X249624065Y-148592921D01*
X249630790Y-148603808D01*
X249636573Y-148624475D01*
X249641485Y-148658051D01*
X249645596Y-148707664D01*
X249648979Y-148776445D01*
X249651704Y-148867523D01*
X249653842Y-148984027D01*
X249655464Y-149129087D01*
X249656642Y-149305831D01*
X249657447Y-149517390D01*
X249657949Y-149766892D01*
X249658220Y-150057468D01*
X249658331Y-150392246D01*
X249658354Y-150774356D01*
X249658354Y-150825403D01*
X249658338Y-151213626D01*
X249658241Y-151554127D01*
X249657994Y-151850035D01*
X249657524Y-152104482D01*
X249656761Y-152320594D01*
X249655634Y-152501503D01*
X249654070Y-152650338D01*
X249652000Y-152770227D01*
X249649353Y-152864300D01*
X249646056Y-152935687D01*
X249642039Y-152987516D01*
X249637231Y-153022918D01*
X249631560Y-153045022D01*
X249624956Y-153056957D01*
X249617348Y-153061852D01*
X249608663Y-153062837D01*
X249607503Y-153062841D01*
X249598680Y-153062123D01*
X249590941Y-153057886D01*
X249584216Y-153046998D01*
X249578433Y-153026331D01*
X249573521Y-152992756D01*
X249569410Y-152943142D01*
X249566027Y-152874361D01*
X249563303Y-152783283D01*
X249561165Y-152666779D01*
X249559542Y-152521720D01*
X249558364Y-152344975D01*
X249557560Y-152133416D01*
X249557057Y-151883914D01*
X249556786Y-151593338D01*
X249556675Y-151258560D01*
X249556652Y-150876451D01*
X249556652Y-150825403D01*
X249556669Y-150437181D01*
X249556765Y-150096680D01*
X249557012Y-149800771D01*
X249557482Y-149546325D01*
X249558245Y-149330212D01*
X249559373Y-149149303D01*
X249560936Y-149000469D01*
X249563006Y-148880580D01*
X249565654Y-148786507D01*
X249568950Y-148715120D01*
X249572967Y-148663290D01*
X249577776Y-148627888D01*
X249583446Y-148605785D01*
X249590050Y-148593850D01*
X249597659Y-148588955D01*
X249606343Y-148587970D01*
X249607503Y-148587966D01*
X249616326Y-148588683D01*
G37*
G36*
X243781904Y-150663053D02*
G01*
X243838104Y-150677601D01*
X243885843Y-150712487D01*
X243926874Y-150755110D01*
X243982067Y-150823890D01*
X244007621Y-150887120D01*
X244013909Y-150970633D01*
X244013910Y-150971925D01*
X244005885Y-151058126D01*
X243985591Y-151129989D01*
X243975499Y-151148607D01*
X243953380Y-151197766D01*
X243962649Y-151219244D01*
X243994752Y-151253128D01*
X244014667Y-151284477D01*
X244027164Y-151319491D01*
X244005122Y-151332421D01*
X243968191Y-151333912D01*
X243909681Y-151328575D01*
X243878438Y-151317092D01*
X243845856Y-151307834D01*
X243778299Y-151300841D01*
X243706968Y-151298023D01*
X243617999Y-151294302D01*
X243560222Y-151281106D01*
X243514005Y-151250536D01*
X243465295Y-151200802D01*
X243410557Y-151132958D01*
X243385006Y-151070632D01*
X243378306Y-150987350D01*
X243378274Y-150977956D01*
X243505401Y-150977956D01*
X243526808Y-151060249D01*
X243581376Y-151130903D01*
X243654620Y-151174498D01*
X243696437Y-151181359D01*
X243742884Y-151173294D01*
X243744576Y-151149577D01*
X243713706Y-151104888D01*
X243688284Y-151073301D01*
X243667781Y-151044174D01*
X243680160Y-151031647D01*
X243733905Y-151028821D01*
X243743002Y-151028807D01*
X243803368Y-151034940D01*
X243834698Y-151050103D01*
X243835932Y-151054232D01*
X243855280Y-151078919D01*
X243861357Y-151079657D01*
X243878076Y-151057286D01*
X243886530Y-151002188D01*
X243886782Y-150989513D01*
X243866290Y-150899769D01*
X243813017Y-150825756D01*
X243739268Y-150781345D01*
X243696092Y-150774552D01*
X243619058Y-150797338D01*
X243552833Y-150855398D01*
X243511896Y-150933289D01*
X243505401Y-150977956D01*
X243378274Y-150977956D01*
X243383787Y-150891510D01*
X243407218Y-150828396D01*
X243458905Y-150762145D01*
X243465309Y-150755110D01*
X243520061Y-150700180D01*
X243568036Y-150671858D01*
X243630386Y-150661440D01*
X243696092Y-150660138D01*
X243781904Y-150663053D01*
G37*
D13*
%TO.C,U1*%
X230953000Y-133894000D02*
X230953000Y-135144000D01*
X230953000Y-137144000D02*
X230953000Y-138394000D01*
X230953000Y-138394000D02*
X241233000Y-138394000D01*
X241233000Y-133894000D02*
X230953000Y-133894000D01*
X241233000Y-138394000D02*
X241233000Y-133894000D01*
X230953000Y-135144000D02*
G75*
G02*
X230953000Y-137144000I0J-1000000D01*
G01*
%TO.C,R7*%
X197509000Y-130937000D02*
X198279000Y-130937000D01*
X198279000Y-129567000D02*
X198279000Y-132307000D01*
X198279000Y-132307000D02*
X204819000Y-132307000D01*
X204819000Y-129567000D02*
X198279000Y-129567000D01*
X204819000Y-132307000D02*
X204819000Y-129567000D01*
X205589000Y-130937000D02*
X204819000Y-130937000D01*
%TO.C,RV1*%
X231208000Y-119336000D02*
X240978000Y-119336000D01*
X231208000Y-129106000D02*
X231208000Y-119336000D01*
X231208000Y-129106000D02*
X240978000Y-129106000D01*
X240978000Y-129106000D02*
X240978000Y-119336000D01*
%TO.C,R1*%
X220115000Y-106299000D02*
X220885000Y-106299000D01*
X220885000Y-104929000D02*
X220885000Y-107669000D01*
X220885000Y-107669000D02*
X227425000Y-107669000D01*
X227425000Y-104929000D02*
X220885000Y-104929000D01*
X227425000Y-107669000D02*
X227425000Y-104929000D01*
X228195000Y-106299000D02*
X227425000Y-106299000D01*
D15*
%TO.C,U2*%
X187875000Y-95124000D02*
X238165000Y-95124000D01*
X187875000Y-113664000D02*
X187875000Y-95124000D01*
X238165000Y-95124000D02*
X238165000Y-113664000D01*
X238165000Y-113664000D02*
X187875000Y-113664000D01*
D10*
X229620000Y-94394000D02*
G75*
G02*
X229420000Y-94394000I-100000J0D01*
G01*
X229420000Y-94394000D02*
G75*
G02*
X229620000Y-94394000I100000J0D01*
G01*
D13*
%TO.C,J4*%
X191949000Y-87849000D02*
X191949000Y-90509000D01*
X197089000Y-87849000D02*
X191949000Y-87849000D01*
X197089000Y-87849000D02*
X197089000Y-90509000D01*
X197089000Y-90509000D02*
X191949000Y-90509000D01*
X199689000Y-89179000D02*
X199689000Y-90509000D01*
X199689000Y-90509000D02*
X198359000Y-90509000D01*
%TO.C,J3*%
X225238000Y-115510000D02*
X226568000Y-115510000D01*
X225238000Y-116840000D02*
X225238000Y-115510000D01*
X227838000Y-115510000D02*
X230438000Y-115510000D01*
X227838000Y-118170000D02*
X227838000Y-115510000D01*
X227838000Y-118170000D02*
X230438000Y-118170000D01*
X230438000Y-118170000D02*
X230438000Y-115510000D01*
%TO.C,R5*%
X233831000Y-145542000D02*
X234601000Y-145542000D01*
X234601000Y-144172000D02*
X234601000Y-146912000D01*
X234601000Y-146912000D02*
X241141000Y-146912000D01*
X241141000Y-144172000D02*
X234601000Y-144172000D01*
X241141000Y-146912000D02*
X241141000Y-144172000D01*
X241911000Y-145542000D02*
X241141000Y-145542000D01*
%TO.C,J8*%
X200219000Y-127822000D02*
X200219000Y-126492000D01*
X201549000Y-127822000D02*
X200219000Y-127822000D01*
X202819000Y-125162000D02*
X210499000Y-125162000D01*
X202819000Y-127822000D02*
X202819000Y-125162000D01*
X202819000Y-127822000D02*
X210499000Y-127822000D01*
X210499000Y-127822000D02*
X210499000Y-125162000D01*
%TO.C,J12*%
X251781000Y-128337000D02*
X253111000Y-128337000D01*
X251781000Y-129667000D02*
X251781000Y-128337000D01*
X251781000Y-130937000D02*
X251781000Y-143697000D01*
X251781000Y-130937000D02*
X254441000Y-130937000D01*
X251781000Y-143697000D02*
X254441000Y-143697000D01*
X254441000Y-130937000D02*
X254441000Y-143697000D01*
%TO.C,J5*%
X207585000Y-91500000D02*
X207585000Y-90170000D01*
X208915000Y-91500000D02*
X207585000Y-91500000D01*
X210185000Y-88840000D02*
X222945000Y-88840000D01*
X210185000Y-91500000D02*
X210185000Y-88840000D01*
X210185000Y-91500000D02*
X222945000Y-91500000D01*
X222945000Y-91500000D02*
X222945000Y-88840000D01*
%TO.C,R2*%
X218972000Y-124206000D02*
X219742000Y-124206000D01*
X219742000Y-122836000D02*
X219742000Y-125576000D01*
X219742000Y-125576000D02*
X226282000Y-125576000D01*
X226282000Y-122836000D02*
X219742000Y-122836000D01*
X226282000Y-125576000D02*
X226282000Y-122836000D01*
X227052000Y-124206000D02*
X226282000Y-124206000D01*
%TO.C,R8*%
X200049000Y-134747000D02*
X200819000Y-134747000D01*
X200819000Y-133377000D02*
X200819000Y-136117000D01*
X200819000Y-136117000D02*
X207359000Y-136117000D01*
X207359000Y-133377000D02*
X200819000Y-133377000D01*
X207359000Y-136117000D02*
X207359000Y-133377000D01*
X208129000Y-134747000D02*
X207359000Y-134747000D01*
%TO.C,J13*%
X181804000Y-129286000D02*
X181804000Y-131886000D01*
X181804000Y-129286000D02*
X184464000Y-129286000D01*
X181804000Y-131886000D02*
X184464000Y-131886000D01*
X183134000Y-126686000D02*
X184464000Y-126686000D01*
X184464000Y-126686000D02*
X184464000Y-128016000D01*
X184464000Y-129286000D02*
X184464000Y-131886000D01*
%TO.C,J7*%
X242510000Y-91694000D02*
X242510000Y-94294000D01*
X242510000Y-91694000D02*
X245170000Y-91694000D01*
X242510000Y-94294000D02*
X245170000Y-94294000D01*
X243840000Y-89094000D02*
X245170000Y-89094000D01*
X245170000Y-89094000D02*
X245170000Y-90424000D01*
X245170000Y-91694000D02*
X245170000Y-94294000D01*
%TO.C,R6*%
X217448000Y-145542000D02*
X218218000Y-145542000D01*
X218218000Y-144172000D02*
X218218000Y-146912000D01*
X218218000Y-146912000D02*
X224758000Y-146912000D01*
X224758000Y-144172000D02*
X218218000Y-144172000D01*
X224758000Y-146912000D02*
X224758000Y-144172000D01*
X225528000Y-145542000D02*
X224758000Y-145542000D01*
%TO.C,R4*%
X243994000Y-123476000D02*
X243994000Y-130016000D01*
X243994000Y-130016000D02*
X246734000Y-130016000D01*
X245364000Y-122706000D02*
X245364000Y-123476000D01*
X245364000Y-130786000D02*
X245364000Y-130016000D01*
X246734000Y-123476000D02*
X243994000Y-123476000D01*
X246734000Y-130016000D02*
X246734000Y-123476000D01*
%TO.C,J1*%
X181677000Y-121666000D02*
X181677000Y-116526000D01*
X181677000Y-124266000D02*
X181677000Y-122936000D01*
X183007000Y-124266000D02*
X181677000Y-124266000D01*
X184337000Y-116526000D02*
X181677000Y-116526000D01*
X184337000Y-121666000D02*
X181677000Y-121666000D01*
X184337000Y-121666000D02*
X184337000Y-116526000D01*
%TO.C,R10*%
X193572000Y-92710000D02*
X194342000Y-92710000D01*
X194342000Y-91340000D02*
X194342000Y-94080000D01*
X194342000Y-94080000D02*
X200882000Y-94080000D01*
X200882000Y-91340000D02*
X194342000Y-91340000D01*
X200882000Y-94080000D02*
X200882000Y-91340000D01*
X201652000Y-92710000D02*
X200882000Y-92710000D01*
%TD*%
M02*
