M48
; DRILL file {KiCad 8.0.0} date 2025-05-22T20:12:36+0200
; FORMAT={-:-/ absolute / inch / decimal}
; #@! TF.CreationDate,2025-05-22T20:12:36+02:00
; #@! TF.GenerationSoftware,Kicad,Pcbnew,8.0.0
; #@! TF.FileFunction,Plated,1,2,PTH
FMAT,2
INCH
; #@! TA.AperFunction,Plated,PTH,ViaDrill
T1C0.0236
; #@! TA.AperFunction,Plated,PTH,ComponentDrill
T2C0.0295
; #@! TA.AperFunction,Plated,PTH,ComponentDrill
T3C0.0315
; #@! TA.AperFunction,Plated,PTH,ComponentDrill
T4C0.0394
; #@! TA.AperFunction,Plated,PTH,ComponentDrill
T5C0.0402
; #@! TA.AperFunction,Plated,PTH,ComponentDrill
T6C0.0433
; #@! TA.AperFunction,Plated,PTH,ComponentDrill
T7C0.2087
%
G90
G05
T1
X7.44Y-3.98
X7.49Y-3.51
X7.535Y-4.065
X7.77Y-4.27
X8.26Y-5.51
X8.73Y-3.68
X9.175Y-3.68
T2
X10.17Y-5.105
X10.17Y-5.1837
X10.17Y-5.2625
X10.17Y-5.3412
X10.17Y-5.42
X10.17Y-5.4987
T3
X7.58Y-3.65
X7.735Y-5.155
X7.835Y-5.305
X7.98Y-3.65
X8.135Y-5.155
X8.235Y-5.305
X8.52Y-5.73
X8.58Y-4.89
X8.625Y-4.035
X8.625Y-4.185
X8.92Y-5.2535
X8.92Y-5.352
X8.92Y-5.73
X8.98Y-4.89
X9.025Y-4.035
X9.025Y-4.185
X9.145Y-5.21
X9.145Y-5.51
X9.165Y-5.73
X9.195Y-4.89
X9.245Y-5.21
X9.245Y-5.51
X9.295Y-4.79
X9.345Y-5.21
X9.345Y-5.51
X9.395Y-4.89
X9.445Y-5.21
X9.445Y-5.51
X9.565Y-5.73
X9.66Y-4.79
X9.66Y-5.19
X9.865Y-4.305
X10.265Y-4.305
T4
X7.155Y-4.14
X7.155Y-4.24
X7.205Y-4.925
X7.205Y-5.025
X7.205Y-5.125
X7.6094Y-3.511
X7.7094Y-3.511
X7.8094Y-3.511
X7.935Y-4.98
X8.035Y-4.98
X8.135Y-4.98
X8.225Y-3.55
X8.235Y-4.98
X8.325Y-3.55
X8.425Y-3.55
X8.525Y-3.55
X8.625Y-3.55
X8.725Y-3.55
X8.92Y-4.6
X9.02Y-4.6
X9.6Y-3.56
X9.6Y-3.66
X9.85Y-3.56
X9.85Y-3.66
X9.965Y-5.105
X9.965Y-5.205
X9.965Y-5.305
X9.965Y-5.405
X9.965Y-5.505
X9.965Y-5.605
X10.17Y-4.85
X10.27Y-4.85
T5
X7.625Y-3.81
X7.625Y-4.41
X7.725Y-3.81
X7.725Y-4.41
X7.825Y-3.81
X7.825Y-4.41
X7.925Y-3.81
X7.925Y-4.41
X8.025Y-3.81
X8.025Y-4.41
X8.125Y-3.81
X8.125Y-4.41
X8.225Y-3.81
X8.225Y-4.41
X8.325Y-3.81
X8.325Y-4.41
X8.425Y-3.81
X8.425Y-4.41
X8.525Y-3.81
X8.525Y-4.41
X8.625Y-3.81
X8.625Y-4.41
X8.725Y-3.81
X8.725Y-4.41
X8.825Y-3.81
X8.825Y-4.41
X8.925Y-3.81
X8.925Y-4.41
X9.025Y-3.81
X9.025Y-4.41
T6
X10.065Y-4.575
X10.165Y-4.575
X10.265Y-4.575
T7
X7.25Y-5.8524
X10.24Y-3.61
X10.25Y-5.8268
M30
