%TF.GenerationSoftware,KiCad,Pcbnew,8.0.1*%
%TF.CreationDate,2025-05-23T10:34:10+02:00*%
%TF.ProjectId,Regul_Temp_L432KC,52656775-6c5f-4546-956d-705f4c343332,rev?*%
%TF.SameCoordinates,Original*%
%TF.FileFunction,Soldermask,Bot*%
%TF.FilePolarity,Negative*%
%FSLAX46Y46*%
G04 Gerber Fmt 4.6, Leading zero omitted, Abs format (unit mm)*
G04 Created by KiCad (PCBNEW 8.0.1) date 2025-05-23 10:34:10*
%MOMM*%
%LPD*%
G01*
G04 APERTURE LIST*
G04 Aperture macros list*
%AMRoundRect*
0 Rectangle with rounded corners*
0 $1 Rounding radius*
0 $2 $3 $4 $5 $6 $7 $8 $9 X,Y pos of 4 corners*
0 Add a 4 corners polygon primitive as box body*
4,1,4,$2,$3,$4,$5,$6,$7,$8,$9,$2,$3,0*
0 Add four circle primitives for the rounded corners*
1,1,$1+$1,$2,$3*
1,1,$1+$1,$4,$5*
1,1,$1+$1,$6,$7*
1,1,$1+$1,$8,$9*
0 Add four rect primitives between the rounded corners*
20,1,$1+$1,$2,$3,$4,$5,0*
20,1,$1+$1,$4,$5,$6,$7,0*
20,1,$1+$1,$6,$7,$8,$9,0*
20,1,$1+$1,$8,$9,$2,$3,0*%
G04 Aperture macros list end*
%ADD10R,1.700000X1.700000*%
%ADD11O,1.700000X1.700000*%
%ADD12RoundRect,0.250000X0.625000X-0.350000X0.625000X0.350000X-0.625000X0.350000X-0.625000X-0.350000X0*%
%ADD13O,1.750000X1.200000*%
%ADD14C,1.600000*%
%ADD15O,1.600000X1.600000*%
%ADD16R,1.905000X2.000000*%
%ADD17O,1.905000X2.000000*%
%ADD18R,1.600000X1.600000*%
%ADD19R,1.600000X2.400000*%
%ADD20O,1.600000X2.400000*%
%ADD21C,1.440000*%
%ADD22RoundRect,0.102000X-0.765000X0.765000X-0.765000X-0.765000X0.765000X-0.765000X0.765000X0.765000X0*%
%ADD23C,1.734000*%
%ADD24C,9.200000*%
G04 APERTURE END LIST*
D10*
%TO.C,J9*%
X260858000Y-123190000D03*
D11*
X258318000Y-123190000D03*
%TD*%
D10*
%TO.C,J2*%
X181737000Y-107696000D03*
D11*
X181737000Y-105156000D03*
%TD*%
D12*
%TO.C,J11*%
X258318000Y-139667000D03*
D13*
X258318000Y-137667000D03*
X258318000Y-135667000D03*
X258318000Y-133667000D03*
X258318000Y-131667000D03*
X258318000Y-129667000D03*
%TD*%
D10*
%TO.C,J6*%
X250190000Y-90424000D03*
D11*
X250190000Y-92964000D03*
%TD*%
D14*
%TO.C,R9*%
X260731000Y-109347000D03*
D15*
X250571000Y-109347000D03*
%TD*%
D16*
%TO.C,Q1*%
X255651000Y-116205000D03*
D17*
X258191000Y-116205000D03*
X260731000Y-116205000D03*
%TD*%
D14*
%TO.C,R3*%
X219075000Y-102489000D03*
D15*
X229235000Y-102489000D03*
%TD*%
D18*
%TO.C,C1*%
X226568000Y-133439772D03*
D14*
X226568000Y-135939772D03*
%TD*%
D10*
%TO.C,J14*%
X183134000Y-135763000D03*
D11*
X183134000Y-138303000D03*
X183134000Y-140843000D03*
%TD*%
D19*
%TO.C,U1*%
X232283000Y-139954000D03*
D20*
X234823000Y-139954000D03*
X237363000Y-139954000D03*
X239903000Y-139954000D03*
X239903000Y-132334000D03*
X237363000Y-132334000D03*
X234823000Y-132334000D03*
X232283000Y-132334000D03*
%TD*%
D14*
%TO.C,R7*%
X196469000Y-130937000D03*
D15*
X206629000Y-130937000D03*
%TD*%
D21*
%TO.C,RV1*%
X238633000Y-124206000D03*
X236093000Y-121666000D03*
X233553000Y-124206000D03*
%TD*%
D14*
%TO.C,R1*%
X229235000Y-106299000D03*
D15*
X219075000Y-106299000D03*
%TD*%
D22*
%TO.C,U2*%
X229235000Y-96774000D03*
D23*
X226695000Y-96774000D03*
X224155000Y-96774000D03*
X221615000Y-96774000D03*
X219075000Y-96774000D03*
X216535000Y-96774000D03*
X213995000Y-96774000D03*
X211455000Y-96774000D03*
X208915000Y-96774000D03*
X206375000Y-96774000D03*
X203835000Y-96774000D03*
X201295000Y-96774000D03*
X198755000Y-96774000D03*
X196215000Y-96774000D03*
X193675000Y-96774000D03*
D22*
X229235000Y-112014000D03*
D23*
X226695000Y-112014000D03*
X224155000Y-112014000D03*
X221615000Y-112014000D03*
X219075000Y-112014000D03*
X216535000Y-112014000D03*
X213995000Y-112014000D03*
X211455000Y-112014000D03*
X208915000Y-112014000D03*
X206375000Y-112014000D03*
X203835000Y-112014000D03*
X201295000Y-112014000D03*
X198755000Y-112014000D03*
X196215000Y-112014000D03*
X193675000Y-112014000D03*
%TD*%
D10*
%TO.C,J4*%
X198359000Y-89179000D03*
D11*
X195819000Y-89179000D03*
X193279000Y-89179000D03*
%TD*%
D10*
%TO.C,J3*%
X226568000Y-116840000D03*
D11*
X229108000Y-116840000D03*
%TD*%
D14*
%TO.C,R5*%
X232791000Y-145542000D03*
D15*
X242951000Y-145542000D03*
%TD*%
D24*
%TO.C,*%
X260096000Y-91694000D03*
%TD*%
D10*
%TO.C,J8*%
X201549000Y-126492000D03*
D11*
X204089000Y-126492000D03*
X206629000Y-126492000D03*
X209169000Y-126492000D03*
%TD*%
D24*
%TO.C,REF\u002A\u002A*%
X260350000Y-148000000D03*
%TD*%
D10*
%TO.C,J12*%
X253111000Y-129667000D03*
D11*
X253111000Y-132207000D03*
X253111000Y-134747000D03*
X253111000Y-137287000D03*
X253111000Y-139827000D03*
X253111000Y-142367000D03*
%TD*%
D10*
%TO.C,J5*%
X208915000Y-90170000D03*
D11*
X211455000Y-90170000D03*
X213995000Y-90170000D03*
X216535000Y-90170000D03*
X219075000Y-90170000D03*
X221615000Y-90170000D03*
%TD*%
D14*
%TO.C,R2*%
X217932000Y-124206000D03*
D15*
X228092000Y-124206000D03*
%TD*%
D14*
%TO.C,R8*%
X199009000Y-134747000D03*
D15*
X209169000Y-134747000D03*
%TD*%
D10*
%TO.C,J13*%
X183134000Y-128016000D03*
D11*
X183134000Y-130556000D03*
%TD*%
D10*
%TO.C,J7*%
X243840000Y-90424000D03*
D11*
X243840000Y-92964000D03*
%TD*%
D14*
%TO.C,R6*%
X226568000Y-145542000D03*
D15*
X216408000Y-145542000D03*
%TD*%
D14*
%TO.C,R4*%
X245364000Y-121666000D03*
D15*
X245364000Y-131826000D03*
%TD*%
D24*
%TO.C,REF\u002A\u002A*%
X184150000Y-148650000D03*
%TD*%
D10*
%TO.C,J1*%
X183007000Y-122936000D03*
D11*
X183007000Y-120396000D03*
X183007000Y-117856000D03*
%TD*%
D14*
%TO.C,R10*%
X202692000Y-92710000D03*
D15*
X192532000Y-92710000D03*
%TD*%
M02*
