M48
; DRILL file {KiCad 8.0.1} date 2025-05-23T10:34:11+0200
; FORMAT={-:-/ absolute / metric / decimal}
; #@! TF.CreationDate,2025-05-23T10:34:11+02:00
; #@! TF.GenerationSoftware,Kicad,Pcbnew,8.0.1
; #@! TF.FileFunction,MixedPlating,1,2
FMAT,2
METRIC
; #@! TA.AperFunction,Plated,PTH,ViaDrill
T1C0.600
; #@! TA.AperFunction,Plated,PTH,ComponentDrill
T2C0.750
; #@! TA.AperFunction,Plated,PTH,ComponentDrill
T3C0.800
; #@! TA.AperFunction,Plated,PTH,ComponentDrill
T4C1.000
; #@! TA.AperFunction,Plated,PTH,ComponentDrill
T5C1.020
; #@! TA.AperFunction,Plated,PTH,ComponentDrill
T6C1.100
; #@! TA.AperFunction,Plated,PTH,ComponentDrill
T7C5.300
%
G90
G05
T1
X188.976Y-101.092
X190.246Y-89.154
X191.389Y-103.251
X197.358Y-108.458
X209.804Y-139.954
X221.742Y-93.472
X233.045Y-93.472
T2
X258.318Y-129.667
X258.318Y-131.667
X258.318Y-133.667
X258.318Y-135.667
X258.318Y-137.667
X258.318Y-139.667
T3
X192.532Y-92.71
X196.469Y-130.937
X199.009Y-134.747
X202.692Y-92.71
X206.629Y-130.937
X209.169Y-134.747
X216.408Y-145.542
X217.932Y-124.206
X219.075Y-102.489
X219.075Y-106.299
X226.568Y-133.44
X226.568Y-135.94
X226.568Y-145.542
X228.092Y-124.206
X229.235Y-102.489
X229.235Y-106.299
X232.283Y-132.334
X232.283Y-139.954
X232.791Y-145.542
X233.553Y-124.206
X234.823Y-132.334
X234.823Y-139.954
X236.093Y-121.666
X237.363Y-132.334
X237.363Y-139.954
X238.633Y-124.206
X239.903Y-132.334
X239.903Y-139.954
X242.951Y-145.542
X245.364Y-121.666
X245.364Y-131.826
X250.571Y-109.347
X260.731Y-109.347
T4
X181.737Y-105.156
X181.737Y-107.696
X183.007Y-117.856
X183.007Y-120.396
X183.007Y-122.936
X183.134Y-128.016
X183.134Y-130.556
X183.134Y-135.763
X183.134Y-138.303
X183.134Y-140.843
X193.279Y-89.179
X195.819Y-89.179
X198.359Y-89.179
X201.549Y-126.492
X204.089Y-126.492
X206.629Y-126.492
X208.915Y-90.17
X209.169Y-126.492
X211.455Y-90.17
X213.995Y-90.17
X216.535Y-90.17
X219.075Y-90.17
X221.615Y-90.17
X226.568Y-116.84
X229.108Y-116.84
X243.84Y-90.424
X243.84Y-92.964
X250.19Y-90.424
X250.19Y-92.964
X253.111Y-129.667
X253.111Y-132.207
X253.111Y-134.747
X253.111Y-137.287
X253.111Y-139.827
X253.111Y-142.367
X258.318Y-123.19
X260.858Y-123.19
T5
X193.675Y-96.774
X193.675Y-112.014
X196.215Y-96.774
X196.215Y-112.014
X198.755Y-96.774
X198.755Y-112.014
X201.295Y-96.774
X201.295Y-112.014
X203.835Y-96.774
X203.835Y-112.014
X206.375Y-96.774
X206.375Y-112.014
X208.915Y-96.774
X208.915Y-112.014
X211.455Y-96.774
X211.455Y-112.014
X213.995Y-96.774
X213.995Y-112.014
X216.535Y-96.774
X216.535Y-112.014
X219.075Y-96.774
X219.075Y-112.014
X221.615Y-96.774
X221.615Y-112.014
X224.155Y-96.774
X224.155Y-112.014
X226.695Y-96.774
X226.695Y-112.014
X229.235Y-96.774
X229.235Y-112.014
T6
X255.651Y-116.205
X258.191Y-116.205
X260.731Y-116.205
T7
X184.15Y-148.65
X260.096Y-91.694
X260.35Y-148.0
M30
