M48
; DRILL file {KiCad 5.1.5+dfsg1-2build2} date ven. 07 oct. 2022 11:57:16
; FORMAT={-:-/ absolute / metric / decimal}
; #@! TF.CreationDate,2022-10-07T11:57:16+02:00
; #@! TF.GenerationSoftware,Kicad,Pcbnew,5.1.5+dfsg1-2build2
; #@! TF.FileFunction,Plated,1,2,PTH
FMAT,2
METRIC
T1C0.700
T2C1.000
%
G90
G05
T1
X137.592Y-111.379
X141.529Y-111.379
X152.491Y-111.607
X153.035Y-113.665
X158.401Y-111.684
X159.487Y-113.665
T2
X126.365Y-97.79
X128.905Y-97.79
X131.445Y-97.79
X133.985Y-97.79
X136.525Y-97.79
X139.065Y-97.79
X141.605Y-97.79
X144.145Y-97.79
X146.685Y-97.79
X149.225Y-97.79
X151.765Y-97.79
X154.305Y-97.79
X156.845Y-97.79
X159.385Y-97.79
X161.925Y-97.79
X164.465Y-97.79
X167.005Y-97.79
X169.545Y-97.79
T0
M30
