G04 #@! TF.GenerationSoftware,KiCad,Pcbnew,5.1.5+dfsg1-2build2*
G04 #@! TF.CreationDate,2022-10-07T11:57:08+02:00*
G04 #@! TF.ProjectId,CMS_AmpliGBP,434d535f-416d-4706-9c69-4742502e6b69,rev?*
G04 #@! TF.SameCoordinates,Original*
G04 #@! TF.FileFunction,Soldermask,Top*
G04 #@! TF.FilePolarity,Negative*
%FSLAX46Y46*%
G04 Gerber Fmt 4.6, Leading zero omitted, Abs format (unit mm)*
G04 Created by KiCad (PCBNEW 5.1.5+dfsg1-2build2) date 2022-10-07 11:57:08*
%MOMM*%
%LPD*%
G04 APERTURE LIST*
%ADD10C,0.100000*%
G04 APERTURE END LIST*
D10*
G36*
X154586938Y-115841116D02*
G01*
X154607557Y-115847371D01*
X154626553Y-115857524D01*
X154643208Y-115871192D01*
X154656876Y-115887847D01*
X154667029Y-115906843D01*
X154673284Y-115927462D01*
X154676000Y-115955040D01*
X154676000Y-116413760D01*
X154673284Y-116441338D01*
X154667029Y-116461957D01*
X154656876Y-116480953D01*
X154643208Y-116497608D01*
X154626553Y-116511276D01*
X154607557Y-116521429D01*
X154586938Y-116527684D01*
X154559360Y-116530400D01*
X154050640Y-116530400D01*
X154023062Y-116527684D01*
X154002443Y-116521429D01*
X153983447Y-116511276D01*
X153966792Y-116497608D01*
X153953124Y-116480953D01*
X153942971Y-116461957D01*
X153936716Y-116441338D01*
X153934000Y-116413760D01*
X153934000Y-115955040D01*
X153936716Y-115927462D01*
X153942971Y-115906843D01*
X153953124Y-115887847D01*
X153966792Y-115871192D01*
X153983447Y-115857524D01*
X154002443Y-115847371D01*
X154023062Y-115841116D01*
X154050640Y-115838400D01*
X154559360Y-115838400D01*
X154586938Y-115841116D01*
G37*
G36*
X154586938Y-114871116D02*
G01*
X154607557Y-114877371D01*
X154626553Y-114887524D01*
X154643208Y-114901192D01*
X154656876Y-114917847D01*
X154667029Y-114936843D01*
X154673284Y-114957462D01*
X154676000Y-114985040D01*
X154676000Y-115443760D01*
X154673284Y-115471338D01*
X154667029Y-115491957D01*
X154656876Y-115510953D01*
X154643208Y-115527608D01*
X154626553Y-115541276D01*
X154607557Y-115551429D01*
X154586938Y-115557684D01*
X154559360Y-115560400D01*
X154050640Y-115560400D01*
X154023062Y-115557684D01*
X154002443Y-115551429D01*
X153983447Y-115541276D01*
X153966792Y-115527608D01*
X153953124Y-115510953D01*
X153942971Y-115491957D01*
X153936716Y-115471338D01*
X153934000Y-115443760D01*
X153934000Y-114985040D01*
X153936716Y-114957462D01*
X153942971Y-114936843D01*
X153953124Y-114917847D01*
X153966792Y-114901192D01*
X153983447Y-114887524D01*
X154002443Y-114877371D01*
X154023062Y-114871116D01*
X154050640Y-114868400D01*
X154559360Y-114868400D01*
X154586938Y-114871116D01*
G37*
G36*
X145124929Y-114764564D02*
G01*
X145146010Y-114770960D01*
X145165446Y-114781348D01*
X145182477Y-114795324D01*
X145196453Y-114812355D01*
X145206841Y-114831791D01*
X145213237Y-114852872D01*
X145216001Y-114880940D01*
X145216001Y-115344660D01*
X145213237Y-115372728D01*
X145206841Y-115393809D01*
X145196453Y-115413245D01*
X145182477Y-115430276D01*
X145165446Y-115444252D01*
X145146010Y-115454640D01*
X145124929Y-115461036D01*
X145096861Y-115463800D01*
X143283141Y-115463800D01*
X143255073Y-115461036D01*
X143233992Y-115454640D01*
X143214556Y-115444252D01*
X143197525Y-115430276D01*
X143183549Y-115413245D01*
X143173161Y-115393809D01*
X143166765Y-115372728D01*
X143164001Y-115344660D01*
X143164001Y-114880940D01*
X143166765Y-114852872D01*
X143173161Y-114831791D01*
X143183549Y-114812355D01*
X143197525Y-114795324D01*
X143214556Y-114781348D01*
X143233992Y-114770960D01*
X143255073Y-114764564D01*
X143283141Y-114761800D01*
X145096861Y-114761800D01*
X145124929Y-114764564D01*
G37*
G36*
X150074929Y-114764564D02*
G01*
X150096010Y-114770960D01*
X150115446Y-114781348D01*
X150132477Y-114795324D01*
X150146453Y-114812355D01*
X150156841Y-114831791D01*
X150163237Y-114852872D01*
X150166001Y-114880940D01*
X150166001Y-115344660D01*
X150163237Y-115372728D01*
X150156841Y-115393809D01*
X150146453Y-115413245D01*
X150132477Y-115430276D01*
X150115446Y-115444252D01*
X150096010Y-115454640D01*
X150074929Y-115461036D01*
X150046861Y-115463800D01*
X148233141Y-115463800D01*
X148205073Y-115461036D01*
X148183992Y-115454640D01*
X148164556Y-115444252D01*
X148147525Y-115430276D01*
X148133549Y-115413245D01*
X148123161Y-115393809D01*
X148116765Y-115372728D01*
X148114001Y-115344660D01*
X148114001Y-114880940D01*
X148116765Y-114852872D01*
X148123161Y-114831791D01*
X148133549Y-114812355D01*
X148147525Y-114795324D01*
X148164556Y-114781348D01*
X148183992Y-114770960D01*
X148205073Y-114764564D01*
X148233141Y-114761800D01*
X150046861Y-114761800D01*
X150074929Y-114764564D01*
G37*
G36*
X145124929Y-113494564D02*
G01*
X145146010Y-113500960D01*
X145165446Y-113511348D01*
X145182477Y-113525324D01*
X145196453Y-113542355D01*
X145206841Y-113561791D01*
X145213237Y-113582872D01*
X145216001Y-113610940D01*
X145216001Y-114074660D01*
X145213237Y-114102728D01*
X145206841Y-114123809D01*
X145196453Y-114143245D01*
X145182477Y-114160276D01*
X145165446Y-114174252D01*
X145146010Y-114184640D01*
X145124929Y-114191036D01*
X145096861Y-114193800D01*
X143283141Y-114193800D01*
X143255073Y-114191036D01*
X143233992Y-114184640D01*
X143214556Y-114174252D01*
X143197525Y-114160276D01*
X143183549Y-114143245D01*
X143173161Y-114123809D01*
X143166765Y-114102728D01*
X143164001Y-114074660D01*
X143164001Y-113610940D01*
X143166765Y-113582872D01*
X143173161Y-113561791D01*
X143183549Y-113542355D01*
X143197525Y-113525324D01*
X143214556Y-113511348D01*
X143233992Y-113500960D01*
X143255073Y-113494564D01*
X143283141Y-113491800D01*
X145096861Y-113491800D01*
X145124929Y-113494564D01*
G37*
G36*
X150074929Y-113494564D02*
G01*
X150096010Y-113500960D01*
X150115446Y-113511348D01*
X150132477Y-113525324D01*
X150146453Y-113542355D01*
X150156841Y-113561791D01*
X150163237Y-113582872D01*
X150166001Y-113610940D01*
X150166001Y-114074660D01*
X150163237Y-114102728D01*
X150156841Y-114123809D01*
X150146453Y-114143245D01*
X150132477Y-114160276D01*
X150115446Y-114174252D01*
X150096010Y-114184640D01*
X150074929Y-114191036D01*
X150046861Y-114193800D01*
X148233141Y-114193800D01*
X148205073Y-114191036D01*
X148183992Y-114184640D01*
X148164556Y-114174252D01*
X148147525Y-114160276D01*
X148133549Y-114143245D01*
X148123161Y-114123809D01*
X148116765Y-114102728D01*
X148114001Y-114074660D01*
X148114001Y-113610940D01*
X148116765Y-113582872D01*
X148123161Y-113561791D01*
X148133549Y-113542355D01*
X148147525Y-113525324D01*
X148164556Y-113511348D01*
X148183992Y-113500960D01*
X148205073Y-113494564D01*
X148233141Y-113491800D01*
X150046861Y-113491800D01*
X150074929Y-113494564D01*
G37*
G36*
X145124929Y-112224564D02*
G01*
X145146010Y-112230960D01*
X145165446Y-112241348D01*
X145182477Y-112255324D01*
X145196453Y-112272355D01*
X145206841Y-112291791D01*
X145213237Y-112312872D01*
X145216001Y-112340940D01*
X145216001Y-112804660D01*
X145213237Y-112832728D01*
X145206841Y-112853809D01*
X145196453Y-112873245D01*
X145182477Y-112890276D01*
X145165446Y-112904252D01*
X145146010Y-112914640D01*
X145124929Y-112921036D01*
X145096861Y-112923800D01*
X143283141Y-112923800D01*
X143255073Y-112921036D01*
X143233992Y-112914640D01*
X143214556Y-112904252D01*
X143197525Y-112890276D01*
X143183549Y-112873245D01*
X143173161Y-112853809D01*
X143166765Y-112832728D01*
X143164001Y-112804660D01*
X143164001Y-112340940D01*
X143166765Y-112312872D01*
X143173161Y-112291791D01*
X143183549Y-112272355D01*
X143197525Y-112255324D01*
X143214556Y-112241348D01*
X143233992Y-112230960D01*
X143255073Y-112224564D01*
X143283141Y-112221800D01*
X145096861Y-112221800D01*
X145124929Y-112224564D01*
G37*
G36*
X150074929Y-112224564D02*
G01*
X150096010Y-112230960D01*
X150115446Y-112241348D01*
X150132477Y-112255324D01*
X150146453Y-112272355D01*
X150156841Y-112291791D01*
X150163237Y-112312872D01*
X150166001Y-112340940D01*
X150166001Y-112804660D01*
X150163237Y-112832728D01*
X150156841Y-112853809D01*
X150146453Y-112873245D01*
X150132477Y-112890276D01*
X150115446Y-112904252D01*
X150096010Y-112914640D01*
X150074929Y-112921036D01*
X150046861Y-112923800D01*
X148233141Y-112923800D01*
X148205073Y-112921036D01*
X148183992Y-112914640D01*
X148164556Y-112904252D01*
X148147525Y-112890276D01*
X148133549Y-112873245D01*
X148123161Y-112853809D01*
X148116765Y-112832728D01*
X148114001Y-112804660D01*
X148114001Y-112340940D01*
X148116765Y-112312872D01*
X148123161Y-112291791D01*
X148133549Y-112272355D01*
X148147525Y-112255324D01*
X148164556Y-112241348D01*
X148183992Y-112230960D01*
X148205073Y-112224564D01*
X148233141Y-112221800D01*
X150046861Y-112221800D01*
X150074929Y-112224564D01*
G37*
G36*
X145124929Y-110954564D02*
G01*
X145146010Y-110960960D01*
X145165446Y-110971348D01*
X145182477Y-110985324D01*
X145196453Y-111002355D01*
X145206841Y-111021791D01*
X145213237Y-111042872D01*
X145216001Y-111070940D01*
X145216001Y-111534660D01*
X145213237Y-111562728D01*
X145206841Y-111583809D01*
X145196453Y-111603245D01*
X145182477Y-111620276D01*
X145165446Y-111634252D01*
X145146010Y-111644640D01*
X145124929Y-111651036D01*
X145096861Y-111653800D01*
X143283141Y-111653800D01*
X143255073Y-111651036D01*
X143233992Y-111644640D01*
X143214556Y-111634252D01*
X143197525Y-111620276D01*
X143183549Y-111603245D01*
X143173161Y-111583809D01*
X143166765Y-111562728D01*
X143164001Y-111534660D01*
X143164001Y-111070940D01*
X143166765Y-111042872D01*
X143173161Y-111021791D01*
X143183549Y-111002355D01*
X143197525Y-110985324D01*
X143214556Y-110971348D01*
X143233992Y-110960960D01*
X143255073Y-110954564D01*
X143283141Y-110951800D01*
X145096861Y-110951800D01*
X145124929Y-110954564D01*
G37*
G36*
X150074929Y-110954564D02*
G01*
X150096010Y-110960960D01*
X150115446Y-110971348D01*
X150132477Y-110985324D01*
X150146453Y-111002355D01*
X150156841Y-111021791D01*
X150163237Y-111042872D01*
X150166001Y-111070940D01*
X150166001Y-111534660D01*
X150163237Y-111562728D01*
X150156841Y-111583809D01*
X150146453Y-111603245D01*
X150132477Y-111620276D01*
X150115446Y-111634252D01*
X150096010Y-111644640D01*
X150074929Y-111651036D01*
X150046861Y-111653800D01*
X148233141Y-111653800D01*
X148205073Y-111651036D01*
X148183992Y-111644640D01*
X148164556Y-111634252D01*
X148147525Y-111620276D01*
X148133549Y-111603245D01*
X148123161Y-111583809D01*
X148116765Y-111562728D01*
X148114001Y-111534660D01*
X148114001Y-111070940D01*
X148116765Y-111042872D01*
X148123161Y-111021791D01*
X148133549Y-111002355D01*
X148147525Y-110985324D01*
X148164556Y-110971348D01*
X148183992Y-110960960D01*
X148205073Y-110954564D01*
X148233141Y-110951800D01*
X150046861Y-110951800D01*
X150074929Y-110954564D01*
G37*
G36*
X155649791Y-110030985D02*
G01*
X155683769Y-110041293D01*
X155715090Y-110058034D01*
X155742539Y-110080561D01*
X155765066Y-110108010D01*
X155781807Y-110139331D01*
X155792115Y-110173309D01*
X155796200Y-110214790D01*
X155796200Y-110816010D01*
X155792115Y-110857491D01*
X155781807Y-110891469D01*
X155765066Y-110922790D01*
X155742539Y-110950239D01*
X155715090Y-110972766D01*
X155683769Y-110989507D01*
X155649791Y-110999815D01*
X155608310Y-111003900D01*
X154932090Y-111003900D01*
X154890609Y-110999815D01*
X154856631Y-110989507D01*
X154825310Y-110972766D01*
X154797861Y-110950239D01*
X154775334Y-110922790D01*
X154758593Y-110891469D01*
X154748285Y-110857491D01*
X154744200Y-110816010D01*
X154744200Y-110214790D01*
X154748285Y-110173309D01*
X154758593Y-110139331D01*
X154775334Y-110108010D01*
X154797861Y-110080561D01*
X154825310Y-110058034D01*
X154856631Y-110041293D01*
X154890609Y-110030985D01*
X154932090Y-110026900D01*
X155608310Y-110026900D01*
X155649791Y-110030985D01*
G37*
G36*
X150074929Y-109684564D02*
G01*
X150096010Y-109690960D01*
X150115446Y-109701348D01*
X150132477Y-109715324D01*
X150146453Y-109732355D01*
X150156841Y-109751791D01*
X150163237Y-109772872D01*
X150166001Y-109800940D01*
X150166001Y-110264660D01*
X150163237Y-110292728D01*
X150156841Y-110313809D01*
X150146453Y-110333245D01*
X150132477Y-110350276D01*
X150115446Y-110364252D01*
X150096010Y-110374640D01*
X150074929Y-110381036D01*
X150046861Y-110383800D01*
X148233141Y-110383800D01*
X148205073Y-110381036D01*
X148183992Y-110374640D01*
X148164556Y-110364252D01*
X148147525Y-110350276D01*
X148133549Y-110333245D01*
X148123161Y-110313809D01*
X148116765Y-110292728D01*
X148114001Y-110264660D01*
X148114001Y-109800940D01*
X148116765Y-109772872D01*
X148123161Y-109751791D01*
X148133549Y-109732355D01*
X148147525Y-109715324D01*
X148164556Y-109701348D01*
X148183992Y-109690960D01*
X148205073Y-109684564D01*
X148233141Y-109681800D01*
X150046861Y-109681800D01*
X150074929Y-109684564D01*
G37*
G36*
X145124929Y-109684564D02*
G01*
X145146010Y-109690960D01*
X145165446Y-109701348D01*
X145182477Y-109715324D01*
X145196453Y-109732355D01*
X145206841Y-109751791D01*
X145213237Y-109772872D01*
X145216001Y-109800940D01*
X145216001Y-110264660D01*
X145213237Y-110292728D01*
X145206841Y-110313809D01*
X145196453Y-110333245D01*
X145182477Y-110350276D01*
X145165446Y-110364252D01*
X145146010Y-110374640D01*
X145124929Y-110381036D01*
X145096861Y-110383800D01*
X143283141Y-110383800D01*
X143255073Y-110381036D01*
X143233992Y-110374640D01*
X143214556Y-110364252D01*
X143197525Y-110350276D01*
X143183549Y-110333245D01*
X143173161Y-110313809D01*
X143166765Y-110292728D01*
X143164001Y-110264660D01*
X143164001Y-109800940D01*
X143166765Y-109772872D01*
X143173161Y-109751791D01*
X143183549Y-109732355D01*
X143197525Y-109715324D01*
X143214556Y-109701348D01*
X143233992Y-109690960D01*
X143255073Y-109684564D01*
X143283141Y-109681800D01*
X145096861Y-109681800D01*
X145124929Y-109684564D01*
G37*
G36*
X155649791Y-108455985D02*
G01*
X155683769Y-108466293D01*
X155715090Y-108483034D01*
X155742539Y-108505561D01*
X155765066Y-108533010D01*
X155781807Y-108564331D01*
X155792115Y-108598309D01*
X155796200Y-108639790D01*
X155796200Y-109241010D01*
X155792115Y-109282491D01*
X155781807Y-109316469D01*
X155765066Y-109347790D01*
X155742539Y-109375239D01*
X155715090Y-109397766D01*
X155683769Y-109414507D01*
X155649791Y-109424815D01*
X155608310Y-109428900D01*
X154932090Y-109428900D01*
X154890609Y-109424815D01*
X154856631Y-109414507D01*
X154825310Y-109397766D01*
X154797861Y-109375239D01*
X154775334Y-109347790D01*
X154758593Y-109316469D01*
X154748285Y-109282491D01*
X154744200Y-109241010D01*
X154744200Y-108639790D01*
X154748285Y-108598309D01*
X154758593Y-108564331D01*
X154775334Y-108533010D01*
X154797861Y-108505561D01*
X154825310Y-108483034D01*
X154856631Y-108466293D01*
X154890609Y-108455985D01*
X154932090Y-108451900D01*
X155608310Y-108451900D01*
X155649791Y-108455985D01*
G37*
G36*
X150074929Y-108414564D02*
G01*
X150096010Y-108420960D01*
X150115446Y-108431348D01*
X150132477Y-108445324D01*
X150146453Y-108462355D01*
X150156841Y-108481791D01*
X150163237Y-108502872D01*
X150166001Y-108530940D01*
X150166001Y-108994660D01*
X150163237Y-109022728D01*
X150156841Y-109043809D01*
X150146453Y-109063245D01*
X150132477Y-109080276D01*
X150115446Y-109094252D01*
X150096010Y-109104640D01*
X150074929Y-109111036D01*
X150046861Y-109113800D01*
X148233141Y-109113800D01*
X148205073Y-109111036D01*
X148183992Y-109104640D01*
X148164556Y-109094252D01*
X148147525Y-109080276D01*
X148133549Y-109063245D01*
X148123161Y-109043809D01*
X148116765Y-109022728D01*
X148114001Y-108994660D01*
X148114001Y-108530940D01*
X148116765Y-108502872D01*
X148123161Y-108481791D01*
X148133549Y-108462355D01*
X148147525Y-108445324D01*
X148164556Y-108431348D01*
X148183992Y-108420960D01*
X148205073Y-108414564D01*
X148233141Y-108411800D01*
X150046861Y-108411800D01*
X150074929Y-108414564D01*
G37*
G36*
X145124929Y-108414564D02*
G01*
X145146010Y-108420960D01*
X145165446Y-108431348D01*
X145182477Y-108445324D01*
X145196453Y-108462355D01*
X145206841Y-108481791D01*
X145213237Y-108502872D01*
X145216001Y-108530940D01*
X145216001Y-108994660D01*
X145213237Y-109022728D01*
X145206841Y-109043809D01*
X145196453Y-109063245D01*
X145182477Y-109080276D01*
X145165446Y-109094252D01*
X145146010Y-109104640D01*
X145124929Y-109111036D01*
X145096861Y-109113800D01*
X143283141Y-109113800D01*
X143255073Y-109111036D01*
X143233992Y-109104640D01*
X143214556Y-109094252D01*
X143197525Y-109080276D01*
X143183549Y-109063245D01*
X143173161Y-109043809D01*
X143166765Y-109022728D01*
X143164001Y-108994660D01*
X143164001Y-108530940D01*
X143166765Y-108502872D01*
X143173161Y-108481791D01*
X143183549Y-108462355D01*
X143197525Y-108445324D01*
X143214556Y-108431348D01*
X143233992Y-108420960D01*
X143255073Y-108414564D01*
X143283141Y-108411800D01*
X145096861Y-108411800D01*
X145124929Y-108414564D01*
G37*
G36*
X145124929Y-107144564D02*
G01*
X145146010Y-107150960D01*
X145165446Y-107161348D01*
X145182477Y-107175324D01*
X145196453Y-107192355D01*
X145206841Y-107211791D01*
X145213237Y-107232872D01*
X145216001Y-107260940D01*
X145216001Y-107724660D01*
X145213237Y-107752728D01*
X145206841Y-107773809D01*
X145196453Y-107793245D01*
X145182477Y-107810276D01*
X145165446Y-107824252D01*
X145146010Y-107834640D01*
X145124929Y-107841036D01*
X145096861Y-107843800D01*
X143283141Y-107843800D01*
X143255073Y-107841036D01*
X143233992Y-107834640D01*
X143214556Y-107824252D01*
X143197525Y-107810276D01*
X143183549Y-107793245D01*
X143173161Y-107773809D01*
X143166765Y-107752728D01*
X143164001Y-107724660D01*
X143164001Y-107260940D01*
X143166765Y-107232872D01*
X143173161Y-107211791D01*
X143183549Y-107192355D01*
X143197525Y-107175324D01*
X143214556Y-107161348D01*
X143233992Y-107150960D01*
X143255073Y-107144564D01*
X143283141Y-107141800D01*
X145096861Y-107141800D01*
X145124929Y-107144564D01*
G37*
G36*
X150074929Y-107144564D02*
G01*
X150096010Y-107150960D01*
X150115446Y-107161348D01*
X150132477Y-107175324D01*
X150146453Y-107192355D01*
X150156841Y-107211791D01*
X150163237Y-107232872D01*
X150166001Y-107260940D01*
X150166001Y-107724660D01*
X150163237Y-107752728D01*
X150156841Y-107773809D01*
X150146453Y-107793245D01*
X150132477Y-107810276D01*
X150115446Y-107824252D01*
X150096010Y-107834640D01*
X150074929Y-107841036D01*
X150046861Y-107843800D01*
X148233141Y-107843800D01*
X148205073Y-107841036D01*
X148183992Y-107834640D01*
X148164556Y-107824252D01*
X148147525Y-107810276D01*
X148133549Y-107793245D01*
X148123161Y-107773809D01*
X148116765Y-107752728D01*
X148114001Y-107724660D01*
X148114001Y-107260940D01*
X148116765Y-107232872D01*
X148123161Y-107211791D01*
X148133549Y-107192355D01*
X148147525Y-107175324D01*
X148164556Y-107161348D01*
X148183992Y-107150960D01*
X148205073Y-107144564D01*
X148233141Y-107141800D01*
X150046861Y-107141800D01*
X150074929Y-107144564D01*
G37*
G36*
X154633791Y-105687585D02*
G01*
X154667769Y-105697893D01*
X154699090Y-105714634D01*
X154726539Y-105737161D01*
X154749066Y-105764610D01*
X154765807Y-105795931D01*
X154776115Y-105829909D01*
X154780200Y-105871390D01*
X154780200Y-106472610D01*
X154776115Y-106514091D01*
X154765807Y-106548069D01*
X154749066Y-106579390D01*
X154726539Y-106606839D01*
X154699090Y-106629366D01*
X154667769Y-106646107D01*
X154633791Y-106656415D01*
X154592310Y-106660500D01*
X153916090Y-106660500D01*
X153874609Y-106656415D01*
X153840631Y-106646107D01*
X153809310Y-106629366D01*
X153781861Y-106606839D01*
X153759334Y-106579390D01*
X153742593Y-106548069D01*
X153732285Y-106514091D01*
X153728200Y-106472610D01*
X153728200Y-105871390D01*
X153732285Y-105829909D01*
X153742593Y-105795931D01*
X153759334Y-105764610D01*
X153781861Y-105737161D01*
X153809310Y-105714634D01*
X153840631Y-105697893D01*
X153874609Y-105687585D01*
X153916090Y-105683500D01*
X154592310Y-105683500D01*
X154633791Y-105687585D01*
G37*
G36*
X154633791Y-104112585D02*
G01*
X154667769Y-104122893D01*
X154699090Y-104139634D01*
X154726539Y-104162161D01*
X154749066Y-104189610D01*
X154765807Y-104220931D01*
X154776115Y-104254909D01*
X154780200Y-104296390D01*
X154780200Y-104897610D01*
X154776115Y-104939091D01*
X154765807Y-104973069D01*
X154749066Y-105004390D01*
X154726539Y-105031839D01*
X154699090Y-105054366D01*
X154667769Y-105071107D01*
X154633791Y-105081415D01*
X154592310Y-105085500D01*
X153916090Y-105085500D01*
X153874609Y-105081415D01*
X153840631Y-105071107D01*
X153809310Y-105054366D01*
X153781861Y-105031839D01*
X153759334Y-105004390D01*
X153742593Y-104973069D01*
X153732285Y-104939091D01*
X153728200Y-104897610D01*
X153728200Y-104296390D01*
X153732285Y-104254909D01*
X153742593Y-104220931D01*
X153759334Y-104189610D01*
X153781861Y-104162161D01*
X153809310Y-104139634D01*
X153840631Y-104122893D01*
X153874609Y-104112585D01*
X153916090Y-104108500D01*
X154592310Y-104108500D01*
X154633791Y-104112585D01*
G37*
G36*
X141032691Y-102297285D02*
G01*
X141066669Y-102307593D01*
X141097990Y-102324334D01*
X141125439Y-102346861D01*
X141147966Y-102374310D01*
X141164707Y-102405631D01*
X141175015Y-102439609D01*
X141179100Y-102481090D01*
X141179100Y-103157310D01*
X141175015Y-103198791D01*
X141164707Y-103232769D01*
X141147966Y-103264090D01*
X141125439Y-103291539D01*
X141097990Y-103314066D01*
X141066669Y-103330807D01*
X141032691Y-103341115D01*
X140991210Y-103345200D01*
X140389990Y-103345200D01*
X140348509Y-103341115D01*
X140314531Y-103330807D01*
X140283210Y-103314066D01*
X140255761Y-103291539D01*
X140233234Y-103264090D01*
X140216493Y-103232769D01*
X140206185Y-103198791D01*
X140202100Y-103157310D01*
X140202100Y-102481090D01*
X140206185Y-102439609D01*
X140216493Y-102405631D01*
X140233234Y-102374310D01*
X140255761Y-102346861D01*
X140283210Y-102324334D01*
X140314531Y-102307593D01*
X140348509Y-102297285D01*
X140389990Y-102293200D01*
X140991210Y-102293200D01*
X141032691Y-102297285D01*
G37*
G36*
X139457691Y-102297285D02*
G01*
X139491669Y-102307593D01*
X139522990Y-102324334D01*
X139550439Y-102346861D01*
X139572966Y-102374310D01*
X139589707Y-102405631D01*
X139600015Y-102439609D01*
X139604100Y-102481090D01*
X139604100Y-103157310D01*
X139600015Y-103198791D01*
X139589707Y-103232769D01*
X139572966Y-103264090D01*
X139550439Y-103291539D01*
X139522990Y-103314066D01*
X139491669Y-103330807D01*
X139457691Y-103341115D01*
X139416210Y-103345200D01*
X138814990Y-103345200D01*
X138773509Y-103341115D01*
X138739531Y-103330807D01*
X138708210Y-103314066D01*
X138680761Y-103291539D01*
X138658234Y-103264090D01*
X138641493Y-103232769D01*
X138631185Y-103198791D01*
X138627100Y-103157310D01*
X138627100Y-102481090D01*
X138631185Y-102439609D01*
X138641493Y-102405631D01*
X138658234Y-102374310D01*
X138680761Y-102346861D01*
X138708210Y-102324334D01*
X138739531Y-102307593D01*
X138773509Y-102297285D01*
X138814990Y-102293200D01*
X139416210Y-102293200D01*
X139457691Y-102297285D01*
G37*
G36*
X152067938Y-101688916D02*
G01*
X152088557Y-101695171D01*
X152107553Y-101705324D01*
X152124208Y-101718992D01*
X152137876Y-101735647D01*
X152148029Y-101754643D01*
X152154284Y-101775262D01*
X152157000Y-101802840D01*
X152157000Y-102311560D01*
X152154284Y-102339138D01*
X152148029Y-102359757D01*
X152137876Y-102378753D01*
X152124208Y-102395408D01*
X152107553Y-102409076D01*
X152088557Y-102419229D01*
X152067938Y-102425484D01*
X152040360Y-102428200D01*
X151581640Y-102428200D01*
X151554062Y-102425484D01*
X151533443Y-102419229D01*
X151514447Y-102409076D01*
X151497792Y-102395408D01*
X151484124Y-102378753D01*
X151473971Y-102359757D01*
X151467716Y-102339138D01*
X151465000Y-102311560D01*
X151465000Y-101802840D01*
X151467716Y-101775262D01*
X151473971Y-101754643D01*
X151484124Y-101735647D01*
X151497792Y-101718992D01*
X151514447Y-101705324D01*
X151533443Y-101695171D01*
X151554062Y-101688916D01*
X151581640Y-101686200D01*
X152040360Y-101686200D01*
X152067938Y-101688916D01*
G37*
G36*
X153037938Y-101688916D02*
G01*
X153058557Y-101695171D01*
X153077553Y-101705324D01*
X153094208Y-101718992D01*
X153107876Y-101735647D01*
X153118029Y-101754643D01*
X153124284Y-101775262D01*
X153127000Y-101802840D01*
X153127000Y-102311560D01*
X153124284Y-102339138D01*
X153118029Y-102359757D01*
X153107876Y-102378753D01*
X153094208Y-102395408D01*
X153077553Y-102409076D01*
X153058557Y-102419229D01*
X153037938Y-102425484D01*
X153010360Y-102428200D01*
X152551640Y-102428200D01*
X152524062Y-102425484D01*
X152503443Y-102419229D01*
X152484447Y-102409076D01*
X152467792Y-102395408D01*
X152454124Y-102378753D01*
X152443971Y-102359757D01*
X152437716Y-102339138D01*
X152435000Y-102311560D01*
X152435000Y-101802840D01*
X152437716Y-101775262D01*
X152443971Y-101754643D01*
X152454124Y-101735647D01*
X152467792Y-101718992D01*
X152484447Y-101705324D01*
X152503443Y-101695171D01*
X152524062Y-101688916D01*
X152551640Y-101686200D01*
X153010360Y-101686200D01*
X153037938Y-101688916D01*
G37*
G36*
X144258512Y-96893927D02*
G01*
X144407812Y-96923624D01*
X144571784Y-96991544D01*
X144719354Y-97090147D01*
X144844853Y-97215646D01*
X144943456Y-97363216D01*
X145011376Y-97527188D01*
X145046000Y-97701259D01*
X145046000Y-97878741D01*
X145011376Y-98052812D01*
X144943456Y-98216784D01*
X144844853Y-98364354D01*
X144719354Y-98489853D01*
X144571784Y-98588456D01*
X144407812Y-98656376D01*
X144258512Y-98686073D01*
X144233742Y-98691000D01*
X144056258Y-98691000D01*
X144031488Y-98686073D01*
X143882188Y-98656376D01*
X143718216Y-98588456D01*
X143570646Y-98489853D01*
X143445147Y-98364354D01*
X143346544Y-98216784D01*
X143278624Y-98052812D01*
X143244000Y-97878741D01*
X143244000Y-97701259D01*
X143278624Y-97527188D01*
X143346544Y-97363216D01*
X143445147Y-97215646D01*
X143570646Y-97090147D01*
X143718216Y-96991544D01*
X143882188Y-96923624D01*
X144031488Y-96893927D01*
X144056258Y-96889000D01*
X144233742Y-96889000D01*
X144258512Y-96893927D01*
G37*
G36*
X127266000Y-98691000D02*
G01*
X125464000Y-98691000D01*
X125464000Y-96889000D01*
X127266000Y-96889000D01*
X127266000Y-98691000D01*
G37*
G36*
X129018512Y-96893927D02*
G01*
X129167812Y-96923624D01*
X129331784Y-96991544D01*
X129479354Y-97090147D01*
X129604853Y-97215646D01*
X129703456Y-97363216D01*
X129771376Y-97527188D01*
X129806000Y-97701259D01*
X129806000Y-97878741D01*
X129771376Y-98052812D01*
X129703456Y-98216784D01*
X129604853Y-98364354D01*
X129479354Y-98489853D01*
X129331784Y-98588456D01*
X129167812Y-98656376D01*
X129018512Y-98686073D01*
X128993742Y-98691000D01*
X128816258Y-98691000D01*
X128791488Y-98686073D01*
X128642188Y-98656376D01*
X128478216Y-98588456D01*
X128330646Y-98489853D01*
X128205147Y-98364354D01*
X128106544Y-98216784D01*
X128038624Y-98052812D01*
X128004000Y-97878741D01*
X128004000Y-97701259D01*
X128038624Y-97527188D01*
X128106544Y-97363216D01*
X128205147Y-97215646D01*
X128330646Y-97090147D01*
X128478216Y-96991544D01*
X128642188Y-96923624D01*
X128791488Y-96893927D01*
X128816258Y-96889000D01*
X128993742Y-96889000D01*
X129018512Y-96893927D01*
G37*
G36*
X131558512Y-96893927D02*
G01*
X131707812Y-96923624D01*
X131871784Y-96991544D01*
X132019354Y-97090147D01*
X132144853Y-97215646D01*
X132243456Y-97363216D01*
X132311376Y-97527188D01*
X132346000Y-97701259D01*
X132346000Y-97878741D01*
X132311376Y-98052812D01*
X132243456Y-98216784D01*
X132144853Y-98364354D01*
X132019354Y-98489853D01*
X131871784Y-98588456D01*
X131707812Y-98656376D01*
X131558512Y-98686073D01*
X131533742Y-98691000D01*
X131356258Y-98691000D01*
X131331488Y-98686073D01*
X131182188Y-98656376D01*
X131018216Y-98588456D01*
X130870646Y-98489853D01*
X130745147Y-98364354D01*
X130646544Y-98216784D01*
X130578624Y-98052812D01*
X130544000Y-97878741D01*
X130544000Y-97701259D01*
X130578624Y-97527188D01*
X130646544Y-97363216D01*
X130745147Y-97215646D01*
X130870646Y-97090147D01*
X131018216Y-96991544D01*
X131182188Y-96923624D01*
X131331488Y-96893927D01*
X131356258Y-96889000D01*
X131533742Y-96889000D01*
X131558512Y-96893927D01*
G37*
G36*
X134098512Y-96893927D02*
G01*
X134247812Y-96923624D01*
X134411784Y-96991544D01*
X134559354Y-97090147D01*
X134684853Y-97215646D01*
X134783456Y-97363216D01*
X134851376Y-97527188D01*
X134886000Y-97701259D01*
X134886000Y-97878741D01*
X134851376Y-98052812D01*
X134783456Y-98216784D01*
X134684853Y-98364354D01*
X134559354Y-98489853D01*
X134411784Y-98588456D01*
X134247812Y-98656376D01*
X134098512Y-98686073D01*
X134073742Y-98691000D01*
X133896258Y-98691000D01*
X133871488Y-98686073D01*
X133722188Y-98656376D01*
X133558216Y-98588456D01*
X133410646Y-98489853D01*
X133285147Y-98364354D01*
X133186544Y-98216784D01*
X133118624Y-98052812D01*
X133084000Y-97878741D01*
X133084000Y-97701259D01*
X133118624Y-97527188D01*
X133186544Y-97363216D01*
X133285147Y-97215646D01*
X133410646Y-97090147D01*
X133558216Y-96991544D01*
X133722188Y-96923624D01*
X133871488Y-96893927D01*
X133896258Y-96889000D01*
X134073742Y-96889000D01*
X134098512Y-96893927D01*
G37*
G36*
X136638512Y-96893927D02*
G01*
X136787812Y-96923624D01*
X136951784Y-96991544D01*
X137099354Y-97090147D01*
X137224853Y-97215646D01*
X137323456Y-97363216D01*
X137391376Y-97527188D01*
X137426000Y-97701259D01*
X137426000Y-97878741D01*
X137391376Y-98052812D01*
X137323456Y-98216784D01*
X137224853Y-98364354D01*
X137099354Y-98489853D01*
X136951784Y-98588456D01*
X136787812Y-98656376D01*
X136638512Y-98686073D01*
X136613742Y-98691000D01*
X136436258Y-98691000D01*
X136411488Y-98686073D01*
X136262188Y-98656376D01*
X136098216Y-98588456D01*
X135950646Y-98489853D01*
X135825147Y-98364354D01*
X135726544Y-98216784D01*
X135658624Y-98052812D01*
X135624000Y-97878741D01*
X135624000Y-97701259D01*
X135658624Y-97527188D01*
X135726544Y-97363216D01*
X135825147Y-97215646D01*
X135950646Y-97090147D01*
X136098216Y-96991544D01*
X136262188Y-96923624D01*
X136411488Y-96893927D01*
X136436258Y-96889000D01*
X136613742Y-96889000D01*
X136638512Y-96893927D01*
G37*
G36*
X141718512Y-96893927D02*
G01*
X141867812Y-96923624D01*
X142031784Y-96991544D01*
X142179354Y-97090147D01*
X142304853Y-97215646D01*
X142403456Y-97363216D01*
X142471376Y-97527188D01*
X142506000Y-97701259D01*
X142506000Y-97878741D01*
X142471376Y-98052812D01*
X142403456Y-98216784D01*
X142304853Y-98364354D01*
X142179354Y-98489853D01*
X142031784Y-98588456D01*
X141867812Y-98656376D01*
X141718512Y-98686073D01*
X141693742Y-98691000D01*
X141516258Y-98691000D01*
X141491488Y-98686073D01*
X141342188Y-98656376D01*
X141178216Y-98588456D01*
X141030646Y-98489853D01*
X140905147Y-98364354D01*
X140806544Y-98216784D01*
X140738624Y-98052812D01*
X140704000Y-97878741D01*
X140704000Y-97701259D01*
X140738624Y-97527188D01*
X140806544Y-97363216D01*
X140905147Y-97215646D01*
X141030646Y-97090147D01*
X141178216Y-96991544D01*
X141342188Y-96923624D01*
X141491488Y-96893927D01*
X141516258Y-96889000D01*
X141693742Y-96889000D01*
X141718512Y-96893927D01*
G37*
G36*
X139178512Y-96893927D02*
G01*
X139327812Y-96923624D01*
X139491784Y-96991544D01*
X139639354Y-97090147D01*
X139764853Y-97215646D01*
X139863456Y-97363216D01*
X139931376Y-97527188D01*
X139966000Y-97701259D01*
X139966000Y-97878741D01*
X139931376Y-98052812D01*
X139863456Y-98216784D01*
X139764853Y-98364354D01*
X139639354Y-98489853D01*
X139491784Y-98588456D01*
X139327812Y-98656376D01*
X139178512Y-98686073D01*
X139153742Y-98691000D01*
X138976258Y-98691000D01*
X138951488Y-98686073D01*
X138802188Y-98656376D01*
X138638216Y-98588456D01*
X138490646Y-98489853D01*
X138365147Y-98364354D01*
X138266544Y-98216784D01*
X138198624Y-98052812D01*
X138164000Y-97878741D01*
X138164000Y-97701259D01*
X138198624Y-97527188D01*
X138266544Y-97363216D01*
X138365147Y-97215646D01*
X138490646Y-97090147D01*
X138638216Y-96991544D01*
X138802188Y-96923624D01*
X138951488Y-96893927D01*
X138976258Y-96889000D01*
X139153742Y-96889000D01*
X139178512Y-96893927D01*
G37*
G36*
X167118512Y-96893927D02*
G01*
X167267812Y-96923624D01*
X167431784Y-96991544D01*
X167579354Y-97090147D01*
X167704853Y-97215646D01*
X167803456Y-97363216D01*
X167871376Y-97527188D01*
X167906000Y-97701259D01*
X167906000Y-97878741D01*
X167871376Y-98052812D01*
X167803456Y-98216784D01*
X167704853Y-98364354D01*
X167579354Y-98489853D01*
X167431784Y-98588456D01*
X167267812Y-98656376D01*
X167118512Y-98686073D01*
X167093742Y-98691000D01*
X166916258Y-98691000D01*
X166891488Y-98686073D01*
X166742188Y-98656376D01*
X166578216Y-98588456D01*
X166430646Y-98489853D01*
X166305147Y-98364354D01*
X166206544Y-98216784D01*
X166138624Y-98052812D01*
X166104000Y-97878741D01*
X166104000Y-97701259D01*
X166138624Y-97527188D01*
X166206544Y-97363216D01*
X166305147Y-97215646D01*
X166430646Y-97090147D01*
X166578216Y-96991544D01*
X166742188Y-96923624D01*
X166891488Y-96893927D01*
X166916258Y-96889000D01*
X167093742Y-96889000D01*
X167118512Y-96893927D01*
G37*
G36*
X164578512Y-96893927D02*
G01*
X164727812Y-96923624D01*
X164891784Y-96991544D01*
X165039354Y-97090147D01*
X165164853Y-97215646D01*
X165263456Y-97363216D01*
X165331376Y-97527188D01*
X165366000Y-97701259D01*
X165366000Y-97878741D01*
X165331376Y-98052812D01*
X165263456Y-98216784D01*
X165164853Y-98364354D01*
X165039354Y-98489853D01*
X164891784Y-98588456D01*
X164727812Y-98656376D01*
X164578512Y-98686073D01*
X164553742Y-98691000D01*
X164376258Y-98691000D01*
X164351488Y-98686073D01*
X164202188Y-98656376D01*
X164038216Y-98588456D01*
X163890646Y-98489853D01*
X163765147Y-98364354D01*
X163666544Y-98216784D01*
X163598624Y-98052812D01*
X163564000Y-97878741D01*
X163564000Y-97701259D01*
X163598624Y-97527188D01*
X163666544Y-97363216D01*
X163765147Y-97215646D01*
X163890646Y-97090147D01*
X164038216Y-96991544D01*
X164202188Y-96923624D01*
X164351488Y-96893927D01*
X164376258Y-96889000D01*
X164553742Y-96889000D01*
X164578512Y-96893927D01*
G37*
G36*
X162038512Y-96893927D02*
G01*
X162187812Y-96923624D01*
X162351784Y-96991544D01*
X162499354Y-97090147D01*
X162624853Y-97215646D01*
X162723456Y-97363216D01*
X162791376Y-97527188D01*
X162826000Y-97701259D01*
X162826000Y-97878741D01*
X162791376Y-98052812D01*
X162723456Y-98216784D01*
X162624853Y-98364354D01*
X162499354Y-98489853D01*
X162351784Y-98588456D01*
X162187812Y-98656376D01*
X162038512Y-98686073D01*
X162013742Y-98691000D01*
X161836258Y-98691000D01*
X161811488Y-98686073D01*
X161662188Y-98656376D01*
X161498216Y-98588456D01*
X161350646Y-98489853D01*
X161225147Y-98364354D01*
X161126544Y-98216784D01*
X161058624Y-98052812D01*
X161024000Y-97878741D01*
X161024000Y-97701259D01*
X161058624Y-97527188D01*
X161126544Y-97363216D01*
X161225147Y-97215646D01*
X161350646Y-97090147D01*
X161498216Y-96991544D01*
X161662188Y-96923624D01*
X161811488Y-96893927D01*
X161836258Y-96889000D01*
X162013742Y-96889000D01*
X162038512Y-96893927D01*
G37*
G36*
X159498512Y-96893927D02*
G01*
X159647812Y-96923624D01*
X159811784Y-96991544D01*
X159959354Y-97090147D01*
X160084853Y-97215646D01*
X160183456Y-97363216D01*
X160251376Y-97527188D01*
X160286000Y-97701259D01*
X160286000Y-97878741D01*
X160251376Y-98052812D01*
X160183456Y-98216784D01*
X160084853Y-98364354D01*
X159959354Y-98489853D01*
X159811784Y-98588456D01*
X159647812Y-98656376D01*
X159498512Y-98686073D01*
X159473742Y-98691000D01*
X159296258Y-98691000D01*
X159271488Y-98686073D01*
X159122188Y-98656376D01*
X158958216Y-98588456D01*
X158810646Y-98489853D01*
X158685147Y-98364354D01*
X158586544Y-98216784D01*
X158518624Y-98052812D01*
X158484000Y-97878741D01*
X158484000Y-97701259D01*
X158518624Y-97527188D01*
X158586544Y-97363216D01*
X158685147Y-97215646D01*
X158810646Y-97090147D01*
X158958216Y-96991544D01*
X159122188Y-96923624D01*
X159271488Y-96893927D01*
X159296258Y-96889000D01*
X159473742Y-96889000D01*
X159498512Y-96893927D01*
G37*
G36*
X156958512Y-96893927D02*
G01*
X157107812Y-96923624D01*
X157271784Y-96991544D01*
X157419354Y-97090147D01*
X157544853Y-97215646D01*
X157643456Y-97363216D01*
X157711376Y-97527188D01*
X157746000Y-97701259D01*
X157746000Y-97878741D01*
X157711376Y-98052812D01*
X157643456Y-98216784D01*
X157544853Y-98364354D01*
X157419354Y-98489853D01*
X157271784Y-98588456D01*
X157107812Y-98656376D01*
X156958512Y-98686073D01*
X156933742Y-98691000D01*
X156756258Y-98691000D01*
X156731488Y-98686073D01*
X156582188Y-98656376D01*
X156418216Y-98588456D01*
X156270646Y-98489853D01*
X156145147Y-98364354D01*
X156046544Y-98216784D01*
X155978624Y-98052812D01*
X155944000Y-97878741D01*
X155944000Y-97701259D01*
X155978624Y-97527188D01*
X156046544Y-97363216D01*
X156145147Y-97215646D01*
X156270646Y-97090147D01*
X156418216Y-96991544D01*
X156582188Y-96923624D01*
X156731488Y-96893927D01*
X156756258Y-96889000D01*
X156933742Y-96889000D01*
X156958512Y-96893927D01*
G37*
G36*
X154418512Y-96893927D02*
G01*
X154567812Y-96923624D01*
X154731784Y-96991544D01*
X154879354Y-97090147D01*
X155004853Y-97215646D01*
X155103456Y-97363216D01*
X155171376Y-97527188D01*
X155206000Y-97701259D01*
X155206000Y-97878741D01*
X155171376Y-98052812D01*
X155103456Y-98216784D01*
X155004853Y-98364354D01*
X154879354Y-98489853D01*
X154731784Y-98588456D01*
X154567812Y-98656376D01*
X154418512Y-98686073D01*
X154393742Y-98691000D01*
X154216258Y-98691000D01*
X154191488Y-98686073D01*
X154042188Y-98656376D01*
X153878216Y-98588456D01*
X153730646Y-98489853D01*
X153605147Y-98364354D01*
X153506544Y-98216784D01*
X153438624Y-98052812D01*
X153404000Y-97878741D01*
X153404000Y-97701259D01*
X153438624Y-97527188D01*
X153506544Y-97363216D01*
X153605147Y-97215646D01*
X153730646Y-97090147D01*
X153878216Y-96991544D01*
X154042188Y-96923624D01*
X154191488Y-96893927D01*
X154216258Y-96889000D01*
X154393742Y-96889000D01*
X154418512Y-96893927D01*
G37*
G36*
X151878512Y-96893927D02*
G01*
X152027812Y-96923624D01*
X152191784Y-96991544D01*
X152339354Y-97090147D01*
X152464853Y-97215646D01*
X152563456Y-97363216D01*
X152631376Y-97527188D01*
X152666000Y-97701259D01*
X152666000Y-97878741D01*
X152631376Y-98052812D01*
X152563456Y-98216784D01*
X152464853Y-98364354D01*
X152339354Y-98489853D01*
X152191784Y-98588456D01*
X152027812Y-98656376D01*
X151878512Y-98686073D01*
X151853742Y-98691000D01*
X151676258Y-98691000D01*
X151651488Y-98686073D01*
X151502188Y-98656376D01*
X151338216Y-98588456D01*
X151190646Y-98489853D01*
X151065147Y-98364354D01*
X150966544Y-98216784D01*
X150898624Y-98052812D01*
X150864000Y-97878741D01*
X150864000Y-97701259D01*
X150898624Y-97527188D01*
X150966544Y-97363216D01*
X151065147Y-97215646D01*
X151190646Y-97090147D01*
X151338216Y-96991544D01*
X151502188Y-96923624D01*
X151651488Y-96893927D01*
X151676258Y-96889000D01*
X151853742Y-96889000D01*
X151878512Y-96893927D01*
G37*
G36*
X149338512Y-96893927D02*
G01*
X149487812Y-96923624D01*
X149651784Y-96991544D01*
X149799354Y-97090147D01*
X149924853Y-97215646D01*
X150023456Y-97363216D01*
X150091376Y-97527188D01*
X150126000Y-97701259D01*
X150126000Y-97878741D01*
X150091376Y-98052812D01*
X150023456Y-98216784D01*
X149924853Y-98364354D01*
X149799354Y-98489853D01*
X149651784Y-98588456D01*
X149487812Y-98656376D01*
X149338512Y-98686073D01*
X149313742Y-98691000D01*
X149136258Y-98691000D01*
X149111488Y-98686073D01*
X148962188Y-98656376D01*
X148798216Y-98588456D01*
X148650646Y-98489853D01*
X148525147Y-98364354D01*
X148426544Y-98216784D01*
X148358624Y-98052812D01*
X148324000Y-97878741D01*
X148324000Y-97701259D01*
X148358624Y-97527188D01*
X148426544Y-97363216D01*
X148525147Y-97215646D01*
X148650646Y-97090147D01*
X148798216Y-96991544D01*
X148962188Y-96923624D01*
X149111488Y-96893927D01*
X149136258Y-96889000D01*
X149313742Y-96889000D01*
X149338512Y-96893927D01*
G37*
G36*
X146798512Y-96893927D02*
G01*
X146947812Y-96923624D01*
X147111784Y-96991544D01*
X147259354Y-97090147D01*
X147384853Y-97215646D01*
X147483456Y-97363216D01*
X147551376Y-97527188D01*
X147586000Y-97701259D01*
X147586000Y-97878741D01*
X147551376Y-98052812D01*
X147483456Y-98216784D01*
X147384853Y-98364354D01*
X147259354Y-98489853D01*
X147111784Y-98588456D01*
X146947812Y-98656376D01*
X146798512Y-98686073D01*
X146773742Y-98691000D01*
X146596258Y-98691000D01*
X146571488Y-98686073D01*
X146422188Y-98656376D01*
X146258216Y-98588456D01*
X146110646Y-98489853D01*
X145985147Y-98364354D01*
X145886544Y-98216784D01*
X145818624Y-98052812D01*
X145784000Y-97878741D01*
X145784000Y-97701259D01*
X145818624Y-97527188D01*
X145886544Y-97363216D01*
X145985147Y-97215646D01*
X146110646Y-97090147D01*
X146258216Y-96991544D01*
X146422188Y-96923624D01*
X146571488Y-96893927D01*
X146596258Y-96889000D01*
X146773742Y-96889000D01*
X146798512Y-96893927D01*
G37*
G36*
X169658512Y-96893927D02*
G01*
X169807812Y-96923624D01*
X169971784Y-96991544D01*
X170119354Y-97090147D01*
X170244853Y-97215646D01*
X170343456Y-97363216D01*
X170411376Y-97527188D01*
X170446000Y-97701259D01*
X170446000Y-97878741D01*
X170411376Y-98052812D01*
X170343456Y-98216784D01*
X170244853Y-98364354D01*
X170119354Y-98489853D01*
X169971784Y-98588456D01*
X169807812Y-98656376D01*
X169658512Y-98686073D01*
X169633742Y-98691000D01*
X169456258Y-98691000D01*
X169431488Y-98686073D01*
X169282188Y-98656376D01*
X169118216Y-98588456D01*
X168970646Y-98489853D01*
X168845147Y-98364354D01*
X168746544Y-98216784D01*
X168678624Y-98052812D01*
X168644000Y-97878741D01*
X168644000Y-97701259D01*
X168678624Y-97527188D01*
X168746544Y-97363216D01*
X168845147Y-97215646D01*
X168970646Y-97090147D01*
X169118216Y-96991544D01*
X169282188Y-96923624D01*
X169431488Y-96893927D01*
X169456258Y-96889000D01*
X169633742Y-96889000D01*
X169658512Y-96893927D01*
G37*
M02*
