G04 #@! TF.GenerationSoftware,KiCad,Pcbnew,5.1.5+dfsg1-2build2*
G04 #@! TF.CreationDate,2022-10-07T11:57:08+02:00*
G04 #@! TF.ProjectId,CMS_AmpliGBP,434d535f-416d-4706-9c69-4742502e6b69,rev?*
G04 #@! TF.SameCoordinates,Original*
G04 #@! TF.FileFunction,Legend,Top*
G04 #@! TF.FilePolarity,Positive*
%FSLAX46Y46*%
G04 Gerber Fmt 4.6, Leading zero omitted, Abs format (unit mm)*
G04 Created by KiCad (PCBNEW 5.1.5+dfsg1-2build2) date 2022-10-07 11:57:08*
%MOMM*%
%LPD*%
G04 APERTURE LIST*
%ADD10C,0.120000*%
%ADD11C,0.150000*%
G04 APERTURE END LIST*
D10*
X125035000Y-96350000D02*
X170875000Y-96350000D01*
X170875000Y-96350000D02*
X170875000Y-93690000D01*
X170875000Y-93690000D02*
X125035000Y-93690000D01*
X125035000Y-93690000D02*
X125035000Y-96350000D01*
X125985000Y-93690000D02*
X125985000Y-87690000D01*
X125985000Y-87690000D02*
X126745000Y-87690000D01*
X126745000Y-87690000D02*
X126745000Y-93690000D01*
X126045000Y-93690000D02*
X126045000Y-87690000D01*
X126165000Y-93690000D02*
X126165000Y-87690000D01*
X126285000Y-93690000D02*
X126285000Y-87690000D01*
X126405000Y-93690000D02*
X126405000Y-87690000D01*
X126525000Y-93690000D02*
X126525000Y-87690000D01*
X126645000Y-93690000D02*
X126645000Y-87690000D01*
X125985000Y-96680000D02*
X125985000Y-96350000D01*
X126745000Y-96680000D02*
X126745000Y-96350000D01*
X127635000Y-96350000D02*
X127635000Y-93690000D01*
X128525000Y-93690000D02*
X128525000Y-87690000D01*
X128525000Y-87690000D02*
X129285000Y-87690000D01*
X129285000Y-87690000D02*
X129285000Y-93690000D01*
X128525000Y-96747071D02*
X128525000Y-96350000D01*
X129285000Y-96747071D02*
X129285000Y-96350000D01*
X130175000Y-96350000D02*
X130175000Y-93690000D01*
X131065000Y-93690000D02*
X131065000Y-87690000D01*
X131065000Y-87690000D02*
X131825000Y-87690000D01*
X131825000Y-87690000D02*
X131825000Y-93690000D01*
X131065000Y-96747071D02*
X131065000Y-96350000D01*
X131825000Y-96747071D02*
X131825000Y-96350000D01*
X132715000Y-96350000D02*
X132715000Y-93690000D01*
X133605000Y-93690000D02*
X133605000Y-87690000D01*
X133605000Y-87690000D02*
X134365000Y-87690000D01*
X134365000Y-87690000D02*
X134365000Y-93690000D01*
X133605000Y-96747071D02*
X133605000Y-96350000D01*
X134365000Y-96747071D02*
X134365000Y-96350000D01*
X135255000Y-96350000D02*
X135255000Y-93690000D01*
X136145000Y-93690000D02*
X136145000Y-87690000D01*
X136145000Y-87690000D02*
X136905000Y-87690000D01*
X136905000Y-87690000D02*
X136905000Y-93690000D01*
X136145000Y-96747071D02*
X136145000Y-96350000D01*
X136905000Y-96747071D02*
X136905000Y-96350000D01*
X137795000Y-96350000D02*
X137795000Y-93690000D01*
X138685000Y-93690000D02*
X138685000Y-87690000D01*
X138685000Y-87690000D02*
X139445000Y-87690000D01*
X139445000Y-87690000D02*
X139445000Y-93690000D01*
X138685000Y-96747071D02*
X138685000Y-96350000D01*
X139445000Y-96747071D02*
X139445000Y-96350000D01*
X140335000Y-96350000D02*
X140335000Y-93690000D01*
X141225000Y-93690000D02*
X141225000Y-87690000D01*
X141225000Y-87690000D02*
X141985000Y-87690000D01*
X141985000Y-87690000D02*
X141985000Y-93690000D01*
X141225000Y-96747071D02*
X141225000Y-96350000D01*
X141985000Y-96747071D02*
X141985000Y-96350000D01*
X142875000Y-96350000D02*
X142875000Y-93690000D01*
X143765000Y-93690000D02*
X143765000Y-87690000D01*
X143765000Y-87690000D02*
X144525000Y-87690000D01*
X144525000Y-87690000D02*
X144525000Y-93690000D01*
X143765000Y-96747071D02*
X143765000Y-96350000D01*
X144525000Y-96747071D02*
X144525000Y-96350000D01*
X145415000Y-96350000D02*
X145415000Y-93690000D01*
X146305000Y-93690000D02*
X146305000Y-87690000D01*
X146305000Y-87690000D02*
X147065000Y-87690000D01*
X147065000Y-87690000D02*
X147065000Y-93690000D01*
X146305000Y-96747071D02*
X146305000Y-96350000D01*
X147065000Y-96747071D02*
X147065000Y-96350000D01*
X147955000Y-96350000D02*
X147955000Y-93690000D01*
X148845000Y-93690000D02*
X148845000Y-87690000D01*
X148845000Y-87690000D02*
X149605000Y-87690000D01*
X149605000Y-87690000D02*
X149605000Y-93690000D01*
X148845000Y-96747071D02*
X148845000Y-96350000D01*
X149605000Y-96747071D02*
X149605000Y-96350000D01*
X150495000Y-96350000D02*
X150495000Y-93690000D01*
X151385000Y-93690000D02*
X151385000Y-87690000D01*
X151385000Y-87690000D02*
X152145000Y-87690000D01*
X152145000Y-87690000D02*
X152145000Y-93690000D01*
X151385000Y-96747071D02*
X151385000Y-96350000D01*
X152145000Y-96747071D02*
X152145000Y-96350000D01*
X153035000Y-96350000D02*
X153035000Y-93690000D01*
X153925000Y-93690000D02*
X153925000Y-87690000D01*
X153925000Y-87690000D02*
X154685000Y-87690000D01*
X154685000Y-87690000D02*
X154685000Y-93690000D01*
X153925000Y-96747071D02*
X153925000Y-96350000D01*
X154685000Y-96747071D02*
X154685000Y-96350000D01*
X155575000Y-96350000D02*
X155575000Y-93690000D01*
X156465000Y-93690000D02*
X156465000Y-87690000D01*
X156465000Y-87690000D02*
X157225000Y-87690000D01*
X157225000Y-87690000D02*
X157225000Y-93690000D01*
X156465000Y-96747071D02*
X156465000Y-96350000D01*
X157225000Y-96747071D02*
X157225000Y-96350000D01*
X158115000Y-96350000D02*
X158115000Y-93690000D01*
X159005000Y-93690000D02*
X159005000Y-87690000D01*
X159005000Y-87690000D02*
X159765000Y-87690000D01*
X159765000Y-87690000D02*
X159765000Y-93690000D01*
X159005000Y-96747071D02*
X159005000Y-96350000D01*
X159765000Y-96747071D02*
X159765000Y-96350000D01*
X160655000Y-96350000D02*
X160655000Y-93690000D01*
X161545000Y-93690000D02*
X161545000Y-87690000D01*
X161545000Y-87690000D02*
X162305000Y-87690000D01*
X162305000Y-87690000D02*
X162305000Y-93690000D01*
X161545000Y-96747071D02*
X161545000Y-96350000D01*
X162305000Y-96747071D02*
X162305000Y-96350000D01*
X163195000Y-96350000D02*
X163195000Y-93690000D01*
X164085000Y-93690000D02*
X164085000Y-87690000D01*
X164085000Y-87690000D02*
X164845000Y-87690000D01*
X164845000Y-87690000D02*
X164845000Y-93690000D01*
X164085000Y-96747071D02*
X164085000Y-96350000D01*
X164845000Y-96747071D02*
X164845000Y-96350000D01*
X165735000Y-96350000D02*
X165735000Y-93690000D01*
X166625000Y-93690000D02*
X166625000Y-87690000D01*
X166625000Y-87690000D02*
X167385000Y-87690000D01*
X167385000Y-87690000D02*
X167385000Y-93690000D01*
X166625000Y-96747071D02*
X166625000Y-96350000D01*
X167385000Y-96747071D02*
X167385000Y-96350000D01*
X168275000Y-96350000D02*
X168275000Y-93690000D01*
X169165000Y-93690000D02*
X169165000Y-87690000D01*
X169165000Y-87690000D02*
X169925000Y-87690000D01*
X169925000Y-87690000D02*
X169925000Y-93690000D01*
X169165000Y-96747071D02*
X169165000Y-96350000D01*
X169925000Y-96747071D02*
X169925000Y-96350000D01*
X126365000Y-99060000D02*
X125095000Y-99060000D01*
X125095000Y-99060000D02*
X125095000Y-97790000D01*
X139740321Y-102309200D02*
X140065879Y-102309200D01*
X139740321Y-103329200D02*
X140065879Y-103329200D01*
X155780200Y-109890679D02*
X155780200Y-109565121D01*
X154760200Y-109890679D02*
X154760200Y-109565121D01*
X154764200Y-105221721D02*
X154764200Y-105547279D01*
X153744200Y-105221721D02*
X153744200Y-105547279D01*
X146665001Y-115737800D02*
X148615001Y-115737800D01*
X146665001Y-115737800D02*
X144715001Y-115737800D01*
X146665001Y-106867800D02*
X148615001Y-106867800D01*
X146665001Y-106867800D02*
X143215001Y-106867800D01*
D11*
X123547380Y-93738333D02*
X124261666Y-93738333D01*
X124404523Y-93785952D01*
X124499761Y-93881190D01*
X124547380Y-94024047D01*
X124547380Y-94119285D01*
X124547380Y-92738333D02*
X124547380Y-93309761D01*
X124547380Y-93024047D02*
X123547380Y-93024047D01*
X123690238Y-93119285D01*
X123785476Y-93214523D01*
X123833095Y-93309761D01*
X139736433Y-101841580D02*
X139403100Y-101365390D01*
X139165004Y-101841580D02*
X139165004Y-100841580D01*
X139545957Y-100841580D01*
X139641195Y-100889200D01*
X139688814Y-100936819D01*
X139736433Y-101032057D01*
X139736433Y-101174914D01*
X139688814Y-101270152D01*
X139641195Y-101317771D01*
X139545957Y-101365390D01*
X139165004Y-101365390D01*
X140688814Y-101841580D02*
X140117385Y-101841580D01*
X140403100Y-101841580D02*
X140403100Y-100841580D01*
X140307861Y-100984438D01*
X140212623Y-101079676D01*
X140117385Y-101127295D01*
X154292580Y-109894566D02*
X153816390Y-110227900D01*
X154292580Y-110465995D02*
X153292580Y-110465995D01*
X153292580Y-110085042D01*
X153340200Y-109989804D01*
X153387819Y-109942185D01*
X153483057Y-109894566D01*
X153625914Y-109894566D01*
X153721152Y-109942185D01*
X153768771Y-109989804D01*
X153816390Y-110085042D01*
X153816390Y-110465995D01*
X153387819Y-109513614D02*
X153340200Y-109465995D01*
X153292580Y-109370757D01*
X153292580Y-109132661D01*
X153340200Y-109037423D01*
X153387819Y-108989804D01*
X153483057Y-108942185D01*
X153578295Y-108942185D01*
X153721152Y-108989804D01*
X154292580Y-109561233D01*
X154292580Y-108942185D01*
X153587380Y-115866066D02*
X153111190Y-116199400D01*
X153587380Y-116437495D02*
X152587380Y-116437495D01*
X152587380Y-116056542D01*
X152635000Y-115961304D01*
X152682619Y-115913685D01*
X152777857Y-115866066D01*
X152920714Y-115866066D01*
X153015952Y-115913685D01*
X153063571Y-115961304D01*
X153111190Y-116056542D01*
X153111190Y-116437495D01*
X152587380Y-115532733D02*
X152587380Y-114913685D01*
X152968333Y-115247019D01*
X152968333Y-115104161D01*
X153015952Y-115008923D01*
X153063571Y-114961304D01*
X153158809Y-114913685D01*
X153396904Y-114913685D01*
X153492142Y-114961304D01*
X153539761Y-115008923D01*
X153587380Y-115104161D01*
X153587380Y-115389876D01*
X153539761Y-115485114D01*
X153492142Y-115532733D01*
X156136580Y-105551166D02*
X155660390Y-105884500D01*
X156136580Y-106122595D02*
X155136580Y-106122595D01*
X155136580Y-105741642D01*
X155184200Y-105646404D01*
X155231819Y-105598785D01*
X155327057Y-105551166D01*
X155469914Y-105551166D01*
X155565152Y-105598785D01*
X155612771Y-105646404D01*
X155660390Y-105741642D01*
X155660390Y-106122595D01*
X155469914Y-104694023D02*
X156136580Y-104694023D01*
X155088961Y-104932119D02*
X155803247Y-105170214D01*
X155803247Y-104551166D01*
X152129333Y-101339580D02*
X151796000Y-100863390D01*
X151557904Y-101339580D02*
X151557904Y-100339580D01*
X151938857Y-100339580D01*
X152034095Y-100387200D01*
X152081714Y-100434819D01*
X152129333Y-100530057D01*
X152129333Y-100672914D01*
X152081714Y-100768152D01*
X152034095Y-100815771D01*
X151938857Y-100863390D01*
X151557904Y-100863390D01*
X153034095Y-100339580D02*
X152557904Y-100339580D01*
X152510285Y-100815771D01*
X152557904Y-100768152D01*
X152653142Y-100720533D01*
X152891238Y-100720533D01*
X152986476Y-100768152D01*
X153034095Y-100815771D01*
X153081714Y-100911009D01*
X153081714Y-101149104D01*
X153034095Y-101244342D01*
X152986476Y-101291961D01*
X152891238Y-101339580D01*
X152653142Y-101339580D01*
X152557904Y-101291961D01*
X152510285Y-101244342D01*
X145903096Y-105475180D02*
X145903096Y-106284704D01*
X145950715Y-106379942D01*
X145998334Y-106427561D01*
X146093572Y-106475180D01*
X146284048Y-106475180D01*
X146379286Y-106427561D01*
X146426905Y-106379942D01*
X146474524Y-106284704D01*
X146474524Y-105475180D01*
X147474524Y-106475180D02*
X146903096Y-106475180D01*
X147188810Y-106475180D02*
X147188810Y-105475180D01*
X147093572Y-105618038D01*
X146998334Y-105713276D01*
X146903096Y-105760895D01*
M02*
