%TF.GenerationSoftware,KiCad,Pcbnew,9.0.4*%
%TF.CreationDate,2026-03-20T10:28:42+01:00*%
%TF.ProjectId,phd_slave,7068645f-736c-4617-9665-2e6b69636164,rev?*%
%TF.SameCoordinates,Original*%
%TF.FileFunction,Legend,Top*%
%TF.FilePolarity,Positive*%
%FSLAX46Y46*%
G04 Gerber Fmt 4.6, Leading zero omitted, Abs format (unit mm)*
G04 Created by KiCad (PCBNEW 9.0.4) date 2026-03-20 10:28:42*
%MOMM*%
%LPD*%
G01*
G04 APERTURE LIST*
%ADD10C,0.200000*%
%ADD11C,0.150000*%
%ADD12C,0.100000*%
%ADD13C,0.125000*%
%ADD14C,0.000000*%
%ADD15C,0.120000*%
G04 APERTURE END LIST*
D10*
X116960000Y-63500000D02*
X131960000Y-63500000D01*
X131960000Y-93500000D01*
X116960000Y-93500000D01*
X116960000Y-63500000D01*
X101720000Y-63500000D02*
X116720000Y-63500000D01*
X116720000Y-93500000D01*
X101720000Y-93500000D01*
X101720000Y-63500000D01*
X86480000Y-63500000D02*
X101480000Y-63500000D01*
X101480000Y-93500000D01*
X86480000Y-93500000D01*
X86480000Y-63500000D01*
D11*
X90624819Y-103020475D02*
X89624819Y-103020475D01*
X89624819Y-103020475D02*
X90624819Y-102449047D01*
X90624819Y-102449047D02*
X89624819Y-102449047D01*
X89624819Y-101782380D02*
X89624819Y-101591904D01*
X89624819Y-101591904D02*
X89672438Y-101496666D01*
X89672438Y-101496666D02*
X89767676Y-101401428D01*
X89767676Y-101401428D02*
X89958152Y-101353809D01*
X89958152Y-101353809D02*
X90291485Y-101353809D01*
X90291485Y-101353809D02*
X90481961Y-101401428D01*
X90481961Y-101401428D02*
X90577200Y-101496666D01*
X90577200Y-101496666D02*
X90624819Y-101591904D01*
X90624819Y-101591904D02*
X90624819Y-101782380D01*
X90624819Y-101782380D02*
X90577200Y-101877618D01*
X90577200Y-101877618D02*
X90481961Y-101972856D01*
X90481961Y-101972856D02*
X90291485Y-102020475D01*
X90291485Y-102020475D02*
X89958152Y-102020475D01*
X89958152Y-102020475D02*
X89767676Y-101972856D01*
X89767676Y-101972856D02*
X89672438Y-101877618D01*
X89672438Y-101877618D02*
X89624819Y-101782380D01*
X90339104Y-100210951D02*
X90339104Y-99734761D01*
X90624819Y-100306189D02*
X89624819Y-99972856D01*
X89624819Y-99972856D02*
X90624819Y-99639523D01*
X90624819Y-99306189D02*
X89624819Y-99306189D01*
X89624819Y-99306189D02*
X90339104Y-98972856D01*
X90339104Y-98972856D02*
X89624819Y-98639523D01*
X89624819Y-98639523D02*
X90624819Y-98639523D01*
X90624819Y-98163332D02*
X89624819Y-98163332D01*
X89624819Y-98163332D02*
X89624819Y-97782380D01*
X89624819Y-97782380D02*
X89672438Y-97687142D01*
X89672438Y-97687142D02*
X89720057Y-97639523D01*
X89720057Y-97639523D02*
X89815295Y-97591904D01*
X89815295Y-97591904D02*
X89958152Y-97591904D01*
X89958152Y-97591904D02*
X90053390Y-97639523D01*
X90053390Y-97639523D02*
X90101009Y-97687142D01*
X90101009Y-97687142D02*
X90148628Y-97782380D01*
X90148628Y-97782380D02*
X90148628Y-98163332D01*
X99514819Y-72540475D02*
X98514819Y-72540475D01*
X98514819Y-72540475D02*
X99514819Y-71969047D01*
X99514819Y-71969047D02*
X98514819Y-71969047D01*
X98514819Y-71302380D02*
X98514819Y-71111904D01*
X98514819Y-71111904D02*
X98562438Y-71016666D01*
X98562438Y-71016666D02*
X98657676Y-70921428D01*
X98657676Y-70921428D02*
X98848152Y-70873809D01*
X98848152Y-70873809D02*
X99181485Y-70873809D01*
X99181485Y-70873809D02*
X99371961Y-70921428D01*
X99371961Y-70921428D02*
X99467200Y-71016666D01*
X99467200Y-71016666D02*
X99514819Y-71111904D01*
X99514819Y-71111904D02*
X99514819Y-71302380D01*
X99514819Y-71302380D02*
X99467200Y-71397618D01*
X99467200Y-71397618D02*
X99371961Y-71492856D01*
X99371961Y-71492856D02*
X99181485Y-71540475D01*
X99181485Y-71540475D02*
X98848152Y-71540475D01*
X98848152Y-71540475D02*
X98657676Y-71492856D01*
X98657676Y-71492856D02*
X98562438Y-71397618D01*
X98562438Y-71397618D02*
X98514819Y-71302380D01*
X99229104Y-69730951D02*
X99229104Y-69254761D01*
X99514819Y-69826189D02*
X98514819Y-69492856D01*
X98514819Y-69492856D02*
X99514819Y-69159523D01*
X99514819Y-68826189D02*
X98514819Y-68826189D01*
X98514819Y-68826189D02*
X99229104Y-68492856D01*
X99229104Y-68492856D02*
X98514819Y-68159523D01*
X98514819Y-68159523D02*
X99514819Y-68159523D01*
X99514819Y-67683332D02*
X98514819Y-67683332D01*
X98514819Y-67683332D02*
X98514819Y-67302380D01*
X98514819Y-67302380D02*
X98562438Y-67207142D01*
X98562438Y-67207142D02*
X98610057Y-67159523D01*
X98610057Y-67159523D02*
X98705295Y-67111904D01*
X98705295Y-67111904D02*
X98848152Y-67111904D01*
X98848152Y-67111904D02*
X98943390Y-67159523D01*
X98943390Y-67159523D02*
X98991009Y-67207142D01*
X98991009Y-67207142D02*
X99038628Y-67302380D01*
X99038628Y-67302380D02*
X99038628Y-67683332D01*
D10*
X135466028Y-115354285D02*
X135466028Y-115068571D01*
X135466028Y-115068571D02*
X135537457Y-114925714D01*
X135537457Y-114925714D02*
X135680314Y-114782857D01*
X135680314Y-114782857D02*
X135966028Y-114711428D01*
X135966028Y-114711428D02*
X136466028Y-114711428D01*
X136466028Y-114711428D02*
X136751742Y-114782857D01*
X136751742Y-114782857D02*
X136894600Y-114925714D01*
X136894600Y-114925714D02*
X136966028Y-115068571D01*
X136966028Y-115068571D02*
X136966028Y-115354285D01*
X136966028Y-115354285D02*
X136894600Y-115497143D01*
X136894600Y-115497143D02*
X136751742Y-115640000D01*
X136751742Y-115640000D02*
X136466028Y-115711428D01*
X136466028Y-115711428D02*
X135966028Y-115711428D01*
X135966028Y-115711428D02*
X135680314Y-115640000D01*
X135680314Y-115640000D02*
X135537457Y-115497143D01*
X135537457Y-115497143D02*
X135466028Y-115354285D01*
X136966028Y-114068571D02*
X135466028Y-114068571D01*
X135466028Y-114068571D02*
X135466028Y-113497142D01*
X135466028Y-113497142D02*
X135537457Y-113354285D01*
X135537457Y-113354285D02*
X135608885Y-113282856D01*
X135608885Y-113282856D02*
X135751742Y-113211428D01*
X135751742Y-113211428D02*
X135966028Y-113211428D01*
X135966028Y-113211428D02*
X136108885Y-113282856D01*
X136108885Y-113282856D02*
X136180314Y-113354285D01*
X136180314Y-113354285D02*
X136251742Y-113497142D01*
X136251742Y-113497142D02*
X136251742Y-114068571D01*
X135466028Y-112782856D02*
X135466028Y-111925714D01*
X136966028Y-112354285D02*
X135466028Y-112354285D01*
X135466028Y-111139999D02*
X135466028Y-110854285D01*
X135466028Y-110854285D02*
X135537457Y-110711428D01*
X135537457Y-110711428D02*
X135680314Y-110568571D01*
X135680314Y-110568571D02*
X135966028Y-110497142D01*
X135966028Y-110497142D02*
X136466028Y-110497142D01*
X136466028Y-110497142D02*
X136751742Y-110568571D01*
X136751742Y-110568571D02*
X136894600Y-110711428D01*
X136894600Y-110711428D02*
X136966028Y-110854285D01*
X136966028Y-110854285D02*
X136966028Y-111139999D01*
X136966028Y-111139999D02*
X136894600Y-111282857D01*
X136894600Y-111282857D02*
X136751742Y-111425714D01*
X136751742Y-111425714D02*
X136466028Y-111497142D01*
X136466028Y-111497142D02*
X135966028Y-111497142D01*
X135966028Y-111497142D02*
X135680314Y-111425714D01*
X135680314Y-111425714D02*
X135537457Y-111282857D01*
X135537457Y-111282857D02*
X135466028Y-111139999D01*
X136966028Y-108711428D02*
X135466028Y-108711428D01*
X135466028Y-108711428D02*
X135466028Y-108139999D01*
X135466028Y-108139999D02*
X135537457Y-107997142D01*
X135537457Y-107997142D02*
X135608885Y-107925713D01*
X135608885Y-107925713D02*
X135751742Y-107854285D01*
X135751742Y-107854285D02*
X135966028Y-107854285D01*
X135966028Y-107854285D02*
X136108885Y-107925713D01*
X136108885Y-107925713D02*
X136180314Y-107997142D01*
X136180314Y-107997142D02*
X136251742Y-108139999D01*
X136251742Y-108139999D02*
X136251742Y-108711428D01*
X136966028Y-107211428D02*
X135466028Y-107211428D01*
X136966028Y-106568571D02*
X136180314Y-106568571D01*
X136180314Y-106568571D02*
X136037457Y-106639999D01*
X136037457Y-106639999D02*
X135966028Y-106782856D01*
X135966028Y-106782856D02*
X135966028Y-106997142D01*
X135966028Y-106997142D02*
X136037457Y-107139999D01*
X136037457Y-107139999D02*
X136108885Y-107211428D01*
X136966028Y-105639999D02*
X136894600Y-105782856D01*
X136894600Y-105782856D02*
X136823171Y-105854285D01*
X136823171Y-105854285D02*
X136680314Y-105925713D01*
X136680314Y-105925713D02*
X136251742Y-105925713D01*
X136251742Y-105925713D02*
X136108885Y-105854285D01*
X136108885Y-105854285D02*
X136037457Y-105782856D01*
X136037457Y-105782856D02*
X135966028Y-105639999D01*
X135966028Y-105639999D02*
X135966028Y-105425713D01*
X135966028Y-105425713D02*
X136037457Y-105282856D01*
X136037457Y-105282856D02*
X136108885Y-105211428D01*
X136108885Y-105211428D02*
X136251742Y-105139999D01*
X136251742Y-105139999D02*
X136680314Y-105139999D01*
X136680314Y-105139999D02*
X136823171Y-105211428D01*
X136823171Y-105211428D02*
X136894600Y-105282856D01*
X136894600Y-105282856D02*
X136966028Y-105425713D01*
X136966028Y-105425713D02*
X136966028Y-105639999D01*
X135966028Y-104711427D02*
X135966028Y-104139999D01*
X135466028Y-104497142D02*
X136751742Y-104497142D01*
X136751742Y-104497142D02*
X136894600Y-104425713D01*
X136894600Y-104425713D02*
X136966028Y-104282856D01*
X136966028Y-104282856D02*
X136966028Y-104139999D01*
X136966028Y-103425713D02*
X136894600Y-103568570D01*
X136894600Y-103568570D02*
X136823171Y-103639999D01*
X136823171Y-103639999D02*
X136680314Y-103711427D01*
X136680314Y-103711427D02*
X136251742Y-103711427D01*
X136251742Y-103711427D02*
X136108885Y-103639999D01*
X136108885Y-103639999D02*
X136037457Y-103568570D01*
X136037457Y-103568570D02*
X135966028Y-103425713D01*
X135966028Y-103425713D02*
X135966028Y-103211427D01*
X135966028Y-103211427D02*
X136037457Y-103068570D01*
X136037457Y-103068570D02*
X136108885Y-102997142D01*
X136108885Y-102997142D02*
X136251742Y-102925713D01*
X136251742Y-102925713D02*
X136680314Y-102925713D01*
X136680314Y-102925713D02*
X136823171Y-102997142D01*
X136823171Y-102997142D02*
X136894600Y-103068570D01*
X136894600Y-103068570D02*
X136966028Y-103211427D01*
X136966028Y-103211427D02*
X136966028Y-103425713D01*
X136966028Y-101639999D02*
X135466028Y-101639999D01*
X136894600Y-101639999D02*
X136966028Y-101782856D01*
X136966028Y-101782856D02*
X136966028Y-102068570D01*
X136966028Y-102068570D02*
X136894600Y-102211427D01*
X136894600Y-102211427D02*
X136823171Y-102282856D01*
X136823171Y-102282856D02*
X136680314Y-102354284D01*
X136680314Y-102354284D02*
X136251742Y-102354284D01*
X136251742Y-102354284D02*
X136108885Y-102282856D01*
X136108885Y-102282856D02*
X136037457Y-102211427D01*
X136037457Y-102211427D02*
X135966028Y-102068570D01*
X135966028Y-102068570D02*
X135966028Y-101782856D01*
X135966028Y-101782856D02*
X136037457Y-101639999D01*
X136894600Y-100354284D02*
X136966028Y-100497141D01*
X136966028Y-100497141D02*
X136966028Y-100782856D01*
X136966028Y-100782856D02*
X136894600Y-100925713D01*
X136894600Y-100925713D02*
X136751742Y-100997141D01*
X136751742Y-100997141D02*
X136180314Y-100997141D01*
X136180314Y-100997141D02*
X136037457Y-100925713D01*
X136037457Y-100925713D02*
X135966028Y-100782856D01*
X135966028Y-100782856D02*
X135966028Y-100497141D01*
X135966028Y-100497141D02*
X136037457Y-100354284D01*
X136037457Y-100354284D02*
X136180314Y-100282856D01*
X136180314Y-100282856D02*
X136323171Y-100282856D01*
X136323171Y-100282856D02*
X136466028Y-100997141D01*
X135966028Y-99854284D02*
X135966028Y-99282856D01*
X135466028Y-99639999D02*
X136751742Y-99639999D01*
X136751742Y-99639999D02*
X136894600Y-99568570D01*
X136894600Y-99568570D02*
X136966028Y-99425713D01*
X136966028Y-99425713D02*
X136966028Y-99282856D01*
X136894600Y-98211427D02*
X136966028Y-98354284D01*
X136966028Y-98354284D02*
X136966028Y-98639999D01*
X136966028Y-98639999D02*
X136894600Y-98782856D01*
X136894600Y-98782856D02*
X136751742Y-98854284D01*
X136751742Y-98854284D02*
X136180314Y-98854284D01*
X136180314Y-98854284D02*
X136037457Y-98782856D01*
X136037457Y-98782856D02*
X135966028Y-98639999D01*
X135966028Y-98639999D02*
X135966028Y-98354284D01*
X135966028Y-98354284D02*
X136037457Y-98211427D01*
X136037457Y-98211427D02*
X136180314Y-98139999D01*
X136180314Y-98139999D02*
X136323171Y-98139999D01*
X136323171Y-98139999D02*
X136466028Y-98854284D01*
X136894600Y-96854285D02*
X136966028Y-96997142D01*
X136966028Y-96997142D02*
X136966028Y-97282856D01*
X136966028Y-97282856D02*
X136894600Y-97425713D01*
X136894600Y-97425713D02*
X136823171Y-97497142D01*
X136823171Y-97497142D02*
X136680314Y-97568570D01*
X136680314Y-97568570D02*
X136251742Y-97568570D01*
X136251742Y-97568570D02*
X136108885Y-97497142D01*
X136108885Y-97497142D02*
X136037457Y-97425713D01*
X136037457Y-97425713D02*
X135966028Y-97282856D01*
X135966028Y-97282856D02*
X135966028Y-96997142D01*
X135966028Y-96997142D02*
X136037457Y-96854285D01*
X135966028Y-96425713D02*
X135966028Y-95854285D01*
X135466028Y-96211428D02*
X136751742Y-96211428D01*
X136751742Y-96211428D02*
X136894600Y-96139999D01*
X136894600Y-96139999D02*
X136966028Y-95997142D01*
X136966028Y-95997142D02*
X136966028Y-95854285D01*
X136966028Y-95354285D02*
X135966028Y-95354285D01*
X135466028Y-95354285D02*
X135537457Y-95425713D01*
X135537457Y-95425713D02*
X135608885Y-95354285D01*
X135608885Y-95354285D02*
X135537457Y-95282856D01*
X135537457Y-95282856D02*
X135466028Y-95354285D01*
X135466028Y-95354285D02*
X135608885Y-95354285D01*
X136966028Y-94425713D02*
X136894600Y-94568570D01*
X136894600Y-94568570D02*
X136823171Y-94639999D01*
X136823171Y-94639999D02*
X136680314Y-94711427D01*
X136680314Y-94711427D02*
X136251742Y-94711427D01*
X136251742Y-94711427D02*
X136108885Y-94639999D01*
X136108885Y-94639999D02*
X136037457Y-94568570D01*
X136037457Y-94568570D02*
X135966028Y-94425713D01*
X135966028Y-94425713D02*
X135966028Y-94211427D01*
X135966028Y-94211427D02*
X136037457Y-94068570D01*
X136037457Y-94068570D02*
X136108885Y-93997142D01*
X136108885Y-93997142D02*
X136251742Y-93925713D01*
X136251742Y-93925713D02*
X136680314Y-93925713D01*
X136680314Y-93925713D02*
X136823171Y-93997142D01*
X136823171Y-93997142D02*
X136894600Y-94068570D01*
X136894600Y-94068570D02*
X136966028Y-94211427D01*
X136966028Y-94211427D02*
X136966028Y-94425713D01*
X135966028Y-93282856D02*
X136966028Y-93282856D01*
X136108885Y-93282856D02*
X136037457Y-93211427D01*
X136037457Y-93211427D02*
X135966028Y-93068570D01*
X135966028Y-93068570D02*
X135966028Y-92854284D01*
X135966028Y-92854284D02*
X136037457Y-92711427D01*
X136037457Y-92711427D02*
X136180314Y-92639999D01*
X136180314Y-92639999D02*
X136966028Y-92639999D01*
D12*
X83000477Y-118213104D02*
X83381429Y-118213104D01*
X83381429Y-118213104D02*
X83381429Y-119013104D01*
X82733810Y-118632152D02*
X82467144Y-118632152D01*
X82352858Y-118213104D02*
X82733810Y-118213104D01*
X82733810Y-118213104D02*
X82733810Y-119013104D01*
X82733810Y-119013104D02*
X82352858Y-119013104D01*
X82010000Y-118746438D02*
X82010000Y-118213104D01*
X82010000Y-118670247D02*
X81971905Y-118708342D01*
X81971905Y-118708342D02*
X81895715Y-118746438D01*
X81895715Y-118746438D02*
X81781429Y-118746438D01*
X81781429Y-118746438D02*
X81705238Y-118708342D01*
X81705238Y-118708342D02*
X81667143Y-118632152D01*
X81667143Y-118632152D02*
X81667143Y-118213104D01*
X81324286Y-118251200D02*
X81248095Y-118213104D01*
X81248095Y-118213104D02*
X81095714Y-118213104D01*
X81095714Y-118213104D02*
X81019524Y-118251200D01*
X81019524Y-118251200D02*
X80981428Y-118327390D01*
X80981428Y-118327390D02*
X80981428Y-118365485D01*
X80981428Y-118365485D02*
X81019524Y-118441676D01*
X81019524Y-118441676D02*
X81095714Y-118479771D01*
X81095714Y-118479771D02*
X81210000Y-118479771D01*
X81210000Y-118479771D02*
X81286190Y-118517866D01*
X81286190Y-118517866D02*
X81324286Y-118594057D01*
X81324286Y-118594057D02*
X81324286Y-118632152D01*
X81324286Y-118632152D02*
X81286190Y-118708342D01*
X81286190Y-118708342D02*
X81210000Y-118746438D01*
X81210000Y-118746438D02*
X81095714Y-118746438D01*
X81095714Y-118746438D02*
X81019524Y-118708342D01*
X80638571Y-118632152D02*
X80371905Y-118632152D01*
X80257619Y-118213104D02*
X80638571Y-118213104D01*
X80638571Y-118213104D02*
X80638571Y-119013104D01*
X80638571Y-119013104D02*
X80257619Y-119013104D01*
X79343333Y-118936914D02*
X79305237Y-118975009D01*
X79305237Y-118975009D02*
X79229047Y-119013104D01*
X79229047Y-119013104D02*
X79038571Y-119013104D01*
X79038571Y-119013104D02*
X78962380Y-118975009D01*
X78962380Y-118975009D02*
X78924285Y-118936914D01*
X78924285Y-118936914D02*
X78886190Y-118860723D01*
X78886190Y-118860723D02*
X78886190Y-118784533D01*
X78886190Y-118784533D02*
X78924285Y-118670247D01*
X78924285Y-118670247D02*
X79381428Y-118213104D01*
X79381428Y-118213104D02*
X78886190Y-118213104D01*
X78390951Y-119013104D02*
X78314761Y-119013104D01*
X78314761Y-119013104D02*
X78238570Y-118975009D01*
X78238570Y-118975009D02*
X78200475Y-118936914D01*
X78200475Y-118936914D02*
X78162380Y-118860723D01*
X78162380Y-118860723D02*
X78124285Y-118708342D01*
X78124285Y-118708342D02*
X78124285Y-118517866D01*
X78124285Y-118517866D02*
X78162380Y-118365485D01*
X78162380Y-118365485D02*
X78200475Y-118289295D01*
X78200475Y-118289295D02*
X78238570Y-118251200D01*
X78238570Y-118251200D02*
X78314761Y-118213104D01*
X78314761Y-118213104D02*
X78390951Y-118213104D01*
X78390951Y-118213104D02*
X78467142Y-118251200D01*
X78467142Y-118251200D02*
X78505237Y-118289295D01*
X78505237Y-118289295D02*
X78543332Y-118365485D01*
X78543332Y-118365485D02*
X78581428Y-118517866D01*
X78581428Y-118517866D02*
X78581428Y-118708342D01*
X78581428Y-118708342D02*
X78543332Y-118860723D01*
X78543332Y-118860723D02*
X78505237Y-118936914D01*
X78505237Y-118936914D02*
X78467142Y-118975009D01*
X78467142Y-118975009D02*
X78390951Y-119013104D01*
X77819523Y-118936914D02*
X77781427Y-118975009D01*
X77781427Y-118975009D02*
X77705237Y-119013104D01*
X77705237Y-119013104D02*
X77514761Y-119013104D01*
X77514761Y-119013104D02*
X77438570Y-118975009D01*
X77438570Y-118975009D02*
X77400475Y-118936914D01*
X77400475Y-118936914D02*
X77362380Y-118860723D01*
X77362380Y-118860723D02*
X77362380Y-118784533D01*
X77362380Y-118784533D02*
X77400475Y-118670247D01*
X77400475Y-118670247D02*
X77857618Y-118213104D01*
X77857618Y-118213104D02*
X77362380Y-118213104D01*
X76676665Y-119013104D02*
X76829046Y-119013104D01*
X76829046Y-119013104D02*
X76905237Y-118975009D01*
X76905237Y-118975009D02*
X76943332Y-118936914D01*
X76943332Y-118936914D02*
X77019522Y-118822628D01*
X77019522Y-118822628D02*
X77057618Y-118670247D01*
X77057618Y-118670247D02*
X77057618Y-118365485D01*
X77057618Y-118365485D02*
X77019522Y-118289295D01*
X77019522Y-118289295D02*
X76981427Y-118251200D01*
X76981427Y-118251200D02*
X76905237Y-118213104D01*
X76905237Y-118213104D02*
X76752856Y-118213104D01*
X76752856Y-118213104D02*
X76676665Y-118251200D01*
X76676665Y-118251200D02*
X76638570Y-118289295D01*
X76638570Y-118289295D02*
X76600475Y-118365485D01*
X76600475Y-118365485D02*
X76600475Y-118555961D01*
X76600475Y-118555961D02*
X76638570Y-118632152D01*
X76638570Y-118632152D02*
X76676665Y-118670247D01*
X76676665Y-118670247D02*
X76752856Y-118708342D01*
X76752856Y-118708342D02*
X76905237Y-118708342D01*
X76905237Y-118708342D02*
X76981427Y-118670247D01*
X76981427Y-118670247D02*
X77019522Y-118632152D01*
X77019522Y-118632152D02*
X77057618Y-118555961D01*
D11*
X128994819Y-72341903D02*
X128994819Y-71770475D01*
X129994819Y-72056189D02*
X128994819Y-72056189D01*
X129994819Y-70865713D02*
X129518628Y-71199046D01*
X129994819Y-71437141D02*
X128994819Y-71437141D01*
X128994819Y-71437141D02*
X128994819Y-71056189D01*
X128994819Y-71056189D02*
X129042438Y-70960951D01*
X129042438Y-70960951D02*
X129090057Y-70913332D01*
X129090057Y-70913332D02*
X129185295Y-70865713D01*
X129185295Y-70865713D02*
X129328152Y-70865713D01*
X129328152Y-70865713D02*
X129423390Y-70913332D01*
X129423390Y-70913332D02*
X129471009Y-70960951D01*
X129471009Y-70960951D02*
X129518628Y-71056189D01*
X129518628Y-71056189D02*
X129518628Y-71437141D01*
X129709104Y-70484760D02*
X129709104Y-70008570D01*
X129994819Y-70579998D02*
X128994819Y-70246665D01*
X128994819Y-70246665D02*
X129994819Y-69913332D01*
X129994819Y-69579998D02*
X128994819Y-69579998D01*
X128994819Y-69579998D02*
X129994819Y-69008570D01*
X129994819Y-69008570D02*
X128994819Y-69008570D01*
X129947200Y-68579998D02*
X129994819Y-68437141D01*
X129994819Y-68437141D02*
X129994819Y-68199046D01*
X129994819Y-68199046D02*
X129947200Y-68103808D01*
X129947200Y-68103808D02*
X129899580Y-68056189D01*
X129899580Y-68056189D02*
X129804342Y-68008570D01*
X129804342Y-68008570D02*
X129709104Y-68008570D01*
X129709104Y-68008570D02*
X129613866Y-68056189D01*
X129613866Y-68056189D02*
X129566247Y-68103808D01*
X129566247Y-68103808D02*
X129518628Y-68199046D01*
X129518628Y-68199046D02*
X129471009Y-68389522D01*
X129471009Y-68389522D02*
X129423390Y-68484760D01*
X129423390Y-68484760D02*
X129375771Y-68532379D01*
X129375771Y-68532379D02*
X129280533Y-68579998D01*
X129280533Y-68579998D02*
X129185295Y-68579998D01*
X129185295Y-68579998D02*
X129090057Y-68532379D01*
X129090057Y-68532379D02*
X129042438Y-68484760D01*
X129042438Y-68484760D02*
X128994819Y-68389522D01*
X128994819Y-68389522D02*
X128994819Y-68151427D01*
X128994819Y-68151427D02*
X129042438Y-68008570D01*
X129994819Y-67579998D02*
X128994819Y-67579998D01*
X129994819Y-67103808D02*
X128994819Y-67103808D01*
X128994819Y-67103808D02*
X129709104Y-66770475D01*
X129709104Y-66770475D02*
X128994819Y-66437142D01*
X128994819Y-66437142D02*
X129994819Y-66437142D01*
X129994819Y-65960951D02*
X128994819Y-65960951D01*
X128994819Y-65960951D02*
X128994819Y-65579999D01*
X128994819Y-65579999D02*
X129042438Y-65484761D01*
X129042438Y-65484761D02*
X129090057Y-65437142D01*
X129090057Y-65437142D02*
X129185295Y-65389523D01*
X129185295Y-65389523D02*
X129328152Y-65389523D01*
X129328152Y-65389523D02*
X129423390Y-65437142D01*
X129423390Y-65437142D02*
X129471009Y-65484761D01*
X129471009Y-65484761D02*
X129518628Y-65579999D01*
X129518628Y-65579999D02*
X129518628Y-65960951D01*
X129899580Y-64960951D02*
X129947200Y-64913332D01*
X129947200Y-64913332D02*
X129994819Y-64960951D01*
X129994819Y-64960951D02*
X129947200Y-65008570D01*
X129947200Y-65008570D02*
X129899580Y-64960951D01*
X129899580Y-64960951D02*
X129994819Y-64960951D01*
D10*
X61706286Y-98115266D02*
X62468191Y-98115266D01*
X62087238Y-98496219D02*
X62087238Y-97734314D01*
X63420571Y-97496219D02*
X62944381Y-97496219D01*
X62944381Y-97496219D02*
X62896762Y-97972409D01*
X62896762Y-97972409D02*
X62944381Y-97924790D01*
X62944381Y-97924790D02*
X63039619Y-97877171D01*
X63039619Y-97877171D02*
X63277714Y-97877171D01*
X63277714Y-97877171D02*
X63372952Y-97924790D01*
X63372952Y-97924790D02*
X63420571Y-97972409D01*
X63420571Y-97972409D02*
X63468190Y-98067647D01*
X63468190Y-98067647D02*
X63468190Y-98305742D01*
X63468190Y-98305742D02*
X63420571Y-98400980D01*
X63420571Y-98400980D02*
X63372952Y-98448600D01*
X63372952Y-98448600D02*
X63277714Y-98496219D01*
X63277714Y-98496219D02*
X63039619Y-98496219D01*
X63039619Y-98496219D02*
X62944381Y-98448600D01*
X62944381Y-98448600D02*
X62896762Y-98400980D01*
X63753905Y-97496219D02*
X64087238Y-98496219D01*
X64087238Y-98496219D02*
X64420571Y-97496219D01*
D11*
X113754819Y-74016665D02*
X114564342Y-74016665D01*
X114564342Y-74016665D02*
X114659580Y-73969046D01*
X114659580Y-73969046D02*
X114707200Y-73921427D01*
X114707200Y-73921427D02*
X114754819Y-73826189D01*
X114754819Y-73826189D02*
X114754819Y-73635713D01*
X114754819Y-73635713D02*
X114707200Y-73540475D01*
X114707200Y-73540475D02*
X114659580Y-73492856D01*
X114659580Y-73492856D02*
X114564342Y-73445237D01*
X114564342Y-73445237D02*
X113754819Y-73445237D01*
X114754819Y-72969046D02*
X113754819Y-72969046D01*
X113754819Y-72969046D02*
X114754819Y-72397618D01*
X114754819Y-72397618D02*
X113754819Y-72397618D01*
X114754819Y-71921427D02*
X113754819Y-71921427D01*
X113754819Y-71588094D02*
X113754819Y-71016666D01*
X114754819Y-71302380D02*
X113754819Y-71302380D01*
X114278628Y-70492856D02*
X114754819Y-70492856D01*
X113754819Y-70826189D02*
X114278628Y-70492856D01*
X114278628Y-70492856D02*
X113754819Y-70159523D01*
X114373866Y-69826189D02*
X114373866Y-69064285D01*
X113802438Y-68064285D02*
X113754819Y-68159523D01*
X113754819Y-68159523D02*
X113754819Y-68302380D01*
X113754819Y-68302380D02*
X113802438Y-68445237D01*
X113802438Y-68445237D02*
X113897676Y-68540475D01*
X113897676Y-68540475D02*
X113992914Y-68588094D01*
X113992914Y-68588094D02*
X114183390Y-68635713D01*
X114183390Y-68635713D02*
X114326247Y-68635713D01*
X114326247Y-68635713D02*
X114516723Y-68588094D01*
X114516723Y-68588094D02*
X114611961Y-68540475D01*
X114611961Y-68540475D02*
X114707200Y-68445237D01*
X114707200Y-68445237D02*
X114754819Y-68302380D01*
X114754819Y-68302380D02*
X114754819Y-68207142D01*
X114754819Y-68207142D02*
X114707200Y-68064285D01*
X114707200Y-68064285D02*
X114659580Y-68016666D01*
X114659580Y-68016666D02*
X114326247Y-68016666D01*
X114326247Y-68016666D02*
X114326247Y-68207142D01*
X114469104Y-67635713D02*
X114469104Y-67159523D01*
X114754819Y-67730951D02*
X113754819Y-67397618D01*
X113754819Y-67397618D02*
X114754819Y-67064285D01*
X114754819Y-66730951D02*
X113754819Y-66730951D01*
X114754819Y-66254761D02*
X113754819Y-66254761D01*
X113754819Y-66254761D02*
X114754819Y-65683333D01*
X114754819Y-65683333D02*
X113754819Y-65683333D01*
X104864819Y-105766665D02*
X105674342Y-105766665D01*
X105674342Y-105766665D02*
X105769580Y-105719046D01*
X105769580Y-105719046D02*
X105817200Y-105671427D01*
X105817200Y-105671427D02*
X105864819Y-105576189D01*
X105864819Y-105576189D02*
X105864819Y-105385713D01*
X105864819Y-105385713D02*
X105817200Y-105290475D01*
X105817200Y-105290475D02*
X105769580Y-105242856D01*
X105769580Y-105242856D02*
X105674342Y-105195237D01*
X105674342Y-105195237D02*
X104864819Y-105195237D01*
X105864819Y-104719046D02*
X104864819Y-104719046D01*
X104864819Y-104719046D02*
X105864819Y-104147618D01*
X105864819Y-104147618D02*
X104864819Y-104147618D01*
X105864819Y-103671427D02*
X104864819Y-103671427D01*
X104864819Y-103338094D02*
X104864819Y-102766666D01*
X105864819Y-103052380D02*
X104864819Y-103052380D01*
X105388628Y-102242856D02*
X105864819Y-102242856D01*
X104864819Y-102576189D02*
X105388628Y-102242856D01*
X105388628Y-102242856D02*
X104864819Y-101909523D01*
X105483866Y-101576189D02*
X105483866Y-100814285D01*
X104912438Y-99814285D02*
X104864819Y-99909523D01*
X104864819Y-99909523D02*
X104864819Y-100052380D01*
X104864819Y-100052380D02*
X104912438Y-100195237D01*
X104912438Y-100195237D02*
X105007676Y-100290475D01*
X105007676Y-100290475D02*
X105102914Y-100338094D01*
X105102914Y-100338094D02*
X105293390Y-100385713D01*
X105293390Y-100385713D02*
X105436247Y-100385713D01*
X105436247Y-100385713D02*
X105626723Y-100338094D01*
X105626723Y-100338094D02*
X105721961Y-100290475D01*
X105721961Y-100290475D02*
X105817200Y-100195237D01*
X105817200Y-100195237D02*
X105864819Y-100052380D01*
X105864819Y-100052380D02*
X105864819Y-99957142D01*
X105864819Y-99957142D02*
X105817200Y-99814285D01*
X105817200Y-99814285D02*
X105769580Y-99766666D01*
X105769580Y-99766666D02*
X105436247Y-99766666D01*
X105436247Y-99766666D02*
X105436247Y-99957142D01*
X105579104Y-99385713D02*
X105579104Y-98909523D01*
X105864819Y-99480951D02*
X104864819Y-99147618D01*
X104864819Y-99147618D02*
X105864819Y-98814285D01*
X105864819Y-98480951D02*
X104864819Y-98480951D01*
X105864819Y-98004761D02*
X104864819Y-98004761D01*
X104864819Y-98004761D02*
X105864819Y-97433333D01*
X105864819Y-97433333D02*
X104864819Y-97433333D01*
D10*
X87082219Y-100536190D02*
X87082219Y-100345714D01*
X87082219Y-100345714D02*
X87129838Y-100250476D01*
X87129838Y-100250476D02*
X87225076Y-100155238D01*
X87225076Y-100155238D02*
X87415552Y-100107619D01*
X87415552Y-100107619D02*
X87748885Y-100107619D01*
X87748885Y-100107619D02*
X87939361Y-100155238D01*
X87939361Y-100155238D02*
X88034600Y-100250476D01*
X88034600Y-100250476D02*
X88082219Y-100345714D01*
X88082219Y-100345714D02*
X88082219Y-100536190D01*
X88082219Y-100536190D02*
X88034600Y-100631428D01*
X88034600Y-100631428D02*
X87939361Y-100726666D01*
X87939361Y-100726666D02*
X87748885Y-100774285D01*
X87748885Y-100774285D02*
X87415552Y-100774285D01*
X87415552Y-100774285D02*
X87225076Y-100726666D01*
X87225076Y-100726666D02*
X87129838Y-100631428D01*
X87129838Y-100631428D02*
X87082219Y-100536190D01*
X87082219Y-99679047D02*
X87891742Y-99679047D01*
X87891742Y-99679047D02*
X87986980Y-99631428D01*
X87986980Y-99631428D02*
X88034600Y-99583809D01*
X88034600Y-99583809D02*
X88082219Y-99488571D01*
X88082219Y-99488571D02*
X88082219Y-99298095D01*
X88082219Y-99298095D02*
X88034600Y-99202857D01*
X88034600Y-99202857D02*
X87986980Y-99155238D01*
X87986980Y-99155238D02*
X87891742Y-99107619D01*
X87891742Y-99107619D02*
X87082219Y-99107619D01*
X87082219Y-98774285D02*
X87082219Y-98202857D01*
X88082219Y-98488571D02*
X87082219Y-98488571D01*
X87082219Y-97964761D02*
X87082219Y-97345714D01*
X87082219Y-97345714D02*
X87463171Y-97679047D01*
X87463171Y-97679047D02*
X87463171Y-97536190D01*
X87463171Y-97536190D02*
X87510790Y-97440952D01*
X87510790Y-97440952D02*
X87558409Y-97393333D01*
X87558409Y-97393333D02*
X87653647Y-97345714D01*
X87653647Y-97345714D02*
X87891742Y-97345714D01*
X87891742Y-97345714D02*
X87986980Y-97393333D01*
X87986980Y-97393333D02*
X88034600Y-97440952D01*
X88034600Y-97440952D02*
X88082219Y-97536190D01*
X88082219Y-97536190D02*
X88082219Y-97821904D01*
X88082219Y-97821904D02*
X88034600Y-97917142D01*
X88034600Y-97917142D02*
X87986980Y-97964761D01*
X132802219Y-60633809D02*
X132802219Y-60443333D01*
X132802219Y-60443333D02*
X132849838Y-60348095D01*
X132849838Y-60348095D02*
X132945076Y-60252857D01*
X132945076Y-60252857D02*
X133135552Y-60205238D01*
X133135552Y-60205238D02*
X133468885Y-60205238D01*
X133468885Y-60205238D02*
X133659361Y-60252857D01*
X133659361Y-60252857D02*
X133754600Y-60348095D01*
X133754600Y-60348095D02*
X133802219Y-60443333D01*
X133802219Y-60443333D02*
X133802219Y-60633809D01*
X133802219Y-60633809D02*
X133754600Y-60729047D01*
X133754600Y-60729047D02*
X133659361Y-60824285D01*
X133659361Y-60824285D02*
X133468885Y-60871904D01*
X133468885Y-60871904D02*
X133135552Y-60871904D01*
X133135552Y-60871904D02*
X132945076Y-60824285D01*
X132945076Y-60824285D02*
X132849838Y-60729047D01*
X132849838Y-60729047D02*
X132802219Y-60633809D01*
X132802219Y-59776666D02*
X133611742Y-59776666D01*
X133611742Y-59776666D02*
X133706980Y-59729047D01*
X133706980Y-59729047D02*
X133754600Y-59681428D01*
X133754600Y-59681428D02*
X133802219Y-59586190D01*
X133802219Y-59586190D02*
X133802219Y-59395714D01*
X133802219Y-59395714D02*
X133754600Y-59300476D01*
X133754600Y-59300476D02*
X133706980Y-59252857D01*
X133706980Y-59252857D02*
X133611742Y-59205238D01*
X133611742Y-59205238D02*
X132802219Y-59205238D01*
X132802219Y-58871904D02*
X132802219Y-58300476D01*
X133802219Y-58586190D02*
X132802219Y-58586190D01*
X133135552Y-57538571D02*
X133802219Y-57538571D01*
X132754600Y-57776666D02*
X133468885Y-58014761D01*
X133468885Y-58014761D02*
X133468885Y-57395714D01*
X133421266Y-56252856D02*
X133421266Y-55490952D01*
X133135552Y-55014761D02*
X133421266Y-54252857D01*
X133421266Y-54252857D02*
X133706980Y-55014761D01*
X132802219Y-53014761D02*
X133611742Y-53014761D01*
X133611742Y-53014761D02*
X133706980Y-52967142D01*
X133706980Y-52967142D02*
X133754600Y-52919523D01*
X133754600Y-52919523D02*
X133802219Y-52824285D01*
X133802219Y-52824285D02*
X133802219Y-52633809D01*
X133802219Y-52633809D02*
X133754600Y-52538571D01*
X133754600Y-52538571D02*
X133706980Y-52490952D01*
X133706980Y-52490952D02*
X133611742Y-52443333D01*
X133611742Y-52443333D02*
X132802219Y-52443333D01*
X133897457Y-52205238D02*
X133897457Y-51443333D01*
X133802219Y-50633809D02*
X133326028Y-50967142D01*
X133802219Y-51205237D02*
X132802219Y-51205237D01*
X132802219Y-51205237D02*
X132802219Y-50824285D01*
X132802219Y-50824285D02*
X132849838Y-50729047D01*
X132849838Y-50729047D02*
X132897457Y-50681428D01*
X132897457Y-50681428D02*
X132992695Y-50633809D01*
X132992695Y-50633809D02*
X133135552Y-50633809D01*
X133135552Y-50633809D02*
X133230790Y-50681428D01*
X133230790Y-50681428D02*
X133278409Y-50729047D01*
X133278409Y-50729047D02*
X133326028Y-50824285D01*
X133326028Y-50824285D02*
X133326028Y-51205237D01*
X133802219Y-50062380D02*
X133754600Y-50157618D01*
X133754600Y-50157618D02*
X133659361Y-50205237D01*
X133659361Y-50205237D02*
X132802219Y-50205237D01*
X133754600Y-49300475D02*
X133802219Y-49395713D01*
X133802219Y-49395713D02*
X133802219Y-49586189D01*
X133802219Y-49586189D02*
X133754600Y-49681427D01*
X133754600Y-49681427D02*
X133659361Y-49729046D01*
X133659361Y-49729046D02*
X133278409Y-49729046D01*
X133278409Y-49729046D02*
X133183171Y-49681427D01*
X133183171Y-49681427D02*
X133135552Y-49586189D01*
X133135552Y-49586189D02*
X133135552Y-49395713D01*
X133135552Y-49395713D02*
X133183171Y-49300475D01*
X133183171Y-49300475D02*
X133278409Y-49252856D01*
X133278409Y-49252856D02*
X133373647Y-49252856D01*
X133373647Y-49252856D02*
X133468885Y-49729046D01*
X133802219Y-48395713D02*
X132802219Y-48395713D01*
X133754600Y-48395713D02*
X133802219Y-48490951D01*
X133802219Y-48490951D02*
X133802219Y-48681427D01*
X133802219Y-48681427D02*
X133754600Y-48776665D01*
X133754600Y-48776665D02*
X133706980Y-48824284D01*
X133706980Y-48824284D02*
X133611742Y-48871903D01*
X133611742Y-48871903D02*
X133326028Y-48871903D01*
X133326028Y-48871903D02*
X133230790Y-48824284D01*
X133230790Y-48824284D02*
X133183171Y-48776665D01*
X133183171Y-48776665D02*
X133135552Y-48681427D01*
X133135552Y-48681427D02*
X133135552Y-48490951D01*
X133135552Y-48490951D02*
X133183171Y-48395713D01*
D13*
X130885119Y-60284619D02*
X130408928Y-60617952D01*
X130885119Y-60856047D02*
X129885119Y-60856047D01*
X129885119Y-60856047D02*
X129885119Y-60475095D01*
X129885119Y-60475095D02*
X129932738Y-60379857D01*
X129932738Y-60379857D02*
X129980357Y-60332238D01*
X129980357Y-60332238D02*
X130075595Y-60284619D01*
X130075595Y-60284619D02*
X130218452Y-60284619D01*
X130218452Y-60284619D02*
X130313690Y-60332238D01*
X130313690Y-60332238D02*
X130361309Y-60379857D01*
X130361309Y-60379857D02*
X130408928Y-60475095D01*
X130408928Y-60475095D02*
X130408928Y-60856047D01*
X130980357Y-60094143D02*
X130980357Y-59332238D01*
X130218452Y-59094142D02*
X131218452Y-59094142D01*
X130266071Y-59094142D02*
X130218452Y-58998904D01*
X130218452Y-58998904D02*
X130218452Y-58808428D01*
X130218452Y-58808428D02*
X130266071Y-58713190D01*
X130266071Y-58713190D02*
X130313690Y-58665571D01*
X130313690Y-58665571D02*
X130408928Y-58617952D01*
X130408928Y-58617952D02*
X130694642Y-58617952D01*
X130694642Y-58617952D02*
X130789880Y-58665571D01*
X130789880Y-58665571D02*
X130837500Y-58713190D01*
X130837500Y-58713190D02*
X130885119Y-58808428D01*
X130885119Y-58808428D02*
X130885119Y-58998904D01*
X130885119Y-58998904D02*
X130837500Y-59094142D01*
X130885119Y-58189380D02*
X129885119Y-58189380D01*
X130885119Y-57760809D02*
X130361309Y-57760809D01*
X130361309Y-57760809D02*
X130266071Y-57808428D01*
X130266071Y-57808428D02*
X130218452Y-57903666D01*
X130218452Y-57903666D02*
X130218452Y-58046523D01*
X130218452Y-58046523D02*
X130266071Y-58141761D01*
X130266071Y-58141761D02*
X130313690Y-58189380D01*
X130885119Y-56856047D02*
X129885119Y-56856047D01*
X130837500Y-56856047D02*
X130885119Y-56951285D01*
X130885119Y-56951285D02*
X130885119Y-57141761D01*
X130885119Y-57141761D02*
X130837500Y-57236999D01*
X130837500Y-57236999D02*
X130789880Y-57284618D01*
X130789880Y-57284618D02*
X130694642Y-57332237D01*
X130694642Y-57332237D02*
X130408928Y-57332237D01*
X130408928Y-57332237D02*
X130313690Y-57284618D01*
X130313690Y-57284618D02*
X130266071Y-57236999D01*
X130266071Y-57236999D02*
X130218452Y-57141761D01*
X130218452Y-57141761D02*
X130218452Y-56951285D01*
X130218452Y-56951285D02*
X130266071Y-56856047D01*
X130361309Y-55617951D02*
X130361309Y-54856047D01*
X130647023Y-54856047D02*
X130647023Y-55617951D01*
X130885119Y-53094142D02*
X130885119Y-53665570D01*
X130885119Y-53379856D02*
X129885119Y-53379856D01*
X129885119Y-53379856D02*
X130027976Y-53475094D01*
X130027976Y-53475094D02*
X130123214Y-53570332D01*
X130123214Y-53570332D02*
X130170833Y-53665570D01*
X129885119Y-52475094D02*
X129885119Y-52379856D01*
X129885119Y-52379856D02*
X129932738Y-52284618D01*
X129932738Y-52284618D02*
X129980357Y-52236999D01*
X129980357Y-52236999D02*
X130075595Y-52189380D01*
X130075595Y-52189380D02*
X130266071Y-52141761D01*
X130266071Y-52141761D02*
X130504166Y-52141761D01*
X130504166Y-52141761D02*
X130694642Y-52189380D01*
X130694642Y-52189380D02*
X130789880Y-52236999D01*
X130789880Y-52236999D02*
X130837500Y-52284618D01*
X130837500Y-52284618D02*
X130885119Y-52379856D01*
X130885119Y-52379856D02*
X130885119Y-52475094D01*
X130885119Y-52475094D02*
X130837500Y-52570332D01*
X130837500Y-52570332D02*
X130789880Y-52617951D01*
X130789880Y-52617951D02*
X130694642Y-52665570D01*
X130694642Y-52665570D02*
X130504166Y-52713189D01*
X130504166Y-52713189D02*
X130266071Y-52713189D01*
X130266071Y-52713189D02*
X130075595Y-52665570D01*
X130075595Y-52665570D02*
X129980357Y-52617951D01*
X129980357Y-52617951D02*
X129932738Y-52570332D01*
X129932738Y-52570332D02*
X129885119Y-52475094D01*
X129885119Y-51522713D02*
X129885119Y-51427475D01*
X129885119Y-51427475D02*
X129932738Y-51332237D01*
X129932738Y-51332237D02*
X129980357Y-51284618D01*
X129980357Y-51284618D02*
X130075595Y-51236999D01*
X130075595Y-51236999D02*
X130266071Y-51189380D01*
X130266071Y-51189380D02*
X130504166Y-51189380D01*
X130504166Y-51189380D02*
X130694642Y-51236999D01*
X130694642Y-51236999D02*
X130789880Y-51284618D01*
X130789880Y-51284618D02*
X130837500Y-51332237D01*
X130837500Y-51332237D02*
X130885119Y-51427475D01*
X130885119Y-51427475D02*
X130885119Y-51522713D01*
X130885119Y-51522713D02*
X130837500Y-51617951D01*
X130837500Y-51617951D02*
X130789880Y-51665570D01*
X130789880Y-51665570D02*
X130694642Y-51713189D01*
X130694642Y-51713189D02*
X130504166Y-51760808D01*
X130504166Y-51760808D02*
X130266071Y-51760808D01*
X130266071Y-51760808D02*
X130075595Y-51713189D01*
X130075595Y-51713189D02*
X129980357Y-51665570D01*
X129980357Y-51665570D02*
X129932738Y-51617951D01*
X129932738Y-51617951D02*
X129885119Y-51522713D01*
X130885119Y-49998903D02*
X129885119Y-49998903D01*
X130504166Y-49903665D02*
X130885119Y-49617951D01*
X130218452Y-49617951D02*
X130599404Y-49998903D01*
X129885119Y-48998903D02*
X129885119Y-48808427D01*
X129885119Y-48808427D02*
X129932738Y-48713189D01*
X129932738Y-48713189D02*
X130027976Y-48617951D01*
X130027976Y-48617951D02*
X130218452Y-48570332D01*
X130218452Y-48570332D02*
X130551785Y-48570332D01*
X130551785Y-48570332D02*
X130742261Y-48617951D01*
X130742261Y-48617951D02*
X130837500Y-48713189D01*
X130837500Y-48713189D02*
X130885119Y-48808427D01*
X130885119Y-48808427D02*
X130885119Y-48998903D01*
X130885119Y-48998903D02*
X130837500Y-49094141D01*
X130837500Y-49094141D02*
X130742261Y-49189379D01*
X130742261Y-49189379D02*
X130551785Y-49236998D01*
X130551785Y-49236998D02*
X130218452Y-49236998D01*
X130218452Y-49236998D02*
X130027976Y-49189379D01*
X130027976Y-49189379D02*
X129932738Y-49094141D01*
X129932738Y-49094141D02*
X129885119Y-48998903D01*
D10*
X102322219Y-100536190D02*
X102322219Y-100345714D01*
X102322219Y-100345714D02*
X102369838Y-100250476D01*
X102369838Y-100250476D02*
X102465076Y-100155238D01*
X102465076Y-100155238D02*
X102655552Y-100107619D01*
X102655552Y-100107619D02*
X102988885Y-100107619D01*
X102988885Y-100107619D02*
X103179361Y-100155238D01*
X103179361Y-100155238D02*
X103274600Y-100250476D01*
X103274600Y-100250476D02*
X103322219Y-100345714D01*
X103322219Y-100345714D02*
X103322219Y-100536190D01*
X103322219Y-100536190D02*
X103274600Y-100631428D01*
X103274600Y-100631428D02*
X103179361Y-100726666D01*
X103179361Y-100726666D02*
X102988885Y-100774285D01*
X102988885Y-100774285D02*
X102655552Y-100774285D01*
X102655552Y-100774285D02*
X102465076Y-100726666D01*
X102465076Y-100726666D02*
X102369838Y-100631428D01*
X102369838Y-100631428D02*
X102322219Y-100536190D01*
X102322219Y-99679047D02*
X103131742Y-99679047D01*
X103131742Y-99679047D02*
X103226980Y-99631428D01*
X103226980Y-99631428D02*
X103274600Y-99583809D01*
X103274600Y-99583809D02*
X103322219Y-99488571D01*
X103322219Y-99488571D02*
X103322219Y-99298095D01*
X103322219Y-99298095D02*
X103274600Y-99202857D01*
X103274600Y-99202857D02*
X103226980Y-99155238D01*
X103226980Y-99155238D02*
X103131742Y-99107619D01*
X103131742Y-99107619D02*
X102322219Y-99107619D01*
X102322219Y-98774285D02*
X102322219Y-98202857D01*
X103322219Y-98488571D02*
X102322219Y-98488571D01*
X102417457Y-97917142D02*
X102369838Y-97869523D01*
X102369838Y-97869523D02*
X102322219Y-97774285D01*
X102322219Y-97774285D02*
X102322219Y-97536190D01*
X102322219Y-97536190D02*
X102369838Y-97440952D01*
X102369838Y-97440952D02*
X102417457Y-97393333D01*
X102417457Y-97393333D02*
X102512695Y-97345714D01*
X102512695Y-97345714D02*
X102607933Y-97345714D01*
X102607933Y-97345714D02*
X102750790Y-97393333D01*
X102750790Y-97393333D02*
X103322219Y-97964761D01*
X103322219Y-97964761D02*
X103322219Y-97345714D01*
D11*
X120104819Y-104091903D02*
X120104819Y-103520475D01*
X121104819Y-103806189D02*
X120104819Y-103806189D01*
X121104819Y-102615713D02*
X120628628Y-102949046D01*
X121104819Y-103187141D02*
X120104819Y-103187141D01*
X120104819Y-103187141D02*
X120104819Y-102806189D01*
X120104819Y-102806189D02*
X120152438Y-102710951D01*
X120152438Y-102710951D02*
X120200057Y-102663332D01*
X120200057Y-102663332D02*
X120295295Y-102615713D01*
X120295295Y-102615713D02*
X120438152Y-102615713D01*
X120438152Y-102615713D02*
X120533390Y-102663332D01*
X120533390Y-102663332D02*
X120581009Y-102710951D01*
X120581009Y-102710951D02*
X120628628Y-102806189D01*
X120628628Y-102806189D02*
X120628628Y-103187141D01*
X120819104Y-102234760D02*
X120819104Y-101758570D01*
X121104819Y-102329998D02*
X120104819Y-101996665D01*
X120104819Y-101996665D02*
X121104819Y-101663332D01*
X121104819Y-101329998D02*
X120104819Y-101329998D01*
X120104819Y-101329998D02*
X121104819Y-100758570D01*
X121104819Y-100758570D02*
X120104819Y-100758570D01*
X121057200Y-100329998D02*
X121104819Y-100187141D01*
X121104819Y-100187141D02*
X121104819Y-99949046D01*
X121104819Y-99949046D02*
X121057200Y-99853808D01*
X121057200Y-99853808D02*
X121009580Y-99806189D01*
X121009580Y-99806189D02*
X120914342Y-99758570D01*
X120914342Y-99758570D02*
X120819104Y-99758570D01*
X120819104Y-99758570D02*
X120723866Y-99806189D01*
X120723866Y-99806189D02*
X120676247Y-99853808D01*
X120676247Y-99853808D02*
X120628628Y-99949046D01*
X120628628Y-99949046D02*
X120581009Y-100139522D01*
X120581009Y-100139522D02*
X120533390Y-100234760D01*
X120533390Y-100234760D02*
X120485771Y-100282379D01*
X120485771Y-100282379D02*
X120390533Y-100329998D01*
X120390533Y-100329998D02*
X120295295Y-100329998D01*
X120295295Y-100329998D02*
X120200057Y-100282379D01*
X120200057Y-100282379D02*
X120152438Y-100234760D01*
X120152438Y-100234760D02*
X120104819Y-100139522D01*
X120104819Y-100139522D02*
X120104819Y-99901427D01*
X120104819Y-99901427D02*
X120152438Y-99758570D01*
X121104819Y-99329998D02*
X120104819Y-99329998D01*
X121104819Y-98853808D02*
X120104819Y-98853808D01*
X120104819Y-98853808D02*
X120819104Y-98520475D01*
X120819104Y-98520475D02*
X120104819Y-98187142D01*
X120104819Y-98187142D02*
X121104819Y-98187142D01*
X121104819Y-97710951D02*
X120104819Y-97710951D01*
X120104819Y-97710951D02*
X120104819Y-97329999D01*
X120104819Y-97329999D02*
X120152438Y-97234761D01*
X120152438Y-97234761D02*
X120200057Y-97187142D01*
X120200057Y-97187142D02*
X120295295Y-97139523D01*
X120295295Y-97139523D02*
X120438152Y-97139523D01*
X120438152Y-97139523D02*
X120533390Y-97187142D01*
X120533390Y-97187142D02*
X120581009Y-97234761D01*
X120581009Y-97234761D02*
X120628628Y-97329999D01*
X120628628Y-97329999D02*
X120628628Y-97710951D01*
X121009580Y-96710951D02*
X121057200Y-96663332D01*
X121057200Y-96663332D02*
X121104819Y-96710951D01*
X121104819Y-96710951D02*
X121057200Y-96758570D01*
X121057200Y-96758570D02*
X121009580Y-96710951D01*
X121009580Y-96710951D02*
X121104819Y-96710951D01*
D10*
X117562219Y-100536190D02*
X117562219Y-100345714D01*
X117562219Y-100345714D02*
X117609838Y-100250476D01*
X117609838Y-100250476D02*
X117705076Y-100155238D01*
X117705076Y-100155238D02*
X117895552Y-100107619D01*
X117895552Y-100107619D02*
X118228885Y-100107619D01*
X118228885Y-100107619D02*
X118419361Y-100155238D01*
X118419361Y-100155238D02*
X118514600Y-100250476D01*
X118514600Y-100250476D02*
X118562219Y-100345714D01*
X118562219Y-100345714D02*
X118562219Y-100536190D01*
X118562219Y-100536190D02*
X118514600Y-100631428D01*
X118514600Y-100631428D02*
X118419361Y-100726666D01*
X118419361Y-100726666D02*
X118228885Y-100774285D01*
X118228885Y-100774285D02*
X117895552Y-100774285D01*
X117895552Y-100774285D02*
X117705076Y-100726666D01*
X117705076Y-100726666D02*
X117609838Y-100631428D01*
X117609838Y-100631428D02*
X117562219Y-100536190D01*
X117562219Y-99679047D02*
X118371742Y-99679047D01*
X118371742Y-99679047D02*
X118466980Y-99631428D01*
X118466980Y-99631428D02*
X118514600Y-99583809D01*
X118514600Y-99583809D02*
X118562219Y-99488571D01*
X118562219Y-99488571D02*
X118562219Y-99298095D01*
X118562219Y-99298095D02*
X118514600Y-99202857D01*
X118514600Y-99202857D02*
X118466980Y-99155238D01*
X118466980Y-99155238D02*
X118371742Y-99107619D01*
X118371742Y-99107619D02*
X117562219Y-99107619D01*
X117562219Y-98774285D02*
X117562219Y-98202857D01*
X118562219Y-98488571D02*
X117562219Y-98488571D01*
X118562219Y-97345714D02*
X118562219Y-97917142D01*
X118562219Y-97631428D02*
X117562219Y-97631428D01*
X117562219Y-97631428D02*
X117705076Y-97726666D01*
X117705076Y-97726666D02*
X117800314Y-97821904D01*
X117800314Y-97821904D02*
X117847933Y-97917142D01*
X61626952Y-65174600D02*
X61769809Y-65222219D01*
X61769809Y-65222219D02*
X62007904Y-65222219D01*
X62007904Y-65222219D02*
X62103142Y-65174600D01*
X62103142Y-65174600D02*
X62150761Y-65126980D01*
X62150761Y-65126980D02*
X62198380Y-65031742D01*
X62198380Y-65031742D02*
X62198380Y-64936504D01*
X62198380Y-64936504D02*
X62150761Y-64841266D01*
X62150761Y-64841266D02*
X62103142Y-64793647D01*
X62103142Y-64793647D02*
X62007904Y-64746028D01*
X62007904Y-64746028D02*
X61817428Y-64698409D01*
X61817428Y-64698409D02*
X61722190Y-64650790D01*
X61722190Y-64650790D02*
X61674571Y-64603171D01*
X61674571Y-64603171D02*
X61626952Y-64507933D01*
X61626952Y-64507933D02*
X61626952Y-64412695D01*
X61626952Y-64412695D02*
X61674571Y-64317457D01*
X61674571Y-64317457D02*
X61722190Y-64269838D01*
X61722190Y-64269838D02*
X61817428Y-64222219D01*
X61817428Y-64222219D02*
X62055523Y-64222219D01*
X62055523Y-64222219D02*
X62198380Y-64269838D01*
X62626952Y-64698409D02*
X62960285Y-64698409D01*
X63103142Y-65222219D02*
X62626952Y-65222219D01*
X62626952Y-65222219D02*
X62626952Y-64222219D01*
X62626952Y-64222219D02*
X63103142Y-64222219D01*
X64007904Y-65222219D02*
X63531714Y-65222219D01*
X63531714Y-65222219D02*
X63531714Y-64222219D01*
X64865047Y-65222219D02*
X64293619Y-65222219D01*
X64579333Y-65222219D02*
X64579333Y-64222219D01*
X64579333Y-64222219D02*
X64484095Y-64365076D01*
X64484095Y-64365076D02*
X64388857Y-64460314D01*
X64388857Y-64460314D02*
X64293619Y-64507933D01*
D11*
X58704819Y-46981904D02*
X57704819Y-46981904D01*
X57704819Y-46981904D02*
X58419104Y-46648571D01*
X58419104Y-46648571D02*
X57704819Y-46315238D01*
X57704819Y-46315238D02*
X58704819Y-46315238D01*
X58038152Y-45410476D02*
X58704819Y-45410476D01*
X57657200Y-45648571D02*
X58371485Y-45886666D01*
X58371485Y-45886666D02*
X58371485Y-45267619D01*
X58704819Y-44458095D02*
X58181009Y-44458095D01*
X58181009Y-44458095D02*
X58085771Y-44505714D01*
X58085771Y-44505714D02*
X58038152Y-44600952D01*
X58038152Y-44600952D02*
X58038152Y-44791428D01*
X58038152Y-44791428D02*
X58085771Y-44886666D01*
X58657200Y-44458095D02*
X58704819Y-44553333D01*
X58704819Y-44553333D02*
X58704819Y-44791428D01*
X58704819Y-44791428D02*
X58657200Y-44886666D01*
X58657200Y-44886666D02*
X58561961Y-44934285D01*
X58561961Y-44934285D02*
X58466723Y-44934285D01*
X58466723Y-44934285D02*
X58371485Y-44886666D01*
X58371485Y-44886666D02*
X58323866Y-44791428D01*
X58323866Y-44791428D02*
X58323866Y-44553333D01*
X58323866Y-44553333D02*
X58276247Y-44458095D01*
X92656819Y-113196666D02*
X92180628Y-113529999D01*
X92656819Y-113768094D02*
X91656819Y-113768094D01*
X91656819Y-113768094D02*
X91656819Y-113387142D01*
X91656819Y-113387142D02*
X91704438Y-113291904D01*
X91704438Y-113291904D02*
X91752057Y-113244285D01*
X91752057Y-113244285D02*
X91847295Y-113196666D01*
X91847295Y-113196666D02*
X91990152Y-113196666D01*
X91990152Y-113196666D02*
X92085390Y-113244285D01*
X92085390Y-113244285D02*
X92133009Y-113291904D01*
X92133009Y-113291904D02*
X92180628Y-113387142D01*
X92180628Y-113387142D02*
X92180628Y-113768094D01*
X92656819Y-112244285D02*
X92656819Y-112815713D01*
X92656819Y-112529999D02*
X91656819Y-112529999D01*
X91656819Y-112529999D02*
X91799676Y-112625237D01*
X91799676Y-112625237D02*
X91894914Y-112720475D01*
X91894914Y-112720475D02*
X91942533Y-112815713D01*
X105964819Y-66064094D02*
X104964819Y-66064094D01*
X104964819Y-66064094D02*
X104964819Y-65825999D01*
X104964819Y-65825999D02*
X105012438Y-65683142D01*
X105012438Y-65683142D02*
X105107676Y-65587904D01*
X105107676Y-65587904D02*
X105202914Y-65540285D01*
X105202914Y-65540285D02*
X105393390Y-65492666D01*
X105393390Y-65492666D02*
X105536247Y-65492666D01*
X105536247Y-65492666D02*
X105726723Y-65540285D01*
X105726723Y-65540285D02*
X105821961Y-65587904D01*
X105821961Y-65587904D02*
X105917200Y-65683142D01*
X105917200Y-65683142D02*
X105964819Y-65825999D01*
X105964819Y-65825999D02*
X105964819Y-66064094D01*
X104964819Y-64587904D02*
X104964819Y-65064094D01*
X104964819Y-65064094D02*
X105441009Y-65111713D01*
X105441009Y-65111713D02*
X105393390Y-65064094D01*
X105393390Y-65064094D02*
X105345771Y-64968856D01*
X105345771Y-64968856D02*
X105345771Y-64730761D01*
X105345771Y-64730761D02*
X105393390Y-64635523D01*
X105393390Y-64635523D02*
X105441009Y-64587904D01*
X105441009Y-64587904D02*
X105536247Y-64540285D01*
X105536247Y-64540285D02*
X105774342Y-64540285D01*
X105774342Y-64540285D02*
X105869580Y-64587904D01*
X105869580Y-64587904D02*
X105917200Y-64635523D01*
X105917200Y-64635523D02*
X105964819Y-64730761D01*
X105964819Y-64730761D02*
X105964819Y-64968856D01*
X105964819Y-64968856D02*
X105917200Y-65064094D01*
X105917200Y-65064094D02*
X105869580Y-65111713D01*
X105424819Y-81348094D02*
X104424819Y-81348094D01*
X104424819Y-81348094D02*
X104424819Y-81109999D01*
X104424819Y-81109999D02*
X104472438Y-80967142D01*
X104472438Y-80967142D02*
X104567676Y-80871904D01*
X104567676Y-80871904D02*
X104662914Y-80824285D01*
X104662914Y-80824285D02*
X104853390Y-80776666D01*
X104853390Y-80776666D02*
X104996247Y-80776666D01*
X104996247Y-80776666D02*
X105186723Y-80824285D01*
X105186723Y-80824285D02*
X105281961Y-80871904D01*
X105281961Y-80871904D02*
X105377200Y-80967142D01*
X105377200Y-80967142D02*
X105424819Y-81109999D01*
X105424819Y-81109999D02*
X105424819Y-81348094D01*
X104520057Y-80395713D02*
X104472438Y-80348094D01*
X104472438Y-80348094D02*
X104424819Y-80252856D01*
X104424819Y-80252856D02*
X104424819Y-80014761D01*
X104424819Y-80014761D02*
X104472438Y-79919523D01*
X104472438Y-79919523D02*
X104520057Y-79871904D01*
X104520057Y-79871904D02*
X104615295Y-79824285D01*
X104615295Y-79824285D02*
X104710533Y-79824285D01*
X104710533Y-79824285D02*
X104853390Y-79871904D01*
X104853390Y-79871904D02*
X105424819Y-80443332D01*
X105424819Y-80443332D02*
X105424819Y-79824285D01*
X123390819Y-112942666D02*
X122914628Y-113275999D01*
X123390819Y-113514094D02*
X122390819Y-113514094D01*
X122390819Y-113514094D02*
X122390819Y-113133142D01*
X122390819Y-113133142D02*
X122438438Y-113037904D01*
X122438438Y-113037904D02*
X122486057Y-112990285D01*
X122486057Y-112990285D02*
X122581295Y-112942666D01*
X122581295Y-112942666D02*
X122724152Y-112942666D01*
X122724152Y-112942666D02*
X122819390Y-112990285D01*
X122819390Y-112990285D02*
X122867009Y-113037904D01*
X122867009Y-113037904D02*
X122914628Y-113133142D01*
X122914628Y-113133142D02*
X122914628Y-113514094D01*
X122390819Y-112609332D02*
X122390819Y-111990285D01*
X122390819Y-111990285D02*
X122771771Y-112323618D01*
X122771771Y-112323618D02*
X122771771Y-112180761D01*
X122771771Y-112180761D02*
X122819390Y-112085523D01*
X122819390Y-112085523D02*
X122867009Y-112037904D01*
X122867009Y-112037904D02*
X122962247Y-111990285D01*
X122962247Y-111990285D02*
X123200342Y-111990285D01*
X123200342Y-111990285D02*
X123295580Y-112037904D01*
X123295580Y-112037904D02*
X123343200Y-112085523D01*
X123343200Y-112085523D02*
X123390819Y-112180761D01*
X123390819Y-112180761D02*
X123390819Y-112466475D01*
X123390819Y-112466475D02*
X123343200Y-112561713D01*
X123343200Y-112561713D02*
X123295580Y-112609332D01*
X80988819Y-56387904D02*
X81798342Y-56387904D01*
X81798342Y-56387904D02*
X81893580Y-56340285D01*
X81893580Y-56340285D02*
X81941200Y-56292666D01*
X81941200Y-56292666D02*
X81988819Y-56197428D01*
X81988819Y-56197428D02*
X81988819Y-56006952D01*
X81988819Y-56006952D02*
X81941200Y-55911714D01*
X81941200Y-55911714D02*
X81893580Y-55864095D01*
X81893580Y-55864095D02*
X81798342Y-55816476D01*
X81798342Y-55816476D02*
X80988819Y-55816476D01*
X81988819Y-54816476D02*
X81988819Y-55387904D01*
X81988819Y-55102190D02*
X80988819Y-55102190D01*
X80988819Y-55102190D02*
X81131676Y-55197428D01*
X81131676Y-55197428D02*
X81226914Y-55292666D01*
X81226914Y-55292666D02*
X81274533Y-55387904D01*
X60674819Y-82271523D02*
X61389104Y-82271523D01*
X61389104Y-82271523D02*
X61531961Y-82319142D01*
X61531961Y-82319142D02*
X61627200Y-82414380D01*
X61627200Y-82414380D02*
X61674819Y-82557237D01*
X61674819Y-82557237D02*
X61674819Y-82652475D01*
X61674819Y-81271523D02*
X61674819Y-81842951D01*
X61674819Y-81557237D02*
X60674819Y-81557237D01*
X60674819Y-81557237D02*
X60817676Y-81652475D01*
X60817676Y-81652475D02*
X60912914Y-81747713D01*
X60912914Y-81747713D02*
X60960533Y-81842951D01*
X60674819Y-80938189D02*
X60674819Y-80319142D01*
X60674819Y-80319142D02*
X61055771Y-80652475D01*
X61055771Y-80652475D02*
X61055771Y-80509618D01*
X61055771Y-80509618D02*
X61103390Y-80414380D01*
X61103390Y-80414380D02*
X61151009Y-80366761D01*
X61151009Y-80366761D02*
X61246247Y-80319142D01*
X61246247Y-80319142D02*
X61484342Y-80319142D01*
X61484342Y-80319142D02*
X61579580Y-80366761D01*
X61579580Y-80366761D02*
X61627200Y-80414380D01*
X61627200Y-80414380D02*
X61674819Y-80509618D01*
X61674819Y-80509618D02*
X61674819Y-80795332D01*
X61674819Y-80795332D02*
X61627200Y-80890570D01*
X61627200Y-80890570D02*
X61579580Y-80938189D01*
X121184819Y-66048094D02*
X120184819Y-66048094D01*
X120184819Y-66048094D02*
X120184819Y-65809999D01*
X120184819Y-65809999D02*
X120232438Y-65667142D01*
X120232438Y-65667142D02*
X120327676Y-65571904D01*
X120327676Y-65571904D02*
X120422914Y-65524285D01*
X120422914Y-65524285D02*
X120613390Y-65476666D01*
X120613390Y-65476666D02*
X120756247Y-65476666D01*
X120756247Y-65476666D02*
X120946723Y-65524285D01*
X120946723Y-65524285D02*
X121041961Y-65571904D01*
X121041961Y-65571904D02*
X121137200Y-65667142D01*
X121137200Y-65667142D02*
X121184819Y-65809999D01*
X121184819Y-65809999D02*
X121184819Y-66048094D01*
X120184819Y-64619523D02*
X120184819Y-64809999D01*
X120184819Y-64809999D02*
X120232438Y-64905237D01*
X120232438Y-64905237D02*
X120280057Y-64952856D01*
X120280057Y-64952856D02*
X120422914Y-65048094D01*
X120422914Y-65048094D02*
X120613390Y-65095713D01*
X120613390Y-65095713D02*
X120994342Y-65095713D01*
X120994342Y-65095713D02*
X121089580Y-65048094D01*
X121089580Y-65048094D02*
X121137200Y-65000475D01*
X121137200Y-65000475D02*
X121184819Y-64905237D01*
X121184819Y-64905237D02*
X121184819Y-64714761D01*
X121184819Y-64714761D02*
X121137200Y-64619523D01*
X121137200Y-64619523D02*
X121089580Y-64571904D01*
X121089580Y-64571904D02*
X120994342Y-64524285D01*
X120994342Y-64524285D02*
X120756247Y-64524285D01*
X120756247Y-64524285D02*
X120661009Y-64571904D01*
X120661009Y-64571904D02*
X120613390Y-64619523D01*
X120613390Y-64619523D02*
X120565771Y-64714761D01*
X120565771Y-64714761D02*
X120565771Y-64905237D01*
X120565771Y-64905237D02*
X120613390Y-65000475D01*
X120613390Y-65000475D02*
X120661009Y-65048094D01*
X120661009Y-65048094D02*
X120756247Y-65095713D01*
X90370819Y-48680666D02*
X89894628Y-49013999D01*
X90370819Y-49252094D02*
X89370819Y-49252094D01*
X89370819Y-49252094D02*
X89370819Y-48871142D01*
X89370819Y-48871142D02*
X89418438Y-48775904D01*
X89418438Y-48775904D02*
X89466057Y-48728285D01*
X89466057Y-48728285D02*
X89561295Y-48680666D01*
X89561295Y-48680666D02*
X89704152Y-48680666D01*
X89704152Y-48680666D02*
X89799390Y-48728285D01*
X89799390Y-48728285D02*
X89847009Y-48775904D01*
X89847009Y-48775904D02*
X89894628Y-48871142D01*
X89894628Y-48871142D02*
X89894628Y-49252094D01*
X89704152Y-47823523D02*
X90370819Y-47823523D01*
X89323200Y-48061618D02*
X90037485Y-48299713D01*
X90037485Y-48299713D02*
X90037485Y-47680666D01*
X90394819Y-66298094D02*
X89394819Y-66298094D01*
X89394819Y-66298094D02*
X89394819Y-66059999D01*
X89394819Y-66059999D02*
X89442438Y-65917142D01*
X89442438Y-65917142D02*
X89537676Y-65821904D01*
X89537676Y-65821904D02*
X89632914Y-65774285D01*
X89632914Y-65774285D02*
X89823390Y-65726666D01*
X89823390Y-65726666D02*
X89966247Y-65726666D01*
X89966247Y-65726666D02*
X90156723Y-65774285D01*
X90156723Y-65774285D02*
X90251961Y-65821904D01*
X90251961Y-65821904D02*
X90347200Y-65917142D01*
X90347200Y-65917142D02*
X90394819Y-66059999D01*
X90394819Y-66059999D02*
X90394819Y-66298094D01*
X89728152Y-64869523D02*
X90394819Y-64869523D01*
X89347200Y-65107618D02*
X90061485Y-65345713D01*
X90061485Y-65345713D02*
X90061485Y-64726666D01*
X81242819Y-107441904D02*
X82052342Y-107441904D01*
X82052342Y-107441904D02*
X82147580Y-107394285D01*
X82147580Y-107394285D02*
X82195200Y-107346666D01*
X82195200Y-107346666D02*
X82242819Y-107251428D01*
X82242819Y-107251428D02*
X82242819Y-107060952D01*
X82242819Y-107060952D02*
X82195200Y-106965714D01*
X82195200Y-106965714D02*
X82147580Y-106918095D01*
X82147580Y-106918095D02*
X82052342Y-106870476D01*
X82052342Y-106870476D02*
X81242819Y-106870476D01*
X81338057Y-106441904D02*
X81290438Y-106394285D01*
X81290438Y-106394285D02*
X81242819Y-106299047D01*
X81242819Y-106299047D02*
X81242819Y-106060952D01*
X81242819Y-106060952D02*
X81290438Y-105965714D01*
X81290438Y-105965714D02*
X81338057Y-105918095D01*
X81338057Y-105918095D02*
X81433295Y-105870476D01*
X81433295Y-105870476D02*
X81528533Y-105870476D01*
X81528533Y-105870476D02*
X81671390Y-105918095D01*
X81671390Y-105918095D02*
X82242819Y-106489523D01*
X82242819Y-106489523D02*
X82242819Y-105870476D01*
X120596819Y-48426666D02*
X120120628Y-48759999D01*
X120596819Y-48998094D02*
X119596819Y-48998094D01*
X119596819Y-48998094D02*
X119596819Y-48617142D01*
X119596819Y-48617142D02*
X119644438Y-48521904D01*
X119644438Y-48521904D02*
X119692057Y-48474285D01*
X119692057Y-48474285D02*
X119787295Y-48426666D01*
X119787295Y-48426666D02*
X119930152Y-48426666D01*
X119930152Y-48426666D02*
X120025390Y-48474285D01*
X120025390Y-48474285D02*
X120073009Y-48521904D01*
X120073009Y-48521904D02*
X120120628Y-48617142D01*
X120120628Y-48617142D02*
X120120628Y-48998094D01*
X119596819Y-47569523D02*
X119596819Y-47759999D01*
X119596819Y-47759999D02*
X119644438Y-47855237D01*
X119644438Y-47855237D02*
X119692057Y-47902856D01*
X119692057Y-47902856D02*
X119834914Y-47998094D01*
X119834914Y-47998094D02*
X120025390Y-48045713D01*
X120025390Y-48045713D02*
X120406342Y-48045713D01*
X120406342Y-48045713D02*
X120501580Y-47998094D01*
X120501580Y-47998094D02*
X120549200Y-47950475D01*
X120549200Y-47950475D02*
X120596819Y-47855237D01*
X120596819Y-47855237D02*
X120596819Y-47664761D01*
X120596819Y-47664761D02*
X120549200Y-47569523D01*
X120549200Y-47569523D02*
X120501580Y-47521904D01*
X120501580Y-47521904D02*
X120406342Y-47474285D01*
X120406342Y-47474285D02*
X120168247Y-47474285D01*
X120168247Y-47474285D02*
X120073009Y-47521904D01*
X120073009Y-47521904D02*
X120025390Y-47569523D01*
X120025390Y-47569523D02*
X119977771Y-47664761D01*
X119977771Y-47664761D02*
X119977771Y-47855237D01*
X119977771Y-47855237D02*
X120025390Y-47950475D01*
X120025390Y-47950475D02*
X120073009Y-47998094D01*
X120073009Y-47998094D02*
X120168247Y-48045713D01*
X120664819Y-81348094D02*
X119664819Y-81348094D01*
X119664819Y-81348094D02*
X119664819Y-81109999D01*
X119664819Y-81109999D02*
X119712438Y-80967142D01*
X119712438Y-80967142D02*
X119807676Y-80871904D01*
X119807676Y-80871904D02*
X119902914Y-80824285D01*
X119902914Y-80824285D02*
X120093390Y-80776666D01*
X120093390Y-80776666D02*
X120236247Y-80776666D01*
X120236247Y-80776666D02*
X120426723Y-80824285D01*
X120426723Y-80824285D02*
X120521961Y-80871904D01*
X120521961Y-80871904D02*
X120617200Y-80967142D01*
X120617200Y-80967142D02*
X120664819Y-81109999D01*
X120664819Y-81109999D02*
X120664819Y-81348094D01*
X119664819Y-80443332D02*
X119664819Y-79824285D01*
X119664819Y-79824285D02*
X120045771Y-80157618D01*
X120045771Y-80157618D02*
X120045771Y-80014761D01*
X120045771Y-80014761D02*
X120093390Y-79919523D01*
X120093390Y-79919523D02*
X120141009Y-79871904D01*
X120141009Y-79871904D02*
X120236247Y-79824285D01*
X120236247Y-79824285D02*
X120474342Y-79824285D01*
X120474342Y-79824285D02*
X120569580Y-79871904D01*
X120569580Y-79871904D02*
X120617200Y-79919523D01*
X120617200Y-79919523D02*
X120664819Y-80014761D01*
X120664819Y-80014761D02*
X120664819Y-80300475D01*
X120664819Y-80300475D02*
X120617200Y-80395713D01*
X120617200Y-80395713D02*
X120569580Y-80443332D01*
X90184819Y-81738094D02*
X89184819Y-81738094D01*
X89184819Y-81738094D02*
X89184819Y-81499999D01*
X89184819Y-81499999D02*
X89232438Y-81357142D01*
X89232438Y-81357142D02*
X89327676Y-81261904D01*
X89327676Y-81261904D02*
X89422914Y-81214285D01*
X89422914Y-81214285D02*
X89613390Y-81166666D01*
X89613390Y-81166666D02*
X89756247Y-81166666D01*
X89756247Y-81166666D02*
X89946723Y-81214285D01*
X89946723Y-81214285D02*
X90041961Y-81261904D01*
X90041961Y-81261904D02*
X90137200Y-81357142D01*
X90137200Y-81357142D02*
X90184819Y-81499999D01*
X90184819Y-81499999D02*
X90184819Y-81738094D01*
X90184819Y-80214285D02*
X90184819Y-80785713D01*
X90184819Y-80499999D02*
X89184819Y-80499999D01*
X89184819Y-80499999D02*
X89327676Y-80595237D01*
X89327676Y-80595237D02*
X89422914Y-80690475D01*
X89422914Y-80690475D02*
X89470533Y-80785713D01*
X128301905Y-126854819D02*
X128301905Y-125854819D01*
X128301905Y-125854819D02*
X128635238Y-126569104D01*
X128635238Y-126569104D02*
X128968571Y-125854819D01*
X128968571Y-125854819D02*
X128968571Y-126854819D01*
X129873333Y-126188152D02*
X129873333Y-126854819D01*
X129635238Y-125807200D02*
X129397143Y-126521485D01*
X129397143Y-126521485D02*
X130016190Y-126521485D01*
X130825714Y-126807200D02*
X130730476Y-126854819D01*
X130730476Y-126854819D02*
X130540000Y-126854819D01*
X130540000Y-126854819D02*
X130444762Y-126807200D01*
X130444762Y-126807200D02*
X130397143Y-126759580D01*
X130397143Y-126759580D02*
X130349524Y-126664342D01*
X130349524Y-126664342D02*
X130349524Y-126378628D01*
X130349524Y-126378628D02*
X130397143Y-126283390D01*
X130397143Y-126283390D02*
X130444762Y-126235771D01*
X130444762Y-126235771D02*
X130540000Y-126188152D01*
X130540000Y-126188152D02*
X130730476Y-126188152D01*
X130730476Y-126188152D02*
X130825714Y-126235771D01*
X108150819Y-112942666D02*
X107674628Y-113275999D01*
X108150819Y-113514094D02*
X107150819Y-113514094D01*
X107150819Y-113514094D02*
X107150819Y-113133142D01*
X107150819Y-113133142D02*
X107198438Y-113037904D01*
X107198438Y-113037904D02*
X107246057Y-112990285D01*
X107246057Y-112990285D02*
X107341295Y-112942666D01*
X107341295Y-112942666D02*
X107484152Y-112942666D01*
X107484152Y-112942666D02*
X107579390Y-112990285D01*
X107579390Y-112990285D02*
X107627009Y-113037904D01*
X107627009Y-113037904D02*
X107674628Y-113133142D01*
X107674628Y-113133142D02*
X107674628Y-113514094D01*
X107246057Y-112561713D02*
X107198438Y-112514094D01*
X107198438Y-112514094D02*
X107150819Y-112418856D01*
X107150819Y-112418856D02*
X107150819Y-112180761D01*
X107150819Y-112180761D02*
X107198438Y-112085523D01*
X107198438Y-112085523D02*
X107246057Y-112037904D01*
X107246057Y-112037904D02*
X107341295Y-111990285D01*
X107341295Y-111990285D02*
X107436533Y-111990285D01*
X107436533Y-111990285D02*
X107579390Y-112037904D01*
X107579390Y-112037904D02*
X108150819Y-112609332D01*
X108150819Y-112609332D02*
X108150819Y-111990285D01*
X105610819Y-48426666D02*
X105134628Y-48759999D01*
X105610819Y-48998094D02*
X104610819Y-48998094D01*
X104610819Y-48998094D02*
X104610819Y-48617142D01*
X104610819Y-48617142D02*
X104658438Y-48521904D01*
X104658438Y-48521904D02*
X104706057Y-48474285D01*
X104706057Y-48474285D02*
X104801295Y-48426666D01*
X104801295Y-48426666D02*
X104944152Y-48426666D01*
X104944152Y-48426666D02*
X105039390Y-48474285D01*
X105039390Y-48474285D02*
X105087009Y-48521904D01*
X105087009Y-48521904D02*
X105134628Y-48617142D01*
X105134628Y-48617142D02*
X105134628Y-48998094D01*
X104610819Y-47521904D02*
X104610819Y-47998094D01*
X104610819Y-47998094D02*
X105087009Y-48045713D01*
X105087009Y-48045713D02*
X105039390Y-47998094D01*
X105039390Y-47998094D02*
X104991771Y-47902856D01*
X104991771Y-47902856D02*
X104991771Y-47664761D01*
X104991771Y-47664761D02*
X105039390Y-47569523D01*
X105039390Y-47569523D02*
X105087009Y-47521904D01*
X105087009Y-47521904D02*
X105182247Y-47474285D01*
X105182247Y-47474285D02*
X105420342Y-47474285D01*
X105420342Y-47474285D02*
X105515580Y-47521904D01*
X105515580Y-47521904D02*
X105563200Y-47569523D01*
X105563200Y-47569523D02*
X105610819Y-47664761D01*
X105610819Y-47664761D02*
X105610819Y-47902856D01*
X105610819Y-47902856D02*
X105563200Y-47998094D01*
X105563200Y-47998094D02*
X105515580Y-48045713D01*
X128278095Y-37114819D02*
X128278095Y-36114819D01*
X128278095Y-36114819D02*
X128611428Y-36829104D01*
X128611428Y-36829104D02*
X128944761Y-36114819D01*
X128944761Y-36114819D02*
X128944761Y-37114819D01*
X129849523Y-36448152D02*
X129849523Y-37114819D01*
X129611428Y-36067200D02*
X129373333Y-36781485D01*
X129373333Y-36781485D02*
X129992380Y-36781485D01*
X130373333Y-37114819D02*
X130373333Y-36114819D01*
X130373333Y-36495771D02*
X130468571Y-36448152D01*
X130468571Y-36448152D02*
X130659047Y-36448152D01*
X130659047Y-36448152D02*
X130754285Y-36495771D01*
X130754285Y-36495771D02*
X130801904Y-36543390D01*
X130801904Y-36543390D02*
X130849523Y-36638628D01*
X130849523Y-36638628D02*
X130849523Y-36924342D01*
X130849523Y-36924342D02*
X130801904Y-37019580D01*
X130801904Y-37019580D02*
X130754285Y-37067200D01*
X130754285Y-37067200D02*
X130659047Y-37114819D01*
X130659047Y-37114819D02*
X130468571Y-37114819D01*
X130468571Y-37114819D02*
X130373333Y-37067200D01*
D14*
%TO.C,G\u002A\u002A\u002A*%
G36*
X73250905Y-119841017D02*
G01*
X73234968Y-119920064D01*
X73202468Y-119956463D01*
X73143871Y-119970374D01*
X73130815Y-119971931D01*
X72998236Y-119957407D01*
X72916172Y-119884451D01*
X72894681Y-119790856D01*
X72897399Y-119771197D01*
X73007235Y-119771197D01*
X73038729Y-119841743D01*
X73083895Y-119878063D01*
X73104279Y-119874263D01*
X73138261Y-119817768D01*
X73141876Y-119735970D01*
X73118399Y-119667217D01*
X73084904Y-119647282D01*
X73019882Y-119678411D01*
X73007506Y-119699161D01*
X73007235Y-119771197D01*
X72897399Y-119771197D01*
X72914042Y-119650798D01*
X72975026Y-119578323D01*
X73044382Y-119564275D01*
X73124498Y-119541816D01*
X73143700Y-119502021D01*
X73177078Y-119447470D01*
X73207936Y-119439766D01*
X73243237Y-119454539D01*
X73260374Y-119510144D01*
X73262734Y-119623506D01*
X73259815Y-119699161D01*
X73257503Y-119735970D01*
X73250905Y-119841017D01*
G37*
G36*
X74961798Y-119530409D02*
G01*
X74972680Y-119557186D01*
X74981875Y-119608906D01*
X74989521Y-119691371D01*
X74995754Y-119810384D01*
X75000711Y-119971746D01*
X75004530Y-120181261D01*
X75007348Y-120444730D01*
X75009302Y-120767955D01*
X75010528Y-121156739D01*
X75011164Y-121616883D01*
X75011347Y-122154191D01*
X75011347Y-122158230D01*
X75011167Y-122696097D01*
X75010534Y-123156761D01*
X75009313Y-123546023D01*
X75007365Y-123869686D01*
X75004553Y-124133552D01*
X75000742Y-124343423D01*
X74995792Y-124505102D01*
X74989569Y-124624391D01*
X74981934Y-124707091D01*
X74972750Y-124759006D01*
X74961880Y-124785937D01*
X74949188Y-124793687D01*
X74949092Y-124793687D01*
X74936387Y-124786051D01*
X74925505Y-124759274D01*
X74916310Y-124707554D01*
X74908664Y-124625088D01*
X74902431Y-124506076D01*
X74897474Y-124344713D01*
X74893654Y-124135199D01*
X74890837Y-123871730D01*
X74888883Y-123548505D01*
X74887657Y-123159721D01*
X74887021Y-122699576D01*
X74886838Y-122162268D01*
X74886838Y-122158230D01*
X74887018Y-121620362D01*
X74887650Y-121159699D01*
X74888872Y-120770436D01*
X74890820Y-120446773D01*
X74893631Y-120182907D01*
X74897443Y-119973036D01*
X74902392Y-119811357D01*
X74908616Y-119692069D01*
X74916251Y-119609368D01*
X74925435Y-119557454D01*
X74936305Y-119530522D01*
X74948997Y-119522773D01*
X74949092Y-119522772D01*
X74961798Y-119530409D01*
G37*
G36*
X74098275Y-119834047D02*
G01*
X74098275Y-120103818D01*
X73911511Y-120103818D01*
X73800129Y-120095575D01*
X73733316Y-120074718D01*
X73724746Y-120062315D01*
X73760811Y-120033174D01*
X73847707Y-120020815D01*
X73849256Y-120020811D01*
X73948105Y-120002251D01*
X73973766Y-119958557D01*
X73940544Y-119903533D01*
X73911511Y-119896302D01*
X73856279Y-119873891D01*
X73849256Y-119854798D01*
X73882872Y-119817978D01*
X73911511Y-119813295D01*
X73962211Y-119778694D01*
X73973766Y-119730289D01*
X73954199Y-119669530D01*
X73881397Y-119648138D01*
X73849256Y-119647282D01*
X73761833Y-119635260D01*
X73724756Y-119606295D01*
X73724746Y-119605779D01*
X73761841Y-119581027D01*
X73855696Y-119566180D01*
X73911511Y-119564275D01*
X74098275Y-119564275D01*
X74098275Y-119834047D01*
G37*
G36*
X73660898Y-119574431D02*
G01*
X73648051Y-119618423D01*
X73618995Y-119665251D01*
X73576571Y-119757759D01*
X73593181Y-119840891D01*
X73600649Y-119855570D01*
X73626088Y-119935367D01*
X73611600Y-119976752D01*
X73570324Y-119961767D01*
X73545722Y-119930633D01*
X73505800Y-119883082D01*
X73469134Y-119905654D01*
X73450225Y-119930567D01*
X73395550Y-119974824D01*
X73362227Y-119955707D01*
X73365524Y-119892625D01*
X73386425Y-119849456D01*
X73416941Y-119772575D01*
X73392401Y-119695057D01*
X73373521Y-119664579D01*
X73334321Y-119591881D01*
X73348196Y-119565534D01*
X73362711Y-119564275D01*
X73440094Y-119591355D01*
X73462741Y-119609395D01*
X73512839Y-119632069D01*
X73535746Y-119609395D01*
X73598018Y-119567991D01*
X73624394Y-119564275D01*
X73660898Y-119574431D01*
G37*
G36*
X72803399Y-119917152D02*
G01*
X72768353Y-119937805D01*
X72724341Y-119972146D01*
X72687164Y-120041563D01*
X72634363Y-120118931D01*
X72578001Y-120145321D01*
X72531635Y-120139066D01*
X72544898Y-120106165D01*
X72575311Y-120071260D01*
X72618721Y-120011244D01*
X72597314Y-119970843D01*
X72560992Y-119946398D01*
X72495956Y-119872627D01*
X72484745Y-119831597D01*
X72604158Y-119831597D01*
X72634570Y-119870337D01*
X72689293Y-119871200D01*
X72707498Y-119855475D01*
X72698480Y-119819382D01*
X72668862Y-119813295D01*
X72611943Y-119822920D01*
X72604158Y-119831597D01*
X72484745Y-119831597D01*
X72479648Y-119812943D01*
X72499371Y-119752402D01*
X72572561Y-119731116D01*
X72604158Y-119730289D01*
X72691580Y-119718267D01*
X72728658Y-119689302D01*
X72728668Y-119688785D01*
X72693150Y-119657586D01*
X72624909Y-119647282D01*
X72546912Y-119633075D01*
X72521151Y-119605779D01*
X72553339Y-119567551D01*
X72629738Y-119561321D01*
X72720097Y-119582396D01*
X72794169Y-119626087D01*
X72813743Y-119651148D01*
X72838113Y-119742491D01*
X72832942Y-119842042D01*
X72827658Y-119855475D01*
X72803399Y-119917152D01*
G37*
G36*
X72377800Y-119601592D02*
G01*
X72394421Y-119702766D01*
X72396641Y-119771792D01*
X72394011Y-119894620D01*
X72377312Y-119955868D01*
X72333336Y-119976956D01*
X72268673Y-119979308D01*
X72175886Y-119965291D01*
X72157998Y-119927429D01*
X72208941Y-119879967D01*
X72234087Y-119875550D01*
X72280666Y-119836261D01*
X72305497Y-119723063D01*
X72305764Y-119719913D01*
X72325087Y-119605379D01*
X72351893Y-119567535D01*
X72377800Y-119601592D01*
G37*
G36*
X72079241Y-119578538D02*
G01*
X72097281Y-119632525D01*
X72101417Y-119743033D01*
X72099007Y-119834047D01*
X72086979Y-119983474D01*
X72065686Y-120078064D01*
X72043864Y-120103818D01*
X72017401Y-120064941D01*
X71997635Y-119958664D01*
X71988720Y-119834047D01*
X71986669Y-119685270D01*
X71996633Y-119602258D01*
X72022045Y-119568214D01*
X72043864Y-119564275D01*
X72079241Y-119578538D01*
G37*
G36*
X71881074Y-119601539D02*
G01*
X71896065Y-119696541D01*
X71898602Y-119765737D01*
X71898602Y-119967198D01*
X71639207Y-119962877D01*
X71379811Y-119958557D01*
X71367162Y-119761416D01*
X71369539Y-119637379D01*
X71389465Y-119573020D01*
X71416909Y-119574519D01*
X71441840Y-119648061D01*
X71449937Y-119710404D01*
X71468819Y-119806826D01*
X71498629Y-119855210D01*
X71504321Y-119856533D01*
X71534929Y-119819975D01*
X71556599Y-119730036D01*
X71558706Y-119710404D01*
X71578721Y-119600235D01*
X71607906Y-119570396D01*
X71639831Y-119619691D01*
X71665520Y-119730289D01*
X71698720Y-119847528D01*
X71740975Y-119888913D01*
X71781459Y-119859177D01*
X71809347Y-119763056D01*
X71815596Y-119664639D01*
X71830239Y-119588281D01*
X71857099Y-119564275D01*
X71881074Y-119601539D01*
G37*
G36*
X71221486Y-119914470D02*
G01*
X71146634Y-119973541D01*
X71111544Y-119979308D01*
X71013720Y-119947338D01*
X70932933Y-119871749D01*
X70918074Y-119831597D01*
X71027034Y-119831597D01*
X71057446Y-119870337D01*
X71112169Y-119871200D01*
X71130373Y-119855475D01*
X71121356Y-119819382D01*
X71091738Y-119813295D01*
X71034819Y-119822920D01*
X71027034Y-119831597D01*
X70918074Y-119831597D01*
X70902524Y-119789579D01*
X70939925Y-119743294D01*
X71027034Y-119730289D01*
X71114456Y-119718267D01*
X71151534Y-119689302D01*
X71151543Y-119688785D01*
X71115952Y-119657851D01*
X71045336Y-119647282D01*
X70974723Y-119634107D01*
X70964779Y-119605779D01*
X71028121Y-119570288D01*
X71124401Y-119569460D01*
X71211759Y-119601966D01*
X71226249Y-119614079D01*
X71270562Y-119705226D01*
X71265885Y-119815194D01*
X71247870Y-119855475D01*
X71221486Y-119914470D01*
G37*
G36*
X70585914Y-119591807D02*
G01*
X70616595Y-119690576D01*
X70619871Y-119719913D01*
X70637947Y-119820030D01*
X70666604Y-119873025D01*
X70674256Y-119875550D01*
X70703992Y-119838838D01*
X70725657Y-119747825D01*
X70728640Y-119719913D01*
X70753478Y-119603303D01*
X70802805Y-119564281D01*
X70803545Y-119564275D01*
X70841401Y-119583728D01*
X70855758Y-119653471D01*
X70852919Y-119761416D01*
X70840998Y-119881324D01*
X70815403Y-119941770D01*
X70761071Y-119966285D01*
X70717806Y-119972493D01*
X70594268Y-119954275D01*
X70516798Y-119868217D01*
X70487666Y-119716990D01*
X70487491Y-119701604D01*
X70504161Y-119594942D01*
X70542702Y-119559136D01*
X70585914Y-119591807D01*
G37*
G36*
X70361382Y-119589780D02*
G01*
X70381954Y-119616155D01*
X70410298Y-119750896D01*
X70419351Y-119892780D01*
X70407686Y-120004986D01*
X70398055Y-120031187D01*
X70345218Y-120092994D01*
X70297778Y-120095438D01*
X70279975Y-120045022D01*
X70248235Y-119976051D01*
X70228096Y-119962015D01*
X70197574Y-119934759D01*
X70228096Y-119913595D01*
X70262659Y-119864147D01*
X70278370Y-119780026D01*
X70273848Y-119696624D01*
X70247716Y-119649331D01*
X70238472Y-119647282D01*
X70198174Y-119615699D01*
X70196968Y-119605779D01*
X70228567Y-119571285D01*
X70296701Y-119566700D01*
X70361382Y-119589780D01*
G37*
G36*
X70146677Y-119730525D02*
G01*
X70084965Y-119797895D01*
X70009057Y-119813295D01*
X69936747Y-119826542D01*
X69927877Y-119855899D01*
X69986590Y-119888117D01*
X70010612Y-119887026D01*
X70062975Y-119900236D01*
X70069737Y-119917053D01*
X70036070Y-119947113D01*
X69958324Y-119958557D01*
X69888897Y-119951822D01*
X69853093Y-119917082D01*
X69836890Y-119832529D01*
X69831541Y-119761416D01*
X69826880Y-119688785D01*
X69906445Y-119688785D01*
X69940061Y-119725606D01*
X69968700Y-119730289D01*
X70023932Y-119707878D01*
X70030955Y-119688785D01*
X69997339Y-119651964D01*
X69968700Y-119647282D01*
X69913469Y-119669693D01*
X69906445Y-119688785D01*
X69826880Y-119688785D01*
X69818891Y-119564275D01*
X69967729Y-119564275D01*
X70087131Y-119581936D01*
X70140456Y-119626530D01*
X70144180Y-119688785D01*
X70146677Y-119730525D01*
G37*
G36*
X69679114Y-119602392D02*
G01*
X69693962Y-119703364D01*
X69698929Y-119834047D01*
X69693065Y-119975018D01*
X69677531Y-120071535D01*
X69657426Y-120103818D01*
X69635738Y-120065702D01*
X69620889Y-119964730D01*
X69615922Y-119834047D01*
X69621787Y-119693075D01*
X69637321Y-119596558D01*
X69657426Y-119564275D01*
X69679114Y-119602392D01*
G37*
G36*
X71623381Y-120729946D02*
G01*
X71555420Y-120822473D01*
X71445545Y-120865196D01*
X71384643Y-120861958D01*
X71320785Y-120842571D01*
X71288514Y-120800827D01*
X71277202Y-120713637D01*
X71276584Y-120666561D01*
X71400563Y-120666561D01*
X71422651Y-120748175D01*
X71462818Y-120767870D01*
X71506323Y-120733734D01*
X71526441Y-120657238D01*
X71516867Y-120577252D01*
X71498532Y-120547648D01*
X71449238Y-120535819D01*
X71411869Y-120588875D01*
X71400563Y-120666561D01*
X71276584Y-120666561D01*
X71276053Y-120626071D01*
X71293398Y-120447373D01*
X71345832Y-120342927D01*
X71427166Y-120311334D01*
X71494305Y-120340447D01*
X71504321Y-120352838D01*
X71493063Y-120388029D01*
X71454891Y-120396972D01*
X71417962Y-120405613D01*
X71456707Y-120429898D01*
X71482049Y-120440413D01*
X71563324Y-120474144D01*
X71599491Y-120507381D01*
X71620592Y-120574519D01*
X71629054Y-120608721D01*
X71626784Y-120657238D01*
X71623381Y-120729946D01*
G37*
G36*
X74114550Y-120711922D02*
G01*
X74063730Y-120805152D01*
X73986981Y-120863747D01*
X73912452Y-120866247D01*
X73861548Y-120871600D01*
X73849256Y-120929443D01*
X73832670Y-120999259D01*
X73807753Y-121016890D01*
X73786343Y-120978581D01*
X73771591Y-120876250D01*
X73766249Y-120732683D01*
X73766904Y-120658595D01*
X73857437Y-120658595D01*
X73892610Y-120736319D01*
X73949588Y-120762849D01*
X73999602Y-120735364D01*
X74015269Y-120674072D01*
X74000424Y-120570271D01*
X73951574Y-120537348D01*
X73905259Y-120547744D01*
X73861873Y-120601906D01*
X73857437Y-120658595D01*
X73766904Y-120658595D01*
X73767573Y-120582979D01*
X73776551Y-120497753D01*
X73800694Y-120458478D01*
X73847511Y-120446625D01*
X73882792Y-120445162D01*
X73985084Y-120452249D01*
X74045514Y-120470390D01*
X74089474Y-120529113D01*
X74119333Y-120609052D01*
X74116310Y-120674072D01*
X74114550Y-120711922D01*
G37*
G36*
X73475726Y-120705615D02*
G01*
X73475726Y-120975387D01*
X73288962Y-120975387D01*
X73177580Y-120967143D01*
X73110767Y-120946287D01*
X73102197Y-120933883D01*
X73138262Y-120904743D01*
X73225158Y-120892383D01*
X73226707Y-120892380D01*
X73314129Y-120880358D01*
X73351207Y-120851393D01*
X73351217Y-120850877D01*
X73317601Y-120814056D01*
X73288962Y-120809374D01*
X73233938Y-120776152D01*
X73226707Y-120747119D01*
X73259929Y-120692095D01*
X73288962Y-120684864D01*
X73343985Y-120651642D01*
X73351217Y-120622609D01*
X73314095Y-120573184D01*
X73226707Y-120560354D01*
X73127858Y-120541793D01*
X73102197Y-120498099D01*
X73126639Y-120457066D01*
X73209747Y-120438375D01*
X73288962Y-120435844D01*
X73475726Y-120435844D01*
X73475726Y-120705615D01*
G37*
G36*
X73001052Y-120473932D02*
G01*
X73017354Y-120576472D01*
X73019190Y-120638522D01*
X73014633Y-120761873D01*
X72993909Y-120825901D01*
X72946446Y-120854104D01*
X72919389Y-120860278D01*
X72794957Y-120861108D01*
X72720189Y-120801536D01*
X72688962Y-120675240D01*
X72687164Y-120620547D01*
X72697687Y-120495918D01*
X72722512Y-120441792D01*
X72751529Y-120461403D01*
X72774625Y-120557986D01*
X72778041Y-120591481D01*
X72802735Y-120707844D01*
X72851867Y-120747102D01*
X72853177Y-120747119D01*
X72902839Y-120709461D01*
X72928036Y-120594753D01*
X72928313Y-120591481D01*
X72947823Y-120476929D01*
X72974972Y-120439248D01*
X73001052Y-120473932D01*
G37*
G36*
X72530575Y-120445443D02*
G01*
X72574584Y-120461608D01*
X72604587Y-120522687D01*
X72565919Y-120552886D01*
X72521193Y-120548339D01*
X72439110Y-120543346D01*
X72422738Y-120574860D01*
X72476350Y-120623567D01*
X72501701Y-120636402D01*
X72577787Y-120691351D01*
X72604158Y-120744167D01*
X72568485Y-120817600D01*
X72483192Y-120861661D01*
X72390747Y-120861361D01*
X72322047Y-120824618D01*
X72328746Y-120785669D01*
X72406978Y-120766948D01*
X72407017Y-120766947D01*
X72500400Y-120766025D01*
X72402645Y-120690840D01*
X72330211Y-120602589D01*
X72326023Y-120517796D01*
X72386809Y-120458023D01*
X72440053Y-120444315D01*
X72530575Y-120445443D01*
G37*
G36*
X72204070Y-120790295D02*
G01*
X72157998Y-120844512D01*
X72049905Y-120864495D01*
X71955060Y-120824323D01*
X71902064Y-120739165D01*
X71900689Y-120726367D01*
X72023112Y-120726367D01*
X72056728Y-120763188D01*
X72085367Y-120767870D01*
X72140598Y-120745460D01*
X72147622Y-120726367D01*
X72114006Y-120689546D01*
X72085367Y-120684864D01*
X72030136Y-120707274D01*
X72023112Y-120726367D01*
X71900689Y-120726367D01*
X71898602Y-120706953D01*
X71911392Y-120632424D01*
X71966580Y-120604711D01*
X72025561Y-120601857D01*
X72110396Y-120590311D01*
X72126203Y-120559290D01*
X72125827Y-120558666D01*
X72070157Y-120534858D01*
X72014709Y-120542269D01*
X71952545Y-120548878D01*
X71948822Y-120512830D01*
X72003566Y-120458467D01*
X72092390Y-120445831D01*
X72174915Y-120479965D01*
X72179234Y-120484058D01*
X72221943Y-120571049D01*
X72229498Y-120685419D01*
X72219570Y-120726367D01*
X72204070Y-120790295D01*
G37*
G36*
X71797768Y-120473171D02*
G01*
X71812795Y-120568610D01*
X71815596Y-120643360D01*
X71808130Y-120761737D01*
X71789043Y-120836873D01*
X71774092Y-120850877D01*
X71750417Y-120813550D01*
X71735390Y-120718111D01*
X71732589Y-120643360D01*
X71740055Y-120524984D01*
X71759142Y-120449848D01*
X71774092Y-120435844D01*
X71797768Y-120473171D01*
G37*
G36*
X71174909Y-120473932D02*
G01*
X71191211Y-120576472D01*
X71193047Y-120638522D01*
X71188489Y-120761873D01*
X71167765Y-120825901D01*
X71120302Y-120854104D01*
X71093245Y-120860278D01*
X70968813Y-120861108D01*
X70894045Y-120801536D01*
X70862818Y-120675240D01*
X70861021Y-120620547D01*
X70871543Y-120495918D01*
X70896368Y-120441792D01*
X70925385Y-120461403D01*
X70948482Y-120557986D01*
X70951898Y-120591481D01*
X70976591Y-120707844D01*
X71025723Y-120747102D01*
X71027034Y-120747119D01*
X71076695Y-120709461D01*
X71101892Y-120594753D01*
X71102170Y-120591481D01*
X71121679Y-120476929D01*
X71148828Y-120439248D01*
X71174909Y-120473932D01*
G37*
G36*
X70750866Y-120785205D02*
G01*
X70746251Y-120792775D01*
X70663774Y-120857565D01*
X70567090Y-120860651D01*
X70485013Y-120810537D01*
X70450694Y-120726367D01*
X70528994Y-120726367D01*
X70562610Y-120763188D01*
X70591249Y-120767870D01*
X70646481Y-120745460D01*
X70653504Y-120726367D01*
X70619888Y-120689546D01*
X70591249Y-120684864D01*
X70536018Y-120707274D01*
X70528994Y-120726367D01*
X70450694Y-120726367D01*
X70446356Y-120715727D01*
X70445988Y-120704155D01*
X70462954Y-120626792D01*
X70529959Y-120602421D01*
X70552195Y-120601857D01*
X70623354Y-120588546D01*
X70632334Y-120559677D01*
X70582595Y-120535735D01*
X70567630Y-120541375D01*
X70501120Y-120545129D01*
X70483060Y-120536864D01*
X70464117Y-120499396D01*
X70493436Y-120472795D01*
X70608859Y-120438179D01*
X70713394Y-120472597D01*
X70728210Y-120485648D01*
X70767113Y-120570114D01*
X70775588Y-120685685D01*
X70765482Y-120726367D01*
X70750866Y-120785205D01*
G37*
G36*
X70099837Y-120473131D02*
G01*
X70121540Y-120584898D01*
X70121832Y-120588273D01*
X70145109Y-120702597D01*
X70181447Y-120756428D01*
X70216850Y-120744936D01*
X70237320Y-120663292D01*
X70238472Y-120628517D01*
X70251632Y-120512113D01*
X70286040Y-120452483D01*
X70334082Y-120462360D01*
X70336441Y-120464641D01*
X70352750Y-120519163D01*
X70362108Y-120624469D01*
X70362981Y-120671029D01*
X70355809Y-120787789D01*
X70329091Y-120841956D01*
X70290351Y-120853326D01*
X70201515Y-120858043D01*
X70078304Y-120866420D01*
X70058849Y-120867880D01*
X69907909Y-120855912D01*
X69818931Y-120789656D01*
X69788103Y-120665459D01*
X69790114Y-120610279D01*
X69814388Y-120491681D01*
X69851358Y-120444397D01*
X69886629Y-120469895D01*
X69905808Y-120569646D01*
X69906445Y-120598399D01*
X69916310Y-120715130D01*
X69949169Y-120764194D01*
X69968700Y-120767870D01*
X70011988Y-120740457D01*
X70029825Y-120649585D01*
X70030955Y-120601857D01*
X70042593Y-120483397D01*
X70069537Y-120439893D01*
X70099837Y-120473131D01*
G37*
G36*
X69714830Y-120735318D02*
G01*
X69658367Y-120808432D01*
X69558537Y-120863499D01*
X69461517Y-120848703D01*
X69390389Y-120774676D01*
X69379371Y-120726367D01*
X69491413Y-120726367D01*
X69525029Y-120763188D01*
X69553668Y-120767870D01*
X69608899Y-120745460D01*
X69615922Y-120726367D01*
X69582307Y-120689546D01*
X69553668Y-120684864D01*
X69498436Y-120707274D01*
X69491413Y-120726367D01*
X69379371Y-120726367D01*
X69367538Y-120674488D01*
X69391783Y-120620400D01*
X69476662Y-120602096D01*
X69493862Y-120601857D01*
X69574617Y-120591540D01*
X69598736Y-120566482D01*
X69597579Y-120564250D01*
X69544158Y-120543503D01*
X69485815Y-120549792D01*
X69420925Y-120553598D01*
X69416476Y-120514768D01*
X69471627Y-120457015D01*
X69560961Y-120449365D01*
X69652019Y-120492439D01*
X69670091Y-120509916D01*
X69733783Y-120623616D01*
X69716349Y-120726367D01*
X69714830Y-120735318D01*
G37*
G36*
X69266307Y-120473120D02*
G01*
X69281306Y-120568212D01*
X69283896Y-120638522D01*
X69279601Y-120761443D01*
X69259169Y-120825282D01*
X69211282Y-120853824D01*
X69177795Y-120861483D01*
X69059721Y-120851915D01*
X68983752Y-120772436D01*
X68952536Y-120626166D01*
X68951870Y-120595434D01*
X68965829Y-120482536D01*
X68998466Y-120443624D01*
X69035923Y-120476323D01*
X69064342Y-120578253D01*
X69068510Y-120615441D01*
X69094679Y-120732442D01*
X69136120Y-120774335D01*
X69176556Y-120742792D01*
X69199709Y-120639482D01*
X69200890Y-120601857D01*
X69210095Y-120497899D01*
X69233090Y-120440077D01*
X69242393Y-120435844D01*
X69266307Y-120473120D01*
G37*
G36*
X68789209Y-120461270D02*
G01*
X68815917Y-120486341D01*
X68858860Y-120584793D01*
X68881482Y-120723358D01*
X68879177Y-120860643D01*
X68864553Y-120923508D01*
X68817549Y-120999341D01*
X68770903Y-121010918D01*
X68745179Y-120955873D01*
X68744354Y-120937342D01*
X68720427Y-120859248D01*
X68692475Y-120833584D01*
X68661953Y-120806327D01*
X68692475Y-120785163D01*
X68729616Y-120730341D01*
X68744354Y-120637452D01*
X68732068Y-120551788D01*
X68697466Y-120542930D01*
X68665389Y-120542659D01*
X68668933Y-120516846D01*
X68720013Y-120453199D01*
X68789209Y-120461270D01*
G37*
G36*
X85302628Y-120849711D02*
G01*
X85304158Y-120913793D01*
X85299177Y-121047436D01*
X85279127Y-121120852D01*
X85236342Y-121156490D01*
X85219160Y-121162783D01*
X85119773Y-121160649D01*
X85040458Y-121105849D01*
X85013635Y-121032560D01*
X85042330Y-120984302D01*
X85101459Y-120980804D01*
X85150583Y-121023612D01*
X85152161Y-121027266D01*
X85170432Y-121041824D01*
X85176371Y-121006514D01*
X85146764Y-120945417D01*
X85096641Y-120933883D01*
X85035883Y-120914317D01*
X85014491Y-120841514D01*
X85014210Y-120830959D01*
X85147012Y-120830959D01*
X85151979Y-120837042D01*
X85176653Y-120831345D01*
X85179648Y-120809374D01*
X85164463Y-120775212D01*
X85151979Y-120781705D01*
X85147012Y-120830959D01*
X85014210Y-120830959D01*
X85013635Y-120809374D01*
X85024678Y-120721937D01*
X85051283Y-120684873D01*
X85051744Y-120684864D01*
X85124177Y-120673306D01*
X85145126Y-120667400D01*
X85232252Y-120664980D01*
X85252279Y-120670859D01*
X85285687Y-120725995D01*
X85297104Y-120809374D01*
X85302628Y-120849711D01*
G37*
G36*
X82431069Y-120654816D02*
G01*
X82473635Y-120693164D01*
X82503170Y-120757590D01*
X82520039Y-120862002D01*
X82524353Y-120980820D01*
X82516223Y-121088460D01*
X82495759Y-121159342D01*
X82471560Y-121172741D01*
X82438130Y-121124878D01*
X82410754Y-121021945D01*
X82401428Y-120951391D01*
X82383175Y-120747119D01*
X82359924Y-120951417D01*
X82332244Y-121099260D01*
X82297267Y-121169909D01*
X82263502Y-121162819D01*
X82239456Y-121077444D01*
X82232916Y-120959554D01*
X82238951Y-120817535D01*
X82261520Y-120735148D01*
X82307320Y-120689601D01*
X82313194Y-120686324D01*
X82388235Y-120650111D01*
X82431069Y-120654816D01*
G37*
G36*
X79650350Y-120654816D02*
G01*
X79692916Y-120693164D01*
X79739741Y-120763350D01*
X79719794Y-120800689D01*
X79659713Y-120797348D01*
X79591206Y-120789706D01*
X79587548Y-120822779D01*
X79648951Y-120901435D01*
X79664964Y-120918721D01*
X79716710Y-121012212D01*
X79712577Y-121100043D01*
X79666169Y-121162197D01*
X79591093Y-121178656D01*
X79513923Y-121140961D01*
X79458471Y-121074716D01*
X79466623Y-121034420D01*
X79534789Y-121037510D01*
X79535204Y-121037641D01*
X79601024Y-121045063D01*
X79618210Y-121029670D01*
X79587009Y-120983421D01*
X79535204Y-120943515D01*
X79465528Y-120862815D01*
X79461467Y-120768752D01*
X79523341Y-120691579D01*
X79532475Y-120686324D01*
X79607516Y-120650111D01*
X79650350Y-120654816D01*
G37*
G36*
X78923580Y-120662840D02*
G01*
X78943782Y-120670847D01*
X78977141Y-120726142D01*
X78994070Y-120850953D01*
X78995661Y-120917893D01*
X78979738Y-121082411D01*
X78932095Y-121170584D01*
X78852916Y-121182197D01*
X78792879Y-121153932D01*
X78731545Y-121090998D01*
X78712567Y-121023338D01*
X78740536Y-120979695D01*
X78764350Y-120975387D01*
X78821507Y-120996883D01*
X78829648Y-121016890D01*
X78861231Y-121057187D01*
X78871151Y-121058393D01*
X78898584Y-121021908D01*
X78912296Y-120932195D01*
X78912655Y-120913132D01*
X78902230Y-120817118D01*
X78876598Y-120769125D01*
X78871151Y-120767870D01*
X78830854Y-120799453D01*
X78829648Y-120809374D01*
X78796032Y-120846194D01*
X78767393Y-120850877D01*
X78713886Y-120824764D01*
X78712541Y-120765720D01*
X78760188Y-120702690D01*
X78785416Y-120686324D01*
X78854468Y-120653442D01*
X78878799Y-120646637D01*
X78923580Y-120662840D01*
G37*
G36*
X77543047Y-120939387D02*
G01*
X77535618Y-121067162D01*
X77508249Y-121134680D01*
X77465887Y-121160296D01*
X77353286Y-121172831D01*
X77284460Y-121120737D01*
X77254634Y-120999031D01*
X77253340Y-120961441D01*
X77382380Y-120961441D01*
X77389247Y-121027266D01*
X77399510Y-121046934D01*
X77406022Y-120994789D01*
X77407233Y-120933883D01*
X77403995Y-120844118D01*
X77395717Y-120819476D01*
X77389247Y-120840501D01*
X77382380Y-120961441D01*
X77253340Y-120961441D01*
X77252524Y-120937744D01*
X77271129Y-120770929D01*
X77325161Y-120671251D01*
X77397785Y-120643360D01*
X77464773Y-120669978D01*
X77493243Y-120693164D01*
X77523032Y-120762226D01*
X77540828Y-120879311D01*
X77542844Y-120933883D01*
X77543047Y-120939387D01*
G37*
G36*
X76837491Y-120939387D02*
G01*
X76830880Y-121064819D01*
X76805040Y-121131552D01*
X76752493Y-121162783D01*
X76648037Y-121163253D01*
X76578387Y-121091776D01*
X76549677Y-120961441D01*
X76676825Y-120961441D01*
X76683691Y-121027266D01*
X76693955Y-121046934D01*
X76700467Y-120994789D01*
X76701677Y-120933883D01*
X76698440Y-120844118D01*
X76690162Y-120819476D01*
X76683691Y-120840501D01*
X76676825Y-120961441D01*
X76549677Y-120961441D01*
X76547961Y-120953651D01*
X76546968Y-120916350D01*
X76566969Y-120761699D01*
X76623538Y-120667973D01*
X76692230Y-120643360D01*
X76759218Y-120669978D01*
X76787687Y-120693164D01*
X76817477Y-120762226D01*
X76835273Y-120879311D01*
X76837288Y-120933883D01*
X76837491Y-120939387D01*
G37*
G36*
X84596326Y-121071949D02*
G01*
X84584217Y-121146497D01*
X84554357Y-121176992D01*
X84498825Y-121182902D01*
X84497293Y-121182903D01*
X84407570Y-121165939D01*
X84355123Y-121105340D01*
X84337740Y-121016890D01*
X84432589Y-121016890D01*
X84464172Y-121057187D01*
X84474092Y-121058393D01*
X84514390Y-121026810D01*
X84515596Y-121016890D01*
X84484013Y-120976593D01*
X84474092Y-120975387D01*
X84433795Y-121006970D01*
X84432589Y-121016890D01*
X84337740Y-121016890D01*
X84331776Y-120986544D01*
X84328336Y-120882004D01*
X84339789Y-120750074D01*
X84371496Y-120689707D01*
X84418225Y-120704878D01*
X84464941Y-120778246D01*
X84509978Y-120871628D01*
X84512787Y-120778246D01*
X84530649Y-120705296D01*
X84557099Y-120684864D01*
X84579206Y-120722667D01*
X84594194Y-120821424D01*
X84598602Y-120933883D01*
X84597234Y-121016890D01*
X84596326Y-121071949D01*
G37*
G36*
X83875249Y-120923257D02*
G01*
X83830902Y-121086000D01*
X83781363Y-121169673D01*
X83730502Y-121173384D01*
X83682189Y-121096240D01*
X83647957Y-120975630D01*
X83635465Y-120913966D01*
X83735901Y-120913966D01*
X83740868Y-120920049D01*
X83765542Y-120914352D01*
X83768537Y-120892380D01*
X83753351Y-120858218D01*
X83740868Y-120864711D01*
X83735901Y-120913966D01*
X83635465Y-120913966D01*
X83622060Y-120847791D01*
X83605608Y-120752958D01*
X83602524Y-120724324D01*
X83631414Y-120688768D01*
X83691199Y-120692310D01*
X83741551Y-120731418D01*
X83744327Y-120736743D01*
X83771583Y-120767265D01*
X83792747Y-120736743D01*
X83848312Y-120688673D01*
X83869980Y-120684864D01*
X83897330Y-120700923D01*
X83901890Y-120759967D01*
X83884020Y-120878291D01*
X83881272Y-120892380D01*
X83875249Y-120923257D01*
G37*
G36*
X83228994Y-120931254D02*
G01*
X83226684Y-121070293D01*
X83214696Y-121145690D01*
X83185451Y-121176781D01*
X83131363Y-121182902D01*
X83130318Y-121182903D01*
X83019490Y-121153571D01*
X82958561Y-121062847D01*
X82946071Y-120918933D01*
X83068238Y-120918933D01*
X83075131Y-120985279D01*
X83086064Y-121008281D01*
X83092942Y-120958396D01*
X83094018Y-120913132D01*
X83090677Y-120827714D01*
X83081272Y-120805668D01*
X83075969Y-120819265D01*
X83068238Y-120918933D01*
X82946071Y-120918933D01*
X82945004Y-120906640D01*
X82946311Y-120885072D01*
X82959346Y-120772335D01*
X82989510Y-120717854D01*
X83055794Y-120696899D01*
X83094109Y-120692610D01*
X83228994Y-120679605D01*
X83228994Y-120913132D01*
X83228994Y-120931254D01*
G37*
G36*
X81841588Y-120923257D02*
G01*
X81797833Y-121085166D01*
X81749447Y-121166975D01*
X81699520Y-121167986D01*
X81651141Y-121087502D01*
X81617864Y-120973820D01*
X81604789Y-120913966D01*
X81702241Y-120913966D01*
X81707208Y-120920049D01*
X81731882Y-120914352D01*
X81734877Y-120892380D01*
X81719691Y-120858218D01*
X81707208Y-120864711D01*
X81702241Y-120913966D01*
X81604789Y-120913966D01*
X81590018Y-120846344D01*
X81572266Y-120751938D01*
X81568864Y-120723201D01*
X81597759Y-120688449D01*
X81657531Y-120692428D01*
X81707806Y-120731282D01*
X81710666Y-120736743D01*
X81737923Y-120767265D01*
X81759087Y-120736743D01*
X81814652Y-120688673D01*
X81836320Y-120684864D01*
X81863670Y-120700923D01*
X81868230Y-120759967D01*
X81850360Y-120878291D01*
X81847612Y-120892380D01*
X81841588Y-120923257D01*
G37*
G36*
X81132609Y-120709306D02*
G01*
X81151300Y-120792414D01*
X81153831Y-120871628D01*
X81162074Y-120983010D01*
X81182931Y-121049823D01*
X81195334Y-121058393D01*
X81232155Y-121092009D01*
X81236838Y-121120648D01*
X81199836Y-121170143D01*
X81114777Y-121182903D01*
X81015063Y-121168306D01*
X80962653Y-121133018D01*
X80973301Y-121089794D01*
X80987141Y-121079563D01*
X81012774Y-121025531D01*
X81027737Y-120920114D01*
X81029321Y-120869179D01*
X81037680Y-120746970D01*
X81066030Y-120691850D01*
X81091576Y-120684864D01*
X81132609Y-120709306D01*
G37*
G36*
X80572785Y-120933883D02*
G01*
X80572785Y-121182903D01*
X80448275Y-121182903D01*
X80349426Y-121164342D01*
X80323766Y-121120648D01*
X80358367Y-121069948D01*
X80406772Y-121058393D01*
X80474214Y-121041013D01*
X80489779Y-121016890D01*
X80456163Y-120980069D01*
X80427524Y-120975387D01*
X80372259Y-120955335D01*
X80365269Y-120938324D01*
X80398298Y-120892953D01*
X80427524Y-120877371D01*
X80485071Y-120830918D01*
X80470768Y-120784676D01*
X80406772Y-120767870D01*
X80339331Y-120750490D01*
X80323766Y-120726367D01*
X80359831Y-120697226D01*
X80446726Y-120684867D01*
X80448275Y-120684864D01*
X80572785Y-120684864D01*
X80572785Y-120933883D01*
G37*
G36*
X78263999Y-120703988D02*
G01*
X78283407Y-120771782D01*
X78289983Y-120903879D01*
X78290105Y-120933883D01*
X78285324Y-121078478D01*
X78268376Y-121156110D01*
X78235352Y-121182412D01*
X78227851Y-121182903D01*
X78177780Y-121146824D01*
X78165596Y-121079145D01*
X78151389Y-121001147D01*
X78124092Y-120975387D01*
X78092893Y-121010904D01*
X78082589Y-121079145D01*
X78068382Y-121157142D01*
X78041086Y-121182903D01*
X78018979Y-121145099D01*
X78003991Y-121046343D01*
X77999583Y-120933883D01*
X78005883Y-120801241D01*
X78022343Y-120711315D01*
X78041086Y-120684864D01*
X78075141Y-120719515D01*
X78082589Y-120765421D01*
X78101647Y-120844873D01*
X78124092Y-120871628D01*
X78154868Y-120856935D01*
X78165596Y-120791071D01*
X78186820Y-120705789D01*
X78227851Y-120684864D01*
X78263999Y-120703988D01*
G37*
G36*
X76048929Y-120933883D02*
G01*
X76042628Y-121066525D01*
X76026169Y-121156452D01*
X76007426Y-121182903D01*
X75983750Y-121145576D01*
X75968723Y-121050137D01*
X75965922Y-120975387D01*
X75961552Y-120850917D01*
X75943003Y-120788840D01*
X75902115Y-120768758D01*
X75882916Y-120767870D01*
X75815475Y-120750490D01*
X75799909Y-120726367D01*
X75835974Y-120697226D01*
X75922870Y-120684867D01*
X75924419Y-120684864D01*
X76048929Y-120684864D01*
X76048929Y-120933883D01*
G37*
G36*
X73679273Y-120793562D02*
G01*
X73681923Y-120861253D01*
X73663114Y-120952666D01*
X73620988Y-120975387D01*
X73565417Y-120955435D01*
X73576691Y-120892876D01*
X73619668Y-120827682D01*
X73663420Y-120776362D01*
X73679273Y-120793562D01*
G37*
G36*
X71808824Y-120920369D02*
G01*
X71815596Y-120954635D01*
X71794537Y-121006289D01*
X71770980Y-121008935D01*
X71728100Y-120966088D01*
X71726364Y-120954635D01*
X71758675Y-120905971D01*
X71770980Y-120900335D01*
X71808824Y-120920369D01*
G37*
G36*
X74098275Y-121618687D02*
G01*
X74094119Y-121770006D01*
X74079268Y-121854110D01*
X74050149Y-121886483D01*
X74036021Y-121888458D01*
X73998477Y-121867965D01*
X73979148Y-121796055D01*
X73973766Y-121660191D01*
X73971675Y-121529693D01*
X73957973Y-121461770D01*
X73921516Y-121435991D01*
X73851160Y-121431923D01*
X73849256Y-121431923D01*
X73761833Y-121419901D01*
X73724756Y-121390936D01*
X73724746Y-121390419D01*
X73761841Y-121365668D01*
X73855696Y-121350820D01*
X73911511Y-121348916D01*
X74098275Y-121348916D01*
X74098275Y-121618687D01*
G37*
G36*
X73656254Y-121541376D02*
G01*
X73589860Y-121594400D01*
X73505700Y-121615000D01*
X73465351Y-121611365D01*
X73436216Y-121624420D01*
X73434223Y-121639598D01*
X73467551Y-121672309D01*
X73510868Y-121673175D01*
X73577266Y-121680800D01*
X73593875Y-121701694D01*
X73563061Y-121731675D01*
X73486102Y-121743197D01*
X73416674Y-121736463D01*
X73380871Y-121701722D01*
X73364668Y-121617169D01*
X73359318Y-121546057D01*
X73354658Y-121473426D01*
X73454975Y-121473426D01*
X73468010Y-121505793D01*
X73517230Y-121514929D01*
X73576143Y-121499330D01*
X73579485Y-121473426D01*
X73528333Y-121433540D01*
X73517230Y-121431923D01*
X73463482Y-121461970D01*
X73454975Y-121473426D01*
X73354658Y-121473426D01*
X73346669Y-121348916D01*
X73487287Y-121348916D01*
X73590636Y-121356390D01*
X73653206Y-121374584D01*
X73655574Y-121376585D01*
X73684890Y-121455151D01*
X73678821Y-121473426D01*
X73656254Y-121541376D01*
G37*
G36*
X73259815Y-121605017D02*
G01*
X73244075Y-121761413D01*
X73216564Y-121856303D01*
X73195579Y-121878247D01*
X73151062Y-121860870D01*
X73143700Y-121829662D01*
X73109679Y-121774621D01*
X73068994Y-121763949D01*
X72963528Y-121728434D01*
X72903845Y-121630972D01*
X72897435Y-121578837D01*
X72995387Y-121578837D01*
X73022500Y-121648388D01*
X73072112Y-121670251D01*
X73076183Y-121669120D01*
X73118767Y-121623051D01*
X73136879Y-121544281D01*
X73128636Y-121468675D01*
X73092153Y-121432095D01*
X73088642Y-121431923D01*
X73022085Y-121465449D01*
X73004182Y-121494177D01*
X72995387Y-121578837D01*
X72897435Y-121578837D01*
X72894681Y-121556432D01*
X72921825Y-121433924D01*
X73007240Y-121366615D01*
X73133230Y-121348916D01*
X73272171Y-121348916D01*
X73262745Y-121544281D01*
X73259815Y-121605017D01*
G37*
G36*
X72842497Y-121574745D02*
G01*
X72810233Y-121682931D01*
X72734124Y-121751898D01*
X72675603Y-121763949D01*
X72555527Y-121731765D01*
X72490413Y-121638476D01*
X72479648Y-121556432D01*
X72483010Y-121543041D01*
X72572944Y-121543041D01*
X72594635Y-121624430D01*
X72635063Y-121676939D01*
X72649760Y-121680942D01*
X72699180Y-121646241D01*
X72723089Y-121567446D01*
X72713659Y-121494177D01*
X72663189Y-121437018D01*
X72601777Y-121451068D01*
X72583177Y-121473797D01*
X72572944Y-121543041D01*
X72483010Y-121543041D01*
X72509058Y-121439293D01*
X72581912Y-121366211D01*
X72675144Y-121344233D01*
X72765689Y-121380408D01*
X72819226Y-121452674D01*
X72841106Y-121567446D01*
X72842497Y-121574745D01*
G37*
G36*
X72378813Y-121386243D02*
G01*
X72393841Y-121481682D01*
X72396641Y-121556432D01*
X72393921Y-121679277D01*
X72377196Y-121740535D01*
X72333618Y-121761619D01*
X72272132Y-121763949D01*
X72177772Y-121749850D01*
X72150109Y-121717175D01*
X72195444Y-121680352D01*
X72230628Y-121668917D01*
X72289624Y-121631216D01*
X72312223Y-121544887D01*
X72313635Y-121498063D01*
X72323807Y-121400517D01*
X72348899Y-121350610D01*
X72355138Y-121348916D01*
X72378813Y-121386243D01*
G37*
G36*
X72134250Y-121491063D02*
G01*
X72099444Y-121562687D01*
X72012924Y-121602936D01*
X71929730Y-121602850D01*
X71899901Y-121629665D01*
X71898602Y-121642048D01*
X71931989Y-121672754D01*
X71975247Y-121673175D01*
X72042481Y-121680858D01*
X72059898Y-121701694D01*
X72035178Y-121741164D01*
X71964099Y-121756557D01*
X71880543Y-121745044D01*
X71834063Y-121720550D01*
X71794341Y-121647789D01*
X71774637Y-121532368D01*
X71774092Y-121509847D01*
X71775813Y-121473426D01*
X71898602Y-121473426D01*
X71932218Y-121510247D01*
X71960857Y-121514929D01*
X72016088Y-121492518D01*
X72023112Y-121473426D01*
X71989496Y-121436605D01*
X71960857Y-121431923D01*
X71905626Y-121454333D01*
X71898602Y-121473426D01*
X71775813Y-121473426D01*
X71779016Y-121405671D01*
X71807874Y-121360190D01*
X71881804Y-121349143D01*
X71914272Y-121348916D01*
X72024251Y-121364785D01*
X72099390Y-121403247D01*
X72101753Y-121405910D01*
X72127519Y-121473426D01*
X72134250Y-121491063D01*
G37*
G36*
X71647984Y-121374421D02*
G01*
X71668556Y-121400795D01*
X71696899Y-121535537D01*
X71705952Y-121677420D01*
X71694287Y-121789627D01*
X71684656Y-121815828D01*
X71631819Y-121877635D01*
X71584379Y-121880079D01*
X71566576Y-121829662D01*
X71534836Y-121760691D01*
X71514697Y-121746656D01*
X71484175Y-121719399D01*
X71514697Y-121698235D01*
X71549261Y-121648788D01*
X71564971Y-121564667D01*
X71560450Y-121481265D01*
X71534318Y-121433971D01*
X71525073Y-121431923D01*
X71484776Y-121400340D01*
X71483570Y-121390419D01*
X71515168Y-121355925D01*
X71583303Y-121351340D01*
X71647984Y-121374421D01*
G37*
G36*
X71431386Y-121574745D02*
G01*
X71399122Y-121682931D01*
X71323013Y-121751898D01*
X71264492Y-121763949D01*
X71144416Y-121731765D01*
X71079302Y-121638476D01*
X71071606Y-121579822D01*
X71170051Y-121579822D01*
X71197698Y-121654569D01*
X71240293Y-121680942D01*
X71288392Y-121646248D01*
X71311847Y-121567692D01*
X71302548Y-121494177D01*
X71261092Y-121439240D01*
X71240293Y-121431923D01*
X71193750Y-121464983D01*
X71178038Y-121494177D01*
X71170051Y-121579822D01*
X71071606Y-121579822D01*
X71068537Y-121556432D01*
X71097947Y-121439293D01*
X71170801Y-121366211D01*
X71264033Y-121344233D01*
X71354578Y-121380408D01*
X71408115Y-121452674D01*
X71430041Y-121567692D01*
X71431386Y-121574745D01*
G37*
G36*
X70967702Y-121386243D02*
G01*
X70982730Y-121481682D01*
X70985530Y-121556432D01*
X70978065Y-121674809D01*
X70958977Y-121749945D01*
X70944027Y-121763949D01*
X70920352Y-121726622D01*
X70905325Y-121631183D01*
X70902524Y-121556432D01*
X70909989Y-121438056D01*
X70929077Y-121362920D01*
X70944027Y-121348916D01*
X70967702Y-121386243D01*
G37*
G36*
X70760186Y-121386243D02*
G01*
X70775213Y-121481682D01*
X70778014Y-121556432D01*
X70775294Y-121679277D01*
X70758568Y-121740535D01*
X70714990Y-121761619D01*
X70653504Y-121763949D01*
X70559145Y-121749850D01*
X70531482Y-121717175D01*
X70576817Y-121680352D01*
X70612001Y-121668917D01*
X70670996Y-121631216D01*
X70693595Y-121544887D01*
X70695007Y-121498063D01*
X70705179Y-121400517D01*
X70730272Y-121350610D01*
X70736511Y-121348916D01*
X70760186Y-121386243D01*
G37*
G36*
X70495043Y-121660191D02*
G01*
X70422637Y-121741359D01*
X70325860Y-121764117D01*
X70231925Y-121734119D01*
X70168046Y-121657018D01*
X70164764Y-121639439D01*
X70279975Y-121639439D01*
X70309763Y-121679754D01*
X70319029Y-121680942D01*
X70375238Y-121650774D01*
X70383733Y-121639439D01*
X70374324Y-121603908D01*
X70344679Y-121597936D01*
X70287894Y-121619604D01*
X70279975Y-121639439D01*
X70164764Y-121639439D01*
X70155465Y-121589635D01*
X70179039Y-121534273D01*
X70261465Y-121515283D01*
X70282424Y-121514929D01*
X70366644Y-121503483D01*
X70383584Y-121473219D01*
X70383053Y-121472325D01*
X70324427Y-121439791D01*
X70306746Y-121441198D01*
X70253472Y-121425357D01*
X70246330Y-121411171D01*
X70273503Y-121375916D01*
X70340589Y-121356569D01*
X70431792Y-121368660D01*
X70491822Y-121445665D01*
X70493802Y-121449951D01*
X70521229Y-121565671D01*
X70500792Y-121639439D01*
X70495043Y-121660191D01*
G37*
G36*
X82272095Y-122102289D02*
G01*
X82206739Y-122232043D01*
X82102328Y-122327628D01*
X81972136Y-122378107D01*
X81829434Y-122372544D01*
X81687494Y-122300000D01*
X81648678Y-122265180D01*
X81557445Y-122127906D01*
X81534240Y-122018696D01*
X81693373Y-122018696D01*
X81725636Y-122130184D01*
X81806666Y-122196958D01*
X81912824Y-122214900D01*
X82020474Y-122179887D01*
X82104550Y-122090381D01*
X82142358Y-122003691D01*
X82130400Y-121933048D01*
X82094605Y-121872489D01*
X82029470Y-121807137D01*
X81950713Y-121767576D01*
X81885118Y-121762385D01*
X81859387Y-121797151D01*
X81884805Y-121852446D01*
X81911266Y-121884985D01*
X81932784Y-121920140D01*
X81893424Y-121928190D01*
X81828259Y-121921226D01*
X81736009Y-121915504D01*
X81699518Y-121945631D01*
X81693373Y-122018696D01*
X81534240Y-122018696D01*
X81524478Y-121972752D01*
X81554889Y-121828745D01*
X81567737Y-121805854D01*
X81577983Y-121717535D01*
X81545393Y-121650216D01*
X81507585Y-121582546D01*
X81529017Y-121559031D01*
X81588659Y-121556432D01*
X81667118Y-121570171D01*
X81693373Y-121596898D01*
X81728532Y-121618420D01*
X81815411Y-121612950D01*
X81817635Y-121612511D01*
X81976965Y-121614223D01*
X82124035Y-121672691D01*
X82227422Y-121774926D01*
X82232555Y-121784027D01*
X82285125Y-121949305D01*
X82280493Y-122003691D01*
X82272095Y-122102289D01*
G37*
G36*
X85307440Y-121928629D02*
G01*
X85268348Y-122048303D01*
X85184067Y-122136622D01*
X85062904Y-122173240D01*
X85015272Y-122170369D01*
X84927186Y-122165416D01*
X84893822Y-122200506D01*
X84889125Y-122269176D01*
X84874242Y-122357049D01*
X84820058Y-122385985D01*
X84806119Y-122386498D01*
X84766681Y-122380256D01*
X84742176Y-122351000D01*
X84729091Y-122282929D01*
X84723916Y-122160247D01*
X84723112Y-122012968D01*
X84724563Y-121848947D01*
X84909245Y-121848947D01*
X84911296Y-121947838D01*
X84965317Y-122027268D01*
X85038008Y-122054472D01*
X85108291Y-122019584D01*
X85151588Y-121939894D01*
X85152014Y-121852859D01*
X85135943Y-121823551D01*
X85052322Y-121769779D01*
X84966260Y-121779190D01*
X84909474Y-121848232D01*
X84909245Y-121848947D01*
X84724563Y-121848947D01*
X84724686Y-121834992D01*
X84731583Y-121724345D01*
X84747063Y-121665379D01*
X84774386Y-121642442D01*
X84800931Y-121639439D01*
X84898576Y-121631339D01*
X85004124Y-121614364D01*
X85122082Y-121613946D01*
X85216828Y-121676619D01*
X85293035Y-121797952D01*
X85299088Y-121852859D01*
X85307440Y-121928629D01*
G37*
G36*
X84420814Y-122010790D02*
G01*
X84390068Y-122139937D01*
X84290897Y-122288257D01*
X84154462Y-122371554D01*
X83999198Y-122386131D01*
X83843540Y-122328291D01*
X83765344Y-122265180D01*
X83672394Y-122127579D01*
X83646682Y-121983784D01*
X83657540Y-121934354D01*
X83824833Y-121934354D01*
X83825901Y-122049137D01*
X83879284Y-122150651D01*
X83975127Y-122212558D01*
X84031097Y-122220485D01*
X84141292Y-122186478D01*
X84229923Y-122103494D01*
X84266574Y-122000087D01*
X84266576Y-121999428D01*
X84232351Y-121877362D01*
X84145989Y-121797982D01*
X84031958Y-121772010D01*
X83914726Y-121810166D01*
X83885939Y-121832636D01*
X83824833Y-121934354D01*
X83657540Y-121934354D01*
X83676888Y-121846277D01*
X83751692Y-121727539D01*
X83859774Y-121640053D01*
X83989814Y-121596302D01*
X84130491Y-121608767D01*
X84270484Y-121689930D01*
X84279589Y-121698156D01*
X84390228Y-121846973D01*
X84418693Y-121999428D01*
X84420814Y-122010790D01*
G37*
G36*
X81228639Y-121610312D02*
G01*
X81334163Y-121673834D01*
X81372835Y-121742486D01*
X81394625Y-121853986D01*
X81402631Y-122026254D01*
X81402851Y-122071159D01*
X81400803Y-122233427D01*
X81392176Y-122328517D01*
X81373245Y-122372205D01*
X81340282Y-122380270D01*
X81330220Y-122378725D01*
X81290973Y-122357131D01*
X81266478Y-122299295D01*
X81252108Y-122188062D01*
X81245395Y-122064407D01*
X81236521Y-121907752D01*
X81222258Y-121816918D01*
X81197370Y-121774719D01*
X81156619Y-121763969D01*
X81153831Y-121763949D01*
X81112062Y-121773475D01*
X81086442Y-121813511D01*
X81071734Y-121901243D01*
X81062701Y-122053855D01*
X81062267Y-122064407D01*
X81052338Y-122225035D01*
X81035640Y-122319838D01*
X81007541Y-122365973D01*
X80977442Y-122378725D01*
X80941011Y-122376747D01*
X80919190Y-122343232D01*
X80908369Y-122262539D01*
X80904939Y-122119024D01*
X80904811Y-122063947D01*
X80908620Y-121887004D01*
X80922580Y-121772925D01*
X80950493Y-121701808D01*
X80980710Y-121666623D01*
X81098853Y-121606965D01*
X81228639Y-121610312D01*
G37*
G36*
X78156186Y-121598515D02*
G01*
X78522346Y-121600175D01*
X78854560Y-121602796D01*
X79144506Y-121606262D01*
X79383863Y-121610454D01*
X79564312Y-121615254D01*
X79677532Y-121620544D01*
X79715051Y-121625604D01*
X79736889Y-121684992D01*
X79742720Y-121750114D01*
X79742720Y-121846955D01*
X77792066Y-121846955D01*
X75841413Y-121846955D01*
X75841413Y-121722445D01*
X75841413Y-121597936D01*
X77764397Y-121597936D01*
X78156186Y-121598515D01*
G37*
G36*
X83519517Y-122397107D02*
G01*
X83343128Y-122368926D01*
X83202389Y-122338016D01*
X83126434Y-122292428D01*
X83097041Y-122216980D01*
X83094109Y-122161470D01*
X83097267Y-122147854D01*
X83239351Y-122147854D01*
X83284009Y-122199533D01*
X83346766Y-122212254D01*
X83390817Y-122182844D01*
X83395007Y-122161273D01*
X83360096Y-122107392D01*
X83308542Y-122095975D01*
X83245289Y-122115803D01*
X83239351Y-122147854D01*
X83097267Y-122147854D01*
X83125070Y-122027958D01*
X83210400Y-121947618D01*
X83296331Y-121929962D01*
X83363256Y-121918139D01*
X83390613Y-121866616D01*
X83395007Y-121784700D01*
X83408507Y-121677263D01*
X83451592Y-121639701D01*
X83457262Y-121639439D01*
X83487451Y-121653876D01*
X83506335Y-121706599D01*
X83516232Y-121811722D01*
X83519464Y-121983361D01*
X83519517Y-122018273D01*
X83519517Y-122161273D01*
X83519517Y-122397107D01*
G37*
G36*
X82857584Y-121647277D02*
G01*
X82882575Y-121682624D01*
X82894005Y-121763227D01*
X82896945Y-121906836D01*
X82896968Y-121929962D01*
X82900629Y-122087808D01*
X82913794Y-122178148D01*
X82939733Y-122216249D01*
X82959223Y-122220485D01*
X83009872Y-122255308D01*
X83021478Y-122305765D01*
X83012088Y-122356945D01*
X82969822Y-122379482D01*
X82873537Y-122381181D01*
X82824711Y-122378396D01*
X82695029Y-122361489D01*
X82630056Y-122327579D01*
X82614151Y-122293115D01*
X82630245Y-122231334D01*
X82665657Y-122220485D01*
X82700806Y-122205583D01*
X82720945Y-122150181D01*
X82729682Y-122038232D01*
X82730955Y-121929962D01*
X82733195Y-121777283D01*
X82743294Y-121689816D01*
X82766323Y-121649811D01*
X82807354Y-121639520D01*
X82813962Y-121639439D01*
X82857584Y-121647277D01*
G37*
G36*
X82523974Y-121644898D02*
G01*
X82548089Y-121671993D01*
X82559116Y-121736803D01*
X82560274Y-121855405D01*
X82556182Y-122002125D01*
X82547925Y-122180325D01*
X82535119Y-122291454D01*
X82514184Y-122351442D01*
X82481542Y-122376220D01*
X82471560Y-122378698D01*
X82437073Y-122377106D01*
X82415544Y-122346411D01*
X82404008Y-122271805D01*
X82399498Y-122138474D01*
X82398929Y-122016011D01*
X82400242Y-121837800D01*
X82406545Y-121726813D01*
X82421381Y-121667280D01*
X82448294Y-121643432D01*
X82483551Y-121639439D01*
X82523974Y-121644898D01*
G37*
G36*
X80738798Y-122015242D02*
G01*
X80738798Y-122391046D01*
X80542031Y-122378396D01*
X80412349Y-122361489D01*
X80347376Y-122327579D01*
X80331472Y-122293115D01*
X80338628Y-122243665D01*
X80398062Y-122223121D01*
X80465984Y-122220485D01*
X80574621Y-122207550D01*
X80613786Y-122165993D01*
X80614288Y-122158230D01*
X80583476Y-122112626D01*
X80484478Y-122096186D01*
X80465984Y-122095975D01*
X80366541Y-122087866D01*
X80330471Y-122056836D01*
X80331438Y-122023344D01*
X80383883Y-121961569D01*
X80482244Y-121937521D01*
X80582477Y-121907818D01*
X80612522Y-121857749D01*
X80575155Y-121806534D01*
X80473147Y-121773392D01*
X80458311Y-121771695D01*
X80357722Y-121745040D01*
X80323766Y-121699064D01*
X80348940Y-121661027D01*
X80433452Y-121642664D01*
X80531282Y-121639439D01*
X80738798Y-121639439D01*
X80738798Y-122015242D01*
G37*
G36*
X70974929Y-121826511D02*
G01*
X70977576Y-121850068D01*
X70934728Y-121892948D01*
X70923275Y-121894684D01*
X70874611Y-121862373D01*
X70868975Y-121850068D01*
X70889010Y-121812224D01*
X70923275Y-121805452D01*
X70974929Y-121826511D01*
G37*
G36*
X84612437Y-122123644D02*
G01*
X84639963Y-122190585D01*
X84639325Y-122280821D01*
X84615298Y-122358068D01*
X84577851Y-122386498D01*
X84531806Y-122354998D01*
X84515708Y-122254466D01*
X84515596Y-122241236D01*
X84528651Y-122130655D01*
X84566418Y-122095829D01*
X84612437Y-122123644D01*
G37*
G36*
X79742720Y-122241236D02*
G01*
X79742720Y-122344994D01*
X77792066Y-122344994D01*
X75841413Y-122344994D01*
X75841413Y-122241236D01*
X75841413Y-122137478D01*
X77792066Y-122137478D01*
X79742720Y-122137478D01*
X79742720Y-122241236D01*
G37*
G36*
X79742720Y-122734987D02*
G01*
X79742720Y-122843034D01*
X78757017Y-122843181D01*
X78265509Y-122846846D01*
X77795977Y-122857306D01*
X77356952Y-122873984D01*
X76956963Y-122896303D01*
X76604542Y-122923685D01*
X76308217Y-122955552D01*
X76076520Y-122991328D01*
X75917980Y-123030434D01*
X75901080Y-123036534D01*
X75854673Y-123028484D01*
X75841413Y-122955673D01*
X75846686Y-122899709D01*
X75871161Y-122857939D01*
X75927818Y-122824963D01*
X76029640Y-122795380D01*
X76189607Y-122763790D01*
X76380498Y-122731408D01*
X76535419Y-122710734D01*
X76733714Y-122693266D01*
X76982861Y-122678667D01*
X77290336Y-122666598D01*
X77663617Y-122656723D01*
X78110181Y-122648703D01*
X78258978Y-122646616D01*
X79742720Y-122626940D01*
X79742720Y-122734987D01*
G37*
G36*
X85264068Y-122695456D02*
G01*
X85276489Y-122704689D01*
X85288872Y-122756082D01*
X85298392Y-122869850D01*
X85303602Y-123025376D01*
X85304158Y-123098970D01*
X85302721Y-123274477D01*
X85296006Y-123382933D01*
X85280402Y-123440277D01*
X85252302Y-123462448D01*
X85221151Y-123465583D01*
X85182572Y-123459629D01*
X85158223Y-123431503D01*
X85144863Y-123365806D01*
X85139252Y-123247143D01*
X85138145Y-123071302D01*
X85141036Y-122877920D01*
X85150808Y-122755628D01*
X85169112Y-122692672D01*
X85193482Y-122677021D01*
X85264068Y-122695456D01*
G37*
G36*
X84329439Y-122712588D02*
G01*
X84423268Y-122811997D01*
X84499344Y-122915664D01*
X84660857Y-123154308D01*
X84673304Y-122915664D01*
X84693383Y-122757737D01*
X84732725Y-122679250D01*
X84790884Y-122680848D01*
X84819953Y-122704689D01*
X84832336Y-122756082D01*
X84841856Y-122869850D01*
X84847066Y-123025376D01*
X84847622Y-123098970D01*
X84846505Y-123273951D01*
X84840422Y-123381988D01*
X84825277Y-123439137D01*
X84796975Y-123461458D01*
X84754239Y-123465029D01*
X84681927Y-123439436D01*
X84598318Y-123356609D01*
X84505689Y-123226385D01*
X84350521Y-122988295D01*
X84350052Y-123226939D01*
X84346473Y-123362493D01*
X84331917Y-123434464D01*
X84299627Y-123462166D01*
X84266576Y-123465583D01*
X84227996Y-123459629D01*
X84203648Y-123431503D01*
X84190288Y-123365806D01*
X84184677Y-123247143D01*
X84183570Y-123071302D01*
X84185025Y-122887469D01*
X84191381Y-122771382D01*
X84205616Y-122707800D01*
X84230714Y-122681483D01*
X84260700Y-122677021D01*
X84329439Y-122712588D01*
G37*
G36*
X83861919Y-122721848D02*
G01*
X83924182Y-122789871D01*
X83926266Y-122866498D01*
X83891229Y-122906412D01*
X83827129Y-122906000D01*
X83787999Y-122883467D01*
X83704182Y-122853482D01*
X83660516Y-122859678D01*
X83632178Y-122884564D01*
X83647538Y-122931756D01*
X83713415Y-123015213D01*
X83763745Y-123070910D01*
X83865557Y-123184504D01*
X83916980Y-123259227D01*
X83924641Y-123316539D01*
X83895165Y-123377898D01*
X83869942Y-123414845D01*
X83771812Y-123491474D01*
X83647756Y-123499111D01*
X83539392Y-123449322D01*
X83486350Y-123396431D01*
X83501215Y-123343571D01*
X83517250Y-123323053D01*
X83578856Y-123280104D01*
X83617366Y-123297811D01*
X83676750Y-123337379D01*
X83693831Y-123341073D01*
X83728045Y-123317398D01*
X83704953Y-123256486D01*
X83631617Y-123173504D01*
X83604742Y-123149806D01*
X83488793Y-123024570D01*
X83451898Y-122906206D01*
X83491552Y-122786145D01*
X83496281Y-122778747D01*
X83593882Y-122698301D01*
X83725417Y-122678281D01*
X83861919Y-122721848D01*
G37*
G36*
X83068938Y-122686914D02*
G01*
X83090832Y-122721426D01*
X83101382Y-122804243D01*
X83104434Y-122951279D01*
X83104485Y-122985252D01*
X83106409Y-123145335D01*
X83115197Y-123239570D01*
X83135370Y-123285081D01*
X83171452Y-123298994D01*
X83187491Y-123299570D01*
X83256856Y-123328917D01*
X83270498Y-123382576D01*
X83260590Y-123430545D01*
X83217752Y-123455535D01*
X83122312Y-123464697D01*
X83042230Y-123465583D01*
X82910314Y-123461980D01*
X82841593Y-123446402D01*
X82816396Y-123411697D01*
X82813962Y-123382576D01*
X82839116Y-123315288D01*
X82874398Y-123299570D01*
X82908216Y-123278903D01*
X82930134Y-123207845D01*
X82943436Y-123072813D01*
X82947029Y-122999111D01*
X82956958Y-122838484D01*
X82973656Y-122743680D01*
X83001755Y-122697546D01*
X83031854Y-122684793D01*
X83068938Y-122686914D01*
G37*
G36*
X82562018Y-122682974D02*
G01*
X82586367Y-122711101D01*
X82599727Y-122776797D01*
X82605338Y-122895461D01*
X82606445Y-123071302D01*
X82605192Y-123254555D01*
X82599271Y-123370211D01*
X82585440Y-123433668D01*
X82560458Y-123460324D01*
X82523439Y-123465583D01*
X82484859Y-123459629D01*
X82460510Y-123431503D01*
X82447151Y-123365806D01*
X82441539Y-123247143D01*
X82440432Y-123071302D01*
X82441686Y-122888048D01*
X82447607Y-122772392D01*
X82461438Y-122708935D01*
X82486420Y-122682280D01*
X82523439Y-122677021D01*
X82562018Y-122682974D01*
G37*
G36*
X82031586Y-122686966D02*
G01*
X82053502Y-122721836D01*
X82063953Y-122805410D01*
X82066871Y-122953695D01*
X82066903Y-122980411D01*
X82069312Y-123140868D01*
X82079630Y-123236877D01*
X82102492Y-123286934D01*
X82142535Y-123309534D01*
X82149909Y-123311595D01*
X82217409Y-123357010D01*
X82232916Y-123399442D01*
X82215563Y-123438762D01*
X82152058Y-123459130D01*
X82025232Y-123465519D01*
X82004648Y-123465583D01*
X81872732Y-123461980D01*
X81804012Y-123446402D01*
X81778815Y-123411697D01*
X81776380Y-123382576D01*
X81801534Y-123315288D01*
X81836817Y-123299570D01*
X81870634Y-123278903D01*
X81892552Y-123207845D01*
X81905854Y-123072813D01*
X81909447Y-122999111D01*
X81919376Y-122838484D01*
X81936075Y-122743680D01*
X81964173Y-122697546D01*
X81994272Y-122684793D01*
X82031586Y-122686966D01*
G37*
G36*
X81429380Y-122708380D02*
G01*
X81431382Y-122709628D01*
X81498966Y-122796535D01*
X81545745Y-122949866D01*
X81567707Y-123154759D01*
X81568864Y-123219265D01*
X81565769Y-123357429D01*
X81552200Y-123431756D01*
X81521730Y-123461314D01*
X81485857Y-123465583D01*
X81439246Y-123456373D01*
X81414200Y-123416016D01*
X81404267Y-123325419D01*
X81402851Y-123219958D01*
X81397134Y-123035389D01*
X81376950Y-122919921D01*
X81337743Y-122860240D01*
X81274959Y-122843036D01*
X81273900Y-122843034D01*
X81233613Y-122851567D01*
X81209965Y-122888520D01*
X81198660Y-122970921D01*
X81195399Y-123115799D01*
X81195334Y-123154308D01*
X81193374Y-123313459D01*
X81184434Y-123406839D01*
X81163928Y-123451650D01*
X81127269Y-123465094D01*
X81112328Y-123465583D01*
X81070821Y-123458594D01*
X81046017Y-123426452D01*
X81033686Y-123352388D01*
X81029598Y-123219637D01*
X81029321Y-123136521D01*
X81034675Y-122947311D01*
X81052493Y-122824609D01*
X81085407Y-122752501D01*
X81094541Y-122742240D01*
X81192565Y-122691775D01*
X81319808Y-122678975D01*
X81429380Y-122708380D01*
G37*
G36*
X80615225Y-122684372D02*
G01*
X80640127Y-122717896D01*
X80652077Y-122794792D01*
X80655662Y-122932264D01*
X80655792Y-122988295D01*
X80659053Y-123152484D01*
X80670838Y-123248861D01*
X80694148Y-123292438D01*
X80718047Y-123299570D01*
X80768747Y-123334171D01*
X80780302Y-123382576D01*
X80770394Y-123430545D01*
X80727556Y-123455535D01*
X80632116Y-123464697D01*
X80552034Y-123465583D01*
X80416330Y-123460555D01*
X80346037Y-123442154D01*
X80323985Y-123405406D01*
X80323766Y-123399442D01*
X80358608Y-123336546D01*
X80406772Y-123311595D01*
X80449817Y-123291264D01*
X80474860Y-123245915D01*
X80486606Y-123156960D01*
X80489755Y-123005807D01*
X80489779Y-122983455D01*
X80491799Y-122825796D01*
X80500989Y-122733781D01*
X80522042Y-122690086D01*
X80559650Y-122677384D01*
X80572785Y-122677021D01*
X80615225Y-122684372D01*
G37*
G36*
X79118449Y-123238394D02*
G01*
X79314049Y-123249686D01*
X79438607Y-123263762D01*
X79575864Y-123293988D01*
X79676721Y-123330423D01*
X79715719Y-123360505D01*
X79709739Y-123383356D01*
X79663089Y-123397062D01*
X79564571Y-123402393D01*
X79402984Y-123400117D01*
X79231269Y-123393780D01*
X78657979Y-123405510D01*
X78122740Y-123490864D01*
X77624472Y-123650262D01*
X77162096Y-123884123D01*
X76734530Y-124192868D01*
X76425798Y-124484577D01*
X76300553Y-124612351D01*
X76196415Y-124710958D01*
X76126056Y-124768865D01*
X76102891Y-124778477D01*
X76092459Y-124713049D01*
X76137697Y-124606580D01*
X76229310Y-124469695D01*
X76358001Y-124313021D01*
X76514474Y-124147183D01*
X76689432Y-123982806D01*
X76873580Y-123830516D01*
X77030052Y-123718730D01*
X77288361Y-123571790D01*
X77585862Y-123439059D01*
X77741138Y-123382639D01*
X77931540Y-123322634D01*
X78092485Y-123282398D01*
X78252639Y-123257340D01*
X78440668Y-123242872D01*
X78663635Y-123234951D01*
X78892345Y-123233136D01*
X79118449Y-123238394D01*
G37*
G36*
X71527820Y-123527043D02*
G01*
X71597704Y-123549883D01*
X71677920Y-123611670D01*
X71679698Y-123700462D01*
X71655879Y-123747338D01*
X71607967Y-123779541D01*
X71520341Y-123762073D01*
X71507771Y-123757417D01*
X71394405Y-123733122D01*
X71328569Y-123759191D01*
X71317556Y-123795959D01*
X71350037Y-123837067D01*
X71431120Y-123897059D01*
X71463163Y-123916823D01*
X71597251Y-124027871D01*
X71667660Y-124154798D01*
X71673329Y-124281349D01*
X71613196Y-124391272D01*
X71498853Y-124463740D01*
X71405818Y-124477991D01*
X71292041Y-124469326D01*
X71187056Y-124443673D01*
X71120398Y-124406963D01*
X71110676Y-124385812D01*
X71148585Y-124296583D01*
X71244247Y-124249883D01*
X71320542Y-124247654D01*
X71413089Y-124245439D01*
X71429126Y-124211565D01*
X71368736Y-124146357D01*
X71276053Y-124078895D01*
X71176826Y-123997411D01*
X71131199Y-123905288D01*
X71118220Y-123810521D01*
X71119363Y-123688450D01*
X71153421Y-123613450D01*
X71200085Y-123573233D01*
X71351032Y-123515760D01*
X71527820Y-123527043D01*
G37*
G36*
X74056772Y-124150387D02*
G01*
X74056772Y-124752184D01*
X73932262Y-124752184D01*
X73807753Y-124752184D01*
X73807753Y-124254145D01*
X73807753Y-123756106D01*
X73620988Y-123756106D01*
X73505739Y-123751805D01*
X73451136Y-123730666D01*
X73434936Y-123680333D01*
X73434223Y-123652347D01*
X73438102Y-123599572D01*
X73461397Y-123568636D01*
X73521590Y-123553711D01*
X73636168Y-123548971D01*
X73745498Y-123548589D01*
X74056772Y-123548589D01*
X74056772Y-124150387D01*
G37*
G36*
X73268210Y-124150387D02*
G01*
X73268210Y-124752184D01*
X72956936Y-124752184D01*
X72798608Y-124750891D01*
X72705801Y-124743126D01*
X72661028Y-124723062D01*
X72646805Y-124684869D01*
X72645661Y-124648426D01*
X72652389Y-124586846D01*
X72686725Y-124556126D01*
X72769896Y-124545651D01*
X72853177Y-124544668D01*
X72976022Y-124541947D01*
X73037280Y-124525222D01*
X73058364Y-124481644D01*
X73060694Y-124420158D01*
X73052596Y-124336504D01*
X73011522Y-124302193D01*
X72915432Y-124295648D01*
X72817198Y-124287896D01*
X72776983Y-124253011D01*
X72770171Y-124191890D01*
X72781024Y-124121722D01*
X72829863Y-124092997D01*
X72915432Y-124088132D01*
X73008438Y-124083106D01*
X73049770Y-124052074D01*
X73060369Y-123971105D01*
X73060694Y-123922119D01*
X73060694Y-123756106D01*
X72832426Y-123756106D01*
X72701692Y-123753412D01*
X72633620Y-123739177D01*
X72607897Y-123704166D01*
X72604158Y-123652347D01*
X72607696Y-123600888D01*
X72629601Y-123570075D01*
X72686809Y-123554616D01*
X72796255Y-123549219D01*
X72936184Y-123548589D01*
X73268210Y-123548589D01*
X73268210Y-124150387D01*
G37*
G36*
X72064615Y-123901367D02*
G01*
X72066160Y-124072898D01*
X72073340Y-124177673D01*
X72089974Y-124231922D01*
X72119882Y-124251876D01*
X72147622Y-124254145D01*
X72187982Y-124247580D01*
X72212635Y-124217065D01*
X72225400Y-124146369D01*
X72230095Y-124019261D01*
X72230628Y-123901367D01*
X72230628Y-123548589D01*
X72355138Y-123548589D01*
X72479648Y-123548589D01*
X72479648Y-123999845D01*
X72479648Y-124451100D01*
X72265960Y-124471633D01*
X72128468Y-124480043D01*
X72017183Y-124478510D01*
X71980497Y-124473396D01*
X71904050Y-124421339D01*
X71852361Y-124307572D01*
X71823541Y-124125523D01*
X71815596Y-123899414D01*
X71815596Y-123548589D01*
X71940105Y-123548589D01*
X72064615Y-123548589D01*
X72064615Y-123901367D01*
G37*
G36*
X70944027Y-124150387D02*
G01*
X70944027Y-124752184D01*
X70612001Y-124752184D01*
X70447330Y-124751078D01*
X70348728Y-124744233D01*
X70299260Y-124726355D01*
X70281989Y-124692153D01*
X70279975Y-124648426D01*
X70286703Y-124586846D01*
X70321039Y-124556126D01*
X70404210Y-124545651D01*
X70487491Y-124544668D01*
X70610336Y-124541947D01*
X70671594Y-124525222D01*
X70692677Y-124481644D01*
X70695007Y-124420158D01*
X70686910Y-124336504D01*
X70645836Y-124302193D01*
X70549746Y-124295648D01*
X70451512Y-124287896D01*
X70411296Y-124253011D01*
X70404485Y-124191890D01*
X70415338Y-124121722D01*
X70464176Y-124092997D01*
X70549746Y-124088132D01*
X70642752Y-124083106D01*
X70684084Y-124052074D01*
X70694683Y-123971105D01*
X70695007Y-123922119D01*
X70695007Y-123756106D01*
X70487491Y-123756106D01*
X70364332Y-123752741D01*
X70302891Y-123735574D01*
X70281941Y-123693988D01*
X70279975Y-123652347D01*
X70283513Y-123600888D01*
X70305418Y-123570075D01*
X70362626Y-123554616D01*
X70472072Y-123549219D01*
X70612001Y-123548589D01*
X70944027Y-123548589D01*
X70944027Y-124150387D01*
G37*
D15*
%TO.C,R1*%
X95250000Y-101370000D02*
X95250000Y-102060000D01*
X95250000Y-111990000D02*
X95250000Y-111300000D01*
X96970000Y-102060000D02*
X93530000Y-102060000D01*
X93530000Y-111300000D01*
X96970000Y-111300000D01*
X96970000Y-102060000D01*
%TO.C,D5*%
X107120000Y-68960000D02*
X111370000Y-68960000D01*
X107120000Y-68960000D02*
G75*
G02*
X111363756Y-68955163I2120000J1650000D01*
G01*
%TO.C,D2*%
X106265000Y-87245000D02*
X106665000Y-87245000D01*
X106265000Y-88365000D02*
X106265000Y-87245000D01*
X106665000Y-87245000D02*
X106665000Y-88365000D01*
X106665000Y-88365000D02*
X106265000Y-88365000D01*
X106665000Y-88365000D02*
X106665000Y-82205000D01*
X107955000Y-88365000D02*
X107955000Y-91035000D01*
X107955000Y-91035000D02*
X107955000Y-88365000D01*
X110495000Y-88365000D02*
X110495000Y-91035000D01*
X110495000Y-91035000D02*
X110495000Y-88365000D01*
X111785000Y-88365000D02*
X106665000Y-88365000D01*
X111785000Y-88365000D02*
X111785000Y-82205000D01*
X106665000Y-82205000D02*
G75*
G02*
X111785000Y-82205000I2560000J0D01*
G01*
%TO.C,R3*%
X125730000Y-101370000D02*
X125730000Y-102060000D01*
X125730000Y-111990000D02*
X125730000Y-111300000D01*
X127450000Y-102060000D02*
X124010000Y-102060000D01*
X124010000Y-111300000D01*
X127450000Y-111300000D01*
X127450000Y-102060000D01*
%TO.C,U1*%
X69790000Y-57440000D02*
X69790000Y-58690000D01*
X69790000Y-60690000D02*
X69790000Y-61940000D01*
X69790000Y-61940000D02*
X80070000Y-61940000D01*
X80070000Y-57440000D02*
X69790000Y-57440000D01*
X80070000Y-61940000D02*
X80070000Y-57440000D01*
X69790000Y-58690000D02*
G75*
G02*
X69790000Y-60690000I0J-1000000D01*
G01*
%TO.C,J13*%
X47940000Y-54852000D02*
X60280000Y-54852000D01*
X60280000Y-54852000D02*
X60280000Y-108072000D01*
X60280000Y-108072000D02*
X47940000Y-108072000D01*
X60741325Y-98082000D02*
X61174338Y-97832000D01*
X61174338Y-97832000D02*
X61174338Y-98332000D01*
X61174338Y-98332000D02*
X60741325Y-98082000D01*
%TO.C,D6*%
X122340000Y-68960000D02*
X126590000Y-68960000D01*
X122340000Y-68960000D02*
G75*
G02*
X126583756Y-68955163I2120000J1650000D01*
G01*
%TO.C,R4*%
X92710000Y-49300000D02*
X92710000Y-49990000D01*
X92710000Y-59920000D02*
X92710000Y-59230000D01*
X90990000Y-59230000D02*
X94430000Y-59230000D01*
X94430000Y-49990000D01*
X90990000Y-49990000D01*
X90990000Y-59230000D01*
%TO.C,D4*%
X91860000Y-68960000D02*
X96110000Y-68960000D01*
X91860000Y-68960000D02*
G75*
G02*
X96103756Y-68955163I2120000J1650000D01*
G01*
%TO.C,U2*%
X69790000Y-100620000D02*
X69790000Y-101870000D01*
X69790000Y-103870000D02*
X69790000Y-105120000D01*
X69790000Y-105120000D02*
X80070000Y-105120000D01*
X80070000Y-100620000D02*
X69790000Y-100620000D01*
X80070000Y-105120000D02*
X80070000Y-100620000D01*
X69790000Y-101870000D02*
G75*
G02*
X69790000Y-103870000I0J-1000000D01*
G01*
%TO.C,R6*%
X123190000Y-49300000D02*
X123190000Y-49990000D01*
X123190000Y-59920000D02*
X123190000Y-59230000D01*
X124910000Y-49990000D02*
X121470000Y-49990000D01*
X121470000Y-59230000D01*
X124910000Y-59230000D01*
X124910000Y-49990000D01*
%TO.C,D3*%
X121505000Y-87245000D02*
X121905000Y-87245000D01*
X121505000Y-88365000D02*
X121505000Y-87245000D01*
X121905000Y-87245000D02*
X121905000Y-88365000D01*
X121905000Y-88365000D02*
X121505000Y-88365000D01*
X121905000Y-88365000D02*
X121905000Y-82205000D01*
X123195000Y-88365000D02*
X123195000Y-91035000D01*
X123195000Y-91035000D02*
X123195000Y-88365000D01*
X125735000Y-88365000D02*
X125735000Y-91035000D01*
X125735000Y-91035000D02*
X125735000Y-88365000D01*
X127025000Y-88365000D02*
X121905000Y-88365000D01*
X127025000Y-88365000D02*
X127025000Y-82205000D01*
X121905000Y-82205000D02*
G75*
G02*
X127025000Y-82205000I2560000J0D01*
G01*
%TO.C,D1*%
X91025000Y-87380000D02*
X91425000Y-87380000D01*
X91025000Y-88500000D02*
X91025000Y-87380000D01*
X91425000Y-87380000D02*
X91425000Y-88500000D01*
X91425000Y-88500000D02*
X91025000Y-88500000D01*
X91425000Y-88500000D02*
X91425000Y-82340000D01*
X92715000Y-88500000D02*
X92715000Y-91170000D01*
X92715000Y-91170000D02*
X92715000Y-88500000D01*
X95255000Y-88500000D02*
X95255000Y-91170000D01*
X95255000Y-91170000D02*
X95255000Y-88500000D01*
X96545000Y-88500000D02*
X91425000Y-88500000D01*
X96545000Y-88500000D02*
X96545000Y-82340000D01*
X91425000Y-82340000D02*
G75*
G02*
X96545000Y-82340000I2560000J0D01*
G01*
%TO.C,R2*%
X110490000Y-101370000D02*
X110490000Y-102060000D01*
X110490000Y-111990000D02*
X110490000Y-111300000D01*
X112210000Y-102060000D02*
X108770000Y-102060000D01*
X108770000Y-111300000D01*
X112210000Y-111300000D01*
X112210000Y-102060000D01*
%TO.C,R5*%
X107950000Y-49300000D02*
X107950000Y-49990000D01*
X107950000Y-59920000D02*
X107950000Y-59230000D01*
X106230000Y-59230000D02*
X109670000Y-59230000D01*
X109670000Y-49990000D01*
X106230000Y-49990000D01*
X106230000Y-59230000D01*
%TD*%
M02*
