%TF.GenerationSoftware,KiCad,Pcbnew,9.0.4*%
%TF.CreationDate,2026-03-18T10:17:48+01:00*%
%TF.ProjectId,phd_slave,7068645f-736c-4617-9665-2e6b69636164,rev?*%
%TF.SameCoordinates,Original*%
%TF.FileFunction,Legend,Top*%
%TF.FilePolarity,Positive*%
%FSLAX46Y46*%
G04 Gerber Fmt 4.6, Leading zero omitted, Abs format (unit mm)*
G04 Created by KiCad (PCBNEW 9.0.4) date 2026-03-18 10:17:48*
%MOMM*%
%LPD*%
G01*
G04 APERTURE LIST*
%ADD10C,0.125000*%
%ADD11C,0.200000*%
%ADD12C,0.150000*%
%ADD13C,0.100000*%
%ADD14C,0.120000*%
%ADD15C,0.000000*%
G04 APERTURE END LIST*
D10*
X130885119Y-60284619D02*
X130408928Y-60617952D01*
X130885119Y-60856047D02*
X129885119Y-60856047D01*
X129885119Y-60856047D02*
X129885119Y-60475095D01*
X129885119Y-60475095D02*
X129932738Y-60379857D01*
X129932738Y-60379857D02*
X129980357Y-60332238D01*
X129980357Y-60332238D02*
X130075595Y-60284619D01*
X130075595Y-60284619D02*
X130218452Y-60284619D01*
X130218452Y-60284619D02*
X130313690Y-60332238D01*
X130313690Y-60332238D02*
X130361309Y-60379857D01*
X130361309Y-60379857D02*
X130408928Y-60475095D01*
X130408928Y-60475095D02*
X130408928Y-60856047D01*
X130980357Y-60094143D02*
X130980357Y-59332238D01*
X130218452Y-59094142D02*
X131218452Y-59094142D01*
X130266071Y-59094142D02*
X130218452Y-58998904D01*
X130218452Y-58998904D02*
X130218452Y-58808428D01*
X130218452Y-58808428D02*
X130266071Y-58713190D01*
X130266071Y-58713190D02*
X130313690Y-58665571D01*
X130313690Y-58665571D02*
X130408928Y-58617952D01*
X130408928Y-58617952D02*
X130694642Y-58617952D01*
X130694642Y-58617952D02*
X130789880Y-58665571D01*
X130789880Y-58665571D02*
X130837500Y-58713190D01*
X130837500Y-58713190D02*
X130885119Y-58808428D01*
X130885119Y-58808428D02*
X130885119Y-58998904D01*
X130885119Y-58998904D02*
X130837500Y-59094142D01*
X130885119Y-58189380D02*
X129885119Y-58189380D01*
X130885119Y-57760809D02*
X130361309Y-57760809D01*
X130361309Y-57760809D02*
X130266071Y-57808428D01*
X130266071Y-57808428D02*
X130218452Y-57903666D01*
X130218452Y-57903666D02*
X130218452Y-58046523D01*
X130218452Y-58046523D02*
X130266071Y-58141761D01*
X130266071Y-58141761D02*
X130313690Y-58189380D01*
X130885119Y-56856047D02*
X129885119Y-56856047D01*
X130837500Y-56856047D02*
X130885119Y-56951285D01*
X130885119Y-56951285D02*
X130885119Y-57141761D01*
X130885119Y-57141761D02*
X130837500Y-57236999D01*
X130837500Y-57236999D02*
X130789880Y-57284618D01*
X130789880Y-57284618D02*
X130694642Y-57332237D01*
X130694642Y-57332237D02*
X130408928Y-57332237D01*
X130408928Y-57332237D02*
X130313690Y-57284618D01*
X130313690Y-57284618D02*
X130266071Y-57236999D01*
X130266071Y-57236999D02*
X130218452Y-57141761D01*
X130218452Y-57141761D02*
X130218452Y-56951285D01*
X130218452Y-56951285D02*
X130266071Y-56856047D01*
X130361309Y-55617951D02*
X130361309Y-54856047D01*
X130647023Y-54856047D02*
X130647023Y-55617951D01*
X130885119Y-53094142D02*
X130885119Y-53665570D01*
X130885119Y-53379856D02*
X129885119Y-53379856D01*
X129885119Y-53379856D02*
X130027976Y-53475094D01*
X130027976Y-53475094D02*
X130123214Y-53570332D01*
X130123214Y-53570332D02*
X130170833Y-53665570D01*
X129885119Y-52475094D02*
X129885119Y-52379856D01*
X129885119Y-52379856D02*
X129932738Y-52284618D01*
X129932738Y-52284618D02*
X129980357Y-52236999D01*
X129980357Y-52236999D02*
X130075595Y-52189380D01*
X130075595Y-52189380D02*
X130266071Y-52141761D01*
X130266071Y-52141761D02*
X130504166Y-52141761D01*
X130504166Y-52141761D02*
X130694642Y-52189380D01*
X130694642Y-52189380D02*
X130789880Y-52236999D01*
X130789880Y-52236999D02*
X130837500Y-52284618D01*
X130837500Y-52284618D02*
X130885119Y-52379856D01*
X130885119Y-52379856D02*
X130885119Y-52475094D01*
X130885119Y-52475094D02*
X130837500Y-52570332D01*
X130837500Y-52570332D02*
X130789880Y-52617951D01*
X130789880Y-52617951D02*
X130694642Y-52665570D01*
X130694642Y-52665570D02*
X130504166Y-52713189D01*
X130504166Y-52713189D02*
X130266071Y-52713189D01*
X130266071Y-52713189D02*
X130075595Y-52665570D01*
X130075595Y-52665570D02*
X129980357Y-52617951D01*
X129980357Y-52617951D02*
X129932738Y-52570332D01*
X129932738Y-52570332D02*
X129885119Y-52475094D01*
X129885119Y-51522713D02*
X129885119Y-51427475D01*
X129885119Y-51427475D02*
X129932738Y-51332237D01*
X129932738Y-51332237D02*
X129980357Y-51284618D01*
X129980357Y-51284618D02*
X130075595Y-51236999D01*
X130075595Y-51236999D02*
X130266071Y-51189380D01*
X130266071Y-51189380D02*
X130504166Y-51189380D01*
X130504166Y-51189380D02*
X130694642Y-51236999D01*
X130694642Y-51236999D02*
X130789880Y-51284618D01*
X130789880Y-51284618D02*
X130837500Y-51332237D01*
X130837500Y-51332237D02*
X130885119Y-51427475D01*
X130885119Y-51427475D02*
X130885119Y-51522713D01*
X130885119Y-51522713D02*
X130837500Y-51617951D01*
X130837500Y-51617951D02*
X130789880Y-51665570D01*
X130789880Y-51665570D02*
X130694642Y-51713189D01*
X130694642Y-51713189D02*
X130504166Y-51760808D01*
X130504166Y-51760808D02*
X130266071Y-51760808D01*
X130266071Y-51760808D02*
X130075595Y-51713189D01*
X130075595Y-51713189D02*
X129980357Y-51665570D01*
X129980357Y-51665570D02*
X129932738Y-51617951D01*
X129932738Y-51617951D02*
X129885119Y-51522713D01*
X130885119Y-49998903D02*
X129885119Y-49998903D01*
X130504166Y-49903665D02*
X130885119Y-49617951D01*
X130218452Y-49617951D02*
X130599404Y-49998903D01*
X129885119Y-48998903D02*
X129885119Y-48808427D01*
X129885119Y-48808427D02*
X129932738Y-48713189D01*
X129932738Y-48713189D02*
X130027976Y-48617951D01*
X130027976Y-48617951D02*
X130218452Y-48570332D01*
X130218452Y-48570332D02*
X130551785Y-48570332D01*
X130551785Y-48570332D02*
X130742261Y-48617951D01*
X130742261Y-48617951D02*
X130837500Y-48713189D01*
X130837500Y-48713189D02*
X130885119Y-48808427D01*
X130885119Y-48808427D02*
X130885119Y-48998903D01*
X130885119Y-48998903D02*
X130837500Y-49094141D01*
X130837500Y-49094141D02*
X130742261Y-49189379D01*
X130742261Y-49189379D02*
X130551785Y-49236998D01*
X130551785Y-49236998D02*
X130218452Y-49236998D01*
X130218452Y-49236998D02*
X130027976Y-49189379D01*
X130027976Y-49189379D02*
X129932738Y-49094141D01*
X129932738Y-49094141D02*
X129885119Y-48998903D01*
D11*
X81240219Y-136325809D02*
X81240219Y-136135333D01*
X81240219Y-136135333D02*
X81287838Y-136040095D01*
X81287838Y-136040095D02*
X81383076Y-135944857D01*
X81383076Y-135944857D02*
X81573552Y-135897238D01*
X81573552Y-135897238D02*
X81906885Y-135897238D01*
X81906885Y-135897238D02*
X82097361Y-135944857D01*
X82097361Y-135944857D02*
X82192600Y-136040095D01*
X82192600Y-136040095D02*
X82240219Y-136135333D01*
X82240219Y-136135333D02*
X82240219Y-136325809D01*
X82240219Y-136325809D02*
X82192600Y-136421047D01*
X82192600Y-136421047D02*
X82097361Y-136516285D01*
X82097361Y-136516285D02*
X81906885Y-136563904D01*
X81906885Y-136563904D02*
X81573552Y-136563904D01*
X81573552Y-136563904D02*
X81383076Y-136516285D01*
X81383076Y-136516285D02*
X81287838Y-136421047D01*
X81287838Y-136421047D02*
X81240219Y-136325809D01*
X81240219Y-135468666D02*
X82049742Y-135468666D01*
X82049742Y-135468666D02*
X82144980Y-135421047D01*
X82144980Y-135421047D02*
X82192600Y-135373428D01*
X82192600Y-135373428D02*
X82240219Y-135278190D01*
X82240219Y-135278190D02*
X82240219Y-135087714D01*
X82240219Y-135087714D02*
X82192600Y-134992476D01*
X82192600Y-134992476D02*
X82144980Y-134944857D01*
X82144980Y-134944857D02*
X82049742Y-134897238D01*
X82049742Y-134897238D02*
X81240219Y-134897238D01*
X81240219Y-134563904D02*
X81240219Y-133992476D01*
X82240219Y-134278190D02*
X81240219Y-134278190D01*
X81573552Y-133230571D02*
X82240219Y-133230571D01*
X81192600Y-133468666D02*
X81906885Y-133706761D01*
X81906885Y-133706761D02*
X81906885Y-133087714D01*
X81859266Y-131944856D02*
X81859266Y-131182952D01*
X81573552Y-130706761D02*
X81859266Y-129944857D01*
X81859266Y-129944857D02*
X82144980Y-130706761D01*
X81240219Y-128706761D02*
X82049742Y-128706761D01*
X82049742Y-128706761D02*
X82144980Y-128659142D01*
X82144980Y-128659142D02*
X82192600Y-128611523D01*
X82192600Y-128611523D02*
X82240219Y-128516285D01*
X82240219Y-128516285D02*
X82240219Y-128325809D01*
X82240219Y-128325809D02*
X82192600Y-128230571D01*
X82192600Y-128230571D02*
X82144980Y-128182952D01*
X82144980Y-128182952D02*
X82049742Y-128135333D01*
X82049742Y-128135333D02*
X81240219Y-128135333D01*
X82335457Y-127897238D02*
X82335457Y-127135333D01*
X82240219Y-126325809D02*
X81764028Y-126659142D01*
X82240219Y-126897237D02*
X81240219Y-126897237D01*
X81240219Y-126897237D02*
X81240219Y-126516285D01*
X81240219Y-126516285D02*
X81287838Y-126421047D01*
X81287838Y-126421047D02*
X81335457Y-126373428D01*
X81335457Y-126373428D02*
X81430695Y-126325809D01*
X81430695Y-126325809D02*
X81573552Y-126325809D01*
X81573552Y-126325809D02*
X81668790Y-126373428D01*
X81668790Y-126373428D02*
X81716409Y-126421047D01*
X81716409Y-126421047D02*
X81764028Y-126516285D01*
X81764028Y-126516285D02*
X81764028Y-126897237D01*
X82240219Y-125754380D02*
X82192600Y-125849618D01*
X82192600Y-125849618D02*
X82097361Y-125897237D01*
X82097361Y-125897237D02*
X81240219Y-125897237D01*
X82192600Y-124992475D02*
X82240219Y-125087713D01*
X82240219Y-125087713D02*
X82240219Y-125278189D01*
X82240219Y-125278189D02*
X82192600Y-125373427D01*
X82192600Y-125373427D02*
X82097361Y-125421046D01*
X82097361Y-125421046D02*
X81716409Y-125421046D01*
X81716409Y-125421046D02*
X81621171Y-125373427D01*
X81621171Y-125373427D02*
X81573552Y-125278189D01*
X81573552Y-125278189D02*
X81573552Y-125087713D01*
X81573552Y-125087713D02*
X81621171Y-124992475D01*
X81621171Y-124992475D02*
X81716409Y-124944856D01*
X81716409Y-124944856D02*
X81811647Y-124944856D01*
X81811647Y-124944856D02*
X81906885Y-125421046D01*
X82240219Y-124087713D02*
X81240219Y-124087713D01*
X82192600Y-124087713D02*
X82240219Y-124182951D01*
X82240219Y-124182951D02*
X82240219Y-124373427D01*
X82240219Y-124373427D02*
X82192600Y-124468665D01*
X82192600Y-124468665D02*
X82144980Y-124516284D01*
X82144980Y-124516284D02*
X82049742Y-124563903D01*
X82049742Y-124563903D02*
X81764028Y-124563903D01*
X81764028Y-124563903D02*
X81668790Y-124516284D01*
X81668790Y-124516284D02*
X81621171Y-124468665D01*
X81621171Y-124468665D02*
X81573552Y-124373427D01*
X81573552Y-124373427D02*
X81573552Y-124182951D01*
X81573552Y-124182951D02*
X81621171Y-124087713D01*
X61626952Y-65174600D02*
X61769809Y-65222219D01*
X61769809Y-65222219D02*
X62007904Y-65222219D01*
X62007904Y-65222219D02*
X62103142Y-65174600D01*
X62103142Y-65174600D02*
X62150761Y-65126980D01*
X62150761Y-65126980D02*
X62198380Y-65031742D01*
X62198380Y-65031742D02*
X62198380Y-64936504D01*
X62198380Y-64936504D02*
X62150761Y-64841266D01*
X62150761Y-64841266D02*
X62103142Y-64793647D01*
X62103142Y-64793647D02*
X62007904Y-64746028D01*
X62007904Y-64746028D02*
X61817428Y-64698409D01*
X61817428Y-64698409D02*
X61722190Y-64650790D01*
X61722190Y-64650790D02*
X61674571Y-64603171D01*
X61674571Y-64603171D02*
X61626952Y-64507933D01*
X61626952Y-64507933D02*
X61626952Y-64412695D01*
X61626952Y-64412695D02*
X61674571Y-64317457D01*
X61674571Y-64317457D02*
X61722190Y-64269838D01*
X61722190Y-64269838D02*
X61817428Y-64222219D01*
X61817428Y-64222219D02*
X62055523Y-64222219D01*
X62055523Y-64222219D02*
X62198380Y-64269838D01*
X62626952Y-64698409D02*
X62960285Y-64698409D01*
X63103142Y-65222219D02*
X62626952Y-65222219D01*
X62626952Y-65222219D02*
X62626952Y-64222219D01*
X62626952Y-64222219D02*
X63103142Y-64222219D01*
X64007904Y-65222219D02*
X63531714Y-65222219D01*
X63531714Y-65222219D02*
X63531714Y-64222219D01*
X64865047Y-65222219D02*
X64293619Y-65222219D01*
X64579333Y-65222219D02*
X64579333Y-64222219D01*
X64579333Y-64222219D02*
X64484095Y-64365076D01*
X64484095Y-64365076D02*
X64388857Y-64460314D01*
X64388857Y-64460314D02*
X64293619Y-64507933D01*
D12*
X104864819Y-105766665D02*
X105674342Y-105766665D01*
X105674342Y-105766665D02*
X105769580Y-105719046D01*
X105769580Y-105719046D02*
X105817200Y-105671427D01*
X105817200Y-105671427D02*
X105864819Y-105576189D01*
X105864819Y-105576189D02*
X105864819Y-105385713D01*
X105864819Y-105385713D02*
X105817200Y-105290475D01*
X105817200Y-105290475D02*
X105769580Y-105242856D01*
X105769580Y-105242856D02*
X105674342Y-105195237D01*
X105674342Y-105195237D02*
X104864819Y-105195237D01*
X105864819Y-104719046D02*
X104864819Y-104719046D01*
X104864819Y-104719046D02*
X105864819Y-104147618D01*
X105864819Y-104147618D02*
X104864819Y-104147618D01*
X105864819Y-103671427D02*
X104864819Y-103671427D01*
X104864819Y-103338094D02*
X104864819Y-102766666D01*
X105864819Y-103052380D02*
X104864819Y-103052380D01*
X105388628Y-102242856D02*
X105864819Y-102242856D01*
X104864819Y-102576189D02*
X105388628Y-102242856D01*
X105388628Y-102242856D02*
X104864819Y-101909523D01*
X105483866Y-101576189D02*
X105483866Y-100814285D01*
X104912438Y-99814285D02*
X104864819Y-99909523D01*
X104864819Y-99909523D02*
X104864819Y-100052380D01*
X104864819Y-100052380D02*
X104912438Y-100195237D01*
X104912438Y-100195237D02*
X105007676Y-100290475D01*
X105007676Y-100290475D02*
X105102914Y-100338094D01*
X105102914Y-100338094D02*
X105293390Y-100385713D01*
X105293390Y-100385713D02*
X105436247Y-100385713D01*
X105436247Y-100385713D02*
X105626723Y-100338094D01*
X105626723Y-100338094D02*
X105721961Y-100290475D01*
X105721961Y-100290475D02*
X105817200Y-100195237D01*
X105817200Y-100195237D02*
X105864819Y-100052380D01*
X105864819Y-100052380D02*
X105864819Y-99957142D01*
X105864819Y-99957142D02*
X105817200Y-99814285D01*
X105817200Y-99814285D02*
X105769580Y-99766666D01*
X105769580Y-99766666D02*
X105436247Y-99766666D01*
X105436247Y-99766666D02*
X105436247Y-99957142D01*
X105579104Y-99385713D02*
X105579104Y-98909523D01*
X105864819Y-99480951D02*
X104864819Y-99147618D01*
X104864819Y-99147618D02*
X105864819Y-98814285D01*
X105864819Y-98480951D02*
X104864819Y-98480951D01*
X105864819Y-98004761D02*
X104864819Y-98004761D01*
X104864819Y-98004761D02*
X105864819Y-97433333D01*
X105864819Y-97433333D02*
X104864819Y-97433333D01*
X90624819Y-103020475D02*
X89624819Y-103020475D01*
X89624819Y-103020475D02*
X90624819Y-102449047D01*
X90624819Y-102449047D02*
X89624819Y-102449047D01*
X89624819Y-101782380D02*
X89624819Y-101591904D01*
X89624819Y-101591904D02*
X89672438Y-101496666D01*
X89672438Y-101496666D02*
X89767676Y-101401428D01*
X89767676Y-101401428D02*
X89958152Y-101353809D01*
X89958152Y-101353809D02*
X90291485Y-101353809D01*
X90291485Y-101353809D02*
X90481961Y-101401428D01*
X90481961Y-101401428D02*
X90577200Y-101496666D01*
X90577200Y-101496666D02*
X90624819Y-101591904D01*
X90624819Y-101591904D02*
X90624819Y-101782380D01*
X90624819Y-101782380D02*
X90577200Y-101877618D01*
X90577200Y-101877618D02*
X90481961Y-101972856D01*
X90481961Y-101972856D02*
X90291485Y-102020475D01*
X90291485Y-102020475D02*
X89958152Y-102020475D01*
X89958152Y-102020475D02*
X89767676Y-101972856D01*
X89767676Y-101972856D02*
X89672438Y-101877618D01*
X89672438Y-101877618D02*
X89624819Y-101782380D01*
X90339104Y-100210951D02*
X90339104Y-99734761D01*
X90624819Y-100306189D02*
X89624819Y-99972856D01*
X89624819Y-99972856D02*
X90624819Y-99639523D01*
X90624819Y-99306189D02*
X89624819Y-99306189D01*
X89624819Y-99306189D02*
X90339104Y-98972856D01*
X90339104Y-98972856D02*
X89624819Y-98639523D01*
X89624819Y-98639523D02*
X90624819Y-98639523D01*
X90624819Y-98163332D02*
X89624819Y-98163332D01*
X89624819Y-98163332D02*
X89624819Y-97782380D01*
X89624819Y-97782380D02*
X89672438Y-97687142D01*
X89672438Y-97687142D02*
X89720057Y-97639523D01*
X89720057Y-97639523D02*
X89815295Y-97591904D01*
X89815295Y-97591904D02*
X89958152Y-97591904D01*
X89958152Y-97591904D02*
X90053390Y-97639523D01*
X90053390Y-97639523D02*
X90101009Y-97687142D01*
X90101009Y-97687142D02*
X90148628Y-97782380D01*
X90148628Y-97782380D02*
X90148628Y-98163332D01*
X128994819Y-72341903D02*
X128994819Y-71770475D01*
X129994819Y-72056189D02*
X128994819Y-72056189D01*
X129994819Y-70865713D02*
X129518628Y-71199046D01*
X129994819Y-71437141D02*
X128994819Y-71437141D01*
X128994819Y-71437141D02*
X128994819Y-71056189D01*
X128994819Y-71056189D02*
X129042438Y-70960951D01*
X129042438Y-70960951D02*
X129090057Y-70913332D01*
X129090057Y-70913332D02*
X129185295Y-70865713D01*
X129185295Y-70865713D02*
X129328152Y-70865713D01*
X129328152Y-70865713D02*
X129423390Y-70913332D01*
X129423390Y-70913332D02*
X129471009Y-70960951D01*
X129471009Y-70960951D02*
X129518628Y-71056189D01*
X129518628Y-71056189D02*
X129518628Y-71437141D01*
X129709104Y-70484760D02*
X129709104Y-70008570D01*
X129994819Y-70579998D02*
X128994819Y-70246665D01*
X128994819Y-70246665D02*
X129994819Y-69913332D01*
X129994819Y-69579998D02*
X128994819Y-69579998D01*
X128994819Y-69579998D02*
X129994819Y-69008570D01*
X129994819Y-69008570D02*
X128994819Y-69008570D01*
X129947200Y-68579998D02*
X129994819Y-68437141D01*
X129994819Y-68437141D02*
X129994819Y-68199046D01*
X129994819Y-68199046D02*
X129947200Y-68103808D01*
X129947200Y-68103808D02*
X129899580Y-68056189D01*
X129899580Y-68056189D02*
X129804342Y-68008570D01*
X129804342Y-68008570D02*
X129709104Y-68008570D01*
X129709104Y-68008570D02*
X129613866Y-68056189D01*
X129613866Y-68056189D02*
X129566247Y-68103808D01*
X129566247Y-68103808D02*
X129518628Y-68199046D01*
X129518628Y-68199046D02*
X129471009Y-68389522D01*
X129471009Y-68389522D02*
X129423390Y-68484760D01*
X129423390Y-68484760D02*
X129375771Y-68532379D01*
X129375771Y-68532379D02*
X129280533Y-68579998D01*
X129280533Y-68579998D02*
X129185295Y-68579998D01*
X129185295Y-68579998D02*
X129090057Y-68532379D01*
X129090057Y-68532379D02*
X129042438Y-68484760D01*
X129042438Y-68484760D02*
X128994819Y-68389522D01*
X128994819Y-68389522D02*
X128994819Y-68151427D01*
X128994819Y-68151427D02*
X129042438Y-68008570D01*
X129994819Y-67579998D02*
X128994819Y-67579998D01*
X129994819Y-67103808D02*
X128994819Y-67103808D01*
X128994819Y-67103808D02*
X129709104Y-66770475D01*
X129709104Y-66770475D02*
X128994819Y-66437142D01*
X128994819Y-66437142D02*
X129994819Y-66437142D01*
X129994819Y-65960951D02*
X128994819Y-65960951D01*
X128994819Y-65960951D02*
X128994819Y-65579999D01*
X128994819Y-65579999D02*
X129042438Y-65484761D01*
X129042438Y-65484761D02*
X129090057Y-65437142D01*
X129090057Y-65437142D02*
X129185295Y-65389523D01*
X129185295Y-65389523D02*
X129328152Y-65389523D01*
X129328152Y-65389523D02*
X129423390Y-65437142D01*
X129423390Y-65437142D02*
X129471009Y-65484761D01*
X129471009Y-65484761D02*
X129518628Y-65579999D01*
X129518628Y-65579999D02*
X129518628Y-65960951D01*
X129899580Y-64960951D02*
X129947200Y-64913332D01*
X129947200Y-64913332D02*
X129994819Y-64960951D01*
X129994819Y-64960951D02*
X129947200Y-65008570D01*
X129947200Y-65008570D02*
X129899580Y-64960951D01*
X129899580Y-64960951D02*
X129994819Y-64960951D01*
X120104819Y-104091903D02*
X120104819Y-103520475D01*
X121104819Y-103806189D02*
X120104819Y-103806189D01*
X121104819Y-102615713D02*
X120628628Y-102949046D01*
X121104819Y-103187141D02*
X120104819Y-103187141D01*
X120104819Y-103187141D02*
X120104819Y-102806189D01*
X120104819Y-102806189D02*
X120152438Y-102710951D01*
X120152438Y-102710951D02*
X120200057Y-102663332D01*
X120200057Y-102663332D02*
X120295295Y-102615713D01*
X120295295Y-102615713D02*
X120438152Y-102615713D01*
X120438152Y-102615713D02*
X120533390Y-102663332D01*
X120533390Y-102663332D02*
X120581009Y-102710951D01*
X120581009Y-102710951D02*
X120628628Y-102806189D01*
X120628628Y-102806189D02*
X120628628Y-103187141D01*
X120819104Y-102234760D02*
X120819104Y-101758570D01*
X121104819Y-102329998D02*
X120104819Y-101996665D01*
X120104819Y-101996665D02*
X121104819Y-101663332D01*
X121104819Y-101329998D02*
X120104819Y-101329998D01*
X120104819Y-101329998D02*
X121104819Y-100758570D01*
X121104819Y-100758570D02*
X120104819Y-100758570D01*
X121057200Y-100329998D02*
X121104819Y-100187141D01*
X121104819Y-100187141D02*
X121104819Y-99949046D01*
X121104819Y-99949046D02*
X121057200Y-99853808D01*
X121057200Y-99853808D02*
X121009580Y-99806189D01*
X121009580Y-99806189D02*
X120914342Y-99758570D01*
X120914342Y-99758570D02*
X120819104Y-99758570D01*
X120819104Y-99758570D02*
X120723866Y-99806189D01*
X120723866Y-99806189D02*
X120676247Y-99853808D01*
X120676247Y-99853808D02*
X120628628Y-99949046D01*
X120628628Y-99949046D02*
X120581009Y-100139522D01*
X120581009Y-100139522D02*
X120533390Y-100234760D01*
X120533390Y-100234760D02*
X120485771Y-100282379D01*
X120485771Y-100282379D02*
X120390533Y-100329998D01*
X120390533Y-100329998D02*
X120295295Y-100329998D01*
X120295295Y-100329998D02*
X120200057Y-100282379D01*
X120200057Y-100282379D02*
X120152438Y-100234760D01*
X120152438Y-100234760D02*
X120104819Y-100139522D01*
X120104819Y-100139522D02*
X120104819Y-99901427D01*
X120104819Y-99901427D02*
X120152438Y-99758570D01*
X121104819Y-99329998D02*
X120104819Y-99329998D01*
X121104819Y-98853808D02*
X120104819Y-98853808D01*
X120104819Y-98853808D02*
X120819104Y-98520475D01*
X120819104Y-98520475D02*
X120104819Y-98187142D01*
X120104819Y-98187142D02*
X121104819Y-98187142D01*
X121104819Y-97710951D02*
X120104819Y-97710951D01*
X120104819Y-97710951D02*
X120104819Y-97329999D01*
X120104819Y-97329999D02*
X120152438Y-97234761D01*
X120152438Y-97234761D02*
X120200057Y-97187142D01*
X120200057Y-97187142D02*
X120295295Y-97139523D01*
X120295295Y-97139523D02*
X120438152Y-97139523D01*
X120438152Y-97139523D02*
X120533390Y-97187142D01*
X120533390Y-97187142D02*
X120581009Y-97234761D01*
X120581009Y-97234761D02*
X120628628Y-97329999D01*
X120628628Y-97329999D02*
X120628628Y-97710951D01*
X121009580Y-96710951D02*
X121057200Y-96663332D01*
X121057200Y-96663332D02*
X121104819Y-96710951D01*
X121104819Y-96710951D02*
X121057200Y-96758570D01*
X121057200Y-96758570D02*
X121009580Y-96710951D01*
X121009580Y-96710951D02*
X121104819Y-96710951D01*
D11*
X116960000Y-63500000D02*
X131960000Y-63500000D01*
X131960000Y-93500000D01*
X116960000Y-93500000D01*
X116960000Y-63500000D01*
X101720000Y-63500000D02*
X116720000Y-63500000D01*
X116720000Y-93500000D01*
X101720000Y-93500000D01*
X101720000Y-63500000D01*
X86480000Y-63500000D02*
X101480000Y-63500000D01*
X101480000Y-93500000D01*
X86480000Y-93500000D01*
X86480000Y-63500000D01*
D12*
X99514819Y-72540475D02*
X98514819Y-72540475D01*
X98514819Y-72540475D02*
X99514819Y-71969047D01*
X99514819Y-71969047D02*
X98514819Y-71969047D01*
X98514819Y-71302380D02*
X98514819Y-71111904D01*
X98514819Y-71111904D02*
X98562438Y-71016666D01*
X98562438Y-71016666D02*
X98657676Y-70921428D01*
X98657676Y-70921428D02*
X98848152Y-70873809D01*
X98848152Y-70873809D02*
X99181485Y-70873809D01*
X99181485Y-70873809D02*
X99371961Y-70921428D01*
X99371961Y-70921428D02*
X99467200Y-71016666D01*
X99467200Y-71016666D02*
X99514819Y-71111904D01*
X99514819Y-71111904D02*
X99514819Y-71302380D01*
X99514819Y-71302380D02*
X99467200Y-71397618D01*
X99467200Y-71397618D02*
X99371961Y-71492856D01*
X99371961Y-71492856D02*
X99181485Y-71540475D01*
X99181485Y-71540475D02*
X98848152Y-71540475D01*
X98848152Y-71540475D02*
X98657676Y-71492856D01*
X98657676Y-71492856D02*
X98562438Y-71397618D01*
X98562438Y-71397618D02*
X98514819Y-71302380D01*
X99229104Y-69730951D02*
X99229104Y-69254761D01*
X99514819Y-69826189D02*
X98514819Y-69492856D01*
X98514819Y-69492856D02*
X99514819Y-69159523D01*
X99514819Y-68826189D02*
X98514819Y-68826189D01*
X98514819Y-68826189D02*
X99229104Y-68492856D01*
X99229104Y-68492856D02*
X98514819Y-68159523D01*
X98514819Y-68159523D02*
X99514819Y-68159523D01*
X99514819Y-67683332D02*
X98514819Y-67683332D01*
X98514819Y-67683332D02*
X98514819Y-67302380D01*
X98514819Y-67302380D02*
X98562438Y-67207142D01*
X98562438Y-67207142D02*
X98610057Y-67159523D01*
X98610057Y-67159523D02*
X98705295Y-67111904D01*
X98705295Y-67111904D02*
X98848152Y-67111904D01*
X98848152Y-67111904D02*
X98943390Y-67159523D01*
X98943390Y-67159523D02*
X98991009Y-67207142D01*
X98991009Y-67207142D02*
X99038628Y-67302380D01*
X99038628Y-67302380D02*
X99038628Y-67683332D01*
D11*
X71966028Y-135674285D02*
X71966028Y-135388571D01*
X71966028Y-135388571D02*
X72037457Y-135245714D01*
X72037457Y-135245714D02*
X72180314Y-135102857D01*
X72180314Y-135102857D02*
X72466028Y-135031428D01*
X72466028Y-135031428D02*
X72966028Y-135031428D01*
X72966028Y-135031428D02*
X73251742Y-135102857D01*
X73251742Y-135102857D02*
X73394600Y-135245714D01*
X73394600Y-135245714D02*
X73466028Y-135388571D01*
X73466028Y-135388571D02*
X73466028Y-135674285D01*
X73466028Y-135674285D02*
X73394600Y-135817143D01*
X73394600Y-135817143D02*
X73251742Y-135960000D01*
X73251742Y-135960000D02*
X72966028Y-136031428D01*
X72966028Y-136031428D02*
X72466028Y-136031428D01*
X72466028Y-136031428D02*
X72180314Y-135960000D01*
X72180314Y-135960000D02*
X72037457Y-135817143D01*
X72037457Y-135817143D02*
X71966028Y-135674285D01*
X73466028Y-134388571D02*
X71966028Y-134388571D01*
X71966028Y-134388571D02*
X71966028Y-133817142D01*
X71966028Y-133817142D02*
X72037457Y-133674285D01*
X72037457Y-133674285D02*
X72108885Y-133602856D01*
X72108885Y-133602856D02*
X72251742Y-133531428D01*
X72251742Y-133531428D02*
X72466028Y-133531428D01*
X72466028Y-133531428D02*
X72608885Y-133602856D01*
X72608885Y-133602856D02*
X72680314Y-133674285D01*
X72680314Y-133674285D02*
X72751742Y-133817142D01*
X72751742Y-133817142D02*
X72751742Y-134388571D01*
X71966028Y-133102856D02*
X71966028Y-132245714D01*
X73466028Y-132674285D02*
X71966028Y-132674285D01*
X71966028Y-131459999D02*
X71966028Y-131174285D01*
X71966028Y-131174285D02*
X72037457Y-131031428D01*
X72037457Y-131031428D02*
X72180314Y-130888571D01*
X72180314Y-130888571D02*
X72466028Y-130817142D01*
X72466028Y-130817142D02*
X72966028Y-130817142D01*
X72966028Y-130817142D02*
X73251742Y-130888571D01*
X73251742Y-130888571D02*
X73394600Y-131031428D01*
X73394600Y-131031428D02*
X73466028Y-131174285D01*
X73466028Y-131174285D02*
X73466028Y-131459999D01*
X73466028Y-131459999D02*
X73394600Y-131602857D01*
X73394600Y-131602857D02*
X73251742Y-131745714D01*
X73251742Y-131745714D02*
X72966028Y-131817142D01*
X72966028Y-131817142D02*
X72466028Y-131817142D01*
X72466028Y-131817142D02*
X72180314Y-131745714D01*
X72180314Y-131745714D02*
X72037457Y-131602857D01*
X72037457Y-131602857D02*
X71966028Y-131459999D01*
X73466028Y-129031428D02*
X71966028Y-129031428D01*
X71966028Y-129031428D02*
X71966028Y-128459999D01*
X71966028Y-128459999D02*
X72037457Y-128317142D01*
X72037457Y-128317142D02*
X72108885Y-128245713D01*
X72108885Y-128245713D02*
X72251742Y-128174285D01*
X72251742Y-128174285D02*
X72466028Y-128174285D01*
X72466028Y-128174285D02*
X72608885Y-128245713D01*
X72608885Y-128245713D02*
X72680314Y-128317142D01*
X72680314Y-128317142D02*
X72751742Y-128459999D01*
X72751742Y-128459999D02*
X72751742Y-129031428D01*
X73466028Y-127531428D02*
X71966028Y-127531428D01*
X73466028Y-126888571D02*
X72680314Y-126888571D01*
X72680314Y-126888571D02*
X72537457Y-126959999D01*
X72537457Y-126959999D02*
X72466028Y-127102856D01*
X72466028Y-127102856D02*
X72466028Y-127317142D01*
X72466028Y-127317142D02*
X72537457Y-127459999D01*
X72537457Y-127459999D02*
X72608885Y-127531428D01*
X73466028Y-125959999D02*
X73394600Y-126102856D01*
X73394600Y-126102856D02*
X73323171Y-126174285D01*
X73323171Y-126174285D02*
X73180314Y-126245713D01*
X73180314Y-126245713D02*
X72751742Y-126245713D01*
X72751742Y-126245713D02*
X72608885Y-126174285D01*
X72608885Y-126174285D02*
X72537457Y-126102856D01*
X72537457Y-126102856D02*
X72466028Y-125959999D01*
X72466028Y-125959999D02*
X72466028Y-125745713D01*
X72466028Y-125745713D02*
X72537457Y-125602856D01*
X72537457Y-125602856D02*
X72608885Y-125531428D01*
X72608885Y-125531428D02*
X72751742Y-125459999D01*
X72751742Y-125459999D02*
X73180314Y-125459999D01*
X73180314Y-125459999D02*
X73323171Y-125531428D01*
X73323171Y-125531428D02*
X73394600Y-125602856D01*
X73394600Y-125602856D02*
X73466028Y-125745713D01*
X73466028Y-125745713D02*
X73466028Y-125959999D01*
X72466028Y-125031427D02*
X72466028Y-124459999D01*
X71966028Y-124817142D02*
X73251742Y-124817142D01*
X73251742Y-124817142D02*
X73394600Y-124745713D01*
X73394600Y-124745713D02*
X73466028Y-124602856D01*
X73466028Y-124602856D02*
X73466028Y-124459999D01*
X73466028Y-123745713D02*
X73394600Y-123888570D01*
X73394600Y-123888570D02*
X73323171Y-123959999D01*
X73323171Y-123959999D02*
X73180314Y-124031427D01*
X73180314Y-124031427D02*
X72751742Y-124031427D01*
X72751742Y-124031427D02*
X72608885Y-123959999D01*
X72608885Y-123959999D02*
X72537457Y-123888570D01*
X72537457Y-123888570D02*
X72466028Y-123745713D01*
X72466028Y-123745713D02*
X72466028Y-123531427D01*
X72466028Y-123531427D02*
X72537457Y-123388570D01*
X72537457Y-123388570D02*
X72608885Y-123317142D01*
X72608885Y-123317142D02*
X72751742Y-123245713D01*
X72751742Y-123245713D02*
X73180314Y-123245713D01*
X73180314Y-123245713D02*
X73323171Y-123317142D01*
X73323171Y-123317142D02*
X73394600Y-123388570D01*
X73394600Y-123388570D02*
X73466028Y-123531427D01*
X73466028Y-123531427D02*
X73466028Y-123745713D01*
X73466028Y-121959999D02*
X71966028Y-121959999D01*
X73394600Y-121959999D02*
X73466028Y-122102856D01*
X73466028Y-122102856D02*
X73466028Y-122388570D01*
X73466028Y-122388570D02*
X73394600Y-122531427D01*
X73394600Y-122531427D02*
X73323171Y-122602856D01*
X73323171Y-122602856D02*
X73180314Y-122674284D01*
X73180314Y-122674284D02*
X72751742Y-122674284D01*
X72751742Y-122674284D02*
X72608885Y-122602856D01*
X72608885Y-122602856D02*
X72537457Y-122531427D01*
X72537457Y-122531427D02*
X72466028Y-122388570D01*
X72466028Y-122388570D02*
X72466028Y-122102856D01*
X72466028Y-122102856D02*
X72537457Y-121959999D01*
X73394600Y-120674284D02*
X73466028Y-120817141D01*
X73466028Y-120817141D02*
X73466028Y-121102856D01*
X73466028Y-121102856D02*
X73394600Y-121245713D01*
X73394600Y-121245713D02*
X73251742Y-121317141D01*
X73251742Y-121317141D02*
X72680314Y-121317141D01*
X72680314Y-121317141D02*
X72537457Y-121245713D01*
X72537457Y-121245713D02*
X72466028Y-121102856D01*
X72466028Y-121102856D02*
X72466028Y-120817141D01*
X72466028Y-120817141D02*
X72537457Y-120674284D01*
X72537457Y-120674284D02*
X72680314Y-120602856D01*
X72680314Y-120602856D02*
X72823171Y-120602856D01*
X72823171Y-120602856D02*
X72966028Y-121317141D01*
X72466028Y-120174284D02*
X72466028Y-119602856D01*
X71966028Y-119959999D02*
X73251742Y-119959999D01*
X73251742Y-119959999D02*
X73394600Y-119888570D01*
X73394600Y-119888570D02*
X73466028Y-119745713D01*
X73466028Y-119745713D02*
X73466028Y-119602856D01*
X73394600Y-118531427D02*
X73466028Y-118674284D01*
X73466028Y-118674284D02*
X73466028Y-118959999D01*
X73466028Y-118959999D02*
X73394600Y-119102856D01*
X73394600Y-119102856D02*
X73251742Y-119174284D01*
X73251742Y-119174284D02*
X72680314Y-119174284D01*
X72680314Y-119174284D02*
X72537457Y-119102856D01*
X72537457Y-119102856D02*
X72466028Y-118959999D01*
X72466028Y-118959999D02*
X72466028Y-118674284D01*
X72466028Y-118674284D02*
X72537457Y-118531427D01*
X72537457Y-118531427D02*
X72680314Y-118459999D01*
X72680314Y-118459999D02*
X72823171Y-118459999D01*
X72823171Y-118459999D02*
X72966028Y-119174284D01*
X73394600Y-117174285D02*
X73466028Y-117317142D01*
X73466028Y-117317142D02*
X73466028Y-117602856D01*
X73466028Y-117602856D02*
X73394600Y-117745713D01*
X73394600Y-117745713D02*
X73323171Y-117817142D01*
X73323171Y-117817142D02*
X73180314Y-117888570D01*
X73180314Y-117888570D02*
X72751742Y-117888570D01*
X72751742Y-117888570D02*
X72608885Y-117817142D01*
X72608885Y-117817142D02*
X72537457Y-117745713D01*
X72537457Y-117745713D02*
X72466028Y-117602856D01*
X72466028Y-117602856D02*
X72466028Y-117317142D01*
X72466028Y-117317142D02*
X72537457Y-117174285D01*
X72466028Y-116745713D02*
X72466028Y-116174285D01*
X71966028Y-116531428D02*
X73251742Y-116531428D01*
X73251742Y-116531428D02*
X73394600Y-116459999D01*
X73394600Y-116459999D02*
X73466028Y-116317142D01*
X73466028Y-116317142D02*
X73466028Y-116174285D01*
X73466028Y-115674285D02*
X72466028Y-115674285D01*
X71966028Y-115674285D02*
X72037457Y-115745713D01*
X72037457Y-115745713D02*
X72108885Y-115674285D01*
X72108885Y-115674285D02*
X72037457Y-115602856D01*
X72037457Y-115602856D02*
X71966028Y-115674285D01*
X71966028Y-115674285D02*
X72108885Y-115674285D01*
X73466028Y-114745713D02*
X73394600Y-114888570D01*
X73394600Y-114888570D02*
X73323171Y-114959999D01*
X73323171Y-114959999D02*
X73180314Y-115031427D01*
X73180314Y-115031427D02*
X72751742Y-115031427D01*
X72751742Y-115031427D02*
X72608885Y-114959999D01*
X72608885Y-114959999D02*
X72537457Y-114888570D01*
X72537457Y-114888570D02*
X72466028Y-114745713D01*
X72466028Y-114745713D02*
X72466028Y-114531427D01*
X72466028Y-114531427D02*
X72537457Y-114388570D01*
X72537457Y-114388570D02*
X72608885Y-114317142D01*
X72608885Y-114317142D02*
X72751742Y-114245713D01*
X72751742Y-114245713D02*
X73180314Y-114245713D01*
X73180314Y-114245713D02*
X73323171Y-114317142D01*
X73323171Y-114317142D02*
X73394600Y-114388570D01*
X73394600Y-114388570D02*
X73466028Y-114531427D01*
X73466028Y-114531427D02*
X73466028Y-114745713D01*
X72466028Y-113602856D02*
X73466028Y-113602856D01*
X72608885Y-113602856D02*
X72537457Y-113531427D01*
X72537457Y-113531427D02*
X72466028Y-113388570D01*
X72466028Y-113388570D02*
X72466028Y-113174284D01*
X72466028Y-113174284D02*
X72537457Y-113031427D01*
X72537457Y-113031427D02*
X72680314Y-112959999D01*
X72680314Y-112959999D02*
X73466028Y-112959999D01*
D13*
X65936895Y-135070477D02*
X65936895Y-135451429D01*
X65936895Y-135451429D02*
X65136895Y-135451429D01*
X65517847Y-134803810D02*
X65517847Y-134537144D01*
X65936895Y-134422858D02*
X65936895Y-134803810D01*
X65936895Y-134803810D02*
X65136895Y-134803810D01*
X65136895Y-134803810D02*
X65136895Y-134422858D01*
X65403561Y-134080000D02*
X65936895Y-134080000D01*
X65479752Y-134080000D02*
X65441657Y-134041905D01*
X65441657Y-134041905D02*
X65403561Y-133965715D01*
X65403561Y-133965715D02*
X65403561Y-133851429D01*
X65403561Y-133851429D02*
X65441657Y-133775238D01*
X65441657Y-133775238D02*
X65517847Y-133737143D01*
X65517847Y-133737143D02*
X65936895Y-133737143D01*
X65898800Y-133394286D02*
X65936895Y-133318095D01*
X65936895Y-133318095D02*
X65936895Y-133165714D01*
X65936895Y-133165714D02*
X65898800Y-133089524D01*
X65898800Y-133089524D02*
X65822609Y-133051428D01*
X65822609Y-133051428D02*
X65784514Y-133051428D01*
X65784514Y-133051428D02*
X65708323Y-133089524D01*
X65708323Y-133089524D02*
X65670228Y-133165714D01*
X65670228Y-133165714D02*
X65670228Y-133280000D01*
X65670228Y-133280000D02*
X65632133Y-133356190D01*
X65632133Y-133356190D02*
X65555942Y-133394286D01*
X65555942Y-133394286D02*
X65517847Y-133394286D01*
X65517847Y-133394286D02*
X65441657Y-133356190D01*
X65441657Y-133356190D02*
X65403561Y-133280000D01*
X65403561Y-133280000D02*
X65403561Y-133165714D01*
X65403561Y-133165714D02*
X65441657Y-133089524D01*
X65517847Y-132708571D02*
X65517847Y-132441905D01*
X65936895Y-132327619D02*
X65936895Y-132708571D01*
X65936895Y-132708571D02*
X65136895Y-132708571D01*
X65136895Y-132708571D02*
X65136895Y-132327619D01*
X65213085Y-131413333D02*
X65174990Y-131375237D01*
X65174990Y-131375237D02*
X65136895Y-131299047D01*
X65136895Y-131299047D02*
X65136895Y-131108571D01*
X65136895Y-131108571D02*
X65174990Y-131032380D01*
X65174990Y-131032380D02*
X65213085Y-130994285D01*
X65213085Y-130994285D02*
X65289276Y-130956190D01*
X65289276Y-130956190D02*
X65365466Y-130956190D01*
X65365466Y-130956190D02*
X65479752Y-130994285D01*
X65479752Y-130994285D02*
X65936895Y-131451428D01*
X65936895Y-131451428D02*
X65936895Y-130956190D01*
X65136895Y-130460951D02*
X65136895Y-130384761D01*
X65136895Y-130384761D02*
X65174990Y-130308570D01*
X65174990Y-130308570D02*
X65213085Y-130270475D01*
X65213085Y-130270475D02*
X65289276Y-130232380D01*
X65289276Y-130232380D02*
X65441657Y-130194285D01*
X65441657Y-130194285D02*
X65632133Y-130194285D01*
X65632133Y-130194285D02*
X65784514Y-130232380D01*
X65784514Y-130232380D02*
X65860704Y-130270475D01*
X65860704Y-130270475D02*
X65898800Y-130308570D01*
X65898800Y-130308570D02*
X65936895Y-130384761D01*
X65936895Y-130384761D02*
X65936895Y-130460951D01*
X65936895Y-130460951D02*
X65898800Y-130537142D01*
X65898800Y-130537142D02*
X65860704Y-130575237D01*
X65860704Y-130575237D02*
X65784514Y-130613332D01*
X65784514Y-130613332D02*
X65632133Y-130651428D01*
X65632133Y-130651428D02*
X65441657Y-130651428D01*
X65441657Y-130651428D02*
X65289276Y-130613332D01*
X65289276Y-130613332D02*
X65213085Y-130575237D01*
X65213085Y-130575237D02*
X65174990Y-130537142D01*
X65174990Y-130537142D02*
X65136895Y-130460951D01*
X65213085Y-129889523D02*
X65174990Y-129851427D01*
X65174990Y-129851427D02*
X65136895Y-129775237D01*
X65136895Y-129775237D02*
X65136895Y-129584761D01*
X65136895Y-129584761D02*
X65174990Y-129508570D01*
X65174990Y-129508570D02*
X65213085Y-129470475D01*
X65213085Y-129470475D02*
X65289276Y-129432380D01*
X65289276Y-129432380D02*
X65365466Y-129432380D01*
X65365466Y-129432380D02*
X65479752Y-129470475D01*
X65479752Y-129470475D02*
X65936895Y-129927618D01*
X65936895Y-129927618D02*
X65936895Y-129432380D01*
X65136895Y-128746665D02*
X65136895Y-128899046D01*
X65136895Y-128899046D02*
X65174990Y-128975237D01*
X65174990Y-128975237D02*
X65213085Y-129013332D01*
X65213085Y-129013332D02*
X65327371Y-129089522D01*
X65327371Y-129089522D02*
X65479752Y-129127618D01*
X65479752Y-129127618D02*
X65784514Y-129127618D01*
X65784514Y-129127618D02*
X65860704Y-129089522D01*
X65860704Y-129089522D02*
X65898800Y-129051427D01*
X65898800Y-129051427D02*
X65936895Y-128975237D01*
X65936895Y-128975237D02*
X65936895Y-128822856D01*
X65936895Y-128822856D02*
X65898800Y-128746665D01*
X65898800Y-128746665D02*
X65860704Y-128708570D01*
X65860704Y-128708570D02*
X65784514Y-128670475D01*
X65784514Y-128670475D02*
X65594038Y-128670475D01*
X65594038Y-128670475D02*
X65517847Y-128708570D01*
X65517847Y-128708570D02*
X65479752Y-128746665D01*
X65479752Y-128746665D02*
X65441657Y-128822856D01*
X65441657Y-128822856D02*
X65441657Y-128975237D01*
X65441657Y-128975237D02*
X65479752Y-129051427D01*
X65479752Y-129051427D02*
X65517847Y-129089522D01*
X65517847Y-129089522D02*
X65594038Y-129127618D01*
D11*
X61706286Y-98115266D02*
X62468191Y-98115266D01*
X62087238Y-98496219D02*
X62087238Y-97734314D01*
X63420571Y-97496219D02*
X62944381Y-97496219D01*
X62944381Y-97496219D02*
X62896762Y-97972409D01*
X62896762Y-97972409D02*
X62944381Y-97924790D01*
X62944381Y-97924790D02*
X63039619Y-97877171D01*
X63039619Y-97877171D02*
X63277714Y-97877171D01*
X63277714Y-97877171D02*
X63372952Y-97924790D01*
X63372952Y-97924790D02*
X63420571Y-97972409D01*
X63420571Y-97972409D02*
X63468190Y-98067647D01*
X63468190Y-98067647D02*
X63468190Y-98305742D01*
X63468190Y-98305742D02*
X63420571Y-98400980D01*
X63420571Y-98400980D02*
X63372952Y-98448600D01*
X63372952Y-98448600D02*
X63277714Y-98496219D01*
X63277714Y-98496219D02*
X63039619Y-98496219D01*
X63039619Y-98496219D02*
X62944381Y-98448600D01*
X62944381Y-98448600D02*
X62896762Y-98400980D01*
X63753905Y-97496219D02*
X64087238Y-98496219D01*
X64087238Y-98496219D02*
X64420571Y-97496219D01*
D12*
X113754819Y-74016665D02*
X114564342Y-74016665D01*
X114564342Y-74016665D02*
X114659580Y-73969046D01*
X114659580Y-73969046D02*
X114707200Y-73921427D01*
X114707200Y-73921427D02*
X114754819Y-73826189D01*
X114754819Y-73826189D02*
X114754819Y-73635713D01*
X114754819Y-73635713D02*
X114707200Y-73540475D01*
X114707200Y-73540475D02*
X114659580Y-73492856D01*
X114659580Y-73492856D02*
X114564342Y-73445237D01*
X114564342Y-73445237D02*
X113754819Y-73445237D01*
X114754819Y-72969046D02*
X113754819Y-72969046D01*
X113754819Y-72969046D02*
X114754819Y-72397618D01*
X114754819Y-72397618D02*
X113754819Y-72397618D01*
X114754819Y-71921427D02*
X113754819Y-71921427D01*
X113754819Y-71588094D02*
X113754819Y-71016666D01*
X114754819Y-71302380D02*
X113754819Y-71302380D01*
X114278628Y-70492856D02*
X114754819Y-70492856D01*
X113754819Y-70826189D02*
X114278628Y-70492856D01*
X114278628Y-70492856D02*
X113754819Y-70159523D01*
X114373866Y-69826189D02*
X114373866Y-69064285D01*
X113802438Y-68064285D02*
X113754819Y-68159523D01*
X113754819Y-68159523D02*
X113754819Y-68302380D01*
X113754819Y-68302380D02*
X113802438Y-68445237D01*
X113802438Y-68445237D02*
X113897676Y-68540475D01*
X113897676Y-68540475D02*
X113992914Y-68588094D01*
X113992914Y-68588094D02*
X114183390Y-68635713D01*
X114183390Y-68635713D02*
X114326247Y-68635713D01*
X114326247Y-68635713D02*
X114516723Y-68588094D01*
X114516723Y-68588094D02*
X114611961Y-68540475D01*
X114611961Y-68540475D02*
X114707200Y-68445237D01*
X114707200Y-68445237D02*
X114754819Y-68302380D01*
X114754819Y-68302380D02*
X114754819Y-68207142D01*
X114754819Y-68207142D02*
X114707200Y-68064285D01*
X114707200Y-68064285D02*
X114659580Y-68016666D01*
X114659580Y-68016666D02*
X114326247Y-68016666D01*
X114326247Y-68016666D02*
X114326247Y-68207142D01*
X114469104Y-67635713D02*
X114469104Y-67159523D01*
X114754819Y-67730951D02*
X113754819Y-67397618D01*
X113754819Y-67397618D02*
X114754819Y-67064285D01*
X114754819Y-66730951D02*
X113754819Y-66730951D01*
X114754819Y-66254761D02*
X113754819Y-66254761D01*
X113754819Y-66254761D02*
X114754819Y-65683333D01*
X114754819Y-65683333D02*
X113754819Y-65683333D01*
D11*
X87082219Y-100536190D02*
X87082219Y-100345714D01*
X87082219Y-100345714D02*
X87129838Y-100250476D01*
X87129838Y-100250476D02*
X87225076Y-100155238D01*
X87225076Y-100155238D02*
X87415552Y-100107619D01*
X87415552Y-100107619D02*
X87748885Y-100107619D01*
X87748885Y-100107619D02*
X87939361Y-100155238D01*
X87939361Y-100155238D02*
X88034600Y-100250476D01*
X88034600Y-100250476D02*
X88082219Y-100345714D01*
X88082219Y-100345714D02*
X88082219Y-100536190D01*
X88082219Y-100536190D02*
X88034600Y-100631428D01*
X88034600Y-100631428D02*
X87939361Y-100726666D01*
X87939361Y-100726666D02*
X87748885Y-100774285D01*
X87748885Y-100774285D02*
X87415552Y-100774285D01*
X87415552Y-100774285D02*
X87225076Y-100726666D01*
X87225076Y-100726666D02*
X87129838Y-100631428D01*
X87129838Y-100631428D02*
X87082219Y-100536190D01*
X87082219Y-99679047D02*
X87891742Y-99679047D01*
X87891742Y-99679047D02*
X87986980Y-99631428D01*
X87986980Y-99631428D02*
X88034600Y-99583809D01*
X88034600Y-99583809D02*
X88082219Y-99488571D01*
X88082219Y-99488571D02*
X88082219Y-99298095D01*
X88082219Y-99298095D02*
X88034600Y-99202857D01*
X88034600Y-99202857D02*
X87986980Y-99155238D01*
X87986980Y-99155238D02*
X87891742Y-99107619D01*
X87891742Y-99107619D02*
X87082219Y-99107619D01*
X87082219Y-98774285D02*
X87082219Y-98202857D01*
X88082219Y-98488571D02*
X87082219Y-98488571D01*
X87082219Y-97964761D02*
X87082219Y-97345714D01*
X87082219Y-97345714D02*
X87463171Y-97679047D01*
X87463171Y-97679047D02*
X87463171Y-97536190D01*
X87463171Y-97536190D02*
X87510790Y-97440952D01*
X87510790Y-97440952D02*
X87558409Y-97393333D01*
X87558409Y-97393333D02*
X87653647Y-97345714D01*
X87653647Y-97345714D02*
X87891742Y-97345714D01*
X87891742Y-97345714D02*
X87986980Y-97393333D01*
X87986980Y-97393333D02*
X88034600Y-97440952D01*
X88034600Y-97440952D02*
X88082219Y-97536190D01*
X88082219Y-97536190D02*
X88082219Y-97821904D01*
X88082219Y-97821904D02*
X88034600Y-97917142D01*
X88034600Y-97917142D02*
X87986980Y-97964761D01*
X102322219Y-100536190D02*
X102322219Y-100345714D01*
X102322219Y-100345714D02*
X102369838Y-100250476D01*
X102369838Y-100250476D02*
X102465076Y-100155238D01*
X102465076Y-100155238D02*
X102655552Y-100107619D01*
X102655552Y-100107619D02*
X102988885Y-100107619D01*
X102988885Y-100107619D02*
X103179361Y-100155238D01*
X103179361Y-100155238D02*
X103274600Y-100250476D01*
X103274600Y-100250476D02*
X103322219Y-100345714D01*
X103322219Y-100345714D02*
X103322219Y-100536190D01*
X103322219Y-100536190D02*
X103274600Y-100631428D01*
X103274600Y-100631428D02*
X103179361Y-100726666D01*
X103179361Y-100726666D02*
X102988885Y-100774285D01*
X102988885Y-100774285D02*
X102655552Y-100774285D01*
X102655552Y-100774285D02*
X102465076Y-100726666D01*
X102465076Y-100726666D02*
X102369838Y-100631428D01*
X102369838Y-100631428D02*
X102322219Y-100536190D01*
X102322219Y-99679047D02*
X103131742Y-99679047D01*
X103131742Y-99679047D02*
X103226980Y-99631428D01*
X103226980Y-99631428D02*
X103274600Y-99583809D01*
X103274600Y-99583809D02*
X103322219Y-99488571D01*
X103322219Y-99488571D02*
X103322219Y-99298095D01*
X103322219Y-99298095D02*
X103274600Y-99202857D01*
X103274600Y-99202857D02*
X103226980Y-99155238D01*
X103226980Y-99155238D02*
X103131742Y-99107619D01*
X103131742Y-99107619D02*
X102322219Y-99107619D01*
X102322219Y-98774285D02*
X102322219Y-98202857D01*
X103322219Y-98488571D02*
X102322219Y-98488571D01*
X102417457Y-97917142D02*
X102369838Y-97869523D01*
X102369838Y-97869523D02*
X102322219Y-97774285D01*
X102322219Y-97774285D02*
X102322219Y-97536190D01*
X102322219Y-97536190D02*
X102369838Y-97440952D01*
X102369838Y-97440952D02*
X102417457Y-97393333D01*
X102417457Y-97393333D02*
X102512695Y-97345714D01*
X102512695Y-97345714D02*
X102607933Y-97345714D01*
X102607933Y-97345714D02*
X102750790Y-97393333D01*
X102750790Y-97393333D02*
X103322219Y-97964761D01*
X103322219Y-97964761D02*
X103322219Y-97345714D01*
X117562219Y-100536190D02*
X117562219Y-100345714D01*
X117562219Y-100345714D02*
X117609838Y-100250476D01*
X117609838Y-100250476D02*
X117705076Y-100155238D01*
X117705076Y-100155238D02*
X117895552Y-100107619D01*
X117895552Y-100107619D02*
X118228885Y-100107619D01*
X118228885Y-100107619D02*
X118419361Y-100155238D01*
X118419361Y-100155238D02*
X118514600Y-100250476D01*
X118514600Y-100250476D02*
X118562219Y-100345714D01*
X118562219Y-100345714D02*
X118562219Y-100536190D01*
X118562219Y-100536190D02*
X118514600Y-100631428D01*
X118514600Y-100631428D02*
X118419361Y-100726666D01*
X118419361Y-100726666D02*
X118228885Y-100774285D01*
X118228885Y-100774285D02*
X117895552Y-100774285D01*
X117895552Y-100774285D02*
X117705076Y-100726666D01*
X117705076Y-100726666D02*
X117609838Y-100631428D01*
X117609838Y-100631428D02*
X117562219Y-100536190D01*
X117562219Y-99679047D02*
X118371742Y-99679047D01*
X118371742Y-99679047D02*
X118466980Y-99631428D01*
X118466980Y-99631428D02*
X118514600Y-99583809D01*
X118514600Y-99583809D02*
X118562219Y-99488571D01*
X118562219Y-99488571D02*
X118562219Y-99298095D01*
X118562219Y-99298095D02*
X118514600Y-99202857D01*
X118514600Y-99202857D02*
X118466980Y-99155238D01*
X118466980Y-99155238D02*
X118371742Y-99107619D01*
X118371742Y-99107619D02*
X117562219Y-99107619D01*
X117562219Y-98774285D02*
X117562219Y-98202857D01*
X118562219Y-98488571D02*
X117562219Y-98488571D01*
X118562219Y-97345714D02*
X118562219Y-97917142D01*
X118562219Y-97631428D02*
X117562219Y-97631428D01*
X117562219Y-97631428D02*
X117705076Y-97726666D01*
X117705076Y-97726666D02*
X117800314Y-97821904D01*
X117800314Y-97821904D02*
X117847933Y-97917142D01*
D12*
X80988819Y-56387904D02*
X81798342Y-56387904D01*
X81798342Y-56387904D02*
X81893580Y-56340285D01*
X81893580Y-56340285D02*
X81941200Y-56292666D01*
X81941200Y-56292666D02*
X81988819Y-56197428D01*
X81988819Y-56197428D02*
X81988819Y-56006952D01*
X81988819Y-56006952D02*
X81941200Y-55911714D01*
X81941200Y-55911714D02*
X81893580Y-55864095D01*
X81893580Y-55864095D02*
X81798342Y-55816476D01*
X81798342Y-55816476D02*
X80988819Y-55816476D01*
X81988819Y-54816476D02*
X81988819Y-55387904D01*
X81988819Y-55102190D02*
X80988819Y-55102190D01*
X80988819Y-55102190D02*
X81131676Y-55197428D01*
X81131676Y-55197428D02*
X81226914Y-55292666D01*
X81226914Y-55292666D02*
X81274533Y-55387904D01*
X60674819Y-82271523D02*
X61389104Y-82271523D01*
X61389104Y-82271523D02*
X61531961Y-82319142D01*
X61531961Y-82319142D02*
X61627200Y-82414380D01*
X61627200Y-82414380D02*
X61674819Y-82557237D01*
X61674819Y-82557237D02*
X61674819Y-82652475D01*
X61674819Y-81271523D02*
X61674819Y-81842951D01*
X61674819Y-81557237D02*
X60674819Y-81557237D01*
X60674819Y-81557237D02*
X60817676Y-81652475D01*
X60817676Y-81652475D02*
X60912914Y-81747713D01*
X60912914Y-81747713D02*
X60960533Y-81842951D01*
X60674819Y-80938189D02*
X60674819Y-80319142D01*
X60674819Y-80319142D02*
X61055771Y-80652475D01*
X61055771Y-80652475D02*
X61055771Y-80509618D01*
X61055771Y-80509618D02*
X61103390Y-80414380D01*
X61103390Y-80414380D02*
X61151009Y-80366761D01*
X61151009Y-80366761D02*
X61246247Y-80319142D01*
X61246247Y-80319142D02*
X61484342Y-80319142D01*
X61484342Y-80319142D02*
X61579580Y-80366761D01*
X61579580Y-80366761D02*
X61627200Y-80414380D01*
X61627200Y-80414380D02*
X61674819Y-80509618D01*
X61674819Y-80509618D02*
X61674819Y-80795332D01*
X61674819Y-80795332D02*
X61627200Y-80890570D01*
X61627200Y-80890570D02*
X61579580Y-80938189D01*
X90184819Y-81738094D02*
X89184819Y-81738094D01*
X89184819Y-81738094D02*
X89184819Y-81499999D01*
X89184819Y-81499999D02*
X89232438Y-81357142D01*
X89232438Y-81357142D02*
X89327676Y-81261904D01*
X89327676Y-81261904D02*
X89422914Y-81214285D01*
X89422914Y-81214285D02*
X89613390Y-81166666D01*
X89613390Y-81166666D02*
X89756247Y-81166666D01*
X89756247Y-81166666D02*
X89946723Y-81214285D01*
X89946723Y-81214285D02*
X90041961Y-81261904D01*
X90041961Y-81261904D02*
X90137200Y-81357142D01*
X90137200Y-81357142D02*
X90184819Y-81499999D01*
X90184819Y-81499999D02*
X90184819Y-81738094D01*
X90184819Y-80214285D02*
X90184819Y-80785713D01*
X90184819Y-80499999D02*
X89184819Y-80499999D01*
X89184819Y-80499999D02*
X89327676Y-80595237D01*
X89327676Y-80595237D02*
X89422914Y-80690475D01*
X89422914Y-80690475D02*
X89470533Y-80785713D01*
X90394819Y-66298094D02*
X89394819Y-66298094D01*
X89394819Y-66298094D02*
X89394819Y-66059999D01*
X89394819Y-66059999D02*
X89442438Y-65917142D01*
X89442438Y-65917142D02*
X89537676Y-65821904D01*
X89537676Y-65821904D02*
X89632914Y-65774285D01*
X89632914Y-65774285D02*
X89823390Y-65726666D01*
X89823390Y-65726666D02*
X89966247Y-65726666D01*
X89966247Y-65726666D02*
X90156723Y-65774285D01*
X90156723Y-65774285D02*
X90251961Y-65821904D01*
X90251961Y-65821904D02*
X90347200Y-65917142D01*
X90347200Y-65917142D02*
X90394819Y-66059999D01*
X90394819Y-66059999D02*
X90394819Y-66298094D01*
X89728152Y-64869523D02*
X90394819Y-64869523D01*
X89347200Y-65107618D02*
X90061485Y-65345713D01*
X90061485Y-65345713D02*
X90061485Y-64726666D01*
X92656819Y-113196666D02*
X92180628Y-113529999D01*
X92656819Y-113768094D02*
X91656819Y-113768094D01*
X91656819Y-113768094D02*
X91656819Y-113387142D01*
X91656819Y-113387142D02*
X91704438Y-113291904D01*
X91704438Y-113291904D02*
X91752057Y-113244285D01*
X91752057Y-113244285D02*
X91847295Y-113196666D01*
X91847295Y-113196666D02*
X91990152Y-113196666D01*
X91990152Y-113196666D02*
X92085390Y-113244285D01*
X92085390Y-113244285D02*
X92133009Y-113291904D01*
X92133009Y-113291904D02*
X92180628Y-113387142D01*
X92180628Y-113387142D02*
X92180628Y-113768094D01*
X92656819Y-112244285D02*
X92656819Y-112815713D01*
X92656819Y-112529999D02*
X91656819Y-112529999D01*
X91656819Y-112529999D02*
X91799676Y-112625237D01*
X91799676Y-112625237D02*
X91894914Y-112720475D01*
X91894914Y-112720475D02*
X91942533Y-112815713D01*
X90370819Y-48680666D02*
X89894628Y-49013999D01*
X90370819Y-49252094D02*
X89370819Y-49252094D01*
X89370819Y-49252094D02*
X89370819Y-48871142D01*
X89370819Y-48871142D02*
X89418438Y-48775904D01*
X89418438Y-48775904D02*
X89466057Y-48728285D01*
X89466057Y-48728285D02*
X89561295Y-48680666D01*
X89561295Y-48680666D02*
X89704152Y-48680666D01*
X89704152Y-48680666D02*
X89799390Y-48728285D01*
X89799390Y-48728285D02*
X89847009Y-48775904D01*
X89847009Y-48775904D02*
X89894628Y-48871142D01*
X89894628Y-48871142D02*
X89894628Y-49252094D01*
X89704152Y-47823523D02*
X90370819Y-47823523D01*
X89323200Y-48061618D02*
X90037485Y-48299713D01*
X90037485Y-48299713D02*
X90037485Y-47680666D01*
X120596819Y-48426666D02*
X120120628Y-48759999D01*
X120596819Y-48998094D02*
X119596819Y-48998094D01*
X119596819Y-48998094D02*
X119596819Y-48617142D01*
X119596819Y-48617142D02*
X119644438Y-48521904D01*
X119644438Y-48521904D02*
X119692057Y-48474285D01*
X119692057Y-48474285D02*
X119787295Y-48426666D01*
X119787295Y-48426666D02*
X119930152Y-48426666D01*
X119930152Y-48426666D02*
X120025390Y-48474285D01*
X120025390Y-48474285D02*
X120073009Y-48521904D01*
X120073009Y-48521904D02*
X120120628Y-48617142D01*
X120120628Y-48617142D02*
X120120628Y-48998094D01*
X119596819Y-47569523D02*
X119596819Y-47759999D01*
X119596819Y-47759999D02*
X119644438Y-47855237D01*
X119644438Y-47855237D02*
X119692057Y-47902856D01*
X119692057Y-47902856D02*
X119834914Y-47998094D01*
X119834914Y-47998094D02*
X120025390Y-48045713D01*
X120025390Y-48045713D02*
X120406342Y-48045713D01*
X120406342Y-48045713D02*
X120501580Y-47998094D01*
X120501580Y-47998094D02*
X120549200Y-47950475D01*
X120549200Y-47950475D02*
X120596819Y-47855237D01*
X120596819Y-47855237D02*
X120596819Y-47664761D01*
X120596819Y-47664761D02*
X120549200Y-47569523D01*
X120549200Y-47569523D02*
X120501580Y-47521904D01*
X120501580Y-47521904D02*
X120406342Y-47474285D01*
X120406342Y-47474285D02*
X120168247Y-47474285D01*
X120168247Y-47474285D02*
X120073009Y-47521904D01*
X120073009Y-47521904D02*
X120025390Y-47569523D01*
X120025390Y-47569523D02*
X119977771Y-47664761D01*
X119977771Y-47664761D02*
X119977771Y-47855237D01*
X119977771Y-47855237D02*
X120025390Y-47950475D01*
X120025390Y-47950475D02*
X120073009Y-47998094D01*
X120073009Y-47998094D02*
X120168247Y-48045713D01*
X58704819Y-46981904D02*
X57704819Y-46981904D01*
X57704819Y-46981904D02*
X58419104Y-46648571D01*
X58419104Y-46648571D02*
X57704819Y-46315238D01*
X57704819Y-46315238D02*
X58704819Y-46315238D01*
X58038152Y-45410476D02*
X58704819Y-45410476D01*
X57657200Y-45648571D02*
X58371485Y-45886666D01*
X58371485Y-45886666D02*
X58371485Y-45267619D01*
X58704819Y-44458095D02*
X58181009Y-44458095D01*
X58181009Y-44458095D02*
X58085771Y-44505714D01*
X58085771Y-44505714D02*
X58038152Y-44600952D01*
X58038152Y-44600952D02*
X58038152Y-44791428D01*
X58038152Y-44791428D02*
X58085771Y-44886666D01*
X58657200Y-44458095D02*
X58704819Y-44553333D01*
X58704819Y-44553333D02*
X58704819Y-44791428D01*
X58704819Y-44791428D02*
X58657200Y-44886666D01*
X58657200Y-44886666D02*
X58561961Y-44934285D01*
X58561961Y-44934285D02*
X58466723Y-44934285D01*
X58466723Y-44934285D02*
X58371485Y-44886666D01*
X58371485Y-44886666D02*
X58323866Y-44791428D01*
X58323866Y-44791428D02*
X58323866Y-44553333D01*
X58323866Y-44553333D02*
X58276247Y-44458095D01*
X105964819Y-66064094D02*
X104964819Y-66064094D01*
X104964819Y-66064094D02*
X104964819Y-65825999D01*
X104964819Y-65825999D02*
X105012438Y-65683142D01*
X105012438Y-65683142D02*
X105107676Y-65587904D01*
X105107676Y-65587904D02*
X105202914Y-65540285D01*
X105202914Y-65540285D02*
X105393390Y-65492666D01*
X105393390Y-65492666D02*
X105536247Y-65492666D01*
X105536247Y-65492666D02*
X105726723Y-65540285D01*
X105726723Y-65540285D02*
X105821961Y-65587904D01*
X105821961Y-65587904D02*
X105917200Y-65683142D01*
X105917200Y-65683142D02*
X105964819Y-65825999D01*
X105964819Y-65825999D02*
X105964819Y-66064094D01*
X104964819Y-64587904D02*
X104964819Y-65064094D01*
X104964819Y-65064094D02*
X105441009Y-65111713D01*
X105441009Y-65111713D02*
X105393390Y-65064094D01*
X105393390Y-65064094D02*
X105345771Y-64968856D01*
X105345771Y-64968856D02*
X105345771Y-64730761D01*
X105345771Y-64730761D02*
X105393390Y-64635523D01*
X105393390Y-64635523D02*
X105441009Y-64587904D01*
X105441009Y-64587904D02*
X105536247Y-64540285D01*
X105536247Y-64540285D02*
X105774342Y-64540285D01*
X105774342Y-64540285D02*
X105869580Y-64587904D01*
X105869580Y-64587904D02*
X105917200Y-64635523D01*
X105917200Y-64635523D02*
X105964819Y-64730761D01*
X105964819Y-64730761D02*
X105964819Y-64968856D01*
X105964819Y-64968856D02*
X105917200Y-65064094D01*
X105917200Y-65064094D02*
X105869580Y-65111713D01*
X105424819Y-81348094D02*
X104424819Y-81348094D01*
X104424819Y-81348094D02*
X104424819Y-81109999D01*
X104424819Y-81109999D02*
X104472438Y-80967142D01*
X104472438Y-80967142D02*
X104567676Y-80871904D01*
X104567676Y-80871904D02*
X104662914Y-80824285D01*
X104662914Y-80824285D02*
X104853390Y-80776666D01*
X104853390Y-80776666D02*
X104996247Y-80776666D01*
X104996247Y-80776666D02*
X105186723Y-80824285D01*
X105186723Y-80824285D02*
X105281961Y-80871904D01*
X105281961Y-80871904D02*
X105377200Y-80967142D01*
X105377200Y-80967142D02*
X105424819Y-81109999D01*
X105424819Y-81109999D02*
X105424819Y-81348094D01*
X104520057Y-80395713D02*
X104472438Y-80348094D01*
X104472438Y-80348094D02*
X104424819Y-80252856D01*
X104424819Y-80252856D02*
X104424819Y-80014761D01*
X104424819Y-80014761D02*
X104472438Y-79919523D01*
X104472438Y-79919523D02*
X104520057Y-79871904D01*
X104520057Y-79871904D02*
X104615295Y-79824285D01*
X104615295Y-79824285D02*
X104710533Y-79824285D01*
X104710533Y-79824285D02*
X104853390Y-79871904D01*
X104853390Y-79871904D02*
X105424819Y-80443332D01*
X105424819Y-80443332D02*
X105424819Y-79824285D01*
X123390819Y-112942666D02*
X122914628Y-113275999D01*
X123390819Y-113514094D02*
X122390819Y-113514094D01*
X122390819Y-113514094D02*
X122390819Y-113133142D01*
X122390819Y-113133142D02*
X122438438Y-113037904D01*
X122438438Y-113037904D02*
X122486057Y-112990285D01*
X122486057Y-112990285D02*
X122581295Y-112942666D01*
X122581295Y-112942666D02*
X122724152Y-112942666D01*
X122724152Y-112942666D02*
X122819390Y-112990285D01*
X122819390Y-112990285D02*
X122867009Y-113037904D01*
X122867009Y-113037904D02*
X122914628Y-113133142D01*
X122914628Y-113133142D02*
X122914628Y-113514094D01*
X122390819Y-112609332D02*
X122390819Y-111990285D01*
X122390819Y-111990285D02*
X122771771Y-112323618D01*
X122771771Y-112323618D02*
X122771771Y-112180761D01*
X122771771Y-112180761D02*
X122819390Y-112085523D01*
X122819390Y-112085523D02*
X122867009Y-112037904D01*
X122867009Y-112037904D02*
X122962247Y-111990285D01*
X122962247Y-111990285D02*
X123200342Y-111990285D01*
X123200342Y-111990285D02*
X123295580Y-112037904D01*
X123295580Y-112037904D02*
X123343200Y-112085523D01*
X123343200Y-112085523D02*
X123390819Y-112180761D01*
X123390819Y-112180761D02*
X123390819Y-112466475D01*
X123390819Y-112466475D02*
X123343200Y-112561713D01*
X123343200Y-112561713D02*
X123295580Y-112609332D01*
X121184819Y-66048094D02*
X120184819Y-66048094D01*
X120184819Y-66048094D02*
X120184819Y-65809999D01*
X120184819Y-65809999D02*
X120232438Y-65667142D01*
X120232438Y-65667142D02*
X120327676Y-65571904D01*
X120327676Y-65571904D02*
X120422914Y-65524285D01*
X120422914Y-65524285D02*
X120613390Y-65476666D01*
X120613390Y-65476666D02*
X120756247Y-65476666D01*
X120756247Y-65476666D02*
X120946723Y-65524285D01*
X120946723Y-65524285D02*
X121041961Y-65571904D01*
X121041961Y-65571904D02*
X121137200Y-65667142D01*
X121137200Y-65667142D02*
X121184819Y-65809999D01*
X121184819Y-65809999D02*
X121184819Y-66048094D01*
X120184819Y-64619523D02*
X120184819Y-64809999D01*
X120184819Y-64809999D02*
X120232438Y-64905237D01*
X120232438Y-64905237D02*
X120280057Y-64952856D01*
X120280057Y-64952856D02*
X120422914Y-65048094D01*
X120422914Y-65048094D02*
X120613390Y-65095713D01*
X120613390Y-65095713D02*
X120994342Y-65095713D01*
X120994342Y-65095713D02*
X121089580Y-65048094D01*
X121089580Y-65048094D02*
X121137200Y-65000475D01*
X121137200Y-65000475D02*
X121184819Y-64905237D01*
X121184819Y-64905237D02*
X121184819Y-64714761D01*
X121184819Y-64714761D02*
X121137200Y-64619523D01*
X121137200Y-64619523D02*
X121089580Y-64571904D01*
X121089580Y-64571904D02*
X120994342Y-64524285D01*
X120994342Y-64524285D02*
X120756247Y-64524285D01*
X120756247Y-64524285D02*
X120661009Y-64571904D01*
X120661009Y-64571904D02*
X120613390Y-64619523D01*
X120613390Y-64619523D02*
X120565771Y-64714761D01*
X120565771Y-64714761D02*
X120565771Y-64905237D01*
X120565771Y-64905237D02*
X120613390Y-65000475D01*
X120613390Y-65000475D02*
X120661009Y-65048094D01*
X120661009Y-65048094D02*
X120756247Y-65095713D01*
X81242819Y-107441904D02*
X82052342Y-107441904D01*
X82052342Y-107441904D02*
X82147580Y-107394285D01*
X82147580Y-107394285D02*
X82195200Y-107346666D01*
X82195200Y-107346666D02*
X82242819Y-107251428D01*
X82242819Y-107251428D02*
X82242819Y-107060952D01*
X82242819Y-107060952D02*
X82195200Y-106965714D01*
X82195200Y-106965714D02*
X82147580Y-106918095D01*
X82147580Y-106918095D02*
X82052342Y-106870476D01*
X82052342Y-106870476D02*
X81242819Y-106870476D01*
X81338057Y-106441904D02*
X81290438Y-106394285D01*
X81290438Y-106394285D02*
X81242819Y-106299047D01*
X81242819Y-106299047D02*
X81242819Y-106060952D01*
X81242819Y-106060952D02*
X81290438Y-105965714D01*
X81290438Y-105965714D02*
X81338057Y-105918095D01*
X81338057Y-105918095D02*
X81433295Y-105870476D01*
X81433295Y-105870476D02*
X81528533Y-105870476D01*
X81528533Y-105870476D02*
X81671390Y-105918095D01*
X81671390Y-105918095D02*
X82242819Y-106489523D01*
X82242819Y-106489523D02*
X82242819Y-105870476D01*
X120664819Y-81348094D02*
X119664819Y-81348094D01*
X119664819Y-81348094D02*
X119664819Y-81109999D01*
X119664819Y-81109999D02*
X119712438Y-80967142D01*
X119712438Y-80967142D02*
X119807676Y-80871904D01*
X119807676Y-80871904D02*
X119902914Y-80824285D01*
X119902914Y-80824285D02*
X120093390Y-80776666D01*
X120093390Y-80776666D02*
X120236247Y-80776666D01*
X120236247Y-80776666D02*
X120426723Y-80824285D01*
X120426723Y-80824285D02*
X120521961Y-80871904D01*
X120521961Y-80871904D02*
X120617200Y-80967142D01*
X120617200Y-80967142D02*
X120664819Y-81109999D01*
X120664819Y-81109999D02*
X120664819Y-81348094D01*
X119664819Y-80443332D02*
X119664819Y-79824285D01*
X119664819Y-79824285D02*
X120045771Y-80157618D01*
X120045771Y-80157618D02*
X120045771Y-80014761D01*
X120045771Y-80014761D02*
X120093390Y-79919523D01*
X120093390Y-79919523D02*
X120141009Y-79871904D01*
X120141009Y-79871904D02*
X120236247Y-79824285D01*
X120236247Y-79824285D02*
X120474342Y-79824285D01*
X120474342Y-79824285D02*
X120569580Y-79871904D01*
X120569580Y-79871904D02*
X120617200Y-79919523D01*
X120617200Y-79919523D02*
X120664819Y-80014761D01*
X120664819Y-80014761D02*
X120664819Y-80300475D01*
X120664819Y-80300475D02*
X120617200Y-80395713D01*
X120617200Y-80395713D02*
X120569580Y-80443332D01*
X128301905Y-135744819D02*
X128301905Y-134744819D01*
X128301905Y-134744819D02*
X128635238Y-135459104D01*
X128635238Y-135459104D02*
X128968571Y-134744819D01*
X128968571Y-134744819D02*
X128968571Y-135744819D01*
X129873333Y-135078152D02*
X129873333Y-135744819D01*
X129635238Y-134697200D02*
X129397143Y-135411485D01*
X129397143Y-135411485D02*
X130016190Y-135411485D01*
X130825714Y-135697200D02*
X130730476Y-135744819D01*
X130730476Y-135744819D02*
X130540000Y-135744819D01*
X130540000Y-135744819D02*
X130444762Y-135697200D01*
X130444762Y-135697200D02*
X130397143Y-135649580D01*
X130397143Y-135649580D02*
X130349524Y-135554342D01*
X130349524Y-135554342D02*
X130349524Y-135268628D01*
X130349524Y-135268628D02*
X130397143Y-135173390D01*
X130397143Y-135173390D02*
X130444762Y-135125771D01*
X130444762Y-135125771D02*
X130540000Y-135078152D01*
X130540000Y-135078152D02*
X130730476Y-135078152D01*
X130730476Y-135078152D02*
X130825714Y-135125771D01*
X108150819Y-112942666D02*
X107674628Y-113275999D01*
X108150819Y-113514094D02*
X107150819Y-113514094D01*
X107150819Y-113514094D02*
X107150819Y-113133142D01*
X107150819Y-113133142D02*
X107198438Y-113037904D01*
X107198438Y-113037904D02*
X107246057Y-112990285D01*
X107246057Y-112990285D02*
X107341295Y-112942666D01*
X107341295Y-112942666D02*
X107484152Y-112942666D01*
X107484152Y-112942666D02*
X107579390Y-112990285D01*
X107579390Y-112990285D02*
X107627009Y-113037904D01*
X107627009Y-113037904D02*
X107674628Y-113133142D01*
X107674628Y-113133142D02*
X107674628Y-113514094D01*
X107246057Y-112561713D02*
X107198438Y-112514094D01*
X107198438Y-112514094D02*
X107150819Y-112418856D01*
X107150819Y-112418856D02*
X107150819Y-112180761D01*
X107150819Y-112180761D02*
X107198438Y-112085523D01*
X107198438Y-112085523D02*
X107246057Y-112037904D01*
X107246057Y-112037904D02*
X107341295Y-111990285D01*
X107341295Y-111990285D02*
X107436533Y-111990285D01*
X107436533Y-111990285D02*
X107579390Y-112037904D01*
X107579390Y-112037904D02*
X108150819Y-112609332D01*
X108150819Y-112609332D02*
X108150819Y-111990285D01*
X105610819Y-48426666D02*
X105134628Y-48759999D01*
X105610819Y-48998094D02*
X104610819Y-48998094D01*
X104610819Y-48998094D02*
X104610819Y-48617142D01*
X104610819Y-48617142D02*
X104658438Y-48521904D01*
X104658438Y-48521904D02*
X104706057Y-48474285D01*
X104706057Y-48474285D02*
X104801295Y-48426666D01*
X104801295Y-48426666D02*
X104944152Y-48426666D01*
X104944152Y-48426666D02*
X105039390Y-48474285D01*
X105039390Y-48474285D02*
X105087009Y-48521904D01*
X105087009Y-48521904D02*
X105134628Y-48617142D01*
X105134628Y-48617142D02*
X105134628Y-48998094D01*
X104610819Y-47521904D02*
X104610819Y-47998094D01*
X104610819Y-47998094D02*
X105087009Y-48045713D01*
X105087009Y-48045713D02*
X105039390Y-47998094D01*
X105039390Y-47998094D02*
X104991771Y-47902856D01*
X104991771Y-47902856D02*
X104991771Y-47664761D01*
X104991771Y-47664761D02*
X105039390Y-47569523D01*
X105039390Y-47569523D02*
X105087009Y-47521904D01*
X105087009Y-47521904D02*
X105182247Y-47474285D01*
X105182247Y-47474285D02*
X105420342Y-47474285D01*
X105420342Y-47474285D02*
X105515580Y-47521904D01*
X105515580Y-47521904D02*
X105563200Y-47569523D01*
X105563200Y-47569523D02*
X105610819Y-47664761D01*
X105610819Y-47664761D02*
X105610819Y-47902856D01*
X105610819Y-47902856D02*
X105563200Y-47998094D01*
X105563200Y-47998094D02*
X105515580Y-48045713D01*
X128278095Y-28224819D02*
X128278095Y-27224819D01*
X128278095Y-27224819D02*
X128611428Y-27939104D01*
X128611428Y-27939104D02*
X128944761Y-27224819D01*
X128944761Y-27224819D02*
X128944761Y-28224819D01*
X129849523Y-27558152D02*
X129849523Y-28224819D01*
X129611428Y-27177200D02*
X129373333Y-27891485D01*
X129373333Y-27891485D02*
X129992380Y-27891485D01*
X130373333Y-28224819D02*
X130373333Y-27224819D01*
X130373333Y-27605771D02*
X130468571Y-27558152D01*
X130468571Y-27558152D02*
X130659047Y-27558152D01*
X130659047Y-27558152D02*
X130754285Y-27605771D01*
X130754285Y-27605771D02*
X130801904Y-27653390D01*
X130801904Y-27653390D02*
X130849523Y-27748628D01*
X130849523Y-27748628D02*
X130849523Y-28034342D01*
X130849523Y-28034342D02*
X130801904Y-28129580D01*
X130801904Y-28129580D02*
X130754285Y-28177200D01*
X130754285Y-28177200D02*
X130659047Y-28224819D01*
X130659047Y-28224819D02*
X130468571Y-28224819D01*
X130468571Y-28224819D02*
X130373333Y-28177200D01*
D14*
%TO.C,U1*%
X69790000Y-57440000D02*
X69790000Y-58690000D01*
X69790000Y-60690000D02*
X69790000Y-61940000D01*
X69790000Y-61940000D02*
X80070000Y-61940000D01*
X80070000Y-57440000D02*
X69790000Y-57440000D01*
X80070000Y-61940000D02*
X80070000Y-57440000D01*
X69790000Y-58690000D02*
G75*
G02*
X69790000Y-60690000I0J-1000000D01*
G01*
%TO.C,J13*%
X60280000Y-54852000D02*
X60280000Y-108072000D01*
X47940000Y-54852000D02*
X60280000Y-54852000D01*
X61174338Y-97832000D02*
X61174338Y-98332000D01*
X60741325Y-98082000D02*
X61174338Y-97832000D01*
X61174338Y-98332000D02*
X60741325Y-98082000D01*
X60280000Y-108072000D02*
X47940000Y-108072000D01*
%TO.C,D1*%
X91425000Y-82340000D02*
G75*
G02*
X96545000Y-82340000I2560000J0D01*
G01*
X96545000Y-88500000D02*
X96545000Y-82340000D01*
X96545000Y-88500000D02*
X91425000Y-88500000D01*
X95255000Y-91170000D02*
X95255000Y-88500000D01*
X95255000Y-88500000D02*
X95255000Y-91170000D01*
X92715000Y-91170000D02*
X92715000Y-88500000D01*
X92715000Y-88500000D02*
X92715000Y-91170000D01*
X91425000Y-88500000D02*
X91425000Y-82340000D01*
X91425000Y-88500000D02*
X91025000Y-88500000D01*
X91425000Y-87380000D02*
X91425000Y-88500000D01*
X91025000Y-88500000D02*
X91025000Y-87380000D01*
X91025000Y-87380000D02*
X91425000Y-87380000D01*
%TO.C,D4*%
X91860000Y-68960000D02*
G75*
G02*
X96103756Y-68955163I2120000J1650000D01*
G01*
X91860000Y-68960000D02*
X96110000Y-68960000D01*
%TO.C,R1*%
X96970000Y-102060000D02*
X93530000Y-102060000D01*
X93530000Y-111300000D01*
X96970000Y-111300000D01*
X96970000Y-102060000D01*
X95250000Y-101370000D02*
X95250000Y-102060000D01*
X95250000Y-111990000D02*
X95250000Y-111300000D01*
%TO.C,R4*%
X90990000Y-59230000D02*
X94430000Y-59230000D01*
X94430000Y-49990000D01*
X90990000Y-49990000D01*
X90990000Y-59230000D01*
X92710000Y-59920000D02*
X92710000Y-59230000D01*
X92710000Y-49300000D02*
X92710000Y-49990000D01*
%TO.C,R6*%
X124910000Y-49990000D02*
X121470000Y-49990000D01*
X121470000Y-59230000D01*
X124910000Y-59230000D01*
X124910000Y-49990000D01*
X123190000Y-59920000D02*
X123190000Y-59230000D01*
X123190000Y-49300000D02*
X123190000Y-49990000D01*
%TO.C,D5*%
X107120000Y-68960000D02*
X111370000Y-68960000D01*
X107120000Y-68960000D02*
G75*
G02*
X111363756Y-68955163I2120000J1650000D01*
G01*
%TO.C,D2*%
X106265000Y-87245000D02*
X106665000Y-87245000D01*
X106265000Y-88365000D02*
X106265000Y-87245000D01*
X106665000Y-87245000D02*
X106665000Y-88365000D01*
X106665000Y-88365000D02*
X106265000Y-88365000D01*
X106665000Y-88365000D02*
X106665000Y-82205000D01*
X107955000Y-88365000D02*
X107955000Y-91035000D01*
X107955000Y-91035000D02*
X107955000Y-88365000D01*
X110495000Y-88365000D02*
X110495000Y-91035000D01*
X110495000Y-91035000D02*
X110495000Y-88365000D01*
X111785000Y-88365000D02*
X106665000Y-88365000D01*
X111785000Y-88365000D02*
X111785000Y-82205000D01*
X106665000Y-82205000D02*
G75*
G02*
X111785000Y-82205000I2560000J0D01*
G01*
%TO.C,R3*%
X125730000Y-101370000D02*
X125730000Y-102060000D01*
X125730000Y-111990000D02*
X125730000Y-111300000D01*
X127450000Y-102060000D02*
X124010000Y-102060000D01*
X124010000Y-111300000D01*
X127450000Y-111300000D01*
X127450000Y-102060000D01*
%TO.C,D6*%
X122340000Y-68960000D02*
X126590000Y-68960000D01*
X122340000Y-68960000D02*
G75*
G02*
X126583756Y-68955163I2120000J1650000D01*
G01*
D15*
%TO.C,G\u002A\u002A\u002A*%
G36*
X61454833Y-124369075D02*
G01*
X61490871Y-124398693D01*
X61479432Y-124432068D01*
X61454699Y-124446142D01*
X61407745Y-124449572D01*
X61394580Y-124416612D01*
X61400841Y-124392877D01*
X61432979Y-124366405D01*
X61454833Y-124369075D01*
G37*
G36*
X62996012Y-125333455D02*
G01*
X63010157Y-125363494D01*
X63001818Y-125379397D01*
X62961396Y-125395923D01*
X62926066Y-125380727D01*
X62917758Y-125357518D01*
X62937341Y-125323792D01*
X62954395Y-125319380D01*
X62996012Y-125333455D01*
G37*
G36*
X62248654Y-125091991D02*
G01*
X62256696Y-125115976D01*
X62238176Y-125148585D01*
X62229056Y-125155484D01*
X62190280Y-125158454D01*
X62164265Y-125131553D01*
X62167406Y-125094656D01*
X62173120Y-125087681D01*
X62213213Y-125073446D01*
X62248654Y-125091991D01*
G37*
G36*
X62949553Y-130563366D02*
G01*
X62980534Y-130592928D01*
X62990428Y-130637208D01*
X62975159Y-130667384D01*
X62937145Y-130667757D01*
X62919195Y-130659608D01*
X62899029Y-130626291D01*
X62905815Y-130586231D01*
X62932305Y-130562405D01*
X62949553Y-130563366D01*
G37*
G36*
X62250433Y-126668937D02*
G01*
X62302585Y-126689717D01*
X62331831Y-126714898D01*
X62332973Y-126720265D01*
X62310903Y-126736498D01*
X62258197Y-126743204D01*
X62191113Y-126731756D01*
X62160117Y-126701730D01*
X62166769Y-126668446D01*
X62197715Y-126659526D01*
X62250433Y-126668937D01*
G37*
G36*
X62929486Y-125786824D02*
G01*
X62969041Y-125816398D01*
X63004377Y-125858076D01*
X63019459Y-125896287D01*
X63009953Y-125918169D01*
X62973611Y-125906773D01*
X62967172Y-125903396D01*
X62918226Y-125863321D01*
X62894203Y-125817031D01*
X62901748Y-125784572D01*
X62929486Y-125786824D01*
G37*
G36*
X59993834Y-126807294D02*
G01*
X59993834Y-127074787D01*
X59478969Y-127067904D01*
X58964104Y-127061021D01*
X58956213Y-126965676D01*
X58948322Y-126870331D01*
X59382089Y-126870331D01*
X59815856Y-126870331D01*
X59815856Y-126705065D01*
X59815856Y-126539800D01*
X59904845Y-126539800D01*
X59993834Y-126539800D01*
X59993834Y-126807294D01*
G37*
G36*
X60731171Y-136545503D02*
G01*
X60719474Y-136598895D01*
X60697909Y-136622628D01*
X60660552Y-136627045D01*
X60583705Y-136629551D01*
X60478700Y-136629961D01*
X60361022Y-136628187D01*
X60057397Y-136620981D01*
X60049352Y-136551061D01*
X60041307Y-136481142D01*
X60386239Y-136481142D01*
X60731171Y-136481142D01*
X60731171Y-136545503D01*
G37*
G36*
X63159806Y-130745606D02*
G01*
X63168321Y-130769651D01*
X63130390Y-130795448D01*
X63122795Y-130798040D01*
X63077073Y-130830539D01*
X63063166Y-130856961D01*
X63052849Y-130886566D01*
X63039435Y-130869338D01*
X63033387Y-130855766D01*
X63024430Y-130790073D01*
X63057151Y-130746669D01*
X63107650Y-130734995D01*
X63159806Y-130745606D01*
G37*
G36*
X61042632Y-135956608D02*
G01*
X61116267Y-135969570D01*
X61157047Y-135972286D01*
X61202791Y-135988468D01*
X61212180Y-136022947D01*
X61181299Y-136055765D01*
X61174036Y-136058902D01*
X61119217Y-136070402D01*
X61059622Y-136074335D01*
X61006235Y-136067194D01*
X60987077Y-136036382D01*
X60985425Y-136007806D01*
X60992026Y-135960743D01*
X61020722Y-135951831D01*
X61042632Y-135956608D01*
G37*
G36*
X61322003Y-134173002D02*
G01*
X61456000Y-134177099D01*
X61547028Y-134182903D01*
X61602966Y-134191563D01*
X61631691Y-134204229D01*
X61640699Y-134219519D01*
X61637529Y-134264723D01*
X61630415Y-134276726D01*
X61599365Y-134283696D01*
X61528159Y-134289389D01*
X61427489Y-134293208D01*
X61311718Y-134294555D01*
X61010851Y-134294555D01*
X61010851Y-134230209D01*
X61010851Y-134165863D01*
X61322003Y-134173002D01*
G37*
G36*
X61794036Y-124380882D02*
G01*
X61849379Y-124388947D01*
X61872720Y-124404837D01*
X61875315Y-124416777D01*
X61864848Y-124437498D01*
X61827213Y-124449358D01*
X61753057Y-124454359D01*
X61697337Y-124454915D01*
X61600639Y-124452672D01*
X61545295Y-124444608D01*
X61521954Y-124428717D01*
X61519359Y-124416777D01*
X61529826Y-124396056D01*
X61567461Y-124384197D01*
X61641618Y-124379195D01*
X61697337Y-124378639D01*
X61794036Y-124380882D01*
G37*
G36*
X62438961Y-125069765D02*
G01*
X62451717Y-125070320D01*
X62560681Y-125081090D01*
X62622012Y-125101347D01*
X62634705Y-125130622D01*
X62621657Y-125149347D01*
X62588847Y-125158449D01*
X62520749Y-125164771D01*
X62443150Y-125166827D01*
X62355212Y-125165215D01*
X62306674Y-125157920D01*
X62286122Y-125141257D01*
X62282122Y-125114815D01*
X62286332Y-125087246D01*
X62306418Y-125072504D01*
X62353566Y-125067655D01*
X62438961Y-125069765D01*
G37*
G36*
X63148438Y-123290716D02*
G01*
X63274972Y-123297515D01*
X63354765Y-123308915D01*
X63391773Y-123325560D01*
X63394875Y-123330827D01*
X63389003Y-123346434D01*
X63353842Y-123355315D01*
X63282212Y-123358283D01*
X63170160Y-123356252D01*
X63043626Y-123349453D01*
X62963833Y-123338053D01*
X62926825Y-123321408D01*
X62923723Y-123316141D01*
X62929596Y-123300534D01*
X62964756Y-123291653D01*
X63036386Y-123288685D01*
X63148438Y-123290716D01*
G37*
G36*
X63319561Y-125321623D02*
G01*
X63374905Y-125329687D01*
X63398246Y-125345578D01*
X63400841Y-125357518D01*
X63390374Y-125378239D01*
X63352738Y-125390098D01*
X63278582Y-125395100D01*
X63222863Y-125395656D01*
X63126164Y-125393413D01*
X63070821Y-125385348D01*
X63047480Y-125369458D01*
X63044885Y-125357518D01*
X63055351Y-125336797D01*
X63092987Y-125324938D01*
X63167143Y-125319936D01*
X63222863Y-125319380D01*
X63319561Y-125321623D01*
G37*
G36*
X60379810Y-134198459D02*
G01*
X60516585Y-134201677D01*
X60610752Y-134205602D01*
X60670543Y-134211762D01*
X60704195Y-134221689D01*
X60719943Y-134236911D01*
X60726020Y-134258959D01*
X60726598Y-134262887D01*
X60719588Y-134313113D01*
X60699692Y-134333656D01*
X60661599Y-134338342D01*
X60584098Y-134341067D01*
X60478605Y-134341620D01*
X60361022Y-134339899D01*
X60057397Y-134332693D01*
X60049280Y-134262023D01*
X60041162Y-134191353D01*
X60379810Y-134198459D01*
G37*
G36*
X61573855Y-124090269D02*
G01*
X61590881Y-124144172D01*
X61603432Y-124177096D01*
X61637370Y-124195166D01*
X61705845Y-124204256D01*
X61728722Y-124205744D01*
X61809048Y-124216237D01*
X61859472Y-124234455D01*
X61869079Y-124245156D01*
X61860144Y-124262772D01*
X61814768Y-124272925D01*
X61726594Y-124276807D01*
X61699456Y-124276937D01*
X61519359Y-124276937D01*
X61519359Y-124173117D01*
X61528532Y-124107059D01*
X61549815Y-124078181D01*
X61573855Y-124090269D01*
G37*
G36*
X63415286Y-130542015D02*
G01*
X63425816Y-130580559D01*
X63426266Y-130599623D01*
X63426266Y-130673094D01*
X63245310Y-130662869D01*
X63140237Y-130660042D01*
X63076315Y-130666822D01*
X63044561Y-130684299D01*
X63042295Y-130687463D01*
X63026699Y-130695813D01*
X63020145Y-130655712D01*
X63019849Y-130639650D01*
X63019459Y-130557017D01*
X63182645Y-130557017D01*
X63274334Y-130554705D01*
X63349109Y-130548687D01*
X63386048Y-130541584D01*
X63415286Y-130542015D01*
G37*
G36*
X60175473Y-132419915D02*
G01*
X60195415Y-132448996D01*
X60197237Y-132476637D01*
X60197237Y-132540201D01*
X60464204Y-132540201D01*
X60731171Y-132540201D01*
X60731171Y-132603764D01*
X60731171Y-132667328D01*
X60464204Y-132667328D01*
X60197237Y-132667328D01*
X60197237Y-132730891D01*
X60189028Y-132776318D01*
X60154130Y-132792937D01*
X60120961Y-132794455D01*
X60044684Y-132794455D01*
X60044684Y-132603764D01*
X60044684Y-132413073D01*
X60120961Y-132413073D01*
X60175473Y-132419915D01*
G37*
G36*
X60175473Y-133640335D02*
G01*
X60195415Y-133669416D01*
X60197237Y-133697057D01*
X60197237Y-133760621D01*
X60464204Y-133760621D01*
X60731171Y-133760621D01*
X60731171Y-133824185D01*
X60731171Y-133887748D01*
X60464204Y-133887748D01*
X60197237Y-133887748D01*
X60197237Y-133951312D01*
X60189028Y-133996739D01*
X60154130Y-134013357D01*
X60120961Y-134014875D01*
X60044684Y-134014875D01*
X60044684Y-133824185D01*
X60044684Y-133633494D01*
X60120961Y-133633494D01*
X60175473Y-133640335D01*
G37*
G36*
X61577819Y-125447684D02*
G01*
X61597833Y-125490084D01*
X61600223Y-125503714D01*
X61611568Y-125537926D01*
X61641947Y-125556698D01*
X61704606Y-125566100D01*
X61741832Y-125568606D01*
X61826938Y-125578277D01*
X61868446Y-125596248D01*
X61875315Y-125613101D01*
X61863685Y-125633271D01*
X61822875Y-125644798D01*
X61744004Y-125649516D01*
X61697337Y-125649910D01*
X61519359Y-125649910D01*
X61519359Y-125548209D01*
X61529037Y-125481999D01*
X61551705Y-125446740D01*
X61577819Y-125447684D01*
G37*
G36*
X63105716Y-125483621D02*
G01*
X63116406Y-125517145D01*
X63128958Y-125550069D01*
X63162896Y-125568139D01*
X63231371Y-125577229D01*
X63254247Y-125578717D01*
X63344136Y-125591304D01*
X63391740Y-125614712D01*
X63393484Y-125646768D01*
X63384420Y-125657856D01*
X63351610Y-125666957D01*
X63283511Y-125673280D01*
X63205912Y-125675336D01*
X63044885Y-125675336D01*
X63044885Y-125558803D01*
X63049813Y-125483090D01*
X63065516Y-125452748D01*
X63076666Y-125452736D01*
X63105716Y-125483621D01*
G37*
G36*
X61214254Y-130239998D02*
G01*
X61214123Y-130574702D01*
X61213678Y-130862034D01*
X61212844Y-131105473D01*
X61211544Y-131308496D01*
X61209703Y-131474582D01*
X61207242Y-131607210D01*
X61204087Y-131709857D01*
X61200161Y-131786002D01*
X61195388Y-131839123D01*
X61189691Y-131872699D01*
X61182994Y-131890208D01*
X61177965Y-131894661D01*
X61124433Y-131902457D01*
X61082620Y-131900219D01*
X61023563Y-131891852D01*
X61017022Y-130245556D01*
X61010480Y-128599260D01*
X61112367Y-128599260D01*
X61214254Y-128599260D01*
X61214254Y-130239998D01*
G37*
G36*
X61855601Y-126800646D02*
G01*
X61869113Y-126825258D01*
X61874567Y-126883144D01*
X61875315Y-126944743D01*
X61875315Y-127099160D01*
X61646486Y-127099160D01*
X61534850Y-127097673D01*
X61465313Y-127092249D01*
X61429186Y-127081438D01*
X61417778Y-127063793D01*
X61417657Y-127061021D01*
X61428184Y-127040227D01*
X61466012Y-127028363D01*
X61540508Y-127023405D01*
X61594174Y-127022883D01*
X61770690Y-127022883D01*
X61778508Y-126915045D01*
X61790912Y-126839237D01*
X61816669Y-126803719D01*
X61830821Y-126798766D01*
X61855601Y-126800646D01*
G37*
G36*
X61646486Y-130239998D02*
G01*
X61646355Y-130574702D01*
X61645911Y-130862034D01*
X61645077Y-131105473D01*
X61643777Y-131308496D01*
X61641935Y-131474582D01*
X61639474Y-131607210D01*
X61636319Y-131709857D01*
X61632393Y-131786002D01*
X61627620Y-131839123D01*
X61621923Y-131872699D01*
X61615226Y-131890208D01*
X61610197Y-131894661D01*
X61556666Y-131902457D01*
X61514852Y-131900219D01*
X61455796Y-131891852D01*
X61449254Y-130245556D01*
X61442712Y-128599260D01*
X61544599Y-128599260D01*
X61646486Y-128599260D01*
X61646486Y-130239998D01*
G37*
G36*
X62423055Y-128590628D02*
G01*
X62433982Y-128646297D01*
X62434674Y-128675536D01*
X62434674Y-128777238D01*
X62231271Y-128777238D01*
X62129927Y-128776176D01*
X62069189Y-128771286D01*
X62038828Y-128760011D01*
X62028616Y-128739794D01*
X62027868Y-128726387D01*
X62033018Y-128698867D01*
X62055962Y-128683524D01*
X62107934Y-128676901D01*
X62193133Y-128675536D01*
X62282572Y-128673951D01*
X62332436Y-128666892D01*
X62353962Y-128650900D01*
X62358398Y-128624685D01*
X62374296Y-128583272D01*
X62396536Y-128573834D01*
X62423055Y-128590628D01*
G37*
G36*
X63418152Y-130884353D02*
G01*
X63426214Y-130938501D01*
X63426288Y-130944755D01*
X63426310Y-131027388D01*
X63222939Y-131027388D01*
X63121948Y-131026537D01*
X63061459Y-131022047D01*
X63031131Y-131011008D01*
X63020620Y-130990512D01*
X63019514Y-130970181D01*
X63021842Y-130938121D01*
X63035695Y-130919185D01*
X63071266Y-130910560D01*
X63138748Y-130909431D01*
X63229219Y-130912277D01*
X63319124Y-130911010D01*
X63368089Y-130899845D01*
X63375415Y-130889887D01*
X63393408Y-130863340D01*
X63400841Y-130862123D01*
X63418152Y-130884353D01*
G37*
G36*
X60174871Y-134529994D02*
G01*
X60195235Y-134558249D01*
X60197237Y-134586947D01*
X60197237Y-134650511D01*
X60464204Y-134650511D01*
X60731171Y-134650511D01*
X60731171Y-134714074D01*
X60731171Y-134777638D01*
X60464204Y-134777638D01*
X60197237Y-134777638D01*
X60197237Y-134842890D01*
X60189909Y-134889382D01*
X60157387Y-134902204D01*
X60127317Y-134900098D01*
X60091176Y-134893517D01*
X60069707Y-134876544D01*
X60058332Y-134837801D01*
X60052473Y-134765908D01*
X60049927Y-134707718D01*
X60042457Y-134523384D01*
X60119847Y-134523384D01*
X60174871Y-134529994D01*
G37*
G36*
X62076289Y-132952431D02*
G01*
X62094949Y-132985146D01*
X62118802Y-133007641D01*
X62174703Y-133019694D01*
X62271835Y-133023284D01*
X62272129Y-133023284D01*
X62363958Y-133025904D01*
X62414646Y-133035253D01*
X62433703Y-133053562D01*
X62434674Y-133061422D01*
X62423641Y-133082814D01*
X62384217Y-133094704D01*
X62306916Y-133099281D01*
X62269409Y-133099560D01*
X62176709Y-133102106D01*
X62125187Y-133111204D01*
X62105354Y-133129043D01*
X62104144Y-133137698D01*
X62083792Y-133171406D01*
X62066006Y-133175836D01*
X62040868Y-133160863D01*
X62029418Y-133109950D01*
X62027868Y-133061422D01*
X62034940Y-132988381D01*
X62052773Y-132950126D01*
X62076289Y-132952431D01*
G37*
G36*
X62582804Y-122743165D02*
G01*
X62626635Y-122762813D01*
X62631578Y-122783425D01*
X62594248Y-122798494D01*
X62540574Y-122802263D01*
X62439517Y-122808708D01*
X62381237Y-122829933D01*
X62359084Y-122868773D01*
X62358398Y-122879930D01*
X62367411Y-122908613D01*
X62402188Y-122924847D01*
X62474335Y-122933443D01*
X62489883Y-122934417D01*
X62571102Y-122944886D01*
X62621995Y-122963031D01*
X62631842Y-122973884D01*
X62622906Y-122991501D01*
X62577530Y-123001654D01*
X62489357Y-123005535D01*
X62462219Y-123005666D01*
X62282122Y-123005666D01*
X62282122Y-122892146D01*
X62292429Y-122806860D01*
X62328313Y-122755220D01*
X62397223Y-122731806D01*
X62503472Y-122730985D01*
X62582804Y-122743165D01*
G37*
G36*
X59993834Y-125268529D02*
G01*
X59993834Y-125370231D01*
X59687040Y-125370231D01*
X59380246Y-125370231D01*
X59388291Y-125440151D01*
X59396336Y-125510070D01*
X59695085Y-125517234D01*
X59993834Y-125524397D01*
X59993834Y-125612579D01*
X59993834Y-125700761D01*
X59599740Y-125700761D01*
X59205645Y-125700761D01*
X59205645Y-125629570D01*
X59214904Y-125567258D01*
X59233286Y-125530738D01*
X59247177Y-125500047D01*
X59233286Y-125486014D01*
X59212499Y-125447818D01*
X59206587Y-125382249D01*
X59215739Y-125310615D01*
X59231370Y-125267970D01*
X59274315Y-125225879D01*
X59354035Y-125195687D01*
X59474414Y-125176591D01*
X59639338Y-125167789D01*
X59720510Y-125166969D01*
X59993834Y-125166827D01*
X59993834Y-125268529D01*
G37*
G36*
X62422765Y-132416171D02*
G01*
X62434222Y-132480706D01*
X62434674Y-132499944D01*
X62434674Y-132616477D01*
X62231271Y-132616477D01*
X62027868Y-132616477D01*
X62027868Y-132499944D01*
X62036156Y-132427103D01*
X62055719Y-132393147D01*
X62078606Y-132401150D01*
X62096866Y-132454189D01*
X62099476Y-132472241D01*
X62117988Y-132521473D01*
X62147933Y-132539638D01*
X62173533Y-132523401D01*
X62180420Y-132489350D01*
X62196318Y-132447937D01*
X62218558Y-132438499D01*
X62249618Y-132459696D01*
X62256696Y-132489350D01*
X62271779Y-132532796D01*
X62305766Y-132542840D01*
X62341769Y-132522199D01*
X62362898Y-132473588D01*
X62363066Y-132472241D01*
X62379236Y-132408863D01*
X62401787Y-132391198D01*
X62422765Y-132416171D01*
G37*
G36*
X62429865Y-129902517D02*
G01*
X62426701Y-129978932D01*
X62401762Y-130011884D01*
X62358630Y-130017979D01*
X62282441Y-130020004D01*
X62240243Y-130018956D01*
X62203168Y-130018036D01*
X62040580Y-130010371D01*
X62040580Y-129908669D01*
X62091431Y-129908669D01*
X62113877Y-129925071D01*
X62169392Y-129937490D01*
X62240243Y-129944150D01*
X62308696Y-129943273D01*
X62352846Y-129934865D01*
X62381139Y-129914134D01*
X62367484Y-129894567D01*
X62320716Y-129880000D01*
X62249667Y-129874267D01*
X62215749Y-129875349D01*
X62144130Y-129884572D01*
X62099200Y-129899350D01*
X62091431Y-129908669D01*
X62040580Y-129908669D01*
X62040580Y-129806967D01*
X62231271Y-129806967D01*
X62421962Y-129806967D01*
X62429865Y-129902517D01*
G37*
G36*
X59993834Y-124124385D02*
G01*
X59993834Y-124404064D01*
X59472612Y-124404064D01*
X58951391Y-124404064D01*
X58951391Y-124137098D01*
X58951391Y-123870131D01*
X59053093Y-123870131D01*
X59154795Y-123870131D01*
X59154795Y-124035396D01*
X59154795Y-124200661D01*
X59256496Y-124200661D01*
X59358198Y-124200661D01*
X59358198Y-124086247D01*
X59360098Y-124015945D01*
X59372973Y-123982656D01*
X59407586Y-123972538D01*
X59447187Y-123971832D01*
X59501866Y-123974275D01*
X59527758Y-123990828D01*
X59535627Y-124035332D01*
X59536176Y-124086247D01*
X59536176Y-124200661D01*
X59676016Y-124200661D01*
X59815856Y-124200661D01*
X59815856Y-124022683D01*
X59815856Y-123844705D01*
X59904845Y-123844705D01*
X59993834Y-123844705D01*
X59993834Y-124124385D01*
G37*
G36*
X59993834Y-126133520D02*
G01*
X59993834Y-126413726D01*
X59478969Y-126406843D01*
X58964104Y-126399960D01*
X58964104Y-126132993D01*
X58964104Y-125866026D01*
X59053093Y-125866026D01*
X59142082Y-125866026D01*
X59149600Y-126037648D01*
X59157118Y-126209270D01*
X59257658Y-126209270D01*
X59358198Y-126209270D01*
X59358198Y-126094855D01*
X59360098Y-126024554D01*
X59372973Y-125991264D01*
X59407586Y-125981147D01*
X59447187Y-125980441D01*
X59501866Y-125982883D01*
X59527758Y-125999437D01*
X59535627Y-126043940D01*
X59536176Y-126094855D01*
X59536176Y-126209270D01*
X59676016Y-126209270D01*
X59815856Y-126209270D01*
X59815856Y-126031292D01*
X59815856Y-125853314D01*
X59904845Y-125853314D01*
X59993834Y-125853314D01*
X59993834Y-126133520D01*
G37*
G36*
X61784355Y-124549416D02*
G01*
X61844471Y-124596242D01*
X61873528Y-124659899D01*
X61864868Y-124728615D01*
X61835399Y-124770879D01*
X61760748Y-124818190D01*
X61678289Y-124829991D01*
X61658676Y-124824717D01*
X61601897Y-124809447D01*
X61545446Y-124759726D01*
X61523810Y-124699763D01*
X61527181Y-124675204D01*
X61600510Y-124675204D01*
X61613272Y-124724970D01*
X61658676Y-124750585D01*
X61721831Y-124745969D01*
X61747228Y-124735109D01*
X61792595Y-124698892D01*
X61788458Y-124660927D01*
X61762300Y-124634055D01*
X61704431Y-124610136D01*
X61645709Y-124619252D01*
X61606157Y-124656311D01*
X61600510Y-124675204D01*
X61527181Y-124675204D01*
X61535261Y-124616342D01*
X61587559Y-124558628D01*
X61674838Y-124532240D01*
X61699836Y-124531192D01*
X61784355Y-124549416D01*
G37*
G36*
X62334006Y-134631450D02*
G01*
X62396074Y-134655253D01*
X62426592Y-134703560D01*
X62434674Y-134782723D01*
X62434674Y-134879340D01*
X62231271Y-134879340D01*
X62027868Y-134879340D01*
X62027868Y-134782723D01*
X62032326Y-134739500D01*
X62094949Y-134739500D01*
X62095355Y-134761084D01*
X62123822Y-134772808D01*
X62189699Y-134777288D01*
X62231271Y-134777638D01*
X62315861Y-134775443D01*
X62359070Y-134767115D01*
X62370249Y-134750037D01*
X62367593Y-134739500D01*
X62335588Y-134713073D01*
X62262193Y-134701959D01*
X62231271Y-134701362D01*
X62144322Y-134708214D01*
X62100546Y-134729881D01*
X62094949Y-134739500D01*
X62032326Y-134739500D01*
X62036080Y-134703104D01*
X62066794Y-134655001D01*
X62129125Y-134631350D01*
X62231271Y-134625085D01*
X62334006Y-134631450D01*
G37*
G36*
X63353496Y-124052368D02*
G01*
X63393243Y-124066777D01*
X63400841Y-124084918D01*
X63383539Y-124109383D01*
X63327038Y-124124082D01*
X63267357Y-124129412D01*
X63188359Y-124136728D01*
X63148118Y-124150415D01*
X63134555Y-124175772D01*
X63133874Y-124187948D01*
X63141138Y-124218461D01*
X63170985Y-124235509D01*
X63235497Y-124244390D01*
X63267357Y-124246484D01*
X63352464Y-124256155D01*
X63393971Y-124274126D01*
X63400841Y-124290979D01*
X63389211Y-124311149D01*
X63348401Y-124322675D01*
X63269529Y-124327394D01*
X63222863Y-124327788D01*
X63044885Y-124327788D01*
X63044885Y-124214268D01*
X63053072Y-124133856D01*
X63083396Y-124083612D01*
X63144499Y-124057212D01*
X63245022Y-124048337D01*
X63272042Y-124048109D01*
X63353496Y-124052368D01*
G37*
G36*
X62224915Y-134045588D02*
G01*
X62421962Y-134053013D01*
X62429464Y-134129415D01*
X62425049Y-134194484D01*
X62405310Y-134237473D01*
X62363417Y-134256329D01*
X62293327Y-134267401D01*
X62209970Y-134270899D01*
X62128275Y-134267033D01*
X62063173Y-134256015D01*
X62029594Y-134238054D01*
X62027868Y-134232153D01*
X62041331Y-134210715D01*
X62087219Y-134197016D01*
X62173780Y-134188918D01*
X62199489Y-134187659D01*
X62301470Y-134178492D01*
X62353572Y-134164242D01*
X62356092Y-134148092D01*
X62309325Y-134133225D01*
X62213568Y-134122825D01*
X62193363Y-134121772D01*
X62099326Y-134114579D01*
X62047276Y-134102105D01*
X62028430Y-134081933D01*
X62027868Y-134076208D01*
X62036641Y-134056901D01*
X62069221Y-134046456D01*
X62134998Y-134043412D01*
X62224915Y-134045588D01*
G37*
G36*
X62573757Y-125909875D02*
G01*
X62624221Y-125924415D01*
X62638078Y-125940974D01*
X62620777Y-125965439D01*
X62564275Y-125980138D01*
X62504594Y-125985468D01*
X62425596Y-125992784D01*
X62385356Y-126006471D01*
X62371792Y-126031828D01*
X62371111Y-126044004D01*
X62378375Y-126074517D01*
X62408223Y-126091565D01*
X62472734Y-126100447D01*
X62504594Y-126102540D01*
X62589701Y-126112211D01*
X62631209Y-126130182D01*
X62638078Y-126147035D01*
X62626448Y-126167205D01*
X62585638Y-126178732D01*
X62506767Y-126183450D01*
X62460100Y-126183844D01*
X62282122Y-126183844D01*
X62282122Y-126074515D01*
X62288832Y-125999594D01*
X62305613Y-125944635D01*
X62312632Y-125934675D01*
X62354818Y-125915412D01*
X62423062Y-125905063D01*
X62501373Y-125903321D01*
X62573757Y-125909875D01*
G37*
G36*
X62576191Y-124356252D02*
G01*
X62622753Y-124366998D01*
X62637913Y-124387898D01*
X62638078Y-124391352D01*
X62625651Y-124414225D01*
X62581978Y-124426077D01*
X62497468Y-124429490D01*
X62496470Y-124429490D01*
X62416021Y-124431087D01*
X62374852Y-124439179D01*
X62361416Y-124458714D01*
X62362986Y-124486697D01*
X62374331Y-124520909D01*
X62404710Y-124539681D01*
X62467369Y-124549083D01*
X62504594Y-124551589D01*
X62592401Y-124561087D01*
X62633348Y-124577995D01*
X62631145Y-124604362D01*
X62621128Y-124615943D01*
X62588550Y-124624840D01*
X62520806Y-124630978D01*
X62446147Y-124632893D01*
X62288116Y-124632893D01*
X62286636Y-124525613D01*
X62291959Y-124439446D01*
X62317173Y-124387413D01*
X62371757Y-124361420D01*
X62465191Y-124353380D01*
X62488639Y-124353214D01*
X62576191Y-124356252D01*
G37*
G36*
X62588523Y-125595763D02*
G01*
X62624149Y-125652012D01*
X62635579Y-125727174D01*
X62621239Y-125796107D01*
X62587656Y-125825422D01*
X62573031Y-125827888D01*
X62549477Y-125812004D01*
X62551423Y-125759132D01*
X62552286Y-125754696D01*
X62556088Y-125690241D01*
X62538329Y-125668777D01*
X62506564Y-125691609D01*
X62476626Y-125741641D01*
X62441599Y-125801033D01*
X62403640Y-125823392D01*
X62364378Y-125823184D01*
X62319104Y-125812322D01*
X62299335Y-125783337D01*
X62294842Y-125720403D01*
X62294835Y-125715593D01*
X62302879Y-125644723D01*
X62321747Y-125609028D01*
X62343542Y-125612613D01*
X62360370Y-125659581D01*
X62363029Y-125680149D01*
X62371111Y-125764325D01*
X62427461Y-125668979D01*
X62480148Y-125600949D01*
X62530811Y-125573802D01*
X62534624Y-125573634D01*
X62588523Y-125595763D01*
G37*
G36*
X60731171Y-135755614D02*
G01*
X60723032Y-135790957D01*
X60693700Y-135828759D01*
X60635803Y-135875949D01*
X60541969Y-135939451D01*
X60521454Y-135952661D01*
X60311736Y-136087047D01*
X60521454Y-136094432D01*
X60624246Y-136098784D01*
X60686408Y-136105200D01*
X60718145Y-136117080D01*
X60729661Y-136137827D01*
X60731171Y-136164352D01*
X60731171Y-136226887D01*
X60387928Y-136226887D01*
X60044684Y-136226887D01*
X60044684Y-136166405D01*
X60054678Y-136129082D01*
X60089505Y-136087561D01*
X60156432Y-136034779D01*
X60234334Y-135982071D01*
X60423983Y-135858219D01*
X60240690Y-135845506D01*
X60145876Y-135837913D01*
X60090439Y-135828265D01*
X60062986Y-135811641D01*
X60052122Y-135783120D01*
X60049352Y-135762873D01*
X60041307Y-135692953D01*
X60386239Y-135692953D01*
X60731171Y-135692953D01*
X60731171Y-135755614D01*
G37*
G36*
X61774370Y-125745320D02*
G01*
X61839666Y-125794173D01*
X61873543Y-125859922D01*
X61875315Y-125878739D01*
X61858059Y-125934089D01*
X61824464Y-125980441D01*
X61753829Y-126022382D01*
X61725629Y-126024720D01*
X61673721Y-126029023D01*
X61598423Y-126005008D01*
X61542215Y-125954980D01*
X61519379Y-125883582D01*
X61519359Y-125881238D01*
X61522049Y-125871484D01*
X61600341Y-125871484D01*
X61607543Y-125918208D01*
X61653847Y-125943198D01*
X61657879Y-125944243D01*
X61725629Y-125945432D01*
X61761231Y-125929316D01*
X61795787Y-125887113D01*
X61782654Y-125848257D01*
X61762300Y-125829050D01*
X61704001Y-125804922D01*
X61645242Y-125814493D01*
X61605855Y-125852567D01*
X61600341Y-125871484D01*
X61522049Y-125871484D01*
X61541595Y-125800606D01*
X61602297Y-125746242D01*
X61692458Y-125726187D01*
X61692983Y-125726187D01*
X61774370Y-125745320D01*
G37*
G36*
X62899094Y-129705046D02*
G01*
X62903846Y-129749595D01*
X62899278Y-129794255D01*
X62885637Y-129895956D01*
X63143239Y-129895956D01*
X63259856Y-129896638D01*
X63334775Y-129899885D01*
X63377141Y-129907503D01*
X63396100Y-129921299D01*
X63400800Y-129943077D01*
X63400841Y-129946807D01*
X63397374Y-129969879D01*
X63380860Y-129984679D01*
X63342129Y-129993028D01*
X63272010Y-129996746D01*
X63161333Y-129997652D01*
X63144638Y-129997658D01*
X62888436Y-129997658D01*
X62896651Y-130093003D01*
X62896167Y-130154084D01*
X62883856Y-130181890D01*
X62879529Y-130182122D01*
X62867879Y-130155706D01*
X62857402Y-130089807D01*
X62849593Y-129995789D01*
X62846917Y-129934224D01*
X62844792Y-129818933D01*
X62847485Y-129745920D01*
X62856022Y-129706755D01*
X62871425Y-129693007D01*
X62876279Y-129692553D01*
X62899094Y-129705046D01*
G37*
G36*
X62390180Y-131679635D02*
G01*
X62424248Y-131722435D01*
X62433688Y-131787208D01*
X62417900Y-131851107D01*
X62395459Y-131880034D01*
X62355927Y-131899517D01*
X62325539Y-131881564D01*
X62310497Y-131851290D01*
X62339329Y-131825442D01*
X62376083Y-131794118D01*
X62383824Y-131776174D01*
X62368003Y-131752893D01*
X62323694Y-131766398D01*
X62255626Y-131814974D01*
X62240099Y-131828289D01*
X62166972Y-131884317D01*
X62113716Y-131902171D01*
X62069868Y-131884486D01*
X62058378Y-131874054D01*
X62033568Y-131824187D01*
X62029343Y-131760554D01*
X62044663Y-131705759D01*
X62067102Y-131684510D01*
X62113612Y-131680821D01*
X62126737Y-131710832D01*
X62110058Y-131751990D01*
X62092334Y-131797958D01*
X62106980Y-131815051D01*
X62143501Y-131801755D01*
X62186037Y-131762971D01*
X62265255Y-131692795D01*
X62340878Y-131668045D01*
X62390180Y-131679635D01*
G37*
G36*
X62336060Y-129191151D02*
G01*
X62399474Y-129215761D01*
X62429409Y-129262810D01*
X62434674Y-129311172D01*
X62423575Y-129373176D01*
X62404164Y-129407788D01*
X62359526Y-129426210D01*
X62284010Y-129435889D01*
X62231271Y-129436454D01*
X62196834Y-129436823D01*
X62117212Y-129429013D01*
X62064361Y-129412459D01*
X62058378Y-129407788D01*
X62034884Y-129360244D01*
X62027868Y-129311172D01*
X62078719Y-129311172D01*
X62101877Y-129324715D01*
X62162377Y-129333896D01*
X62231271Y-129336597D01*
X62312529Y-129332737D01*
X62367620Y-129322654D01*
X62383824Y-129311172D01*
X62360665Y-129297629D01*
X62300165Y-129288447D01*
X62231271Y-129285746D01*
X62150013Y-129289606D01*
X62094923Y-129299689D01*
X62078719Y-129311172D01*
X62027868Y-129311172D01*
X62039238Y-129245678D01*
X62078614Y-129206045D01*
X62153893Y-129187335D01*
X62231271Y-129184044D01*
X62336060Y-129191151D01*
G37*
G36*
X62615628Y-126265687D02*
G01*
X62630975Y-126290138D01*
X62637143Y-126345105D01*
X62638078Y-126412673D01*
X62638078Y-126565226D01*
X62409249Y-126565226D01*
X62180420Y-126565226D01*
X62180420Y-126410554D01*
X62183654Y-126320265D01*
X62194250Y-126274384D01*
X62212202Y-126266334D01*
X62233657Y-126295952D01*
X62249051Y-126357495D01*
X62251802Y-126382867D01*
X62265773Y-126449598D01*
X62289773Y-126487177D01*
X62314552Y-126490758D01*
X62330861Y-126455497D01*
X62332973Y-126425386D01*
X62344891Y-126375542D01*
X62383824Y-126361822D01*
X62423699Y-126376720D01*
X62434674Y-126425386D01*
X62446592Y-126475230D01*
X62485525Y-126488949D01*
X62517303Y-126481463D01*
X62532330Y-126450378D01*
X62536357Y-126382754D01*
X62536376Y-126374535D01*
X62539703Y-126303035D01*
X62553519Y-126269225D01*
X62583574Y-126260164D01*
X62587227Y-126260121D01*
X62615628Y-126265687D01*
G37*
G36*
X63116731Y-123814206D02*
G01*
X63121161Y-123831992D01*
X63137955Y-123858511D01*
X63193624Y-123869438D01*
X63222863Y-123870131D01*
X63292326Y-123864379D01*
X63321765Y-123844540D01*
X63324564Y-123829874D01*
X63340071Y-123800497D01*
X63356346Y-123800199D01*
X63388237Y-123834033D01*
X63391324Y-123891795D01*
X63384294Y-123914625D01*
X63350810Y-123935171D01*
X63278255Y-123945615D01*
X63246169Y-123946407D01*
X63174348Y-123951053D01*
X63129144Y-123962914D01*
X63121161Y-123971832D01*
X63100567Y-123994389D01*
X63083023Y-123997258D01*
X63049174Y-123984467D01*
X63044885Y-123973601D01*
X63023335Y-123951712D01*
X62989669Y-123941819D01*
X62938509Y-123922717D01*
X62924111Y-123895297D01*
X62948585Y-123874001D01*
X62979202Y-123870131D01*
X63031909Y-123857232D01*
X63044885Y-123831992D01*
X63065237Y-123798284D01*
X63083023Y-123793854D01*
X63116731Y-123814206D01*
G37*
G36*
X60504294Y-128603749D02*
G01*
X60558597Y-128614230D01*
X60590751Y-128641746D01*
X60614751Y-128700707D01*
X60621936Y-128724882D01*
X60662570Y-128900583D01*
X60697500Y-129124944D01*
X60726591Y-129396080D01*
X60749711Y-129712109D01*
X60766727Y-130071144D01*
X60777506Y-130471301D01*
X60781915Y-130910696D01*
X60782022Y-130994332D01*
X60782022Y-131904565D01*
X60697128Y-131904565D01*
X60612234Y-131904565D01*
X60594887Y-130892631D01*
X60590279Y-130653264D01*
X60584759Y-130415051D01*
X60578582Y-130186222D01*
X60572007Y-129975004D01*
X60565289Y-129789627D01*
X60558686Y-129638317D01*
X60552455Y-129529305D01*
X60552223Y-129526014D01*
X60538276Y-129355226D01*
X60521072Y-129182710D01*
X60501857Y-129018025D01*
X60481877Y-128870730D01*
X60462378Y-128750384D01*
X60444607Y-128666546D01*
X60436948Y-128641797D01*
X60431826Y-128611123D01*
X60456952Y-128601180D01*
X60504294Y-128603749D01*
G37*
G36*
X61591206Y-124907500D02*
G01*
X61595635Y-124925286D01*
X61612429Y-124951804D01*
X61668099Y-124962732D01*
X61697337Y-124963424D01*
X61766800Y-124957672D01*
X61796240Y-124937834D01*
X61799039Y-124923167D01*
X61813227Y-124895297D01*
X61842500Y-124899366D01*
X61866918Y-124930446D01*
X61869701Y-124940635D01*
X61859651Y-124988966D01*
X61845547Y-125008448D01*
X61801957Y-125027958D01*
X61730844Y-125038867D01*
X61704965Y-125039700D01*
X61638516Y-125044970D01*
X61599734Y-125058240D01*
X61595635Y-125065126D01*
X61575042Y-125087682D01*
X61557497Y-125090551D01*
X61523648Y-125077760D01*
X61519359Y-125066894D01*
X61497810Y-125045005D01*
X61464143Y-125035112D01*
X61412983Y-125016010D01*
X61398586Y-124988590D01*
X61423060Y-124967294D01*
X61453677Y-124963424D01*
X61506383Y-124950525D01*
X61519359Y-124925286D01*
X61539711Y-124891577D01*
X61557497Y-124887148D01*
X61591206Y-124907500D01*
G37*
G36*
X62386601Y-126824850D02*
G01*
X62623103Y-126832193D01*
X62629234Y-126928895D01*
X62620728Y-127019097D01*
X62585870Y-127075091D01*
X62517629Y-127115917D01*
X62488391Y-127118761D01*
X62440046Y-127123463D01*
X62366670Y-127102500D01*
X62311048Y-127057800D01*
X62286726Y-126994131D01*
X62287823Y-126970139D01*
X62287892Y-126964777D01*
X62363104Y-126964777D01*
X62370306Y-127011501D01*
X62416610Y-127036492D01*
X62420641Y-127037537D01*
X62488391Y-127038725D01*
X62523994Y-127022609D01*
X62558550Y-126980406D01*
X62545417Y-126941550D01*
X62525063Y-126922343D01*
X62466763Y-126898216D01*
X62408005Y-126907787D01*
X62368618Y-126945860D01*
X62363104Y-126964777D01*
X62287892Y-126964777D01*
X62288499Y-126917296D01*
X62261161Y-126895288D01*
X62235002Y-126890646D01*
X62182728Y-126873142D01*
X62160864Y-126850275D01*
X62166793Y-126834690D01*
X62201980Y-126825808D01*
X62273601Y-126822821D01*
X62386601Y-126824850D01*
G37*
G36*
X62353968Y-122492084D02*
G01*
X62358398Y-122509870D01*
X62375192Y-122536389D01*
X62430861Y-122547316D01*
X62460100Y-122548008D01*
X62529563Y-122542257D01*
X62559003Y-122522418D01*
X62561802Y-122507751D01*
X62577316Y-122478315D01*
X62593583Y-122477961D01*
X62622722Y-122509625D01*
X62634892Y-122561700D01*
X62623544Y-122604825D01*
X62622200Y-122606262D01*
X62588063Y-122616841D01*
X62521748Y-122623324D01*
X62481288Y-122624285D01*
X62410171Y-122629007D01*
X62365801Y-122641040D01*
X62358398Y-122649710D01*
X62337805Y-122672267D01*
X62320260Y-122675136D01*
X62286411Y-122662345D01*
X62282122Y-122651478D01*
X62260573Y-122629589D01*
X62226906Y-122619697D01*
X62175746Y-122600595D01*
X62161348Y-122573175D01*
X62185822Y-122551879D01*
X62216440Y-122548008D01*
X62269146Y-122535110D01*
X62282122Y-122509870D01*
X62302474Y-122476162D01*
X62320260Y-122471732D01*
X62353968Y-122492084D01*
G37*
G36*
X63378391Y-126799621D02*
G01*
X63393738Y-126824072D01*
X63399906Y-126879039D01*
X63400841Y-126946607D01*
X63400841Y-127099160D01*
X63172012Y-127099160D01*
X62943183Y-127099160D01*
X62943183Y-126946607D01*
X62946112Y-126858027D01*
X62956495Y-126810468D01*
X62976726Y-126794355D01*
X62981321Y-126794054D01*
X63006458Y-126809028D01*
X63017909Y-126859941D01*
X63019459Y-126908469D01*
X63024450Y-126983881D01*
X63041421Y-127018231D01*
X63057597Y-127022883D01*
X63088271Y-127000781D01*
X63095736Y-126959320D01*
X63107654Y-126909476D01*
X63146586Y-126895756D01*
X63186462Y-126910654D01*
X63197437Y-126959320D01*
X63209355Y-127009164D01*
X63248288Y-127022883D01*
X63280066Y-127015397D01*
X63295093Y-126984312D01*
X63299120Y-126916688D01*
X63299139Y-126908469D01*
X63302466Y-126836969D01*
X63316282Y-126803159D01*
X63346337Y-126794098D01*
X63349990Y-126794054D01*
X63378391Y-126799621D01*
G37*
G36*
X61870590Y-126558869D02*
G01*
X61864939Y-126634479D01*
X61849438Y-126693675D01*
X61846899Y-126698709D01*
X61801613Y-126734492D01*
X61755898Y-126739100D01*
X61737959Y-126740908D01*
X61680436Y-126715943D01*
X61676997Y-126712693D01*
X61654186Y-126665842D01*
X61646486Y-126610991D01*
X61644040Y-126594352D01*
X61711644Y-126594352D01*
X61721739Y-126639832D01*
X61722272Y-126640709D01*
X61755898Y-126659855D01*
X61772179Y-126655101D01*
X61793555Y-126617708D01*
X61784888Y-126571477D01*
X61757677Y-126547189D01*
X61726313Y-126556368D01*
X61711644Y-126594352D01*
X61644040Y-126594352D01*
X61638167Y-126554397D01*
X61619540Y-126542683D01*
X61600106Y-126573894D01*
X61590890Y-126622433D01*
X61575925Y-126686224D01*
X61553728Y-126701912D01*
X61532920Y-126669711D01*
X61523981Y-126620772D01*
X61526312Y-126542897D01*
X61556336Y-126494586D01*
X61621364Y-126470058D01*
X61722879Y-126463524D01*
X61869321Y-126463524D01*
X61870590Y-126558869D01*
G37*
G36*
X62391402Y-131054480D02*
G01*
X62427808Y-131101762D01*
X62434674Y-131158033D01*
X62425303Y-131222637D01*
X62401715Y-131257675D01*
X62400215Y-131258323D01*
X62357960Y-131264103D01*
X62282451Y-131265918D01*
X62203168Y-131263882D01*
X62115047Y-131258485D01*
X62065556Y-131249041D01*
X62042499Y-131229901D01*
X62033679Y-131195412D01*
X62032387Y-131184759D01*
X62040845Y-131105384D01*
X62081902Y-131053964D01*
X62132683Y-131040101D01*
X62172423Y-131054698D01*
X62176741Y-131086368D01*
X62146859Y-131116929D01*
X62127011Y-131124413D01*
X62087397Y-131143426D01*
X62091172Y-131164079D01*
X62131265Y-131181745D01*
X62200601Y-131191792D01*
X62231271Y-131192653D01*
X62309381Y-131186470D01*
X62360786Y-131171007D01*
X62378414Y-131150893D01*
X62355191Y-131130759D01*
X62335531Y-131124413D01*
X62295448Y-131100053D01*
X62282635Y-131066714D01*
X62300892Y-131042856D01*
X62318181Y-131040101D01*
X62391402Y-131054480D01*
G37*
G36*
X62467593Y-123997894D02*
G01*
X62483795Y-124056684D01*
X62485525Y-124102579D01*
X62491490Y-124172025D01*
X62510160Y-124195300D01*
X62517307Y-124194180D01*
X62541484Y-124163577D01*
X62550252Y-124116740D01*
X62559807Y-124052727D01*
X62581759Y-124026332D01*
X62610262Y-124043816D01*
X62613646Y-124048845D01*
X62636368Y-124125532D01*
X62609111Y-124200510D01*
X62587227Y-124226086D01*
X62519105Y-124264802D01*
X62434197Y-124275981D01*
X62383824Y-124265057D01*
X62355042Y-124258815D01*
X62320703Y-124235610D01*
X62286645Y-124169980D01*
X62288959Y-124122884D01*
X62358398Y-124122884D01*
X62370073Y-124171557D01*
X62383824Y-124187948D01*
X62402677Y-124178947D01*
X62409249Y-124138598D01*
X62400729Y-124090103D01*
X62383824Y-124073534D01*
X62362961Y-124094762D01*
X62358398Y-124122884D01*
X62288959Y-124122884D01*
X62290354Y-124094485D01*
X62328127Y-124028688D01*
X62364858Y-124002354D01*
X62429791Y-123981315D01*
X62467593Y-123997894D01*
G37*
G36*
X63356194Y-129052789D02*
G01*
X63390634Y-129106792D01*
X63401838Y-129178666D01*
X63387212Y-129253579D01*
X63349990Y-129311172D01*
X63278904Y-129350752D01*
X63188209Y-129361019D01*
X63101448Y-129339559D01*
X63096738Y-129337134D01*
X63050162Y-129288455D01*
X63017035Y-129211497D01*
X63005260Y-129128529D01*
X63009775Y-129092042D01*
X63032901Y-129047752D01*
X63082443Y-129032254D01*
X63104848Y-129031587D01*
X63184725Y-129031682D01*
X63102092Y-129082064D01*
X63044346Y-129119907D01*
X63023409Y-129148601D01*
X63032125Y-129184550D01*
X63045779Y-129211141D01*
X63079098Y-129244743D01*
X63140508Y-129258906D01*
X63183540Y-129260321D01*
X63261989Y-129256920D01*
X63323039Y-129248417D01*
X63335198Y-129244888D01*
X63368839Y-129209446D01*
X63371757Y-129153769D01*
X63345722Y-129096738D01*
X63318907Y-129071072D01*
X63285560Y-129041904D01*
X63297302Y-129031582D01*
X63301109Y-129031492D01*
X63356194Y-129052789D01*
G37*
G36*
X63261050Y-126088874D02*
G01*
X63331530Y-126116906D01*
X63379574Y-126166967D01*
X63392790Y-126233519D01*
X63389847Y-126249611D01*
X63385797Y-126295080D01*
X63414772Y-126310076D01*
X63438494Y-126310971D01*
X63489980Y-126324148D01*
X63502542Y-126349110D01*
X63493550Y-126367829D01*
X63460752Y-126379439D01*
X63395415Y-126385417D01*
X63288806Y-126387237D01*
X63276938Y-126387248D01*
X63192480Y-126387248D01*
X63051334Y-126387248D01*
X63049053Y-126273614D01*
X63050437Y-126249812D01*
X63125949Y-126249812D01*
X63153485Y-126290840D01*
X63192480Y-126306567D01*
X63255890Y-126300783D01*
X63301500Y-126271756D01*
X63321993Y-126231686D01*
X63310051Y-126192771D01*
X63273713Y-126171132D01*
X63206602Y-126165227D01*
X63170530Y-126171602D01*
X63130589Y-126203662D01*
X63125949Y-126249812D01*
X63050437Y-126249812D01*
X63053724Y-126193300D01*
X63076095Y-126144262D01*
X63102336Y-126121061D01*
X63180522Y-126088413D01*
X63261050Y-126088874D01*
G37*
G36*
X61068058Y-134349994D02*
G01*
X61119479Y-134378907D01*
X61133272Y-134414425D01*
X61140170Y-134440491D01*
X61158402Y-134457422D01*
X61197684Y-134467649D01*
X61267735Y-134473605D01*
X61378272Y-134477722D01*
X61387231Y-134477988D01*
X61505091Y-134482993D01*
X61580710Y-134490689D01*
X61622689Y-134502661D01*
X61639626Y-134520488D01*
X61640714Y-134524624D01*
X61637530Y-134569830D01*
X61630415Y-134581831D01*
X61598683Y-134589613D01*
X61528391Y-134595674D01*
X61431821Y-134599155D01*
X61375282Y-134599660D01*
X61264190Y-134600454D01*
X61194428Y-134604194D01*
X61156484Y-134612919D01*
X61140845Y-134628666D01*
X61137978Y-134650511D01*
X61123080Y-134690386D01*
X61074414Y-134701362D01*
X61041332Y-134698780D01*
X61022333Y-134683684D01*
X61013515Y-134645047D01*
X61010981Y-134571841D01*
X61010851Y-134521615D01*
X61011821Y-134428212D01*
X61017058Y-134375182D01*
X61030052Y-134352054D01*
X61054294Y-134348358D01*
X61068058Y-134349994D01*
G37*
G36*
X61868381Y-125239747D02*
G01*
X61862555Y-125315130D01*
X61848227Y-125373245D01*
X61845159Y-125379587D01*
X61801256Y-125413087D01*
X61763621Y-125416458D01*
X61738507Y-125418707D01*
X61681607Y-125394834D01*
X61676997Y-125390571D01*
X61654186Y-125343720D01*
X61646486Y-125288869D01*
X61642630Y-125262634D01*
X61714291Y-125262634D01*
X61714338Y-125308561D01*
X61715122Y-125310718D01*
X61748193Y-125341883D01*
X61763621Y-125344805D01*
X61791028Y-125325190D01*
X61798062Y-125282296D01*
X61783249Y-125240054D01*
X61770771Y-125228634D01*
X61737374Y-125229691D01*
X61714291Y-125262634D01*
X61642630Y-125262634D01*
X61638167Y-125232275D01*
X61619540Y-125220561D01*
X61600106Y-125251772D01*
X61590890Y-125300311D01*
X61575925Y-125364102D01*
X61553728Y-125379790D01*
X61532920Y-125347589D01*
X61523981Y-125298650D01*
X61526340Y-125220701D01*
X61556460Y-125172369D01*
X61621638Y-125147869D01*
X61722409Y-125141402D01*
X61868381Y-125141402D01*
X61868381Y-125239747D01*
G37*
G36*
X62468664Y-123091423D02*
G01*
X62482188Y-123127875D01*
X62485525Y-123199470D01*
X62487487Y-123269039D01*
X62496167Y-123296724D01*
X62515755Y-123291431D01*
X62525298Y-123283989D01*
X62553343Y-123230484D01*
X62550630Y-123193445D01*
X62549019Y-123139967D01*
X62569977Y-123119614D01*
X62601340Y-123139917D01*
X62611377Y-123155835D01*
X62636491Y-123235895D01*
X62615240Y-123301814D01*
X62598162Y-123321630D01*
X62521961Y-123370355D01*
X62439283Y-123381800D01*
X62383824Y-123365381D01*
X62363513Y-123359368D01*
X62308034Y-123306462D01*
X62287050Y-123242501D01*
X62288314Y-123235995D01*
X62358398Y-123235995D01*
X62369335Y-123276489D01*
X62383824Y-123285346D01*
X62402774Y-123263542D01*
X62409249Y-123220282D01*
X62401178Y-123177023D01*
X62383824Y-123170931D01*
X62362465Y-123206793D01*
X62358398Y-123235995D01*
X62288314Y-123235995D01*
X62302074Y-123165198D01*
X62354802Y-123107276D01*
X62432437Y-123082139D01*
X62440332Y-123081942D01*
X62468664Y-123091423D01*
G37*
G36*
X63394073Y-123564574D02*
G01*
X63386294Y-123649480D01*
X63359521Y-123704414D01*
X63295993Y-123741448D01*
X63281424Y-123739756D01*
X63235549Y-123734428D01*
X63190215Y-123689357D01*
X63172017Y-123612239D01*
X63172012Y-123610791D01*
X63169468Y-123594152D01*
X63237170Y-123594152D01*
X63247265Y-123639632D01*
X63247798Y-123640508D01*
X63281424Y-123659654D01*
X63297704Y-123654901D01*
X63319081Y-123617508D01*
X63310413Y-123571277D01*
X63283202Y-123546989D01*
X63251838Y-123556168D01*
X63237170Y-123594152D01*
X63169468Y-123594152D01*
X63164165Y-123559475D01*
X63146586Y-123539600D01*
X63128734Y-123561694D01*
X63121163Y-123614927D01*
X63121161Y-123615876D01*
X63109790Y-123676432D01*
X63083023Y-123692153D01*
X63057087Y-123670827D01*
X63045120Y-123619747D01*
X63047867Y-123558260D01*
X63066072Y-123505713D01*
X63075395Y-123493834D01*
X63116429Y-123476889D01*
X63189460Y-123465811D01*
X63247970Y-123463324D01*
X63390035Y-123463324D01*
X63394073Y-123564574D01*
G37*
G36*
X63400422Y-126463159D02*
G01*
X63400841Y-126474795D01*
X63381729Y-126515634D01*
X63344332Y-126551071D01*
X63287824Y-126590651D01*
X63344332Y-126630231D01*
X63389497Y-126672351D01*
X63398405Y-126704789D01*
X63368375Y-126717778D01*
X63368360Y-126717778D01*
X63324869Y-126704111D01*
X63276242Y-126676007D01*
X63230379Y-126649477D01*
X63191905Y-126651830D01*
X63145891Y-126676007D01*
X63092675Y-126704934D01*
X63060712Y-126717743D01*
X63060031Y-126717778D01*
X63043524Y-126700780D01*
X63051360Y-126663433D01*
X63077558Y-126626208D01*
X63089379Y-126617340D01*
X63120337Y-126594050D01*
X63106549Y-126574649D01*
X63089379Y-126563962D01*
X63052503Y-126525540D01*
X63044885Y-126500399D01*
X63049484Y-126471534D01*
X63070923Y-126467477D01*
X63120667Y-126488491D01*
X63148726Y-126502769D01*
X63204081Y-126526569D01*
X63245398Y-126522589D01*
X63297585Y-126490056D01*
X63358688Y-126450004D01*
X63389970Y-126441481D01*
X63400422Y-126463159D01*
G37*
G36*
X63231427Y-125735668D02*
G01*
X63244950Y-125772119D01*
X63248288Y-125843714D01*
X63250250Y-125913283D01*
X63258930Y-125940968D01*
X63278518Y-125935676D01*
X63288061Y-125928233D01*
X63316106Y-125874469D01*
X63313002Y-125836131D01*
X63316027Y-125789667D01*
X63343181Y-125775408D01*
X63375703Y-125798245D01*
X63385408Y-125817255D01*
X63399053Y-125894553D01*
X63368658Y-125959985D01*
X63349990Y-125980441D01*
X63280464Y-126020379D01*
X63196151Y-126030089D01*
X63146586Y-126016739D01*
X63118652Y-126009215D01*
X63086963Y-125984795D01*
X63050318Y-125912597D01*
X63052345Y-125877239D01*
X63121161Y-125877239D01*
X63132836Y-125925912D01*
X63146586Y-125942303D01*
X63165440Y-125933301D01*
X63172012Y-125892952D01*
X63163492Y-125844457D01*
X63146586Y-125827888D01*
X63125724Y-125849116D01*
X63121161Y-125877239D01*
X63052345Y-125877239D01*
X63054667Y-125836740D01*
X63093501Y-125771715D01*
X63160312Y-125732014D01*
X63203095Y-125726187D01*
X63231427Y-125735668D01*
G37*
G36*
X61715640Y-123758955D02*
G01*
X61722201Y-123802151D01*
X61722763Y-123856780D01*
X61727478Y-123933489D01*
X61742578Y-123965024D01*
X61754544Y-123965351D01*
X61778721Y-123934748D01*
X61787489Y-123887912D01*
X61797044Y-123823898D01*
X61818996Y-123797503D01*
X61847499Y-123814988D01*
X61850883Y-123820016D01*
X61873605Y-123896703D01*
X61846348Y-123971681D01*
X61824464Y-123997258D01*
X61757072Y-124035642D01*
X61672808Y-124047290D01*
X61621061Y-124036746D01*
X61594218Y-124031277D01*
X61559313Y-124008154D01*
X61528636Y-123951037D01*
X61522377Y-123894055D01*
X61595635Y-123894055D01*
X61607311Y-123942729D01*
X61621061Y-123959120D01*
X61639914Y-123950118D01*
X61646486Y-123909769D01*
X61637966Y-123861274D01*
X61621061Y-123844705D01*
X61600198Y-123865933D01*
X61595635Y-123894055D01*
X61522377Y-123894055D01*
X61520757Y-123879310D01*
X61536603Y-123817107D01*
X61551283Y-123799012D01*
X61599197Y-123773088D01*
X61652985Y-123755004D01*
X61695200Y-123747078D01*
X61715640Y-123758955D01*
G37*
G36*
X62478403Y-125233629D02*
G01*
X62484963Y-125276826D01*
X62485525Y-125331455D01*
X62490241Y-125408164D01*
X62505341Y-125439699D01*
X62517307Y-125440025D01*
X62541484Y-125409423D01*
X62550252Y-125362586D01*
X62559807Y-125298573D01*
X62581759Y-125272178D01*
X62610262Y-125289662D01*
X62613646Y-125294691D01*
X62636368Y-125371377D01*
X62609111Y-125446356D01*
X62587227Y-125471932D01*
X62519834Y-125510316D01*
X62435571Y-125521965D01*
X62383824Y-125511421D01*
X62356981Y-125505952D01*
X62322076Y-125482829D01*
X62291399Y-125425712D01*
X62285140Y-125368730D01*
X62358398Y-125368730D01*
X62370073Y-125417403D01*
X62383824Y-125433794D01*
X62402677Y-125424793D01*
X62409249Y-125384444D01*
X62400729Y-125335948D01*
X62383824Y-125319380D01*
X62362961Y-125340608D01*
X62358398Y-125368730D01*
X62285140Y-125368730D01*
X62283520Y-125353985D01*
X62299365Y-125291782D01*
X62314046Y-125273686D01*
X62361960Y-125247762D01*
X62415748Y-125229679D01*
X62457963Y-125221752D01*
X62478403Y-125233629D01*
G37*
G36*
X63226072Y-124409763D02*
G01*
X63243847Y-124436267D01*
X63248258Y-124497690D01*
X63248288Y-124507885D01*
X63254101Y-124577950D01*
X63272356Y-124601996D01*
X63280070Y-124600900D01*
X63304028Y-124570233D01*
X63311852Y-124524765D01*
X63320749Y-124461922D01*
X63342901Y-124434104D01*
X63371493Y-124448606D01*
X63376408Y-124455652D01*
X63399472Y-124534802D01*
X63377029Y-124612885D01*
X63348725Y-124646750D01*
X63279570Y-124682164D01*
X63193106Y-124692671D01*
X63146586Y-124683525D01*
X63113531Y-124677027D01*
X63085399Y-124660291D01*
X63052590Y-124604237D01*
X63049616Y-124558118D01*
X63121161Y-124558118D01*
X63132098Y-124598611D01*
X63146586Y-124607468D01*
X63165537Y-124585664D01*
X63172012Y-124542404D01*
X63163941Y-124499145D01*
X63146586Y-124493053D01*
X63125227Y-124528915D01*
X63121161Y-124558118D01*
X63049616Y-124558118D01*
X63047792Y-124529832D01*
X63071065Y-124461206D01*
X63084839Y-124444019D01*
X63141576Y-124412067D01*
X63186541Y-124404064D01*
X63226072Y-124409763D01*
G37*
G36*
X61307836Y-136156195D02*
G01*
X61633774Y-136163324D01*
X61638020Y-136315876D01*
X61633886Y-136422663D01*
X61617325Y-136509236D01*
X61606506Y-136536289D01*
X61550253Y-136596316D01*
X61466186Y-136637722D01*
X61407915Y-136646745D01*
X61376396Y-136651626D01*
X61335424Y-136645240D01*
X61243497Y-136597221D01*
X61180114Y-136524480D01*
X61152852Y-136439182D01*
X61154544Y-136427161D01*
X61269197Y-136427161D01*
X61299991Y-136477970D01*
X61365310Y-136508746D01*
X61407915Y-136512923D01*
X61473469Y-136493238D01*
X61512439Y-136444975D01*
X61521122Y-136384321D01*
X61495818Y-136327463D01*
X61456837Y-136299012D01*
X61398977Y-136284282D01*
X61342908Y-136304556D01*
X61329710Y-136312856D01*
X61277558Y-136368172D01*
X61269197Y-136427161D01*
X61154544Y-136427161D01*
X61162847Y-136368191D01*
X61174101Y-136327181D01*
X61158290Y-136307869D01*
X61104367Y-136299306D01*
X61092297Y-136298271D01*
X61028644Y-136287715D01*
X60999573Y-136262099D01*
X60990018Y-136219758D01*
X60981898Y-136149065D01*
X61307836Y-136156195D01*
G37*
G36*
X62425216Y-133470404D02*
G01*
X62434940Y-133500392D01*
X62417798Y-133534721D01*
X62396536Y-133548023D01*
X62362745Y-133580036D01*
X62358398Y-133598076D01*
X62378809Y-133629409D01*
X62396536Y-133633494D01*
X62428316Y-133654421D01*
X62434674Y-133680118D01*
X62431791Y-133702538D01*
X62416447Y-133713458D01*
X62378604Y-133713266D01*
X62308222Y-133702351D01*
X62231271Y-133687976D01*
X62218558Y-133685370D01*
X62129855Y-133667184D01*
X62068825Y-133649363D01*
X62038281Y-133629931D01*
X62028324Y-133604304D01*
X62028064Y-133598320D01*
X62154995Y-133598320D01*
X62176820Y-133605657D01*
X62218558Y-133608068D01*
X62266358Y-133600565D01*
X62282122Y-133586169D01*
X62260968Y-133573935D01*
X62218558Y-133576420D01*
X62170921Y-133588839D01*
X62154995Y-133598320D01*
X62028064Y-133598320D01*
X62027868Y-133593809D01*
X62034490Y-133561974D01*
X62061725Y-133539966D01*
X62120622Y-133521833D01*
X62186777Y-133508225D01*
X62277644Y-133490276D01*
X62352871Y-133474195D01*
X62390180Y-133465066D01*
X62425216Y-133470404D01*
G37*
G36*
X62425216Y-135199333D02*
G01*
X62434940Y-135229321D01*
X62417798Y-135263650D01*
X62396536Y-135276952D01*
X62362745Y-135308965D01*
X62358398Y-135327005D01*
X62378809Y-135358338D01*
X62396536Y-135362423D01*
X62428316Y-135383350D01*
X62434674Y-135409047D01*
X62431791Y-135431467D01*
X62416447Y-135442387D01*
X62378604Y-135442195D01*
X62308222Y-135431280D01*
X62231271Y-135416905D01*
X62218558Y-135414298D01*
X62129855Y-135396112D01*
X62068825Y-135378292D01*
X62038281Y-135358860D01*
X62028324Y-135333233D01*
X62028064Y-135327249D01*
X62154995Y-135327249D01*
X62176820Y-135334586D01*
X62218558Y-135336997D01*
X62266358Y-135329494D01*
X62282122Y-135315098D01*
X62260968Y-135302864D01*
X62218558Y-135305349D01*
X62170921Y-135317768D01*
X62154995Y-135327249D01*
X62028064Y-135327249D01*
X62027868Y-135322738D01*
X62034490Y-135290903D01*
X62061725Y-135268895D01*
X62120622Y-135250762D01*
X62186777Y-135237154D01*
X62277644Y-135219205D01*
X62352871Y-135203124D01*
X62390180Y-135193995D01*
X62425216Y-135199333D01*
G37*
G36*
X62434522Y-135821337D02*
G01*
X62434674Y-135834116D01*
X62413063Y-135869101D01*
X62360820Y-135899303D01*
X62358398Y-135900167D01*
X62305574Y-135925010D01*
X62282186Y-135948731D01*
X62282122Y-135949695D01*
X62304226Y-135965804D01*
X62357481Y-135972631D01*
X62358398Y-135972633D01*
X62418954Y-135984004D01*
X62434674Y-136010771D01*
X62425094Y-136030340D01*
X62390333Y-136042083D01*
X62321364Y-136047695D01*
X62231271Y-136048909D01*
X62148638Y-136048909D01*
X62027868Y-136048909D01*
X62027868Y-135948102D01*
X62030300Y-135934495D01*
X62091431Y-135934495D01*
X62113056Y-135957438D01*
X62148638Y-135968045D01*
X62195259Y-135961881D01*
X62205846Y-135934495D01*
X62188295Y-135903025D01*
X62148638Y-135900945D01*
X62103926Y-135916906D01*
X62091431Y-135934495D01*
X62030300Y-135934495D01*
X62043681Y-135859613D01*
X62088874Y-135811278D01*
X62160077Y-135805570D01*
X62203477Y-135819100D01*
X62289709Y-135834241D01*
X62342666Y-135821229D01*
X62402154Y-135800102D01*
X62428157Y-135799491D01*
X62434522Y-135821337D01*
G37*
G36*
X62586387Y-124713125D02*
G01*
X62659115Y-124726103D01*
X62699825Y-124749124D01*
X62732377Y-124803681D01*
X62737438Y-124861533D01*
X62714354Y-124899860D01*
X62692101Y-124894701D01*
X62688929Y-124879049D01*
X62670902Y-124834091D01*
X62647123Y-124807828D01*
X62617792Y-124787666D01*
X62616381Y-124806492D01*
X62623106Y-124829179D01*
X62625229Y-124903339D01*
X62588308Y-124961892D01*
X62523351Y-124998217D01*
X62441381Y-125005694D01*
X62441363Y-125005696D01*
X62365660Y-124984024D01*
X62321306Y-124955851D01*
X62299295Y-124915382D01*
X62292188Y-124855366D01*
X62362986Y-124855366D01*
X62364326Y-124894271D01*
X62392490Y-124910054D01*
X62441381Y-124912573D01*
X62518419Y-124905388D01*
X62553787Y-124880533D01*
X62555976Y-124837537D01*
X62526371Y-124807093D01*
X62459752Y-124798159D01*
X62397438Y-124804406D01*
X62369504Y-124829293D01*
X62362986Y-124855366D01*
X62292188Y-124855366D01*
X62290939Y-124844816D01*
X62290293Y-124829650D01*
X62285751Y-124709170D01*
X62472811Y-124709170D01*
X62586387Y-124713125D01*
G37*
G36*
X61811368Y-126116856D02*
G01*
X61811599Y-126117025D01*
X61839758Y-126159472D01*
X61860296Y-126227810D01*
X61869598Y-126301025D01*
X61864048Y-126358100D01*
X61855641Y-126373021D01*
X61825282Y-126379591D01*
X61757045Y-126384554D01*
X61666955Y-126387003D01*
X61663894Y-126387086D01*
X61632256Y-126387248D01*
X61522505Y-126385070D01*
X61454329Y-126377498D01*
X61418599Y-126362977D01*
X61408463Y-126349110D01*
X61411029Y-126320792D01*
X61454019Y-126311130D01*
X61464903Y-126310971D01*
X61514572Y-126305157D01*
X61528857Y-126277020D01*
X61526348Y-126249812D01*
X61600424Y-126249812D01*
X61627960Y-126290840D01*
X61666955Y-126306567D01*
X61730365Y-126300783D01*
X61775975Y-126271756D01*
X61796467Y-126231686D01*
X61784525Y-126192771D01*
X61748188Y-126171132D01*
X61681077Y-126165227D01*
X61645004Y-126171602D01*
X61605064Y-126203662D01*
X61600424Y-126249812D01*
X61526348Y-126249812D01*
X61525243Y-126237835D01*
X61536643Y-126168412D01*
X61584281Y-126115980D01*
X61654831Y-126086163D01*
X61734968Y-126084581D01*
X61811368Y-126116856D01*
G37*
G36*
X62332615Y-130405527D02*
G01*
X62393353Y-130410416D01*
X62423714Y-130421691D01*
X62433926Y-130441909D01*
X62434674Y-130455316D01*
X62424720Y-130490363D01*
X62385859Y-130504504D01*
X62345685Y-130506167D01*
X62279868Y-130514437D01*
X62256857Y-130540831D01*
X62256696Y-130544305D01*
X62275994Y-130572512D01*
X62337581Y-130582374D01*
X62345685Y-130582443D01*
X62411503Y-130590713D01*
X62434514Y-130617108D01*
X62434674Y-130620581D01*
X62425094Y-130640149D01*
X62390333Y-130651893D01*
X62321364Y-130657505D01*
X62231271Y-130658719D01*
X62126907Y-130656923D01*
X62064273Y-130650405D01*
X62034343Y-130637473D01*
X62027868Y-130620581D01*
X62050609Y-130590303D01*
X62104144Y-130582443D01*
X62164700Y-130571072D01*
X62180420Y-130544305D01*
X62157679Y-130514027D01*
X62104144Y-130506167D01*
X62048312Y-130498175D01*
X62028655Y-130468442D01*
X62027868Y-130455316D01*
X62032114Y-130429980D01*
X62051673Y-130414795D01*
X62096773Y-130407205D01*
X62177642Y-130404652D01*
X62231271Y-130404465D01*
X62332615Y-130405527D01*
G37*
G36*
X59035346Y-128793926D02*
G01*
X59084282Y-128824378D01*
X59158704Y-128878480D01*
X59228193Y-128930696D01*
X59500682Y-129167371D01*
X59735837Y-129437836D01*
X59932147Y-129739789D01*
X60088102Y-130070932D01*
X60195959Y-130404465D01*
X60227870Y-130567779D01*
X60250380Y-130765901D01*
X60262997Y-130983575D01*
X60265230Y-131205547D01*
X60256589Y-131416559D01*
X60236581Y-131601356D01*
X60234863Y-131612173D01*
X60207543Y-131750467D01*
X60178738Y-131838540D01*
X60154815Y-131872520D01*
X60116572Y-131894052D01*
X60102617Y-131894696D01*
X60101374Y-131867215D01*
X60105101Y-131799738D01*
X60113065Y-131702799D01*
X60123021Y-131601243D01*
X60137930Y-131222357D01*
X60105469Y-130839765D01*
X60027303Y-130462913D01*
X59905094Y-130101249D01*
X59828853Y-129930827D01*
X59638548Y-129594544D01*
X59411736Y-129290433D01*
X59151535Y-129022396D01*
X59002242Y-128897140D01*
X58949435Y-128851885D01*
X58934183Y-128823864D01*
X58951096Y-128803086D01*
X58951391Y-128802893D01*
X58977906Y-128787342D01*
X59002889Y-128782967D01*
X59035346Y-128793926D01*
G37*
G36*
X60460779Y-132998342D02*
G01*
X60545797Y-133001136D01*
X60600606Y-133008254D01*
X60635528Y-133021711D01*
X60660882Y-133043521D01*
X60678475Y-133064851D01*
X60723786Y-133160093D01*
X60724421Y-133263097D01*
X60680708Y-133358201D01*
X60672145Y-133368749D01*
X60643822Y-133398923D01*
X60613723Y-133418765D01*
X60570980Y-133430574D01*
X60504723Y-133436654D01*
X60404085Y-133439306D01*
X60335259Y-133440087D01*
X60057397Y-133442803D01*
X60049352Y-133372883D01*
X60041307Y-133302963D01*
X60294137Y-133302963D01*
X60417857Y-133301201D01*
X60500290Y-133295024D01*
X60550909Y-133283101D01*
X60579185Y-133264099D01*
X60580387Y-133262694D01*
X60600064Y-133213709D01*
X60587154Y-133180061D01*
X60564768Y-133159736D01*
X60521770Y-133145949D01*
X60448836Y-133137076D01*
X60336643Y-133131491D01*
X60302592Y-133130452D01*
X60186231Y-133126744D01*
X60111492Y-133121835D01*
X60069164Y-133113228D01*
X60050034Y-133098425D01*
X60044891Y-133074928D01*
X60044684Y-133060532D01*
X60044684Y-132997858D01*
X60335231Y-132997858D01*
X60460779Y-132998342D01*
G37*
G36*
X62434674Y-136507365D02*
G01*
X62426232Y-136582694D01*
X62403304Y-136621610D01*
X62400215Y-136623088D01*
X62357960Y-136628868D01*
X62282451Y-136630683D01*
X62203168Y-136628646D01*
X62115047Y-136623250D01*
X62065556Y-136613806D01*
X62042499Y-136594665D01*
X62033679Y-136560177D01*
X62032387Y-136549524D01*
X62039845Y-136474214D01*
X62074988Y-136421277D01*
X62119970Y-136404865D01*
X62150208Y-136421369D01*
X62150654Y-136456269D01*
X62122510Y-136487651D01*
X62115245Y-136490954D01*
X62084582Y-136512969D01*
X62097377Y-136534158D01*
X62146348Y-136550352D01*
X62224212Y-136557377D01*
X62231271Y-136557418D01*
X62312373Y-136551224D01*
X62363084Y-136535353D01*
X62376785Y-136513874D01*
X62346855Y-136490853D01*
X62342465Y-136489100D01*
X62300440Y-136487969D01*
X62287884Y-136501993D01*
X62265728Y-136531643D01*
X62242783Y-136519428D01*
X62231326Y-136472626D01*
X62231271Y-136468429D01*
X62236822Y-136427476D01*
X62263005Y-136409274D01*
X62324116Y-136404888D01*
X62332973Y-136404865D01*
X62434674Y-136404865D01*
X62434674Y-136507365D01*
G37*
G36*
X61361400Y-135242402D02*
G01*
X61483217Y-135278180D01*
X61572655Y-135352056D01*
X61625932Y-135460082D01*
X61638373Y-135531682D01*
X61638174Y-135628401D01*
X61614516Y-135703216D01*
X61595193Y-135735932D01*
X61522238Y-135809353D01*
X61428833Y-135860157D01*
X61355388Y-135885170D01*
X61315956Y-135888543D01*
X61301561Y-135889774D01*
X61240406Y-135873993D01*
X61203604Y-135860358D01*
X61096223Y-135797788D01*
X61026886Y-135713152D01*
X60993318Y-135615367D01*
X60993267Y-135548529D01*
X61112552Y-135548529D01*
X61135498Y-135638068D01*
X61196480Y-135706100D01*
X61283717Y-135741313D01*
X61315956Y-135743804D01*
X61409727Y-135723497D01*
X61476756Y-135670464D01*
X61511810Y-135596542D01*
X61509659Y-135513567D01*
X61465070Y-135433373D01*
X61456951Y-135424831D01*
X61375031Y-135372841D01*
X61315956Y-135362423D01*
X61235479Y-135383164D01*
X61165055Y-135435786D01*
X61120421Y-135505888D01*
X61112552Y-135548529D01*
X60993267Y-135548529D01*
X60993240Y-135513349D01*
X61024376Y-135416015D01*
X61084449Y-135332282D01*
X61171183Y-135271067D01*
X61282299Y-135241287D01*
X61361400Y-135242402D01*
G37*
G36*
X62573448Y-123451535D02*
G01*
X62617569Y-123472453D01*
X62625365Y-123488749D01*
X62610058Y-123513453D01*
X62558645Y-123528264D01*
X62490284Y-123534628D01*
X62410846Y-123542018D01*
X62371729Y-123555181D01*
X62362427Y-123578327D01*
X62363395Y-123585479D01*
X62382206Y-123613177D01*
X62432433Y-123629189D01*
X62504833Y-123636274D01*
X62589863Y-123645967D01*
X62631281Y-123663987D01*
X62638078Y-123680769D01*
X62623086Y-123704119D01*
X62572424Y-123715465D01*
X62510153Y-123717578D01*
X62424544Y-123722919D01*
X62378842Y-123740833D01*
X62366608Y-123758282D01*
X62369864Y-123803909D01*
X62420149Y-123832738D01*
X62516284Y-123844149D01*
X62530020Y-123844316D01*
X62608301Y-123851327D01*
X62637874Y-123871794D01*
X62621128Y-123904031D01*
X62588592Y-123912878D01*
X62520765Y-123919012D01*
X62444144Y-123920981D01*
X62284111Y-123920981D01*
X62285918Y-123703171D01*
X62287594Y-123597458D01*
X62292557Y-123531366D01*
X62303925Y-123493665D01*
X62324819Y-123473125D01*
X62353361Y-123460405D01*
X62425482Y-123443858D01*
X62504132Y-123441452D01*
X62573448Y-123451535D01*
G37*
G36*
X63066829Y-131495895D02*
G01*
X63107366Y-131539637D01*
X63143271Y-131614967D01*
X63166830Y-131702713D01*
X63171870Y-131756976D01*
X63184222Y-131785136D01*
X63228143Y-131801005D01*
X63292554Y-131807827D01*
X63371999Y-131818184D01*
X63411802Y-131838958D01*
X63421545Y-131860070D01*
X63420828Y-131879189D01*
X63404586Y-131891919D01*
X63364639Y-131899534D01*
X63292806Y-131903308D01*
X63180904Y-131904513D01*
X63135738Y-131904565D01*
X63006747Y-131904565D01*
X62841481Y-131904565D01*
X62841623Y-131796507D01*
X62846090Y-131737628D01*
X62892332Y-131737628D01*
X62896838Y-131777853D01*
X62919462Y-131796911D01*
X62973870Y-131802591D01*
X63006747Y-131802863D01*
X63077613Y-131799972D01*
X63111182Y-131786764D01*
X63120889Y-131756442D01*
X63121161Y-131744957D01*
X63106584Y-131679341D01*
X63081581Y-131630543D01*
X63027536Y-131582465D01*
X62972612Y-131578956D01*
X62926098Y-131614762D01*
X62897280Y-131684627D01*
X62892332Y-131737628D01*
X62846090Y-131737628D01*
X62851744Y-131663100D01*
X62880069Y-131561559D01*
X62924119Y-131498755D01*
X62954668Y-131483082D01*
X63024059Y-131482298D01*
X63066829Y-131495895D01*
G37*
G36*
X63398672Y-128631360D02*
G01*
X63398879Y-128637398D01*
X63400931Y-128713674D01*
X63231502Y-128713674D01*
X63128151Y-128717804D01*
X63070011Y-128731985D01*
X63051980Y-128758906D01*
X63068013Y-128799779D01*
X63107380Y-128825362D01*
X63176173Y-128842734D01*
X63255812Y-128850367D01*
X63327719Y-128846735D01*
X63373313Y-128830311D01*
X63377722Y-128825226D01*
X63393699Y-128814511D01*
X63400205Y-128850946D01*
X63400510Y-128866227D01*
X63400957Y-128942503D01*
X63168388Y-128934247D01*
X63047234Y-128932211D01*
X62968981Y-128936915D01*
X62926031Y-128949118D01*
X62914465Y-128959673D01*
X62898660Y-128968650D01*
X62892781Y-128928734D01*
X62892721Y-128923434D01*
X62898311Y-128875939D01*
X62926019Y-128856778D01*
X62979113Y-128853514D01*
X63036609Y-128850897D01*
X63053925Y-128834064D01*
X63041725Y-128789540D01*
X63037871Y-128779276D01*
X63023445Y-128707428D01*
X63046675Y-128659714D01*
X63111168Y-128633134D01*
X63220532Y-128624690D01*
X63223857Y-128624685D01*
X63320339Y-128619083D01*
X63374792Y-128603014D01*
X63384002Y-128592903D01*
X63393258Y-128591726D01*
X63398672Y-128631360D01*
G37*
G36*
X63337400Y-129433709D02*
G01*
X63378582Y-129487123D01*
X63396519Y-129559780D01*
X63388056Y-129637327D01*
X63350040Y-129705413D01*
X63341995Y-129713546D01*
X63266929Y-129757545D01*
X63188430Y-129762391D01*
X63115274Y-129735838D01*
X63086154Y-129711080D01*
X63056236Y-129685643D01*
X63020091Y-129619560D01*
X63017750Y-129580748D01*
X63037515Y-129580748D01*
X63046969Y-129620172D01*
X63086154Y-129663497D01*
X63122952Y-129660699D01*
X63144797Y-129615477D01*
X63146586Y-129590851D01*
X63136763Y-129534010D01*
X63113533Y-129514575D01*
X63059605Y-129534062D01*
X63037515Y-129580748D01*
X63017750Y-129580748D01*
X63015614Y-129545345D01*
X63051580Y-129470752D01*
X63058360Y-129462882D01*
X63111668Y-129417335D01*
X63147701Y-129418709D01*
X63167393Y-129467637D01*
X63172012Y-129540000D01*
X63174152Y-129615517D01*
X63184754Y-129653194D01*
X63210086Y-129665994D01*
X63233496Y-129667128D01*
X63318214Y-129656931D01*
X63363031Y-129622724D01*
X63375415Y-129563518D01*
X63358880Y-129497455D01*
X63305495Y-129452841D01*
X63266530Y-129426276D01*
X63271575Y-129414214D01*
X63276129Y-129413891D01*
X63337400Y-129433709D01*
G37*
G36*
X61288837Y-134792237D02*
G01*
X61343989Y-134852232D01*
X61366762Y-134932943D01*
X61366807Y-134936857D01*
X61370716Y-134976136D01*
X61390928Y-134997206D01*
X61440174Y-135007198D01*
X61500052Y-135011495D01*
X61587077Y-135021731D01*
X61631444Y-135041369D01*
X61640771Y-135058558D01*
X61637533Y-135103773D01*
X61630415Y-135115765D01*
X61597874Y-135124021D01*
X61527662Y-135129620D01*
X61432045Y-135132660D01*
X61323289Y-135133236D01*
X61213659Y-135131445D01*
X61190597Y-135130492D01*
X61115423Y-135127384D01*
X61040845Y-135121149D01*
X61002192Y-135112837D01*
X60999764Y-135110800D01*
X60991723Y-135062855D01*
X60999132Y-134987567D01*
X61009619Y-134941039D01*
X61137978Y-134941039D01*
X61148900Y-134991509D01*
X61187968Y-135006442D01*
X61190597Y-135006467D01*
X61230105Y-134994264D01*
X61235127Y-134949772D01*
X61235091Y-134949519D01*
X61211233Y-134901084D01*
X61182472Y-134884092D01*
X61148411Y-134891268D01*
X61138003Y-134937157D01*
X61137978Y-134941039D01*
X61009619Y-134941039D01*
X61017851Y-134904518D01*
X61043738Y-134833289D01*
X61065706Y-134799059D01*
X61136037Y-134759399D01*
X61214967Y-134759209D01*
X61288837Y-134792237D01*
G37*
G36*
X63349438Y-124763927D02*
G01*
X63391385Y-124777233D01*
X63400841Y-124796830D01*
X63383539Y-124821295D01*
X63327038Y-124835994D01*
X63267357Y-124841324D01*
X63188359Y-124848640D01*
X63148118Y-124862327D01*
X63134555Y-124887684D01*
X63133874Y-124899860D01*
X63141046Y-124930217D01*
X63170583Y-124947251D01*
X63234515Y-124956177D01*
X63269014Y-124958454D01*
X63355157Y-124969931D01*
X63392934Y-124988372D01*
X63383411Y-125008812D01*
X63327654Y-125026287D01*
X63252646Y-125034672D01*
X63173868Y-125042353D01*
X63134083Y-125056796D01*
X63121466Y-125083028D01*
X63121161Y-125090551D01*
X63129553Y-125119916D01*
X63162613Y-125136431D01*
X63232169Y-125145121D01*
X63252646Y-125146429D01*
X63333606Y-125158216D01*
X63385476Y-125179306D01*
X63401415Y-125204642D01*
X63374581Y-125229166D01*
X63368142Y-125231821D01*
X63322924Y-125238472D01*
X63247374Y-125240062D01*
X63194407Y-125238191D01*
X63057597Y-125230391D01*
X63052705Y-125026987D01*
X63053379Y-124907823D01*
X63066968Y-124830357D01*
X63100506Y-124785780D01*
X63161028Y-124765279D01*
X63255570Y-124760044D01*
X63265860Y-124760020D01*
X63349438Y-124763927D01*
G37*
G36*
X59876135Y-124578216D02*
G01*
X59954924Y-124636990D01*
X60003677Y-124723904D01*
X60017990Y-124829922D01*
X59993455Y-124946009D01*
X59978373Y-124980414D01*
X59947829Y-125033105D01*
X59916380Y-125048134D01*
X59863848Y-125034893D01*
X59862416Y-125034395D01*
X59810513Y-125009261D01*
X59798514Y-124976774D01*
X59804020Y-124953841D01*
X59825397Y-124858228D01*
X59822748Y-124787624D01*
X59801230Y-124747566D01*
X59766002Y-124743589D01*
X59722221Y-124781230D01*
X59690774Y-124832286D01*
X59615077Y-124945360D01*
X59528723Y-125014285D01*
X59436790Y-125037467D01*
X59344357Y-125013312D01*
X59276843Y-124962257D01*
X59230390Y-124910030D01*
X59209960Y-124862063D01*
X59208402Y-124795888D01*
X59211647Y-124757357D01*
X59227635Y-124656941D01*
X59254381Y-124601969D01*
X59296035Y-124587466D01*
X59341883Y-124601200D01*
X59379214Y-124624072D01*
X59394280Y-124658131D01*
X59392767Y-124720379D01*
X59390117Y-124745436D01*
X59385105Y-124818063D01*
X59393490Y-124852855D01*
X59417802Y-124861722D01*
X59455312Y-124840896D01*
X59494590Y-124789711D01*
X59500287Y-124779089D01*
X59577396Y-124657557D01*
X59662837Y-124584269D01*
X59759422Y-124556921D01*
X59771717Y-124556617D01*
X59876135Y-124578216D01*
G37*
G36*
X63343231Y-130169167D02*
G01*
X63390431Y-130221309D01*
X63412696Y-130301134D01*
X63404658Y-130398069D01*
X63403024Y-130404465D01*
X63369445Y-130458345D01*
X63317203Y-130476074D01*
X63262468Y-130473569D01*
X63252182Y-130453096D01*
X63286756Y-130422119D01*
X63313449Y-130408363D01*
X63359234Y-130377037D01*
X63372401Y-130328668D01*
X63370656Y-130296224D01*
X63354894Y-130235826D01*
X63327335Y-130213774D01*
X63304989Y-130217691D01*
X63285076Y-130236037D01*
X63261060Y-130278705D01*
X63226406Y-130355591D01*
X63212828Y-130387111D01*
X63178749Y-130451038D01*
X63143346Y-130475838D01*
X63114636Y-130476100D01*
X63059751Y-130448620D01*
X63022351Y-130393520D01*
X63003811Y-130324766D01*
X63005507Y-130256322D01*
X63028814Y-130202155D01*
X63075109Y-130176230D01*
X63085043Y-130175636D01*
X63135753Y-130186028D01*
X63142111Y-130208978D01*
X63101851Y-130232146D01*
X63095736Y-130233854D01*
X63057295Y-130260493D01*
X63044950Y-130320723D01*
X63044885Y-130327673D01*
X63054964Y-130386300D01*
X63080853Y-130401882D01*
X63116031Y-130377057D01*
X63153976Y-130314467D01*
X63169249Y-130277338D01*
X63202845Y-130202808D01*
X63239272Y-130165934D01*
X63276467Y-130155282D01*
X63343231Y-130169167D01*
G37*
G36*
X60610415Y-135074239D02*
G01*
X60664348Y-135115407D01*
X60668763Y-135119726D01*
X60717573Y-135201102D01*
X60730790Y-135298990D01*
X60705543Y-135390981D01*
X60703883Y-135393893D01*
X60659744Y-135443106D01*
X60629448Y-135464136D01*
X60586799Y-135475045D01*
X60556151Y-135443984D01*
X60552234Y-135436907D01*
X60537928Y-135386187D01*
X60563735Y-135339450D01*
X60566963Y-135335829D01*
X60594435Y-135282598D01*
X60588164Y-135235012D01*
X60551537Y-135210492D01*
X60542476Y-135209870D01*
X60505723Y-135228414D01*
X60454128Y-135275663D01*
X60424601Y-135309590D01*
X60361215Y-135375838D01*
X60294228Y-135427305D01*
X60269231Y-135440473D01*
X60209795Y-135457851D01*
X60161964Y-135445234D01*
X60125698Y-135420860D01*
X60067197Y-135348782D01*
X60047586Y-135258917D01*
X60068828Y-135168437D01*
X60092622Y-135131627D01*
X60129917Y-135091094D01*
X60156317Y-135087635D01*
X60188743Y-135114936D01*
X60219080Y-135156869D01*
X60209736Y-135198714D01*
X60203096Y-135209936D01*
X60174145Y-135273143D01*
X60179012Y-135306760D01*
X60209618Y-135310013D01*
X60257883Y-135282130D01*
X60315730Y-135222339D01*
X60316924Y-135220820D01*
X60397953Y-135137152D01*
X60485090Y-135079493D01*
X60563884Y-135057335D01*
X60565799Y-135057318D01*
X60610415Y-135074239D01*
G37*
G36*
X61456900Y-132900524D02*
G01*
X61508497Y-132908069D01*
X61543924Y-132923671D01*
X61574729Y-132949328D01*
X61583186Y-132957672D01*
X61634377Y-133041750D01*
X61644862Y-133139556D01*
X61613756Y-133233190D01*
X61597935Y-133255652D01*
X61573188Y-133282208D01*
X61543371Y-133299519D01*
X61497877Y-133309551D01*
X61426101Y-133314265D01*
X61317435Y-133315627D01*
X61273761Y-133315676D01*
X61152502Y-133315180D01*
X61072915Y-133312458D01*
X61025825Y-133305660D01*
X61002053Y-133292936D01*
X60992424Y-133272436D01*
X60990013Y-133258469D01*
X60988464Y-133231820D01*
X60999172Y-133215073D01*
X61031382Y-133205931D01*
X61094335Y-133202096D01*
X61197276Y-133201268D01*
X61220113Y-133201262D01*
X61350558Y-133198283D01*
X61438035Y-133187539D01*
X61490177Y-133166320D01*
X61514617Y-133131913D01*
X61519359Y-133094959D01*
X61511186Y-133065784D01*
X61481661Y-133045203D01*
X61423281Y-133031376D01*
X61328538Y-133022461D01*
X61201541Y-133016974D01*
X61100037Y-133012620D01*
X61039198Y-133005532D01*
X61008836Y-132992841D01*
X60998767Y-132971681D01*
X60998138Y-132959720D01*
X61001865Y-132936693D01*
X61019092Y-132921436D01*
X61058882Y-132911928D01*
X61130303Y-132906152D01*
X61242420Y-132902088D01*
X61259012Y-132901621D01*
X61377587Y-132899040D01*
X61456900Y-132900524D01*
G37*
G36*
X61113638Y-132417816D02*
G01*
X61132222Y-132441126D01*
X61137735Y-132496628D01*
X61137978Y-132527488D01*
X61143349Y-132603979D01*
X61161093Y-132638228D01*
X61174654Y-132641902D01*
X61202453Y-132619581D01*
X61217692Y-132550828D01*
X61219148Y-132533844D01*
X61227550Y-132465481D01*
X61245617Y-132434111D01*
X61282502Y-132425881D01*
X61290530Y-132425786D01*
X61331169Y-132431659D01*
X61351565Y-132458515D01*
X61360870Y-132520208D01*
X61361912Y-132533844D01*
X61370398Y-132602298D01*
X61388554Y-132633697D01*
X61425303Y-132641834D01*
X61431832Y-132641902D01*
X61469976Y-132637030D01*
X61488184Y-132613412D01*
X61493677Y-132557546D01*
X61493934Y-132525799D01*
X61495936Y-132455070D01*
X61507417Y-132422482D01*
X61536591Y-132415341D01*
X61563854Y-132417741D01*
X61602705Y-132425474D01*
X61624493Y-132445686D01*
X61635231Y-132490946D01*
X61640934Y-132573819D01*
X61641205Y-132579382D01*
X61642380Y-132663775D01*
X61637875Y-132726678D01*
X61630611Y-132751004D01*
X61599480Y-132758051D01*
X61528203Y-132763807D01*
X61427479Y-132767668D01*
X61311718Y-132769029D01*
X61010851Y-132769029D01*
X61010851Y-132591051D01*
X61011785Y-132498068D01*
X61017228Y-132444851D01*
X61031135Y-132420321D01*
X61057465Y-132413398D01*
X61074414Y-132413073D01*
X61113638Y-132417816D01*
G37*
G36*
X63393238Y-131110390D02*
G01*
X63392876Y-131150877D01*
X63391358Y-131167228D01*
X63390500Y-131244235D01*
X63401379Y-131307815D01*
X63402018Y-131309575D01*
X63406135Y-131379336D01*
X63391753Y-131423764D01*
X63346081Y-131480880D01*
X63297491Y-131491926D01*
X63294810Y-131492536D01*
X63245278Y-131462446D01*
X63204823Y-131394327D01*
X63184566Y-131318841D01*
X63169082Y-131252526D01*
X63153151Y-131232710D01*
X63210069Y-131232710D01*
X63212788Y-131286566D01*
X63215758Y-131302800D01*
X63245351Y-131370663D01*
X63297491Y-131394450D01*
X63339060Y-131386178D01*
X63370828Y-131353463D01*
X63368093Y-131305271D01*
X63335814Y-131258200D01*
X63293279Y-131232926D01*
X63233926Y-131217510D01*
X63210069Y-131232710D01*
X63153151Y-131232710D01*
X63146812Y-131224826D01*
X63112326Y-131222991D01*
X63066212Y-131248796D01*
X63049552Y-131300711D01*
X63050639Y-131351191D01*
X63063762Y-131370631D01*
X63099511Y-131384575D01*
X63135370Y-131407961D01*
X63165258Y-131433651D01*
X63155982Y-131443883D01*
X63104921Y-131446099D01*
X63049175Y-131440355D01*
X63021922Y-131411390D01*
X63009013Y-131361056D01*
X63005123Y-131280244D01*
X63018266Y-131208503D01*
X63035848Y-131172305D01*
X63062694Y-131152291D01*
X63112279Y-131143710D01*
X63198080Y-131141808D01*
X63207402Y-131141802D01*
X63312533Y-131136652D01*
X63373175Y-131121635D01*
X63385969Y-131110020D01*
X63393238Y-131110390D01*
G37*
G36*
X61551626Y-127785662D02*
G01*
X61892127Y-127785759D01*
X62188035Y-127786006D01*
X62442482Y-127786476D01*
X62658594Y-127787239D01*
X62839503Y-127788366D01*
X62988338Y-127789930D01*
X63108227Y-127792000D01*
X63202300Y-127794647D01*
X63273687Y-127797944D01*
X63325516Y-127801961D01*
X63360918Y-127806769D01*
X63383022Y-127812440D01*
X63394957Y-127819044D01*
X63399852Y-127826652D01*
X63400837Y-127835337D01*
X63400841Y-127836497D01*
X63400123Y-127845320D01*
X63395886Y-127853059D01*
X63384998Y-127859784D01*
X63364331Y-127865567D01*
X63330756Y-127870479D01*
X63281142Y-127874590D01*
X63212361Y-127877973D01*
X63121283Y-127880697D01*
X63004779Y-127882835D01*
X62859720Y-127884458D01*
X62682975Y-127885636D01*
X62471416Y-127886440D01*
X62221914Y-127886943D01*
X61931338Y-127887214D01*
X61596560Y-127887325D01*
X61214451Y-127887348D01*
X61163403Y-127887348D01*
X60775181Y-127887331D01*
X60434680Y-127887235D01*
X60138771Y-127886988D01*
X59884325Y-127886518D01*
X59668212Y-127885755D01*
X59487303Y-127884627D01*
X59338469Y-127883064D01*
X59218580Y-127880994D01*
X59124507Y-127878346D01*
X59053120Y-127875050D01*
X59001290Y-127871033D01*
X58965888Y-127866224D01*
X58943785Y-127860554D01*
X58931850Y-127853950D01*
X58926955Y-127846341D01*
X58925970Y-127837657D01*
X58925966Y-127836497D01*
X58926683Y-127827674D01*
X58930921Y-127819935D01*
X58941808Y-127813210D01*
X58962475Y-127807427D01*
X58996051Y-127802515D01*
X59045664Y-127798404D01*
X59114445Y-127795021D01*
X59205523Y-127792296D01*
X59322027Y-127790158D01*
X59467087Y-127788536D01*
X59643831Y-127787358D01*
X59855390Y-127786553D01*
X60104892Y-127786051D01*
X60395468Y-127785780D01*
X60730246Y-127785669D01*
X61112356Y-127785646D01*
X61163403Y-127785646D01*
X61551626Y-127785662D01*
G37*
G36*
X61670421Y-133438878D02*
G01*
X61671912Y-133475809D01*
X61666575Y-133534319D01*
X61655092Y-133565562D01*
X61645834Y-133598144D01*
X61638841Y-133665701D01*
X61636023Y-133737032D01*
X61632302Y-133826001D01*
X61619106Y-133883778D01*
X61588536Y-133929995D01*
X61538802Y-133978705D01*
X61470958Y-134033443D01*
X61408632Y-134058994D01*
X61325350Y-134065694D01*
X61315956Y-134065726D01*
X61229510Y-134060213D01*
X61166396Y-134036782D01*
X61100145Y-133985095D01*
X61093110Y-133978691D01*
X61038180Y-133923939D01*
X61009858Y-133875964D01*
X60999440Y-133813614D01*
X60998138Y-133747908D01*
X61112552Y-133747908D01*
X61135338Y-133824942D01*
X61193398Y-133891167D01*
X61271289Y-133932104D01*
X61315956Y-133938599D01*
X61398249Y-133917192D01*
X61468903Y-133862624D01*
X61512498Y-133789380D01*
X61519359Y-133747563D01*
X61511294Y-133701116D01*
X61487577Y-133699424D01*
X61442888Y-133730294D01*
X61411301Y-133755716D01*
X61382174Y-133776219D01*
X61369647Y-133763840D01*
X61366821Y-133710095D01*
X61366807Y-133700998D01*
X61372940Y-133640632D01*
X61388103Y-133609302D01*
X61392232Y-133608068D01*
X61416919Y-133588720D01*
X61417657Y-133582643D01*
X61395286Y-133565924D01*
X61340188Y-133557470D01*
X61327513Y-133557218D01*
X61237769Y-133577710D01*
X61163756Y-133630983D01*
X61119345Y-133704732D01*
X61112552Y-133747908D01*
X60998138Y-133747908D01*
X61001053Y-133662096D01*
X61015601Y-133605896D01*
X61050487Y-133558157D01*
X61093110Y-133517126D01*
X61161890Y-133461933D01*
X61225120Y-133436379D01*
X61308633Y-133430091D01*
X61309925Y-133430090D01*
X61396126Y-133438115D01*
X61467989Y-133458409D01*
X61486607Y-133468501D01*
X61535766Y-133490620D01*
X61557244Y-133481351D01*
X61591128Y-133449248D01*
X61622477Y-133429333D01*
X61657491Y-133416836D01*
X61670421Y-133438878D01*
G37*
D14*
%TO.C,U2*%
X80070000Y-105120000D02*
X80070000Y-100620000D01*
X80070000Y-100620000D02*
X69790000Y-100620000D01*
X69790000Y-105120000D02*
X80070000Y-105120000D01*
X69790000Y-103870000D02*
X69790000Y-105120000D01*
X69790000Y-100620000D02*
X69790000Y-101870000D01*
X69790000Y-101870000D02*
G75*
G02*
X69790000Y-103870000I0J-1000000D01*
G01*
%TO.C,D3*%
X121505000Y-87245000D02*
X121905000Y-87245000D01*
X121505000Y-88365000D02*
X121505000Y-87245000D01*
X121905000Y-87245000D02*
X121905000Y-88365000D01*
X121905000Y-88365000D02*
X121505000Y-88365000D01*
X121905000Y-88365000D02*
X121905000Y-82205000D01*
X123195000Y-88365000D02*
X123195000Y-91035000D01*
X123195000Y-91035000D02*
X123195000Y-88365000D01*
X125735000Y-88365000D02*
X125735000Y-91035000D01*
X125735000Y-91035000D02*
X125735000Y-88365000D01*
X127025000Y-88365000D02*
X121905000Y-88365000D01*
X127025000Y-88365000D02*
X127025000Y-82205000D01*
X121905000Y-82205000D02*
G75*
G02*
X127025000Y-82205000I2560000J0D01*
G01*
%TO.C,R2*%
X110490000Y-101370000D02*
X110490000Y-102060000D01*
X110490000Y-111990000D02*
X110490000Y-111300000D01*
X112210000Y-102060000D02*
X108770000Y-102060000D01*
X108770000Y-111300000D01*
X112210000Y-111300000D01*
X112210000Y-102060000D01*
%TO.C,R5*%
X107950000Y-49300000D02*
X107950000Y-49990000D01*
X107950000Y-59920000D02*
X107950000Y-59230000D01*
X106230000Y-59230000D02*
X109670000Y-59230000D01*
X109670000Y-49990000D01*
X106230000Y-49990000D01*
X106230000Y-59230000D01*
%TD*%
M02*
