%TF.GenerationSoftware,KiCad,Pcbnew,9.0.4*%
%TF.CreationDate,2026-03-20T10:28:42+01:00*%
%TF.ProjectId,phd_slave,7068645f-736c-4617-9665-2e6b69636164,rev?*%
%TF.SameCoordinates,Original*%
%TF.FileFunction,Copper,L2,Bot*%
%TF.FilePolarity,Positive*%
%FSLAX46Y46*%
G04 Gerber Fmt 4.6, Leading zero omitted, Abs format (unit mm)*
G04 Created by KiCad (PCBNEW 9.0.4) date 2026-03-20 10:28:42*
%MOMM*%
%LPD*%
G01*
G04 APERTURE LIST*
G04 Aperture macros list*
%AMRoundRect*
0 Rectangle with rounded corners*
0 $1 Rounding radius*
0 $2 $3 $4 $5 $6 $7 $8 $9 X,Y pos of 4 corners*
0 Add a 4 corners polygon primitive as box body*
4,1,4,$2,$3,$4,$5,$6,$7,$8,$9,$2,$3,0*
0 Add four circle primitives for the rounded corners*
1,1,$1+$1,$2,$3*
1,1,$1+$1,$4,$5*
1,1,$1+$1,$6,$7*
1,1,$1+$1,$8,$9*
0 Add four rect primitives between the rounded corners*
20,1,$1+$1,$2,$3,$4,$5,0*
20,1,$1+$1,$4,$5,$6,$7,0*
20,1,$1+$1,$6,$7,$8,$9,0*
20,1,$1+$1,$8,$9,$2,$3,0*%
G04 Aperture macros list end*
%ADD10C,0.200000*%
%TA.AperFunction,NonConductor*%
%ADD11C,0.200000*%
%TD*%
%TA.AperFunction,ComponentPad*%
%ADD12C,1.600000*%
%TD*%
%TA.AperFunction,ComponentPad*%
%ADD13RoundRect,0.249200X0.450800X0.450800X-0.450800X0.450800X-0.450800X-0.450800X0.450800X-0.450800X0*%
%TD*%
%TA.AperFunction,ComponentPad*%
%ADD14C,1.400000*%
%TD*%
%TA.AperFunction,ComponentPad*%
%ADD15R,1.800000X1.800000*%
%TD*%
%TA.AperFunction,ComponentPad*%
%ADD16C,1.800000*%
%TD*%
%TA.AperFunction,ComponentPad*%
%ADD17RoundRect,0.250000X0.550000X-0.950000X0.550000X0.950000X-0.550000X0.950000X-0.550000X-0.950000X0*%
%TD*%
%TA.AperFunction,ComponentPad*%
%ADD18O,1.600000X2.400000*%
%TD*%
%TA.AperFunction,ComponentPad*%
%ADD19C,4.000000*%
%TD*%
%TA.AperFunction,ComponentPad*%
%ADD20R,1.600000X1.600000*%
%TD*%
%TA.AperFunction,ViaPad*%
%ADD21C,1.500000*%
%TD*%
%TA.AperFunction,Conductor*%
%ADD22C,0.800000*%
%TD*%
G04 APERTURE END LIST*
D10*
D11*
X115132857Y-121567247D02*
X115609047Y-121567247D01*
X115609047Y-121567247D02*
X115609047Y-120567247D01*
X114799523Y-121043437D02*
X114466190Y-121043437D01*
X114323333Y-121567247D02*
X114799523Y-121567247D01*
X114799523Y-121567247D02*
X114799523Y-120567247D01*
X114799523Y-120567247D02*
X114323333Y-120567247D01*
X113894761Y-120900580D02*
X113894761Y-121567247D01*
X113894761Y-120995818D02*
X113847142Y-120948199D01*
X113847142Y-120948199D02*
X113751904Y-120900580D01*
X113751904Y-120900580D02*
X113609047Y-120900580D01*
X113609047Y-120900580D02*
X113513809Y-120948199D01*
X113513809Y-120948199D02*
X113466190Y-121043437D01*
X113466190Y-121043437D02*
X113466190Y-121567247D01*
X113037618Y-121519628D02*
X112942380Y-121567247D01*
X112942380Y-121567247D02*
X112751904Y-121567247D01*
X112751904Y-121567247D02*
X112656666Y-121519628D01*
X112656666Y-121519628D02*
X112609047Y-121424389D01*
X112609047Y-121424389D02*
X112609047Y-121376770D01*
X112609047Y-121376770D02*
X112656666Y-121281532D01*
X112656666Y-121281532D02*
X112751904Y-121233913D01*
X112751904Y-121233913D02*
X112894761Y-121233913D01*
X112894761Y-121233913D02*
X112989999Y-121186294D01*
X112989999Y-121186294D02*
X113037618Y-121091056D01*
X113037618Y-121091056D02*
X113037618Y-121043437D01*
X113037618Y-121043437D02*
X112989999Y-120948199D01*
X112989999Y-120948199D02*
X112894761Y-120900580D01*
X112894761Y-120900580D02*
X112751904Y-120900580D01*
X112751904Y-120900580D02*
X112656666Y-120948199D01*
X112180475Y-121043437D02*
X111847142Y-121043437D01*
X111704285Y-121567247D02*
X112180475Y-121567247D01*
X112180475Y-121567247D02*
X112180475Y-120567247D01*
X112180475Y-120567247D02*
X111704285Y-120567247D01*
X109799523Y-120519628D02*
X110656665Y-121805342D01*
X108751903Y-120662485D02*
X108704284Y-120614866D01*
X108704284Y-120614866D02*
X108609046Y-120567247D01*
X108609046Y-120567247D02*
X108370951Y-120567247D01*
X108370951Y-120567247D02*
X108275713Y-120614866D01*
X108275713Y-120614866D02*
X108228094Y-120662485D01*
X108228094Y-120662485D02*
X108180475Y-120757723D01*
X108180475Y-120757723D02*
X108180475Y-120852961D01*
X108180475Y-120852961D02*
X108228094Y-120995818D01*
X108228094Y-120995818D02*
X108799522Y-121567247D01*
X108799522Y-121567247D02*
X108180475Y-121567247D01*
X107561427Y-120567247D02*
X107466189Y-120567247D01*
X107466189Y-120567247D02*
X107370951Y-120614866D01*
X107370951Y-120614866D02*
X107323332Y-120662485D01*
X107323332Y-120662485D02*
X107275713Y-120757723D01*
X107275713Y-120757723D02*
X107228094Y-120948199D01*
X107228094Y-120948199D02*
X107228094Y-121186294D01*
X107228094Y-121186294D02*
X107275713Y-121376770D01*
X107275713Y-121376770D02*
X107323332Y-121472008D01*
X107323332Y-121472008D02*
X107370951Y-121519628D01*
X107370951Y-121519628D02*
X107466189Y-121567247D01*
X107466189Y-121567247D02*
X107561427Y-121567247D01*
X107561427Y-121567247D02*
X107656665Y-121519628D01*
X107656665Y-121519628D02*
X107704284Y-121472008D01*
X107704284Y-121472008D02*
X107751903Y-121376770D01*
X107751903Y-121376770D02*
X107799522Y-121186294D01*
X107799522Y-121186294D02*
X107799522Y-120948199D01*
X107799522Y-120948199D02*
X107751903Y-120757723D01*
X107751903Y-120757723D02*
X107704284Y-120662485D01*
X107704284Y-120662485D02*
X107656665Y-120614866D01*
X107656665Y-120614866D02*
X107561427Y-120567247D01*
X106847141Y-120662485D02*
X106799522Y-120614866D01*
X106799522Y-120614866D02*
X106704284Y-120567247D01*
X106704284Y-120567247D02*
X106466189Y-120567247D01*
X106466189Y-120567247D02*
X106370951Y-120614866D01*
X106370951Y-120614866D02*
X106323332Y-120662485D01*
X106323332Y-120662485D02*
X106275713Y-120757723D01*
X106275713Y-120757723D02*
X106275713Y-120852961D01*
X106275713Y-120852961D02*
X106323332Y-120995818D01*
X106323332Y-120995818D02*
X106894760Y-121567247D01*
X106894760Y-121567247D02*
X106275713Y-121567247D01*
X105418570Y-120567247D02*
X105609046Y-120567247D01*
X105609046Y-120567247D02*
X105704284Y-120614866D01*
X105704284Y-120614866D02*
X105751903Y-120662485D01*
X105751903Y-120662485D02*
X105847141Y-120805342D01*
X105847141Y-120805342D02*
X105894760Y-120995818D01*
X105894760Y-120995818D02*
X105894760Y-121376770D01*
X105894760Y-121376770D02*
X105847141Y-121472008D01*
X105847141Y-121472008D02*
X105799522Y-121519628D01*
X105799522Y-121519628D02*
X105704284Y-121567247D01*
X105704284Y-121567247D02*
X105513808Y-121567247D01*
X105513808Y-121567247D02*
X105418570Y-121519628D01*
X105418570Y-121519628D02*
X105370951Y-121472008D01*
X105370951Y-121472008D02*
X105323332Y-121376770D01*
X105323332Y-121376770D02*
X105323332Y-121138675D01*
X105323332Y-121138675D02*
X105370951Y-121043437D01*
X105370951Y-121043437D02*
X105418570Y-120995818D01*
X105418570Y-120995818D02*
X105513808Y-120948199D01*
X105513808Y-120948199D02*
X105704284Y-120948199D01*
X105704284Y-120948199D02*
X105799522Y-120995818D01*
X105799522Y-120995818D02*
X105847141Y-121043437D01*
X105847141Y-121043437D02*
X105894760Y-121138675D01*
X121299524Y-122177191D02*
X121109048Y-122177191D01*
X121109048Y-122177191D02*
X121013810Y-122224810D01*
X121013810Y-122224810D02*
X120918572Y-122320048D01*
X120918572Y-122320048D02*
X120870953Y-122510524D01*
X120870953Y-122510524D02*
X120870953Y-122843857D01*
X120870953Y-122843857D02*
X120918572Y-123034333D01*
X120918572Y-123034333D02*
X121013810Y-123129572D01*
X121013810Y-123129572D02*
X121109048Y-123177191D01*
X121109048Y-123177191D02*
X121299524Y-123177191D01*
X121299524Y-123177191D02*
X121394762Y-123129572D01*
X121394762Y-123129572D02*
X121490000Y-123034333D01*
X121490000Y-123034333D02*
X121537619Y-122843857D01*
X121537619Y-122843857D02*
X121537619Y-122510524D01*
X121537619Y-122510524D02*
X121490000Y-122320048D01*
X121490000Y-122320048D02*
X121394762Y-122224810D01*
X121394762Y-122224810D02*
X121299524Y-122177191D01*
X120442381Y-123177191D02*
X120442381Y-122177191D01*
X120442381Y-122177191D02*
X120061429Y-122177191D01*
X120061429Y-122177191D02*
X119966191Y-122224810D01*
X119966191Y-122224810D02*
X119918572Y-122272429D01*
X119918572Y-122272429D02*
X119870953Y-122367667D01*
X119870953Y-122367667D02*
X119870953Y-122510524D01*
X119870953Y-122510524D02*
X119918572Y-122605762D01*
X119918572Y-122605762D02*
X119966191Y-122653381D01*
X119966191Y-122653381D02*
X120061429Y-122701000D01*
X120061429Y-122701000D02*
X120442381Y-122701000D01*
X119585238Y-122177191D02*
X119013810Y-122177191D01*
X119299524Y-123177191D02*
X119299524Y-122177191D01*
X118490000Y-122177191D02*
X118299524Y-122177191D01*
X118299524Y-122177191D02*
X118204286Y-122224810D01*
X118204286Y-122224810D02*
X118109048Y-122320048D01*
X118109048Y-122320048D02*
X118061429Y-122510524D01*
X118061429Y-122510524D02*
X118061429Y-122843857D01*
X118061429Y-122843857D02*
X118109048Y-123034333D01*
X118109048Y-123034333D02*
X118204286Y-123129572D01*
X118204286Y-123129572D02*
X118299524Y-123177191D01*
X118299524Y-123177191D02*
X118490000Y-123177191D01*
X118490000Y-123177191D02*
X118585238Y-123129572D01*
X118585238Y-123129572D02*
X118680476Y-123034333D01*
X118680476Y-123034333D02*
X118728095Y-122843857D01*
X118728095Y-122843857D02*
X118728095Y-122510524D01*
X118728095Y-122510524D02*
X118680476Y-122320048D01*
X118680476Y-122320048D02*
X118585238Y-122224810D01*
X118585238Y-122224810D02*
X118490000Y-122177191D01*
X117632857Y-122796238D02*
X116870953Y-122796238D01*
X116394762Y-122653381D02*
X116061429Y-122653381D01*
X115918572Y-123177191D02*
X116394762Y-123177191D01*
X116394762Y-123177191D02*
X116394762Y-122177191D01*
X116394762Y-122177191D02*
X115918572Y-122177191D01*
X115013810Y-123177191D02*
X115490000Y-123177191D01*
X115490000Y-123177191D02*
X115490000Y-122177191D01*
X114680476Y-122653381D02*
X114347143Y-122653381D01*
X114204286Y-123177191D02*
X114680476Y-123177191D01*
X114680476Y-123177191D02*
X114680476Y-122177191D01*
X114680476Y-122177191D02*
X114204286Y-122177191D01*
X113204286Y-123081952D02*
X113251905Y-123129572D01*
X113251905Y-123129572D02*
X113394762Y-123177191D01*
X113394762Y-123177191D02*
X113490000Y-123177191D01*
X113490000Y-123177191D02*
X113632857Y-123129572D01*
X113632857Y-123129572D02*
X113728095Y-123034333D01*
X113728095Y-123034333D02*
X113775714Y-122939095D01*
X113775714Y-122939095D02*
X113823333Y-122748619D01*
X113823333Y-122748619D02*
X113823333Y-122605762D01*
X113823333Y-122605762D02*
X113775714Y-122415286D01*
X113775714Y-122415286D02*
X113728095Y-122320048D01*
X113728095Y-122320048D02*
X113632857Y-122224810D01*
X113632857Y-122224810D02*
X113490000Y-122177191D01*
X113490000Y-122177191D02*
X113394762Y-122177191D01*
X113394762Y-122177191D02*
X113251905Y-122224810D01*
X113251905Y-122224810D02*
X113204286Y-122272429D01*
X111299524Y-122129572D02*
X112156666Y-123415286D01*
X110204285Y-123177191D02*
X110204285Y-122177191D01*
X110204285Y-122177191D02*
X109823333Y-122177191D01*
X109823333Y-122177191D02*
X109728095Y-122224810D01*
X109728095Y-122224810D02*
X109680476Y-122272429D01*
X109680476Y-122272429D02*
X109632857Y-122367667D01*
X109632857Y-122367667D02*
X109632857Y-122510524D01*
X109632857Y-122510524D02*
X109680476Y-122605762D01*
X109680476Y-122605762D02*
X109728095Y-122653381D01*
X109728095Y-122653381D02*
X109823333Y-122701000D01*
X109823333Y-122701000D02*
X110204285Y-122701000D01*
X109204285Y-123177191D02*
X109204285Y-122177191D01*
X108775714Y-123177191D02*
X108775714Y-122653381D01*
X108775714Y-122653381D02*
X108823333Y-122558143D01*
X108823333Y-122558143D02*
X108918571Y-122510524D01*
X108918571Y-122510524D02*
X109061428Y-122510524D01*
X109061428Y-122510524D02*
X109156666Y-122558143D01*
X109156666Y-122558143D02*
X109204285Y-122605762D01*
X108156666Y-123177191D02*
X108251904Y-123129572D01*
X108251904Y-123129572D02*
X108299523Y-123081952D01*
X108299523Y-123081952D02*
X108347142Y-122986714D01*
X108347142Y-122986714D02*
X108347142Y-122701000D01*
X108347142Y-122701000D02*
X108299523Y-122605762D01*
X108299523Y-122605762D02*
X108251904Y-122558143D01*
X108251904Y-122558143D02*
X108156666Y-122510524D01*
X108156666Y-122510524D02*
X108013809Y-122510524D01*
X108013809Y-122510524D02*
X107918571Y-122558143D01*
X107918571Y-122558143D02*
X107870952Y-122605762D01*
X107870952Y-122605762D02*
X107823333Y-122701000D01*
X107823333Y-122701000D02*
X107823333Y-122986714D01*
X107823333Y-122986714D02*
X107870952Y-123081952D01*
X107870952Y-123081952D02*
X107918571Y-123129572D01*
X107918571Y-123129572D02*
X108013809Y-123177191D01*
X108013809Y-123177191D02*
X108156666Y-123177191D01*
X107537618Y-122510524D02*
X107156666Y-122510524D01*
X107394761Y-122177191D02*
X107394761Y-123034333D01*
X107394761Y-123034333D02*
X107347142Y-123129572D01*
X107347142Y-123129572D02*
X107251904Y-123177191D01*
X107251904Y-123177191D02*
X107156666Y-123177191D01*
X106680475Y-123177191D02*
X106775713Y-123129572D01*
X106775713Y-123129572D02*
X106823332Y-123081952D01*
X106823332Y-123081952D02*
X106870951Y-122986714D01*
X106870951Y-122986714D02*
X106870951Y-122701000D01*
X106870951Y-122701000D02*
X106823332Y-122605762D01*
X106823332Y-122605762D02*
X106775713Y-122558143D01*
X106775713Y-122558143D02*
X106680475Y-122510524D01*
X106680475Y-122510524D02*
X106537618Y-122510524D01*
X106537618Y-122510524D02*
X106442380Y-122558143D01*
X106442380Y-122558143D02*
X106394761Y-122605762D01*
X106394761Y-122605762D02*
X106347142Y-122701000D01*
X106347142Y-122701000D02*
X106347142Y-122986714D01*
X106347142Y-122986714D02*
X106394761Y-123081952D01*
X106394761Y-123081952D02*
X106442380Y-123129572D01*
X106442380Y-123129572D02*
X106537618Y-123177191D01*
X106537618Y-123177191D02*
X106680475Y-123177191D01*
X105489999Y-123177191D02*
X105489999Y-122177191D01*
X105489999Y-123129572D02*
X105585237Y-123177191D01*
X105585237Y-123177191D02*
X105775713Y-123177191D01*
X105775713Y-123177191D02*
X105870951Y-123129572D01*
X105870951Y-123129572D02*
X105918570Y-123081952D01*
X105918570Y-123081952D02*
X105966189Y-122986714D01*
X105966189Y-122986714D02*
X105966189Y-122701000D01*
X105966189Y-122701000D02*
X105918570Y-122605762D01*
X105918570Y-122605762D02*
X105870951Y-122558143D01*
X105870951Y-122558143D02*
X105775713Y-122510524D01*
X105775713Y-122510524D02*
X105585237Y-122510524D01*
X105585237Y-122510524D02*
X105489999Y-122558143D01*
X104632856Y-123129572D02*
X104728094Y-123177191D01*
X104728094Y-123177191D02*
X104918570Y-123177191D01*
X104918570Y-123177191D02*
X105013808Y-123129572D01*
X105013808Y-123129572D02*
X105061427Y-123034333D01*
X105061427Y-123034333D02*
X105061427Y-122653381D01*
X105061427Y-122653381D02*
X105013808Y-122558143D01*
X105013808Y-122558143D02*
X104918570Y-122510524D01*
X104918570Y-122510524D02*
X104728094Y-122510524D01*
X104728094Y-122510524D02*
X104632856Y-122558143D01*
X104632856Y-122558143D02*
X104585237Y-122653381D01*
X104585237Y-122653381D02*
X104585237Y-122748619D01*
X104585237Y-122748619D02*
X105061427Y-122843857D01*
X104299522Y-122510524D02*
X103918570Y-122510524D01*
X104156665Y-122177191D02*
X104156665Y-123034333D01*
X104156665Y-123034333D02*
X104109046Y-123129572D01*
X104109046Y-123129572D02*
X104013808Y-123177191D01*
X104013808Y-123177191D02*
X103918570Y-123177191D01*
X103204284Y-123129572D02*
X103299522Y-123177191D01*
X103299522Y-123177191D02*
X103489998Y-123177191D01*
X103489998Y-123177191D02*
X103585236Y-123129572D01*
X103585236Y-123129572D02*
X103632855Y-123034333D01*
X103632855Y-123034333D02*
X103632855Y-122653381D01*
X103632855Y-122653381D02*
X103585236Y-122558143D01*
X103585236Y-122558143D02*
X103489998Y-122510524D01*
X103489998Y-122510524D02*
X103299522Y-122510524D01*
X103299522Y-122510524D02*
X103204284Y-122558143D01*
X103204284Y-122558143D02*
X103156665Y-122653381D01*
X103156665Y-122653381D02*
X103156665Y-122748619D01*
X103156665Y-122748619D02*
X103632855Y-122843857D01*
X102299522Y-123129572D02*
X102394760Y-123177191D01*
X102394760Y-123177191D02*
X102585236Y-123177191D01*
X102585236Y-123177191D02*
X102680474Y-123129572D01*
X102680474Y-123129572D02*
X102728093Y-123081952D01*
X102728093Y-123081952D02*
X102775712Y-122986714D01*
X102775712Y-122986714D02*
X102775712Y-122701000D01*
X102775712Y-122701000D02*
X102728093Y-122605762D01*
X102728093Y-122605762D02*
X102680474Y-122558143D01*
X102680474Y-122558143D02*
X102585236Y-122510524D01*
X102585236Y-122510524D02*
X102394760Y-122510524D01*
X102394760Y-122510524D02*
X102299522Y-122558143D01*
X102013807Y-122510524D02*
X101632855Y-122510524D01*
X101870950Y-122177191D02*
X101870950Y-123034333D01*
X101870950Y-123034333D02*
X101823331Y-123129572D01*
X101823331Y-123129572D02*
X101728093Y-123177191D01*
X101728093Y-123177191D02*
X101632855Y-123177191D01*
X101299521Y-123177191D02*
X101299521Y-122510524D01*
X101299521Y-122177191D02*
X101347140Y-122224810D01*
X101347140Y-122224810D02*
X101299521Y-122272429D01*
X101299521Y-122272429D02*
X101251902Y-122224810D01*
X101251902Y-122224810D02*
X101299521Y-122177191D01*
X101299521Y-122177191D02*
X101299521Y-122272429D01*
X100680474Y-123177191D02*
X100775712Y-123129572D01*
X100775712Y-123129572D02*
X100823331Y-123081952D01*
X100823331Y-123081952D02*
X100870950Y-122986714D01*
X100870950Y-122986714D02*
X100870950Y-122701000D01*
X100870950Y-122701000D02*
X100823331Y-122605762D01*
X100823331Y-122605762D02*
X100775712Y-122558143D01*
X100775712Y-122558143D02*
X100680474Y-122510524D01*
X100680474Y-122510524D02*
X100537617Y-122510524D01*
X100537617Y-122510524D02*
X100442379Y-122558143D01*
X100442379Y-122558143D02*
X100394760Y-122605762D01*
X100394760Y-122605762D02*
X100347141Y-122701000D01*
X100347141Y-122701000D02*
X100347141Y-122986714D01*
X100347141Y-122986714D02*
X100394760Y-123081952D01*
X100394760Y-123081952D02*
X100442379Y-123129572D01*
X100442379Y-123129572D02*
X100537617Y-123177191D01*
X100537617Y-123177191D02*
X100680474Y-123177191D01*
X99918569Y-122510524D02*
X99918569Y-123177191D01*
X99918569Y-122605762D02*
X99870950Y-122558143D01*
X99870950Y-122558143D02*
X99775712Y-122510524D01*
X99775712Y-122510524D02*
X99632855Y-122510524D01*
X99632855Y-122510524D02*
X99537617Y-122558143D01*
X99537617Y-122558143D02*
X99489998Y-122653381D01*
X99489998Y-122653381D02*
X99489998Y-123177191D01*
D12*
%TO.P,R1,1*%
%TO.N,OUT4*%
X95250000Y-100330000D03*
%TO.P,R1,2*%
%TO.N,GND*%
X95250000Y-113030000D03*
%TD*%
D13*
%TO.P,D5,1,K*%
%TO.N,RVAR_15V*%
X110510000Y-67310000D03*
D14*
%TO.P,D5,2,A*%
%TO.N,Net-(D5-A)*%
X107950000Y-67310000D03*
%TD*%
D15*
%TO.P,D2,1,K*%
%TO.N,Net-(D2-K)*%
X110495000Y-92115000D03*
D16*
%TO.P,D2,2,A*%
%TO.N,LED_IN*%
X107955000Y-92115000D03*
%TD*%
D12*
%TO.P,R3,1*%
%TO.N,Net-(D3-K)*%
X125730000Y-100330000D03*
%TO.P,R3,2*%
%TO.N,GND*%
X125730000Y-113030000D03*
%TD*%
D17*
%TO.P,U1,1*%
%TO.N,OUT2*%
X71120000Y-63500000D03*
D18*
%TO.P,U1,2,-*%
X73660000Y-63500000D03*
%TO.P,U1,3,+*%
%TO.N,Net-(D5-A)*%
X76200000Y-63500000D03*
%TO.P,U1,4,V-*%
%TO.N,-15V*%
X78740000Y-63500000D03*
%TO.P,U1,5,+*%
%TO.N,GND*%
X78740000Y-55880000D03*
%TO.P,U1,6,-*%
%TO.N,Net-(D6-A)*%
X76200000Y-55880000D03*
%TO.P,U1,7*%
%TO.N,OUT1*%
X73660000Y-55880000D03*
%TO.P,U1,8,V+*%
%TO.N,+15V*%
X71120000Y-55880000D03*
%TD*%
D19*
%TO.P,J13,0,PAD*%
%TO.N,GND*%
X57000000Y-57912000D03*
X57000000Y-105012000D03*
D20*
%TO.P,J13,1,1*%
%TO.N,5V*%
X58420000Y-98082000D03*
D12*
%TO.P,J13,2,2*%
%TO.N,RVAR_5V*%
X58420000Y-95312000D03*
%TO.P,J13,3,3*%
%TO.N,RVAR_15V*%
X58420000Y-92542000D03*
%TO.P,J13,4,4*%
%TO.N,+15V*%
X58420000Y-89772000D03*
%TO.P,J13,5,5*%
%TO.N,GND*%
X58420000Y-87002000D03*
%TO.P,J13,6,6*%
%TO.N,-15V*%
X58420000Y-84232000D03*
%TO.P,J13,7,7*%
%TO.N,OUT4*%
X58420000Y-81462000D03*
%TO.P,J13,8,8*%
%TO.N,OUT3*%
X58420000Y-78692000D03*
%TO.P,J13,9,9*%
%TO.N,OUT2*%
X58420000Y-75922000D03*
%TO.P,J13,10,10*%
%TO.N,OUT1*%
X58420000Y-73152000D03*
%TO.P,J13,11,11*%
%TO.N,IN1*%
X58420000Y-70382000D03*
%TO.P,J13,12,12*%
%TO.N,IN2*%
X58420000Y-67612000D03*
%TO.P,J13,13,13*%
%TO.N,SEL1*%
X58420000Y-64842000D03*
%TO.P,J13,14,P14*%
%TO.N,3.3V*%
X55580000Y-96697000D03*
%TO.P,J13,15,P15*%
%TO.N,RVAR_3.3V*%
X55580000Y-93927000D03*
%TO.P,J13,16,P16*%
%TO.N,GND*%
X55580000Y-91157000D03*
%TO.P,J13,17,P17*%
X55580000Y-88387000D03*
%TO.P,J13,18,P18*%
X55580000Y-85617000D03*
%TO.P,J13,19,P19*%
X55580000Y-82847000D03*
%TO.P,J13,20,P20*%
X55580000Y-80077000D03*
%TO.P,J13,21,P21*%
X55580000Y-77307000D03*
%TO.P,J13,22,P22*%
X55580000Y-74537000D03*
%TO.P,J13,23,P23*%
X55580000Y-71767000D03*
%TO.P,J13,24,P24*%
%TO.N,SEL3*%
X55580000Y-68997000D03*
%TO.P,J13,25,P25*%
%TO.N,SEL2*%
X55580000Y-66227000D03*
%TD*%
D13*
%TO.P,D6,1,K*%
%TO.N,RVAR_15V*%
X125730000Y-67310000D03*
D14*
%TO.P,D6,2,A*%
%TO.N,Net-(D6-A)*%
X123170000Y-67310000D03*
%TD*%
D12*
%TO.P,R4,1*%
%TO.N,OUT3*%
X92710000Y-60960000D03*
%TO.P,R4,2*%
%TO.N,GND*%
X92710000Y-48260000D03*
%TD*%
D13*
%TO.P,D4,1,K*%
%TO.N,RVAR_15V*%
X95250000Y-67310000D03*
D14*
%TO.P,D4,2,A*%
%TO.N,OUT3*%
X92690000Y-67310000D03*
%TD*%
D17*
%TO.P,U2,1,NULL*%
%TO.N,unconnected-(U2-NULL-Pad1)*%
X71120000Y-106680000D03*
D18*
%TO.P,U2,2,-*%
%TO.N,LED_IN*%
X73660000Y-106680000D03*
%TO.P,U2,3,+*%
%TO.N,IN1*%
X76200000Y-106680000D03*
%TO.P,U2,4,V-*%
%TO.N,-15V*%
X78740000Y-106680000D03*
%TO.P,U2,5,NULL*%
%TO.N,unconnected-(U2-NULL-Pad5)*%
X78740000Y-99060000D03*
%TO.P,U2,6*%
%TO.N,LED_IN*%
X76200000Y-99060000D03*
%TO.P,U2,7,V+*%
%TO.N,+15V*%
X73660000Y-99060000D03*
%TO.P,U2,8,NC*%
%TO.N,unconnected-(U2-NC-Pad8)*%
X71120000Y-99060000D03*
%TD*%
D12*
%TO.P,R6,1*%
%TO.N,OUT1*%
X123190000Y-48260000D03*
%TO.P,R6,2*%
%TO.N,Net-(D6-A)*%
X123190000Y-60960000D03*
%TD*%
D15*
%TO.P,D3,1,K*%
%TO.N,Net-(D3-K)*%
X125735000Y-92115000D03*
D16*
%TO.P,D3,2,A*%
%TO.N,LED_IN*%
X123195000Y-92115000D03*
%TD*%
D15*
%TO.P,D1,1,K*%
%TO.N,OUT4*%
X95255000Y-92250000D03*
D16*
%TO.P,D1,2,A*%
%TO.N,LED_IN*%
X92715000Y-92250000D03*
%TD*%
D12*
%TO.P,R2,1*%
%TO.N,Net-(D2-K)*%
X110490000Y-100330000D03*
%TO.P,R2,2*%
%TO.N,GND*%
X110490000Y-113030000D03*
%TD*%
%TO.P,R5,1*%
%TO.N,Net-(D5-A)*%
X107950000Y-60960000D03*
%TO.P,R5,2*%
%TO.N,GND*%
X107950000Y-48260000D03*
%TD*%
D21*
%TO.N,+15V*%
X64516000Y-89772000D03*
%TO.N,IN1*%
X62484000Y-106172000D03*
X62484000Y-70382000D03*
%TO.N,-15V*%
X66929000Y-84201000D03*
%TO.N,RVAR_15V*%
X69088000Y-92583000D03*
%TD*%
D22*
%TO.N,+15V*%
X73660000Y-91440000D02*
X73660000Y-99060000D01*
X58420000Y-89772000D02*
X64516000Y-89772000D01*
X64516000Y-89772000D02*
X71992000Y-89772000D01*
X71992000Y-89772000D02*
X73660000Y-91440000D01*
%TO.N,IN1*%
X76200000Y-108712000D02*
X76200000Y-106680000D01*
X66421000Y-109855000D02*
X75057000Y-109855000D01*
X62484000Y-106172000D02*
X62738000Y-106172000D01*
X58420000Y-70382000D02*
X62484000Y-70382000D01*
X62738000Y-106172000D02*
X66421000Y-109855000D01*
X75057000Y-109855000D02*
X76200000Y-108712000D01*
%TO.N,OUT1*%
X72517000Y-58928000D02*
X73660000Y-57785000D01*
X76200000Y-51054000D02*
X120396000Y-51054000D01*
X120396000Y-51054000D02*
X123190000Y-48260000D01*
X67056000Y-71374000D02*
X67056000Y-60452000D01*
X73660000Y-55880000D02*
X73660000Y-53594000D01*
X73660000Y-53594000D02*
X76200000Y-51054000D01*
X68580000Y-58928000D02*
X72517000Y-58928000D01*
X73660000Y-57785000D02*
X73660000Y-55880000D01*
X58420000Y-73152000D02*
X65278000Y-73152000D01*
X67056000Y-60452000D02*
X68580000Y-58928000D01*
X65278000Y-73152000D02*
X67056000Y-71374000D01*
%TO.N,OUT2*%
X73660000Y-63500000D02*
X71120000Y-63500000D01*
X58420000Y-75922000D02*
X67080000Y-75922000D01*
X71120000Y-71882000D02*
X71120000Y-63500000D01*
X67080000Y-75922000D02*
X71120000Y-71882000D01*
%TO.N,OUT3*%
X91107000Y-78692000D02*
X92690000Y-77109000D01*
X92690000Y-60980000D02*
X92710000Y-60960000D01*
X92690000Y-67310000D02*
X92690000Y-60980000D01*
X58420000Y-78692000D02*
X91107000Y-78692000D01*
X92690000Y-77109000D02*
X92690000Y-67310000D01*
%TO.N,OUT4*%
X95255000Y-82809000D02*
X93908000Y-81462000D01*
X95255000Y-92250000D02*
X95255000Y-82809000D01*
X93908000Y-81462000D02*
X58420000Y-81462000D01*
%TO.N,-15V*%
X58420000Y-84232000D02*
X66898000Y-84232000D01*
X66898000Y-84232000D02*
X66929000Y-84201000D01*
%TO.N,LED_IN*%
X92710000Y-95504000D02*
X108204000Y-95504000D01*
X76200000Y-96774000D02*
X77470000Y-95504000D01*
X107955000Y-92115000D02*
X107955000Y-95255000D01*
X107955000Y-95255000D02*
X108204000Y-95504000D01*
X77470000Y-95504000D02*
X92710000Y-95504000D01*
X76200000Y-99060000D02*
X76200000Y-96774000D01*
X73660000Y-104394000D02*
X76200000Y-101854000D01*
X92715000Y-95499000D02*
X92710000Y-95504000D01*
X73660000Y-106680000D02*
X73660000Y-104394000D01*
X76200000Y-101854000D02*
X76200000Y-99060000D01*
X92715000Y-92250000D02*
X92715000Y-95499000D01*
X123195000Y-94483000D02*
X123195000Y-92115000D01*
X108204000Y-95504000D02*
X122174000Y-95504000D01*
X122174000Y-95504000D02*
X123195000Y-94483000D01*
%TO.N,Net-(D5-A)*%
X106172000Y-56388000D02*
X107950000Y-58166000D01*
X107950000Y-67310000D02*
X107950000Y-60960000D01*
X76200000Y-63500000D02*
X76200000Y-60960000D01*
X76962000Y-60198000D02*
X85344000Y-60198000D01*
X89154000Y-56388000D02*
X106172000Y-56388000D01*
X107950000Y-58166000D02*
X107950000Y-60960000D01*
X76200000Y-60960000D02*
X76962000Y-60198000D01*
X85344000Y-60198000D02*
X89154000Y-56388000D01*
%TO.N,RVAR_15V*%
X69088000Y-92583000D02*
X69047000Y-92542000D01*
X69047000Y-92542000D02*
X58420000Y-92542000D01*
%TO.N,Net-(D6-A)*%
X123170000Y-67310000D02*
X123170000Y-60980000D01*
X123190000Y-53594000D02*
X123190000Y-60960000D01*
X76200000Y-55880000D02*
X76200000Y-53594000D01*
X122174000Y-52578000D02*
X123190000Y-53594000D01*
X123170000Y-60980000D02*
X123190000Y-60960000D01*
X77216000Y-52578000D02*
X122174000Y-52578000D01*
X76200000Y-53594000D02*
X77216000Y-52578000D01*
%TD*%
%TA.AperFunction,Conductor*%
%TO.N,GND*%
G36*
X93547364Y-82390185D02*
G01*
X93568006Y-82406819D01*
X94310181Y-83148994D01*
X94343666Y-83210317D01*
X94346500Y-83236675D01*
X94346500Y-90726101D01*
X94326815Y-90793140D01*
X94274011Y-90838895D01*
X94251017Y-90846777D01*
X94245800Y-90848009D01*
X94108795Y-90899111D01*
X93991739Y-90986739D01*
X93904111Y-91103795D01*
X93878252Y-91173125D01*
X93836380Y-91229058D01*
X93770916Y-91253474D01*
X93702643Y-91238622D01*
X93674390Y-91217471D01*
X93632578Y-91175659D01*
X93632576Y-91175657D01*
X93453215Y-91045343D01*
X93424084Y-91030500D01*
X93255680Y-90944693D01*
X93044824Y-90876182D01*
X92825851Y-90841500D01*
X92604149Y-90841500D01*
X92494662Y-90858841D01*
X92385175Y-90876182D01*
X92174319Y-90944693D01*
X91976784Y-91045343D01*
X91893575Y-91105799D01*
X91797424Y-91175657D01*
X91797422Y-91175659D01*
X91797421Y-91175659D01*
X91640659Y-91332421D01*
X91640659Y-91332422D01*
X91640657Y-91332424D01*
X91608427Y-91376785D01*
X91510343Y-91511784D01*
X91409693Y-91709319D01*
X91341182Y-91920175D01*
X91306500Y-92139149D01*
X91306500Y-92360850D01*
X91341182Y-92579824D01*
X91409693Y-92790680D01*
X91480136Y-92928930D01*
X91510343Y-92988215D01*
X91640657Y-93167576D01*
X91640659Y-93167578D01*
X91770181Y-93297100D01*
X91803666Y-93358423D01*
X91806500Y-93384781D01*
X91806500Y-94471500D01*
X91786815Y-94538539D01*
X91734011Y-94584294D01*
X91682500Y-94595500D01*
X77380520Y-94595500D01*
X77351397Y-94601292D01*
X77351396Y-94601291D01*
X77205005Y-94630411D01*
X77204999Y-94630413D01*
X77039667Y-94698896D01*
X77039657Y-94698901D01*
X76890865Y-94798321D01*
X76890861Y-94798324D01*
X75494324Y-96194861D01*
X75494321Y-96194865D01*
X75394900Y-96343657D01*
X75394893Y-96343670D01*
X75326413Y-96508998D01*
X75326410Y-96509007D01*
X75291500Y-96684516D01*
X75291500Y-97666640D01*
X75271815Y-97733679D01*
X75255181Y-97754321D01*
X75201930Y-97807571D01*
X75201926Y-97807576D01*
X75080871Y-97974195D01*
X75040484Y-98053459D01*
X74992510Y-98104254D01*
X74924689Y-98121049D01*
X74858554Y-98098511D01*
X74819516Y-98053459D01*
X74779128Y-97974195D01*
X74658073Y-97807576D01*
X74658069Y-97807571D01*
X74604819Y-97754321D01*
X74571334Y-97692998D01*
X74568500Y-97666640D01*
X74568500Y-91350520D01*
X74568499Y-91350516D01*
X74551632Y-91265720D01*
X74533587Y-91175000D01*
X74465102Y-91009664D01*
X74465100Y-91009661D01*
X74465098Y-91009657D01*
X74365679Y-90860866D01*
X74308259Y-90803446D01*
X74239135Y-90734322D01*
X73457057Y-89952244D01*
X72571138Y-89066324D01*
X72571134Y-89066321D01*
X72422342Y-88966900D01*
X72422329Y-88966893D01*
X72257001Y-88898413D01*
X72256992Y-88898410D01*
X72081483Y-88863500D01*
X72081479Y-88863500D01*
X65438650Y-88863500D01*
X65371611Y-88843815D01*
X65350969Y-88827181D01*
X65335860Y-88812072D01*
X65335858Y-88812070D01*
X65175598Y-88695634D01*
X65167322Y-88691417D01*
X64999101Y-88605703D01*
X64810700Y-88544487D01*
X64615051Y-88513500D01*
X64615046Y-88513500D01*
X64416954Y-88513500D01*
X64416949Y-88513500D01*
X64221299Y-88544487D01*
X64032898Y-88605703D01*
X63856401Y-88695634D01*
X63794576Y-88740553D01*
X63696142Y-88812070D01*
X63696140Y-88812072D01*
X63696139Y-88812072D01*
X63681031Y-88827181D01*
X63619708Y-88860666D01*
X63593350Y-88863500D01*
X59413360Y-88863500D01*
X59346321Y-88843815D01*
X59325679Y-88827181D01*
X59272428Y-88773930D01*
X59272423Y-88773926D01*
X59105806Y-88652873D01*
X59105805Y-88652872D01*
X59105803Y-88652871D01*
X59048496Y-88623671D01*
X58922294Y-88559367D01*
X58741004Y-88500462D01*
X58683329Y-88461024D01*
X58656131Y-88396665D01*
X58668046Y-88327819D01*
X58715290Y-88276343D01*
X58741005Y-88264600D01*
X58919029Y-88206755D01*
X59101349Y-88113859D01*
X59145921Y-88081474D01*
X58549409Y-87484962D01*
X58612993Y-87467925D01*
X58727007Y-87402099D01*
X58820099Y-87309007D01*
X58885925Y-87194993D01*
X58902962Y-87131409D01*
X59499474Y-87727921D01*
X59531859Y-87683349D01*
X59624755Y-87501031D01*
X59687990Y-87306417D01*
X59720000Y-87104317D01*
X59720000Y-86899682D01*
X59687990Y-86697582D01*
X59624755Y-86502968D01*
X59531859Y-86320650D01*
X59499474Y-86276077D01*
X59499474Y-86276076D01*
X58902962Y-86872589D01*
X58885925Y-86809007D01*
X58820099Y-86694993D01*
X58727007Y-86601901D01*
X58612993Y-86536075D01*
X58549408Y-86519037D01*
X59145922Y-85922524D01*
X59145921Y-85922523D01*
X59101359Y-85890147D01*
X59101350Y-85890141D01*
X58919031Y-85797244D01*
X58741004Y-85739399D01*
X58683329Y-85699961D01*
X58656131Y-85635602D01*
X58668046Y-85566756D01*
X58715290Y-85515280D01*
X58741005Y-85503537D01*
X58922290Y-85444634D01*
X59105803Y-85351129D01*
X59272430Y-85230068D01*
X59325679Y-85176819D01*
X59387002Y-85143334D01*
X59413360Y-85140500D01*
X66040733Y-85140500D01*
X66107772Y-85160185D01*
X66113601Y-85164170D01*
X66269402Y-85277366D01*
X66333436Y-85309993D01*
X66445898Y-85367296D01*
X66445900Y-85367296D01*
X66445903Y-85367298D01*
X66546888Y-85400110D01*
X66634299Y-85428512D01*
X66829949Y-85459500D01*
X66829954Y-85459500D01*
X67028051Y-85459500D01*
X67223700Y-85428512D01*
X67237565Y-85424007D01*
X67412097Y-85367298D01*
X67588598Y-85277366D01*
X67748858Y-85160930D01*
X67888930Y-85020858D01*
X68005366Y-84860598D01*
X68095298Y-84684097D01*
X68156512Y-84495700D01*
X68169730Y-84412244D01*
X68187500Y-84300051D01*
X68187500Y-84101948D01*
X68156512Y-83906299D01*
X68099134Y-83729710D01*
X68095298Y-83717903D01*
X68095296Y-83717900D01*
X68095296Y-83717898D01*
X68021426Y-83572922D01*
X68005366Y-83541402D01*
X67888930Y-83381142D01*
X67748858Y-83241070D01*
X67588598Y-83124634D01*
X67565512Y-83112871D01*
X67412101Y-83034703D01*
X67223700Y-82973487D01*
X67028051Y-82942500D01*
X67028046Y-82942500D01*
X66829954Y-82942500D01*
X66829949Y-82942500D01*
X66634299Y-82973487D01*
X66445898Y-83034703D01*
X66269401Y-83124634D01*
X66185885Y-83185313D01*
X66109142Y-83241070D01*
X66109140Y-83241072D01*
X66109139Y-83241072D01*
X66063031Y-83287181D01*
X66001708Y-83320666D01*
X65975350Y-83323500D01*
X59413360Y-83323500D01*
X59346321Y-83303815D01*
X59325679Y-83287181D01*
X59272428Y-83233930D01*
X59272423Y-83233926D01*
X59105806Y-83112873D01*
X59105805Y-83112872D01*
X59105803Y-83112871D01*
X59048496Y-83083671D01*
X58922294Y-83019367D01*
X58754757Y-82964931D01*
X58697082Y-82925493D01*
X58669884Y-82861134D01*
X58681799Y-82792288D01*
X58729043Y-82740812D01*
X58754757Y-82729069D01*
X58785923Y-82718942D01*
X58922290Y-82674634D01*
X59105803Y-82581129D01*
X59272430Y-82460068D01*
X59325679Y-82406819D01*
X59387002Y-82373334D01*
X59413360Y-82370500D01*
X93480325Y-82370500D01*
X93547364Y-82390185D01*
G37*
%TD.AperFunction*%
%TA.AperFunction,Conductor*%
G36*
X139542539Y-35680185D02*
G01*
X139588294Y-35732989D01*
X139599500Y-35784500D01*
X139599500Y-126775500D01*
X139579815Y-126842539D01*
X139527011Y-126888294D01*
X139475500Y-126899500D01*
X56104500Y-126899500D01*
X56037461Y-126879815D01*
X55991706Y-126827011D01*
X55980500Y-126775500D01*
X55980500Y-124030650D01*
X98875353Y-124030650D01*
X122152903Y-124030650D01*
X122152903Y-120515186D01*
X127139500Y-120515186D01*
X127139500Y-120784813D01*
X127169686Y-121052719D01*
X127169688Y-121052731D01*
X127229684Y-121315594D01*
X127229687Y-121315602D01*
X127318734Y-121570082D01*
X127435714Y-121812994D01*
X127435716Y-121812997D01*
X127579162Y-122041289D01*
X127747266Y-122252085D01*
X127937915Y-122442734D01*
X128148711Y-122610838D01*
X128377003Y-122754284D01*
X128619921Y-122871267D01*
X128811049Y-122938145D01*
X128874397Y-122960312D01*
X128874405Y-122960315D01*
X128874408Y-122960315D01*
X128874409Y-122960316D01*
X129137268Y-123020312D01*
X129405187Y-123050499D01*
X129405188Y-123050500D01*
X129405191Y-123050500D01*
X129674812Y-123050500D01*
X129674812Y-123050499D01*
X129942732Y-123020312D01*
X130205591Y-122960316D01*
X130460079Y-122871267D01*
X130702997Y-122754284D01*
X130931289Y-122610838D01*
X131142085Y-122442734D01*
X131332734Y-122252085D01*
X131500838Y-122041289D01*
X131644284Y-121812997D01*
X131761267Y-121570079D01*
X131850316Y-121315591D01*
X131910312Y-121052732D01*
X131940500Y-120784809D01*
X131940500Y-120515191D01*
X131910312Y-120247268D01*
X131850316Y-119984409D01*
X131761267Y-119729921D01*
X131644284Y-119487003D01*
X131500838Y-119258711D01*
X131332734Y-119047915D01*
X131142085Y-118857266D01*
X130931289Y-118689162D01*
X130702997Y-118545716D01*
X130702994Y-118545714D01*
X130460082Y-118428734D01*
X130205602Y-118339687D01*
X130205594Y-118339684D01*
X130008446Y-118294687D01*
X129942732Y-118279688D01*
X129942728Y-118279687D01*
X129942719Y-118279686D01*
X129674813Y-118249500D01*
X129674809Y-118249500D01*
X129405191Y-118249500D01*
X129405186Y-118249500D01*
X129137280Y-118279686D01*
X129137268Y-118279688D01*
X128874405Y-118339684D01*
X128874397Y-118339687D01*
X128619917Y-118428734D01*
X128377005Y-118545714D01*
X128148712Y-118689161D01*
X127937915Y-118857265D01*
X127747265Y-119047915D01*
X127579161Y-119258712D01*
X127435714Y-119487005D01*
X127318734Y-119729917D01*
X127229687Y-119984397D01*
X127229684Y-119984405D01*
X127169688Y-120247268D01*
X127169686Y-120247280D01*
X127139500Y-120515186D01*
X122152903Y-120515186D01*
X122152903Y-119904264D01*
X98875353Y-119904264D01*
X98875353Y-124030650D01*
X55980500Y-124030650D01*
X55980500Y-116705186D01*
X61099500Y-116705186D01*
X61099500Y-116974813D01*
X61129686Y-117242719D01*
X61129688Y-117242731D01*
X61189684Y-117505594D01*
X61189687Y-117505602D01*
X61278734Y-117760082D01*
X61395714Y-118002994D01*
X61395716Y-118002997D01*
X61539162Y-118231289D01*
X61707266Y-118442085D01*
X61897915Y-118632734D01*
X62108711Y-118800838D01*
X62337003Y-118944284D01*
X62579921Y-119061267D01*
X62771049Y-119128145D01*
X62834397Y-119150312D01*
X62834405Y-119150315D01*
X62834408Y-119150315D01*
X62834409Y-119150316D01*
X63097268Y-119210312D01*
X63365187Y-119240499D01*
X63365188Y-119240500D01*
X63365191Y-119240500D01*
X63634812Y-119240500D01*
X63634812Y-119240499D01*
X63902732Y-119210312D01*
X64165591Y-119150316D01*
X64420079Y-119061267D01*
X64662997Y-118944284D01*
X64891289Y-118800838D01*
X65102085Y-118632734D01*
X65292734Y-118442085D01*
X65460838Y-118231289D01*
X65604284Y-118002997D01*
X65721267Y-117760079D01*
X65810316Y-117505591D01*
X65870312Y-117242732D01*
X65900500Y-116974809D01*
X65900500Y-116705191D01*
X65870312Y-116437268D01*
X65810316Y-116174409D01*
X65721267Y-115919921D01*
X65604284Y-115677003D01*
X65460838Y-115448711D01*
X65292734Y-115237915D01*
X65102085Y-115047266D01*
X64891289Y-114879162D01*
X64662997Y-114735716D01*
X64662994Y-114735714D01*
X64420082Y-114618734D01*
X64165602Y-114529687D01*
X64165594Y-114529684D01*
X63968446Y-114484687D01*
X63902732Y-114469688D01*
X63902728Y-114469687D01*
X63902719Y-114469686D01*
X63634813Y-114439500D01*
X63634809Y-114439500D01*
X63365191Y-114439500D01*
X63365186Y-114439500D01*
X63097280Y-114469686D01*
X63097268Y-114469688D01*
X62834405Y-114529684D01*
X62834397Y-114529687D01*
X62579917Y-114618734D01*
X62337005Y-114735714D01*
X62108712Y-114879161D01*
X61897915Y-115047265D01*
X61707265Y-115237915D01*
X61539161Y-115448712D01*
X61395714Y-115677005D01*
X61278734Y-115919917D01*
X61189687Y-116174397D01*
X61189684Y-116174405D01*
X61129688Y-116437268D01*
X61129686Y-116437280D01*
X61099500Y-116705186D01*
X55980500Y-116705186D01*
X55980500Y-112927682D01*
X93950000Y-112927682D01*
X93950000Y-113132317D01*
X93982009Y-113334417D01*
X94045244Y-113529031D01*
X94138141Y-113711350D01*
X94138147Y-113711359D01*
X94170523Y-113755921D01*
X94170524Y-113755922D01*
X94850000Y-113076446D01*
X94850000Y-113082661D01*
X94877259Y-113184394D01*
X94929920Y-113275606D01*
X95004394Y-113350080D01*
X95095606Y-113402741D01*
X95197339Y-113430000D01*
X95203553Y-113430000D01*
X94524076Y-114109474D01*
X94568650Y-114141859D01*
X94750968Y-114234755D01*
X94945582Y-114297990D01*
X95147683Y-114330000D01*
X95352317Y-114330000D01*
X95554417Y-114297990D01*
X95749031Y-114234755D01*
X95931349Y-114141859D01*
X95975921Y-114109474D01*
X95296447Y-113430000D01*
X95302661Y-113430000D01*
X95404394Y-113402741D01*
X95495606Y-113350080D01*
X95570080Y-113275606D01*
X95622741Y-113184394D01*
X95650000Y-113082661D01*
X95650000Y-113076447D01*
X96329474Y-113755921D01*
X96361859Y-113711349D01*
X96454755Y-113529031D01*
X96517990Y-113334417D01*
X96550000Y-113132317D01*
X96550000Y-112927682D01*
X109190000Y-112927682D01*
X109190000Y-113132317D01*
X109222009Y-113334417D01*
X109285244Y-113529031D01*
X109378141Y-113711350D01*
X109378147Y-113711359D01*
X109410523Y-113755921D01*
X109410524Y-113755922D01*
X110090000Y-113076446D01*
X110090000Y-113082661D01*
X110117259Y-113184394D01*
X110169920Y-113275606D01*
X110244394Y-113350080D01*
X110335606Y-113402741D01*
X110437339Y-113430000D01*
X110443553Y-113430000D01*
X109764076Y-114109474D01*
X109808650Y-114141859D01*
X109990968Y-114234755D01*
X110185582Y-114297990D01*
X110387683Y-114330000D01*
X110592317Y-114330000D01*
X110794417Y-114297990D01*
X110989031Y-114234755D01*
X111171349Y-114141859D01*
X111215921Y-114109474D01*
X110536447Y-113430000D01*
X110542661Y-113430000D01*
X110644394Y-113402741D01*
X110735606Y-113350080D01*
X110810080Y-113275606D01*
X110862741Y-113184394D01*
X110890000Y-113082661D01*
X110890000Y-113076448D01*
X111569474Y-113755922D01*
X111569474Y-113755921D01*
X111601859Y-113711349D01*
X111694755Y-113529031D01*
X111757990Y-113334417D01*
X111790000Y-113132317D01*
X111790000Y-112927682D01*
X124430000Y-112927682D01*
X124430000Y-113132317D01*
X124462009Y-113334417D01*
X124525244Y-113529031D01*
X124618141Y-113711350D01*
X124618147Y-113711359D01*
X124650523Y-113755921D01*
X124650524Y-113755922D01*
X125330000Y-113076446D01*
X125330000Y-113082661D01*
X125357259Y-113184394D01*
X125409920Y-113275606D01*
X125484394Y-113350080D01*
X125575606Y-113402741D01*
X125677339Y-113430000D01*
X125683553Y-113430000D01*
X125004076Y-114109474D01*
X125048650Y-114141859D01*
X125230968Y-114234755D01*
X125425582Y-114297990D01*
X125627683Y-114330000D01*
X125832317Y-114330000D01*
X126034417Y-114297990D01*
X126229031Y-114234755D01*
X126411349Y-114141859D01*
X126455921Y-114109474D01*
X125776447Y-113430000D01*
X125782661Y-113430000D01*
X125884394Y-113402741D01*
X125975606Y-113350080D01*
X126050080Y-113275606D01*
X126102741Y-113184394D01*
X126130000Y-113082661D01*
X126130000Y-113076447D01*
X126809474Y-113755921D01*
X126841859Y-113711349D01*
X126934755Y-113529031D01*
X126997990Y-113334417D01*
X127030000Y-113132317D01*
X127030000Y-112927682D01*
X126997990Y-112725582D01*
X126934755Y-112530968D01*
X126841859Y-112348650D01*
X126809474Y-112304077D01*
X126809474Y-112304076D01*
X126130000Y-112983551D01*
X126130000Y-112977339D01*
X126102741Y-112875606D01*
X126050080Y-112784394D01*
X125975606Y-112709920D01*
X125884394Y-112657259D01*
X125782661Y-112630000D01*
X125776446Y-112630000D01*
X126455922Y-111950524D01*
X126455921Y-111950523D01*
X126411359Y-111918147D01*
X126411350Y-111918141D01*
X126229031Y-111825244D01*
X126034417Y-111762009D01*
X125832317Y-111730000D01*
X125627683Y-111730000D01*
X125425582Y-111762009D01*
X125230968Y-111825244D01*
X125048644Y-111918143D01*
X125004077Y-111950523D01*
X125004077Y-111950524D01*
X125683554Y-112630000D01*
X125677339Y-112630000D01*
X125575606Y-112657259D01*
X125484394Y-112709920D01*
X125409920Y-112784394D01*
X125357259Y-112875606D01*
X125330000Y-112977339D01*
X125330000Y-112983553D01*
X124650524Y-112304077D01*
X124650523Y-112304077D01*
X124618143Y-112348644D01*
X124525244Y-112530968D01*
X124462009Y-112725582D01*
X124430000Y-112927682D01*
X111790000Y-112927682D01*
X111757990Y-112725582D01*
X111694755Y-112530968D01*
X111601859Y-112348650D01*
X111569474Y-112304077D01*
X111569474Y-112304076D01*
X110890000Y-112983551D01*
X110890000Y-112977339D01*
X110862741Y-112875606D01*
X110810080Y-112784394D01*
X110735606Y-112709920D01*
X110644394Y-112657259D01*
X110542661Y-112630000D01*
X110536446Y-112630000D01*
X111215922Y-111950524D01*
X111215921Y-111950523D01*
X111171359Y-111918147D01*
X111171350Y-111918141D01*
X110989031Y-111825244D01*
X110794417Y-111762009D01*
X110592317Y-111730000D01*
X110387683Y-111730000D01*
X110185582Y-111762009D01*
X109990968Y-111825244D01*
X109808644Y-111918143D01*
X109764077Y-111950523D01*
X109764077Y-111950524D01*
X110443554Y-112630000D01*
X110437339Y-112630000D01*
X110335606Y-112657259D01*
X110244394Y-112709920D01*
X110169920Y-112784394D01*
X110117259Y-112875606D01*
X110090000Y-112977339D01*
X110090000Y-112983553D01*
X109410524Y-112304077D01*
X109410523Y-112304077D01*
X109378143Y-112348644D01*
X109285244Y-112530968D01*
X109222009Y-112725582D01*
X109190000Y-112927682D01*
X96550000Y-112927682D01*
X96517990Y-112725582D01*
X96454755Y-112530968D01*
X96361859Y-112348650D01*
X96329474Y-112304077D01*
X96329474Y-112304076D01*
X95650000Y-112983551D01*
X95650000Y-112977339D01*
X95622741Y-112875606D01*
X95570080Y-112784394D01*
X95495606Y-112709920D01*
X95404394Y-112657259D01*
X95302661Y-112630000D01*
X95296446Y-112630000D01*
X95975922Y-111950524D01*
X95975921Y-111950523D01*
X95931359Y-111918147D01*
X95931350Y-111918141D01*
X95749031Y-111825244D01*
X95554417Y-111762009D01*
X95352317Y-111730000D01*
X95147683Y-111730000D01*
X94945582Y-111762009D01*
X94750968Y-111825244D01*
X94568644Y-111918143D01*
X94524077Y-111950523D01*
X94524077Y-111950524D01*
X95203554Y-112630000D01*
X95197339Y-112630000D01*
X95095606Y-112657259D01*
X95004394Y-112709920D01*
X94929920Y-112784394D01*
X94877259Y-112875606D01*
X94850000Y-112977339D01*
X94850000Y-112983553D01*
X94170524Y-112304077D01*
X94170523Y-112304077D01*
X94138143Y-112348644D01*
X94045244Y-112530968D01*
X93982009Y-112725582D01*
X93950000Y-112927682D01*
X55980500Y-112927682D01*
X55980500Y-110470010D01*
X55980499Y-110470007D01*
X55965200Y-110433071D01*
X55936928Y-110404799D01*
X55899992Y-110389500D01*
X55899991Y-110389500D01*
X48484500Y-110389500D01*
X48417461Y-110369815D01*
X48371706Y-110317011D01*
X48360500Y-110265500D01*
X48360500Y-104871598D01*
X54500000Y-104871598D01*
X54500000Y-105152401D01*
X54531437Y-105431412D01*
X54531439Y-105431424D01*
X54593921Y-105705178D01*
X54593922Y-105705180D01*
X54686662Y-105970217D01*
X54808492Y-106223200D01*
X54957884Y-106460956D01*
X55064187Y-106594257D01*
X55705747Y-105952697D01*
X55779588Y-106054330D01*
X55957670Y-106232412D01*
X56059300Y-106306251D01*
X55417741Y-106947810D01*
X55417741Y-106947811D01*
X55551043Y-107054115D01*
X55788799Y-107203507D01*
X56041782Y-107325337D01*
X56306819Y-107418077D01*
X56306821Y-107418078D01*
X56580575Y-107480560D01*
X56580587Y-107480562D01*
X56859598Y-107511999D01*
X56859600Y-107512000D01*
X57140400Y-107512000D01*
X57140401Y-107511999D01*
X57419412Y-107480562D01*
X57419424Y-107480560D01*
X57693178Y-107418078D01*
X57693180Y-107418077D01*
X57958217Y-107325337D01*
X58211200Y-107203507D01*
X58448956Y-107054116D01*
X58582257Y-106947810D01*
X57940698Y-106306251D01*
X58042330Y-106232412D01*
X58220412Y-106054330D01*
X58294251Y-105952698D01*
X58935810Y-106594257D01*
X59042116Y-106460956D01*
X59191507Y-106223200D01*
X59313337Y-105970217D01*
X59406077Y-105705180D01*
X59406078Y-105705178D01*
X59468560Y-105431424D01*
X59468562Y-105431412D01*
X59499999Y-105152401D01*
X59500000Y-105152399D01*
X59500000Y-104871600D01*
X59499999Y-104871598D01*
X59468562Y-104592587D01*
X59468560Y-104592575D01*
X59406078Y-104318821D01*
X59406077Y-104318819D01*
X59313337Y-104053782D01*
X59191507Y-103800799D01*
X59042115Y-103563043D01*
X58935810Y-103429741D01*
X58294251Y-104071300D01*
X58220412Y-103969670D01*
X58042330Y-103791588D01*
X57940697Y-103717747D01*
X58582257Y-103076187D01*
X58448956Y-102969884D01*
X58211200Y-102820492D01*
X57958217Y-102698662D01*
X57693180Y-102605922D01*
X57693178Y-102605921D01*
X57419424Y-102543439D01*
X57419412Y-102543437D01*
X57140401Y-102512000D01*
X56859598Y-102512000D01*
X56580587Y-102543437D01*
X56580575Y-102543439D01*
X56306821Y-102605921D01*
X56306819Y-102605922D01*
X56041782Y-102698662D01*
X55788799Y-102820492D01*
X55551043Y-102969884D01*
X55417741Y-103076187D01*
X56059301Y-103717747D01*
X55957670Y-103791588D01*
X55779588Y-103969670D01*
X55705747Y-104071301D01*
X55064187Y-103429741D01*
X54957884Y-103563043D01*
X54808492Y-103800799D01*
X54686662Y-104053782D01*
X54593922Y-104318819D01*
X54593921Y-104318821D01*
X54531439Y-104592575D01*
X54531437Y-104592587D01*
X54500000Y-104871598D01*
X48360500Y-104871598D01*
X48360500Y-66124019D01*
X54271500Y-66124019D01*
X54271500Y-66329980D01*
X54303719Y-66533408D01*
X54367367Y-66729294D01*
X54426880Y-66846092D01*
X54458116Y-66907397D01*
X54460873Y-66912806D01*
X54581926Y-67079423D01*
X54581930Y-67079428D01*
X54727571Y-67225069D01*
X54727576Y-67225073D01*
X54838401Y-67305591D01*
X54894197Y-67346129D01*
X55009955Y-67405111D01*
X55077705Y-67439632D01*
X55077707Y-67439632D01*
X55077710Y-67439634D01*
X55150804Y-67463383D01*
X55245242Y-67494069D01*
X55302917Y-67533507D01*
X55330115Y-67597866D01*
X55318200Y-67666712D01*
X55270956Y-67718188D01*
X55245242Y-67729931D01*
X55077705Y-67784367D01*
X54894193Y-67877873D01*
X54727576Y-67998926D01*
X54727571Y-67998930D01*
X54581930Y-68144571D01*
X54581926Y-68144576D01*
X54460873Y-68311193D01*
X54367367Y-68494705D01*
X54303719Y-68690591D01*
X54271500Y-68894019D01*
X54271500Y-69099980D01*
X54303719Y-69303408D01*
X54367367Y-69499294D01*
X54460873Y-69682806D01*
X54581926Y-69849423D01*
X54581930Y-69849428D01*
X54727571Y-69995069D01*
X54727576Y-69995073D01*
X54838401Y-70075591D01*
X54894197Y-70116129D01*
X55077710Y-70209634D01*
X55231448Y-70259586D01*
X55258994Y-70268537D01*
X55316670Y-70307975D01*
X55343868Y-70372333D01*
X55331953Y-70441180D01*
X55284709Y-70492655D01*
X55258995Y-70504399D01*
X55080968Y-70562244D01*
X54898644Y-70655143D01*
X54854077Y-70687523D01*
X54854077Y-70687524D01*
X55450591Y-71284037D01*
X55387007Y-71301075D01*
X55272993Y-71366901D01*
X55179901Y-71459993D01*
X55114075Y-71574007D01*
X55097037Y-71637590D01*
X54500524Y-71041077D01*
X54500523Y-71041077D01*
X54468143Y-71085644D01*
X54375244Y-71267968D01*
X54312009Y-71462582D01*
X54280000Y-71664682D01*
X54280000Y-71869317D01*
X54312009Y-72071417D01*
X54375244Y-72266031D01*
X54468141Y-72448350D01*
X54468147Y-72448359D01*
X54500523Y-72492921D01*
X54500524Y-72492922D01*
X55097037Y-71896408D01*
X55114075Y-71959993D01*
X55179901Y-72074007D01*
X55272993Y-72167099D01*
X55387007Y-72232925D01*
X55450590Y-72249962D01*
X54854076Y-72846474D01*
X54898650Y-72878859D01*
X55080968Y-72971755D01*
X55272747Y-73034069D01*
X55330422Y-73073507D01*
X55357620Y-73137866D01*
X55345705Y-73206712D01*
X55298461Y-73258188D01*
X55272747Y-73269931D01*
X55080968Y-73332244D01*
X54898644Y-73425143D01*
X54854077Y-73457523D01*
X54854077Y-73457524D01*
X55450591Y-74054037D01*
X55387007Y-74071075D01*
X55272993Y-74136901D01*
X55179901Y-74229993D01*
X55114075Y-74344007D01*
X55097037Y-74407590D01*
X54500524Y-73811077D01*
X54500523Y-73811077D01*
X54468143Y-73855644D01*
X54375244Y-74037968D01*
X54312009Y-74232582D01*
X54280000Y-74434682D01*
X54280000Y-74639317D01*
X54312009Y-74841417D01*
X54375244Y-75036031D01*
X54468141Y-75218350D01*
X54468147Y-75218359D01*
X54500523Y-75262921D01*
X54500524Y-75262922D01*
X55097037Y-74666408D01*
X55114075Y-74729993D01*
X55179901Y-74844007D01*
X55272993Y-74937099D01*
X55387007Y-75002925D01*
X55450590Y-75019962D01*
X54854076Y-75616474D01*
X54898650Y-75648859D01*
X55080968Y-75741755D01*
X55272747Y-75804069D01*
X55330422Y-75843507D01*
X55357620Y-75907866D01*
X55345705Y-75976712D01*
X55298461Y-76028188D01*
X55272747Y-76039931D01*
X55080968Y-76102244D01*
X54898644Y-76195143D01*
X54854077Y-76227523D01*
X54854077Y-76227524D01*
X55450591Y-76824037D01*
X55387007Y-76841075D01*
X55272993Y-76906901D01*
X55179901Y-76999993D01*
X55114075Y-77114007D01*
X55097037Y-77177590D01*
X54500524Y-76581077D01*
X54500523Y-76581077D01*
X54468143Y-76625644D01*
X54375244Y-76807968D01*
X54312009Y-77002582D01*
X54280000Y-77204682D01*
X54280000Y-77409317D01*
X54312009Y-77611417D01*
X54375244Y-77806031D01*
X54468141Y-77988350D01*
X54468147Y-77988359D01*
X54500523Y-78032921D01*
X54500524Y-78032922D01*
X55097037Y-77436408D01*
X55114075Y-77499993D01*
X55179901Y-77614007D01*
X55272993Y-77707099D01*
X55387007Y-77772925D01*
X55450590Y-77789962D01*
X54854076Y-78386474D01*
X54898650Y-78418859D01*
X55080968Y-78511755D01*
X55272747Y-78574069D01*
X55330422Y-78613507D01*
X55357620Y-78677866D01*
X55345705Y-78746712D01*
X55298461Y-78798188D01*
X55272747Y-78809931D01*
X55080968Y-78872244D01*
X54898644Y-78965143D01*
X54854077Y-78997523D01*
X54854077Y-78997524D01*
X55450591Y-79594037D01*
X55387007Y-79611075D01*
X55272993Y-79676901D01*
X55179901Y-79769993D01*
X55114075Y-79884007D01*
X55097037Y-79947590D01*
X54500524Y-79351077D01*
X54500523Y-79351077D01*
X54468143Y-79395644D01*
X54375244Y-79577968D01*
X54312009Y-79772582D01*
X54280000Y-79974682D01*
X54280000Y-80179317D01*
X54312009Y-80381417D01*
X54375244Y-80576031D01*
X54468141Y-80758350D01*
X54468147Y-80758359D01*
X54500523Y-80802921D01*
X54500524Y-80802922D01*
X55097037Y-80206408D01*
X55114075Y-80269993D01*
X55179901Y-80384007D01*
X55272993Y-80477099D01*
X55387007Y-80542925D01*
X55450590Y-80559962D01*
X54854076Y-81156474D01*
X54898650Y-81188859D01*
X55080968Y-81281755D01*
X55272747Y-81344069D01*
X55330422Y-81383507D01*
X55357620Y-81447866D01*
X55345705Y-81516712D01*
X55298461Y-81568188D01*
X55272747Y-81579931D01*
X55080968Y-81642244D01*
X54898644Y-81735143D01*
X54854077Y-81767523D01*
X54854077Y-81767524D01*
X55450591Y-82364037D01*
X55387007Y-82381075D01*
X55272993Y-82446901D01*
X55179901Y-82539993D01*
X55114075Y-82654007D01*
X55097037Y-82717590D01*
X54500524Y-82121077D01*
X54500523Y-82121077D01*
X54468143Y-82165644D01*
X54375244Y-82347968D01*
X54312009Y-82542582D01*
X54280000Y-82744682D01*
X54280000Y-82949317D01*
X54312009Y-83151417D01*
X54375244Y-83346031D01*
X54468141Y-83528350D01*
X54468147Y-83528359D01*
X54500523Y-83572921D01*
X54500524Y-83572922D01*
X55097037Y-82976408D01*
X55114075Y-83039993D01*
X55179901Y-83154007D01*
X55272993Y-83247099D01*
X55387007Y-83312925D01*
X55450590Y-83329962D01*
X54854076Y-83926474D01*
X54898650Y-83958859D01*
X55080968Y-84051755D01*
X55272747Y-84114069D01*
X55330422Y-84153507D01*
X55357620Y-84217866D01*
X55345705Y-84286712D01*
X55298461Y-84338188D01*
X55272747Y-84349931D01*
X55080968Y-84412244D01*
X54898644Y-84505143D01*
X54854077Y-84537523D01*
X54854077Y-84537524D01*
X55450591Y-85134037D01*
X55387007Y-85151075D01*
X55272993Y-85216901D01*
X55179901Y-85309993D01*
X55114075Y-85424007D01*
X55097037Y-85487590D01*
X54500524Y-84891077D01*
X54500523Y-84891077D01*
X54468143Y-84935644D01*
X54375244Y-85117968D01*
X54312009Y-85312582D01*
X54280000Y-85514682D01*
X54280000Y-85719317D01*
X54312009Y-85921417D01*
X54375244Y-86116031D01*
X54468141Y-86298350D01*
X54468147Y-86298359D01*
X54500523Y-86342921D01*
X54500524Y-86342922D01*
X55097037Y-85746408D01*
X55114075Y-85809993D01*
X55179901Y-85924007D01*
X55272993Y-86017099D01*
X55387007Y-86082925D01*
X55450590Y-86099962D01*
X54854076Y-86696474D01*
X54898650Y-86728859D01*
X55080968Y-86821755D01*
X55272747Y-86884069D01*
X55330422Y-86923507D01*
X55357620Y-86987866D01*
X55345705Y-87056712D01*
X55298461Y-87108188D01*
X55272747Y-87119931D01*
X55080968Y-87182244D01*
X54898644Y-87275143D01*
X54854077Y-87307523D01*
X54854077Y-87307524D01*
X55450591Y-87904037D01*
X55387007Y-87921075D01*
X55272993Y-87986901D01*
X55179901Y-88079993D01*
X55114075Y-88194007D01*
X55097037Y-88257590D01*
X54500524Y-87661077D01*
X54500523Y-87661077D01*
X54468143Y-87705644D01*
X54375244Y-87887968D01*
X54312009Y-88082582D01*
X54280000Y-88284682D01*
X54280000Y-88489317D01*
X54312009Y-88691417D01*
X54375244Y-88886031D01*
X54468141Y-89068350D01*
X54468147Y-89068359D01*
X54500523Y-89112921D01*
X54500524Y-89112922D01*
X55097037Y-88516408D01*
X55114075Y-88579993D01*
X55179901Y-88694007D01*
X55272993Y-88787099D01*
X55387007Y-88852925D01*
X55450590Y-88869962D01*
X54854076Y-89466474D01*
X54898650Y-89498859D01*
X55080968Y-89591755D01*
X55272747Y-89654069D01*
X55330422Y-89693507D01*
X55357620Y-89757866D01*
X55345705Y-89826712D01*
X55298461Y-89878188D01*
X55272747Y-89889931D01*
X55080968Y-89952244D01*
X54898644Y-90045143D01*
X54854077Y-90077523D01*
X54854077Y-90077524D01*
X55450591Y-90674037D01*
X55387007Y-90691075D01*
X55272993Y-90756901D01*
X55179901Y-90849993D01*
X55114075Y-90964007D01*
X55097037Y-91027590D01*
X54500524Y-90431077D01*
X54500523Y-90431077D01*
X54468143Y-90475644D01*
X54375244Y-90657968D01*
X54312009Y-90852582D01*
X54280000Y-91054682D01*
X54280000Y-91259317D01*
X54312009Y-91461417D01*
X54375244Y-91656031D01*
X54468141Y-91838350D01*
X54468147Y-91838359D01*
X54500523Y-91882921D01*
X54500524Y-91882922D01*
X55097037Y-91286408D01*
X55114075Y-91349993D01*
X55179901Y-91464007D01*
X55272993Y-91557099D01*
X55387007Y-91622925D01*
X55450590Y-91639962D01*
X54854076Y-92236474D01*
X54898650Y-92268859D01*
X55080968Y-92361754D01*
X55258995Y-92419600D01*
X55316670Y-92459038D01*
X55343868Y-92523397D01*
X55331953Y-92592243D01*
X55284709Y-92643719D01*
X55258995Y-92655462D01*
X55077705Y-92714367D01*
X54894193Y-92807873D01*
X54727576Y-92928926D01*
X54727571Y-92928930D01*
X54581930Y-93074571D01*
X54581926Y-93074576D01*
X54460873Y-93241193D01*
X54367367Y-93424705D01*
X54303719Y-93620591D01*
X54271500Y-93824019D01*
X54271500Y-94029980D01*
X54303719Y-94233408D01*
X54367367Y-94429294D01*
X54415119Y-94523011D01*
X54455005Y-94601291D01*
X54460873Y-94612806D01*
X54581926Y-94779423D01*
X54581930Y-94779428D01*
X54727571Y-94925069D01*
X54727576Y-94925073D01*
X54838401Y-95005591D01*
X54894197Y-95046129D01*
X55011128Y-95105709D01*
X55077705Y-95139632D01*
X55077707Y-95139632D01*
X55077710Y-95139634D01*
X55150804Y-95163383D01*
X55245242Y-95194069D01*
X55302917Y-95233507D01*
X55330115Y-95297866D01*
X55318200Y-95366712D01*
X55270956Y-95418188D01*
X55245242Y-95429931D01*
X55077705Y-95484367D01*
X54894193Y-95577873D01*
X54727576Y-95698926D01*
X54727571Y-95698930D01*
X54581930Y-95844571D01*
X54581926Y-95844576D01*
X54460873Y-96011193D01*
X54367367Y-96194705D01*
X54303719Y-96390591D01*
X54271500Y-96594019D01*
X54271500Y-96799980D01*
X54303719Y-97003408D01*
X54367367Y-97199294D01*
X54460873Y-97382806D01*
X54581926Y-97549423D01*
X54581930Y-97549428D01*
X54727571Y-97695069D01*
X54727576Y-97695073D01*
X54809125Y-97754321D01*
X54894197Y-97816129D01*
X55011128Y-97875709D01*
X55077705Y-97909632D01*
X55077707Y-97909632D01*
X55077710Y-97909634D01*
X55182707Y-97943749D01*
X55273591Y-97973280D01*
X55375305Y-97989390D01*
X55477019Y-98005500D01*
X55477020Y-98005500D01*
X55682980Y-98005500D01*
X55682981Y-98005500D01*
X55886408Y-97973280D01*
X56082290Y-97909634D01*
X56265803Y-97816129D01*
X56432430Y-97695068D01*
X56578068Y-97549430D01*
X56699129Y-97382803D01*
X56792634Y-97199290D01*
X56856280Y-97003408D01*
X56888500Y-96799981D01*
X56888500Y-96594019D01*
X56865502Y-96448819D01*
X56856280Y-96390591D01*
X56792632Y-96194705D01*
X56758709Y-96128128D01*
X56699129Y-96011197D01*
X56683661Y-95989908D01*
X56578073Y-95844576D01*
X56578069Y-95844571D01*
X56432428Y-95698930D01*
X56432423Y-95698926D01*
X56265806Y-95577873D01*
X56265805Y-95577872D01*
X56265803Y-95577871D01*
X56208496Y-95548671D01*
X56082294Y-95484367D01*
X55914757Y-95429931D01*
X55857082Y-95390493D01*
X55829884Y-95326134D01*
X55841799Y-95257288D01*
X55889043Y-95205812D01*
X55914757Y-95194069D01*
X55945923Y-95183942D01*
X56082290Y-95139634D01*
X56265803Y-95046129D01*
X56432430Y-94925068D01*
X56578068Y-94779430D01*
X56699129Y-94612803D01*
X56792634Y-94429290D01*
X56856280Y-94233408D01*
X56888500Y-94029981D01*
X56888500Y-93824019D01*
X56876665Y-93749296D01*
X56856280Y-93620591D01*
X56806014Y-93465889D01*
X56792634Y-93424710D01*
X56792632Y-93424707D01*
X56792632Y-93424705D01*
X56741494Y-93324343D01*
X56699129Y-93241197D01*
X56663295Y-93191875D01*
X56578073Y-93074576D01*
X56578069Y-93074571D01*
X56432428Y-92928930D01*
X56432423Y-92928926D01*
X56265806Y-92807873D01*
X56265805Y-92807872D01*
X56265803Y-92807871D01*
X56208496Y-92778671D01*
X56082294Y-92714367D01*
X55901004Y-92655462D01*
X55843329Y-92616024D01*
X55816131Y-92551665D01*
X55828046Y-92482819D01*
X55875290Y-92431343D01*
X55901005Y-92419600D01*
X56079029Y-92361755D01*
X56261349Y-92268859D01*
X56305921Y-92236474D01*
X55709409Y-91639962D01*
X55772993Y-91622925D01*
X55887007Y-91557099D01*
X55980099Y-91464007D01*
X56045925Y-91349993D01*
X56062962Y-91286410D01*
X56659474Y-91882922D01*
X56659474Y-91882921D01*
X56691859Y-91838349D01*
X56784755Y-91656031D01*
X56847990Y-91461417D01*
X56880000Y-91259317D01*
X56880000Y-91054682D01*
X56847990Y-90852582D01*
X56784755Y-90657968D01*
X56691859Y-90475650D01*
X56659474Y-90431077D01*
X56659474Y-90431076D01*
X56062962Y-91027589D01*
X56045925Y-90964007D01*
X55980099Y-90849993D01*
X55887007Y-90756901D01*
X55772993Y-90691075D01*
X55709408Y-90674037D01*
X56305922Y-90077524D01*
X56305921Y-90077523D01*
X56261359Y-90045147D01*
X56261350Y-90045141D01*
X56079031Y-89952244D01*
X55887252Y-89889931D01*
X55829577Y-89850493D01*
X55802379Y-89786134D01*
X55814294Y-89717288D01*
X55861538Y-89665812D01*
X55887252Y-89654069D01*
X56079031Y-89591755D01*
X56261349Y-89498859D01*
X56305921Y-89466474D01*
X55709409Y-88869962D01*
X55772993Y-88852925D01*
X55887007Y-88787099D01*
X55980099Y-88694007D01*
X56045925Y-88579993D01*
X56062962Y-88516410D01*
X56659474Y-89112922D01*
X56659474Y-89112921D01*
X56691859Y-89068349D01*
X56784755Y-88886031D01*
X56847990Y-88691417D01*
X56880000Y-88489317D01*
X56880000Y-88284682D01*
X56847990Y-88082582D01*
X56784755Y-87887968D01*
X56691859Y-87705650D01*
X56659474Y-87661077D01*
X56659474Y-87661076D01*
X56062962Y-88257589D01*
X56045925Y-88194007D01*
X55980099Y-88079993D01*
X55887007Y-87986901D01*
X55772993Y-87921075D01*
X55709408Y-87904037D01*
X56305922Y-87307524D01*
X56305921Y-87307523D01*
X56261359Y-87275147D01*
X56261350Y-87275141D01*
X56079031Y-87182244D01*
X55887252Y-87119931D01*
X55829577Y-87080493D01*
X55802379Y-87016134D01*
X55814294Y-86947288D01*
X55861538Y-86895812D01*
X55887252Y-86884069D01*
X56079031Y-86821755D01*
X56152480Y-86784331D01*
X56261349Y-86728859D01*
X56305921Y-86696474D01*
X55709409Y-86099962D01*
X55772993Y-86082925D01*
X55887007Y-86017099D01*
X55980099Y-85924007D01*
X56045925Y-85809993D01*
X56062962Y-85746410D01*
X56659474Y-86342922D01*
X56659474Y-86342921D01*
X56691859Y-86298349D01*
X56784755Y-86116031D01*
X56847990Y-85921417D01*
X56880000Y-85719317D01*
X56880000Y-85514682D01*
X56847990Y-85312582D01*
X56784755Y-85117968D01*
X56691859Y-84935650D01*
X56659474Y-84891077D01*
X56659474Y-84891076D01*
X56062962Y-85487589D01*
X56045925Y-85424007D01*
X55980099Y-85309993D01*
X55887007Y-85216901D01*
X55772993Y-85151075D01*
X55709408Y-85134037D01*
X56305922Y-84537524D01*
X56305921Y-84537523D01*
X56261359Y-84505147D01*
X56261350Y-84505141D01*
X56079031Y-84412244D01*
X55887252Y-84349931D01*
X55829577Y-84310493D01*
X55802379Y-84246134D01*
X55814294Y-84177288D01*
X55861538Y-84125812D01*
X55887252Y-84114069D01*
X56079031Y-84051755D01*
X56261349Y-83958859D01*
X56305921Y-83926474D01*
X55709409Y-83329962D01*
X55772993Y-83312925D01*
X55887007Y-83247099D01*
X55980099Y-83154007D01*
X56045925Y-83039993D01*
X56062962Y-82976410D01*
X56659474Y-83572922D01*
X56659474Y-83572921D01*
X56691859Y-83528349D01*
X56784755Y-83346031D01*
X56847990Y-83151417D01*
X56880000Y-82949317D01*
X56880000Y-82744682D01*
X56847990Y-82542582D01*
X56784755Y-82347968D01*
X56691859Y-82165650D01*
X56659474Y-82121077D01*
X56659474Y-82121076D01*
X56062962Y-82717589D01*
X56045925Y-82654007D01*
X55980099Y-82539993D01*
X55887007Y-82446901D01*
X55772993Y-82381075D01*
X55709408Y-82364037D01*
X56305922Y-81767524D01*
X56305921Y-81767523D01*
X56261359Y-81735147D01*
X56261350Y-81735141D01*
X56079031Y-81642244D01*
X55887252Y-81579931D01*
X55829577Y-81540493D01*
X55802379Y-81476134D01*
X55814294Y-81407288D01*
X55861538Y-81355812D01*
X55887252Y-81344069D01*
X56079031Y-81281755D01*
X56261349Y-81188859D01*
X56305921Y-81156474D01*
X55709409Y-80559962D01*
X55772993Y-80542925D01*
X55887007Y-80477099D01*
X55980099Y-80384007D01*
X56045925Y-80269993D01*
X56062962Y-80206410D01*
X56659474Y-80802922D01*
X56659474Y-80802921D01*
X56691859Y-80758349D01*
X56784755Y-80576031D01*
X56847990Y-80381417D01*
X56880000Y-80179317D01*
X56880000Y-79974682D01*
X56847990Y-79772582D01*
X56784755Y-79577968D01*
X56691859Y-79395650D01*
X56659474Y-79351077D01*
X56659474Y-79351076D01*
X56062962Y-79947589D01*
X56045925Y-79884007D01*
X55980099Y-79769993D01*
X55887007Y-79676901D01*
X55772993Y-79611075D01*
X55709408Y-79594037D01*
X56305922Y-78997524D01*
X56305921Y-78997523D01*
X56261359Y-78965147D01*
X56261350Y-78965141D01*
X56079031Y-78872244D01*
X55887252Y-78809931D01*
X55829577Y-78770493D01*
X55802379Y-78706134D01*
X55814294Y-78637288D01*
X55861538Y-78585812D01*
X55887252Y-78574069D01*
X56079031Y-78511755D01*
X56261349Y-78418859D01*
X56305921Y-78386474D01*
X55709409Y-77789962D01*
X55772993Y-77772925D01*
X55887007Y-77707099D01*
X55980099Y-77614007D01*
X56045925Y-77499993D01*
X56062962Y-77436410D01*
X56659474Y-78032922D01*
X56659474Y-78032921D01*
X56691859Y-77988349D01*
X56784755Y-77806031D01*
X56847990Y-77611417D01*
X56880000Y-77409317D01*
X56880000Y-77204682D01*
X56847990Y-77002582D01*
X56784755Y-76807968D01*
X56691859Y-76625650D01*
X56659474Y-76581077D01*
X56659474Y-76581076D01*
X56062962Y-77177589D01*
X56045925Y-77114007D01*
X55980099Y-76999993D01*
X55887007Y-76906901D01*
X55772993Y-76841075D01*
X55709408Y-76824037D01*
X56305922Y-76227524D01*
X56305921Y-76227523D01*
X56261359Y-76195147D01*
X56261350Y-76195141D01*
X56079031Y-76102244D01*
X55887252Y-76039931D01*
X55829577Y-76000493D01*
X55802379Y-75936134D01*
X55814294Y-75867288D01*
X55861538Y-75815812D01*
X55887252Y-75804069D01*
X56079031Y-75741755D01*
X56261349Y-75648859D01*
X56305921Y-75616474D01*
X55709409Y-75019962D01*
X55772993Y-75002925D01*
X55887007Y-74937099D01*
X55980099Y-74844007D01*
X56045925Y-74729993D01*
X56062962Y-74666410D01*
X56659474Y-75262922D01*
X56659474Y-75262921D01*
X56691859Y-75218349D01*
X56784755Y-75036031D01*
X56847990Y-74841417D01*
X56880000Y-74639317D01*
X56880000Y-74434682D01*
X56847990Y-74232582D01*
X56784755Y-74037968D01*
X56691859Y-73855650D01*
X56659474Y-73811077D01*
X56659474Y-73811076D01*
X56062962Y-74407589D01*
X56045925Y-74344007D01*
X55980099Y-74229993D01*
X55887007Y-74136901D01*
X55772993Y-74071075D01*
X55709408Y-74054037D01*
X56305922Y-73457524D01*
X56305921Y-73457523D01*
X56261359Y-73425147D01*
X56261350Y-73425141D01*
X56079031Y-73332244D01*
X55887252Y-73269931D01*
X55829577Y-73230493D01*
X55802379Y-73166134D01*
X55814294Y-73097288D01*
X55861538Y-73045812D01*
X55887252Y-73034069D01*
X56079031Y-72971755D01*
X56261349Y-72878859D01*
X56305921Y-72846474D01*
X55709409Y-72249962D01*
X55772993Y-72232925D01*
X55887007Y-72167099D01*
X55980099Y-72074007D01*
X56045925Y-71959993D01*
X56062962Y-71896410D01*
X56659474Y-72492922D01*
X56659474Y-72492921D01*
X56691859Y-72448349D01*
X56784755Y-72266031D01*
X56847990Y-72071417D01*
X56880000Y-71869317D01*
X56880000Y-71664682D01*
X56847990Y-71462582D01*
X56784755Y-71267968D01*
X56691859Y-71085650D01*
X56659474Y-71041077D01*
X56659474Y-71041076D01*
X56062962Y-71637589D01*
X56045925Y-71574007D01*
X55980099Y-71459993D01*
X55887007Y-71366901D01*
X55772993Y-71301075D01*
X55709408Y-71284037D01*
X56305922Y-70687524D01*
X56305921Y-70687523D01*
X56261359Y-70655147D01*
X56261350Y-70655141D01*
X56079031Y-70562244D01*
X55901004Y-70504399D01*
X55843329Y-70464961D01*
X55816131Y-70400602D01*
X55828046Y-70331756D01*
X55875290Y-70280280D01*
X55901005Y-70268537D01*
X56082290Y-70209634D01*
X56265803Y-70116129D01*
X56432430Y-69995068D01*
X56578068Y-69849430D01*
X56699129Y-69682803D01*
X56792634Y-69499290D01*
X56856280Y-69303408D01*
X56888500Y-69099981D01*
X56888500Y-68894019D01*
X56877510Y-68824632D01*
X56856280Y-68690591D01*
X56800364Y-68518500D01*
X56792634Y-68494710D01*
X56792632Y-68494707D01*
X56792632Y-68494705D01*
X56758709Y-68428128D01*
X56699129Y-68311197D01*
X56641436Y-68231789D01*
X56578073Y-68144576D01*
X56578069Y-68144571D01*
X56432428Y-67998930D01*
X56432423Y-67998926D01*
X56265806Y-67877873D01*
X56265805Y-67877872D01*
X56265803Y-67877871D01*
X56208496Y-67848671D01*
X56082294Y-67784367D01*
X55914757Y-67729931D01*
X55857082Y-67690493D01*
X55829884Y-67626134D01*
X55841799Y-67557288D01*
X55889043Y-67505812D01*
X55914757Y-67494069D01*
X55945923Y-67483942D01*
X56082290Y-67439634D01*
X56265803Y-67346129D01*
X56432430Y-67225068D01*
X56578068Y-67079430D01*
X56699129Y-66912803D01*
X56792634Y-66729290D01*
X56856280Y-66533408D01*
X56888500Y-66329981D01*
X56888500Y-66124019D01*
X56877510Y-66054632D01*
X56856280Y-65920591D01*
X56792632Y-65724705D01*
X56758709Y-65658128D01*
X56699129Y-65541197D01*
X56683661Y-65519908D01*
X56578073Y-65374576D01*
X56578069Y-65374571D01*
X56432428Y-65228930D01*
X56432423Y-65228926D01*
X56265806Y-65107873D01*
X56265805Y-65107872D01*
X56265803Y-65107871D01*
X56208496Y-65078671D01*
X56082294Y-65014367D01*
X55886408Y-64950719D01*
X55710794Y-64922905D01*
X55682981Y-64918500D01*
X55477019Y-64918500D01*
X55452550Y-64922375D01*
X55273591Y-64950719D01*
X55077705Y-65014367D01*
X54894193Y-65107873D01*
X54727576Y-65228926D01*
X54727571Y-65228930D01*
X54581930Y-65374571D01*
X54581926Y-65374576D01*
X54460873Y-65541193D01*
X54367367Y-65724705D01*
X54303719Y-65920591D01*
X54271500Y-66124019D01*
X48360500Y-66124019D01*
X48360500Y-64739019D01*
X57111500Y-64739019D01*
X57111500Y-64944980D01*
X57143719Y-65148408D01*
X57207367Y-65344294D01*
X57300873Y-65527806D01*
X57421926Y-65694423D01*
X57421930Y-65694428D01*
X57567571Y-65840069D01*
X57567576Y-65840073D01*
X57678401Y-65920591D01*
X57734197Y-65961129D01*
X57851128Y-66020709D01*
X57917705Y-66054632D01*
X57917707Y-66054632D01*
X57917710Y-66054634D01*
X57990804Y-66078383D01*
X58085242Y-66109069D01*
X58142917Y-66148507D01*
X58170115Y-66212866D01*
X58158200Y-66281712D01*
X58110956Y-66333188D01*
X58085242Y-66344931D01*
X57917705Y-66399367D01*
X57734193Y-66492873D01*
X57567576Y-66613926D01*
X57567571Y-66613930D01*
X57421930Y-66759571D01*
X57421926Y-66759576D01*
X57300873Y-66926193D01*
X57207367Y-67109705D01*
X57143719Y-67305591D01*
X57111500Y-67509019D01*
X57111500Y-67714980D01*
X57143719Y-67918408D01*
X57207367Y-68114294D01*
X57300873Y-68297806D01*
X57421926Y-68464423D01*
X57421930Y-68464428D01*
X57567571Y-68610069D01*
X57567576Y-68610073D01*
X57678401Y-68690591D01*
X57734197Y-68731129D01*
X57851128Y-68790709D01*
X57917705Y-68824632D01*
X57917707Y-68824632D01*
X57917710Y-68824634D01*
X57990804Y-68848383D01*
X58085242Y-68879069D01*
X58142917Y-68918507D01*
X58170115Y-68982866D01*
X58158200Y-69051712D01*
X58110956Y-69103188D01*
X58085242Y-69114931D01*
X57917705Y-69169367D01*
X57734193Y-69262873D01*
X57567576Y-69383926D01*
X57567571Y-69383930D01*
X57421930Y-69529571D01*
X57421926Y-69529576D01*
X57300873Y-69696193D01*
X57207367Y-69879705D01*
X57143719Y-70075591D01*
X57113160Y-70268537D01*
X57111500Y-70279019D01*
X57111500Y-70484981D01*
X57114576Y-70504399D01*
X57143719Y-70688408D01*
X57207367Y-70884294D01*
X57265145Y-70997687D01*
X57287253Y-71041077D01*
X57300873Y-71067806D01*
X57421926Y-71234423D01*
X57421930Y-71234428D01*
X57567571Y-71380069D01*
X57567576Y-71380073D01*
X57675337Y-71458365D01*
X57734197Y-71501129D01*
X57826767Y-71548296D01*
X57917705Y-71594632D01*
X57917707Y-71594632D01*
X57917710Y-71594634D01*
X57963500Y-71609512D01*
X58085242Y-71649069D01*
X58142917Y-71688507D01*
X58170115Y-71752866D01*
X58158200Y-71821712D01*
X58110956Y-71873188D01*
X58085242Y-71884931D01*
X57917705Y-71939367D01*
X57734193Y-72032873D01*
X57567576Y-72153926D01*
X57567571Y-72153930D01*
X57421930Y-72299571D01*
X57421926Y-72299576D01*
X57300873Y-72466193D01*
X57207367Y-72649705D01*
X57143719Y-72845591D01*
X57111500Y-73049019D01*
X57111500Y-73254980D01*
X57143719Y-73458408D01*
X57207367Y-73654294D01*
X57271671Y-73780496D01*
X57287253Y-73811077D01*
X57300873Y-73837806D01*
X57421926Y-74004423D01*
X57421930Y-74004428D01*
X57567571Y-74150069D01*
X57567576Y-74150073D01*
X57613511Y-74183446D01*
X57734197Y-74271129D01*
X57851128Y-74330709D01*
X57917705Y-74364632D01*
X57917707Y-74364632D01*
X57917710Y-74364634D01*
X57990804Y-74388383D01*
X58085242Y-74419069D01*
X58142917Y-74458507D01*
X58170115Y-74522866D01*
X58158200Y-74591712D01*
X58110956Y-74643188D01*
X58085242Y-74654931D01*
X57917705Y-74709367D01*
X57734193Y-74802873D01*
X57567576Y-74923926D01*
X57567571Y-74923930D01*
X57421930Y-75069571D01*
X57421926Y-75069576D01*
X57300873Y-75236193D01*
X57207367Y-75419705D01*
X57143719Y-75615591D01*
X57111500Y-75819019D01*
X57111500Y-76024980D01*
X57143719Y-76228408D01*
X57207367Y-76424294D01*
X57271671Y-76550496D01*
X57287253Y-76581077D01*
X57300873Y-76607806D01*
X57421926Y-76774423D01*
X57421930Y-76774428D01*
X57567571Y-76920069D01*
X57567576Y-76920073D01*
X57613511Y-76953446D01*
X57734197Y-77041129D01*
X57851128Y-77100709D01*
X57917705Y-77134632D01*
X57917707Y-77134632D01*
X57917710Y-77134634D01*
X57990804Y-77158383D01*
X58085242Y-77189069D01*
X58142917Y-77228507D01*
X58170115Y-77292866D01*
X58158200Y-77361712D01*
X58110956Y-77413188D01*
X58085242Y-77424931D01*
X57917705Y-77479367D01*
X57734193Y-77572873D01*
X57567576Y-77693926D01*
X57567571Y-77693930D01*
X57421930Y-77839571D01*
X57421926Y-77839576D01*
X57300873Y-78006193D01*
X57207367Y-78189705D01*
X57143719Y-78385591D01*
X57111500Y-78589019D01*
X57111500Y-78794980D01*
X57143719Y-78998408D01*
X57207367Y-79194294D01*
X57271671Y-79320496D01*
X57287253Y-79351077D01*
X57300873Y-79377806D01*
X57421926Y-79544423D01*
X57421930Y-79544428D01*
X57567571Y-79690069D01*
X57567576Y-79690073D01*
X57613511Y-79723446D01*
X57734197Y-79811129D01*
X57851128Y-79870709D01*
X57917705Y-79904632D01*
X57917707Y-79904632D01*
X57917710Y-79904634D01*
X57990804Y-79928383D01*
X58085242Y-79959069D01*
X58142917Y-79998507D01*
X58170115Y-80062866D01*
X58158200Y-80131712D01*
X58110956Y-80183188D01*
X58085242Y-80194931D01*
X57917705Y-80249367D01*
X57734193Y-80342873D01*
X57567576Y-80463926D01*
X57567571Y-80463930D01*
X57421930Y-80609571D01*
X57421926Y-80609576D01*
X57300873Y-80776193D01*
X57207367Y-80959705D01*
X57143719Y-81155591D01*
X57111500Y-81359019D01*
X57111500Y-81564980D01*
X57143719Y-81768408D01*
X57207367Y-81964294D01*
X57271671Y-82090496D01*
X57287253Y-82121077D01*
X57300873Y-82147806D01*
X57421926Y-82314423D01*
X57421930Y-82314428D01*
X57567571Y-82460069D01*
X57567576Y-82460073D01*
X57613511Y-82493446D01*
X57734197Y-82581129D01*
X57851128Y-82640709D01*
X57917705Y-82674632D01*
X57917707Y-82674632D01*
X57917710Y-82674634D01*
X57990804Y-82698383D01*
X58085242Y-82729069D01*
X58142917Y-82768507D01*
X58170115Y-82832866D01*
X58158200Y-82901712D01*
X58110956Y-82953188D01*
X58085242Y-82964931D01*
X57917705Y-83019367D01*
X57734193Y-83112873D01*
X57567576Y-83233926D01*
X57567571Y-83233930D01*
X57421930Y-83379571D01*
X57421926Y-83379576D01*
X57300873Y-83546193D01*
X57207367Y-83729705D01*
X57143719Y-83925591D01*
X57111500Y-84129019D01*
X57111500Y-84334980D01*
X57143719Y-84538408D01*
X57207367Y-84734294D01*
X57271671Y-84860496D01*
X57287253Y-84891077D01*
X57300873Y-84917806D01*
X57421926Y-85084423D01*
X57421930Y-85084428D01*
X57567571Y-85230069D01*
X57567576Y-85230073D01*
X57613511Y-85263446D01*
X57734197Y-85351129D01*
X57917710Y-85444634D01*
X58071448Y-85494586D01*
X58098994Y-85503537D01*
X58156670Y-85542975D01*
X58183868Y-85607333D01*
X58171953Y-85676180D01*
X58124709Y-85727655D01*
X58098995Y-85739399D01*
X57920968Y-85797244D01*
X57738644Y-85890143D01*
X57694077Y-85922523D01*
X57694077Y-85922524D01*
X58290591Y-86519037D01*
X58227007Y-86536075D01*
X58112993Y-86601901D01*
X58019901Y-86694993D01*
X57954075Y-86809007D01*
X57937037Y-86872590D01*
X57340524Y-86276077D01*
X57340523Y-86276077D01*
X57308143Y-86320644D01*
X57215244Y-86502968D01*
X57152009Y-86697582D01*
X57120000Y-86899682D01*
X57120000Y-87104317D01*
X57152009Y-87306417D01*
X57215244Y-87501031D01*
X57308141Y-87683350D01*
X57308147Y-87683359D01*
X57340523Y-87727921D01*
X57340524Y-87727922D01*
X57937037Y-87131409D01*
X57954075Y-87194993D01*
X58019901Y-87309007D01*
X58112993Y-87402099D01*
X58227007Y-87467925D01*
X58290590Y-87484962D01*
X57694076Y-88081474D01*
X57738650Y-88113859D01*
X57920968Y-88206754D01*
X58098995Y-88264600D01*
X58156670Y-88304038D01*
X58183868Y-88368397D01*
X58171953Y-88437243D01*
X58124709Y-88488719D01*
X58098995Y-88500462D01*
X57917705Y-88559367D01*
X57734193Y-88652873D01*
X57567576Y-88773926D01*
X57567571Y-88773930D01*
X57421930Y-88919571D01*
X57421926Y-88919576D01*
X57300873Y-89086193D01*
X57207367Y-89269705D01*
X57143719Y-89465591D01*
X57111500Y-89669019D01*
X57111500Y-89874980D01*
X57143719Y-90078408D01*
X57207367Y-90274294D01*
X57271671Y-90400496D01*
X57287253Y-90431077D01*
X57300873Y-90457806D01*
X57421926Y-90624423D01*
X57421930Y-90624428D01*
X57567571Y-90770069D01*
X57567576Y-90770073D01*
X57665888Y-90841500D01*
X57734197Y-90891129D01*
X57826767Y-90938296D01*
X57917705Y-90984632D01*
X57917707Y-90984632D01*
X57917710Y-90984634D01*
X57963500Y-90999512D01*
X58085242Y-91039069D01*
X58142917Y-91078507D01*
X58170115Y-91142866D01*
X58158200Y-91211712D01*
X58110956Y-91263188D01*
X58085242Y-91274931D01*
X57917705Y-91329367D01*
X57734193Y-91422873D01*
X57567576Y-91543926D01*
X57567571Y-91543930D01*
X57421930Y-91689571D01*
X57421926Y-91689576D01*
X57300873Y-91856193D01*
X57207367Y-92039705D01*
X57143719Y-92235591D01*
X57111500Y-92439019D01*
X57111500Y-92644980D01*
X57143719Y-92848408D01*
X57207367Y-93044294D01*
X57267393Y-93162100D01*
X57298639Y-93223423D01*
X57300873Y-93227806D01*
X57421926Y-93394423D01*
X57421930Y-93394428D01*
X57567571Y-93540069D01*
X57567576Y-93540073D01*
X57651282Y-93600888D01*
X57734197Y-93661129D01*
X57851128Y-93720709D01*
X57917705Y-93754632D01*
X57917707Y-93754632D01*
X57917710Y-93754634D01*
X57990804Y-93778383D01*
X58085242Y-93809069D01*
X58142917Y-93848507D01*
X58170115Y-93912866D01*
X58158200Y-93981712D01*
X58110956Y-94033188D01*
X58085242Y-94044931D01*
X57917705Y-94099367D01*
X57734193Y-94192873D01*
X57567576Y-94313926D01*
X57567571Y-94313930D01*
X57421930Y-94459571D01*
X57421926Y-94459576D01*
X57300873Y-94626193D01*
X57207367Y-94809705D01*
X57143719Y-95005591D01*
X57111500Y-95209019D01*
X57111500Y-95414980D01*
X57143719Y-95618408D01*
X57207367Y-95814294D01*
X57300873Y-95997806D01*
X57421926Y-96164423D01*
X57421930Y-96164428D01*
X57567571Y-96310069D01*
X57567576Y-96310073D01*
X57613811Y-96343664D01*
X57734197Y-96431129D01*
X57917710Y-96524634D01*
X57939056Y-96531569D01*
X57996730Y-96571007D01*
X58023928Y-96635366D01*
X58012013Y-96704212D01*
X57964768Y-96755688D01*
X57900736Y-96773500D01*
X57571345Y-96773500D01*
X57510797Y-96780011D01*
X57510795Y-96780011D01*
X57373795Y-96831111D01*
X57256739Y-96918739D01*
X57169111Y-97035795D01*
X57118011Y-97172795D01*
X57118011Y-97172797D01*
X57111500Y-97233345D01*
X57111500Y-98930654D01*
X57118011Y-98991202D01*
X57118011Y-98991204D01*
X57165069Y-99117366D01*
X57169111Y-99128204D01*
X57256739Y-99245261D01*
X57373796Y-99332889D01*
X57510799Y-99383989D01*
X57538050Y-99386918D01*
X57571345Y-99390499D01*
X57571362Y-99390500D01*
X59268638Y-99390500D01*
X59268654Y-99390499D01*
X59295692Y-99387591D01*
X59329201Y-99383989D01*
X59466204Y-99332889D01*
X59583261Y-99245261D01*
X59670889Y-99128204D01*
X59721989Y-98991201D01*
X59725591Y-98957692D01*
X59728499Y-98930654D01*
X59728500Y-98930637D01*
X59728500Y-97233362D01*
X59728499Y-97233345D01*
X59724837Y-97199290D01*
X59721989Y-97172799D01*
X59670889Y-97035796D01*
X59583261Y-96918739D01*
X59466204Y-96831111D01*
X59329203Y-96780011D01*
X59268654Y-96773500D01*
X59268638Y-96773500D01*
X58939264Y-96773500D01*
X58872225Y-96753815D01*
X58826470Y-96701011D01*
X58816526Y-96631853D01*
X58845551Y-96568297D01*
X58900943Y-96531569D01*
X58922290Y-96524634D01*
X59105803Y-96431129D01*
X59272430Y-96310068D01*
X59418068Y-96164430D01*
X59539129Y-95997803D01*
X59632634Y-95814290D01*
X59696280Y-95618408D01*
X59728500Y-95414981D01*
X59728500Y-95209019D01*
X59705236Y-95062135D01*
X59696280Y-95005591D01*
X59632632Y-94809705D01*
X59598709Y-94743128D01*
X59539129Y-94626197D01*
X59475442Y-94538539D01*
X59418073Y-94459576D01*
X59418069Y-94459571D01*
X59272428Y-94313930D01*
X59272423Y-94313926D01*
X59105806Y-94192873D01*
X59105805Y-94192872D01*
X59105803Y-94192871D01*
X59048496Y-94163671D01*
X58922294Y-94099367D01*
X58754757Y-94044931D01*
X58697082Y-94005493D01*
X58669884Y-93941134D01*
X58681799Y-93872288D01*
X58729043Y-93820812D01*
X58754757Y-93809069D01*
X58785923Y-93798942D01*
X58922290Y-93754634D01*
X59105803Y-93661129D01*
X59272430Y-93540068D01*
X59325679Y-93486819D01*
X59387002Y-93453334D01*
X59413360Y-93450500D01*
X68124350Y-93450500D01*
X68191389Y-93470185D01*
X68212031Y-93486819D01*
X68268142Y-93542930D01*
X68428402Y-93659366D01*
X68511790Y-93701854D01*
X68604898Y-93749296D01*
X68604900Y-93749296D01*
X68604903Y-93749298D01*
X68705888Y-93782110D01*
X68793299Y-93810512D01*
X68988949Y-93841500D01*
X68988954Y-93841500D01*
X69187051Y-93841500D01*
X69382700Y-93810512D01*
X69387141Y-93809069D01*
X69571097Y-93749298D01*
X69747598Y-93659366D01*
X69907858Y-93542930D01*
X70047930Y-93402858D01*
X70164366Y-93242598D01*
X70254298Y-93066097D01*
X70315512Y-92877700D01*
X70320151Y-92848408D01*
X70346500Y-92682051D01*
X70346500Y-92483948D01*
X70315512Y-92288299D01*
X70254296Y-92099898D01*
X70164365Y-91923401D01*
X70134955Y-91882922D01*
X70047930Y-91763142D01*
X69907858Y-91623070D01*
X69747598Y-91506634D01*
X69571101Y-91416703D01*
X69382700Y-91355487D01*
X69187051Y-91324500D01*
X69187046Y-91324500D01*
X68988954Y-91324500D01*
X68988949Y-91324500D01*
X68793299Y-91355487D01*
X68604898Y-91416703D01*
X68428401Y-91506634D01*
X68377066Y-91543932D01*
X68286380Y-91609818D01*
X68220577Y-91633298D01*
X68213497Y-91633500D01*
X59413360Y-91633500D01*
X59346321Y-91613815D01*
X59325679Y-91597181D01*
X59272428Y-91543930D01*
X59272423Y-91543926D01*
X59105806Y-91422873D01*
X59105805Y-91422872D01*
X59105803Y-91422871D01*
X59015353Y-91376784D01*
X58922294Y-91329367D01*
X58754757Y-91274931D01*
X58697082Y-91235493D01*
X58669884Y-91171134D01*
X58681799Y-91102288D01*
X58729043Y-91050812D01*
X58754757Y-91039069D01*
X58845246Y-91009667D01*
X58922290Y-90984634D01*
X59105803Y-90891129D01*
X59272430Y-90770068D01*
X59325679Y-90716819D01*
X59387002Y-90683334D01*
X59413360Y-90680500D01*
X63593350Y-90680500D01*
X63660389Y-90700185D01*
X63681031Y-90716819D01*
X63696142Y-90731930D01*
X63856402Y-90848366D01*
X63880933Y-90860865D01*
X64032898Y-90938296D01*
X64032900Y-90938296D01*
X64032903Y-90938298D01*
X64112027Y-90964007D01*
X64221299Y-90999512D01*
X64416949Y-91030500D01*
X64416954Y-91030500D01*
X64615051Y-91030500D01*
X64810700Y-90999512D01*
X64850011Y-90986739D01*
X64999097Y-90938298D01*
X65175598Y-90848366D01*
X65335858Y-90731930D01*
X65350969Y-90716819D01*
X65412292Y-90683334D01*
X65438650Y-90680500D01*
X71564325Y-90680500D01*
X71631364Y-90700185D01*
X71652006Y-90716819D01*
X72715181Y-91779994D01*
X72748666Y-91841317D01*
X72751500Y-91867675D01*
X72751500Y-97666640D01*
X72731815Y-97733679D01*
X72715181Y-97754321D01*
X72661930Y-97807571D01*
X72661926Y-97807576D01*
X72540871Y-97974195D01*
X72500484Y-98053459D01*
X72452510Y-98104254D01*
X72384689Y-98121049D01*
X72318554Y-98098511D01*
X72279516Y-98053459D01*
X72239128Y-97974195D01*
X72118073Y-97807576D01*
X72118069Y-97807571D01*
X71972428Y-97661930D01*
X71972423Y-97661926D01*
X71805806Y-97540873D01*
X71805805Y-97540872D01*
X71805803Y-97540871D01*
X71748496Y-97511671D01*
X71622294Y-97447367D01*
X71426408Y-97383719D01*
X71250794Y-97355905D01*
X71222981Y-97351500D01*
X71017019Y-97351500D01*
X70992550Y-97355375D01*
X70813591Y-97383719D01*
X70617705Y-97447367D01*
X70434193Y-97540873D01*
X70267576Y-97661926D01*
X70267571Y-97661930D01*
X70121930Y-97807571D01*
X70121926Y-97807576D01*
X70000873Y-97974193D01*
X69907367Y-98157705D01*
X69843719Y-98353591D01*
X69811500Y-98557019D01*
X69811500Y-99562980D01*
X69843719Y-99766408D01*
X69907367Y-99962294D01*
X70000873Y-100145806D01*
X70121926Y-100312423D01*
X70121930Y-100312428D01*
X70267571Y-100458069D01*
X70267576Y-100458073D01*
X70412908Y-100563661D01*
X70434197Y-100579129D01*
X70546613Y-100636408D01*
X70617705Y-100672632D01*
X70617707Y-100672632D01*
X70617710Y-100672634D01*
X70722707Y-100706749D01*
X70813591Y-100736280D01*
X70915305Y-100752390D01*
X71017019Y-100768500D01*
X71017020Y-100768500D01*
X71222980Y-100768500D01*
X71222981Y-100768500D01*
X71426408Y-100736280D01*
X71622290Y-100672634D01*
X71805803Y-100579129D01*
X71972430Y-100458068D01*
X72118068Y-100312430D01*
X72239129Y-100145803D01*
X72279515Y-100066540D01*
X72327490Y-100015745D01*
X72395311Y-99998950D01*
X72461446Y-100021487D01*
X72500485Y-100066541D01*
X72540873Y-100145806D01*
X72661926Y-100312423D01*
X72661930Y-100312428D01*
X72807571Y-100458069D01*
X72807576Y-100458073D01*
X72952908Y-100563661D01*
X72974197Y-100579129D01*
X73086613Y-100636408D01*
X73157705Y-100672632D01*
X73157707Y-100672632D01*
X73157710Y-100672634D01*
X73262707Y-100706749D01*
X73353591Y-100736280D01*
X73455305Y-100752390D01*
X73557019Y-100768500D01*
X73557020Y-100768500D01*
X73762980Y-100768500D01*
X73762981Y-100768500D01*
X73966408Y-100736280D01*
X74162290Y-100672634D01*
X74345803Y-100579129D01*
X74512430Y-100458068D01*
X74658068Y-100312430D01*
X74779129Y-100145803D01*
X74819515Y-100066540D01*
X74867490Y-100015745D01*
X74935311Y-99998950D01*
X75001446Y-100021487D01*
X75040485Y-100066541D01*
X75080873Y-100145806D01*
X75201926Y-100312423D01*
X75201930Y-100312428D01*
X75255181Y-100365679D01*
X75288666Y-100427002D01*
X75291500Y-100453360D01*
X75291500Y-101426324D01*
X75271815Y-101493363D01*
X75255181Y-101514005D01*
X72954324Y-103814861D01*
X72954321Y-103814865D01*
X72854900Y-103963657D01*
X72854893Y-103963670D01*
X72786413Y-104128998D01*
X72786410Y-104129007D01*
X72751500Y-104304516D01*
X72751500Y-105286640D01*
X72744348Y-105310993D01*
X72741174Y-105336181D01*
X72733757Y-105347063D01*
X72731815Y-105353679D01*
X72722612Y-105366200D01*
X72719082Y-105370419D01*
X72661932Y-105427570D01*
X72600184Y-105512558D01*
X72597463Y-105515812D01*
X72571781Y-105532955D01*
X72547339Y-105551803D01*
X72542985Y-105552176D01*
X72539351Y-105554603D01*
X72508483Y-105555140D01*
X72477726Y-105557782D01*
X72473861Y-105555742D01*
X72469492Y-105555819D01*
X72443230Y-105539580D01*
X72415931Y-105525176D01*
X72413397Y-105521133D01*
X72410065Y-105519073D01*
X72403510Y-105505358D01*
X72384645Y-105475255D01*
X72368846Y-105427576D01*
X72362115Y-105407262D01*
X72269030Y-105256348D01*
X72143652Y-105130970D01*
X71992738Y-105037885D01*
X71914618Y-105011999D01*
X71824427Y-104982113D01*
X71720545Y-104971500D01*
X70519462Y-104971500D01*
X70519446Y-104971501D01*
X70415572Y-104982113D01*
X70247264Y-105037884D01*
X70247259Y-105037886D01*
X70096346Y-105130971D01*
X69970971Y-105256346D01*
X69877886Y-105407259D01*
X69877884Y-105407264D01*
X69822113Y-105575572D01*
X69811500Y-105679447D01*
X69811500Y-107680537D01*
X69811501Y-107680553D01*
X69820211Y-107765806D01*
X69822113Y-107784426D01*
X69877885Y-107952738D01*
X69970970Y-108103652D01*
X70096348Y-108229030D01*
X70247262Y-108322115D01*
X70415574Y-108377887D01*
X70519455Y-108388500D01*
X71720544Y-108388499D01*
X71824426Y-108377887D01*
X71992738Y-108322115D01*
X72143652Y-108229030D01*
X72269030Y-108103652D01*
X72362115Y-107952738D01*
X72384646Y-107884742D01*
X72424417Y-107827299D01*
X72488932Y-107800475D01*
X72557708Y-107812789D01*
X72602669Y-107850862D01*
X72661926Y-107932424D01*
X72807571Y-108078069D01*
X72807576Y-108078073D01*
X72952908Y-108183661D01*
X72974197Y-108199129D01*
X73091128Y-108258709D01*
X73157705Y-108292632D01*
X73157707Y-108292632D01*
X73157710Y-108292634D01*
X73248437Y-108322113D01*
X73353591Y-108356280D01*
X73452881Y-108372006D01*
X73557019Y-108388500D01*
X73557020Y-108388500D01*
X73762980Y-108388500D01*
X73762981Y-108388500D01*
X73966408Y-108356280D01*
X74162290Y-108292634D01*
X74345803Y-108199129D01*
X74512430Y-108078068D01*
X74658068Y-107932430D01*
X74779129Y-107765803D01*
X74819515Y-107686540D01*
X74867490Y-107635745D01*
X74935311Y-107618950D01*
X75001446Y-107641487D01*
X75040485Y-107686541D01*
X75080873Y-107765806D01*
X75201926Y-107932423D01*
X75201930Y-107932428D01*
X75255181Y-107985679D01*
X75269884Y-108012606D01*
X75286477Y-108038425D01*
X75287368Y-108044625D01*
X75288666Y-108047002D01*
X75291500Y-108073360D01*
X75291500Y-108284325D01*
X75271815Y-108351364D01*
X75255181Y-108372006D01*
X74717006Y-108910181D01*
X74655683Y-108943666D01*
X74629325Y-108946500D01*
X66848675Y-108946500D01*
X66781636Y-108926815D01*
X66760994Y-108910181D01*
X63724572Y-105873759D01*
X63694322Y-105824396D01*
X63650299Y-105688905D01*
X63650298Y-105688902D01*
X63582142Y-105555140D01*
X63560366Y-105512402D01*
X63443930Y-105352142D01*
X63303858Y-105212070D01*
X63143598Y-105095634D01*
X62967101Y-105005703D01*
X62778700Y-104944487D01*
X62583051Y-104913500D01*
X62583046Y-104913500D01*
X62384954Y-104913500D01*
X62384949Y-104913500D01*
X62189299Y-104944487D01*
X62000898Y-105005703D01*
X61824401Y-105095634D01*
X61766196Y-105137923D01*
X61664142Y-105212070D01*
X61664140Y-105212072D01*
X61664139Y-105212072D01*
X61524072Y-105352139D01*
X61524072Y-105352140D01*
X61524070Y-105352142D01*
X61484020Y-105407266D01*
X61407634Y-105512401D01*
X61317703Y-105688898D01*
X61256487Y-105877299D01*
X61225500Y-106072948D01*
X61225500Y-106271051D01*
X61256487Y-106466700D01*
X61317703Y-106655101D01*
X61407634Y-106831598D01*
X61524070Y-106991858D01*
X61664142Y-107131930D01*
X61824402Y-107248366D01*
X61907790Y-107290854D01*
X62000898Y-107338296D01*
X62000900Y-107338296D01*
X62000903Y-107338298D01*
X62101888Y-107371110D01*
X62189299Y-107399512D01*
X62384949Y-107430500D01*
X62384954Y-107430500D01*
X62583043Y-107430500D01*
X62583046Y-107430500D01*
X62631696Y-107422794D01*
X62700986Y-107431748D01*
X62738773Y-107457586D01*
X65841861Y-110560675D01*
X65841865Y-110560678D01*
X65990664Y-110660103D01*
X66107574Y-110708528D01*
X66156000Y-110728587D01*
X66331516Y-110763499D01*
X66331520Y-110763500D01*
X66331521Y-110763500D01*
X75146480Y-110763500D01*
X75146481Y-110763499D01*
X75204986Y-110751862D01*
X75321992Y-110728589D01*
X75321995Y-110728587D01*
X75322000Y-110728587D01*
X75487336Y-110660103D01*
X75636135Y-110560678D01*
X76905678Y-109291135D01*
X77005103Y-109142336D01*
X77073587Y-108977000D01*
X77080218Y-108943666D01*
X77108499Y-108801483D01*
X77108500Y-108801480D01*
X77108500Y-108073360D01*
X77128185Y-108006321D01*
X77144819Y-107985679D01*
X77198068Y-107932430D01*
X77319129Y-107765803D01*
X77359515Y-107686540D01*
X77407490Y-107635745D01*
X77475311Y-107618950D01*
X77541446Y-107641487D01*
X77580485Y-107686541D01*
X77620873Y-107765806D01*
X77741926Y-107932423D01*
X77741930Y-107932428D01*
X77887571Y-108078069D01*
X77887576Y-108078073D01*
X78032908Y-108183661D01*
X78054197Y-108199129D01*
X78171128Y-108258709D01*
X78237705Y-108292632D01*
X78237707Y-108292632D01*
X78237710Y-108292634D01*
X78328437Y-108322113D01*
X78433591Y-108356280D01*
X78532881Y-108372006D01*
X78637019Y-108388500D01*
X78637020Y-108388500D01*
X78842980Y-108388500D01*
X78842981Y-108388500D01*
X79046408Y-108356280D01*
X79242290Y-108292634D01*
X79425803Y-108199129D01*
X79592430Y-108078068D01*
X79738068Y-107932430D01*
X79859129Y-107765803D01*
X79952634Y-107582290D01*
X80016280Y-107386408D01*
X80048500Y-107182981D01*
X80048500Y-106177019D01*
X80016280Y-105973592D01*
X80015183Y-105970217D01*
X79952632Y-105777705D01*
X79899515Y-105673459D01*
X79859129Y-105594197D01*
X79806045Y-105521133D01*
X79738073Y-105427576D01*
X79738069Y-105427571D01*
X79592428Y-105281930D01*
X79592423Y-105281926D01*
X79425806Y-105160873D01*
X79425805Y-105160872D01*
X79425803Y-105160871D01*
X79367119Y-105130970D01*
X79242294Y-105067367D01*
X79046408Y-105003719D01*
X78870794Y-104975905D01*
X78842981Y-104971500D01*
X78637019Y-104971500D01*
X78612550Y-104975375D01*
X78433591Y-105003719D01*
X78237705Y-105067367D01*
X78054193Y-105160873D01*
X77887576Y-105281926D01*
X77887571Y-105281930D01*
X77741930Y-105427571D01*
X77741926Y-105427576D01*
X77620871Y-105594195D01*
X77580484Y-105673459D01*
X77532510Y-105724254D01*
X77464689Y-105741049D01*
X77398554Y-105718511D01*
X77359516Y-105673459D01*
X77319128Y-105594195D01*
X77198073Y-105427576D01*
X77198069Y-105427571D01*
X77052428Y-105281930D01*
X77052423Y-105281926D01*
X76885806Y-105160873D01*
X76885805Y-105160872D01*
X76885803Y-105160871D01*
X76827119Y-105130970D01*
X76702294Y-105067367D01*
X76506408Y-105003719D01*
X76330794Y-104975905D01*
X76302981Y-104971500D01*
X76097019Y-104971500D01*
X76072550Y-104975375D01*
X75893591Y-105003719D01*
X75697705Y-105067367D01*
X75514193Y-105160873D01*
X75347576Y-105281926D01*
X75347571Y-105281930D01*
X75201930Y-105427571D01*
X75201926Y-105427576D01*
X75080871Y-105594195D01*
X75040484Y-105673459D01*
X74992510Y-105724254D01*
X74924689Y-105741049D01*
X74858554Y-105718511D01*
X74819516Y-105673459D01*
X74779128Y-105594195D01*
X74658073Y-105427576D01*
X74658069Y-105427571D01*
X74604819Y-105374321D01*
X74571334Y-105312998D01*
X74568500Y-105286640D01*
X74568500Y-104821675D01*
X74588185Y-104754636D01*
X74604819Y-104733994D01*
X76905674Y-102433139D01*
X76905677Y-102433136D01*
X77005102Y-102284336D01*
X77073587Y-102119000D01*
X77108500Y-101943479D01*
X77108500Y-100453360D01*
X77128185Y-100386321D01*
X77144819Y-100365679D01*
X77198068Y-100312430D01*
X77319129Y-100145803D01*
X77359515Y-100066540D01*
X77407490Y-100015745D01*
X77475311Y-99998950D01*
X77541446Y-100021487D01*
X77580485Y-100066541D01*
X77620873Y-100145806D01*
X77741926Y-100312423D01*
X77741930Y-100312428D01*
X77887571Y-100458069D01*
X77887576Y-100458073D01*
X78032908Y-100563661D01*
X78054197Y-100579129D01*
X78166613Y-100636408D01*
X78237705Y-100672632D01*
X78237707Y-100672632D01*
X78237710Y-100672634D01*
X78342707Y-100706749D01*
X78433591Y-100736280D01*
X78535305Y-100752390D01*
X78637019Y-100768500D01*
X78637020Y-100768500D01*
X78842980Y-100768500D01*
X78842981Y-100768500D01*
X79046408Y-100736280D01*
X79242290Y-100672634D01*
X79425803Y-100579129D01*
X79592430Y-100458068D01*
X79738068Y-100312430D01*
X79800122Y-100227019D01*
X93941500Y-100227019D01*
X93941500Y-100432980D01*
X93973719Y-100636408D01*
X94037367Y-100832294D01*
X94130873Y-101015806D01*
X94251926Y-101182423D01*
X94251930Y-101182428D01*
X94397571Y-101328069D01*
X94397576Y-101328073D01*
X94532808Y-101426324D01*
X94564197Y-101449129D01*
X94651011Y-101493363D01*
X94747705Y-101542632D01*
X94747707Y-101542632D01*
X94747710Y-101542634D01*
X94852707Y-101576749D01*
X94943591Y-101606280D01*
X95045305Y-101622390D01*
X95147019Y-101638500D01*
X95147020Y-101638500D01*
X95352980Y-101638500D01*
X95352981Y-101638500D01*
X95556408Y-101606280D01*
X95752290Y-101542634D01*
X95935803Y-101449129D01*
X96102430Y-101328068D01*
X96248068Y-101182430D01*
X96369129Y-101015803D01*
X96462634Y-100832290D01*
X96526280Y-100636408D01*
X96558500Y-100432981D01*
X96558500Y-100227019D01*
X109181500Y-100227019D01*
X109181500Y-100432980D01*
X109213719Y-100636408D01*
X109277367Y-100832294D01*
X109370873Y-101015806D01*
X109491926Y-101182423D01*
X109491930Y-101182428D01*
X109637571Y-101328069D01*
X109637576Y-101328073D01*
X109772808Y-101426324D01*
X109804197Y-101449129D01*
X109891011Y-101493363D01*
X109987705Y-101542632D01*
X109987707Y-101542632D01*
X109987710Y-101542634D01*
X110092707Y-101576749D01*
X110183591Y-101606280D01*
X110285305Y-101622390D01*
X110387019Y-101638500D01*
X110387020Y-101638500D01*
X110592980Y-101638500D01*
X110592981Y-101638500D01*
X110796408Y-101606280D01*
X110992290Y-101542634D01*
X111175803Y-101449129D01*
X111342430Y-101328068D01*
X111488068Y-101182430D01*
X111609129Y-101015803D01*
X111702634Y-100832290D01*
X111766280Y-100636408D01*
X111798500Y-100432981D01*
X111798500Y-100227019D01*
X124421500Y-100227019D01*
X124421500Y-100432980D01*
X124453719Y-100636408D01*
X124517367Y-100832294D01*
X124610873Y-101015806D01*
X124731926Y-101182423D01*
X124731930Y-101182428D01*
X124877571Y-101328069D01*
X124877576Y-101328073D01*
X125012808Y-101426324D01*
X125044197Y-101449129D01*
X125131011Y-101493363D01*
X125227705Y-101542632D01*
X125227707Y-101542632D01*
X125227710Y-101542634D01*
X125332707Y-101576749D01*
X125423591Y-101606280D01*
X125525305Y-101622390D01*
X125627019Y-101638500D01*
X125627020Y-101638500D01*
X125832980Y-101638500D01*
X125832981Y-101638500D01*
X126036408Y-101606280D01*
X126232290Y-101542634D01*
X126415803Y-101449129D01*
X126582430Y-101328068D01*
X126728068Y-101182430D01*
X126849129Y-101015803D01*
X126942634Y-100832290D01*
X127006280Y-100636408D01*
X127038500Y-100432981D01*
X127038500Y-100227019D01*
X127006280Y-100023592D01*
X127003730Y-100015745D01*
X126942632Y-99827705D01*
X126908709Y-99761128D01*
X126849129Y-99644197D01*
X126833661Y-99622908D01*
X126728073Y-99477576D01*
X126728069Y-99477571D01*
X126582428Y-99331930D01*
X126582423Y-99331926D01*
X126415806Y-99210873D01*
X126415805Y-99210872D01*
X126415803Y-99210871D01*
X126358496Y-99181671D01*
X126232294Y-99117367D01*
X126036408Y-99053719D01*
X125860794Y-99025905D01*
X125832981Y-99021500D01*
X125627019Y-99021500D01*
X125602550Y-99025375D01*
X125423591Y-99053719D01*
X125227705Y-99117367D01*
X125044193Y-99210873D01*
X124877576Y-99331926D01*
X124877571Y-99331930D01*
X124731930Y-99477571D01*
X124731926Y-99477576D01*
X124610873Y-99644193D01*
X124517367Y-99827705D01*
X124453719Y-100023591D01*
X124421500Y-100227019D01*
X111798500Y-100227019D01*
X111766280Y-100023592D01*
X111763730Y-100015745D01*
X111702632Y-99827705D01*
X111668709Y-99761128D01*
X111609129Y-99644197D01*
X111593661Y-99622908D01*
X111488073Y-99477576D01*
X111488069Y-99477571D01*
X111342428Y-99331930D01*
X111342423Y-99331926D01*
X111175806Y-99210873D01*
X111175805Y-99210872D01*
X111175803Y-99210871D01*
X111118496Y-99181671D01*
X110992294Y-99117367D01*
X110796408Y-99053719D01*
X110620794Y-99025905D01*
X110592981Y-99021500D01*
X110387019Y-99021500D01*
X110362550Y-99025375D01*
X110183591Y-99053719D01*
X109987705Y-99117367D01*
X109804193Y-99210873D01*
X109637576Y-99331926D01*
X109637571Y-99331930D01*
X109491930Y-99477571D01*
X109491926Y-99477576D01*
X109370873Y-99644193D01*
X109277367Y-99827705D01*
X109213719Y-100023591D01*
X109181500Y-100227019D01*
X96558500Y-100227019D01*
X96526280Y-100023592D01*
X96523730Y-100015745D01*
X96462632Y-99827705D01*
X96428709Y-99761128D01*
X96369129Y-99644197D01*
X96353661Y-99622908D01*
X96248073Y-99477576D01*
X96248069Y-99477571D01*
X96102428Y-99331930D01*
X96102423Y-99331926D01*
X95935806Y-99210873D01*
X95935805Y-99210872D01*
X95935803Y-99210871D01*
X95878496Y-99181671D01*
X95752294Y-99117367D01*
X95556408Y-99053719D01*
X95380794Y-99025905D01*
X95352981Y-99021500D01*
X95147019Y-99021500D01*
X95122550Y-99025375D01*
X94943591Y-99053719D01*
X94747705Y-99117367D01*
X94564193Y-99210873D01*
X94397576Y-99331926D01*
X94397571Y-99331930D01*
X94251930Y-99477571D01*
X94251926Y-99477576D01*
X94130873Y-99644193D01*
X94037367Y-99827705D01*
X93973719Y-100023591D01*
X93941500Y-100227019D01*
X79800122Y-100227019D01*
X79859129Y-100145803D01*
X79952634Y-99962290D01*
X80016280Y-99766408D01*
X80048500Y-99562981D01*
X80048500Y-98557019D01*
X80016280Y-98353592D01*
X79952634Y-98157710D01*
X79952632Y-98157707D01*
X79952632Y-98157705D01*
X79899515Y-98053459D01*
X79859129Y-97974197D01*
X79843661Y-97952908D01*
X79738073Y-97807576D01*
X79738069Y-97807571D01*
X79592428Y-97661930D01*
X79592423Y-97661926D01*
X79425806Y-97540873D01*
X79425805Y-97540872D01*
X79425803Y-97540871D01*
X79368496Y-97511671D01*
X79242294Y-97447367D01*
X79046408Y-97383719D01*
X78870794Y-97355905D01*
X78842981Y-97351500D01*
X78637019Y-97351500D01*
X78612550Y-97355375D01*
X78433591Y-97383719D01*
X78237705Y-97447367D01*
X78054193Y-97540873D01*
X77887576Y-97661926D01*
X77887571Y-97661930D01*
X77741930Y-97807571D01*
X77741926Y-97807576D01*
X77620871Y-97974195D01*
X77580484Y-98053459D01*
X77532510Y-98104254D01*
X77464689Y-98121049D01*
X77398554Y-98098511D01*
X77359516Y-98053459D01*
X77319128Y-97974195D01*
X77198073Y-97807576D01*
X77198069Y-97807571D01*
X77144819Y-97754321D01*
X77111334Y-97692998D01*
X77108500Y-97666640D01*
X77108500Y-97201675D01*
X77128185Y-97134636D01*
X77144819Y-97113994D01*
X77809994Y-96448819D01*
X77871317Y-96415334D01*
X77897675Y-96412500D01*
X122263480Y-96412500D01*
X122263481Y-96412499D01*
X122321986Y-96400862D01*
X122438992Y-96377589D01*
X122438995Y-96377587D01*
X122439000Y-96377587D01*
X122604336Y-96309103D01*
X122753135Y-96209678D01*
X123900678Y-95062135D01*
X124000103Y-94913336D01*
X124068587Y-94748000D01*
X124078354Y-94698901D01*
X124092816Y-94626193D01*
X124103500Y-94572479D01*
X124103500Y-94393521D01*
X124103500Y-93249781D01*
X124112143Y-93220343D01*
X124118666Y-93190358D01*
X124122422Y-93185340D01*
X124123185Y-93182742D01*
X124139816Y-93162103D01*
X124141024Y-93160895D01*
X124154389Y-93147529D01*
X124215709Y-93114044D01*
X124285401Y-93119026D01*
X124341336Y-93160895D01*
X124358250Y-93191871D01*
X124384111Y-93261204D01*
X124471739Y-93378261D01*
X124588796Y-93465889D01*
X124725799Y-93516989D01*
X124753050Y-93519918D01*
X124786345Y-93523499D01*
X124786362Y-93523500D01*
X126683638Y-93523500D01*
X126683654Y-93523499D01*
X126710692Y-93520591D01*
X126744201Y-93516989D01*
X126881204Y-93465889D01*
X126998261Y-93378261D01*
X127085889Y-93261204D01*
X127136989Y-93124201D01*
X127140591Y-93090692D01*
X127143499Y-93063654D01*
X127143500Y-93063637D01*
X127143500Y-91166362D01*
X127143499Y-91166345D01*
X127140157Y-91135270D01*
X127136989Y-91105799D01*
X127135679Y-91102288D01*
X127101132Y-91009664D01*
X127085889Y-90968796D01*
X126998261Y-90851739D01*
X126881204Y-90764111D01*
X126744203Y-90713011D01*
X126683654Y-90706500D01*
X126683638Y-90706500D01*
X124786362Y-90706500D01*
X124786345Y-90706500D01*
X124725797Y-90713011D01*
X124725795Y-90713011D01*
X124588795Y-90764111D01*
X124471739Y-90851739D01*
X124384111Y-90968795D01*
X124358252Y-91038125D01*
X124316380Y-91094058D01*
X124250916Y-91118474D01*
X124182643Y-91103622D01*
X124154390Y-91082471D01*
X124112578Y-91040659D01*
X124112576Y-91040657D01*
X123933215Y-90910343D01*
X123911171Y-90899111D01*
X123735680Y-90809693D01*
X123524824Y-90741182D01*
X123466390Y-90731927D01*
X123305851Y-90706500D01*
X123084149Y-90706500D01*
X123018998Y-90716819D01*
X122865175Y-90741182D01*
X122654319Y-90809693D01*
X122456784Y-90910343D01*
X122382923Y-90964007D01*
X122277424Y-91040657D01*
X122277422Y-91040659D01*
X122277421Y-91040659D01*
X122120659Y-91197421D01*
X122120659Y-91197422D01*
X122120657Y-91197424D01*
X122071037Y-91265720D01*
X121990343Y-91376784D01*
X121889693Y-91574319D01*
X121821182Y-91785175D01*
X121786500Y-92004149D01*
X121786500Y-92225850D01*
X121821182Y-92444824D01*
X121889693Y-92655680D01*
X121958478Y-92790676D01*
X121990343Y-92853215D01*
X122120657Y-93032576D01*
X122120659Y-93032578D01*
X122250181Y-93162100D01*
X122283666Y-93223423D01*
X122286500Y-93249781D01*
X122286500Y-94055325D01*
X122266815Y-94122364D01*
X122250181Y-94143006D01*
X121834006Y-94559181D01*
X121772683Y-94592666D01*
X121746325Y-94595500D01*
X108987500Y-94595500D01*
X108920461Y-94575815D01*
X108874706Y-94523011D01*
X108863500Y-94471500D01*
X108863500Y-93249781D01*
X108872143Y-93220343D01*
X108878666Y-93190358D01*
X108882422Y-93185340D01*
X108883185Y-93182742D01*
X108899816Y-93162103D01*
X108901024Y-93160895D01*
X108914389Y-93147529D01*
X108975709Y-93114044D01*
X109045401Y-93119026D01*
X109101336Y-93160895D01*
X109118250Y-93191871D01*
X109144111Y-93261204D01*
X109231739Y-93378261D01*
X109348796Y-93465889D01*
X109485799Y-93516989D01*
X109513050Y-93519918D01*
X109546345Y-93523499D01*
X109546362Y-93523500D01*
X111443638Y-93523500D01*
X111443654Y-93523499D01*
X111470692Y-93520591D01*
X111504201Y-93516989D01*
X111641204Y-93465889D01*
X111758261Y-93378261D01*
X111845889Y-93261204D01*
X111896989Y-93124201D01*
X111900591Y-93090692D01*
X111903499Y-93063654D01*
X111903500Y-93063637D01*
X111903500Y-91166362D01*
X111903499Y-91166345D01*
X111900157Y-91135270D01*
X111896989Y-91105799D01*
X111895679Y-91102288D01*
X111861132Y-91009664D01*
X111845889Y-90968796D01*
X111758261Y-90851739D01*
X111641204Y-90764111D01*
X111504203Y-90713011D01*
X111443654Y-90706500D01*
X111443638Y-90706500D01*
X109546362Y-90706500D01*
X109546345Y-90706500D01*
X109485797Y-90713011D01*
X109485795Y-90713011D01*
X109348795Y-90764111D01*
X109231739Y-90851739D01*
X109144111Y-90968795D01*
X109118252Y-91038125D01*
X109076380Y-91094058D01*
X109010916Y-91118474D01*
X108942643Y-91103622D01*
X108914390Y-91082471D01*
X108872578Y-91040659D01*
X108872576Y-91040657D01*
X108693215Y-90910343D01*
X108671171Y-90899111D01*
X108495680Y-90809693D01*
X108284824Y-90741182D01*
X108226390Y-90731927D01*
X108065851Y-90706500D01*
X107844149Y-90706500D01*
X107778998Y-90716819D01*
X107625175Y-90741182D01*
X107414319Y-90809693D01*
X107216784Y-90910343D01*
X107142923Y-90964007D01*
X107037424Y-91040657D01*
X107037422Y-91040659D01*
X107037421Y-91040659D01*
X106880659Y-91197421D01*
X106880659Y-91197422D01*
X106880657Y-91197424D01*
X106831037Y-91265720D01*
X106750343Y-91376784D01*
X106649693Y-91574319D01*
X106581182Y-91785175D01*
X106546500Y-92004149D01*
X106546500Y-92225850D01*
X106581182Y-92444824D01*
X106649693Y-92655680D01*
X106718478Y-92790676D01*
X106750343Y-92853215D01*
X106880657Y-93032576D01*
X106880659Y-93032578D01*
X107010181Y-93162100D01*
X107043666Y-93223423D01*
X107046500Y-93249781D01*
X107046500Y-94471500D01*
X107026815Y-94538539D01*
X106974011Y-94584294D01*
X106922500Y-94595500D01*
X93747500Y-94595500D01*
X93680461Y-94575815D01*
X93634706Y-94523011D01*
X93623500Y-94471500D01*
X93623500Y-93384781D01*
X93632143Y-93355343D01*
X93638666Y-93325358D01*
X93642422Y-93320340D01*
X93643185Y-93317742D01*
X93659816Y-93297103D01*
X93661024Y-93295895D01*
X93674389Y-93282529D01*
X93735709Y-93249044D01*
X93805401Y-93254026D01*
X93861336Y-93295895D01*
X93878250Y-93326871D01*
X93904111Y-93396204D01*
X93904112Y-93396206D01*
X93925450Y-93424710D01*
X93991739Y-93513261D01*
X94108796Y-93600889D01*
X94245799Y-93651989D01*
X94273050Y-93654918D01*
X94306345Y-93658499D01*
X94306362Y-93658500D01*
X96203638Y-93658500D01*
X96203654Y-93658499D01*
X96230692Y-93655591D01*
X96264201Y-93651989D01*
X96401204Y-93600889D01*
X96518261Y-93513261D01*
X96605889Y-93396204D01*
X96656989Y-93259201D01*
X96661167Y-93220343D01*
X96663499Y-93198654D01*
X96663500Y-93198637D01*
X96663500Y-91301362D01*
X96663499Y-91301345D01*
X96658980Y-91259317D01*
X96656989Y-91240799D01*
X96650285Y-91222826D01*
X96629219Y-91166345D01*
X96605889Y-91103796D01*
X96518261Y-90986739D01*
X96401204Y-90899111D01*
X96379796Y-90891126D01*
X96264199Y-90848009D01*
X96258983Y-90846777D01*
X96198267Y-90812203D01*
X96165882Y-90750291D01*
X96163500Y-90726101D01*
X96163500Y-82719520D01*
X96163499Y-82719516D01*
X96154571Y-82674632D01*
X96128587Y-82544000D01*
X96082089Y-82431744D01*
X96060103Y-82378664D01*
X95960678Y-82229865D01*
X95960675Y-82229861D01*
X94487138Y-80756324D01*
X94487134Y-80756321D01*
X94338342Y-80656900D01*
X94338329Y-80656893D01*
X94173001Y-80588413D01*
X94172992Y-80588410D01*
X93997483Y-80553500D01*
X93997479Y-80553500D01*
X59413360Y-80553500D01*
X59346321Y-80533815D01*
X59325679Y-80517181D01*
X59272428Y-80463930D01*
X59272423Y-80463926D01*
X59105806Y-80342873D01*
X59105805Y-80342872D01*
X59105803Y-80342871D01*
X59048496Y-80313671D01*
X58922294Y-80249367D01*
X58754757Y-80194931D01*
X58697082Y-80155493D01*
X58669884Y-80091134D01*
X58681799Y-80022288D01*
X58729043Y-79970812D01*
X58754757Y-79959069D01*
X58785923Y-79948942D01*
X58922290Y-79904634D01*
X59105803Y-79811129D01*
X59272430Y-79690068D01*
X59325679Y-79636819D01*
X59387002Y-79603334D01*
X59413360Y-79600500D01*
X91196480Y-79600500D01*
X91196481Y-79600499D01*
X91254986Y-79588862D01*
X91371992Y-79565589D01*
X91371995Y-79565587D01*
X91372000Y-79565587D01*
X91537336Y-79497103D01*
X91686135Y-79397678D01*
X93395678Y-77688135D01*
X93495103Y-77539336D01*
X93563587Y-77374000D01*
X93566032Y-77361712D01*
X93587797Y-77252288D01*
X93598500Y-77198479D01*
X93598500Y-77019521D01*
X93598500Y-68155869D01*
X93618185Y-68088830D01*
X93622165Y-68083006D01*
X93723602Y-67943392D01*
X93808579Y-67776614D01*
X93856552Y-67725820D01*
X93924373Y-67709025D01*
X93990508Y-67731562D01*
X94033960Y-67786277D01*
X94042421Y-67820308D01*
X94052101Y-67915063D01*
X94107815Y-68083195D01*
X94107817Y-68083200D01*
X94126994Y-68114290D01*
X94200802Y-68233952D01*
X94326048Y-68359198D01*
X94476802Y-68452184D01*
X94644937Y-68507898D01*
X94748712Y-68518500D01*
X94748717Y-68518500D01*
X95751283Y-68518500D01*
X95751288Y-68518500D01*
X95855063Y-68507898D01*
X96023198Y-68452184D01*
X96173952Y-68359198D01*
X96299198Y-68233952D01*
X96392184Y-68083198D01*
X96447898Y-67915063D01*
X96458500Y-67811288D01*
X96458500Y-66808712D01*
X96447898Y-66704937D01*
X96392184Y-66536802D01*
X96299198Y-66386048D01*
X96173952Y-66260802D01*
X96080296Y-66203035D01*
X96023200Y-66167817D01*
X96023195Y-66167815D01*
X95855063Y-66112102D01*
X95751295Y-66101500D01*
X95751288Y-66101500D01*
X94748712Y-66101500D01*
X94748704Y-66101500D01*
X94644936Y-66112102D01*
X94476804Y-66167815D01*
X94476799Y-66167817D01*
X94326046Y-66260803D01*
X94200803Y-66386046D01*
X94107817Y-66536799D01*
X94107815Y-66536804D01*
X94052101Y-66704936D01*
X94042421Y-66799691D01*
X94016024Y-66864383D01*
X93958843Y-66904534D01*
X93889032Y-66907397D01*
X93828756Y-66872062D01*
X93808578Y-66843383D01*
X93765876Y-66759576D01*
X93723602Y-66676608D01*
X93622181Y-66537015D01*
X93598702Y-66471209D01*
X93598500Y-66464130D01*
X93598500Y-61973360D01*
X93618185Y-61906321D01*
X93634819Y-61885679D01*
X93662614Y-61857884D01*
X93708068Y-61812430D01*
X93829129Y-61645803D01*
X93922634Y-61462290D01*
X93986280Y-61266408D01*
X94018500Y-61062981D01*
X94018500Y-60857019D01*
X93992840Y-60695007D01*
X93986280Y-60653591D01*
X93922632Y-60457705D01*
X93883324Y-60380560D01*
X93829129Y-60274197D01*
X93765777Y-60187000D01*
X93708073Y-60107576D01*
X93708069Y-60107571D01*
X93562428Y-59961930D01*
X93562423Y-59961926D01*
X93395806Y-59840873D01*
X93395805Y-59840872D01*
X93395803Y-59840871D01*
X93318708Y-59801589D01*
X93212294Y-59747367D01*
X93016408Y-59683719D01*
X92840794Y-59655905D01*
X92812981Y-59651500D01*
X92607019Y-59651500D01*
X92582550Y-59655375D01*
X92403591Y-59683719D01*
X92207705Y-59747367D01*
X92024193Y-59840873D01*
X91857576Y-59961926D01*
X91857571Y-59961930D01*
X91711930Y-60107571D01*
X91711926Y-60107576D01*
X91590873Y-60274193D01*
X91497367Y-60457705D01*
X91433719Y-60653591D01*
X91401500Y-60857019D01*
X91401500Y-61062980D01*
X91433719Y-61266408D01*
X91497367Y-61462294D01*
X91590873Y-61645806D01*
X91711926Y-61812423D01*
X91711930Y-61812428D01*
X91745181Y-61845679D01*
X91778666Y-61907002D01*
X91781500Y-61933360D01*
X91781500Y-66464130D01*
X91761815Y-66531169D01*
X91757818Y-66537016D01*
X91656398Y-66676607D01*
X91570040Y-66846092D01*
X91511256Y-67027008D01*
X91481500Y-67214883D01*
X91481500Y-67405116D01*
X91511256Y-67592991D01*
X91570040Y-67773907D01*
X91643668Y-67918408D01*
X91656398Y-67943392D01*
X91757818Y-68082985D01*
X91781298Y-68148789D01*
X91781500Y-68155869D01*
X91781500Y-76681325D01*
X91761815Y-76748364D01*
X91745181Y-76769006D01*
X90767006Y-77747181D01*
X90705683Y-77780666D01*
X90679325Y-77783500D01*
X59413360Y-77783500D01*
X59346321Y-77763815D01*
X59325679Y-77747181D01*
X59272428Y-77693930D01*
X59272423Y-77693926D01*
X59105806Y-77572873D01*
X59105805Y-77572872D01*
X59105803Y-77572871D01*
X59039987Y-77539336D01*
X58922294Y-77479367D01*
X58754757Y-77424931D01*
X58697082Y-77385493D01*
X58669884Y-77321134D01*
X58681799Y-77252288D01*
X58729043Y-77200812D01*
X58754757Y-77189069D01*
X58785923Y-77178942D01*
X58922290Y-77134634D01*
X59105803Y-77041129D01*
X59272430Y-76920068D01*
X59325679Y-76866819D01*
X59387002Y-76833334D01*
X59413360Y-76830500D01*
X67169480Y-76830500D01*
X67169481Y-76830499D01*
X67227986Y-76818862D01*
X67344992Y-76795589D01*
X67344995Y-76795587D01*
X67345000Y-76795587D01*
X67510336Y-76727103D01*
X67659135Y-76627678D01*
X71825678Y-72461135D01*
X71925103Y-72312336D01*
X71980290Y-72179102D01*
X71993587Y-72147000D01*
X72028500Y-71971479D01*
X72028500Y-65189263D01*
X72048185Y-65122224D01*
X72087401Y-65083725D01*
X72143652Y-65049030D01*
X72269030Y-64923652D01*
X72362115Y-64772738D01*
X72384646Y-64704742D01*
X72424417Y-64647299D01*
X72488932Y-64620475D01*
X72557708Y-64632789D01*
X72602669Y-64670862D01*
X72661926Y-64752424D01*
X72807571Y-64898069D01*
X72807576Y-64898073D01*
X72952908Y-65003661D01*
X72974197Y-65019129D01*
X73091128Y-65078709D01*
X73157705Y-65112632D01*
X73157707Y-65112632D01*
X73157710Y-65112634D01*
X73228614Y-65135672D01*
X73353591Y-65176280D01*
X73455305Y-65192390D01*
X73557019Y-65208500D01*
X73557020Y-65208500D01*
X73762980Y-65208500D01*
X73762981Y-65208500D01*
X73966408Y-65176280D01*
X74162290Y-65112634D01*
X74345803Y-65019129D01*
X74512430Y-64898068D01*
X74658068Y-64752430D01*
X74779129Y-64585803D01*
X74819515Y-64506540D01*
X74867490Y-64455745D01*
X74935311Y-64438950D01*
X75001446Y-64461487D01*
X75040485Y-64506541D01*
X75080873Y-64585806D01*
X75201926Y-64752423D01*
X75201930Y-64752428D01*
X75347571Y-64898069D01*
X75347576Y-64898073D01*
X75492908Y-65003661D01*
X75514197Y-65019129D01*
X75631128Y-65078709D01*
X75697705Y-65112632D01*
X75697707Y-65112632D01*
X75697710Y-65112634D01*
X75768614Y-65135672D01*
X75893591Y-65176280D01*
X75995305Y-65192390D01*
X76097019Y-65208500D01*
X76097020Y-65208500D01*
X76302980Y-65208500D01*
X76302981Y-65208500D01*
X76506408Y-65176280D01*
X76702290Y-65112634D01*
X76885803Y-65019129D01*
X77052430Y-64898068D01*
X77198068Y-64752430D01*
X77319129Y-64585803D01*
X77359515Y-64506540D01*
X77407490Y-64455745D01*
X77475311Y-64438950D01*
X77541446Y-64461487D01*
X77580485Y-64506541D01*
X77620873Y-64585806D01*
X77741926Y-64752423D01*
X77741930Y-64752428D01*
X77887571Y-64898069D01*
X77887576Y-64898073D01*
X78032908Y-65003661D01*
X78054197Y-65019129D01*
X78171128Y-65078709D01*
X78237705Y-65112632D01*
X78237707Y-65112632D01*
X78237710Y-65112634D01*
X78308614Y-65135672D01*
X78433591Y-65176280D01*
X78535305Y-65192390D01*
X78637019Y-65208500D01*
X78637020Y-65208500D01*
X78842980Y-65208500D01*
X78842981Y-65208500D01*
X79046408Y-65176280D01*
X79242290Y-65112634D01*
X79425803Y-65019129D01*
X79592430Y-64898068D01*
X79738068Y-64752430D01*
X79859129Y-64585803D01*
X79952634Y-64402290D01*
X80016280Y-64206408D01*
X80048500Y-64002981D01*
X80048500Y-62997019D01*
X80016280Y-62793592D01*
X79952634Y-62597710D01*
X79952632Y-62597707D01*
X79952632Y-62597705D01*
X79899515Y-62493459D01*
X79859129Y-62414197D01*
X79772713Y-62295255D01*
X79738073Y-62247576D01*
X79738069Y-62247571D01*
X79592428Y-62101930D01*
X79592423Y-62101926D01*
X79425806Y-61980873D01*
X79425805Y-61980872D01*
X79425803Y-61980871D01*
X79320080Y-61927002D01*
X79242294Y-61887367D01*
X79046408Y-61823719D01*
X78870794Y-61795905D01*
X78842981Y-61791500D01*
X78637019Y-61791500D01*
X78612550Y-61795375D01*
X78433591Y-61823719D01*
X78237705Y-61887367D01*
X78054193Y-61980873D01*
X77887576Y-62101926D01*
X77887571Y-62101930D01*
X77741930Y-62247571D01*
X77741926Y-62247576D01*
X77620871Y-62414195D01*
X77580484Y-62493459D01*
X77532510Y-62544254D01*
X77464689Y-62561049D01*
X77398554Y-62538511D01*
X77359516Y-62493459D01*
X77319128Y-62414195D01*
X77198073Y-62247576D01*
X77198069Y-62247571D01*
X77144819Y-62194321D01*
X77111334Y-62132998D01*
X77108500Y-62106640D01*
X77108500Y-61387675D01*
X77117144Y-61358234D01*
X77123668Y-61328248D01*
X77127422Y-61323232D01*
X77128185Y-61320636D01*
X77144819Y-61299994D01*
X77301994Y-61142819D01*
X77363317Y-61109334D01*
X77389675Y-61106500D01*
X85433480Y-61106500D01*
X85433481Y-61106499D01*
X85491986Y-61094862D01*
X85608992Y-61071589D01*
X85608995Y-61071587D01*
X85609000Y-61071587D01*
X85774336Y-61003103D01*
X85923135Y-60903678D01*
X89493994Y-57332819D01*
X89555317Y-57299334D01*
X89581675Y-57296500D01*
X105744325Y-57296500D01*
X105811364Y-57316185D01*
X105832006Y-57332819D01*
X107005181Y-58505994D01*
X107038666Y-58567317D01*
X107041500Y-58593675D01*
X107041500Y-59966640D01*
X107021815Y-60033679D01*
X107005181Y-60054321D01*
X106951930Y-60107571D01*
X106951926Y-60107576D01*
X106830873Y-60274193D01*
X106737367Y-60457705D01*
X106673719Y-60653591D01*
X106641500Y-60857019D01*
X106641500Y-61062980D01*
X106673719Y-61266408D01*
X106737367Y-61462294D01*
X106830873Y-61645806D01*
X106951926Y-61812423D01*
X106951930Y-61812428D01*
X107005181Y-61865679D01*
X107038666Y-61927002D01*
X107041500Y-61953360D01*
X107041500Y-66464130D01*
X107021815Y-66531169D01*
X107017818Y-66537016D01*
X106916398Y-66676607D01*
X106830040Y-66846092D01*
X106771256Y-67027008D01*
X106741500Y-67214883D01*
X106741500Y-67405116D01*
X106771256Y-67592991D01*
X106830040Y-67773907D01*
X106903668Y-67918408D01*
X106916398Y-67943392D01*
X107028208Y-68097285D01*
X107162715Y-68231792D01*
X107316608Y-68343602D01*
X107347217Y-68359198D01*
X107486092Y-68429959D01*
X107486094Y-68429959D01*
X107486097Y-68429961D01*
X107583070Y-68461469D01*
X107667008Y-68488743D01*
X107854884Y-68518500D01*
X107854889Y-68518500D01*
X108045116Y-68518500D01*
X108232991Y-68488743D01*
X108413903Y-68429961D01*
X108583392Y-68343602D01*
X108737285Y-68231792D01*
X108871792Y-68097285D01*
X108983602Y-67943392D01*
X109068579Y-67776614D01*
X109116552Y-67725820D01*
X109184373Y-67709025D01*
X109250508Y-67731562D01*
X109293960Y-67786277D01*
X109302421Y-67820308D01*
X109312101Y-67915063D01*
X109367815Y-68083195D01*
X109367817Y-68083200D01*
X109386994Y-68114290D01*
X109460802Y-68233952D01*
X109586048Y-68359198D01*
X109736802Y-68452184D01*
X109904937Y-68507898D01*
X110008712Y-68518500D01*
X110008717Y-68518500D01*
X111011283Y-68518500D01*
X111011288Y-68518500D01*
X111115063Y-68507898D01*
X111283198Y-68452184D01*
X111433952Y-68359198D01*
X111559198Y-68233952D01*
X111652184Y-68083198D01*
X111707898Y-67915063D01*
X111718500Y-67811288D01*
X111718500Y-66808712D01*
X111707898Y-66704937D01*
X111652184Y-66536802D01*
X111559198Y-66386048D01*
X111433952Y-66260802D01*
X111340296Y-66203035D01*
X111283200Y-66167817D01*
X111283195Y-66167815D01*
X111115063Y-66112102D01*
X111011295Y-66101500D01*
X111011288Y-66101500D01*
X110008712Y-66101500D01*
X110008704Y-66101500D01*
X109904936Y-66112102D01*
X109736804Y-66167815D01*
X109736799Y-66167817D01*
X109586046Y-66260803D01*
X109460803Y-66386046D01*
X109367817Y-66536799D01*
X109367815Y-66536804D01*
X109312101Y-66704936D01*
X109302421Y-66799691D01*
X109276024Y-66864383D01*
X109218843Y-66904534D01*
X109149032Y-66907397D01*
X109088756Y-66872062D01*
X109068578Y-66843383D01*
X109025876Y-66759576D01*
X108983602Y-66676608D01*
X108882181Y-66537015D01*
X108858702Y-66471209D01*
X108858500Y-66464130D01*
X108858500Y-61953360D01*
X108878185Y-61886321D01*
X108894819Y-61865679D01*
X108914819Y-61845679D01*
X108948068Y-61812430D01*
X109069129Y-61645803D01*
X109162634Y-61462290D01*
X109226280Y-61266408D01*
X109258500Y-61062981D01*
X109258500Y-60857019D01*
X109232840Y-60695007D01*
X109226280Y-60653591D01*
X109162632Y-60457705D01*
X109123324Y-60380560D01*
X109069129Y-60274197D01*
X109005777Y-60187000D01*
X108948073Y-60107576D01*
X108948069Y-60107571D01*
X108894819Y-60054321D01*
X108861334Y-59992998D01*
X108858500Y-59966640D01*
X108858500Y-58076520D01*
X108858499Y-58076516D01*
X108846594Y-58016666D01*
X108823587Y-57901000D01*
X108803528Y-57852574D01*
X108755103Y-57735664D01*
X108655678Y-57586865D01*
X108655675Y-57586861D01*
X106751138Y-55682324D01*
X106751134Y-55682321D01*
X106602342Y-55582900D01*
X106602329Y-55582893D01*
X106437001Y-55514413D01*
X106436992Y-55514410D01*
X106261483Y-55479500D01*
X106261479Y-55479500D01*
X89064521Y-55479500D01*
X89064516Y-55479500D01*
X88889006Y-55514411D01*
X88888993Y-55514415D01*
X88855842Y-55528146D01*
X88840574Y-55534471D01*
X88723668Y-55582894D01*
X88723666Y-55582895D01*
X88574865Y-55682321D01*
X88574861Y-55682324D01*
X85004006Y-59253181D01*
X84942683Y-59286666D01*
X84916325Y-59289500D01*
X76872516Y-59289500D01*
X76697006Y-59324411D01*
X76696993Y-59324415D01*
X76663842Y-59338146D01*
X76648574Y-59344471D01*
X76531668Y-59392894D01*
X76531666Y-59392895D01*
X76382865Y-59492321D01*
X76382861Y-59492324D01*
X75494324Y-60380861D01*
X75494321Y-60380865D01*
X75394900Y-60529657D01*
X75394893Y-60529670D01*
X75354026Y-60628335D01*
X75326414Y-60694995D01*
X75326411Y-60695007D01*
X75291500Y-60870516D01*
X75291500Y-62106640D01*
X75271815Y-62173679D01*
X75255181Y-62194321D01*
X75201930Y-62247571D01*
X75201926Y-62247576D01*
X75080871Y-62414195D01*
X75040484Y-62493459D01*
X74992510Y-62544254D01*
X74924689Y-62561049D01*
X74858554Y-62538511D01*
X74819516Y-62493459D01*
X74779128Y-62414195D01*
X74658073Y-62247576D01*
X74658069Y-62247571D01*
X74512428Y-62101930D01*
X74512423Y-62101926D01*
X74345806Y-61980873D01*
X74345805Y-61980872D01*
X74345803Y-61980871D01*
X74240080Y-61927002D01*
X74162294Y-61887367D01*
X73966408Y-61823719D01*
X73790794Y-61795905D01*
X73762981Y-61791500D01*
X73557019Y-61791500D01*
X73532550Y-61795375D01*
X73353591Y-61823719D01*
X73157705Y-61887367D01*
X72974193Y-61980873D01*
X72807576Y-62101926D01*
X72807571Y-62101930D01*
X72661930Y-62247571D01*
X72661926Y-62247576D01*
X72602669Y-62329137D01*
X72547339Y-62371803D01*
X72477726Y-62377782D01*
X72415931Y-62345176D01*
X72384645Y-62295255D01*
X72368846Y-62247576D01*
X72362115Y-62227262D01*
X72269030Y-62076348D01*
X72143652Y-61950970D01*
X71992738Y-61857885D01*
X71889630Y-61823719D01*
X71824427Y-61802113D01*
X71720545Y-61791500D01*
X70519462Y-61791500D01*
X70519446Y-61791501D01*
X70415572Y-61802113D01*
X70247264Y-61857884D01*
X70247259Y-61857886D01*
X70096346Y-61950971D01*
X69970971Y-62076346D01*
X69877886Y-62227259D01*
X69877884Y-62227264D01*
X69822113Y-62395572D01*
X69811500Y-62499447D01*
X69811500Y-64500537D01*
X69811501Y-64500553D01*
X69820211Y-64585806D01*
X69822113Y-64604426D01*
X69877885Y-64772738D01*
X69970970Y-64923652D01*
X70096348Y-65049030D01*
X70152598Y-65083725D01*
X70199321Y-65135672D01*
X70211500Y-65189263D01*
X70211500Y-71454325D01*
X70191815Y-71521364D01*
X70175181Y-71542006D01*
X66740006Y-74977181D01*
X66678683Y-75010666D01*
X66652325Y-75013500D01*
X59413360Y-75013500D01*
X59346321Y-74993815D01*
X59325679Y-74977181D01*
X59272428Y-74923930D01*
X59272423Y-74923926D01*
X59105806Y-74802873D01*
X59105805Y-74802872D01*
X59105803Y-74802871D01*
X59048496Y-74773671D01*
X58922294Y-74709367D01*
X58754757Y-74654931D01*
X58697082Y-74615493D01*
X58669884Y-74551134D01*
X58681799Y-74482288D01*
X58729043Y-74430812D01*
X58754757Y-74419069D01*
X58785923Y-74408942D01*
X58922290Y-74364634D01*
X59105803Y-74271129D01*
X59272430Y-74150068D01*
X59325679Y-74096819D01*
X59387002Y-74063334D01*
X59413360Y-74060500D01*
X65367480Y-74060500D01*
X65367481Y-74060499D01*
X65425986Y-74048862D01*
X65542992Y-74025589D01*
X65542995Y-74025587D01*
X65543000Y-74025587D01*
X65708336Y-73957103D01*
X65857135Y-73857678D01*
X67761678Y-71953135D01*
X67861103Y-71804336D01*
X67876568Y-71767000D01*
X67921601Y-71658281D01*
X67925967Y-71647738D01*
X67929587Y-71639000D01*
X67964500Y-71463479D01*
X67964500Y-60879675D01*
X67984185Y-60812636D01*
X68000819Y-60791994D01*
X68919994Y-59872819D01*
X68981317Y-59839334D01*
X69007675Y-59836500D01*
X72606480Y-59836500D01*
X72606481Y-59836499D01*
X72664986Y-59824862D01*
X72781992Y-59801589D01*
X72781995Y-59801587D01*
X72782000Y-59801587D01*
X72947336Y-59733103D01*
X73096135Y-59633678D01*
X74365678Y-58364135D01*
X74465103Y-58215336D01*
X74533587Y-58050000D01*
X74535990Y-58037923D01*
X74568499Y-57874483D01*
X74568500Y-57874480D01*
X74568500Y-57273360D01*
X74588185Y-57206321D01*
X74604819Y-57185679D01*
X74658068Y-57132430D01*
X74779129Y-56965803D01*
X74819515Y-56886540D01*
X74867490Y-56835745D01*
X74935311Y-56818950D01*
X75001446Y-56841487D01*
X75040485Y-56886541D01*
X75080873Y-56965806D01*
X75201926Y-57132423D01*
X75201930Y-57132428D01*
X75347571Y-57278069D01*
X75347576Y-57278073D01*
X75456658Y-57357325D01*
X75514197Y-57399129D01*
X75631128Y-57458709D01*
X75697705Y-57492632D01*
X75697707Y-57492632D01*
X75697710Y-57492634D01*
X75802707Y-57526749D01*
X75893591Y-57556280D01*
X75907267Y-57558446D01*
X76097019Y-57588500D01*
X76097020Y-57588500D01*
X76302980Y-57588500D01*
X76302981Y-57588500D01*
X76506408Y-57556280D01*
X76702290Y-57492634D01*
X76885803Y-57399129D01*
X77052430Y-57278068D01*
X77198068Y-57132430D01*
X77319129Y-56965803D01*
X77364284Y-56877180D01*
X77412258Y-56826384D01*
X77480079Y-56809589D01*
X77546214Y-56832126D01*
X77585254Y-56877180D01*
X77628140Y-56961349D01*
X77748417Y-57126894D01*
X77748417Y-57126895D01*
X77893104Y-57271582D01*
X78058650Y-57391859D01*
X78240968Y-57484754D01*
X78435578Y-57547988D01*
X78490000Y-57556607D01*
X78490000Y-56195686D01*
X78494394Y-56200080D01*
X78585606Y-56252741D01*
X78687339Y-56280000D01*
X78792661Y-56280000D01*
X78894394Y-56252741D01*
X78985606Y-56200080D01*
X78990000Y-56195686D01*
X78990000Y-57556606D01*
X79044421Y-57547988D01*
X79239031Y-57484754D01*
X79421349Y-57391859D01*
X79586894Y-57271582D01*
X79586895Y-57271582D01*
X79731582Y-57126895D01*
X79731582Y-57126894D01*
X79851859Y-56961349D01*
X79944755Y-56779031D01*
X80007990Y-56584417D01*
X80040000Y-56382317D01*
X80040000Y-56130000D01*
X79055686Y-56130000D01*
X79060080Y-56125606D01*
X79112741Y-56034394D01*
X79140000Y-55932661D01*
X79140000Y-55827339D01*
X79112741Y-55725606D01*
X79060080Y-55634394D01*
X79055686Y-55630000D01*
X80040000Y-55630000D01*
X80040000Y-55377682D01*
X80007990Y-55175582D01*
X79944755Y-54980968D01*
X79851859Y-54798650D01*
X79731582Y-54633105D01*
X79731582Y-54633104D01*
X79586895Y-54488417D01*
X79421349Y-54368140D01*
X79239029Y-54275244D01*
X79044413Y-54212009D01*
X78990000Y-54203390D01*
X78990000Y-55564314D01*
X78985606Y-55559920D01*
X78894394Y-55507259D01*
X78792661Y-55480000D01*
X78687339Y-55480000D01*
X78585606Y-55507259D01*
X78494394Y-55559920D01*
X78490000Y-55564314D01*
X78490000Y-54203390D01*
X78435586Y-54212009D01*
X78240970Y-54275244D01*
X78058650Y-54368140D01*
X77893105Y-54488417D01*
X77893104Y-54488417D01*
X77748417Y-54633104D01*
X77748417Y-54633105D01*
X77628140Y-54798650D01*
X77585254Y-54882819D01*
X77537279Y-54933615D01*
X77469458Y-54950410D01*
X77403323Y-54927872D01*
X77364284Y-54882819D01*
X77359515Y-54873459D01*
X77319129Y-54794197D01*
X77303661Y-54772908D01*
X77198073Y-54627576D01*
X77198069Y-54627571D01*
X77144819Y-54574321D01*
X77111334Y-54512998D01*
X77108500Y-54486640D01*
X77108500Y-54021675D01*
X77128185Y-53954636D01*
X77144819Y-53933994D01*
X77555994Y-53522819D01*
X77617317Y-53489334D01*
X77643675Y-53486500D01*
X121746325Y-53486500D01*
X121813364Y-53506185D01*
X121834006Y-53522819D01*
X122245181Y-53933994D01*
X122278666Y-53995317D01*
X122281500Y-54021675D01*
X122281500Y-59966640D01*
X122261815Y-60033679D01*
X122245181Y-60054321D01*
X122191930Y-60107571D01*
X122191926Y-60107576D01*
X122070873Y-60274193D01*
X121977367Y-60457705D01*
X121913719Y-60653591D01*
X121881500Y-60857019D01*
X121881500Y-61062980D01*
X121913719Y-61266408D01*
X121977367Y-61462294D01*
X122070873Y-61645806D01*
X122191926Y-61812423D01*
X122191930Y-61812428D01*
X122225181Y-61845679D01*
X122258666Y-61907002D01*
X122261500Y-61933360D01*
X122261500Y-66464130D01*
X122241815Y-66531169D01*
X122237818Y-66537016D01*
X122136398Y-66676607D01*
X122050040Y-66846092D01*
X121991256Y-67027008D01*
X121961500Y-67214883D01*
X121961500Y-67405116D01*
X121991256Y-67592991D01*
X122050040Y-67773907D01*
X122123668Y-67918408D01*
X122136398Y-67943392D01*
X122248208Y-68097285D01*
X122382715Y-68231792D01*
X122536608Y-68343602D01*
X122567217Y-68359198D01*
X122706092Y-68429959D01*
X122706094Y-68429959D01*
X122706097Y-68429961D01*
X122803070Y-68461469D01*
X122887008Y-68488743D01*
X123074884Y-68518500D01*
X123074889Y-68518500D01*
X123265116Y-68518500D01*
X123452991Y-68488743D01*
X123633903Y-68429961D01*
X123803392Y-68343602D01*
X123957285Y-68231792D01*
X124091792Y-68097285D01*
X124203602Y-67943392D01*
X124288579Y-67776614D01*
X124336552Y-67725820D01*
X124404373Y-67709025D01*
X124470508Y-67731562D01*
X124513960Y-67786277D01*
X124522421Y-67820308D01*
X124532101Y-67915063D01*
X124587815Y-68083195D01*
X124587817Y-68083200D01*
X124606994Y-68114290D01*
X124680802Y-68233952D01*
X124806048Y-68359198D01*
X124956802Y-68452184D01*
X125124937Y-68507898D01*
X125228712Y-68518500D01*
X125228717Y-68518500D01*
X126231283Y-68518500D01*
X126231288Y-68518500D01*
X126335063Y-68507898D01*
X126503198Y-68452184D01*
X126653952Y-68359198D01*
X126779198Y-68233952D01*
X126872184Y-68083198D01*
X126927898Y-67915063D01*
X126938500Y-67811288D01*
X126938500Y-66808712D01*
X126927898Y-66704937D01*
X126872184Y-66536802D01*
X126779198Y-66386048D01*
X126653952Y-66260802D01*
X126560296Y-66203035D01*
X126503200Y-66167817D01*
X126503195Y-66167815D01*
X126335063Y-66112102D01*
X126231295Y-66101500D01*
X126231288Y-66101500D01*
X125228712Y-66101500D01*
X125228704Y-66101500D01*
X125124936Y-66112102D01*
X124956804Y-66167815D01*
X124956799Y-66167817D01*
X124806046Y-66260803D01*
X124680803Y-66386046D01*
X124587817Y-66536799D01*
X124587815Y-66536804D01*
X124532101Y-66704936D01*
X124522421Y-66799691D01*
X124496024Y-66864383D01*
X124438843Y-66904534D01*
X124369032Y-66907397D01*
X124308756Y-66872062D01*
X124288578Y-66843383D01*
X124245876Y-66759576D01*
X124203602Y-66676608D01*
X124102181Y-66537015D01*
X124078702Y-66471209D01*
X124078500Y-66464130D01*
X124078500Y-61973360D01*
X124098185Y-61906321D01*
X124114819Y-61885679D01*
X124142614Y-61857884D01*
X124188068Y-61812430D01*
X124309129Y-61645803D01*
X124402634Y-61462290D01*
X124466280Y-61266408D01*
X124498500Y-61062981D01*
X124498500Y-60857019D01*
X124472840Y-60695007D01*
X124466280Y-60653591D01*
X124402632Y-60457705D01*
X124363324Y-60380560D01*
X124309129Y-60274197D01*
X124245777Y-60187000D01*
X124188073Y-60107576D01*
X124188069Y-60107571D01*
X124134819Y-60054321D01*
X124101334Y-59992998D01*
X124098500Y-59966640D01*
X124098500Y-53504520D01*
X124098499Y-53504516D01*
X124063588Y-53329007D01*
X124063587Y-53329000D01*
X124044814Y-53283678D01*
X124044814Y-53283677D01*
X123995106Y-53163670D01*
X123995099Y-53163657D01*
X123895678Y-53014865D01*
X123895675Y-53014861D01*
X122753138Y-51872324D01*
X122753134Y-51872321D01*
X122604342Y-51772900D01*
X122604329Y-51772893D01*
X122439001Y-51704413D01*
X122438992Y-51704410D01*
X122263483Y-51669500D01*
X122263479Y-51669500D01*
X121364675Y-51669500D01*
X121297636Y-51649815D01*
X121251881Y-51597011D01*
X121241937Y-51527853D01*
X121270962Y-51464297D01*
X121276994Y-51457819D01*
X123129994Y-49604819D01*
X123191317Y-49571334D01*
X123217675Y-49568500D01*
X123292980Y-49568500D01*
X123292981Y-49568500D01*
X123496408Y-49536280D01*
X123692290Y-49472634D01*
X123875803Y-49379129D01*
X124042430Y-49258068D01*
X124188068Y-49112430D01*
X124309129Y-48945803D01*
X124402634Y-48762290D01*
X124466280Y-48566408D01*
X124498500Y-48362981D01*
X124498500Y-48157019D01*
X124466280Y-47953592D01*
X124462275Y-47941267D01*
X124435870Y-47860000D01*
X124402634Y-47757710D01*
X124402632Y-47757707D01*
X124402632Y-47757705D01*
X124368709Y-47691128D01*
X124309129Y-47574197D01*
X124264474Y-47512734D01*
X124188073Y-47407576D01*
X124188069Y-47407571D01*
X124042428Y-47261930D01*
X124042423Y-47261926D01*
X123875806Y-47140873D01*
X123875805Y-47140872D01*
X123875803Y-47140871D01*
X123817741Y-47111287D01*
X123692294Y-47047367D01*
X123496408Y-46983719D01*
X123320794Y-46955905D01*
X123292981Y-46951500D01*
X123087019Y-46951500D01*
X123062550Y-46955375D01*
X122883591Y-46983719D01*
X122687705Y-47047367D01*
X122504193Y-47140873D01*
X122337576Y-47261926D01*
X122337571Y-47261930D01*
X122191930Y-47407571D01*
X122191926Y-47407576D01*
X122070873Y-47574193D01*
X121977367Y-47757705D01*
X121913719Y-47953591D01*
X121881500Y-48157019D01*
X121881500Y-48232325D01*
X121861815Y-48299364D01*
X121845181Y-48320006D01*
X120056006Y-50109181D01*
X119994683Y-50142666D01*
X119968325Y-50145500D01*
X76110520Y-50145500D01*
X76081397Y-50151292D01*
X76081396Y-50151291D01*
X75935005Y-50180411D01*
X75934999Y-50180413D01*
X75769667Y-50248896D01*
X75769657Y-50248901D01*
X75620864Y-50348322D01*
X75620860Y-50348325D01*
X72954324Y-53014861D01*
X72954321Y-53014865D01*
X72854900Y-53163657D01*
X72854893Y-53163670D01*
X72805186Y-53283677D01*
X72786414Y-53328995D01*
X72786411Y-53329007D01*
X72751500Y-53504516D01*
X72751500Y-54486640D01*
X72731815Y-54553679D01*
X72715181Y-54574321D01*
X72661930Y-54627571D01*
X72661926Y-54627576D01*
X72540871Y-54794195D01*
X72500484Y-54873459D01*
X72452510Y-54924254D01*
X72384689Y-54941049D01*
X72318554Y-54918511D01*
X72279516Y-54873459D01*
X72239128Y-54794195D01*
X72118073Y-54627576D01*
X72118069Y-54627571D01*
X71972428Y-54481930D01*
X71972423Y-54481926D01*
X71805806Y-54360873D01*
X71805805Y-54360872D01*
X71805803Y-54360871D01*
X71748496Y-54331671D01*
X71622294Y-54267367D01*
X71426408Y-54203719D01*
X71250794Y-54175905D01*
X71222981Y-54171500D01*
X71017019Y-54171500D01*
X70992550Y-54175375D01*
X70813591Y-54203719D01*
X70617705Y-54267367D01*
X70434193Y-54360873D01*
X70267576Y-54481926D01*
X70267571Y-54481930D01*
X70121930Y-54627571D01*
X70121926Y-54627576D01*
X70000873Y-54794193D01*
X69907367Y-54977705D01*
X69843719Y-55173591D01*
X69811500Y-55377019D01*
X69811500Y-56382980D01*
X69843719Y-56586408D01*
X69907367Y-56782294D01*
X70000873Y-56965806D01*
X70121926Y-57132423D01*
X70121930Y-57132428D01*
X70267571Y-57278069D01*
X70267576Y-57278073D01*
X70376658Y-57357325D01*
X70434197Y-57399129D01*
X70551128Y-57458709D01*
X70617705Y-57492632D01*
X70617707Y-57492632D01*
X70617710Y-57492634D01*
X70722707Y-57526749D01*
X70813591Y-57556280D01*
X70827267Y-57558446D01*
X71017019Y-57588500D01*
X71017020Y-57588500D01*
X71222980Y-57588500D01*
X71222981Y-57588500D01*
X71426408Y-57556280D01*
X71622290Y-57492634D01*
X71805803Y-57399129D01*
X71972430Y-57278068D01*
X72118068Y-57132430D01*
X72239129Y-56965803D01*
X72279515Y-56886540D01*
X72327490Y-56835745D01*
X72395311Y-56818950D01*
X72461446Y-56841487D01*
X72500485Y-56886541D01*
X72540873Y-56965806D01*
X72661926Y-57132423D01*
X72661930Y-57132428D01*
X72715181Y-57185679D01*
X72729884Y-57212606D01*
X72746477Y-57238425D01*
X72747368Y-57244625D01*
X72748666Y-57247002D01*
X72751500Y-57273360D01*
X72751500Y-57357325D01*
X72731815Y-57424364D01*
X72715181Y-57445006D01*
X72177006Y-57983181D01*
X72115683Y-58016666D01*
X72089325Y-58019500D01*
X68490520Y-58019500D01*
X68461397Y-58025292D01*
X68461396Y-58025291D01*
X68315005Y-58054411D01*
X68314999Y-58054413D01*
X68149667Y-58122896D01*
X68149657Y-58122901D01*
X68011323Y-58215333D01*
X68011324Y-58215334D01*
X68000860Y-58222325D01*
X66350324Y-59872861D01*
X66350321Y-59872865D01*
X66250900Y-60021657D01*
X66250893Y-60021670D01*
X66214920Y-60108520D01*
X66182414Y-60186995D01*
X66182411Y-60187007D01*
X66147500Y-60362516D01*
X66147500Y-70946325D01*
X66127815Y-71013364D01*
X66111181Y-71034006D01*
X64938006Y-72207181D01*
X64876683Y-72240666D01*
X64850325Y-72243500D01*
X59413360Y-72243500D01*
X59346321Y-72223815D01*
X59325679Y-72207181D01*
X59272428Y-72153930D01*
X59272423Y-72153926D01*
X59105806Y-72032873D01*
X59105805Y-72032872D01*
X59105803Y-72032871D01*
X59048496Y-72003671D01*
X58922294Y-71939367D01*
X58754757Y-71884931D01*
X58697082Y-71845493D01*
X58669884Y-71781134D01*
X58681799Y-71712288D01*
X58729043Y-71660812D01*
X58754757Y-71649069D01*
X58785923Y-71638942D01*
X58922290Y-71594634D01*
X59105803Y-71501129D01*
X59272430Y-71380068D01*
X59325679Y-71326819D01*
X59387002Y-71293334D01*
X59413360Y-71290500D01*
X61561350Y-71290500D01*
X61628389Y-71310185D01*
X61649031Y-71326819D01*
X61664142Y-71341930D01*
X61824402Y-71458366D01*
X61834445Y-71463483D01*
X62000898Y-71548296D01*
X62000900Y-71548296D01*
X62000903Y-71548298D01*
X62080027Y-71574007D01*
X62189299Y-71609512D01*
X62384949Y-71640500D01*
X62384954Y-71640500D01*
X62583051Y-71640500D01*
X62778700Y-71609512D01*
X62967097Y-71548298D01*
X63143598Y-71458366D01*
X63303858Y-71341930D01*
X63443930Y-71201858D01*
X63560366Y-71041598D01*
X63650298Y-70865097D01*
X63711512Y-70676700D01*
X63729640Y-70562244D01*
X63742500Y-70481051D01*
X63742500Y-70282948D01*
X63711512Y-70087299D01*
X63650296Y-69898898D01*
X63560365Y-69722401D01*
X63443930Y-69562142D01*
X63303858Y-69422070D01*
X63143598Y-69305634D01*
X63139229Y-69303408D01*
X62967101Y-69215703D01*
X62778700Y-69154487D01*
X62583051Y-69123500D01*
X62583046Y-69123500D01*
X62384954Y-69123500D01*
X62384949Y-69123500D01*
X62189299Y-69154487D01*
X62000898Y-69215703D01*
X61824401Y-69305634D01*
X61732967Y-69372065D01*
X61664142Y-69422070D01*
X61664140Y-69422072D01*
X61664139Y-69422072D01*
X61649031Y-69437181D01*
X61587708Y-69470666D01*
X61561350Y-69473500D01*
X59413360Y-69473500D01*
X59346321Y-69453815D01*
X59325679Y-69437181D01*
X59272428Y-69383930D01*
X59272423Y-69383926D01*
X59105806Y-69262873D01*
X59105805Y-69262872D01*
X59105803Y-69262871D01*
X59048496Y-69233671D01*
X58922294Y-69169367D01*
X58754757Y-69114931D01*
X58697082Y-69075493D01*
X58669884Y-69011134D01*
X58681799Y-68942288D01*
X58729043Y-68890812D01*
X58754757Y-68879069D01*
X58785923Y-68868942D01*
X58922290Y-68824634D01*
X59105803Y-68731129D01*
X59272430Y-68610068D01*
X59418068Y-68464430D01*
X59539129Y-68297803D01*
X59632634Y-68114290D01*
X59696280Y-67918408D01*
X59728500Y-67714981D01*
X59728500Y-67509019D01*
X59712043Y-67405116D01*
X59696280Y-67305591D01*
X59632632Y-67109705D01*
X59598709Y-67043128D01*
X59539129Y-66926197D01*
X59480930Y-66846092D01*
X59418073Y-66759576D01*
X59418069Y-66759571D01*
X59272428Y-66613930D01*
X59272423Y-66613926D01*
X59105806Y-66492873D01*
X59105805Y-66492872D01*
X59105803Y-66492871D01*
X59048496Y-66463671D01*
X58922294Y-66399367D01*
X58754757Y-66344931D01*
X58697082Y-66305493D01*
X58669884Y-66241134D01*
X58681799Y-66172288D01*
X58729043Y-66120812D01*
X58754757Y-66109069D01*
X58785923Y-66098942D01*
X58922290Y-66054634D01*
X59105803Y-65961129D01*
X59272430Y-65840068D01*
X59418068Y-65694430D01*
X59539129Y-65527803D01*
X59632634Y-65344290D01*
X59696280Y-65148408D01*
X59728500Y-64944981D01*
X59728500Y-64739019D01*
X59696280Y-64535592D01*
X59632634Y-64339710D01*
X59632632Y-64339707D01*
X59632632Y-64339705D01*
X59598709Y-64273128D01*
X59539129Y-64156197D01*
X59427811Y-64002980D01*
X59418073Y-63989576D01*
X59418069Y-63989571D01*
X59272428Y-63843930D01*
X59272423Y-63843926D01*
X59105806Y-63722873D01*
X59105805Y-63722872D01*
X59105803Y-63722871D01*
X59048496Y-63693671D01*
X58922294Y-63629367D01*
X58726408Y-63565719D01*
X58550794Y-63537905D01*
X58522981Y-63533500D01*
X58317019Y-63533500D01*
X58292550Y-63537375D01*
X58113591Y-63565719D01*
X57917705Y-63629367D01*
X57734193Y-63722873D01*
X57567576Y-63843926D01*
X57567571Y-63843930D01*
X57421930Y-63989571D01*
X57421926Y-63989576D01*
X57300873Y-64156193D01*
X57207367Y-64339705D01*
X57143719Y-64535591D01*
X57111500Y-64739019D01*
X48360500Y-64739019D01*
X48360500Y-57771598D01*
X54500000Y-57771598D01*
X54500000Y-58052401D01*
X54531437Y-58331412D01*
X54531439Y-58331424D01*
X54593921Y-58605178D01*
X54593922Y-58605180D01*
X54686662Y-58870217D01*
X54808492Y-59123200D01*
X54957884Y-59360956D01*
X55064187Y-59494257D01*
X55705747Y-58852697D01*
X55779588Y-58954330D01*
X55957670Y-59132412D01*
X56059300Y-59206251D01*
X55417741Y-59847810D01*
X55417741Y-59847811D01*
X55551043Y-59954115D01*
X55788799Y-60103507D01*
X56041782Y-60225337D01*
X56306819Y-60318077D01*
X56306821Y-60318078D01*
X56580575Y-60380560D01*
X56580587Y-60380562D01*
X56859598Y-60411999D01*
X56859600Y-60412000D01*
X57140400Y-60412000D01*
X57140401Y-60411999D01*
X57419412Y-60380562D01*
X57419424Y-60380560D01*
X57693178Y-60318078D01*
X57693180Y-60318077D01*
X57958217Y-60225337D01*
X58211200Y-60103507D01*
X58448956Y-59954116D01*
X58582257Y-59847810D01*
X57940698Y-59206251D01*
X58042330Y-59132412D01*
X58220412Y-58954330D01*
X58294251Y-58852698D01*
X58935810Y-59494257D01*
X59042116Y-59360956D01*
X59191507Y-59123200D01*
X59313337Y-58870217D01*
X59406077Y-58605180D01*
X59406078Y-58605178D01*
X59468560Y-58331424D01*
X59468562Y-58331412D01*
X59499999Y-58052401D01*
X59500000Y-58052399D01*
X59500000Y-57771600D01*
X59499999Y-57771598D01*
X59468562Y-57492587D01*
X59468560Y-57492575D01*
X59406078Y-57218821D01*
X59406077Y-57218819D01*
X59313337Y-56953782D01*
X59191507Y-56700799D01*
X59042115Y-56463043D01*
X58935810Y-56329741D01*
X58294251Y-56971300D01*
X58220412Y-56869670D01*
X58042330Y-56691588D01*
X57940697Y-56617747D01*
X58582257Y-55976187D01*
X58448956Y-55869884D01*
X58211200Y-55720492D01*
X57958217Y-55598662D01*
X57693180Y-55505922D01*
X57693178Y-55505921D01*
X57419424Y-55443439D01*
X57419412Y-55443437D01*
X57140401Y-55412000D01*
X56859598Y-55412000D01*
X56580587Y-55443437D01*
X56580575Y-55443439D01*
X56306821Y-55505921D01*
X56306819Y-55505922D01*
X56041782Y-55598662D01*
X55788799Y-55720492D01*
X55551043Y-55869884D01*
X55417741Y-55976187D01*
X56059301Y-56617747D01*
X55957670Y-56691588D01*
X55779588Y-56869670D01*
X55705747Y-56971301D01*
X55064187Y-56329741D01*
X54957884Y-56463043D01*
X54808492Y-56700799D01*
X54686662Y-56953782D01*
X54593922Y-57218819D01*
X54593921Y-57218821D01*
X54531439Y-57492575D01*
X54531437Y-57492587D01*
X54500000Y-57771598D01*
X48360500Y-57771598D01*
X48360500Y-52294500D01*
X48380185Y-52227461D01*
X48432989Y-52181706D01*
X48484500Y-52170500D01*
X55899989Y-52170500D01*
X55899991Y-52170500D01*
X55936929Y-52155200D01*
X55965200Y-52126929D01*
X55980500Y-52089991D01*
X55980500Y-48157682D01*
X91410000Y-48157682D01*
X91410000Y-48362317D01*
X91442009Y-48564417D01*
X91505244Y-48759031D01*
X91598141Y-48941350D01*
X91598147Y-48941359D01*
X91630523Y-48985921D01*
X91630524Y-48985922D01*
X92310000Y-48306446D01*
X92310000Y-48312661D01*
X92337259Y-48414394D01*
X92389920Y-48505606D01*
X92464394Y-48580080D01*
X92555606Y-48632741D01*
X92657339Y-48660000D01*
X92663553Y-48660000D01*
X91984076Y-49339474D01*
X92028650Y-49371859D01*
X92210968Y-49464755D01*
X92405582Y-49527990D01*
X92607683Y-49560000D01*
X92812317Y-49560000D01*
X93014417Y-49527990D01*
X93209031Y-49464755D01*
X93391349Y-49371859D01*
X93435921Y-49339474D01*
X92756447Y-48660000D01*
X92762661Y-48660000D01*
X92864394Y-48632741D01*
X92955606Y-48580080D01*
X93030080Y-48505606D01*
X93082741Y-48414394D01*
X93110000Y-48312661D01*
X93110000Y-48306447D01*
X93789474Y-48985921D01*
X93821859Y-48941349D01*
X93914755Y-48759031D01*
X93977990Y-48564417D01*
X94010000Y-48362317D01*
X94010000Y-48157682D01*
X106650000Y-48157682D01*
X106650000Y-48362317D01*
X106682009Y-48564417D01*
X106745244Y-48759031D01*
X106838141Y-48941350D01*
X106838147Y-48941359D01*
X106870523Y-48985921D01*
X106870524Y-48985922D01*
X107550000Y-48306446D01*
X107550000Y-48312661D01*
X107577259Y-48414394D01*
X107629920Y-48505606D01*
X107704394Y-48580080D01*
X107795606Y-48632741D01*
X107897339Y-48660000D01*
X107903553Y-48660000D01*
X107224076Y-49339474D01*
X107268650Y-49371859D01*
X107450968Y-49464755D01*
X107645582Y-49527990D01*
X107847683Y-49560000D01*
X108052317Y-49560000D01*
X108254417Y-49527990D01*
X108449031Y-49464755D01*
X108631349Y-49371859D01*
X108675921Y-49339474D01*
X107996447Y-48660000D01*
X108002661Y-48660000D01*
X108104394Y-48632741D01*
X108195606Y-48580080D01*
X108270080Y-48505606D01*
X108322741Y-48414394D01*
X108350000Y-48312661D01*
X108350000Y-48306448D01*
X109029474Y-48985922D01*
X109029474Y-48985921D01*
X109061859Y-48941349D01*
X109154755Y-48759031D01*
X109217990Y-48564417D01*
X109250000Y-48362317D01*
X109250000Y-48157682D01*
X109217990Y-47955582D01*
X109154755Y-47760968D01*
X109061859Y-47578650D01*
X109029474Y-47534077D01*
X109029474Y-47534076D01*
X108350000Y-48213551D01*
X108350000Y-48207339D01*
X108322741Y-48105606D01*
X108270080Y-48014394D01*
X108195606Y-47939920D01*
X108104394Y-47887259D01*
X108002661Y-47860000D01*
X107996446Y-47860000D01*
X108675922Y-47180524D01*
X108675921Y-47180523D01*
X108631359Y-47148147D01*
X108631350Y-47148141D01*
X108449031Y-47055244D01*
X108254417Y-46992009D01*
X108052317Y-46960000D01*
X107847683Y-46960000D01*
X107645582Y-46992009D01*
X107450968Y-47055244D01*
X107268644Y-47148143D01*
X107224077Y-47180523D01*
X107224077Y-47180524D01*
X107903554Y-47860000D01*
X107897339Y-47860000D01*
X107795606Y-47887259D01*
X107704394Y-47939920D01*
X107629920Y-48014394D01*
X107577259Y-48105606D01*
X107550000Y-48207339D01*
X107550000Y-48213553D01*
X106870524Y-47534077D01*
X106870523Y-47534077D01*
X106838143Y-47578644D01*
X106745244Y-47760968D01*
X106682009Y-47955582D01*
X106650000Y-48157682D01*
X94010000Y-48157682D01*
X93977990Y-47955582D01*
X93914755Y-47760968D01*
X93821859Y-47578650D01*
X93789474Y-47534077D01*
X93789474Y-47534076D01*
X93110000Y-48213551D01*
X93110000Y-48207339D01*
X93082741Y-48105606D01*
X93030080Y-48014394D01*
X92955606Y-47939920D01*
X92864394Y-47887259D01*
X92762661Y-47860000D01*
X92756446Y-47860000D01*
X93435922Y-47180524D01*
X93435921Y-47180523D01*
X93391359Y-47148147D01*
X93391350Y-47148141D01*
X93209031Y-47055244D01*
X93014417Y-46992009D01*
X92812317Y-46960000D01*
X92607683Y-46960000D01*
X92405582Y-46992009D01*
X92210968Y-47055244D01*
X92028644Y-47148143D01*
X91984077Y-47180523D01*
X91984077Y-47180524D01*
X92663554Y-47860000D01*
X92657339Y-47860000D01*
X92555606Y-47887259D01*
X92464394Y-47939920D01*
X92389920Y-48014394D01*
X92337259Y-48105606D01*
X92310000Y-48207339D01*
X92310000Y-48213553D01*
X91630524Y-47534077D01*
X91630523Y-47534077D01*
X91598143Y-47578644D01*
X91505244Y-47760968D01*
X91442009Y-47955582D01*
X91410000Y-48157682D01*
X55980500Y-48157682D01*
X55980500Y-45585186D01*
X61099500Y-45585186D01*
X61099500Y-45854813D01*
X61129686Y-46122719D01*
X61129688Y-46122731D01*
X61189684Y-46385594D01*
X61189687Y-46385602D01*
X61278734Y-46640082D01*
X61395714Y-46882994D01*
X61395716Y-46882997D01*
X61539162Y-47111289D01*
X61707266Y-47322085D01*
X61897915Y-47512734D01*
X62108711Y-47680838D01*
X62337003Y-47824284D01*
X62579921Y-47941267D01*
X62771049Y-48008145D01*
X62834397Y-48030312D01*
X62834405Y-48030315D01*
X62834408Y-48030315D01*
X62834409Y-48030316D01*
X63097268Y-48090312D01*
X63365187Y-48120499D01*
X63365188Y-48120500D01*
X63365191Y-48120500D01*
X63634812Y-48120500D01*
X63634812Y-48120499D01*
X63902732Y-48090312D01*
X64165591Y-48030316D01*
X64420079Y-47941267D01*
X64662997Y-47824284D01*
X64891289Y-47680838D01*
X65102085Y-47512734D01*
X65292734Y-47322085D01*
X65460838Y-47111289D01*
X65604284Y-46882997D01*
X65721267Y-46640079D01*
X65810316Y-46385591D01*
X65870312Y-46122732D01*
X65900500Y-45854809D01*
X65900500Y-45585191D01*
X65870312Y-45317268D01*
X65810316Y-45054409D01*
X65721267Y-44799921D01*
X65604284Y-44557003D01*
X65460838Y-44328711D01*
X65292734Y-44117915D01*
X65102085Y-43927266D01*
X64891289Y-43759162D01*
X64662997Y-43615716D01*
X64662994Y-43615714D01*
X64420082Y-43498734D01*
X64165602Y-43409687D01*
X64165594Y-43409684D01*
X63968446Y-43364687D01*
X63902732Y-43349688D01*
X63902728Y-43349687D01*
X63902719Y-43349686D01*
X63634813Y-43319500D01*
X63634809Y-43319500D01*
X63365191Y-43319500D01*
X63365186Y-43319500D01*
X63097280Y-43349686D01*
X63097268Y-43349688D01*
X62834405Y-43409684D01*
X62834397Y-43409687D01*
X62579917Y-43498734D01*
X62337005Y-43615714D01*
X62108712Y-43759161D01*
X61897915Y-43927265D01*
X61707265Y-44117915D01*
X61539161Y-44328712D01*
X61395714Y-44557005D01*
X61278734Y-44799917D01*
X61189687Y-45054397D01*
X61189684Y-45054405D01*
X61129688Y-45317268D01*
X61129686Y-45317280D01*
X61099500Y-45585186D01*
X55980500Y-45585186D01*
X55980500Y-41775186D01*
X127139500Y-41775186D01*
X127139500Y-42044813D01*
X127169686Y-42312719D01*
X127169688Y-42312731D01*
X127229684Y-42575594D01*
X127229687Y-42575602D01*
X127318734Y-42830082D01*
X127435714Y-43072994D01*
X127435716Y-43072997D01*
X127579162Y-43301289D01*
X127747266Y-43512085D01*
X127937915Y-43702734D01*
X128148711Y-43870838D01*
X128377003Y-44014284D01*
X128619921Y-44131267D01*
X128811049Y-44198145D01*
X128874397Y-44220312D01*
X128874405Y-44220315D01*
X128874408Y-44220315D01*
X128874409Y-44220316D01*
X129137268Y-44280312D01*
X129405187Y-44310499D01*
X129405188Y-44310500D01*
X129405191Y-44310500D01*
X129674812Y-44310500D01*
X129674812Y-44310499D01*
X129942732Y-44280312D01*
X130205591Y-44220316D01*
X130460079Y-44131267D01*
X130702997Y-44014284D01*
X130931289Y-43870838D01*
X131142085Y-43702734D01*
X131332734Y-43512085D01*
X131500838Y-43301289D01*
X131644284Y-43072997D01*
X131761267Y-42830079D01*
X131850316Y-42575591D01*
X131910312Y-42312732D01*
X131940500Y-42044809D01*
X131940500Y-41775191D01*
X131910312Y-41507268D01*
X131850316Y-41244409D01*
X131761267Y-40989921D01*
X131644284Y-40747003D01*
X131500838Y-40518711D01*
X131332734Y-40307915D01*
X131142085Y-40117266D01*
X130931289Y-39949162D01*
X130702997Y-39805716D01*
X130702994Y-39805714D01*
X130460082Y-39688734D01*
X130205602Y-39599687D01*
X130205594Y-39599684D01*
X130008446Y-39554687D01*
X129942732Y-39539688D01*
X129942728Y-39539687D01*
X129942719Y-39539686D01*
X129674813Y-39509500D01*
X129674809Y-39509500D01*
X129405191Y-39509500D01*
X129405186Y-39509500D01*
X129137280Y-39539686D01*
X129137268Y-39539688D01*
X128874405Y-39599684D01*
X128874397Y-39599687D01*
X128619917Y-39688734D01*
X128377005Y-39805714D01*
X128148712Y-39949161D01*
X127937915Y-40117265D01*
X127747265Y-40307915D01*
X127579161Y-40518712D01*
X127435714Y-40747005D01*
X127318734Y-40989917D01*
X127229687Y-41244397D01*
X127229684Y-41244405D01*
X127169688Y-41507268D01*
X127169686Y-41507280D01*
X127139500Y-41775186D01*
X55980500Y-41775186D01*
X55980500Y-35784500D01*
X56000185Y-35717461D01*
X56052989Y-35671706D01*
X56104500Y-35660500D01*
X139475500Y-35660500D01*
X139542539Y-35680185D01*
G37*
%TD.AperFunction*%
%TD*%
M02*
