M48
; DRILL file {KiCad 9.0.4} date 2026-03-20T10:28:44+0100
; FORMAT={-:-/ absolute / metric / decimal}
; #@! TF.CreationDate,2026-03-20T10:28:44+01:00
; #@! TF.GenerationSoftware,Kicad,Pcbnew,9.0.4
; #@! TF.FileFunction,Plated,1,2,PTH
FMAT,2
METRIC
; #@! TA.AperFunction,Plated,PTH,ComponentDrill
T1C0.700
; #@! TA.AperFunction,Plated,PTH,ViaDrill
T2C0.800
; #@! TA.AperFunction,Plated,PTH,ComponentDrill
T3C0.800
; #@! TA.AperFunction,Plated,PTH,ComponentDrill
T4C0.900
; #@! TA.AperFunction,Plated,PTH,ComponentDrill
T5C1.000
; #@! TA.AperFunction,Plated,PTH,ComponentDrill
T6C3.200
%
G90
G05
T1
X92.69Y-67.31
X95.25Y-67.31
X107.95Y-67.31
X110.51Y-67.31
X123.17Y-67.31
X125.73Y-67.31
T2
X62.484Y-70.382
X62.484Y-106.172
X64.516Y-89.772
X66.929Y-84.201
X69.088Y-92.583
T3
X71.12Y-55.88
X71.12Y-63.5
X71.12Y-99.06
X71.12Y-106.68
X73.66Y-55.88
X73.66Y-63.5
X73.66Y-99.06
X73.66Y-106.68
X76.2Y-55.88
X76.2Y-63.5
X76.2Y-99.06
X76.2Y-106.68
X78.74Y-55.88
X78.74Y-63.5
X78.74Y-99.06
X78.74Y-106.68
X92.71Y-48.26
X92.71Y-60.96
X95.25Y-100.33
X95.25Y-113.03
X107.95Y-48.26
X107.95Y-60.96
X110.49Y-100.33
X110.49Y-113.03
X123.19Y-48.26
X123.19Y-60.96
X125.73Y-100.33
X125.73Y-113.03
T4
X92.715Y-92.25
X95.255Y-92.25
X107.955Y-92.115
X110.495Y-92.115
X123.195Y-92.115
X125.735Y-92.115
T5
X55.58Y-66.227
X55.58Y-68.997
X55.58Y-71.767
X55.58Y-74.537
X55.58Y-77.307
X55.58Y-80.077
X55.58Y-82.847
X55.58Y-85.617
X55.58Y-88.387
X55.58Y-91.157
X55.58Y-93.927
X55.58Y-96.697
X58.42Y-64.842
X58.42Y-67.612
X58.42Y-70.382
X58.42Y-73.152
X58.42Y-75.922
X58.42Y-78.692
X58.42Y-81.462
X58.42Y-84.232
X58.42Y-87.002
X58.42Y-89.772
X58.42Y-92.542
X58.42Y-95.312
X58.42Y-98.082
T6
X57.0Y-57.912
X57.0Y-105.012
M30
