%TF.GenerationSoftware,KiCad,Pcbnew,9.0.4*%
%TF.CreationDate,2026-03-20T10:28:43+01:00*%
%TF.ProjectId,phd_slave,7068645f-736c-4617-9665-2e6b69636164,rev?*%
%TF.SameCoordinates,Original*%
%TF.FileFunction,Soldermask,Bot*%
%TF.FilePolarity,Negative*%
%FSLAX46Y46*%
G04 Gerber Fmt 4.6, Leading zero omitted, Abs format (unit mm)*
G04 Created by KiCad (PCBNEW 9.0.4) date 2026-03-20 10:28:43*
%MOMM*%
%LPD*%
G01*
G04 APERTURE LIST*
G04 APERTURE END LIST*
G36*
X129969199Y-118492272D02*
G01*
X130247167Y-118566754D01*
X130513035Y-118676880D01*
X130762255Y-118820767D01*
X130990561Y-118995952D01*
X131194048Y-119199439D01*
X131369233Y-119427745D01*
X131513120Y-119676965D01*
X131623246Y-119942833D01*
X131697728Y-120220801D01*
X131735290Y-120506113D01*
X131735290Y-120793887D01*
X131697728Y-121079199D01*
X131623246Y-121357167D01*
X131513120Y-121623035D01*
X131369233Y-121872255D01*
X131194048Y-122100561D01*
X130990561Y-122304048D01*
X130762255Y-122479233D01*
X130513035Y-122623120D01*
X130247167Y-122733246D01*
X129969199Y-122807728D01*
X129683887Y-122845290D01*
X129396113Y-122845290D01*
X129110801Y-122807728D01*
X128832833Y-122733246D01*
X128566965Y-122623120D01*
X128317745Y-122479233D01*
X128089439Y-122304048D01*
X127885952Y-122100561D01*
X127710767Y-121872255D01*
X127566880Y-121623035D01*
X127456754Y-121357167D01*
X127382272Y-121079199D01*
X127344710Y-120793887D01*
X127344710Y-120506113D01*
X127382272Y-120220801D01*
X127456754Y-119942833D01*
X127566880Y-119676965D01*
X127710767Y-119427745D01*
X127885952Y-119199439D01*
X128089439Y-118995952D01*
X128317745Y-118820767D01*
X128566965Y-118676880D01*
X128832833Y-118566754D01*
X129110801Y-118492272D01*
X129396113Y-118454710D01*
X129683887Y-118454710D01*
X129969199Y-118492272D01*
G37*
G36*
X63929199Y-114682272D02*
G01*
X64207167Y-114756754D01*
X64473035Y-114866880D01*
X64722255Y-115010767D01*
X64950561Y-115185952D01*
X65154048Y-115389439D01*
X65329233Y-115617745D01*
X65473120Y-115866965D01*
X65583246Y-116132833D01*
X65657728Y-116410801D01*
X65695290Y-116696113D01*
X65695290Y-116983887D01*
X65657728Y-117269199D01*
X65583246Y-117547167D01*
X65473120Y-117813035D01*
X65329233Y-118062255D01*
X65154048Y-118290561D01*
X64950561Y-118494048D01*
X64722255Y-118669233D01*
X64473035Y-118813120D01*
X64207167Y-118923246D01*
X63929199Y-118997728D01*
X63643887Y-119035290D01*
X63356113Y-119035290D01*
X63070801Y-118997728D01*
X62792833Y-118923246D01*
X62526965Y-118813120D01*
X62277745Y-118669233D01*
X62049439Y-118494048D01*
X61845952Y-118290561D01*
X61670767Y-118062255D01*
X61526880Y-117813035D01*
X61416754Y-117547167D01*
X61342272Y-117269199D01*
X61304710Y-116983887D01*
X61304710Y-116696113D01*
X61342272Y-116410801D01*
X61416754Y-116132833D01*
X61526880Y-115866965D01*
X61670767Y-115617745D01*
X61845952Y-115389439D01*
X62049439Y-115185952D01*
X62277745Y-115010767D01*
X62526965Y-114866880D01*
X62792833Y-114756754D01*
X63070801Y-114682272D01*
X63356113Y-114644710D01*
X63643887Y-114644710D01*
X63929199Y-114682272D01*
G37*
G36*
X95496742Y-112216601D02*
G01*
X95650687Y-112280367D01*
X95789234Y-112372941D01*
X95907059Y-112490766D01*
X95999633Y-112629313D01*
X96063399Y-112783258D01*
X96095907Y-112946685D01*
X96095907Y-113113315D01*
X96063399Y-113276742D01*
X95999633Y-113430687D01*
X95907059Y-113569234D01*
X95789234Y-113687059D01*
X95650687Y-113779633D01*
X95496742Y-113843399D01*
X95333315Y-113875907D01*
X95166685Y-113875907D01*
X95003258Y-113843399D01*
X94849313Y-113779633D01*
X94710766Y-113687059D01*
X94592941Y-113569234D01*
X94500367Y-113430687D01*
X94436601Y-113276742D01*
X94404093Y-113113315D01*
X94404093Y-112946685D01*
X94436601Y-112783258D01*
X94500367Y-112629313D01*
X94592941Y-112490766D01*
X94710766Y-112372941D01*
X94849313Y-112280367D01*
X95003258Y-112216601D01*
X95166685Y-112184093D01*
X95333315Y-112184093D01*
X95496742Y-112216601D01*
G37*
G36*
X110736742Y-112216601D02*
G01*
X110890687Y-112280367D01*
X111029234Y-112372941D01*
X111147059Y-112490766D01*
X111239633Y-112629313D01*
X111303399Y-112783258D01*
X111335907Y-112946685D01*
X111335907Y-113113315D01*
X111303399Y-113276742D01*
X111239633Y-113430687D01*
X111147059Y-113569234D01*
X111029234Y-113687059D01*
X110890687Y-113779633D01*
X110736742Y-113843399D01*
X110573315Y-113875907D01*
X110406685Y-113875907D01*
X110243258Y-113843399D01*
X110089313Y-113779633D01*
X109950766Y-113687059D01*
X109832941Y-113569234D01*
X109740367Y-113430687D01*
X109676601Y-113276742D01*
X109644093Y-113113315D01*
X109644093Y-112946685D01*
X109676601Y-112783258D01*
X109740367Y-112629313D01*
X109832941Y-112490766D01*
X109950766Y-112372941D01*
X110089313Y-112280367D01*
X110243258Y-112216601D01*
X110406685Y-112184093D01*
X110573315Y-112184093D01*
X110736742Y-112216601D01*
G37*
G36*
X125976742Y-112216601D02*
G01*
X126130687Y-112280367D01*
X126269234Y-112372941D01*
X126387059Y-112490766D01*
X126479633Y-112629313D01*
X126543399Y-112783258D01*
X126575907Y-112946685D01*
X126575907Y-113113315D01*
X126543399Y-113276742D01*
X126479633Y-113430687D01*
X126387059Y-113569234D01*
X126269234Y-113687059D01*
X126130687Y-113779633D01*
X125976742Y-113843399D01*
X125813315Y-113875907D01*
X125646685Y-113875907D01*
X125483258Y-113843399D01*
X125329313Y-113779633D01*
X125190766Y-113687059D01*
X125072941Y-113569234D01*
X124980367Y-113430687D01*
X124916601Y-113276742D01*
X124884093Y-113113315D01*
X124884093Y-112946685D01*
X124916601Y-112783258D01*
X124980367Y-112629313D01*
X125072941Y-112490766D01*
X125190766Y-112372941D01*
X125329313Y-112280367D01*
X125483258Y-112216601D01*
X125646685Y-112184093D01*
X125813315Y-112184093D01*
X125976742Y-112216601D01*
G37*
G36*
X71738685Y-105437969D02*
G01*
X71754461Y-105444934D01*
X71762222Y-105446164D01*
X71794542Y-105462632D01*
X71839541Y-105482501D01*
X71917499Y-105560459D01*
X71937370Y-105605464D01*
X71953835Y-105637777D01*
X71955063Y-105645535D01*
X71962031Y-105661315D01*
X71970000Y-105730000D01*
X71970000Y-107630000D01*
X71962031Y-107698685D01*
X71955063Y-107714464D01*
X71953835Y-107722222D01*
X71937373Y-107754528D01*
X71917499Y-107799541D01*
X71839541Y-107877499D01*
X71794528Y-107897373D01*
X71762222Y-107913835D01*
X71754464Y-107915063D01*
X71738685Y-107922031D01*
X71670000Y-107930000D01*
X70570000Y-107930000D01*
X70501315Y-107922031D01*
X70485535Y-107915063D01*
X70477777Y-107913835D01*
X70445464Y-107897370D01*
X70400459Y-107877499D01*
X70322501Y-107799541D01*
X70302632Y-107754542D01*
X70286164Y-107722222D01*
X70284934Y-107714461D01*
X70277969Y-107698685D01*
X70270000Y-107630000D01*
X70270000Y-105730000D01*
X70277969Y-105661315D01*
X70284934Y-105645539D01*
X70286164Y-105637777D01*
X70302635Y-105605449D01*
X70322501Y-105560459D01*
X70400459Y-105482501D01*
X70445449Y-105462635D01*
X70477777Y-105446164D01*
X70485539Y-105444934D01*
X70501315Y-105437969D01*
X70570000Y-105430000D01*
X71670000Y-105430000D01*
X71738685Y-105437969D01*
G37*
G36*
X73906742Y-105466601D02*
G01*
X74060687Y-105530367D01*
X74199234Y-105622941D01*
X74317059Y-105740766D01*
X74409633Y-105879313D01*
X74473399Y-106033258D01*
X74505907Y-106196685D01*
X74510000Y-106280000D01*
X74510000Y-107080000D01*
X74505907Y-107163315D01*
X74473399Y-107326742D01*
X74409633Y-107480687D01*
X74317059Y-107619234D01*
X74199234Y-107737059D01*
X74060687Y-107829633D01*
X73906742Y-107893399D01*
X73743315Y-107925907D01*
X73576685Y-107925907D01*
X73413258Y-107893399D01*
X73259313Y-107829633D01*
X73120766Y-107737059D01*
X73002941Y-107619234D01*
X72910367Y-107480687D01*
X72846601Y-107326742D01*
X72814093Y-107163315D01*
X72810000Y-107080000D01*
X72810000Y-106280000D01*
X72814093Y-106196685D01*
X72846601Y-106033258D01*
X72910367Y-105879313D01*
X73002941Y-105740766D01*
X73120766Y-105622941D01*
X73259313Y-105530367D01*
X73413258Y-105466601D01*
X73576685Y-105434093D01*
X73743315Y-105434093D01*
X73906742Y-105466601D01*
G37*
G36*
X76446742Y-105466601D02*
G01*
X76600687Y-105530367D01*
X76739234Y-105622941D01*
X76857059Y-105740766D01*
X76949633Y-105879313D01*
X77013399Y-106033258D01*
X77045907Y-106196685D01*
X77050000Y-106280000D01*
X77050000Y-107080000D01*
X77045907Y-107163315D01*
X77013399Y-107326742D01*
X76949633Y-107480687D01*
X76857059Y-107619234D01*
X76739234Y-107737059D01*
X76600687Y-107829633D01*
X76446742Y-107893399D01*
X76283315Y-107925907D01*
X76116685Y-107925907D01*
X75953258Y-107893399D01*
X75799313Y-107829633D01*
X75660766Y-107737059D01*
X75542941Y-107619234D01*
X75450367Y-107480687D01*
X75386601Y-107326742D01*
X75354093Y-107163315D01*
X75350000Y-107080000D01*
X75350000Y-106280000D01*
X75354093Y-106196685D01*
X75386601Y-106033258D01*
X75450367Y-105879313D01*
X75542941Y-105740766D01*
X75660766Y-105622941D01*
X75799313Y-105530367D01*
X75953258Y-105466601D01*
X76116685Y-105434093D01*
X76283315Y-105434093D01*
X76446742Y-105466601D01*
G37*
G36*
X78986742Y-105466601D02*
G01*
X79140687Y-105530367D01*
X79279234Y-105622941D01*
X79397059Y-105740766D01*
X79489633Y-105879313D01*
X79553399Y-106033258D01*
X79585907Y-106196685D01*
X79590000Y-106280000D01*
X79590000Y-107080000D01*
X79585907Y-107163315D01*
X79553399Y-107326742D01*
X79489633Y-107480687D01*
X79397059Y-107619234D01*
X79279234Y-107737059D01*
X79140687Y-107829633D01*
X78986742Y-107893399D01*
X78823315Y-107925907D01*
X78656685Y-107925907D01*
X78493258Y-107893399D01*
X78339313Y-107829633D01*
X78200766Y-107737059D01*
X78082941Y-107619234D01*
X77990367Y-107480687D01*
X77926601Y-107326742D01*
X77894093Y-107163315D01*
X77890000Y-107080000D01*
X77890000Y-106280000D01*
X77894093Y-106196685D01*
X77926601Y-106033258D01*
X77990367Y-105879313D01*
X78082941Y-105740766D01*
X78200766Y-105622941D01*
X78339313Y-105530367D01*
X78493258Y-105466601D01*
X78656685Y-105434093D01*
X78823315Y-105434093D01*
X78986742Y-105466601D01*
G37*
G36*
X57399935Y-103001390D02*
G01*
X57658951Y-103070793D01*
X57906692Y-103173411D01*
X58138919Y-103307487D01*
X58351659Y-103470728D01*
X58541272Y-103660341D01*
X58704513Y-103873081D01*
X58838589Y-104105308D01*
X58941207Y-104353049D01*
X59010610Y-104612065D01*
X59045611Y-104877924D01*
X59045611Y-105146076D01*
X59010610Y-105411935D01*
X58941207Y-105670951D01*
X58838589Y-105918692D01*
X58704513Y-106150919D01*
X58541272Y-106363659D01*
X58351659Y-106553272D01*
X58138919Y-106716513D01*
X57906692Y-106850589D01*
X57658951Y-106953207D01*
X57399935Y-107022610D01*
X57134076Y-107057611D01*
X56865924Y-107057611D01*
X56600065Y-107022610D01*
X56341049Y-106953207D01*
X56093308Y-106850589D01*
X55861081Y-106716513D01*
X55648341Y-106553272D01*
X55458728Y-106363659D01*
X55295487Y-106150919D01*
X55161411Y-105918692D01*
X55058793Y-105670951D01*
X54989390Y-105411935D01*
X54954389Y-105146076D01*
X54954389Y-104877924D01*
X54989390Y-104612065D01*
X55058793Y-104353049D01*
X55161411Y-104105308D01*
X55295487Y-103873081D01*
X55458728Y-103660341D01*
X55648341Y-103470728D01*
X55861081Y-103307487D01*
X56093308Y-103173411D01*
X56341049Y-103070793D01*
X56600065Y-103001390D01*
X56865924Y-102966389D01*
X57134076Y-102966389D01*
X57399935Y-103001390D01*
G37*
G36*
X95496742Y-99516601D02*
G01*
X95650687Y-99580367D01*
X95789234Y-99672941D01*
X95907059Y-99790766D01*
X95999633Y-99929313D01*
X96063399Y-100083258D01*
X96095907Y-100246685D01*
X96095907Y-100413315D01*
X96063399Y-100576742D01*
X95999633Y-100730687D01*
X95907059Y-100869234D01*
X95789234Y-100987059D01*
X95650687Y-101079633D01*
X95496742Y-101143399D01*
X95333315Y-101175907D01*
X95166685Y-101175907D01*
X95003258Y-101143399D01*
X94849313Y-101079633D01*
X94710766Y-100987059D01*
X94592941Y-100869234D01*
X94500367Y-100730687D01*
X94436601Y-100576742D01*
X94404093Y-100413315D01*
X94404093Y-100246685D01*
X94436601Y-100083258D01*
X94500367Y-99929313D01*
X94592941Y-99790766D01*
X94710766Y-99672941D01*
X94849313Y-99580367D01*
X95003258Y-99516601D01*
X95166685Y-99484093D01*
X95333315Y-99484093D01*
X95496742Y-99516601D01*
G37*
G36*
X110736742Y-99516601D02*
G01*
X110890687Y-99580367D01*
X111029234Y-99672941D01*
X111147059Y-99790766D01*
X111239633Y-99929313D01*
X111303399Y-100083258D01*
X111335907Y-100246685D01*
X111335907Y-100413315D01*
X111303399Y-100576742D01*
X111239633Y-100730687D01*
X111147059Y-100869234D01*
X111029234Y-100987059D01*
X110890687Y-101079633D01*
X110736742Y-101143399D01*
X110573315Y-101175907D01*
X110406685Y-101175907D01*
X110243258Y-101143399D01*
X110089313Y-101079633D01*
X109950766Y-100987059D01*
X109832941Y-100869234D01*
X109740367Y-100730687D01*
X109676601Y-100576742D01*
X109644093Y-100413315D01*
X109644093Y-100246685D01*
X109676601Y-100083258D01*
X109740367Y-99929313D01*
X109832941Y-99790766D01*
X109950766Y-99672941D01*
X110089313Y-99580367D01*
X110243258Y-99516601D01*
X110406685Y-99484093D01*
X110573315Y-99484093D01*
X110736742Y-99516601D01*
G37*
G36*
X125976742Y-99516601D02*
G01*
X126130687Y-99580367D01*
X126269234Y-99672941D01*
X126387059Y-99790766D01*
X126479633Y-99929313D01*
X126543399Y-100083258D01*
X126575907Y-100246685D01*
X126575907Y-100413315D01*
X126543399Y-100576742D01*
X126479633Y-100730687D01*
X126387059Y-100869234D01*
X126269234Y-100987059D01*
X126130687Y-101079633D01*
X125976742Y-101143399D01*
X125813315Y-101175907D01*
X125646685Y-101175907D01*
X125483258Y-101143399D01*
X125329313Y-101079633D01*
X125190766Y-100987059D01*
X125072941Y-100869234D01*
X124980367Y-100730687D01*
X124916601Y-100576742D01*
X124884093Y-100413315D01*
X124884093Y-100246685D01*
X124916601Y-100083258D01*
X124980367Y-99929313D01*
X125072941Y-99790766D01*
X125190766Y-99672941D01*
X125329313Y-99580367D01*
X125483258Y-99516601D01*
X125646685Y-99484093D01*
X125813315Y-99484093D01*
X125976742Y-99516601D01*
G37*
G36*
X71366742Y-97846601D02*
G01*
X71520687Y-97910367D01*
X71659234Y-98002941D01*
X71777059Y-98120766D01*
X71869633Y-98259313D01*
X71933399Y-98413258D01*
X71965907Y-98576685D01*
X71970000Y-98660000D01*
X71970000Y-99460000D01*
X71965907Y-99543315D01*
X71933399Y-99706742D01*
X71869633Y-99860687D01*
X71777059Y-99999234D01*
X71659234Y-100117059D01*
X71520687Y-100209633D01*
X71366742Y-100273399D01*
X71203315Y-100305907D01*
X71036685Y-100305907D01*
X70873258Y-100273399D01*
X70719313Y-100209633D01*
X70580766Y-100117059D01*
X70462941Y-99999234D01*
X70370367Y-99860687D01*
X70306601Y-99706742D01*
X70274093Y-99543315D01*
X70270000Y-99460000D01*
X70270000Y-98660000D01*
X70274093Y-98576685D01*
X70306601Y-98413258D01*
X70370367Y-98259313D01*
X70462941Y-98120766D01*
X70580766Y-98002941D01*
X70719313Y-97910367D01*
X70873258Y-97846601D01*
X71036685Y-97814093D01*
X71203315Y-97814093D01*
X71366742Y-97846601D01*
G37*
G36*
X73906742Y-97846601D02*
G01*
X74060687Y-97910367D01*
X74199234Y-98002941D01*
X74317059Y-98120766D01*
X74409633Y-98259313D01*
X74473399Y-98413258D01*
X74505907Y-98576685D01*
X74510000Y-98660000D01*
X74510000Y-99460000D01*
X74505907Y-99543315D01*
X74473399Y-99706742D01*
X74409633Y-99860687D01*
X74317059Y-99999234D01*
X74199234Y-100117059D01*
X74060687Y-100209633D01*
X73906742Y-100273399D01*
X73743315Y-100305907D01*
X73576685Y-100305907D01*
X73413258Y-100273399D01*
X73259313Y-100209633D01*
X73120766Y-100117059D01*
X73002941Y-99999234D01*
X72910367Y-99860687D01*
X72846601Y-99706742D01*
X72814093Y-99543315D01*
X72810000Y-99460000D01*
X72810000Y-98660000D01*
X72814093Y-98576685D01*
X72846601Y-98413258D01*
X72910367Y-98259313D01*
X73002941Y-98120766D01*
X73120766Y-98002941D01*
X73259313Y-97910367D01*
X73413258Y-97846601D01*
X73576685Y-97814093D01*
X73743315Y-97814093D01*
X73906742Y-97846601D01*
G37*
G36*
X76446742Y-97846601D02*
G01*
X76600687Y-97910367D01*
X76739234Y-98002941D01*
X76857059Y-98120766D01*
X76949633Y-98259313D01*
X77013399Y-98413258D01*
X77045907Y-98576685D01*
X77050000Y-98660000D01*
X77050000Y-99460000D01*
X77045907Y-99543315D01*
X77013399Y-99706742D01*
X76949633Y-99860687D01*
X76857059Y-99999234D01*
X76739234Y-100117059D01*
X76600687Y-100209633D01*
X76446742Y-100273399D01*
X76283315Y-100305907D01*
X76116685Y-100305907D01*
X75953258Y-100273399D01*
X75799313Y-100209633D01*
X75660766Y-100117059D01*
X75542941Y-99999234D01*
X75450367Y-99860687D01*
X75386601Y-99706742D01*
X75354093Y-99543315D01*
X75350000Y-99460000D01*
X75350000Y-98660000D01*
X75354093Y-98576685D01*
X75386601Y-98413258D01*
X75450367Y-98259313D01*
X75542941Y-98120766D01*
X75660766Y-98002941D01*
X75799313Y-97910367D01*
X75953258Y-97846601D01*
X76116685Y-97814093D01*
X76283315Y-97814093D01*
X76446742Y-97846601D01*
G37*
G36*
X78986742Y-97846601D02*
G01*
X79140687Y-97910367D01*
X79279234Y-98002941D01*
X79397059Y-98120766D01*
X79489633Y-98259313D01*
X79553399Y-98413258D01*
X79585907Y-98576685D01*
X79590000Y-98660000D01*
X79590000Y-99460000D01*
X79585907Y-99543315D01*
X79553399Y-99706742D01*
X79489633Y-99860687D01*
X79397059Y-99999234D01*
X79279234Y-100117059D01*
X79140687Y-100209633D01*
X78986742Y-100273399D01*
X78823315Y-100305907D01*
X78656685Y-100305907D01*
X78493258Y-100273399D01*
X78339313Y-100209633D01*
X78200766Y-100117059D01*
X78082941Y-99999234D01*
X77990367Y-99860687D01*
X77926601Y-99706742D01*
X77894093Y-99543315D01*
X77890000Y-99460000D01*
X77890000Y-98660000D01*
X77894093Y-98576685D01*
X77926601Y-98413258D01*
X77990367Y-98259313D01*
X78082941Y-98120766D01*
X78200766Y-98002941D01*
X78339313Y-97910367D01*
X78493258Y-97846601D01*
X78656685Y-97814093D01*
X78823315Y-97814093D01*
X78986742Y-97846601D01*
G37*
G36*
X59239134Y-97235806D02*
G01*
X59255355Y-97246645D01*
X59266194Y-97262866D01*
X59270000Y-97282000D01*
X59270000Y-98882000D01*
X59266194Y-98901134D01*
X59255355Y-98917355D01*
X59239134Y-98928194D01*
X59220000Y-98932000D01*
X57620000Y-98932000D01*
X57600866Y-98928194D01*
X57584645Y-98917355D01*
X57573806Y-98901134D01*
X57570000Y-98882000D01*
X57570000Y-97282000D01*
X57573806Y-97262866D01*
X57584645Y-97246645D01*
X57600866Y-97235806D01*
X57620000Y-97232000D01*
X59220000Y-97232000D01*
X59239134Y-97235806D01*
G37*
G36*
X55826742Y-95883601D02*
G01*
X55980687Y-95947367D01*
X56119234Y-96039941D01*
X56237059Y-96157766D01*
X56329633Y-96296313D01*
X56393399Y-96450258D01*
X56425907Y-96613685D01*
X56425907Y-96780315D01*
X56393399Y-96943742D01*
X56329633Y-97097687D01*
X56237059Y-97236234D01*
X56119234Y-97354059D01*
X55980687Y-97446633D01*
X55826742Y-97510399D01*
X55663315Y-97542907D01*
X55496685Y-97542907D01*
X55333258Y-97510399D01*
X55179313Y-97446633D01*
X55040766Y-97354059D01*
X54922941Y-97236234D01*
X54830367Y-97097687D01*
X54766601Y-96943742D01*
X54734093Y-96780315D01*
X54734093Y-96613685D01*
X54766601Y-96450258D01*
X54830367Y-96296313D01*
X54922941Y-96157766D01*
X55040766Y-96039941D01*
X55179313Y-95947367D01*
X55333258Y-95883601D01*
X55496685Y-95851093D01*
X55663315Y-95851093D01*
X55826742Y-95883601D01*
G37*
G36*
X58666742Y-94498601D02*
G01*
X58820687Y-94562367D01*
X58959234Y-94654941D01*
X59077059Y-94772766D01*
X59169633Y-94911313D01*
X59233399Y-95065258D01*
X59265907Y-95228685D01*
X59265907Y-95395315D01*
X59233399Y-95558742D01*
X59169633Y-95712687D01*
X59077059Y-95851234D01*
X58959234Y-95969059D01*
X58820687Y-96061633D01*
X58666742Y-96125399D01*
X58503315Y-96157907D01*
X58336685Y-96157907D01*
X58173258Y-96125399D01*
X58019313Y-96061633D01*
X57880766Y-95969059D01*
X57762941Y-95851234D01*
X57670367Y-95712687D01*
X57606601Y-95558742D01*
X57574093Y-95395315D01*
X57574093Y-95228685D01*
X57606601Y-95065258D01*
X57670367Y-94911313D01*
X57762941Y-94772766D01*
X57880766Y-94654941D01*
X58019313Y-94562367D01*
X58173258Y-94498601D01*
X58336685Y-94466093D01*
X58503315Y-94466093D01*
X58666742Y-94498601D01*
G37*
G36*
X55826742Y-93113601D02*
G01*
X55980687Y-93177367D01*
X56119234Y-93269941D01*
X56237059Y-93387766D01*
X56329633Y-93526313D01*
X56393399Y-93680258D01*
X56425907Y-93843685D01*
X56425907Y-94010315D01*
X56393399Y-94173742D01*
X56329633Y-94327687D01*
X56237059Y-94466234D01*
X56119234Y-94584059D01*
X55980687Y-94676633D01*
X55826742Y-94740399D01*
X55663315Y-94772907D01*
X55496685Y-94772907D01*
X55333258Y-94740399D01*
X55179313Y-94676633D01*
X55040766Y-94584059D01*
X54922941Y-94466234D01*
X54830367Y-94327687D01*
X54766601Y-94173742D01*
X54734093Y-94010315D01*
X54734093Y-93843685D01*
X54766601Y-93680258D01*
X54830367Y-93526313D01*
X54922941Y-93387766D01*
X55040766Y-93269941D01*
X55179313Y-93177367D01*
X55333258Y-93113601D01*
X55496685Y-93081093D01*
X55663315Y-93081093D01*
X55826742Y-93113601D01*
G37*
G36*
X58666742Y-91728601D02*
G01*
X58820687Y-91792367D01*
X58959234Y-91884941D01*
X59077059Y-92002766D01*
X59169633Y-92141313D01*
X59233399Y-92295258D01*
X59265907Y-92458685D01*
X59265907Y-92625315D01*
X59233399Y-92788742D01*
X59169633Y-92942687D01*
X59077059Y-93081234D01*
X58959234Y-93199059D01*
X58820687Y-93291633D01*
X58666742Y-93355399D01*
X58503315Y-93387907D01*
X58336685Y-93387907D01*
X58173258Y-93355399D01*
X58019313Y-93291633D01*
X57880766Y-93199059D01*
X57762941Y-93081234D01*
X57670367Y-92942687D01*
X57606601Y-92788742D01*
X57574093Y-92625315D01*
X57574093Y-92458685D01*
X57606601Y-92295258D01*
X57670367Y-92141313D01*
X57762941Y-92002766D01*
X57880766Y-91884941D01*
X58019313Y-91792367D01*
X58173258Y-91728601D01*
X58336685Y-91696093D01*
X58503315Y-91696093D01*
X58666742Y-91728601D01*
G37*
G36*
X96174134Y-91303806D02*
G01*
X96190355Y-91314645D01*
X96201194Y-91330866D01*
X96205000Y-91350000D01*
X96205000Y-93150000D01*
X96201194Y-93169134D01*
X96190355Y-93185355D01*
X96174134Y-93196194D01*
X96155000Y-93200000D01*
X94355000Y-93200000D01*
X94335866Y-93196194D01*
X94319645Y-93185355D01*
X94308806Y-93169134D01*
X94305000Y-93150000D01*
X94305000Y-91350000D01*
X94308806Y-91330866D01*
X94319645Y-91314645D01*
X94335866Y-91303806D01*
X94355000Y-91300000D01*
X96155000Y-91300000D01*
X96174134Y-91303806D01*
G37*
G36*
X92797468Y-91304575D02*
G01*
X92808116Y-91304575D01*
X92849725Y-91312851D01*
X92936683Y-91326624D01*
X92964653Y-91335712D01*
X92990770Y-91340907D01*
X93027625Y-91356173D01*
X93078398Y-91372670D01*
X93125959Y-91396903D01*
X93162827Y-91412175D01*
X93184978Y-91426976D01*
X93211171Y-91440322D01*
X93282375Y-91492054D01*
X93317674Y-91515640D01*
X93325206Y-91523172D01*
X93331723Y-91527907D01*
X93437092Y-91633276D01*
X93441826Y-91639792D01*
X93449360Y-91647326D01*
X93472948Y-91682629D01*
X93524677Y-91753828D01*
X93538021Y-91780018D01*
X93552825Y-91802173D01*
X93568098Y-91839045D01*
X93592329Y-91886601D01*
X93608823Y-91937366D01*
X93624093Y-91974230D01*
X93629289Y-92000352D01*
X93638375Y-92028316D01*
X93652147Y-92115268D01*
X93660425Y-92156884D01*
X93660425Y-92167531D01*
X93661686Y-92175493D01*
X93661686Y-92324506D01*
X93660425Y-92332467D01*
X93660425Y-92343116D01*
X93652146Y-92384735D01*
X93638375Y-92471683D01*
X93629289Y-92499645D01*
X93624093Y-92525770D01*
X93608822Y-92562637D01*
X93592329Y-92613398D01*
X93568100Y-92660948D01*
X93552825Y-92697827D01*
X93538019Y-92719984D01*
X93524677Y-92746171D01*
X93472957Y-92817358D01*
X93449360Y-92852674D01*
X93441823Y-92860210D01*
X93437092Y-92866723D01*
X93331723Y-92972092D01*
X93325210Y-92976823D01*
X93317674Y-92984360D01*
X93282358Y-93007957D01*
X93211171Y-93059677D01*
X93184984Y-93073019D01*
X93162827Y-93087825D01*
X93125948Y-93103100D01*
X93078398Y-93127329D01*
X93027637Y-93143822D01*
X92990770Y-93159093D01*
X92964645Y-93164289D01*
X92936683Y-93173375D01*
X92849735Y-93187146D01*
X92808116Y-93195425D01*
X92797467Y-93195425D01*
X92789506Y-93196686D01*
X92640494Y-93196686D01*
X92632532Y-93195425D01*
X92621884Y-93195425D01*
X92580266Y-93187146D01*
X92493316Y-93173375D01*
X92465352Y-93164289D01*
X92439230Y-93159093D01*
X92402366Y-93143823D01*
X92351601Y-93127329D01*
X92304045Y-93103098D01*
X92267173Y-93087825D01*
X92245018Y-93073021D01*
X92218828Y-93059677D01*
X92147629Y-93007948D01*
X92112326Y-92984360D01*
X92104792Y-92976826D01*
X92098276Y-92972092D01*
X91992907Y-92866723D01*
X91988172Y-92860206D01*
X91980640Y-92852674D01*
X91957054Y-92817375D01*
X91905322Y-92746171D01*
X91891976Y-92719978D01*
X91877175Y-92697827D01*
X91861903Y-92660959D01*
X91837670Y-92613398D01*
X91821173Y-92562625D01*
X91805907Y-92525770D01*
X91800712Y-92499653D01*
X91791624Y-92471683D01*
X91777851Y-92384725D01*
X91769575Y-92343116D01*
X91769575Y-92332467D01*
X91768314Y-92324506D01*
X91768314Y-92175493D01*
X91769575Y-92167531D01*
X91769575Y-92156884D01*
X91777850Y-92115278D01*
X91791624Y-92028316D01*
X91800712Y-92000344D01*
X91805907Y-91974230D01*
X91821171Y-91937377D01*
X91837670Y-91886601D01*
X91861906Y-91839035D01*
X91877175Y-91802173D01*
X91891973Y-91780024D01*
X91905322Y-91753828D01*
X91957062Y-91682612D01*
X91980640Y-91647326D01*
X91988170Y-91639795D01*
X91992907Y-91633276D01*
X92098276Y-91527907D01*
X92104795Y-91523170D01*
X92112326Y-91515640D01*
X92147612Y-91492062D01*
X92218828Y-91440322D01*
X92245024Y-91426973D01*
X92267173Y-91412175D01*
X92304035Y-91396906D01*
X92351601Y-91372670D01*
X92402377Y-91356171D01*
X92439230Y-91340907D01*
X92465344Y-91335712D01*
X92493316Y-91326624D01*
X92580276Y-91312851D01*
X92621884Y-91304575D01*
X92632532Y-91304575D01*
X92640494Y-91303314D01*
X92789506Y-91303314D01*
X92797468Y-91304575D01*
G37*
G36*
X111414134Y-91168806D02*
G01*
X111430355Y-91179645D01*
X111441194Y-91195866D01*
X111445000Y-91215000D01*
X111445000Y-93015000D01*
X111441194Y-93034134D01*
X111430355Y-93050355D01*
X111414134Y-93061194D01*
X111395000Y-93065000D01*
X109595000Y-93065000D01*
X109575866Y-93061194D01*
X109559645Y-93050355D01*
X109548806Y-93034134D01*
X109545000Y-93015000D01*
X109545000Y-91215000D01*
X109548806Y-91195866D01*
X109559645Y-91179645D01*
X109575866Y-91168806D01*
X109595000Y-91165000D01*
X111395000Y-91165000D01*
X111414134Y-91168806D01*
G37*
G36*
X126654134Y-91168806D02*
G01*
X126670355Y-91179645D01*
X126681194Y-91195866D01*
X126685000Y-91215000D01*
X126685000Y-93015000D01*
X126681194Y-93034134D01*
X126670355Y-93050355D01*
X126654134Y-93061194D01*
X126635000Y-93065000D01*
X124835000Y-93065000D01*
X124815866Y-93061194D01*
X124799645Y-93050355D01*
X124788806Y-93034134D01*
X124785000Y-93015000D01*
X124785000Y-91215000D01*
X124788806Y-91195866D01*
X124799645Y-91179645D01*
X124815866Y-91168806D01*
X124835000Y-91165000D01*
X126635000Y-91165000D01*
X126654134Y-91168806D01*
G37*
G36*
X108037468Y-91169575D02*
G01*
X108048116Y-91169575D01*
X108089725Y-91177851D01*
X108176683Y-91191624D01*
X108204653Y-91200712D01*
X108230770Y-91205907D01*
X108267625Y-91221173D01*
X108318398Y-91237670D01*
X108365959Y-91261903D01*
X108402827Y-91277175D01*
X108424978Y-91291976D01*
X108451171Y-91305322D01*
X108522375Y-91357054D01*
X108557674Y-91380640D01*
X108565206Y-91388172D01*
X108571723Y-91392907D01*
X108677092Y-91498276D01*
X108681826Y-91504792D01*
X108689360Y-91512326D01*
X108712948Y-91547629D01*
X108764677Y-91618828D01*
X108778021Y-91645018D01*
X108792825Y-91667173D01*
X108808098Y-91704045D01*
X108832329Y-91751601D01*
X108848823Y-91802366D01*
X108864093Y-91839230D01*
X108869289Y-91865352D01*
X108878375Y-91893316D01*
X108892147Y-91980268D01*
X108900425Y-92021884D01*
X108900425Y-92032531D01*
X108901686Y-92040493D01*
X108901686Y-92189506D01*
X108900425Y-92197467D01*
X108900425Y-92208116D01*
X108892146Y-92249735D01*
X108878375Y-92336683D01*
X108869289Y-92364645D01*
X108864093Y-92390770D01*
X108848822Y-92427637D01*
X108832329Y-92478398D01*
X108808100Y-92525948D01*
X108792825Y-92562827D01*
X108778019Y-92584984D01*
X108764677Y-92611171D01*
X108712957Y-92682358D01*
X108689360Y-92717674D01*
X108681823Y-92725210D01*
X108677092Y-92731723D01*
X108571723Y-92837092D01*
X108565210Y-92841823D01*
X108557674Y-92849360D01*
X108522358Y-92872957D01*
X108451171Y-92924677D01*
X108424984Y-92938019D01*
X108402827Y-92952825D01*
X108365948Y-92968100D01*
X108318398Y-92992329D01*
X108267637Y-93008822D01*
X108230770Y-93024093D01*
X108204645Y-93029289D01*
X108176683Y-93038375D01*
X108089735Y-93052146D01*
X108048116Y-93060425D01*
X108037467Y-93060425D01*
X108029506Y-93061686D01*
X107880494Y-93061686D01*
X107872532Y-93060425D01*
X107861884Y-93060425D01*
X107820266Y-93052146D01*
X107733316Y-93038375D01*
X107705352Y-93029289D01*
X107679230Y-93024093D01*
X107642366Y-93008823D01*
X107591601Y-92992329D01*
X107544045Y-92968098D01*
X107507173Y-92952825D01*
X107485018Y-92938021D01*
X107458828Y-92924677D01*
X107387629Y-92872948D01*
X107352326Y-92849360D01*
X107344792Y-92841826D01*
X107338276Y-92837092D01*
X107232907Y-92731723D01*
X107228172Y-92725206D01*
X107220640Y-92717674D01*
X107197054Y-92682375D01*
X107145322Y-92611171D01*
X107131976Y-92584978D01*
X107117175Y-92562827D01*
X107101903Y-92525959D01*
X107077670Y-92478398D01*
X107061173Y-92427625D01*
X107045907Y-92390770D01*
X107040712Y-92364653D01*
X107031624Y-92336683D01*
X107017851Y-92249725D01*
X107009575Y-92208116D01*
X107009575Y-92197467D01*
X107008314Y-92189506D01*
X107008314Y-92040493D01*
X107009575Y-92032531D01*
X107009575Y-92021884D01*
X107017850Y-91980278D01*
X107031624Y-91893316D01*
X107040712Y-91865344D01*
X107045907Y-91839230D01*
X107061171Y-91802377D01*
X107077670Y-91751601D01*
X107101906Y-91704035D01*
X107117175Y-91667173D01*
X107131973Y-91645024D01*
X107145322Y-91618828D01*
X107197062Y-91547612D01*
X107220640Y-91512326D01*
X107228170Y-91504795D01*
X107232907Y-91498276D01*
X107338276Y-91392907D01*
X107344795Y-91388170D01*
X107352326Y-91380640D01*
X107387612Y-91357062D01*
X107458828Y-91305322D01*
X107485024Y-91291973D01*
X107507173Y-91277175D01*
X107544035Y-91261906D01*
X107591601Y-91237670D01*
X107642377Y-91221171D01*
X107679230Y-91205907D01*
X107705344Y-91200712D01*
X107733316Y-91191624D01*
X107820276Y-91177851D01*
X107861884Y-91169575D01*
X107872532Y-91169575D01*
X107880494Y-91168314D01*
X108029506Y-91168314D01*
X108037468Y-91169575D01*
G37*
G36*
X123277468Y-91169575D02*
G01*
X123288116Y-91169575D01*
X123329725Y-91177851D01*
X123416683Y-91191624D01*
X123444653Y-91200712D01*
X123470770Y-91205907D01*
X123507625Y-91221173D01*
X123558398Y-91237670D01*
X123605959Y-91261903D01*
X123642827Y-91277175D01*
X123664978Y-91291976D01*
X123691171Y-91305322D01*
X123762375Y-91357054D01*
X123797674Y-91380640D01*
X123805206Y-91388172D01*
X123811723Y-91392907D01*
X123917092Y-91498276D01*
X123921826Y-91504792D01*
X123929360Y-91512326D01*
X123952948Y-91547629D01*
X124004677Y-91618828D01*
X124018021Y-91645018D01*
X124032825Y-91667173D01*
X124048098Y-91704045D01*
X124072329Y-91751601D01*
X124088823Y-91802366D01*
X124104093Y-91839230D01*
X124109289Y-91865352D01*
X124118375Y-91893316D01*
X124132147Y-91980268D01*
X124140425Y-92021884D01*
X124140425Y-92032531D01*
X124141686Y-92040493D01*
X124141686Y-92189506D01*
X124140425Y-92197467D01*
X124140425Y-92208116D01*
X124132146Y-92249735D01*
X124118375Y-92336683D01*
X124109289Y-92364645D01*
X124104093Y-92390770D01*
X124088822Y-92427637D01*
X124072329Y-92478398D01*
X124048100Y-92525948D01*
X124032825Y-92562827D01*
X124018019Y-92584984D01*
X124004677Y-92611171D01*
X123952957Y-92682358D01*
X123929360Y-92717674D01*
X123921823Y-92725210D01*
X123917092Y-92731723D01*
X123811723Y-92837092D01*
X123805210Y-92841823D01*
X123797674Y-92849360D01*
X123762358Y-92872957D01*
X123691171Y-92924677D01*
X123664984Y-92938019D01*
X123642827Y-92952825D01*
X123605948Y-92968100D01*
X123558398Y-92992329D01*
X123507637Y-93008822D01*
X123470770Y-93024093D01*
X123444645Y-93029289D01*
X123416683Y-93038375D01*
X123329735Y-93052146D01*
X123288116Y-93060425D01*
X123277467Y-93060425D01*
X123269506Y-93061686D01*
X123120494Y-93061686D01*
X123112532Y-93060425D01*
X123101884Y-93060425D01*
X123060266Y-93052146D01*
X122973316Y-93038375D01*
X122945352Y-93029289D01*
X122919230Y-93024093D01*
X122882366Y-93008823D01*
X122831601Y-92992329D01*
X122784045Y-92968098D01*
X122747173Y-92952825D01*
X122725018Y-92938021D01*
X122698828Y-92924677D01*
X122627629Y-92872948D01*
X122592326Y-92849360D01*
X122584792Y-92841826D01*
X122578276Y-92837092D01*
X122472907Y-92731723D01*
X122468172Y-92725206D01*
X122460640Y-92717674D01*
X122437054Y-92682375D01*
X122385322Y-92611171D01*
X122371976Y-92584978D01*
X122357175Y-92562827D01*
X122341903Y-92525959D01*
X122317670Y-92478398D01*
X122301173Y-92427625D01*
X122285907Y-92390770D01*
X122280712Y-92364653D01*
X122271624Y-92336683D01*
X122257851Y-92249725D01*
X122249575Y-92208116D01*
X122249575Y-92197467D01*
X122248314Y-92189506D01*
X122248314Y-92040493D01*
X122249575Y-92032531D01*
X122249575Y-92021884D01*
X122257850Y-91980278D01*
X122271624Y-91893316D01*
X122280712Y-91865344D01*
X122285907Y-91839230D01*
X122301171Y-91802377D01*
X122317670Y-91751601D01*
X122341906Y-91704035D01*
X122357175Y-91667173D01*
X122371973Y-91645024D01*
X122385322Y-91618828D01*
X122437062Y-91547612D01*
X122460640Y-91512326D01*
X122468170Y-91504795D01*
X122472907Y-91498276D01*
X122578276Y-91392907D01*
X122584795Y-91388170D01*
X122592326Y-91380640D01*
X122627612Y-91357062D01*
X122698828Y-91305322D01*
X122725024Y-91291973D01*
X122747173Y-91277175D01*
X122784035Y-91261906D01*
X122831601Y-91237670D01*
X122882377Y-91221171D01*
X122919230Y-91205907D01*
X122945344Y-91200712D01*
X122973316Y-91191624D01*
X123060276Y-91177851D01*
X123101884Y-91169575D01*
X123112532Y-91169575D01*
X123120494Y-91168314D01*
X123269506Y-91168314D01*
X123277468Y-91169575D01*
G37*
G36*
X55826742Y-90343601D02*
G01*
X55980687Y-90407367D01*
X56119234Y-90499941D01*
X56237059Y-90617766D01*
X56329633Y-90756313D01*
X56393399Y-90910258D01*
X56425907Y-91073685D01*
X56425907Y-91240315D01*
X56393399Y-91403742D01*
X56329633Y-91557687D01*
X56237059Y-91696234D01*
X56119234Y-91814059D01*
X55980687Y-91906633D01*
X55826742Y-91970399D01*
X55663315Y-92002907D01*
X55496685Y-92002907D01*
X55333258Y-91970399D01*
X55179313Y-91906633D01*
X55040766Y-91814059D01*
X54922941Y-91696234D01*
X54830367Y-91557687D01*
X54766601Y-91403742D01*
X54734093Y-91240315D01*
X54734093Y-91073685D01*
X54766601Y-90910258D01*
X54830367Y-90756313D01*
X54922941Y-90617766D01*
X55040766Y-90499941D01*
X55179313Y-90407367D01*
X55333258Y-90343601D01*
X55496685Y-90311093D01*
X55663315Y-90311093D01*
X55826742Y-90343601D01*
G37*
G36*
X58666742Y-88958601D02*
G01*
X58820687Y-89022367D01*
X58959234Y-89114941D01*
X59077059Y-89232766D01*
X59169633Y-89371313D01*
X59233399Y-89525258D01*
X59265907Y-89688685D01*
X59265907Y-89855315D01*
X59233399Y-90018742D01*
X59169633Y-90172687D01*
X59077059Y-90311234D01*
X58959234Y-90429059D01*
X58820687Y-90521633D01*
X58666742Y-90585399D01*
X58503315Y-90617907D01*
X58336685Y-90617907D01*
X58173258Y-90585399D01*
X58019313Y-90521633D01*
X57880766Y-90429059D01*
X57762941Y-90311234D01*
X57670367Y-90172687D01*
X57606601Y-90018742D01*
X57574093Y-89855315D01*
X57574093Y-89688685D01*
X57606601Y-89525258D01*
X57670367Y-89371313D01*
X57762941Y-89232766D01*
X57880766Y-89114941D01*
X58019313Y-89022367D01*
X58173258Y-88958601D01*
X58336685Y-88926093D01*
X58503315Y-88926093D01*
X58666742Y-88958601D01*
G37*
G36*
X55826742Y-87573601D02*
G01*
X55980687Y-87637367D01*
X56119234Y-87729941D01*
X56237059Y-87847766D01*
X56329633Y-87986313D01*
X56393399Y-88140258D01*
X56425907Y-88303685D01*
X56425907Y-88470315D01*
X56393399Y-88633742D01*
X56329633Y-88787687D01*
X56237059Y-88926234D01*
X56119234Y-89044059D01*
X55980687Y-89136633D01*
X55826742Y-89200399D01*
X55663315Y-89232907D01*
X55496685Y-89232907D01*
X55333258Y-89200399D01*
X55179313Y-89136633D01*
X55040766Y-89044059D01*
X54922941Y-88926234D01*
X54830367Y-88787687D01*
X54766601Y-88633742D01*
X54734093Y-88470315D01*
X54734093Y-88303685D01*
X54766601Y-88140258D01*
X54830367Y-87986313D01*
X54922941Y-87847766D01*
X55040766Y-87729941D01*
X55179313Y-87637367D01*
X55333258Y-87573601D01*
X55496685Y-87541093D01*
X55663315Y-87541093D01*
X55826742Y-87573601D01*
G37*
G36*
X58666742Y-86188601D02*
G01*
X58820687Y-86252367D01*
X58959234Y-86344941D01*
X59077059Y-86462766D01*
X59169633Y-86601313D01*
X59233399Y-86755258D01*
X59265907Y-86918685D01*
X59265907Y-87085315D01*
X59233399Y-87248742D01*
X59169633Y-87402687D01*
X59077059Y-87541234D01*
X58959234Y-87659059D01*
X58820687Y-87751633D01*
X58666742Y-87815399D01*
X58503315Y-87847907D01*
X58336685Y-87847907D01*
X58173258Y-87815399D01*
X58019313Y-87751633D01*
X57880766Y-87659059D01*
X57762941Y-87541234D01*
X57670367Y-87402687D01*
X57606601Y-87248742D01*
X57574093Y-87085315D01*
X57574093Y-86918685D01*
X57606601Y-86755258D01*
X57670367Y-86601313D01*
X57762941Y-86462766D01*
X57880766Y-86344941D01*
X58019313Y-86252367D01*
X58173258Y-86188601D01*
X58336685Y-86156093D01*
X58503315Y-86156093D01*
X58666742Y-86188601D01*
G37*
G36*
X55826742Y-84803601D02*
G01*
X55980687Y-84867367D01*
X56119234Y-84959941D01*
X56237059Y-85077766D01*
X56329633Y-85216313D01*
X56393399Y-85370258D01*
X56425907Y-85533685D01*
X56425907Y-85700315D01*
X56393399Y-85863742D01*
X56329633Y-86017687D01*
X56237059Y-86156234D01*
X56119234Y-86274059D01*
X55980687Y-86366633D01*
X55826742Y-86430399D01*
X55663315Y-86462907D01*
X55496685Y-86462907D01*
X55333258Y-86430399D01*
X55179313Y-86366633D01*
X55040766Y-86274059D01*
X54922941Y-86156234D01*
X54830367Y-86017687D01*
X54766601Y-85863742D01*
X54734093Y-85700315D01*
X54734093Y-85533685D01*
X54766601Y-85370258D01*
X54830367Y-85216313D01*
X54922941Y-85077766D01*
X55040766Y-84959941D01*
X55179313Y-84867367D01*
X55333258Y-84803601D01*
X55496685Y-84771093D01*
X55663315Y-84771093D01*
X55826742Y-84803601D01*
G37*
G36*
X58666742Y-83418601D02*
G01*
X58820687Y-83482367D01*
X58959234Y-83574941D01*
X59077059Y-83692766D01*
X59169633Y-83831313D01*
X59233399Y-83985258D01*
X59265907Y-84148685D01*
X59265907Y-84315315D01*
X59233399Y-84478742D01*
X59169633Y-84632687D01*
X59077059Y-84771234D01*
X58959234Y-84889059D01*
X58820687Y-84981633D01*
X58666742Y-85045399D01*
X58503315Y-85077907D01*
X58336685Y-85077907D01*
X58173258Y-85045399D01*
X58019313Y-84981633D01*
X57880766Y-84889059D01*
X57762941Y-84771234D01*
X57670367Y-84632687D01*
X57606601Y-84478742D01*
X57574093Y-84315315D01*
X57574093Y-84148685D01*
X57606601Y-83985258D01*
X57670367Y-83831313D01*
X57762941Y-83692766D01*
X57880766Y-83574941D01*
X58019313Y-83482367D01*
X58173258Y-83418601D01*
X58336685Y-83386093D01*
X58503315Y-83386093D01*
X58666742Y-83418601D01*
G37*
G36*
X55826742Y-82033601D02*
G01*
X55980687Y-82097367D01*
X56119234Y-82189941D01*
X56237059Y-82307766D01*
X56329633Y-82446313D01*
X56393399Y-82600258D01*
X56425907Y-82763685D01*
X56425907Y-82930315D01*
X56393399Y-83093742D01*
X56329633Y-83247687D01*
X56237059Y-83386234D01*
X56119234Y-83504059D01*
X55980687Y-83596633D01*
X55826742Y-83660399D01*
X55663315Y-83692907D01*
X55496685Y-83692907D01*
X55333258Y-83660399D01*
X55179313Y-83596633D01*
X55040766Y-83504059D01*
X54922941Y-83386234D01*
X54830367Y-83247687D01*
X54766601Y-83093742D01*
X54734093Y-82930315D01*
X54734093Y-82763685D01*
X54766601Y-82600258D01*
X54830367Y-82446313D01*
X54922941Y-82307766D01*
X55040766Y-82189941D01*
X55179313Y-82097367D01*
X55333258Y-82033601D01*
X55496685Y-82001093D01*
X55663315Y-82001093D01*
X55826742Y-82033601D01*
G37*
G36*
X58666742Y-80648601D02*
G01*
X58820687Y-80712367D01*
X58959234Y-80804941D01*
X59077059Y-80922766D01*
X59169633Y-81061313D01*
X59233399Y-81215258D01*
X59265907Y-81378685D01*
X59265907Y-81545315D01*
X59233399Y-81708742D01*
X59169633Y-81862687D01*
X59077059Y-82001234D01*
X58959234Y-82119059D01*
X58820687Y-82211633D01*
X58666742Y-82275399D01*
X58503315Y-82307907D01*
X58336685Y-82307907D01*
X58173258Y-82275399D01*
X58019313Y-82211633D01*
X57880766Y-82119059D01*
X57762941Y-82001234D01*
X57670367Y-81862687D01*
X57606601Y-81708742D01*
X57574093Y-81545315D01*
X57574093Y-81378685D01*
X57606601Y-81215258D01*
X57670367Y-81061313D01*
X57762941Y-80922766D01*
X57880766Y-80804941D01*
X58019313Y-80712367D01*
X58173258Y-80648601D01*
X58336685Y-80616093D01*
X58503315Y-80616093D01*
X58666742Y-80648601D01*
G37*
G36*
X55826742Y-79263601D02*
G01*
X55980687Y-79327367D01*
X56119234Y-79419941D01*
X56237059Y-79537766D01*
X56329633Y-79676313D01*
X56393399Y-79830258D01*
X56425907Y-79993685D01*
X56425907Y-80160315D01*
X56393399Y-80323742D01*
X56329633Y-80477687D01*
X56237059Y-80616234D01*
X56119234Y-80734059D01*
X55980687Y-80826633D01*
X55826742Y-80890399D01*
X55663315Y-80922907D01*
X55496685Y-80922907D01*
X55333258Y-80890399D01*
X55179313Y-80826633D01*
X55040766Y-80734059D01*
X54922941Y-80616234D01*
X54830367Y-80477687D01*
X54766601Y-80323742D01*
X54734093Y-80160315D01*
X54734093Y-79993685D01*
X54766601Y-79830258D01*
X54830367Y-79676313D01*
X54922941Y-79537766D01*
X55040766Y-79419941D01*
X55179313Y-79327367D01*
X55333258Y-79263601D01*
X55496685Y-79231093D01*
X55663315Y-79231093D01*
X55826742Y-79263601D01*
G37*
G36*
X58666742Y-77878601D02*
G01*
X58820687Y-77942367D01*
X58959234Y-78034941D01*
X59077059Y-78152766D01*
X59169633Y-78291313D01*
X59233399Y-78445258D01*
X59265907Y-78608685D01*
X59265907Y-78775315D01*
X59233399Y-78938742D01*
X59169633Y-79092687D01*
X59077059Y-79231234D01*
X58959234Y-79349059D01*
X58820687Y-79441633D01*
X58666742Y-79505399D01*
X58503315Y-79537907D01*
X58336685Y-79537907D01*
X58173258Y-79505399D01*
X58019313Y-79441633D01*
X57880766Y-79349059D01*
X57762941Y-79231234D01*
X57670367Y-79092687D01*
X57606601Y-78938742D01*
X57574093Y-78775315D01*
X57574093Y-78608685D01*
X57606601Y-78445258D01*
X57670367Y-78291313D01*
X57762941Y-78152766D01*
X57880766Y-78034941D01*
X58019313Y-77942367D01*
X58173258Y-77878601D01*
X58336685Y-77846093D01*
X58503315Y-77846093D01*
X58666742Y-77878601D01*
G37*
G36*
X55826742Y-76493601D02*
G01*
X55980687Y-76557367D01*
X56119234Y-76649941D01*
X56237059Y-76767766D01*
X56329633Y-76906313D01*
X56393399Y-77060258D01*
X56425907Y-77223685D01*
X56425907Y-77390315D01*
X56393399Y-77553742D01*
X56329633Y-77707687D01*
X56237059Y-77846234D01*
X56119234Y-77964059D01*
X55980687Y-78056633D01*
X55826742Y-78120399D01*
X55663315Y-78152907D01*
X55496685Y-78152907D01*
X55333258Y-78120399D01*
X55179313Y-78056633D01*
X55040766Y-77964059D01*
X54922941Y-77846234D01*
X54830367Y-77707687D01*
X54766601Y-77553742D01*
X54734093Y-77390315D01*
X54734093Y-77223685D01*
X54766601Y-77060258D01*
X54830367Y-76906313D01*
X54922941Y-76767766D01*
X55040766Y-76649941D01*
X55179313Y-76557367D01*
X55333258Y-76493601D01*
X55496685Y-76461093D01*
X55663315Y-76461093D01*
X55826742Y-76493601D01*
G37*
G36*
X58666742Y-75108601D02*
G01*
X58820687Y-75172367D01*
X58959234Y-75264941D01*
X59077059Y-75382766D01*
X59169633Y-75521313D01*
X59233399Y-75675258D01*
X59265907Y-75838685D01*
X59265907Y-76005315D01*
X59233399Y-76168742D01*
X59169633Y-76322687D01*
X59077059Y-76461234D01*
X58959234Y-76579059D01*
X58820687Y-76671633D01*
X58666742Y-76735399D01*
X58503315Y-76767907D01*
X58336685Y-76767907D01*
X58173258Y-76735399D01*
X58019313Y-76671633D01*
X57880766Y-76579059D01*
X57762941Y-76461234D01*
X57670367Y-76322687D01*
X57606601Y-76168742D01*
X57574093Y-76005315D01*
X57574093Y-75838685D01*
X57606601Y-75675258D01*
X57670367Y-75521313D01*
X57762941Y-75382766D01*
X57880766Y-75264941D01*
X58019313Y-75172367D01*
X58173258Y-75108601D01*
X58336685Y-75076093D01*
X58503315Y-75076093D01*
X58666742Y-75108601D01*
G37*
G36*
X55826742Y-73723601D02*
G01*
X55980687Y-73787367D01*
X56119234Y-73879941D01*
X56237059Y-73997766D01*
X56329633Y-74136313D01*
X56393399Y-74290258D01*
X56425907Y-74453685D01*
X56425907Y-74620315D01*
X56393399Y-74783742D01*
X56329633Y-74937687D01*
X56237059Y-75076234D01*
X56119234Y-75194059D01*
X55980687Y-75286633D01*
X55826742Y-75350399D01*
X55663315Y-75382907D01*
X55496685Y-75382907D01*
X55333258Y-75350399D01*
X55179313Y-75286633D01*
X55040766Y-75194059D01*
X54922941Y-75076234D01*
X54830367Y-74937687D01*
X54766601Y-74783742D01*
X54734093Y-74620315D01*
X54734093Y-74453685D01*
X54766601Y-74290258D01*
X54830367Y-74136313D01*
X54922941Y-73997766D01*
X55040766Y-73879941D01*
X55179313Y-73787367D01*
X55333258Y-73723601D01*
X55496685Y-73691093D01*
X55663315Y-73691093D01*
X55826742Y-73723601D01*
G37*
G36*
X58666742Y-72338601D02*
G01*
X58820687Y-72402367D01*
X58959234Y-72494941D01*
X59077059Y-72612766D01*
X59169633Y-72751313D01*
X59233399Y-72905258D01*
X59265907Y-73068685D01*
X59265907Y-73235315D01*
X59233399Y-73398742D01*
X59169633Y-73552687D01*
X59077059Y-73691234D01*
X58959234Y-73809059D01*
X58820687Y-73901633D01*
X58666742Y-73965399D01*
X58503315Y-73997907D01*
X58336685Y-73997907D01*
X58173258Y-73965399D01*
X58019313Y-73901633D01*
X57880766Y-73809059D01*
X57762941Y-73691234D01*
X57670367Y-73552687D01*
X57606601Y-73398742D01*
X57574093Y-73235315D01*
X57574093Y-73068685D01*
X57606601Y-72905258D01*
X57670367Y-72751313D01*
X57762941Y-72612766D01*
X57880766Y-72494941D01*
X58019313Y-72402367D01*
X58173258Y-72338601D01*
X58336685Y-72306093D01*
X58503315Y-72306093D01*
X58666742Y-72338601D01*
G37*
G36*
X55826742Y-70953601D02*
G01*
X55980687Y-71017367D01*
X56119234Y-71109941D01*
X56237059Y-71227766D01*
X56329633Y-71366313D01*
X56393399Y-71520258D01*
X56425907Y-71683685D01*
X56425907Y-71850315D01*
X56393399Y-72013742D01*
X56329633Y-72167687D01*
X56237059Y-72306234D01*
X56119234Y-72424059D01*
X55980687Y-72516633D01*
X55826742Y-72580399D01*
X55663315Y-72612907D01*
X55496685Y-72612907D01*
X55333258Y-72580399D01*
X55179313Y-72516633D01*
X55040766Y-72424059D01*
X54922941Y-72306234D01*
X54830367Y-72167687D01*
X54766601Y-72013742D01*
X54734093Y-71850315D01*
X54734093Y-71683685D01*
X54766601Y-71520258D01*
X54830367Y-71366313D01*
X54922941Y-71227766D01*
X55040766Y-71109941D01*
X55179313Y-71017367D01*
X55333258Y-70953601D01*
X55496685Y-70921093D01*
X55663315Y-70921093D01*
X55826742Y-70953601D01*
G37*
G36*
X58666742Y-69568601D02*
G01*
X58820687Y-69632367D01*
X58959234Y-69724941D01*
X59077059Y-69842766D01*
X59169633Y-69981313D01*
X59233399Y-70135258D01*
X59265907Y-70298685D01*
X59265907Y-70465315D01*
X59233399Y-70628742D01*
X59169633Y-70782687D01*
X59077059Y-70921234D01*
X58959234Y-71039059D01*
X58820687Y-71131633D01*
X58666742Y-71195399D01*
X58503315Y-71227907D01*
X58336685Y-71227907D01*
X58173258Y-71195399D01*
X58019313Y-71131633D01*
X57880766Y-71039059D01*
X57762941Y-70921234D01*
X57670367Y-70782687D01*
X57606601Y-70628742D01*
X57574093Y-70465315D01*
X57574093Y-70298685D01*
X57606601Y-70135258D01*
X57670367Y-69981313D01*
X57762941Y-69842766D01*
X57880766Y-69724941D01*
X58019313Y-69632367D01*
X58173258Y-69568601D01*
X58336685Y-69536093D01*
X58503315Y-69536093D01*
X58666742Y-69568601D01*
G37*
G36*
X55826742Y-68183601D02*
G01*
X55980687Y-68247367D01*
X56119234Y-68339941D01*
X56237059Y-68457766D01*
X56329633Y-68596313D01*
X56393399Y-68750258D01*
X56425907Y-68913685D01*
X56425907Y-69080315D01*
X56393399Y-69243742D01*
X56329633Y-69397687D01*
X56237059Y-69536234D01*
X56119234Y-69654059D01*
X55980687Y-69746633D01*
X55826742Y-69810399D01*
X55663315Y-69842907D01*
X55496685Y-69842907D01*
X55333258Y-69810399D01*
X55179313Y-69746633D01*
X55040766Y-69654059D01*
X54922941Y-69536234D01*
X54830367Y-69397687D01*
X54766601Y-69243742D01*
X54734093Y-69080315D01*
X54734093Y-68913685D01*
X54766601Y-68750258D01*
X54830367Y-68596313D01*
X54922941Y-68457766D01*
X55040766Y-68339941D01*
X55179313Y-68247367D01*
X55333258Y-68183601D01*
X55496685Y-68151093D01*
X55663315Y-68151093D01*
X55826742Y-68183601D01*
G37*
G36*
X58666742Y-66798601D02*
G01*
X58820687Y-66862367D01*
X58959234Y-66954941D01*
X59077059Y-67072766D01*
X59169633Y-67211313D01*
X59233399Y-67365258D01*
X59265907Y-67528685D01*
X59265907Y-67695315D01*
X59233399Y-67858742D01*
X59169633Y-68012687D01*
X59077059Y-68151234D01*
X58959234Y-68269059D01*
X58820687Y-68361633D01*
X58666742Y-68425399D01*
X58503315Y-68457907D01*
X58336685Y-68457907D01*
X58173258Y-68425399D01*
X58019313Y-68361633D01*
X57880766Y-68269059D01*
X57762941Y-68151234D01*
X57670367Y-68012687D01*
X57606601Y-67858742D01*
X57574093Y-67695315D01*
X57574093Y-67528685D01*
X57606601Y-67365258D01*
X57670367Y-67211313D01*
X57762941Y-67072766D01*
X57880766Y-66954941D01*
X58019313Y-66862367D01*
X58173258Y-66798601D01*
X58336685Y-66766093D01*
X58503315Y-66766093D01*
X58666742Y-66798601D01*
G37*
G36*
X95769302Y-66567947D02*
G01*
X95785053Y-66574901D01*
X95792776Y-66576125D01*
X95824946Y-66592516D01*
X95869889Y-66612361D01*
X95947639Y-66690111D01*
X95967486Y-66735061D01*
X95983874Y-66767223D01*
X95985096Y-66774943D01*
X95992053Y-66790698D01*
X96000000Y-66859200D01*
X96000000Y-67760800D01*
X95992053Y-67829302D01*
X95985096Y-67845056D01*
X95983874Y-67852776D01*
X95967489Y-67884931D01*
X95947639Y-67929889D01*
X95869889Y-68007639D01*
X95824931Y-68027489D01*
X95792776Y-68043874D01*
X95785056Y-68045096D01*
X95769302Y-68052053D01*
X95700800Y-68060000D01*
X94799200Y-68060000D01*
X94730698Y-68052053D01*
X94714943Y-68045096D01*
X94707223Y-68043874D01*
X94675061Y-68027486D01*
X94630111Y-68007639D01*
X94552361Y-67929889D01*
X94532516Y-67884946D01*
X94516125Y-67852776D01*
X94514901Y-67845053D01*
X94507947Y-67829302D01*
X94500000Y-67760800D01*
X94500000Y-66859200D01*
X94507947Y-66790698D01*
X94514901Y-66774947D01*
X94516125Y-66767223D01*
X94532519Y-66735046D01*
X94552361Y-66690111D01*
X94630111Y-66612361D01*
X94675046Y-66592519D01*
X94707223Y-66576125D01*
X94714947Y-66574901D01*
X94730698Y-66567947D01*
X94799200Y-66560000D01*
X95700800Y-66560000D01*
X95769302Y-66567947D01*
G37*
G36*
X111029302Y-66567947D02*
G01*
X111045053Y-66574901D01*
X111052776Y-66576125D01*
X111084946Y-66592516D01*
X111129889Y-66612361D01*
X111207639Y-66690111D01*
X111227486Y-66735061D01*
X111243874Y-66767223D01*
X111245096Y-66774943D01*
X111252053Y-66790698D01*
X111260000Y-66859200D01*
X111260000Y-67760800D01*
X111252053Y-67829302D01*
X111245096Y-67845056D01*
X111243874Y-67852776D01*
X111227489Y-67884931D01*
X111207639Y-67929889D01*
X111129889Y-68007639D01*
X111084931Y-68027489D01*
X111052776Y-68043874D01*
X111045056Y-68045096D01*
X111029302Y-68052053D01*
X110960800Y-68060000D01*
X110059200Y-68060000D01*
X109990698Y-68052053D01*
X109974943Y-68045096D01*
X109967223Y-68043874D01*
X109935061Y-68027486D01*
X109890111Y-68007639D01*
X109812361Y-67929889D01*
X109792516Y-67884946D01*
X109776125Y-67852776D01*
X109774901Y-67845053D01*
X109767947Y-67829302D01*
X109760000Y-67760800D01*
X109760000Y-66859200D01*
X109767947Y-66790698D01*
X109774901Y-66774947D01*
X109776125Y-66767223D01*
X109792519Y-66735046D01*
X109812361Y-66690111D01*
X109890111Y-66612361D01*
X109935046Y-66592519D01*
X109967223Y-66576125D01*
X109974947Y-66574901D01*
X109990698Y-66567947D01*
X110059200Y-66560000D01*
X110960800Y-66560000D01*
X111029302Y-66567947D01*
G37*
G36*
X126249302Y-66567947D02*
G01*
X126265053Y-66574901D01*
X126272776Y-66576125D01*
X126304946Y-66592516D01*
X126349889Y-66612361D01*
X126427639Y-66690111D01*
X126447486Y-66735061D01*
X126463874Y-66767223D01*
X126465096Y-66774943D01*
X126472053Y-66790698D01*
X126480000Y-66859200D01*
X126480000Y-67760800D01*
X126472053Y-67829302D01*
X126465096Y-67845056D01*
X126463874Y-67852776D01*
X126447489Y-67884931D01*
X126427639Y-67929889D01*
X126349889Y-68007639D01*
X126304931Y-68027489D01*
X126272776Y-68043874D01*
X126265056Y-68045096D01*
X126249302Y-68052053D01*
X126180800Y-68060000D01*
X125279200Y-68060000D01*
X125210698Y-68052053D01*
X125194943Y-68045096D01*
X125187223Y-68043874D01*
X125155061Y-68027486D01*
X125110111Y-68007639D01*
X125032361Y-67929889D01*
X125012516Y-67884946D01*
X124996125Y-67852776D01*
X124994901Y-67845053D01*
X124987947Y-67829302D01*
X124980000Y-67760800D01*
X124980000Y-66859200D01*
X124987947Y-66790698D01*
X124994901Y-66774947D01*
X124996125Y-66767223D01*
X125012519Y-66735046D01*
X125032361Y-66690111D01*
X125110111Y-66612361D01*
X125155046Y-66592519D01*
X125187223Y-66576125D01*
X125194947Y-66574901D01*
X125210698Y-66567947D01*
X125279200Y-66560000D01*
X126180800Y-66560000D01*
X126249302Y-66567947D01*
G37*
G36*
X92907714Y-66592295D02*
G01*
X93043548Y-66648559D01*
X93165795Y-66730242D01*
X93269758Y-66834205D01*
X93351441Y-66956452D01*
X93407705Y-67092286D01*
X93436389Y-67236487D01*
X93436389Y-67383513D01*
X93407705Y-67527714D01*
X93351441Y-67663548D01*
X93269758Y-67785795D01*
X93165795Y-67889758D01*
X93043548Y-67971441D01*
X92907714Y-68027705D01*
X92763513Y-68056389D01*
X92616487Y-68056389D01*
X92472286Y-68027705D01*
X92336452Y-67971441D01*
X92214205Y-67889758D01*
X92110242Y-67785795D01*
X92028559Y-67663548D01*
X91972295Y-67527714D01*
X91943611Y-67383513D01*
X91943611Y-67236487D01*
X91972295Y-67092286D01*
X92028559Y-66956452D01*
X92110242Y-66834205D01*
X92214205Y-66730242D01*
X92336452Y-66648559D01*
X92472286Y-66592295D01*
X92616487Y-66563611D01*
X92763513Y-66563611D01*
X92907714Y-66592295D01*
G37*
G36*
X108167714Y-66592295D02*
G01*
X108303548Y-66648559D01*
X108425795Y-66730242D01*
X108529758Y-66834205D01*
X108611441Y-66956452D01*
X108667705Y-67092286D01*
X108696389Y-67236487D01*
X108696389Y-67383513D01*
X108667705Y-67527714D01*
X108611441Y-67663548D01*
X108529758Y-67785795D01*
X108425795Y-67889758D01*
X108303548Y-67971441D01*
X108167714Y-68027705D01*
X108023513Y-68056389D01*
X107876487Y-68056389D01*
X107732286Y-68027705D01*
X107596452Y-67971441D01*
X107474205Y-67889758D01*
X107370242Y-67785795D01*
X107288559Y-67663548D01*
X107232295Y-67527714D01*
X107203611Y-67383513D01*
X107203611Y-67236487D01*
X107232295Y-67092286D01*
X107288559Y-66956452D01*
X107370242Y-66834205D01*
X107474205Y-66730242D01*
X107596452Y-66648559D01*
X107732286Y-66592295D01*
X107876487Y-66563611D01*
X108023513Y-66563611D01*
X108167714Y-66592295D01*
G37*
G36*
X123387714Y-66592295D02*
G01*
X123523548Y-66648559D01*
X123645795Y-66730242D01*
X123749758Y-66834205D01*
X123831441Y-66956452D01*
X123887705Y-67092286D01*
X123916389Y-67236487D01*
X123916389Y-67383513D01*
X123887705Y-67527714D01*
X123831441Y-67663548D01*
X123749758Y-67785795D01*
X123645795Y-67889758D01*
X123523548Y-67971441D01*
X123387714Y-68027705D01*
X123243513Y-68056389D01*
X123096487Y-68056389D01*
X122952286Y-68027705D01*
X122816452Y-67971441D01*
X122694205Y-67889758D01*
X122590242Y-67785795D01*
X122508559Y-67663548D01*
X122452295Y-67527714D01*
X122423611Y-67383513D01*
X122423611Y-67236487D01*
X122452295Y-67092286D01*
X122508559Y-66956452D01*
X122590242Y-66834205D01*
X122694205Y-66730242D01*
X122816452Y-66648559D01*
X122952286Y-66592295D01*
X123096487Y-66563611D01*
X123243513Y-66563611D01*
X123387714Y-66592295D01*
G37*
G36*
X55826742Y-65413601D02*
G01*
X55980687Y-65477367D01*
X56119234Y-65569941D01*
X56237059Y-65687766D01*
X56329633Y-65826313D01*
X56393399Y-65980258D01*
X56425907Y-66143685D01*
X56425907Y-66310315D01*
X56393399Y-66473742D01*
X56329633Y-66627687D01*
X56237059Y-66766234D01*
X56119234Y-66884059D01*
X55980687Y-66976633D01*
X55826742Y-67040399D01*
X55663315Y-67072907D01*
X55496685Y-67072907D01*
X55333258Y-67040399D01*
X55179313Y-66976633D01*
X55040766Y-66884059D01*
X54922941Y-66766234D01*
X54830367Y-66627687D01*
X54766601Y-66473742D01*
X54734093Y-66310315D01*
X54734093Y-66143685D01*
X54766601Y-65980258D01*
X54830367Y-65826313D01*
X54922941Y-65687766D01*
X55040766Y-65569941D01*
X55179313Y-65477367D01*
X55333258Y-65413601D01*
X55496685Y-65381093D01*
X55663315Y-65381093D01*
X55826742Y-65413601D01*
G37*
G36*
X58666742Y-64028601D02*
G01*
X58820687Y-64092367D01*
X58959234Y-64184941D01*
X59077059Y-64302766D01*
X59169633Y-64441313D01*
X59233399Y-64595258D01*
X59265907Y-64758685D01*
X59265907Y-64925315D01*
X59233399Y-65088742D01*
X59169633Y-65242687D01*
X59077059Y-65381234D01*
X58959234Y-65499059D01*
X58820687Y-65591633D01*
X58666742Y-65655399D01*
X58503315Y-65687907D01*
X58336685Y-65687907D01*
X58173258Y-65655399D01*
X58019313Y-65591633D01*
X57880766Y-65499059D01*
X57762941Y-65381234D01*
X57670367Y-65242687D01*
X57606601Y-65088742D01*
X57574093Y-64925315D01*
X57574093Y-64758685D01*
X57606601Y-64595258D01*
X57670367Y-64441313D01*
X57762941Y-64302766D01*
X57880766Y-64184941D01*
X58019313Y-64092367D01*
X58173258Y-64028601D01*
X58336685Y-63996093D01*
X58503315Y-63996093D01*
X58666742Y-64028601D01*
G37*
G36*
X71738685Y-62257969D02*
G01*
X71754461Y-62264934D01*
X71762222Y-62266164D01*
X71794542Y-62282632D01*
X71839541Y-62302501D01*
X71917499Y-62380459D01*
X71937370Y-62425464D01*
X71953835Y-62457777D01*
X71955063Y-62465535D01*
X71962031Y-62481315D01*
X71970000Y-62550000D01*
X71970000Y-64450000D01*
X71962031Y-64518685D01*
X71955063Y-64534464D01*
X71953835Y-64542222D01*
X71937373Y-64574528D01*
X71917499Y-64619541D01*
X71839541Y-64697499D01*
X71794528Y-64717373D01*
X71762222Y-64733835D01*
X71754464Y-64735063D01*
X71738685Y-64742031D01*
X71670000Y-64750000D01*
X70570000Y-64750000D01*
X70501315Y-64742031D01*
X70485535Y-64735063D01*
X70477777Y-64733835D01*
X70445464Y-64717370D01*
X70400459Y-64697499D01*
X70322501Y-64619541D01*
X70302632Y-64574542D01*
X70286164Y-64542222D01*
X70284934Y-64534461D01*
X70277969Y-64518685D01*
X70270000Y-64450000D01*
X70270000Y-62550000D01*
X70277969Y-62481315D01*
X70284934Y-62465539D01*
X70286164Y-62457777D01*
X70302635Y-62425449D01*
X70322501Y-62380459D01*
X70400459Y-62302501D01*
X70445449Y-62282635D01*
X70477777Y-62266164D01*
X70485539Y-62264934D01*
X70501315Y-62257969D01*
X70570000Y-62250000D01*
X71670000Y-62250000D01*
X71738685Y-62257969D01*
G37*
G36*
X73906742Y-62286601D02*
G01*
X74060687Y-62350367D01*
X74199234Y-62442941D01*
X74317059Y-62560766D01*
X74409633Y-62699313D01*
X74473399Y-62853258D01*
X74505907Y-63016685D01*
X74510000Y-63100000D01*
X74510000Y-63900000D01*
X74505907Y-63983315D01*
X74473399Y-64146742D01*
X74409633Y-64300687D01*
X74317059Y-64439234D01*
X74199234Y-64557059D01*
X74060687Y-64649633D01*
X73906742Y-64713399D01*
X73743315Y-64745907D01*
X73576685Y-64745907D01*
X73413258Y-64713399D01*
X73259313Y-64649633D01*
X73120766Y-64557059D01*
X73002941Y-64439234D01*
X72910367Y-64300687D01*
X72846601Y-64146742D01*
X72814093Y-63983315D01*
X72810000Y-63900000D01*
X72810000Y-63100000D01*
X72814093Y-63016685D01*
X72846601Y-62853258D01*
X72910367Y-62699313D01*
X73002941Y-62560766D01*
X73120766Y-62442941D01*
X73259313Y-62350367D01*
X73413258Y-62286601D01*
X73576685Y-62254093D01*
X73743315Y-62254093D01*
X73906742Y-62286601D01*
G37*
G36*
X76446742Y-62286601D02*
G01*
X76600687Y-62350367D01*
X76739234Y-62442941D01*
X76857059Y-62560766D01*
X76949633Y-62699313D01*
X77013399Y-62853258D01*
X77045907Y-63016685D01*
X77050000Y-63100000D01*
X77050000Y-63900000D01*
X77045907Y-63983315D01*
X77013399Y-64146742D01*
X76949633Y-64300687D01*
X76857059Y-64439234D01*
X76739234Y-64557059D01*
X76600687Y-64649633D01*
X76446742Y-64713399D01*
X76283315Y-64745907D01*
X76116685Y-64745907D01*
X75953258Y-64713399D01*
X75799313Y-64649633D01*
X75660766Y-64557059D01*
X75542941Y-64439234D01*
X75450367Y-64300687D01*
X75386601Y-64146742D01*
X75354093Y-63983315D01*
X75350000Y-63900000D01*
X75350000Y-63100000D01*
X75354093Y-63016685D01*
X75386601Y-62853258D01*
X75450367Y-62699313D01*
X75542941Y-62560766D01*
X75660766Y-62442941D01*
X75799313Y-62350367D01*
X75953258Y-62286601D01*
X76116685Y-62254093D01*
X76283315Y-62254093D01*
X76446742Y-62286601D01*
G37*
G36*
X78986742Y-62286601D02*
G01*
X79140687Y-62350367D01*
X79279234Y-62442941D01*
X79397059Y-62560766D01*
X79489633Y-62699313D01*
X79553399Y-62853258D01*
X79585907Y-63016685D01*
X79590000Y-63100000D01*
X79590000Y-63900000D01*
X79585907Y-63983315D01*
X79553399Y-64146742D01*
X79489633Y-64300687D01*
X79397059Y-64439234D01*
X79279234Y-64557059D01*
X79140687Y-64649633D01*
X78986742Y-64713399D01*
X78823315Y-64745907D01*
X78656685Y-64745907D01*
X78493258Y-64713399D01*
X78339313Y-64649633D01*
X78200766Y-64557059D01*
X78082941Y-64439234D01*
X77990367Y-64300687D01*
X77926601Y-64146742D01*
X77894093Y-63983315D01*
X77890000Y-63900000D01*
X77890000Y-63100000D01*
X77894093Y-63016685D01*
X77926601Y-62853258D01*
X77990367Y-62699313D01*
X78082941Y-62560766D01*
X78200766Y-62442941D01*
X78339313Y-62350367D01*
X78493258Y-62286601D01*
X78656685Y-62254093D01*
X78823315Y-62254093D01*
X78986742Y-62286601D01*
G37*
G36*
X92956742Y-60146601D02*
G01*
X93110687Y-60210367D01*
X93249234Y-60302941D01*
X93367059Y-60420766D01*
X93459633Y-60559313D01*
X93523399Y-60713258D01*
X93555907Y-60876685D01*
X93555907Y-61043315D01*
X93523399Y-61206742D01*
X93459633Y-61360687D01*
X93367059Y-61499234D01*
X93249234Y-61617059D01*
X93110687Y-61709633D01*
X92956742Y-61773399D01*
X92793315Y-61805907D01*
X92626685Y-61805907D01*
X92463258Y-61773399D01*
X92309313Y-61709633D01*
X92170766Y-61617059D01*
X92052941Y-61499234D01*
X91960367Y-61360687D01*
X91896601Y-61206742D01*
X91864093Y-61043315D01*
X91864093Y-60876685D01*
X91896601Y-60713258D01*
X91960367Y-60559313D01*
X92052941Y-60420766D01*
X92170766Y-60302941D01*
X92309313Y-60210367D01*
X92463258Y-60146601D01*
X92626685Y-60114093D01*
X92793315Y-60114093D01*
X92956742Y-60146601D01*
G37*
G36*
X108196742Y-60146601D02*
G01*
X108350687Y-60210367D01*
X108489234Y-60302941D01*
X108607059Y-60420766D01*
X108699633Y-60559313D01*
X108763399Y-60713258D01*
X108795907Y-60876685D01*
X108795907Y-61043315D01*
X108763399Y-61206742D01*
X108699633Y-61360687D01*
X108607059Y-61499234D01*
X108489234Y-61617059D01*
X108350687Y-61709633D01*
X108196742Y-61773399D01*
X108033315Y-61805907D01*
X107866685Y-61805907D01*
X107703258Y-61773399D01*
X107549313Y-61709633D01*
X107410766Y-61617059D01*
X107292941Y-61499234D01*
X107200367Y-61360687D01*
X107136601Y-61206742D01*
X107104093Y-61043315D01*
X107104093Y-60876685D01*
X107136601Y-60713258D01*
X107200367Y-60559313D01*
X107292941Y-60420766D01*
X107410766Y-60302941D01*
X107549313Y-60210367D01*
X107703258Y-60146601D01*
X107866685Y-60114093D01*
X108033315Y-60114093D01*
X108196742Y-60146601D01*
G37*
G36*
X123436742Y-60146601D02*
G01*
X123590687Y-60210367D01*
X123729234Y-60302941D01*
X123847059Y-60420766D01*
X123939633Y-60559313D01*
X124003399Y-60713258D01*
X124035907Y-60876685D01*
X124035907Y-61043315D01*
X124003399Y-61206742D01*
X123939633Y-61360687D01*
X123847059Y-61499234D01*
X123729234Y-61617059D01*
X123590687Y-61709633D01*
X123436742Y-61773399D01*
X123273315Y-61805907D01*
X123106685Y-61805907D01*
X122943258Y-61773399D01*
X122789313Y-61709633D01*
X122650766Y-61617059D01*
X122532941Y-61499234D01*
X122440367Y-61360687D01*
X122376601Y-61206742D01*
X122344093Y-61043315D01*
X122344093Y-60876685D01*
X122376601Y-60713258D01*
X122440367Y-60559313D01*
X122532941Y-60420766D01*
X122650766Y-60302941D01*
X122789313Y-60210367D01*
X122943258Y-60146601D01*
X123106685Y-60114093D01*
X123273315Y-60114093D01*
X123436742Y-60146601D01*
G37*
G36*
X57399935Y-55901390D02*
G01*
X57658951Y-55970793D01*
X57906692Y-56073411D01*
X58138919Y-56207487D01*
X58351659Y-56370728D01*
X58541272Y-56560341D01*
X58704513Y-56773081D01*
X58838589Y-57005308D01*
X58941207Y-57253049D01*
X59010610Y-57512065D01*
X59045611Y-57777924D01*
X59045611Y-58046076D01*
X59010610Y-58311935D01*
X58941207Y-58570951D01*
X58838589Y-58818692D01*
X58704513Y-59050919D01*
X58541272Y-59263659D01*
X58351659Y-59453272D01*
X58138919Y-59616513D01*
X57906692Y-59750589D01*
X57658951Y-59853207D01*
X57399935Y-59922610D01*
X57134076Y-59957611D01*
X56865924Y-59957611D01*
X56600065Y-59922610D01*
X56341049Y-59853207D01*
X56093308Y-59750589D01*
X55861081Y-59616513D01*
X55648341Y-59453272D01*
X55458728Y-59263659D01*
X55295487Y-59050919D01*
X55161411Y-58818692D01*
X55058793Y-58570951D01*
X54989390Y-58311935D01*
X54954389Y-58046076D01*
X54954389Y-57777924D01*
X54989390Y-57512065D01*
X55058793Y-57253049D01*
X55161411Y-57005308D01*
X55295487Y-56773081D01*
X55458728Y-56560341D01*
X55648341Y-56370728D01*
X55861081Y-56207487D01*
X56093308Y-56073411D01*
X56341049Y-55970793D01*
X56600065Y-55901390D01*
X56865924Y-55866389D01*
X57134076Y-55866389D01*
X57399935Y-55901390D01*
G37*
G36*
X71366742Y-54666601D02*
G01*
X71520687Y-54730367D01*
X71659234Y-54822941D01*
X71777059Y-54940766D01*
X71869633Y-55079313D01*
X71933399Y-55233258D01*
X71965907Y-55396685D01*
X71970000Y-55480000D01*
X71970000Y-56280000D01*
X71965907Y-56363315D01*
X71933399Y-56526742D01*
X71869633Y-56680687D01*
X71777059Y-56819234D01*
X71659234Y-56937059D01*
X71520687Y-57029633D01*
X71366742Y-57093399D01*
X71203315Y-57125907D01*
X71036685Y-57125907D01*
X70873258Y-57093399D01*
X70719313Y-57029633D01*
X70580766Y-56937059D01*
X70462941Y-56819234D01*
X70370367Y-56680687D01*
X70306601Y-56526742D01*
X70274093Y-56363315D01*
X70270000Y-56280000D01*
X70270000Y-55480000D01*
X70274093Y-55396685D01*
X70306601Y-55233258D01*
X70370367Y-55079313D01*
X70462941Y-54940766D01*
X70580766Y-54822941D01*
X70719313Y-54730367D01*
X70873258Y-54666601D01*
X71036685Y-54634093D01*
X71203315Y-54634093D01*
X71366742Y-54666601D01*
G37*
G36*
X73906742Y-54666601D02*
G01*
X74060687Y-54730367D01*
X74199234Y-54822941D01*
X74317059Y-54940766D01*
X74409633Y-55079313D01*
X74473399Y-55233258D01*
X74505907Y-55396685D01*
X74510000Y-55480000D01*
X74510000Y-56280000D01*
X74505907Y-56363315D01*
X74473399Y-56526742D01*
X74409633Y-56680687D01*
X74317059Y-56819234D01*
X74199234Y-56937059D01*
X74060687Y-57029633D01*
X73906742Y-57093399D01*
X73743315Y-57125907D01*
X73576685Y-57125907D01*
X73413258Y-57093399D01*
X73259313Y-57029633D01*
X73120766Y-56937059D01*
X73002941Y-56819234D01*
X72910367Y-56680687D01*
X72846601Y-56526742D01*
X72814093Y-56363315D01*
X72810000Y-56280000D01*
X72810000Y-55480000D01*
X72814093Y-55396685D01*
X72846601Y-55233258D01*
X72910367Y-55079313D01*
X73002941Y-54940766D01*
X73120766Y-54822941D01*
X73259313Y-54730367D01*
X73413258Y-54666601D01*
X73576685Y-54634093D01*
X73743315Y-54634093D01*
X73906742Y-54666601D01*
G37*
G36*
X76446742Y-54666601D02*
G01*
X76600687Y-54730367D01*
X76739234Y-54822941D01*
X76857059Y-54940766D01*
X76949633Y-55079313D01*
X77013399Y-55233258D01*
X77045907Y-55396685D01*
X77050000Y-55480000D01*
X77050000Y-56280000D01*
X77045907Y-56363315D01*
X77013399Y-56526742D01*
X76949633Y-56680687D01*
X76857059Y-56819234D01*
X76739234Y-56937059D01*
X76600687Y-57029633D01*
X76446742Y-57093399D01*
X76283315Y-57125907D01*
X76116685Y-57125907D01*
X75953258Y-57093399D01*
X75799313Y-57029633D01*
X75660766Y-56937059D01*
X75542941Y-56819234D01*
X75450367Y-56680687D01*
X75386601Y-56526742D01*
X75354093Y-56363315D01*
X75350000Y-56280000D01*
X75350000Y-55480000D01*
X75354093Y-55396685D01*
X75386601Y-55233258D01*
X75450367Y-55079313D01*
X75542941Y-54940766D01*
X75660766Y-54822941D01*
X75799313Y-54730367D01*
X75953258Y-54666601D01*
X76116685Y-54634093D01*
X76283315Y-54634093D01*
X76446742Y-54666601D01*
G37*
G36*
X78986742Y-54666601D02*
G01*
X79140687Y-54730367D01*
X79279234Y-54822941D01*
X79397059Y-54940766D01*
X79489633Y-55079313D01*
X79553399Y-55233258D01*
X79585907Y-55396685D01*
X79590000Y-55480000D01*
X79590000Y-56280000D01*
X79585907Y-56363315D01*
X79553399Y-56526742D01*
X79489633Y-56680687D01*
X79397059Y-56819234D01*
X79279234Y-56937059D01*
X79140687Y-57029633D01*
X78986742Y-57093399D01*
X78823315Y-57125907D01*
X78656685Y-57125907D01*
X78493258Y-57093399D01*
X78339313Y-57029633D01*
X78200766Y-56937059D01*
X78082941Y-56819234D01*
X77990367Y-56680687D01*
X77926601Y-56526742D01*
X77894093Y-56363315D01*
X77890000Y-56280000D01*
X77890000Y-55480000D01*
X77894093Y-55396685D01*
X77926601Y-55233258D01*
X77990367Y-55079313D01*
X78082941Y-54940766D01*
X78200766Y-54822941D01*
X78339313Y-54730367D01*
X78493258Y-54666601D01*
X78656685Y-54634093D01*
X78823315Y-54634093D01*
X78986742Y-54666601D01*
G37*
G36*
X92956742Y-47446601D02*
G01*
X93110687Y-47510367D01*
X93249234Y-47602941D01*
X93367059Y-47720766D01*
X93459633Y-47859313D01*
X93523399Y-48013258D01*
X93555907Y-48176685D01*
X93555907Y-48343315D01*
X93523399Y-48506742D01*
X93459633Y-48660687D01*
X93367059Y-48799234D01*
X93249234Y-48917059D01*
X93110687Y-49009633D01*
X92956742Y-49073399D01*
X92793315Y-49105907D01*
X92626685Y-49105907D01*
X92463258Y-49073399D01*
X92309313Y-49009633D01*
X92170766Y-48917059D01*
X92052941Y-48799234D01*
X91960367Y-48660687D01*
X91896601Y-48506742D01*
X91864093Y-48343315D01*
X91864093Y-48176685D01*
X91896601Y-48013258D01*
X91960367Y-47859313D01*
X92052941Y-47720766D01*
X92170766Y-47602941D01*
X92309313Y-47510367D01*
X92463258Y-47446601D01*
X92626685Y-47414093D01*
X92793315Y-47414093D01*
X92956742Y-47446601D01*
G37*
G36*
X108196742Y-47446601D02*
G01*
X108350687Y-47510367D01*
X108489234Y-47602941D01*
X108607059Y-47720766D01*
X108699633Y-47859313D01*
X108763399Y-48013258D01*
X108795907Y-48176685D01*
X108795907Y-48343315D01*
X108763399Y-48506742D01*
X108699633Y-48660687D01*
X108607059Y-48799234D01*
X108489234Y-48917059D01*
X108350687Y-49009633D01*
X108196742Y-49073399D01*
X108033315Y-49105907D01*
X107866685Y-49105907D01*
X107703258Y-49073399D01*
X107549313Y-49009633D01*
X107410766Y-48917059D01*
X107292941Y-48799234D01*
X107200367Y-48660687D01*
X107136601Y-48506742D01*
X107104093Y-48343315D01*
X107104093Y-48176685D01*
X107136601Y-48013258D01*
X107200367Y-47859313D01*
X107292941Y-47720766D01*
X107410766Y-47602941D01*
X107549313Y-47510367D01*
X107703258Y-47446601D01*
X107866685Y-47414093D01*
X108033315Y-47414093D01*
X108196742Y-47446601D01*
G37*
G36*
X123436742Y-47446601D02*
G01*
X123590687Y-47510367D01*
X123729234Y-47602941D01*
X123847059Y-47720766D01*
X123939633Y-47859313D01*
X124003399Y-48013258D01*
X124035907Y-48176685D01*
X124035907Y-48343315D01*
X124003399Y-48506742D01*
X123939633Y-48660687D01*
X123847059Y-48799234D01*
X123729234Y-48917059D01*
X123590687Y-49009633D01*
X123436742Y-49073399D01*
X123273315Y-49105907D01*
X123106685Y-49105907D01*
X122943258Y-49073399D01*
X122789313Y-49009633D01*
X122650766Y-48917059D01*
X122532941Y-48799234D01*
X122440367Y-48660687D01*
X122376601Y-48506742D01*
X122344093Y-48343315D01*
X122344093Y-48176685D01*
X122376601Y-48013258D01*
X122440367Y-47859313D01*
X122532941Y-47720766D01*
X122650766Y-47602941D01*
X122789313Y-47510367D01*
X122943258Y-47446601D01*
X123106685Y-47414093D01*
X123273315Y-47414093D01*
X123436742Y-47446601D01*
G37*
G36*
X63929199Y-43562272D02*
G01*
X64207167Y-43636754D01*
X64473035Y-43746880D01*
X64722255Y-43890767D01*
X64950561Y-44065952D01*
X65154048Y-44269439D01*
X65329233Y-44497745D01*
X65473120Y-44746965D01*
X65583246Y-45012833D01*
X65657728Y-45290801D01*
X65695290Y-45576113D01*
X65695290Y-45863887D01*
X65657728Y-46149199D01*
X65583246Y-46427167D01*
X65473120Y-46693035D01*
X65329233Y-46942255D01*
X65154048Y-47170561D01*
X64950561Y-47374048D01*
X64722255Y-47549233D01*
X64473035Y-47693120D01*
X64207167Y-47803246D01*
X63929199Y-47877728D01*
X63643887Y-47915290D01*
X63356113Y-47915290D01*
X63070801Y-47877728D01*
X62792833Y-47803246D01*
X62526965Y-47693120D01*
X62277745Y-47549233D01*
X62049439Y-47374048D01*
X61845952Y-47170561D01*
X61670767Y-46942255D01*
X61526880Y-46693035D01*
X61416754Y-46427167D01*
X61342272Y-46149199D01*
X61304710Y-45863887D01*
X61304710Y-45576113D01*
X61342272Y-45290801D01*
X61416754Y-45012833D01*
X61526880Y-44746965D01*
X61670767Y-44497745D01*
X61845952Y-44269439D01*
X62049439Y-44065952D01*
X62277745Y-43890767D01*
X62526965Y-43746880D01*
X62792833Y-43636754D01*
X63070801Y-43562272D01*
X63356113Y-43524710D01*
X63643887Y-43524710D01*
X63929199Y-43562272D01*
G37*
G36*
X129969199Y-39752272D02*
G01*
X130247167Y-39826754D01*
X130513035Y-39936880D01*
X130762255Y-40080767D01*
X130990561Y-40255952D01*
X131194048Y-40459439D01*
X131369233Y-40687745D01*
X131513120Y-40936965D01*
X131623246Y-41202833D01*
X131697728Y-41480801D01*
X131735290Y-41766113D01*
X131735290Y-42053887D01*
X131697728Y-42339199D01*
X131623246Y-42617167D01*
X131513120Y-42883035D01*
X131369233Y-43132255D01*
X131194048Y-43360561D01*
X130990561Y-43564048D01*
X130762255Y-43739233D01*
X130513035Y-43883120D01*
X130247167Y-43993246D01*
X129969199Y-44067728D01*
X129683887Y-44105290D01*
X129396113Y-44105290D01*
X129110801Y-44067728D01*
X128832833Y-43993246D01*
X128566965Y-43883120D01*
X128317745Y-43739233D01*
X128089439Y-43564048D01*
X127885952Y-43360561D01*
X127710767Y-43132255D01*
X127566880Y-42883035D01*
X127456754Y-42617167D01*
X127382272Y-42339199D01*
X127344710Y-42053887D01*
X127344710Y-41766113D01*
X127382272Y-41480801D01*
X127456754Y-41202833D01*
X127566880Y-40936965D01*
X127710767Y-40687745D01*
X127885952Y-40459439D01*
X128089439Y-40255952D01*
X128317745Y-40080767D01*
X128566965Y-39936880D01*
X128832833Y-39826754D01*
X129110801Y-39752272D01*
X129396113Y-39714710D01*
X129683887Y-39714710D01*
X129969199Y-39752272D01*
G37*
M02*
