%TF.GenerationSoftware,KiCad,Pcbnew,9.0.4*%
%TF.CreationDate,2026-03-20T10:28:42+01:00*%
%TF.ProjectId,phd_slave,7068645f-736c-4617-9665-2e6b69636164,rev?*%
%TF.SameCoordinates,Original*%
%TF.FileFunction,Copper,L1,Top*%
%TF.FilePolarity,Positive*%
%FSLAX46Y46*%
G04 Gerber Fmt 4.6, Leading zero omitted, Abs format (unit mm)*
G04 Created by KiCad (PCBNEW 9.0.4) date 2026-03-20 10:28:42*
%MOMM*%
%LPD*%
G01*
G04 APERTURE LIST*
G04 Aperture macros list*
%AMRoundRect*
0 Rectangle with rounded corners*
0 $1 Rounding radius*
0 $2 $3 $4 $5 $6 $7 $8 $9 X,Y pos of 4 corners*
0 Add a 4 corners polygon primitive as box body*
4,1,4,$2,$3,$4,$5,$6,$7,$8,$9,$2,$3,0*
0 Add four circle primitives for the rounded corners*
1,1,$1+$1,$2,$3*
1,1,$1+$1,$4,$5*
1,1,$1+$1,$6,$7*
1,1,$1+$1,$8,$9*
0 Add four rect primitives between the rounded corners*
20,1,$1+$1,$2,$3,$4,$5,0*
20,1,$1+$1,$4,$5,$6,$7,0*
20,1,$1+$1,$6,$7,$8,$9,0*
20,1,$1+$1,$8,$9,$2,$3,0*%
G04 Aperture macros list end*
%TA.AperFunction,ComponentPad*%
%ADD10C,1.600000*%
%TD*%
%TA.AperFunction,ComponentPad*%
%ADD11RoundRect,0.249200X0.450800X0.450800X-0.450800X0.450800X-0.450800X-0.450800X0.450800X-0.450800X0*%
%TD*%
%TA.AperFunction,ComponentPad*%
%ADD12C,1.400000*%
%TD*%
%TA.AperFunction,ComponentPad*%
%ADD13R,1.800000X1.800000*%
%TD*%
%TA.AperFunction,ComponentPad*%
%ADD14C,1.800000*%
%TD*%
%TA.AperFunction,ComponentPad*%
%ADD15RoundRect,0.250000X0.550000X-0.950000X0.550000X0.950000X-0.550000X0.950000X-0.550000X-0.950000X0*%
%TD*%
%TA.AperFunction,ComponentPad*%
%ADD16O,1.600000X2.400000*%
%TD*%
%TA.AperFunction,ComponentPad*%
%ADD17C,4.000000*%
%TD*%
%TA.AperFunction,ComponentPad*%
%ADD18R,1.600000X1.600000*%
%TD*%
%TA.AperFunction,ViaPad*%
%ADD19C,1.500000*%
%TD*%
%TA.AperFunction,Conductor*%
%ADD20C,0.800000*%
%TD*%
G04 APERTURE END LIST*
D10*
%TO.P,R1,1*%
%TO.N,OUT4*%
X95250000Y-100330000D03*
%TO.P,R1,2*%
%TO.N,GND*%
X95250000Y-113030000D03*
%TD*%
D11*
%TO.P,D5,1,K*%
%TO.N,RVAR_15V*%
X110510000Y-67310000D03*
D12*
%TO.P,D5,2,A*%
%TO.N,Net-(D5-A)*%
X107950000Y-67310000D03*
%TD*%
D13*
%TO.P,D2,1,K*%
%TO.N,Net-(D2-K)*%
X110495000Y-92115000D03*
D14*
%TO.P,D2,2,A*%
%TO.N,LED_IN*%
X107955000Y-92115000D03*
%TD*%
D10*
%TO.P,R3,1*%
%TO.N,Net-(D3-K)*%
X125730000Y-100330000D03*
%TO.P,R3,2*%
%TO.N,GND*%
X125730000Y-113030000D03*
%TD*%
D15*
%TO.P,U1,1*%
%TO.N,OUT2*%
X71120000Y-63500000D03*
D16*
%TO.P,U1,2,-*%
X73660000Y-63500000D03*
%TO.P,U1,3,+*%
%TO.N,Net-(D5-A)*%
X76200000Y-63500000D03*
%TO.P,U1,4,V-*%
%TO.N,-15V*%
X78740000Y-63500000D03*
%TO.P,U1,5,+*%
%TO.N,GND*%
X78740000Y-55880000D03*
%TO.P,U1,6,-*%
%TO.N,Net-(D6-A)*%
X76200000Y-55880000D03*
%TO.P,U1,7*%
%TO.N,OUT1*%
X73660000Y-55880000D03*
%TO.P,U1,8,V+*%
%TO.N,+15V*%
X71120000Y-55880000D03*
%TD*%
D17*
%TO.P,J13,0,PAD*%
%TO.N,GND*%
X57000000Y-57912000D03*
X57000000Y-105012000D03*
D18*
%TO.P,J13,1,1*%
%TO.N,5V*%
X58420000Y-98082000D03*
D10*
%TO.P,J13,2,2*%
%TO.N,RVAR_5V*%
X58420000Y-95312000D03*
%TO.P,J13,3,3*%
%TO.N,RVAR_15V*%
X58420000Y-92542000D03*
%TO.P,J13,4,4*%
%TO.N,+15V*%
X58420000Y-89772000D03*
%TO.P,J13,5,5*%
%TO.N,GND*%
X58420000Y-87002000D03*
%TO.P,J13,6,6*%
%TO.N,-15V*%
X58420000Y-84232000D03*
%TO.P,J13,7,7*%
%TO.N,OUT4*%
X58420000Y-81462000D03*
%TO.P,J13,8,8*%
%TO.N,OUT3*%
X58420000Y-78692000D03*
%TO.P,J13,9,9*%
%TO.N,OUT2*%
X58420000Y-75922000D03*
%TO.P,J13,10,10*%
%TO.N,OUT1*%
X58420000Y-73152000D03*
%TO.P,J13,11,11*%
%TO.N,IN1*%
X58420000Y-70382000D03*
%TO.P,J13,12,12*%
%TO.N,IN2*%
X58420000Y-67612000D03*
%TO.P,J13,13,13*%
%TO.N,SEL1*%
X58420000Y-64842000D03*
%TO.P,J13,14,P14*%
%TO.N,3.3V*%
X55580000Y-96697000D03*
%TO.P,J13,15,P15*%
%TO.N,RVAR_3.3V*%
X55580000Y-93927000D03*
%TO.P,J13,16,P16*%
%TO.N,GND*%
X55580000Y-91157000D03*
%TO.P,J13,17,P17*%
X55580000Y-88387000D03*
%TO.P,J13,18,P18*%
X55580000Y-85617000D03*
%TO.P,J13,19,P19*%
X55580000Y-82847000D03*
%TO.P,J13,20,P20*%
X55580000Y-80077000D03*
%TO.P,J13,21,P21*%
X55580000Y-77307000D03*
%TO.P,J13,22,P22*%
X55580000Y-74537000D03*
%TO.P,J13,23,P23*%
X55580000Y-71767000D03*
%TO.P,J13,24,P24*%
%TO.N,SEL3*%
X55580000Y-68997000D03*
%TO.P,J13,25,P25*%
%TO.N,SEL2*%
X55580000Y-66227000D03*
%TD*%
D11*
%TO.P,D6,1,K*%
%TO.N,RVAR_15V*%
X125730000Y-67310000D03*
D12*
%TO.P,D6,2,A*%
%TO.N,Net-(D6-A)*%
X123170000Y-67310000D03*
%TD*%
D10*
%TO.P,R4,1*%
%TO.N,OUT3*%
X92710000Y-60960000D03*
%TO.P,R4,2*%
%TO.N,GND*%
X92710000Y-48260000D03*
%TD*%
D11*
%TO.P,D4,1,K*%
%TO.N,RVAR_15V*%
X95250000Y-67310000D03*
D12*
%TO.P,D4,2,A*%
%TO.N,OUT3*%
X92690000Y-67310000D03*
%TD*%
D15*
%TO.P,U2,1,NULL*%
%TO.N,unconnected-(U2-NULL-Pad1)*%
X71120000Y-106680000D03*
D16*
%TO.P,U2,2,-*%
%TO.N,LED_IN*%
X73660000Y-106680000D03*
%TO.P,U2,3,+*%
%TO.N,IN1*%
X76200000Y-106680000D03*
%TO.P,U2,4,V-*%
%TO.N,-15V*%
X78740000Y-106680000D03*
%TO.P,U2,5,NULL*%
%TO.N,unconnected-(U2-NULL-Pad5)*%
X78740000Y-99060000D03*
%TO.P,U2,6*%
%TO.N,LED_IN*%
X76200000Y-99060000D03*
%TO.P,U2,7,V+*%
%TO.N,+15V*%
X73660000Y-99060000D03*
%TO.P,U2,8,NC*%
%TO.N,unconnected-(U2-NC-Pad8)*%
X71120000Y-99060000D03*
%TD*%
D10*
%TO.P,R6,1*%
%TO.N,OUT1*%
X123190000Y-48260000D03*
%TO.P,R6,2*%
%TO.N,Net-(D6-A)*%
X123190000Y-60960000D03*
%TD*%
D13*
%TO.P,D3,1,K*%
%TO.N,Net-(D3-K)*%
X125735000Y-92115000D03*
D14*
%TO.P,D3,2,A*%
%TO.N,LED_IN*%
X123195000Y-92115000D03*
%TD*%
D13*
%TO.P,D1,1,K*%
%TO.N,OUT4*%
X95255000Y-92250000D03*
D14*
%TO.P,D1,2,A*%
%TO.N,LED_IN*%
X92715000Y-92250000D03*
%TD*%
D10*
%TO.P,R2,1*%
%TO.N,Net-(D2-K)*%
X110490000Y-100330000D03*
%TO.P,R2,2*%
%TO.N,GND*%
X110490000Y-113030000D03*
%TD*%
%TO.P,R5,1*%
%TO.N,Net-(D5-A)*%
X107950000Y-60960000D03*
%TO.P,R5,2*%
%TO.N,GND*%
X107950000Y-48260000D03*
%TD*%
D19*
%TO.N,+15V*%
X64516000Y-89772000D03*
%TO.N,IN1*%
X62484000Y-106172000D03*
X62484000Y-70382000D03*
%TO.N,-15V*%
X66929000Y-84201000D03*
%TO.N,RVAR_15V*%
X69088000Y-92583000D03*
%TD*%
D20*
%TO.N,+15V*%
X64516000Y-89772000D02*
X64516000Y-57404000D01*
X64516000Y-57404000D02*
X66040000Y-55880000D01*
X66040000Y-55880000D02*
X71120000Y-55880000D01*
%TO.N,IN1*%
X62484000Y-70382000D02*
X62484000Y-106172000D01*
%TO.N,OUT4*%
X95250000Y-92255000D02*
X95255000Y-92250000D01*
X95250000Y-100330000D02*
X95250000Y-92255000D01*
%TO.N,-15V*%
X68326000Y-102743000D02*
X68453000Y-102870000D01*
X66929000Y-101473000D02*
X68199000Y-102743000D01*
X68199000Y-102743000D02*
X68326000Y-102743000D01*
X66929000Y-84201000D02*
X66929000Y-101473000D01*
X78740000Y-66802000D02*
X78740000Y-63500000D01*
X68834000Y-68326000D02*
X77216000Y-68326000D01*
X78740000Y-105156000D02*
X78740000Y-106680000D01*
X77216000Y-68326000D02*
X78740000Y-66802000D01*
X66929000Y-84201000D02*
X66929000Y-70231000D01*
X68453000Y-102870000D02*
X76454000Y-102870000D01*
X76454000Y-102870000D02*
X78740000Y-105156000D01*
X66929000Y-70231000D02*
X68834000Y-68326000D01*
%TO.N,Net-(D2-K)*%
X110490000Y-100330000D02*
X110490000Y-92120000D01*
X110490000Y-92120000D02*
X110495000Y-92115000D01*
%TO.N,Net-(D3-K)*%
X125730000Y-92120000D02*
X125735000Y-92115000D01*
X125730000Y-100330000D02*
X125730000Y-92120000D01*
%TO.N,RVAR_15V*%
X70866000Y-70739000D02*
X95123000Y-70739000D01*
X95250000Y-70612000D02*
X95250000Y-67310000D01*
X69088000Y-92583000D02*
X69088000Y-72517000D01*
X110510000Y-67310000D02*
X110510000Y-70592000D01*
X110510000Y-70592000D02*
X110490000Y-70612000D01*
X95250000Y-70612000D02*
X110490000Y-70612000D01*
X69088000Y-72517000D02*
X70866000Y-70739000D01*
X110490000Y-70612000D02*
X124587000Y-70612000D01*
X125730000Y-69469000D02*
X125730000Y-67310000D01*
X124587000Y-70612000D02*
X125730000Y-69469000D01*
%TD*%
M02*
