%TF.GenerationSoftware,KiCad,Pcbnew,8.0.0*%
%TF.CreationDate,2024-10-06T09:57:56+02:00*%
%TF.ProjectId,Motor_Board_L476RG,4d6f746f-725f-4426-9f61-72645f4c3437,rev?*%
%TF.SameCoordinates,Original*%
%TF.FileFunction,Drillmap*%
%TF.FilePolarity,Positive*%
%FSLAX45Y45*%
G04 Gerber Fmt 4.5, Leading zero omitted, Abs format (unit mm)*
G04 Created by KiCad (PCBNEW 8.0.0) date 2024-10-06 09:57:56*
%MOMM*%
%LPD*%
G01*
G04 APERTURE LIST*
%ADD10C,0.050000*%
%ADD11C,0.200000*%
%ADD12C,0.100000*%
%ADD13C,0.110000*%
%ADD14C,0.130000*%
G04 APERTURE END LIST*
D10*
X12350000Y-4050000D02*
X24350000Y-4050000D01*
X24350000Y-15050000D01*
X12350000Y-15050000D01*
X12350000Y-4050000D01*
X22400000Y-5950000D02*
X22900000Y-5950000D01*
X22900000Y-6830000D01*
X22400000Y-6830000D01*
X22400000Y-5950000D01*
X19310000Y-5810000D02*
X20190000Y-5810000D01*
X20190000Y-6310000D01*
X19310000Y-6310000D01*
X19310000Y-5810000D01*
X20300000Y-4400000D02*
X21000000Y-4400000D01*
X21000000Y-5280000D01*
X20300000Y-5280000D01*
X20300000Y-4400000D01*
X16650000Y-9320000D02*
X20050000Y-9320000D01*
X20050000Y-10220000D01*
X16650000Y-10220000D01*
X16650000Y-9320000D01*
X17197500Y-12200000D02*
X19497500Y-12200000D01*
X19497500Y-13050000D01*
X17197500Y-13050000D01*
X17197500Y-12200000D01*
X16520000Y-5810000D02*
X17400000Y-5810000D01*
X17400000Y-6310000D01*
X16520000Y-6310000D01*
X16520000Y-5810000D01*
D11*
D12*
X12870000Y-5895000D02*
X12930000Y-5955000D01*
X12930000Y-5895000D02*
X12870000Y-5955000D01*
X13145000Y-12445000D02*
X13205000Y-12505000D01*
X13205000Y-12445000D02*
X13145000Y-12505000D01*
X13720000Y-14820000D02*
X13780000Y-14880000D01*
X13780000Y-14820000D02*
X13720000Y-14880000D01*
X13945000Y-8020000D02*
X14005000Y-8080000D01*
X14005000Y-8020000D02*
X13945000Y-8080000D01*
X14960000Y-10250000D02*
X15020000Y-10310000D01*
X15020000Y-10250000D02*
X14960000Y-10310000D01*
X15032000Y-13816000D02*
X15092000Y-13876000D01*
X15092000Y-13816000D02*
X15032000Y-13876000D01*
X15220000Y-10250000D02*
X15280000Y-10310000D01*
X15280000Y-10250000D02*
X15220000Y-10310000D01*
X15890000Y-9330000D02*
X15950000Y-9390000D01*
X15950000Y-9330000D02*
X15890000Y-9390000D01*
X15920000Y-8540000D02*
X15980000Y-8600000D01*
X15980000Y-8540000D02*
X15920000Y-8600000D01*
X16110000Y-9480000D02*
X16170000Y-9540000D01*
X16170000Y-9480000D02*
X16110000Y-9540000D01*
X16210000Y-12190000D02*
X16270000Y-12250000D01*
X16270000Y-12190000D02*
X16210000Y-12250000D01*
X16310000Y-11350000D02*
X16370000Y-11410000D01*
X16370000Y-11350000D02*
X16310000Y-11410000D01*
X16325000Y-10875000D02*
X16385000Y-10935000D01*
X16385000Y-10875000D02*
X16325000Y-10935000D01*
X16330000Y-11690000D02*
X16390000Y-11750000D01*
X16390000Y-11690000D02*
X16330000Y-11750000D01*
X16730000Y-8540000D02*
X16790000Y-8600000D01*
X16790000Y-8540000D02*
X16730000Y-8600000D01*
X17336000Y-11520000D02*
X17396000Y-11580000D01*
X17396000Y-11520000D02*
X17336000Y-11580000D01*
X17595000Y-10920000D02*
X17655000Y-10980000D01*
X17655000Y-10920000D02*
X17595000Y-10980000D01*
X17680000Y-7910000D02*
X17740000Y-7970000D01*
X17740000Y-7910000D02*
X17680000Y-7970000D01*
X18130000Y-6390000D02*
X18190000Y-6450000D01*
X18190000Y-6390000D02*
X18130000Y-6450000D01*
X18472000Y-8168000D02*
X18532000Y-8228000D01*
X18532000Y-8168000D02*
X18472000Y-8228000D01*
X18560000Y-10745000D02*
X18620000Y-10805000D01*
X18620000Y-10745000D02*
X18560000Y-10805000D01*
X18950000Y-7910000D02*
X19010000Y-7970000D01*
X19010000Y-7910000D02*
X18950000Y-7970000D01*
X18970000Y-6640000D02*
X19030000Y-6700000D01*
X19030000Y-6640000D02*
X18970000Y-6700000D01*
X18970000Y-6640000D02*
X19030000Y-6700000D01*
X19030000Y-6640000D02*
X18970000Y-6700000D01*
X19850000Y-11250000D02*
X19910000Y-11310000D01*
X19910000Y-11250000D02*
X19850000Y-11310000D01*
X20170000Y-8795000D02*
X20230000Y-8855000D01*
X20230000Y-8795000D02*
X20170000Y-8855000D01*
X20203000Y-12028000D02*
X20263000Y-12088000D01*
X20263000Y-12028000D02*
X20203000Y-12088000D01*
X20220000Y-11270000D02*
X20280000Y-11330000D01*
X20280000Y-11270000D02*
X20220000Y-11330000D01*
X20470000Y-8795000D02*
X20530000Y-8855000D01*
X20530000Y-8795000D02*
X20470000Y-8855000D01*
X20890000Y-8925000D02*
X20950000Y-8985000D01*
X20950000Y-8925000D02*
X20890000Y-8985000D01*
X21145000Y-8070000D02*
X21205000Y-8130000D01*
X21205000Y-8070000D02*
X21145000Y-8130000D01*
X21255000Y-10625000D02*
X21315000Y-10685000D01*
X21315000Y-10625000D02*
X21255000Y-10685000D01*
X21455000Y-8920000D02*
X21515000Y-8980000D01*
X21515000Y-8920000D02*
X21455000Y-8980000D01*
X21915000Y-4810000D02*
X21975000Y-4870000D01*
X21975000Y-4810000D02*
X21915000Y-4870000D01*
X22000000Y-13460000D02*
X22060000Y-13520000D01*
X22060000Y-13460000D02*
X22000000Y-13520000D01*
X22745000Y-12520000D02*
X22805000Y-12580000D01*
X22805000Y-12520000D02*
X22745000Y-12580000D01*
X23220000Y-10045000D02*
X23280000Y-10105000D01*
X23280000Y-10045000D02*
X23220000Y-10105000D01*
X23310000Y-4805000D02*
X23370000Y-4865000D01*
X23370000Y-4805000D02*
X23310000Y-4865000D01*
X23320000Y-12370000D02*
X23380000Y-12430000D01*
X23380000Y-12370000D02*
X23320000Y-12430000D01*
X23370000Y-11520000D02*
X23430000Y-11580000D01*
X23430000Y-11520000D02*
X23370000Y-11580000D01*
X23420000Y-14145000D02*
X23480000Y-14205000D01*
X23480000Y-14145000D02*
X23420000Y-14205000D01*
X23495000Y-11995000D02*
X23555000Y-12055000D01*
X23555000Y-11995000D02*
X23495000Y-12055000D01*
X23495000Y-11995000D02*
X23555000Y-12055000D01*
X23555000Y-11995000D02*
X23495000Y-12055000D01*
X23495000Y-12524000D02*
X23555000Y-12584000D01*
X23555000Y-12524000D02*
X23495000Y-12584000D01*
X23657500Y-14807500D02*
X23717500Y-14867500D01*
X23717500Y-14807500D02*
X23657500Y-14867500D01*
X23433500Y-9750000D02*
G75*
G02*
X23358500Y-9750000I-37500J0D01*
G01*
X23358500Y-9750000D02*
G75*
G02*
X23433500Y-9750000I37500J0D01*
G01*
X23560500Y-9750000D02*
G75*
G02*
X23485500Y-9750000I-37500J0D01*
G01*
X23485500Y-9750000D02*
G75*
G02*
X23560500Y-9750000I37500J0D01*
G01*
X23687500Y-9750000D02*
G75*
G02*
X23612500Y-9750000I-37500J0D01*
G01*
X23612500Y-9750000D02*
G75*
G02*
X23687500Y-9750000I37500J0D01*
G01*
X12790000Y-10861900D02*
X12790000Y-10938100D01*
X12751900Y-10900000D02*
X12828100Y-10900000D01*
X12795000Y-10026900D02*
X12795000Y-10103100D01*
X12756900Y-10065000D02*
X12833100Y-10065000D01*
X13290000Y-10861900D02*
X13290000Y-10938100D01*
X13251900Y-10900000D02*
X13328100Y-10900000D01*
X13295000Y-10026900D02*
X13295000Y-10103100D01*
X13256900Y-10065000D02*
X13333100Y-10065000D01*
X12818284Y-9008285D02*
X12818284Y-8951716D01*
X12761715Y-8951716D01*
X12761715Y-9008285D01*
X12818284Y-9008285D01*
X12828284Y-11828284D02*
X12828284Y-11771715D01*
X12771715Y-11771715D01*
X12771715Y-11828284D01*
X12828284Y-11828284D01*
X13048284Y-7378284D02*
X13048284Y-7321715D01*
X12991715Y-7321715D01*
X12991715Y-7378284D01*
X13048284Y-7378284D01*
X13048284Y-8394285D02*
X13048284Y-8337715D01*
X12991715Y-8337715D01*
X12991715Y-8394285D01*
X13048284Y-8394285D01*
X13318284Y-9008285D02*
X13318284Y-8951716D01*
X13261715Y-8951716D01*
X13261715Y-9008285D01*
X13318284Y-9008285D01*
X13328284Y-11828284D02*
X13328284Y-11771715D01*
X13271715Y-11771715D01*
X13271715Y-11828284D01*
X13328284Y-11828284D01*
X13638284Y-9152285D02*
X13638284Y-9095716D01*
X13581715Y-9095716D01*
X13581715Y-9152285D01*
X13638284Y-9152285D01*
X13638284Y-10168285D02*
X13638284Y-10111716D01*
X13581715Y-10111716D01*
X13581715Y-10168285D01*
X13638284Y-10168285D01*
X13638284Y-10448285D02*
X13638284Y-10391716D01*
X13581715Y-10391716D01*
X13581715Y-10448285D01*
X13638284Y-10448285D01*
X13638284Y-11464284D02*
X13638284Y-11407715D01*
X13581715Y-11407715D01*
X13581715Y-11464284D01*
X13638284Y-11464284D01*
X15270285Y-12598284D02*
X15270285Y-12541715D01*
X15213716Y-12541715D01*
X15213716Y-12598284D01*
X15270285Y-12598284D01*
X15270285Y-13614284D02*
X15270285Y-13557715D01*
X15213716Y-13557715D01*
X15213716Y-13614284D01*
X15270285Y-13614284D01*
X15610285Y-12598284D02*
X15610285Y-12541715D01*
X15553716Y-12541715D01*
X15553716Y-12598284D01*
X15610285Y-12598284D01*
X15610285Y-13614284D02*
X15610285Y-13557715D01*
X15553716Y-13557715D01*
X15553716Y-13614284D01*
X15610285Y-13614284D01*
X17902285Y-5173285D02*
X17902285Y-5116716D01*
X17845716Y-5116716D01*
X17845716Y-5173285D01*
X17902285Y-5173285D01*
X17902285Y-5538285D02*
X17902285Y-5481716D01*
X17845716Y-5481716D01*
X17845716Y-5538285D01*
X17902285Y-5538285D01*
X17986285Y-6448284D02*
X17986285Y-6391715D01*
X17929716Y-6391715D01*
X17929716Y-6448284D01*
X17986285Y-6448284D01*
X17986285Y-6702284D02*
X17986285Y-6645715D01*
X17929716Y-6645715D01*
X17929716Y-6702284D01*
X17986285Y-6702284D01*
X17986285Y-6956284D02*
X17986285Y-6899715D01*
X17929716Y-6899715D01*
X17929716Y-6956284D01*
X17986285Y-6956284D01*
X17986285Y-7210284D02*
X17986285Y-7153715D01*
X17929716Y-7153715D01*
X17929716Y-7210284D01*
X17986285Y-7210284D01*
X17986285Y-7464284D02*
X17986285Y-7407715D01*
X17929716Y-7407715D01*
X17929716Y-7464284D01*
X17986285Y-7464284D01*
X17986285Y-7718284D02*
X17986285Y-7661715D01*
X17929716Y-7661715D01*
X17929716Y-7718284D01*
X17986285Y-7718284D01*
X17986285Y-7972284D02*
X17986285Y-7915715D01*
X17929716Y-7915715D01*
X17929716Y-7972284D01*
X17986285Y-7972284D01*
X17986285Y-8226284D02*
X17986285Y-8169715D01*
X17929716Y-8169715D01*
X17929716Y-8226284D01*
X17986285Y-8226284D01*
X18748285Y-6448284D02*
X18748285Y-6391715D01*
X18691716Y-6391715D01*
X18691716Y-6448284D01*
X18748285Y-6448284D01*
X18748285Y-6702284D02*
X18748285Y-6645715D01*
X18691716Y-6645715D01*
X18691716Y-6702284D01*
X18748285Y-6702284D01*
X18748285Y-6956284D02*
X18748285Y-6899715D01*
X18691716Y-6899715D01*
X18691716Y-6956284D01*
X18748285Y-6956284D01*
X18748285Y-7210284D02*
X18748285Y-7153715D01*
X18691716Y-7153715D01*
X18691716Y-7210284D01*
X18748285Y-7210284D01*
X18748285Y-7464284D02*
X18748285Y-7407715D01*
X18691716Y-7407715D01*
X18691716Y-7464284D01*
X18748285Y-7464284D01*
X18748285Y-7718284D02*
X18748285Y-7661715D01*
X18691716Y-7661715D01*
X18691716Y-7718284D01*
X18748285Y-7718284D01*
X18748285Y-7972284D02*
X18748285Y-7915715D01*
X18691716Y-7915715D01*
X18691716Y-7972284D01*
X18748285Y-7972284D01*
X18748285Y-8226284D02*
X18748285Y-8169715D01*
X18691716Y-8169715D01*
X18691716Y-8226284D01*
X18748285Y-8226284D01*
X18918285Y-5173285D02*
X18918285Y-5116716D01*
X18861716Y-5116716D01*
X18861716Y-5173285D01*
X18918285Y-5173285D01*
X18918285Y-5538285D02*
X18918285Y-5481716D01*
X18861716Y-5481716D01*
X18861716Y-5538285D01*
X18918285Y-5538285D01*
X21628285Y-10689785D02*
X21628285Y-10633216D01*
X21571716Y-10633216D01*
X21571716Y-10689785D01*
X21628285Y-10689785D01*
X21678285Y-7428284D02*
X21678285Y-7371715D01*
X21621716Y-7371715D01*
X21621716Y-7428284D01*
X21678285Y-7428284D01*
X21730285Y-9929785D02*
X21730285Y-9873216D01*
X21673716Y-9873216D01*
X21673716Y-9929785D01*
X21730285Y-9929785D01*
X21928285Y-7428284D02*
X21928285Y-7371715D01*
X21871716Y-7371715D01*
X21871716Y-7428284D01*
X21928285Y-7428284D01*
X21984285Y-10183785D02*
X21984285Y-10127216D01*
X21927716Y-10127216D01*
X21927716Y-10183785D01*
X21984285Y-10183785D01*
X22238285Y-9929785D02*
X22238285Y-9873216D01*
X22181716Y-9873216D01*
X22181716Y-9929785D01*
X22238285Y-9929785D01*
X22644284Y-10689785D02*
X22644284Y-10633216D01*
X22587715Y-10633216D01*
X22587715Y-10689785D01*
X22644284Y-10689785D01*
X13664000Y-6566450D02*
X13708450Y-6522000D01*
X13664000Y-6477550D01*
X13619550Y-6522000D01*
X13664000Y-6566450D01*
X13664000Y-6820450D02*
X13708450Y-6776000D01*
X13664000Y-6731550D01*
X13619550Y-6776000D01*
X13664000Y-6820450D01*
X13664000Y-7074450D02*
X13708450Y-7030000D01*
X13664000Y-6985550D01*
X13619550Y-7030000D01*
X13664000Y-7074450D01*
X13664000Y-7328450D02*
X13708450Y-7284000D01*
X13664000Y-7239550D01*
X13619550Y-7284000D01*
X13664000Y-7328450D01*
X13664000Y-7582450D02*
X13708450Y-7538000D01*
X13664000Y-7493550D01*
X13619550Y-7538000D01*
X13664000Y-7582450D01*
X13664000Y-7836450D02*
X13708450Y-7792000D01*
X13664000Y-7747550D01*
X13619550Y-7792000D01*
X13664000Y-7836450D01*
X13664000Y-8090450D02*
X13708450Y-8046000D01*
X13664000Y-8001550D01*
X13619550Y-8046000D01*
X13664000Y-8090450D01*
X13664000Y-8344450D02*
X13708450Y-8300000D01*
X13664000Y-8255550D01*
X13619550Y-8300000D01*
X13664000Y-8344450D01*
X15950000Y-6566450D02*
X15994450Y-6522000D01*
X15950000Y-6477550D01*
X15905550Y-6522000D01*
X15950000Y-6566450D01*
X15950000Y-6820450D02*
X15994450Y-6776000D01*
X15950000Y-6731550D01*
X15905550Y-6776000D01*
X15950000Y-6820450D01*
X15950000Y-7074450D02*
X15994450Y-7030000D01*
X15950000Y-6985550D01*
X15905550Y-7030000D01*
X15950000Y-7074450D01*
X15950000Y-7328450D02*
X15994450Y-7284000D01*
X15950000Y-7239550D01*
X15905550Y-7284000D01*
X15950000Y-7328450D01*
X15950000Y-7582450D02*
X15994450Y-7538000D01*
X15950000Y-7493550D01*
X15905550Y-7538000D01*
X15950000Y-7582450D01*
X15950000Y-7836450D02*
X15994450Y-7792000D01*
X15950000Y-7747550D01*
X15905550Y-7792000D01*
X15950000Y-7836450D01*
X15950000Y-8090450D02*
X15994450Y-8046000D01*
X15950000Y-8001550D01*
X15905550Y-8046000D01*
X15950000Y-8090450D01*
X15950000Y-8344450D02*
X15994450Y-8300000D01*
X15950000Y-8255550D01*
X15905550Y-8300000D01*
X15950000Y-8344450D01*
X21514000Y-11328450D02*
X21558450Y-11284000D01*
X21514000Y-11239550D01*
X21469550Y-11284000D01*
X21514000Y-11328450D01*
X21514000Y-11582450D02*
X21558450Y-11538000D01*
X21514000Y-11493550D01*
X21469550Y-11538000D01*
X21514000Y-11582450D01*
X21514000Y-11836450D02*
X21558450Y-11792000D01*
X21514000Y-11747550D01*
X21469550Y-11792000D01*
X21514000Y-11836450D01*
X21514000Y-12090450D02*
X21558450Y-12046000D01*
X21514000Y-12001550D01*
X21469550Y-12046000D01*
X21514000Y-12090450D01*
X21514000Y-12344450D02*
X21558450Y-12300000D01*
X21514000Y-12255550D01*
X21469550Y-12300000D01*
X21514000Y-12344450D01*
X21514000Y-12598450D02*
X21558450Y-12554000D01*
X21514000Y-12509550D01*
X21469550Y-12554000D01*
X21514000Y-12598450D01*
X21514000Y-12852450D02*
X21558450Y-12808000D01*
X21514000Y-12763550D01*
X21469550Y-12808000D01*
X21514000Y-12852450D01*
X21514000Y-13106450D02*
X21558450Y-13062000D01*
X21514000Y-13017550D01*
X21469550Y-13062000D01*
X21514000Y-13106450D01*
X23800000Y-11328450D02*
X23844450Y-11284000D01*
X23800000Y-11239550D01*
X23755550Y-11284000D01*
X23800000Y-11328450D01*
X23800000Y-11582450D02*
X23844450Y-11538000D01*
X23800000Y-11493550D01*
X23755550Y-11538000D01*
X23800000Y-11582450D01*
X23800000Y-11836450D02*
X23844450Y-11792000D01*
X23800000Y-11747550D01*
X23755550Y-11792000D01*
X23800000Y-11836450D01*
X23800000Y-12090450D02*
X23844450Y-12046000D01*
X23800000Y-12001550D01*
X23755550Y-12046000D01*
X23800000Y-12090450D01*
X23800000Y-12344450D02*
X23844450Y-12300000D01*
X23800000Y-12255550D01*
X23755550Y-12300000D01*
X23800000Y-12344450D01*
X23800000Y-12598450D02*
X23844450Y-12554000D01*
X23800000Y-12509550D01*
X23755550Y-12554000D01*
X23800000Y-12598450D01*
X23800000Y-12852450D02*
X23844450Y-12808000D01*
X23800000Y-12763550D01*
X23755550Y-12808000D01*
X23800000Y-12852450D01*
X23800000Y-13106450D02*
X23844450Y-13062000D01*
X23800000Y-13017550D01*
X23755550Y-13062000D01*
X23800000Y-13106450D01*
X12975000Y-6741000D02*
X13065000Y-6831000D01*
X13065000Y-6741000D02*
X12975000Y-6831000D01*
X13065000Y-6786000D02*
G75*
G02*
X12975000Y-6786000I-45000J0D01*
G01*
X12975000Y-6786000D02*
G75*
G02*
X13065000Y-6786000I45000J0D01*
G01*
X12975000Y-6995000D02*
X13065000Y-7085000D01*
X13065000Y-6995000D02*
X12975000Y-7085000D01*
X13065000Y-7040000D02*
G75*
G02*
X12975000Y-7040000I-45000J0D01*
G01*
X12975000Y-7040000D02*
G75*
G02*
X13065000Y-7040000I45000J0D01*
G01*
X22681000Y-9705000D02*
X22771000Y-9795000D01*
X22771000Y-9705000D02*
X22681000Y-9795000D01*
X22771000Y-9750000D02*
G75*
G02*
X22681000Y-9750000I-45000J0D01*
G01*
X22681000Y-9750000D02*
G75*
G02*
X22771000Y-9750000I45000J0D01*
G01*
X22935000Y-9705000D02*
X23025000Y-9795000D01*
X23025000Y-9705000D02*
X22935000Y-9795000D01*
X23025000Y-9750000D02*
G75*
G02*
X22935000Y-9750000I-45000J0D01*
G01*
X22935000Y-9750000D02*
G75*
G02*
X23025000Y-9750000I45000J0D01*
G01*
X12850000Y-4800000D02*
X12950000Y-4900000D01*
X12950000Y-4800000D02*
X12850000Y-4900000D01*
X12900000Y-4800000D02*
X12900000Y-4900000D01*
X12850000Y-4850000D02*
X12950000Y-4850000D01*
X12850000Y-5054000D02*
X12950000Y-5154000D01*
X12950000Y-5054000D02*
X12850000Y-5154000D01*
X12900000Y-5054000D02*
X12900000Y-5154000D01*
X12850000Y-5104000D02*
X12950000Y-5104000D01*
X12850000Y-5308000D02*
X12950000Y-5408000D01*
X12950000Y-5308000D02*
X12850000Y-5408000D01*
X12900000Y-5308000D02*
X12900000Y-5408000D01*
X12850000Y-5358000D02*
X12950000Y-5358000D01*
X12850000Y-5562000D02*
X12950000Y-5662000D01*
X12950000Y-5562000D02*
X12850000Y-5662000D01*
X12900000Y-5562000D02*
X12900000Y-5662000D01*
X12850000Y-5612000D02*
X12950000Y-5612000D01*
X12868000Y-12701000D02*
X12968000Y-12801000D01*
X12968000Y-12701000D02*
X12868000Y-12801000D01*
X12918000Y-12701000D02*
X12918000Y-12801000D01*
X12868000Y-12751000D02*
X12968000Y-12751000D01*
X12942000Y-14550000D02*
X13042000Y-14650000D01*
X13042000Y-14550000D02*
X12942000Y-14650000D01*
X12992000Y-14550000D02*
X12992000Y-14650000D01*
X12942000Y-14600000D02*
X13042000Y-14600000D01*
X13122000Y-12701000D02*
X13222000Y-12801000D01*
X13222000Y-12701000D02*
X13122000Y-12801000D01*
X13172000Y-12701000D02*
X13172000Y-12801000D01*
X13122000Y-12751000D02*
X13222000Y-12751000D01*
X13122000Y-13141000D02*
X13222000Y-13241000D01*
X13222000Y-13141000D02*
X13122000Y-13241000D01*
X13172000Y-13141000D02*
X13172000Y-13241000D01*
X13122000Y-13191000D02*
X13222000Y-13191000D01*
X13196000Y-14550000D02*
X13296000Y-14650000D01*
X13296000Y-14550000D02*
X13196000Y-14650000D01*
X13246000Y-14550000D02*
X13246000Y-14650000D01*
X13196000Y-14600000D02*
X13296000Y-14600000D01*
X13376000Y-12701000D02*
X13476000Y-12801000D01*
X13476000Y-12701000D02*
X13376000Y-12801000D01*
X13426000Y-12701000D02*
X13426000Y-12801000D01*
X13376000Y-12751000D02*
X13476000Y-12751000D01*
X13376000Y-13141000D02*
X13476000Y-13241000D01*
X13476000Y-13141000D02*
X13376000Y-13241000D01*
X13426000Y-13141000D02*
X13426000Y-13241000D01*
X13376000Y-13191000D02*
X13476000Y-13191000D01*
X13450000Y-14550000D02*
X13550000Y-14650000D01*
X13550000Y-14550000D02*
X13450000Y-14650000D01*
X13500000Y-14550000D02*
X13500000Y-14650000D01*
X13450000Y-14600000D02*
X13550000Y-14600000D01*
X13630000Y-12701000D02*
X13730000Y-12801000D01*
X13730000Y-12701000D02*
X13630000Y-12801000D01*
X13680000Y-12701000D02*
X13680000Y-12801000D01*
X13630000Y-12751000D02*
X13730000Y-12751000D01*
X13630000Y-13141000D02*
X13730000Y-13241000D01*
X13730000Y-13141000D02*
X13630000Y-13241000D01*
X13680000Y-13141000D02*
X13680000Y-13241000D01*
X13630000Y-13191000D02*
X13730000Y-13191000D01*
X13704000Y-14550000D02*
X13804000Y-14650000D01*
X13804000Y-14550000D02*
X13704000Y-14650000D01*
X13754000Y-14550000D02*
X13754000Y-14650000D01*
X13704000Y-14600000D02*
X13804000Y-14600000D01*
X14025000Y-10475000D02*
X14125000Y-10575000D01*
X14125000Y-10475000D02*
X14025000Y-10575000D01*
X14075000Y-10475000D02*
X14075000Y-10575000D01*
X14025000Y-10525000D02*
X14125000Y-10525000D01*
X14025000Y-10729000D02*
X14125000Y-10829000D01*
X14125000Y-10729000D02*
X14025000Y-10829000D01*
X14075000Y-10729000D02*
X14075000Y-10829000D01*
X14025000Y-10779000D02*
X14125000Y-10779000D01*
X14025000Y-10983000D02*
X14125000Y-11083000D01*
X14125000Y-10983000D02*
X14025000Y-11083000D01*
X14075000Y-10983000D02*
X14075000Y-11083000D01*
X14025000Y-11033000D02*
X14125000Y-11033000D01*
X14025000Y-11237000D02*
X14125000Y-11337000D01*
X14125000Y-11237000D02*
X14025000Y-11337000D01*
X14075000Y-11237000D02*
X14075000Y-11337000D01*
X14025000Y-11287000D02*
X14125000Y-11287000D01*
X14025000Y-11491000D02*
X14125000Y-11591000D01*
X14125000Y-11491000D02*
X14025000Y-11591000D01*
X14075000Y-11491000D02*
X14075000Y-11591000D01*
X14025000Y-11541000D02*
X14125000Y-11541000D01*
X14025000Y-11745000D02*
X14125000Y-11845000D01*
X14125000Y-11745000D02*
X14025000Y-11845000D01*
X14075000Y-11745000D02*
X14075000Y-11845000D01*
X14025000Y-11795000D02*
X14125000Y-11795000D01*
X14442000Y-9468000D02*
X14542000Y-9568000D01*
X14542000Y-9468000D02*
X14442000Y-9568000D01*
X14492000Y-9468000D02*
X14492000Y-9568000D01*
X14442000Y-9518000D02*
X14542000Y-9518000D01*
X14442000Y-9722000D02*
X14542000Y-9822000D01*
X14542000Y-9722000D02*
X14442000Y-9822000D01*
X14492000Y-9722000D02*
X14492000Y-9822000D01*
X14442000Y-9772000D02*
X14542000Y-9772000D01*
X14442000Y-9976000D02*
X14542000Y-10076000D01*
X14542000Y-9976000D02*
X14442000Y-10076000D01*
X14492000Y-9976000D02*
X14492000Y-10076000D01*
X14442000Y-10026000D02*
X14542000Y-10026000D01*
X14442000Y-10230000D02*
X14542000Y-10330000D01*
X14542000Y-10230000D02*
X14442000Y-10330000D01*
X14492000Y-10230000D02*
X14492000Y-10330000D01*
X14442000Y-10280000D02*
X14542000Y-10280000D01*
X14442000Y-10484000D02*
X14542000Y-10584000D01*
X14542000Y-10484000D02*
X14442000Y-10584000D01*
X14492000Y-10484000D02*
X14492000Y-10584000D01*
X14442000Y-10534000D02*
X14542000Y-10534000D01*
X14442000Y-10738000D02*
X14542000Y-10838000D01*
X14542000Y-10738000D02*
X14442000Y-10838000D01*
X14492000Y-10738000D02*
X14492000Y-10838000D01*
X14442000Y-10788000D02*
X14542000Y-10788000D01*
X14442000Y-10992000D02*
X14542000Y-11092000D01*
X14542000Y-10992000D02*
X14442000Y-11092000D01*
X14492000Y-10992000D02*
X14492000Y-11092000D01*
X14442000Y-11042000D02*
X14542000Y-11042000D01*
X14442000Y-11246000D02*
X14542000Y-11346000D01*
X14542000Y-11246000D02*
X14442000Y-11346000D01*
X14492000Y-11246000D02*
X14492000Y-11346000D01*
X14442000Y-11296000D02*
X14542000Y-11296000D01*
X14442000Y-11500000D02*
X14542000Y-11600000D01*
X14542000Y-11500000D02*
X14442000Y-11600000D01*
X14492000Y-11500000D02*
X14492000Y-11600000D01*
X14442000Y-11550000D02*
X14542000Y-11550000D01*
X14442000Y-11754000D02*
X14542000Y-11854000D01*
X14542000Y-11754000D02*
X14442000Y-11854000D01*
X14492000Y-11754000D02*
X14492000Y-11854000D01*
X14442000Y-11804000D02*
X14542000Y-11804000D01*
X14442000Y-12008000D02*
X14542000Y-12108000D01*
X14542000Y-12008000D02*
X14442000Y-12108000D01*
X14492000Y-12008000D02*
X14492000Y-12108000D01*
X14442000Y-12058000D02*
X14542000Y-12058000D01*
X14442000Y-12262000D02*
X14542000Y-12362000D01*
X14542000Y-12262000D02*
X14442000Y-12362000D01*
X14492000Y-12262000D02*
X14492000Y-12362000D01*
X14442000Y-12312000D02*
X14542000Y-12312000D01*
X14442000Y-12516000D02*
X14542000Y-12616000D01*
X14542000Y-12516000D02*
X14442000Y-12616000D01*
X14492000Y-12516000D02*
X14492000Y-12616000D01*
X14442000Y-12566000D02*
X14542000Y-12566000D01*
X14442000Y-12770000D02*
X14542000Y-12870000D01*
X14542000Y-12770000D02*
X14442000Y-12870000D01*
X14492000Y-12770000D02*
X14492000Y-12870000D01*
X14442000Y-12820000D02*
X14542000Y-12820000D01*
X14442000Y-13024000D02*
X14542000Y-13124000D01*
X14542000Y-13024000D02*
X14442000Y-13124000D01*
X14492000Y-13024000D02*
X14492000Y-13124000D01*
X14442000Y-13074000D02*
X14542000Y-13074000D01*
X14442000Y-13278000D02*
X14542000Y-13378000D01*
X14542000Y-13278000D02*
X14442000Y-13378000D01*
X14492000Y-13278000D02*
X14492000Y-13378000D01*
X14442000Y-13328000D02*
X14542000Y-13328000D01*
X14442000Y-13532000D02*
X14542000Y-13632000D01*
X14542000Y-13532000D02*
X14442000Y-13632000D01*
X14492000Y-13532000D02*
X14492000Y-13632000D01*
X14442000Y-13582000D02*
X14542000Y-13582000D01*
X14442000Y-13786000D02*
X14542000Y-13886000D01*
X14542000Y-13786000D02*
X14442000Y-13886000D01*
X14492000Y-13786000D02*
X14492000Y-13886000D01*
X14442000Y-13836000D02*
X14542000Y-13836000D01*
X14442000Y-14040000D02*
X14542000Y-14140000D01*
X14542000Y-14040000D02*
X14442000Y-14140000D01*
X14492000Y-14040000D02*
X14492000Y-14140000D01*
X14442000Y-14090000D02*
X14542000Y-14090000D01*
X14442000Y-14294000D02*
X14542000Y-14394000D01*
X14542000Y-14294000D02*
X14442000Y-14394000D01*
X14492000Y-14294000D02*
X14492000Y-14394000D01*
X14442000Y-14344000D02*
X14542000Y-14344000D01*
X14696000Y-9468000D02*
X14796000Y-9568000D01*
X14796000Y-9468000D02*
X14696000Y-9568000D01*
X14746000Y-9468000D02*
X14746000Y-9568000D01*
X14696000Y-9518000D02*
X14796000Y-9518000D01*
X14696000Y-9722000D02*
X14796000Y-9822000D01*
X14796000Y-9722000D02*
X14696000Y-9822000D01*
X14746000Y-9722000D02*
X14746000Y-9822000D01*
X14696000Y-9772000D02*
X14796000Y-9772000D01*
X14696000Y-9976000D02*
X14796000Y-10076000D01*
X14796000Y-9976000D02*
X14696000Y-10076000D01*
X14746000Y-9976000D02*
X14746000Y-10076000D01*
X14696000Y-10026000D02*
X14796000Y-10026000D01*
X14696000Y-10230000D02*
X14796000Y-10330000D01*
X14796000Y-10230000D02*
X14696000Y-10330000D01*
X14746000Y-10230000D02*
X14746000Y-10330000D01*
X14696000Y-10280000D02*
X14796000Y-10280000D01*
X14696000Y-10484000D02*
X14796000Y-10584000D01*
X14796000Y-10484000D02*
X14696000Y-10584000D01*
X14746000Y-10484000D02*
X14746000Y-10584000D01*
X14696000Y-10534000D02*
X14796000Y-10534000D01*
X14696000Y-10738000D02*
X14796000Y-10838000D01*
X14796000Y-10738000D02*
X14696000Y-10838000D01*
X14746000Y-10738000D02*
X14746000Y-10838000D01*
X14696000Y-10788000D02*
X14796000Y-10788000D01*
X14696000Y-10992000D02*
X14796000Y-11092000D01*
X14796000Y-10992000D02*
X14696000Y-11092000D01*
X14746000Y-10992000D02*
X14746000Y-11092000D01*
X14696000Y-11042000D02*
X14796000Y-11042000D01*
X14696000Y-11246000D02*
X14796000Y-11346000D01*
X14796000Y-11246000D02*
X14696000Y-11346000D01*
X14746000Y-11246000D02*
X14746000Y-11346000D01*
X14696000Y-11296000D02*
X14796000Y-11296000D01*
X14696000Y-11500000D02*
X14796000Y-11600000D01*
X14796000Y-11500000D02*
X14696000Y-11600000D01*
X14746000Y-11500000D02*
X14746000Y-11600000D01*
X14696000Y-11550000D02*
X14796000Y-11550000D01*
X14696000Y-11754000D02*
X14796000Y-11854000D01*
X14796000Y-11754000D02*
X14696000Y-11854000D01*
X14746000Y-11754000D02*
X14746000Y-11854000D01*
X14696000Y-11804000D02*
X14796000Y-11804000D01*
X14696000Y-12008000D02*
X14796000Y-12108000D01*
X14796000Y-12008000D02*
X14696000Y-12108000D01*
X14746000Y-12008000D02*
X14746000Y-12108000D01*
X14696000Y-12058000D02*
X14796000Y-12058000D01*
X14696000Y-12262000D02*
X14796000Y-12362000D01*
X14796000Y-12262000D02*
X14696000Y-12362000D01*
X14746000Y-12262000D02*
X14746000Y-12362000D01*
X14696000Y-12312000D02*
X14796000Y-12312000D01*
X14696000Y-12516000D02*
X14796000Y-12616000D01*
X14796000Y-12516000D02*
X14696000Y-12616000D01*
X14746000Y-12516000D02*
X14746000Y-12616000D01*
X14696000Y-12566000D02*
X14796000Y-12566000D01*
X14696000Y-12770000D02*
X14796000Y-12870000D01*
X14796000Y-12770000D02*
X14696000Y-12870000D01*
X14746000Y-12770000D02*
X14746000Y-12870000D01*
X14696000Y-12820000D02*
X14796000Y-12820000D01*
X14696000Y-13024000D02*
X14796000Y-13124000D01*
X14796000Y-13024000D02*
X14696000Y-13124000D01*
X14746000Y-13024000D02*
X14746000Y-13124000D01*
X14696000Y-13074000D02*
X14796000Y-13074000D01*
X14696000Y-13278000D02*
X14796000Y-13378000D01*
X14796000Y-13278000D02*
X14696000Y-13378000D01*
X14746000Y-13278000D02*
X14746000Y-13378000D01*
X14696000Y-13328000D02*
X14796000Y-13328000D01*
X14696000Y-13532000D02*
X14796000Y-13632000D01*
X14796000Y-13532000D02*
X14696000Y-13632000D01*
X14746000Y-13532000D02*
X14746000Y-13632000D01*
X14696000Y-13582000D02*
X14796000Y-13582000D01*
X14696000Y-13786000D02*
X14796000Y-13886000D01*
X14796000Y-13786000D02*
X14696000Y-13886000D01*
X14746000Y-13786000D02*
X14746000Y-13886000D01*
X14696000Y-13836000D02*
X14796000Y-13836000D01*
X14696000Y-14040000D02*
X14796000Y-14140000D01*
X14796000Y-14040000D02*
X14696000Y-14140000D01*
X14746000Y-14040000D02*
X14746000Y-14140000D01*
X14696000Y-14090000D02*
X14796000Y-14090000D01*
X14696000Y-14294000D02*
X14796000Y-14394000D01*
X14796000Y-14294000D02*
X14696000Y-14394000D01*
X14746000Y-14294000D02*
X14746000Y-14394000D01*
X14696000Y-14344000D02*
X14796000Y-14344000D01*
X17062000Y-11240000D02*
X17162000Y-11340000D01*
X17162000Y-11240000D02*
X17062000Y-11340000D01*
X17112000Y-11240000D02*
X17112000Y-11340000D01*
X17062000Y-11290000D02*
X17162000Y-11290000D01*
X17316000Y-11240000D02*
X17416000Y-11340000D01*
X17416000Y-11240000D02*
X17316000Y-11340000D01*
X17366000Y-11240000D02*
X17366000Y-11340000D01*
X17316000Y-11290000D02*
X17416000Y-11290000D01*
X17492000Y-14300000D02*
X17592000Y-14400000D01*
X17592000Y-14300000D02*
X17492000Y-14400000D01*
X17542000Y-14300000D02*
X17542000Y-14400000D01*
X17492000Y-14350000D02*
X17592000Y-14350000D01*
X17570000Y-11240000D02*
X17670000Y-11340000D01*
X17670000Y-11240000D02*
X17570000Y-11340000D01*
X17620000Y-11240000D02*
X17620000Y-11340000D01*
X17570000Y-11290000D02*
X17670000Y-11290000D01*
X17746000Y-14300000D02*
X17846000Y-14400000D01*
X17846000Y-14300000D02*
X17746000Y-14400000D01*
X17796000Y-14300000D02*
X17796000Y-14400000D01*
X17746000Y-14350000D02*
X17846000Y-14350000D01*
X17931000Y-4400000D02*
X18031000Y-4500000D01*
X18031000Y-4400000D02*
X17931000Y-4500000D01*
X17981000Y-4400000D02*
X17981000Y-4500000D01*
X17931000Y-4450000D02*
X18031000Y-4450000D01*
X18000000Y-14300000D02*
X18100000Y-14400000D01*
X18100000Y-14300000D02*
X18000000Y-14400000D01*
X18050000Y-14300000D02*
X18050000Y-14400000D01*
X18000000Y-14350000D02*
X18100000Y-14350000D01*
X18032000Y-11240000D02*
X18132000Y-11340000D01*
X18132000Y-11240000D02*
X18032000Y-11340000D01*
X18082000Y-11240000D02*
X18082000Y-11340000D01*
X18032000Y-11290000D02*
X18132000Y-11290000D01*
X18185000Y-4400000D02*
X18285000Y-4500000D01*
X18285000Y-4400000D02*
X18185000Y-4500000D01*
X18235000Y-4400000D02*
X18235000Y-4500000D01*
X18185000Y-4450000D02*
X18285000Y-4450000D01*
X18286000Y-11240000D02*
X18386000Y-11340000D01*
X18386000Y-11240000D02*
X18286000Y-11340000D01*
X18336000Y-11240000D02*
X18336000Y-11340000D01*
X18286000Y-11290000D02*
X18386000Y-11290000D01*
X18439000Y-4400000D02*
X18539000Y-4500000D01*
X18539000Y-4400000D02*
X18439000Y-4500000D01*
X18489000Y-4400000D02*
X18489000Y-4500000D01*
X18439000Y-4450000D02*
X18539000Y-4450000D01*
X18540000Y-11240000D02*
X18640000Y-11340000D01*
X18640000Y-11240000D02*
X18540000Y-11340000D01*
X18590000Y-11240000D02*
X18590000Y-11340000D01*
X18540000Y-11290000D02*
X18640000Y-11290000D01*
X18592000Y-14300000D02*
X18692000Y-14400000D01*
X18692000Y-14300000D02*
X18592000Y-14400000D01*
X18642000Y-14300000D02*
X18642000Y-14400000D01*
X18592000Y-14350000D02*
X18692000Y-14350000D01*
X18693000Y-4400000D02*
X18793000Y-4500000D01*
X18793000Y-4400000D02*
X18693000Y-4500000D01*
X18743000Y-4400000D02*
X18743000Y-4500000D01*
X18693000Y-4450000D02*
X18793000Y-4450000D01*
X18846000Y-14300000D02*
X18946000Y-14400000D01*
X18946000Y-14300000D02*
X18846000Y-14400000D01*
X18896000Y-14300000D02*
X18896000Y-14400000D01*
X18846000Y-14350000D02*
X18946000Y-14350000D01*
X19002000Y-11240000D02*
X19102000Y-11340000D01*
X19102000Y-11240000D02*
X19002000Y-11340000D01*
X19052000Y-11240000D02*
X19052000Y-11340000D01*
X19002000Y-11290000D02*
X19102000Y-11290000D01*
X19100000Y-14300000D02*
X19200000Y-14400000D01*
X19200000Y-14300000D02*
X19100000Y-14400000D01*
X19150000Y-14300000D02*
X19150000Y-14400000D01*
X19100000Y-14350000D02*
X19200000Y-14350000D01*
X19256000Y-11240000D02*
X19356000Y-11340000D01*
X19356000Y-11240000D02*
X19256000Y-11340000D01*
X19306000Y-11240000D02*
X19306000Y-11340000D01*
X19256000Y-11290000D02*
X19356000Y-11290000D01*
X19510000Y-11240000D02*
X19610000Y-11340000D01*
X19610000Y-11240000D02*
X19510000Y-11340000D01*
X19560000Y-11240000D02*
X19560000Y-11340000D01*
X19510000Y-11290000D02*
X19610000Y-11290000D01*
X20546000Y-9468000D02*
X20646000Y-9568000D01*
X20646000Y-9468000D02*
X20546000Y-9568000D01*
X20596000Y-9468000D02*
X20596000Y-9568000D01*
X20546000Y-9518000D02*
X20646000Y-9518000D01*
X20546000Y-9722000D02*
X20646000Y-9822000D01*
X20646000Y-9722000D02*
X20546000Y-9822000D01*
X20596000Y-9722000D02*
X20596000Y-9822000D01*
X20546000Y-9772000D02*
X20646000Y-9772000D01*
X20546000Y-9976000D02*
X20646000Y-10076000D01*
X20646000Y-9976000D02*
X20546000Y-10076000D01*
X20596000Y-9976000D02*
X20596000Y-10076000D01*
X20546000Y-10026000D02*
X20646000Y-10026000D01*
X20546000Y-10230000D02*
X20646000Y-10330000D01*
X20646000Y-10230000D02*
X20546000Y-10330000D01*
X20596000Y-10230000D02*
X20596000Y-10330000D01*
X20546000Y-10280000D02*
X20646000Y-10280000D01*
X20546000Y-10484000D02*
X20646000Y-10584000D01*
X20646000Y-10484000D02*
X20546000Y-10584000D01*
X20596000Y-10484000D02*
X20596000Y-10584000D01*
X20546000Y-10534000D02*
X20646000Y-10534000D01*
X20546000Y-10738000D02*
X20646000Y-10838000D01*
X20646000Y-10738000D02*
X20546000Y-10838000D01*
X20596000Y-10738000D02*
X20596000Y-10838000D01*
X20546000Y-10788000D02*
X20646000Y-10788000D01*
X20546000Y-10992000D02*
X20646000Y-11092000D01*
X20646000Y-10992000D02*
X20546000Y-11092000D01*
X20596000Y-10992000D02*
X20596000Y-11092000D01*
X20546000Y-11042000D02*
X20646000Y-11042000D01*
X20546000Y-11246000D02*
X20646000Y-11346000D01*
X20646000Y-11246000D02*
X20546000Y-11346000D01*
X20596000Y-11246000D02*
X20596000Y-11346000D01*
X20546000Y-11296000D02*
X20646000Y-11296000D01*
X20546000Y-11500000D02*
X20646000Y-11600000D01*
X20646000Y-11500000D02*
X20546000Y-11600000D01*
X20596000Y-11500000D02*
X20596000Y-11600000D01*
X20546000Y-11550000D02*
X20646000Y-11550000D01*
X20546000Y-11754000D02*
X20646000Y-11854000D01*
X20646000Y-11754000D02*
X20546000Y-11854000D01*
X20596000Y-11754000D02*
X20596000Y-11854000D01*
X20546000Y-11804000D02*
X20646000Y-11804000D01*
X20546000Y-12008000D02*
X20646000Y-12108000D01*
X20646000Y-12008000D02*
X20546000Y-12108000D01*
X20596000Y-12008000D02*
X20596000Y-12108000D01*
X20546000Y-12058000D02*
X20646000Y-12058000D01*
X20546000Y-12262000D02*
X20646000Y-12362000D01*
X20646000Y-12262000D02*
X20546000Y-12362000D01*
X20596000Y-12262000D02*
X20596000Y-12362000D01*
X20546000Y-12312000D02*
X20646000Y-12312000D01*
X20546000Y-12516000D02*
X20646000Y-12616000D01*
X20646000Y-12516000D02*
X20546000Y-12616000D01*
X20596000Y-12516000D02*
X20596000Y-12616000D01*
X20546000Y-12566000D02*
X20646000Y-12566000D01*
X20546000Y-12770000D02*
X20646000Y-12870000D01*
X20646000Y-12770000D02*
X20546000Y-12870000D01*
X20596000Y-12770000D02*
X20596000Y-12870000D01*
X20546000Y-12820000D02*
X20646000Y-12820000D01*
X20546000Y-13024000D02*
X20646000Y-13124000D01*
X20646000Y-13024000D02*
X20546000Y-13124000D01*
X20596000Y-13024000D02*
X20596000Y-13124000D01*
X20546000Y-13074000D02*
X20646000Y-13074000D01*
X20546000Y-13278000D02*
X20646000Y-13378000D01*
X20646000Y-13278000D02*
X20546000Y-13378000D01*
X20596000Y-13278000D02*
X20596000Y-13378000D01*
X20546000Y-13328000D02*
X20646000Y-13328000D01*
X20546000Y-13532000D02*
X20646000Y-13632000D01*
X20646000Y-13532000D02*
X20546000Y-13632000D01*
X20596000Y-13532000D02*
X20596000Y-13632000D01*
X20546000Y-13582000D02*
X20646000Y-13582000D01*
X20546000Y-13786000D02*
X20646000Y-13886000D01*
X20646000Y-13786000D02*
X20546000Y-13886000D01*
X20596000Y-13786000D02*
X20596000Y-13886000D01*
X20546000Y-13836000D02*
X20646000Y-13836000D01*
X20546000Y-14040000D02*
X20646000Y-14140000D01*
X20646000Y-14040000D02*
X20546000Y-14140000D01*
X20596000Y-14040000D02*
X20596000Y-14140000D01*
X20546000Y-14090000D02*
X20646000Y-14090000D01*
X20546000Y-14294000D02*
X20646000Y-14394000D01*
X20646000Y-14294000D02*
X20546000Y-14394000D01*
X20596000Y-14294000D02*
X20596000Y-14394000D01*
X20546000Y-14344000D02*
X20646000Y-14344000D01*
X20800000Y-9468000D02*
X20900000Y-9568000D01*
X20900000Y-9468000D02*
X20800000Y-9568000D01*
X20850000Y-9468000D02*
X20850000Y-9568000D01*
X20800000Y-9518000D02*
X20900000Y-9518000D01*
X20800000Y-9722000D02*
X20900000Y-9822000D01*
X20900000Y-9722000D02*
X20800000Y-9822000D01*
X20850000Y-9722000D02*
X20850000Y-9822000D01*
X20800000Y-9772000D02*
X20900000Y-9772000D01*
X20800000Y-9976000D02*
X20900000Y-10076000D01*
X20900000Y-9976000D02*
X20800000Y-10076000D01*
X20850000Y-9976000D02*
X20850000Y-10076000D01*
X20800000Y-10026000D02*
X20900000Y-10026000D01*
X20800000Y-10230000D02*
X20900000Y-10330000D01*
X20900000Y-10230000D02*
X20800000Y-10330000D01*
X20850000Y-10230000D02*
X20850000Y-10330000D01*
X20800000Y-10280000D02*
X20900000Y-10280000D01*
X20800000Y-10484000D02*
X20900000Y-10584000D01*
X20900000Y-10484000D02*
X20800000Y-10584000D01*
X20850000Y-10484000D02*
X20850000Y-10584000D01*
X20800000Y-10534000D02*
X20900000Y-10534000D01*
X20800000Y-10738000D02*
X20900000Y-10838000D01*
X20900000Y-10738000D02*
X20800000Y-10838000D01*
X20850000Y-10738000D02*
X20850000Y-10838000D01*
X20800000Y-10788000D02*
X20900000Y-10788000D01*
X20800000Y-10992000D02*
X20900000Y-11092000D01*
X20900000Y-10992000D02*
X20800000Y-11092000D01*
X20850000Y-10992000D02*
X20850000Y-11092000D01*
X20800000Y-11042000D02*
X20900000Y-11042000D01*
X20800000Y-11246000D02*
X20900000Y-11346000D01*
X20900000Y-11246000D02*
X20800000Y-11346000D01*
X20850000Y-11246000D02*
X20850000Y-11346000D01*
X20800000Y-11296000D02*
X20900000Y-11296000D01*
X20800000Y-11500000D02*
X20900000Y-11600000D01*
X20900000Y-11500000D02*
X20800000Y-11600000D01*
X20850000Y-11500000D02*
X20850000Y-11600000D01*
X20800000Y-11550000D02*
X20900000Y-11550000D01*
X20800000Y-11754000D02*
X20900000Y-11854000D01*
X20900000Y-11754000D02*
X20800000Y-11854000D01*
X20850000Y-11754000D02*
X20850000Y-11854000D01*
X20800000Y-11804000D02*
X20900000Y-11804000D01*
X20800000Y-12008000D02*
X20900000Y-12108000D01*
X20900000Y-12008000D02*
X20800000Y-12108000D01*
X20850000Y-12008000D02*
X20850000Y-12108000D01*
X20800000Y-12058000D02*
X20900000Y-12058000D01*
X20800000Y-12262000D02*
X20900000Y-12362000D01*
X20900000Y-12262000D02*
X20800000Y-12362000D01*
X20850000Y-12262000D02*
X20850000Y-12362000D01*
X20800000Y-12312000D02*
X20900000Y-12312000D01*
X20800000Y-12516000D02*
X20900000Y-12616000D01*
X20900000Y-12516000D02*
X20800000Y-12616000D01*
X20850000Y-12516000D02*
X20850000Y-12616000D01*
X20800000Y-12566000D02*
X20900000Y-12566000D01*
X20800000Y-12770000D02*
X20900000Y-12870000D01*
X20900000Y-12770000D02*
X20800000Y-12870000D01*
X20850000Y-12770000D02*
X20850000Y-12870000D01*
X20800000Y-12820000D02*
X20900000Y-12820000D01*
X20800000Y-13024000D02*
X20900000Y-13124000D01*
X20900000Y-13024000D02*
X20800000Y-13124000D01*
X20850000Y-13024000D02*
X20850000Y-13124000D01*
X20800000Y-13074000D02*
X20900000Y-13074000D01*
X20800000Y-13278000D02*
X20900000Y-13378000D01*
X20900000Y-13278000D02*
X20800000Y-13378000D01*
X20850000Y-13278000D02*
X20850000Y-13378000D01*
X20800000Y-13328000D02*
X20900000Y-13328000D01*
X20800000Y-13532000D02*
X20900000Y-13632000D01*
X20900000Y-13532000D02*
X20800000Y-13632000D01*
X20850000Y-13532000D02*
X20850000Y-13632000D01*
X20800000Y-13582000D02*
X20900000Y-13582000D01*
X20800000Y-13786000D02*
X20900000Y-13886000D01*
X20900000Y-13786000D02*
X20800000Y-13886000D01*
X20850000Y-13786000D02*
X20850000Y-13886000D01*
X20800000Y-13836000D02*
X20900000Y-13836000D01*
X20800000Y-14040000D02*
X20900000Y-14140000D01*
X20900000Y-14040000D02*
X20800000Y-14140000D01*
X20850000Y-14040000D02*
X20850000Y-14140000D01*
X20800000Y-14090000D02*
X20900000Y-14090000D01*
X20800000Y-14294000D02*
X20900000Y-14394000D01*
X20900000Y-14294000D02*
X20800000Y-14394000D01*
X20850000Y-14294000D02*
X20850000Y-14394000D01*
X20800000Y-14344000D02*
X20900000Y-14344000D01*
X22150000Y-4542000D02*
X22250000Y-4642000D01*
X22250000Y-4542000D02*
X22150000Y-4642000D01*
X22200000Y-4542000D02*
X22200000Y-4642000D01*
X22150000Y-4592000D02*
X22250000Y-4592000D01*
X22150000Y-4796000D02*
X22250000Y-4896000D01*
X22250000Y-4796000D02*
X22150000Y-4896000D01*
X22200000Y-4796000D02*
X22200000Y-4896000D01*
X22150000Y-4846000D02*
X22250000Y-4846000D01*
X22150000Y-5050000D02*
X22250000Y-5150000D01*
X22250000Y-5050000D02*
X22150000Y-5150000D01*
X22200000Y-5050000D02*
X22200000Y-5150000D01*
X22150000Y-5100000D02*
X22250000Y-5100000D01*
X22900000Y-14500000D02*
X23000000Y-14600000D01*
X23000000Y-14500000D02*
X22900000Y-14600000D01*
X22950000Y-14500000D02*
X22950000Y-14600000D01*
X22900000Y-14550000D02*
X23000000Y-14550000D01*
X23154000Y-14500000D02*
X23254000Y-14600000D01*
X23254000Y-14500000D02*
X23154000Y-14600000D01*
X23204000Y-14500000D02*
X23204000Y-14600000D01*
X23154000Y-14550000D02*
X23254000Y-14550000D01*
X23192000Y-8700000D02*
X23292000Y-8800000D01*
X23292000Y-8700000D02*
X23192000Y-8800000D01*
X23242000Y-8700000D02*
X23242000Y-8800000D01*
X23192000Y-8750000D02*
X23292000Y-8750000D01*
X23200000Y-8050000D02*
X23300000Y-8150000D01*
X23300000Y-8050000D02*
X23200000Y-8150000D01*
X23250000Y-8050000D02*
X23250000Y-8150000D01*
X23200000Y-8100000D02*
X23300000Y-8100000D01*
X23408000Y-14500000D02*
X23508000Y-14600000D01*
X23508000Y-14500000D02*
X23408000Y-14600000D01*
X23458000Y-14500000D02*
X23458000Y-14600000D01*
X23408000Y-14550000D02*
X23508000Y-14550000D01*
X23446000Y-8700000D02*
X23546000Y-8800000D01*
X23546000Y-8700000D02*
X23446000Y-8800000D01*
X23496000Y-8700000D02*
X23496000Y-8800000D01*
X23446000Y-8750000D02*
X23546000Y-8750000D01*
X23454000Y-8050000D02*
X23554000Y-8150000D01*
X23554000Y-8050000D02*
X23454000Y-8150000D01*
X23504000Y-8050000D02*
X23504000Y-8150000D01*
X23454000Y-8100000D02*
X23554000Y-8100000D01*
X23662000Y-14500000D02*
X23762000Y-14600000D01*
X23762000Y-14500000D02*
X23662000Y-14600000D01*
X23712000Y-14500000D02*
X23712000Y-14600000D01*
X23662000Y-14550000D02*
X23762000Y-14550000D01*
X23700000Y-8700000D02*
X23800000Y-8800000D01*
X23800000Y-8700000D02*
X23700000Y-8800000D01*
X23750000Y-8700000D02*
X23750000Y-8800000D01*
X23700000Y-8750000D02*
X23800000Y-8750000D01*
X23708000Y-8050000D02*
X23808000Y-8150000D01*
X23808000Y-8050000D02*
X23708000Y-8150000D01*
X23758000Y-8050000D02*
X23758000Y-8150000D01*
X23708000Y-8100000D02*
X23808000Y-8100000D01*
X23710000Y-4803000D02*
X23810000Y-4903000D01*
X23810000Y-4803000D02*
X23710000Y-4903000D01*
X23760000Y-4803000D02*
X23760000Y-4903000D01*
X23710000Y-4853000D02*
X23810000Y-4853000D01*
X23710000Y-5057000D02*
X23810000Y-5157000D01*
X23810000Y-5057000D02*
X23710000Y-5157000D01*
X23760000Y-5057000D02*
X23760000Y-5157000D01*
X23710000Y-5107000D02*
X23810000Y-5107000D01*
X23710000Y-5311000D02*
X23810000Y-5411000D01*
X23810000Y-5311000D02*
X23710000Y-5411000D01*
X23760000Y-5311000D02*
X23760000Y-5411000D01*
X23710000Y-5361000D02*
X23810000Y-5361000D01*
X23710000Y-5565000D02*
X23810000Y-5665000D01*
X23810000Y-5565000D02*
X23710000Y-5665000D01*
X23760000Y-5565000D02*
X23760000Y-5665000D01*
X23710000Y-5615000D02*
X23810000Y-5615000D01*
D13*
X13115000Y-13745000D02*
X13225000Y-13855000D01*
X13225000Y-13745000D02*
X13115000Y-13855000D01*
X13208891Y-13838891D02*
X13208891Y-13761109D01*
X13131109Y-13761109D01*
X13131109Y-13838891D01*
X13208891Y-13838891D01*
X13285000Y-13745000D02*
X13395000Y-13855000D01*
X13395000Y-13745000D02*
X13285000Y-13855000D01*
X13378891Y-13838891D02*
X13378891Y-13761109D01*
X13301109Y-13761109D01*
X13301109Y-13838891D01*
X13378891Y-13838891D01*
X13455000Y-13745000D02*
X13565000Y-13855000D01*
X13565000Y-13745000D02*
X13455000Y-13855000D01*
X13548891Y-13838891D02*
X13548891Y-13761109D01*
X13471109Y-13761109D01*
X13471109Y-13838891D01*
X13548891Y-13838891D01*
X13625000Y-13745000D02*
X13735000Y-13855000D01*
X13735000Y-13745000D02*
X13625000Y-13855000D01*
X13718891Y-13838891D02*
X13718891Y-13761109D01*
X13641109Y-13761109D01*
X13641109Y-13838891D01*
X13718891Y-13838891D01*
X13795000Y-13745000D02*
X13905000Y-13855000D01*
X13905000Y-13745000D02*
X13795000Y-13855000D01*
X13888891Y-13838891D02*
X13888891Y-13761109D01*
X13811109Y-13761109D01*
X13811109Y-13838891D01*
X13888891Y-13838891D01*
X21595000Y-8045000D02*
X21705000Y-8155000D01*
X21705000Y-8045000D02*
X21595000Y-8155000D01*
X21688891Y-8138891D02*
X21688891Y-8061109D01*
X21611109Y-8061109D01*
X21611109Y-8138891D01*
X21688891Y-8138891D01*
X21849000Y-8045000D02*
X21959000Y-8155000D01*
X21959000Y-8045000D02*
X21849000Y-8155000D01*
X21942891Y-8138891D02*
X21942891Y-8061109D01*
X21865109Y-8061109D01*
X21865109Y-8138891D01*
X21942891Y-8138891D01*
X22103000Y-8045000D02*
X22213000Y-8155000D01*
X22213000Y-8045000D02*
X22103000Y-8155000D01*
X22196891Y-8138891D02*
X22196891Y-8061109D01*
X22119109Y-8061109D01*
X22119109Y-8138891D01*
X22196891Y-8138891D01*
D14*
X16627000Y-7635000D02*
X16757000Y-7765000D01*
X16757000Y-7635000D02*
X16627000Y-7765000D01*
X16692000Y-7765000D02*
X16757000Y-7700000D01*
X16692000Y-7635000D01*
X16627000Y-7700000D01*
X16692000Y-7765000D01*
X17135000Y-7635000D02*
X17265000Y-7765000D01*
X17265000Y-7635000D02*
X17135000Y-7765000D01*
X17200000Y-7765000D02*
X17265000Y-7700000D01*
X17200000Y-7635000D01*
X17135000Y-7700000D01*
X17200000Y-7765000D01*
X19435000Y-7635000D02*
X19565000Y-7765000D01*
X19565000Y-7635000D02*
X19435000Y-7765000D01*
X19500000Y-7765000D02*
X19565000Y-7700000D01*
X19500000Y-7635000D01*
X19435000Y-7700000D01*
X19500000Y-7765000D01*
X19943000Y-7635000D02*
X20073000Y-7765000D01*
X20073000Y-7635000D02*
X19943000Y-7765000D01*
X20008000Y-7765000D02*
X20073000Y-7700000D01*
X20008000Y-7635000D01*
X19943000Y-7700000D01*
X20008000Y-7765000D01*
X21575000Y-6065000D02*
X21705000Y-6195000D01*
X21705000Y-6065000D02*
X21575000Y-6195000D01*
X21640000Y-6195000D02*
X21705000Y-6130000D01*
X21640000Y-6065000D01*
X21575000Y-6130000D01*
X21640000Y-6195000D01*
X21575000Y-6573000D02*
X21705000Y-6703000D01*
X21705000Y-6573000D02*
X21575000Y-6703000D01*
X21640000Y-6703000D02*
X21705000Y-6638000D01*
X21640000Y-6573000D01*
X21575000Y-6638000D01*
X21640000Y-6703000D01*
D11*
X12608277Y-15363984D02*
X12608277Y-15163984D01*
X12608277Y-15163984D02*
X12655896Y-15163984D01*
X12655896Y-15163984D02*
X12684467Y-15173508D01*
X12684467Y-15173508D02*
X12703515Y-15192555D01*
X12703515Y-15192555D02*
X12713039Y-15211603D01*
X12713039Y-15211603D02*
X12722562Y-15249698D01*
X12722562Y-15249698D02*
X12722562Y-15278269D01*
X12722562Y-15278269D02*
X12713039Y-15316365D01*
X12713039Y-15316365D02*
X12703515Y-15335412D01*
X12703515Y-15335412D02*
X12684467Y-15354460D01*
X12684467Y-15354460D02*
X12655896Y-15363984D01*
X12655896Y-15363984D02*
X12608277Y-15363984D01*
X12808277Y-15363984D02*
X12808277Y-15230650D01*
X12808277Y-15268746D02*
X12817801Y-15249698D01*
X12817801Y-15249698D02*
X12827324Y-15240174D01*
X12827324Y-15240174D02*
X12846372Y-15230650D01*
X12846372Y-15230650D02*
X12865420Y-15230650D01*
X12932086Y-15363984D02*
X12932086Y-15230650D01*
X12932086Y-15163984D02*
X12922562Y-15173508D01*
X12922562Y-15173508D02*
X12932086Y-15183031D01*
X12932086Y-15183031D02*
X12941610Y-15173508D01*
X12941610Y-15173508D02*
X12932086Y-15163984D01*
X12932086Y-15163984D02*
X12932086Y-15183031D01*
X13055896Y-15363984D02*
X13036848Y-15354460D01*
X13036848Y-15354460D02*
X13027324Y-15335412D01*
X13027324Y-15335412D02*
X13027324Y-15163984D01*
X13160658Y-15363984D02*
X13141610Y-15354460D01*
X13141610Y-15354460D02*
X13132086Y-15335412D01*
X13132086Y-15335412D02*
X13132086Y-15163984D01*
X13389229Y-15363984D02*
X13389229Y-15163984D01*
X13389229Y-15163984D02*
X13455896Y-15306841D01*
X13455896Y-15306841D02*
X13522562Y-15163984D01*
X13522562Y-15163984D02*
X13522562Y-15363984D01*
X13703515Y-15363984D02*
X13703515Y-15259222D01*
X13703515Y-15259222D02*
X13693991Y-15240174D01*
X13693991Y-15240174D02*
X13674943Y-15230650D01*
X13674943Y-15230650D02*
X13636848Y-15230650D01*
X13636848Y-15230650D02*
X13617801Y-15240174D01*
X13703515Y-15354460D02*
X13684467Y-15363984D01*
X13684467Y-15363984D02*
X13636848Y-15363984D01*
X13636848Y-15363984D02*
X13617801Y-15354460D01*
X13617801Y-15354460D02*
X13608277Y-15335412D01*
X13608277Y-15335412D02*
X13608277Y-15316365D01*
X13608277Y-15316365D02*
X13617801Y-15297317D01*
X13617801Y-15297317D02*
X13636848Y-15287793D01*
X13636848Y-15287793D02*
X13684467Y-15287793D01*
X13684467Y-15287793D02*
X13703515Y-15278269D01*
X13798753Y-15230650D02*
X13798753Y-15430650D01*
X13798753Y-15240174D02*
X13817801Y-15230650D01*
X13817801Y-15230650D02*
X13855896Y-15230650D01*
X13855896Y-15230650D02*
X13874943Y-15240174D01*
X13874943Y-15240174D02*
X13884467Y-15249698D01*
X13884467Y-15249698D02*
X13893991Y-15268746D01*
X13893991Y-15268746D02*
X13893991Y-15325888D01*
X13893991Y-15325888D02*
X13884467Y-15344936D01*
X13884467Y-15344936D02*
X13874943Y-15354460D01*
X13874943Y-15354460D02*
X13855896Y-15363984D01*
X13855896Y-15363984D02*
X13817801Y-15363984D01*
X13817801Y-15363984D02*
X13798753Y-15354460D01*
X13979705Y-15344936D02*
X13989229Y-15354460D01*
X13989229Y-15354460D02*
X13979705Y-15363984D01*
X13979705Y-15363984D02*
X13970182Y-15354460D01*
X13970182Y-15354460D02*
X13979705Y-15344936D01*
X13979705Y-15344936D02*
X13979705Y-15363984D01*
X13979705Y-15240174D02*
X13989229Y-15249698D01*
X13989229Y-15249698D02*
X13979705Y-15259222D01*
X13979705Y-15259222D02*
X13970182Y-15249698D01*
X13970182Y-15249698D02*
X13979705Y-15240174D01*
X13979705Y-15240174D02*
X13979705Y-15259222D01*
D12*
X12287500Y-15662500D02*
X12347500Y-15722500D01*
X12347500Y-15662500D02*
X12287500Y-15722500D01*
D11*
X12646372Y-15583984D02*
X12665420Y-15583984D01*
X12665420Y-15583984D02*
X12684467Y-15593508D01*
X12684467Y-15593508D02*
X12693991Y-15603031D01*
X12693991Y-15603031D02*
X12703515Y-15622079D01*
X12703515Y-15622079D02*
X12713039Y-15660174D01*
X12713039Y-15660174D02*
X12713039Y-15707793D01*
X12713039Y-15707793D02*
X12703515Y-15745888D01*
X12703515Y-15745888D02*
X12693991Y-15764936D01*
X12693991Y-15764936D02*
X12684467Y-15774460D01*
X12684467Y-15774460D02*
X12665420Y-15783984D01*
X12665420Y-15783984D02*
X12646372Y-15783984D01*
X12646372Y-15783984D02*
X12627324Y-15774460D01*
X12627324Y-15774460D02*
X12617801Y-15764936D01*
X12617801Y-15764936D02*
X12608277Y-15745888D01*
X12608277Y-15745888D02*
X12598753Y-15707793D01*
X12598753Y-15707793D02*
X12598753Y-15660174D01*
X12598753Y-15660174D02*
X12608277Y-15622079D01*
X12608277Y-15622079D02*
X12617801Y-15603031D01*
X12617801Y-15603031D02*
X12627324Y-15593508D01*
X12627324Y-15593508D02*
X12646372Y-15583984D01*
X12798753Y-15764936D02*
X12808277Y-15774460D01*
X12808277Y-15774460D02*
X12798753Y-15783984D01*
X12798753Y-15783984D02*
X12789229Y-15774460D01*
X12789229Y-15774460D02*
X12798753Y-15764936D01*
X12798753Y-15764936D02*
X12798753Y-15783984D01*
X12979705Y-15583984D02*
X12941610Y-15583984D01*
X12941610Y-15583984D02*
X12922562Y-15593508D01*
X12922562Y-15593508D02*
X12913039Y-15603031D01*
X12913039Y-15603031D02*
X12893991Y-15631603D01*
X12893991Y-15631603D02*
X12884467Y-15669698D01*
X12884467Y-15669698D02*
X12884467Y-15745888D01*
X12884467Y-15745888D02*
X12893991Y-15764936D01*
X12893991Y-15764936D02*
X12903515Y-15774460D01*
X12903515Y-15774460D02*
X12922562Y-15783984D01*
X12922562Y-15783984D02*
X12960658Y-15783984D01*
X12960658Y-15783984D02*
X12979705Y-15774460D01*
X12979705Y-15774460D02*
X12989229Y-15764936D01*
X12989229Y-15764936D02*
X12998753Y-15745888D01*
X12998753Y-15745888D02*
X12998753Y-15698269D01*
X12998753Y-15698269D02*
X12989229Y-15679222D01*
X12989229Y-15679222D02*
X12979705Y-15669698D01*
X12979705Y-15669698D02*
X12960658Y-15660174D01*
X12960658Y-15660174D02*
X12922562Y-15660174D01*
X12922562Y-15660174D02*
X12903515Y-15669698D01*
X12903515Y-15669698D02*
X12893991Y-15679222D01*
X12893991Y-15679222D02*
X12884467Y-15698269D01*
X13122562Y-15583984D02*
X13141610Y-15583984D01*
X13141610Y-15583984D02*
X13160658Y-15593508D01*
X13160658Y-15593508D02*
X13170182Y-15603031D01*
X13170182Y-15603031D02*
X13179705Y-15622079D01*
X13179705Y-15622079D02*
X13189229Y-15660174D01*
X13189229Y-15660174D02*
X13189229Y-15707793D01*
X13189229Y-15707793D02*
X13179705Y-15745888D01*
X13179705Y-15745888D02*
X13170182Y-15764936D01*
X13170182Y-15764936D02*
X13160658Y-15774460D01*
X13160658Y-15774460D02*
X13141610Y-15783984D01*
X13141610Y-15783984D02*
X13122562Y-15783984D01*
X13122562Y-15783984D02*
X13103515Y-15774460D01*
X13103515Y-15774460D02*
X13093991Y-15764936D01*
X13093991Y-15764936D02*
X13084467Y-15745888D01*
X13084467Y-15745888D02*
X13074943Y-15707793D01*
X13074943Y-15707793D02*
X13074943Y-15660174D01*
X13074943Y-15660174D02*
X13084467Y-15622079D01*
X13084467Y-15622079D02*
X13093991Y-15603031D01*
X13093991Y-15603031D02*
X13103515Y-15593508D01*
X13103515Y-15593508D02*
X13122562Y-15583984D01*
X13313039Y-15583984D02*
X13332086Y-15583984D01*
X13332086Y-15583984D02*
X13351134Y-15593508D01*
X13351134Y-15593508D02*
X13360658Y-15603031D01*
X13360658Y-15603031D02*
X13370182Y-15622079D01*
X13370182Y-15622079D02*
X13379705Y-15660174D01*
X13379705Y-15660174D02*
X13379705Y-15707793D01*
X13379705Y-15707793D02*
X13370182Y-15745888D01*
X13370182Y-15745888D02*
X13360658Y-15764936D01*
X13360658Y-15764936D02*
X13351134Y-15774460D01*
X13351134Y-15774460D02*
X13332086Y-15783984D01*
X13332086Y-15783984D02*
X13313039Y-15783984D01*
X13313039Y-15783984D02*
X13293991Y-15774460D01*
X13293991Y-15774460D02*
X13284467Y-15764936D01*
X13284467Y-15764936D02*
X13274943Y-15745888D01*
X13274943Y-15745888D02*
X13265420Y-15707793D01*
X13265420Y-15707793D02*
X13265420Y-15660174D01*
X13265420Y-15660174D02*
X13274943Y-15622079D01*
X13274943Y-15622079D02*
X13284467Y-15603031D01*
X13284467Y-15603031D02*
X13293991Y-15593508D01*
X13293991Y-15593508D02*
X13313039Y-15583984D01*
X13465420Y-15783984D02*
X13465420Y-15650650D01*
X13465420Y-15669698D02*
X13474943Y-15660174D01*
X13474943Y-15660174D02*
X13493991Y-15650650D01*
X13493991Y-15650650D02*
X13522563Y-15650650D01*
X13522563Y-15650650D02*
X13541610Y-15660174D01*
X13541610Y-15660174D02*
X13551134Y-15679222D01*
X13551134Y-15679222D02*
X13551134Y-15783984D01*
X13551134Y-15679222D02*
X13560658Y-15660174D01*
X13560658Y-15660174D02*
X13579705Y-15650650D01*
X13579705Y-15650650D02*
X13608277Y-15650650D01*
X13608277Y-15650650D02*
X13627324Y-15660174D01*
X13627324Y-15660174D02*
X13636848Y-15679222D01*
X13636848Y-15679222D02*
X13636848Y-15783984D01*
X13732086Y-15783984D02*
X13732086Y-15650650D01*
X13732086Y-15669698D02*
X13741610Y-15660174D01*
X13741610Y-15660174D02*
X13760658Y-15650650D01*
X13760658Y-15650650D02*
X13789229Y-15650650D01*
X13789229Y-15650650D02*
X13808277Y-15660174D01*
X13808277Y-15660174D02*
X13817801Y-15679222D01*
X13817801Y-15679222D02*
X13817801Y-15783984D01*
X13817801Y-15679222D02*
X13827324Y-15660174D01*
X13827324Y-15660174D02*
X13846372Y-15650650D01*
X13846372Y-15650650D02*
X13874943Y-15650650D01*
X13874943Y-15650650D02*
X13893991Y-15660174D01*
X13893991Y-15660174D02*
X13903515Y-15679222D01*
X13903515Y-15679222D02*
X13903515Y-15783984D01*
X14293991Y-15574460D02*
X14122563Y-15831603D01*
X14551134Y-15583984D02*
X14570182Y-15583984D01*
X14570182Y-15583984D02*
X14589229Y-15593508D01*
X14589229Y-15593508D02*
X14598753Y-15603031D01*
X14598753Y-15603031D02*
X14608277Y-15622079D01*
X14608277Y-15622079D02*
X14617801Y-15660174D01*
X14617801Y-15660174D02*
X14617801Y-15707793D01*
X14617801Y-15707793D02*
X14608277Y-15745888D01*
X14608277Y-15745888D02*
X14598753Y-15764936D01*
X14598753Y-15764936D02*
X14589229Y-15774460D01*
X14589229Y-15774460D02*
X14570182Y-15783984D01*
X14570182Y-15783984D02*
X14551134Y-15783984D01*
X14551134Y-15783984D02*
X14532086Y-15774460D01*
X14532086Y-15774460D02*
X14522563Y-15764936D01*
X14522563Y-15764936D02*
X14513039Y-15745888D01*
X14513039Y-15745888D02*
X14503515Y-15707793D01*
X14503515Y-15707793D02*
X14503515Y-15660174D01*
X14503515Y-15660174D02*
X14513039Y-15622079D01*
X14513039Y-15622079D02*
X14522563Y-15603031D01*
X14522563Y-15603031D02*
X14532086Y-15593508D01*
X14532086Y-15593508D02*
X14551134Y-15583984D01*
X14703515Y-15764936D02*
X14713039Y-15774460D01*
X14713039Y-15774460D02*
X14703515Y-15783984D01*
X14703515Y-15783984D02*
X14693991Y-15774460D01*
X14693991Y-15774460D02*
X14703515Y-15764936D01*
X14703515Y-15764936D02*
X14703515Y-15783984D01*
X14836848Y-15583984D02*
X14855896Y-15583984D01*
X14855896Y-15583984D02*
X14874944Y-15593508D01*
X14874944Y-15593508D02*
X14884467Y-15603031D01*
X14884467Y-15603031D02*
X14893991Y-15622079D01*
X14893991Y-15622079D02*
X14903515Y-15660174D01*
X14903515Y-15660174D02*
X14903515Y-15707793D01*
X14903515Y-15707793D02*
X14893991Y-15745888D01*
X14893991Y-15745888D02*
X14884467Y-15764936D01*
X14884467Y-15764936D02*
X14874944Y-15774460D01*
X14874944Y-15774460D02*
X14855896Y-15783984D01*
X14855896Y-15783984D02*
X14836848Y-15783984D01*
X14836848Y-15783984D02*
X14817801Y-15774460D01*
X14817801Y-15774460D02*
X14808277Y-15764936D01*
X14808277Y-15764936D02*
X14798753Y-15745888D01*
X14798753Y-15745888D02*
X14789229Y-15707793D01*
X14789229Y-15707793D02*
X14789229Y-15660174D01*
X14789229Y-15660174D02*
X14798753Y-15622079D01*
X14798753Y-15622079D02*
X14808277Y-15603031D01*
X14808277Y-15603031D02*
X14817801Y-15593508D01*
X14817801Y-15593508D02*
X14836848Y-15583984D01*
X14979706Y-15603031D02*
X14989229Y-15593508D01*
X14989229Y-15593508D02*
X15008277Y-15583984D01*
X15008277Y-15583984D02*
X15055896Y-15583984D01*
X15055896Y-15583984D02*
X15074944Y-15593508D01*
X15074944Y-15593508D02*
X15084467Y-15603031D01*
X15084467Y-15603031D02*
X15093991Y-15622079D01*
X15093991Y-15622079D02*
X15093991Y-15641127D01*
X15093991Y-15641127D02*
X15084467Y-15669698D01*
X15084467Y-15669698D02*
X14970182Y-15783984D01*
X14970182Y-15783984D02*
X15093991Y-15783984D01*
X15160658Y-15583984D02*
X15284467Y-15583984D01*
X15284467Y-15583984D02*
X15217801Y-15660174D01*
X15217801Y-15660174D02*
X15246372Y-15660174D01*
X15246372Y-15660174D02*
X15265420Y-15669698D01*
X15265420Y-15669698D02*
X15274944Y-15679222D01*
X15274944Y-15679222D02*
X15284467Y-15698269D01*
X15284467Y-15698269D02*
X15284467Y-15745888D01*
X15284467Y-15745888D02*
X15274944Y-15764936D01*
X15274944Y-15764936D02*
X15265420Y-15774460D01*
X15265420Y-15774460D02*
X15246372Y-15783984D01*
X15246372Y-15783984D02*
X15189229Y-15783984D01*
X15189229Y-15783984D02*
X15170182Y-15774460D01*
X15170182Y-15774460D02*
X15160658Y-15764936D01*
X15455896Y-15583984D02*
X15417801Y-15583984D01*
X15417801Y-15583984D02*
X15398753Y-15593508D01*
X15398753Y-15593508D02*
X15389229Y-15603031D01*
X15389229Y-15603031D02*
X15370182Y-15631603D01*
X15370182Y-15631603D02*
X15360658Y-15669698D01*
X15360658Y-15669698D02*
X15360658Y-15745888D01*
X15360658Y-15745888D02*
X15370182Y-15764936D01*
X15370182Y-15764936D02*
X15379706Y-15774460D01*
X15379706Y-15774460D02*
X15398753Y-15783984D01*
X15398753Y-15783984D02*
X15436848Y-15783984D01*
X15436848Y-15783984D02*
X15455896Y-15774460D01*
X15455896Y-15774460D02*
X15465420Y-15764936D01*
X15465420Y-15764936D02*
X15474944Y-15745888D01*
X15474944Y-15745888D02*
X15474944Y-15698269D01*
X15474944Y-15698269D02*
X15465420Y-15679222D01*
X15465420Y-15679222D02*
X15455896Y-15669698D01*
X15455896Y-15669698D02*
X15436848Y-15660174D01*
X15436848Y-15660174D02*
X15398753Y-15660174D01*
X15398753Y-15660174D02*
X15379706Y-15669698D01*
X15379706Y-15669698D02*
X15370182Y-15679222D01*
X15370182Y-15679222D02*
X15360658Y-15698269D01*
X15551134Y-15583984D02*
X15551134Y-15622079D01*
X15627325Y-15583984D02*
X15627325Y-15622079D01*
X15922563Y-15860174D02*
X15913039Y-15850650D01*
X15913039Y-15850650D02*
X15893991Y-15822079D01*
X15893991Y-15822079D02*
X15884468Y-15803031D01*
X15884468Y-15803031D02*
X15874944Y-15774460D01*
X15874944Y-15774460D02*
X15865420Y-15726841D01*
X15865420Y-15726841D02*
X15865420Y-15688746D01*
X15865420Y-15688746D02*
X15874944Y-15641127D01*
X15874944Y-15641127D02*
X15884468Y-15612555D01*
X15884468Y-15612555D02*
X15893991Y-15593508D01*
X15893991Y-15593508D02*
X15913039Y-15564936D01*
X15913039Y-15564936D02*
X15922563Y-15555412D01*
X16084468Y-15650650D02*
X16084468Y-15783984D01*
X16036848Y-15574460D02*
X15989229Y-15717317D01*
X15989229Y-15717317D02*
X16113039Y-15717317D01*
X16284468Y-15583984D02*
X16189229Y-15583984D01*
X16189229Y-15583984D02*
X16179706Y-15679222D01*
X16179706Y-15679222D02*
X16189229Y-15669698D01*
X16189229Y-15669698D02*
X16208277Y-15660174D01*
X16208277Y-15660174D02*
X16255896Y-15660174D01*
X16255896Y-15660174D02*
X16274944Y-15669698D01*
X16274944Y-15669698D02*
X16284468Y-15679222D01*
X16284468Y-15679222D02*
X16293991Y-15698269D01*
X16293991Y-15698269D02*
X16293991Y-15745888D01*
X16293991Y-15745888D02*
X16284468Y-15764936D01*
X16284468Y-15764936D02*
X16274944Y-15774460D01*
X16274944Y-15774460D02*
X16255896Y-15783984D01*
X16255896Y-15783984D02*
X16208277Y-15783984D01*
X16208277Y-15783984D02*
X16189229Y-15774460D01*
X16189229Y-15774460D02*
X16179706Y-15764936D01*
X16532087Y-15783984D02*
X16532087Y-15583984D01*
X16617801Y-15783984D02*
X16617801Y-15679222D01*
X16617801Y-15679222D02*
X16608277Y-15660174D01*
X16608277Y-15660174D02*
X16589230Y-15650650D01*
X16589230Y-15650650D02*
X16560658Y-15650650D01*
X16560658Y-15650650D02*
X16541610Y-15660174D01*
X16541610Y-15660174D02*
X16532087Y-15669698D01*
X16741610Y-15783984D02*
X16722563Y-15774460D01*
X16722563Y-15774460D02*
X16713039Y-15764936D01*
X16713039Y-15764936D02*
X16703515Y-15745888D01*
X16703515Y-15745888D02*
X16703515Y-15688746D01*
X16703515Y-15688746D02*
X16713039Y-15669698D01*
X16713039Y-15669698D02*
X16722563Y-15660174D01*
X16722563Y-15660174D02*
X16741610Y-15650650D01*
X16741610Y-15650650D02*
X16770182Y-15650650D01*
X16770182Y-15650650D02*
X16789230Y-15660174D01*
X16789230Y-15660174D02*
X16798753Y-15669698D01*
X16798753Y-15669698D02*
X16808277Y-15688746D01*
X16808277Y-15688746D02*
X16808277Y-15745888D01*
X16808277Y-15745888D02*
X16798753Y-15764936D01*
X16798753Y-15764936D02*
X16789230Y-15774460D01*
X16789230Y-15774460D02*
X16770182Y-15783984D01*
X16770182Y-15783984D02*
X16741610Y-15783984D01*
X16922563Y-15783984D02*
X16903515Y-15774460D01*
X16903515Y-15774460D02*
X16893992Y-15755412D01*
X16893992Y-15755412D02*
X16893992Y-15583984D01*
X17074944Y-15774460D02*
X17055896Y-15783984D01*
X17055896Y-15783984D02*
X17017801Y-15783984D01*
X17017801Y-15783984D02*
X16998753Y-15774460D01*
X16998753Y-15774460D02*
X16989230Y-15755412D01*
X16989230Y-15755412D02*
X16989230Y-15679222D01*
X16989230Y-15679222D02*
X16998753Y-15660174D01*
X16998753Y-15660174D02*
X17017801Y-15650650D01*
X17017801Y-15650650D02*
X17055896Y-15650650D01*
X17055896Y-15650650D02*
X17074944Y-15660174D01*
X17074944Y-15660174D02*
X17084468Y-15679222D01*
X17084468Y-15679222D02*
X17084468Y-15698269D01*
X17084468Y-15698269D02*
X16989230Y-15717317D01*
X17160658Y-15774460D02*
X17179706Y-15783984D01*
X17179706Y-15783984D02*
X17217801Y-15783984D01*
X17217801Y-15783984D02*
X17236849Y-15774460D01*
X17236849Y-15774460D02*
X17246373Y-15755412D01*
X17246373Y-15755412D02*
X17246373Y-15745888D01*
X17246373Y-15745888D02*
X17236849Y-15726841D01*
X17236849Y-15726841D02*
X17217801Y-15717317D01*
X17217801Y-15717317D02*
X17189230Y-15717317D01*
X17189230Y-15717317D02*
X17170182Y-15707793D01*
X17170182Y-15707793D02*
X17160658Y-15688746D01*
X17160658Y-15688746D02*
X17160658Y-15679222D01*
X17160658Y-15679222D02*
X17170182Y-15660174D01*
X17170182Y-15660174D02*
X17189230Y-15650650D01*
X17189230Y-15650650D02*
X17217801Y-15650650D01*
X17217801Y-15650650D02*
X17236849Y-15660174D01*
X17313039Y-15860174D02*
X17322563Y-15850650D01*
X17322563Y-15850650D02*
X17341611Y-15822079D01*
X17341611Y-15822079D02*
X17351134Y-15803031D01*
X17351134Y-15803031D02*
X17360658Y-15774460D01*
X17360658Y-15774460D02*
X17370182Y-15726841D01*
X17370182Y-15726841D02*
X17370182Y-15688746D01*
X17370182Y-15688746D02*
X17360658Y-15641127D01*
X17360658Y-15641127D02*
X17351134Y-15612555D01*
X17351134Y-15612555D02*
X17341611Y-15593508D01*
X17341611Y-15593508D02*
X17322563Y-15564936D01*
X17322563Y-15564936D02*
X17313039Y-15555412D01*
D12*
X12347500Y-15956500D02*
G75*
G02*
X12272500Y-15956500I-37500J0D01*
G01*
X12272500Y-15956500D02*
G75*
G02*
X12347500Y-15956500I37500J0D01*
G01*
D11*
X12646372Y-15847984D02*
X12665420Y-15847984D01*
X12665420Y-15847984D02*
X12684467Y-15857508D01*
X12684467Y-15857508D02*
X12693991Y-15867031D01*
X12693991Y-15867031D02*
X12703515Y-15886079D01*
X12703515Y-15886079D02*
X12713039Y-15924174D01*
X12713039Y-15924174D02*
X12713039Y-15971793D01*
X12713039Y-15971793D02*
X12703515Y-16009888D01*
X12703515Y-16009888D02*
X12693991Y-16028936D01*
X12693991Y-16028936D02*
X12684467Y-16038460D01*
X12684467Y-16038460D02*
X12665420Y-16047984D01*
X12665420Y-16047984D02*
X12646372Y-16047984D01*
X12646372Y-16047984D02*
X12627324Y-16038460D01*
X12627324Y-16038460D02*
X12617801Y-16028936D01*
X12617801Y-16028936D02*
X12608277Y-16009888D01*
X12608277Y-16009888D02*
X12598753Y-15971793D01*
X12598753Y-15971793D02*
X12598753Y-15924174D01*
X12598753Y-15924174D02*
X12608277Y-15886079D01*
X12608277Y-15886079D02*
X12617801Y-15867031D01*
X12617801Y-15867031D02*
X12627324Y-15857508D01*
X12627324Y-15857508D02*
X12646372Y-15847984D01*
X12798753Y-16028936D02*
X12808277Y-16038460D01*
X12808277Y-16038460D02*
X12798753Y-16047984D01*
X12798753Y-16047984D02*
X12789229Y-16038460D01*
X12789229Y-16038460D02*
X12798753Y-16028936D01*
X12798753Y-16028936D02*
X12798753Y-16047984D01*
X12874943Y-15847984D02*
X13008277Y-15847984D01*
X13008277Y-15847984D02*
X12922562Y-16047984D01*
X13179705Y-15847984D02*
X13084467Y-15847984D01*
X13084467Y-15847984D02*
X13074943Y-15943222D01*
X13074943Y-15943222D02*
X13084467Y-15933698D01*
X13084467Y-15933698D02*
X13103515Y-15924174D01*
X13103515Y-15924174D02*
X13151134Y-15924174D01*
X13151134Y-15924174D02*
X13170182Y-15933698D01*
X13170182Y-15933698D02*
X13179705Y-15943222D01*
X13179705Y-15943222D02*
X13189229Y-15962269D01*
X13189229Y-15962269D02*
X13189229Y-16009888D01*
X13189229Y-16009888D02*
X13179705Y-16028936D01*
X13179705Y-16028936D02*
X13170182Y-16038460D01*
X13170182Y-16038460D02*
X13151134Y-16047984D01*
X13151134Y-16047984D02*
X13103515Y-16047984D01*
X13103515Y-16047984D02*
X13084467Y-16038460D01*
X13084467Y-16038460D02*
X13074943Y-16028936D01*
X13313039Y-15847984D02*
X13332086Y-15847984D01*
X13332086Y-15847984D02*
X13351134Y-15857508D01*
X13351134Y-15857508D02*
X13360658Y-15867031D01*
X13360658Y-15867031D02*
X13370182Y-15886079D01*
X13370182Y-15886079D02*
X13379705Y-15924174D01*
X13379705Y-15924174D02*
X13379705Y-15971793D01*
X13379705Y-15971793D02*
X13370182Y-16009888D01*
X13370182Y-16009888D02*
X13360658Y-16028936D01*
X13360658Y-16028936D02*
X13351134Y-16038460D01*
X13351134Y-16038460D02*
X13332086Y-16047984D01*
X13332086Y-16047984D02*
X13313039Y-16047984D01*
X13313039Y-16047984D02*
X13293991Y-16038460D01*
X13293991Y-16038460D02*
X13284467Y-16028936D01*
X13284467Y-16028936D02*
X13274943Y-16009888D01*
X13274943Y-16009888D02*
X13265420Y-15971793D01*
X13265420Y-15971793D02*
X13265420Y-15924174D01*
X13265420Y-15924174D02*
X13274943Y-15886079D01*
X13274943Y-15886079D02*
X13284467Y-15867031D01*
X13284467Y-15867031D02*
X13293991Y-15857508D01*
X13293991Y-15857508D02*
X13313039Y-15847984D01*
X13465420Y-16047984D02*
X13465420Y-15914650D01*
X13465420Y-15933698D02*
X13474943Y-15924174D01*
X13474943Y-15924174D02*
X13493991Y-15914650D01*
X13493991Y-15914650D02*
X13522563Y-15914650D01*
X13522563Y-15914650D02*
X13541610Y-15924174D01*
X13541610Y-15924174D02*
X13551134Y-15943222D01*
X13551134Y-15943222D02*
X13551134Y-16047984D01*
X13551134Y-15943222D02*
X13560658Y-15924174D01*
X13560658Y-15924174D02*
X13579705Y-15914650D01*
X13579705Y-15914650D02*
X13608277Y-15914650D01*
X13608277Y-15914650D02*
X13627324Y-15924174D01*
X13627324Y-15924174D02*
X13636848Y-15943222D01*
X13636848Y-15943222D02*
X13636848Y-16047984D01*
X13732086Y-16047984D02*
X13732086Y-15914650D01*
X13732086Y-15933698D02*
X13741610Y-15924174D01*
X13741610Y-15924174D02*
X13760658Y-15914650D01*
X13760658Y-15914650D02*
X13789229Y-15914650D01*
X13789229Y-15914650D02*
X13808277Y-15924174D01*
X13808277Y-15924174D02*
X13817801Y-15943222D01*
X13817801Y-15943222D02*
X13817801Y-16047984D01*
X13817801Y-15943222D02*
X13827324Y-15924174D01*
X13827324Y-15924174D02*
X13846372Y-15914650D01*
X13846372Y-15914650D02*
X13874943Y-15914650D01*
X13874943Y-15914650D02*
X13893991Y-15924174D01*
X13893991Y-15924174D02*
X13903515Y-15943222D01*
X13903515Y-15943222D02*
X13903515Y-16047984D01*
X14293991Y-15838460D02*
X14122563Y-16095603D01*
X14551134Y-15847984D02*
X14570182Y-15847984D01*
X14570182Y-15847984D02*
X14589229Y-15857508D01*
X14589229Y-15857508D02*
X14598753Y-15867031D01*
X14598753Y-15867031D02*
X14608277Y-15886079D01*
X14608277Y-15886079D02*
X14617801Y-15924174D01*
X14617801Y-15924174D02*
X14617801Y-15971793D01*
X14617801Y-15971793D02*
X14608277Y-16009888D01*
X14608277Y-16009888D02*
X14598753Y-16028936D01*
X14598753Y-16028936D02*
X14589229Y-16038460D01*
X14589229Y-16038460D02*
X14570182Y-16047984D01*
X14570182Y-16047984D02*
X14551134Y-16047984D01*
X14551134Y-16047984D02*
X14532086Y-16038460D01*
X14532086Y-16038460D02*
X14522563Y-16028936D01*
X14522563Y-16028936D02*
X14513039Y-16009888D01*
X14513039Y-16009888D02*
X14503515Y-15971793D01*
X14503515Y-15971793D02*
X14503515Y-15924174D01*
X14503515Y-15924174D02*
X14513039Y-15886079D01*
X14513039Y-15886079D02*
X14522563Y-15867031D01*
X14522563Y-15867031D02*
X14532086Y-15857508D01*
X14532086Y-15857508D02*
X14551134Y-15847984D01*
X14703515Y-16028936D02*
X14713039Y-16038460D01*
X14713039Y-16038460D02*
X14703515Y-16047984D01*
X14703515Y-16047984D02*
X14693991Y-16038460D01*
X14693991Y-16038460D02*
X14703515Y-16028936D01*
X14703515Y-16028936D02*
X14703515Y-16047984D01*
X14836848Y-15847984D02*
X14855896Y-15847984D01*
X14855896Y-15847984D02*
X14874944Y-15857508D01*
X14874944Y-15857508D02*
X14884467Y-15867031D01*
X14884467Y-15867031D02*
X14893991Y-15886079D01*
X14893991Y-15886079D02*
X14903515Y-15924174D01*
X14903515Y-15924174D02*
X14903515Y-15971793D01*
X14903515Y-15971793D02*
X14893991Y-16009888D01*
X14893991Y-16009888D02*
X14884467Y-16028936D01*
X14884467Y-16028936D02*
X14874944Y-16038460D01*
X14874944Y-16038460D02*
X14855896Y-16047984D01*
X14855896Y-16047984D02*
X14836848Y-16047984D01*
X14836848Y-16047984D02*
X14817801Y-16038460D01*
X14817801Y-16038460D02*
X14808277Y-16028936D01*
X14808277Y-16028936D02*
X14798753Y-16009888D01*
X14798753Y-16009888D02*
X14789229Y-15971793D01*
X14789229Y-15971793D02*
X14789229Y-15924174D01*
X14789229Y-15924174D02*
X14798753Y-15886079D01*
X14798753Y-15886079D02*
X14808277Y-15867031D01*
X14808277Y-15867031D02*
X14817801Y-15857508D01*
X14817801Y-15857508D02*
X14836848Y-15847984D01*
X14979706Y-15867031D02*
X14989229Y-15857508D01*
X14989229Y-15857508D02*
X15008277Y-15847984D01*
X15008277Y-15847984D02*
X15055896Y-15847984D01*
X15055896Y-15847984D02*
X15074944Y-15857508D01*
X15074944Y-15857508D02*
X15084467Y-15867031D01*
X15084467Y-15867031D02*
X15093991Y-15886079D01*
X15093991Y-15886079D02*
X15093991Y-15905127D01*
X15093991Y-15905127D02*
X15084467Y-15933698D01*
X15084467Y-15933698D02*
X14970182Y-16047984D01*
X14970182Y-16047984D02*
X15093991Y-16047984D01*
X15189229Y-16047984D02*
X15227325Y-16047984D01*
X15227325Y-16047984D02*
X15246372Y-16038460D01*
X15246372Y-16038460D02*
X15255896Y-16028936D01*
X15255896Y-16028936D02*
X15274944Y-16000365D01*
X15274944Y-16000365D02*
X15284467Y-15962269D01*
X15284467Y-15962269D02*
X15284467Y-15886079D01*
X15284467Y-15886079D02*
X15274944Y-15867031D01*
X15274944Y-15867031D02*
X15265420Y-15857508D01*
X15265420Y-15857508D02*
X15246372Y-15847984D01*
X15246372Y-15847984D02*
X15208277Y-15847984D01*
X15208277Y-15847984D02*
X15189229Y-15857508D01*
X15189229Y-15857508D02*
X15179706Y-15867031D01*
X15179706Y-15867031D02*
X15170182Y-15886079D01*
X15170182Y-15886079D02*
X15170182Y-15933698D01*
X15170182Y-15933698D02*
X15179706Y-15952746D01*
X15179706Y-15952746D02*
X15189229Y-15962269D01*
X15189229Y-15962269D02*
X15208277Y-15971793D01*
X15208277Y-15971793D02*
X15246372Y-15971793D01*
X15246372Y-15971793D02*
X15265420Y-15962269D01*
X15265420Y-15962269D02*
X15274944Y-15952746D01*
X15274944Y-15952746D02*
X15284467Y-15933698D01*
X15465420Y-15847984D02*
X15370182Y-15847984D01*
X15370182Y-15847984D02*
X15360658Y-15943222D01*
X15360658Y-15943222D02*
X15370182Y-15933698D01*
X15370182Y-15933698D02*
X15389229Y-15924174D01*
X15389229Y-15924174D02*
X15436848Y-15924174D01*
X15436848Y-15924174D02*
X15455896Y-15933698D01*
X15455896Y-15933698D02*
X15465420Y-15943222D01*
X15465420Y-15943222D02*
X15474944Y-15962269D01*
X15474944Y-15962269D02*
X15474944Y-16009888D01*
X15474944Y-16009888D02*
X15465420Y-16028936D01*
X15465420Y-16028936D02*
X15455896Y-16038460D01*
X15455896Y-16038460D02*
X15436848Y-16047984D01*
X15436848Y-16047984D02*
X15389229Y-16047984D01*
X15389229Y-16047984D02*
X15370182Y-16038460D01*
X15370182Y-16038460D02*
X15360658Y-16028936D01*
X15551134Y-15847984D02*
X15551134Y-15886079D01*
X15627325Y-15847984D02*
X15627325Y-15886079D01*
X15922563Y-16124174D02*
X15913039Y-16114650D01*
X15913039Y-16114650D02*
X15893991Y-16086079D01*
X15893991Y-16086079D02*
X15884468Y-16067031D01*
X15884468Y-16067031D02*
X15874944Y-16038460D01*
X15874944Y-16038460D02*
X15865420Y-15990841D01*
X15865420Y-15990841D02*
X15865420Y-15952746D01*
X15865420Y-15952746D02*
X15874944Y-15905127D01*
X15874944Y-15905127D02*
X15884468Y-15876555D01*
X15884468Y-15876555D02*
X15893991Y-15857508D01*
X15893991Y-15857508D02*
X15913039Y-15828936D01*
X15913039Y-15828936D02*
X15922563Y-15819412D01*
X15979706Y-15847984D02*
X16103515Y-15847984D01*
X16103515Y-15847984D02*
X16036848Y-15924174D01*
X16036848Y-15924174D02*
X16065420Y-15924174D01*
X16065420Y-15924174D02*
X16084468Y-15933698D01*
X16084468Y-15933698D02*
X16093991Y-15943222D01*
X16093991Y-15943222D02*
X16103515Y-15962269D01*
X16103515Y-15962269D02*
X16103515Y-16009888D01*
X16103515Y-16009888D02*
X16093991Y-16028936D01*
X16093991Y-16028936D02*
X16084468Y-16038460D01*
X16084468Y-16038460D02*
X16065420Y-16047984D01*
X16065420Y-16047984D02*
X16008277Y-16047984D01*
X16008277Y-16047984D02*
X15989229Y-16038460D01*
X15989229Y-16038460D02*
X15979706Y-16028936D01*
X16341610Y-16047984D02*
X16341610Y-15847984D01*
X16427325Y-16047984D02*
X16427325Y-15943222D01*
X16427325Y-15943222D02*
X16417801Y-15924174D01*
X16417801Y-15924174D02*
X16398753Y-15914650D01*
X16398753Y-15914650D02*
X16370182Y-15914650D01*
X16370182Y-15914650D02*
X16351134Y-15924174D01*
X16351134Y-15924174D02*
X16341610Y-15933698D01*
X16551134Y-16047984D02*
X16532087Y-16038460D01*
X16532087Y-16038460D02*
X16522563Y-16028936D01*
X16522563Y-16028936D02*
X16513039Y-16009888D01*
X16513039Y-16009888D02*
X16513039Y-15952746D01*
X16513039Y-15952746D02*
X16522563Y-15933698D01*
X16522563Y-15933698D02*
X16532087Y-15924174D01*
X16532087Y-15924174D02*
X16551134Y-15914650D01*
X16551134Y-15914650D02*
X16579706Y-15914650D01*
X16579706Y-15914650D02*
X16598753Y-15924174D01*
X16598753Y-15924174D02*
X16608277Y-15933698D01*
X16608277Y-15933698D02*
X16617801Y-15952746D01*
X16617801Y-15952746D02*
X16617801Y-16009888D01*
X16617801Y-16009888D02*
X16608277Y-16028936D01*
X16608277Y-16028936D02*
X16598753Y-16038460D01*
X16598753Y-16038460D02*
X16579706Y-16047984D01*
X16579706Y-16047984D02*
X16551134Y-16047984D01*
X16732087Y-16047984D02*
X16713039Y-16038460D01*
X16713039Y-16038460D02*
X16703515Y-16019412D01*
X16703515Y-16019412D02*
X16703515Y-15847984D01*
X16884468Y-16038460D02*
X16865420Y-16047984D01*
X16865420Y-16047984D02*
X16827325Y-16047984D01*
X16827325Y-16047984D02*
X16808277Y-16038460D01*
X16808277Y-16038460D02*
X16798753Y-16019412D01*
X16798753Y-16019412D02*
X16798753Y-15943222D01*
X16798753Y-15943222D02*
X16808277Y-15924174D01*
X16808277Y-15924174D02*
X16827325Y-15914650D01*
X16827325Y-15914650D02*
X16865420Y-15914650D01*
X16865420Y-15914650D02*
X16884468Y-15924174D01*
X16884468Y-15924174D02*
X16893992Y-15943222D01*
X16893992Y-15943222D02*
X16893992Y-15962269D01*
X16893992Y-15962269D02*
X16798753Y-15981317D01*
X16970182Y-16038460D02*
X16989230Y-16047984D01*
X16989230Y-16047984D02*
X17027325Y-16047984D01*
X17027325Y-16047984D02*
X17046373Y-16038460D01*
X17046373Y-16038460D02*
X17055896Y-16019412D01*
X17055896Y-16019412D02*
X17055896Y-16009888D01*
X17055896Y-16009888D02*
X17046373Y-15990841D01*
X17046373Y-15990841D02*
X17027325Y-15981317D01*
X17027325Y-15981317D02*
X16998753Y-15981317D01*
X16998753Y-15981317D02*
X16979706Y-15971793D01*
X16979706Y-15971793D02*
X16970182Y-15952746D01*
X16970182Y-15952746D02*
X16970182Y-15943222D01*
X16970182Y-15943222D02*
X16979706Y-15924174D01*
X16979706Y-15924174D02*
X16998753Y-15914650D01*
X16998753Y-15914650D02*
X17027325Y-15914650D01*
X17027325Y-15914650D02*
X17046373Y-15924174D01*
X17122563Y-16124174D02*
X17132087Y-16114650D01*
X17132087Y-16114650D02*
X17151134Y-16086079D01*
X17151134Y-16086079D02*
X17160658Y-16067031D01*
X17160658Y-16067031D02*
X17170182Y-16038460D01*
X17170182Y-16038460D02*
X17179706Y-15990841D01*
X17179706Y-15990841D02*
X17179706Y-15952746D01*
X17179706Y-15952746D02*
X17170182Y-15905127D01*
X17170182Y-15905127D02*
X17160658Y-15876555D01*
X17160658Y-15876555D02*
X17151134Y-15857508D01*
X17151134Y-15857508D02*
X17132087Y-15828936D01*
X17132087Y-15828936D02*
X17122563Y-15819412D01*
D12*
X12309400Y-16182400D02*
X12309400Y-16258600D01*
X12271300Y-16220500D02*
X12347500Y-16220500D01*
D11*
X12646372Y-16111984D02*
X12665420Y-16111984D01*
X12665420Y-16111984D02*
X12684467Y-16121508D01*
X12684467Y-16121508D02*
X12693991Y-16131031D01*
X12693991Y-16131031D02*
X12703515Y-16150079D01*
X12703515Y-16150079D02*
X12713039Y-16188174D01*
X12713039Y-16188174D02*
X12713039Y-16235793D01*
X12713039Y-16235793D02*
X12703515Y-16273888D01*
X12703515Y-16273888D02*
X12693991Y-16292936D01*
X12693991Y-16292936D02*
X12684467Y-16302460D01*
X12684467Y-16302460D02*
X12665420Y-16311984D01*
X12665420Y-16311984D02*
X12646372Y-16311984D01*
X12646372Y-16311984D02*
X12627324Y-16302460D01*
X12627324Y-16302460D02*
X12617801Y-16292936D01*
X12617801Y-16292936D02*
X12608277Y-16273888D01*
X12608277Y-16273888D02*
X12598753Y-16235793D01*
X12598753Y-16235793D02*
X12598753Y-16188174D01*
X12598753Y-16188174D02*
X12608277Y-16150079D01*
X12608277Y-16150079D02*
X12617801Y-16131031D01*
X12617801Y-16131031D02*
X12627324Y-16121508D01*
X12627324Y-16121508D02*
X12646372Y-16111984D01*
X12798753Y-16292936D02*
X12808277Y-16302460D01*
X12808277Y-16302460D02*
X12798753Y-16311984D01*
X12798753Y-16311984D02*
X12789229Y-16302460D01*
X12789229Y-16302460D02*
X12798753Y-16292936D01*
X12798753Y-16292936D02*
X12798753Y-16311984D01*
X12874943Y-16111984D02*
X13008277Y-16111984D01*
X13008277Y-16111984D02*
X12922562Y-16311984D01*
X13170182Y-16111984D02*
X13132086Y-16111984D01*
X13132086Y-16111984D02*
X13113039Y-16121508D01*
X13113039Y-16121508D02*
X13103515Y-16131031D01*
X13103515Y-16131031D02*
X13084467Y-16159603D01*
X13084467Y-16159603D02*
X13074943Y-16197698D01*
X13074943Y-16197698D02*
X13074943Y-16273888D01*
X13074943Y-16273888D02*
X13084467Y-16292936D01*
X13084467Y-16292936D02*
X13093991Y-16302460D01*
X13093991Y-16302460D02*
X13113039Y-16311984D01*
X13113039Y-16311984D02*
X13151134Y-16311984D01*
X13151134Y-16311984D02*
X13170182Y-16302460D01*
X13170182Y-16302460D02*
X13179705Y-16292936D01*
X13179705Y-16292936D02*
X13189229Y-16273888D01*
X13189229Y-16273888D02*
X13189229Y-16226269D01*
X13189229Y-16226269D02*
X13179705Y-16207222D01*
X13179705Y-16207222D02*
X13170182Y-16197698D01*
X13170182Y-16197698D02*
X13151134Y-16188174D01*
X13151134Y-16188174D02*
X13113039Y-16188174D01*
X13113039Y-16188174D02*
X13093991Y-16197698D01*
X13093991Y-16197698D02*
X13084467Y-16207222D01*
X13084467Y-16207222D02*
X13074943Y-16226269D01*
X13265420Y-16131031D02*
X13274943Y-16121508D01*
X13274943Y-16121508D02*
X13293991Y-16111984D01*
X13293991Y-16111984D02*
X13341610Y-16111984D01*
X13341610Y-16111984D02*
X13360658Y-16121508D01*
X13360658Y-16121508D02*
X13370182Y-16131031D01*
X13370182Y-16131031D02*
X13379705Y-16150079D01*
X13379705Y-16150079D02*
X13379705Y-16169127D01*
X13379705Y-16169127D02*
X13370182Y-16197698D01*
X13370182Y-16197698D02*
X13255896Y-16311984D01*
X13255896Y-16311984D02*
X13379705Y-16311984D01*
X13465420Y-16311984D02*
X13465420Y-16178650D01*
X13465420Y-16197698D02*
X13474943Y-16188174D01*
X13474943Y-16188174D02*
X13493991Y-16178650D01*
X13493991Y-16178650D02*
X13522563Y-16178650D01*
X13522563Y-16178650D02*
X13541610Y-16188174D01*
X13541610Y-16188174D02*
X13551134Y-16207222D01*
X13551134Y-16207222D02*
X13551134Y-16311984D01*
X13551134Y-16207222D02*
X13560658Y-16188174D01*
X13560658Y-16188174D02*
X13579705Y-16178650D01*
X13579705Y-16178650D02*
X13608277Y-16178650D01*
X13608277Y-16178650D02*
X13627324Y-16188174D01*
X13627324Y-16188174D02*
X13636848Y-16207222D01*
X13636848Y-16207222D02*
X13636848Y-16311984D01*
X13732086Y-16311984D02*
X13732086Y-16178650D01*
X13732086Y-16197698D02*
X13741610Y-16188174D01*
X13741610Y-16188174D02*
X13760658Y-16178650D01*
X13760658Y-16178650D02*
X13789229Y-16178650D01*
X13789229Y-16178650D02*
X13808277Y-16188174D01*
X13808277Y-16188174D02*
X13817801Y-16207222D01*
X13817801Y-16207222D02*
X13817801Y-16311984D01*
X13817801Y-16207222D02*
X13827324Y-16188174D01*
X13827324Y-16188174D02*
X13846372Y-16178650D01*
X13846372Y-16178650D02*
X13874943Y-16178650D01*
X13874943Y-16178650D02*
X13893991Y-16188174D01*
X13893991Y-16188174D02*
X13903515Y-16207222D01*
X13903515Y-16207222D02*
X13903515Y-16311984D01*
X14293991Y-16102460D02*
X14122563Y-16359603D01*
X14551134Y-16111984D02*
X14570182Y-16111984D01*
X14570182Y-16111984D02*
X14589229Y-16121508D01*
X14589229Y-16121508D02*
X14598753Y-16131031D01*
X14598753Y-16131031D02*
X14608277Y-16150079D01*
X14608277Y-16150079D02*
X14617801Y-16188174D01*
X14617801Y-16188174D02*
X14617801Y-16235793D01*
X14617801Y-16235793D02*
X14608277Y-16273888D01*
X14608277Y-16273888D02*
X14598753Y-16292936D01*
X14598753Y-16292936D02*
X14589229Y-16302460D01*
X14589229Y-16302460D02*
X14570182Y-16311984D01*
X14570182Y-16311984D02*
X14551134Y-16311984D01*
X14551134Y-16311984D02*
X14532086Y-16302460D01*
X14532086Y-16302460D02*
X14522563Y-16292936D01*
X14522563Y-16292936D02*
X14513039Y-16273888D01*
X14513039Y-16273888D02*
X14503515Y-16235793D01*
X14503515Y-16235793D02*
X14503515Y-16188174D01*
X14503515Y-16188174D02*
X14513039Y-16150079D01*
X14513039Y-16150079D02*
X14522563Y-16131031D01*
X14522563Y-16131031D02*
X14532086Y-16121508D01*
X14532086Y-16121508D02*
X14551134Y-16111984D01*
X14703515Y-16292936D02*
X14713039Y-16302460D01*
X14713039Y-16302460D02*
X14703515Y-16311984D01*
X14703515Y-16311984D02*
X14693991Y-16302460D01*
X14693991Y-16302460D02*
X14703515Y-16292936D01*
X14703515Y-16292936D02*
X14703515Y-16311984D01*
X14836848Y-16111984D02*
X14855896Y-16111984D01*
X14855896Y-16111984D02*
X14874944Y-16121508D01*
X14874944Y-16121508D02*
X14884467Y-16131031D01*
X14884467Y-16131031D02*
X14893991Y-16150079D01*
X14893991Y-16150079D02*
X14903515Y-16188174D01*
X14903515Y-16188174D02*
X14903515Y-16235793D01*
X14903515Y-16235793D02*
X14893991Y-16273888D01*
X14893991Y-16273888D02*
X14884467Y-16292936D01*
X14884467Y-16292936D02*
X14874944Y-16302460D01*
X14874944Y-16302460D02*
X14855896Y-16311984D01*
X14855896Y-16311984D02*
X14836848Y-16311984D01*
X14836848Y-16311984D02*
X14817801Y-16302460D01*
X14817801Y-16302460D02*
X14808277Y-16292936D01*
X14808277Y-16292936D02*
X14798753Y-16273888D01*
X14798753Y-16273888D02*
X14789229Y-16235793D01*
X14789229Y-16235793D02*
X14789229Y-16188174D01*
X14789229Y-16188174D02*
X14798753Y-16150079D01*
X14798753Y-16150079D02*
X14808277Y-16131031D01*
X14808277Y-16131031D02*
X14817801Y-16121508D01*
X14817801Y-16121508D02*
X14836848Y-16111984D01*
X14970182Y-16111984D02*
X15093991Y-16111984D01*
X15093991Y-16111984D02*
X15027325Y-16188174D01*
X15027325Y-16188174D02*
X15055896Y-16188174D01*
X15055896Y-16188174D02*
X15074944Y-16197698D01*
X15074944Y-16197698D02*
X15084467Y-16207222D01*
X15084467Y-16207222D02*
X15093991Y-16226269D01*
X15093991Y-16226269D02*
X15093991Y-16273888D01*
X15093991Y-16273888D02*
X15084467Y-16292936D01*
X15084467Y-16292936D02*
X15074944Y-16302460D01*
X15074944Y-16302460D02*
X15055896Y-16311984D01*
X15055896Y-16311984D02*
X14998753Y-16311984D01*
X14998753Y-16311984D02*
X14979706Y-16302460D01*
X14979706Y-16302460D02*
X14970182Y-16292936D01*
X15217801Y-16111984D02*
X15236848Y-16111984D01*
X15236848Y-16111984D02*
X15255896Y-16121508D01*
X15255896Y-16121508D02*
X15265420Y-16131031D01*
X15265420Y-16131031D02*
X15274944Y-16150079D01*
X15274944Y-16150079D02*
X15284467Y-16188174D01*
X15284467Y-16188174D02*
X15284467Y-16235793D01*
X15284467Y-16235793D02*
X15274944Y-16273888D01*
X15274944Y-16273888D02*
X15265420Y-16292936D01*
X15265420Y-16292936D02*
X15255896Y-16302460D01*
X15255896Y-16302460D02*
X15236848Y-16311984D01*
X15236848Y-16311984D02*
X15217801Y-16311984D01*
X15217801Y-16311984D02*
X15198753Y-16302460D01*
X15198753Y-16302460D02*
X15189229Y-16292936D01*
X15189229Y-16292936D02*
X15179706Y-16273888D01*
X15179706Y-16273888D02*
X15170182Y-16235793D01*
X15170182Y-16235793D02*
X15170182Y-16188174D01*
X15170182Y-16188174D02*
X15179706Y-16150079D01*
X15179706Y-16150079D02*
X15189229Y-16131031D01*
X15189229Y-16131031D02*
X15198753Y-16121508D01*
X15198753Y-16121508D02*
X15217801Y-16111984D01*
X15408277Y-16111984D02*
X15427325Y-16111984D01*
X15427325Y-16111984D02*
X15446372Y-16121508D01*
X15446372Y-16121508D02*
X15455896Y-16131031D01*
X15455896Y-16131031D02*
X15465420Y-16150079D01*
X15465420Y-16150079D02*
X15474944Y-16188174D01*
X15474944Y-16188174D02*
X15474944Y-16235793D01*
X15474944Y-16235793D02*
X15465420Y-16273888D01*
X15465420Y-16273888D02*
X15455896Y-16292936D01*
X15455896Y-16292936D02*
X15446372Y-16302460D01*
X15446372Y-16302460D02*
X15427325Y-16311984D01*
X15427325Y-16311984D02*
X15408277Y-16311984D01*
X15408277Y-16311984D02*
X15389229Y-16302460D01*
X15389229Y-16302460D02*
X15379706Y-16292936D01*
X15379706Y-16292936D02*
X15370182Y-16273888D01*
X15370182Y-16273888D02*
X15360658Y-16235793D01*
X15360658Y-16235793D02*
X15360658Y-16188174D01*
X15360658Y-16188174D02*
X15370182Y-16150079D01*
X15370182Y-16150079D02*
X15379706Y-16131031D01*
X15379706Y-16131031D02*
X15389229Y-16121508D01*
X15389229Y-16121508D02*
X15408277Y-16111984D01*
X15551134Y-16111984D02*
X15551134Y-16150079D01*
X15627325Y-16111984D02*
X15627325Y-16150079D01*
X15922563Y-16388174D02*
X15913039Y-16378650D01*
X15913039Y-16378650D02*
X15893991Y-16350079D01*
X15893991Y-16350079D02*
X15884468Y-16331031D01*
X15884468Y-16331031D02*
X15874944Y-16302460D01*
X15874944Y-16302460D02*
X15865420Y-16254841D01*
X15865420Y-16254841D02*
X15865420Y-16216746D01*
X15865420Y-16216746D02*
X15874944Y-16169127D01*
X15874944Y-16169127D02*
X15884468Y-16140555D01*
X15884468Y-16140555D02*
X15893991Y-16121508D01*
X15893991Y-16121508D02*
X15913039Y-16092936D01*
X15913039Y-16092936D02*
X15922563Y-16083412D01*
X16084468Y-16178650D02*
X16084468Y-16311984D01*
X16036848Y-16102460D02*
X15989229Y-16245317D01*
X15989229Y-16245317D02*
X16113039Y-16245317D01*
X16341610Y-16311984D02*
X16341610Y-16111984D01*
X16427325Y-16311984D02*
X16427325Y-16207222D01*
X16427325Y-16207222D02*
X16417801Y-16188174D01*
X16417801Y-16188174D02*
X16398753Y-16178650D01*
X16398753Y-16178650D02*
X16370182Y-16178650D01*
X16370182Y-16178650D02*
X16351134Y-16188174D01*
X16351134Y-16188174D02*
X16341610Y-16197698D01*
X16551134Y-16311984D02*
X16532087Y-16302460D01*
X16532087Y-16302460D02*
X16522563Y-16292936D01*
X16522563Y-16292936D02*
X16513039Y-16273888D01*
X16513039Y-16273888D02*
X16513039Y-16216746D01*
X16513039Y-16216746D02*
X16522563Y-16197698D01*
X16522563Y-16197698D02*
X16532087Y-16188174D01*
X16532087Y-16188174D02*
X16551134Y-16178650D01*
X16551134Y-16178650D02*
X16579706Y-16178650D01*
X16579706Y-16178650D02*
X16598753Y-16188174D01*
X16598753Y-16188174D02*
X16608277Y-16197698D01*
X16608277Y-16197698D02*
X16617801Y-16216746D01*
X16617801Y-16216746D02*
X16617801Y-16273888D01*
X16617801Y-16273888D02*
X16608277Y-16292936D01*
X16608277Y-16292936D02*
X16598753Y-16302460D01*
X16598753Y-16302460D02*
X16579706Y-16311984D01*
X16579706Y-16311984D02*
X16551134Y-16311984D01*
X16732087Y-16311984D02*
X16713039Y-16302460D01*
X16713039Y-16302460D02*
X16703515Y-16283412D01*
X16703515Y-16283412D02*
X16703515Y-16111984D01*
X16884468Y-16302460D02*
X16865420Y-16311984D01*
X16865420Y-16311984D02*
X16827325Y-16311984D01*
X16827325Y-16311984D02*
X16808277Y-16302460D01*
X16808277Y-16302460D02*
X16798753Y-16283412D01*
X16798753Y-16283412D02*
X16798753Y-16207222D01*
X16798753Y-16207222D02*
X16808277Y-16188174D01*
X16808277Y-16188174D02*
X16827325Y-16178650D01*
X16827325Y-16178650D02*
X16865420Y-16178650D01*
X16865420Y-16178650D02*
X16884468Y-16188174D01*
X16884468Y-16188174D02*
X16893992Y-16207222D01*
X16893992Y-16207222D02*
X16893992Y-16226269D01*
X16893992Y-16226269D02*
X16798753Y-16245317D01*
X16970182Y-16302460D02*
X16989230Y-16311984D01*
X16989230Y-16311984D02*
X17027325Y-16311984D01*
X17027325Y-16311984D02*
X17046373Y-16302460D01*
X17046373Y-16302460D02*
X17055896Y-16283412D01*
X17055896Y-16283412D02*
X17055896Y-16273888D01*
X17055896Y-16273888D02*
X17046373Y-16254841D01*
X17046373Y-16254841D02*
X17027325Y-16245317D01*
X17027325Y-16245317D02*
X16998753Y-16245317D01*
X16998753Y-16245317D02*
X16979706Y-16235793D01*
X16979706Y-16235793D02*
X16970182Y-16216746D01*
X16970182Y-16216746D02*
X16970182Y-16207222D01*
X16970182Y-16207222D02*
X16979706Y-16188174D01*
X16979706Y-16188174D02*
X16998753Y-16178650D01*
X16998753Y-16178650D02*
X17027325Y-16178650D01*
X17027325Y-16178650D02*
X17046373Y-16188174D01*
X17122563Y-16388174D02*
X17132087Y-16378650D01*
X17132087Y-16378650D02*
X17151134Y-16350079D01*
X17151134Y-16350079D02*
X17160658Y-16331031D01*
X17160658Y-16331031D02*
X17170182Y-16302460D01*
X17170182Y-16302460D02*
X17179706Y-16254841D01*
X17179706Y-16254841D02*
X17179706Y-16216746D01*
X17179706Y-16216746D02*
X17170182Y-16169127D01*
X17170182Y-16169127D02*
X17160658Y-16140555D01*
X17160658Y-16140555D02*
X17151134Y-16121508D01*
X17151134Y-16121508D02*
X17132087Y-16092936D01*
X17132087Y-16092936D02*
X17122563Y-16083412D01*
D12*
X12335784Y-16512784D02*
X12335784Y-16456215D01*
X12279215Y-16456215D01*
X12279215Y-16512784D01*
X12335784Y-16512784D01*
D11*
X12646372Y-16375984D02*
X12665420Y-16375984D01*
X12665420Y-16375984D02*
X12684467Y-16385508D01*
X12684467Y-16385508D02*
X12693991Y-16395031D01*
X12693991Y-16395031D02*
X12703515Y-16414079D01*
X12703515Y-16414079D02*
X12713039Y-16452174D01*
X12713039Y-16452174D02*
X12713039Y-16499793D01*
X12713039Y-16499793D02*
X12703515Y-16537888D01*
X12703515Y-16537888D02*
X12693991Y-16556936D01*
X12693991Y-16556936D02*
X12684467Y-16566460D01*
X12684467Y-16566460D02*
X12665420Y-16575984D01*
X12665420Y-16575984D02*
X12646372Y-16575984D01*
X12646372Y-16575984D02*
X12627324Y-16566460D01*
X12627324Y-16566460D02*
X12617801Y-16556936D01*
X12617801Y-16556936D02*
X12608277Y-16537888D01*
X12608277Y-16537888D02*
X12598753Y-16499793D01*
X12598753Y-16499793D02*
X12598753Y-16452174D01*
X12598753Y-16452174D02*
X12608277Y-16414079D01*
X12608277Y-16414079D02*
X12617801Y-16395031D01*
X12617801Y-16395031D02*
X12627324Y-16385508D01*
X12627324Y-16385508D02*
X12646372Y-16375984D01*
X12798753Y-16556936D02*
X12808277Y-16566460D01*
X12808277Y-16566460D02*
X12798753Y-16575984D01*
X12798753Y-16575984D02*
X12789229Y-16566460D01*
X12789229Y-16566460D02*
X12798753Y-16556936D01*
X12798753Y-16556936D02*
X12798753Y-16575984D01*
X12922562Y-16461698D02*
X12903515Y-16452174D01*
X12903515Y-16452174D02*
X12893991Y-16442650D01*
X12893991Y-16442650D02*
X12884467Y-16423603D01*
X12884467Y-16423603D02*
X12884467Y-16414079D01*
X12884467Y-16414079D02*
X12893991Y-16395031D01*
X12893991Y-16395031D02*
X12903515Y-16385508D01*
X12903515Y-16385508D02*
X12922562Y-16375984D01*
X12922562Y-16375984D02*
X12960658Y-16375984D01*
X12960658Y-16375984D02*
X12979705Y-16385508D01*
X12979705Y-16385508D02*
X12989229Y-16395031D01*
X12989229Y-16395031D02*
X12998753Y-16414079D01*
X12998753Y-16414079D02*
X12998753Y-16423603D01*
X12998753Y-16423603D02*
X12989229Y-16442650D01*
X12989229Y-16442650D02*
X12979705Y-16452174D01*
X12979705Y-16452174D02*
X12960658Y-16461698D01*
X12960658Y-16461698D02*
X12922562Y-16461698D01*
X12922562Y-16461698D02*
X12903515Y-16471222D01*
X12903515Y-16471222D02*
X12893991Y-16480746D01*
X12893991Y-16480746D02*
X12884467Y-16499793D01*
X12884467Y-16499793D02*
X12884467Y-16537888D01*
X12884467Y-16537888D02*
X12893991Y-16556936D01*
X12893991Y-16556936D02*
X12903515Y-16566460D01*
X12903515Y-16566460D02*
X12922562Y-16575984D01*
X12922562Y-16575984D02*
X12960658Y-16575984D01*
X12960658Y-16575984D02*
X12979705Y-16566460D01*
X12979705Y-16566460D02*
X12989229Y-16556936D01*
X12989229Y-16556936D02*
X12998753Y-16537888D01*
X12998753Y-16537888D02*
X12998753Y-16499793D01*
X12998753Y-16499793D02*
X12989229Y-16480746D01*
X12989229Y-16480746D02*
X12979705Y-16471222D01*
X12979705Y-16471222D02*
X12960658Y-16461698D01*
X13122562Y-16375984D02*
X13141610Y-16375984D01*
X13141610Y-16375984D02*
X13160658Y-16385508D01*
X13160658Y-16385508D02*
X13170182Y-16395031D01*
X13170182Y-16395031D02*
X13179705Y-16414079D01*
X13179705Y-16414079D02*
X13189229Y-16452174D01*
X13189229Y-16452174D02*
X13189229Y-16499793D01*
X13189229Y-16499793D02*
X13179705Y-16537888D01*
X13179705Y-16537888D02*
X13170182Y-16556936D01*
X13170182Y-16556936D02*
X13160658Y-16566460D01*
X13160658Y-16566460D02*
X13141610Y-16575984D01*
X13141610Y-16575984D02*
X13122562Y-16575984D01*
X13122562Y-16575984D02*
X13103515Y-16566460D01*
X13103515Y-16566460D02*
X13093991Y-16556936D01*
X13093991Y-16556936D02*
X13084467Y-16537888D01*
X13084467Y-16537888D02*
X13074943Y-16499793D01*
X13074943Y-16499793D02*
X13074943Y-16452174D01*
X13074943Y-16452174D02*
X13084467Y-16414079D01*
X13084467Y-16414079D02*
X13093991Y-16395031D01*
X13093991Y-16395031D02*
X13103515Y-16385508D01*
X13103515Y-16385508D02*
X13122562Y-16375984D01*
X13313039Y-16375984D02*
X13332086Y-16375984D01*
X13332086Y-16375984D02*
X13351134Y-16385508D01*
X13351134Y-16385508D02*
X13360658Y-16395031D01*
X13360658Y-16395031D02*
X13370182Y-16414079D01*
X13370182Y-16414079D02*
X13379705Y-16452174D01*
X13379705Y-16452174D02*
X13379705Y-16499793D01*
X13379705Y-16499793D02*
X13370182Y-16537888D01*
X13370182Y-16537888D02*
X13360658Y-16556936D01*
X13360658Y-16556936D02*
X13351134Y-16566460D01*
X13351134Y-16566460D02*
X13332086Y-16575984D01*
X13332086Y-16575984D02*
X13313039Y-16575984D01*
X13313039Y-16575984D02*
X13293991Y-16566460D01*
X13293991Y-16566460D02*
X13284467Y-16556936D01*
X13284467Y-16556936D02*
X13274943Y-16537888D01*
X13274943Y-16537888D02*
X13265420Y-16499793D01*
X13265420Y-16499793D02*
X13265420Y-16452174D01*
X13265420Y-16452174D02*
X13274943Y-16414079D01*
X13274943Y-16414079D02*
X13284467Y-16395031D01*
X13284467Y-16395031D02*
X13293991Y-16385508D01*
X13293991Y-16385508D02*
X13313039Y-16375984D01*
X13465420Y-16575984D02*
X13465420Y-16442650D01*
X13465420Y-16461698D02*
X13474943Y-16452174D01*
X13474943Y-16452174D02*
X13493991Y-16442650D01*
X13493991Y-16442650D02*
X13522563Y-16442650D01*
X13522563Y-16442650D02*
X13541610Y-16452174D01*
X13541610Y-16452174D02*
X13551134Y-16471222D01*
X13551134Y-16471222D02*
X13551134Y-16575984D01*
X13551134Y-16471222D02*
X13560658Y-16452174D01*
X13560658Y-16452174D02*
X13579705Y-16442650D01*
X13579705Y-16442650D02*
X13608277Y-16442650D01*
X13608277Y-16442650D02*
X13627324Y-16452174D01*
X13627324Y-16452174D02*
X13636848Y-16471222D01*
X13636848Y-16471222D02*
X13636848Y-16575984D01*
X13732086Y-16575984D02*
X13732086Y-16442650D01*
X13732086Y-16461698D02*
X13741610Y-16452174D01*
X13741610Y-16452174D02*
X13760658Y-16442650D01*
X13760658Y-16442650D02*
X13789229Y-16442650D01*
X13789229Y-16442650D02*
X13808277Y-16452174D01*
X13808277Y-16452174D02*
X13817801Y-16471222D01*
X13817801Y-16471222D02*
X13817801Y-16575984D01*
X13817801Y-16471222D02*
X13827324Y-16452174D01*
X13827324Y-16452174D02*
X13846372Y-16442650D01*
X13846372Y-16442650D02*
X13874943Y-16442650D01*
X13874943Y-16442650D02*
X13893991Y-16452174D01*
X13893991Y-16452174D02*
X13903515Y-16471222D01*
X13903515Y-16471222D02*
X13903515Y-16575984D01*
X14293991Y-16366460D02*
X14122563Y-16623603D01*
X14551134Y-16375984D02*
X14570182Y-16375984D01*
X14570182Y-16375984D02*
X14589229Y-16385508D01*
X14589229Y-16385508D02*
X14598753Y-16395031D01*
X14598753Y-16395031D02*
X14608277Y-16414079D01*
X14608277Y-16414079D02*
X14617801Y-16452174D01*
X14617801Y-16452174D02*
X14617801Y-16499793D01*
X14617801Y-16499793D02*
X14608277Y-16537888D01*
X14608277Y-16537888D02*
X14598753Y-16556936D01*
X14598753Y-16556936D02*
X14589229Y-16566460D01*
X14589229Y-16566460D02*
X14570182Y-16575984D01*
X14570182Y-16575984D02*
X14551134Y-16575984D01*
X14551134Y-16575984D02*
X14532086Y-16566460D01*
X14532086Y-16566460D02*
X14522563Y-16556936D01*
X14522563Y-16556936D02*
X14513039Y-16537888D01*
X14513039Y-16537888D02*
X14503515Y-16499793D01*
X14503515Y-16499793D02*
X14503515Y-16452174D01*
X14503515Y-16452174D02*
X14513039Y-16414079D01*
X14513039Y-16414079D02*
X14522563Y-16395031D01*
X14522563Y-16395031D02*
X14532086Y-16385508D01*
X14532086Y-16385508D02*
X14551134Y-16375984D01*
X14703515Y-16556936D02*
X14713039Y-16566460D01*
X14713039Y-16566460D02*
X14703515Y-16575984D01*
X14703515Y-16575984D02*
X14693991Y-16566460D01*
X14693991Y-16566460D02*
X14703515Y-16556936D01*
X14703515Y-16556936D02*
X14703515Y-16575984D01*
X14836848Y-16375984D02*
X14855896Y-16375984D01*
X14855896Y-16375984D02*
X14874944Y-16385508D01*
X14874944Y-16385508D02*
X14884467Y-16395031D01*
X14884467Y-16395031D02*
X14893991Y-16414079D01*
X14893991Y-16414079D02*
X14903515Y-16452174D01*
X14903515Y-16452174D02*
X14903515Y-16499793D01*
X14903515Y-16499793D02*
X14893991Y-16537888D01*
X14893991Y-16537888D02*
X14884467Y-16556936D01*
X14884467Y-16556936D02*
X14874944Y-16566460D01*
X14874944Y-16566460D02*
X14855896Y-16575984D01*
X14855896Y-16575984D02*
X14836848Y-16575984D01*
X14836848Y-16575984D02*
X14817801Y-16566460D01*
X14817801Y-16566460D02*
X14808277Y-16556936D01*
X14808277Y-16556936D02*
X14798753Y-16537888D01*
X14798753Y-16537888D02*
X14789229Y-16499793D01*
X14789229Y-16499793D02*
X14789229Y-16452174D01*
X14789229Y-16452174D02*
X14798753Y-16414079D01*
X14798753Y-16414079D02*
X14808277Y-16395031D01*
X14808277Y-16395031D02*
X14817801Y-16385508D01*
X14817801Y-16385508D02*
X14836848Y-16375984D01*
X14970182Y-16375984D02*
X15093991Y-16375984D01*
X15093991Y-16375984D02*
X15027325Y-16452174D01*
X15027325Y-16452174D02*
X15055896Y-16452174D01*
X15055896Y-16452174D02*
X15074944Y-16461698D01*
X15074944Y-16461698D02*
X15084467Y-16471222D01*
X15084467Y-16471222D02*
X15093991Y-16490269D01*
X15093991Y-16490269D02*
X15093991Y-16537888D01*
X15093991Y-16537888D02*
X15084467Y-16556936D01*
X15084467Y-16556936D02*
X15074944Y-16566460D01*
X15074944Y-16566460D02*
X15055896Y-16575984D01*
X15055896Y-16575984D02*
X14998753Y-16575984D01*
X14998753Y-16575984D02*
X14979706Y-16566460D01*
X14979706Y-16566460D02*
X14970182Y-16556936D01*
X15284467Y-16575984D02*
X15170182Y-16575984D01*
X15227325Y-16575984D02*
X15227325Y-16375984D01*
X15227325Y-16375984D02*
X15208277Y-16404555D01*
X15208277Y-16404555D02*
X15189229Y-16423603D01*
X15189229Y-16423603D02*
X15170182Y-16433127D01*
X15465420Y-16375984D02*
X15370182Y-16375984D01*
X15370182Y-16375984D02*
X15360658Y-16471222D01*
X15360658Y-16471222D02*
X15370182Y-16461698D01*
X15370182Y-16461698D02*
X15389229Y-16452174D01*
X15389229Y-16452174D02*
X15436848Y-16452174D01*
X15436848Y-16452174D02*
X15455896Y-16461698D01*
X15455896Y-16461698D02*
X15465420Y-16471222D01*
X15465420Y-16471222D02*
X15474944Y-16490269D01*
X15474944Y-16490269D02*
X15474944Y-16537888D01*
X15474944Y-16537888D02*
X15465420Y-16556936D01*
X15465420Y-16556936D02*
X15455896Y-16566460D01*
X15455896Y-16566460D02*
X15436848Y-16575984D01*
X15436848Y-16575984D02*
X15389229Y-16575984D01*
X15389229Y-16575984D02*
X15370182Y-16566460D01*
X15370182Y-16566460D02*
X15360658Y-16556936D01*
X15551134Y-16375984D02*
X15551134Y-16414079D01*
X15627325Y-16375984D02*
X15627325Y-16414079D01*
X15922563Y-16652174D02*
X15913039Y-16642650D01*
X15913039Y-16642650D02*
X15893991Y-16614079D01*
X15893991Y-16614079D02*
X15884468Y-16595031D01*
X15884468Y-16595031D02*
X15874944Y-16566460D01*
X15874944Y-16566460D02*
X15865420Y-16518841D01*
X15865420Y-16518841D02*
X15865420Y-16480746D01*
X15865420Y-16480746D02*
X15874944Y-16433127D01*
X15874944Y-16433127D02*
X15884468Y-16404555D01*
X15884468Y-16404555D02*
X15893991Y-16385508D01*
X15893991Y-16385508D02*
X15913039Y-16356936D01*
X15913039Y-16356936D02*
X15922563Y-16347412D01*
X16084468Y-16442650D02*
X16084468Y-16575984D01*
X16036848Y-16366460D02*
X15989229Y-16509317D01*
X15989229Y-16509317D02*
X16113039Y-16509317D01*
X16293991Y-16575984D02*
X16179706Y-16575984D01*
X16236848Y-16575984D02*
X16236848Y-16375984D01*
X16236848Y-16375984D02*
X16217801Y-16404555D01*
X16217801Y-16404555D02*
X16198753Y-16423603D01*
X16198753Y-16423603D02*
X16179706Y-16433127D01*
X16532087Y-16575984D02*
X16532087Y-16375984D01*
X16617801Y-16575984D02*
X16617801Y-16471222D01*
X16617801Y-16471222D02*
X16608277Y-16452174D01*
X16608277Y-16452174D02*
X16589230Y-16442650D01*
X16589230Y-16442650D02*
X16560658Y-16442650D01*
X16560658Y-16442650D02*
X16541610Y-16452174D01*
X16541610Y-16452174D02*
X16532087Y-16461698D01*
X16741610Y-16575984D02*
X16722563Y-16566460D01*
X16722563Y-16566460D02*
X16713039Y-16556936D01*
X16713039Y-16556936D02*
X16703515Y-16537888D01*
X16703515Y-16537888D02*
X16703515Y-16480746D01*
X16703515Y-16480746D02*
X16713039Y-16461698D01*
X16713039Y-16461698D02*
X16722563Y-16452174D01*
X16722563Y-16452174D02*
X16741610Y-16442650D01*
X16741610Y-16442650D02*
X16770182Y-16442650D01*
X16770182Y-16442650D02*
X16789230Y-16452174D01*
X16789230Y-16452174D02*
X16798753Y-16461698D01*
X16798753Y-16461698D02*
X16808277Y-16480746D01*
X16808277Y-16480746D02*
X16808277Y-16537888D01*
X16808277Y-16537888D02*
X16798753Y-16556936D01*
X16798753Y-16556936D02*
X16789230Y-16566460D01*
X16789230Y-16566460D02*
X16770182Y-16575984D01*
X16770182Y-16575984D02*
X16741610Y-16575984D01*
X16922563Y-16575984D02*
X16903515Y-16566460D01*
X16903515Y-16566460D02*
X16893992Y-16547412D01*
X16893992Y-16547412D02*
X16893992Y-16375984D01*
X17074944Y-16566460D02*
X17055896Y-16575984D01*
X17055896Y-16575984D02*
X17017801Y-16575984D01*
X17017801Y-16575984D02*
X16998753Y-16566460D01*
X16998753Y-16566460D02*
X16989230Y-16547412D01*
X16989230Y-16547412D02*
X16989230Y-16471222D01*
X16989230Y-16471222D02*
X16998753Y-16452174D01*
X16998753Y-16452174D02*
X17017801Y-16442650D01*
X17017801Y-16442650D02*
X17055896Y-16442650D01*
X17055896Y-16442650D02*
X17074944Y-16452174D01*
X17074944Y-16452174D02*
X17084468Y-16471222D01*
X17084468Y-16471222D02*
X17084468Y-16490269D01*
X17084468Y-16490269D02*
X16989230Y-16509317D01*
X17160658Y-16566460D02*
X17179706Y-16575984D01*
X17179706Y-16575984D02*
X17217801Y-16575984D01*
X17217801Y-16575984D02*
X17236849Y-16566460D01*
X17236849Y-16566460D02*
X17246373Y-16547412D01*
X17246373Y-16547412D02*
X17246373Y-16537888D01*
X17246373Y-16537888D02*
X17236849Y-16518841D01*
X17236849Y-16518841D02*
X17217801Y-16509317D01*
X17217801Y-16509317D02*
X17189230Y-16509317D01*
X17189230Y-16509317D02*
X17170182Y-16499793D01*
X17170182Y-16499793D02*
X17160658Y-16480746D01*
X17160658Y-16480746D02*
X17160658Y-16471222D01*
X17160658Y-16471222D02*
X17170182Y-16452174D01*
X17170182Y-16452174D02*
X17189230Y-16442650D01*
X17189230Y-16442650D02*
X17217801Y-16442650D01*
X17217801Y-16442650D02*
X17236849Y-16452174D01*
X17313039Y-16652174D02*
X17322563Y-16642650D01*
X17322563Y-16642650D02*
X17341611Y-16614079D01*
X17341611Y-16614079D02*
X17351134Y-16595031D01*
X17351134Y-16595031D02*
X17360658Y-16566460D01*
X17360658Y-16566460D02*
X17370182Y-16518841D01*
X17370182Y-16518841D02*
X17370182Y-16480746D01*
X17370182Y-16480746D02*
X17360658Y-16433127D01*
X17360658Y-16433127D02*
X17351134Y-16404555D01*
X17351134Y-16404555D02*
X17341611Y-16385508D01*
X17341611Y-16385508D02*
X17322563Y-16356936D01*
X17322563Y-16356936D02*
X17313039Y-16347412D01*
D12*
X12303050Y-16792950D02*
X12347500Y-16748500D01*
X12303050Y-16704050D01*
X12258600Y-16748500D01*
X12303050Y-16792950D01*
D11*
X12646372Y-16639984D02*
X12665420Y-16639984D01*
X12665420Y-16639984D02*
X12684467Y-16649508D01*
X12684467Y-16649508D02*
X12693991Y-16659031D01*
X12693991Y-16659031D02*
X12703515Y-16678079D01*
X12703515Y-16678079D02*
X12713039Y-16716174D01*
X12713039Y-16716174D02*
X12713039Y-16763793D01*
X12713039Y-16763793D02*
X12703515Y-16801889D01*
X12703515Y-16801889D02*
X12693991Y-16820936D01*
X12693991Y-16820936D02*
X12684467Y-16830460D01*
X12684467Y-16830460D02*
X12665420Y-16839984D01*
X12665420Y-16839984D02*
X12646372Y-16839984D01*
X12646372Y-16839984D02*
X12627324Y-16830460D01*
X12627324Y-16830460D02*
X12617801Y-16820936D01*
X12617801Y-16820936D02*
X12608277Y-16801889D01*
X12608277Y-16801889D02*
X12598753Y-16763793D01*
X12598753Y-16763793D02*
X12598753Y-16716174D01*
X12598753Y-16716174D02*
X12608277Y-16678079D01*
X12608277Y-16678079D02*
X12617801Y-16659031D01*
X12617801Y-16659031D02*
X12627324Y-16649508D01*
X12627324Y-16649508D02*
X12646372Y-16639984D01*
X12798753Y-16820936D02*
X12808277Y-16830460D01*
X12808277Y-16830460D02*
X12798753Y-16839984D01*
X12798753Y-16839984D02*
X12789229Y-16830460D01*
X12789229Y-16830460D02*
X12798753Y-16820936D01*
X12798753Y-16820936D02*
X12798753Y-16839984D01*
X12922562Y-16725698D02*
X12903515Y-16716174D01*
X12903515Y-16716174D02*
X12893991Y-16706650D01*
X12893991Y-16706650D02*
X12884467Y-16687603D01*
X12884467Y-16687603D02*
X12884467Y-16678079D01*
X12884467Y-16678079D02*
X12893991Y-16659031D01*
X12893991Y-16659031D02*
X12903515Y-16649508D01*
X12903515Y-16649508D02*
X12922562Y-16639984D01*
X12922562Y-16639984D02*
X12960658Y-16639984D01*
X12960658Y-16639984D02*
X12979705Y-16649508D01*
X12979705Y-16649508D02*
X12989229Y-16659031D01*
X12989229Y-16659031D02*
X12998753Y-16678079D01*
X12998753Y-16678079D02*
X12998753Y-16687603D01*
X12998753Y-16687603D02*
X12989229Y-16706650D01*
X12989229Y-16706650D02*
X12979705Y-16716174D01*
X12979705Y-16716174D02*
X12960658Y-16725698D01*
X12960658Y-16725698D02*
X12922562Y-16725698D01*
X12922562Y-16725698D02*
X12903515Y-16735222D01*
X12903515Y-16735222D02*
X12893991Y-16744746D01*
X12893991Y-16744746D02*
X12884467Y-16763793D01*
X12884467Y-16763793D02*
X12884467Y-16801889D01*
X12884467Y-16801889D02*
X12893991Y-16820936D01*
X12893991Y-16820936D02*
X12903515Y-16830460D01*
X12903515Y-16830460D02*
X12922562Y-16839984D01*
X12922562Y-16839984D02*
X12960658Y-16839984D01*
X12960658Y-16839984D02*
X12979705Y-16830460D01*
X12979705Y-16830460D02*
X12989229Y-16820936D01*
X12989229Y-16820936D02*
X12998753Y-16801889D01*
X12998753Y-16801889D02*
X12998753Y-16763793D01*
X12998753Y-16763793D02*
X12989229Y-16744746D01*
X12989229Y-16744746D02*
X12979705Y-16735222D01*
X12979705Y-16735222D02*
X12960658Y-16725698D01*
X13113039Y-16725698D02*
X13093991Y-16716174D01*
X13093991Y-16716174D02*
X13084467Y-16706650D01*
X13084467Y-16706650D02*
X13074943Y-16687603D01*
X13074943Y-16687603D02*
X13074943Y-16678079D01*
X13074943Y-16678079D02*
X13084467Y-16659031D01*
X13084467Y-16659031D02*
X13093991Y-16649508D01*
X13093991Y-16649508D02*
X13113039Y-16639984D01*
X13113039Y-16639984D02*
X13151134Y-16639984D01*
X13151134Y-16639984D02*
X13170182Y-16649508D01*
X13170182Y-16649508D02*
X13179705Y-16659031D01*
X13179705Y-16659031D02*
X13189229Y-16678079D01*
X13189229Y-16678079D02*
X13189229Y-16687603D01*
X13189229Y-16687603D02*
X13179705Y-16706650D01*
X13179705Y-16706650D02*
X13170182Y-16716174D01*
X13170182Y-16716174D02*
X13151134Y-16725698D01*
X13151134Y-16725698D02*
X13113039Y-16725698D01*
X13113039Y-16725698D02*
X13093991Y-16735222D01*
X13093991Y-16735222D02*
X13084467Y-16744746D01*
X13084467Y-16744746D02*
X13074943Y-16763793D01*
X13074943Y-16763793D02*
X13074943Y-16801889D01*
X13074943Y-16801889D02*
X13084467Y-16820936D01*
X13084467Y-16820936D02*
X13093991Y-16830460D01*
X13093991Y-16830460D02*
X13113039Y-16839984D01*
X13113039Y-16839984D02*
X13151134Y-16839984D01*
X13151134Y-16839984D02*
X13170182Y-16830460D01*
X13170182Y-16830460D02*
X13179705Y-16820936D01*
X13179705Y-16820936D02*
X13189229Y-16801889D01*
X13189229Y-16801889D02*
X13189229Y-16763793D01*
X13189229Y-16763793D02*
X13179705Y-16744746D01*
X13179705Y-16744746D02*
X13170182Y-16735222D01*
X13170182Y-16735222D02*
X13151134Y-16725698D01*
X13284467Y-16839984D02*
X13322562Y-16839984D01*
X13322562Y-16839984D02*
X13341610Y-16830460D01*
X13341610Y-16830460D02*
X13351134Y-16820936D01*
X13351134Y-16820936D02*
X13370182Y-16792365D01*
X13370182Y-16792365D02*
X13379705Y-16754269D01*
X13379705Y-16754269D02*
X13379705Y-16678079D01*
X13379705Y-16678079D02*
X13370182Y-16659031D01*
X13370182Y-16659031D02*
X13360658Y-16649508D01*
X13360658Y-16649508D02*
X13341610Y-16639984D01*
X13341610Y-16639984D02*
X13303515Y-16639984D01*
X13303515Y-16639984D02*
X13284467Y-16649508D01*
X13284467Y-16649508D02*
X13274943Y-16659031D01*
X13274943Y-16659031D02*
X13265420Y-16678079D01*
X13265420Y-16678079D02*
X13265420Y-16725698D01*
X13265420Y-16725698D02*
X13274943Y-16744746D01*
X13274943Y-16744746D02*
X13284467Y-16754269D01*
X13284467Y-16754269D02*
X13303515Y-16763793D01*
X13303515Y-16763793D02*
X13341610Y-16763793D01*
X13341610Y-16763793D02*
X13360658Y-16754269D01*
X13360658Y-16754269D02*
X13370182Y-16744746D01*
X13370182Y-16744746D02*
X13379705Y-16725698D01*
X13465420Y-16839984D02*
X13465420Y-16706650D01*
X13465420Y-16725698D02*
X13474943Y-16716174D01*
X13474943Y-16716174D02*
X13493991Y-16706650D01*
X13493991Y-16706650D02*
X13522563Y-16706650D01*
X13522563Y-16706650D02*
X13541610Y-16716174D01*
X13541610Y-16716174D02*
X13551134Y-16735222D01*
X13551134Y-16735222D02*
X13551134Y-16839984D01*
X13551134Y-16735222D02*
X13560658Y-16716174D01*
X13560658Y-16716174D02*
X13579705Y-16706650D01*
X13579705Y-16706650D02*
X13608277Y-16706650D01*
X13608277Y-16706650D02*
X13627324Y-16716174D01*
X13627324Y-16716174D02*
X13636848Y-16735222D01*
X13636848Y-16735222D02*
X13636848Y-16839984D01*
X13732086Y-16839984D02*
X13732086Y-16706650D01*
X13732086Y-16725698D02*
X13741610Y-16716174D01*
X13741610Y-16716174D02*
X13760658Y-16706650D01*
X13760658Y-16706650D02*
X13789229Y-16706650D01*
X13789229Y-16706650D02*
X13808277Y-16716174D01*
X13808277Y-16716174D02*
X13817801Y-16735222D01*
X13817801Y-16735222D02*
X13817801Y-16839984D01*
X13817801Y-16735222D02*
X13827324Y-16716174D01*
X13827324Y-16716174D02*
X13846372Y-16706650D01*
X13846372Y-16706650D02*
X13874943Y-16706650D01*
X13874943Y-16706650D02*
X13893991Y-16716174D01*
X13893991Y-16716174D02*
X13903515Y-16735222D01*
X13903515Y-16735222D02*
X13903515Y-16839984D01*
X14293991Y-16630460D02*
X14122563Y-16887603D01*
X14551134Y-16639984D02*
X14570182Y-16639984D01*
X14570182Y-16639984D02*
X14589229Y-16649508D01*
X14589229Y-16649508D02*
X14598753Y-16659031D01*
X14598753Y-16659031D02*
X14608277Y-16678079D01*
X14608277Y-16678079D02*
X14617801Y-16716174D01*
X14617801Y-16716174D02*
X14617801Y-16763793D01*
X14617801Y-16763793D02*
X14608277Y-16801889D01*
X14608277Y-16801889D02*
X14598753Y-16820936D01*
X14598753Y-16820936D02*
X14589229Y-16830460D01*
X14589229Y-16830460D02*
X14570182Y-16839984D01*
X14570182Y-16839984D02*
X14551134Y-16839984D01*
X14551134Y-16839984D02*
X14532086Y-16830460D01*
X14532086Y-16830460D02*
X14522563Y-16820936D01*
X14522563Y-16820936D02*
X14513039Y-16801889D01*
X14513039Y-16801889D02*
X14503515Y-16763793D01*
X14503515Y-16763793D02*
X14503515Y-16716174D01*
X14503515Y-16716174D02*
X14513039Y-16678079D01*
X14513039Y-16678079D02*
X14522563Y-16659031D01*
X14522563Y-16659031D02*
X14532086Y-16649508D01*
X14532086Y-16649508D02*
X14551134Y-16639984D01*
X14703515Y-16820936D02*
X14713039Y-16830460D01*
X14713039Y-16830460D02*
X14703515Y-16839984D01*
X14703515Y-16839984D02*
X14693991Y-16830460D01*
X14693991Y-16830460D02*
X14703515Y-16820936D01*
X14703515Y-16820936D02*
X14703515Y-16839984D01*
X14836848Y-16639984D02*
X14855896Y-16639984D01*
X14855896Y-16639984D02*
X14874944Y-16649508D01*
X14874944Y-16649508D02*
X14884467Y-16659031D01*
X14884467Y-16659031D02*
X14893991Y-16678079D01*
X14893991Y-16678079D02*
X14903515Y-16716174D01*
X14903515Y-16716174D02*
X14903515Y-16763793D01*
X14903515Y-16763793D02*
X14893991Y-16801889D01*
X14893991Y-16801889D02*
X14884467Y-16820936D01*
X14884467Y-16820936D02*
X14874944Y-16830460D01*
X14874944Y-16830460D02*
X14855896Y-16839984D01*
X14855896Y-16839984D02*
X14836848Y-16839984D01*
X14836848Y-16839984D02*
X14817801Y-16830460D01*
X14817801Y-16830460D02*
X14808277Y-16820936D01*
X14808277Y-16820936D02*
X14798753Y-16801889D01*
X14798753Y-16801889D02*
X14789229Y-16763793D01*
X14789229Y-16763793D02*
X14789229Y-16716174D01*
X14789229Y-16716174D02*
X14798753Y-16678079D01*
X14798753Y-16678079D02*
X14808277Y-16659031D01*
X14808277Y-16659031D02*
X14817801Y-16649508D01*
X14817801Y-16649508D02*
X14836848Y-16639984D01*
X14970182Y-16639984D02*
X15093991Y-16639984D01*
X15093991Y-16639984D02*
X15027325Y-16716174D01*
X15027325Y-16716174D02*
X15055896Y-16716174D01*
X15055896Y-16716174D02*
X15074944Y-16725698D01*
X15074944Y-16725698D02*
X15084467Y-16735222D01*
X15084467Y-16735222D02*
X15093991Y-16754269D01*
X15093991Y-16754269D02*
X15093991Y-16801889D01*
X15093991Y-16801889D02*
X15084467Y-16820936D01*
X15084467Y-16820936D02*
X15074944Y-16830460D01*
X15074944Y-16830460D02*
X15055896Y-16839984D01*
X15055896Y-16839984D02*
X14998753Y-16839984D01*
X14998753Y-16839984D02*
X14979706Y-16830460D01*
X14979706Y-16830460D02*
X14970182Y-16820936D01*
X15274944Y-16639984D02*
X15179706Y-16639984D01*
X15179706Y-16639984D02*
X15170182Y-16735222D01*
X15170182Y-16735222D02*
X15179706Y-16725698D01*
X15179706Y-16725698D02*
X15198753Y-16716174D01*
X15198753Y-16716174D02*
X15246372Y-16716174D01*
X15246372Y-16716174D02*
X15265420Y-16725698D01*
X15265420Y-16725698D02*
X15274944Y-16735222D01*
X15274944Y-16735222D02*
X15284467Y-16754269D01*
X15284467Y-16754269D02*
X15284467Y-16801889D01*
X15284467Y-16801889D02*
X15274944Y-16820936D01*
X15274944Y-16820936D02*
X15265420Y-16830460D01*
X15265420Y-16830460D02*
X15246372Y-16839984D01*
X15246372Y-16839984D02*
X15198753Y-16839984D01*
X15198753Y-16839984D02*
X15179706Y-16830460D01*
X15179706Y-16830460D02*
X15170182Y-16820936D01*
X15408277Y-16639984D02*
X15427325Y-16639984D01*
X15427325Y-16639984D02*
X15446372Y-16649508D01*
X15446372Y-16649508D02*
X15455896Y-16659031D01*
X15455896Y-16659031D02*
X15465420Y-16678079D01*
X15465420Y-16678079D02*
X15474944Y-16716174D01*
X15474944Y-16716174D02*
X15474944Y-16763793D01*
X15474944Y-16763793D02*
X15465420Y-16801889D01*
X15465420Y-16801889D02*
X15455896Y-16820936D01*
X15455896Y-16820936D02*
X15446372Y-16830460D01*
X15446372Y-16830460D02*
X15427325Y-16839984D01*
X15427325Y-16839984D02*
X15408277Y-16839984D01*
X15408277Y-16839984D02*
X15389229Y-16830460D01*
X15389229Y-16830460D02*
X15379706Y-16820936D01*
X15379706Y-16820936D02*
X15370182Y-16801889D01*
X15370182Y-16801889D02*
X15360658Y-16763793D01*
X15360658Y-16763793D02*
X15360658Y-16716174D01*
X15360658Y-16716174D02*
X15370182Y-16678079D01*
X15370182Y-16678079D02*
X15379706Y-16659031D01*
X15379706Y-16659031D02*
X15389229Y-16649508D01*
X15389229Y-16649508D02*
X15408277Y-16639984D01*
X15551134Y-16639984D02*
X15551134Y-16678079D01*
X15627325Y-16639984D02*
X15627325Y-16678079D01*
X15922563Y-16916174D02*
X15913039Y-16906650D01*
X15913039Y-16906650D02*
X15893991Y-16878079D01*
X15893991Y-16878079D02*
X15884468Y-16859031D01*
X15884468Y-16859031D02*
X15874944Y-16830460D01*
X15874944Y-16830460D02*
X15865420Y-16782841D01*
X15865420Y-16782841D02*
X15865420Y-16744746D01*
X15865420Y-16744746D02*
X15874944Y-16697127D01*
X15874944Y-16697127D02*
X15884468Y-16668555D01*
X15884468Y-16668555D02*
X15893991Y-16649508D01*
X15893991Y-16649508D02*
X15913039Y-16620936D01*
X15913039Y-16620936D02*
X15922563Y-16611412D01*
X15979706Y-16639984D02*
X16103515Y-16639984D01*
X16103515Y-16639984D02*
X16036848Y-16716174D01*
X16036848Y-16716174D02*
X16065420Y-16716174D01*
X16065420Y-16716174D02*
X16084468Y-16725698D01*
X16084468Y-16725698D02*
X16093991Y-16735222D01*
X16093991Y-16735222D02*
X16103515Y-16754269D01*
X16103515Y-16754269D02*
X16103515Y-16801889D01*
X16103515Y-16801889D02*
X16093991Y-16820936D01*
X16093991Y-16820936D02*
X16084468Y-16830460D01*
X16084468Y-16830460D02*
X16065420Y-16839984D01*
X16065420Y-16839984D02*
X16008277Y-16839984D01*
X16008277Y-16839984D02*
X15989229Y-16830460D01*
X15989229Y-16830460D02*
X15979706Y-16820936D01*
X16179706Y-16659031D02*
X16189229Y-16649508D01*
X16189229Y-16649508D02*
X16208277Y-16639984D01*
X16208277Y-16639984D02*
X16255896Y-16639984D01*
X16255896Y-16639984D02*
X16274944Y-16649508D01*
X16274944Y-16649508D02*
X16284468Y-16659031D01*
X16284468Y-16659031D02*
X16293991Y-16678079D01*
X16293991Y-16678079D02*
X16293991Y-16697127D01*
X16293991Y-16697127D02*
X16284468Y-16725698D01*
X16284468Y-16725698D02*
X16170182Y-16839984D01*
X16170182Y-16839984D02*
X16293991Y-16839984D01*
X16532087Y-16839984D02*
X16532087Y-16639984D01*
X16617801Y-16839984D02*
X16617801Y-16735222D01*
X16617801Y-16735222D02*
X16608277Y-16716174D01*
X16608277Y-16716174D02*
X16589230Y-16706650D01*
X16589230Y-16706650D02*
X16560658Y-16706650D01*
X16560658Y-16706650D02*
X16541610Y-16716174D01*
X16541610Y-16716174D02*
X16532087Y-16725698D01*
X16741610Y-16839984D02*
X16722563Y-16830460D01*
X16722563Y-16830460D02*
X16713039Y-16820936D01*
X16713039Y-16820936D02*
X16703515Y-16801889D01*
X16703515Y-16801889D02*
X16703515Y-16744746D01*
X16703515Y-16744746D02*
X16713039Y-16725698D01*
X16713039Y-16725698D02*
X16722563Y-16716174D01*
X16722563Y-16716174D02*
X16741610Y-16706650D01*
X16741610Y-16706650D02*
X16770182Y-16706650D01*
X16770182Y-16706650D02*
X16789230Y-16716174D01*
X16789230Y-16716174D02*
X16798753Y-16725698D01*
X16798753Y-16725698D02*
X16808277Y-16744746D01*
X16808277Y-16744746D02*
X16808277Y-16801889D01*
X16808277Y-16801889D02*
X16798753Y-16820936D01*
X16798753Y-16820936D02*
X16789230Y-16830460D01*
X16789230Y-16830460D02*
X16770182Y-16839984D01*
X16770182Y-16839984D02*
X16741610Y-16839984D01*
X16922563Y-16839984D02*
X16903515Y-16830460D01*
X16903515Y-16830460D02*
X16893992Y-16811412D01*
X16893992Y-16811412D02*
X16893992Y-16639984D01*
X17074944Y-16830460D02*
X17055896Y-16839984D01*
X17055896Y-16839984D02*
X17017801Y-16839984D01*
X17017801Y-16839984D02*
X16998753Y-16830460D01*
X16998753Y-16830460D02*
X16989230Y-16811412D01*
X16989230Y-16811412D02*
X16989230Y-16735222D01*
X16989230Y-16735222D02*
X16998753Y-16716174D01*
X16998753Y-16716174D02*
X17017801Y-16706650D01*
X17017801Y-16706650D02*
X17055896Y-16706650D01*
X17055896Y-16706650D02*
X17074944Y-16716174D01*
X17074944Y-16716174D02*
X17084468Y-16735222D01*
X17084468Y-16735222D02*
X17084468Y-16754269D01*
X17084468Y-16754269D02*
X16989230Y-16773317D01*
X17160658Y-16830460D02*
X17179706Y-16839984D01*
X17179706Y-16839984D02*
X17217801Y-16839984D01*
X17217801Y-16839984D02*
X17236849Y-16830460D01*
X17236849Y-16830460D02*
X17246373Y-16811412D01*
X17246373Y-16811412D02*
X17246373Y-16801889D01*
X17246373Y-16801889D02*
X17236849Y-16782841D01*
X17236849Y-16782841D02*
X17217801Y-16773317D01*
X17217801Y-16773317D02*
X17189230Y-16773317D01*
X17189230Y-16773317D02*
X17170182Y-16763793D01*
X17170182Y-16763793D02*
X17160658Y-16744746D01*
X17160658Y-16744746D02*
X17160658Y-16735222D01*
X17160658Y-16735222D02*
X17170182Y-16716174D01*
X17170182Y-16716174D02*
X17189230Y-16706650D01*
X17189230Y-16706650D02*
X17217801Y-16706650D01*
X17217801Y-16706650D02*
X17236849Y-16716174D01*
X17313039Y-16916174D02*
X17322563Y-16906650D01*
X17322563Y-16906650D02*
X17341611Y-16878079D01*
X17341611Y-16878079D02*
X17351134Y-16859031D01*
X17351134Y-16859031D02*
X17360658Y-16830460D01*
X17360658Y-16830460D02*
X17370182Y-16782841D01*
X17370182Y-16782841D02*
X17370182Y-16744746D01*
X17370182Y-16744746D02*
X17360658Y-16697127D01*
X17360658Y-16697127D02*
X17351134Y-16668555D01*
X17351134Y-16668555D02*
X17341611Y-16649508D01*
X17341611Y-16649508D02*
X17322563Y-16620936D01*
X17322563Y-16620936D02*
X17313039Y-16611412D01*
D12*
X12257500Y-16967500D02*
X12347500Y-17057500D01*
X12347500Y-16967500D02*
X12257500Y-17057500D01*
X12347500Y-17012500D02*
G75*
G02*
X12257500Y-17012500I-45000J0D01*
G01*
X12257500Y-17012500D02*
G75*
G02*
X12347500Y-17012500I45000J0D01*
G01*
D11*
X12646372Y-16903984D02*
X12665420Y-16903984D01*
X12665420Y-16903984D02*
X12684467Y-16913508D01*
X12684467Y-16913508D02*
X12693991Y-16923031D01*
X12693991Y-16923031D02*
X12703515Y-16942079D01*
X12703515Y-16942079D02*
X12713039Y-16980174D01*
X12713039Y-16980174D02*
X12713039Y-17027793D01*
X12713039Y-17027793D02*
X12703515Y-17065889D01*
X12703515Y-17065889D02*
X12693991Y-17084936D01*
X12693991Y-17084936D02*
X12684467Y-17094460D01*
X12684467Y-17094460D02*
X12665420Y-17103984D01*
X12665420Y-17103984D02*
X12646372Y-17103984D01*
X12646372Y-17103984D02*
X12627324Y-17094460D01*
X12627324Y-17094460D02*
X12617801Y-17084936D01*
X12617801Y-17084936D02*
X12608277Y-17065889D01*
X12608277Y-17065889D02*
X12598753Y-17027793D01*
X12598753Y-17027793D02*
X12598753Y-16980174D01*
X12598753Y-16980174D02*
X12608277Y-16942079D01*
X12608277Y-16942079D02*
X12617801Y-16923031D01*
X12617801Y-16923031D02*
X12627324Y-16913508D01*
X12627324Y-16913508D02*
X12646372Y-16903984D01*
X12798753Y-17084936D02*
X12808277Y-17094460D01*
X12808277Y-17094460D02*
X12798753Y-17103984D01*
X12798753Y-17103984D02*
X12789229Y-17094460D01*
X12789229Y-17094460D02*
X12798753Y-17084936D01*
X12798753Y-17084936D02*
X12798753Y-17103984D01*
X12903515Y-17103984D02*
X12941610Y-17103984D01*
X12941610Y-17103984D02*
X12960658Y-17094460D01*
X12960658Y-17094460D02*
X12970182Y-17084936D01*
X12970182Y-17084936D02*
X12989229Y-17056365D01*
X12989229Y-17056365D02*
X12998753Y-17018270D01*
X12998753Y-17018270D02*
X12998753Y-16942079D01*
X12998753Y-16942079D02*
X12989229Y-16923031D01*
X12989229Y-16923031D02*
X12979705Y-16913508D01*
X12979705Y-16913508D02*
X12960658Y-16903984D01*
X12960658Y-16903984D02*
X12922562Y-16903984D01*
X12922562Y-16903984D02*
X12903515Y-16913508D01*
X12903515Y-16913508D02*
X12893991Y-16923031D01*
X12893991Y-16923031D02*
X12884467Y-16942079D01*
X12884467Y-16942079D02*
X12884467Y-16989698D01*
X12884467Y-16989698D02*
X12893991Y-17008746D01*
X12893991Y-17008746D02*
X12903515Y-17018270D01*
X12903515Y-17018270D02*
X12922562Y-17027793D01*
X12922562Y-17027793D02*
X12960658Y-17027793D01*
X12960658Y-17027793D02*
X12979705Y-17018270D01*
X12979705Y-17018270D02*
X12989229Y-17008746D01*
X12989229Y-17008746D02*
X12998753Y-16989698D01*
X13122562Y-16903984D02*
X13141610Y-16903984D01*
X13141610Y-16903984D02*
X13160658Y-16913508D01*
X13160658Y-16913508D02*
X13170182Y-16923031D01*
X13170182Y-16923031D02*
X13179705Y-16942079D01*
X13179705Y-16942079D02*
X13189229Y-16980174D01*
X13189229Y-16980174D02*
X13189229Y-17027793D01*
X13189229Y-17027793D02*
X13179705Y-17065889D01*
X13179705Y-17065889D02*
X13170182Y-17084936D01*
X13170182Y-17084936D02*
X13160658Y-17094460D01*
X13160658Y-17094460D02*
X13141610Y-17103984D01*
X13141610Y-17103984D02*
X13122562Y-17103984D01*
X13122562Y-17103984D02*
X13103515Y-17094460D01*
X13103515Y-17094460D02*
X13093991Y-17084936D01*
X13093991Y-17084936D02*
X13084467Y-17065889D01*
X13084467Y-17065889D02*
X13074943Y-17027793D01*
X13074943Y-17027793D02*
X13074943Y-16980174D01*
X13074943Y-16980174D02*
X13084467Y-16942079D01*
X13084467Y-16942079D02*
X13093991Y-16923031D01*
X13093991Y-16923031D02*
X13103515Y-16913508D01*
X13103515Y-16913508D02*
X13122562Y-16903984D01*
X13313039Y-16903984D02*
X13332086Y-16903984D01*
X13332086Y-16903984D02*
X13351134Y-16913508D01*
X13351134Y-16913508D02*
X13360658Y-16923031D01*
X13360658Y-16923031D02*
X13370182Y-16942079D01*
X13370182Y-16942079D02*
X13379705Y-16980174D01*
X13379705Y-16980174D02*
X13379705Y-17027793D01*
X13379705Y-17027793D02*
X13370182Y-17065889D01*
X13370182Y-17065889D02*
X13360658Y-17084936D01*
X13360658Y-17084936D02*
X13351134Y-17094460D01*
X13351134Y-17094460D02*
X13332086Y-17103984D01*
X13332086Y-17103984D02*
X13313039Y-17103984D01*
X13313039Y-17103984D02*
X13293991Y-17094460D01*
X13293991Y-17094460D02*
X13284467Y-17084936D01*
X13284467Y-17084936D02*
X13274943Y-17065889D01*
X13274943Y-17065889D02*
X13265420Y-17027793D01*
X13265420Y-17027793D02*
X13265420Y-16980174D01*
X13265420Y-16980174D02*
X13274943Y-16942079D01*
X13274943Y-16942079D02*
X13284467Y-16923031D01*
X13284467Y-16923031D02*
X13293991Y-16913508D01*
X13293991Y-16913508D02*
X13313039Y-16903984D01*
X13465420Y-17103984D02*
X13465420Y-16970650D01*
X13465420Y-16989698D02*
X13474943Y-16980174D01*
X13474943Y-16980174D02*
X13493991Y-16970650D01*
X13493991Y-16970650D02*
X13522563Y-16970650D01*
X13522563Y-16970650D02*
X13541610Y-16980174D01*
X13541610Y-16980174D02*
X13551134Y-16999222D01*
X13551134Y-16999222D02*
X13551134Y-17103984D01*
X13551134Y-16999222D02*
X13560658Y-16980174D01*
X13560658Y-16980174D02*
X13579705Y-16970650D01*
X13579705Y-16970650D02*
X13608277Y-16970650D01*
X13608277Y-16970650D02*
X13627324Y-16980174D01*
X13627324Y-16980174D02*
X13636848Y-16999222D01*
X13636848Y-16999222D02*
X13636848Y-17103984D01*
X13732086Y-17103984D02*
X13732086Y-16970650D01*
X13732086Y-16989698D02*
X13741610Y-16980174D01*
X13741610Y-16980174D02*
X13760658Y-16970650D01*
X13760658Y-16970650D02*
X13789229Y-16970650D01*
X13789229Y-16970650D02*
X13808277Y-16980174D01*
X13808277Y-16980174D02*
X13817801Y-16999222D01*
X13817801Y-16999222D02*
X13817801Y-17103984D01*
X13817801Y-16999222D02*
X13827324Y-16980174D01*
X13827324Y-16980174D02*
X13846372Y-16970650D01*
X13846372Y-16970650D02*
X13874943Y-16970650D01*
X13874943Y-16970650D02*
X13893991Y-16980174D01*
X13893991Y-16980174D02*
X13903515Y-16999222D01*
X13903515Y-16999222D02*
X13903515Y-17103984D01*
X14293991Y-16894460D02*
X14122563Y-17151603D01*
X14551134Y-16903984D02*
X14570182Y-16903984D01*
X14570182Y-16903984D02*
X14589229Y-16913508D01*
X14589229Y-16913508D02*
X14598753Y-16923031D01*
X14598753Y-16923031D02*
X14608277Y-16942079D01*
X14608277Y-16942079D02*
X14617801Y-16980174D01*
X14617801Y-16980174D02*
X14617801Y-17027793D01*
X14617801Y-17027793D02*
X14608277Y-17065889D01*
X14608277Y-17065889D02*
X14598753Y-17084936D01*
X14598753Y-17084936D02*
X14589229Y-17094460D01*
X14589229Y-17094460D02*
X14570182Y-17103984D01*
X14570182Y-17103984D02*
X14551134Y-17103984D01*
X14551134Y-17103984D02*
X14532086Y-17094460D01*
X14532086Y-17094460D02*
X14522563Y-17084936D01*
X14522563Y-17084936D02*
X14513039Y-17065889D01*
X14513039Y-17065889D02*
X14503515Y-17027793D01*
X14503515Y-17027793D02*
X14503515Y-16980174D01*
X14503515Y-16980174D02*
X14513039Y-16942079D01*
X14513039Y-16942079D02*
X14522563Y-16923031D01*
X14522563Y-16923031D02*
X14532086Y-16913508D01*
X14532086Y-16913508D02*
X14551134Y-16903984D01*
X14703515Y-17084936D02*
X14713039Y-17094460D01*
X14713039Y-17094460D02*
X14703515Y-17103984D01*
X14703515Y-17103984D02*
X14693991Y-17094460D01*
X14693991Y-17094460D02*
X14703515Y-17084936D01*
X14703515Y-17084936D02*
X14703515Y-17103984D01*
X14836848Y-16903984D02*
X14855896Y-16903984D01*
X14855896Y-16903984D02*
X14874944Y-16913508D01*
X14874944Y-16913508D02*
X14884467Y-16923031D01*
X14884467Y-16923031D02*
X14893991Y-16942079D01*
X14893991Y-16942079D02*
X14903515Y-16980174D01*
X14903515Y-16980174D02*
X14903515Y-17027793D01*
X14903515Y-17027793D02*
X14893991Y-17065889D01*
X14893991Y-17065889D02*
X14884467Y-17084936D01*
X14884467Y-17084936D02*
X14874944Y-17094460D01*
X14874944Y-17094460D02*
X14855896Y-17103984D01*
X14855896Y-17103984D02*
X14836848Y-17103984D01*
X14836848Y-17103984D02*
X14817801Y-17094460D01*
X14817801Y-17094460D02*
X14808277Y-17084936D01*
X14808277Y-17084936D02*
X14798753Y-17065889D01*
X14798753Y-17065889D02*
X14789229Y-17027793D01*
X14789229Y-17027793D02*
X14789229Y-16980174D01*
X14789229Y-16980174D02*
X14798753Y-16942079D01*
X14798753Y-16942079D02*
X14808277Y-16923031D01*
X14808277Y-16923031D02*
X14817801Y-16913508D01*
X14817801Y-16913508D02*
X14836848Y-16903984D01*
X14970182Y-16903984D02*
X15093991Y-16903984D01*
X15093991Y-16903984D02*
X15027325Y-16980174D01*
X15027325Y-16980174D02*
X15055896Y-16980174D01*
X15055896Y-16980174D02*
X15074944Y-16989698D01*
X15074944Y-16989698D02*
X15084467Y-16999222D01*
X15084467Y-16999222D02*
X15093991Y-17018270D01*
X15093991Y-17018270D02*
X15093991Y-17065889D01*
X15093991Y-17065889D02*
X15084467Y-17084936D01*
X15084467Y-17084936D02*
X15074944Y-17094460D01*
X15074944Y-17094460D02*
X15055896Y-17103984D01*
X15055896Y-17103984D02*
X14998753Y-17103984D01*
X14998753Y-17103984D02*
X14979706Y-17094460D01*
X14979706Y-17094460D02*
X14970182Y-17084936D01*
X15274944Y-16903984D02*
X15179706Y-16903984D01*
X15179706Y-16903984D02*
X15170182Y-16999222D01*
X15170182Y-16999222D02*
X15179706Y-16989698D01*
X15179706Y-16989698D02*
X15198753Y-16980174D01*
X15198753Y-16980174D02*
X15246372Y-16980174D01*
X15246372Y-16980174D02*
X15265420Y-16989698D01*
X15265420Y-16989698D02*
X15274944Y-16999222D01*
X15274944Y-16999222D02*
X15284467Y-17018270D01*
X15284467Y-17018270D02*
X15284467Y-17065889D01*
X15284467Y-17065889D02*
X15274944Y-17084936D01*
X15274944Y-17084936D02*
X15265420Y-17094460D01*
X15265420Y-17094460D02*
X15246372Y-17103984D01*
X15246372Y-17103984D02*
X15198753Y-17103984D01*
X15198753Y-17103984D02*
X15179706Y-17094460D01*
X15179706Y-17094460D02*
X15170182Y-17084936D01*
X15455896Y-16970650D02*
X15455896Y-17103984D01*
X15408277Y-16894460D02*
X15360658Y-17037317D01*
X15360658Y-17037317D02*
X15484467Y-17037317D01*
X15551134Y-16903984D02*
X15551134Y-16942079D01*
X15627325Y-16903984D02*
X15627325Y-16942079D01*
X15922563Y-17180174D02*
X15913039Y-17170650D01*
X15913039Y-17170650D02*
X15893991Y-17142079D01*
X15893991Y-17142079D02*
X15884468Y-17123031D01*
X15884468Y-17123031D02*
X15874944Y-17094460D01*
X15874944Y-17094460D02*
X15865420Y-17046841D01*
X15865420Y-17046841D02*
X15865420Y-17008746D01*
X15865420Y-17008746D02*
X15874944Y-16961127D01*
X15874944Y-16961127D02*
X15884468Y-16932555D01*
X15884468Y-16932555D02*
X15893991Y-16913508D01*
X15893991Y-16913508D02*
X15913039Y-16884936D01*
X15913039Y-16884936D02*
X15922563Y-16875412D01*
X16084468Y-16970650D02*
X16084468Y-17103984D01*
X16036848Y-16894460D02*
X15989229Y-17037317D01*
X15989229Y-17037317D02*
X16113039Y-17037317D01*
X16341610Y-17103984D02*
X16341610Y-16903984D01*
X16427325Y-17103984D02*
X16427325Y-16999222D01*
X16427325Y-16999222D02*
X16417801Y-16980174D01*
X16417801Y-16980174D02*
X16398753Y-16970650D01*
X16398753Y-16970650D02*
X16370182Y-16970650D01*
X16370182Y-16970650D02*
X16351134Y-16980174D01*
X16351134Y-16980174D02*
X16341610Y-16989698D01*
X16551134Y-17103984D02*
X16532087Y-17094460D01*
X16532087Y-17094460D02*
X16522563Y-17084936D01*
X16522563Y-17084936D02*
X16513039Y-17065889D01*
X16513039Y-17065889D02*
X16513039Y-17008746D01*
X16513039Y-17008746D02*
X16522563Y-16989698D01*
X16522563Y-16989698D02*
X16532087Y-16980174D01*
X16532087Y-16980174D02*
X16551134Y-16970650D01*
X16551134Y-16970650D02*
X16579706Y-16970650D01*
X16579706Y-16970650D02*
X16598753Y-16980174D01*
X16598753Y-16980174D02*
X16608277Y-16989698D01*
X16608277Y-16989698D02*
X16617801Y-17008746D01*
X16617801Y-17008746D02*
X16617801Y-17065889D01*
X16617801Y-17065889D02*
X16608277Y-17084936D01*
X16608277Y-17084936D02*
X16598753Y-17094460D01*
X16598753Y-17094460D02*
X16579706Y-17103984D01*
X16579706Y-17103984D02*
X16551134Y-17103984D01*
X16732087Y-17103984D02*
X16713039Y-17094460D01*
X16713039Y-17094460D02*
X16703515Y-17075412D01*
X16703515Y-17075412D02*
X16703515Y-16903984D01*
X16884468Y-17094460D02*
X16865420Y-17103984D01*
X16865420Y-17103984D02*
X16827325Y-17103984D01*
X16827325Y-17103984D02*
X16808277Y-17094460D01*
X16808277Y-17094460D02*
X16798753Y-17075412D01*
X16798753Y-17075412D02*
X16798753Y-16999222D01*
X16798753Y-16999222D02*
X16808277Y-16980174D01*
X16808277Y-16980174D02*
X16827325Y-16970650D01*
X16827325Y-16970650D02*
X16865420Y-16970650D01*
X16865420Y-16970650D02*
X16884468Y-16980174D01*
X16884468Y-16980174D02*
X16893992Y-16999222D01*
X16893992Y-16999222D02*
X16893992Y-17018270D01*
X16893992Y-17018270D02*
X16798753Y-17037317D01*
X16970182Y-17094460D02*
X16989230Y-17103984D01*
X16989230Y-17103984D02*
X17027325Y-17103984D01*
X17027325Y-17103984D02*
X17046373Y-17094460D01*
X17046373Y-17094460D02*
X17055896Y-17075412D01*
X17055896Y-17075412D02*
X17055896Y-17065889D01*
X17055896Y-17065889D02*
X17046373Y-17046841D01*
X17046373Y-17046841D02*
X17027325Y-17037317D01*
X17027325Y-17037317D02*
X16998753Y-17037317D01*
X16998753Y-17037317D02*
X16979706Y-17027793D01*
X16979706Y-17027793D02*
X16970182Y-17008746D01*
X16970182Y-17008746D02*
X16970182Y-16999222D01*
X16970182Y-16999222D02*
X16979706Y-16980174D01*
X16979706Y-16980174D02*
X16998753Y-16970650D01*
X16998753Y-16970650D02*
X17027325Y-16970650D01*
X17027325Y-16970650D02*
X17046373Y-16980174D01*
X17122563Y-17180174D02*
X17132087Y-17170650D01*
X17132087Y-17170650D02*
X17151134Y-17142079D01*
X17151134Y-17142079D02*
X17160658Y-17123031D01*
X17160658Y-17123031D02*
X17170182Y-17094460D01*
X17170182Y-17094460D02*
X17179706Y-17046841D01*
X17179706Y-17046841D02*
X17179706Y-17008746D01*
X17179706Y-17008746D02*
X17170182Y-16961127D01*
X17170182Y-16961127D02*
X17160658Y-16932555D01*
X17160658Y-16932555D02*
X17151134Y-16913508D01*
X17151134Y-16913508D02*
X17132087Y-16884936D01*
X17132087Y-16884936D02*
X17122563Y-16875412D01*
D12*
X12247500Y-17226500D02*
X12347500Y-17326500D01*
X12347500Y-17226500D02*
X12247500Y-17326500D01*
X12297500Y-17226500D02*
X12297500Y-17326500D01*
X12247500Y-17276500D02*
X12347500Y-17276500D01*
D11*
X12713039Y-17367984D02*
X12598753Y-17367984D01*
X12655896Y-17367984D02*
X12655896Y-17167984D01*
X12655896Y-17167984D02*
X12636848Y-17196555D01*
X12636848Y-17196555D02*
X12617801Y-17215603D01*
X12617801Y-17215603D02*
X12598753Y-17225127D01*
X12798753Y-17348936D02*
X12808277Y-17358460D01*
X12808277Y-17358460D02*
X12798753Y-17367984D01*
X12798753Y-17367984D02*
X12789229Y-17358460D01*
X12789229Y-17358460D02*
X12798753Y-17348936D01*
X12798753Y-17348936D02*
X12798753Y-17367984D01*
X12932086Y-17167984D02*
X12951134Y-17167984D01*
X12951134Y-17167984D02*
X12970182Y-17177508D01*
X12970182Y-17177508D02*
X12979705Y-17187031D01*
X12979705Y-17187031D02*
X12989229Y-17206079D01*
X12989229Y-17206079D02*
X12998753Y-17244174D01*
X12998753Y-17244174D02*
X12998753Y-17291793D01*
X12998753Y-17291793D02*
X12989229Y-17329889D01*
X12989229Y-17329889D02*
X12979705Y-17348936D01*
X12979705Y-17348936D02*
X12970182Y-17358460D01*
X12970182Y-17358460D02*
X12951134Y-17367984D01*
X12951134Y-17367984D02*
X12932086Y-17367984D01*
X12932086Y-17367984D02*
X12913039Y-17358460D01*
X12913039Y-17358460D02*
X12903515Y-17348936D01*
X12903515Y-17348936D02*
X12893991Y-17329889D01*
X12893991Y-17329889D02*
X12884467Y-17291793D01*
X12884467Y-17291793D02*
X12884467Y-17244174D01*
X12884467Y-17244174D02*
X12893991Y-17206079D01*
X12893991Y-17206079D02*
X12903515Y-17187031D01*
X12903515Y-17187031D02*
X12913039Y-17177508D01*
X12913039Y-17177508D02*
X12932086Y-17167984D01*
X13122562Y-17167984D02*
X13141610Y-17167984D01*
X13141610Y-17167984D02*
X13160658Y-17177508D01*
X13160658Y-17177508D02*
X13170182Y-17187031D01*
X13170182Y-17187031D02*
X13179705Y-17206079D01*
X13179705Y-17206079D02*
X13189229Y-17244174D01*
X13189229Y-17244174D02*
X13189229Y-17291793D01*
X13189229Y-17291793D02*
X13179705Y-17329889D01*
X13179705Y-17329889D02*
X13170182Y-17348936D01*
X13170182Y-17348936D02*
X13160658Y-17358460D01*
X13160658Y-17358460D02*
X13141610Y-17367984D01*
X13141610Y-17367984D02*
X13122562Y-17367984D01*
X13122562Y-17367984D02*
X13103515Y-17358460D01*
X13103515Y-17358460D02*
X13093991Y-17348936D01*
X13093991Y-17348936D02*
X13084467Y-17329889D01*
X13084467Y-17329889D02*
X13074943Y-17291793D01*
X13074943Y-17291793D02*
X13074943Y-17244174D01*
X13074943Y-17244174D02*
X13084467Y-17206079D01*
X13084467Y-17206079D02*
X13093991Y-17187031D01*
X13093991Y-17187031D02*
X13103515Y-17177508D01*
X13103515Y-17177508D02*
X13122562Y-17167984D01*
X13313039Y-17167984D02*
X13332086Y-17167984D01*
X13332086Y-17167984D02*
X13351134Y-17177508D01*
X13351134Y-17177508D02*
X13360658Y-17187031D01*
X13360658Y-17187031D02*
X13370182Y-17206079D01*
X13370182Y-17206079D02*
X13379705Y-17244174D01*
X13379705Y-17244174D02*
X13379705Y-17291793D01*
X13379705Y-17291793D02*
X13370182Y-17329889D01*
X13370182Y-17329889D02*
X13360658Y-17348936D01*
X13360658Y-17348936D02*
X13351134Y-17358460D01*
X13351134Y-17358460D02*
X13332086Y-17367984D01*
X13332086Y-17367984D02*
X13313039Y-17367984D01*
X13313039Y-17367984D02*
X13293991Y-17358460D01*
X13293991Y-17358460D02*
X13284467Y-17348936D01*
X13284467Y-17348936D02*
X13274943Y-17329889D01*
X13274943Y-17329889D02*
X13265420Y-17291793D01*
X13265420Y-17291793D02*
X13265420Y-17244174D01*
X13265420Y-17244174D02*
X13274943Y-17206079D01*
X13274943Y-17206079D02*
X13284467Y-17187031D01*
X13284467Y-17187031D02*
X13293991Y-17177508D01*
X13293991Y-17177508D02*
X13313039Y-17167984D01*
X13465420Y-17367984D02*
X13465420Y-17234650D01*
X13465420Y-17253698D02*
X13474943Y-17244174D01*
X13474943Y-17244174D02*
X13493991Y-17234650D01*
X13493991Y-17234650D02*
X13522563Y-17234650D01*
X13522563Y-17234650D02*
X13541610Y-17244174D01*
X13541610Y-17244174D02*
X13551134Y-17263222D01*
X13551134Y-17263222D02*
X13551134Y-17367984D01*
X13551134Y-17263222D02*
X13560658Y-17244174D01*
X13560658Y-17244174D02*
X13579705Y-17234650D01*
X13579705Y-17234650D02*
X13608277Y-17234650D01*
X13608277Y-17234650D02*
X13627324Y-17244174D01*
X13627324Y-17244174D02*
X13636848Y-17263222D01*
X13636848Y-17263222D02*
X13636848Y-17367984D01*
X13732086Y-17367984D02*
X13732086Y-17234650D01*
X13732086Y-17253698D02*
X13741610Y-17244174D01*
X13741610Y-17244174D02*
X13760658Y-17234650D01*
X13760658Y-17234650D02*
X13789229Y-17234650D01*
X13789229Y-17234650D02*
X13808277Y-17244174D01*
X13808277Y-17244174D02*
X13817801Y-17263222D01*
X13817801Y-17263222D02*
X13817801Y-17367984D01*
X13817801Y-17263222D02*
X13827324Y-17244174D01*
X13827324Y-17244174D02*
X13846372Y-17234650D01*
X13846372Y-17234650D02*
X13874943Y-17234650D01*
X13874943Y-17234650D02*
X13893991Y-17244174D01*
X13893991Y-17244174D02*
X13903515Y-17263222D01*
X13903515Y-17263222D02*
X13903515Y-17367984D01*
X14293991Y-17158460D02*
X14122563Y-17415603D01*
X14551134Y-17167984D02*
X14570182Y-17167984D01*
X14570182Y-17167984D02*
X14589229Y-17177508D01*
X14589229Y-17177508D02*
X14598753Y-17187031D01*
X14598753Y-17187031D02*
X14608277Y-17206079D01*
X14608277Y-17206079D02*
X14617801Y-17244174D01*
X14617801Y-17244174D02*
X14617801Y-17291793D01*
X14617801Y-17291793D02*
X14608277Y-17329889D01*
X14608277Y-17329889D02*
X14598753Y-17348936D01*
X14598753Y-17348936D02*
X14589229Y-17358460D01*
X14589229Y-17358460D02*
X14570182Y-17367984D01*
X14570182Y-17367984D02*
X14551134Y-17367984D01*
X14551134Y-17367984D02*
X14532086Y-17358460D01*
X14532086Y-17358460D02*
X14522563Y-17348936D01*
X14522563Y-17348936D02*
X14513039Y-17329889D01*
X14513039Y-17329889D02*
X14503515Y-17291793D01*
X14503515Y-17291793D02*
X14503515Y-17244174D01*
X14503515Y-17244174D02*
X14513039Y-17206079D01*
X14513039Y-17206079D02*
X14522563Y-17187031D01*
X14522563Y-17187031D02*
X14532086Y-17177508D01*
X14532086Y-17177508D02*
X14551134Y-17167984D01*
X14703515Y-17348936D02*
X14713039Y-17358460D01*
X14713039Y-17358460D02*
X14703515Y-17367984D01*
X14703515Y-17367984D02*
X14693991Y-17358460D01*
X14693991Y-17358460D02*
X14703515Y-17348936D01*
X14703515Y-17348936D02*
X14703515Y-17367984D01*
X14836848Y-17167984D02*
X14855896Y-17167984D01*
X14855896Y-17167984D02*
X14874944Y-17177508D01*
X14874944Y-17177508D02*
X14884467Y-17187031D01*
X14884467Y-17187031D02*
X14893991Y-17206079D01*
X14893991Y-17206079D02*
X14903515Y-17244174D01*
X14903515Y-17244174D02*
X14903515Y-17291793D01*
X14903515Y-17291793D02*
X14893991Y-17329889D01*
X14893991Y-17329889D02*
X14884467Y-17348936D01*
X14884467Y-17348936D02*
X14874944Y-17358460D01*
X14874944Y-17358460D02*
X14855896Y-17367984D01*
X14855896Y-17367984D02*
X14836848Y-17367984D01*
X14836848Y-17367984D02*
X14817801Y-17358460D01*
X14817801Y-17358460D02*
X14808277Y-17348936D01*
X14808277Y-17348936D02*
X14798753Y-17329889D01*
X14798753Y-17329889D02*
X14789229Y-17291793D01*
X14789229Y-17291793D02*
X14789229Y-17244174D01*
X14789229Y-17244174D02*
X14798753Y-17206079D01*
X14798753Y-17206079D02*
X14808277Y-17187031D01*
X14808277Y-17187031D02*
X14817801Y-17177508D01*
X14817801Y-17177508D02*
X14836848Y-17167984D01*
X14970182Y-17167984D02*
X15093991Y-17167984D01*
X15093991Y-17167984D02*
X15027325Y-17244174D01*
X15027325Y-17244174D02*
X15055896Y-17244174D01*
X15055896Y-17244174D02*
X15074944Y-17253698D01*
X15074944Y-17253698D02*
X15084467Y-17263222D01*
X15084467Y-17263222D02*
X15093991Y-17282270D01*
X15093991Y-17282270D02*
X15093991Y-17329889D01*
X15093991Y-17329889D02*
X15084467Y-17348936D01*
X15084467Y-17348936D02*
X15074944Y-17358460D01*
X15074944Y-17358460D02*
X15055896Y-17367984D01*
X15055896Y-17367984D02*
X14998753Y-17367984D01*
X14998753Y-17367984D02*
X14979706Y-17358460D01*
X14979706Y-17358460D02*
X14970182Y-17348936D01*
X15189229Y-17367984D02*
X15227325Y-17367984D01*
X15227325Y-17367984D02*
X15246372Y-17358460D01*
X15246372Y-17358460D02*
X15255896Y-17348936D01*
X15255896Y-17348936D02*
X15274944Y-17320365D01*
X15274944Y-17320365D02*
X15284467Y-17282270D01*
X15284467Y-17282270D02*
X15284467Y-17206079D01*
X15284467Y-17206079D02*
X15274944Y-17187031D01*
X15274944Y-17187031D02*
X15265420Y-17177508D01*
X15265420Y-17177508D02*
X15246372Y-17167984D01*
X15246372Y-17167984D02*
X15208277Y-17167984D01*
X15208277Y-17167984D02*
X15189229Y-17177508D01*
X15189229Y-17177508D02*
X15179706Y-17187031D01*
X15179706Y-17187031D02*
X15170182Y-17206079D01*
X15170182Y-17206079D02*
X15170182Y-17253698D01*
X15170182Y-17253698D02*
X15179706Y-17272746D01*
X15179706Y-17272746D02*
X15189229Y-17282270D01*
X15189229Y-17282270D02*
X15208277Y-17291793D01*
X15208277Y-17291793D02*
X15246372Y-17291793D01*
X15246372Y-17291793D02*
X15265420Y-17282270D01*
X15265420Y-17282270D02*
X15274944Y-17272746D01*
X15274944Y-17272746D02*
X15284467Y-17253698D01*
X15455896Y-17234650D02*
X15455896Y-17367984D01*
X15408277Y-17158460D02*
X15360658Y-17301317D01*
X15360658Y-17301317D02*
X15484467Y-17301317D01*
X15551134Y-17167984D02*
X15551134Y-17206079D01*
X15627325Y-17167984D02*
X15627325Y-17206079D01*
X15922563Y-17444174D02*
X15913039Y-17434650D01*
X15913039Y-17434650D02*
X15893991Y-17406079D01*
X15893991Y-17406079D02*
X15884468Y-17387031D01*
X15884468Y-17387031D02*
X15874944Y-17358460D01*
X15874944Y-17358460D02*
X15865420Y-17310841D01*
X15865420Y-17310841D02*
X15865420Y-17272746D01*
X15865420Y-17272746D02*
X15874944Y-17225127D01*
X15874944Y-17225127D02*
X15884468Y-17196555D01*
X15884468Y-17196555D02*
X15893991Y-17177508D01*
X15893991Y-17177508D02*
X15913039Y-17148936D01*
X15913039Y-17148936D02*
X15922563Y-17139412D01*
X16103515Y-17367984D02*
X15989229Y-17367984D01*
X16046372Y-17367984D02*
X16046372Y-17167984D01*
X16046372Y-17167984D02*
X16027325Y-17196555D01*
X16027325Y-17196555D02*
X16008277Y-17215603D01*
X16008277Y-17215603D02*
X15989229Y-17225127D01*
X16170182Y-17167984D02*
X16293991Y-17167984D01*
X16293991Y-17167984D02*
X16227325Y-17244174D01*
X16227325Y-17244174D02*
X16255896Y-17244174D01*
X16255896Y-17244174D02*
X16274944Y-17253698D01*
X16274944Y-17253698D02*
X16284468Y-17263222D01*
X16284468Y-17263222D02*
X16293991Y-17282270D01*
X16293991Y-17282270D02*
X16293991Y-17329889D01*
X16293991Y-17329889D02*
X16284468Y-17348936D01*
X16284468Y-17348936D02*
X16274944Y-17358460D01*
X16274944Y-17358460D02*
X16255896Y-17367984D01*
X16255896Y-17367984D02*
X16198753Y-17367984D01*
X16198753Y-17367984D02*
X16179706Y-17358460D01*
X16179706Y-17358460D02*
X16170182Y-17348936D01*
X16360658Y-17167984D02*
X16493991Y-17167984D01*
X16493991Y-17167984D02*
X16408277Y-17367984D01*
X16722563Y-17367984D02*
X16722563Y-17167984D01*
X16808277Y-17367984D02*
X16808277Y-17263222D01*
X16808277Y-17263222D02*
X16798753Y-17244174D01*
X16798753Y-17244174D02*
X16779706Y-17234650D01*
X16779706Y-17234650D02*
X16751134Y-17234650D01*
X16751134Y-17234650D02*
X16732087Y-17244174D01*
X16732087Y-17244174D02*
X16722563Y-17253698D01*
X16932087Y-17367984D02*
X16913039Y-17358460D01*
X16913039Y-17358460D02*
X16903515Y-17348936D01*
X16903515Y-17348936D02*
X16893992Y-17329889D01*
X16893992Y-17329889D02*
X16893992Y-17272746D01*
X16893992Y-17272746D02*
X16903515Y-17253698D01*
X16903515Y-17253698D02*
X16913039Y-17244174D01*
X16913039Y-17244174D02*
X16932087Y-17234650D01*
X16932087Y-17234650D02*
X16960658Y-17234650D01*
X16960658Y-17234650D02*
X16979706Y-17244174D01*
X16979706Y-17244174D02*
X16989230Y-17253698D01*
X16989230Y-17253698D02*
X16998753Y-17272746D01*
X16998753Y-17272746D02*
X16998753Y-17329889D01*
X16998753Y-17329889D02*
X16989230Y-17348936D01*
X16989230Y-17348936D02*
X16979706Y-17358460D01*
X16979706Y-17358460D02*
X16960658Y-17367984D01*
X16960658Y-17367984D02*
X16932087Y-17367984D01*
X17113039Y-17367984D02*
X17093992Y-17358460D01*
X17093992Y-17358460D02*
X17084468Y-17339412D01*
X17084468Y-17339412D02*
X17084468Y-17167984D01*
X17265420Y-17358460D02*
X17246373Y-17367984D01*
X17246373Y-17367984D02*
X17208277Y-17367984D01*
X17208277Y-17367984D02*
X17189230Y-17358460D01*
X17189230Y-17358460D02*
X17179706Y-17339412D01*
X17179706Y-17339412D02*
X17179706Y-17263222D01*
X17179706Y-17263222D02*
X17189230Y-17244174D01*
X17189230Y-17244174D02*
X17208277Y-17234650D01*
X17208277Y-17234650D02*
X17246373Y-17234650D01*
X17246373Y-17234650D02*
X17265420Y-17244174D01*
X17265420Y-17244174D02*
X17274944Y-17263222D01*
X17274944Y-17263222D02*
X17274944Y-17282270D01*
X17274944Y-17282270D02*
X17179706Y-17301317D01*
X17351134Y-17358460D02*
X17370182Y-17367984D01*
X17370182Y-17367984D02*
X17408277Y-17367984D01*
X17408277Y-17367984D02*
X17427325Y-17358460D01*
X17427325Y-17358460D02*
X17436849Y-17339412D01*
X17436849Y-17339412D02*
X17436849Y-17329889D01*
X17436849Y-17329889D02*
X17427325Y-17310841D01*
X17427325Y-17310841D02*
X17408277Y-17301317D01*
X17408277Y-17301317D02*
X17379706Y-17301317D01*
X17379706Y-17301317D02*
X17360658Y-17291793D01*
X17360658Y-17291793D02*
X17351134Y-17272746D01*
X17351134Y-17272746D02*
X17351134Y-17263222D01*
X17351134Y-17263222D02*
X17360658Y-17244174D01*
X17360658Y-17244174D02*
X17379706Y-17234650D01*
X17379706Y-17234650D02*
X17408277Y-17234650D01*
X17408277Y-17234650D02*
X17427325Y-17244174D01*
X17503515Y-17444174D02*
X17513039Y-17434650D01*
X17513039Y-17434650D02*
X17532087Y-17406079D01*
X17532087Y-17406079D02*
X17541611Y-17387031D01*
X17541611Y-17387031D02*
X17551134Y-17358460D01*
X17551134Y-17358460D02*
X17560658Y-17310841D01*
X17560658Y-17310841D02*
X17560658Y-17272746D01*
X17560658Y-17272746D02*
X17551134Y-17225127D01*
X17551134Y-17225127D02*
X17541611Y-17196555D01*
X17541611Y-17196555D02*
X17532087Y-17177508D01*
X17532087Y-17177508D02*
X17513039Y-17148936D01*
X17513039Y-17148936D02*
X17503515Y-17139412D01*
D13*
X12237500Y-17485500D02*
X12347500Y-17595500D01*
X12347500Y-17485500D02*
X12237500Y-17595500D01*
X12331391Y-17579391D02*
X12331391Y-17501609D01*
X12253609Y-17501609D01*
X12253609Y-17579391D01*
X12331391Y-17579391D01*
D11*
X12713039Y-17631984D02*
X12598753Y-17631984D01*
X12655896Y-17631984D02*
X12655896Y-17431984D01*
X12655896Y-17431984D02*
X12636848Y-17460555D01*
X12636848Y-17460555D02*
X12617801Y-17479603D01*
X12617801Y-17479603D02*
X12598753Y-17489127D01*
X12798753Y-17612936D02*
X12808277Y-17622460D01*
X12808277Y-17622460D02*
X12798753Y-17631984D01*
X12798753Y-17631984D02*
X12789229Y-17622460D01*
X12789229Y-17622460D02*
X12798753Y-17612936D01*
X12798753Y-17612936D02*
X12798753Y-17631984D01*
X12998753Y-17631984D02*
X12884467Y-17631984D01*
X12941610Y-17631984D02*
X12941610Y-17431984D01*
X12941610Y-17431984D02*
X12922562Y-17460555D01*
X12922562Y-17460555D02*
X12903515Y-17479603D01*
X12903515Y-17479603D02*
X12884467Y-17489127D01*
X13122562Y-17431984D02*
X13141610Y-17431984D01*
X13141610Y-17431984D02*
X13160658Y-17441508D01*
X13160658Y-17441508D02*
X13170182Y-17451031D01*
X13170182Y-17451031D02*
X13179705Y-17470079D01*
X13179705Y-17470079D02*
X13189229Y-17508174D01*
X13189229Y-17508174D02*
X13189229Y-17555793D01*
X13189229Y-17555793D02*
X13179705Y-17593889D01*
X13179705Y-17593889D02*
X13170182Y-17612936D01*
X13170182Y-17612936D02*
X13160658Y-17622460D01*
X13160658Y-17622460D02*
X13141610Y-17631984D01*
X13141610Y-17631984D02*
X13122562Y-17631984D01*
X13122562Y-17631984D02*
X13103515Y-17622460D01*
X13103515Y-17622460D02*
X13093991Y-17612936D01*
X13093991Y-17612936D02*
X13084467Y-17593889D01*
X13084467Y-17593889D02*
X13074943Y-17555793D01*
X13074943Y-17555793D02*
X13074943Y-17508174D01*
X13074943Y-17508174D02*
X13084467Y-17470079D01*
X13084467Y-17470079D02*
X13093991Y-17451031D01*
X13093991Y-17451031D02*
X13103515Y-17441508D01*
X13103515Y-17441508D02*
X13122562Y-17431984D01*
X13313039Y-17431984D02*
X13332086Y-17431984D01*
X13332086Y-17431984D02*
X13351134Y-17441508D01*
X13351134Y-17441508D02*
X13360658Y-17451031D01*
X13360658Y-17451031D02*
X13370182Y-17470079D01*
X13370182Y-17470079D02*
X13379705Y-17508174D01*
X13379705Y-17508174D02*
X13379705Y-17555793D01*
X13379705Y-17555793D02*
X13370182Y-17593889D01*
X13370182Y-17593889D02*
X13360658Y-17612936D01*
X13360658Y-17612936D02*
X13351134Y-17622460D01*
X13351134Y-17622460D02*
X13332086Y-17631984D01*
X13332086Y-17631984D02*
X13313039Y-17631984D01*
X13313039Y-17631984D02*
X13293991Y-17622460D01*
X13293991Y-17622460D02*
X13284467Y-17612936D01*
X13284467Y-17612936D02*
X13274943Y-17593889D01*
X13274943Y-17593889D02*
X13265420Y-17555793D01*
X13265420Y-17555793D02*
X13265420Y-17508174D01*
X13265420Y-17508174D02*
X13274943Y-17470079D01*
X13274943Y-17470079D02*
X13284467Y-17451031D01*
X13284467Y-17451031D02*
X13293991Y-17441508D01*
X13293991Y-17441508D02*
X13313039Y-17431984D01*
X13465420Y-17631984D02*
X13465420Y-17498650D01*
X13465420Y-17517698D02*
X13474943Y-17508174D01*
X13474943Y-17508174D02*
X13493991Y-17498650D01*
X13493991Y-17498650D02*
X13522563Y-17498650D01*
X13522563Y-17498650D02*
X13541610Y-17508174D01*
X13541610Y-17508174D02*
X13551134Y-17527222D01*
X13551134Y-17527222D02*
X13551134Y-17631984D01*
X13551134Y-17527222D02*
X13560658Y-17508174D01*
X13560658Y-17508174D02*
X13579705Y-17498650D01*
X13579705Y-17498650D02*
X13608277Y-17498650D01*
X13608277Y-17498650D02*
X13627324Y-17508174D01*
X13627324Y-17508174D02*
X13636848Y-17527222D01*
X13636848Y-17527222D02*
X13636848Y-17631984D01*
X13732086Y-17631984D02*
X13732086Y-17498650D01*
X13732086Y-17517698D02*
X13741610Y-17508174D01*
X13741610Y-17508174D02*
X13760658Y-17498650D01*
X13760658Y-17498650D02*
X13789229Y-17498650D01*
X13789229Y-17498650D02*
X13808277Y-17508174D01*
X13808277Y-17508174D02*
X13817801Y-17527222D01*
X13817801Y-17527222D02*
X13817801Y-17631984D01*
X13817801Y-17527222D02*
X13827324Y-17508174D01*
X13827324Y-17508174D02*
X13846372Y-17498650D01*
X13846372Y-17498650D02*
X13874943Y-17498650D01*
X13874943Y-17498650D02*
X13893991Y-17508174D01*
X13893991Y-17508174D02*
X13903515Y-17527222D01*
X13903515Y-17527222D02*
X13903515Y-17631984D01*
X14293991Y-17422460D02*
X14122563Y-17679603D01*
X14551134Y-17431984D02*
X14570182Y-17431984D01*
X14570182Y-17431984D02*
X14589229Y-17441508D01*
X14589229Y-17441508D02*
X14598753Y-17451031D01*
X14598753Y-17451031D02*
X14608277Y-17470079D01*
X14608277Y-17470079D02*
X14617801Y-17508174D01*
X14617801Y-17508174D02*
X14617801Y-17555793D01*
X14617801Y-17555793D02*
X14608277Y-17593889D01*
X14608277Y-17593889D02*
X14598753Y-17612936D01*
X14598753Y-17612936D02*
X14589229Y-17622460D01*
X14589229Y-17622460D02*
X14570182Y-17631984D01*
X14570182Y-17631984D02*
X14551134Y-17631984D01*
X14551134Y-17631984D02*
X14532086Y-17622460D01*
X14532086Y-17622460D02*
X14522563Y-17612936D01*
X14522563Y-17612936D02*
X14513039Y-17593889D01*
X14513039Y-17593889D02*
X14503515Y-17555793D01*
X14503515Y-17555793D02*
X14503515Y-17508174D01*
X14503515Y-17508174D02*
X14513039Y-17470079D01*
X14513039Y-17470079D02*
X14522563Y-17451031D01*
X14522563Y-17451031D02*
X14532086Y-17441508D01*
X14532086Y-17441508D02*
X14551134Y-17431984D01*
X14703515Y-17612936D02*
X14713039Y-17622460D01*
X14713039Y-17622460D02*
X14703515Y-17631984D01*
X14703515Y-17631984D02*
X14693991Y-17622460D01*
X14693991Y-17622460D02*
X14703515Y-17612936D01*
X14703515Y-17612936D02*
X14703515Y-17631984D01*
X14836848Y-17431984D02*
X14855896Y-17431984D01*
X14855896Y-17431984D02*
X14874944Y-17441508D01*
X14874944Y-17441508D02*
X14884467Y-17451031D01*
X14884467Y-17451031D02*
X14893991Y-17470079D01*
X14893991Y-17470079D02*
X14903515Y-17508174D01*
X14903515Y-17508174D02*
X14903515Y-17555793D01*
X14903515Y-17555793D02*
X14893991Y-17593889D01*
X14893991Y-17593889D02*
X14884467Y-17612936D01*
X14884467Y-17612936D02*
X14874944Y-17622460D01*
X14874944Y-17622460D02*
X14855896Y-17631984D01*
X14855896Y-17631984D02*
X14836848Y-17631984D01*
X14836848Y-17631984D02*
X14817801Y-17622460D01*
X14817801Y-17622460D02*
X14808277Y-17612936D01*
X14808277Y-17612936D02*
X14798753Y-17593889D01*
X14798753Y-17593889D02*
X14789229Y-17555793D01*
X14789229Y-17555793D02*
X14789229Y-17508174D01*
X14789229Y-17508174D02*
X14798753Y-17470079D01*
X14798753Y-17470079D02*
X14808277Y-17451031D01*
X14808277Y-17451031D02*
X14817801Y-17441508D01*
X14817801Y-17441508D02*
X14836848Y-17431984D01*
X15074944Y-17498650D02*
X15074944Y-17631984D01*
X15027325Y-17422460D02*
X14979706Y-17565317D01*
X14979706Y-17565317D02*
X15103515Y-17565317D01*
X15160658Y-17431984D02*
X15284467Y-17431984D01*
X15284467Y-17431984D02*
X15217801Y-17508174D01*
X15217801Y-17508174D02*
X15246372Y-17508174D01*
X15246372Y-17508174D02*
X15265420Y-17517698D01*
X15265420Y-17517698D02*
X15274944Y-17527222D01*
X15274944Y-17527222D02*
X15284467Y-17546270D01*
X15284467Y-17546270D02*
X15284467Y-17593889D01*
X15284467Y-17593889D02*
X15274944Y-17612936D01*
X15274944Y-17612936D02*
X15265420Y-17622460D01*
X15265420Y-17622460D02*
X15246372Y-17631984D01*
X15246372Y-17631984D02*
X15189229Y-17631984D01*
X15189229Y-17631984D02*
X15170182Y-17622460D01*
X15170182Y-17622460D02*
X15160658Y-17612936D01*
X15351134Y-17431984D02*
X15474944Y-17431984D01*
X15474944Y-17431984D02*
X15408277Y-17508174D01*
X15408277Y-17508174D02*
X15436848Y-17508174D01*
X15436848Y-17508174D02*
X15455896Y-17517698D01*
X15455896Y-17517698D02*
X15465420Y-17527222D01*
X15465420Y-17527222D02*
X15474944Y-17546270D01*
X15474944Y-17546270D02*
X15474944Y-17593889D01*
X15474944Y-17593889D02*
X15465420Y-17612936D01*
X15465420Y-17612936D02*
X15455896Y-17622460D01*
X15455896Y-17622460D02*
X15436848Y-17631984D01*
X15436848Y-17631984D02*
X15379706Y-17631984D01*
X15379706Y-17631984D02*
X15360658Y-17622460D01*
X15360658Y-17622460D02*
X15351134Y-17612936D01*
X15551134Y-17431984D02*
X15551134Y-17470079D01*
X15627325Y-17431984D02*
X15627325Y-17470079D01*
X15922563Y-17708174D02*
X15913039Y-17698650D01*
X15913039Y-17698650D02*
X15893991Y-17670079D01*
X15893991Y-17670079D02*
X15884468Y-17651031D01*
X15884468Y-17651031D02*
X15874944Y-17622460D01*
X15874944Y-17622460D02*
X15865420Y-17574841D01*
X15865420Y-17574841D02*
X15865420Y-17536746D01*
X15865420Y-17536746D02*
X15874944Y-17489127D01*
X15874944Y-17489127D02*
X15884468Y-17460555D01*
X15884468Y-17460555D02*
X15893991Y-17441508D01*
X15893991Y-17441508D02*
X15913039Y-17412936D01*
X15913039Y-17412936D02*
X15922563Y-17403412D01*
X16027325Y-17517698D02*
X16008277Y-17508174D01*
X16008277Y-17508174D02*
X15998753Y-17498650D01*
X15998753Y-17498650D02*
X15989229Y-17479603D01*
X15989229Y-17479603D02*
X15989229Y-17470079D01*
X15989229Y-17470079D02*
X15998753Y-17451031D01*
X15998753Y-17451031D02*
X16008277Y-17441508D01*
X16008277Y-17441508D02*
X16027325Y-17431984D01*
X16027325Y-17431984D02*
X16065420Y-17431984D01*
X16065420Y-17431984D02*
X16084468Y-17441508D01*
X16084468Y-17441508D02*
X16093991Y-17451031D01*
X16093991Y-17451031D02*
X16103515Y-17470079D01*
X16103515Y-17470079D02*
X16103515Y-17479603D01*
X16103515Y-17479603D02*
X16093991Y-17498650D01*
X16093991Y-17498650D02*
X16084468Y-17508174D01*
X16084468Y-17508174D02*
X16065420Y-17517698D01*
X16065420Y-17517698D02*
X16027325Y-17517698D01*
X16027325Y-17517698D02*
X16008277Y-17527222D01*
X16008277Y-17527222D02*
X15998753Y-17536746D01*
X15998753Y-17536746D02*
X15989229Y-17555793D01*
X15989229Y-17555793D02*
X15989229Y-17593889D01*
X15989229Y-17593889D02*
X15998753Y-17612936D01*
X15998753Y-17612936D02*
X16008277Y-17622460D01*
X16008277Y-17622460D02*
X16027325Y-17631984D01*
X16027325Y-17631984D02*
X16065420Y-17631984D01*
X16065420Y-17631984D02*
X16084468Y-17622460D01*
X16084468Y-17622460D02*
X16093991Y-17612936D01*
X16093991Y-17612936D02*
X16103515Y-17593889D01*
X16103515Y-17593889D02*
X16103515Y-17555793D01*
X16103515Y-17555793D02*
X16093991Y-17536746D01*
X16093991Y-17536746D02*
X16084468Y-17527222D01*
X16084468Y-17527222D02*
X16065420Y-17517698D01*
X16341610Y-17631984D02*
X16341610Y-17431984D01*
X16427325Y-17631984D02*
X16427325Y-17527222D01*
X16427325Y-17527222D02*
X16417801Y-17508174D01*
X16417801Y-17508174D02*
X16398753Y-17498650D01*
X16398753Y-17498650D02*
X16370182Y-17498650D01*
X16370182Y-17498650D02*
X16351134Y-17508174D01*
X16351134Y-17508174D02*
X16341610Y-17517698D01*
X16551134Y-17631984D02*
X16532087Y-17622460D01*
X16532087Y-17622460D02*
X16522563Y-17612936D01*
X16522563Y-17612936D02*
X16513039Y-17593889D01*
X16513039Y-17593889D02*
X16513039Y-17536746D01*
X16513039Y-17536746D02*
X16522563Y-17517698D01*
X16522563Y-17517698D02*
X16532087Y-17508174D01*
X16532087Y-17508174D02*
X16551134Y-17498650D01*
X16551134Y-17498650D02*
X16579706Y-17498650D01*
X16579706Y-17498650D02*
X16598753Y-17508174D01*
X16598753Y-17508174D02*
X16608277Y-17517698D01*
X16608277Y-17517698D02*
X16617801Y-17536746D01*
X16617801Y-17536746D02*
X16617801Y-17593889D01*
X16617801Y-17593889D02*
X16608277Y-17612936D01*
X16608277Y-17612936D02*
X16598753Y-17622460D01*
X16598753Y-17622460D02*
X16579706Y-17631984D01*
X16579706Y-17631984D02*
X16551134Y-17631984D01*
X16732087Y-17631984D02*
X16713039Y-17622460D01*
X16713039Y-17622460D02*
X16703515Y-17603412D01*
X16703515Y-17603412D02*
X16703515Y-17431984D01*
X16884468Y-17622460D02*
X16865420Y-17631984D01*
X16865420Y-17631984D02*
X16827325Y-17631984D01*
X16827325Y-17631984D02*
X16808277Y-17622460D01*
X16808277Y-17622460D02*
X16798753Y-17603412D01*
X16798753Y-17603412D02*
X16798753Y-17527222D01*
X16798753Y-17527222D02*
X16808277Y-17508174D01*
X16808277Y-17508174D02*
X16827325Y-17498650D01*
X16827325Y-17498650D02*
X16865420Y-17498650D01*
X16865420Y-17498650D02*
X16884468Y-17508174D01*
X16884468Y-17508174D02*
X16893992Y-17527222D01*
X16893992Y-17527222D02*
X16893992Y-17546270D01*
X16893992Y-17546270D02*
X16798753Y-17565317D01*
X16970182Y-17622460D02*
X16989230Y-17631984D01*
X16989230Y-17631984D02*
X17027325Y-17631984D01*
X17027325Y-17631984D02*
X17046373Y-17622460D01*
X17046373Y-17622460D02*
X17055896Y-17603412D01*
X17055896Y-17603412D02*
X17055896Y-17593889D01*
X17055896Y-17593889D02*
X17046373Y-17574841D01*
X17046373Y-17574841D02*
X17027325Y-17565317D01*
X17027325Y-17565317D02*
X16998753Y-17565317D01*
X16998753Y-17565317D02*
X16979706Y-17555793D01*
X16979706Y-17555793D02*
X16970182Y-17536746D01*
X16970182Y-17536746D02*
X16970182Y-17527222D01*
X16970182Y-17527222D02*
X16979706Y-17508174D01*
X16979706Y-17508174D02*
X16998753Y-17498650D01*
X16998753Y-17498650D02*
X17027325Y-17498650D01*
X17027325Y-17498650D02*
X17046373Y-17508174D01*
X17122563Y-17708174D02*
X17132087Y-17698650D01*
X17132087Y-17698650D02*
X17151134Y-17670079D01*
X17151134Y-17670079D02*
X17160658Y-17651031D01*
X17160658Y-17651031D02*
X17170182Y-17622460D01*
X17170182Y-17622460D02*
X17179706Y-17574841D01*
X17179706Y-17574841D02*
X17179706Y-17536746D01*
X17179706Y-17536746D02*
X17170182Y-17489127D01*
X17170182Y-17489127D02*
X17160658Y-17460555D01*
X17160658Y-17460555D02*
X17151134Y-17441508D01*
X17151134Y-17441508D02*
X17132087Y-17412936D01*
X17132087Y-17412936D02*
X17122563Y-17403412D01*
D14*
X12217500Y-17739500D02*
X12347500Y-17869500D01*
X12347500Y-17739500D02*
X12217500Y-17869500D01*
X12282500Y-17869500D02*
X12347500Y-17804500D01*
X12282500Y-17739500D01*
X12217500Y-17804500D01*
X12282500Y-17869500D01*
D11*
X12713039Y-17895984D02*
X12598753Y-17895984D01*
X12655896Y-17895984D02*
X12655896Y-17695984D01*
X12655896Y-17695984D02*
X12636848Y-17724555D01*
X12636848Y-17724555D02*
X12617801Y-17743603D01*
X12617801Y-17743603D02*
X12598753Y-17753127D01*
X12798753Y-17876936D02*
X12808277Y-17886460D01*
X12808277Y-17886460D02*
X12798753Y-17895984D01*
X12798753Y-17895984D02*
X12789229Y-17886460D01*
X12789229Y-17886460D02*
X12798753Y-17876936D01*
X12798753Y-17876936D02*
X12798753Y-17895984D01*
X12874943Y-17695984D02*
X12998753Y-17695984D01*
X12998753Y-17695984D02*
X12932086Y-17772174D01*
X12932086Y-17772174D02*
X12960658Y-17772174D01*
X12960658Y-17772174D02*
X12979705Y-17781698D01*
X12979705Y-17781698D02*
X12989229Y-17791222D01*
X12989229Y-17791222D02*
X12998753Y-17810270D01*
X12998753Y-17810270D02*
X12998753Y-17857889D01*
X12998753Y-17857889D02*
X12989229Y-17876936D01*
X12989229Y-17876936D02*
X12979705Y-17886460D01*
X12979705Y-17886460D02*
X12960658Y-17895984D01*
X12960658Y-17895984D02*
X12903515Y-17895984D01*
X12903515Y-17895984D02*
X12884467Y-17886460D01*
X12884467Y-17886460D02*
X12874943Y-17876936D01*
X13122562Y-17695984D02*
X13141610Y-17695984D01*
X13141610Y-17695984D02*
X13160658Y-17705508D01*
X13160658Y-17705508D02*
X13170182Y-17715031D01*
X13170182Y-17715031D02*
X13179705Y-17734079D01*
X13179705Y-17734079D02*
X13189229Y-17772174D01*
X13189229Y-17772174D02*
X13189229Y-17819793D01*
X13189229Y-17819793D02*
X13179705Y-17857889D01*
X13179705Y-17857889D02*
X13170182Y-17876936D01*
X13170182Y-17876936D02*
X13160658Y-17886460D01*
X13160658Y-17886460D02*
X13141610Y-17895984D01*
X13141610Y-17895984D02*
X13122562Y-17895984D01*
X13122562Y-17895984D02*
X13103515Y-17886460D01*
X13103515Y-17886460D02*
X13093991Y-17876936D01*
X13093991Y-17876936D02*
X13084467Y-17857889D01*
X13084467Y-17857889D02*
X13074943Y-17819793D01*
X13074943Y-17819793D02*
X13074943Y-17772174D01*
X13074943Y-17772174D02*
X13084467Y-17734079D01*
X13084467Y-17734079D02*
X13093991Y-17715031D01*
X13093991Y-17715031D02*
X13103515Y-17705508D01*
X13103515Y-17705508D02*
X13122562Y-17695984D01*
X13313039Y-17695984D02*
X13332086Y-17695984D01*
X13332086Y-17695984D02*
X13351134Y-17705508D01*
X13351134Y-17705508D02*
X13360658Y-17715031D01*
X13360658Y-17715031D02*
X13370182Y-17734079D01*
X13370182Y-17734079D02*
X13379705Y-17772174D01*
X13379705Y-17772174D02*
X13379705Y-17819793D01*
X13379705Y-17819793D02*
X13370182Y-17857889D01*
X13370182Y-17857889D02*
X13360658Y-17876936D01*
X13360658Y-17876936D02*
X13351134Y-17886460D01*
X13351134Y-17886460D02*
X13332086Y-17895984D01*
X13332086Y-17895984D02*
X13313039Y-17895984D01*
X13313039Y-17895984D02*
X13293991Y-17886460D01*
X13293991Y-17886460D02*
X13284467Y-17876936D01*
X13284467Y-17876936D02*
X13274943Y-17857889D01*
X13274943Y-17857889D02*
X13265420Y-17819793D01*
X13265420Y-17819793D02*
X13265420Y-17772174D01*
X13265420Y-17772174D02*
X13274943Y-17734079D01*
X13274943Y-17734079D02*
X13284467Y-17715031D01*
X13284467Y-17715031D02*
X13293991Y-17705508D01*
X13293991Y-17705508D02*
X13313039Y-17695984D01*
X13465420Y-17895984D02*
X13465420Y-17762650D01*
X13465420Y-17781698D02*
X13474943Y-17772174D01*
X13474943Y-17772174D02*
X13493991Y-17762650D01*
X13493991Y-17762650D02*
X13522563Y-17762650D01*
X13522563Y-17762650D02*
X13541610Y-17772174D01*
X13541610Y-17772174D02*
X13551134Y-17791222D01*
X13551134Y-17791222D02*
X13551134Y-17895984D01*
X13551134Y-17791222D02*
X13560658Y-17772174D01*
X13560658Y-17772174D02*
X13579705Y-17762650D01*
X13579705Y-17762650D02*
X13608277Y-17762650D01*
X13608277Y-17762650D02*
X13627324Y-17772174D01*
X13627324Y-17772174D02*
X13636848Y-17791222D01*
X13636848Y-17791222D02*
X13636848Y-17895984D01*
X13732086Y-17895984D02*
X13732086Y-17762650D01*
X13732086Y-17781698D02*
X13741610Y-17772174D01*
X13741610Y-17772174D02*
X13760658Y-17762650D01*
X13760658Y-17762650D02*
X13789229Y-17762650D01*
X13789229Y-17762650D02*
X13808277Y-17772174D01*
X13808277Y-17772174D02*
X13817801Y-17791222D01*
X13817801Y-17791222D02*
X13817801Y-17895984D01*
X13817801Y-17791222D02*
X13827324Y-17772174D01*
X13827324Y-17772174D02*
X13846372Y-17762650D01*
X13846372Y-17762650D02*
X13874943Y-17762650D01*
X13874943Y-17762650D02*
X13893991Y-17772174D01*
X13893991Y-17772174D02*
X13903515Y-17791222D01*
X13903515Y-17791222D02*
X13903515Y-17895984D01*
X14293991Y-17686460D02*
X14122563Y-17943603D01*
X14551134Y-17695984D02*
X14570182Y-17695984D01*
X14570182Y-17695984D02*
X14589229Y-17705508D01*
X14589229Y-17705508D02*
X14598753Y-17715031D01*
X14598753Y-17715031D02*
X14608277Y-17734079D01*
X14608277Y-17734079D02*
X14617801Y-17772174D01*
X14617801Y-17772174D02*
X14617801Y-17819793D01*
X14617801Y-17819793D02*
X14608277Y-17857889D01*
X14608277Y-17857889D02*
X14598753Y-17876936D01*
X14598753Y-17876936D02*
X14589229Y-17886460D01*
X14589229Y-17886460D02*
X14570182Y-17895984D01*
X14570182Y-17895984D02*
X14551134Y-17895984D01*
X14551134Y-17895984D02*
X14532086Y-17886460D01*
X14532086Y-17886460D02*
X14522563Y-17876936D01*
X14522563Y-17876936D02*
X14513039Y-17857889D01*
X14513039Y-17857889D02*
X14503515Y-17819793D01*
X14503515Y-17819793D02*
X14503515Y-17772174D01*
X14503515Y-17772174D02*
X14513039Y-17734079D01*
X14513039Y-17734079D02*
X14522563Y-17715031D01*
X14522563Y-17715031D02*
X14532086Y-17705508D01*
X14532086Y-17705508D02*
X14551134Y-17695984D01*
X14703515Y-17876936D02*
X14713039Y-17886460D01*
X14713039Y-17886460D02*
X14703515Y-17895984D01*
X14703515Y-17895984D02*
X14693991Y-17886460D01*
X14693991Y-17886460D02*
X14703515Y-17876936D01*
X14703515Y-17876936D02*
X14703515Y-17895984D01*
X14836848Y-17695984D02*
X14855896Y-17695984D01*
X14855896Y-17695984D02*
X14874944Y-17705508D01*
X14874944Y-17705508D02*
X14884467Y-17715031D01*
X14884467Y-17715031D02*
X14893991Y-17734079D01*
X14893991Y-17734079D02*
X14903515Y-17772174D01*
X14903515Y-17772174D02*
X14903515Y-17819793D01*
X14903515Y-17819793D02*
X14893991Y-17857889D01*
X14893991Y-17857889D02*
X14884467Y-17876936D01*
X14884467Y-17876936D02*
X14874944Y-17886460D01*
X14874944Y-17886460D02*
X14855896Y-17895984D01*
X14855896Y-17895984D02*
X14836848Y-17895984D01*
X14836848Y-17895984D02*
X14817801Y-17886460D01*
X14817801Y-17886460D02*
X14808277Y-17876936D01*
X14808277Y-17876936D02*
X14798753Y-17857889D01*
X14798753Y-17857889D02*
X14789229Y-17819793D01*
X14789229Y-17819793D02*
X14789229Y-17772174D01*
X14789229Y-17772174D02*
X14798753Y-17734079D01*
X14798753Y-17734079D02*
X14808277Y-17715031D01*
X14808277Y-17715031D02*
X14817801Y-17705508D01*
X14817801Y-17705508D02*
X14836848Y-17695984D01*
X15084467Y-17695984D02*
X14989229Y-17695984D01*
X14989229Y-17695984D02*
X14979706Y-17791222D01*
X14979706Y-17791222D02*
X14989229Y-17781698D01*
X14989229Y-17781698D02*
X15008277Y-17772174D01*
X15008277Y-17772174D02*
X15055896Y-17772174D01*
X15055896Y-17772174D02*
X15074944Y-17781698D01*
X15074944Y-17781698D02*
X15084467Y-17791222D01*
X15084467Y-17791222D02*
X15093991Y-17810270D01*
X15093991Y-17810270D02*
X15093991Y-17857889D01*
X15093991Y-17857889D02*
X15084467Y-17876936D01*
X15084467Y-17876936D02*
X15074944Y-17886460D01*
X15074944Y-17886460D02*
X15055896Y-17895984D01*
X15055896Y-17895984D02*
X15008277Y-17895984D01*
X15008277Y-17895984D02*
X14989229Y-17886460D01*
X14989229Y-17886460D02*
X14979706Y-17876936D01*
X15284467Y-17895984D02*
X15170182Y-17895984D01*
X15227325Y-17895984D02*
X15227325Y-17695984D01*
X15227325Y-17695984D02*
X15208277Y-17724555D01*
X15208277Y-17724555D02*
X15189229Y-17743603D01*
X15189229Y-17743603D02*
X15170182Y-17753127D01*
X15360658Y-17715031D02*
X15370182Y-17705508D01*
X15370182Y-17705508D02*
X15389229Y-17695984D01*
X15389229Y-17695984D02*
X15436848Y-17695984D01*
X15436848Y-17695984D02*
X15455896Y-17705508D01*
X15455896Y-17705508D02*
X15465420Y-17715031D01*
X15465420Y-17715031D02*
X15474944Y-17734079D01*
X15474944Y-17734079D02*
X15474944Y-17753127D01*
X15474944Y-17753127D02*
X15465420Y-17781698D01*
X15465420Y-17781698D02*
X15351134Y-17895984D01*
X15351134Y-17895984D02*
X15474944Y-17895984D01*
X15551134Y-17695984D02*
X15551134Y-17734079D01*
X15627325Y-17695984D02*
X15627325Y-17734079D01*
X15922563Y-17972174D02*
X15913039Y-17962650D01*
X15913039Y-17962650D02*
X15893991Y-17934079D01*
X15893991Y-17934079D02*
X15884468Y-17915031D01*
X15884468Y-17915031D02*
X15874944Y-17886460D01*
X15874944Y-17886460D02*
X15865420Y-17838841D01*
X15865420Y-17838841D02*
X15865420Y-17800746D01*
X15865420Y-17800746D02*
X15874944Y-17753127D01*
X15874944Y-17753127D02*
X15884468Y-17724555D01*
X15884468Y-17724555D02*
X15893991Y-17705508D01*
X15893991Y-17705508D02*
X15913039Y-17676936D01*
X15913039Y-17676936D02*
X15922563Y-17667412D01*
X16084468Y-17695984D02*
X16046372Y-17695984D01*
X16046372Y-17695984D02*
X16027325Y-17705508D01*
X16027325Y-17705508D02*
X16017801Y-17715031D01*
X16017801Y-17715031D02*
X15998753Y-17743603D01*
X15998753Y-17743603D02*
X15989229Y-17781698D01*
X15989229Y-17781698D02*
X15989229Y-17857889D01*
X15989229Y-17857889D02*
X15998753Y-17876936D01*
X15998753Y-17876936D02*
X16008277Y-17886460D01*
X16008277Y-17886460D02*
X16027325Y-17895984D01*
X16027325Y-17895984D02*
X16065420Y-17895984D01*
X16065420Y-17895984D02*
X16084468Y-17886460D01*
X16084468Y-17886460D02*
X16093991Y-17876936D01*
X16093991Y-17876936D02*
X16103515Y-17857889D01*
X16103515Y-17857889D02*
X16103515Y-17810270D01*
X16103515Y-17810270D02*
X16093991Y-17791222D01*
X16093991Y-17791222D02*
X16084468Y-17781698D01*
X16084468Y-17781698D02*
X16065420Y-17772174D01*
X16065420Y-17772174D02*
X16027325Y-17772174D01*
X16027325Y-17772174D02*
X16008277Y-17781698D01*
X16008277Y-17781698D02*
X15998753Y-17791222D01*
X15998753Y-17791222D02*
X15989229Y-17810270D01*
X16341610Y-17895984D02*
X16341610Y-17695984D01*
X16427325Y-17895984D02*
X16427325Y-17791222D01*
X16427325Y-17791222D02*
X16417801Y-17772174D01*
X16417801Y-17772174D02*
X16398753Y-17762650D01*
X16398753Y-17762650D02*
X16370182Y-17762650D01*
X16370182Y-17762650D02*
X16351134Y-17772174D01*
X16351134Y-17772174D02*
X16341610Y-17781698D01*
X16551134Y-17895984D02*
X16532087Y-17886460D01*
X16532087Y-17886460D02*
X16522563Y-17876936D01*
X16522563Y-17876936D02*
X16513039Y-17857889D01*
X16513039Y-17857889D02*
X16513039Y-17800746D01*
X16513039Y-17800746D02*
X16522563Y-17781698D01*
X16522563Y-17781698D02*
X16532087Y-17772174D01*
X16532087Y-17772174D02*
X16551134Y-17762650D01*
X16551134Y-17762650D02*
X16579706Y-17762650D01*
X16579706Y-17762650D02*
X16598753Y-17772174D01*
X16598753Y-17772174D02*
X16608277Y-17781698D01*
X16608277Y-17781698D02*
X16617801Y-17800746D01*
X16617801Y-17800746D02*
X16617801Y-17857889D01*
X16617801Y-17857889D02*
X16608277Y-17876936D01*
X16608277Y-17876936D02*
X16598753Y-17886460D01*
X16598753Y-17886460D02*
X16579706Y-17895984D01*
X16579706Y-17895984D02*
X16551134Y-17895984D01*
X16732087Y-17895984D02*
X16713039Y-17886460D01*
X16713039Y-17886460D02*
X16703515Y-17867412D01*
X16703515Y-17867412D02*
X16703515Y-17695984D01*
X16884468Y-17886460D02*
X16865420Y-17895984D01*
X16865420Y-17895984D02*
X16827325Y-17895984D01*
X16827325Y-17895984D02*
X16808277Y-17886460D01*
X16808277Y-17886460D02*
X16798753Y-17867412D01*
X16798753Y-17867412D02*
X16798753Y-17791222D01*
X16798753Y-17791222D02*
X16808277Y-17772174D01*
X16808277Y-17772174D02*
X16827325Y-17762650D01*
X16827325Y-17762650D02*
X16865420Y-17762650D01*
X16865420Y-17762650D02*
X16884468Y-17772174D01*
X16884468Y-17772174D02*
X16893992Y-17791222D01*
X16893992Y-17791222D02*
X16893992Y-17810270D01*
X16893992Y-17810270D02*
X16798753Y-17829317D01*
X16970182Y-17886460D02*
X16989230Y-17895984D01*
X16989230Y-17895984D02*
X17027325Y-17895984D01*
X17027325Y-17895984D02*
X17046373Y-17886460D01*
X17046373Y-17886460D02*
X17055896Y-17867412D01*
X17055896Y-17867412D02*
X17055896Y-17857889D01*
X17055896Y-17857889D02*
X17046373Y-17838841D01*
X17046373Y-17838841D02*
X17027325Y-17829317D01*
X17027325Y-17829317D02*
X16998753Y-17829317D01*
X16998753Y-17829317D02*
X16979706Y-17819793D01*
X16979706Y-17819793D02*
X16970182Y-17800746D01*
X16970182Y-17800746D02*
X16970182Y-17791222D01*
X16970182Y-17791222D02*
X16979706Y-17772174D01*
X16979706Y-17772174D02*
X16998753Y-17762650D01*
X16998753Y-17762650D02*
X17027325Y-17762650D01*
X17027325Y-17762650D02*
X17046373Y-17772174D01*
X17122563Y-17972174D02*
X17132087Y-17962650D01*
X17132087Y-17962650D02*
X17151134Y-17934079D01*
X17151134Y-17934079D02*
X17160658Y-17915031D01*
X17160658Y-17915031D02*
X17170182Y-17886460D01*
X17170182Y-17886460D02*
X17179706Y-17838841D01*
X17179706Y-17838841D02*
X17179706Y-17800746D01*
X17179706Y-17800746D02*
X17170182Y-17753127D01*
X17170182Y-17753127D02*
X17160658Y-17724555D01*
X17160658Y-17724555D02*
X17151134Y-17705508D01*
X17151134Y-17705508D02*
X17132087Y-17676936D01*
X17132087Y-17676936D02*
X17122563Y-17667412D01*
M02*
