M48
; DRILL file {KiCad 9.0.4} date 2026-03-16T21:29:59+0100
; FORMAT={-:-/ absolute / metric / decimal}
; #@! TF.CreationDate,2026-03-16T21:29:59+01:00
; #@! TF.GenerationSoftware,Kicad,Pcbnew,9.0.4
; #@! TF.FileFunction,Plated,1,2,PTH
FMAT,2
METRIC
; #@! TA.AperFunction,Plated,PTH,ComponentDrill
T1C0.700
; #@! TA.AperFunction,Plated,PTH,ViaDrill
T2C0.800
; #@! TA.AperFunction,Plated,PTH,ComponentDrill
T3C0.800
; #@! TA.AperFunction,Plated,PTH,ComponentDrill
T4C0.900
; #@! TA.AperFunction,Plated,PTH,ComponentDrill
T5C1.000
%
G90
G05
T1
X84.25Y-65.25
X86.81Y-65.25
X96.44Y-65.484
X99.0Y-65.484
X107.94Y-65.5
X110.5Y-65.5
T2
X77.25Y-96.25
X78.5Y-71.25
T3
X71.5Y-52.5
X74.0Y-96.25
X82.17Y-104.88
X82.17Y-112.5
X84.2Y-52.5
X84.71Y-104.88
X84.71Y-112.5
X85.13Y-35.75
X85.13Y-43.37
X86.7Y-96.25
X87.25Y-104.88
X87.25Y-112.5
X87.55Y-31.25
X87.67Y-35.75
X87.67Y-43.37
X89.79Y-104.88
X89.79Y-112.5
X90.21Y-35.75
X90.21Y-43.37
X92.75Y-35.75
X92.75Y-43.37
X98.75Y-95.8
X98.75Y-108.5
X100.25Y-31.25
X101.0Y-35.75
X101.0Y-48.45
X104.75Y-95.8
X104.75Y-108.5
T4
X84.235Y-92.25
X86.775Y-92.25
X96.235Y-92.255
X98.775Y-92.255
X108.235Y-92.255
X110.775Y-92.255
T5
X63.75Y-58.5
X63.75Y-61.04
X63.75Y-63.58
X63.75Y-66.12
X63.75Y-68.66
X63.75Y-71.2
X63.75Y-73.74
X63.75Y-76.28
X63.75Y-78.82
X63.75Y-81.36
X66.29Y-58.5
X66.29Y-61.04
X66.29Y-63.58
X66.29Y-66.12
X66.29Y-68.66
X66.29Y-71.2
X66.29Y-73.74
X66.29Y-76.28
X66.29Y-78.82
X66.29Y-81.36
M30
