%TF.GenerationSoftware,KiCad,Pcbnew,9.0.4*%
%TF.CreationDate,2026-03-16T21:29:57+01:00*%
%TF.ProjectId,phd_slave,7068645f-736c-4617-9665-2e6b69636164,rev?*%
%TF.SameCoordinates,Original*%
%TF.FileFunction,Copper,L2,Bot*%
%TF.FilePolarity,Positive*%
%FSLAX46Y46*%
G04 Gerber Fmt 4.6, Leading zero omitted, Abs format (unit mm)*
G04 Created by KiCad (PCBNEW 9.0.4) date 2026-03-16 21:29:57*
%MOMM*%
%LPD*%
G01*
G04 APERTURE LIST*
G04 Aperture macros list*
%AMRoundRect*
0 Rectangle with rounded corners*
0 $1 Rounding radius*
0 $2 $3 $4 $5 $6 $7 $8 $9 X,Y pos of 4 corners*
0 Add a 4 corners polygon primitive as box body*
4,1,4,$2,$3,$4,$5,$6,$7,$8,$9,$2,$3,0*
0 Add four circle primitives for the rounded corners*
1,1,$1+$1,$2,$3*
1,1,$1+$1,$4,$5*
1,1,$1+$1,$6,$7*
1,1,$1+$1,$8,$9*
0 Add four rect primitives between the rounded corners*
20,1,$1+$1,$2,$3,$4,$5,0*
20,1,$1+$1,$4,$5,$6,$7,0*
20,1,$1+$1,$6,$7,$8,$9,0*
20,1,$1+$1,$8,$9,$2,$3,0*%
G04 Aperture macros list end*
%ADD10C,0.200000*%
%TA.AperFunction,NonConductor*%
%ADD11C,0.200000*%
%TD*%
%TA.AperFunction,ComponentPad*%
%ADD12RoundRect,0.249200X0.450800X0.450800X-0.450800X0.450800X-0.450800X-0.450800X0.450800X-0.450800X0*%
%TD*%
%TA.AperFunction,ComponentPad*%
%ADD13C,1.400000*%
%TD*%
%TA.AperFunction,ComponentPad*%
%ADD14C,1.600000*%
%TD*%
%TA.AperFunction,ComponentPad*%
%ADD15R,1.800000X1.800000*%
%TD*%
%TA.AperFunction,ComponentPad*%
%ADD16C,1.800000*%
%TD*%
%TA.AperFunction,ComponentPad*%
%ADD17RoundRect,0.250000X0.550000X-0.950000X0.550000X0.950000X-0.550000X0.950000X-0.550000X-0.950000X0*%
%TD*%
%TA.AperFunction,ComponentPad*%
%ADD18O,1.600000X2.400000*%
%TD*%
%TA.AperFunction,ComponentPad*%
%ADD19RoundRect,0.250000X-0.550000X0.950000X-0.550000X-0.950000X0.550000X-0.950000X0.550000X0.950000X0*%
%TD*%
%TA.AperFunction,ComponentPad*%
%ADD20R,1.700000X1.700000*%
%TD*%
%TA.AperFunction,ComponentPad*%
%ADD21C,1.700000*%
%TD*%
%TA.AperFunction,ViaPad*%
%ADD22C,1.500000*%
%TD*%
%TA.AperFunction,Conductor*%
%ADD23C,0.800000*%
%TD*%
G04 APERTURE END LIST*
D10*
D11*
X74392857Y-25397247D02*
X74869047Y-25397247D01*
X74869047Y-25397247D02*
X74869047Y-24397247D01*
X74059523Y-24873437D02*
X73726190Y-24873437D01*
X73583333Y-25397247D02*
X74059523Y-25397247D01*
X74059523Y-25397247D02*
X74059523Y-24397247D01*
X74059523Y-24397247D02*
X73583333Y-24397247D01*
X73154761Y-24730580D02*
X73154761Y-25397247D01*
X73154761Y-24825818D02*
X73107142Y-24778199D01*
X73107142Y-24778199D02*
X73011904Y-24730580D01*
X73011904Y-24730580D02*
X72869047Y-24730580D01*
X72869047Y-24730580D02*
X72773809Y-24778199D01*
X72773809Y-24778199D02*
X72726190Y-24873437D01*
X72726190Y-24873437D02*
X72726190Y-25397247D01*
X72297618Y-25349628D02*
X72202380Y-25397247D01*
X72202380Y-25397247D02*
X72011904Y-25397247D01*
X72011904Y-25397247D02*
X71916666Y-25349628D01*
X71916666Y-25349628D02*
X71869047Y-25254389D01*
X71869047Y-25254389D02*
X71869047Y-25206770D01*
X71869047Y-25206770D02*
X71916666Y-25111532D01*
X71916666Y-25111532D02*
X72011904Y-25063913D01*
X72011904Y-25063913D02*
X72154761Y-25063913D01*
X72154761Y-25063913D02*
X72249999Y-25016294D01*
X72249999Y-25016294D02*
X72297618Y-24921056D01*
X72297618Y-24921056D02*
X72297618Y-24873437D01*
X72297618Y-24873437D02*
X72249999Y-24778199D01*
X72249999Y-24778199D02*
X72154761Y-24730580D01*
X72154761Y-24730580D02*
X72011904Y-24730580D01*
X72011904Y-24730580D02*
X71916666Y-24778199D01*
X71440475Y-24873437D02*
X71107142Y-24873437D01*
X70964285Y-25397247D02*
X71440475Y-25397247D01*
X71440475Y-25397247D02*
X71440475Y-24397247D01*
X71440475Y-24397247D02*
X70964285Y-24397247D01*
X69059523Y-24349628D02*
X69916665Y-25635342D01*
X68011903Y-24492485D02*
X67964284Y-24444866D01*
X67964284Y-24444866D02*
X67869046Y-24397247D01*
X67869046Y-24397247D02*
X67630951Y-24397247D01*
X67630951Y-24397247D02*
X67535713Y-24444866D01*
X67535713Y-24444866D02*
X67488094Y-24492485D01*
X67488094Y-24492485D02*
X67440475Y-24587723D01*
X67440475Y-24587723D02*
X67440475Y-24682961D01*
X67440475Y-24682961D02*
X67488094Y-24825818D01*
X67488094Y-24825818D02*
X68059522Y-25397247D01*
X68059522Y-25397247D02*
X67440475Y-25397247D01*
X66821427Y-24397247D02*
X66726189Y-24397247D01*
X66726189Y-24397247D02*
X66630951Y-24444866D01*
X66630951Y-24444866D02*
X66583332Y-24492485D01*
X66583332Y-24492485D02*
X66535713Y-24587723D01*
X66535713Y-24587723D02*
X66488094Y-24778199D01*
X66488094Y-24778199D02*
X66488094Y-25016294D01*
X66488094Y-25016294D02*
X66535713Y-25206770D01*
X66535713Y-25206770D02*
X66583332Y-25302008D01*
X66583332Y-25302008D02*
X66630951Y-25349628D01*
X66630951Y-25349628D02*
X66726189Y-25397247D01*
X66726189Y-25397247D02*
X66821427Y-25397247D01*
X66821427Y-25397247D02*
X66916665Y-25349628D01*
X66916665Y-25349628D02*
X66964284Y-25302008D01*
X66964284Y-25302008D02*
X67011903Y-25206770D01*
X67011903Y-25206770D02*
X67059522Y-25016294D01*
X67059522Y-25016294D02*
X67059522Y-24778199D01*
X67059522Y-24778199D02*
X67011903Y-24587723D01*
X67011903Y-24587723D02*
X66964284Y-24492485D01*
X66964284Y-24492485D02*
X66916665Y-24444866D01*
X66916665Y-24444866D02*
X66821427Y-24397247D01*
X66107141Y-24492485D02*
X66059522Y-24444866D01*
X66059522Y-24444866D02*
X65964284Y-24397247D01*
X65964284Y-24397247D02*
X65726189Y-24397247D01*
X65726189Y-24397247D02*
X65630951Y-24444866D01*
X65630951Y-24444866D02*
X65583332Y-24492485D01*
X65583332Y-24492485D02*
X65535713Y-24587723D01*
X65535713Y-24587723D02*
X65535713Y-24682961D01*
X65535713Y-24682961D02*
X65583332Y-24825818D01*
X65583332Y-24825818D02*
X66154760Y-25397247D01*
X66154760Y-25397247D02*
X65535713Y-25397247D01*
X64678570Y-24397247D02*
X64869046Y-24397247D01*
X64869046Y-24397247D02*
X64964284Y-24444866D01*
X64964284Y-24444866D02*
X65011903Y-24492485D01*
X65011903Y-24492485D02*
X65107141Y-24635342D01*
X65107141Y-24635342D02*
X65154760Y-24825818D01*
X65154760Y-24825818D02*
X65154760Y-25206770D01*
X65154760Y-25206770D02*
X65107141Y-25302008D01*
X65107141Y-25302008D02*
X65059522Y-25349628D01*
X65059522Y-25349628D02*
X64964284Y-25397247D01*
X64964284Y-25397247D02*
X64773808Y-25397247D01*
X64773808Y-25397247D02*
X64678570Y-25349628D01*
X64678570Y-25349628D02*
X64630951Y-25302008D01*
X64630951Y-25302008D02*
X64583332Y-25206770D01*
X64583332Y-25206770D02*
X64583332Y-24968675D01*
X64583332Y-24968675D02*
X64630951Y-24873437D01*
X64630951Y-24873437D02*
X64678570Y-24825818D01*
X64678570Y-24825818D02*
X64773808Y-24778199D01*
X64773808Y-24778199D02*
X64964284Y-24778199D01*
X64964284Y-24778199D02*
X65059522Y-24825818D01*
X65059522Y-24825818D02*
X65107141Y-24873437D01*
X65107141Y-24873437D02*
X65154760Y-24968675D01*
X80559524Y-26007191D02*
X80369048Y-26007191D01*
X80369048Y-26007191D02*
X80273810Y-26054810D01*
X80273810Y-26054810D02*
X80178572Y-26150048D01*
X80178572Y-26150048D02*
X80130953Y-26340524D01*
X80130953Y-26340524D02*
X80130953Y-26673857D01*
X80130953Y-26673857D02*
X80178572Y-26864333D01*
X80178572Y-26864333D02*
X80273810Y-26959572D01*
X80273810Y-26959572D02*
X80369048Y-27007191D01*
X80369048Y-27007191D02*
X80559524Y-27007191D01*
X80559524Y-27007191D02*
X80654762Y-26959572D01*
X80654762Y-26959572D02*
X80750000Y-26864333D01*
X80750000Y-26864333D02*
X80797619Y-26673857D01*
X80797619Y-26673857D02*
X80797619Y-26340524D01*
X80797619Y-26340524D02*
X80750000Y-26150048D01*
X80750000Y-26150048D02*
X80654762Y-26054810D01*
X80654762Y-26054810D02*
X80559524Y-26007191D01*
X79702381Y-27007191D02*
X79702381Y-26007191D01*
X79702381Y-26007191D02*
X79321429Y-26007191D01*
X79321429Y-26007191D02*
X79226191Y-26054810D01*
X79226191Y-26054810D02*
X79178572Y-26102429D01*
X79178572Y-26102429D02*
X79130953Y-26197667D01*
X79130953Y-26197667D02*
X79130953Y-26340524D01*
X79130953Y-26340524D02*
X79178572Y-26435762D01*
X79178572Y-26435762D02*
X79226191Y-26483381D01*
X79226191Y-26483381D02*
X79321429Y-26531000D01*
X79321429Y-26531000D02*
X79702381Y-26531000D01*
X78845238Y-26007191D02*
X78273810Y-26007191D01*
X78559524Y-27007191D02*
X78559524Y-26007191D01*
X77750000Y-26007191D02*
X77559524Y-26007191D01*
X77559524Y-26007191D02*
X77464286Y-26054810D01*
X77464286Y-26054810D02*
X77369048Y-26150048D01*
X77369048Y-26150048D02*
X77321429Y-26340524D01*
X77321429Y-26340524D02*
X77321429Y-26673857D01*
X77321429Y-26673857D02*
X77369048Y-26864333D01*
X77369048Y-26864333D02*
X77464286Y-26959572D01*
X77464286Y-26959572D02*
X77559524Y-27007191D01*
X77559524Y-27007191D02*
X77750000Y-27007191D01*
X77750000Y-27007191D02*
X77845238Y-26959572D01*
X77845238Y-26959572D02*
X77940476Y-26864333D01*
X77940476Y-26864333D02*
X77988095Y-26673857D01*
X77988095Y-26673857D02*
X77988095Y-26340524D01*
X77988095Y-26340524D02*
X77940476Y-26150048D01*
X77940476Y-26150048D02*
X77845238Y-26054810D01*
X77845238Y-26054810D02*
X77750000Y-26007191D01*
X76892857Y-26626238D02*
X76130953Y-26626238D01*
X75654762Y-26483381D02*
X75321429Y-26483381D01*
X75178572Y-27007191D02*
X75654762Y-27007191D01*
X75654762Y-27007191D02*
X75654762Y-26007191D01*
X75654762Y-26007191D02*
X75178572Y-26007191D01*
X74273810Y-27007191D02*
X74750000Y-27007191D01*
X74750000Y-27007191D02*
X74750000Y-26007191D01*
X73940476Y-26483381D02*
X73607143Y-26483381D01*
X73464286Y-27007191D02*
X73940476Y-27007191D01*
X73940476Y-27007191D02*
X73940476Y-26007191D01*
X73940476Y-26007191D02*
X73464286Y-26007191D01*
X72464286Y-26911952D02*
X72511905Y-26959572D01*
X72511905Y-26959572D02*
X72654762Y-27007191D01*
X72654762Y-27007191D02*
X72750000Y-27007191D01*
X72750000Y-27007191D02*
X72892857Y-26959572D01*
X72892857Y-26959572D02*
X72988095Y-26864333D01*
X72988095Y-26864333D02*
X73035714Y-26769095D01*
X73035714Y-26769095D02*
X73083333Y-26578619D01*
X73083333Y-26578619D02*
X73083333Y-26435762D01*
X73083333Y-26435762D02*
X73035714Y-26245286D01*
X73035714Y-26245286D02*
X72988095Y-26150048D01*
X72988095Y-26150048D02*
X72892857Y-26054810D01*
X72892857Y-26054810D02*
X72750000Y-26007191D01*
X72750000Y-26007191D02*
X72654762Y-26007191D01*
X72654762Y-26007191D02*
X72511905Y-26054810D01*
X72511905Y-26054810D02*
X72464286Y-26102429D01*
X70559524Y-25959572D02*
X71416666Y-27245286D01*
X69464285Y-27007191D02*
X69464285Y-26007191D01*
X69464285Y-26007191D02*
X69083333Y-26007191D01*
X69083333Y-26007191D02*
X68988095Y-26054810D01*
X68988095Y-26054810D02*
X68940476Y-26102429D01*
X68940476Y-26102429D02*
X68892857Y-26197667D01*
X68892857Y-26197667D02*
X68892857Y-26340524D01*
X68892857Y-26340524D02*
X68940476Y-26435762D01*
X68940476Y-26435762D02*
X68988095Y-26483381D01*
X68988095Y-26483381D02*
X69083333Y-26531000D01*
X69083333Y-26531000D02*
X69464285Y-26531000D01*
X68464285Y-27007191D02*
X68464285Y-26007191D01*
X68035714Y-27007191D02*
X68035714Y-26483381D01*
X68035714Y-26483381D02*
X68083333Y-26388143D01*
X68083333Y-26388143D02*
X68178571Y-26340524D01*
X68178571Y-26340524D02*
X68321428Y-26340524D01*
X68321428Y-26340524D02*
X68416666Y-26388143D01*
X68416666Y-26388143D02*
X68464285Y-26435762D01*
X67416666Y-27007191D02*
X67511904Y-26959572D01*
X67511904Y-26959572D02*
X67559523Y-26911952D01*
X67559523Y-26911952D02*
X67607142Y-26816714D01*
X67607142Y-26816714D02*
X67607142Y-26531000D01*
X67607142Y-26531000D02*
X67559523Y-26435762D01*
X67559523Y-26435762D02*
X67511904Y-26388143D01*
X67511904Y-26388143D02*
X67416666Y-26340524D01*
X67416666Y-26340524D02*
X67273809Y-26340524D01*
X67273809Y-26340524D02*
X67178571Y-26388143D01*
X67178571Y-26388143D02*
X67130952Y-26435762D01*
X67130952Y-26435762D02*
X67083333Y-26531000D01*
X67083333Y-26531000D02*
X67083333Y-26816714D01*
X67083333Y-26816714D02*
X67130952Y-26911952D01*
X67130952Y-26911952D02*
X67178571Y-26959572D01*
X67178571Y-26959572D02*
X67273809Y-27007191D01*
X67273809Y-27007191D02*
X67416666Y-27007191D01*
X66797618Y-26340524D02*
X66416666Y-26340524D01*
X66654761Y-26007191D02*
X66654761Y-26864333D01*
X66654761Y-26864333D02*
X66607142Y-26959572D01*
X66607142Y-26959572D02*
X66511904Y-27007191D01*
X66511904Y-27007191D02*
X66416666Y-27007191D01*
X65940475Y-27007191D02*
X66035713Y-26959572D01*
X66035713Y-26959572D02*
X66083332Y-26911952D01*
X66083332Y-26911952D02*
X66130951Y-26816714D01*
X66130951Y-26816714D02*
X66130951Y-26531000D01*
X66130951Y-26531000D02*
X66083332Y-26435762D01*
X66083332Y-26435762D02*
X66035713Y-26388143D01*
X66035713Y-26388143D02*
X65940475Y-26340524D01*
X65940475Y-26340524D02*
X65797618Y-26340524D01*
X65797618Y-26340524D02*
X65702380Y-26388143D01*
X65702380Y-26388143D02*
X65654761Y-26435762D01*
X65654761Y-26435762D02*
X65607142Y-26531000D01*
X65607142Y-26531000D02*
X65607142Y-26816714D01*
X65607142Y-26816714D02*
X65654761Y-26911952D01*
X65654761Y-26911952D02*
X65702380Y-26959572D01*
X65702380Y-26959572D02*
X65797618Y-27007191D01*
X65797618Y-27007191D02*
X65940475Y-27007191D01*
X64749999Y-27007191D02*
X64749999Y-26007191D01*
X64749999Y-26959572D02*
X64845237Y-27007191D01*
X64845237Y-27007191D02*
X65035713Y-27007191D01*
X65035713Y-27007191D02*
X65130951Y-26959572D01*
X65130951Y-26959572D02*
X65178570Y-26911952D01*
X65178570Y-26911952D02*
X65226189Y-26816714D01*
X65226189Y-26816714D02*
X65226189Y-26531000D01*
X65226189Y-26531000D02*
X65178570Y-26435762D01*
X65178570Y-26435762D02*
X65130951Y-26388143D01*
X65130951Y-26388143D02*
X65035713Y-26340524D01*
X65035713Y-26340524D02*
X64845237Y-26340524D01*
X64845237Y-26340524D02*
X64749999Y-26388143D01*
X63892856Y-26959572D02*
X63988094Y-27007191D01*
X63988094Y-27007191D02*
X64178570Y-27007191D01*
X64178570Y-27007191D02*
X64273808Y-26959572D01*
X64273808Y-26959572D02*
X64321427Y-26864333D01*
X64321427Y-26864333D02*
X64321427Y-26483381D01*
X64321427Y-26483381D02*
X64273808Y-26388143D01*
X64273808Y-26388143D02*
X64178570Y-26340524D01*
X64178570Y-26340524D02*
X63988094Y-26340524D01*
X63988094Y-26340524D02*
X63892856Y-26388143D01*
X63892856Y-26388143D02*
X63845237Y-26483381D01*
X63845237Y-26483381D02*
X63845237Y-26578619D01*
X63845237Y-26578619D02*
X64321427Y-26673857D01*
X63559522Y-26340524D02*
X63178570Y-26340524D01*
X63416665Y-26007191D02*
X63416665Y-26864333D01*
X63416665Y-26864333D02*
X63369046Y-26959572D01*
X63369046Y-26959572D02*
X63273808Y-27007191D01*
X63273808Y-27007191D02*
X63178570Y-27007191D01*
X62464284Y-26959572D02*
X62559522Y-27007191D01*
X62559522Y-27007191D02*
X62749998Y-27007191D01*
X62749998Y-27007191D02*
X62845236Y-26959572D01*
X62845236Y-26959572D02*
X62892855Y-26864333D01*
X62892855Y-26864333D02*
X62892855Y-26483381D01*
X62892855Y-26483381D02*
X62845236Y-26388143D01*
X62845236Y-26388143D02*
X62749998Y-26340524D01*
X62749998Y-26340524D02*
X62559522Y-26340524D01*
X62559522Y-26340524D02*
X62464284Y-26388143D01*
X62464284Y-26388143D02*
X62416665Y-26483381D01*
X62416665Y-26483381D02*
X62416665Y-26578619D01*
X62416665Y-26578619D02*
X62892855Y-26673857D01*
X61559522Y-26959572D02*
X61654760Y-27007191D01*
X61654760Y-27007191D02*
X61845236Y-27007191D01*
X61845236Y-27007191D02*
X61940474Y-26959572D01*
X61940474Y-26959572D02*
X61988093Y-26911952D01*
X61988093Y-26911952D02*
X62035712Y-26816714D01*
X62035712Y-26816714D02*
X62035712Y-26531000D01*
X62035712Y-26531000D02*
X61988093Y-26435762D01*
X61988093Y-26435762D02*
X61940474Y-26388143D01*
X61940474Y-26388143D02*
X61845236Y-26340524D01*
X61845236Y-26340524D02*
X61654760Y-26340524D01*
X61654760Y-26340524D02*
X61559522Y-26388143D01*
X61273807Y-26340524D02*
X60892855Y-26340524D01*
X61130950Y-26007191D02*
X61130950Y-26864333D01*
X61130950Y-26864333D02*
X61083331Y-26959572D01*
X61083331Y-26959572D02*
X60988093Y-27007191D01*
X60988093Y-27007191D02*
X60892855Y-27007191D01*
X60559521Y-27007191D02*
X60559521Y-26340524D01*
X60559521Y-26007191D02*
X60607140Y-26054810D01*
X60607140Y-26054810D02*
X60559521Y-26102429D01*
X60559521Y-26102429D02*
X60511902Y-26054810D01*
X60511902Y-26054810D02*
X60559521Y-26007191D01*
X60559521Y-26007191D02*
X60559521Y-26102429D01*
X59940474Y-27007191D02*
X60035712Y-26959572D01*
X60035712Y-26959572D02*
X60083331Y-26911952D01*
X60083331Y-26911952D02*
X60130950Y-26816714D01*
X60130950Y-26816714D02*
X60130950Y-26531000D01*
X60130950Y-26531000D02*
X60083331Y-26435762D01*
X60083331Y-26435762D02*
X60035712Y-26388143D01*
X60035712Y-26388143D02*
X59940474Y-26340524D01*
X59940474Y-26340524D02*
X59797617Y-26340524D01*
X59797617Y-26340524D02*
X59702379Y-26388143D01*
X59702379Y-26388143D02*
X59654760Y-26435762D01*
X59654760Y-26435762D02*
X59607141Y-26531000D01*
X59607141Y-26531000D02*
X59607141Y-26816714D01*
X59607141Y-26816714D02*
X59654760Y-26911952D01*
X59654760Y-26911952D02*
X59702379Y-26959572D01*
X59702379Y-26959572D02*
X59797617Y-27007191D01*
X59797617Y-27007191D02*
X59940474Y-27007191D01*
X59178569Y-26340524D02*
X59178569Y-27007191D01*
X59178569Y-26435762D02*
X59130950Y-26388143D01*
X59130950Y-26388143D02*
X59035712Y-26340524D01*
X59035712Y-26340524D02*
X58892855Y-26340524D01*
X58892855Y-26340524D02*
X58797617Y-26388143D01*
X58797617Y-26388143D02*
X58749998Y-26483381D01*
X58749998Y-26483381D02*
X58749998Y-27007191D01*
D12*
%TO.P,D6,1,K*%
%TO.N,Net-(D6-K)*%
X110500000Y-65500000D03*
D13*
%TO.P,D6,2,A*%
%TO.N,-15V*%
X107940000Y-65500000D03*
%TD*%
D12*
%TO.P,D5,1,K*%
%TO.N,+15V*%
X99000000Y-65484000D03*
D13*
%TO.P,D5,2,A*%
%TO.N,Net-(D5-A)*%
X96440000Y-65484000D03*
%TD*%
D12*
%TO.P,D4,1,K*%
%TO.N,+15V*%
X86810000Y-65250000D03*
D13*
%TO.P,D4,2,A*%
%TO.N,OUT1*%
X84250000Y-65250000D03*
%TD*%
D14*
%TO.P,R1,1*%
%TO.N,OUT4*%
X86700000Y-96250000D03*
%TO.P,R1,2*%
%TO.N,GND*%
X74000000Y-96250000D03*
%TD*%
D15*
%TO.P,D2,1,K*%
%TO.N,Net-(D2-K)*%
X98775000Y-92255000D03*
D16*
%TO.P,D2,2,A*%
%TO.N,LED_IN*%
X96235000Y-92255000D03*
%TD*%
D14*
%TO.P,R3,1*%
%TO.N,Net-(D3-K)*%
X104750000Y-95800000D03*
%TO.P,R3,2*%
%TO.N,GND*%
X104750000Y-108500000D03*
%TD*%
D17*
%TO.P,U1,1*%
%TO.N,OUT2*%
X85130000Y-43370000D03*
D18*
%TO.P,U1,2,-*%
X87670000Y-43370000D03*
%TO.P,U1,3,+*%
%TO.N,Net-(D5-A)*%
X90210000Y-43370000D03*
%TO.P,U1,4,V-*%
%TO.N,-15V*%
X92750000Y-43370000D03*
%TO.P,U1,5,+*%
%TO.N,GND*%
X92750000Y-35750000D03*
%TO.P,U1,6,-*%
%TO.N,Net-(D6-K)*%
X90210000Y-35750000D03*
%TO.P,U1,7*%
%TO.N,OUT3*%
X87670000Y-35750000D03*
%TO.P,U1,8,V+*%
%TO.N,+15V*%
X85130000Y-35750000D03*
%TD*%
D14*
%TO.P,R4,2*%
%TO.N,GND*%
X71500000Y-52500000D03*
%TO.P,R4,1*%
%TO.N,OUT1*%
X84200000Y-52500000D03*
%TD*%
D19*
%TO.P,U2,1,NULL*%
%TO.N,unconnected-(U2-NULL-Pad1)*%
X89790000Y-104880000D03*
D18*
%TO.P,U2,2,-*%
%TO.N,LED_IN*%
X87250000Y-104880000D03*
%TO.P,U2,3,+*%
%TO.N,IN1*%
X84710000Y-104880000D03*
%TO.P,U2,4,V-*%
%TO.N,-15V*%
X82170000Y-104880000D03*
%TO.P,U2,5,NULL*%
%TO.N,unconnected-(U2-NULL-Pad5)*%
X82170000Y-112500000D03*
%TO.P,U2,6*%
%TO.N,LED_IN*%
X84710000Y-112500000D03*
%TO.P,U2,7,V+*%
%TO.N,+15V*%
X87250000Y-112500000D03*
%TO.P,U2,8,NC*%
%TO.N,unconnected-(U2-NC-Pad8)*%
X89790000Y-112500000D03*
%TD*%
D14*
%TO.P,R6,1*%
%TO.N,OUT3*%
X87550000Y-31250000D03*
%TO.P,R6,2*%
%TO.N,Net-(D6-K)*%
X100250000Y-31250000D03*
%TD*%
D15*
%TO.P,D3,1,K*%
%TO.N,Net-(D3-K)*%
X110775000Y-92255000D03*
D16*
%TO.P,D3,2,A*%
%TO.N,LED_IN*%
X108235000Y-92255000D03*
%TD*%
D15*
%TO.P,D1,1,K*%
%TO.N,OUT4*%
X86775000Y-92250000D03*
D16*
%TO.P,D1,2,A*%
%TO.N,LED_IN*%
X84235000Y-92250000D03*
%TD*%
D14*
%TO.P,R2,1*%
%TO.N,Net-(D2-K)*%
X98750000Y-95800000D03*
%TO.P,R2,2*%
%TO.N,GND*%
X98750000Y-108500000D03*
%TD*%
%TO.P,R5,1*%
%TO.N,Net-(D5-A)*%
X101000000Y-48450000D03*
%TO.P,R5,2*%
%TO.N,GND*%
X101000000Y-35750000D03*
%TD*%
D20*
%TO.P,J1,1,Pin_1*%
%TO.N,IN1*%
X66290000Y-58500000D03*
D21*
%TO.P,J1,2,Pin_2*%
%TO.N,SEL1*%
X63750000Y-58500000D03*
%TO.P,J1,3,Pin_3*%
%TO.N,IN2*%
X66290000Y-61040000D03*
%TO.P,J1,4,Pin_4*%
%TO.N,SEL2*%
X63750000Y-61040000D03*
%TO.P,J1,5,Pin_5*%
%TO.N,GND*%
X66290000Y-63580000D03*
%TO.P,J1,6,Pin_6*%
%TO.N,SEL3*%
X63750000Y-63580000D03*
%TO.P,J1,7,Pin_7*%
%TO.N,OUT1*%
X66290000Y-66120000D03*
%TO.P,J1,8,Pin_8*%
%TO.N,GND*%
X63750000Y-66120000D03*
%TO.P,J1,9,Pin_9*%
%TO.N,OUT2*%
X66290000Y-68660000D03*
%TO.P,J1,10,Pin_10*%
%TO.N,GND*%
X63750000Y-68660000D03*
%TO.P,J1,11,Pin_11*%
%TO.N,OUT3*%
X66290000Y-71200000D03*
%TO.P,J1,12,Pin_12*%
%TO.N,RVAR_5V*%
X63750000Y-71200000D03*
%TO.P,J1,13,Pin_13*%
%TO.N,OUT4*%
X66290000Y-73740000D03*
%TO.P,J1,14,Pin_14*%
%TO.N,RVAR_3.3V*%
X63750000Y-73740000D03*
%TO.P,J1,15,Pin_15*%
%TO.N,GND*%
X66290000Y-76280000D03*
%TO.P,J1,16,Pin_16*%
X63750000Y-76280000D03*
%TO.P,J1,17,Pin_17*%
%TO.N,-15V*%
X66290000Y-78820000D03*
%TO.P,J1,18,Pin_18*%
%TO.N,3.3V*%
X63750000Y-78820000D03*
%TO.P,J1,19,Pin_19*%
%TO.N,+15V*%
X66290000Y-81360000D03*
%TO.P,J1,20,Pin_20*%
%TO.N,5V*%
X63750000Y-81360000D03*
%TD*%
D22*
%TO.N,OUT3*%
X78500000Y-71250000D03*
%TO.N,OUT4*%
X77250000Y-96250000D03*
%TD*%
D23*
%TO.N,OUT1*%
X84200000Y-65200000D02*
X84250000Y-65250000D01*
X84200000Y-52500000D02*
X84200000Y-65200000D01*
%TO.N,+15V*%
X93060000Y-71500000D02*
X86810000Y-65250000D01*
X99000000Y-71500000D02*
X93060000Y-71500000D01*
X99000000Y-71500000D02*
X99000000Y-65484000D01*
X101250000Y-73750000D02*
X99000000Y-71500000D01*
X117750000Y-112000000D02*
X117750000Y-78000000D01*
X117750000Y-78000000D02*
X113500000Y-73750000D01*
X113500000Y-73750000D02*
X101250000Y-73750000D01*
X87250000Y-115750000D02*
X114000000Y-115750000D01*
X114000000Y-115750000D02*
X117750000Y-112000000D01*
%TO.N,Net-(D6-K)*%
X105500000Y-41750000D02*
X110500000Y-46750000D01*
X105500000Y-33250000D02*
X105500000Y-41750000D01*
X103500000Y-31250000D02*
X105500000Y-33250000D01*
X100250000Y-31250000D02*
X103500000Y-31250000D01*
X110500000Y-46750000D02*
X110500000Y-65500000D01*
%TO.N,-15V*%
X103120000Y-43370000D02*
X92750000Y-43370000D01*
X107940000Y-48190000D02*
X103120000Y-43370000D01*
X107940000Y-65500000D02*
X107940000Y-48190000D01*
%TO.N,+15V*%
X81250000Y-45000000D02*
X86810000Y-50560000D01*
X81250000Y-39500000D02*
X81250000Y-45000000D01*
X86810000Y-50560000D02*
X86810000Y-65250000D01*
X85000000Y-35750000D02*
X81250000Y-39500000D01*
X85130000Y-35750000D02*
X85000000Y-35750000D01*
%TO.N,OUT3*%
X80000000Y-31250000D02*
X87550000Y-31250000D01*
X78500000Y-32750000D02*
X80000000Y-31250000D01*
X78500000Y-71250000D02*
X78500000Y-32750000D01*
%TO.N,IN1*%
X81250000Y-99000000D02*
X84710000Y-102460000D01*
X81250000Y-78250000D02*
X81250000Y-99000000D01*
X70750000Y-67750000D02*
X81250000Y-78250000D01*
X70750000Y-59750000D02*
X70750000Y-67750000D01*
X84710000Y-102460000D02*
X84710000Y-104880000D01*
X69500000Y-58500000D02*
X70750000Y-59750000D01*
X66290000Y-58500000D02*
X69500000Y-58500000D01*
%TO.N,OUT2*%
X85130000Y-43370000D02*
X87670000Y-43370000D01*
%TO.N,OUT3*%
X87670000Y-31370000D02*
X87550000Y-31250000D01*
%TO.N,OUT4*%
X72990000Y-73740000D02*
X66290000Y-73740000D01*
X77250000Y-78000000D02*
X72990000Y-73740000D01*
X77250000Y-96250000D02*
X77250000Y-78000000D01*
%TO.N,-15V*%
X70500000Y-80750000D02*
X70500000Y-103500000D01*
X68570000Y-78820000D02*
X70500000Y-80750000D01*
X70500000Y-103500000D02*
X71880000Y-104880000D01*
X71880000Y-104880000D02*
X82170000Y-104880000D01*
X66290000Y-78820000D02*
X68570000Y-78820000D01*
%TO.N,+15V*%
X63000000Y-115750000D02*
X87250000Y-115750000D01*
X66290000Y-82710000D02*
X61500000Y-87500000D01*
X61500000Y-87500000D02*
X61500000Y-114250000D01*
X61500000Y-114250000D02*
X63000000Y-115750000D01*
X66290000Y-81360000D02*
X66290000Y-82710000D01*
X87250000Y-115750000D02*
X87250000Y-112500000D01*
%TO.N,LED_IN*%
X84235000Y-97985000D02*
X84235000Y-92250000D01*
X87250000Y-101000000D02*
X84235000Y-97985000D01*
X87250000Y-104880000D02*
X87250000Y-101000000D01*
%TO.N,Net-(D6-K)*%
X90210000Y-32540000D02*
X90210000Y-35750000D01*
X91500000Y-31250000D02*
X90210000Y-32540000D01*
X100250000Y-31250000D02*
X91500000Y-31250000D01*
%TO.N,+15V*%
X86700000Y-65434000D02*
X86750000Y-65484000D01*
%TO.N,LED_IN*%
X96235000Y-89265000D02*
X96250000Y-89250000D01*
X96235000Y-92255000D02*
X96235000Y-89265000D01*
X96250000Y-89250000D02*
X85000000Y-89250000D01*
X85000000Y-89250000D02*
X84235000Y-90015000D01*
X108235000Y-89735000D02*
X107750000Y-89250000D01*
X108235000Y-92255000D02*
X108235000Y-89735000D01*
X107750000Y-89250000D02*
X96250000Y-89250000D01*
X84235000Y-90015000D02*
X84235000Y-92250000D01*
%TO.N,Net-(D3-K)*%
X110775000Y-93475000D02*
X110775000Y-92255000D01*
X108450000Y-95800000D02*
X110775000Y-93475000D01*
X104750000Y-95800000D02*
X108450000Y-95800000D01*
%TO.N,Net-(D2-K)*%
X98775000Y-95775000D02*
X98750000Y-95800000D01*
X98775000Y-92255000D02*
X98775000Y-95775000D01*
%TO.N,OUT4*%
X86700000Y-92325000D02*
X86775000Y-92250000D01*
X86700000Y-96250000D02*
X86700000Y-92325000D01*
%TO.N,OUT3*%
X87670000Y-35750000D02*
X87670000Y-31370000D01*
%TO.N,Net-(D5-A)*%
X96440000Y-65484000D02*
X96440000Y-61060000D01*
X96440000Y-61060000D02*
X101000000Y-56500000D01*
X101000000Y-56500000D02*
X101000000Y-48450000D01*
%TD*%
%TA.AperFunction,Conductor*%
%TO.N,GND*%
G36*
X69139364Y-59428185D02*
G01*
X69160006Y-59444819D01*
X69805181Y-60089994D01*
X69838666Y-60151317D01*
X69841500Y-60177675D01*
X69841500Y-67839483D01*
X69876410Y-68014992D01*
X69876413Y-68015001D01*
X69944893Y-68180329D01*
X69944900Y-68180342D01*
X70044321Y-68329134D01*
X70044324Y-68329138D01*
X80305181Y-78589994D01*
X80338666Y-78651317D01*
X80341500Y-78677675D01*
X80341500Y-99089483D01*
X80376410Y-99264992D01*
X80376413Y-99265001D01*
X80444893Y-99430329D01*
X80444900Y-99430342D01*
X80544321Y-99579134D01*
X80544324Y-99579138D01*
X83765181Y-102799994D01*
X83798666Y-102861317D01*
X83801500Y-102887675D01*
X83801500Y-103486640D01*
X83781815Y-103553679D01*
X83765181Y-103574321D01*
X83711930Y-103627571D01*
X83711926Y-103627576D01*
X83590871Y-103794195D01*
X83550484Y-103873459D01*
X83502510Y-103924254D01*
X83434689Y-103941049D01*
X83368554Y-103918511D01*
X83329516Y-103873459D01*
X83289128Y-103794195D01*
X83168073Y-103627576D01*
X83168069Y-103627571D01*
X83022428Y-103481930D01*
X83022423Y-103481926D01*
X82855806Y-103360873D01*
X82855805Y-103360872D01*
X82855803Y-103360871D01*
X82797119Y-103330970D01*
X82672294Y-103267367D01*
X82476408Y-103203719D01*
X82300794Y-103175905D01*
X82272981Y-103171500D01*
X82067019Y-103171500D01*
X82042550Y-103175375D01*
X81863591Y-103203719D01*
X81667705Y-103267367D01*
X81484193Y-103360873D01*
X81317576Y-103481926D01*
X81317571Y-103481930D01*
X81171930Y-103627571D01*
X81171926Y-103627576D01*
X81050873Y-103794193D01*
X80995028Y-103903795D01*
X80947053Y-103954591D01*
X80884543Y-103971500D01*
X72307675Y-103971500D01*
X72240636Y-103951815D01*
X72219994Y-103935181D01*
X71444819Y-103160006D01*
X71411334Y-103098683D01*
X71408500Y-103072325D01*
X71408500Y-96147682D01*
X72700000Y-96147682D01*
X72700000Y-96352317D01*
X72732009Y-96554417D01*
X72795244Y-96749031D01*
X72888141Y-96931350D01*
X72888147Y-96931359D01*
X72920523Y-96975921D01*
X72920524Y-96975922D01*
X73600000Y-96296446D01*
X73600000Y-96302661D01*
X73627259Y-96404394D01*
X73679920Y-96495606D01*
X73754394Y-96570080D01*
X73845606Y-96622741D01*
X73947339Y-96650000D01*
X73953553Y-96650000D01*
X73274076Y-97329474D01*
X73318650Y-97361859D01*
X73500968Y-97454755D01*
X73695582Y-97517990D01*
X73897683Y-97550000D01*
X74102317Y-97550000D01*
X74304417Y-97517990D01*
X74499031Y-97454755D01*
X74681349Y-97361859D01*
X74725921Y-97329474D01*
X74046447Y-96650000D01*
X74052661Y-96650000D01*
X74154394Y-96622741D01*
X74245606Y-96570080D01*
X74320080Y-96495606D01*
X74372741Y-96404394D01*
X74400000Y-96302661D01*
X74400000Y-96296448D01*
X75079474Y-96975922D01*
X75079474Y-96975921D01*
X75111859Y-96931349D01*
X75204755Y-96749031D01*
X75267990Y-96554417D01*
X75300000Y-96352317D01*
X75300000Y-96147682D01*
X75267990Y-95945582D01*
X75204755Y-95750968D01*
X75111859Y-95568650D01*
X75079474Y-95524077D01*
X75079474Y-95524076D01*
X74400000Y-96203551D01*
X74400000Y-96197339D01*
X74372741Y-96095606D01*
X74320080Y-96004394D01*
X74245606Y-95929920D01*
X74154394Y-95877259D01*
X74052661Y-95850000D01*
X74046446Y-95850000D01*
X74725922Y-95170524D01*
X74725921Y-95170523D01*
X74681359Y-95138147D01*
X74681350Y-95138141D01*
X74499031Y-95045244D01*
X74304417Y-94982009D01*
X74102317Y-94950000D01*
X73897683Y-94950000D01*
X73695582Y-94982009D01*
X73500968Y-95045244D01*
X73318644Y-95138143D01*
X73274077Y-95170523D01*
X73274077Y-95170524D01*
X73953554Y-95850000D01*
X73947339Y-95850000D01*
X73845606Y-95877259D01*
X73754394Y-95929920D01*
X73679920Y-96004394D01*
X73627259Y-96095606D01*
X73600000Y-96197339D01*
X73600000Y-96203553D01*
X72920524Y-95524077D01*
X72920523Y-95524077D01*
X72888143Y-95568644D01*
X72795244Y-95750968D01*
X72732009Y-95945582D01*
X72700000Y-96147682D01*
X71408500Y-96147682D01*
X71408500Y-80660520D01*
X71408499Y-80660516D01*
X71373588Y-80485007D01*
X71373587Y-80485000D01*
X71305102Y-80319664D01*
X71305100Y-80319661D01*
X71305098Y-80319657D01*
X71205679Y-80170866D01*
X71178733Y-80143920D01*
X71079135Y-80044322D01*
X70172929Y-79138116D01*
X69149138Y-78114324D01*
X69149134Y-78114321D01*
X69000342Y-78014900D01*
X69000329Y-78014893D01*
X68835001Y-77946413D01*
X68834992Y-77946410D01*
X68659483Y-77911500D01*
X68659479Y-77911500D01*
X67354072Y-77911500D01*
X67287033Y-77891815D01*
X67266391Y-77875181D01*
X67175006Y-77783796D01*
X67175004Y-77783794D01*
X67019572Y-77670866D01*
X67002008Y-77658105D01*
X66997311Y-77655712D01*
X66946517Y-77607735D01*
X66929724Y-77539914D01*
X66952264Y-77473780D01*
X66993790Y-77437801D01*
X66993402Y-77437168D01*
X66997229Y-77434822D01*
X66997327Y-77434738D01*
X66997556Y-77434621D01*
X67051716Y-77395270D01*
X67051717Y-77395270D01*
X66419408Y-76762962D01*
X66482993Y-76745925D01*
X66597007Y-76680099D01*
X66690099Y-76587007D01*
X66755925Y-76472993D01*
X66772962Y-76409408D01*
X67405270Y-77041717D01*
X67405270Y-77041716D01*
X67444622Y-76987554D01*
X67541095Y-76798217D01*
X67606757Y-76596130D01*
X67606757Y-76596127D01*
X67640000Y-76386246D01*
X67640000Y-76173753D01*
X67606757Y-75963872D01*
X67606757Y-75963869D01*
X67541095Y-75761782D01*
X67444624Y-75572449D01*
X67405270Y-75518282D01*
X67405269Y-75518282D01*
X66772962Y-76150590D01*
X66755925Y-76087007D01*
X66690099Y-75972993D01*
X66597007Y-75879901D01*
X66482993Y-75814075D01*
X66419409Y-75797037D01*
X67051716Y-75164728D01*
X66997547Y-75125373D01*
X66997545Y-75125371D01*
X66997308Y-75125251D01*
X66997234Y-75125181D01*
X66993396Y-75122829D01*
X66993890Y-75122022D01*
X66946515Y-75077274D01*
X66929724Y-75009451D01*
X66952266Y-74943318D01*
X66997319Y-74904283D01*
X67002009Y-74901894D01*
X67175004Y-74776206D01*
X67266391Y-74684819D01*
X67327714Y-74651334D01*
X67354072Y-74648500D01*
X72562325Y-74648500D01*
X72629364Y-74668185D01*
X72650006Y-74684819D01*
X76305181Y-78339994D01*
X76338666Y-78401317D01*
X76341500Y-78427675D01*
X76341500Y-95327350D01*
X76321815Y-95394389D01*
X76305181Y-95415031D01*
X76290072Y-95430139D01*
X76290072Y-95430140D01*
X76290070Y-95430142D01*
X76243971Y-95493592D01*
X76173634Y-95590401D01*
X76083703Y-95766898D01*
X76022487Y-95955299D01*
X75991500Y-96150948D01*
X75991500Y-96349051D01*
X76022487Y-96544700D01*
X76083703Y-96733101D01*
X76173634Y-96909598D01*
X76290070Y-97069858D01*
X76430142Y-97209930D01*
X76590402Y-97326366D01*
X76660061Y-97361859D01*
X76766898Y-97416296D01*
X76766900Y-97416296D01*
X76766903Y-97416298D01*
X76867888Y-97449110D01*
X76955299Y-97477512D01*
X77150949Y-97508500D01*
X77150954Y-97508500D01*
X77349051Y-97508500D01*
X77544700Y-97477512D01*
X77733097Y-97416298D01*
X77909598Y-97326366D01*
X78069858Y-97209930D01*
X78209930Y-97069858D01*
X78326366Y-96909598D01*
X78416298Y-96733097D01*
X78477512Y-96544700D01*
X78508500Y-96349051D01*
X78508500Y-96150948D01*
X78477512Y-95955299D01*
X78416296Y-95766898D01*
X78326365Y-95590401D01*
X78310562Y-95568650D01*
X78209930Y-95430142D01*
X78194819Y-95415031D01*
X78161334Y-95353708D01*
X78158500Y-95327350D01*
X78158500Y-77910520D01*
X78158499Y-77910516D01*
X78140428Y-77819667D01*
X78123587Y-77735000D01*
X78091736Y-77658106D01*
X78090744Y-77655712D01*
X78070872Y-77607735D01*
X78055103Y-77569664D01*
X77955678Y-77420865D01*
X77955675Y-77420861D01*
X73569138Y-73034324D01*
X73569134Y-73034321D01*
X73420342Y-72934900D01*
X73420329Y-72934893D01*
X73255001Y-72866413D01*
X73254992Y-72866410D01*
X73079483Y-72831500D01*
X73079479Y-72831500D01*
X67354072Y-72831500D01*
X67287033Y-72811815D01*
X67266391Y-72795181D01*
X67175006Y-72703796D01*
X67175004Y-72703794D01*
X67002009Y-72578106D01*
X67002005Y-72578103D01*
X66998132Y-72575730D01*
X66951254Y-72523920D01*
X66939829Y-72454991D01*
X66967483Y-72390827D01*
X66998132Y-72364270D01*
X67002005Y-72361896D01*
X67002004Y-72361896D01*
X67002009Y-72361894D01*
X67175004Y-72236206D01*
X67326206Y-72085004D01*
X67451894Y-71912009D01*
X67548972Y-71721483D01*
X67615049Y-71518116D01*
X67648500Y-71306916D01*
X67648500Y-71093084D01*
X67615049Y-70881884D01*
X67548972Y-70678517D01*
X67548972Y-70678516D01*
X67498925Y-70580294D01*
X67451894Y-70487991D01*
X67326206Y-70314996D01*
X67175004Y-70163794D01*
X67002009Y-70038106D01*
X67002005Y-70038103D01*
X66998132Y-70035730D01*
X66951254Y-69983920D01*
X66939829Y-69914991D01*
X66967483Y-69850827D01*
X66998132Y-69824270D01*
X67002005Y-69821896D01*
X67002004Y-69821896D01*
X67002009Y-69821894D01*
X67175004Y-69696206D01*
X67326206Y-69545004D01*
X67451894Y-69372009D01*
X67548972Y-69181483D01*
X67615049Y-68978116D01*
X67648500Y-68766916D01*
X67648500Y-68553084D01*
X67615049Y-68341884D01*
X67562560Y-68180336D01*
X67548973Y-68138519D01*
X67548972Y-68138516D01*
X67499507Y-68041438D01*
X67451894Y-67947991D01*
X67326206Y-67774996D01*
X67175004Y-67623794D01*
X67002009Y-67498106D01*
X67002005Y-67498103D01*
X66998132Y-67495730D01*
X66951254Y-67443920D01*
X66939829Y-67374991D01*
X66967483Y-67310827D01*
X66998132Y-67284270D01*
X67002005Y-67281896D01*
X67002004Y-67281896D01*
X67002009Y-67281894D01*
X67175004Y-67156206D01*
X67326206Y-67005004D01*
X67451894Y-66832009D01*
X67548972Y-66641483D01*
X67615049Y-66438116D01*
X67648500Y-66226916D01*
X67648500Y-66013084D01*
X67615049Y-65801884D01*
X67582010Y-65700200D01*
X67548973Y-65598519D01*
X67548972Y-65598516D01*
X67499507Y-65501438D01*
X67451894Y-65407991D01*
X67326206Y-65234996D01*
X67175004Y-65083794D01*
X67012011Y-64965373D01*
X67002008Y-64958105D01*
X66997311Y-64955712D01*
X66946517Y-64907735D01*
X66929724Y-64839914D01*
X66952264Y-64773780D01*
X66993790Y-64737801D01*
X66993402Y-64737168D01*
X66997229Y-64734822D01*
X66997327Y-64734738D01*
X66997556Y-64734621D01*
X67051716Y-64695270D01*
X67051717Y-64695270D01*
X66419408Y-64062962D01*
X66482993Y-64045925D01*
X66597007Y-63980099D01*
X66690099Y-63887007D01*
X66755925Y-63772993D01*
X66772962Y-63709408D01*
X67405270Y-64341717D01*
X67405270Y-64341716D01*
X67444622Y-64287554D01*
X67541095Y-64098217D01*
X67606757Y-63896130D01*
X67606757Y-63896127D01*
X67640000Y-63686246D01*
X67640000Y-63473753D01*
X67606757Y-63263872D01*
X67606757Y-63263869D01*
X67541095Y-63061782D01*
X67444624Y-62872449D01*
X67405270Y-62818282D01*
X67405269Y-62818282D01*
X66772962Y-63450590D01*
X66755925Y-63387007D01*
X66690099Y-63272993D01*
X66597007Y-63179901D01*
X66482993Y-63114075D01*
X66419409Y-63097037D01*
X67051716Y-62464728D01*
X66997547Y-62425373D01*
X66997545Y-62425371D01*
X66997308Y-62425251D01*
X66997234Y-62425181D01*
X66993396Y-62422829D01*
X66993890Y-62422022D01*
X66946515Y-62377274D01*
X66929724Y-62309451D01*
X66952266Y-62243318D01*
X66997319Y-62204283D01*
X67002009Y-62201894D01*
X67175004Y-62076206D01*
X67326206Y-61925004D01*
X67451894Y-61752009D01*
X67548972Y-61561483D01*
X67615049Y-61358116D01*
X67648500Y-61146916D01*
X67648500Y-60933084D01*
X67615049Y-60721884D01*
X67548972Y-60518517D01*
X67548972Y-60518516D01*
X67451893Y-60327990D01*
X67326206Y-60154996D01*
X67221028Y-60049818D01*
X67187543Y-59988495D01*
X67192527Y-59918803D01*
X67234399Y-59862870D01*
X67265367Y-59845959D01*
X67386204Y-59800889D01*
X67503261Y-59713261D01*
X67590889Y-59596204D01*
X67630813Y-59489164D01*
X67672684Y-59433232D01*
X67738149Y-59408816D01*
X67746994Y-59408500D01*
X69072325Y-59408500D01*
X69139364Y-59428185D01*
G37*
%TD.AperFunction*%
%TA.AperFunction,Conductor*%
G36*
X65824075Y-76472993D02*
G01*
X65889901Y-76587007D01*
X65982993Y-76680099D01*
X66097007Y-76745925D01*
X66160590Y-76762962D01*
X65528282Y-77395269D01*
X65528282Y-77395270D01*
X65582449Y-77434624D01*
X65582682Y-77434743D01*
X65582755Y-77434812D01*
X65586604Y-77437171D01*
X65586108Y-77437979D01*
X65633479Y-77482716D01*
X65650275Y-77550537D01*
X65627739Y-77616672D01*
X65582693Y-77655709D01*
X65577994Y-77658103D01*
X65404993Y-77783796D01*
X65253796Y-77934993D01*
X65128105Y-78107991D01*
X65125727Y-78111873D01*
X65073914Y-78158748D01*
X65004984Y-78170169D01*
X64940822Y-78142512D01*
X64914273Y-78111873D01*
X64911894Y-78107991D01*
X64911893Y-78107990D01*
X64786206Y-77934996D01*
X64635004Y-77783794D01*
X64479572Y-77670866D01*
X64462008Y-77658105D01*
X64457311Y-77655712D01*
X64406517Y-77607735D01*
X64389724Y-77539914D01*
X64412264Y-77473780D01*
X64453790Y-77437801D01*
X64453402Y-77437168D01*
X64457229Y-77434822D01*
X64457327Y-77434738D01*
X64457556Y-77434621D01*
X64511716Y-77395270D01*
X64511717Y-77395270D01*
X63879408Y-76762962D01*
X63942993Y-76745925D01*
X64057007Y-76680099D01*
X64150099Y-76587007D01*
X64215925Y-76472993D01*
X64232962Y-76409408D01*
X64865270Y-77041717D01*
X64865270Y-77041716D01*
X64904622Y-76987554D01*
X64909514Y-76977954D01*
X64957488Y-76927157D01*
X65025308Y-76910361D01*
X65091444Y-76932897D01*
X65130486Y-76977954D01*
X65135375Y-76987550D01*
X65174728Y-77041716D01*
X65807037Y-76409408D01*
X65824075Y-76472993D01*
G37*
%TD.AperFunction*%
%TA.AperFunction,Conductor*%
G36*
X65099173Y-74417483D02*
G01*
X65125730Y-74448132D01*
X65128103Y-74452005D01*
X65130772Y-74455678D01*
X65253794Y-74625004D01*
X65404996Y-74776206D01*
X65577991Y-74901894D01*
X65582680Y-74904283D01*
X65633478Y-74952254D01*
X65650276Y-75020074D01*
X65627742Y-75086210D01*
X65586205Y-75122209D01*
X65586590Y-75122838D01*
X65582804Y-75125157D01*
X65582702Y-75125246D01*
X65582449Y-75125374D01*
X65582440Y-75125380D01*
X65528282Y-75164727D01*
X65528282Y-75164728D01*
X66160591Y-75797037D01*
X66097007Y-75814075D01*
X65982993Y-75879901D01*
X65889901Y-75972993D01*
X65824075Y-76087007D01*
X65807037Y-76150591D01*
X65174728Y-75518282D01*
X65174727Y-75518282D01*
X65135380Y-75572440D01*
X65130483Y-75582051D01*
X65082506Y-75632845D01*
X65014684Y-75649638D01*
X64948550Y-75627098D01*
X64909516Y-75582048D01*
X64904626Y-75572452D01*
X64865270Y-75518282D01*
X64865269Y-75518282D01*
X64232962Y-76150590D01*
X64215925Y-76087007D01*
X64150099Y-75972993D01*
X64057007Y-75879901D01*
X63942993Y-75814075D01*
X63879409Y-75797037D01*
X64511716Y-75164728D01*
X64457547Y-75125373D01*
X64457545Y-75125371D01*
X64457308Y-75125251D01*
X64457234Y-75125181D01*
X64453396Y-75122829D01*
X64453890Y-75122022D01*
X64406515Y-75077274D01*
X64389724Y-75009451D01*
X64412266Y-74943318D01*
X64457319Y-74904283D01*
X64462009Y-74901894D01*
X64635004Y-74776206D01*
X64786206Y-74625004D01*
X64911894Y-74452009D01*
X64911896Y-74452004D01*
X64914270Y-74448132D01*
X64966080Y-74401254D01*
X65035009Y-74389829D01*
X65099173Y-74417483D01*
G37*
%TD.AperFunction*%
%TA.AperFunction,Conductor*%
G36*
X64865270Y-69421717D02*
G01*
X64865270Y-69421716D01*
X64904621Y-69367556D01*
X64904738Y-69367327D01*
X64904808Y-69367252D01*
X64907168Y-69363402D01*
X64907976Y-69363897D01*
X64952707Y-69316526D01*
X65020526Y-69299723D01*
X65086663Y-69322254D01*
X65125712Y-69367311D01*
X65128106Y-69372009D01*
X65253794Y-69545004D01*
X65404996Y-69696206D01*
X65568257Y-69814822D01*
X65577991Y-69821894D01*
X65581873Y-69824273D01*
X65628748Y-69876086D01*
X65640169Y-69945016D01*
X65612512Y-70009178D01*
X65581873Y-70035727D01*
X65577991Y-70038105D01*
X65404993Y-70163796D01*
X65253796Y-70314993D01*
X65128105Y-70487991D01*
X65125727Y-70491873D01*
X65073914Y-70538748D01*
X65004984Y-70550169D01*
X64940822Y-70522512D01*
X64914273Y-70491873D01*
X64911894Y-70487991D01*
X64869862Y-70430139D01*
X64786206Y-70314996D01*
X64635004Y-70163794D01*
X64462009Y-70038106D01*
X64462010Y-70038106D01*
X64462008Y-70038105D01*
X64457311Y-70035712D01*
X64406517Y-69987735D01*
X64389724Y-69919914D01*
X64412264Y-69853780D01*
X64453790Y-69817801D01*
X64453402Y-69817168D01*
X64457229Y-69814822D01*
X64457327Y-69814738D01*
X64457556Y-69814621D01*
X64511716Y-69775270D01*
X64511717Y-69775270D01*
X63879408Y-69142962D01*
X63942993Y-69125925D01*
X64057007Y-69060099D01*
X64150099Y-68967007D01*
X64215925Y-68852993D01*
X64232962Y-68789408D01*
X64865270Y-69421717D01*
G37*
%TD.AperFunction*%
%TA.AperFunction,Conductor*%
G36*
X64865270Y-66881717D02*
G01*
X64865270Y-66881716D01*
X64904621Y-66827556D01*
X64904738Y-66827327D01*
X64904808Y-66827252D01*
X64907168Y-66823402D01*
X64907976Y-66823897D01*
X64952707Y-66776526D01*
X65020526Y-66759723D01*
X65086663Y-66782254D01*
X65125712Y-66827311D01*
X65128106Y-66832009D01*
X65253794Y-67005004D01*
X65404996Y-67156206D01*
X65567982Y-67274622D01*
X65577991Y-67281894D01*
X65581873Y-67284273D01*
X65628748Y-67336086D01*
X65640169Y-67405016D01*
X65612512Y-67469178D01*
X65581873Y-67495727D01*
X65577991Y-67498105D01*
X65404993Y-67623796D01*
X65253796Y-67774993D01*
X65128103Y-67947994D01*
X65125709Y-67952693D01*
X65077731Y-68003485D01*
X65009908Y-68020275D01*
X64943775Y-67997732D01*
X64907804Y-67956215D01*
X64907171Y-67956604D01*
X64904826Y-67952778D01*
X64904743Y-67952682D01*
X64904624Y-67952449D01*
X64865270Y-67898282D01*
X64865269Y-67898282D01*
X64232962Y-68530590D01*
X64215925Y-68467007D01*
X64150099Y-68352993D01*
X64057007Y-68259901D01*
X63942993Y-68194075D01*
X63879409Y-68177037D01*
X64511716Y-67544728D01*
X64457550Y-67505375D01*
X64447954Y-67500486D01*
X64397157Y-67452512D01*
X64380361Y-67384692D01*
X64402897Y-67318556D01*
X64447954Y-67279514D01*
X64457554Y-67274622D01*
X64511716Y-67235270D01*
X64511717Y-67235270D01*
X63879408Y-66602962D01*
X63942993Y-66585925D01*
X64057007Y-66520099D01*
X64150099Y-66427007D01*
X64215925Y-66312993D01*
X64232962Y-66249408D01*
X64865270Y-66881717D01*
G37*
%TD.AperFunction*%
%TA.AperFunction,Conductor*%
G36*
X65824075Y-63772993D02*
G01*
X65889901Y-63887007D01*
X65982993Y-63980099D01*
X66097007Y-64045925D01*
X66160590Y-64062962D01*
X65528282Y-64695269D01*
X65528282Y-64695270D01*
X65582449Y-64734624D01*
X65582682Y-64734743D01*
X65582755Y-64734812D01*
X65586604Y-64737171D01*
X65586108Y-64737979D01*
X65633479Y-64782716D01*
X65650275Y-64850537D01*
X65627739Y-64916672D01*
X65582693Y-64955709D01*
X65577994Y-64958103D01*
X65404993Y-65083796D01*
X65253796Y-65234993D01*
X65128103Y-65407994D01*
X65125709Y-65412693D01*
X65077731Y-65463485D01*
X65009908Y-65480275D01*
X64943775Y-65457732D01*
X64907804Y-65416215D01*
X64907171Y-65416604D01*
X64904826Y-65412778D01*
X64904743Y-65412682D01*
X64904624Y-65412449D01*
X64865270Y-65358282D01*
X64865269Y-65358282D01*
X64232962Y-65990590D01*
X64215925Y-65927007D01*
X64150099Y-65812993D01*
X64057007Y-65719901D01*
X63942993Y-65654075D01*
X63879409Y-65637037D01*
X64511716Y-65004728D01*
X64457547Y-64965373D01*
X64457545Y-64965371D01*
X64457308Y-64965251D01*
X64457234Y-64965181D01*
X64453396Y-64962829D01*
X64453890Y-64962022D01*
X64406515Y-64917274D01*
X64389724Y-64849451D01*
X64412266Y-64783318D01*
X64457319Y-64744283D01*
X64462009Y-64741894D01*
X64635004Y-64616206D01*
X64786206Y-64465004D01*
X64911894Y-64292009D01*
X64914283Y-64287319D01*
X64962254Y-64236522D01*
X65030074Y-64219724D01*
X65096210Y-64242258D01*
X65132196Y-64283783D01*
X65132829Y-64283396D01*
X65135167Y-64287211D01*
X65135251Y-64287308D01*
X65135371Y-64287545D01*
X65135373Y-64287547D01*
X65174728Y-64341716D01*
X65807037Y-63709408D01*
X65824075Y-63772993D01*
G37*
%TD.AperFunction*%
%TA.AperFunction,Conductor*%
G36*
X65099173Y-61717483D02*
G01*
X65125730Y-61748132D01*
X65128103Y-61752005D01*
X65128106Y-61752009D01*
X65253794Y-61925004D01*
X65404996Y-62076206D01*
X65577991Y-62201894D01*
X65582680Y-62204283D01*
X65633478Y-62252254D01*
X65650276Y-62320074D01*
X65627742Y-62386210D01*
X65586205Y-62422209D01*
X65586590Y-62422838D01*
X65582804Y-62425157D01*
X65582702Y-62425246D01*
X65582449Y-62425374D01*
X65582440Y-62425380D01*
X65528282Y-62464727D01*
X65528282Y-62464728D01*
X66160591Y-63097037D01*
X66097007Y-63114075D01*
X65982993Y-63179901D01*
X65889901Y-63272993D01*
X65824075Y-63387007D01*
X65807037Y-63450591D01*
X65174728Y-62818282D01*
X65174727Y-62818282D01*
X65135380Y-62872440D01*
X65135374Y-62872449D01*
X65135246Y-62872702D01*
X65135172Y-62872780D01*
X65132838Y-62876590D01*
X65132036Y-62876099D01*
X65087264Y-62923490D01*
X65019441Y-62940275D01*
X64953309Y-62917728D01*
X64914283Y-62872680D01*
X64911894Y-62867991D01*
X64786206Y-62694996D01*
X64635004Y-62543794D01*
X64472011Y-62425373D01*
X64462005Y-62418103D01*
X64458132Y-62415730D01*
X64411254Y-62363920D01*
X64399829Y-62294991D01*
X64427483Y-62230827D01*
X64458132Y-62204270D01*
X64462005Y-62201896D01*
X64462004Y-62201896D01*
X64462009Y-62201894D01*
X64635004Y-62076206D01*
X64786206Y-61925004D01*
X64911894Y-61752009D01*
X64911896Y-61752004D01*
X64914270Y-61748132D01*
X64966080Y-61701254D01*
X65035009Y-61689829D01*
X65099173Y-61717483D01*
G37*
%TD.AperFunction*%
%TA.AperFunction,Conductor*%
G36*
X119342539Y-22620185D02*
G01*
X119388294Y-22672989D01*
X119399500Y-22724500D01*
X119399500Y-117525500D01*
X119379815Y-117592539D01*
X119327011Y-117638294D01*
X119275500Y-117649500D01*
X56724500Y-117649500D01*
X56657461Y-117629815D01*
X56611706Y-117577011D01*
X56600500Y-117525500D01*
X56600500Y-87410516D01*
X60591500Y-87410516D01*
X60591500Y-114339483D01*
X60626410Y-114514992D01*
X60626413Y-114515001D01*
X60694893Y-114680329D01*
X60694900Y-114680342D01*
X60794321Y-114829134D01*
X60794324Y-114829138D01*
X62294322Y-116329135D01*
X62420862Y-116455675D01*
X62420866Y-116455679D01*
X62569657Y-116555098D01*
X62569661Y-116555100D01*
X62569664Y-116555102D01*
X62735000Y-116623587D01*
X62881399Y-116652707D01*
X62895959Y-116655603D01*
X62910519Y-116658500D01*
X62910520Y-116658500D01*
X114089480Y-116658500D01*
X114089481Y-116658499D01*
X114147986Y-116646862D01*
X114264992Y-116623589D01*
X114264995Y-116623587D01*
X114265000Y-116623587D01*
X114430336Y-116555103D01*
X114579135Y-116455678D01*
X118455678Y-112579135D01*
X118555103Y-112430336D01*
X118555104Y-112430333D01*
X118555106Y-112430330D01*
X118587135Y-112353001D01*
X118623587Y-112264999D01*
X118658500Y-112089479D01*
X118658500Y-111910520D01*
X118658500Y-77910521D01*
X118623587Y-77735000D01*
X118591736Y-77658106D01*
X118590744Y-77655712D01*
X118570872Y-77607735D01*
X118555103Y-77569664D01*
X118455678Y-77420865D01*
X118455675Y-77420861D01*
X114079138Y-73044324D01*
X114079134Y-73044321D01*
X113930342Y-72944900D01*
X113930329Y-72944893D01*
X113765001Y-72876413D01*
X113764992Y-72876410D01*
X113589483Y-72841500D01*
X113589479Y-72841500D01*
X101677675Y-72841500D01*
X101610636Y-72821815D01*
X101589994Y-72805181D01*
X99944819Y-71160006D01*
X99911334Y-71098683D01*
X99908500Y-71072325D01*
X99908500Y-66600012D01*
X99928185Y-66532973D01*
X99944819Y-66512331D01*
X99983596Y-66473554D01*
X100049198Y-66407952D01*
X100142184Y-66257198D01*
X100197898Y-66089063D01*
X100208500Y-65985288D01*
X100208500Y-64982712D01*
X100197898Y-64878937D01*
X100142184Y-64710802D01*
X100049198Y-64560048D01*
X99923952Y-64434802D01*
X99773198Y-64341816D01*
X99605063Y-64286102D01*
X99501295Y-64275500D01*
X99501288Y-64275500D01*
X98498712Y-64275500D01*
X98498704Y-64275500D01*
X98394936Y-64286102D01*
X98226804Y-64341815D01*
X98226799Y-64341817D01*
X98076046Y-64434803D01*
X97950803Y-64560046D01*
X97857817Y-64710799D01*
X97857815Y-64710804D01*
X97802101Y-64878936D01*
X97792421Y-64973691D01*
X97766024Y-65038383D01*
X97708843Y-65078534D01*
X97639032Y-65081397D01*
X97578756Y-65046062D01*
X97558578Y-65017383D01*
X97552130Y-65004728D01*
X97473602Y-64850608D01*
X97372181Y-64711015D01*
X97348702Y-64645209D01*
X97348500Y-64638130D01*
X97348500Y-61487675D01*
X97368185Y-61420636D01*
X97384819Y-61399994D01*
X101705675Y-57079138D01*
X101705678Y-57079135D01*
X101805103Y-56930336D01*
X101805104Y-56930333D01*
X101805106Y-56930330D01*
X101837135Y-56853001D01*
X101873587Y-56764999D01*
X101908500Y-56589479D01*
X101908500Y-56410520D01*
X101908500Y-49443360D01*
X101928185Y-49376321D01*
X101944819Y-49355679D01*
X101998068Y-49302430D01*
X102119129Y-49135803D01*
X102212634Y-48952290D01*
X102276280Y-48756408D01*
X102308500Y-48552981D01*
X102308500Y-48347019D01*
X102276280Y-48143592D01*
X102262285Y-48100521D01*
X102212632Y-47947705D01*
X102173198Y-47870313D01*
X102119129Y-47764197D01*
X102087937Y-47721265D01*
X101998073Y-47597576D01*
X101998069Y-47597571D01*
X101852428Y-47451930D01*
X101852423Y-47451926D01*
X101685806Y-47330873D01*
X101685805Y-47330872D01*
X101685803Y-47330871D01*
X101628496Y-47301671D01*
X101502294Y-47237367D01*
X101306408Y-47173719D01*
X101130794Y-47145905D01*
X101102981Y-47141500D01*
X100897019Y-47141500D01*
X100872550Y-47145375D01*
X100693591Y-47173719D01*
X100497705Y-47237367D01*
X100314193Y-47330873D01*
X100147576Y-47451926D01*
X100147571Y-47451930D01*
X100001930Y-47597571D01*
X100001926Y-47597576D01*
X99880873Y-47764193D01*
X99787367Y-47947705D01*
X99723719Y-48143591D01*
X99691500Y-48347019D01*
X99691500Y-48552980D01*
X99723719Y-48756408D01*
X99787367Y-48952294D01*
X99880873Y-49135806D01*
X100001926Y-49302423D01*
X100001930Y-49302428D01*
X100055181Y-49355679D01*
X100088666Y-49417002D01*
X100091500Y-49443360D01*
X100091500Y-56072324D01*
X100071815Y-56139363D01*
X100055181Y-56160005D01*
X95734324Y-60480861D01*
X95734321Y-60480865D01*
X95634900Y-60629657D01*
X95634893Y-60629670D01*
X95566413Y-60794998D01*
X95566410Y-60795007D01*
X95531500Y-60970516D01*
X95531500Y-64638130D01*
X95511815Y-64705169D01*
X95507822Y-64711008D01*
X95480436Y-64748704D01*
X95406398Y-64850607D01*
X95320040Y-65020092D01*
X95261256Y-65201008D01*
X95231500Y-65388883D01*
X95231500Y-65579116D01*
X95261256Y-65766991D01*
X95320040Y-65947907D01*
X95400116Y-66105063D01*
X95406398Y-66117392D01*
X95518208Y-66271285D01*
X95652715Y-66405792D01*
X95806608Y-66517602D01*
X95837217Y-66533198D01*
X95976092Y-66603959D01*
X95976094Y-66603959D01*
X95976097Y-66603961D01*
X96025334Y-66619959D01*
X96157008Y-66662743D01*
X96344884Y-66692500D01*
X96344889Y-66692500D01*
X96535116Y-66692500D01*
X96722991Y-66662743D01*
X96903903Y-66603961D01*
X97073392Y-66517602D01*
X97227285Y-66405792D01*
X97361792Y-66271285D01*
X97473602Y-66117392D01*
X97558579Y-65950614D01*
X97606552Y-65899820D01*
X97674373Y-65883025D01*
X97740508Y-65905562D01*
X97783960Y-65960277D01*
X97792421Y-65994308D01*
X97802101Y-66089063D01*
X97857815Y-66257195D01*
X97857817Y-66257200D01*
X97874102Y-66283602D01*
X97941076Y-66392184D01*
X97950803Y-66407953D01*
X98055181Y-66512331D01*
X98088666Y-66573654D01*
X98091500Y-66600012D01*
X98091500Y-70467500D01*
X98071815Y-70534539D01*
X98019011Y-70580294D01*
X97967500Y-70591500D01*
X93487675Y-70591500D01*
X93420636Y-70571815D01*
X93399994Y-70555181D01*
X88054819Y-65210006D01*
X88021334Y-65148683D01*
X88018500Y-65122325D01*
X88018500Y-64748717D01*
X88018499Y-64748704D01*
X88017321Y-64737171D01*
X88007898Y-64644937D01*
X87952184Y-64476802D01*
X87859198Y-64326048D01*
X87754819Y-64221669D01*
X87721334Y-64160346D01*
X87718500Y-64133988D01*
X87718500Y-50470520D01*
X87718499Y-50470516D01*
X87683588Y-50295007D01*
X87683587Y-50295000D01*
X87615102Y-50129664D01*
X87615100Y-50129661D01*
X87615098Y-50129657D01*
X87515679Y-49980866D01*
X87515678Y-49980865D01*
X87389135Y-49854322D01*
X82194819Y-44660006D01*
X82161334Y-44598683D01*
X82158500Y-44572325D01*
X82158500Y-39927674D01*
X82178185Y-39860635D01*
X82194814Y-39839998D01*
X84607543Y-37427268D01*
X84668864Y-37393785D01*
X84733539Y-37397019D01*
X84823592Y-37426280D01*
X85027019Y-37458500D01*
X85027020Y-37458500D01*
X85232980Y-37458500D01*
X85232981Y-37458500D01*
X85436408Y-37426280D01*
X85632290Y-37362634D01*
X85815803Y-37269129D01*
X85982430Y-37148068D01*
X86128068Y-37002430D01*
X86249129Y-36835803D01*
X86289515Y-36756540D01*
X86337490Y-36705745D01*
X86405311Y-36688950D01*
X86471446Y-36711487D01*
X86510484Y-36756540D01*
X86547646Y-36829474D01*
X86550873Y-36835806D01*
X86671926Y-37002423D01*
X86671930Y-37002428D01*
X86817571Y-37148069D01*
X86817576Y-37148073D01*
X86962908Y-37253661D01*
X86984197Y-37269129D01*
X87101128Y-37328709D01*
X87167705Y-37362632D01*
X87167707Y-37362632D01*
X87167710Y-37362634D01*
X87263583Y-37393785D01*
X87363591Y-37426280D01*
X87465305Y-37442390D01*
X87567019Y-37458500D01*
X87567020Y-37458500D01*
X87772980Y-37458500D01*
X87772981Y-37458500D01*
X87976408Y-37426280D01*
X88172290Y-37362634D01*
X88355803Y-37269129D01*
X88522430Y-37148068D01*
X88668068Y-37002430D01*
X88789129Y-36835803D01*
X88829515Y-36756540D01*
X88877490Y-36705745D01*
X88945311Y-36688950D01*
X89011446Y-36711487D01*
X89050484Y-36756540D01*
X89087646Y-36829474D01*
X89090873Y-36835806D01*
X89211926Y-37002423D01*
X89211930Y-37002428D01*
X89357571Y-37148069D01*
X89357576Y-37148073D01*
X89502908Y-37253661D01*
X89524197Y-37269129D01*
X89641128Y-37328709D01*
X89707705Y-37362632D01*
X89707707Y-37362632D01*
X89707710Y-37362634D01*
X89803583Y-37393785D01*
X89903591Y-37426280D01*
X90005305Y-37442390D01*
X90107019Y-37458500D01*
X90107020Y-37458500D01*
X90312980Y-37458500D01*
X90312981Y-37458500D01*
X90516408Y-37426280D01*
X90712290Y-37362634D01*
X90895803Y-37269129D01*
X91062430Y-37148068D01*
X91208068Y-37002430D01*
X91329129Y-36835803D01*
X91374284Y-36747180D01*
X91422258Y-36696384D01*
X91490079Y-36679589D01*
X91556214Y-36702126D01*
X91595254Y-36747180D01*
X91638140Y-36831349D01*
X91758417Y-36996894D01*
X91758417Y-36996895D01*
X91903104Y-37141582D01*
X92068650Y-37261859D01*
X92250968Y-37354754D01*
X92445578Y-37417988D01*
X92500000Y-37426607D01*
X92500000Y-36065686D01*
X92504394Y-36070080D01*
X92595606Y-36122741D01*
X92697339Y-36150000D01*
X92802661Y-36150000D01*
X92904394Y-36122741D01*
X92995606Y-36070080D01*
X93000000Y-36065686D01*
X93000000Y-37426606D01*
X93054421Y-37417988D01*
X93249031Y-37354754D01*
X93431349Y-37261859D01*
X93596894Y-37141582D01*
X93596895Y-37141582D01*
X93741582Y-36996895D01*
X93741582Y-36996894D01*
X93861861Y-36831347D01*
X93915578Y-36725921D01*
X93915578Y-36725920D01*
X93954755Y-36649031D01*
X94017990Y-36454417D01*
X94050000Y-36252317D01*
X94050000Y-36000000D01*
X93065686Y-36000000D01*
X93070080Y-35995606D01*
X93122741Y-35904394D01*
X93150000Y-35802661D01*
X93150000Y-35697339D01*
X93136695Y-35647682D01*
X99700000Y-35647682D01*
X99700000Y-35852317D01*
X99732009Y-36054417D01*
X99795244Y-36249031D01*
X99888141Y-36431350D01*
X99888147Y-36431359D01*
X99920523Y-36475921D01*
X99920524Y-36475922D01*
X100600000Y-35796446D01*
X100600000Y-35802661D01*
X100627259Y-35904394D01*
X100679920Y-35995606D01*
X100754394Y-36070080D01*
X100845606Y-36122741D01*
X100947339Y-36150000D01*
X100953553Y-36150000D01*
X100274076Y-36829474D01*
X100318650Y-36861859D01*
X100500968Y-36954755D01*
X100695582Y-37017990D01*
X100897683Y-37050000D01*
X101102317Y-37050000D01*
X101304417Y-37017990D01*
X101499031Y-36954755D01*
X101681349Y-36861859D01*
X101725921Y-36829474D01*
X101046447Y-36150000D01*
X101052661Y-36150000D01*
X101154394Y-36122741D01*
X101245606Y-36070080D01*
X101320080Y-35995606D01*
X101372741Y-35904394D01*
X101400000Y-35802661D01*
X101400000Y-35796448D01*
X102079474Y-36475922D01*
X102079474Y-36475921D01*
X102111859Y-36431349D01*
X102204755Y-36249031D01*
X102267990Y-36054417D01*
X102300000Y-35852317D01*
X102300000Y-35647682D01*
X102267990Y-35445582D01*
X102204755Y-35250968D01*
X102111859Y-35068650D01*
X102079474Y-35024077D01*
X102079474Y-35024076D01*
X101400000Y-35703551D01*
X101400000Y-35697339D01*
X101372741Y-35595606D01*
X101320080Y-35504394D01*
X101245606Y-35429920D01*
X101154394Y-35377259D01*
X101052661Y-35350000D01*
X101046446Y-35350000D01*
X101725922Y-34670524D01*
X101725921Y-34670523D01*
X101681359Y-34638147D01*
X101681350Y-34638141D01*
X101499031Y-34545244D01*
X101304417Y-34482009D01*
X101102317Y-34450000D01*
X100897683Y-34450000D01*
X100695582Y-34482009D01*
X100500968Y-34545244D01*
X100318644Y-34638143D01*
X100274077Y-34670523D01*
X100274077Y-34670524D01*
X100953554Y-35350000D01*
X100947339Y-35350000D01*
X100845606Y-35377259D01*
X100754394Y-35429920D01*
X100679920Y-35504394D01*
X100627259Y-35595606D01*
X100600000Y-35697339D01*
X100600000Y-35703553D01*
X99920524Y-35024077D01*
X99920523Y-35024077D01*
X99888143Y-35068644D01*
X99795244Y-35250968D01*
X99732009Y-35445582D01*
X99700000Y-35647682D01*
X93136695Y-35647682D01*
X93122741Y-35595606D01*
X93070080Y-35504394D01*
X93065686Y-35500000D01*
X94050000Y-35500000D01*
X94050000Y-35247682D01*
X94017990Y-35045582D01*
X93954755Y-34850968D01*
X93915577Y-34774078D01*
X93915576Y-34774076D01*
X93861861Y-34668652D01*
X93741582Y-34503105D01*
X93741582Y-34503104D01*
X93596895Y-34358417D01*
X93431349Y-34238140D01*
X93249029Y-34145244D01*
X93054413Y-34082009D01*
X93000000Y-34073390D01*
X93000000Y-35434314D01*
X92995606Y-35429920D01*
X92904394Y-35377259D01*
X92802661Y-35350000D01*
X92697339Y-35350000D01*
X92595606Y-35377259D01*
X92504394Y-35429920D01*
X92500000Y-35434314D01*
X92500000Y-34073390D01*
X92445586Y-34082009D01*
X92250970Y-34145244D01*
X92068650Y-34238140D01*
X91903105Y-34358417D01*
X91903104Y-34358417D01*
X91758417Y-34503104D01*
X91758417Y-34503105D01*
X91638140Y-34668650D01*
X91595254Y-34752819D01*
X91547279Y-34803615D01*
X91479458Y-34820410D01*
X91413323Y-34797872D01*
X91374284Y-34752819D01*
X91369515Y-34743459D01*
X91329129Y-34664197D01*
X91242705Y-34545244D01*
X91208073Y-34497576D01*
X91208069Y-34497571D01*
X91154819Y-34444321D01*
X91121334Y-34382998D01*
X91118500Y-34356640D01*
X91118500Y-32967675D01*
X91138185Y-32900636D01*
X91154819Y-32879994D01*
X91839994Y-32194819D01*
X91901317Y-32161334D01*
X91927675Y-32158500D01*
X99256640Y-32158500D01*
X99323679Y-32178185D01*
X99344321Y-32194819D01*
X99397571Y-32248069D01*
X99397576Y-32248073D01*
X99506156Y-32326960D01*
X99564197Y-32369129D01*
X99681128Y-32428709D01*
X99747705Y-32462632D01*
X99747707Y-32462632D01*
X99747710Y-32462634D01*
X99816567Y-32485007D01*
X99943591Y-32526280D01*
X100045305Y-32542390D01*
X100147019Y-32558500D01*
X100147020Y-32558500D01*
X100352980Y-32558500D01*
X100352981Y-32558500D01*
X100556408Y-32526280D01*
X100752290Y-32462634D01*
X100935803Y-32369129D01*
X101102430Y-32248068D01*
X101155679Y-32194819D01*
X101217002Y-32161334D01*
X101243360Y-32158500D01*
X103072325Y-32158500D01*
X103139364Y-32178185D01*
X103160006Y-32194819D01*
X104555181Y-33589994D01*
X104588666Y-33651317D01*
X104591500Y-33677675D01*
X104591500Y-41839483D01*
X104626410Y-42014992D01*
X104626413Y-42015001D01*
X104694893Y-42180329D01*
X104694900Y-42180342D01*
X104794321Y-42329134D01*
X104794324Y-42329138D01*
X109555181Y-47089994D01*
X109588666Y-47151317D01*
X109591500Y-47177675D01*
X109591500Y-64383988D01*
X109571815Y-64451027D01*
X109555181Y-64471669D01*
X109450803Y-64576046D01*
X109357817Y-64726799D01*
X109357815Y-64726804D01*
X109302101Y-64894936D01*
X109292421Y-64989691D01*
X109266024Y-65054383D01*
X109208843Y-65094534D01*
X109139032Y-65097397D01*
X109078756Y-65062062D01*
X109058578Y-65033383D01*
X108973602Y-64866608D01*
X108872181Y-64727015D01*
X108848702Y-64661209D01*
X108848500Y-64654130D01*
X108848500Y-48100520D01*
X108848499Y-48100516D01*
X108813588Y-47925007D01*
X108813587Y-47925000D01*
X108745102Y-47759664D01*
X108745100Y-47759661D01*
X108745098Y-47759657D01*
X108645679Y-47610866D01*
X108632383Y-47597570D01*
X108519135Y-47484322D01*
X106113311Y-45078498D01*
X103699138Y-42664324D01*
X103699134Y-42664321D01*
X103550342Y-42564900D01*
X103550329Y-42564893D01*
X103385001Y-42496413D01*
X103384992Y-42496410D01*
X103209483Y-42461500D01*
X103209479Y-42461500D01*
X94035457Y-42461500D01*
X93968418Y-42441815D01*
X93924972Y-42393795D01*
X93869129Y-42284197D01*
X93807330Y-42199137D01*
X93748073Y-42117576D01*
X93748069Y-42117571D01*
X93602428Y-41971930D01*
X93602423Y-41971926D01*
X93435806Y-41850873D01*
X93435805Y-41850872D01*
X93435803Y-41850871D01*
X93377119Y-41820970D01*
X93252294Y-41757367D01*
X93056408Y-41693719D01*
X92880794Y-41665905D01*
X92852981Y-41661500D01*
X92647019Y-41661500D01*
X92622550Y-41665375D01*
X92443591Y-41693719D01*
X92247705Y-41757367D01*
X92064193Y-41850873D01*
X91897576Y-41971926D01*
X91897571Y-41971930D01*
X91751930Y-42117571D01*
X91751926Y-42117576D01*
X91630871Y-42284195D01*
X91590484Y-42363459D01*
X91542510Y-42414254D01*
X91474689Y-42431049D01*
X91408554Y-42408511D01*
X91369516Y-42363459D01*
X91329128Y-42284195D01*
X91208073Y-42117576D01*
X91208069Y-42117571D01*
X91062428Y-41971930D01*
X91062423Y-41971926D01*
X90895806Y-41850873D01*
X90895805Y-41850872D01*
X90895803Y-41850871D01*
X90837119Y-41820970D01*
X90712294Y-41757367D01*
X90516408Y-41693719D01*
X90340794Y-41665905D01*
X90312981Y-41661500D01*
X90107019Y-41661500D01*
X90082550Y-41665375D01*
X89903591Y-41693719D01*
X89707705Y-41757367D01*
X89524193Y-41850873D01*
X89357576Y-41971926D01*
X89357571Y-41971930D01*
X89211930Y-42117571D01*
X89211926Y-42117576D01*
X89090871Y-42284195D01*
X89050484Y-42363459D01*
X89002510Y-42414254D01*
X88934689Y-42431049D01*
X88868554Y-42408511D01*
X88829516Y-42363459D01*
X88789128Y-42284195D01*
X88668073Y-42117576D01*
X88668069Y-42117571D01*
X88522428Y-41971930D01*
X88522423Y-41971926D01*
X88355806Y-41850873D01*
X88355805Y-41850872D01*
X88355803Y-41850871D01*
X88297119Y-41820970D01*
X88172294Y-41757367D01*
X87976408Y-41693719D01*
X87800794Y-41665905D01*
X87772981Y-41661500D01*
X87567019Y-41661500D01*
X87542550Y-41665375D01*
X87363591Y-41693719D01*
X87167705Y-41757367D01*
X86984193Y-41850873D01*
X86817576Y-41971926D01*
X86817571Y-41971930D01*
X86671930Y-42117571D01*
X86671926Y-42117576D01*
X86612669Y-42199137D01*
X86557339Y-42241803D01*
X86487726Y-42247782D01*
X86425931Y-42215176D01*
X86394645Y-42165255D01*
X86378846Y-42117576D01*
X86372115Y-42097262D01*
X86279030Y-41946348D01*
X86153652Y-41820970D01*
X86002738Y-41727885D01*
X85899630Y-41693719D01*
X85834427Y-41672113D01*
X85730545Y-41661500D01*
X84529462Y-41661500D01*
X84529446Y-41661501D01*
X84425572Y-41672113D01*
X84257264Y-41727884D01*
X84257259Y-41727886D01*
X84106346Y-41820971D01*
X83980971Y-41946346D01*
X83887886Y-42097259D01*
X83887884Y-42097264D01*
X83832113Y-42265572D01*
X83821500Y-42369447D01*
X83821500Y-44370537D01*
X83821501Y-44370553D01*
X83832113Y-44474427D01*
X83867070Y-44579921D01*
X83887885Y-44642738D01*
X83980970Y-44793652D01*
X84106348Y-44919030D01*
X84257262Y-45012115D01*
X84425574Y-45067887D01*
X84529455Y-45078500D01*
X85730544Y-45078499D01*
X85834426Y-45067887D01*
X86002738Y-45012115D01*
X86153652Y-44919030D01*
X86279030Y-44793652D01*
X86372115Y-44642738D01*
X86394646Y-44574742D01*
X86434417Y-44517299D01*
X86498932Y-44490475D01*
X86567708Y-44502789D01*
X86612669Y-44540862D01*
X86671926Y-44622424D01*
X86817571Y-44768069D01*
X86817576Y-44768073D01*
X86908881Y-44834409D01*
X86984197Y-44889129D01*
X87101128Y-44948709D01*
X87167705Y-44982632D01*
X87167707Y-44982632D01*
X87167710Y-44982634D01*
X87258437Y-45012113D01*
X87363591Y-45046280D01*
X87465305Y-45062390D01*
X87567019Y-45078500D01*
X87567020Y-45078500D01*
X87772980Y-45078500D01*
X87772981Y-45078500D01*
X87976408Y-45046280D01*
X88172290Y-44982634D01*
X88355803Y-44889129D01*
X88522430Y-44768068D01*
X88668068Y-44622430D01*
X88789129Y-44455803D01*
X88829515Y-44376540D01*
X88877490Y-44325745D01*
X88945311Y-44308950D01*
X89011446Y-44331487D01*
X89050485Y-44376541D01*
X89090873Y-44455806D01*
X89211926Y-44622423D01*
X89211930Y-44622428D01*
X89357571Y-44768069D01*
X89357576Y-44768073D01*
X89448881Y-44834409D01*
X89524197Y-44889129D01*
X89641128Y-44948709D01*
X89707705Y-44982632D01*
X89707707Y-44982632D01*
X89707710Y-44982634D01*
X89798437Y-45012113D01*
X89903591Y-45046280D01*
X90005305Y-45062390D01*
X90107019Y-45078500D01*
X90107020Y-45078500D01*
X90312980Y-45078500D01*
X90312981Y-45078500D01*
X90516408Y-45046280D01*
X90712290Y-44982634D01*
X90895803Y-44889129D01*
X91062430Y-44768068D01*
X91208068Y-44622430D01*
X91329129Y-44455803D01*
X91369515Y-44376540D01*
X91417490Y-44325745D01*
X91485311Y-44308950D01*
X91551446Y-44331487D01*
X91590485Y-44376541D01*
X91630873Y-44455806D01*
X91751926Y-44622423D01*
X91751930Y-44622428D01*
X91897571Y-44768069D01*
X91897576Y-44768073D01*
X91988881Y-44834409D01*
X92064197Y-44889129D01*
X92181128Y-44948709D01*
X92247705Y-44982632D01*
X92247707Y-44982632D01*
X92247710Y-44982634D01*
X92338437Y-45012113D01*
X92443591Y-45046280D01*
X92545305Y-45062390D01*
X92647019Y-45078500D01*
X92647020Y-45078500D01*
X92852980Y-45078500D01*
X92852981Y-45078500D01*
X93056408Y-45046280D01*
X93252290Y-44982634D01*
X93435803Y-44889129D01*
X93602430Y-44768068D01*
X93748068Y-44622430D01*
X93869129Y-44455803D01*
X93924972Y-44346204D01*
X93972947Y-44295409D01*
X94035457Y-44278500D01*
X102692325Y-44278500D01*
X102759364Y-44298185D01*
X102780006Y-44314819D01*
X106995181Y-48529994D01*
X107028666Y-48591317D01*
X107031500Y-48617675D01*
X107031500Y-64654130D01*
X107011815Y-64721169D01*
X107007822Y-64727008D01*
X106992055Y-64748712D01*
X106906398Y-64866607D01*
X106820040Y-65036092D01*
X106761256Y-65217008D01*
X106731500Y-65404883D01*
X106731500Y-65595116D01*
X106761256Y-65782991D01*
X106820040Y-65963907D01*
X106899574Y-66119999D01*
X106906398Y-66133392D01*
X107018208Y-66287285D01*
X107152715Y-66421792D01*
X107306608Y-66533602D01*
X107337217Y-66549198D01*
X107476092Y-66619959D01*
X107476094Y-66619959D01*
X107476097Y-66619961D01*
X107573070Y-66651469D01*
X107657008Y-66678743D01*
X107844884Y-66708500D01*
X107844889Y-66708500D01*
X108035116Y-66708500D01*
X108222991Y-66678743D01*
X108403903Y-66619961D01*
X108573392Y-66533602D01*
X108727285Y-66421792D01*
X108861792Y-66287285D01*
X108973602Y-66133392D01*
X109058579Y-65966614D01*
X109106552Y-65915820D01*
X109174373Y-65899025D01*
X109240508Y-65921562D01*
X109283960Y-65976277D01*
X109292421Y-66010308D01*
X109302101Y-66105063D01*
X109357815Y-66273195D01*
X109357817Y-66273200D01*
X109366506Y-66287287D01*
X109450802Y-66423952D01*
X109576048Y-66549198D01*
X109726802Y-66642184D01*
X109894937Y-66697898D01*
X109998712Y-66708500D01*
X109998717Y-66708500D01*
X111001283Y-66708500D01*
X111001288Y-66708500D01*
X111105063Y-66697898D01*
X111273198Y-66642184D01*
X111423952Y-66549198D01*
X111549198Y-66423952D01*
X111642184Y-66273198D01*
X111697898Y-66105063D01*
X111708500Y-66001288D01*
X111708500Y-64998712D01*
X111697898Y-64894937D01*
X111642184Y-64726802D01*
X111549198Y-64576048D01*
X111444819Y-64471669D01*
X111411334Y-64410346D01*
X111408500Y-64383988D01*
X111408500Y-46660520D01*
X111408499Y-46660516D01*
X111373588Y-46485007D01*
X111373587Y-46485000D01*
X111346696Y-46420079D01*
X111336297Y-46394975D01*
X111305106Y-46319670D01*
X111305099Y-46319657D01*
X111205678Y-46170865D01*
X111205675Y-46170861D01*
X106444819Y-41410005D01*
X106411334Y-41348682D01*
X106408500Y-41322324D01*
X106408500Y-40615186D01*
X110099500Y-40615186D01*
X110099500Y-40884813D01*
X110129686Y-41152719D01*
X110129688Y-41152731D01*
X110189684Y-41415594D01*
X110189687Y-41415602D01*
X110278734Y-41670082D01*
X110395714Y-41912994D01*
X110395716Y-41912997D01*
X110539162Y-42141289D01*
X110707266Y-42352085D01*
X110897915Y-42542734D01*
X111108711Y-42710838D01*
X111337003Y-42854284D01*
X111579921Y-42971267D01*
X111771049Y-43038145D01*
X111834397Y-43060312D01*
X111834405Y-43060315D01*
X111834408Y-43060315D01*
X111834409Y-43060316D01*
X112097268Y-43120312D01*
X112365187Y-43150499D01*
X112365188Y-43150500D01*
X112365191Y-43150500D01*
X112634812Y-43150500D01*
X112634812Y-43150499D01*
X112902732Y-43120312D01*
X113165591Y-43060316D01*
X113420079Y-42971267D01*
X113662997Y-42854284D01*
X113891289Y-42710838D01*
X114102085Y-42542734D01*
X114292734Y-42352085D01*
X114460838Y-42141289D01*
X114604284Y-41912997D01*
X114721267Y-41670079D01*
X114810316Y-41415591D01*
X114870312Y-41152732D01*
X114900500Y-40884809D01*
X114900500Y-40615191D01*
X114870312Y-40347268D01*
X114810316Y-40084409D01*
X114721267Y-39829921D01*
X114604284Y-39587003D01*
X114460838Y-39358711D01*
X114292734Y-39147915D01*
X114102085Y-38957266D01*
X113891289Y-38789162D01*
X113662997Y-38645716D01*
X113662994Y-38645714D01*
X113420082Y-38528734D01*
X113165602Y-38439687D01*
X113165594Y-38439684D01*
X112968446Y-38394687D01*
X112902732Y-38379688D01*
X112902728Y-38379687D01*
X112902719Y-38379686D01*
X112634813Y-38349500D01*
X112634809Y-38349500D01*
X112365191Y-38349500D01*
X112365186Y-38349500D01*
X112097280Y-38379686D01*
X112097268Y-38379688D01*
X111834405Y-38439684D01*
X111834397Y-38439687D01*
X111579917Y-38528734D01*
X111337005Y-38645714D01*
X111108712Y-38789161D01*
X110897915Y-38957265D01*
X110707267Y-39147914D01*
X110539161Y-39358712D01*
X110395714Y-39587005D01*
X110278734Y-39829917D01*
X110189687Y-40084397D01*
X110189684Y-40084405D01*
X110129688Y-40347268D01*
X110129686Y-40347280D01*
X110099500Y-40615186D01*
X106408500Y-40615186D01*
X106408500Y-33160520D01*
X106408499Y-33160516D01*
X106373588Y-32985007D01*
X106373587Y-32985000D01*
X106313310Y-32839479D01*
X106305103Y-32819664D01*
X106205678Y-32670865D01*
X106205675Y-32670861D01*
X104079138Y-30544324D01*
X104079134Y-30544321D01*
X103930342Y-30444900D01*
X103930329Y-30444893D01*
X103765001Y-30376413D01*
X103764992Y-30376410D01*
X103589483Y-30341500D01*
X103589479Y-30341500D01*
X101243360Y-30341500D01*
X101176321Y-30321815D01*
X101155679Y-30305181D01*
X101102428Y-30251930D01*
X101102423Y-30251926D01*
X100935806Y-30130873D01*
X100935805Y-30130872D01*
X100935803Y-30130871D01*
X100878496Y-30101671D01*
X100752294Y-30037367D01*
X100556408Y-29973719D01*
X100380794Y-29945905D01*
X100352981Y-29941500D01*
X100147019Y-29941500D01*
X100122550Y-29945375D01*
X99943591Y-29973719D01*
X99747705Y-30037367D01*
X99564193Y-30130873D01*
X99397576Y-30251926D01*
X99397571Y-30251930D01*
X99344321Y-30305181D01*
X99282998Y-30338666D01*
X99256640Y-30341500D01*
X91410520Y-30341500D01*
X91381397Y-30347292D01*
X91381396Y-30347291D01*
X91235005Y-30376411D01*
X91234999Y-30376413D01*
X91069662Y-30444898D01*
X90920863Y-30544322D01*
X89504324Y-31960861D01*
X89504321Y-31960865D01*
X89404898Y-32109660D01*
X89349425Y-32243586D01*
X89336414Y-32274995D01*
X89336411Y-32275007D01*
X89301500Y-32450516D01*
X89301500Y-34356640D01*
X89281815Y-34423679D01*
X89265181Y-34444321D01*
X89211930Y-34497571D01*
X89211926Y-34497576D01*
X89090871Y-34664195D01*
X89050484Y-34743459D01*
X89002510Y-34794254D01*
X88934689Y-34811049D01*
X88868554Y-34788511D01*
X88829516Y-34743459D01*
X88789128Y-34664195D01*
X88668073Y-34497576D01*
X88668069Y-34497571D01*
X88614819Y-34444321D01*
X88581334Y-34382998D01*
X88578500Y-34356640D01*
X88578500Y-32100832D01*
X88598185Y-32033793D01*
X88602164Y-32027972D01*
X88669129Y-31935803D01*
X88762634Y-31752290D01*
X88826280Y-31556408D01*
X88858500Y-31352981D01*
X88858500Y-31147019D01*
X88826280Y-30943592D01*
X88762634Y-30747710D01*
X88762632Y-30747707D01*
X88762632Y-30747705D01*
X88728709Y-30681128D01*
X88669129Y-30564197D01*
X88653661Y-30542908D01*
X88548073Y-30397576D01*
X88548069Y-30397571D01*
X88402428Y-30251930D01*
X88402423Y-30251926D01*
X88235806Y-30130873D01*
X88235805Y-30130872D01*
X88235803Y-30130871D01*
X88178496Y-30101671D01*
X88052294Y-30037367D01*
X87856408Y-29973719D01*
X87680794Y-29945905D01*
X87652981Y-29941500D01*
X87447019Y-29941500D01*
X87422550Y-29945375D01*
X87243591Y-29973719D01*
X87047705Y-30037367D01*
X86864193Y-30130873D01*
X86697576Y-30251926D01*
X86697571Y-30251930D01*
X86644321Y-30305181D01*
X86582998Y-30338666D01*
X86556640Y-30341500D01*
X79910520Y-30341500D01*
X79881397Y-30347292D01*
X79881396Y-30347291D01*
X79735005Y-30376411D01*
X79734999Y-30376413D01*
X79569662Y-30444898D01*
X79420863Y-30544322D01*
X77794324Y-32170861D01*
X77794321Y-32170865D01*
X77694900Y-32319657D01*
X77694893Y-32319670D01*
X77643024Y-32444897D01*
X77643024Y-32444898D01*
X77626413Y-32484999D01*
X77626411Y-32485007D01*
X77591500Y-32660516D01*
X77591500Y-70327350D01*
X77571815Y-70394389D01*
X77555181Y-70415031D01*
X77540072Y-70430139D01*
X77540072Y-70430140D01*
X77540070Y-70430142D01*
X77512928Y-70467500D01*
X77423634Y-70590401D01*
X77333703Y-70766898D01*
X77272487Y-70955299D01*
X77241500Y-71150948D01*
X77241500Y-71349051D01*
X77272487Y-71544700D01*
X77333703Y-71733101D01*
X77422887Y-71908132D01*
X77423634Y-71909598D01*
X77540070Y-72069858D01*
X77680142Y-72209930D01*
X77840402Y-72326366D01*
X77923790Y-72368854D01*
X78016898Y-72416296D01*
X78016900Y-72416296D01*
X78016903Y-72416298D01*
X78117888Y-72449110D01*
X78205299Y-72477512D01*
X78400949Y-72508500D01*
X78400954Y-72508500D01*
X78599051Y-72508500D01*
X78794700Y-72477512D01*
X78983097Y-72416298D01*
X79159598Y-72326366D01*
X79319858Y-72209930D01*
X79459930Y-72069858D01*
X79576366Y-71909598D01*
X79666298Y-71733097D01*
X79727512Y-71544700D01*
X79731722Y-71518117D01*
X79758500Y-71349051D01*
X79758500Y-71150948D01*
X79727512Y-70955299D01*
X79666296Y-70766898D01*
X79576365Y-70590401D01*
X79569022Y-70580294D01*
X79459930Y-70430142D01*
X79444819Y-70415031D01*
X79411334Y-70353708D01*
X79408500Y-70327350D01*
X79408500Y-33177675D01*
X79428185Y-33110636D01*
X79444819Y-33089994D01*
X80339994Y-32194819D01*
X80401317Y-32161334D01*
X80427675Y-32158500D01*
X86556640Y-32158500D01*
X86584005Y-32166535D01*
X86612080Y-32171584D01*
X86619562Y-32176976D01*
X86623679Y-32178185D01*
X86641083Y-32191696D01*
X86642724Y-32193222D01*
X86697570Y-32248068D01*
X86716455Y-32261788D01*
X86721943Y-32266892D01*
X86736110Y-32290739D01*
X86753049Y-32312704D01*
X86754846Y-32322275D01*
X86757630Y-32326960D01*
X86757330Y-32335496D01*
X86761500Y-32357696D01*
X86761500Y-34356640D01*
X86741815Y-34423679D01*
X86725181Y-34444321D01*
X86671930Y-34497571D01*
X86671926Y-34497576D01*
X86550871Y-34664195D01*
X86510484Y-34743459D01*
X86462510Y-34794254D01*
X86394689Y-34811049D01*
X86328554Y-34788511D01*
X86289516Y-34743459D01*
X86249128Y-34664195D01*
X86128073Y-34497576D01*
X86128069Y-34497571D01*
X85982428Y-34351930D01*
X85982423Y-34351926D01*
X85815806Y-34230873D01*
X85815805Y-34230872D01*
X85815803Y-34230871D01*
X85758496Y-34201671D01*
X85632294Y-34137367D01*
X85436408Y-34073719D01*
X85260794Y-34045905D01*
X85232981Y-34041500D01*
X85027019Y-34041500D01*
X85002550Y-34045375D01*
X84823591Y-34073719D01*
X84627705Y-34137367D01*
X84444193Y-34230873D01*
X84277576Y-34351926D01*
X84277571Y-34351930D01*
X84131930Y-34497571D01*
X84131926Y-34497576D01*
X84010873Y-34664193D01*
X83917367Y-34847705D01*
X83853719Y-35043591D01*
X83821500Y-35247019D01*
X83821500Y-35592324D01*
X83801815Y-35659363D01*
X83785181Y-35680005D01*
X80544324Y-38920861D01*
X80544321Y-38920865D01*
X80444898Y-39069661D01*
X80444897Y-39069663D01*
X80412485Y-39147914D01*
X80412485Y-39147915D01*
X80376413Y-39234999D01*
X80376411Y-39235007D01*
X80341500Y-39410516D01*
X80341500Y-45089483D01*
X80376410Y-45264992D01*
X80376413Y-45265001D01*
X80444893Y-45430329D01*
X80444900Y-45430342D01*
X80544321Y-45579134D01*
X80544324Y-45579138D01*
X85865181Y-50899994D01*
X85898666Y-50961317D01*
X85901500Y-50987675D01*
X85901500Y-64133988D01*
X85881815Y-64201027D01*
X85865181Y-64221669D01*
X85760803Y-64326046D01*
X85667817Y-64476799D01*
X85667815Y-64476804D01*
X85612101Y-64644936D01*
X85602421Y-64739691D01*
X85576024Y-64804383D01*
X85518843Y-64844534D01*
X85449032Y-64847397D01*
X85388756Y-64812062D01*
X85368578Y-64783383D01*
X85346316Y-64739691D01*
X85283602Y-64616608D01*
X85171792Y-64462715D01*
X85144819Y-64435742D01*
X85111334Y-64374419D01*
X85108500Y-64348061D01*
X85108500Y-53493360D01*
X85128185Y-53426321D01*
X85144819Y-53405679D01*
X85198068Y-53352430D01*
X85319129Y-53185803D01*
X85412634Y-53002290D01*
X85476280Y-52806408D01*
X85508500Y-52602981D01*
X85508500Y-52397019D01*
X85476280Y-52193592D01*
X85412634Y-51997710D01*
X85412632Y-51997707D01*
X85412632Y-51997705D01*
X85378709Y-51931128D01*
X85319129Y-51814197D01*
X85289980Y-51774076D01*
X85198073Y-51647576D01*
X85198069Y-51647571D01*
X85052428Y-51501930D01*
X85052423Y-51501926D01*
X84885806Y-51380873D01*
X84885805Y-51380872D01*
X84885803Y-51380871D01*
X84828496Y-51351671D01*
X84702294Y-51287367D01*
X84506408Y-51223719D01*
X84330794Y-51195905D01*
X84302981Y-51191500D01*
X84097019Y-51191500D01*
X84072550Y-51195375D01*
X83893591Y-51223719D01*
X83697705Y-51287367D01*
X83514193Y-51380873D01*
X83347576Y-51501926D01*
X83347571Y-51501930D01*
X83201930Y-51647571D01*
X83201926Y-51647576D01*
X83080873Y-51814193D01*
X82987367Y-51997705D01*
X82923719Y-52193591D01*
X82891500Y-52397019D01*
X82891500Y-52602980D01*
X82923719Y-52806408D01*
X82987367Y-53002294D01*
X83051671Y-53128496D01*
X83078602Y-53181350D01*
X83080873Y-53185806D01*
X83201926Y-53352423D01*
X83201930Y-53352428D01*
X83255181Y-53405679D01*
X83288666Y-53467002D01*
X83291500Y-53493360D01*
X83291500Y-64472949D01*
X83271815Y-64539988D01*
X83267818Y-64545835D01*
X83216398Y-64616607D01*
X83130040Y-64786092D01*
X83071256Y-64967008D01*
X83041500Y-65154883D01*
X83041500Y-65345116D01*
X83071256Y-65532991D01*
X83130040Y-65713907D01*
X83216211Y-65883025D01*
X83216398Y-65883392D01*
X83328208Y-66037285D01*
X83462715Y-66171792D01*
X83616608Y-66283602D01*
X83647217Y-66299198D01*
X83786092Y-66369959D01*
X83786094Y-66369959D01*
X83786097Y-66369961D01*
X83883070Y-66401469D01*
X83967008Y-66428743D01*
X84154884Y-66458500D01*
X84154889Y-66458500D01*
X84345116Y-66458500D01*
X84532991Y-66428743D01*
X84554393Y-66421789D01*
X84713903Y-66369961D01*
X84883392Y-66283602D01*
X85037285Y-66171792D01*
X85171792Y-66037285D01*
X85283602Y-65883392D01*
X85368579Y-65716614D01*
X85416552Y-65665820D01*
X85484373Y-65649025D01*
X85550508Y-65671562D01*
X85593960Y-65726277D01*
X85602421Y-65760308D01*
X85612101Y-65855063D01*
X85667815Y-66023195D01*
X85667817Y-66023200D01*
X85676506Y-66037287D01*
X85760802Y-66173952D01*
X85886048Y-66299198D01*
X86036802Y-66392184D01*
X86204937Y-66447898D01*
X86308712Y-66458500D01*
X86682325Y-66458500D01*
X86749364Y-66478185D01*
X86770006Y-66494819D01*
X92480861Y-72205675D01*
X92480865Y-72205678D01*
X92629664Y-72305103D01*
X92746574Y-72353528D01*
X92795000Y-72373587D01*
X92970516Y-72408499D01*
X92970520Y-72408500D01*
X92970521Y-72408500D01*
X98572325Y-72408500D01*
X98639364Y-72428185D01*
X98660006Y-72444819D01*
X100670861Y-74455675D01*
X100670865Y-74455678D01*
X100819664Y-74555103D01*
X100936574Y-74603528D01*
X100985000Y-74623587D01*
X101124495Y-74651334D01*
X101160516Y-74658499D01*
X101160520Y-74658500D01*
X101160521Y-74658500D01*
X113072325Y-74658500D01*
X113139364Y-74678185D01*
X113160006Y-74694819D01*
X116805181Y-78339994D01*
X116838666Y-78401317D01*
X116841500Y-78427675D01*
X116841500Y-111572325D01*
X116821815Y-111639364D01*
X116805181Y-111660006D01*
X113660006Y-114805181D01*
X113598683Y-114838666D01*
X113572325Y-114841500D01*
X88282500Y-114841500D01*
X88215461Y-114821815D01*
X88169706Y-114769011D01*
X88158500Y-114717500D01*
X88158500Y-113893360D01*
X88178185Y-113826321D01*
X88194819Y-113805679D01*
X88248068Y-113752430D01*
X88369129Y-113585803D01*
X88409515Y-113506540D01*
X88457490Y-113455745D01*
X88525311Y-113438950D01*
X88591446Y-113461487D01*
X88630485Y-113506541D01*
X88670873Y-113585806D01*
X88791926Y-113752423D01*
X88791930Y-113752428D01*
X88937571Y-113898069D01*
X88937576Y-113898073D01*
X88954001Y-113910006D01*
X89104197Y-114019129D01*
X89221128Y-114078709D01*
X89287705Y-114112632D01*
X89287707Y-114112632D01*
X89287710Y-114112634D01*
X89392707Y-114146749D01*
X89483591Y-114176280D01*
X89585305Y-114192390D01*
X89687019Y-114208500D01*
X89687020Y-114208500D01*
X89892980Y-114208500D01*
X89892981Y-114208500D01*
X90096408Y-114176280D01*
X90292290Y-114112634D01*
X90475803Y-114019129D01*
X90642430Y-113898068D01*
X90788068Y-113752430D01*
X90909129Y-113585803D01*
X91002634Y-113402290D01*
X91066280Y-113206408D01*
X91098500Y-113002981D01*
X91098500Y-111997019D01*
X91066280Y-111793592D01*
X91002634Y-111597710D01*
X91002632Y-111597707D01*
X91002632Y-111597705D01*
X90949515Y-111493459D01*
X90909129Y-111414197D01*
X90893661Y-111392908D01*
X90788073Y-111247576D01*
X90788069Y-111247571D01*
X90642428Y-111101930D01*
X90642423Y-111101926D01*
X90475806Y-110980873D01*
X90475805Y-110980872D01*
X90475803Y-110980871D01*
X90418496Y-110951671D01*
X90292294Y-110887367D01*
X90096408Y-110823719D01*
X89920794Y-110795905D01*
X89892981Y-110791500D01*
X89687019Y-110791500D01*
X89662550Y-110795375D01*
X89483591Y-110823719D01*
X89287705Y-110887367D01*
X89104193Y-110980873D01*
X88937576Y-111101926D01*
X88937571Y-111101930D01*
X88791930Y-111247571D01*
X88791926Y-111247576D01*
X88670871Y-111414195D01*
X88630484Y-111493459D01*
X88582510Y-111544254D01*
X88514689Y-111561049D01*
X88448554Y-111538511D01*
X88409516Y-111493459D01*
X88369128Y-111414195D01*
X88248073Y-111247576D01*
X88248069Y-111247571D01*
X88102428Y-111101930D01*
X88102423Y-111101926D01*
X87935806Y-110980873D01*
X87935805Y-110980872D01*
X87935803Y-110980871D01*
X87878496Y-110951671D01*
X87752294Y-110887367D01*
X87556408Y-110823719D01*
X87380794Y-110795905D01*
X87352981Y-110791500D01*
X87147019Y-110791500D01*
X87122550Y-110795375D01*
X86943591Y-110823719D01*
X86747705Y-110887367D01*
X86564193Y-110980873D01*
X86397576Y-111101926D01*
X86397571Y-111101930D01*
X86251930Y-111247571D01*
X86251926Y-111247576D01*
X86130871Y-111414195D01*
X86090484Y-111493459D01*
X86042510Y-111544254D01*
X85974689Y-111561049D01*
X85908554Y-111538511D01*
X85869516Y-111493459D01*
X85829128Y-111414195D01*
X85708073Y-111247576D01*
X85708069Y-111247571D01*
X85562428Y-111101930D01*
X85562423Y-111101926D01*
X85395806Y-110980873D01*
X85395805Y-110980872D01*
X85395803Y-110980871D01*
X85338496Y-110951671D01*
X85212294Y-110887367D01*
X85016408Y-110823719D01*
X84840794Y-110795905D01*
X84812981Y-110791500D01*
X84607019Y-110791500D01*
X84582550Y-110795375D01*
X84403591Y-110823719D01*
X84207705Y-110887367D01*
X84024193Y-110980873D01*
X83857576Y-111101926D01*
X83857571Y-111101930D01*
X83711930Y-111247571D01*
X83711926Y-111247576D01*
X83590871Y-111414195D01*
X83550484Y-111493459D01*
X83502510Y-111544254D01*
X83434689Y-111561049D01*
X83368554Y-111538511D01*
X83329516Y-111493459D01*
X83289128Y-111414195D01*
X83168073Y-111247576D01*
X83168069Y-111247571D01*
X83022428Y-111101930D01*
X83022423Y-111101926D01*
X82855806Y-110980873D01*
X82855805Y-110980872D01*
X82855803Y-110980871D01*
X82798496Y-110951671D01*
X82672294Y-110887367D01*
X82476408Y-110823719D01*
X82300794Y-110795905D01*
X82272981Y-110791500D01*
X82067019Y-110791500D01*
X82042550Y-110795375D01*
X81863591Y-110823719D01*
X81667705Y-110887367D01*
X81484193Y-110980873D01*
X81317576Y-111101926D01*
X81317571Y-111101930D01*
X81171930Y-111247571D01*
X81171926Y-111247576D01*
X81050873Y-111414193D01*
X80957367Y-111597705D01*
X80893719Y-111793591D01*
X80861500Y-111997019D01*
X80861500Y-113002980D01*
X80893719Y-113206408D01*
X80957367Y-113402294D01*
X81050873Y-113585806D01*
X81171926Y-113752423D01*
X81171930Y-113752428D01*
X81317571Y-113898069D01*
X81317576Y-113898073D01*
X81334001Y-113910006D01*
X81484197Y-114019129D01*
X81601128Y-114078709D01*
X81667705Y-114112632D01*
X81667707Y-114112632D01*
X81667710Y-114112634D01*
X81772707Y-114146749D01*
X81863591Y-114176280D01*
X81965305Y-114192390D01*
X82067019Y-114208500D01*
X82067020Y-114208500D01*
X82272980Y-114208500D01*
X82272981Y-114208500D01*
X82476408Y-114176280D01*
X82672290Y-114112634D01*
X82855803Y-114019129D01*
X83022430Y-113898068D01*
X83168068Y-113752430D01*
X83289129Y-113585803D01*
X83329515Y-113506540D01*
X83377490Y-113455745D01*
X83445311Y-113438950D01*
X83511446Y-113461487D01*
X83550485Y-113506541D01*
X83590873Y-113585806D01*
X83711926Y-113752423D01*
X83711930Y-113752428D01*
X83857571Y-113898069D01*
X83857576Y-113898073D01*
X83874001Y-113910006D01*
X84024197Y-114019129D01*
X84141128Y-114078709D01*
X84207705Y-114112632D01*
X84207707Y-114112632D01*
X84207710Y-114112634D01*
X84312707Y-114146749D01*
X84403591Y-114176280D01*
X84505305Y-114192390D01*
X84607019Y-114208500D01*
X84607020Y-114208500D01*
X84812980Y-114208500D01*
X84812981Y-114208500D01*
X85016408Y-114176280D01*
X85212290Y-114112634D01*
X85395803Y-114019129D01*
X85562430Y-113898068D01*
X85708068Y-113752430D01*
X85829129Y-113585803D01*
X85869515Y-113506540D01*
X85917490Y-113455745D01*
X85985311Y-113438950D01*
X86051446Y-113461487D01*
X86090485Y-113506541D01*
X86130873Y-113585806D01*
X86251926Y-113752423D01*
X86251930Y-113752428D01*
X86305181Y-113805679D01*
X86338666Y-113867002D01*
X86341500Y-113893360D01*
X86341500Y-114717500D01*
X86321815Y-114784539D01*
X86269011Y-114830294D01*
X86217500Y-114841500D01*
X63427675Y-114841500D01*
X63360636Y-114821815D01*
X63339994Y-114805181D01*
X62444819Y-113910006D01*
X62411334Y-113848683D01*
X62408500Y-113822325D01*
X62408500Y-108397682D01*
X97450000Y-108397682D01*
X97450000Y-108602317D01*
X97482009Y-108804417D01*
X97545244Y-108999031D01*
X97638141Y-109181350D01*
X97638147Y-109181359D01*
X97670523Y-109225921D01*
X97670524Y-109225922D01*
X98350000Y-108546446D01*
X98350000Y-108552661D01*
X98377259Y-108654394D01*
X98429920Y-108745606D01*
X98504394Y-108820080D01*
X98595606Y-108872741D01*
X98697339Y-108900000D01*
X98703553Y-108900000D01*
X98024076Y-109579474D01*
X98068650Y-109611859D01*
X98250968Y-109704755D01*
X98445582Y-109767990D01*
X98647683Y-109800000D01*
X98852317Y-109800000D01*
X99054417Y-109767990D01*
X99249031Y-109704755D01*
X99431349Y-109611859D01*
X99475921Y-109579474D01*
X98796447Y-108900000D01*
X98802661Y-108900000D01*
X98904394Y-108872741D01*
X98995606Y-108820080D01*
X99070080Y-108745606D01*
X99122741Y-108654394D01*
X99150000Y-108552661D01*
X99150000Y-108546447D01*
X99829474Y-109225921D01*
X99861859Y-109181349D01*
X99954755Y-108999031D01*
X100017990Y-108804417D01*
X100050000Y-108602317D01*
X100050000Y-108397682D01*
X103450000Y-108397682D01*
X103450000Y-108602317D01*
X103482009Y-108804417D01*
X103545244Y-108999031D01*
X103638141Y-109181350D01*
X103638147Y-109181359D01*
X103670523Y-109225921D01*
X103670524Y-109225922D01*
X104350000Y-108546446D01*
X104350000Y-108552661D01*
X104377259Y-108654394D01*
X104429920Y-108745606D01*
X104504394Y-108820080D01*
X104595606Y-108872741D01*
X104697339Y-108900000D01*
X104703553Y-108900000D01*
X104024076Y-109579474D01*
X104068650Y-109611859D01*
X104250968Y-109704755D01*
X104445582Y-109767990D01*
X104647683Y-109800000D01*
X104852317Y-109800000D01*
X105054417Y-109767990D01*
X105249031Y-109704755D01*
X105431349Y-109611859D01*
X105475921Y-109579474D01*
X104796447Y-108900000D01*
X104802661Y-108900000D01*
X104904394Y-108872741D01*
X104995606Y-108820080D01*
X105070080Y-108745606D01*
X105122741Y-108654394D01*
X105150000Y-108552661D01*
X105150000Y-108546448D01*
X105829474Y-109225922D01*
X105829474Y-109225921D01*
X105861859Y-109181349D01*
X105954755Y-108999031D01*
X106017990Y-108804417D01*
X106050000Y-108602317D01*
X106050000Y-108397682D01*
X106017990Y-108195582D01*
X105954755Y-108000968D01*
X105861859Y-107818650D01*
X105829474Y-107774077D01*
X105829474Y-107774076D01*
X105150000Y-108453551D01*
X105150000Y-108447339D01*
X105122741Y-108345606D01*
X105070080Y-108254394D01*
X104995606Y-108179920D01*
X104904394Y-108127259D01*
X104802661Y-108100000D01*
X104796446Y-108100000D01*
X105475922Y-107420524D01*
X105475921Y-107420523D01*
X105431359Y-107388147D01*
X105431350Y-107388141D01*
X105249031Y-107295244D01*
X105054417Y-107232009D01*
X104852317Y-107200000D01*
X104647683Y-107200000D01*
X104445582Y-107232009D01*
X104250968Y-107295244D01*
X104068644Y-107388143D01*
X104024077Y-107420523D01*
X104024077Y-107420524D01*
X104703554Y-108100000D01*
X104697339Y-108100000D01*
X104595606Y-108127259D01*
X104504394Y-108179920D01*
X104429920Y-108254394D01*
X104377259Y-108345606D01*
X104350000Y-108447339D01*
X104350000Y-108453553D01*
X103670524Y-107774077D01*
X103670523Y-107774077D01*
X103638143Y-107818644D01*
X103545244Y-108000968D01*
X103482009Y-108195582D01*
X103450000Y-108397682D01*
X100050000Y-108397682D01*
X100017990Y-108195582D01*
X99954755Y-108000968D01*
X99861859Y-107818650D01*
X99829474Y-107774077D01*
X99829474Y-107774076D01*
X99150000Y-108453551D01*
X99150000Y-108447339D01*
X99122741Y-108345606D01*
X99070080Y-108254394D01*
X98995606Y-108179920D01*
X98904394Y-108127259D01*
X98802661Y-108100000D01*
X98796446Y-108100000D01*
X99475922Y-107420524D01*
X99475921Y-107420523D01*
X99431359Y-107388147D01*
X99431350Y-107388141D01*
X99249031Y-107295244D01*
X99054417Y-107232009D01*
X98852317Y-107200000D01*
X98647683Y-107200000D01*
X98445582Y-107232009D01*
X98250968Y-107295244D01*
X98068644Y-107388143D01*
X98024077Y-107420523D01*
X98024077Y-107420524D01*
X98703554Y-108100000D01*
X98697339Y-108100000D01*
X98595606Y-108127259D01*
X98504394Y-108179920D01*
X98429920Y-108254394D01*
X98377259Y-108345606D01*
X98350000Y-108447339D01*
X98350000Y-108453553D01*
X97670524Y-107774077D01*
X97670523Y-107774077D01*
X97638143Y-107818644D01*
X97545244Y-108000968D01*
X97482009Y-108195582D01*
X97450000Y-108397682D01*
X62408500Y-108397682D01*
X62408500Y-95534173D01*
X62428185Y-95467134D01*
X62480989Y-95421379D01*
X62550147Y-95411435D01*
X62613703Y-95440460D01*
X62651477Y-95499238D01*
X62653391Y-95506581D01*
X62689683Y-95665590D01*
X62689687Y-95665602D01*
X62778734Y-95920082D01*
X62895714Y-96162994D01*
X62895716Y-96162997D01*
X63039162Y-96391289D01*
X63207266Y-96602085D01*
X63397915Y-96792734D01*
X63608711Y-96960838D01*
X63837003Y-97104284D01*
X64079921Y-97221267D01*
X64271049Y-97288145D01*
X64334397Y-97310312D01*
X64334405Y-97310315D01*
X64334408Y-97310315D01*
X64334409Y-97310316D01*
X64597268Y-97370312D01*
X64865187Y-97400499D01*
X64865188Y-97400500D01*
X64865191Y-97400500D01*
X65134812Y-97400500D01*
X65134812Y-97400499D01*
X65402732Y-97370312D01*
X65665591Y-97310316D01*
X65920079Y-97221267D01*
X66162997Y-97104284D01*
X66391289Y-96960838D01*
X66602085Y-96792734D01*
X66792734Y-96602085D01*
X66960838Y-96391289D01*
X67104284Y-96162997D01*
X67221267Y-95920079D01*
X67310316Y-95665591D01*
X67370312Y-95402732D01*
X67400500Y-95134809D01*
X67400500Y-94865191D01*
X67370312Y-94597268D01*
X67310316Y-94334409D01*
X67221267Y-94079921D01*
X67104284Y-93837003D01*
X66960838Y-93608711D01*
X66792734Y-93397915D01*
X66602085Y-93207266D01*
X66597534Y-93203637D01*
X66548549Y-93164573D01*
X66391289Y-93039162D01*
X66162997Y-92895716D01*
X66162994Y-92895714D01*
X65920082Y-92778734D01*
X65665602Y-92689687D01*
X65665594Y-92689684D01*
X65468446Y-92644687D01*
X65402732Y-92629688D01*
X65402728Y-92629687D01*
X65402719Y-92629686D01*
X65134813Y-92599500D01*
X65134809Y-92599500D01*
X64865191Y-92599500D01*
X64865186Y-92599500D01*
X64597280Y-92629686D01*
X64597268Y-92629688D01*
X64334405Y-92689684D01*
X64334397Y-92689687D01*
X64079917Y-92778734D01*
X63837005Y-92895714D01*
X63608712Y-93039161D01*
X63397915Y-93207265D01*
X63207265Y-93397915D01*
X63039161Y-93608712D01*
X62895714Y-93837005D01*
X62778734Y-94079917D01*
X62689687Y-94334397D01*
X62689684Y-94334405D01*
X62653391Y-94493419D01*
X62619282Y-94554397D01*
X62557621Y-94587255D01*
X62487984Y-94581560D01*
X62432480Y-94539120D01*
X62408732Y-94473410D01*
X62408500Y-94465826D01*
X62408500Y-87927675D01*
X62428185Y-87860636D01*
X62444819Y-87839994D01*
X66995675Y-83289138D01*
X66995678Y-83289135D01*
X67095103Y-83140336D01*
X67163587Y-82975000D01*
X67198500Y-82799479D01*
X67198500Y-82620521D01*
X67198500Y-82424072D01*
X67218185Y-82357033D01*
X67234819Y-82336391D01*
X67244370Y-82326840D01*
X67326206Y-82245004D01*
X67451894Y-82072009D01*
X67548972Y-81881483D01*
X67615049Y-81678116D01*
X67648500Y-81466916D01*
X67648500Y-81253084D01*
X67615049Y-81041884D01*
X67548972Y-80838517D01*
X67548972Y-80838516D01*
X67458278Y-80660521D01*
X67451894Y-80647991D01*
X67326206Y-80474996D01*
X67175004Y-80323794D01*
X67002009Y-80198106D01*
X67002005Y-80198103D01*
X66998132Y-80195730D01*
X66951254Y-80143920D01*
X66939829Y-80074991D01*
X66967483Y-80010827D01*
X66998132Y-79984270D01*
X67002005Y-79981896D01*
X67002004Y-79981896D01*
X67002009Y-79981894D01*
X67175004Y-79856206D01*
X67266391Y-79764819D01*
X67327714Y-79731334D01*
X67354072Y-79728500D01*
X68142325Y-79728500D01*
X68209364Y-79748185D01*
X68230006Y-79764819D01*
X69555181Y-81089994D01*
X69588666Y-81151317D01*
X69591500Y-81177675D01*
X69591500Y-103589483D01*
X69626410Y-103764992D01*
X69626413Y-103765001D01*
X69694893Y-103930329D01*
X69694900Y-103930342D01*
X69794321Y-104079134D01*
X69794324Y-104079138D01*
X71300861Y-105585675D01*
X71300865Y-105585678D01*
X71449664Y-105685103D01*
X71566574Y-105733528D01*
X71615000Y-105753587D01*
X71759301Y-105782290D01*
X71790516Y-105788499D01*
X71790520Y-105788500D01*
X71790521Y-105788500D01*
X80884543Y-105788500D01*
X80951582Y-105808185D01*
X80995027Y-105856204D01*
X81007433Y-105880552D01*
X81050873Y-105965806D01*
X81171926Y-106132423D01*
X81171930Y-106132428D01*
X81317571Y-106278069D01*
X81317576Y-106278073D01*
X81462908Y-106383661D01*
X81484197Y-106399129D01*
X81601128Y-106458709D01*
X81667705Y-106492632D01*
X81667707Y-106492632D01*
X81667710Y-106492634D01*
X81758437Y-106522113D01*
X81863591Y-106556280D01*
X81965305Y-106572390D01*
X82067019Y-106588500D01*
X82067020Y-106588500D01*
X82272980Y-106588500D01*
X82272981Y-106588500D01*
X82476408Y-106556280D01*
X82672290Y-106492634D01*
X82855803Y-106399129D01*
X83022430Y-106278068D01*
X83168068Y-106132430D01*
X83289129Y-105965803D01*
X83329515Y-105886540D01*
X83377490Y-105835745D01*
X83445311Y-105818950D01*
X83511446Y-105841487D01*
X83550485Y-105886541D01*
X83590873Y-105965806D01*
X83711926Y-106132423D01*
X83711930Y-106132428D01*
X83857571Y-106278069D01*
X83857576Y-106278073D01*
X84002908Y-106383661D01*
X84024197Y-106399129D01*
X84141128Y-106458709D01*
X84207705Y-106492632D01*
X84207707Y-106492632D01*
X84207710Y-106492634D01*
X84298437Y-106522113D01*
X84403591Y-106556280D01*
X84505305Y-106572390D01*
X84607019Y-106588500D01*
X84607020Y-106588500D01*
X84812980Y-106588500D01*
X84812981Y-106588500D01*
X85016408Y-106556280D01*
X85212290Y-106492634D01*
X85395803Y-106399129D01*
X85562430Y-106278068D01*
X85708068Y-106132430D01*
X85829129Y-105965803D01*
X85869515Y-105886540D01*
X85917490Y-105835745D01*
X85985311Y-105818950D01*
X86051446Y-105841487D01*
X86090485Y-105886541D01*
X86130873Y-105965806D01*
X86251926Y-106132423D01*
X86251930Y-106132428D01*
X86397571Y-106278069D01*
X86397576Y-106278073D01*
X86542908Y-106383661D01*
X86564197Y-106399129D01*
X86681128Y-106458709D01*
X86747705Y-106492632D01*
X86747707Y-106492632D01*
X86747710Y-106492634D01*
X86838437Y-106522113D01*
X86943591Y-106556280D01*
X87045305Y-106572390D01*
X87147019Y-106588500D01*
X87147020Y-106588500D01*
X87352980Y-106588500D01*
X87352981Y-106588500D01*
X87556408Y-106556280D01*
X87752290Y-106492634D01*
X87935803Y-106399129D01*
X88102430Y-106278068D01*
X88248068Y-106132430D01*
X88307330Y-106050861D01*
X88362658Y-106008196D01*
X88432272Y-106002216D01*
X88494067Y-106034822D01*
X88525354Y-106084743D01*
X88547885Y-106152738D01*
X88640970Y-106303652D01*
X88766348Y-106429030D01*
X88917262Y-106522115D01*
X89085574Y-106577887D01*
X89189455Y-106588500D01*
X90390544Y-106588499D01*
X90494426Y-106577887D01*
X90662738Y-106522115D01*
X90813652Y-106429030D01*
X90939030Y-106303652D01*
X91032115Y-106152738D01*
X91087887Y-105984426D01*
X91098500Y-105880545D01*
X91098499Y-103879456D01*
X91087887Y-103775574D01*
X91032115Y-103607262D01*
X90939030Y-103456348D01*
X90813652Y-103330970D01*
X90662738Y-103237885D01*
X90559630Y-103203719D01*
X90494427Y-103182113D01*
X90390545Y-103171500D01*
X89189462Y-103171500D01*
X89189446Y-103171501D01*
X89085572Y-103182113D01*
X88917264Y-103237884D01*
X88917259Y-103237886D01*
X88766346Y-103330971D01*
X88640971Y-103456346D01*
X88547886Y-103607259D01*
X88547885Y-103607262D01*
X88525354Y-103675257D01*
X88520803Y-103681828D01*
X88519529Y-103689719D01*
X88501201Y-103710141D01*
X88485581Y-103732701D01*
X88478200Y-103735769D01*
X88472862Y-103741718D01*
X88446404Y-103748989D01*
X88421065Y-103759524D01*
X88413196Y-103758115D01*
X88405490Y-103760233D01*
X88379301Y-103752045D01*
X88352289Y-103747209D01*
X88344727Y-103741237D01*
X88338803Y-103739385D01*
X88322292Y-103723518D01*
X88312536Y-103715812D01*
X88309821Y-103712567D01*
X88248068Y-103627570D01*
X88190917Y-103570419D01*
X88187388Y-103566200D01*
X88175541Y-103539017D01*
X88161334Y-103512998D01*
X88160394Y-103504260D01*
X88159474Y-103502148D01*
X88159890Y-103499571D01*
X88158500Y-103486640D01*
X88158500Y-100910520D01*
X88158499Y-100910516D01*
X88123588Y-100735007D01*
X88123587Y-100735000D01*
X88094837Y-100665591D01*
X88094837Y-100665590D01*
X88055106Y-100569670D01*
X88055099Y-100569657D01*
X87955678Y-100420865D01*
X87955675Y-100420861D01*
X87400000Y-99865186D01*
X110099500Y-99865186D01*
X110099500Y-100134813D01*
X110129686Y-100402719D01*
X110129688Y-100402731D01*
X110189684Y-100665590D01*
X110189687Y-100665602D01*
X110278734Y-100920082D01*
X110395714Y-101162994D01*
X110395716Y-101162997D01*
X110539162Y-101391289D01*
X110707266Y-101602085D01*
X110897915Y-101792734D01*
X111108711Y-101960838D01*
X111337003Y-102104284D01*
X111579921Y-102221267D01*
X111771049Y-102288145D01*
X111834397Y-102310312D01*
X111834405Y-102310315D01*
X111834408Y-102310315D01*
X111834409Y-102310316D01*
X112097268Y-102370312D01*
X112365187Y-102400499D01*
X112365188Y-102400500D01*
X112365191Y-102400500D01*
X112634812Y-102400500D01*
X112634812Y-102400499D01*
X112902732Y-102370312D01*
X113165591Y-102310316D01*
X113420079Y-102221267D01*
X113662997Y-102104284D01*
X113891289Y-101960838D01*
X114102085Y-101792734D01*
X114292734Y-101602085D01*
X114460838Y-101391289D01*
X114604284Y-101162997D01*
X114721267Y-100920079D01*
X114810316Y-100665591D01*
X114870312Y-100402732D01*
X114900500Y-100134809D01*
X114900500Y-99865191D01*
X114870312Y-99597268D01*
X114810316Y-99334409D01*
X114721267Y-99079921D01*
X114604284Y-98837003D01*
X114460838Y-98608711D01*
X114292734Y-98397915D01*
X114102085Y-98207266D01*
X113891289Y-98039162D01*
X113662997Y-97895716D01*
X113662994Y-97895714D01*
X113420082Y-97778734D01*
X113165602Y-97689687D01*
X113165594Y-97689684D01*
X112968446Y-97644687D01*
X112902732Y-97629688D01*
X112902728Y-97629687D01*
X112902719Y-97629686D01*
X112634813Y-97599500D01*
X112634809Y-97599500D01*
X112365191Y-97599500D01*
X112365186Y-97599500D01*
X112097280Y-97629686D01*
X112097268Y-97629688D01*
X111834405Y-97689684D01*
X111834397Y-97689687D01*
X111579917Y-97778734D01*
X111337005Y-97895714D01*
X111108712Y-98039161D01*
X110897915Y-98207265D01*
X110707265Y-98397915D01*
X110539161Y-98608712D01*
X110395714Y-98837005D01*
X110278734Y-99079917D01*
X110189687Y-99334397D01*
X110189684Y-99334405D01*
X110129688Y-99597268D01*
X110129686Y-99597280D01*
X110099500Y-99865186D01*
X87400000Y-99865186D01*
X85179819Y-97645005D01*
X85146334Y-97583682D01*
X85143500Y-97557324D01*
X85143500Y-93384781D01*
X85163185Y-93317742D01*
X85179816Y-93297103D01*
X85181024Y-93295895D01*
X85194389Y-93282529D01*
X85255709Y-93249044D01*
X85325401Y-93254026D01*
X85381336Y-93295895D01*
X85398250Y-93326871D01*
X85424111Y-93396204D01*
X85424112Y-93396206D01*
X85427854Y-93401204D01*
X85511739Y-93513261D01*
X85628796Y-93600889D01*
X85710836Y-93631488D01*
X85766767Y-93673359D01*
X85791184Y-93738823D01*
X85791500Y-93747669D01*
X85791500Y-95256640D01*
X85771815Y-95323679D01*
X85755181Y-95344321D01*
X85701930Y-95397571D01*
X85701926Y-95397576D01*
X85580873Y-95564193D01*
X85487367Y-95747705D01*
X85423719Y-95943591D01*
X85391500Y-96147019D01*
X85391500Y-96352980D01*
X85423719Y-96556408D01*
X85487367Y-96752294D01*
X85551671Y-96878496D01*
X85578602Y-96931350D01*
X85580873Y-96935806D01*
X85701926Y-97102423D01*
X85701930Y-97102428D01*
X85847571Y-97248069D01*
X85847576Y-97248073D01*
X85933242Y-97310312D01*
X86014197Y-97369129D01*
X86106767Y-97416296D01*
X86197705Y-97462632D01*
X86197707Y-97462632D01*
X86197710Y-97462634D01*
X86243500Y-97477512D01*
X86393591Y-97526280D01*
X86495305Y-97542390D01*
X86597019Y-97558500D01*
X86597020Y-97558500D01*
X86802980Y-97558500D01*
X86802981Y-97558500D01*
X87006408Y-97526280D01*
X87202290Y-97462634D01*
X87385803Y-97369129D01*
X87552430Y-97248068D01*
X87698068Y-97102430D01*
X87819129Y-96935803D01*
X87912634Y-96752290D01*
X87976280Y-96556408D01*
X88008500Y-96352981D01*
X88008500Y-96147019D01*
X87985910Y-96004394D01*
X87976280Y-95943591D01*
X87918870Y-95766903D01*
X87912634Y-95747710D01*
X87912632Y-95747707D01*
X87912632Y-95747705D01*
X87870798Y-95665602D01*
X87819129Y-95564197D01*
X87748609Y-95467134D01*
X87698073Y-95397576D01*
X87698069Y-95397571D01*
X87644819Y-95344321D01*
X87611334Y-95282998D01*
X87608500Y-95256640D01*
X87608500Y-93782203D01*
X87628185Y-93715164D01*
X87680989Y-93669409D01*
X87720428Y-93659725D01*
X87720335Y-93658856D01*
X87752428Y-93655404D01*
X87784201Y-93651989D01*
X87921204Y-93600889D01*
X88038261Y-93513261D01*
X88125889Y-93396204D01*
X88176989Y-93259201D01*
X88180591Y-93225692D01*
X88183499Y-93198654D01*
X88183500Y-93198637D01*
X88183500Y-91301362D01*
X88183499Y-91301345D01*
X88178889Y-91258472D01*
X88176989Y-91240799D01*
X88176768Y-91240207D01*
X88130149Y-91115218D01*
X88125889Y-91103796D01*
X88038261Y-90986739D01*
X87921204Y-90899111D01*
X87784203Y-90848011D01*
X87723654Y-90841500D01*
X87723638Y-90841500D01*
X85826362Y-90841500D01*
X85826345Y-90841500D01*
X85765797Y-90848011D01*
X85765795Y-90848011D01*
X85628795Y-90899111D01*
X85511739Y-90986739D01*
X85424111Y-91103795D01*
X85398253Y-91173120D01*
X85398253Y-91173123D01*
X85398251Y-91173124D01*
X85398252Y-91173124D01*
X85356380Y-91229057D01*
X85326483Y-91240207D01*
X85290917Y-91253473D01*
X85290915Y-91253472D01*
X85290915Y-91253473D01*
X85266071Y-91248068D01*
X85222644Y-91238621D01*
X85194390Y-91217470D01*
X85179819Y-91202899D01*
X85146334Y-91141576D01*
X85143500Y-91115218D01*
X85143500Y-90442675D01*
X85163185Y-90375636D01*
X85179819Y-90354994D01*
X85339994Y-90194819D01*
X85401317Y-90161334D01*
X85427675Y-90158500D01*
X95202500Y-90158500D01*
X95269539Y-90178185D01*
X95315294Y-90230989D01*
X95326500Y-90282500D01*
X95326500Y-91120218D01*
X95306815Y-91187257D01*
X95290182Y-91207899D01*
X95160656Y-91337425D01*
X95030343Y-91516784D01*
X94929693Y-91714319D01*
X94861182Y-91925175D01*
X94826500Y-92144149D01*
X94826500Y-92365850D01*
X94861182Y-92584824D01*
X94929693Y-92795680D01*
X95027795Y-92988215D01*
X95030343Y-92993215D01*
X95160657Y-93172576D01*
X95317424Y-93329343D01*
X95496785Y-93459657D01*
X95529563Y-93476358D01*
X95694319Y-93560306D01*
X95694321Y-93560306D01*
X95694324Y-93560308D01*
X95905176Y-93628818D01*
X96124149Y-93663500D01*
X96124150Y-93663500D01*
X96345850Y-93663500D01*
X96345851Y-93663500D01*
X96564824Y-93628818D01*
X96775676Y-93560308D01*
X96973215Y-93459657D01*
X97152576Y-93329343D01*
X97194391Y-93287527D01*
X97255712Y-93254043D01*
X97325403Y-93259027D01*
X97381337Y-93300897D01*
X97398250Y-93331871D01*
X97424111Y-93401204D01*
X97511739Y-93518261D01*
X97628796Y-93605889D01*
X97765799Y-93656989D01*
X97765803Y-93656989D01*
X97771008Y-93658220D01*
X97831726Y-93692790D01*
X97864116Y-93754698D01*
X97866500Y-93778898D01*
X97866500Y-94781640D01*
X97846815Y-94848679D01*
X97830181Y-94869321D01*
X97751930Y-94947571D01*
X97751926Y-94947576D01*
X97630873Y-95114193D01*
X97537367Y-95297705D01*
X97473719Y-95493591D01*
X97441500Y-95697019D01*
X97441500Y-95902980D01*
X97473719Y-96106408D01*
X97537367Y-96302294D01*
X97630873Y-96485806D01*
X97751926Y-96652423D01*
X97751930Y-96652428D01*
X97897571Y-96798069D01*
X97897576Y-96798073D01*
X98042908Y-96903661D01*
X98064197Y-96919129D01*
X98175657Y-96975921D01*
X98247705Y-97012632D01*
X98247707Y-97012632D01*
X98247710Y-97012634D01*
X98352707Y-97046749D01*
X98443591Y-97076280D01*
X98545305Y-97092390D01*
X98647019Y-97108500D01*
X98647020Y-97108500D01*
X98852980Y-97108500D01*
X98852981Y-97108500D01*
X99056408Y-97076280D01*
X99252290Y-97012634D01*
X99435803Y-96919129D01*
X99602430Y-96798068D01*
X99748068Y-96652430D01*
X99869129Y-96485803D01*
X99962634Y-96302290D01*
X100026280Y-96106408D01*
X100058500Y-95902981D01*
X100058500Y-95697019D01*
X100037462Y-95564193D01*
X100026280Y-95493591D01*
X99977779Y-95344321D01*
X99962634Y-95297710D01*
X99962632Y-95297707D01*
X99962632Y-95297705D01*
X99897829Y-95170524D01*
X99869129Y-95114197D01*
X99819032Y-95045244D01*
X99748073Y-94947576D01*
X99748069Y-94947571D01*
X99719819Y-94919321D01*
X99686334Y-94857998D01*
X99683500Y-94831640D01*
X99683500Y-93778898D01*
X99703185Y-93711859D01*
X99755989Y-93666104D01*
X99778992Y-93658220D01*
X99784195Y-93656989D01*
X99784201Y-93656989D01*
X99921204Y-93605889D01*
X100038261Y-93518261D01*
X100125889Y-93401204D01*
X100176989Y-93264201D01*
X100180591Y-93230692D01*
X100183499Y-93203654D01*
X100183500Y-93203637D01*
X100183500Y-91306362D01*
X100183499Y-91306345D01*
X100180157Y-91275270D01*
X100176989Y-91245799D01*
X100176768Y-91245207D01*
X100128284Y-91115218D01*
X100125889Y-91108796D01*
X100038261Y-90991739D01*
X99921204Y-90904111D01*
X99907799Y-90899111D01*
X99784203Y-90853011D01*
X99723654Y-90846500D01*
X99723638Y-90846500D01*
X97826362Y-90846500D01*
X97826345Y-90846500D01*
X97765797Y-90853011D01*
X97765795Y-90853011D01*
X97628795Y-90904111D01*
X97511739Y-90991739D01*
X97424111Y-91108795D01*
X97398253Y-91178120D01*
X97398253Y-91178123D01*
X97357106Y-91233088D01*
X97356380Y-91234057D01*
X97326483Y-91245207D01*
X97290917Y-91258473D01*
X97290915Y-91258472D01*
X97290915Y-91258473D01*
X97266071Y-91253068D01*
X97222644Y-91243621D01*
X97194390Y-91222470D01*
X97179819Y-91207899D01*
X97146334Y-91146576D01*
X97143500Y-91120218D01*
X97143500Y-90282500D01*
X97163185Y-90215461D01*
X97215989Y-90169706D01*
X97267500Y-90158500D01*
X107202500Y-90158500D01*
X107269539Y-90178185D01*
X107315294Y-90230989D01*
X107326500Y-90282500D01*
X107326500Y-91120218D01*
X107306815Y-91187257D01*
X107290182Y-91207899D01*
X107160656Y-91337425D01*
X107030343Y-91516784D01*
X106929693Y-91714319D01*
X106861182Y-91925175D01*
X106826500Y-92144149D01*
X106826500Y-92365850D01*
X106861182Y-92584824D01*
X106929693Y-92795680D01*
X107027795Y-92988215D01*
X107030343Y-92993215D01*
X107160657Y-93172576D01*
X107317424Y-93329343D01*
X107496785Y-93459657D01*
X107529563Y-93476358D01*
X107694319Y-93560306D01*
X107694321Y-93560306D01*
X107694324Y-93560308D01*
X107905176Y-93628818D01*
X108124149Y-93663500D01*
X108124150Y-93663500D01*
X108345850Y-93663500D01*
X108345851Y-93663500D01*
X108564824Y-93628818D01*
X108775676Y-93560308D01*
X108973215Y-93459657D01*
X109152576Y-93329343D01*
X109194391Y-93287527D01*
X109223554Y-93271602D01*
X109252267Y-93254844D01*
X109254101Y-93254922D01*
X109255712Y-93254043D01*
X109288856Y-93256413D01*
X109322072Y-93257838D01*
X109323572Y-93258896D01*
X109325403Y-93259027D01*
X109352008Y-93278943D01*
X109379178Y-93298097D01*
X109380336Y-93300147D01*
X109381337Y-93300897D01*
X109396969Y-93328578D01*
X109397631Y-93330209D01*
X109424111Y-93401204D01*
X109429206Y-93408010D01*
X109435232Y-93422858D01*
X109437182Y-93442307D01*
X109444017Y-93460623D01*
X109440596Y-93476358D01*
X109442203Y-93492379D01*
X109433328Y-93509794D01*
X109429176Y-93528899D01*
X109411690Y-93552259D01*
X109410481Y-93554633D01*
X109409474Y-93555220D01*
X109408015Y-93557170D01*
X108110006Y-94855181D01*
X108048683Y-94888666D01*
X108022325Y-94891500D01*
X105743360Y-94891500D01*
X105676321Y-94871815D01*
X105655679Y-94855181D01*
X105602428Y-94801930D01*
X105602423Y-94801926D01*
X105435806Y-94680873D01*
X105435805Y-94680872D01*
X105435803Y-94680871D01*
X105378496Y-94651671D01*
X105252294Y-94587367D01*
X105056408Y-94523719D01*
X104880794Y-94495905D01*
X104852981Y-94491500D01*
X104647019Y-94491500D01*
X104622550Y-94495375D01*
X104443591Y-94523719D01*
X104247705Y-94587367D01*
X104064193Y-94680873D01*
X103897576Y-94801926D01*
X103897571Y-94801930D01*
X103751930Y-94947571D01*
X103751926Y-94947576D01*
X103630873Y-95114193D01*
X103537367Y-95297705D01*
X103473719Y-95493591D01*
X103441500Y-95697019D01*
X103441500Y-95902980D01*
X103473719Y-96106408D01*
X103537367Y-96302294D01*
X103630873Y-96485806D01*
X103751926Y-96652423D01*
X103751930Y-96652428D01*
X103897571Y-96798069D01*
X103897576Y-96798073D01*
X104042908Y-96903661D01*
X104064197Y-96919129D01*
X104175657Y-96975921D01*
X104247705Y-97012632D01*
X104247707Y-97012632D01*
X104247710Y-97012634D01*
X104352707Y-97046749D01*
X104443591Y-97076280D01*
X104545305Y-97092390D01*
X104647019Y-97108500D01*
X104647020Y-97108500D01*
X104852980Y-97108500D01*
X104852981Y-97108500D01*
X105056408Y-97076280D01*
X105252290Y-97012634D01*
X105435803Y-96919129D01*
X105602430Y-96798068D01*
X105655679Y-96744819D01*
X105717002Y-96711334D01*
X105743360Y-96708500D01*
X108539480Y-96708500D01*
X108539481Y-96708499D01*
X108597986Y-96696862D01*
X108714992Y-96673589D01*
X108714995Y-96673587D01*
X108715000Y-96673587D01*
X108880336Y-96605103D01*
X109029135Y-96505678D01*
X111480678Y-94054135D01*
X111580103Y-93905336D01*
X111648587Y-93739999D01*
X111648588Y-93739991D01*
X111650096Y-93736352D01*
X111693937Y-93681949D01*
X111751400Y-93660515D01*
X111784201Y-93656989D01*
X111921204Y-93605889D01*
X112038261Y-93518261D01*
X112125889Y-93401204D01*
X112176989Y-93264201D01*
X112180591Y-93230692D01*
X112183499Y-93203654D01*
X112183500Y-93203637D01*
X112183500Y-91306362D01*
X112183499Y-91306345D01*
X112180157Y-91275270D01*
X112176989Y-91245799D01*
X112176768Y-91245207D01*
X112128284Y-91115218D01*
X112125889Y-91108796D01*
X112038261Y-90991739D01*
X111921204Y-90904111D01*
X111907799Y-90899111D01*
X111784203Y-90853011D01*
X111723654Y-90846500D01*
X111723638Y-90846500D01*
X109826362Y-90846500D01*
X109826345Y-90846500D01*
X109765797Y-90853011D01*
X109765795Y-90853011D01*
X109628795Y-90904111D01*
X109511739Y-90991739D01*
X109424111Y-91108795D01*
X109398253Y-91178120D01*
X109398253Y-91178123D01*
X109357106Y-91233088D01*
X109356380Y-91234057D01*
X109326483Y-91245207D01*
X109290917Y-91258473D01*
X109290915Y-91258472D01*
X109290915Y-91258473D01*
X109266071Y-91253068D01*
X109222644Y-91243621D01*
X109194390Y-91222470D01*
X109179819Y-91207899D01*
X109146334Y-91146576D01*
X109143500Y-91120218D01*
X109143500Y-89645520D01*
X109143499Y-89645516D01*
X109131395Y-89584664D01*
X109108587Y-89470000D01*
X109088528Y-89421574D01*
X109040103Y-89304664D01*
X108940678Y-89155865D01*
X108940675Y-89155861D01*
X108329138Y-88544324D01*
X108329134Y-88544321D01*
X108180342Y-88444900D01*
X108180329Y-88444893D01*
X108015001Y-88376413D01*
X108014992Y-88376410D01*
X107839483Y-88341500D01*
X107839479Y-88341500D01*
X96339479Y-88341500D01*
X85089479Y-88341500D01*
X84910520Y-88341500D01*
X84881397Y-88347292D01*
X84881396Y-88347291D01*
X84735005Y-88376411D01*
X84734999Y-88376413D01*
X84569662Y-88444898D01*
X84420863Y-88544322D01*
X83529324Y-89435861D01*
X83529321Y-89435865D01*
X83429900Y-89584657D01*
X83429893Y-89584670D01*
X83361413Y-89749998D01*
X83361410Y-89750007D01*
X83326500Y-89925516D01*
X83326500Y-91115218D01*
X83306815Y-91182257D01*
X83290182Y-91202899D01*
X83160656Y-91332425D01*
X83030343Y-91511784D01*
X82929693Y-91709319D01*
X82861182Y-91920175D01*
X82826500Y-92139149D01*
X82826500Y-92360850D01*
X82861182Y-92579824D01*
X82929693Y-92790680D01*
X82983211Y-92895714D01*
X83030343Y-92988215D01*
X83160657Y-93167576D01*
X83160659Y-93167578D01*
X83290181Y-93297100D01*
X83323666Y-93358423D01*
X83326500Y-93384781D01*
X83326500Y-98074483D01*
X83361410Y-98249992D01*
X83361413Y-98250001D01*
X83429893Y-98415329D01*
X83429900Y-98415342D01*
X83529321Y-98564134D01*
X83529324Y-98564138D01*
X86305181Y-101339994D01*
X86338666Y-101401317D01*
X86341500Y-101427675D01*
X86341500Y-103486640D01*
X86321815Y-103553679D01*
X86305181Y-103574321D01*
X86251930Y-103627571D01*
X86251926Y-103627576D01*
X86130871Y-103794195D01*
X86090484Y-103873459D01*
X86042510Y-103924254D01*
X85974689Y-103941049D01*
X85908554Y-103918511D01*
X85869516Y-103873459D01*
X85829128Y-103794195D01*
X85708073Y-103627576D01*
X85708069Y-103627571D01*
X85654819Y-103574321D01*
X85621334Y-103512998D01*
X85618500Y-103486640D01*
X85618500Y-102370520D01*
X85618499Y-102370516D01*
X85618458Y-102370311D01*
X85583587Y-102195000D01*
X85546011Y-102104284D01*
X85515103Y-102029664D01*
X85415678Y-101880865D01*
X85415675Y-101880861D01*
X82194819Y-98660005D01*
X82161334Y-98598682D01*
X82158500Y-98572324D01*
X82158500Y-78160520D01*
X82158499Y-78160516D01*
X82149311Y-78114324D01*
X82123587Y-77985000D01*
X82055102Y-77819664D01*
X82055100Y-77819661D01*
X82055098Y-77819657D01*
X81955679Y-77670866D01*
X81892548Y-77607735D01*
X81829135Y-77544322D01*
X71694819Y-67410006D01*
X71661334Y-67348683D01*
X71658500Y-67322325D01*
X71658500Y-59660520D01*
X71658499Y-59660516D01*
X71633772Y-59536203D01*
X71623587Y-59485000D01*
X71623584Y-59484993D01*
X71623583Y-59484989D01*
X71612902Y-59459203D01*
X71612901Y-59459201D01*
X71555105Y-59319668D01*
X71555104Y-59319666D01*
X71455678Y-59170865D01*
X71455675Y-59170861D01*
X70079138Y-57794324D01*
X70079134Y-57794321D01*
X69930342Y-57694900D01*
X69930329Y-57694893D01*
X69765001Y-57626413D01*
X69764992Y-57626410D01*
X69589483Y-57591500D01*
X69589479Y-57591500D01*
X67746994Y-57591500D01*
X67679955Y-57571815D01*
X67634200Y-57519011D01*
X67630817Y-57510846D01*
X67590889Y-57403796D01*
X67503261Y-57286739D01*
X67386204Y-57199111D01*
X67249203Y-57148011D01*
X67188654Y-57141500D01*
X67188638Y-57141500D01*
X65391362Y-57141500D01*
X65391345Y-57141500D01*
X65330797Y-57148011D01*
X65330795Y-57148011D01*
X65193795Y-57199111D01*
X65076739Y-57286739D01*
X64989111Y-57403795D01*
X64944043Y-57524625D01*
X64902171Y-57580558D01*
X64836707Y-57604974D01*
X64768434Y-57590122D01*
X64740181Y-57568971D01*
X64635006Y-57463796D01*
X64635004Y-57463794D01*
X64462009Y-57338106D01*
X64271483Y-57241027D01*
X64271480Y-57241026D01*
X64068117Y-57174951D01*
X63962516Y-57158225D01*
X63856916Y-57141500D01*
X63643084Y-57141500D01*
X63572684Y-57152650D01*
X63431882Y-57174951D01*
X63228519Y-57241026D01*
X63228516Y-57241027D01*
X63037990Y-57338106D01*
X62864993Y-57463796D01*
X62713796Y-57614993D01*
X62588106Y-57787990D01*
X62491027Y-57978516D01*
X62491026Y-57978519D01*
X62424951Y-58181882D01*
X62391500Y-58393084D01*
X62391500Y-58606915D01*
X62424951Y-58818117D01*
X62491026Y-59021480D01*
X62491027Y-59021483D01*
X62567140Y-59170861D01*
X62588106Y-59212009D01*
X62713794Y-59385004D01*
X62864996Y-59536206D01*
X63036094Y-59660516D01*
X63037991Y-59661894D01*
X63041873Y-59664273D01*
X63088748Y-59716086D01*
X63100169Y-59785016D01*
X63072512Y-59849178D01*
X63041873Y-59875727D01*
X63037991Y-59878105D01*
X62864993Y-60003796D01*
X62713796Y-60154993D01*
X62588106Y-60327990D01*
X62491027Y-60518516D01*
X62491026Y-60518519D01*
X62424951Y-60721882D01*
X62391500Y-60933084D01*
X62391500Y-61146915D01*
X62424951Y-61358117D01*
X62491026Y-61561480D01*
X62491027Y-61561483D01*
X62562245Y-61701254D01*
X62588106Y-61752009D01*
X62713794Y-61925004D01*
X62864996Y-62076206D01*
X63037988Y-62201892D01*
X63037991Y-62201894D01*
X63041873Y-62204273D01*
X63088748Y-62256086D01*
X63100169Y-62325016D01*
X63072512Y-62389178D01*
X63041873Y-62415727D01*
X63037991Y-62418105D01*
X62864993Y-62543796D01*
X62713796Y-62694993D01*
X62588106Y-62867990D01*
X62491027Y-63058516D01*
X62491026Y-63058519D01*
X62424951Y-63261882D01*
X62391500Y-63473084D01*
X62391500Y-63686915D01*
X62424951Y-63898117D01*
X62491026Y-64101480D01*
X62491027Y-64101483D01*
X62579694Y-64275500D01*
X62588106Y-64292009D01*
X62713794Y-64465004D01*
X62864996Y-64616206D01*
X63037991Y-64741894D01*
X63042680Y-64744283D01*
X63093478Y-64792254D01*
X63110276Y-64860074D01*
X63087742Y-64926210D01*
X63046205Y-64962209D01*
X63046590Y-64962838D01*
X63042804Y-64965157D01*
X63042702Y-64965246D01*
X63042449Y-64965374D01*
X63042440Y-64965380D01*
X62988282Y-65004727D01*
X62988282Y-65004728D01*
X63620591Y-65637037D01*
X63557007Y-65654075D01*
X63442993Y-65719901D01*
X63349901Y-65812993D01*
X63284075Y-65927007D01*
X63267037Y-65990591D01*
X62634728Y-65358282D01*
X62634727Y-65358282D01*
X62595380Y-65412439D01*
X62498904Y-65601782D01*
X62433242Y-65803869D01*
X62433242Y-65803872D01*
X62400000Y-66013753D01*
X62400000Y-66226246D01*
X62433242Y-66436127D01*
X62433242Y-66436130D01*
X62498904Y-66638217D01*
X62595375Y-66827550D01*
X62634728Y-66881716D01*
X63267037Y-66249408D01*
X63284075Y-66312993D01*
X63349901Y-66427007D01*
X63442993Y-66520099D01*
X63557007Y-66585925D01*
X63620591Y-66602962D01*
X63019971Y-67203581D01*
X63098711Y-67320895D01*
X63099920Y-67324729D01*
X63102844Y-67327491D01*
X63110343Y-67357778D01*
X63119727Y-67387529D01*
X63118671Y-67391408D01*
X63119638Y-67395312D01*
X63109573Y-67424844D01*
X63101383Y-67454947D01*
X63098397Y-67457640D01*
X63097100Y-67461447D01*
X63052051Y-67500483D01*
X63042440Y-67505380D01*
X62988282Y-67544727D01*
X62988282Y-67544728D01*
X63620591Y-68177037D01*
X63557007Y-68194075D01*
X63442993Y-68259901D01*
X63349901Y-68352993D01*
X63284075Y-68467007D01*
X63267037Y-68530591D01*
X62634728Y-67898282D01*
X62634727Y-67898282D01*
X62595380Y-67952439D01*
X62498904Y-68141782D01*
X62433242Y-68343869D01*
X62433242Y-68343872D01*
X62400000Y-68553753D01*
X62400000Y-68766246D01*
X62433242Y-68976127D01*
X62433242Y-68976130D01*
X62498904Y-69178217D01*
X62595375Y-69367550D01*
X62634728Y-69421716D01*
X63267037Y-68789408D01*
X63284075Y-68852993D01*
X63349901Y-68967007D01*
X63442993Y-69060099D01*
X63557007Y-69125925D01*
X63620590Y-69142962D01*
X62988282Y-69775269D01*
X62988282Y-69775270D01*
X63042449Y-69814624D01*
X63042682Y-69814743D01*
X63042755Y-69814812D01*
X63046604Y-69817171D01*
X63046108Y-69817979D01*
X63093479Y-69862716D01*
X63110275Y-69930537D01*
X63087739Y-69996672D01*
X63042693Y-70035709D01*
X63037994Y-70038103D01*
X62864993Y-70163796D01*
X62713796Y-70314993D01*
X62588106Y-70487990D01*
X62491027Y-70678516D01*
X62491026Y-70678519D01*
X62424951Y-70881882D01*
X62391500Y-71093084D01*
X62391500Y-71306915D01*
X62424951Y-71518117D01*
X62491026Y-71721480D01*
X62491027Y-71721483D01*
X62562245Y-71861254D01*
X62588106Y-71912009D01*
X62713794Y-72085004D01*
X62864996Y-72236206D01*
X62989091Y-72326366D01*
X63037991Y-72361894D01*
X63041873Y-72364273D01*
X63088748Y-72416086D01*
X63100169Y-72485016D01*
X63072512Y-72549178D01*
X63041873Y-72575727D01*
X63037991Y-72578105D01*
X62864993Y-72703796D01*
X62713796Y-72854993D01*
X62588106Y-73027990D01*
X62491027Y-73218516D01*
X62491026Y-73218519D01*
X62424951Y-73421882D01*
X62391500Y-73633084D01*
X62391500Y-73846915D01*
X62424951Y-74058117D01*
X62491026Y-74261480D01*
X62491027Y-74261483D01*
X62562245Y-74401254D01*
X62588106Y-74452009D01*
X62713794Y-74625004D01*
X62864996Y-74776206D01*
X63037991Y-74901894D01*
X63042680Y-74904283D01*
X63093478Y-74952254D01*
X63110276Y-75020074D01*
X63087742Y-75086210D01*
X63046205Y-75122209D01*
X63046590Y-75122838D01*
X63042804Y-75125157D01*
X63042702Y-75125246D01*
X63042449Y-75125374D01*
X63042440Y-75125380D01*
X62988282Y-75164727D01*
X62988282Y-75164728D01*
X63620591Y-75797037D01*
X63557007Y-75814075D01*
X63442993Y-75879901D01*
X63349901Y-75972993D01*
X63284075Y-76087007D01*
X63267037Y-76150591D01*
X62634728Y-75518282D01*
X62634727Y-75518282D01*
X62595380Y-75572439D01*
X62498904Y-75761782D01*
X62433242Y-75963869D01*
X62433242Y-75963872D01*
X62400000Y-76173753D01*
X62400000Y-76386246D01*
X62433242Y-76596127D01*
X62433242Y-76596130D01*
X62498904Y-76798217D01*
X62595375Y-76987550D01*
X62634728Y-77041716D01*
X63267037Y-76409408D01*
X63284075Y-76472993D01*
X63349901Y-76587007D01*
X63442993Y-76680099D01*
X63557007Y-76745925D01*
X63620590Y-76762962D01*
X62988282Y-77395269D01*
X62988282Y-77395270D01*
X63042449Y-77434624D01*
X63042682Y-77434743D01*
X63042755Y-77434812D01*
X63046604Y-77437171D01*
X63046108Y-77437979D01*
X63093479Y-77482716D01*
X63110275Y-77550537D01*
X63087739Y-77616672D01*
X63042693Y-77655709D01*
X63037994Y-77658103D01*
X62864993Y-77783796D01*
X62713796Y-77934993D01*
X62588106Y-78107990D01*
X62491027Y-78298516D01*
X62491026Y-78298519D01*
X62424951Y-78501882D01*
X62391500Y-78713084D01*
X62391500Y-78926915D01*
X62424951Y-79138117D01*
X62491026Y-79341480D01*
X62491027Y-79341483D01*
X62562245Y-79481254D01*
X62588106Y-79532009D01*
X62713794Y-79705004D01*
X62864996Y-79856206D01*
X63037991Y-79981894D01*
X63041873Y-79984273D01*
X63088748Y-80036086D01*
X63100169Y-80105016D01*
X63072512Y-80169178D01*
X63041873Y-80195727D01*
X63037991Y-80198105D01*
X62864993Y-80323796D01*
X62713796Y-80474993D01*
X62588106Y-80647990D01*
X62491027Y-80838516D01*
X62491026Y-80838519D01*
X62424951Y-81041882D01*
X62391500Y-81253084D01*
X62391500Y-81466915D01*
X62424951Y-81678117D01*
X62491026Y-81881480D01*
X62491027Y-81881483D01*
X62562245Y-82021254D01*
X62588106Y-82072009D01*
X62713794Y-82245004D01*
X62864996Y-82396206D01*
X63037991Y-82521894D01*
X63131438Y-82569507D01*
X63228516Y-82618972D01*
X63228519Y-82618973D01*
X63330200Y-82652010D01*
X63431884Y-82685049D01*
X63643084Y-82718500D01*
X63643085Y-82718500D01*
X63856915Y-82718500D01*
X63856916Y-82718500D01*
X64068116Y-82685049D01*
X64271483Y-82618972D01*
X64462009Y-82521894D01*
X64635004Y-82396206D01*
X64786206Y-82245004D01*
X64911894Y-82072009D01*
X64911896Y-82072004D01*
X64914270Y-82068132D01*
X64966080Y-82021254D01*
X65035009Y-82009829D01*
X65099173Y-82037483D01*
X65125730Y-82068132D01*
X65128103Y-82072005D01*
X65128106Y-82072009D01*
X65253794Y-82245004D01*
X65253796Y-82245006D01*
X65274307Y-82265517D01*
X65307792Y-82326840D01*
X65302808Y-82396532D01*
X65274307Y-82440879D01*
X60794324Y-86920861D01*
X60794321Y-86920865D01*
X60694900Y-87069657D01*
X60694893Y-87069670D01*
X60626413Y-87234998D01*
X60626410Y-87235007D01*
X60591500Y-87410516D01*
X56600500Y-87410516D01*
X56600500Y-52397682D01*
X70200000Y-52397682D01*
X70200000Y-52602317D01*
X70232009Y-52804417D01*
X70295244Y-52999031D01*
X70388141Y-53181350D01*
X70388147Y-53181359D01*
X70420523Y-53225921D01*
X70420524Y-53225922D01*
X71100000Y-52546446D01*
X71100000Y-52552661D01*
X71127259Y-52654394D01*
X71179920Y-52745606D01*
X71254394Y-52820080D01*
X71345606Y-52872741D01*
X71447339Y-52900000D01*
X71453553Y-52900000D01*
X70774076Y-53579474D01*
X70818650Y-53611859D01*
X71000968Y-53704755D01*
X71195582Y-53767990D01*
X71397683Y-53800000D01*
X71602317Y-53800000D01*
X71804417Y-53767990D01*
X71999031Y-53704755D01*
X72181349Y-53611859D01*
X72225921Y-53579474D01*
X71546447Y-52900000D01*
X71552661Y-52900000D01*
X71654394Y-52872741D01*
X71745606Y-52820080D01*
X71820080Y-52745606D01*
X71872741Y-52654394D01*
X71900000Y-52552661D01*
X71900000Y-52546447D01*
X72579474Y-53225921D01*
X72611859Y-53181349D01*
X72704755Y-52999031D01*
X72767990Y-52804417D01*
X72800000Y-52602317D01*
X72800000Y-52397682D01*
X72767990Y-52195582D01*
X72704755Y-52000968D01*
X72611859Y-51818650D01*
X72579474Y-51774077D01*
X72579474Y-51774076D01*
X71900000Y-52453551D01*
X71900000Y-52447339D01*
X71872741Y-52345606D01*
X71820080Y-52254394D01*
X71745606Y-52179920D01*
X71654394Y-52127259D01*
X71552661Y-52100000D01*
X71546446Y-52100000D01*
X72225922Y-51420524D01*
X72225921Y-51420523D01*
X72181359Y-51388147D01*
X72181350Y-51388141D01*
X71999031Y-51295244D01*
X71804417Y-51232009D01*
X71602317Y-51200000D01*
X71397683Y-51200000D01*
X71195582Y-51232009D01*
X71000968Y-51295244D01*
X70818644Y-51388143D01*
X70774077Y-51420523D01*
X70774077Y-51420524D01*
X71453554Y-52100000D01*
X71447339Y-52100000D01*
X71345606Y-52127259D01*
X71254394Y-52179920D01*
X71179920Y-52254394D01*
X71127259Y-52345606D01*
X71100000Y-52447339D01*
X71100000Y-52453553D01*
X70420524Y-51774077D01*
X70420523Y-51774077D01*
X70388143Y-51818644D01*
X70295244Y-52000968D01*
X70232009Y-52195582D01*
X70200000Y-52397682D01*
X56600500Y-52397682D01*
X56600500Y-45365186D01*
X62599500Y-45365186D01*
X62599500Y-45634813D01*
X62629686Y-45902719D01*
X62629688Y-45902731D01*
X62689684Y-46165594D01*
X62689687Y-46165602D01*
X62691529Y-46170865D01*
X62778732Y-46420077D01*
X62778733Y-46420078D01*
X62778734Y-46420082D01*
X62895714Y-46662994D01*
X62895716Y-46662997D01*
X63039162Y-46891289D01*
X63207266Y-47102085D01*
X63397915Y-47292734D01*
X63608711Y-47460838D01*
X63837003Y-47604284D01*
X64079921Y-47721267D01*
X64271049Y-47788145D01*
X64334397Y-47810312D01*
X64334405Y-47810315D01*
X64334408Y-47810315D01*
X64334409Y-47810316D01*
X64597268Y-47870312D01*
X64865187Y-47900499D01*
X64865188Y-47900500D01*
X64865191Y-47900500D01*
X65134812Y-47900500D01*
X65134812Y-47900499D01*
X65402732Y-47870312D01*
X65665591Y-47810316D01*
X65920079Y-47721267D01*
X66162997Y-47604284D01*
X66391289Y-47460838D01*
X66602085Y-47292734D01*
X66792734Y-47102085D01*
X66960838Y-46891289D01*
X67104284Y-46662997D01*
X67221267Y-46420079D01*
X67310316Y-46165591D01*
X67370312Y-45902732D01*
X67400500Y-45634809D01*
X67400500Y-45365191D01*
X67370312Y-45097268D01*
X67310316Y-44834409D01*
X67221267Y-44579921D01*
X67104284Y-44337003D01*
X66960838Y-44108711D01*
X66792734Y-43897915D01*
X66602085Y-43707266D01*
X66391289Y-43539162D01*
X66162997Y-43395716D01*
X66162994Y-43395714D01*
X65920082Y-43278734D01*
X65665602Y-43189687D01*
X65665594Y-43189684D01*
X65468446Y-43144687D01*
X65402732Y-43129688D01*
X65402728Y-43129687D01*
X65402719Y-43129686D01*
X65134813Y-43099500D01*
X65134809Y-43099500D01*
X64865191Y-43099500D01*
X64865186Y-43099500D01*
X64597280Y-43129686D01*
X64597268Y-43129688D01*
X64334405Y-43189684D01*
X64334397Y-43189687D01*
X64079917Y-43278734D01*
X63837005Y-43395714D01*
X63608712Y-43539161D01*
X63397915Y-43707265D01*
X63207265Y-43897915D01*
X63039161Y-44108712D01*
X62895714Y-44337005D01*
X62778734Y-44579917D01*
X62689687Y-44834397D01*
X62689684Y-44834405D01*
X62629688Y-45097268D01*
X62629686Y-45097280D01*
X62599500Y-45365186D01*
X56600500Y-45365186D01*
X56600500Y-27860650D01*
X58135353Y-27860650D01*
X81412903Y-27860650D01*
X81412903Y-23734264D01*
X58135353Y-23734264D01*
X58135353Y-27860650D01*
X56600500Y-27860650D01*
X56600500Y-22724500D01*
X56620185Y-22657461D01*
X56672989Y-22611706D01*
X56724500Y-22600500D01*
X119275500Y-22600500D01*
X119342539Y-22620185D01*
G37*
%TD.AperFunction*%
%TD*%
M02*
