%TF.GenerationSoftware,KiCad,Pcbnew,9.0.4*%
%TF.CreationDate,2026-03-16T20:29:12+01:00*%
%TF.ProjectId,main_board,6d61696e-5f62-46f6-9172-642e6b696361,rev?*%
%TF.SameCoordinates,Original*%
%TF.FileFunction,Copper,L1,Top*%
%TF.FilePolarity,Positive*%
%FSLAX46Y46*%
G04 Gerber Fmt 4.6, Leading zero omitted, Abs format (unit mm)*
G04 Created by KiCad (PCBNEW 9.0.4) date 2026-03-16 20:29:12*
%MOMM*%
%LPD*%
G01*
G04 APERTURE LIST*
G04 Aperture macros list*
%AMRoundRect*
0 Rectangle with rounded corners*
0 $1 Rounding radius*
0 $2 $3 $4 $5 $6 $7 $8 $9 X,Y pos of 4 corners*
0 Add a 4 corners polygon primitive as box body*
4,1,4,$2,$3,$4,$5,$6,$7,$8,$9,$2,$3,0*
0 Add four circle primitives for the rounded corners*
1,1,$1+$1,$2,$3*
1,1,$1+$1,$4,$5*
1,1,$1+$1,$6,$7*
1,1,$1+$1,$8,$9*
0 Add four rect primitives between the rounded corners*
20,1,$1+$1,$2,$3,$4,$5,0*
20,1,$1+$1,$4,$5,$6,$7,0*
20,1,$1+$1,$6,$7,$8,$9,0*
20,1,$1+$1,$8,$9,$2,$3,0*%
G04 Aperture macros list end*
%TA.AperFunction,ComponentPad*%
%ADD10C,1.700000*%
%TD*%
%TA.AperFunction,ComponentPad*%
%ADD11R,1.700000X1.700000*%
%TD*%
%TA.AperFunction,ComponentPad*%
%ADD12C,1.600000*%
%TD*%
%TA.AperFunction,ComponentPad*%
%ADD13RoundRect,0.250000X-0.550000X-0.550000X0.550000X-0.550000X0.550000X0.550000X-0.550000X0.550000X0*%
%TD*%
%TA.AperFunction,ComponentPad*%
%ADD14RoundRect,0.250000X0.550000X-0.550000X0.550000X0.550000X-0.550000X0.550000X-0.550000X-0.550000X0*%
%TD*%
%TA.AperFunction,ComponentPad*%
%ADD15R,1.905000X2.000000*%
%TD*%
%TA.AperFunction,ComponentPad*%
%ADD16O,1.905000X2.000000*%
%TD*%
%TA.AperFunction,ComponentPad*%
%ADD17R,1.500000X1.500000*%
%TD*%
%TA.AperFunction,ComponentPad*%
%ADD18C,1.500000*%
%TD*%
%TA.AperFunction,Conductor*%
%ADD19C,0.800000*%
%TD*%
G04 APERTURE END LIST*
D10*
%TO.P,J1,2,Ext*%
%TO.N,GND*%
X90040000Y-81000000D03*
D11*
%TO.P,J1,1,In*%
%TO.N,IN1*%
X87500000Y-81000000D03*
%TD*%
D12*
%TO.P,C7,2*%
%TO.N,GND*%
X99750000Y-38250000D03*
%TO.P,C7,1*%
%TO.N,5V*%
X94750000Y-38250000D03*
%TD*%
%TO.P,C4,2*%
%TO.N,GND*%
X97250000Y-45000000D03*
D13*
%TO.P,C4,1*%
%TO.N,5V*%
X94750000Y-45000000D03*
%TD*%
D12*
%TO.P,C1,1*%
%TO.N,+15V*%
X102000000Y-62250000D03*
%TO.P,C1,2*%
%TO.N,GND*%
X97000000Y-62250000D03*
%TD*%
D11*
%TO.P,J6,1,In*%
%TO.N,OUT4*%
X87500000Y-68000000D03*
D10*
%TO.P,J6,2,Ext*%
%TO.N,GND*%
X90040000Y-68000000D03*
%TD*%
D11*
%TO.P,J7,1,Pin_1*%
%TO.N,GND*%
X113540000Y-54000000D03*
D10*
%TO.P,J7,2,Pin_2*%
%TO.N,+15V*%
X111000000Y-54000000D03*
%TD*%
D13*
%TO.P,C3,1*%
%TO.N,+15V*%
X102750000Y-45000000D03*
D12*
%TO.P,C3,2*%
%TO.N,GND*%
X105250000Y-45000000D03*
%TD*%
D11*
%TO.P,J3,1,In*%
%TO.N,OUT1*%
X77500000Y-74500000D03*
D10*
%TO.P,J3,2,Ext*%
%TO.N,GND*%
X80040000Y-74500000D03*
%TD*%
D11*
%TO.P,J8,1,Pin_1*%
%TO.N,GND*%
X113790000Y-69250000D03*
D10*
%TO.P,J8,2,Pin_2*%
%TO.N,-15V*%
X111250000Y-69250000D03*
%TD*%
D12*
%TO.P,R3,1*%
%TO.N,SEL3*%
X83250000Y-103500000D03*
%TO.P,R3,2*%
%TO.N,GND*%
X73090000Y-103500000D03*
%TD*%
D11*
%TO.P,J9,1,Pin_1*%
%TO.N,GND*%
X89920000Y-91750000D03*
D10*
%TO.P,J9,2,Pin_2*%
%TO.N,SEL1*%
X92460000Y-91750000D03*
%TO.P,J9,3,Pin_3*%
%TO.N,3.3V*%
X95000000Y-91750000D03*
%TD*%
D12*
%TO.P,C2,1*%
%TO.N,GND*%
X110250000Y-75250000D03*
%TO.P,C2,2*%
%TO.N,-15V*%
X105250000Y-75250000D03*
%TD*%
D11*
%TO.P,J2,1,In*%
%TO.N,IN2*%
X77500000Y-81000000D03*
D10*
%TO.P,J2,2,Ext*%
%TO.N,GND*%
X80040000Y-81000000D03*
%TD*%
D11*
%TO.P,RV1,1,1*%
%TO.N,5V*%
X90500000Y-53830000D03*
D10*
%TO.P,RV1,2,2*%
%TO.N,RVAR_5V*%
X90500000Y-51290000D03*
%TO.P,RV1,3,3*%
%TO.N,GND*%
X90500000Y-48750000D03*
%TD*%
D13*
%TO.P,C5,1*%
%TO.N,GND*%
X102750000Y-69250000D03*
D12*
%TO.P,C5,2*%
%TO.N,-15V*%
X105250000Y-69250000D03*
%TD*%
D11*
%TO.P,J10,1,Pin_1*%
%TO.N,+15V*%
X66540000Y-58720000D03*
D10*
%TO.P,J10,2,Pin_2*%
%TO.N,5V*%
X64000000Y-58720000D03*
%TO.P,J10,3,Pin_3*%
%TO.N,-15V*%
X66540000Y-61260000D03*
%TO.P,J10,4,Pin_4*%
%TO.N,3.3V*%
X64000000Y-61260000D03*
%TO.P,J10,5,Pin_5*%
%TO.N,GND*%
X66540000Y-63800000D03*
%TO.P,J10,6,Pin_6*%
X64000000Y-63800000D03*
%TO.P,J10,7,Pin_7*%
%TO.N,OUT4*%
X66540000Y-66340000D03*
%TO.P,J10,8,Pin_8*%
%TO.N,RVAR_3.3V*%
X64000000Y-66340000D03*
%TO.P,J10,9,Pin_9*%
%TO.N,OUT3*%
X66540000Y-68880000D03*
%TO.P,J10,10,Pin_10*%
%TO.N,RVAR_5V*%
X64000000Y-68880000D03*
%TO.P,J10,11,Pin_11*%
%TO.N,OUT2*%
X66540000Y-71420000D03*
%TO.P,J10,12,Pin_12*%
%TO.N,GND*%
X64000000Y-71420000D03*
%TO.P,J10,13,Pin_13*%
%TO.N,OUT1*%
X66540000Y-73960000D03*
%TO.P,J10,14,Pin_14*%
%TO.N,GND*%
X64000000Y-73960000D03*
%TO.P,J10,15,Pin_15*%
X66540000Y-76500000D03*
%TO.P,J10,16,Pin_16*%
%TO.N,SEL3*%
X64000000Y-76500000D03*
%TO.P,J10,17,Pin_17*%
%TO.N,IN2*%
X66540000Y-79040000D03*
%TO.P,J10,18,Pin_18*%
%TO.N,SEL2*%
X64000000Y-79040000D03*
%TO.P,J10,19,Pin_19*%
%TO.N,IN1*%
X66540000Y-81580000D03*
%TO.P,J10,20,Pin_20*%
%TO.N,SEL1*%
X64000000Y-81580000D03*
%TD*%
D11*
%TO.P,J4,1,In*%
%TO.N,OUT2*%
X87500000Y-74500000D03*
D10*
%TO.P,J4,2,Ext*%
%TO.N,GND*%
X90040000Y-74500000D03*
%TD*%
D11*
%TO.P,RV2,1,1*%
%TO.N,3.3V*%
X73500000Y-37500000D03*
D10*
%TO.P,RV2,2,2*%
%TO.N,RVAR_3.3V*%
X73500000Y-40040000D03*
%TO.P,RV2,3,3*%
%TO.N,GND*%
X73500000Y-42580000D03*
%TD*%
D11*
%TO.P,J12,1,Pin_1*%
%TO.N,GND*%
X80710000Y-108250000D03*
D10*
%TO.P,J12,2,Pin_2*%
%TO.N,SEL3*%
X83250000Y-108250000D03*
%TO.P,J12,3,Pin_3*%
%TO.N,3.3V*%
X85790000Y-108250000D03*
%TD*%
D14*
%TO.P,C6,1*%
%TO.N,3.3V*%
X80000000Y-37500000D03*
D12*
%TO.P,C6,2*%
%TO.N,GND*%
X80000000Y-35000000D03*
%TD*%
D15*
%TO.P,U1,1,IN*%
%TO.N,+15V*%
X102000000Y-54000000D03*
D16*
%TO.P,U1,2,GND*%
%TO.N,GND*%
X99460000Y-54000000D03*
%TO.P,U1,3,OUT*%
%TO.N,5V*%
X96920000Y-54000000D03*
%TD*%
D12*
%TO.P,R2,1*%
%TO.N,SEL2*%
X83160000Y-94000000D03*
%TO.P,R2,2*%
%TO.N,GND*%
X73000000Y-94000000D03*
%TD*%
D11*
%TO.P,J11,1,Pin_1*%
%TO.N,GND*%
X80670000Y-98000000D03*
D10*
%TO.P,J11,2,Pin_2*%
%TO.N,SEL2*%
X83210000Y-98000000D03*
%TO.P,J11,3,Pin_3*%
%TO.N,3.3V*%
X85750000Y-98000000D03*
%TD*%
D11*
%TO.P,J5,1,In*%
%TO.N,OUT3*%
X77500000Y-68000000D03*
D10*
%TO.P,J5,2,Ext*%
%TO.N,GND*%
X80040000Y-68000000D03*
%TD*%
D12*
%TO.P,R1,1*%
%TO.N,SEL1*%
X92410000Y-88000000D03*
%TO.P,R1,2*%
%TO.N,GND*%
X82250000Y-88000000D03*
%TD*%
%TO.P,C8,1*%
%TO.N,3.3V*%
X78500000Y-48500000D03*
%TO.P,C8,2*%
%TO.N,GND*%
X83500000Y-48500000D03*
%TD*%
D17*
%TO.P,U2,1,VO*%
%TO.N,3.3V*%
X80000000Y-42750000D03*
D18*
%TO.P,U2,2,GND*%
%TO.N,GND*%
X82540000Y-42750000D03*
%TO.P,U2,3,VI*%
%TO.N,+15V*%
X85080000Y-42750000D03*
%TD*%
D19*
%TO.N,SEL3*%
X83250000Y-103500000D02*
X83250000Y-108250000D01*
%TO.N,3.3V*%
X95000000Y-66750000D02*
X78500000Y-50250000D01*
X78500000Y-50250000D02*
X78500000Y-48500000D01*
X95000000Y-91750000D02*
X95000000Y-66750000D01*
%TO.N,SEL1*%
X92410000Y-91700000D02*
X92460000Y-91750000D01*
X92410000Y-88000000D02*
X92410000Y-91700000D01*
%TO.N,SEL2*%
X83210000Y-94050000D02*
X83160000Y-94000000D01*
X83210000Y-98000000D02*
X83210000Y-94050000D01*
%TO.N,RVAR_3.3V*%
X60250000Y-42000000D02*
X60250000Y-65000000D01*
X62210000Y-40040000D02*
X60250000Y-42000000D01*
X60250000Y-65000000D02*
X61590000Y-66340000D01*
X73500000Y-40040000D02*
X62210000Y-40040000D01*
X61590000Y-66340000D02*
X64000000Y-66340000D01*
%TO.N,RVAR_5V*%
X58500000Y-65750000D02*
X61630000Y-68880000D01*
X86000000Y-32500000D02*
X63000000Y-32500000D01*
X58500000Y-37000000D02*
X58500000Y-65750000D01*
X88250000Y-34750000D02*
X86000000Y-32500000D01*
X88250000Y-49040000D02*
X88250000Y-34750000D01*
X63000000Y-32500000D02*
X58500000Y-37000000D01*
X90500000Y-51290000D02*
X88250000Y-49040000D01*
X61630000Y-68880000D02*
X64000000Y-68880000D01*
%TD*%
M02*
