M48
; DRILL file {KiCad 9.0.4} date 2026-03-16T20:29:14+0100
; FORMAT={-:-/ absolute / metric / decimal}
; #@! TF.CreationDate,2026-03-16T20:29:14+01:00
; #@! TF.GenerationSoftware,Kicad,Pcbnew,9.0.4
; #@! TF.FileFunction,Plated,1,2,PTH
FMAT,2
METRIC
; #@! TA.AperFunction,Plated,PTH,ComponentDrill
T1C0.800
; #@! TA.AperFunction,Plated,PTH,ComponentDrill
T2C1.000
; #@! TA.AperFunction,Plated,PTH,ComponentDrill
T3C1.100
%
G90
G05
T1
X73.0Y-94.0
X73.09Y-103.5
X78.5Y-48.5
X80.0Y-35.0
X80.0Y-37.5
X80.0Y-42.75
X82.25Y-88.0
X82.54Y-42.75
X83.16Y-94.0
X83.25Y-103.5
X83.5Y-48.5
X85.08Y-42.75
X92.41Y-88.0
X94.75Y-38.25
X94.75Y-45.0
X97.0Y-62.25
X97.25Y-45.0
X99.75Y-38.25
X102.0Y-62.25
X102.75Y-45.0
X102.75Y-69.25
X105.25Y-45.0
X105.25Y-69.25
X105.25Y-75.25
X110.25Y-75.25
T2
X64.0Y-58.72
X64.0Y-61.26
X64.0Y-63.8
X64.0Y-66.34
X64.0Y-68.88
X64.0Y-71.42
X64.0Y-73.96
X64.0Y-76.5
X64.0Y-79.04
X64.0Y-81.58
X66.54Y-58.72
X66.54Y-61.26
X66.54Y-63.8
X66.54Y-66.34
X66.54Y-68.88
X66.54Y-71.42
X66.54Y-73.96
X66.54Y-76.5
X66.54Y-79.04
X66.54Y-81.58
X73.5Y-37.5
X73.5Y-40.04
X73.5Y-42.58
X77.5Y-68.0
X77.5Y-74.5
X77.5Y-81.0
X80.04Y-68.0
X80.04Y-74.5
X80.04Y-81.0
X80.67Y-98.0
X80.71Y-108.25
X83.21Y-98.0
X83.25Y-108.25
X85.75Y-98.0
X85.79Y-108.25
X87.5Y-68.0
X87.5Y-74.5
X87.5Y-81.0
X89.92Y-91.75
X90.04Y-68.0
X90.04Y-74.5
X90.04Y-81.0
X90.5Y-48.75
X90.5Y-51.29
X90.5Y-53.83
X92.46Y-91.75
X95.0Y-91.75
X111.0Y-54.0
X111.25Y-69.25
X113.54Y-54.0
X113.79Y-69.25
T3
X96.92Y-54.0
X99.46Y-54.0
X102.0Y-54.0
M30
