%TF.GenerationSoftware,KiCad,Pcbnew,9.0.4*%
%TF.CreationDate,2026-03-16T20:29:12+01:00*%
%TF.ProjectId,main_board,6d61696e-5f62-46f6-9172-642e6b696361,rev?*%
%TF.SameCoordinates,Original*%
%TF.FileFunction,Soldermask,Bot*%
%TF.FilePolarity,Negative*%
%FSLAX46Y46*%
G04 Gerber Fmt 4.6, Leading zero omitted, Abs format (unit mm)*
G04 Created by KiCad (PCBNEW 9.0.4) date 2026-03-16 20:29:12*
%MOMM*%
%LPD*%
G01*
G04 APERTURE LIST*
G04 APERTURE END LIST*
G36*
X81579134Y-107353806D02*
G01*
X81595355Y-107364645D01*
X81606194Y-107380866D01*
X81610000Y-107400000D01*
X81610000Y-109100000D01*
X81606194Y-109119134D01*
X81595355Y-109135355D01*
X81579134Y-109146194D01*
X81560000Y-109150000D01*
X79860000Y-109150000D01*
X79840866Y-109146194D01*
X79824645Y-109135355D01*
X79813806Y-109119134D01*
X79810000Y-109100000D01*
X79810000Y-107400000D01*
X79813806Y-107380866D01*
X79824645Y-107364645D01*
X79840866Y-107353806D01*
X79860000Y-107350000D01*
X81560000Y-107350000D01*
X81579134Y-107353806D01*
G37*
G36*
X83511256Y-107388754D02*
G01*
X83674257Y-107456271D01*
X83820954Y-107554291D01*
X83945709Y-107679046D01*
X84043729Y-107825743D01*
X84111246Y-107988744D01*
X84145666Y-108161785D01*
X84145666Y-108338215D01*
X84111246Y-108511256D01*
X84043729Y-108674257D01*
X83945709Y-108820954D01*
X83820954Y-108945709D01*
X83674257Y-109043729D01*
X83511256Y-109111246D01*
X83338215Y-109145666D01*
X83161785Y-109145666D01*
X82988744Y-109111246D01*
X82825743Y-109043729D01*
X82679046Y-108945709D01*
X82554291Y-108820954D01*
X82456271Y-108674257D01*
X82388754Y-108511256D01*
X82354334Y-108338215D01*
X82354334Y-108161785D01*
X82388754Y-107988744D01*
X82456271Y-107825743D01*
X82554291Y-107679046D01*
X82679046Y-107554291D01*
X82825743Y-107456271D01*
X82988744Y-107388754D01*
X83161785Y-107354334D01*
X83338215Y-107354334D01*
X83511256Y-107388754D01*
G37*
G36*
X86051256Y-107388754D02*
G01*
X86214257Y-107456271D01*
X86360954Y-107554291D01*
X86485709Y-107679046D01*
X86583729Y-107825743D01*
X86651246Y-107988744D01*
X86685666Y-108161785D01*
X86685666Y-108338215D01*
X86651246Y-108511256D01*
X86583729Y-108674257D01*
X86485709Y-108820954D01*
X86360954Y-108945709D01*
X86214257Y-109043729D01*
X86051256Y-109111246D01*
X85878215Y-109145666D01*
X85701785Y-109145666D01*
X85528744Y-109111246D01*
X85365743Y-109043729D01*
X85219046Y-108945709D01*
X85094291Y-108820954D01*
X84996271Y-108674257D01*
X84928754Y-108511256D01*
X84894334Y-108338215D01*
X84894334Y-108161785D01*
X84928754Y-107988744D01*
X84996271Y-107825743D01*
X85094291Y-107679046D01*
X85219046Y-107554291D01*
X85365743Y-107456271D01*
X85528744Y-107388754D01*
X85701785Y-107354334D01*
X85878215Y-107354334D01*
X86051256Y-107388754D01*
G37*
G36*
X73336742Y-102686601D02*
G01*
X73490687Y-102750367D01*
X73629234Y-102842941D01*
X73747059Y-102960766D01*
X73839633Y-103099313D01*
X73903399Y-103253258D01*
X73935907Y-103416685D01*
X73935907Y-103583315D01*
X73903399Y-103746742D01*
X73839633Y-103900687D01*
X73747059Y-104039234D01*
X73629234Y-104157059D01*
X73490687Y-104249633D01*
X73336742Y-104313399D01*
X73173315Y-104345907D01*
X73006685Y-104345907D01*
X72843258Y-104313399D01*
X72689313Y-104249633D01*
X72550766Y-104157059D01*
X72432941Y-104039234D01*
X72340367Y-103900687D01*
X72276601Y-103746742D01*
X72244093Y-103583315D01*
X72244093Y-103416685D01*
X72276601Y-103253258D01*
X72340367Y-103099313D01*
X72432941Y-102960766D01*
X72550766Y-102842941D01*
X72689313Y-102750367D01*
X72843258Y-102686601D01*
X73006685Y-102654093D01*
X73173315Y-102654093D01*
X73336742Y-102686601D01*
G37*
G36*
X83496742Y-102686601D02*
G01*
X83650687Y-102750367D01*
X83789234Y-102842941D01*
X83907059Y-102960766D01*
X83999633Y-103099313D01*
X84063399Y-103253258D01*
X84095907Y-103416685D01*
X84095907Y-103583315D01*
X84063399Y-103746742D01*
X83999633Y-103900687D01*
X83907059Y-104039234D01*
X83789234Y-104157059D01*
X83650687Y-104249633D01*
X83496742Y-104313399D01*
X83333315Y-104345907D01*
X83166685Y-104345907D01*
X83003258Y-104313399D01*
X82849313Y-104249633D01*
X82710766Y-104157059D01*
X82592941Y-104039234D01*
X82500367Y-103900687D01*
X82436601Y-103746742D01*
X82404093Y-103583315D01*
X82404093Y-103416685D01*
X82436601Y-103253258D01*
X82500367Y-103099313D01*
X82592941Y-102960766D01*
X82710766Y-102842941D01*
X82849313Y-102750367D01*
X83003258Y-102686601D01*
X83166685Y-102654093D01*
X83333315Y-102654093D01*
X83496742Y-102686601D01*
G37*
G36*
X112929199Y-97842272D02*
G01*
X113207167Y-97916754D01*
X113473035Y-98026880D01*
X113722255Y-98170767D01*
X113950561Y-98345952D01*
X114154048Y-98549439D01*
X114329233Y-98777745D01*
X114473120Y-99026965D01*
X114583246Y-99292833D01*
X114657728Y-99570801D01*
X114695290Y-99856113D01*
X114695290Y-100143887D01*
X114657728Y-100429199D01*
X114583246Y-100707167D01*
X114473120Y-100973035D01*
X114329233Y-101222255D01*
X114154048Y-101450561D01*
X113950561Y-101654048D01*
X113722255Y-101829233D01*
X113473035Y-101973120D01*
X113207167Y-102083246D01*
X112929199Y-102157728D01*
X112643887Y-102195290D01*
X112356113Y-102195290D01*
X112070801Y-102157728D01*
X111792833Y-102083246D01*
X111526965Y-101973120D01*
X111277745Y-101829233D01*
X111049439Y-101654048D01*
X110845952Y-101450561D01*
X110670767Y-101222255D01*
X110526880Y-100973035D01*
X110416754Y-100707167D01*
X110342272Y-100429199D01*
X110304710Y-100143887D01*
X110304710Y-99856113D01*
X110342272Y-99570801D01*
X110416754Y-99292833D01*
X110526880Y-99026965D01*
X110670767Y-98777745D01*
X110845952Y-98549439D01*
X111049439Y-98345952D01*
X111277745Y-98170767D01*
X111526965Y-98026880D01*
X111792833Y-97916754D01*
X112070801Y-97842272D01*
X112356113Y-97804710D01*
X112643887Y-97804710D01*
X112929199Y-97842272D01*
G37*
G36*
X81539134Y-97103806D02*
G01*
X81555355Y-97114645D01*
X81566194Y-97130866D01*
X81570000Y-97150000D01*
X81570000Y-98850000D01*
X81566194Y-98869134D01*
X81555355Y-98885355D01*
X81539134Y-98896194D01*
X81520000Y-98900000D01*
X79820000Y-98900000D01*
X79800866Y-98896194D01*
X79784645Y-98885355D01*
X79773806Y-98869134D01*
X79770000Y-98850000D01*
X79770000Y-97150000D01*
X79773806Y-97130866D01*
X79784645Y-97114645D01*
X79800866Y-97103806D01*
X79820000Y-97100000D01*
X81520000Y-97100000D01*
X81539134Y-97103806D01*
G37*
G36*
X83471256Y-97138754D02*
G01*
X83634257Y-97206271D01*
X83780954Y-97304291D01*
X83905709Y-97429046D01*
X84003729Y-97575743D01*
X84071246Y-97738744D01*
X84105666Y-97911785D01*
X84105666Y-98088215D01*
X84071246Y-98261256D01*
X84003729Y-98424257D01*
X83905709Y-98570954D01*
X83780954Y-98695709D01*
X83634257Y-98793729D01*
X83471256Y-98861246D01*
X83298215Y-98895666D01*
X83121785Y-98895666D01*
X82948744Y-98861246D01*
X82785743Y-98793729D01*
X82639046Y-98695709D01*
X82514291Y-98570954D01*
X82416271Y-98424257D01*
X82348754Y-98261256D01*
X82314334Y-98088215D01*
X82314334Y-97911785D01*
X82348754Y-97738744D01*
X82416271Y-97575743D01*
X82514291Y-97429046D01*
X82639046Y-97304291D01*
X82785743Y-97206271D01*
X82948744Y-97138754D01*
X83121785Y-97104334D01*
X83298215Y-97104334D01*
X83471256Y-97138754D01*
G37*
G36*
X86011256Y-97138754D02*
G01*
X86174257Y-97206271D01*
X86320954Y-97304291D01*
X86445709Y-97429046D01*
X86543729Y-97575743D01*
X86611246Y-97738744D01*
X86645666Y-97911785D01*
X86645666Y-98088215D01*
X86611246Y-98261256D01*
X86543729Y-98424257D01*
X86445709Y-98570954D01*
X86320954Y-98695709D01*
X86174257Y-98793729D01*
X86011256Y-98861246D01*
X85838215Y-98895666D01*
X85661785Y-98895666D01*
X85488744Y-98861246D01*
X85325743Y-98793729D01*
X85179046Y-98695709D01*
X85054291Y-98570954D01*
X84956271Y-98424257D01*
X84888754Y-98261256D01*
X84854334Y-98088215D01*
X84854334Y-97911785D01*
X84888754Y-97738744D01*
X84956271Y-97575743D01*
X85054291Y-97429046D01*
X85179046Y-97304291D01*
X85325743Y-97206271D01*
X85488744Y-97138754D01*
X85661785Y-97104334D01*
X85838215Y-97104334D01*
X86011256Y-97138754D01*
G37*
G36*
X65429199Y-92842272D02*
G01*
X65707167Y-92916754D01*
X65973035Y-93026880D01*
X66222255Y-93170767D01*
X66450561Y-93345952D01*
X66654048Y-93549439D01*
X66829233Y-93777745D01*
X66973120Y-94026965D01*
X67083246Y-94292833D01*
X67157728Y-94570801D01*
X67195290Y-94856113D01*
X67195290Y-95143887D01*
X67157728Y-95429199D01*
X67083246Y-95707167D01*
X66973120Y-95973035D01*
X66829233Y-96222255D01*
X66654048Y-96450561D01*
X66450561Y-96654048D01*
X66222255Y-96829233D01*
X65973035Y-96973120D01*
X65707167Y-97083246D01*
X65429199Y-97157728D01*
X65143887Y-97195290D01*
X64856113Y-97195290D01*
X64570801Y-97157728D01*
X64292833Y-97083246D01*
X64026965Y-96973120D01*
X63777745Y-96829233D01*
X63549439Y-96654048D01*
X63345952Y-96450561D01*
X63170767Y-96222255D01*
X63026880Y-95973035D01*
X62916754Y-95707167D01*
X62842272Y-95429199D01*
X62804710Y-95143887D01*
X62804710Y-94856113D01*
X62842272Y-94570801D01*
X62916754Y-94292833D01*
X63026880Y-94026965D01*
X63170767Y-93777745D01*
X63345952Y-93549439D01*
X63549439Y-93345952D01*
X63777745Y-93170767D01*
X64026965Y-93026880D01*
X64292833Y-92916754D01*
X64570801Y-92842272D01*
X64856113Y-92804710D01*
X65143887Y-92804710D01*
X65429199Y-92842272D01*
G37*
G36*
X73246742Y-93186601D02*
G01*
X73400687Y-93250367D01*
X73539234Y-93342941D01*
X73657059Y-93460766D01*
X73749633Y-93599313D01*
X73813399Y-93753258D01*
X73845907Y-93916685D01*
X73845907Y-94083315D01*
X73813399Y-94246742D01*
X73749633Y-94400687D01*
X73657059Y-94539234D01*
X73539234Y-94657059D01*
X73400687Y-94749633D01*
X73246742Y-94813399D01*
X73083315Y-94845907D01*
X72916685Y-94845907D01*
X72753258Y-94813399D01*
X72599313Y-94749633D01*
X72460766Y-94657059D01*
X72342941Y-94539234D01*
X72250367Y-94400687D01*
X72186601Y-94246742D01*
X72154093Y-94083315D01*
X72154093Y-93916685D01*
X72186601Y-93753258D01*
X72250367Y-93599313D01*
X72342941Y-93460766D01*
X72460766Y-93342941D01*
X72599313Y-93250367D01*
X72753258Y-93186601D01*
X72916685Y-93154093D01*
X73083315Y-93154093D01*
X73246742Y-93186601D01*
G37*
G36*
X83406742Y-93186601D02*
G01*
X83560687Y-93250367D01*
X83699234Y-93342941D01*
X83817059Y-93460766D01*
X83909633Y-93599313D01*
X83973399Y-93753258D01*
X84005907Y-93916685D01*
X84005907Y-94083315D01*
X83973399Y-94246742D01*
X83909633Y-94400687D01*
X83817059Y-94539234D01*
X83699234Y-94657059D01*
X83560687Y-94749633D01*
X83406742Y-94813399D01*
X83243315Y-94845907D01*
X83076685Y-94845907D01*
X82913258Y-94813399D01*
X82759313Y-94749633D01*
X82620766Y-94657059D01*
X82502941Y-94539234D01*
X82410367Y-94400687D01*
X82346601Y-94246742D01*
X82314093Y-94083315D01*
X82314093Y-93916685D01*
X82346601Y-93753258D01*
X82410367Y-93599313D01*
X82502941Y-93460766D01*
X82620766Y-93342941D01*
X82759313Y-93250367D01*
X82913258Y-93186601D01*
X83076685Y-93154093D01*
X83243315Y-93154093D01*
X83406742Y-93186601D01*
G37*
G36*
X90789134Y-90853806D02*
G01*
X90805355Y-90864645D01*
X90816194Y-90880866D01*
X90820000Y-90900000D01*
X90820000Y-92600000D01*
X90816194Y-92619134D01*
X90805355Y-92635355D01*
X90789134Y-92646194D01*
X90770000Y-92650000D01*
X89070000Y-92650000D01*
X89050866Y-92646194D01*
X89034645Y-92635355D01*
X89023806Y-92619134D01*
X89020000Y-92600000D01*
X89020000Y-90900000D01*
X89023806Y-90880866D01*
X89034645Y-90864645D01*
X89050866Y-90853806D01*
X89070000Y-90850000D01*
X90770000Y-90850000D01*
X90789134Y-90853806D01*
G37*
G36*
X92721256Y-90888754D02*
G01*
X92884257Y-90956271D01*
X93030954Y-91054291D01*
X93155709Y-91179046D01*
X93253729Y-91325743D01*
X93321246Y-91488744D01*
X93355666Y-91661785D01*
X93355666Y-91838215D01*
X93321246Y-92011256D01*
X93253729Y-92174257D01*
X93155709Y-92320954D01*
X93030954Y-92445709D01*
X92884257Y-92543729D01*
X92721256Y-92611246D01*
X92548215Y-92645666D01*
X92371785Y-92645666D01*
X92198744Y-92611246D01*
X92035743Y-92543729D01*
X91889046Y-92445709D01*
X91764291Y-92320954D01*
X91666271Y-92174257D01*
X91598754Y-92011256D01*
X91564334Y-91838215D01*
X91564334Y-91661785D01*
X91598754Y-91488744D01*
X91666271Y-91325743D01*
X91764291Y-91179046D01*
X91889046Y-91054291D01*
X92035743Y-90956271D01*
X92198744Y-90888754D01*
X92371785Y-90854334D01*
X92548215Y-90854334D01*
X92721256Y-90888754D01*
G37*
G36*
X95261256Y-90888754D02*
G01*
X95424257Y-90956271D01*
X95570954Y-91054291D01*
X95695709Y-91179046D01*
X95793729Y-91325743D01*
X95861246Y-91488744D01*
X95895666Y-91661785D01*
X95895666Y-91838215D01*
X95861246Y-92011256D01*
X95793729Y-92174257D01*
X95695709Y-92320954D01*
X95570954Y-92445709D01*
X95424257Y-92543729D01*
X95261256Y-92611246D01*
X95088215Y-92645666D01*
X94911785Y-92645666D01*
X94738744Y-92611246D01*
X94575743Y-92543729D01*
X94429046Y-92445709D01*
X94304291Y-92320954D01*
X94206271Y-92174257D01*
X94138754Y-92011256D01*
X94104334Y-91838215D01*
X94104334Y-91661785D01*
X94138754Y-91488744D01*
X94206271Y-91325743D01*
X94304291Y-91179046D01*
X94429046Y-91054291D01*
X94575743Y-90956271D01*
X94738744Y-90888754D01*
X94911785Y-90854334D01*
X95088215Y-90854334D01*
X95261256Y-90888754D01*
G37*
G36*
X82496742Y-87186601D02*
G01*
X82650687Y-87250367D01*
X82789234Y-87342941D01*
X82907059Y-87460766D01*
X82999633Y-87599313D01*
X83063399Y-87753258D01*
X83095907Y-87916685D01*
X83095907Y-88083315D01*
X83063399Y-88246742D01*
X82999633Y-88400687D01*
X82907059Y-88539234D01*
X82789234Y-88657059D01*
X82650687Y-88749633D01*
X82496742Y-88813399D01*
X82333315Y-88845907D01*
X82166685Y-88845907D01*
X82003258Y-88813399D01*
X81849313Y-88749633D01*
X81710766Y-88657059D01*
X81592941Y-88539234D01*
X81500367Y-88400687D01*
X81436601Y-88246742D01*
X81404093Y-88083315D01*
X81404093Y-87916685D01*
X81436601Y-87753258D01*
X81500367Y-87599313D01*
X81592941Y-87460766D01*
X81710766Y-87342941D01*
X81849313Y-87250367D01*
X82003258Y-87186601D01*
X82166685Y-87154093D01*
X82333315Y-87154093D01*
X82496742Y-87186601D01*
G37*
G36*
X92656742Y-87186601D02*
G01*
X92810687Y-87250367D01*
X92949234Y-87342941D01*
X93067059Y-87460766D01*
X93159633Y-87599313D01*
X93223399Y-87753258D01*
X93255907Y-87916685D01*
X93255907Y-88083315D01*
X93223399Y-88246742D01*
X93159633Y-88400687D01*
X93067059Y-88539234D01*
X92949234Y-88657059D01*
X92810687Y-88749633D01*
X92656742Y-88813399D01*
X92493315Y-88845907D01*
X92326685Y-88845907D01*
X92163258Y-88813399D01*
X92009313Y-88749633D01*
X91870766Y-88657059D01*
X91752941Y-88539234D01*
X91660367Y-88400687D01*
X91596601Y-88246742D01*
X91564093Y-88083315D01*
X91564093Y-87916685D01*
X91596601Y-87753258D01*
X91660367Y-87599313D01*
X91752941Y-87460766D01*
X91870766Y-87342941D01*
X92009313Y-87250367D01*
X92163258Y-87186601D01*
X92326685Y-87154093D01*
X92493315Y-87154093D01*
X92656742Y-87186601D01*
G37*
G36*
X64261256Y-80718754D02*
G01*
X64424257Y-80786271D01*
X64570954Y-80884291D01*
X64695709Y-81009046D01*
X64793729Y-81155743D01*
X64861246Y-81318744D01*
X64895666Y-81491785D01*
X64895666Y-81668215D01*
X64861246Y-81841256D01*
X64793729Y-82004257D01*
X64695709Y-82150954D01*
X64570954Y-82275709D01*
X64424257Y-82373729D01*
X64261256Y-82441246D01*
X64088215Y-82475666D01*
X63911785Y-82475666D01*
X63738744Y-82441246D01*
X63575743Y-82373729D01*
X63429046Y-82275709D01*
X63304291Y-82150954D01*
X63206271Y-82004257D01*
X63138754Y-81841256D01*
X63104334Y-81668215D01*
X63104334Y-81491785D01*
X63138754Y-81318744D01*
X63206271Y-81155743D01*
X63304291Y-81009046D01*
X63429046Y-80884291D01*
X63575743Y-80786271D01*
X63738744Y-80718754D01*
X63911785Y-80684334D01*
X64088215Y-80684334D01*
X64261256Y-80718754D01*
G37*
G36*
X66801256Y-80718754D02*
G01*
X66964257Y-80786271D01*
X67110954Y-80884291D01*
X67235709Y-81009046D01*
X67333729Y-81155743D01*
X67401246Y-81318744D01*
X67435666Y-81491785D01*
X67435666Y-81668215D01*
X67401246Y-81841256D01*
X67333729Y-82004257D01*
X67235709Y-82150954D01*
X67110954Y-82275709D01*
X66964257Y-82373729D01*
X66801256Y-82441246D01*
X66628215Y-82475666D01*
X66451785Y-82475666D01*
X66278744Y-82441246D01*
X66115743Y-82373729D01*
X65969046Y-82275709D01*
X65844291Y-82150954D01*
X65746271Y-82004257D01*
X65678754Y-81841256D01*
X65644334Y-81668215D01*
X65644334Y-81491785D01*
X65678754Y-81318744D01*
X65746271Y-81155743D01*
X65844291Y-81009046D01*
X65969046Y-80884291D01*
X66115743Y-80786271D01*
X66278744Y-80718754D01*
X66451785Y-80684334D01*
X66628215Y-80684334D01*
X66801256Y-80718754D01*
G37*
G36*
X78369134Y-80103806D02*
G01*
X78385355Y-80114645D01*
X78396194Y-80130866D01*
X78400000Y-80150000D01*
X78400000Y-81850000D01*
X78396194Y-81869134D01*
X78385355Y-81885355D01*
X78369134Y-81896194D01*
X78350000Y-81900000D01*
X76650000Y-81900000D01*
X76630866Y-81896194D01*
X76614645Y-81885355D01*
X76603806Y-81869134D01*
X76600000Y-81850000D01*
X76600000Y-80150000D01*
X76603806Y-80130866D01*
X76614645Y-80114645D01*
X76630866Y-80103806D01*
X76650000Y-80100000D01*
X78350000Y-80100000D01*
X78369134Y-80103806D01*
G37*
G36*
X88369134Y-80103806D02*
G01*
X88385355Y-80114645D01*
X88396194Y-80130866D01*
X88400000Y-80150000D01*
X88400000Y-81850000D01*
X88396194Y-81869134D01*
X88385355Y-81885355D01*
X88369134Y-81896194D01*
X88350000Y-81900000D01*
X86650000Y-81900000D01*
X86630866Y-81896194D01*
X86614645Y-81885355D01*
X86603806Y-81869134D01*
X86600000Y-81850000D01*
X86600000Y-80150000D01*
X86603806Y-80130866D01*
X86614645Y-80114645D01*
X86630866Y-80103806D01*
X86650000Y-80100000D01*
X88350000Y-80100000D01*
X88369134Y-80103806D01*
G37*
G36*
X80301256Y-80138754D02*
G01*
X80464257Y-80206271D01*
X80610954Y-80304291D01*
X80735709Y-80429046D01*
X80833729Y-80575743D01*
X80901246Y-80738744D01*
X80935666Y-80911785D01*
X80935666Y-81088215D01*
X80901246Y-81261256D01*
X80833729Y-81424257D01*
X80735709Y-81570954D01*
X80610954Y-81695709D01*
X80464257Y-81793729D01*
X80301256Y-81861246D01*
X80128215Y-81895666D01*
X79951785Y-81895666D01*
X79778744Y-81861246D01*
X79615743Y-81793729D01*
X79469046Y-81695709D01*
X79344291Y-81570954D01*
X79246271Y-81424257D01*
X79178754Y-81261256D01*
X79144334Y-81088215D01*
X79144334Y-80911785D01*
X79178754Y-80738744D01*
X79246271Y-80575743D01*
X79344291Y-80429046D01*
X79469046Y-80304291D01*
X79615743Y-80206271D01*
X79778744Y-80138754D01*
X79951785Y-80104334D01*
X80128215Y-80104334D01*
X80301256Y-80138754D01*
G37*
G36*
X90301256Y-80138754D02*
G01*
X90464257Y-80206271D01*
X90610954Y-80304291D01*
X90735709Y-80429046D01*
X90833729Y-80575743D01*
X90901246Y-80738744D01*
X90935666Y-80911785D01*
X90935666Y-81088215D01*
X90901246Y-81261256D01*
X90833729Y-81424257D01*
X90735709Y-81570954D01*
X90610954Y-81695709D01*
X90464257Y-81793729D01*
X90301256Y-81861246D01*
X90128215Y-81895666D01*
X89951785Y-81895666D01*
X89778744Y-81861246D01*
X89615743Y-81793729D01*
X89469046Y-81695709D01*
X89344291Y-81570954D01*
X89246271Y-81424257D01*
X89178754Y-81261256D01*
X89144334Y-81088215D01*
X89144334Y-80911785D01*
X89178754Y-80738744D01*
X89246271Y-80575743D01*
X89344291Y-80429046D01*
X89469046Y-80304291D01*
X89615743Y-80206271D01*
X89778744Y-80138754D01*
X89951785Y-80104334D01*
X90128215Y-80104334D01*
X90301256Y-80138754D01*
G37*
G36*
X64261256Y-78178754D02*
G01*
X64424257Y-78246271D01*
X64570954Y-78344291D01*
X64695709Y-78469046D01*
X64793729Y-78615743D01*
X64861246Y-78778744D01*
X64895666Y-78951785D01*
X64895666Y-79128215D01*
X64861246Y-79301256D01*
X64793729Y-79464257D01*
X64695709Y-79610954D01*
X64570954Y-79735709D01*
X64424257Y-79833729D01*
X64261256Y-79901246D01*
X64088215Y-79935666D01*
X63911785Y-79935666D01*
X63738744Y-79901246D01*
X63575743Y-79833729D01*
X63429046Y-79735709D01*
X63304291Y-79610954D01*
X63206271Y-79464257D01*
X63138754Y-79301256D01*
X63104334Y-79128215D01*
X63104334Y-78951785D01*
X63138754Y-78778744D01*
X63206271Y-78615743D01*
X63304291Y-78469046D01*
X63429046Y-78344291D01*
X63575743Y-78246271D01*
X63738744Y-78178754D01*
X63911785Y-78144334D01*
X64088215Y-78144334D01*
X64261256Y-78178754D01*
G37*
G36*
X66801256Y-78178754D02*
G01*
X66964257Y-78246271D01*
X67110954Y-78344291D01*
X67235709Y-78469046D01*
X67333729Y-78615743D01*
X67401246Y-78778744D01*
X67435666Y-78951785D01*
X67435666Y-79128215D01*
X67401246Y-79301256D01*
X67333729Y-79464257D01*
X67235709Y-79610954D01*
X67110954Y-79735709D01*
X66964257Y-79833729D01*
X66801256Y-79901246D01*
X66628215Y-79935666D01*
X66451785Y-79935666D01*
X66278744Y-79901246D01*
X66115743Y-79833729D01*
X65969046Y-79735709D01*
X65844291Y-79610954D01*
X65746271Y-79464257D01*
X65678754Y-79301256D01*
X65644334Y-79128215D01*
X65644334Y-78951785D01*
X65678754Y-78778744D01*
X65746271Y-78615743D01*
X65844291Y-78469046D01*
X65969046Y-78344291D01*
X66115743Y-78246271D01*
X66278744Y-78178754D01*
X66451785Y-78144334D01*
X66628215Y-78144334D01*
X66801256Y-78178754D01*
G37*
G36*
X64261256Y-75638754D02*
G01*
X64424257Y-75706271D01*
X64570954Y-75804291D01*
X64695709Y-75929046D01*
X64793729Y-76075743D01*
X64861246Y-76238744D01*
X64895666Y-76411785D01*
X64895666Y-76588215D01*
X64861246Y-76761256D01*
X64793729Y-76924257D01*
X64695709Y-77070954D01*
X64570954Y-77195709D01*
X64424257Y-77293729D01*
X64261256Y-77361246D01*
X64088215Y-77395666D01*
X63911785Y-77395666D01*
X63738744Y-77361246D01*
X63575743Y-77293729D01*
X63429046Y-77195709D01*
X63304291Y-77070954D01*
X63206271Y-76924257D01*
X63138754Y-76761256D01*
X63104334Y-76588215D01*
X63104334Y-76411785D01*
X63138754Y-76238744D01*
X63206271Y-76075743D01*
X63304291Y-75929046D01*
X63429046Y-75804291D01*
X63575743Y-75706271D01*
X63738744Y-75638754D01*
X63911785Y-75604334D01*
X64088215Y-75604334D01*
X64261256Y-75638754D01*
G37*
G36*
X66801256Y-75638754D02*
G01*
X66964257Y-75706271D01*
X67110954Y-75804291D01*
X67235709Y-75929046D01*
X67333729Y-76075743D01*
X67401246Y-76238744D01*
X67435666Y-76411785D01*
X67435666Y-76588215D01*
X67401246Y-76761256D01*
X67333729Y-76924257D01*
X67235709Y-77070954D01*
X67110954Y-77195709D01*
X66964257Y-77293729D01*
X66801256Y-77361246D01*
X66628215Y-77395666D01*
X66451785Y-77395666D01*
X66278744Y-77361246D01*
X66115743Y-77293729D01*
X65969046Y-77195709D01*
X65844291Y-77070954D01*
X65746271Y-76924257D01*
X65678754Y-76761256D01*
X65644334Y-76588215D01*
X65644334Y-76411785D01*
X65678754Y-76238744D01*
X65746271Y-76075743D01*
X65844291Y-75929046D01*
X65969046Y-75804291D01*
X66115743Y-75706271D01*
X66278744Y-75638754D01*
X66451785Y-75604334D01*
X66628215Y-75604334D01*
X66801256Y-75638754D01*
G37*
G36*
X105496742Y-74436601D02*
G01*
X105650687Y-74500367D01*
X105789234Y-74592941D01*
X105907059Y-74710766D01*
X105999633Y-74849313D01*
X106063399Y-75003258D01*
X106095907Y-75166685D01*
X106095907Y-75333315D01*
X106063399Y-75496742D01*
X105999633Y-75650687D01*
X105907059Y-75789234D01*
X105789234Y-75907059D01*
X105650687Y-75999633D01*
X105496742Y-76063399D01*
X105333315Y-76095907D01*
X105166685Y-76095907D01*
X105003258Y-76063399D01*
X104849313Y-75999633D01*
X104710766Y-75907059D01*
X104592941Y-75789234D01*
X104500367Y-75650687D01*
X104436601Y-75496742D01*
X104404093Y-75333315D01*
X104404093Y-75166685D01*
X104436601Y-75003258D01*
X104500367Y-74849313D01*
X104592941Y-74710766D01*
X104710766Y-74592941D01*
X104849313Y-74500367D01*
X105003258Y-74436601D01*
X105166685Y-74404093D01*
X105333315Y-74404093D01*
X105496742Y-74436601D01*
G37*
G36*
X110496742Y-74436601D02*
G01*
X110650687Y-74500367D01*
X110789234Y-74592941D01*
X110907059Y-74710766D01*
X110999633Y-74849313D01*
X111063399Y-75003258D01*
X111095907Y-75166685D01*
X111095907Y-75333315D01*
X111063399Y-75496742D01*
X110999633Y-75650687D01*
X110907059Y-75789234D01*
X110789234Y-75907059D01*
X110650687Y-75999633D01*
X110496742Y-76063399D01*
X110333315Y-76095907D01*
X110166685Y-76095907D01*
X110003258Y-76063399D01*
X109849313Y-75999633D01*
X109710766Y-75907059D01*
X109592941Y-75789234D01*
X109500367Y-75650687D01*
X109436601Y-75496742D01*
X109404093Y-75333315D01*
X109404093Y-75166685D01*
X109436601Y-75003258D01*
X109500367Y-74849313D01*
X109592941Y-74710766D01*
X109710766Y-74592941D01*
X109849313Y-74500367D01*
X110003258Y-74436601D01*
X110166685Y-74404093D01*
X110333315Y-74404093D01*
X110496742Y-74436601D01*
G37*
G36*
X78369134Y-73603806D02*
G01*
X78385355Y-73614645D01*
X78396194Y-73630866D01*
X78400000Y-73650000D01*
X78400000Y-75350000D01*
X78396194Y-75369134D01*
X78385355Y-75385355D01*
X78369134Y-75396194D01*
X78350000Y-75400000D01*
X76650000Y-75400000D01*
X76630866Y-75396194D01*
X76614645Y-75385355D01*
X76603806Y-75369134D01*
X76600000Y-75350000D01*
X76600000Y-73650000D01*
X76603806Y-73630866D01*
X76614645Y-73614645D01*
X76630866Y-73603806D01*
X76650000Y-73600000D01*
X78350000Y-73600000D01*
X78369134Y-73603806D01*
G37*
G36*
X88369134Y-73603806D02*
G01*
X88385355Y-73614645D01*
X88396194Y-73630866D01*
X88400000Y-73650000D01*
X88400000Y-75350000D01*
X88396194Y-75369134D01*
X88385355Y-75385355D01*
X88369134Y-75396194D01*
X88350000Y-75400000D01*
X86650000Y-75400000D01*
X86630866Y-75396194D01*
X86614645Y-75385355D01*
X86603806Y-75369134D01*
X86600000Y-75350000D01*
X86600000Y-73650000D01*
X86603806Y-73630866D01*
X86614645Y-73614645D01*
X86630866Y-73603806D01*
X86650000Y-73600000D01*
X88350000Y-73600000D01*
X88369134Y-73603806D01*
G37*
G36*
X80301256Y-73638754D02*
G01*
X80464257Y-73706271D01*
X80610954Y-73804291D01*
X80735709Y-73929046D01*
X80833729Y-74075743D01*
X80901246Y-74238744D01*
X80935666Y-74411785D01*
X80935666Y-74588215D01*
X80901246Y-74761256D01*
X80833729Y-74924257D01*
X80735709Y-75070954D01*
X80610954Y-75195709D01*
X80464257Y-75293729D01*
X80301256Y-75361246D01*
X80128215Y-75395666D01*
X79951785Y-75395666D01*
X79778744Y-75361246D01*
X79615743Y-75293729D01*
X79469046Y-75195709D01*
X79344291Y-75070954D01*
X79246271Y-74924257D01*
X79178754Y-74761256D01*
X79144334Y-74588215D01*
X79144334Y-74411785D01*
X79178754Y-74238744D01*
X79246271Y-74075743D01*
X79344291Y-73929046D01*
X79469046Y-73804291D01*
X79615743Y-73706271D01*
X79778744Y-73638754D01*
X79951785Y-73604334D01*
X80128215Y-73604334D01*
X80301256Y-73638754D01*
G37*
G36*
X90301256Y-73638754D02*
G01*
X90464257Y-73706271D01*
X90610954Y-73804291D01*
X90735709Y-73929046D01*
X90833729Y-74075743D01*
X90901246Y-74238744D01*
X90935666Y-74411785D01*
X90935666Y-74588215D01*
X90901246Y-74761256D01*
X90833729Y-74924257D01*
X90735709Y-75070954D01*
X90610954Y-75195709D01*
X90464257Y-75293729D01*
X90301256Y-75361246D01*
X90128215Y-75395666D01*
X89951785Y-75395666D01*
X89778744Y-75361246D01*
X89615743Y-75293729D01*
X89469046Y-75195709D01*
X89344291Y-75070954D01*
X89246271Y-74924257D01*
X89178754Y-74761256D01*
X89144334Y-74588215D01*
X89144334Y-74411785D01*
X89178754Y-74238744D01*
X89246271Y-74075743D01*
X89344291Y-73929046D01*
X89469046Y-73804291D01*
X89615743Y-73706271D01*
X89778744Y-73638754D01*
X89951785Y-73604334D01*
X90128215Y-73604334D01*
X90301256Y-73638754D01*
G37*
G36*
X64261256Y-73098754D02*
G01*
X64424257Y-73166271D01*
X64570954Y-73264291D01*
X64695709Y-73389046D01*
X64793729Y-73535743D01*
X64861246Y-73698744D01*
X64895666Y-73871785D01*
X64895666Y-74048215D01*
X64861246Y-74221256D01*
X64793729Y-74384257D01*
X64695709Y-74530954D01*
X64570954Y-74655709D01*
X64424257Y-74753729D01*
X64261256Y-74821246D01*
X64088215Y-74855666D01*
X63911785Y-74855666D01*
X63738744Y-74821246D01*
X63575743Y-74753729D01*
X63429046Y-74655709D01*
X63304291Y-74530954D01*
X63206271Y-74384257D01*
X63138754Y-74221256D01*
X63104334Y-74048215D01*
X63104334Y-73871785D01*
X63138754Y-73698744D01*
X63206271Y-73535743D01*
X63304291Y-73389046D01*
X63429046Y-73264291D01*
X63575743Y-73166271D01*
X63738744Y-73098754D01*
X63911785Y-73064334D01*
X64088215Y-73064334D01*
X64261256Y-73098754D01*
G37*
G36*
X66801256Y-73098754D02*
G01*
X66964257Y-73166271D01*
X67110954Y-73264291D01*
X67235709Y-73389046D01*
X67333729Y-73535743D01*
X67401246Y-73698744D01*
X67435666Y-73871785D01*
X67435666Y-74048215D01*
X67401246Y-74221256D01*
X67333729Y-74384257D01*
X67235709Y-74530954D01*
X67110954Y-74655709D01*
X66964257Y-74753729D01*
X66801256Y-74821246D01*
X66628215Y-74855666D01*
X66451785Y-74855666D01*
X66278744Y-74821246D01*
X66115743Y-74753729D01*
X65969046Y-74655709D01*
X65844291Y-74530954D01*
X65746271Y-74384257D01*
X65678754Y-74221256D01*
X65644334Y-74048215D01*
X65644334Y-73871785D01*
X65678754Y-73698744D01*
X65746271Y-73535743D01*
X65844291Y-73389046D01*
X65969046Y-73264291D01*
X66115743Y-73166271D01*
X66278744Y-73098754D01*
X66451785Y-73064334D01*
X66628215Y-73064334D01*
X66801256Y-73098754D01*
G37*
G36*
X64261256Y-70558754D02*
G01*
X64424257Y-70626271D01*
X64570954Y-70724291D01*
X64695709Y-70849046D01*
X64793729Y-70995743D01*
X64861246Y-71158744D01*
X64895666Y-71331785D01*
X64895666Y-71508215D01*
X64861246Y-71681256D01*
X64793729Y-71844257D01*
X64695709Y-71990954D01*
X64570954Y-72115709D01*
X64424257Y-72213729D01*
X64261256Y-72281246D01*
X64088215Y-72315666D01*
X63911785Y-72315666D01*
X63738744Y-72281246D01*
X63575743Y-72213729D01*
X63429046Y-72115709D01*
X63304291Y-71990954D01*
X63206271Y-71844257D01*
X63138754Y-71681256D01*
X63104334Y-71508215D01*
X63104334Y-71331785D01*
X63138754Y-71158744D01*
X63206271Y-70995743D01*
X63304291Y-70849046D01*
X63429046Y-70724291D01*
X63575743Y-70626271D01*
X63738744Y-70558754D01*
X63911785Y-70524334D01*
X64088215Y-70524334D01*
X64261256Y-70558754D01*
G37*
G36*
X66801256Y-70558754D02*
G01*
X66964257Y-70626271D01*
X67110954Y-70724291D01*
X67235709Y-70849046D01*
X67333729Y-70995743D01*
X67401246Y-71158744D01*
X67435666Y-71331785D01*
X67435666Y-71508215D01*
X67401246Y-71681256D01*
X67333729Y-71844257D01*
X67235709Y-71990954D01*
X67110954Y-72115709D01*
X66964257Y-72213729D01*
X66801256Y-72281246D01*
X66628215Y-72315666D01*
X66451785Y-72315666D01*
X66278744Y-72281246D01*
X66115743Y-72213729D01*
X65969046Y-72115709D01*
X65844291Y-71990954D01*
X65746271Y-71844257D01*
X65678754Y-71681256D01*
X65644334Y-71508215D01*
X65644334Y-71331785D01*
X65678754Y-71158744D01*
X65746271Y-70995743D01*
X65844291Y-70849046D01*
X65969046Y-70724291D01*
X66115743Y-70626271D01*
X66278744Y-70558754D01*
X66451785Y-70524334D01*
X66628215Y-70524334D01*
X66801256Y-70558754D01*
G37*
G36*
X114659134Y-68353806D02*
G01*
X114675355Y-68364645D01*
X114686194Y-68380866D01*
X114690000Y-68400000D01*
X114690000Y-70100000D01*
X114686194Y-70119134D01*
X114675355Y-70135355D01*
X114659134Y-70146194D01*
X114640000Y-70150000D01*
X112940000Y-70150000D01*
X112920866Y-70146194D01*
X112904645Y-70135355D01*
X112893806Y-70119134D01*
X112890000Y-70100000D01*
X112890000Y-68400000D01*
X112893806Y-68380866D01*
X112904645Y-68364645D01*
X112920866Y-68353806D01*
X112940000Y-68350000D01*
X114640000Y-68350000D01*
X114659134Y-68353806D01*
G37*
G36*
X111511256Y-68388754D02*
G01*
X111674257Y-68456271D01*
X111820954Y-68554291D01*
X111945709Y-68679046D01*
X112043729Y-68825743D01*
X112111246Y-68988744D01*
X112145666Y-69161785D01*
X112145666Y-69338215D01*
X112111246Y-69511256D01*
X112043729Y-69674257D01*
X111945709Y-69820954D01*
X111820954Y-69945709D01*
X111674257Y-70043729D01*
X111511256Y-70111246D01*
X111338215Y-70145666D01*
X111161785Y-70145666D01*
X110988744Y-70111246D01*
X110825743Y-70043729D01*
X110679046Y-69945709D01*
X110554291Y-69820954D01*
X110456271Y-69674257D01*
X110388754Y-69511256D01*
X110354334Y-69338215D01*
X110354334Y-69161785D01*
X110388754Y-68988744D01*
X110456271Y-68825743D01*
X110554291Y-68679046D01*
X110679046Y-68554291D01*
X110825743Y-68456271D01*
X110988744Y-68388754D01*
X111161785Y-68354334D01*
X111338215Y-68354334D01*
X111511256Y-68388754D01*
G37*
G36*
X103368685Y-68407969D02*
G01*
X103384461Y-68414934D01*
X103392222Y-68416164D01*
X103424542Y-68432632D01*
X103469541Y-68452501D01*
X103547499Y-68530459D01*
X103567370Y-68575464D01*
X103583835Y-68607777D01*
X103585063Y-68615535D01*
X103592031Y-68631315D01*
X103600000Y-68700000D01*
X103600000Y-69800000D01*
X103592031Y-69868685D01*
X103585063Y-69884464D01*
X103583835Y-69892222D01*
X103567373Y-69924528D01*
X103547499Y-69969541D01*
X103469541Y-70047499D01*
X103424528Y-70067373D01*
X103392222Y-70083835D01*
X103384464Y-70085063D01*
X103368685Y-70092031D01*
X103300000Y-70100000D01*
X102200000Y-70100000D01*
X102131315Y-70092031D01*
X102115535Y-70085063D01*
X102107777Y-70083835D01*
X102075464Y-70067370D01*
X102030459Y-70047499D01*
X101952501Y-69969541D01*
X101932632Y-69924542D01*
X101916164Y-69892222D01*
X101914934Y-69884461D01*
X101907969Y-69868685D01*
X101900000Y-69800000D01*
X101900000Y-68700000D01*
X101907969Y-68631315D01*
X101914934Y-68615539D01*
X101916164Y-68607777D01*
X101932635Y-68575449D01*
X101952501Y-68530459D01*
X102030459Y-68452501D01*
X102075449Y-68432635D01*
X102107777Y-68416164D01*
X102115539Y-68414934D01*
X102131315Y-68407969D01*
X102200000Y-68400000D01*
X103300000Y-68400000D01*
X103368685Y-68407969D01*
G37*
G36*
X105496742Y-68436601D02*
G01*
X105650687Y-68500367D01*
X105789234Y-68592941D01*
X105907059Y-68710766D01*
X105999633Y-68849313D01*
X106063399Y-69003258D01*
X106095907Y-69166685D01*
X106095907Y-69333315D01*
X106063399Y-69496742D01*
X105999633Y-69650687D01*
X105907059Y-69789234D01*
X105789234Y-69907059D01*
X105650687Y-69999633D01*
X105496742Y-70063399D01*
X105333315Y-70095907D01*
X105166685Y-70095907D01*
X105003258Y-70063399D01*
X104849313Y-69999633D01*
X104710766Y-69907059D01*
X104592941Y-69789234D01*
X104500367Y-69650687D01*
X104436601Y-69496742D01*
X104404093Y-69333315D01*
X104404093Y-69166685D01*
X104436601Y-69003258D01*
X104500367Y-68849313D01*
X104592941Y-68710766D01*
X104710766Y-68592941D01*
X104849313Y-68500367D01*
X105003258Y-68436601D01*
X105166685Y-68404093D01*
X105333315Y-68404093D01*
X105496742Y-68436601D01*
G37*
G36*
X64261256Y-68018754D02*
G01*
X64424257Y-68086271D01*
X64570954Y-68184291D01*
X64695709Y-68309046D01*
X64793729Y-68455743D01*
X64861246Y-68618744D01*
X64895666Y-68791785D01*
X64895666Y-68968215D01*
X64861246Y-69141256D01*
X64793729Y-69304257D01*
X64695709Y-69450954D01*
X64570954Y-69575709D01*
X64424257Y-69673729D01*
X64261256Y-69741246D01*
X64088215Y-69775666D01*
X63911785Y-69775666D01*
X63738744Y-69741246D01*
X63575743Y-69673729D01*
X63429046Y-69575709D01*
X63304291Y-69450954D01*
X63206271Y-69304257D01*
X63138754Y-69141256D01*
X63104334Y-68968215D01*
X63104334Y-68791785D01*
X63138754Y-68618744D01*
X63206271Y-68455743D01*
X63304291Y-68309046D01*
X63429046Y-68184291D01*
X63575743Y-68086271D01*
X63738744Y-68018754D01*
X63911785Y-67984334D01*
X64088215Y-67984334D01*
X64261256Y-68018754D01*
G37*
G36*
X66801256Y-68018754D02*
G01*
X66964257Y-68086271D01*
X67110954Y-68184291D01*
X67235709Y-68309046D01*
X67333729Y-68455743D01*
X67401246Y-68618744D01*
X67435666Y-68791785D01*
X67435666Y-68968215D01*
X67401246Y-69141256D01*
X67333729Y-69304257D01*
X67235709Y-69450954D01*
X67110954Y-69575709D01*
X66964257Y-69673729D01*
X66801256Y-69741246D01*
X66628215Y-69775666D01*
X66451785Y-69775666D01*
X66278744Y-69741246D01*
X66115743Y-69673729D01*
X65969046Y-69575709D01*
X65844291Y-69450954D01*
X65746271Y-69304257D01*
X65678754Y-69141256D01*
X65644334Y-68968215D01*
X65644334Y-68791785D01*
X65678754Y-68618744D01*
X65746271Y-68455743D01*
X65844291Y-68309046D01*
X65969046Y-68184291D01*
X66115743Y-68086271D01*
X66278744Y-68018754D01*
X66451785Y-67984334D01*
X66628215Y-67984334D01*
X66801256Y-68018754D01*
G37*
G36*
X78369134Y-67103806D02*
G01*
X78385355Y-67114645D01*
X78396194Y-67130866D01*
X78400000Y-67150000D01*
X78400000Y-68850000D01*
X78396194Y-68869134D01*
X78385355Y-68885355D01*
X78369134Y-68896194D01*
X78350000Y-68900000D01*
X76650000Y-68900000D01*
X76630866Y-68896194D01*
X76614645Y-68885355D01*
X76603806Y-68869134D01*
X76600000Y-68850000D01*
X76600000Y-67150000D01*
X76603806Y-67130866D01*
X76614645Y-67114645D01*
X76630866Y-67103806D01*
X76650000Y-67100000D01*
X78350000Y-67100000D01*
X78369134Y-67103806D01*
G37*
G36*
X88369134Y-67103806D02*
G01*
X88385355Y-67114645D01*
X88396194Y-67130866D01*
X88400000Y-67150000D01*
X88400000Y-68850000D01*
X88396194Y-68869134D01*
X88385355Y-68885355D01*
X88369134Y-68896194D01*
X88350000Y-68900000D01*
X86650000Y-68900000D01*
X86630866Y-68896194D01*
X86614645Y-68885355D01*
X86603806Y-68869134D01*
X86600000Y-68850000D01*
X86600000Y-67150000D01*
X86603806Y-67130866D01*
X86614645Y-67114645D01*
X86630866Y-67103806D01*
X86650000Y-67100000D01*
X88350000Y-67100000D01*
X88369134Y-67103806D01*
G37*
G36*
X80301256Y-67138754D02*
G01*
X80464257Y-67206271D01*
X80610954Y-67304291D01*
X80735709Y-67429046D01*
X80833729Y-67575743D01*
X80901246Y-67738744D01*
X80935666Y-67911785D01*
X80935666Y-68088215D01*
X80901246Y-68261256D01*
X80833729Y-68424257D01*
X80735709Y-68570954D01*
X80610954Y-68695709D01*
X80464257Y-68793729D01*
X80301256Y-68861246D01*
X80128215Y-68895666D01*
X79951785Y-68895666D01*
X79778744Y-68861246D01*
X79615743Y-68793729D01*
X79469046Y-68695709D01*
X79344291Y-68570954D01*
X79246271Y-68424257D01*
X79178754Y-68261256D01*
X79144334Y-68088215D01*
X79144334Y-67911785D01*
X79178754Y-67738744D01*
X79246271Y-67575743D01*
X79344291Y-67429046D01*
X79469046Y-67304291D01*
X79615743Y-67206271D01*
X79778744Y-67138754D01*
X79951785Y-67104334D01*
X80128215Y-67104334D01*
X80301256Y-67138754D01*
G37*
G36*
X90301256Y-67138754D02*
G01*
X90464257Y-67206271D01*
X90610954Y-67304291D01*
X90735709Y-67429046D01*
X90833729Y-67575743D01*
X90901246Y-67738744D01*
X90935666Y-67911785D01*
X90935666Y-68088215D01*
X90901246Y-68261256D01*
X90833729Y-68424257D01*
X90735709Y-68570954D01*
X90610954Y-68695709D01*
X90464257Y-68793729D01*
X90301256Y-68861246D01*
X90128215Y-68895666D01*
X89951785Y-68895666D01*
X89778744Y-68861246D01*
X89615743Y-68793729D01*
X89469046Y-68695709D01*
X89344291Y-68570954D01*
X89246271Y-68424257D01*
X89178754Y-68261256D01*
X89144334Y-68088215D01*
X89144334Y-67911785D01*
X89178754Y-67738744D01*
X89246271Y-67575743D01*
X89344291Y-67429046D01*
X89469046Y-67304291D01*
X89615743Y-67206271D01*
X89778744Y-67138754D01*
X89951785Y-67104334D01*
X90128215Y-67104334D01*
X90301256Y-67138754D01*
G37*
G36*
X64261256Y-65478754D02*
G01*
X64424257Y-65546271D01*
X64570954Y-65644291D01*
X64695709Y-65769046D01*
X64793729Y-65915743D01*
X64861246Y-66078744D01*
X64895666Y-66251785D01*
X64895666Y-66428215D01*
X64861246Y-66601256D01*
X64793729Y-66764257D01*
X64695709Y-66910954D01*
X64570954Y-67035709D01*
X64424257Y-67133729D01*
X64261256Y-67201246D01*
X64088215Y-67235666D01*
X63911785Y-67235666D01*
X63738744Y-67201246D01*
X63575743Y-67133729D01*
X63429046Y-67035709D01*
X63304291Y-66910954D01*
X63206271Y-66764257D01*
X63138754Y-66601256D01*
X63104334Y-66428215D01*
X63104334Y-66251785D01*
X63138754Y-66078744D01*
X63206271Y-65915743D01*
X63304291Y-65769046D01*
X63429046Y-65644291D01*
X63575743Y-65546271D01*
X63738744Y-65478754D01*
X63911785Y-65444334D01*
X64088215Y-65444334D01*
X64261256Y-65478754D01*
G37*
G36*
X66801256Y-65478754D02*
G01*
X66964257Y-65546271D01*
X67110954Y-65644291D01*
X67235709Y-65769046D01*
X67333729Y-65915743D01*
X67401246Y-66078744D01*
X67435666Y-66251785D01*
X67435666Y-66428215D01*
X67401246Y-66601256D01*
X67333729Y-66764257D01*
X67235709Y-66910954D01*
X67110954Y-67035709D01*
X66964257Y-67133729D01*
X66801256Y-67201246D01*
X66628215Y-67235666D01*
X66451785Y-67235666D01*
X66278744Y-67201246D01*
X66115743Y-67133729D01*
X65969046Y-67035709D01*
X65844291Y-66910954D01*
X65746271Y-66764257D01*
X65678754Y-66601256D01*
X65644334Y-66428215D01*
X65644334Y-66251785D01*
X65678754Y-66078744D01*
X65746271Y-65915743D01*
X65844291Y-65769046D01*
X65969046Y-65644291D01*
X66115743Y-65546271D01*
X66278744Y-65478754D01*
X66451785Y-65444334D01*
X66628215Y-65444334D01*
X66801256Y-65478754D01*
G37*
G36*
X64261256Y-62938754D02*
G01*
X64424257Y-63006271D01*
X64570954Y-63104291D01*
X64695709Y-63229046D01*
X64793729Y-63375743D01*
X64861246Y-63538744D01*
X64895666Y-63711785D01*
X64895666Y-63888215D01*
X64861246Y-64061256D01*
X64793729Y-64224257D01*
X64695709Y-64370954D01*
X64570954Y-64495709D01*
X64424257Y-64593729D01*
X64261256Y-64661246D01*
X64088215Y-64695666D01*
X63911785Y-64695666D01*
X63738744Y-64661246D01*
X63575743Y-64593729D01*
X63429046Y-64495709D01*
X63304291Y-64370954D01*
X63206271Y-64224257D01*
X63138754Y-64061256D01*
X63104334Y-63888215D01*
X63104334Y-63711785D01*
X63138754Y-63538744D01*
X63206271Y-63375743D01*
X63304291Y-63229046D01*
X63429046Y-63104291D01*
X63575743Y-63006271D01*
X63738744Y-62938754D01*
X63911785Y-62904334D01*
X64088215Y-62904334D01*
X64261256Y-62938754D01*
G37*
G36*
X66801256Y-62938754D02*
G01*
X66964257Y-63006271D01*
X67110954Y-63104291D01*
X67235709Y-63229046D01*
X67333729Y-63375743D01*
X67401246Y-63538744D01*
X67435666Y-63711785D01*
X67435666Y-63888215D01*
X67401246Y-64061256D01*
X67333729Y-64224257D01*
X67235709Y-64370954D01*
X67110954Y-64495709D01*
X66964257Y-64593729D01*
X66801256Y-64661246D01*
X66628215Y-64695666D01*
X66451785Y-64695666D01*
X66278744Y-64661246D01*
X66115743Y-64593729D01*
X65969046Y-64495709D01*
X65844291Y-64370954D01*
X65746271Y-64224257D01*
X65678754Y-64061256D01*
X65644334Y-63888215D01*
X65644334Y-63711785D01*
X65678754Y-63538744D01*
X65746271Y-63375743D01*
X65844291Y-63229046D01*
X65969046Y-63104291D01*
X66115743Y-63006271D01*
X66278744Y-62938754D01*
X66451785Y-62904334D01*
X66628215Y-62904334D01*
X66801256Y-62938754D01*
G37*
G36*
X97246742Y-61436601D02*
G01*
X97400687Y-61500367D01*
X97539234Y-61592941D01*
X97657059Y-61710766D01*
X97749633Y-61849313D01*
X97813399Y-62003258D01*
X97845907Y-62166685D01*
X97845907Y-62333315D01*
X97813399Y-62496742D01*
X97749633Y-62650687D01*
X97657059Y-62789234D01*
X97539234Y-62907059D01*
X97400687Y-62999633D01*
X97246742Y-63063399D01*
X97083315Y-63095907D01*
X96916685Y-63095907D01*
X96753258Y-63063399D01*
X96599313Y-62999633D01*
X96460766Y-62907059D01*
X96342941Y-62789234D01*
X96250367Y-62650687D01*
X96186601Y-62496742D01*
X96154093Y-62333315D01*
X96154093Y-62166685D01*
X96186601Y-62003258D01*
X96250367Y-61849313D01*
X96342941Y-61710766D01*
X96460766Y-61592941D01*
X96599313Y-61500367D01*
X96753258Y-61436601D01*
X96916685Y-61404093D01*
X97083315Y-61404093D01*
X97246742Y-61436601D01*
G37*
G36*
X102246742Y-61436601D02*
G01*
X102400687Y-61500367D01*
X102539234Y-61592941D01*
X102657059Y-61710766D01*
X102749633Y-61849313D01*
X102813399Y-62003258D01*
X102845907Y-62166685D01*
X102845907Y-62333315D01*
X102813399Y-62496742D01*
X102749633Y-62650687D01*
X102657059Y-62789234D01*
X102539234Y-62907059D01*
X102400687Y-62999633D01*
X102246742Y-63063399D01*
X102083315Y-63095907D01*
X101916685Y-63095907D01*
X101753258Y-63063399D01*
X101599313Y-62999633D01*
X101460766Y-62907059D01*
X101342941Y-62789234D01*
X101250367Y-62650687D01*
X101186601Y-62496742D01*
X101154093Y-62333315D01*
X101154093Y-62166685D01*
X101186601Y-62003258D01*
X101250367Y-61849313D01*
X101342941Y-61710766D01*
X101460766Y-61592941D01*
X101599313Y-61500367D01*
X101753258Y-61436601D01*
X101916685Y-61404093D01*
X102083315Y-61404093D01*
X102246742Y-61436601D01*
G37*
G36*
X64261256Y-60398754D02*
G01*
X64424257Y-60466271D01*
X64570954Y-60564291D01*
X64695709Y-60689046D01*
X64793729Y-60835743D01*
X64861246Y-60998744D01*
X64895666Y-61171785D01*
X64895666Y-61348215D01*
X64861246Y-61521256D01*
X64793729Y-61684257D01*
X64695709Y-61830954D01*
X64570954Y-61955709D01*
X64424257Y-62053729D01*
X64261256Y-62121246D01*
X64088215Y-62155666D01*
X63911785Y-62155666D01*
X63738744Y-62121246D01*
X63575743Y-62053729D01*
X63429046Y-61955709D01*
X63304291Y-61830954D01*
X63206271Y-61684257D01*
X63138754Y-61521256D01*
X63104334Y-61348215D01*
X63104334Y-61171785D01*
X63138754Y-60998744D01*
X63206271Y-60835743D01*
X63304291Y-60689046D01*
X63429046Y-60564291D01*
X63575743Y-60466271D01*
X63738744Y-60398754D01*
X63911785Y-60364334D01*
X64088215Y-60364334D01*
X64261256Y-60398754D01*
G37*
G36*
X66801256Y-60398754D02*
G01*
X66964257Y-60466271D01*
X67110954Y-60564291D01*
X67235709Y-60689046D01*
X67333729Y-60835743D01*
X67401246Y-60998744D01*
X67435666Y-61171785D01*
X67435666Y-61348215D01*
X67401246Y-61521256D01*
X67333729Y-61684257D01*
X67235709Y-61830954D01*
X67110954Y-61955709D01*
X66964257Y-62053729D01*
X66801256Y-62121246D01*
X66628215Y-62155666D01*
X66451785Y-62155666D01*
X66278744Y-62121246D01*
X66115743Y-62053729D01*
X65969046Y-61955709D01*
X65844291Y-61830954D01*
X65746271Y-61684257D01*
X65678754Y-61521256D01*
X65644334Y-61348215D01*
X65644334Y-61171785D01*
X65678754Y-60998744D01*
X65746271Y-60835743D01*
X65844291Y-60689046D01*
X65969046Y-60564291D01*
X66115743Y-60466271D01*
X66278744Y-60398754D01*
X66451785Y-60364334D01*
X66628215Y-60364334D01*
X66801256Y-60398754D01*
G37*
G36*
X67409134Y-57823806D02*
G01*
X67425355Y-57834645D01*
X67436194Y-57850866D01*
X67440000Y-57870000D01*
X67440000Y-59570000D01*
X67436194Y-59589134D01*
X67425355Y-59605355D01*
X67409134Y-59616194D01*
X67390000Y-59620000D01*
X65690000Y-59620000D01*
X65670866Y-59616194D01*
X65654645Y-59605355D01*
X65643806Y-59589134D01*
X65640000Y-59570000D01*
X65640000Y-57870000D01*
X65643806Y-57850866D01*
X65654645Y-57834645D01*
X65670866Y-57823806D01*
X65690000Y-57820000D01*
X67390000Y-57820000D01*
X67409134Y-57823806D01*
G37*
G36*
X64261256Y-57858754D02*
G01*
X64424257Y-57926271D01*
X64570954Y-58024291D01*
X64695709Y-58149046D01*
X64793729Y-58295743D01*
X64861246Y-58458744D01*
X64895666Y-58631785D01*
X64895666Y-58808215D01*
X64861246Y-58981256D01*
X64793729Y-59144257D01*
X64695709Y-59290954D01*
X64570954Y-59415709D01*
X64424257Y-59513729D01*
X64261256Y-59581246D01*
X64088215Y-59615666D01*
X63911785Y-59615666D01*
X63738744Y-59581246D01*
X63575743Y-59513729D01*
X63429046Y-59415709D01*
X63304291Y-59290954D01*
X63206271Y-59144257D01*
X63138754Y-58981256D01*
X63104334Y-58808215D01*
X63104334Y-58631785D01*
X63138754Y-58458744D01*
X63206271Y-58295743D01*
X63304291Y-58149046D01*
X63429046Y-58024291D01*
X63575743Y-57926271D01*
X63738744Y-57858754D01*
X63911785Y-57824334D01*
X64088215Y-57824334D01*
X64261256Y-57858754D01*
G37*
G36*
X102971634Y-52953806D02*
G01*
X102987855Y-52964645D01*
X102998694Y-52980866D01*
X103002500Y-53000000D01*
X103002500Y-55000000D01*
X102998694Y-55019134D01*
X102987855Y-55035355D01*
X102971634Y-55046194D01*
X102952500Y-55050000D01*
X101047500Y-55050000D01*
X101028366Y-55046194D01*
X101012145Y-55035355D01*
X101001306Y-55019134D01*
X100997500Y-55000000D01*
X100997500Y-53000000D01*
X101001306Y-52980866D01*
X101012145Y-52964645D01*
X101028366Y-52953806D01*
X101047500Y-52950000D01*
X102952500Y-52950000D01*
X102971634Y-52953806D01*
G37*
G36*
X97007156Y-52954827D02*
G01*
X97018262Y-52954827D01*
X97061664Y-52963460D01*
X97153938Y-52978075D01*
X97183616Y-52987718D01*
X97211010Y-52993167D01*
X97249665Y-53009178D01*
X97303492Y-53026668D01*
X97353923Y-53052364D01*
X97392575Y-53068374D01*
X97415792Y-53083887D01*
X97443602Y-53098057D01*
X97519199Y-53152981D01*
X97555979Y-53177557D01*
X97563828Y-53185406D01*
X97570817Y-53190484D01*
X97682015Y-53301682D01*
X97687092Y-53308670D01*
X97694943Y-53316521D01*
X97719521Y-53353305D01*
X97774442Y-53428897D01*
X97788610Y-53456704D01*
X97804126Y-53479925D01*
X97820137Y-53518581D01*
X97845831Y-53569007D01*
X97863318Y-53622826D01*
X97879333Y-53661490D01*
X97884783Y-53688889D01*
X97894424Y-53718561D01*
X97909037Y-53810823D01*
X97917673Y-53854238D01*
X97918463Y-53870339D01*
X97919409Y-53876306D01*
X97922015Y-53942646D01*
X97922500Y-53952500D01*
X97922500Y-54047500D01*
X97922015Y-54057357D01*
X97919409Y-54123693D01*
X97918464Y-54129659D01*
X97917673Y-54145762D01*
X97909036Y-54189180D01*
X97894424Y-54281438D01*
X97884783Y-54311108D01*
X97879333Y-54338510D01*
X97863316Y-54377176D01*
X97845831Y-54430992D01*
X97820140Y-54481413D01*
X97804126Y-54520075D01*
X97788608Y-54543299D01*
X97774442Y-54571102D01*
X97719529Y-54646682D01*
X97694943Y-54683479D01*
X97687089Y-54691332D01*
X97682015Y-54698317D01*
X97570817Y-54809515D01*
X97563832Y-54814589D01*
X97555979Y-54822443D01*
X97519182Y-54847029D01*
X97443602Y-54901942D01*
X97415799Y-54916108D01*
X97392575Y-54931626D01*
X97353913Y-54947640D01*
X97303492Y-54973331D01*
X97249676Y-54990816D01*
X97211010Y-55006833D01*
X97183608Y-55012283D01*
X97153938Y-55021924D01*
X97061674Y-55036537D01*
X97018262Y-55045173D01*
X97007156Y-55045173D01*
X96998626Y-55046524D01*
X96841374Y-55046524D01*
X96832844Y-55045173D01*
X96821738Y-55045173D01*
X96778326Y-55036537D01*
X96686061Y-55021924D01*
X96656389Y-55012283D01*
X96628990Y-55006833D01*
X96590326Y-54990818D01*
X96536507Y-54973331D01*
X96486081Y-54947637D01*
X96447425Y-54931626D01*
X96424204Y-54916110D01*
X96396397Y-54901942D01*
X96320805Y-54847021D01*
X96284021Y-54822443D01*
X96276170Y-54814592D01*
X96269182Y-54809515D01*
X96157984Y-54698317D01*
X96152906Y-54691328D01*
X96145057Y-54683479D01*
X96120481Y-54646699D01*
X96065557Y-54571102D01*
X96051387Y-54543292D01*
X96035874Y-54520075D01*
X96019864Y-54481423D01*
X95994168Y-54430992D01*
X95976678Y-54377165D01*
X95960667Y-54338510D01*
X95955218Y-54311116D01*
X95945575Y-54281438D01*
X95930958Y-54189155D01*
X95922327Y-54145762D01*
X95921536Y-54129668D01*
X95920590Y-54123693D01*
X95917983Y-54057341D01*
X95917500Y-54047500D01*
X95917500Y-53952500D01*
X95917983Y-53942662D01*
X95920590Y-53876306D01*
X95921536Y-53870330D01*
X95922327Y-53854238D01*
X95930957Y-53810848D01*
X95945575Y-53718561D01*
X95955218Y-53688881D01*
X95960667Y-53661490D01*
X95976677Y-53622837D01*
X95994168Y-53569007D01*
X96019866Y-53518570D01*
X96035874Y-53479925D01*
X96051385Y-53456710D01*
X96065557Y-53428897D01*
X96120490Y-53353287D01*
X96145057Y-53316521D01*
X96152904Y-53308673D01*
X96157984Y-53301682D01*
X96269182Y-53190484D01*
X96276173Y-53185404D01*
X96284021Y-53177557D01*
X96320787Y-53152990D01*
X96396397Y-53098057D01*
X96424210Y-53083885D01*
X96447425Y-53068374D01*
X96486070Y-53052366D01*
X96536507Y-53026668D01*
X96590337Y-53009177D01*
X96628990Y-52993167D01*
X96656381Y-52987718D01*
X96686061Y-52978075D01*
X96778336Y-52963460D01*
X96821738Y-52954827D01*
X96832844Y-52954827D01*
X96841374Y-52953476D01*
X96998626Y-52953476D01*
X97007156Y-52954827D01*
G37*
G36*
X99547156Y-52954827D02*
G01*
X99558262Y-52954827D01*
X99601664Y-52963460D01*
X99693938Y-52978075D01*
X99723616Y-52987718D01*
X99751010Y-52993167D01*
X99789665Y-53009178D01*
X99843492Y-53026668D01*
X99893923Y-53052364D01*
X99932575Y-53068374D01*
X99955792Y-53083887D01*
X99983602Y-53098057D01*
X100059199Y-53152981D01*
X100095979Y-53177557D01*
X100103828Y-53185406D01*
X100110817Y-53190484D01*
X100222015Y-53301682D01*
X100227092Y-53308670D01*
X100234943Y-53316521D01*
X100259521Y-53353305D01*
X100314442Y-53428897D01*
X100328610Y-53456704D01*
X100344126Y-53479925D01*
X100360137Y-53518581D01*
X100385831Y-53569007D01*
X100403318Y-53622826D01*
X100419333Y-53661490D01*
X100424783Y-53688889D01*
X100434424Y-53718561D01*
X100449037Y-53810823D01*
X100457673Y-53854238D01*
X100458463Y-53870339D01*
X100459409Y-53876306D01*
X100462015Y-53942646D01*
X100462500Y-53952500D01*
X100462500Y-54047500D01*
X100462015Y-54057357D01*
X100459409Y-54123693D01*
X100458464Y-54129659D01*
X100457673Y-54145762D01*
X100449036Y-54189180D01*
X100434424Y-54281438D01*
X100424783Y-54311108D01*
X100419333Y-54338510D01*
X100403316Y-54377176D01*
X100385831Y-54430992D01*
X100360140Y-54481413D01*
X100344126Y-54520075D01*
X100328608Y-54543299D01*
X100314442Y-54571102D01*
X100259529Y-54646682D01*
X100234943Y-54683479D01*
X100227089Y-54691332D01*
X100222015Y-54698317D01*
X100110817Y-54809515D01*
X100103832Y-54814589D01*
X100095979Y-54822443D01*
X100059182Y-54847029D01*
X99983602Y-54901942D01*
X99955799Y-54916108D01*
X99932575Y-54931626D01*
X99893913Y-54947640D01*
X99843492Y-54973331D01*
X99789676Y-54990816D01*
X99751010Y-55006833D01*
X99723608Y-55012283D01*
X99693938Y-55021924D01*
X99601674Y-55036537D01*
X99558262Y-55045173D01*
X99547156Y-55045173D01*
X99538626Y-55046524D01*
X99381374Y-55046524D01*
X99372844Y-55045173D01*
X99361738Y-55045173D01*
X99318326Y-55036537D01*
X99226061Y-55021924D01*
X99196389Y-55012283D01*
X99168990Y-55006833D01*
X99130326Y-54990818D01*
X99076507Y-54973331D01*
X99026081Y-54947637D01*
X98987425Y-54931626D01*
X98964204Y-54916110D01*
X98936397Y-54901942D01*
X98860805Y-54847021D01*
X98824021Y-54822443D01*
X98816170Y-54814592D01*
X98809182Y-54809515D01*
X98697984Y-54698317D01*
X98692906Y-54691328D01*
X98685057Y-54683479D01*
X98660481Y-54646699D01*
X98605557Y-54571102D01*
X98591387Y-54543292D01*
X98575874Y-54520075D01*
X98559864Y-54481423D01*
X98534168Y-54430992D01*
X98516678Y-54377165D01*
X98500667Y-54338510D01*
X98495218Y-54311116D01*
X98485575Y-54281438D01*
X98470958Y-54189155D01*
X98462327Y-54145762D01*
X98461536Y-54129668D01*
X98460590Y-54123693D01*
X98457983Y-54057341D01*
X98457500Y-54047500D01*
X98457500Y-53952500D01*
X98457983Y-53942662D01*
X98460590Y-53876306D01*
X98461536Y-53870330D01*
X98462327Y-53854238D01*
X98470957Y-53810848D01*
X98485575Y-53718561D01*
X98495218Y-53688881D01*
X98500667Y-53661490D01*
X98516677Y-53622837D01*
X98534168Y-53569007D01*
X98559866Y-53518570D01*
X98575874Y-53479925D01*
X98591385Y-53456710D01*
X98605557Y-53428897D01*
X98660490Y-53353287D01*
X98685057Y-53316521D01*
X98692904Y-53308673D01*
X98697984Y-53301682D01*
X98809182Y-53190484D01*
X98816173Y-53185404D01*
X98824021Y-53177557D01*
X98860787Y-53152990D01*
X98936397Y-53098057D01*
X98964210Y-53083885D01*
X98987425Y-53068374D01*
X99026070Y-53052366D01*
X99076507Y-53026668D01*
X99130337Y-53009177D01*
X99168990Y-52993167D01*
X99196381Y-52987718D01*
X99226061Y-52978075D01*
X99318336Y-52963460D01*
X99361738Y-52954827D01*
X99372844Y-52954827D01*
X99381374Y-52953476D01*
X99538626Y-52953476D01*
X99547156Y-52954827D01*
G37*
G36*
X114409134Y-53103806D02*
G01*
X114425355Y-53114645D01*
X114436194Y-53130866D01*
X114440000Y-53150000D01*
X114440000Y-54850000D01*
X114436194Y-54869134D01*
X114425355Y-54885355D01*
X114409134Y-54896194D01*
X114390000Y-54900000D01*
X112690000Y-54900000D01*
X112670866Y-54896194D01*
X112654645Y-54885355D01*
X112643806Y-54869134D01*
X112640000Y-54850000D01*
X112640000Y-53150000D01*
X112643806Y-53130866D01*
X112654645Y-53114645D01*
X112670866Y-53103806D01*
X112690000Y-53100000D01*
X114390000Y-53100000D01*
X114409134Y-53103806D01*
G37*
G36*
X111261256Y-53138754D02*
G01*
X111424257Y-53206271D01*
X111570954Y-53304291D01*
X111695709Y-53429046D01*
X111793729Y-53575743D01*
X111861246Y-53738744D01*
X111895666Y-53911785D01*
X111895666Y-54088215D01*
X111861246Y-54261256D01*
X111793729Y-54424257D01*
X111695709Y-54570954D01*
X111570954Y-54695709D01*
X111424257Y-54793729D01*
X111261256Y-54861246D01*
X111088215Y-54895666D01*
X110911785Y-54895666D01*
X110738744Y-54861246D01*
X110575743Y-54793729D01*
X110429046Y-54695709D01*
X110304291Y-54570954D01*
X110206271Y-54424257D01*
X110138754Y-54261256D01*
X110104334Y-54088215D01*
X110104334Y-53911785D01*
X110138754Y-53738744D01*
X110206271Y-53575743D01*
X110304291Y-53429046D01*
X110429046Y-53304291D01*
X110575743Y-53206271D01*
X110738744Y-53138754D01*
X110911785Y-53104334D01*
X111088215Y-53104334D01*
X111261256Y-53138754D01*
G37*
G36*
X91369134Y-52933806D02*
G01*
X91385355Y-52944645D01*
X91396194Y-52960866D01*
X91400000Y-52980000D01*
X91400000Y-54680000D01*
X91396194Y-54699134D01*
X91385355Y-54715355D01*
X91369134Y-54726194D01*
X91350000Y-54730000D01*
X89650000Y-54730000D01*
X89630866Y-54726194D01*
X89614645Y-54715355D01*
X89603806Y-54699134D01*
X89600000Y-54680000D01*
X89600000Y-52980000D01*
X89603806Y-52960866D01*
X89614645Y-52944645D01*
X89630866Y-52933806D01*
X89650000Y-52930000D01*
X91350000Y-52930000D01*
X91369134Y-52933806D01*
G37*
G36*
X90761256Y-50428754D02*
G01*
X90924257Y-50496271D01*
X91070954Y-50594291D01*
X91195709Y-50719046D01*
X91293729Y-50865743D01*
X91361246Y-51028744D01*
X91395666Y-51201785D01*
X91395666Y-51378215D01*
X91361246Y-51551256D01*
X91293729Y-51714257D01*
X91195709Y-51860954D01*
X91070954Y-51985709D01*
X90924257Y-52083729D01*
X90761256Y-52151246D01*
X90588215Y-52185666D01*
X90411785Y-52185666D01*
X90238744Y-52151246D01*
X90075743Y-52083729D01*
X89929046Y-51985709D01*
X89804291Y-51860954D01*
X89706271Y-51714257D01*
X89638754Y-51551256D01*
X89604334Y-51378215D01*
X89604334Y-51201785D01*
X89638754Y-51028744D01*
X89706271Y-50865743D01*
X89804291Y-50719046D01*
X89929046Y-50594291D01*
X90075743Y-50496271D01*
X90238744Y-50428754D01*
X90411785Y-50394334D01*
X90588215Y-50394334D01*
X90761256Y-50428754D01*
G37*
G36*
X90761256Y-47888754D02*
G01*
X90924257Y-47956271D01*
X91070954Y-48054291D01*
X91195709Y-48179046D01*
X91293729Y-48325743D01*
X91361246Y-48488744D01*
X91395666Y-48661785D01*
X91395666Y-48838215D01*
X91361246Y-49011256D01*
X91293729Y-49174257D01*
X91195709Y-49320954D01*
X91070954Y-49445709D01*
X90924257Y-49543729D01*
X90761256Y-49611246D01*
X90588215Y-49645666D01*
X90411785Y-49645666D01*
X90238744Y-49611246D01*
X90075743Y-49543729D01*
X89929046Y-49445709D01*
X89804291Y-49320954D01*
X89706271Y-49174257D01*
X89638754Y-49011256D01*
X89604334Y-48838215D01*
X89604334Y-48661785D01*
X89638754Y-48488744D01*
X89706271Y-48325743D01*
X89804291Y-48179046D01*
X89929046Y-48054291D01*
X90075743Y-47956271D01*
X90238744Y-47888754D01*
X90411785Y-47854334D01*
X90588215Y-47854334D01*
X90761256Y-47888754D01*
G37*
G36*
X78746742Y-47686601D02*
G01*
X78900687Y-47750367D01*
X79039234Y-47842941D01*
X79157059Y-47960766D01*
X79249633Y-48099313D01*
X79313399Y-48253258D01*
X79345907Y-48416685D01*
X79345907Y-48583315D01*
X79313399Y-48746742D01*
X79249633Y-48900687D01*
X79157059Y-49039234D01*
X79039234Y-49157059D01*
X78900687Y-49249633D01*
X78746742Y-49313399D01*
X78583315Y-49345907D01*
X78416685Y-49345907D01*
X78253258Y-49313399D01*
X78099313Y-49249633D01*
X77960766Y-49157059D01*
X77842941Y-49039234D01*
X77750367Y-48900687D01*
X77686601Y-48746742D01*
X77654093Y-48583315D01*
X77654093Y-48416685D01*
X77686601Y-48253258D01*
X77750367Y-48099313D01*
X77842941Y-47960766D01*
X77960766Y-47842941D01*
X78099313Y-47750367D01*
X78253258Y-47686601D01*
X78416685Y-47654093D01*
X78583315Y-47654093D01*
X78746742Y-47686601D01*
G37*
G36*
X83746742Y-47686601D02*
G01*
X83900687Y-47750367D01*
X84039234Y-47842941D01*
X84157059Y-47960766D01*
X84249633Y-48099313D01*
X84313399Y-48253258D01*
X84345907Y-48416685D01*
X84345907Y-48583315D01*
X84313399Y-48746742D01*
X84249633Y-48900687D01*
X84157059Y-49039234D01*
X84039234Y-49157059D01*
X83900687Y-49249633D01*
X83746742Y-49313399D01*
X83583315Y-49345907D01*
X83416685Y-49345907D01*
X83253258Y-49313399D01*
X83099313Y-49249633D01*
X82960766Y-49157059D01*
X82842941Y-49039234D01*
X82750367Y-48900687D01*
X82686601Y-48746742D01*
X82654093Y-48583315D01*
X82654093Y-48416685D01*
X82686601Y-48253258D01*
X82750367Y-48099313D01*
X82842941Y-47960766D01*
X82960766Y-47842941D01*
X83099313Y-47750367D01*
X83253258Y-47686601D01*
X83416685Y-47654093D01*
X83583315Y-47654093D01*
X83746742Y-47686601D01*
G37*
G36*
X65429199Y-43342272D02*
G01*
X65707167Y-43416754D01*
X65973035Y-43526880D01*
X66222255Y-43670767D01*
X66450561Y-43845952D01*
X66654048Y-44049439D01*
X66829233Y-44277745D01*
X66973120Y-44526965D01*
X67083246Y-44792833D01*
X67157728Y-45070801D01*
X67195290Y-45356113D01*
X67195290Y-45643887D01*
X67157728Y-45929199D01*
X67083246Y-46207167D01*
X66973120Y-46473035D01*
X66829233Y-46722255D01*
X66654048Y-46950561D01*
X66450561Y-47154048D01*
X66222255Y-47329233D01*
X65973035Y-47473120D01*
X65707167Y-47583246D01*
X65429199Y-47657728D01*
X65143887Y-47695290D01*
X64856113Y-47695290D01*
X64570801Y-47657728D01*
X64292833Y-47583246D01*
X64026965Y-47473120D01*
X63777745Y-47329233D01*
X63549439Y-47154048D01*
X63345952Y-46950561D01*
X63170767Y-46722255D01*
X63026880Y-46473035D01*
X62916754Y-46207167D01*
X62842272Y-45929199D01*
X62804710Y-45643887D01*
X62804710Y-45356113D01*
X62842272Y-45070801D01*
X62916754Y-44792833D01*
X63026880Y-44526965D01*
X63170767Y-44277745D01*
X63345952Y-44049439D01*
X63549439Y-43845952D01*
X63777745Y-43670767D01*
X64026965Y-43526880D01*
X64292833Y-43416754D01*
X64570801Y-43342272D01*
X64856113Y-43304710D01*
X65143887Y-43304710D01*
X65429199Y-43342272D01*
G37*
G36*
X95368685Y-44157969D02*
G01*
X95384461Y-44164934D01*
X95392222Y-44166164D01*
X95424542Y-44182632D01*
X95469541Y-44202501D01*
X95547499Y-44280459D01*
X95567370Y-44325464D01*
X95583835Y-44357777D01*
X95585063Y-44365535D01*
X95592031Y-44381315D01*
X95600000Y-44450000D01*
X95600000Y-45550000D01*
X95592031Y-45618685D01*
X95585063Y-45634464D01*
X95583835Y-45642222D01*
X95567373Y-45674528D01*
X95547499Y-45719541D01*
X95469541Y-45797499D01*
X95424528Y-45817373D01*
X95392222Y-45833835D01*
X95384464Y-45835063D01*
X95368685Y-45842031D01*
X95300000Y-45850000D01*
X94200000Y-45850000D01*
X94131315Y-45842031D01*
X94115535Y-45835063D01*
X94107777Y-45833835D01*
X94075464Y-45817370D01*
X94030459Y-45797499D01*
X93952501Y-45719541D01*
X93932632Y-45674542D01*
X93916164Y-45642222D01*
X93914934Y-45634461D01*
X93907969Y-45618685D01*
X93900000Y-45550000D01*
X93900000Y-44450000D01*
X93907969Y-44381315D01*
X93914934Y-44365539D01*
X93916164Y-44357777D01*
X93932635Y-44325449D01*
X93952501Y-44280459D01*
X94030459Y-44202501D01*
X94075449Y-44182635D01*
X94107777Y-44166164D01*
X94115539Y-44164934D01*
X94131315Y-44157969D01*
X94200000Y-44150000D01*
X95300000Y-44150000D01*
X95368685Y-44157969D01*
G37*
G36*
X103368685Y-44157969D02*
G01*
X103384461Y-44164934D01*
X103392222Y-44166164D01*
X103424542Y-44182632D01*
X103469541Y-44202501D01*
X103547499Y-44280459D01*
X103567370Y-44325464D01*
X103583835Y-44357777D01*
X103585063Y-44365535D01*
X103592031Y-44381315D01*
X103600000Y-44450000D01*
X103600000Y-45550000D01*
X103592031Y-45618685D01*
X103585063Y-45634464D01*
X103583835Y-45642222D01*
X103567373Y-45674528D01*
X103547499Y-45719541D01*
X103469541Y-45797499D01*
X103424528Y-45817373D01*
X103392222Y-45833835D01*
X103384464Y-45835063D01*
X103368685Y-45842031D01*
X103300000Y-45850000D01*
X102200000Y-45850000D01*
X102131315Y-45842031D01*
X102115535Y-45835063D01*
X102107777Y-45833835D01*
X102075464Y-45817370D01*
X102030459Y-45797499D01*
X101952501Y-45719541D01*
X101932632Y-45674542D01*
X101916164Y-45642222D01*
X101914934Y-45634461D01*
X101907969Y-45618685D01*
X101900000Y-45550000D01*
X101900000Y-44450000D01*
X101907969Y-44381315D01*
X101914934Y-44365539D01*
X101916164Y-44357777D01*
X101932635Y-44325449D01*
X101952501Y-44280459D01*
X102030459Y-44202501D01*
X102075449Y-44182635D01*
X102107777Y-44166164D01*
X102115539Y-44164934D01*
X102131315Y-44157969D01*
X102200000Y-44150000D01*
X103300000Y-44150000D01*
X103368685Y-44157969D01*
G37*
G36*
X97496742Y-44186601D02*
G01*
X97650687Y-44250367D01*
X97789234Y-44342941D01*
X97907059Y-44460766D01*
X97999633Y-44599313D01*
X98063399Y-44753258D01*
X98095907Y-44916685D01*
X98095907Y-45083315D01*
X98063399Y-45246742D01*
X97999633Y-45400687D01*
X97907059Y-45539234D01*
X97789234Y-45657059D01*
X97650687Y-45749633D01*
X97496742Y-45813399D01*
X97333315Y-45845907D01*
X97166685Y-45845907D01*
X97003258Y-45813399D01*
X96849313Y-45749633D01*
X96710766Y-45657059D01*
X96592941Y-45539234D01*
X96500367Y-45400687D01*
X96436601Y-45246742D01*
X96404093Y-45083315D01*
X96404093Y-44916685D01*
X96436601Y-44753258D01*
X96500367Y-44599313D01*
X96592941Y-44460766D01*
X96710766Y-44342941D01*
X96849313Y-44250367D01*
X97003258Y-44186601D01*
X97166685Y-44154093D01*
X97333315Y-44154093D01*
X97496742Y-44186601D01*
G37*
G36*
X105496742Y-44186601D02*
G01*
X105650687Y-44250367D01*
X105789234Y-44342941D01*
X105907059Y-44460766D01*
X105999633Y-44599313D01*
X106063399Y-44753258D01*
X106095907Y-44916685D01*
X106095907Y-45083315D01*
X106063399Y-45246742D01*
X105999633Y-45400687D01*
X105907059Y-45539234D01*
X105789234Y-45657059D01*
X105650687Y-45749633D01*
X105496742Y-45813399D01*
X105333315Y-45845907D01*
X105166685Y-45845907D01*
X105003258Y-45813399D01*
X104849313Y-45749633D01*
X104710766Y-45657059D01*
X104592941Y-45539234D01*
X104500367Y-45400687D01*
X104436601Y-45246742D01*
X104404093Y-45083315D01*
X104404093Y-44916685D01*
X104436601Y-44753258D01*
X104500367Y-44599313D01*
X104592941Y-44460766D01*
X104710766Y-44342941D01*
X104849313Y-44250367D01*
X105003258Y-44186601D01*
X105166685Y-44154093D01*
X105333315Y-44154093D01*
X105496742Y-44186601D01*
G37*
G36*
X80769134Y-41953806D02*
G01*
X80785355Y-41964645D01*
X80796194Y-41980866D01*
X80800000Y-42000000D01*
X80800000Y-43500000D01*
X80796194Y-43519134D01*
X80785355Y-43535355D01*
X80769134Y-43546194D01*
X80750000Y-43550000D01*
X79250000Y-43550000D01*
X79230866Y-43546194D01*
X79214645Y-43535355D01*
X79203806Y-43519134D01*
X79200000Y-43500000D01*
X79200000Y-42000000D01*
X79203806Y-41980866D01*
X79214645Y-41964645D01*
X79230866Y-41953806D01*
X79250000Y-41950000D01*
X80750000Y-41950000D01*
X80769134Y-41953806D01*
G37*
G36*
X82772228Y-41984448D02*
G01*
X82917117Y-42044463D01*
X83047515Y-42131592D01*
X83158408Y-42242485D01*
X83245537Y-42372883D01*
X83305552Y-42517772D01*
X83336148Y-42671586D01*
X83336148Y-42828414D01*
X83305552Y-42982228D01*
X83245537Y-43127117D01*
X83158408Y-43257515D01*
X83047515Y-43368408D01*
X82917117Y-43455537D01*
X82772228Y-43515552D01*
X82618414Y-43546148D01*
X82461586Y-43546148D01*
X82307772Y-43515552D01*
X82162883Y-43455537D01*
X82032485Y-43368408D01*
X81921592Y-43257515D01*
X81834463Y-43127117D01*
X81774448Y-42982228D01*
X81743852Y-42828414D01*
X81743852Y-42671586D01*
X81774448Y-42517772D01*
X81834463Y-42372883D01*
X81921592Y-42242485D01*
X82032485Y-42131592D01*
X82162883Y-42044463D01*
X82307772Y-41984448D01*
X82461586Y-41953852D01*
X82618414Y-41953852D01*
X82772228Y-41984448D01*
G37*
G36*
X85312228Y-41984448D02*
G01*
X85457117Y-42044463D01*
X85587515Y-42131592D01*
X85698408Y-42242485D01*
X85785537Y-42372883D01*
X85845552Y-42517772D01*
X85876148Y-42671586D01*
X85876148Y-42828414D01*
X85845552Y-42982228D01*
X85785537Y-43127117D01*
X85698408Y-43257515D01*
X85587515Y-43368408D01*
X85457117Y-43455537D01*
X85312228Y-43515552D01*
X85158414Y-43546148D01*
X85001586Y-43546148D01*
X84847772Y-43515552D01*
X84702883Y-43455537D01*
X84572485Y-43368408D01*
X84461592Y-43257515D01*
X84374463Y-43127117D01*
X84314448Y-42982228D01*
X84283852Y-42828414D01*
X84283852Y-42671586D01*
X84314448Y-42517772D01*
X84374463Y-42372883D01*
X84461592Y-42242485D01*
X84572485Y-42131592D01*
X84702883Y-42044463D01*
X84847772Y-41984448D01*
X85001586Y-41953852D01*
X85158414Y-41953852D01*
X85312228Y-41984448D01*
G37*
G36*
X73761256Y-41718754D02*
G01*
X73924257Y-41786271D01*
X74070954Y-41884291D01*
X74195709Y-42009046D01*
X74293729Y-42155743D01*
X74361246Y-42318744D01*
X74395666Y-42491785D01*
X74395666Y-42668215D01*
X74361246Y-42841256D01*
X74293729Y-43004257D01*
X74195709Y-43150954D01*
X74070954Y-43275709D01*
X73924257Y-43373729D01*
X73761256Y-43441246D01*
X73588215Y-43475666D01*
X73411785Y-43475666D01*
X73238744Y-43441246D01*
X73075743Y-43373729D01*
X72929046Y-43275709D01*
X72804291Y-43150954D01*
X72706271Y-43004257D01*
X72638754Y-42841256D01*
X72604334Y-42668215D01*
X72604334Y-42491785D01*
X72638754Y-42318744D01*
X72706271Y-42155743D01*
X72804291Y-42009046D01*
X72929046Y-41884291D01*
X73075743Y-41786271D01*
X73238744Y-41718754D01*
X73411785Y-41684334D01*
X73588215Y-41684334D01*
X73761256Y-41718754D01*
G37*
G36*
X112929199Y-38592272D02*
G01*
X113207167Y-38666754D01*
X113473035Y-38776880D01*
X113722255Y-38920767D01*
X113950561Y-39095952D01*
X114154048Y-39299439D01*
X114329233Y-39527745D01*
X114473120Y-39776965D01*
X114583246Y-40042833D01*
X114657728Y-40320801D01*
X114695290Y-40606113D01*
X114695290Y-40893887D01*
X114657728Y-41179199D01*
X114583246Y-41457167D01*
X114473120Y-41723035D01*
X114329233Y-41972255D01*
X114154048Y-42200561D01*
X113950561Y-42404048D01*
X113722255Y-42579233D01*
X113473035Y-42723120D01*
X113207167Y-42833246D01*
X112929199Y-42907728D01*
X112643887Y-42945290D01*
X112356113Y-42945290D01*
X112070801Y-42907728D01*
X111792833Y-42833246D01*
X111526965Y-42723120D01*
X111277745Y-42579233D01*
X111049439Y-42404048D01*
X110845952Y-42200561D01*
X110670767Y-41972255D01*
X110526880Y-41723035D01*
X110416754Y-41457167D01*
X110342272Y-41179199D01*
X110304710Y-40893887D01*
X110304710Y-40606113D01*
X110342272Y-40320801D01*
X110416754Y-40042833D01*
X110526880Y-39776965D01*
X110670767Y-39527745D01*
X110845952Y-39299439D01*
X111049439Y-39095952D01*
X111277745Y-38920767D01*
X111526965Y-38776880D01*
X111792833Y-38666754D01*
X112070801Y-38592272D01*
X112356113Y-38554710D01*
X112643887Y-38554710D01*
X112929199Y-38592272D01*
G37*
G36*
X73761256Y-39178754D02*
G01*
X73924257Y-39246271D01*
X74070954Y-39344291D01*
X74195709Y-39469046D01*
X74293729Y-39615743D01*
X74361246Y-39778744D01*
X74395666Y-39951785D01*
X74395666Y-40128215D01*
X74361246Y-40301256D01*
X74293729Y-40464257D01*
X74195709Y-40610954D01*
X74070954Y-40735709D01*
X73924257Y-40833729D01*
X73761256Y-40901246D01*
X73588215Y-40935666D01*
X73411785Y-40935666D01*
X73238744Y-40901246D01*
X73075743Y-40833729D01*
X72929046Y-40735709D01*
X72804291Y-40610954D01*
X72706271Y-40464257D01*
X72638754Y-40301256D01*
X72604334Y-40128215D01*
X72604334Y-39951785D01*
X72638754Y-39778744D01*
X72706271Y-39615743D01*
X72804291Y-39469046D01*
X72929046Y-39344291D01*
X73075743Y-39246271D01*
X73238744Y-39178754D01*
X73411785Y-39144334D01*
X73588215Y-39144334D01*
X73761256Y-39178754D01*
G37*
G36*
X94996742Y-37436601D02*
G01*
X95150687Y-37500367D01*
X95289234Y-37592941D01*
X95407059Y-37710766D01*
X95499633Y-37849313D01*
X95563399Y-38003258D01*
X95595907Y-38166685D01*
X95595907Y-38333315D01*
X95563399Y-38496742D01*
X95499633Y-38650687D01*
X95407059Y-38789234D01*
X95289234Y-38907059D01*
X95150687Y-38999633D01*
X94996742Y-39063399D01*
X94833315Y-39095907D01*
X94666685Y-39095907D01*
X94503258Y-39063399D01*
X94349313Y-38999633D01*
X94210766Y-38907059D01*
X94092941Y-38789234D01*
X94000367Y-38650687D01*
X93936601Y-38496742D01*
X93904093Y-38333315D01*
X93904093Y-38166685D01*
X93936601Y-38003258D01*
X94000367Y-37849313D01*
X94092941Y-37710766D01*
X94210766Y-37592941D01*
X94349313Y-37500367D01*
X94503258Y-37436601D01*
X94666685Y-37404093D01*
X94833315Y-37404093D01*
X94996742Y-37436601D01*
G37*
G36*
X99996742Y-37436601D02*
G01*
X100150687Y-37500367D01*
X100289234Y-37592941D01*
X100407059Y-37710766D01*
X100499633Y-37849313D01*
X100563399Y-38003258D01*
X100595907Y-38166685D01*
X100595907Y-38333315D01*
X100563399Y-38496742D01*
X100499633Y-38650687D01*
X100407059Y-38789234D01*
X100289234Y-38907059D01*
X100150687Y-38999633D01*
X99996742Y-39063399D01*
X99833315Y-39095907D01*
X99666685Y-39095907D01*
X99503258Y-39063399D01*
X99349313Y-38999633D01*
X99210766Y-38907059D01*
X99092941Y-38789234D01*
X99000367Y-38650687D01*
X98936601Y-38496742D01*
X98904093Y-38333315D01*
X98904093Y-38166685D01*
X98936601Y-38003258D01*
X99000367Y-37849313D01*
X99092941Y-37710766D01*
X99210766Y-37592941D01*
X99349313Y-37500367D01*
X99503258Y-37436601D01*
X99666685Y-37404093D01*
X99833315Y-37404093D01*
X99996742Y-37436601D01*
G37*
G36*
X74369134Y-36603806D02*
G01*
X74385355Y-36614645D01*
X74396194Y-36630866D01*
X74400000Y-36650000D01*
X74400000Y-38350000D01*
X74396194Y-38369134D01*
X74385355Y-38385355D01*
X74369134Y-38396194D01*
X74350000Y-38400000D01*
X72650000Y-38400000D01*
X72630866Y-38396194D01*
X72614645Y-38385355D01*
X72603806Y-38369134D01*
X72600000Y-38350000D01*
X72600000Y-36650000D01*
X72603806Y-36630866D01*
X72614645Y-36614645D01*
X72630866Y-36603806D01*
X72650000Y-36600000D01*
X74350000Y-36600000D01*
X74369134Y-36603806D01*
G37*
G36*
X80618685Y-36657969D02*
G01*
X80634461Y-36664934D01*
X80642222Y-36666164D01*
X80674542Y-36682632D01*
X80719541Y-36702501D01*
X80797499Y-36780459D01*
X80817370Y-36825464D01*
X80833835Y-36857777D01*
X80835063Y-36865535D01*
X80842031Y-36881315D01*
X80850000Y-36950000D01*
X80850000Y-38050000D01*
X80842031Y-38118685D01*
X80835063Y-38134464D01*
X80833835Y-38142222D01*
X80817373Y-38174528D01*
X80797499Y-38219541D01*
X80719541Y-38297499D01*
X80674528Y-38317373D01*
X80642222Y-38333835D01*
X80634464Y-38335063D01*
X80618685Y-38342031D01*
X80550000Y-38350000D01*
X79450000Y-38350000D01*
X79381315Y-38342031D01*
X79365535Y-38335063D01*
X79357777Y-38333835D01*
X79325464Y-38317370D01*
X79280459Y-38297499D01*
X79202501Y-38219541D01*
X79182632Y-38174542D01*
X79166164Y-38142222D01*
X79164934Y-38134461D01*
X79157969Y-38118685D01*
X79150000Y-38050000D01*
X79150000Y-36950000D01*
X79157969Y-36881315D01*
X79164934Y-36865539D01*
X79166164Y-36857777D01*
X79182635Y-36825449D01*
X79202501Y-36780459D01*
X79280459Y-36702501D01*
X79325449Y-36682635D01*
X79357777Y-36666164D01*
X79365539Y-36664934D01*
X79381315Y-36657969D01*
X79450000Y-36650000D01*
X80550000Y-36650000D01*
X80618685Y-36657969D01*
G37*
G36*
X80246742Y-34186601D02*
G01*
X80400687Y-34250367D01*
X80539234Y-34342941D01*
X80657059Y-34460766D01*
X80749633Y-34599313D01*
X80813399Y-34753258D01*
X80845907Y-34916685D01*
X80845907Y-35083315D01*
X80813399Y-35246742D01*
X80749633Y-35400687D01*
X80657059Y-35539234D01*
X80539234Y-35657059D01*
X80400687Y-35749633D01*
X80246742Y-35813399D01*
X80083315Y-35845907D01*
X79916685Y-35845907D01*
X79753258Y-35813399D01*
X79599313Y-35749633D01*
X79460766Y-35657059D01*
X79342941Y-35539234D01*
X79250367Y-35400687D01*
X79186601Y-35246742D01*
X79154093Y-35083315D01*
X79154093Y-34916685D01*
X79186601Y-34753258D01*
X79250367Y-34599313D01*
X79342941Y-34460766D01*
X79460766Y-34342941D01*
X79599313Y-34250367D01*
X79753258Y-34186601D01*
X79916685Y-34154093D01*
X80083315Y-34154093D01*
X80246742Y-34186601D01*
G37*
M02*
