%TF.GenerationSoftware,KiCad,Pcbnew,(5.1.6)-1*%
%TF.CreationDate,2021-03-26T11:01:25+01:00*%
%TF.ProjectId,carte_PhotodectionSimple,63617274-655f-4506-986f-746f64656374,rev?*%
%TF.SameCoordinates,Original*%
%TF.FileFunction,Copper,L2,Bot*%
%TF.FilePolarity,Positive*%
%FSLAX46Y46*%
G04 Gerber Fmt 4.6, Leading zero omitted, Abs format (unit mm)*
G04 Created by KiCad (PCBNEW (5.1.6)-1) date 2021-03-26 11:01:25*
%MOMM*%
%LPD*%
G01*
G04 APERTURE LIST*
%TA.AperFunction,NonConductor*%
%ADD10C,0.300000*%
%TD*%
%TA.AperFunction,ComponentPad*%
%ADD11R,1.700000X1.700000*%
%TD*%
%TA.AperFunction,ComponentPad*%
%ADD12O,1.700000X1.700000*%
%TD*%
%TA.AperFunction,ComponentPad*%
%ADD13R,1.800000X1.800000*%
%TD*%
%TA.AperFunction,ComponentPad*%
%ADD14C,1.800000*%
%TD*%
%TA.AperFunction,ComponentPad*%
%ADD15C,1.400000*%
%TD*%
%TA.AperFunction,ComponentPad*%
%ADD16O,1.600000X1.600000*%
%TD*%
%TA.AperFunction,ComponentPad*%
%ADD17C,1.600000*%
%TD*%
%TA.AperFunction,ComponentPad*%
%ADD18C,1.440000*%
%TD*%
%TA.AperFunction,ComponentPad*%
%ADD19O,2.400000X1.600000*%
%TD*%
%TA.AperFunction,ComponentPad*%
%ADD20R,2.400000X1.600000*%
%TD*%
%TA.AperFunction,ViaPad*%
%ADD21C,1.500000*%
%TD*%
%TA.AperFunction,Conductor*%
%ADD22C,1.000000*%
%TD*%
%TA.AperFunction,Conductor*%
%ADD23C,0.700000*%
%TD*%
G04 APERTURE END LIST*
D10*
X217062142Y-142278571D02*
X217776428Y-142278571D01*
X217776428Y-140778571D01*
X216562142Y-141492857D02*
X216062142Y-141492857D01*
X215847857Y-142278571D02*
X216562142Y-142278571D01*
X216562142Y-140778571D01*
X215847857Y-140778571D01*
X215205000Y-141278571D02*
X215205000Y-142278571D01*
X215205000Y-141421428D02*
X215133571Y-141350000D01*
X214990714Y-141278571D01*
X214776428Y-141278571D01*
X214633571Y-141350000D01*
X214562142Y-141492857D01*
X214562142Y-142278571D01*
X213919285Y-142207142D02*
X213776428Y-142278571D01*
X213490714Y-142278571D01*
X213347857Y-142207142D01*
X213276428Y-142064285D01*
X213276428Y-141992857D01*
X213347857Y-141850000D01*
X213490714Y-141778571D01*
X213705000Y-141778571D01*
X213847857Y-141707142D01*
X213919285Y-141564285D01*
X213919285Y-141492857D01*
X213847857Y-141350000D01*
X213705000Y-141278571D01*
X213490714Y-141278571D01*
X213347857Y-141350000D01*
X212633571Y-141492857D02*
X212133571Y-141492857D01*
X211919285Y-142278571D02*
X212633571Y-142278571D01*
X212633571Y-140778571D01*
X211919285Y-140778571D01*
X210205000Y-140921428D02*
X210133571Y-140850000D01*
X209990714Y-140778571D01*
X209633571Y-140778571D01*
X209490714Y-140850000D01*
X209419285Y-140921428D01*
X209347857Y-141064285D01*
X209347857Y-141207142D01*
X209419285Y-141421428D01*
X210276428Y-142278571D01*
X209347857Y-142278571D01*
X208419285Y-140778571D02*
X208276428Y-140778571D01*
X208133571Y-140850000D01*
X208062142Y-140921428D01*
X207990714Y-141064285D01*
X207919285Y-141350000D01*
X207919285Y-141707142D01*
X207990714Y-141992857D01*
X208062142Y-142135714D01*
X208133571Y-142207142D01*
X208276428Y-142278571D01*
X208419285Y-142278571D01*
X208562142Y-142207142D01*
X208633571Y-142135714D01*
X208705000Y-141992857D01*
X208776428Y-141707142D01*
X208776428Y-141350000D01*
X208705000Y-141064285D01*
X208633571Y-140921428D01*
X208562142Y-140850000D01*
X208419285Y-140778571D01*
X207347857Y-140921428D02*
X207276428Y-140850000D01*
X207133571Y-140778571D01*
X206776428Y-140778571D01*
X206633571Y-140850000D01*
X206562142Y-140921428D01*
X206490714Y-141064285D01*
X206490714Y-141207142D01*
X206562142Y-141421428D01*
X207419285Y-142278571D01*
X206490714Y-142278571D01*
X205062142Y-142278571D02*
X205919285Y-142278571D01*
X205490714Y-142278571D02*
X205490714Y-140778571D01*
X205633571Y-140992857D01*
X205776428Y-141135714D01*
X205919285Y-141207142D01*
X227490714Y-144828571D02*
X227490714Y-143328571D01*
X227133571Y-143328571D01*
X226919285Y-143400000D01*
X226776428Y-143542857D01*
X226705000Y-143685714D01*
X226633571Y-143971428D01*
X226633571Y-144185714D01*
X226705000Y-144471428D01*
X226776428Y-144614285D01*
X226919285Y-144757142D01*
X227133571Y-144828571D01*
X227490714Y-144828571D01*
X225419285Y-144757142D02*
X225562142Y-144828571D01*
X225847857Y-144828571D01*
X225990714Y-144757142D01*
X226062142Y-144614285D01*
X226062142Y-144042857D01*
X225990714Y-143900000D01*
X225847857Y-143828571D01*
X225562142Y-143828571D01*
X225419285Y-143900000D01*
X225347857Y-144042857D01*
X225347857Y-144185714D01*
X226062142Y-144328571D01*
X225562142Y-143257142D02*
X225776428Y-143471428D01*
X224705000Y-144828571D02*
X224705000Y-143828571D01*
X224705000Y-143971428D02*
X224633571Y-143900000D01*
X224490714Y-143828571D01*
X224276428Y-143828571D01*
X224133571Y-143900000D01*
X224062142Y-144042857D01*
X224062142Y-144828571D01*
X224062142Y-144042857D02*
X223990714Y-143900000D01*
X223847857Y-143828571D01*
X223633571Y-143828571D01*
X223490714Y-143900000D01*
X223419285Y-144042857D01*
X223419285Y-144828571D01*
X222490714Y-144828571D02*
X222633571Y-144757142D01*
X222705000Y-144685714D01*
X222776428Y-144542857D01*
X222776428Y-144114285D01*
X222705000Y-143971428D01*
X222633571Y-143900000D01*
X222490714Y-143828571D01*
X222276428Y-143828571D01*
X222133571Y-143900000D01*
X222062142Y-143971428D01*
X221990714Y-144114285D01*
X221990714Y-144542857D01*
X222062142Y-144685714D01*
X222133571Y-144757142D01*
X222276428Y-144828571D01*
X222490714Y-144828571D01*
X220205000Y-144828571D02*
X220205000Y-143328571D01*
X219633571Y-143328571D01*
X219490714Y-143400000D01*
X219419285Y-143471428D01*
X219347857Y-143614285D01*
X219347857Y-143828571D01*
X219419285Y-143971428D01*
X219490714Y-144042857D01*
X219633571Y-144114285D01*
X220205000Y-144114285D01*
X218705000Y-144828571D02*
X218705000Y-143328571D01*
X218062142Y-144828571D02*
X218062142Y-144042857D01*
X218133571Y-143900000D01*
X218276428Y-143828571D01*
X218490714Y-143828571D01*
X218633571Y-143900000D01*
X218705000Y-143971428D01*
X217133571Y-144828571D02*
X217276428Y-144757142D01*
X217347857Y-144685714D01*
X217419285Y-144542857D01*
X217419285Y-144114285D01*
X217347857Y-143971428D01*
X217276428Y-143900000D01*
X217133571Y-143828571D01*
X216919285Y-143828571D01*
X216776428Y-143900000D01*
X216705000Y-143971428D01*
X216633571Y-144114285D01*
X216633571Y-144542857D01*
X216705000Y-144685714D01*
X216776428Y-144757142D01*
X216919285Y-144828571D01*
X217133571Y-144828571D01*
X216205000Y-143828571D02*
X215633571Y-143828571D01*
X215990714Y-143328571D02*
X215990714Y-144614285D01*
X215919285Y-144757142D01*
X215776428Y-144828571D01*
X215633571Y-144828571D01*
X214919285Y-144828571D02*
X215062142Y-144757142D01*
X215133571Y-144685714D01*
X215205000Y-144542857D01*
X215205000Y-144114285D01*
X215133571Y-143971428D01*
X215062142Y-143900000D01*
X214919285Y-143828571D01*
X214705000Y-143828571D01*
X214562142Y-143900000D01*
X214490714Y-143971428D01*
X214419285Y-144114285D01*
X214419285Y-144542857D01*
X214490714Y-144685714D01*
X214562142Y-144757142D01*
X214705000Y-144828571D01*
X214919285Y-144828571D01*
X213133571Y-144828571D02*
X213133571Y-143328571D01*
X213133571Y-144757142D02*
X213276428Y-144828571D01*
X213562142Y-144828571D01*
X213705000Y-144757142D01*
X213776428Y-144685714D01*
X213847857Y-144542857D01*
X213847857Y-144114285D01*
X213776428Y-143971428D01*
X213705000Y-143900000D01*
X213562142Y-143828571D01*
X213276428Y-143828571D01*
X213133571Y-143900000D01*
X211847857Y-144757142D02*
X211990714Y-144828571D01*
X212276428Y-144828571D01*
X212419285Y-144757142D01*
X212490714Y-144614285D01*
X212490714Y-144042857D01*
X212419285Y-143900000D01*
X212276428Y-143828571D01*
X211990714Y-143828571D01*
X211847857Y-143900000D01*
X211776428Y-144042857D01*
X211776428Y-144185714D01*
X212490714Y-144328571D01*
X211347857Y-143828571D02*
X210776428Y-143828571D01*
X211133571Y-143328571D02*
X211133571Y-144614285D01*
X211062142Y-144757142D01*
X210919285Y-144828571D01*
X210776428Y-144828571D01*
X209705000Y-144757142D02*
X209847857Y-144828571D01*
X210133571Y-144828571D01*
X210276428Y-144757142D01*
X210347857Y-144614285D01*
X210347857Y-144042857D01*
X210276428Y-143900000D01*
X210133571Y-143828571D01*
X209847857Y-143828571D01*
X209705000Y-143900000D01*
X209633571Y-144042857D01*
X209633571Y-144185714D01*
X210347857Y-144328571D01*
X208347857Y-144757142D02*
X208490714Y-144828571D01*
X208776428Y-144828571D01*
X208919285Y-144757142D01*
X208990714Y-144685714D01*
X209062142Y-144542857D01*
X209062142Y-144114285D01*
X208990714Y-143971428D01*
X208919285Y-143900000D01*
X208776428Y-143828571D01*
X208490714Y-143828571D01*
X208347857Y-143900000D01*
X207919285Y-143828571D02*
X207347857Y-143828571D01*
X207705000Y-143328571D02*
X207705000Y-144614285D01*
X207633571Y-144757142D01*
X207490714Y-144828571D01*
X207347857Y-144828571D01*
X206847857Y-144828571D02*
X206847857Y-143828571D01*
X206847857Y-143328571D02*
X206919285Y-143400000D01*
X206847857Y-143471428D01*
X206776428Y-143400000D01*
X206847857Y-143328571D01*
X206847857Y-143471428D01*
X205919285Y-144828571D02*
X206062142Y-144757142D01*
X206133571Y-144685714D01*
X206205000Y-144542857D01*
X206205000Y-144114285D01*
X206133571Y-143971428D01*
X206062142Y-143900000D01*
X205919285Y-143828571D01*
X205705000Y-143828571D01*
X205562142Y-143900000D01*
X205490714Y-143971428D01*
X205419285Y-144114285D01*
X205419285Y-144542857D01*
X205490714Y-144685714D01*
X205562142Y-144757142D01*
X205705000Y-144828571D01*
X205919285Y-144828571D01*
X204776428Y-143828571D02*
X204776428Y-144828571D01*
X204776428Y-143971428D02*
X204705000Y-143900000D01*
X204562142Y-143828571D01*
X204347857Y-143828571D01*
X204205000Y-143900000D01*
X204133571Y-144042857D01*
X204133571Y-144828571D01*
X202347857Y-144757142D02*
X202133571Y-144828571D01*
X201776428Y-144828571D01*
X201633571Y-144757142D01*
X201562142Y-144685714D01*
X201490714Y-144542857D01*
X201490714Y-144400000D01*
X201562142Y-144257142D01*
X201633571Y-144185714D01*
X201776428Y-144114285D01*
X202062142Y-144042857D01*
X202205000Y-143971428D01*
X202276428Y-143900000D01*
X202347857Y-143757142D01*
X202347857Y-143614285D01*
X202276428Y-143471428D01*
X202205000Y-143400000D01*
X202062142Y-143328571D01*
X201705000Y-143328571D01*
X201490714Y-143400000D01*
X200847857Y-144828571D02*
X200847857Y-143828571D01*
X200847857Y-143328571D02*
X200919285Y-143400000D01*
X200847857Y-143471428D01*
X200776428Y-143400000D01*
X200847857Y-143328571D01*
X200847857Y-143471428D01*
X200133571Y-144828571D02*
X200133571Y-143828571D01*
X200133571Y-143971428D02*
X200062142Y-143900000D01*
X199919285Y-143828571D01*
X199705000Y-143828571D01*
X199562142Y-143900000D01*
X199490714Y-144042857D01*
X199490714Y-144828571D01*
X199490714Y-144042857D02*
X199419285Y-143900000D01*
X199276428Y-143828571D01*
X199062142Y-143828571D01*
X198919285Y-143900000D01*
X198847857Y-144042857D01*
X198847857Y-144828571D01*
X198133571Y-143828571D02*
X198133571Y-145328571D01*
X198133571Y-143900000D02*
X197990714Y-143828571D01*
X197705000Y-143828571D01*
X197562142Y-143900000D01*
X197490714Y-143971428D01*
X197419285Y-144114285D01*
X197419285Y-144542857D01*
X197490714Y-144685714D01*
X197562142Y-144757142D01*
X197705000Y-144828571D01*
X197990714Y-144828571D01*
X198133571Y-144757142D01*
X196562142Y-144828571D02*
X196705000Y-144757142D01*
X196776428Y-144614285D01*
X196776428Y-143328571D01*
X195419285Y-144757142D02*
X195562142Y-144828571D01*
X195847857Y-144828571D01*
X195990714Y-144757142D01*
X196062142Y-144614285D01*
X196062142Y-144042857D01*
X195990714Y-143900000D01*
X195847857Y-143828571D01*
X195562142Y-143828571D01*
X195419285Y-143900000D01*
X195347857Y-144042857D01*
X195347857Y-144185714D01*
X196062142Y-144328571D01*
D11*
%TO.P,J1,1*%
%TO.N,Net-(J1-Pad1)*%
X184150000Y-46355000D03*
D12*
%TO.P,J1,2*%
%TO.N,Net-(J1-Pad2)*%
X186690000Y-46355000D03*
%TO.P,J1,3*%
%TO.N,Net-(J1-Pad3)*%
X189230000Y-46355000D03*
%TO.P,J1,4*%
%TO.N,GND*%
X191770000Y-46355000D03*
%TO.P,J1,5*%
%TO.N,IN1*%
X194310000Y-46355000D03*
%TO.P,J1,6*%
%TO.N,IN2*%
X196850000Y-46355000D03*
%TO.P,J1,7*%
%TO.N,GND*%
X199390000Y-46355000D03*
%TO.P,J1,8*%
%TO.N,OUT1*%
X201930000Y-46355000D03*
%TO.P,J1,9*%
%TO.N,OUT2*%
X204470000Y-46355000D03*
%TO.P,J1,10*%
%TO.N,OUT3*%
X207010000Y-46355000D03*
%TO.P,J1,11*%
%TO.N,OUT4*%
X209550000Y-46355000D03*
%TO.P,J1,12*%
%TO.N,GND*%
X212090000Y-46355000D03*
%TO.P,J1,13*%
%TO.N,-15V*%
X214630000Y-46355000D03*
%TO.P,J1,14*%
%TO.N,GND*%
X217170000Y-46355000D03*
%TO.P,J1,15*%
%TO.N,+15V*%
X219710000Y-46355000D03*
%TO.P,J1,16*%
%TO.N,GND*%
X222250000Y-46355000D03*
%TO.P,J1,17*%
%TO.N,5V*%
X224790000Y-46355000D03*
%TO.P,J1,18*%
%TO.N,3.3V*%
X227330000Y-46355000D03*
%TD*%
D13*
%TO.P,D1,1*%
%TO.N,Net-(D1-Pad1)*%
X193040000Y-90805000D03*
D14*
%TO.P,D1,2*%
%TO.N,LED_IN*%
X193040000Y-88265000D03*
%TD*%
%TO.P,D2,2*%
%TO.N,LED_IN*%
X193040000Y-108585000D03*
D13*
%TO.P,D2,1*%
%TO.N,Net-(D2-Pad1)*%
X193040000Y-111125000D03*
%TD*%
%TO.P,D3,1*%
%TO.N,Net-(D3-Pad1)*%
X193040000Y-131445000D03*
D14*
%TO.P,D3,2*%
%TO.N,LED_IN*%
X193040000Y-128905000D03*
%TD*%
D15*
%TO.P,D4,2*%
%TO.N,OUT3*%
X227965000Y-90825000D03*
%TO.P,D4,1*%
%TO.N,OUT4*%
%TA.AperFunction,ComponentPad*%
G36*
G01*
X227514200Y-87565000D02*
X228415800Y-87565000D01*
G75*
G02*
X228665000Y-87814200I0J-249200D01*
G01*
X228665000Y-88715800D01*
G75*
G02*
X228415800Y-88965000I-249200J0D01*
G01*
X227514200Y-88965000D01*
G75*
G02*
X227265000Y-88715800I0J249200D01*
G01*
X227265000Y-87814200D01*
G75*
G02*
X227514200Y-87565000I249200J0D01*
G01*
G37*
%TD.AperFunction*%
%TD*%
%TO.P,D5,1*%
%TO.N,OUT4*%
%TA.AperFunction,ComponentPad*%
G36*
G01*
X227514200Y-107885000D02*
X228415800Y-107885000D01*
G75*
G02*
X228665000Y-108134200I0J-249200D01*
G01*
X228665000Y-109035800D01*
G75*
G02*
X228415800Y-109285000I-249200J0D01*
G01*
X227514200Y-109285000D01*
G75*
G02*
X227265000Y-109035800I0J249200D01*
G01*
X227265000Y-108134200D01*
G75*
G02*
X227514200Y-107885000I249200J0D01*
G01*
G37*
%TD.AperFunction*%
%TO.P,D5,2*%
%TO.N,OUT2*%
X227965000Y-111145000D03*
%TD*%
%TO.P,D6,2*%
%TO.N,OUT1*%
X227965000Y-131465000D03*
%TO.P,D6,1*%
%TO.N,OUT4*%
%TA.AperFunction,ComponentPad*%
G36*
G01*
X227514200Y-128205000D02*
X228415800Y-128205000D01*
G75*
G02*
X228665000Y-128454200I0J-249200D01*
G01*
X228665000Y-129355800D01*
G75*
G02*
X228415800Y-129605000I-249200J0D01*
G01*
X227514200Y-129605000D01*
G75*
G02*
X227265000Y-129355800I0J249200D01*
G01*
X227265000Y-128454200D01*
G75*
G02*
X227514200Y-128205000I249200J0D01*
G01*
G37*
%TD.AperFunction*%
%TD*%
D16*
%TO.P,R1,2*%
%TO.N,GND*%
X170815000Y-90805000D03*
D17*
%TO.P,R1,1*%
%TO.N,Net-(D1-Pad1)*%
X183515000Y-90805000D03*
%TD*%
D16*
%TO.P,R2,2*%
%TO.N,GND*%
X170815000Y-111125000D03*
D17*
%TO.P,R2,1*%
%TO.N,Net-(D2-Pad1)*%
X183515000Y-111125000D03*
%TD*%
D16*
%TO.P,R3,2*%
%TO.N,GND*%
X170815000Y-131445000D03*
D17*
%TO.P,R3,1*%
%TO.N,Net-(D3-Pad1)*%
X183515000Y-131445000D03*
%TD*%
%TO.P,R4,1*%
%TO.N,OUT3*%
X239395000Y-90805000D03*
D16*
%TO.P,R4,2*%
%TO.N,GND*%
X252095000Y-90805000D03*
%TD*%
D17*
%TO.P,R5,1*%
%TO.N,OUT2*%
X239395000Y-111125000D03*
D16*
%TO.P,R5,2*%
%TO.N,GND*%
X252095000Y-111125000D03*
%TD*%
D17*
%TO.P,R6,1*%
%TO.N,OUT1*%
X239395000Y-131445000D03*
D16*
%TO.P,R6,2*%
%TO.N,GND*%
X252095000Y-131445000D03*
%TD*%
D18*
%TO.P,RV1,3*%
%TO.N,GND*%
X238125000Y-70485000D03*
%TO.P,RV1,2*%
%TO.N,Net-(RV1-Pad2)*%
X235585000Y-67945000D03*
%TO.P,RV1,1*%
%TO.N,+15V*%
X238125000Y-65405000D03*
%TD*%
D19*
%TO.P,U1,8*%
%TO.N,Net-(U1-Pad8)*%
X227965000Y-62865000D03*
%TO.P,U1,4*%
%TO.N,-15V*%
X220345000Y-70485000D03*
%TO.P,U1,7*%
%TO.N,+15V*%
X227965000Y-65405000D03*
%TO.P,U1,3*%
%TO.N,Net-(RV1-Pad2)*%
X220345000Y-67945000D03*
%TO.P,U1,6*%
%TO.N,OUT4*%
X227965000Y-67945000D03*
%TO.P,U1,2*%
X220345000Y-65405000D03*
%TO.P,U1,5*%
%TO.N,Net-(U1-Pad5)*%
X227965000Y-70485000D03*
D20*
%TO.P,U1,1*%
%TO.N,Net-(U1-Pad1)*%
X220345000Y-62865000D03*
%TD*%
%TO.P,U2,1*%
%TO.N,Net-(U2-Pad1)*%
X203835000Y-62865000D03*
D19*
%TO.P,U2,5*%
%TO.N,Net-(U2-Pad5)*%
X211455000Y-70485000D03*
%TO.P,U2,2*%
%TO.N,LED_IN*%
X203835000Y-65405000D03*
%TO.P,U2,6*%
X211455000Y-67945000D03*
%TO.P,U2,3*%
%TO.N,IN1*%
X203835000Y-67945000D03*
%TO.P,U2,7*%
%TO.N,+15V*%
X211455000Y-65405000D03*
%TO.P,U2,4*%
%TO.N,-15V*%
X203835000Y-70485000D03*
%TO.P,U2,8*%
%TO.N,Net-(U2-Pad8)*%
X211455000Y-62865000D03*
%TD*%
D21*
%TO.N,LED_IN*%
X200660000Y-65405000D03*
X182880000Y-65405000D03*
%TO.N,OUT4*%
X209550000Y-54610000D03*
X217170000Y-54610000D03*
%TO.N,IN1*%
X189230000Y-67945000D03*
X200660000Y-67945000D03*
%TO.N,+15V*%
X210185000Y-57785000D03*
X210185000Y-57785000D03*
X219710000Y-57785000D03*
%TD*%
D22*
%TO.N,Net-(D1-Pad1)*%
X183515000Y-90805000D02*
X193040000Y-90805000D01*
%TO.N,LED_IN*%
X203835000Y-65405000D02*
X205740000Y-65405000D01*
X208280000Y-67945000D02*
X211455000Y-67945000D01*
X205740000Y-65405000D02*
X208280000Y-67945000D01*
X194945000Y-128905000D02*
X193040000Y-128905000D01*
X196215000Y-127635000D02*
X194945000Y-128905000D01*
X193040000Y-88265000D02*
X196215000Y-88265000D01*
X193040000Y-108585000D02*
X196215000Y-108585000D01*
X196215000Y-88265000D02*
X196215000Y-108585000D01*
X196215000Y-108585000D02*
X196215000Y-127635000D01*
X203835000Y-65405000D02*
X200660000Y-65405000D01*
X182880000Y-65405000D02*
X182880000Y-86360000D01*
X184785000Y-88265000D02*
X193040000Y-88265000D01*
X182880000Y-86360000D02*
X184785000Y-88265000D01*
%TO.N,Net-(D2-Pad1)*%
X183515000Y-111125000D02*
X193040000Y-111125000D01*
%TO.N,Net-(D3-Pad1)*%
X183515000Y-131445000D02*
X193040000Y-131445000D01*
%TO.N,OUT1*%
X239375000Y-131465000D02*
X239395000Y-131445000D01*
X227965000Y-131465000D02*
X239375000Y-131465000D01*
X227350000Y-131465000D02*
X227965000Y-131465000D01*
X226060000Y-130175000D02*
X227350000Y-131465000D01*
X196850000Y-82550000D02*
X220980000Y-82550000D01*
X201930000Y-46355000D02*
X201930000Y-50165000D01*
X201930000Y-50165000D02*
X193040000Y-59055000D01*
X222250000Y-83820000D02*
X222250000Y-92710000D01*
X193040000Y-78740000D02*
X196850000Y-82550000D01*
X220980000Y-82550000D02*
X222250000Y-83820000D01*
X193040000Y-59055000D02*
X193040000Y-78740000D01*
X222250000Y-92710000D02*
X224155000Y-94615000D01*
X224155000Y-94615000D02*
X224155000Y-111760000D01*
X224155000Y-111760000D02*
X226060000Y-113665000D01*
X226060000Y-113665000D02*
X226060000Y-130175000D01*
%TO.N,OUT4*%
X220345000Y-65405000D02*
X222885000Y-65405000D01*
X225425000Y-67945000D02*
X227965000Y-67945000D01*
X222885000Y-65405000D02*
X225425000Y-67945000D01*
X227965000Y-87630000D02*
X227965000Y-88265000D01*
X241935000Y-108585000D02*
X227965000Y-108585000D01*
X240665000Y-113665000D02*
X229235000Y-113665000D01*
X241935000Y-108585000D02*
X241935000Y-112395000D01*
X227965000Y-114935000D02*
X227965000Y-128905000D01*
X229235000Y-113665000D02*
X227965000Y-114935000D01*
X241935000Y-112395000D02*
X240665000Y-113665000D01*
X227965000Y-94615000D02*
X227965000Y-108585000D01*
X229235000Y-93345000D02*
X227965000Y-94615000D01*
X240665000Y-88265000D02*
X241935000Y-89535000D01*
X240665000Y-93345000D02*
X229235000Y-93345000D01*
X227965000Y-88265000D02*
X240665000Y-88265000D01*
X241935000Y-89535000D02*
X241935000Y-92075000D01*
X241935000Y-92075000D02*
X240665000Y-93345000D01*
X209550000Y-46355000D02*
X209550000Y-54610000D01*
X217170000Y-54610000D02*
X217170000Y-64135000D01*
X218440000Y-65405000D02*
X220345000Y-65405000D01*
X217170000Y-64135000D02*
X218440000Y-65405000D01*
X207010000Y-54610000D02*
X209550000Y-54610000D01*
X227965000Y-81280000D02*
X223520000Y-76835000D01*
X198755000Y-62865000D02*
X207010000Y-54610000D01*
X227965000Y-88265000D02*
X227965000Y-81280000D01*
X223520000Y-76835000D02*
X200025000Y-76835000D01*
X198755000Y-75565000D02*
X198755000Y-62865000D01*
X200025000Y-76835000D02*
X198755000Y-75565000D01*
%TO.N,OUT2*%
X239375000Y-111145000D02*
X239395000Y-111125000D01*
X227965000Y-111145000D02*
X239375000Y-111145000D01*
X222250000Y-80645000D02*
X197485000Y-80645000D01*
X224155000Y-82550000D02*
X222250000Y-80645000D01*
X197485000Y-80645000D02*
X194945000Y-78105000D01*
X227350000Y-111145000D02*
X226060000Y-109855000D01*
X227965000Y-111145000D02*
X227350000Y-111145000D01*
X226060000Y-109855000D02*
X226060000Y-93345000D01*
X194945000Y-60325000D02*
X204470000Y-50800000D01*
X194945000Y-78105000D02*
X194945000Y-60325000D01*
X226060000Y-93345000D02*
X224155000Y-91440000D01*
X204470000Y-50800000D02*
X204470000Y-46355000D01*
X224155000Y-91440000D02*
X224155000Y-82550000D01*
%TO.N,OUT3*%
X239375000Y-90825000D02*
X239395000Y-90805000D01*
X227965000Y-90825000D02*
X239375000Y-90825000D01*
X227370000Y-90825000D02*
X227965000Y-90825000D01*
X226060000Y-89515000D02*
X227370000Y-90825000D01*
X226060000Y-81915000D02*
X226060000Y-89515000D01*
X222885000Y-78740000D02*
X226060000Y-81915000D01*
X207010000Y-51435000D02*
X196850000Y-61595000D01*
X198755000Y-78740000D02*
X222885000Y-78740000D01*
X207010000Y-46355000D02*
X207010000Y-51435000D01*
X196850000Y-61595000D02*
X196850000Y-76835000D01*
X196850000Y-76835000D02*
X198755000Y-78740000D01*
%TO.N,IN1*%
X189230000Y-55245000D02*
X189230000Y-67945000D01*
X194310000Y-46355000D02*
X194310000Y-50165000D01*
X194310000Y-50165000D02*
X189230000Y-55245000D01*
X203835000Y-67945000D02*
X200660000Y-67945000D01*
%TO.N,-15V*%
X214630000Y-46355000D02*
X214630000Y-69215000D01*
X203835000Y-70485000D02*
X203835000Y-71755000D01*
X203835000Y-71755000D02*
X205105000Y-73025000D01*
X205105000Y-73025000D02*
X213360000Y-73025000D01*
X214630000Y-71755000D02*
X214630000Y-69215000D01*
X213360000Y-73025000D02*
X214630000Y-71755000D01*
X214630000Y-70485000D02*
X220345000Y-70485000D01*
X214630000Y-69215000D02*
X214630000Y-70485000D01*
%TO.N,+15V*%
X211455000Y-65405000D02*
X210185000Y-65405000D01*
X210185000Y-65405000D02*
X208915000Y-64135000D01*
X208915000Y-64135000D02*
X208915000Y-59055000D01*
X208915000Y-59055000D02*
X210185000Y-57785000D01*
X219710000Y-57785000D02*
X219710000Y-46355000D01*
X225425000Y-64135000D02*
X226695000Y-65405000D01*
X225425000Y-59055000D02*
X225425000Y-64135000D01*
X219710000Y-57785000D02*
X224155000Y-57785000D01*
X226695000Y-65405000D02*
X227965000Y-65405000D01*
X224155000Y-57785000D02*
X225425000Y-59055000D01*
X237490000Y-64770000D02*
X238125000Y-65405000D01*
X227965000Y-65405000D02*
X228600000Y-64770000D01*
X228600000Y-64770000D02*
X237490000Y-64770000D01*
%TO.N,Net-(RV1-Pad2)*%
X220345000Y-67945000D02*
X222250000Y-67945000D01*
X222250000Y-67945000D02*
X224790000Y-70485000D01*
X224790000Y-70485000D02*
X224790000Y-71755000D01*
X224790000Y-71755000D02*
X226695000Y-73660000D01*
X226695000Y-73660000D02*
X231775000Y-73660000D01*
X235585000Y-69850000D02*
X235585000Y-67945000D01*
X231775000Y-73660000D02*
X235585000Y-69850000D01*
%TD*%
D23*
%TO.N,GND*%
G36*
X230257001Y-57106616D02*
G01*
X230252728Y-57150000D01*
X230269777Y-57323098D01*
X230320268Y-57489544D01*
X230402260Y-57642942D01*
X230512604Y-57777396D01*
X230647058Y-57887740D01*
X230800456Y-57969732D01*
X230966902Y-58020223D01*
X231096627Y-58033000D01*
X231140000Y-58037272D01*
X231183373Y-58033000D01*
X259467000Y-58033000D01*
X259467001Y-147072000D01*
X162808000Y-147072000D01*
X162808000Y-139587000D01*
X194054143Y-139587000D01*
X194054143Y-146403000D01*
X228855857Y-146403000D01*
X228855857Y-139587000D01*
X194054143Y-139587000D01*
X162808000Y-139587000D01*
X162808000Y-136967154D01*
X185367000Y-136967154D01*
X185367000Y-137352846D01*
X185442245Y-137731128D01*
X185589843Y-138087461D01*
X185804122Y-138408152D01*
X186076848Y-138680878D01*
X186397539Y-138895157D01*
X186753872Y-139042755D01*
X187132154Y-139118000D01*
X187517846Y-139118000D01*
X187896128Y-139042755D01*
X188252461Y-138895157D01*
X188573152Y-138680878D01*
X188845878Y-138408152D01*
X189060157Y-138087461D01*
X189207755Y-137731128D01*
X189283000Y-137352846D01*
X189283000Y-136967154D01*
X232357000Y-136967154D01*
X232357000Y-137352846D01*
X232432245Y-137731128D01*
X232579843Y-138087461D01*
X232794122Y-138408152D01*
X233066848Y-138680878D01*
X233387539Y-138895157D01*
X233743872Y-139042755D01*
X234122154Y-139118000D01*
X234507846Y-139118000D01*
X234886128Y-139042755D01*
X235242461Y-138895157D01*
X235563152Y-138680878D01*
X235835878Y-138408152D01*
X236050157Y-138087461D01*
X236197755Y-137731128D01*
X236273000Y-137352846D01*
X236273000Y-136967154D01*
X236197755Y-136588872D01*
X236050157Y-136232539D01*
X235835878Y-135911848D01*
X235563152Y-135639122D01*
X235242461Y-135424843D01*
X234886128Y-135277245D01*
X234507846Y-135202000D01*
X234122154Y-135202000D01*
X233743872Y-135277245D01*
X233387539Y-135424843D01*
X233066848Y-135639122D01*
X232794122Y-135911848D01*
X232579843Y-136232539D01*
X232432245Y-136588872D01*
X232357000Y-136967154D01*
X189283000Y-136967154D01*
X189207755Y-136588872D01*
X189060157Y-136232539D01*
X188845878Y-135911848D01*
X188573152Y-135639122D01*
X188252461Y-135424843D01*
X187896128Y-135277245D01*
X187517846Y-135202000D01*
X187132154Y-135202000D01*
X186753872Y-135277245D01*
X186397539Y-135424843D01*
X186076848Y-135639122D01*
X185804122Y-135911848D01*
X185589843Y-136232539D01*
X185442245Y-136588872D01*
X185367000Y-136967154D01*
X162808000Y-136967154D01*
X162808000Y-131851458D01*
X169207593Y-131851458D01*
X169252669Y-132000072D01*
X169390978Y-132294202D01*
X169584011Y-132555698D01*
X169824350Y-132774510D01*
X170102760Y-132942230D01*
X170408541Y-133052412D01*
X170665000Y-132881706D01*
X170665000Y-131595000D01*
X170965000Y-131595000D01*
X170965000Y-132881706D01*
X171221459Y-133052412D01*
X171527240Y-132942230D01*
X171805650Y-132774510D01*
X172045989Y-132555698D01*
X172239022Y-132294202D01*
X172377331Y-132000072D01*
X172422407Y-131851458D01*
X172250685Y-131595000D01*
X170965000Y-131595000D01*
X170665000Y-131595000D01*
X169379315Y-131595000D01*
X169207593Y-131851458D01*
X162808000Y-131851458D01*
X162808000Y-131038542D01*
X169207593Y-131038542D01*
X169379315Y-131295000D01*
X170665000Y-131295000D01*
X170665000Y-130008294D01*
X170965000Y-130008294D01*
X170965000Y-131295000D01*
X172250685Y-131295000D01*
X172422407Y-131038542D01*
X172377331Y-130889928D01*
X172239022Y-130595798D01*
X172045989Y-130334302D01*
X171805650Y-130115490D01*
X171527240Y-129947770D01*
X171221459Y-129837588D01*
X170965000Y-130008294D01*
X170665000Y-130008294D01*
X170408541Y-129837588D01*
X170102760Y-129947770D01*
X169824350Y-130115490D01*
X169584011Y-130334302D01*
X169390978Y-130595798D01*
X169252669Y-130889928D01*
X169207593Y-131038542D01*
X162808000Y-131038542D01*
X162808000Y-122997154D01*
X185367000Y-122997154D01*
X185367000Y-123382846D01*
X185442245Y-123761128D01*
X185589843Y-124117461D01*
X185804122Y-124438152D01*
X186076848Y-124710878D01*
X186397539Y-124925157D01*
X186753872Y-125072755D01*
X187132154Y-125148000D01*
X187517846Y-125148000D01*
X187896128Y-125072755D01*
X188252461Y-124925157D01*
X188573152Y-124710878D01*
X188845878Y-124438152D01*
X189060157Y-124117461D01*
X189207755Y-123761128D01*
X189283000Y-123382846D01*
X189283000Y-122997154D01*
X189207755Y-122618872D01*
X189060157Y-122262539D01*
X188845878Y-121941848D01*
X188573152Y-121669122D01*
X188252461Y-121454843D01*
X187896128Y-121307245D01*
X187517846Y-121232000D01*
X187132154Y-121232000D01*
X186753872Y-121307245D01*
X186397539Y-121454843D01*
X186076848Y-121669122D01*
X185804122Y-121941848D01*
X185589843Y-122262539D01*
X185442245Y-122618872D01*
X185367000Y-122997154D01*
X162808000Y-122997154D01*
X162808000Y-116647154D01*
X185367000Y-116647154D01*
X185367000Y-117032846D01*
X185442245Y-117411128D01*
X185589843Y-117767461D01*
X185804122Y-118088152D01*
X186076848Y-118360878D01*
X186397539Y-118575157D01*
X186753872Y-118722755D01*
X187132154Y-118798000D01*
X187517846Y-118798000D01*
X187896128Y-118722755D01*
X188252461Y-118575157D01*
X188573152Y-118360878D01*
X188845878Y-118088152D01*
X189060157Y-117767461D01*
X189207755Y-117411128D01*
X189283000Y-117032846D01*
X189283000Y-116647154D01*
X189207755Y-116268872D01*
X189060157Y-115912539D01*
X188845878Y-115591848D01*
X188573152Y-115319122D01*
X188252461Y-115104843D01*
X187896128Y-114957245D01*
X187517846Y-114882000D01*
X187132154Y-114882000D01*
X186753872Y-114957245D01*
X186397539Y-115104843D01*
X186076848Y-115319122D01*
X185804122Y-115591848D01*
X185589843Y-115912539D01*
X185442245Y-116268872D01*
X185367000Y-116647154D01*
X162808000Y-116647154D01*
X162808000Y-111531458D01*
X169207593Y-111531458D01*
X169252669Y-111680072D01*
X169390978Y-111974202D01*
X169584011Y-112235698D01*
X169824350Y-112454510D01*
X170102760Y-112622230D01*
X170408541Y-112732412D01*
X170665000Y-112561706D01*
X170665000Y-111275000D01*
X170965000Y-111275000D01*
X170965000Y-112561706D01*
X171221459Y-112732412D01*
X171527240Y-112622230D01*
X171805650Y-112454510D01*
X172045989Y-112235698D01*
X172239022Y-111974202D01*
X172377331Y-111680072D01*
X172422407Y-111531458D01*
X172250685Y-111275000D01*
X170965000Y-111275000D01*
X170665000Y-111275000D01*
X169379315Y-111275000D01*
X169207593Y-111531458D01*
X162808000Y-111531458D01*
X162808000Y-110718542D01*
X169207593Y-110718542D01*
X169379315Y-110975000D01*
X170665000Y-110975000D01*
X170665000Y-109688294D01*
X170965000Y-109688294D01*
X170965000Y-110975000D01*
X172250685Y-110975000D01*
X172422407Y-110718542D01*
X172377331Y-110569928D01*
X172239022Y-110275798D01*
X172045989Y-110014302D01*
X171805650Y-109795490D01*
X171527240Y-109627770D01*
X171221459Y-109517588D01*
X170965000Y-109688294D01*
X170665000Y-109688294D01*
X170408541Y-109517588D01*
X170102760Y-109627770D01*
X169824350Y-109795490D01*
X169584011Y-110014302D01*
X169390978Y-110275798D01*
X169252669Y-110569928D01*
X169207593Y-110718542D01*
X162808000Y-110718542D01*
X162808000Y-102677154D01*
X185367000Y-102677154D01*
X185367000Y-103062846D01*
X185442245Y-103441128D01*
X185589843Y-103797461D01*
X185804122Y-104118152D01*
X186076848Y-104390878D01*
X186397539Y-104605157D01*
X186753872Y-104752755D01*
X187132154Y-104828000D01*
X187517846Y-104828000D01*
X187896128Y-104752755D01*
X188252461Y-104605157D01*
X188573152Y-104390878D01*
X188845878Y-104118152D01*
X189060157Y-103797461D01*
X189207755Y-103441128D01*
X189283000Y-103062846D01*
X189283000Y-102677154D01*
X189207755Y-102298872D01*
X189060157Y-101942539D01*
X188845878Y-101621848D01*
X188573152Y-101349122D01*
X188252461Y-101134843D01*
X187896128Y-100987245D01*
X187517846Y-100912000D01*
X187132154Y-100912000D01*
X186753872Y-100987245D01*
X186397539Y-101134843D01*
X186076848Y-101349122D01*
X185804122Y-101621848D01*
X185589843Y-101942539D01*
X185442245Y-102298872D01*
X185367000Y-102677154D01*
X162808000Y-102677154D01*
X162808000Y-96327154D01*
X185367000Y-96327154D01*
X185367000Y-96712846D01*
X185442245Y-97091128D01*
X185589843Y-97447461D01*
X185804122Y-97768152D01*
X186076848Y-98040878D01*
X186397539Y-98255157D01*
X186753872Y-98402755D01*
X187132154Y-98478000D01*
X187517846Y-98478000D01*
X187896128Y-98402755D01*
X188252461Y-98255157D01*
X188573152Y-98040878D01*
X188845878Y-97768152D01*
X189060157Y-97447461D01*
X189207755Y-97091128D01*
X189283000Y-96712846D01*
X189283000Y-96327154D01*
X189207755Y-95948872D01*
X189060157Y-95592539D01*
X188845878Y-95271848D01*
X188573152Y-94999122D01*
X188252461Y-94784843D01*
X187896128Y-94637245D01*
X187517846Y-94562000D01*
X187132154Y-94562000D01*
X186753872Y-94637245D01*
X186397539Y-94784843D01*
X186076848Y-94999122D01*
X185804122Y-95271848D01*
X185589843Y-95592539D01*
X185442245Y-95948872D01*
X185367000Y-96327154D01*
X162808000Y-96327154D01*
X162808000Y-91211458D01*
X169207593Y-91211458D01*
X169252669Y-91360072D01*
X169390978Y-91654202D01*
X169584011Y-91915698D01*
X169824350Y-92134510D01*
X170102760Y-92302230D01*
X170408541Y-92412412D01*
X170665000Y-92241706D01*
X170665000Y-90955000D01*
X170965000Y-90955000D01*
X170965000Y-92241706D01*
X171221459Y-92412412D01*
X171527240Y-92302230D01*
X171805650Y-92134510D01*
X172045989Y-91915698D01*
X172239022Y-91654202D01*
X172377331Y-91360072D01*
X172422407Y-91211458D01*
X172250685Y-90955000D01*
X170965000Y-90955000D01*
X170665000Y-90955000D01*
X169379315Y-90955000D01*
X169207593Y-91211458D01*
X162808000Y-91211458D01*
X162808000Y-90398542D01*
X169207593Y-90398542D01*
X169379315Y-90655000D01*
X170665000Y-90655000D01*
X170665000Y-89368294D01*
X170965000Y-89368294D01*
X170965000Y-90655000D01*
X172250685Y-90655000D01*
X172422407Y-90398542D01*
X172377331Y-90249928D01*
X172239022Y-89955798D01*
X172045989Y-89694302D01*
X171805650Y-89475490D01*
X171527240Y-89307770D01*
X171221459Y-89197588D01*
X170965000Y-89368294D01*
X170665000Y-89368294D01*
X170408541Y-89197588D01*
X170102760Y-89307770D01*
X169824350Y-89475490D01*
X169584011Y-89694302D01*
X169390978Y-89955798D01*
X169252669Y-90249928D01*
X169207593Y-90398542D01*
X162808000Y-90398542D01*
X162808000Y-65246626D01*
X181272000Y-65246626D01*
X181272000Y-65563374D01*
X181333795Y-65874036D01*
X181455009Y-66166673D01*
X181522000Y-66266932D01*
X181522001Y-86293287D01*
X181515430Y-86360000D01*
X181541651Y-86626214D01*
X181619303Y-86882198D01*
X181745402Y-87118114D01*
X181809950Y-87196766D01*
X181915104Y-87324897D01*
X181966919Y-87367420D01*
X183763432Y-89163934D01*
X183678299Y-89147000D01*
X183351701Y-89147000D01*
X183031379Y-89210716D01*
X182729643Y-89335700D01*
X182458087Y-89517148D01*
X182227148Y-89748087D01*
X182045700Y-90019643D01*
X181920716Y-90321379D01*
X181857000Y-90641701D01*
X181857000Y-90968299D01*
X181920716Y-91288621D01*
X182045700Y-91590357D01*
X182227148Y-91861913D01*
X182458087Y-92092852D01*
X182729643Y-92274300D01*
X183031379Y-92399284D01*
X183351701Y-92463000D01*
X183678299Y-92463000D01*
X183998621Y-92399284D01*
X184300357Y-92274300D01*
X184466929Y-92163000D01*
X191411931Y-92163000D01*
X191423148Y-92183985D01*
X191530367Y-92314633D01*
X191661015Y-92421852D01*
X191810069Y-92501524D01*
X191971803Y-92550585D01*
X192140000Y-92567151D01*
X193940000Y-92567151D01*
X194108197Y-92550585D01*
X194269931Y-92501524D01*
X194418985Y-92421852D01*
X194549633Y-92314633D01*
X194656852Y-92183985D01*
X194736524Y-92034931D01*
X194785585Y-91873197D01*
X194802151Y-91705000D01*
X194802151Y-89905000D01*
X194785585Y-89736803D01*
X194751064Y-89623000D01*
X194857000Y-89623000D01*
X194857001Y-107227000D01*
X194168188Y-107227000D01*
X194160660Y-107219472D01*
X193872725Y-107027081D01*
X193552790Y-106894559D01*
X193213148Y-106827000D01*
X192866852Y-106827000D01*
X192527210Y-106894559D01*
X192207275Y-107027081D01*
X191919340Y-107219472D01*
X191674472Y-107464340D01*
X191482081Y-107752275D01*
X191349559Y-108072210D01*
X191282000Y-108411852D01*
X191282000Y-108758148D01*
X191349559Y-109097790D01*
X191482081Y-109417725D01*
X191584472Y-109570965D01*
X191530367Y-109615367D01*
X191423148Y-109746015D01*
X191411931Y-109767000D01*
X184466929Y-109767000D01*
X184300357Y-109655700D01*
X183998621Y-109530716D01*
X183678299Y-109467000D01*
X183351701Y-109467000D01*
X183031379Y-109530716D01*
X182729643Y-109655700D01*
X182458087Y-109837148D01*
X182227148Y-110068087D01*
X182045700Y-110339643D01*
X181920716Y-110641379D01*
X181857000Y-110961701D01*
X181857000Y-111288299D01*
X181920716Y-111608621D01*
X182045700Y-111910357D01*
X182227148Y-112181913D01*
X182458087Y-112412852D01*
X182729643Y-112594300D01*
X183031379Y-112719284D01*
X183351701Y-112783000D01*
X183678299Y-112783000D01*
X183998621Y-112719284D01*
X184300357Y-112594300D01*
X184466929Y-112483000D01*
X191411931Y-112483000D01*
X191423148Y-112503985D01*
X191530367Y-112634633D01*
X191661015Y-112741852D01*
X191810069Y-112821524D01*
X191971803Y-112870585D01*
X192140000Y-112887151D01*
X193940000Y-112887151D01*
X194108197Y-112870585D01*
X194269931Y-112821524D01*
X194418985Y-112741852D01*
X194549633Y-112634633D01*
X194656852Y-112503985D01*
X194736524Y-112354931D01*
X194785585Y-112193197D01*
X194802151Y-112025000D01*
X194802151Y-110225000D01*
X194785585Y-110056803D01*
X194751064Y-109943000D01*
X194857000Y-109943000D01*
X194857001Y-127072497D01*
X194382499Y-127547000D01*
X194168188Y-127547000D01*
X194160660Y-127539472D01*
X193872725Y-127347081D01*
X193552790Y-127214559D01*
X193213148Y-127147000D01*
X192866852Y-127147000D01*
X192527210Y-127214559D01*
X192207275Y-127347081D01*
X191919340Y-127539472D01*
X191674472Y-127784340D01*
X191482081Y-128072275D01*
X191349559Y-128392210D01*
X191282000Y-128731852D01*
X191282000Y-129078148D01*
X191349559Y-129417790D01*
X191482081Y-129737725D01*
X191584472Y-129890965D01*
X191530367Y-129935367D01*
X191423148Y-130066015D01*
X191411931Y-130087000D01*
X184466929Y-130087000D01*
X184300357Y-129975700D01*
X183998621Y-129850716D01*
X183678299Y-129787000D01*
X183351701Y-129787000D01*
X183031379Y-129850716D01*
X182729643Y-129975700D01*
X182458087Y-130157148D01*
X182227148Y-130388087D01*
X182045700Y-130659643D01*
X181920716Y-130961379D01*
X181857000Y-131281701D01*
X181857000Y-131608299D01*
X181920716Y-131928621D01*
X182045700Y-132230357D01*
X182227148Y-132501913D01*
X182458087Y-132732852D01*
X182729643Y-132914300D01*
X183031379Y-133039284D01*
X183351701Y-133103000D01*
X183678299Y-133103000D01*
X183998621Y-133039284D01*
X184300357Y-132914300D01*
X184466929Y-132803000D01*
X191411931Y-132803000D01*
X191423148Y-132823985D01*
X191530367Y-132954633D01*
X191661015Y-133061852D01*
X191810069Y-133141524D01*
X191971803Y-133190585D01*
X192140000Y-133207151D01*
X193940000Y-133207151D01*
X194108197Y-133190585D01*
X194269931Y-133141524D01*
X194418985Y-133061852D01*
X194549633Y-132954633D01*
X194656852Y-132823985D01*
X194736524Y-132674931D01*
X194785585Y-132513197D01*
X194802151Y-132345000D01*
X194802151Y-130545000D01*
X194785585Y-130376803D01*
X194751064Y-130263000D01*
X194878297Y-130263000D01*
X194945000Y-130269570D01*
X195011703Y-130263000D01*
X195011706Y-130263000D01*
X195211214Y-130243350D01*
X195467198Y-130165698D01*
X195703114Y-130039598D01*
X195909897Y-129869897D01*
X195952425Y-129818076D01*
X197128081Y-128642421D01*
X197179897Y-128599897D01*
X197349598Y-128393114D01*
X197475698Y-128157198D01*
X197553350Y-127901214D01*
X197573000Y-127701706D01*
X197573000Y-127701704D01*
X197579570Y-127635001D01*
X197573000Y-127568297D01*
X197573000Y-108651706D01*
X197579570Y-108585000D01*
X197573000Y-108518294D01*
X197573000Y-88331705D01*
X197579570Y-88265000D01*
X197553350Y-87998786D01*
X197475698Y-87742802D01*
X197349598Y-87506886D01*
X197179897Y-87300103D01*
X196973114Y-87130402D01*
X196737198Y-87004302D01*
X196481214Y-86926650D01*
X196281706Y-86907000D01*
X196215000Y-86900430D01*
X196148294Y-86907000D01*
X194168188Y-86907000D01*
X194160660Y-86899472D01*
X193872725Y-86707081D01*
X193552790Y-86574559D01*
X193213148Y-86507000D01*
X192866852Y-86507000D01*
X192527210Y-86574559D01*
X192207275Y-86707081D01*
X191919340Y-86899472D01*
X191911812Y-86907000D01*
X185347502Y-86907000D01*
X184238000Y-85797499D01*
X184238000Y-82357154D01*
X185367000Y-82357154D01*
X185367000Y-82742846D01*
X185442245Y-83121128D01*
X185589843Y-83477461D01*
X185804122Y-83798152D01*
X186076848Y-84070878D01*
X186397539Y-84285157D01*
X186753872Y-84432755D01*
X187132154Y-84508000D01*
X187517846Y-84508000D01*
X187896128Y-84432755D01*
X188252461Y-84285157D01*
X188573152Y-84070878D01*
X188845878Y-83798152D01*
X189060157Y-83477461D01*
X189207755Y-83121128D01*
X189283000Y-82742846D01*
X189283000Y-82357154D01*
X189207755Y-81978872D01*
X189060157Y-81622539D01*
X188845878Y-81301848D01*
X188573152Y-81029122D01*
X188252461Y-80814843D01*
X187896128Y-80667245D01*
X187517846Y-80592000D01*
X187132154Y-80592000D01*
X186753872Y-80667245D01*
X186397539Y-80814843D01*
X186076848Y-81029122D01*
X185804122Y-81301848D01*
X185589843Y-81622539D01*
X185442245Y-81978872D01*
X185367000Y-82357154D01*
X184238000Y-82357154D01*
X184238000Y-67786626D01*
X187622000Y-67786626D01*
X187622000Y-68103374D01*
X187683795Y-68414036D01*
X187805009Y-68706673D01*
X187980985Y-68970040D01*
X188204960Y-69194015D01*
X188468327Y-69369991D01*
X188760964Y-69491205D01*
X189071626Y-69553000D01*
X189388374Y-69553000D01*
X189699036Y-69491205D01*
X189991673Y-69369991D01*
X190255040Y-69194015D01*
X190479015Y-68970040D01*
X190654991Y-68706673D01*
X190776205Y-68414036D01*
X190838000Y-68103374D01*
X190838000Y-67786626D01*
X190776205Y-67475964D01*
X190654991Y-67183327D01*
X190588000Y-67083068D01*
X190588000Y-59055000D01*
X191675430Y-59055000D01*
X191682000Y-59121703D01*
X191682001Y-78673287D01*
X191675430Y-78740000D01*
X191701651Y-79006214D01*
X191779303Y-79262198D01*
X191905402Y-79498114D01*
X191915487Y-79510402D01*
X192075104Y-79704897D01*
X192126918Y-79747419D01*
X195842579Y-83463081D01*
X195885103Y-83514897D01*
X195936917Y-83557419D01*
X196091885Y-83684598D01*
X196327801Y-83810698D01*
X196358463Y-83819999D01*
X196583786Y-83888350D01*
X196783294Y-83908000D01*
X196783296Y-83908000D01*
X196850000Y-83914570D01*
X196916703Y-83908000D01*
X220417499Y-83908000D01*
X220892000Y-84382502D01*
X220892001Y-92643287D01*
X220885430Y-92710000D01*
X220911651Y-92976214D01*
X220989303Y-93232198D01*
X221115402Y-93468114D01*
X221125487Y-93480402D01*
X221285104Y-93674897D01*
X221336919Y-93717420D01*
X222797000Y-95177502D01*
X222797001Y-111693287D01*
X222790430Y-111760000D01*
X222816651Y-112026214D01*
X222894303Y-112282198D01*
X223020402Y-112518114D01*
X223105848Y-112622230D01*
X223190104Y-112724897D01*
X223241919Y-112767420D01*
X224702000Y-114227502D01*
X224702001Y-130108287D01*
X224695430Y-130175000D01*
X224721651Y-130441214D01*
X224799303Y-130697198D01*
X224925402Y-130933114D01*
X225011925Y-131038542D01*
X225095104Y-131139897D01*
X225146919Y-131182420D01*
X226342579Y-132378081D01*
X226385103Y-132429897D01*
X226591886Y-132599598D01*
X226827802Y-132725698D01*
X227083786Y-132803350D01*
X227177466Y-132812577D01*
X227227010Y-132845681D01*
X227510548Y-132963126D01*
X227811550Y-133023000D01*
X228118450Y-133023000D01*
X228419452Y-132963126D01*
X228702990Y-132845681D01*
X228736934Y-132823000D01*
X238473003Y-132823000D01*
X238609643Y-132914300D01*
X238911379Y-133039284D01*
X239231701Y-133103000D01*
X239558299Y-133103000D01*
X239878621Y-133039284D01*
X240180357Y-132914300D01*
X240451913Y-132732852D01*
X240682852Y-132501913D01*
X240864300Y-132230357D01*
X240989284Y-131928621D01*
X241004632Y-131851458D01*
X250487593Y-131851458D01*
X250532669Y-132000072D01*
X250670978Y-132294202D01*
X250864011Y-132555698D01*
X251104350Y-132774510D01*
X251382760Y-132942230D01*
X251688541Y-133052412D01*
X251945000Y-132881706D01*
X251945000Y-131595000D01*
X252245000Y-131595000D01*
X252245000Y-132881706D01*
X252501459Y-133052412D01*
X252807240Y-132942230D01*
X253085650Y-132774510D01*
X253325989Y-132555698D01*
X253519022Y-132294202D01*
X253657331Y-132000072D01*
X253702407Y-131851458D01*
X253530685Y-131595000D01*
X252245000Y-131595000D01*
X251945000Y-131595000D01*
X250659315Y-131595000D01*
X250487593Y-131851458D01*
X241004632Y-131851458D01*
X241053000Y-131608299D01*
X241053000Y-131281701D01*
X241004633Y-131038542D01*
X250487593Y-131038542D01*
X250659315Y-131295000D01*
X251945000Y-131295000D01*
X251945000Y-130008294D01*
X252245000Y-130008294D01*
X252245000Y-131295000D01*
X253530685Y-131295000D01*
X253702407Y-131038542D01*
X253657331Y-130889928D01*
X253519022Y-130595798D01*
X253325989Y-130334302D01*
X253085650Y-130115490D01*
X252807240Y-129947770D01*
X252501459Y-129837588D01*
X252245000Y-130008294D01*
X251945000Y-130008294D01*
X251688541Y-129837588D01*
X251382760Y-129947770D01*
X251104350Y-130115490D01*
X250864011Y-130334302D01*
X250670978Y-130595798D01*
X250532669Y-130889928D01*
X250487593Y-131038542D01*
X241004633Y-131038542D01*
X240989284Y-130961379D01*
X240864300Y-130659643D01*
X240682852Y-130388087D01*
X240451913Y-130157148D01*
X240180357Y-129975700D01*
X239878621Y-129850716D01*
X239558299Y-129787000D01*
X239231701Y-129787000D01*
X238911379Y-129850716D01*
X238609643Y-129975700D01*
X238413139Y-130107000D01*
X229230076Y-130107000D01*
X229339855Y-129973234D01*
X229442554Y-129781096D01*
X229505797Y-129572614D01*
X229527151Y-129355800D01*
X229527151Y-128454200D01*
X229505797Y-128237386D01*
X229442554Y-128028904D01*
X229339855Y-127836766D01*
X229323000Y-127816228D01*
X229323000Y-122997154D01*
X232357000Y-122997154D01*
X232357000Y-123382846D01*
X232432245Y-123761128D01*
X232579843Y-124117461D01*
X232794122Y-124438152D01*
X233066848Y-124710878D01*
X233387539Y-124925157D01*
X233743872Y-125072755D01*
X234122154Y-125148000D01*
X234507846Y-125148000D01*
X234886128Y-125072755D01*
X235242461Y-124925157D01*
X235563152Y-124710878D01*
X235835878Y-124438152D01*
X236050157Y-124117461D01*
X236197755Y-123761128D01*
X236273000Y-123382846D01*
X236273000Y-122997154D01*
X236197755Y-122618872D01*
X236050157Y-122262539D01*
X235835878Y-121941848D01*
X235563152Y-121669122D01*
X235242461Y-121454843D01*
X234886128Y-121307245D01*
X234507846Y-121232000D01*
X234122154Y-121232000D01*
X233743872Y-121307245D01*
X233387539Y-121454843D01*
X233066848Y-121669122D01*
X232794122Y-121941848D01*
X232579843Y-122262539D01*
X232432245Y-122618872D01*
X232357000Y-122997154D01*
X229323000Y-122997154D01*
X229323000Y-115497501D01*
X229797502Y-115023000D01*
X233585125Y-115023000D01*
X233387539Y-115104843D01*
X233066848Y-115319122D01*
X232794122Y-115591848D01*
X232579843Y-115912539D01*
X232432245Y-116268872D01*
X232357000Y-116647154D01*
X232357000Y-117032846D01*
X232432245Y-117411128D01*
X232579843Y-117767461D01*
X232794122Y-118088152D01*
X233066848Y-118360878D01*
X233387539Y-118575157D01*
X233743872Y-118722755D01*
X234122154Y-118798000D01*
X234507846Y-118798000D01*
X234886128Y-118722755D01*
X235242461Y-118575157D01*
X235563152Y-118360878D01*
X235835878Y-118088152D01*
X236050157Y-117767461D01*
X236197755Y-117411128D01*
X236273000Y-117032846D01*
X236273000Y-116647154D01*
X236197755Y-116268872D01*
X236050157Y-115912539D01*
X235835878Y-115591848D01*
X235563152Y-115319122D01*
X235242461Y-115104843D01*
X235044875Y-115023000D01*
X240598297Y-115023000D01*
X240665000Y-115029570D01*
X240731703Y-115023000D01*
X240731706Y-115023000D01*
X240931214Y-115003350D01*
X241187198Y-114925698D01*
X241423114Y-114799598D01*
X241629897Y-114629897D01*
X241672425Y-114578076D01*
X242848081Y-113402421D01*
X242899897Y-113359897D01*
X243069598Y-113153114D01*
X243195698Y-112917198D01*
X243273350Y-112661214D01*
X243293000Y-112461706D01*
X243293000Y-112461704D01*
X243299570Y-112395001D01*
X243293000Y-112328297D01*
X243293000Y-111531458D01*
X250487593Y-111531458D01*
X250532669Y-111680072D01*
X250670978Y-111974202D01*
X250864011Y-112235698D01*
X251104350Y-112454510D01*
X251382760Y-112622230D01*
X251688541Y-112732412D01*
X251945000Y-112561706D01*
X251945000Y-111275000D01*
X252245000Y-111275000D01*
X252245000Y-112561706D01*
X252501459Y-112732412D01*
X252807240Y-112622230D01*
X253085650Y-112454510D01*
X253325989Y-112235698D01*
X253519022Y-111974202D01*
X253657331Y-111680072D01*
X253702407Y-111531458D01*
X253530685Y-111275000D01*
X252245000Y-111275000D01*
X251945000Y-111275000D01*
X250659315Y-111275000D01*
X250487593Y-111531458D01*
X243293000Y-111531458D01*
X243293000Y-110718542D01*
X250487593Y-110718542D01*
X250659315Y-110975000D01*
X251945000Y-110975000D01*
X251945000Y-109688294D01*
X252245000Y-109688294D01*
X252245000Y-110975000D01*
X253530685Y-110975000D01*
X253702407Y-110718542D01*
X253657331Y-110569928D01*
X253519022Y-110275798D01*
X253325989Y-110014302D01*
X253085650Y-109795490D01*
X252807240Y-109627770D01*
X252501459Y-109517588D01*
X252245000Y-109688294D01*
X251945000Y-109688294D01*
X251688541Y-109517588D01*
X251382760Y-109627770D01*
X251104350Y-109795490D01*
X250864011Y-110014302D01*
X250670978Y-110275798D01*
X250532669Y-110569928D01*
X250487593Y-110718542D01*
X243293000Y-110718542D01*
X243293000Y-108651706D01*
X243299570Y-108585000D01*
X243273350Y-108318786D01*
X243195698Y-108062802D01*
X243069598Y-107826886D01*
X242899897Y-107620103D01*
X242693114Y-107450402D01*
X242457198Y-107324302D01*
X242201214Y-107246650D01*
X242001706Y-107227000D01*
X241935000Y-107220430D01*
X241868294Y-107227000D01*
X229323000Y-107227000D01*
X229323000Y-102677154D01*
X232357000Y-102677154D01*
X232357000Y-103062846D01*
X232432245Y-103441128D01*
X232579843Y-103797461D01*
X232794122Y-104118152D01*
X233066848Y-104390878D01*
X233387539Y-104605157D01*
X233743872Y-104752755D01*
X234122154Y-104828000D01*
X234507846Y-104828000D01*
X234886128Y-104752755D01*
X235242461Y-104605157D01*
X235563152Y-104390878D01*
X235835878Y-104118152D01*
X236050157Y-103797461D01*
X236197755Y-103441128D01*
X236273000Y-103062846D01*
X236273000Y-102677154D01*
X236197755Y-102298872D01*
X236050157Y-101942539D01*
X235835878Y-101621848D01*
X235563152Y-101349122D01*
X235242461Y-101134843D01*
X234886128Y-100987245D01*
X234507846Y-100912000D01*
X234122154Y-100912000D01*
X233743872Y-100987245D01*
X233387539Y-101134843D01*
X233066848Y-101349122D01*
X232794122Y-101621848D01*
X232579843Y-101942539D01*
X232432245Y-102298872D01*
X232357000Y-102677154D01*
X229323000Y-102677154D01*
X229323000Y-95177501D01*
X229797502Y-94703000D01*
X233585125Y-94703000D01*
X233387539Y-94784843D01*
X233066848Y-94999122D01*
X232794122Y-95271848D01*
X232579843Y-95592539D01*
X232432245Y-95948872D01*
X232357000Y-96327154D01*
X232357000Y-96712846D01*
X232432245Y-97091128D01*
X232579843Y-97447461D01*
X232794122Y-97768152D01*
X233066848Y-98040878D01*
X233387539Y-98255157D01*
X233743872Y-98402755D01*
X234122154Y-98478000D01*
X234507846Y-98478000D01*
X234886128Y-98402755D01*
X235242461Y-98255157D01*
X235563152Y-98040878D01*
X235835878Y-97768152D01*
X236050157Y-97447461D01*
X236197755Y-97091128D01*
X236273000Y-96712846D01*
X236273000Y-96327154D01*
X236197755Y-95948872D01*
X236050157Y-95592539D01*
X235835878Y-95271848D01*
X235563152Y-94999122D01*
X235242461Y-94784843D01*
X235044875Y-94703000D01*
X240598297Y-94703000D01*
X240665000Y-94709570D01*
X240731703Y-94703000D01*
X240731706Y-94703000D01*
X240931214Y-94683350D01*
X241187198Y-94605698D01*
X241423114Y-94479598D01*
X241629897Y-94309897D01*
X241672425Y-94258076D01*
X242848081Y-93082421D01*
X242899897Y-93039897D01*
X243069598Y-92833114D01*
X243195698Y-92597198D01*
X243273350Y-92341214D01*
X243293000Y-92141706D01*
X243293000Y-92141704D01*
X243299570Y-92075001D01*
X243293000Y-92008297D01*
X243293000Y-91211458D01*
X250487593Y-91211458D01*
X250532669Y-91360072D01*
X250670978Y-91654202D01*
X250864011Y-91915698D01*
X251104350Y-92134510D01*
X251382760Y-92302230D01*
X251688541Y-92412412D01*
X251945000Y-92241706D01*
X251945000Y-90955000D01*
X252245000Y-90955000D01*
X252245000Y-92241706D01*
X252501459Y-92412412D01*
X252807240Y-92302230D01*
X253085650Y-92134510D01*
X253325989Y-91915698D01*
X253519022Y-91654202D01*
X253657331Y-91360072D01*
X253702407Y-91211458D01*
X253530685Y-90955000D01*
X252245000Y-90955000D01*
X251945000Y-90955000D01*
X250659315Y-90955000D01*
X250487593Y-91211458D01*
X243293000Y-91211458D01*
X243293000Y-90398542D01*
X250487593Y-90398542D01*
X250659315Y-90655000D01*
X251945000Y-90655000D01*
X251945000Y-89368294D01*
X252245000Y-89368294D01*
X252245000Y-90655000D01*
X253530685Y-90655000D01*
X253702407Y-90398542D01*
X253657331Y-90249928D01*
X253519022Y-89955798D01*
X253325989Y-89694302D01*
X253085650Y-89475490D01*
X252807240Y-89307770D01*
X252501459Y-89197588D01*
X252245000Y-89368294D01*
X251945000Y-89368294D01*
X251688541Y-89197588D01*
X251382760Y-89307770D01*
X251104350Y-89475490D01*
X250864011Y-89694302D01*
X250670978Y-89955798D01*
X250532669Y-90249928D01*
X250487593Y-90398542D01*
X243293000Y-90398542D01*
X243293000Y-89601703D01*
X243299570Y-89534999D01*
X243293000Y-89468294D01*
X243273350Y-89268786D01*
X243195698Y-89012802D01*
X243069598Y-88776886D01*
X242899896Y-88570103D01*
X242848086Y-88527584D01*
X241672425Y-87351924D01*
X241629897Y-87300103D01*
X241423114Y-87130402D01*
X241187198Y-87004302D01*
X240931214Y-86926650D01*
X240731706Y-86907000D01*
X240731703Y-86907000D01*
X240665000Y-86900430D01*
X240598297Y-86907000D01*
X229323000Y-86907000D01*
X229323000Y-82357154D01*
X232357000Y-82357154D01*
X232357000Y-82742846D01*
X232432245Y-83121128D01*
X232579843Y-83477461D01*
X232794122Y-83798152D01*
X233066848Y-84070878D01*
X233387539Y-84285157D01*
X233743872Y-84432755D01*
X234122154Y-84508000D01*
X234507846Y-84508000D01*
X234886128Y-84432755D01*
X235242461Y-84285157D01*
X235563152Y-84070878D01*
X235835878Y-83798152D01*
X236050157Y-83477461D01*
X236197755Y-83121128D01*
X236273000Y-82742846D01*
X236273000Y-82357154D01*
X236197755Y-81978872D01*
X236050157Y-81622539D01*
X235835878Y-81301848D01*
X235563152Y-81029122D01*
X235242461Y-80814843D01*
X234886128Y-80667245D01*
X234507846Y-80592000D01*
X234122154Y-80592000D01*
X233743872Y-80667245D01*
X233387539Y-80814843D01*
X233066848Y-81029122D01*
X232794122Y-81301848D01*
X232579843Y-81622539D01*
X232432245Y-81978872D01*
X232357000Y-82357154D01*
X229323000Y-82357154D01*
X229323000Y-81346703D01*
X229329570Y-81279999D01*
X229322838Y-81211650D01*
X229303350Y-81013786D01*
X229225698Y-80757802D01*
X229099598Y-80521886D01*
X228929897Y-80315103D01*
X228878081Y-80272579D01*
X224527425Y-75921924D01*
X224484897Y-75870103D01*
X224278114Y-75700402D01*
X224042198Y-75574302D01*
X223786214Y-75496650D01*
X223586706Y-75477000D01*
X223586703Y-75477000D01*
X223520000Y-75470430D01*
X223453297Y-75477000D01*
X200587502Y-75477000D01*
X200113000Y-75002499D01*
X200113000Y-69458911D01*
X200190964Y-69491205D01*
X200501626Y-69553000D01*
X200818374Y-69553000D01*
X201129036Y-69491205D01*
X201421673Y-69369991D01*
X201521932Y-69303000D01*
X202261752Y-69303000D01*
X202256945Y-69306945D01*
X202049753Y-69559408D01*
X201895796Y-69847441D01*
X201800990Y-70159975D01*
X201768978Y-70485000D01*
X201800990Y-70810025D01*
X201895796Y-71122559D01*
X202049753Y-71410592D01*
X202256945Y-71663055D01*
X202479351Y-71845580D01*
X202496650Y-72021214D01*
X202574302Y-72277198D01*
X202637353Y-72395156D01*
X202700402Y-72513114D01*
X202710487Y-72525402D01*
X202870104Y-72719897D01*
X202921919Y-72762420D01*
X204097579Y-73938081D01*
X204140103Y-73989897D01*
X204346886Y-74159598D01*
X204582802Y-74285698D01*
X204838786Y-74363350D01*
X205038294Y-74383000D01*
X205038296Y-74383000D01*
X205104999Y-74389570D01*
X205171703Y-74383000D01*
X213293297Y-74383000D01*
X213360000Y-74389570D01*
X213426703Y-74383000D01*
X213426706Y-74383000D01*
X213626214Y-74363350D01*
X213882198Y-74285698D01*
X214118114Y-74159598D01*
X214324897Y-73989897D01*
X214367425Y-73938076D01*
X215543086Y-72762416D01*
X215594896Y-72719897D01*
X215637420Y-72668082D01*
X215728642Y-72556926D01*
X215764598Y-72513114D01*
X215890698Y-72277198D01*
X215968350Y-72021214D01*
X215985903Y-71843000D01*
X218986208Y-71843000D01*
X219019408Y-71870247D01*
X219307441Y-72024204D01*
X219619975Y-72119010D01*
X219863551Y-72143000D01*
X220826449Y-72143000D01*
X221070025Y-72119010D01*
X221382559Y-72024204D01*
X221670592Y-71870247D01*
X221923055Y-71663055D01*
X222130247Y-71410592D01*
X222284204Y-71122559D01*
X222379010Y-70810025D01*
X222411022Y-70485000D01*
X222379010Y-70159975D01*
X222306962Y-69922463D01*
X223432000Y-71047502D01*
X223432000Y-71688297D01*
X223425430Y-71755000D01*
X223432000Y-71821703D01*
X223432000Y-71821706D01*
X223451650Y-72021214D01*
X223529302Y-72277198D01*
X223592353Y-72395156D01*
X223655402Y-72513114D01*
X223665487Y-72525402D01*
X223825104Y-72719897D01*
X223876919Y-72762420D01*
X225687579Y-74573081D01*
X225730103Y-74624897D01*
X225781917Y-74667419D01*
X225936885Y-74794598D01*
X226062985Y-74861999D01*
X226172802Y-74920698D01*
X226428786Y-74998350D01*
X226628294Y-75018000D01*
X226628296Y-75018000D01*
X226695000Y-75024570D01*
X226761703Y-75018000D01*
X231708297Y-75018000D01*
X231775000Y-75024570D01*
X231841703Y-75018000D01*
X231841706Y-75018000D01*
X232041214Y-74998350D01*
X232297198Y-74920698D01*
X232533114Y-74794598D01*
X232739897Y-74624897D01*
X232782425Y-74573076D01*
X235800716Y-71554785D01*
X237267347Y-71554785D01*
X237318519Y-71850221D01*
X237600357Y-71981325D01*
X237902357Y-72054926D01*
X238212912Y-72068196D01*
X238520090Y-72020625D01*
X238812084Y-71914039D01*
X238931481Y-71850221D01*
X238982653Y-71554785D01*
X238125000Y-70697132D01*
X237267347Y-71554785D01*
X235800716Y-71554785D01*
X236498086Y-70857416D01*
X236549896Y-70814897D01*
X236574614Y-70784777D01*
X236589375Y-70880090D01*
X236695961Y-71172084D01*
X236759779Y-71291481D01*
X237055215Y-71342653D01*
X237912868Y-70485000D01*
X238337132Y-70485000D01*
X239194785Y-71342653D01*
X239490221Y-71291481D01*
X239621325Y-71009643D01*
X239694926Y-70707643D01*
X239708196Y-70397088D01*
X239660625Y-70089910D01*
X239554039Y-69797916D01*
X239490221Y-69678519D01*
X239194785Y-69627347D01*
X238337132Y-70485000D01*
X237912868Y-70485000D01*
X237055215Y-69627347D01*
X236943000Y-69646784D01*
X236943000Y-69415215D01*
X237267347Y-69415215D01*
X238125000Y-70272868D01*
X238982653Y-69415215D01*
X238931481Y-69119779D01*
X238649643Y-68988675D01*
X238347643Y-68915074D01*
X238037088Y-68901804D01*
X237729910Y-68949375D01*
X237437916Y-69055961D01*
X237318519Y-69119779D01*
X237267347Y-69415215D01*
X236943000Y-69415215D01*
X236943000Y-68752933D01*
X236983405Y-68692463D01*
X237102358Y-68405286D01*
X237163000Y-68100419D01*
X237163000Y-67789581D01*
X237102358Y-67484714D01*
X236983405Y-67197537D01*
X236810712Y-66939084D01*
X236590916Y-66719288D01*
X236332463Y-66546595D01*
X236045286Y-66427642D01*
X235740419Y-66367000D01*
X235429581Y-66367000D01*
X235124714Y-66427642D01*
X234837537Y-66546595D01*
X234579084Y-66719288D01*
X234359288Y-66939084D01*
X234186595Y-67197537D01*
X234067642Y-67484714D01*
X234007000Y-67789581D01*
X234007000Y-68100419D01*
X234067642Y-68405286D01*
X234186595Y-68692463D01*
X234227001Y-68752934D01*
X234227000Y-69287498D01*
X231212499Y-72302000D01*
X227257502Y-72302000D01*
X227002463Y-72046962D01*
X227239975Y-72119010D01*
X227483551Y-72143000D01*
X228446449Y-72143000D01*
X228690025Y-72119010D01*
X229002559Y-72024204D01*
X229290592Y-71870247D01*
X229543055Y-71663055D01*
X229750247Y-71410592D01*
X229904204Y-71122559D01*
X229999010Y-70810025D01*
X230031022Y-70485000D01*
X229999010Y-70159975D01*
X229904204Y-69847441D01*
X229750247Y-69559408D01*
X229543055Y-69306945D01*
X229431020Y-69215000D01*
X229543055Y-69123055D01*
X229750247Y-68870592D01*
X229904204Y-68582559D01*
X229999010Y-68270025D01*
X230031022Y-67945000D01*
X229999010Y-67619975D01*
X229904204Y-67307441D01*
X229750247Y-67019408D01*
X229543055Y-66766945D01*
X229431020Y-66675000D01*
X229543055Y-66583055D01*
X229750247Y-66330592D01*
X229858535Y-66128000D01*
X236716462Y-66128000D01*
X236726595Y-66152463D01*
X236899288Y-66410916D01*
X237119084Y-66630712D01*
X237377537Y-66803405D01*
X237664714Y-66922358D01*
X237969581Y-66983000D01*
X238280419Y-66983000D01*
X238585286Y-66922358D01*
X238872463Y-66803405D01*
X239130916Y-66630712D01*
X239350712Y-66410916D01*
X239523405Y-66152463D01*
X239642358Y-65865286D01*
X239703000Y-65560419D01*
X239703000Y-65249581D01*
X239642358Y-64944714D01*
X239523405Y-64657537D01*
X239350712Y-64399084D01*
X239130916Y-64179288D01*
X238872463Y-64006595D01*
X238585286Y-63887642D01*
X238513954Y-63873453D01*
X238497425Y-63856924D01*
X238454897Y-63805103D01*
X238248114Y-63635402D01*
X238012198Y-63509302D01*
X237756214Y-63431650D01*
X237556706Y-63412000D01*
X237556703Y-63412000D01*
X237490000Y-63405430D01*
X237423297Y-63412000D01*
X229931675Y-63412000D01*
X229999010Y-63190025D01*
X230031022Y-62865000D01*
X229999010Y-62539975D01*
X229904204Y-62227441D01*
X229750247Y-61939408D01*
X229543055Y-61686945D01*
X229290592Y-61479753D01*
X229002559Y-61325796D01*
X228690025Y-61230990D01*
X228446449Y-61207000D01*
X227483551Y-61207000D01*
X227239975Y-61230990D01*
X226927441Y-61325796D01*
X226783000Y-61403001D01*
X226783000Y-59121703D01*
X226789570Y-59054999D01*
X226782838Y-58986650D01*
X226763350Y-58788786D01*
X226685698Y-58532802D01*
X226559598Y-58296886D01*
X226523642Y-58253074D01*
X226432419Y-58141917D01*
X226432416Y-58141914D01*
X226389896Y-58090103D01*
X226338086Y-58047584D01*
X225162425Y-56871924D01*
X225119897Y-56820103D01*
X224913114Y-56650402D01*
X224677198Y-56524302D01*
X224421214Y-56446650D01*
X224221706Y-56427000D01*
X224221703Y-56427000D01*
X224155000Y-56420430D01*
X224088297Y-56427000D01*
X221068000Y-56427000D01*
X221068000Y-47582034D01*
X221102440Y-47620065D01*
X221371292Y-47819635D01*
X221673912Y-47962920D01*
X221835689Y-48011989D01*
X222100000Y-47840948D01*
X222100000Y-46505000D01*
X222080000Y-46505000D01*
X222080000Y-46205000D01*
X222100000Y-46205000D01*
X222100000Y-44869052D01*
X222400000Y-44869052D01*
X222400000Y-46205000D01*
X222420000Y-46205000D01*
X222420000Y-46505000D01*
X222400000Y-46505000D01*
X222400000Y-47840948D01*
X222664311Y-48011989D01*
X222826088Y-47962920D01*
X223128708Y-47819635D01*
X223397560Y-47620065D01*
X223512578Y-47493054D01*
X223701214Y-47681690D01*
X223980959Y-47868610D01*
X224291795Y-47997362D01*
X224621777Y-48063000D01*
X224958223Y-48063000D01*
X225288205Y-47997362D01*
X225599041Y-47868610D01*
X225878786Y-47681690D01*
X226060000Y-47500476D01*
X226241214Y-47681690D01*
X226520959Y-47868610D01*
X226831795Y-47997362D01*
X227161777Y-48063000D01*
X227498223Y-48063000D01*
X227828205Y-47997362D01*
X228139041Y-47868610D01*
X228418786Y-47681690D01*
X228656690Y-47443786D01*
X228843610Y-47164041D01*
X228972362Y-46853205D01*
X229038000Y-46523223D01*
X229038000Y-46186777D01*
X228972362Y-45856795D01*
X228843610Y-45545959D01*
X228656690Y-45266214D01*
X228418786Y-45028310D01*
X228139041Y-44841390D01*
X227828205Y-44712638D01*
X227498223Y-44647000D01*
X227161777Y-44647000D01*
X226831795Y-44712638D01*
X226520959Y-44841390D01*
X226241214Y-45028310D01*
X226060000Y-45209524D01*
X225878786Y-45028310D01*
X225599041Y-44841390D01*
X225288205Y-44712638D01*
X224958223Y-44647000D01*
X224621777Y-44647000D01*
X224291795Y-44712638D01*
X223980959Y-44841390D01*
X223701214Y-45028310D01*
X223512578Y-45216946D01*
X223397560Y-45089935D01*
X223128708Y-44890365D01*
X222826088Y-44747080D01*
X222664311Y-44698011D01*
X222400000Y-44869052D01*
X222100000Y-44869052D01*
X221835689Y-44698011D01*
X221673912Y-44747080D01*
X221371292Y-44890365D01*
X221102440Y-45089935D01*
X220987422Y-45216946D01*
X220798786Y-45028310D01*
X220519041Y-44841390D01*
X220208205Y-44712638D01*
X219878223Y-44647000D01*
X219541777Y-44647000D01*
X219211795Y-44712638D01*
X218900959Y-44841390D01*
X218621214Y-45028310D01*
X218432578Y-45216946D01*
X218317560Y-45089935D01*
X218048708Y-44890365D01*
X217746088Y-44747080D01*
X217584311Y-44698011D01*
X217320000Y-44869052D01*
X217320000Y-46205000D01*
X217340000Y-46205000D01*
X217340000Y-46505000D01*
X217320000Y-46505000D01*
X217320000Y-47840948D01*
X217584311Y-48011989D01*
X217746088Y-47962920D01*
X218048708Y-47819635D01*
X218317560Y-47620065D01*
X218352001Y-47582033D01*
X218352000Y-53517945D01*
X218195040Y-53360985D01*
X217931673Y-53185009D01*
X217639036Y-53063795D01*
X217328374Y-53002000D01*
X217011626Y-53002000D01*
X216700964Y-53063795D01*
X216408327Y-53185009D01*
X216144960Y-53360985D01*
X215988000Y-53517945D01*
X215988000Y-47582034D01*
X216022440Y-47620065D01*
X216291292Y-47819635D01*
X216593912Y-47962920D01*
X216755689Y-48011989D01*
X217020000Y-47840948D01*
X217020000Y-46505000D01*
X217000000Y-46505000D01*
X217000000Y-46205000D01*
X217020000Y-46205000D01*
X217020000Y-44869052D01*
X216755689Y-44698011D01*
X216593912Y-44747080D01*
X216291292Y-44890365D01*
X216022440Y-45089935D01*
X215907422Y-45216946D01*
X215718786Y-45028310D01*
X215439041Y-44841390D01*
X215128205Y-44712638D01*
X214798223Y-44647000D01*
X214461777Y-44647000D01*
X214131795Y-44712638D01*
X213820959Y-44841390D01*
X213541214Y-45028310D01*
X213352578Y-45216946D01*
X213237560Y-45089935D01*
X212968708Y-44890365D01*
X212666088Y-44747080D01*
X212504311Y-44698011D01*
X212240000Y-44869052D01*
X212240000Y-46205000D01*
X212260000Y-46205000D01*
X212260000Y-46505000D01*
X212240000Y-46505000D01*
X212240000Y-47840948D01*
X212504311Y-48011989D01*
X212666088Y-47962920D01*
X212968708Y-47819635D01*
X213237560Y-47620065D01*
X213272000Y-47582034D01*
X213272001Y-61998815D01*
X213240247Y-61939408D01*
X213033055Y-61686945D01*
X212780592Y-61479753D01*
X212492559Y-61325796D01*
X212180025Y-61230990D01*
X211936449Y-61207000D01*
X210973551Y-61207000D01*
X210729975Y-61230990D01*
X210417441Y-61325796D01*
X210273000Y-61403001D01*
X210273000Y-59617501D01*
X210535772Y-59354729D01*
X210654036Y-59331205D01*
X210946673Y-59209991D01*
X211210040Y-59034015D01*
X211434015Y-58810040D01*
X211609991Y-58546673D01*
X211731205Y-58254036D01*
X211793000Y-57943374D01*
X211793000Y-57626626D01*
X211731205Y-57315964D01*
X211609991Y-57023327D01*
X211434015Y-56759960D01*
X211210040Y-56535985D01*
X210946673Y-56360009D01*
X210654036Y-56238795D01*
X210343374Y-56177000D01*
X210026626Y-56177000D01*
X209715964Y-56238795D01*
X209423327Y-56360009D01*
X209159960Y-56535985D01*
X208935985Y-56759960D01*
X208760009Y-57023327D01*
X208638795Y-57315964D01*
X208615271Y-57434228D01*
X208001919Y-58047580D01*
X207950104Y-58090103D01*
X207907582Y-58141917D01*
X207907581Y-58141918D01*
X207780402Y-58296886D01*
X207654303Y-58532802D01*
X207576651Y-58788786D01*
X207550430Y-59055000D01*
X207557001Y-59121713D01*
X207557000Y-64068296D01*
X207550430Y-64135000D01*
X207557000Y-64201703D01*
X207557000Y-64201705D01*
X207576650Y-64401213D01*
X207654302Y-64657197D01*
X207654303Y-64657198D01*
X207780402Y-64893114D01*
X207822749Y-64944714D01*
X207950103Y-65099896D01*
X208001920Y-65142421D01*
X209177579Y-66318081D01*
X209220103Y-66369897D01*
X209426886Y-66539598D01*
X209515569Y-66587000D01*
X208842502Y-66587000D01*
X206747425Y-64491924D01*
X206704897Y-64440103D01*
X206498114Y-64270402D01*
X206262198Y-64144302D01*
X206006214Y-64066650D01*
X205806706Y-64047000D01*
X205806703Y-64047000D01*
X205803843Y-64046718D01*
X205831524Y-63994931D01*
X205880585Y-63833197D01*
X205897151Y-63665000D01*
X205897151Y-62065000D01*
X205880585Y-61896803D01*
X205831524Y-61735069D01*
X205751852Y-61586015D01*
X205644633Y-61455367D01*
X205513985Y-61348148D01*
X205364931Y-61268476D01*
X205203197Y-61219415D01*
X205035000Y-61202849D01*
X202635000Y-61202849D01*
X202466803Y-61219415D01*
X202305069Y-61268476D01*
X202234081Y-61306420D01*
X207572502Y-55968000D01*
X208688068Y-55968000D01*
X208788327Y-56034991D01*
X209080964Y-56156205D01*
X209391626Y-56218000D01*
X209708374Y-56218000D01*
X210019036Y-56156205D01*
X210311673Y-56034991D01*
X210575040Y-55859015D01*
X210799015Y-55635040D01*
X210974991Y-55371673D01*
X211096205Y-55079036D01*
X211158000Y-54768374D01*
X211158000Y-54451626D01*
X211096205Y-54140964D01*
X210974991Y-53848327D01*
X210908000Y-53748068D01*
X210908000Y-47582034D01*
X210942440Y-47620065D01*
X211211292Y-47819635D01*
X211513912Y-47962920D01*
X211675689Y-48011989D01*
X211940000Y-47840948D01*
X211940000Y-46505000D01*
X211920000Y-46505000D01*
X211920000Y-46205000D01*
X211940000Y-46205000D01*
X211940000Y-44869052D01*
X211675689Y-44698011D01*
X211513912Y-44747080D01*
X211211292Y-44890365D01*
X210942440Y-45089935D01*
X210827422Y-45216946D01*
X210638786Y-45028310D01*
X210359041Y-44841390D01*
X210048205Y-44712638D01*
X209718223Y-44647000D01*
X209381777Y-44647000D01*
X209051795Y-44712638D01*
X208740959Y-44841390D01*
X208461214Y-45028310D01*
X208280000Y-45209524D01*
X208098786Y-45028310D01*
X207819041Y-44841390D01*
X207508205Y-44712638D01*
X207178223Y-44647000D01*
X206841777Y-44647000D01*
X206511795Y-44712638D01*
X206200959Y-44841390D01*
X205921214Y-45028310D01*
X205740000Y-45209524D01*
X205558786Y-45028310D01*
X205279041Y-44841390D01*
X204968205Y-44712638D01*
X204638223Y-44647000D01*
X204301777Y-44647000D01*
X203971795Y-44712638D01*
X203660959Y-44841390D01*
X203381214Y-45028310D01*
X203200000Y-45209524D01*
X203018786Y-45028310D01*
X202739041Y-44841390D01*
X202428205Y-44712638D01*
X202098223Y-44647000D01*
X201761777Y-44647000D01*
X201431795Y-44712638D01*
X201120959Y-44841390D01*
X200841214Y-45028310D01*
X200652578Y-45216946D01*
X200537560Y-45089935D01*
X200268708Y-44890365D01*
X199966088Y-44747080D01*
X199804311Y-44698011D01*
X199540000Y-44869052D01*
X199540000Y-46205000D01*
X199560000Y-46205000D01*
X199560000Y-46505000D01*
X199540000Y-46505000D01*
X199540000Y-47840948D01*
X199804311Y-48011989D01*
X199966088Y-47962920D01*
X200268708Y-47819635D01*
X200537560Y-47620065D01*
X200572000Y-47582034D01*
X200572001Y-49602497D01*
X192126920Y-58047579D01*
X192075103Y-58090104D01*
X192032582Y-58141917D01*
X192032581Y-58141918D01*
X191905402Y-58296886D01*
X191899890Y-58307199D01*
X191779302Y-58532803D01*
X191701650Y-58788787D01*
X191682162Y-58986650D01*
X191675430Y-59055000D01*
X190588000Y-59055000D01*
X190588000Y-55807501D01*
X195223081Y-51172421D01*
X195274897Y-51129897D01*
X195351001Y-51037163D01*
X195444598Y-50923115D01*
X195570697Y-50687199D01*
X195570698Y-50687198D01*
X195648350Y-50431214D01*
X195668000Y-50231706D01*
X195668000Y-50231704D01*
X195674570Y-50165000D01*
X195668000Y-50098297D01*
X195668000Y-47588476D01*
X195761214Y-47681690D01*
X196040959Y-47868610D01*
X196351795Y-47997362D01*
X196681777Y-48063000D01*
X197018223Y-48063000D01*
X197348205Y-47997362D01*
X197659041Y-47868610D01*
X197938786Y-47681690D01*
X198127422Y-47493054D01*
X198242440Y-47620065D01*
X198511292Y-47819635D01*
X198813912Y-47962920D01*
X198975689Y-48011989D01*
X199240000Y-47840948D01*
X199240000Y-46505000D01*
X199220000Y-46505000D01*
X199220000Y-46205000D01*
X199240000Y-46205000D01*
X199240000Y-44869052D01*
X198975689Y-44698011D01*
X198813912Y-44747080D01*
X198511292Y-44890365D01*
X198242440Y-45089935D01*
X198127422Y-45216946D01*
X197938786Y-45028310D01*
X197659041Y-44841390D01*
X197348205Y-44712638D01*
X197018223Y-44647000D01*
X196681777Y-44647000D01*
X196351795Y-44712638D01*
X196040959Y-44841390D01*
X195761214Y-45028310D01*
X195580000Y-45209524D01*
X195398786Y-45028310D01*
X195119041Y-44841390D01*
X194808205Y-44712638D01*
X194478223Y-44647000D01*
X194141777Y-44647000D01*
X193811795Y-44712638D01*
X193500959Y-44841390D01*
X193221214Y-45028310D01*
X193032578Y-45216946D01*
X192917560Y-45089935D01*
X192648708Y-44890365D01*
X192346088Y-44747080D01*
X192184311Y-44698011D01*
X191920000Y-44869052D01*
X191920000Y-46205000D01*
X191940000Y-46205000D01*
X191940000Y-46505000D01*
X191920000Y-46505000D01*
X191920000Y-47840948D01*
X192184311Y-48011989D01*
X192346088Y-47962920D01*
X192648708Y-47819635D01*
X192917560Y-47620065D01*
X192952000Y-47582034D01*
X192952001Y-49602497D01*
X188316920Y-54237579D01*
X188265103Y-54280104D01*
X188222581Y-54331918D01*
X188095402Y-54486886D01*
X188065251Y-54543295D01*
X187969302Y-54722803D01*
X187891650Y-54978787D01*
X187876540Y-55132199D01*
X187865430Y-55245000D01*
X187872000Y-55311703D01*
X187872001Y-67083066D01*
X187805009Y-67183327D01*
X187683795Y-67475964D01*
X187622000Y-67786626D01*
X184238000Y-67786626D01*
X184238000Y-66266932D01*
X184304991Y-66166673D01*
X184426205Y-65874036D01*
X184488000Y-65563374D01*
X184488000Y-65246626D01*
X184426205Y-64935964D01*
X184304991Y-64643327D01*
X184129015Y-64379960D01*
X183905040Y-64155985D01*
X183641673Y-63980009D01*
X183349036Y-63858795D01*
X183038374Y-63797000D01*
X182721626Y-63797000D01*
X182410964Y-63858795D01*
X182118327Y-63980009D01*
X181854960Y-64155985D01*
X181630985Y-64379960D01*
X181455009Y-64643327D01*
X181333795Y-64935964D01*
X181272000Y-65246626D01*
X162808000Y-65246626D01*
X162808000Y-58033000D01*
X180296627Y-58033000D01*
X180340000Y-58037272D01*
X180383373Y-58033000D01*
X180513098Y-58020223D01*
X180679544Y-57969732D01*
X180832942Y-57887740D01*
X180967396Y-57777396D01*
X181077740Y-57642942D01*
X181159732Y-57489544D01*
X181210223Y-57323098D01*
X181227272Y-57150000D01*
X181223000Y-57106627D01*
X181223000Y-45505000D01*
X182437849Y-45505000D01*
X182437849Y-47205000D01*
X182454415Y-47373197D01*
X182503476Y-47534931D01*
X182583148Y-47683985D01*
X182690367Y-47814633D01*
X182821015Y-47921852D01*
X182970069Y-48001524D01*
X183131803Y-48050585D01*
X183300000Y-48067151D01*
X185000000Y-48067151D01*
X185168197Y-48050585D01*
X185329931Y-48001524D01*
X185478985Y-47921852D01*
X185609633Y-47814633D01*
X185677115Y-47732405D01*
X185880959Y-47868610D01*
X186191795Y-47997362D01*
X186521777Y-48063000D01*
X186858223Y-48063000D01*
X187188205Y-47997362D01*
X187499041Y-47868610D01*
X187778786Y-47681690D01*
X187960000Y-47500476D01*
X188141214Y-47681690D01*
X188420959Y-47868610D01*
X188731795Y-47997362D01*
X189061777Y-48063000D01*
X189398223Y-48063000D01*
X189728205Y-47997362D01*
X190039041Y-47868610D01*
X190318786Y-47681690D01*
X190507422Y-47493054D01*
X190622440Y-47620065D01*
X190891292Y-47819635D01*
X191193912Y-47962920D01*
X191355689Y-48011989D01*
X191620000Y-47840948D01*
X191620000Y-46505000D01*
X191600000Y-46505000D01*
X191600000Y-46205000D01*
X191620000Y-46205000D01*
X191620000Y-44869052D01*
X191355689Y-44698011D01*
X191193912Y-44747080D01*
X190891292Y-44890365D01*
X190622440Y-45089935D01*
X190507422Y-45216946D01*
X190318786Y-45028310D01*
X190039041Y-44841390D01*
X189728205Y-44712638D01*
X189398223Y-44647000D01*
X189061777Y-44647000D01*
X188731795Y-44712638D01*
X188420959Y-44841390D01*
X188141214Y-45028310D01*
X187960000Y-45209524D01*
X187778786Y-45028310D01*
X187499041Y-44841390D01*
X187188205Y-44712638D01*
X186858223Y-44647000D01*
X186521777Y-44647000D01*
X186191795Y-44712638D01*
X185880959Y-44841390D01*
X185677115Y-44977595D01*
X185609633Y-44895367D01*
X185478985Y-44788148D01*
X185329931Y-44708476D01*
X185168197Y-44659415D01*
X185000000Y-44642849D01*
X183300000Y-44642849D01*
X183131803Y-44659415D01*
X182970069Y-44708476D01*
X182821015Y-44788148D01*
X182690367Y-44895367D01*
X182583148Y-45026015D01*
X182503476Y-45175069D01*
X182454415Y-45336803D01*
X182437849Y-45505000D01*
X181223000Y-45505000D01*
X181223000Y-41523000D01*
X230257000Y-41523000D01*
X230257001Y-57106616D01*
G37*
X230257001Y-57106616D02*
X230252728Y-57150000D01*
X230269777Y-57323098D01*
X230320268Y-57489544D01*
X230402260Y-57642942D01*
X230512604Y-57777396D01*
X230647058Y-57887740D01*
X230800456Y-57969732D01*
X230966902Y-58020223D01*
X231096627Y-58033000D01*
X231140000Y-58037272D01*
X231183373Y-58033000D01*
X259467000Y-58033000D01*
X259467001Y-147072000D01*
X162808000Y-147072000D01*
X162808000Y-139587000D01*
X194054143Y-139587000D01*
X194054143Y-146403000D01*
X228855857Y-146403000D01*
X228855857Y-139587000D01*
X194054143Y-139587000D01*
X162808000Y-139587000D01*
X162808000Y-136967154D01*
X185367000Y-136967154D01*
X185367000Y-137352846D01*
X185442245Y-137731128D01*
X185589843Y-138087461D01*
X185804122Y-138408152D01*
X186076848Y-138680878D01*
X186397539Y-138895157D01*
X186753872Y-139042755D01*
X187132154Y-139118000D01*
X187517846Y-139118000D01*
X187896128Y-139042755D01*
X188252461Y-138895157D01*
X188573152Y-138680878D01*
X188845878Y-138408152D01*
X189060157Y-138087461D01*
X189207755Y-137731128D01*
X189283000Y-137352846D01*
X189283000Y-136967154D01*
X232357000Y-136967154D01*
X232357000Y-137352846D01*
X232432245Y-137731128D01*
X232579843Y-138087461D01*
X232794122Y-138408152D01*
X233066848Y-138680878D01*
X233387539Y-138895157D01*
X233743872Y-139042755D01*
X234122154Y-139118000D01*
X234507846Y-139118000D01*
X234886128Y-139042755D01*
X235242461Y-138895157D01*
X235563152Y-138680878D01*
X235835878Y-138408152D01*
X236050157Y-138087461D01*
X236197755Y-137731128D01*
X236273000Y-137352846D01*
X236273000Y-136967154D01*
X236197755Y-136588872D01*
X236050157Y-136232539D01*
X235835878Y-135911848D01*
X235563152Y-135639122D01*
X235242461Y-135424843D01*
X234886128Y-135277245D01*
X234507846Y-135202000D01*
X234122154Y-135202000D01*
X233743872Y-135277245D01*
X233387539Y-135424843D01*
X233066848Y-135639122D01*
X232794122Y-135911848D01*
X232579843Y-136232539D01*
X232432245Y-136588872D01*
X232357000Y-136967154D01*
X189283000Y-136967154D01*
X189207755Y-136588872D01*
X189060157Y-136232539D01*
X188845878Y-135911848D01*
X188573152Y-135639122D01*
X188252461Y-135424843D01*
X187896128Y-135277245D01*
X187517846Y-135202000D01*
X187132154Y-135202000D01*
X186753872Y-135277245D01*
X186397539Y-135424843D01*
X186076848Y-135639122D01*
X185804122Y-135911848D01*
X185589843Y-136232539D01*
X185442245Y-136588872D01*
X185367000Y-136967154D01*
X162808000Y-136967154D01*
X162808000Y-131851458D01*
X169207593Y-131851458D01*
X169252669Y-132000072D01*
X169390978Y-132294202D01*
X169584011Y-132555698D01*
X169824350Y-132774510D01*
X170102760Y-132942230D01*
X170408541Y-133052412D01*
X170665000Y-132881706D01*
X170665000Y-131595000D01*
X170965000Y-131595000D01*
X170965000Y-132881706D01*
X171221459Y-133052412D01*
X171527240Y-132942230D01*
X171805650Y-132774510D01*
X172045989Y-132555698D01*
X172239022Y-132294202D01*
X172377331Y-132000072D01*
X172422407Y-131851458D01*
X172250685Y-131595000D01*
X170965000Y-131595000D01*
X170665000Y-131595000D01*
X169379315Y-131595000D01*
X169207593Y-131851458D01*
X162808000Y-131851458D01*
X162808000Y-131038542D01*
X169207593Y-131038542D01*
X169379315Y-131295000D01*
X170665000Y-131295000D01*
X170665000Y-130008294D01*
X170965000Y-130008294D01*
X170965000Y-131295000D01*
X172250685Y-131295000D01*
X172422407Y-131038542D01*
X172377331Y-130889928D01*
X172239022Y-130595798D01*
X172045989Y-130334302D01*
X171805650Y-130115490D01*
X171527240Y-129947770D01*
X171221459Y-129837588D01*
X170965000Y-130008294D01*
X170665000Y-130008294D01*
X170408541Y-129837588D01*
X170102760Y-129947770D01*
X169824350Y-130115490D01*
X169584011Y-130334302D01*
X169390978Y-130595798D01*
X169252669Y-130889928D01*
X169207593Y-131038542D01*
X162808000Y-131038542D01*
X162808000Y-122997154D01*
X185367000Y-122997154D01*
X185367000Y-123382846D01*
X185442245Y-123761128D01*
X185589843Y-124117461D01*
X185804122Y-124438152D01*
X186076848Y-124710878D01*
X186397539Y-124925157D01*
X186753872Y-125072755D01*
X187132154Y-125148000D01*
X187517846Y-125148000D01*
X187896128Y-125072755D01*
X188252461Y-124925157D01*
X188573152Y-124710878D01*
X188845878Y-124438152D01*
X189060157Y-124117461D01*
X189207755Y-123761128D01*
X189283000Y-123382846D01*
X189283000Y-122997154D01*
X189207755Y-122618872D01*
X189060157Y-122262539D01*
X188845878Y-121941848D01*
X188573152Y-121669122D01*
X188252461Y-121454843D01*
X187896128Y-121307245D01*
X187517846Y-121232000D01*
X187132154Y-121232000D01*
X186753872Y-121307245D01*
X186397539Y-121454843D01*
X186076848Y-121669122D01*
X185804122Y-121941848D01*
X185589843Y-122262539D01*
X185442245Y-122618872D01*
X185367000Y-122997154D01*
X162808000Y-122997154D01*
X162808000Y-116647154D01*
X185367000Y-116647154D01*
X185367000Y-117032846D01*
X185442245Y-117411128D01*
X185589843Y-117767461D01*
X185804122Y-118088152D01*
X186076848Y-118360878D01*
X186397539Y-118575157D01*
X186753872Y-118722755D01*
X187132154Y-118798000D01*
X187517846Y-118798000D01*
X187896128Y-118722755D01*
X188252461Y-118575157D01*
X188573152Y-118360878D01*
X188845878Y-118088152D01*
X189060157Y-117767461D01*
X189207755Y-117411128D01*
X189283000Y-117032846D01*
X189283000Y-116647154D01*
X189207755Y-116268872D01*
X189060157Y-115912539D01*
X188845878Y-115591848D01*
X188573152Y-115319122D01*
X188252461Y-115104843D01*
X187896128Y-114957245D01*
X187517846Y-114882000D01*
X187132154Y-114882000D01*
X186753872Y-114957245D01*
X186397539Y-115104843D01*
X186076848Y-115319122D01*
X185804122Y-115591848D01*
X185589843Y-115912539D01*
X185442245Y-116268872D01*
X185367000Y-116647154D01*
X162808000Y-116647154D01*
X162808000Y-111531458D01*
X169207593Y-111531458D01*
X169252669Y-111680072D01*
X169390978Y-111974202D01*
X169584011Y-112235698D01*
X169824350Y-112454510D01*
X170102760Y-112622230D01*
X170408541Y-112732412D01*
X170665000Y-112561706D01*
X170665000Y-111275000D01*
X170965000Y-111275000D01*
X170965000Y-112561706D01*
X171221459Y-112732412D01*
X171527240Y-112622230D01*
X171805650Y-112454510D01*
X172045989Y-112235698D01*
X172239022Y-111974202D01*
X172377331Y-111680072D01*
X172422407Y-111531458D01*
X172250685Y-111275000D01*
X170965000Y-111275000D01*
X170665000Y-111275000D01*
X169379315Y-111275000D01*
X169207593Y-111531458D01*
X162808000Y-111531458D01*
X162808000Y-110718542D01*
X169207593Y-110718542D01*
X169379315Y-110975000D01*
X170665000Y-110975000D01*
X170665000Y-109688294D01*
X170965000Y-109688294D01*
X170965000Y-110975000D01*
X172250685Y-110975000D01*
X172422407Y-110718542D01*
X172377331Y-110569928D01*
X172239022Y-110275798D01*
X172045989Y-110014302D01*
X171805650Y-109795490D01*
X171527240Y-109627770D01*
X171221459Y-109517588D01*
X170965000Y-109688294D01*
X170665000Y-109688294D01*
X170408541Y-109517588D01*
X170102760Y-109627770D01*
X169824350Y-109795490D01*
X169584011Y-110014302D01*
X169390978Y-110275798D01*
X169252669Y-110569928D01*
X169207593Y-110718542D01*
X162808000Y-110718542D01*
X162808000Y-102677154D01*
X185367000Y-102677154D01*
X185367000Y-103062846D01*
X185442245Y-103441128D01*
X185589843Y-103797461D01*
X185804122Y-104118152D01*
X186076848Y-104390878D01*
X186397539Y-104605157D01*
X186753872Y-104752755D01*
X187132154Y-104828000D01*
X187517846Y-104828000D01*
X187896128Y-104752755D01*
X188252461Y-104605157D01*
X188573152Y-104390878D01*
X188845878Y-104118152D01*
X189060157Y-103797461D01*
X189207755Y-103441128D01*
X189283000Y-103062846D01*
X189283000Y-102677154D01*
X189207755Y-102298872D01*
X189060157Y-101942539D01*
X188845878Y-101621848D01*
X188573152Y-101349122D01*
X188252461Y-101134843D01*
X187896128Y-100987245D01*
X187517846Y-100912000D01*
X187132154Y-100912000D01*
X186753872Y-100987245D01*
X186397539Y-101134843D01*
X186076848Y-101349122D01*
X185804122Y-101621848D01*
X185589843Y-101942539D01*
X185442245Y-102298872D01*
X185367000Y-102677154D01*
X162808000Y-102677154D01*
X162808000Y-96327154D01*
X185367000Y-96327154D01*
X185367000Y-96712846D01*
X185442245Y-97091128D01*
X185589843Y-97447461D01*
X185804122Y-97768152D01*
X186076848Y-98040878D01*
X186397539Y-98255157D01*
X186753872Y-98402755D01*
X187132154Y-98478000D01*
X187517846Y-98478000D01*
X187896128Y-98402755D01*
X188252461Y-98255157D01*
X188573152Y-98040878D01*
X188845878Y-97768152D01*
X189060157Y-97447461D01*
X189207755Y-97091128D01*
X189283000Y-96712846D01*
X189283000Y-96327154D01*
X189207755Y-95948872D01*
X189060157Y-95592539D01*
X188845878Y-95271848D01*
X188573152Y-94999122D01*
X188252461Y-94784843D01*
X187896128Y-94637245D01*
X187517846Y-94562000D01*
X187132154Y-94562000D01*
X186753872Y-94637245D01*
X186397539Y-94784843D01*
X186076848Y-94999122D01*
X185804122Y-95271848D01*
X185589843Y-95592539D01*
X185442245Y-95948872D01*
X185367000Y-96327154D01*
X162808000Y-96327154D01*
X162808000Y-91211458D01*
X169207593Y-91211458D01*
X169252669Y-91360072D01*
X169390978Y-91654202D01*
X169584011Y-91915698D01*
X169824350Y-92134510D01*
X170102760Y-92302230D01*
X170408541Y-92412412D01*
X170665000Y-92241706D01*
X170665000Y-90955000D01*
X170965000Y-90955000D01*
X170965000Y-92241706D01*
X171221459Y-92412412D01*
X171527240Y-92302230D01*
X171805650Y-92134510D01*
X172045989Y-91915698D01*
X172239022Y-91654202D01*
X172377331Y-91360072D01*
X172422407Y-91211458D01*
X172250685Y-90955000D01*
X170965000Y-90955000D01*
X170665000Y-90955000D01*
X169379315Y-90955000D01*
X169207593Y-91211458D01*
X162808000Y-91211458D01*
X162808000Y-90398542D01*
X169207593Y-90398542D01*
X169379315Y-90655000D01*
X170665000Y-90655000D01*
X170665000Y-89368294D01*
X170965000Y-89368294D01*
X170965000Y-90655000D01*
X172250685Y-90655000D01*
X172422407Y-90398542D01*
X172377331Y-90249928D01*
X172239022Y-89955798D01*
X172045989Y-89694302D01*
X171805650Y-89475490D01*
X171527240Y-89307770D01*
X171221459Y-89197588D01*
X170965000Y-89368294D01*
X170665000Y-89368294D01*
X170408541Y-89197588D01*
X170102760Y-89307770D01*
X169824350Y-89475490D01*
X169584011Y-89694302D01*
X169390978Y-89955798D01*
X169252669Y-90249928D01*
X169207593Y-90398542D01*
X162808000Y-90398542D01*
X162808000Y-65246626D01*
X181272000Y-65246626D01*
X181272000Y-65563374D01*
X181333795Y-65874036D01*
X181455009Y-66166673D01*
X181522000Y-66266932D01*
X181522001Y-86293287D01*
X181515430Y-86360000D01*
X181541651Y-86626214D01*
X181619303Y-86882198D01*
X181745402Y-87118114D01*
X181809950Y-87196766D01*
X181915104Y-87324897D01*
X181966919Y-87367420D01*
X183763432Y-89163934D01*
X183678299Y-89147000D01*
X183351701Y-89147000D01*
X183031379Y-89210716D01*
X182729643Y-89335700D01*
X182458087Y-89517148D01*
X182227148Y-89748087D01*
X182045700Y-90019643D01*
X181920716Y-90321379D01*
X181857000Y-90641701D01*
X181857000Y-90968299D01*
X181920716Y-91288621D01*
X182045700Y-91590357D01*
X182227148Y-91861913D01*
X182458087Y-92092852D01*
X182729643Y-92274300D01*
X183031379Y-92399284D01*
X183351701Y-92463000D01*
X183678299Y-92463000D01*
X183998621Y-92399284D01*
X184300357Y-92274300D01*
X184466929Y-92163000D01*
X191411931Y-92163000D01*
X191423148Y-92183985D01*
X191530367Y-92314633D01*
X191661015Y-92421852D01*
X191810069Y-92501524D01*
X191971803Y-92550585D01*
X192140000Y-92567151D01*
X193940000Y-92567151D01*
X194108197Y-92550585D01*
X194269931Y-92501524D01*
X194418985Y-92421852D01*
X194549633Y-92314633D01*
X194656852Y-92183985D01*
X194736524Y-92034931D01*
X194785585Y-91873197D01*
X194802151Y-91705000D01*
X194802151Y-89905000D01*
X194785585Y-89736803D01*
X194751064Y-89623000D01*
X194857000Y-89623000D01*
X194857001Y-107227000D01*
X194168188Y-107227000D01*
X194160660Y-107219472D01*
X193872725Y-107027081D01*
X193552790Y-106894559D01*
X193213148Y-106827000D01*
X192866852Y-106827000D01*
X192527210Y-106894559D01*
X192207275Y-107027081D01*
X191919340Y-107219472D01*
X191674472Y-107464340D01*
X191482081Y-107752275D01*
X191349559Y-108072210D01*
X191282000Y-108411852D01*
X191282000Y-108758148D01*
X191349559Y-109097790D01*
X191482081Y-109417725D01*
X191584472Y-109570965D01*
X191530367Y-109615367D01*
X191423148Y-109746015D01*
X191411931Y-109767000D01*
X184466929Y-109767000D01*
X184300357Y-109655700D01*
X183998621Y-109530716D01*
X183678299Y-109467000D01*
X183351701Y-109467000D01*
X183031379Y-109530716D01*
X182729643Y-109655700D01*
X182458087Y-109837148D01*
X182227148Y-110068087D01*
X182045700Y-110339643D01*
X181920716Y-110641379D01*
X181857000Y-110961701D01*
X181857000Y-111288299D01*
X181920716Y-111608621D01*
X182045700Y-111910357D01*
X182227148Y-112181913D01*
X182458087Y-112412852D01*
X182729643Y-112594300D01*
X183031379Y-112719284D01*
X183351701Y-112783000D01*
X183678299Y-112783000D01*
X183998621Y-112719284D01*
X184300357Y-112594300D01*
X184466929Y-112483000D01*
X191411931Y-112483000D01*
X191423148Y-112503985D01*
X191530367Y-112634633D01*
X191661015Y-112741852D01*
X191810069Y-112821524D01*
X191971803Y-112870585D01*
X192140000Y-112887151D01*
X193940000Y-112887151D01*
X194108197Y-112870585D01*
X194269931Y-112821524D01*
X194418985Y-112741852D01*
X194549633Y-112634633D01*
X194656852Y-112503985D01*
X194736524Y-112354931D01*
X194785585Y-112193197D01*
X194802151Y-112025000D01*
X194802151Y-110225000D01*
X194785585Y-110056803D01*
X194751064Y-109943000D01*
X194857000Y-109943000D01*
X194857001Y-127072497D01*
X194382499Y-127547000D01*
X194168188Y-127547000D01*
X194160660Y-127539472D01*
X193872725Y-127347081D01*
X193552790Y-127214559D01*
X193213148Y-127147000D01*
X192866852Y-127147000D01*
X192527210Y-127214559D01*
X192207275Y-127347081D01*
X191919340Y-127539472D01*
X191674472Y-127784340D01*
X191482081Y-128072275D01*
X191349559Y-128392210D01*
X191282000Y-128731852D01*
X191282000Y-129078148D01*
X191349559Y-129417790D01*
X191482081Y-129737725D01*
X191584472Y-129890965D01*
X191530367Y-129935367D01*
X191423148Y-130066015D01*
X191411931Y-130087000D01*
X184466929Y-130087000D01*
X184300357Y-129975700D01*
X183998621Y-129850716D01*
X183678299Y-129787000D01*
X183351701Y-129787000D01*
X183031379Y-129850716D01*
X182729643Y-129975700D01*
X182458087Y-130157148D01*
X182227148Y-130388087D01*
X182045700Y-130659643D01*
X181920716Y-130961379D01*
X181857000Y-131281701D01*
X181857000Y-131608299D01*
X181920716Y-131928621D01*
X182045700Y-132230357D01*
X182227148Y-132501913D01*
X182458087Y-132732852D01*
X182729643Y-132914300D01*
X183031379Y-133039284D01*
X183351701Y-133103000D01*
X183678299Y-133103000D01*
X183998621Y-133039284D01*
X184300357Y-132914300D01*
X184466929Y-132803000D01*
X191411931Y-132803000D01*
X191423148Y-132823985D01*
X191530367Y-132954633D01*
X191661015Y-133061852D01*
X191810069Y-133141524D01*
X191971803Y-133190585D01*
X192140000Y-133207151D01*
X193940000Y-133207151D01*
X194108197Y-133190585D01*
X194269931Y-133141524D01*
X194418985Y-133061852D01*
X194549633Y-132954633D01*
X194656852Y-132823985D01*
X194736524Y-132674931D01*
X194785585Y-132513197D01*
X194802151Y-132345000D01*
X194802151Y-130545000D01*
X194785585Y-130376803D01*
X194751064Y-130263000D01*
X194878297Y-130263000D01*
X194945000Y-130269570D01*
X195011703Y-130263000D01*
X195011706Y-130263000D01*
X195211214Y-130243350D01*
X195467198Y-130165698D01*
X195703114Y-130039598D01*
X195909897Y-129869897D01*
X195952425Y-129818076D01*
X197128081Y-128642421D01*
X197179897Y-128599897D01*
X197349598Y-128393114D01*
X197475698Y-128157198D01*
X197553350Y-127901214D01*
X197573000Y-127701706D01*
X197573000Y-127701704D01*
X197579570Y-127635001D01*
X197573000Y-127568297D01*
X197573000Y-108651706D01*
X197579570Y-108585000D01*
X197573000Y-108518294D01*
X197573000Y-88331705D01*
X197579570Y-88265000D01*
X197553350Y-87998786D01*
X197475698Y-87742802D01*
X197349598Y-87506886D01*
X197179897Y-87300103D01*
X196973114Y-87130402D01*
X196737198Y-87004302D01*
X196481214Y-86926650D01*
X196281706Y-86907000D01*
X196215000Y-86900430D01*
X196148294Y-86907000D01*
X194168188Y-86907000D01*
X194160660Y-86899472D01*
X193872725Y-86707081D01*
X193552790Y-86574559D01*
X193213148Y-86507000D01*
X192866852Y-86507000D01*
X192527210Y-86574559D01*
X192207275Y-86707081D01*
X191919340Y-86899472D01*
X191911812Y-86907000D01*
X185347502Y-86907000D01*
X184238000Y-85797499D01*
X184238000Y-82357154D01*
X185367000Y-82357154D01*
X185367000Y-82742846D01*
X185442245Y-83121128D01*
X185589843Y-83477461D01*
X185804122Y-83798152D01*
X186076848Y-84070878D01*
X186397539Y-84285157D01*
X186753872Y-84432755D01*
X187132154Y-84508000D01*
X187517846Y-84508000D01*
X187896128Y-84432755D01*
X188252461Y-84285157D01*
X188573152Y-84070878D01*
X188845878Y-83798152D01*
X189060157Y-83477461D01*
X189207755Y-83121128D01*
X189283000Y-82742846D01*
X189283000Y-82357154D01*
X189207755Y-81978872D01*
X189060157Y-81622539D01*
X188845878Y-81301848D01*
X188573152Y-81029122D01*
X188252461Y-80814843D01*
X187896128Y-80667245D01*
X187517846Y-80592000D01*
X187132154Y-80592000D01*
X186753872Y-80667245D01*
X186397539Y-80814843D01*
X186076848Y-81029122D01*
X185804122Y-81301848D01*
X185589843Y-81622539D01*
X185442245Y-81978872D01*
X185367000Y-82357154D01*
X184238000Y-82357154D01*
X184238000Y-67786626D01*
X187622000Y-67786626D01*
X187622000Y-68103374D01*
X187683795Y-68414036D01*
X187805009Y-68706673D01*
X187980985Y-68970040D01*
X188204960Y-69194015D01*
X188468327Y-69369991D01*
X188760964Y-69491205D01*
X189071626Y-69553000D01*
X189388374Y-69553000D01*
X189699036Y-69491205D01*
X189991673Y-69369991D01*
X190255040Y-69194015D01*
X190479015Y-68970040D01*
X190654991Y-68706673D01*
X190776205Y-68414036D01*
X190838000Y-68103374D01*
X190838000Y-67786626D01*
X190776205Y-67475964D01*
X190654991Y-67183327D01*
X190588000Y-67083068D01*
X190588000Y-59055000D01*
X191675430Y-59055000D01*
X191682000Y-59121703D01*
X191682001Y-78673287D01*
X191675430Y-78740000D01*
X191701651Y-79006214D01*
X191779303Y-79262198D01*
X191905402Y-79498114D01*
X191915487Y-79510402D01*
X192075104Y-79704897D01*
X192126918Y-79747419D01*
X195842579Y-83463081D01*
X195885103Y-83514897D01*
X195936917Y-83557419D01*
X196091885Y-83684598D01*
X196327801Y-83810698D01*
X196358463Y-83819999D01*
X196583786Y-83888350D01*
X196783294Y-83908000D01*
X196783296Y-83908000D01*
X196850000Y-83914570D01*
X196916703Y-83908000D01*
X220417499Y-83908000D01*
X220892000Y-84382502D01*
X220892001Y-92643287D01*
X220885430Y-92710000D01*
X220911651Y-92976214D01*
X220989303Y-93232198D01*
X221115402Y-93468114D01*
X221125487Y-93480402D01*
X221285104Y-93674897D01*
X221336919Y-93717420D01*
X222797000Y-95177502D01*
X222797001Y-111693287D01*
X222790430Y-111760000D01*
X222816651Y-112026214D01*
X222894303Y-112282198D01*
X223020402Y-112518114D01*
X223105848Y-112622230D01*
X223190104Y-112724897D01*
X223241919Y-112767420D01*
X224702000Y-114227502D01*
X224702001Y-130108287D01*
X224695430Y-130175000D01*
X224721651Y-130441214D01*
X224799303Y-130697198D01*
X224925402Y-130933114D01*
X225011925Y-131038542D01*
X225095104Y-131139897D01*
X225146919Y-131182420D01*
X226342579Y-132378081D01*
X226385103Y-132429897D01*
X226591886Y-132599598D01*
X226827802Y-132725698D01*
X227083786Y-132803350D01*
X227177466Y-132812577D01*
X227227010Y-132845681D01*
X227510548Y-132963126D01*
X227811550Y-133023000D01*
X228118450Y-133023000D01*
X228419452Y-132963126D01*
X228702990Y-132845681D01*
X228736934Y-132823000D01*
X238473003Y-132823000D01*
X238609643Y-132914300D01*
X238911379Y-133039284D01*
X239231701Y-133103000D01*
X239558299Y-133103000D01*
X239878621Y-133039284D01*
X240180357Y-132914300D01*
X240451913Y-132732852D01*
X240682852Y-132501913D01*
X240864300Y-132230357D01*
X240989284Y-131928621D01*
X241004632Y-131851458D01*
X250487593Y-131851458D01*
X250532669Y-132000072D01*
X250670978Y-132294202D01*
X250864011Y-132555698D01*
X251104350Y-132774510D01*
X251382760Y-132942230D01*
X251688541Y-133052412D01*
X251945000Y-132881706D01*
X251945000Y-131595000D01*
X252245000Y-131595000D01*
X252245000Y-132881706D01*
X252501459Y-133052412D01*
X252807240Y-132942230D01*
X253085650Y-132774510D01*
X253325989Y-132555698D01*
X253519022Y-132294202D01*
X253657331Y-132000072D01*
X253702407Y-131851458D01*
X253530685Y-131595000D01*
X252245000Y-131595000D01*
X251945000Y-131595000D01*
X250659315Y-131595000D01*
X250487593Y-131851458D01*
X241004632Y-131851458D01*
X241053000Y-131608299D01*
X241053000Y-131281701D01*
X241004633Y-131038542D01*
X250487593Y-131038542D01*
X250659315Y-131295000D01*
X251945000Y-131295000D01*
X251945000Y-130008294D01*
X252245000Y-130008294D01*
X252245000Y-131295000D01*
X253530685Y-131295000D01*
X253702407Y-131038542D01*
X253657331Y-130889928D01*
X253519022Y-130595798D01*
X253325989Y-130334302D01*
X253085650Y-130115490D01*
X252807240Y-129947770D01*
X252501459Y-129837588D01*
X252245000Y-130008294D01*
X251945000Y-130008294D01*
X251688541Y-129837588D01*
X251382760Y-129947770D01*
X251104350Y-130115490D01*
X250864011Y-130334302D01*
X250670978Y-130595798D01*
X250532669Y-130889928D01*
X250487593Y-131038542D01*
X241004633Y-131038542D01*
X240989284Y-130961379D01*
X240864300Y-130659643D01*
X240682852Y-130388087D01*
X240451913Y-130157148D01*
X240180357Y-129975700D01*
X239878621Y-129850716D01*
X239558299Y-129787000D01*
X239231701Y-129787000D01*
X238911379Y-129850716D01*
X238609643Y-129975700D01*
X238413139Y-130107000D01*
X229230076Y-130107000D01*
X229339855Y-129973234D01*
X229442554Y-129781096D01*
X229505797Y-129572614D01*
X229527151Y-129355800D01*
X229527151Y-128454200D01*
X229505797Y-128237386D01*
X229442554Y-128028904D01*
X229339855Y-127836766D01*
X229323000Y-127816228D01*
X229323000Y-122997154D01*
X232357000Y-122997154D01*
X232357000Y-123382846D01*
X232432245Y-123761128D01*
X232579843Y-124117461D01*
X232794122Y-124438152D01*
X233066848Y-124710878D01*
X233387539Y-124925157D01*
X233743872Y-125072755D01*
X234122154Y-125148000D01*
X234507846Y-125148000D01*
X234886128Y-125072755D01*
X235242461Y-124925157D01*
X235563152Y-124710878D01*
X235835878Y-124438152D01*
X236050157Y-124117461D01*
X236197755Y-123761128D01*
X236273000Y-123382846D01*
X236273000Y-122997154D01*
X236197755Y-122618872D01*
X236050157Y-122262539D01*
X235835878Y-121941848D01*
X235563152Y-121669122D01*
X235242461Y-121454843D01*
X234886128Y-121307245D01*
X234507846Y-121232000D01*
X234122154Y-121232000D01*
X233743872Y-121307245D01*
X233387539Y-121454843D01*
X233066848Y-121669122D01*
X232794122Y-121941848D01*
X232579843Y-122262539D01*
X232432245Y-122618872D01*
X232357000Y-122997154D01*
X229323000Y-122997154D01*
X229323000Y-115497501D01*
X229797502Y-115023000D01*
X233585125Y-115023000D01*
X233387539Y-115104843D01*
X233066848Y-115319122D01*
X232794122Y-115591848D01*
X232579843Y-115912539D01*
X232432245Y-116268872D01*
X232357000Y-116647154D01*
X232357000Y-117032846D01*
X232432245Y-117411128D01*
X232579843Y-117767461D01*
X232794122Y-118088152D01*
X233066848Y-118360878D01*
X233387539Y-118575157D01*
X233743872Y-118722755D01*
X234122154Y-118798000D01*
X234507846Y-118798000D01*
X234886128Y-118722755D01*
X235242461Y-118575157D01*
X235563152Y-118360878D01*
X235835878Y-118088152D01*
X236050157Y-117767461D01*
X236197755Y-117411128D01*
X236273000Y-117032846D01*
X236273000Y-116647154D01*
X236197755Y-116268872D01*
X236050157Y-115912539D01*
X235835878Y-115591848D01*
X235563152Y-115319122D01*
X235242461Y-115104843D01*
X235044875Y-115023000D01*
X240598297Y-115023000D01*
X240665000Y-115029570D01*
X240731703Y-115023000D01*
X240731706Y-115023000D01*
X240931214Y-115003350D01*
X241187198Y-114925698D01*
X241423114Y-114799598D01*
X241629897Y-114629897D01*
X241672425Y-114578076D01*
X242848081Y-113402421D01*
X242899897Y-113359897D01*
X243069598Y-113153114D01*
X243195698Y-112917198D01*
X243273350Y-112661214D01*
X243293000Y-112461706D01*
X243293000Y-112461704D01*
X243299570Y-112395001D01*
X243293000Y-112328297D01*
X243293000Y-111531458D01*
X250487593Y-111531458D01*
X250532669Y-111680072D01*
X250670978Y-111974202D01*
X250864011Y-112235698D01*
X251104350Y-112454510D01*
X251382760Y-112622230D01*
X251688541Y-112732412D01*
X251945000Y-112561706D01*
X251945000Y-111275000D01*
X252245000Y-111275000D01*
X252245000Y-112561706D01*
X252501459Y-112732412D01*
X252807240Y-112622230D01*
X253085650Y-112454510D01*
X253325989Y-112235698D01*
X253519022Y-111974202D01*
X253657331Y-111680072D01*
X253702407Y-111531458D01*
X253530685Y-111275000D01*
X252245000Y-111275000D01*
X251945000Y-111275000D01*
X250659315Y-111275000D01*
X250487593Y-111531458D01*
X243293000Y-111531458D01*
X243293000Y-110718542D01*
X250487593Y-110718542D01*
X250659315Y-110975000D01*
X251945000Y-110975000D01*
X251945000Y-109688294D01*
X252245000Y-109688294D01*
X252245000Y-110975000D01*
X253530685Y-110975000D01*
X253702407Y-110718542D01*
X253657331Y-110569928D01*
X253519022Y-110275798D01*
X253325989Y-110014302D01*
X253085650Y-109795490D01*
X252807240Y-109627770D01*
X252501459Y-109517588D01*
X252245000Y-109688294D01*
X251945000Y-109688294D01*
X251688541Y-109517588D01*
X251382760Y-109627770D01*
X251104350Y-109795490D01*
X250864011Y-110014302D01*
X250670978Y-110275798D01*
X250532669Y-110569928D01*
X250487593Y-110718542D01*
X243293000Y-110718542D01*
X243293000Y-108651706D01*
X243299570Y-108585000D01*
X243273350Y-108318786D01*
X243195698Y-108062802D01*
X243069598Y-107826886D01*
X242899897Y-107620103D01*
X242693114Y-107450402D01*
X242457198Y-107324302D01*
X242201214Y-107246650D01*
X242001706Y-107227000D01*
X241935000Y-107220430D01*
X241868294Y-107227000D01*
X229323000Y-107227000D01*
X229323000Y-102677154D01*
X232357000Y-102677154D01*
X232357000Y-103062846D01*
X232432245Y-103441128D01*
X232579843Y-103797461D01*
X232794122Y-104118152D01*
X233066848Y-104390878D01*
X233387539Y-104605157D01*
X233743872Y-104752755D01*
X234122154Y-104828000D01*
X234507846Y-104828000D01*
X234886128Y-104752755D01*
X235242461Y-104605157D01*
X235563152Y-104390878D01*
X235835878Y-104118152D01*
X236050157Y-103797461D01*
X236197755Y-103441128D01*
X236273000Y-103062846D01*
X236273000Y-102677154D01*
X236197755Y-102298872D01*
X236050157Y-101942539D01*
X235835878Y-101621848D01*
X235563152Y-101349122D01*
X235242461Y-101134843D01*
X234886128Y-100987245D01*
X234507846Y-100912000D01*
X234122154Y-100912000D01*
X233743872Y-100987245D01*
X233387539Y-101134843D01*
X233066848Y-101349122D01*
X232794122Y-101621848D01*
X232579843Y-101942539D01*
X232432245Y-102298872D01*
X232357000Y-102677154D01*
X229323000Y-102677154D01*
X229323000Y-95177501D01*
X229797502Y-94703000D01*
X233585125Y-94703000D01*
X233387539Y-94784843D01*
X233066848Y-94999122D01*
X232794122Y-95271848D01*
X232579843Y-95592539D01*
X232432245Y-95948872D01*
X232357000Y-96327154D01*
X232357000Y-96712846D01*
X232432245Y-97091128D01*
X232579843Y-97447461D01*
X232794122Y-97768152D01*
X233066848Y-98040878D01*
X233387539Y-98255157D01*
X233743872Y-98402755D01*
X234122154Y-98478000D01*
X234507846Y-98478000D01*
X234886128Y-98402755D01*
X235242461Y-98255157D01*
X235563152Y-98040878D01*
X235835878Y-97768152D01*
X236050157Y-97447461D01*
X236197755Y-97091128D01*
X236273000Y-96712846D01*
X236273000Y-96327154D01*
X236197755Y-95948872D01*
X236050157Y-95592539D01*
X235835878Y-95271848D01*
X235563152Y-94999122D01*
X235242461Y-94784843D01*
X235044875Y-94703000D01*
X240598297Y-94703000D01*
X240665000Y-94709570D01*
X240731703Y-94703000D01*
X240731706Y-94703000D01*
X240931214Y-94683350D01*
X241187198Y-94605698D01*
X241423114Y-94479598D01*
X241629897Y-94309897D01*
X241672425Y-94258076D01*
X242848081Y-93082421D01*
X242899897Y-93039897D01*
X243069598Y-92833114D01*
X243195698Y-92597198D01*
X243273350Y-92341214D01*
X243293000Y-92141706D01*
X243293000Y-92141704D01*
X243299570Y-92075001D01*
X243293000Y-92008297D01*
X243293000Y-91211458D01*
X250487593Y-91211458D01*
X250532669Y-91360072D01*
X250670978Y-91654202D01*
X250864011Y-91915698D01*
X251104350Y-92134510D01*
X251382760Y-92302230D01*
X251688541Y-92412412D01*
X251945000Y-92241706D01*
X251945000Y-90955000D01*
X252245000Y-90955000D01*
X252245000Y-92241706D01*
X252501459Y-92412412D01*
X252807240Y-92302230D01*
X253085650Y-92134510D01*
X253325989Y-91915698D01*
X253519022Y-91654202D01*
X253657331Y-91360072D01*
X253702407Y-91211458D01*
X253530685Y-90955000D01*
X252245000Y-90955000D01*
X251945000Y-90955000D01*
X250659315Y-90955000D01*
X250487593Y-91211458D01*
X243293000Y-91211458D01*
X243293000Y-90398542D01*
X250487593Y-90398542D01*
X250659315Y-90655000D01*
X251945000Y-90655000D01*
X251945000Y-89368294D01*
X252245000Y-89368294D01*
X252245000Y-90655000D01*
X253530685Y-90655000D01*
X253702407Y-90398542D01*
X253657331Y-90249928D01*
X253519022Y-89955798D01*
X253325989Y-89694302D01*
X253085650Y-89475490D01*
X252807240Y-89307770D01*
X252501459Y-89197588D01*
X252245000Y-89368294D01*
X251945000Y-89368294D01*
X251688541Y-89197588D01*
X251382760Y-89307770D01*
X251104350Y-89475490D01*
X250864011Y-89694302D01*
X250670978Y-89955798D01*
X250532669Y-90249928D01*
X250487593Y-90398542D01*
X243293000Y-90398542D01*
X243293000Y-89601703D01*
X243299570Y-89534999D01*
X243293000Y-89468294D01*
X243273350Y-89268786D01*
X243195698Y-89012802D01*
X243069598Y-88776886D01*
X242899896Y-88570103D01*
X242848086Y-88527584D01*
X241672425Y-87351924D01*
X241629897Y-87300103D01*
X241423114Y-87130402D01*
X241187198Y-87004302D01*
X240931214Y-86926650D01*
X240731706Y-86907000D01*
X240731703Y-86907000D01*
X240665000Y-86900430D01*
X240598297Y-86907000D01*
X229323000Y-86907000D01*
X229323000Y-82357154D01*
X232357000Y-82357154D01*
X232357000Y-82742846D01*
X232432245Y-83121128D01*
X232579843Y-83477461D01*
X232794122Y-83798152D01*
X233066848Y-84070878D01*
X233387539Y-84285157D01*
X233743872Y-84432755D01*
X234122154Y-84508000D01*
X234507846Y-84508000D01*
X234886128Y-84432755D01*
X235242461Y-84285157D01*
X235563152Y-84070878D01*
X235835878Y-83798152D01*
X236050157Y-83477461D01*
X236197755Y-83121128D01*
X236273000Y-82742846D01*
X236273000Y-82357154D01*
X236197755Y-81978872D01*
X236050157Y-81622539D01*
X235835878Y-81301848D01*
X235563152Y-81029122D01*
X235242461Y-80814843D01*
X234886128Y-80667245D01*
X234507846Y-80592000D01*
X234122154Y-80592000D01*
X233743872Y-80667245D01*
X233387539Y-80814843D01*
X233066848Y-81029122D01*
X232794122Y-81301848D01*
X232579843Y-81622539D01*
X232432245Y-81978872D01*
X232357000Y-82357154D01*
X229323000Y-82357154D01*
X229323000Y-81346703D01*
X229329570Y-81279999D01*
X229322838Y-81211650D01*
X229303350Y-81013786D01*
X229225698Y-80757802D01*
X229099598Y-80521886D01*
X228929897Y-80315103D01*
X228878081Y-80272579D01*
X224527425Y-75921924D01*
X224484897Y-75870103D01*
X224278114Y-75700402D01*
X224042198Y-75574302D01*
X223786214Y-75496650D01*
X223586706Y-75477000D01*
X223586703Y-75477000D01*
X223520000Y-75470430D01*
X223453297Y-75477000D01*
X200587502Y-75477000D01*
X200113000Y-75002499D01*
X200113000Y-69458911D01*
X200190964Y-69491205D01*
X200501626Y-69553000D01*
X200818374Y-69553000D01*
X201129036Y-69491205D01*
X201421673Y-69369991D01*
X201521932Y-69303000D01*
X202261752Y-69303000D01*
X202256945Y-69306945D01*
X202049753Y-69559408D01*
X201895796Y-69847441D01*
X201800990Y-70159975D01*
X201768978Y-70485000D01*
X201800990Y-70810025D01*
X201895796Y-71122559D01*
X202049753Y-71410592D01*
X202256945Y-71663055D01*
X202479351Y-71845580D01*
X202496650Y-72021214D01*
X202574302Y-72277198D01*
X202637353Y-72395156D01*
X202700402Y-72513114D01*
X202710487Y-72525402D01*
X202870104Y-72719897D01*
X202921919Y-72762420D01*
X204097579Y-73938081D01*
X204140103Y-73989897D01*
X204346886Y-74159598D01*
X204582802Y-74285698D01*
X204838786Y-74363350D01*
X205038294Y-74383000D01*
X205038296Y-74383000D01*
X205104999Y-74389570D01*
X205171703Y-74383000D01*
X213293297Y-74383000D01*
X213360000Y-74389570D01*
X213426703Y-74383000D01*
X213426706Y-74383000D01*
X213626214Y-74363350D01*
X213882198Y-74285698D01*
X214118114Y-74159598D01*
X214324897Y-73989897D01*
X214367425Y-73938076D01*
X215543086Y-72762416D01*
X215594896Y-72719897D01*
X215637420Y-72668082D01*
X215728642Y-72556926D01*
X215764598Y-72513114D01*
X215890698Y-72277198D01*
X215968350Y-72021214D01*
X215985903Y-71843000D01*
X218986208Y-71843000D01*
X219019408Y-71870247D01*
X219307441Y-72024204D01*
X219619975Y-72119010D01*
X219863551Y-72143000D01*
X220826449Y-72143000D01*
X221070025Y-72119010D01*
X221382559Y-72024204D01*
X221670592Y-71870247D01*
X221923055Y-71663055D01*
X222130247Y-71410592D01*
X222284204Y-71122559D01*
X222379010Y-70810025D01*
X222411022Y-70485000D01*
X222379010Y-70159975D01*
X222306962Y-69922463D01*
X223432000Y-71047502D01*
X223432000Y-71688297D01*
X223425430Y-71755000D01*
X223432000Y-71821703D01*
X223432000Y-71821706D01*
X223451650Y-72021214D01*
X223529302Y-72277198D01*
X223592353Y-72395156D01*
X223655402Y-72513114D01*
X223665487Y-72525402D01*
X223825104Y-72719897D01*
X223876919Y-72762420D01*
X225687579Y-74573081D01*
X225730103Y-74624897D01*
X225781917Y-74667419D01*
X225936885Y-74794598D01*
X226062985Y-74861999D01*
X226172802Y-74920698D01*
X226428786Y-74998350D01*
X226628294Y-75018000D01*
X226628296Y-75018000D01*
X226695000Y-75024570D01*
X226761703Y-75018000D01*
X231708297Y-75018000D01*
X231775000Y-75024570D01*
X231841703Y-75018000D01*
X231841706Y-75018000D01*
X232041214Y-74998350D01*
X232297198Y-74920698D01*
X232533114Y-74794598D01*
X232739897Y-74624897D01*
X232782425Y-74573076D01*
X235800716Y-71554785D01*
X237267347Y-71554785D01*
X237318519Y-71850221D01*
X237600357Y-71981325D01*
X237902357Y-72054926D01*
X238212912Y-72068196D01*
X238520090Y-72020625D01*
X238812084Y-71914039D01*
X238931481Y-71850221D01*
X238982653Y-71554785D01*
X238125000Y-70697132D01*
X237267347Y-71554785D01*
X235800716Y-71554785D01*
X236498086Y-70857416D01*
X236549896Y-70814897D01*
X236574614Y-70784777D01*
X236589375Y-70880090D01*
X236695961Y-71172084D01*
X236759779Y-71291481D01*
X237055215Y-71342653D01*
X237912868Y-70485000D01*
X238337132Y-70485000D01*
X239194785Y-71342653D01*
X239490221Y-71291481D01*
X239621325Y-71009643D01*
X239694926Y-70707643D01*
X239708196Y-70397088D01*
X239660625Y-70089910D01*
X239554039Y-69797916D01*
X239490221Y-69678519D01*
X239194785Y-69627347D01*
X238337132Y-70485000D01*
X237912868Y-70485000D01*
X237055215Y-69627347D01*
X236943000Y-69646784D01*
X236943000Y-69415215D01*
X237267347Y-69415215D01*
X238125000Y-70272868D01*
X238982653Y-69415215D01*
X238931481Y-69119779D01*
X238649643Y-68988675D01*
X238347643Y-68915074D01*
X238037088Y-68901804D01*
X237729910Y-68949375D01*
X237437916Y-69055961D01*
X237318519Y-69119779D01*
X237267347Y-69415215D01*
X236943000Y-69415215D01*
X236943000Y-68752933D01*
X236983405Y-68692463D01*
X237102358Y-68405286D01*
X237163000Y-68100419D01*
X237163000Y-67789581D01*
X237102358Y-67484714D01*
X236983405Y-67197537D01*
X236810712Y-66939084D01*
X236590916Y-66719288D01*
X236332463Y-66546595D01*
X236045286Y-66427642D01*
X235740419Y-66367000D01*
X235429581Y-66367000D01*
X235124714Y-66427642D01*
X234837537Y-66546595D01*
X234579084Y-66719288D01*
X234359288Y-66939084D01*
X234186595Y-67197537D01*
X234067642Y-67484714D01*
X234007000Y-67789581D01*
X234007000Y-68100419D01*
X234067642Y-68405286D01*
X234186595Y-68692463D01*
X234227001Y-68752934D01*
X234227000Y-69287498D01*
X231212499Y-72302000D01*
X227257502Y-72302000D01*
X227002463Y-72046962D01*
X227239975Y-72119010D01*
X227483551Y-72143000D01*
X228446449Y-72143000D01*
X228690025Y-72119010D01*
X229002559Y-72024204D01*
X229290592Y-71870247D01*
X229543055Y-71663055D01*
X229750247Y-71410592D01*
X229904204Y-71122559D01*
X229999010Y-70810025D01*
X230031022Y-70485000D01*
X229999010Y-70159975D01*
X229904204Y-69847441D01*
X229750247Y-69559408D01*
X229543055Y-69306945D01*
X229431020Y-69215000D01*
X229543055Y-69123055D01*
X229750247Y-68870592D01*
X229904204Y-68582559D01*
X229999010Y-68270025D01*
X230031022Y-67945000D01*
X229999010Y-67619975D01*
X229904204Y-67307441D01*
X229750247Y-67019408D01*
X229543055Y-66766945D01*
X229431020Y-66675000D01*
X229543055Y-66583055D01*
X229750247Y-66330592D01*
X229858535Y-66128000D01*
X236716462Y-66128000D01*
X236726595Y-66152463D01*
X236899288Y-66410916D01*
X237119084Y-66630712D01*
X237377537Y-66803405D01*
X237664714Y-66922358D01*
X237969581Y-66983000D01*
X238280419Y-66983000D01*
X238585286Y-66922358D01*
X238872463Y-66803405D01*
X239130916Y-66630712D01*
X239350712Y-66410916D01*
X239523405Y-66152463D01*
X239642358Y-65865286D01*
X239703000Y-65560419D01*
X239703000Y-65249581D01*
X239642358Y-64944714D01*
X239523405Y-64657537D01*
X239350712Y-64399084D01*
X239130916Y-64179288D01*
X238872463Y-64006595D01*
X238585286Y-63887642D01*
X238513954Y-63873453D01*
X238497425Y-63856924D01*
X238454897Y-63805103D01*
X238248114Y-63635402D01*
X238012198Y-63509302D01*
X237756214Y-63431650D01*
X237556706Y-63412000D01*
X237556703Y-63412000D01*
X237490000Y-63405430D01*
X237423297Y-63412000D01*
X229931675Y-63412000D01*
X229999010Y-63190025D01*
X230031022Y-62865000D01*
X229999010Y-62539975D01*
X229904204Y-62227441D01*
X229750247Y-61939408D01*
X229543055Y-61686945D01*
X229290592Y-61479753D01*
X229002559Y-61325796D01*
X228690025Y-61230990D01*
X228446449Y-61207000D01*
X227483551Y-61207000D01*
X227239975Y-61230990D01*
X226927441Y-61325796D01*
X226783000Y-61403001D01*
X226783000Y-59121703D01*
X226789570Y-59054999D01*
X226782838Y-58986650D01*
X226763350Y-58788786D01*
X226685698Y-58532802D01*
X226559598Y-58296886D01*
X226523642Y-58253074D01*
X226432419Y-58141917D01*
X226432416Y-58141914D01*
X226389896Y-58090103D01*
X226338086Y-58047584D01*
X225162425Y-56871924D01*
X225119897Y-56820103D01*
X224913114Y-56650402D01*
X224677198Y-56524302D01*
X224421214Y-56446650D01*
X224221706Y-56427000D01*
X224221703Y-56427000D01*
X224155000Y-56420430D01*
X224088297Y-56427000D01*
X221068000Y-56427000D01*
X221068000Y-47582034D01*
X221102440Y-47620065D01*
X221371292Y-47819635D01*
X221673912Y-47962920D01*
X221835689Y-48011989D01*
X222100000Y-47840948D01*
X222100000Y-46505000D01*
X222080000Y-46505000D01*
X222080000Y-46205000D01*
X222100000Y-46205000D01*
X222100000Y-44869052D01*
X222400000Y-44869052D01*
X222400000Y-46205000D01*
X222420000Y-46205000D01*
X222420000Y-46505000D01*
X222400000Y-46505000D01*
X222400000Y-47840948D01*
X222664311Y-48011989D01*
X222826088Y-47962920D01*
X223128708Y-47819635D01*
X223397560Y-47620065D01*
X223512578Y-47493054D01*
X223701214Y-47681690D01*
X223980959Y-47868610D01*
X224291795Y-47997362D01*
X224621777Y-48063000D01*
X224958223Y-48063000D01*
X225288205Y-47997362D01*
X225599041Y-47868610D01*
X225878786Y-47681690D01*
X226060000Y-47500476D01*
X226241214Y-47681690D01*
X226520959Y-47868610D01*
X226831795Y-47997362D01*
X227161777Y-48063000D01*
X227498223Y-48063000D01*
X227828205Y-47997362D01*
X228139041Y-47868610D01*
X228418786Y-47681690D01*
X228656690Y-47443786D01*
X228843610Y-47164041D01*
X228972362Y-46853205D01*
X229038000Y-46523223D01*
X229038000Y-46186777D01*
X228972362Y-45856795D01*
X228843610Y-45545959D01*
X228656690Y-45266214D01*
X228418786Y-45028310D01*
X228139041Y-44841390D01*
X227828205Y-44712638D01*
X227498223Y-44647000D01*
X227161777Y-44647000D01*
X226831795Y-44712638D01*
X226520959Y-44841390D01*
X226241214Y-45028310D01*
X226060000Y-45209524D01*
X225878786Y-45028310D01*
X225599041Y-44841390D01*
X225288205Y-44712638D01*
X224958223Y-44647000D01*
X224621777Y-44647000D01*
X224291795Y-44712638D01*
X223980959Y-44841390D01*
X223701214Y-45028310D01*
X223512578Y-45216946D01*
X223397560Y-45089935D01*
X223128708Y-44890365D01*
X222826088Y-44747080D01*
X222664311Y-44698011D01*
X222400000Y-44869052D01*
X222100000Y-44869052D01*
X221835689Y-44698011D01*
X221673912Y-44747080D01*
X221371292Y-44890365D01*
X221102440Y-45089935D01*
X220987422Y-45216946D01*
X220798786Y-45028310D01*
X220519041Y-44841390D01*
X220208205Y-44712638D01*
X219878223Y-44647000D01*
X219541777Y-44647000D01*
X219211795Y-44712638D01*
X218900959Y-44841390D01*
X218621214Y-45028310D01*
X218432578Y-45216946D01*
X218317560Y-45089935D01*
X218048708Y-44890365D01*
X217746088Y-44747080D01*
X217584311Y-44698011D01*
X217320000Y-44869052D01*
X217320000Y-46205000D01*
X217340000Y-46205000D01*
X217340000Y-46505000D01*
X217320000Y-46505000D01*
X217320000Y-47840948D01*
X217584311Y-48011989D01*
X217746088Y-47962920D01*
X218048708Y-47819635D01*
X218317560Y-47620065D01*
X218352001Y-47582033D01*
X218352000Y-53517945D01*
X218195040Y-53360985D01*
X217931673Y-53185009D01*
X217639036Y-53063795D01*
X217328374Y-53002000D01*
X217011626Y-53002000D01*
X216700964Y-53063795D01*
X216408327Y-53185009D01*
X216144960Y-53360985D01*
X215988000Y-53517945D01*
X215988000Y-47582034D01*
X216022440Y-47620065D01*
X216291292Y-47819635D01*
X216593912Y-47962920D01*
X216755689Y-48011989D01*
X217020000Y-47840948D01*
X217020000Y-46505000D01*
X217000000Y-46505000D01*
X217000000Y-46205000D01*
X217020000Y-46205000D01*
X217020000Y-44869052D01*
X216755689Y-44698011D01*
X216593912Y-44747080D01*
X216291292Y-44890365D01*
X216022440Y-45089935D01*
X215907422Y-45216946D01*
X215718786Y-45028310D01*
X215439041Y-44841390D01*
X215128205Y-44712638D01*
X214798223Y-44647000D01*
X214461777Y-44647000D01*
X214131795Y-44712638D01*
X213820959Y-44841390D01*
X213541214Y-45028310D01*
X213352578Y-45216946D01*
X213237560Y-45089935D01*
X212968708Y-44890365D01*
X212666088Y-44747080D01*
X212504311Y-44698011D01*
X212240000Y-44869052D01*
X212240000Y-46205000D01*
X212260000Y-46205000D01*
X212260000Y-46505000D01*
X212240000Y-46505000D01*
X212240000Y-47840948D01*
X212504311Y-48011989D01*
X212666088Y-47962920D01*
X212968708Y-47819635D01*
X213237560Y-47620065D01*
X213272000Y-47582034D01*
X213272001Y-61998815D01*
X213240247Y-61939408D01*
X213033055Y-61686945D01*
X212780592Y-61479753D01*
X212492559Y-61325796D01*
X212180025Y-61230990D01*
X211936449Y-61207000D01*
X210973551Y-61207000D01*
X210729975Y-61230990D01*
X210417441Y-61325796D01*
X210273000Y-61403001D01*
X210273000Y-59617501D01*
X210535772Y-59354729D01*
X210654036Y-59331205D01*
X210946673Y-59209991D01*
X211210040Y-59034015D01*
X211434015Y-58810040D01*
X211609991Y-58546673D01*
X211731205Y-58254036D01*
X211793000Y-57943374D01*
X211793000Y-57626626D01*
X211731205Y-57315964D01*
X211609991Y-57023327D01*
X211434015Y-56759960D01*
X211210040Y-56535985D01*
X210946673Y-56360009D01*
X210654036Y-56238795D01*
X210343374Y-56177000D01*
X210026626Y-56177000D01*
X209715964Y-56238795D01*
X209423327Y-56360009D01*
X209159960Y-56535985D01*
X208935985Y-56759960D01*
X208760009Y-57023327D01*
X208638795Y-57315964D01*
X208615271Y-57434228D01*
X208001919Y-58047580D01*
X207950104Y-58090103D01*
X207907582Y-58141917D01*
X207907581Y-58141918D01*
X207780402Y-58296886D01*
X207654303Y-58532802D01*
X207576651Y-58788786D01*
X207550430Y-59055000D01*
X207557001Y-59121713D01*
X207557000Y-64068296D01*
X207550430Y-64135000D01*
X207557000Y-64201703D01*
X207557000Y-64201705D01*
X207576650Y-64401213D01*
X207654302Y-64657197D01*
X207654303Y-64657198D01*
X207780402Y-64893114D01*
X207822749Y-64944714D01*
X207950103Y-65099896D01*
X208001920Y-65142421D01*
X209177579Y-66318081D01*
X209220103Y-66369897D01*
X209426886Y-66539598D01*
X209515569Y-66587000D01*
X208842502Y-66587000D01*
X206747425Y-64491924D01*
X206704897Y-64440103D01*
X206498114Y-64270402D01*
X206262198Y-64144302D01*
X206006214Y-64066650D01*
X205806706Y-64047000D01*
X205806703Y-64047000D01*
X205803843Y-64046718D01*
X205831524Y-63994931D01*
X205880585Y-63833197D01*
X205897151Y-63665000D01*
X205897151Y-62065000D01*
X205880585Y-61896803D01*
X205831524Y-61735069D01*
X205751852Y-61586015D01*
X205644633Y-61455367D01*
X205513985Y-61348148D01*
X205364931Y-61268476D01*
X205203197Y-61219415D01*
X205035000Y-61202849D01*
X202635000Y-61202849D01*
X202466803Y-61219415D01*
X202305069Y-61268476D01*
X202234081Y-61306420D01*
X207572502Y-55968000D01*
X208688068Y-55968000D01*
X208788327Y-56034991D01*
X209080964Y-56156205D01*
X209391626Y-56218000D01*
X209708374Y-56218000D01*
X210019036Y-56156205D01*
X210311673Y-56034991D01*
X210575040Y-55859015D01*
X210799015Y-55635040D01*
X210974991Y-55371673D01*
X211096205Y-55079036D01*
X211158000Y-54768374D01*
X211158000Y-54451626D01*
X211096205Y-54140964D01*
X210974991Y-53848327D01*
X210908000Y-53748068D01*
X210908000Y-47582034D01*
X210942440Y-47620065D01*
X211211292Y-47819635D01*
X211513912Y-47962920D01*
X211675689Y-48011989D01*
X211940000Y-47840948D01*
X211940000Y-46505000D01*
X211920000Y-46505000D01*
X211920000Y-46205000D01*
X211940000Y-46205000D01*
X211940000Y-44869052D01*
X211675689Y-44698011D01*
X211513912Y-44747080D01*
X211211292Y-44890365D01*
X210942440Y-45089935D01*
X210827422Y-45216946D01*
X210638786Y-45028310D01*
X210359041Y-44841390D01*
X210048205Y-44712638D01*
X209718223Y-44647000D01*
X209381777Y-44647000D01*
X209051795Y-44712638D01*
X208740959Y-44841390D01*
X208461214Y-45028310D01*
X208280000Y-45209524D01*
X208098786Y-45028310D01*
X207819041Y-44841390D01*
X207508205Y-44712638D01*
X207178223Y-44647000D01*
X206841777Y-44647000D01*
X206511795Y-44712638D01*
X206200959Y-44841390D01*
X205921214Y-45028310D01*
X205740000Y-45209524D01*
X205558786Y-45028310D01*
X205279041Y-44841390D01*
X204968205Y-44712638D01*
X204638223Y-44647000D01*
X204301777Y-44647000D01*
X203971795Y-44712638D01*
X203660959Y-44841390D01*
X203381214Y-45028310D01*
X203200000Y-45209524D01*
X203018786Y-45028310D01*
X202739041Y-44841390D01*
X202428205Y-44712638D01*
X202098223Y-44647000D01*
X201761777Y-44647000D01*
X201431795Y-44712638D01*
X201120959Y-44841390D01*
X200841214Y-45028310D01*
X200652578Y-45216946D01*
X200537560Y-45089935D01*
X200268708Y-44890365D01*
X199966088Y-44747080D01*
X199804311Y-44698011D01*
X199540000Y-44869052D01*
X199540000Y-46205000D01*
X199560000Y-46205000D01*
X199560000Y-46505000D01*
X199540000Y-46505000D01*
X199540000Y-47840948D01*
X199804311Y-48011989D01*
X199966088Y-47962920D01*
X200268708Y-47819635D01*
X200537560Y-47620065D01*
X200572000Y-47582034D01*
X200572001Y-49602497D01*
X192126920Y-58047579D01*
X192075103Y-58090104D01*
X192032582Y-58141917D01*
X192032581Y-58141918D01*
X191905402Y-58296886D01*
X191899890Y-58307199D01*
X191779302Y-58532803D01*
X191701650Y-58788787D01*
X191682162Y-58986650D01*
X191675430Y-59055000D01*
X190588000Y-59055000D01*
X190588000Y-55807501D01*
X195223081Y-51172421D01*
X195274897Y-51129897D01*
X195351001Y-51037163D01*
X195444598Y-50923115D01*
X195570697Y-50687199D01*
X195570698Y-50687198D01*
X195648350Y-50431214D01*
X195668000Y-50231706D01*
X195668000Y-50231704D01*
X195674570Y-50165000D01*
X195668000Y-50098297D01*
X195668000Y-47588476D01*
X195761214Y-47681690D01*
X196040959Y-47868610D01*
X196351795Y-47997362D01*
X196681777Y-48063000D01*
X197018223Y-48063000D01*
X197348205Y-47997362D01*
X197659041Y-47868610D01*
X197938786Y-47681690D01*
X198127422Y-47493054D01*
X198242440Y-47620065D01*
X198511292Y-47819635D01*
X198813912Y-47962920D01*
X198975689Y-48011989D01*
X199240000Y-47840948D01*
X199240000Y-46505000D01*
X199220000Y-46505000D01*
X199220000Y-46205000D01*
X199240000Y-46205000D01*
X199240000Y-44869052D01*
X198975689Y-44698011D01*
X198813912Y-44747080D01*
X198511292Y-44890365D01*
X198242440Y-45089935D01*
X198127422Y-45216946D01*
X197938786Y-45028310D01*
X197659041Y-44841390D01*
X197348205Y-44712638D01*
X197018223Y-44647000D01*
X196681777Y-44647000D01*
X196351795Y-44712638D01*
X196040959Y-44841390D01*
X195761214Y-45028310D01*
X195580000Y-45209524D01*
X195398786Y-45028310D01*
X195119041Y-44841390D01*
X194808205Y-44712638D01*
X194478223Y-44647000D01*
X194141777Y-44647000D01*
X193811795Y-44712638D01*
X193500959Y-44841390D01*
X193221214Y-45028310D01*
X193032578Y-45216946D01*
X192917560Y-45089935D01*
X192648708Y-44890365D01*
X192346088Y-44747080D01*
X192184311Y-44698011D01*
X191920000Y-44869052D01*
X191920000Y-46205000D01*
X191940000Y-46205000D01*
X191940000Y-46505000D01*
X191920000Y-46505000D01*
X191920000Y-47840948D01*
X192184311Y-48011989D01*
X192346088Y-47962920D01*
X192648708Y-47819635D01*
X192917560Y-47620065D01*
X192952000Y-47582034D01*
X192952001Y-49602497D01*
X188316920Y-54237579D01*
X188265103Y-54280104D01*
X188222581Y-54331918D01*
X188095402Y-54486886D01*
X188065251Y-54543295D01*
X187969302Y-54722803D01*
X187891650Y-54978787D01*
X187876540Y-55132199D01*
X187865430Y-55245000D01*
X187872000Y-55311703D01*
X187872001Y-67083066D01*
X187805009Y-67183327D01*
X187683795Y-67475964D01*
X187622000Y-67786626D01*
X184238000Y-67786626D01*
X184238000Y-66266932D01*
X184304991Y-66166673D01*
X184426205Y-65874036D01*
X184488000Y-65563374D01*
X184488000Y-65246626D01*
X184426205Y-64935964D01*
X184304991Y-64643327D01*
X184129015Y-64379960D01*
X183905040Y-64155985D01*
X183641673Y-63980009D01*
X183349036Y-63858795D01*
X183038374Y-63797000D01*
X182721626Y-63797000D01*
X182410964Y-63858795D01*
X182118327Y-63980009D01*
X181854960Y-64155985D01*
X181630985Y-64379960D01*
X181455009Y-64643327D01*
X181333795Y-64935964D01*
X181272000Y-65246626D01*
X162808000Y-65246626D01*
X162808000Y-58033000D01*
X180296627Y-58033000D01*
X180340000Y-58037272D01*
X180383373Y-58033000D01*
X180513098Y-58020223D01*
X180679544Y-57969732D01*
X180832942Y-57887740D01*
X180967396Y-57777396D01*
X181077740Y-57642942D01*
X181159732Y-57489544D01*
X181210223Y-57323098D01*
X181227272Y-57150000D01*
X181223000Y-57106627D01*
X181223000Y-45505000D01*
X182437849Y-45505000D01*
X182437849Y-47205000D01*
X182454415Y-47373197D01*
X182503476Y-47534931D01*
X182583148Y-47683985D01*
X182690367Y-47814633D01*
X182821015Y-47921852D01*
X182970069Y-48001524D01*
X183131803Y-48050585D01*
X183300000Y-48067151D01*
X185000000Y-48067151D01*
X185168197Y-48050585D01*
X185329931Y-48001524D01*
X185478985Y-47921852D01*
X185609633Y-47814633D01*
X185677115Y-47732405D01*
X185880959Y-47868610D01*
X186191795Y-47997362D01*
X186521777Y-48063000D01*
X186858223Y-48063000D01*
X187188205Y-47997362D01*
X187499041Y-47868610D01*
X187778786Y-47681690D01*
X187960000Y-47500476D01*
X188141214Y-47681690D01*
X188420959Y-47868610D01*
X188731795Y-47997362D01*
X189061777Y-48063000D01*
X189398223Y-48063000D01*
X189728205Y-47997362D01*
X190039041Y-47868610D01*
X190318786Y-47681690D01*
X190507422Y-47493054D01*
X190622440Y-47620065D01*
X190891292Y-47819635D01*
X191193912Y-47962920D01*
X191355689Y-48011989D01*
X191620000Y-47840948D01*
X191620000Y-46505000D01*
X191600000Y-46505000D01*
X191600000Y-46205000D01*
X191620000Y-46205000D01*
X191620000Y-44869052D01*
X191355689Y-44698011D01*
X191193912Y-44747080D01*
X190891292Y-44890365D01*
X190622440Y-45089935D01*
X190507422Y-45216946D01*
X190318786Y-45028310D01*
X190039041Y-44841390D01*
X189728205Y-44712638D01*
X189398223Y-44647000D01*
X189061777Y-44647000D01*
X188731795Y-44712638D01*
X188420959Y-44841390D01*
X188141214Y-45028310D01*
X187960000Y-45209524D01*
X187778786Y-45028310D01*
X187499041Y-44841390D01*
X187188205Y-44712638D01*
X186858223Y-44647000D01*
X186521777Y-44647000D01*
X186191795Y-44712638D01*
X185880959Y-44841390D01*
X185677115Y-44977595D01*
X185609633Y-44895367D01*
X185478985Y-44788148D01*
X185329931Y-44708476D01*
X185168197Y-44659415D01*
X185000000Y-44642849D01*
X183300000Y-44642849D01*
X183131803Y-44659415D01*
X182970069Y-44708476D01*
X182821015Y-44788148D01*
X182690367Y-44895367D01*
X182583148Y-45026015D01*
X182503476Y-45175069D01*
X182454415Y-45336803D01*
X182437849Y-45505000D01*
X181223000Y-45505000D01*
X181223000Y-41523000D01*
X230257000Y-41523000D01*
X230257001Y-57106616D01*
%TD*%
M02*
