%TF.GenerationSoftware,KiCad,Pcbnew,8.0.0*%
%TF.CreationDate,2024-03-15T09:10:00+01:00*%
%TF.ProjectId,carte_LED_Photodiode_carac,63617274-655f-44c4-9544-5f50686f746f,rev?*%
%TF.SameCoordinates,Original*%
%TF.FileFunction,Legend,Top*%
%TF.FilePolarity,Positive*%
%FSLAX46Y46*%
G04 Gerber Fmt 4.6, Leading zero omitted, Abs format (unit mm)*
G04 Created by KiCad (PCBNEW 8.0.0) date 2024-03-15 09:10:00*
%MOMM*%
%LPD*%
G01*
G04 APERTURE LIST*
%ADD10C,0.150000*%
%ADD11C,0.100000*%
%ADD12C,0.120000*%
G04 APERTURE END LIST*
D10*
X180449847Y-89628572D02*
X179449847Y-89628572D01*
X179449847Y-89628572D02*
X179449847Y-89390477D01*
X179449847Y-89390477D02*
X179497466Y-89247620D01*
X179497466Y-89247620D02*
X179592704Y-89152382D01*
X179592704Y-89152382D02*
X179687942Y-89104763D01*
X179687942Y-89104763D02*
X179878418Y-89057144D01*
X179878418Y-89057144D02*
X180021275Y-89057144D01*
X180021275Y-89057144D02*
X180211751Y-89104763D01*
X180211751Y-89104763D02*
X180306989Y-89152382D01*
X180306989Y-89152382D02*
X180402228Y-89247620D01*
X180402228Y-89247620D02*
X180449847Y-89390477D01*
X180449847Y-89390477D02*
X180449847Y-89628572D01*
X180402228Y-88247620D02*
X180449847Y-88342858D01*
X180449847Y-88342858D02*
X180449847Y-88533334D01*
X180449847Y-88533334D02*
X180402228Y-88628572D01*
X180402228Y-88628572D02*
X180306989Y-88676191D01*
X180306989Y-88676191D02*
X179926037Y-88676191D01*
X179926037Y-88676191D02*
X179830799Y-88628572D01*
X179830799Y-88628572D02*
X179783180Y-88533334D01*
X179783180Y-88533334D02*
X179783180Y-88342858D01*
X179783180Y-88342858D02*
X179830799Y-88247620D01*
X179830799Y-88247620D02*
X179926037Y-88200001D01*
X179926037Y-88200001D02*
X180021275Y-88200001D01*
X180021275Y-88200001D02*
X180116513Y-88676191D01*
X179402228Y-88342858D02*
X179545085Y-88485715D01*
X180449847Y-87771429D02*
X179783180Y-87771429D01*
X179878418Y-87771429D02*
X179830799Y-87723810D01*
X179830799Y-87723810D02*
X179783180Y-87628572D01*
X179783180Y-87628572D02*
X179783180Y-87485715D01*
X179783180Y-87485715D02*
X179830799Y-87390477D01*
X179830799Y-87390477D02*
X179926037Y-87342858D01*
X179926037Y-87342858D02*
X180449847Y-87342858D01*
X179926037Y-87342858D02*
X179830799Y-87295239D01*
X179830799Y-87295239D02*
X179783180Y-87200001D01*
X179783180Y-87200001D02*
X179783180Y-87057144D01*
X179783180Y-87057144D02*
X179830799Y-86961905D01*
X179830799Y-86961905D02*
X179926037Y-86914286D01*
X179926037Y-86914286D02*
X180449847Y-86914286D01*
X180449847Y-86295239D02*
X180402228Y-86390477D01*
X180402228Y-86390477D02*
X180354608Y-86438096D01*
X180354608Y-86438096D02*
X180259370Y-86485715D01*
X180259370Y-86485715D02*
X179973656Y-86485715D01*
X179973656Y-86485715D02*
X179878418Y-86438096D01*
X179878418Y-86438096D02*
X179830799Y-86390477D01*
X179830799Y-86390477D02*
X179783180Y-86295239D01*
X179783180Y-86295239D02*
X179783180Y-86152382D01*
X179783180Y-86152382D02*
X179830799Y-86057144D01*
X179830799Y-86057144D02*
X179878418Y-86009525D01*
X179878418Y-86009525D02*
X179973656Y-85961906D01*
X179973656Y-85961906D02*
X180259370Y-85961906D01*
X180259370Y-85961906D02*
X180354608Y-86009525D01*
X180354608Y-86009525D02*
X180402228Y-86057144D01*
X180402228Y-86057144D02*
X180449847Y-86152382D01*
X180449847Y-86152382D02*
X180449847Y-86295239D01*
X180449847Y-84771429D02*
X179449847Y-84771429D01*
X179449847Y-84771429D02*
X179449847Y-84390477D01*
X179449847Y-84390477D02*
X179497466Y-84295239D01*
X179497466Y-84295239D02*
X179545085Y-84247620D01*
X179545085Y-84247620D02*
X179640323Y-84200001D01*
X179640323Y-84200001D02*
X179783180Y-84200001D01*
X179783180Y-84200001D02*
X179878418Y-84247620D01*
X179878418Y-84247620D02*
X179926037Y-84295239D01*
X179926037Y-84295239D02*
X179973656Y-84390477D01*
X179973656Y-84390477D02*
X179973656Y-84771429D01*
X180449847Y-83771429D02*
X179449847Y-83771429D01*
X180449847Y-83342858D02*
X179926037Y-83342858D01*
X179926037Y-83342858D02*
X179830799Y-83390477D01*
X179830799Y-83390477D02*
X179783180Y-83485715D01*
X179783180Y-83485715D02*
X179783180Y-83628572D01*
X179783180Y-83628572D02*
X179830799Y-83723810D01*
X179830799Y-83723810D02*
X179878418Y-83771429D01*
X180449847Y-82723810D02*
X180402228Y-82819048D01*
X180402228Y-82819048D02*
X180354608Y-82866667D01*
X180354608Y-82866667D02*
X180259370Y-82914286D01*
X180259370Y-82914286D02*
X179973656Y-82914286D01*
X179973656Y-82914286D02*
X179878418Y-82866667D01*
X179878418Y-82866667D02*
X179830799Y-82819048D01*
X179830799Y-82819048D02*
X179783180Y-82723810D01*
X179783180Y-82723810D02*
X179783180Y-82580953D01*
X179783180Y-82580953D02*
X179830799Y-82485715D01*
X179830799Y-82485715D02*
X179878418Y-82438096D01*
X179878418Y-82438096D02*
X179973656Y-82390477D01*
X179973656Y-82390477D02*
X180259370Y-82390477D01*
X180259370Y-82390477D02*
X180354608Y-82438096D01*
X180354608Y-82438096D02*
X180402228Y-82485715D01*
X180402228Y-82485715D02*
X180449847Y-82580953D01*
X180449847Y-82580953D02*
X180449847Y-82723810D01*
X179783180Y-82104762D02*
X179783180Y-81723810D01*
X179449847Y-81961905D02*
X180306989Y-81961905D01*
X180306989Y-81961905D02*
X180402228Y-81914286D01*
X180402228Y-81914286D02*
X180449847Y-81819048D01*
X180449847Y-81819048D02*
X180449847Y-81723810D01*
X180449847Y-81247619D02*
X180402228Y-81342857D01*
X180402228Y-81342857D02*
X180354608Y-81390476D01*
X180354608Y-81390476D02*
X180259370Y-81438095D01*
X180259370Y-81438095D02*
X179973656Y-81438095D01*
X179973656Y-81438095D02*
X179878418Y-81390476D01*
X179878418Y-81390476D02*
X179830799Y-81342857D01*
X179830799Y-81342857D02*
X179783180Y-81247619D01*
X179783180Y-81247619D02*
X179783180Y-81104762D01*
X179783180Y-81104762D02*
X179830799Y-81009524D01*
X179830799Y-81009524D02*
X179878418Y-80961905D01*
X179878418Y-80961905D02*
X179973656Y-80914286D01*
X179973656Y-80914286D02*
X180259370Y-80914286D01*
X180259370Y-80914286D02*
X180354608Y-80961905D01*
X180354608Y-80961905D02*
X180402228Y-81009524D01*
X180402228Y-81009524D02*
X180449847Y-81104762D01*
X180449847Y-81104762D02*
X180449847Y-81247619D01*
X180449847Y-80057143D02*
X179449847Y-80057143D01*
X180402228Y-80057143D02*
X180449847Y-80152381D01*
X180449847Y-80152381D02*
X180449847Y-80342857D01*
X180449847Y-80342857D02*
X180402228Y-80438095D01*
X180402228Y-80438095D02*
X180354608Y-80485714D01*
X180354608Y-80485714D02*
X180259370Y-80533333D01*
X180259370Y-80533333D02*
X179973656Y-80533333D01*
X179973656Y-80533333D02*
X179878418Y-80485714D01*
X179878418Y-80485714D02*
X179830799Y-80438095D01*
X179830799Y-80438095D02*
X179783180Y-80342857D01*
X179783180Y-80342857D02*
X179783180Y-80152381D01*
X179783180Y-80152381D02*
X179830799Y-80057143D01*
X180402228Y-79200000D02*
X180449847Y-79295238D01*
X180449847Y-79295238D02*
X180449847Y-79485714D01*
X180449847Y-79485714D02*
X180402228Y-79580952D01*
X180402228Y-79580952D02*
X180306989Y-79628571D01*
X180306989Y-79628571D02*
X179926037Y-79628571D01*
X179926037Y-79628571D02*
X179830799Y-79580952D01*
X179830799Y-79580952D02*
X179783180Y-79485714D01*
X179783180Y-79485714D02*
X179783180Y-79295238D01*
X179783180Y-79295238D02*
X179830799Y-79200000D01*
X179830799Y-79200000D02*
X179926037Y-79152381D01*
X179926037Y-79152381D02*
X180021275Y-79152381D01*
X180021275Y-79152381D02*
X180116513Y-79628571D01*
X179402228Y-79295238D02*
X179545085Y-79438095D01*
X179783180Y-78866666D02*
X179783180Y-78485714D01*
X179449847Y-78723809D02*
X180306989Y-78723809D01*
X180306989Y-78723809D02*
X180402228Y-78676190D01*
X180402228Y-78676190D02*
X180449847Y-78580952D01*
X180449847Y-78580952D02*
X180449847Y-78485714D01*
X180402228Y-77771428D02*
X180449847Y-77866666D01*
X180449847Y-77866666D02*
X180449847Y-78057142D01*
X180449847Y-78057142D02*
X180402228Y-78152380D01*
X180402228Y-78152380D02*
X180306989Y-78199999D01*
X180306989Y-78199999D02*
X179926037Y-78199999D01*
X179926037Y-78199999D02*
X179830799Y-78152380D01*
X179830799Y-78152380D02*
X179783180Y-78057142D01*
X179783180Y-78057142D02*
X179783180Y-77866666D01*
X179783180Y-77866666D02*
X179830799Y-77771428D01*
X179830799Y-77771428D02*
X179926037Y-77723809D01*
X179926037Y-77723809D02*
X180021275Y-77723809D01*
X180021275Y-77723809D02*
X180116513Y-78199999D01*
X180402228Y-76866666D02*
X180449847Y-76961904D01*
X180449847Y-76961904D02*
X180449847Y-77152380D01*
X180449847Y-77152380D02*
X180402228Y-77247618D01*
X180402228Y-77247618D02*
X180354608Y-77295237D01*
X180354608Y-77295237D02*
X180259370Y-77342856D01*
X180259370Y-77342856D02*
X179973656Y-77342856D01*
X179973656Y-77342856D02*
X179878418Y-77295237D01*
X179878418Y-77295237D02*
X179830799Y-77247618D01*
X179830799Y-77247618D02*
X179783180Y-77152380D01*
X179783180Y-77152380D02*
X179783180Y-76961904D01*
X179783180Y-76961904D02*
X179830799Y-76866666D01*
X179783180Y-76580951D02*
X179783180Y-76199999D01*
X179449847Y-76438094D02*
X180306989Y-76438094D01*
X180306989Y-76438094D02*
X180402228Y-76390475D01*
X180402228Y-76390475D02*
X180449847Y-76295237D01*
X180449847Y-76295237D02*
X180449847Y-76199999D01*
X180449847Y-75866665D02*
X179783180Y-75866665D01*
X179449847Y-75866665D02*
X179497466Y-75914284D01*
X179497466Y-75914284D02*
X179545085Y-75866665D01*
X179545085Y-75866665D02*
X179497466Y-75819046D01*
X179497466Y-75819046D02*
X179449847Y-75866665D01*
X179449847Y-75866665D02*
X179545085Y-75866665D01*
X180449847Y-75247618D02*
X180402228Y-75342856D01*
X180402228Y-75342856D02*
X180354608Y-75390475D01*
X180354608Y-75390475D02*
X180259370Y-75438094D01*
X180259370Y-75438094D02*
X179973656Y-75438094D01*
X179973656Y-75438094D02*
X179878418Y-75390475D01*
X179878418Y-75390475D02*
X179830799Y-75342856D01*
X179830799Y-75342856D02*
X179783180Y-75247618D01*
X179783180Y-75247618D02*
X179783180Y-75104761D01*
X179783180Y-75104761D02*
X179830799Y-75009523D01*
X179830799Y-75009523D02*
X179878418Y-74961904D01*
X179878418Y-74961904D02*
X179973656Y-74914285D01*
X179973656Y-74914285D02*
X180259370Y-74914285D01*
X180259370Y-74914285D02*
X180354608Y-74961904D01*
X180354608Y-74961904D02*
X180402228Y-75009523D01*
X180402228Y-75009523D02*
X180449847Y-75104761D01*
X180449847Y-75104761D02*
X180449847Y-75247618D01*
X179783180Y-74485713D02*
X180449847Y-74485713D01*
X179878418Y-74485713D02*
X179830799Y-74438094D01*
X179830799Y-74438094D02*
X179783180Y-74342856D01*
X179783180Y-74342856D02*
X179783180Y-74199999D01*
X179783180Y-74199999D02*
X179830799Y-74104761D01*
X179830799Y-74104761D02*
X179926037Y-74057142D01*
X179926037Y-74057142D02*
X180449847Y-74057142D01*
X179402228Y-72104761D02*
X180687942Y-72961903D01*
X180449847Y-70533332D02*
X180449847Y-71009522D01*
X180449847Y-71009522D02*
X179449847Y-71009522D01*
X179926037Y-70199998D02*
X179926037Y-69866665D01*
X180449847Y-69723808D02*
X180449847Y-70199998D01*
X180449847Y-70199998D02*
X179449847Y-70199998D01*
X179449847Y-70199998D02*
X179449847Y-69723808D01*
X180449847Y-69295236D02*
X179449847Y-69295236D01*
X179449847Y-69295236D02*
X179449847Y-69057141D01*
X179449847Y-69057141D02*
X179497466Y-68914284D01*
X179497466Y-68914284D02*
X179592704Y-68819046D01*
X179592704Y-68819046D02*
X179687942Y-68771427D01*
X179687942Y-68771427D02*
X179878418Y-68723808D01*
X179878418Y-68723808D02*
X180021275Y-68723808D01*
X180021275Y-68723808D02*
X180211751Y-68771427D01*
X180211751Y-68771427D02*
X180306989Y-68819046D01*
X180306989Y-68819046D02*
X180402228Y-68914284D01*
X180402228Y-68914284D02*
X180449847Y-69057141D01*
X180449847Y-69057141D02*
X180449847Y-69295236D01*
X181964552Y-87509525D02*
X182012172Y-87557144D01*
X182012172Y-87557144D02*
X182059791Y-87700001D01*
X182059791Y-87700001D02*
X182059791Y-87795239D01*
X182059791Y-87795239D02*
X182012172Y-87938096D01*
X182012172Y-87938096D02*
X181916933Y-88033334D01*
X181916933Y-88033334D02*
X181821695Y-88080953D01*
X181821695Y-88080953D02*
X181631219Y-88128572D01*
X181631219Y-88128572D02*
X181488362Y-88128572D01*
X181488362Y-88128572D02*
X181297886Y-88080953D01*
X181297886Y-88080953D02*
X181202648Y-88033334D01*
X181202648Y-88033334D02*
X181107410Y-87938096D01*
X181107410Y-87938096D02*
X181059791Y-87795239D01*
X181059791Y-87795239D02*
X181059791Y-87700001D01*
X181059791Y-87700001D02*
X181107410Y-87557144D01*
X181107410Y-87557144D02*
X181155029Y-87509525D01*
X182059791Y-86652382D02*
X181535981Y-86652382D01*
X181535981Y-86652382D02*
X181440743Y-86700001D01*
X181440743Y-86700001D02*
X181393124Y-86795239D01*
X181393124Y-86795239D02*
X181393124Y-86985715D01*
X181393124Y-86985715D02*
X181440743Y-87080953D01*
X182012172Y-86652382D02*
X182059791Y-86747620D01*
X182059791Y-86747620D02*
X182059791Y-86985715D01*
X182059791Y-86985715D02*
X182012172Y-87080953D01*
X182012172Y-87080953D02*
X181916933Y-87128572D01*
X181916933Y-87128572D02*
X181821695Y-87128572D01*
X181821695Y-87128572D02*
X181726457Y-87080953D01*
X181726457Y-87080953D02*
X181678838Y-86985715D01*
X181678838Y-86985715D02*
X181678838Y-86747620D01*
X181678838Y-86747620D02*
X181631219Y-86652382D01*
X182059791Y-86176191D02*
X181393124Y-86176191D01*
X181583600Y-86176191D02*
X181488362Y-86128572D01*
X181488362Y-86128572D02*
X181440743Y-86080953D01*
X181440743Y-86080953D02*
X181393124Y-85985715D01*
X181393124Y-85985715D02*
X181393124Y-85890477D01*
X182059791Y-85128572D02*
X181535981Y-85128572D01*
X181535981Y-85128572D02*
X181440743Y-85176191D01*
X181440743Y-85176191D02*
X181393124Y-85271429D01*
X181393124Y-85271429D02*
X181393124Y-85461905D01*
X181393124Y-85461905D02*
X181440743Y-85557143D01*
X182012172Y-85128572D02*
X182059791Y-85223810D01*
X182059791Y-85223810D02*
X182059791Y-85461905D01*
X182059791Y-85461905D02*
X182012172Y-85557143D01*
X182012172Y-85557143D02*
X181916933Y-85604762D01*
X181916933Y-85604762D02*
X181821695Y-85604762D01*
X181821695Y-85604762D02*
X181726457Y-85557143D01*
X181726457Y-85557143D02*
X181678838Y-85461905D01*
X181678838Y-85461905D02*
X181678838Y-85223810D01*
X181678838Y-85223810D02*
X181631219Y-85128572D01*
X182012172Y-84223810D02*
X182059791Y-84319048D01*
X182059791Y-84319048D02*
X182059791Y-84509524D01*
X182059791Y-84509524D02*
X182012172Y-84604762D01*
X182012172Y-84604762D02*
X181964552Y-84652381D01*
X181964552Y-84652381D02*
X181869314Y-84700000D01*
X181869314Y-84700000D02*
X181583600Y-84700000D01*
X181583600Y-84700000D02*
X181488362Y-84652381D01*
X181488362Y-84652381D02*
X181440743Y-84604762D01*
X181440743Y-84604762D02*
X181393124Y-84509524D01*
X181393124Y-84509524D02*
X181393124Y-84319048D01*
X181393124Y-84319048D02*
X181440743Y-84223810D01*
X181393124Y-83938095D02*
X181393124Y-83557143D01*
X181059791Y-83795238D02*
X181916933Y-83795238D01*
X181916933Y-83795238D02*
X182012172Y-83747619D01*
X182012172Y-83747619D02*
X182059791Y-83652381D01*
X182059791Y-83652381D02*
X182059791Y-83557143D01*
X182012172Y-82842857D02*
X182059791Y-82938095D01*
X182059791Y-82938095D02*
X182059791Y-83128571D01*
X182059791Y-83128571D02*
X182012172Y-83223809D01*
X182012172Y-83223809D02*
X181916933Y-83271428D01*
X181916933Y-83271428D02*
X181535981Y-83271428D01*
X181535981Y-83271428D02*
X181440743Y-83223809D01*
X181440743Y-83223809D02*
X181393124Y-83128571D01*
X181393124Y-83128571D02*
X181393124Y-82938095D01*
X181393124Y-82938095D02*
X181440743Y-82842857D01*
X181440743Y-82842857D02*
X181535981Y-82795238D01*
X181535981Y-82795238D02*
X181631219Y-82795238D01*
X181631219Y-82795238D02*
X181726457Y-83271428D01*
X181012172Y-82938095D02*
X181155029Y-83080952D01*
X182059791Y-82366666D02*
X181393124Y-82366666D01*
X181583600Y-82366666D02*
X181488362Y-82319047D01*
X181488362Y-82319047D02*
X181440743Y-82271428D01*
X181440743Y-82271428D02*
X181393124Y-82176190D01*
X181393124Y-82176190D02*
X181393124Y-82080952D01*
X182059791Y-81747618D02*
X181393124Y-81747618D01*
X181059791Y-81747618D02*
X181107410Y-81795237D01*
X181107410Y-81795237D02*
X181155029Y-81747618D01*
X181155029Y-81747618D02*
X181107410Y-81699999D01*
X181107410Y-81699999D02*
X181059791Y-81747618D01*
X181059791Y-81747618D02*
X181155029Y-81747618D01*
X182012172Y-81319047D02*
X182059791Y-81223809D01*
X182059791Y-81223809D02*
X182059791Y-81033333D01*
X182059791Y-81033333D02*
X182012172Y-80938095D01*
X182012172Y-80938095D02*
X181916933Y-80890476D01*
X181916933Y-80890476D02*
X181869314Y-80890476D01*
X181869314Y-80890476D02*
X181774076Y-80938095D01*
X181774076Y-80938095D02*
X181726457Y-81033333D01*
X181726457Y-81033333D02*
X181726457Y-81176190D01*
X181726457Y-81176190D02*
X181678838Y-81271428D01*
X181678838Y-81271428D02*
X181583600Y-81319047D01*
X181583600Y-81319047D02*
X181535981Y-81319047D01*
X181535981Y-81319047D02*
X181440743Y-81271428D01*
X181440743Y-81271428D02*
X181393124Y-81176190D01*
X181393124Y-81176190D02*
X181393124Y-81033333D01*
X181393124Y-81033333D02*
X181440743Y-80938095D01*
X181393124Y-80604761D02*
X181393124Y-80223809D01*
X181059791Y-80461904D02*
X181916933Y-80461904D01*
X181916933Y-80461904D02*
X182012172Y-80414285D01*
X182012172Y-80414285D02*
X182059791Y-80319047D01*
X182059791Y-80319047D02*
X182059791Y-80223809D01*
X182059791Y-79890475D02*
X181393124Y-79890475D01*
X181059791Y-79890475D02*
X181107410Y-79938094D01*
X181107410Y-79938094D02*
X181155029Y-79890475D01*
X181155029Y-79890475D02*
X181107410Y-79842856D01*
X181107410Y-79842856D02*
X181059791Y-79890475D01*
X181059791Y-79890475D02*
X181155029Y-79890475D01*
X181393124Y-78985714D02*
X182393124Y-78985714D01*
X182012172Y-78985714D02*
X182059791Y-79080952D01*
X182059791Y-79080952D02*
X182059791Y-79271428D01*
X182059791Y-79271428D02*
X182012172Y-79366666D01*
X182012172Y-79366666D02*
X181964552Y-79414285D01*
X181964552Y-79414285D02*
X181869314Y-79461904D01*
X181869314Y-79461904D02*
X181583600Y-79461904D01*
X181583600Y-79461904D02*
X181488362Y-79414285D01*
X181488362Y-79414285D02*
X181440743Y-79366666D01*
X181440743Y-79366666D02*
X181393124Y-79271428D01*
X181393124Y-79271428D02*
X181393124Y-79080952D01*
X181393124Y-79080952D02*
X181440743Y-78985714D01*
X181393124Y-78080952D02*
X182059791Y-78080952D01*
X181393124Y-78509523D02*
X181916933Y-78509523D01*
X181916933Y-78509523D02*
X182012172Y-78461904D01*
X182012172Y-78461904D02*
X182059791Y-78366666D01*
X182059791Y-78366666D02*
X182059791Y-78223809D01*
X182059791Y-78223809D02*
X182012172Y-78128571D01*
X182012172Y-78128571D02*
X181964552Y-78080952D01*
X182012172Y-77223809D02*
X182059791Y-77319047D01*
X182059791Y-77319047D02*
X182059791Y-77509523D01*
X182059791Y-77509523D02*
X182012172Y-77604761D01*
X182012172Y-77604761D02*
X181916933Y-77652380D01*
X181916933Y-77652380D02*
X181535981Y-77652380D01*
X181535981Y-77652380D02*
X181440743Y-77604761D01*
X181440743Y-77604761D02*
X181393124Y-77509523D01*
X181393124Y-77509523D02*
X181393124Y-77319047D01*
X181393124Y-77319047D02*
X181440743Y-77223809D01*
X181440743Y-77223809D02*
X181535981Y-77176190D01*
X181535981Y-77176190D02*
X181631219Y-77176190D01*
X181631219Y-77176190D02*
X181726457Y-77652380D01*
X182012172Y-76033332D02*
X182059791Y-75890475D01*
X182059791Y-75890475D02*
X182059791Y-75652380D01*
X182059791Y-75652380D02*
X182012172Y-75557142D01*
X182012172Y-75557142D02*
X181964552Y-75509523D01*
X181964552Y-75509523D02*
X181869314Y-75461904D01*
X181869314Y-75461904D02*
X181774076Y-75461904D01*
X181774076Y-75461904D02*
X181678838Y-75509523D01*
X181678838Y-75509523D02*
X181631219Y-75557142D01*
X181631219Y-75557142D02*
X181583600Y-75652380D01*
X181583600Y-75652380D02*
X181535981Y-75842856D01*
X181535981Y-75842856D02*
X181488362Y-75938094D01*
X181488362Y-75938094D02*
X181440743Y-75985713D01*
X181440743Y-75985713D02*
X181345505Y-76033332D01*
X181345505Y-76033332D02*
X181250267Y-76033332D01*
X181250267Y-76033332D02*
X181155029Y-75985713D01*
X181155029Y-75985713D02*
X181107410Y-75938094D01*
X181107410Y-75938094D02*
X181059791Y-75842856D01*
X181059791Y-75842856D02*
X181059791Y-75604761D01*
X181059791Y-75604761D02*
X181107410Y-75461904D01*
X181393124Y-75176189D02*
X181393124Y-74795237D01*
X181059791Y-75033332D02*
X181916933Y-75033332D01*
X181916933Y-75033332D02*
X182012172Y-74985713D01*
X182012172Y-74985713D02*
X182059791Y-74890475D01*
X182059791Y-74890475D02*
X182059791Y-74795237D01*
X182059791Y-74033332D02*
X181535981Y-74033332D01*
X181535981Y-74033332D02*
X181440743Y-74080951D01*
X181440743Y-74080951D02*
X181393124Y-74176189D01*
X181393124Y-74176189D02*
X181393124Y-74366665D01*
X181393124Y-74366665D02*
X181440743Y-74461903D01*
X182012172Y-74033332D02*
X182059791Y-74128570D01*
X182059791Y-74128570D02*
X182059791Y-74366665D01*
X182059791Y-74366665D02*
X182012172Y-74461903D01*
X182012172Y-74461903D02*
X181916933Y-74509522D01*
X181916933Y-74509522D02*
X181821695Y-74509522D01*
X181821695Y-74509522D02*
X181726457Y-74461903D01*
X181726457Y-74461903D02*
X181678838Y-74366665D01*
X181678838Y-74366665D02*
X181678838Y-74128570D01*
X181678838Y-74128570D02*
X181631219Y-74033332D01*
X181393124Y-73699998D02*
X181393124Y-73319046D01*
X181059791Y-73557141D02*
X181916933Y-73557141D01*
X181916933Y-73557141D02*
X182012172Y-73509522D01*
X182012172Y-73509522D02*
X182059791Y-73414284D01*
X182059791Y-73414284D02*
X182059791Y-73319046D01*
X182059791Y-72985712D02*
X181393124Y-72985712D01*
X181059791Y-72985712D02*
X181107410Y-73033331D01*
X181107410Y-73033331D02*
X181155029Y-72985712D01*
X181155029Y-72985712D02*
X181107410Y-72938093D01*
X181107410Y-72938093D02*
X181059791Y-72985712D01*
X181059791Y-72985712D02*
X181155029Y-72985712D01*
X181393124Y-72080951D02*
X182393124Y-72080951D01*
X182012172Y-72080951D02*
X182059791Y-72176189D01*
X182059791Y-72176189D02*
X182059791Y-72366665D01*
X182059791Y-72366665D02*
X182012172Y-72461903D01*
X182012172Y-72461903D02*
X181964552Y-72509522D01*
X181964552Y-72509522D02*
X181869314Y-72557141D01*
X181869314Y-72557141D02*
X181583600Y-72557141D01*
X181583600Y-72557141D02*
X181488362Y-72509522D01*
X181488362Y-72509522D02*
X181440743Y-72461903D01*
X181440743Y-72461903D02*
X181393124Y-72366665D01*
X181393124Y-72366665D02*
X181393124Y-72176189D01*
X181393124Y-72176189D02*
X181440743Y-72080951D01*
X181393124Y-71176189D02*
X182059791Y-71176189D01*
X181393124Y-71604760D02*
X181916933Y-71604760D01*
X181916933Y-71604760D02*
X182012172Y-71557141D01*
X182012172Y-71557141D02*
X182059791Y-71461903D01*
X182059791Y-71461903D02*
X182059791Y-71319046D01*
X182059791Y-71319046D02*
X182012172Y-71223808D01*
X182012172Y-71223808D02*
X181964552Y-71176189D01*
X182012172Y-70319046D02*
X182059791Y-70414284D01*
X182059791Y-70414284D02*
X182059791Y-70604760D01*
X182059791Y-70604760D02*
X182012172Y-70699998D01*
X182012172Y-70699998D02*
X181916933Y-70747617D01*
X181916933Y-70747617D02*
X181535981Y-70747617D01*
X181535981Y-70747617D02*
X181440743Y-70699998D01*
X181440743Y-70699998D02*
X181393124Y-70604760D01*
X181393124Y-70604760D02*
X181393124Y-70414284D01*
X181393124Y-70414284D02*
X181440743Y-70319046D01*
X181440743Y-70319046D02*
X181535981Y-70271427D01*
X181535981Y-70271427D02*
X181631219Y-70271427D01*
X181631219Y-70271427D02*
X181726457Y-70747617D01*
X219783866Y-52561904D02*
X219783866Y-51800000D01*
X220164819Y-52180952D02*
X219402914Y-52180952D01*
X220164819Y-50800000D02*
X220164819Y-51371428D01*
X220164819Y-51085714D02*
X219164819Y-51085714D01*
X219164819Y-51085714D02*
X219307676Y-51180952D01*
X219307676Y-51180952D02*
X219402914Y-51276190D01*
X219402914Y-51276190D02*
X219450533Y-51371428D01*
X219164819Y-49895238D02*
X219164819Y-50371428D01*
X219164819Y-50371428D02*
X219641009Y-50419047D01*
X219641009Y-50419047D02*
X219593390Y-50371428D01*
X219593390Y-50371428D02*
X219545771Y-50276190D01*
X219545771Y-50276190D02*
X219545771Y-50038095D01*
X219545771Y-50038095D02*
X219593390Y-49942857D01*
X219593390Y-49942857D02*
X219641009Y-49895238D01*
X219641009Y-49895238D02*
X219736247Y-49847619D01*
X219736247Y-49847619D02*
X219974342Y-49847619D01*
X219974342Y-49847619D02*
X220069580Y-49895238D01*
X220069580Y-49895238D02*
X220117200Y-49942857D01*
X220117200Y-49942857D02*
X220164819Y-50038095D01*
X220164819Y-50038095D02*
X220164819Y-50276190D01*
X220164819Y-50276190D02*
X220117200Y-50371428D01*
X220117200Y-50371428D02*
X220069580Y-50419047D01*
X219164819Y-49561904D02*
X220164819Y-49228571D01*
X220164819Y-49228571D02*
X219164819Y-48895238D01*
X221752438Y-50926904D02*
X221704819Y-51022142D01*
X221704819Y-51022142D02*
X221704819Y-51164999D01*
X221704819Y-51164999D02*
X221752438Y-51307856D01*
X221752438Y-51307856D02*
X221847676Y-51403094D01*
X221847676Y-51403094D02*
X221942914Y-51450713D01*
X221942914Y-51450713D02*
X222133390Y-51498332D01*
X222133390Y-51498332D02*
X222276247Y-51498332D01*
X222276247Y-51498332D02*
X222466723Y-51450713D01*
X222466723Y-51450713D02*
X222561961Y-51403094D01*
X222561961Y-51403094D02*
X222657200Y-51307856D01*
X222657200Y-51307856D02*
X222704819Y-51164999D01*
X222704819Y-51164999D02*
X222704819Y-51069761D01*
X222704819Y-51069761D02*
X222657200Y-50926904D01*
X222657200Y-50926904D02*
X222609580Y-50879285D01*
X222609580Y-50879285D02*
X222276247Y-50879285D01*
X222276247Y-50879285D02*
X222276247Y-51069761D01*
X222704819Y-50450713D02*
X221704819Y-50450713D01*
X221704819Y-50450713D02*
X222704819Y-49879285D01*
X222704819Y-49879285D02*
X221704819Y-49879285D01*
X222704819Y-49403094D02*
X221704819Y-49403094D01*
X221704819Y-49403094D02*
X221704819Y-49164999D01*
X221704819Y-49164999D02*
X221752438Y-49022142D01*
X221752438Y-49022142D02*
X221847676Y-48926904D01*
X221847676Y-48926904D02*
X221942914Y-48879285D01*
X221942914Y-48879285D02*
X222133390Y-48831666D01*
X222133390Y-48831666D02*
X222276247Y-48831666D01*
X222276247Y-48831666D02*
X222466723Y-48879285D01*
X222466723Y-48879285D02*
X222561961Y-48926904D01*
X222561961Y-48926904D02*
X222657200Y-49022142D01*
X222657200Y-49022142D02*
X222704819Y-49164999D01*
X222704819Y-49164999D02*
X222704819Y-49403094D01*
X224244819Y-49720476D02*
X224244819Y-50196666D01*
X224244819Y-50196666D02*
X224721009Y-50244285D01*
X224721009Y-50244285D02*
X224673390Y-50196666D01*
X224673390Y-50196666D02*
X224625771Y-50101428D01*
X224625771Y-50101428D02*
X224625771Y-49863333D01*
X224625771Y-49863333D02*
X224673390Y-49768095D01*
X224673390Y-49768095D02*
X224721009Y-49720476D01*
X224721009Y-49720476D02*
X224816247Y-49672857D01*
X224816247Y-49672857D02*
X225054342Y-49672857D01*
X225054342Y-49672857D02*
X225149580Y-49720476D01*
X225149580Y-49720476D02*
X225197200Y-49768095D01*
X225197200Y-49768095D02*
X225244819Y-49863333D01*
X225244819Y-49863333D02*
X225244819Y-50101428D01*
X225244819Y-50101428D02*
X225197200Y-50196666D01*
X225197200Y-50196666D02*
X225149580Y-50244285D01*
X224244819Y-49387142D02*
X225244819Y-49053809D01*
X225244819Y-49053809D02*
X224244819Y-48720476D01*
X226784819Y-51641189D02*
X226784819Y-51022142D01*
X226784819Y-51022142D02*
X227165771Y-51355475D01*
X227165771Y-51355475D02*
X227165771Y-51212618D01*
X227165771Y-51212618D02*
X227213390Y-51117380D01*
X227213390Y-51117380D02*
X227261009Y-51069761D01*
X227261009Y-51069761D02*
X227356247Y-51022142D01*
X227356247Y-51022142D02*
X227594342Y-51022142D01*
X227594342Y-51022142D02*
X227689580Y-51069761D01*
X227689580Y-51069761D02*
X227737200Y-51117380D01*
X227737200Y-51117380D02*
X227784819Y-51212618D01*
X227784819Y-51212618D02*
X227784819Y-51498332D01*
X227784819Y-51498332D02*
X227737200Y-51593570D01*
X227737200Y-51593570D02*
X227689580Y-51641189D01*
X227689580Y-50593570D02*
X227737200Y-50545951D01*
X227737200Y-50545951D02*
X227784819Y-50593570D01*
X227784819Y-50593570D02*
X227737200Y-50641189D01*
X227737200Y-50641189D02*
X227689580Y-50593570D01*
X227689580Y-50593570D02*
X227784819Y-50593570D01*
X226784819Y-50212618D02*
X226784819Y-49593571D01*
X226784819Y-49593571D02*
X227165771Y-49926904D01*
X227165771Y-49926904D02*
X227165771Y-49784047D01*
X227165771Y-49784047D02*
X227213390Y-49688809D01*
X227213390Y-49688809D02*
X227261009Y-49641190D01*
X227261009Y-49641190D02*
X227356247Y-49593571D01*
X227356247Y-49593571D02*
X227594342Y-49593571D01*
X227594342Y-49593571D02*
X227689580Y-49641190D01*
X227689580Y-49641190D02*
X227737200Y-49688809D01*
X227737200Y-49688809D02*
X227784819Y-49784047D01*
X227784819Y-49784047D02*
X227784819Y-50069761D01*
X227784819Y-50069761D02*
X227737200Y-50164999D01*
X227737200Y-50164999D02*
X227689580Y-50212618D01*
X226784819Y-49307856D02*
X227784819Y-48974523D01*
X227784819Y-48974523D02*
X226784819Y-48641190D01*
X178061904Y-60054819D02*
X177585714Y-60054819D01*
X177585714Y-60054819D02*
X177585714Y-59054819D01*
X178395238Y-59531009D02*
X178728571Y-59531009D01*
X178871428Y-60054819D02*
X178395238Y-60054819D01*
X178395238Y-60054819D02*
X178395238Y-59054819D01*
X178395238Y-59054819D02*
X178871428Y-59054819D01*
X179300000Y-59388152D02*
X179300000Y-60054819D01*
X179300000Y-59483390D02*
X179347619Y-59435771D01*
X179347619Y-59435771D02*
X179442857Y-59388152D01*
X179442857Y-59388152D02*
X179585714Y-59388152D01*
X179585714Y-59388152D02*
X179680952Y-59435771D01*
X179680952Y-59435771D02*
X179728571Y-59531009D01*
X179728571Y-59531009D02*
X179728571Y-60054819D01*
X180157143Y-60007200D02*
X180252381Y-60054819D01*
X180252381Y-60054819D02*
X180442857Y-60054819D01*
X180442857Y-60054819D02*
X180538095Y-60007200D01*
X180538095Y-60007200D02*
X180585714Y-59911961D01*
X180585714Y-59911961D02*
X180585714Y-59864342D01*
X180585714Y-59864342D02*
X180538095Y-59769104D01*
X180538095Y-59769104D02*
X180442857Y-59721485D01*
X180442857Y-59721485D02*
X180300000Y-59721485D01*
X180300000Y-59721485D02*
X180204762Y-59673866D01*
X180204762Y-59673866D02*
X180157143Y-59578628D01*
X180157143Y-59578628D02*
X180157143Y-59531009D01*
X180157143Y-59531009D02*
X180204762Y-59435771D01*
X180204762Y-59435771D02*
X180300000Y-59388152D01*
X180300000Y-59388152D02*
X180442857Y-59388152D01*
X180442857Y-59388152D02*
X180538095Y-59435771D01*
X181014286Y-59531009D02*
X181347619Y-59531009D01*
X181490476Y-60054819D02*
X181014286Y-60054819D01*
X181014286Y-60054819D02*
X181014286Y-59054819D01*
X181014286Y-59054819D02*
X181490476Y-59054819D01*
X182633334Y-59150057D02*
X182680953Y-59102438D01*
X182680953Y-59102438D02*
X182776191Y-59054819D01*
X182776191Y-59054819D02*
X183014286Y-59054819D01*
X183014286Y-59054819D02*
X183109524Y-59102438D01*
X183109524Y-59102438D02*
X183157143Y-59150057D01*
X183157143Y-59150057D02*
X183204762Y-59245295D01*
X183204762Y-59245295D02*
X183204762Y-59340533D01*
X183204762Y-59340533D02*
X183157143Y-59483390D01*
X183157143Y-59483390D02*
X182585715Y-60054819D01*
X182585715Y-60054819D02*
X183204762Y-60054819D01*
X183823810Y-59054819D02*
X183919048Y-59054819D01*
X183919048Y-59054819D02*
X184014286Y-59102438D01*
X184014286Y-59102438D02*
X184061905Y-59150057D01*
X184061905Y-59150057D02*
X184109524Y-59245295D01*
X184109524Y-59245295D02*
X184157143Y-59435771D01*
X184157143Y-59435771D02*
X184157143Y-59673866D01*
X184157143Y-59673866D02*
X184109524Y-59864342D01*
X184109524Y-59864342D02*
X184061905Y-59959580D01*
X184061905Y-59959580D02*
X184014286Y-60007200D01*
X184014286Y-60007200D02*
X183919048Y-60054819D01*
X183919048Y-60054819D02*
X183823810Y-60054819D01*
X183823810Y-60054819D02*
X183728572Y-60007200D01*
X183728572Y-60007200D02*
X183680953Y-59959580D01*
X183680953Y-59959580D02*
X183633334Y-59864342D01*
X183633334Y-59864342D02*
X183585715Y-59673866D01*
X183585715Y-59673866D02*
X183585715Y-59435771D01*
X183585715Y-59435771D02*
X183633334Y-59245295D01*
X183633334Y-59245295D02*
X183680953Y-59150057D01*
X183680953Y-59150057D02*
X183728572Y-59102438D01*
X183728572Y-59102438D02*
X183823810Y-59054819D01*
X184538096Y-59150057D02*
X184585715Y-59102438D01*
X184585715Y-59102438D02*
X184680953Y-59054819D01*
X184680953Y-59054819D02*
X184919048Y-59054819D01*
X184919048Y-59054819D02*
X185014286Y-59102438D01*
X185014286Y-59102438D02*
X185061905Y-59150057D01*
X185061905Y-59150057D02*
X185109524Y-59245295D01*
X185109524Y-59245295D02*
X185109524Y-59340533D01*
X185109524Y-59340533D02*
X185061905Y-59483390D01*
X185061905Y-59483390D02*
X184490477Y-60054819D01*
X184490477Y-60054819D02*
X185109524Y-60054819D01*
X185966667Y-59388152D02*
X185966667Y-60054819D01*
X185728572Y-59007200D02*
X185490477Y-59721485D01*
X185490477Y-59721485D02*
X186109524Y-59721485D01*
D11*
X214309800Y-93633332D02*
X214357419Y-93490475D01*
X214357419Y-93490475D02*
X214357419Y-93252380D01*
X214357419Y-93252380D02*
X214309800Y-93157142D01*
X214309800Y-93157142D02*
X214262180Y-93109523D01*
X214262180Y-93109523D02*
X214166942Y-93061904D01*
X214166942Y-93061904D02*
X214071704Y-93061904D01*
X214071704Y-93061904D02*
X213976466Y-93109523D01*
X213976466Y-93109523D02*
X213928847Y-93157142D01*
X213928847Y-93157142D02*
X213881228Y-93252380D01*
X213881228Y-93252380D02*
X213833609Y-93442856D01*
X213833609Y-93442856D02*
X213785990Y-93538094D01*
X213785990Y-93538094D02*
X213738371Y-93585713D01*
X213738371Y-93585713D02*
X213643133Y-93633332D01*
X213643133Y-93633332D02*
X213547895Y-93633332D01*
X213547895Y-93633332D02*
X213452657Y-93585713D01*
X213452657Y-93585713D02*
X213405038Y-93538094D01*
X213405038Y-93538094D02*
X213357419Y-93442856D01*
X213357419Y-93442856D02*
X213357419Y-93204761D01*
X213357419Y-93204761D02*
X213405038Y-93061904D01*
X213357419Y-92728570D02*
X214357419Y-92490475D01*
X214357419Y-92490475D02*
X213643133Y-92299999D01*
X213643133Y-92299999D02*
X214357419Y-92109523D01*
X214357419Y-92109523D02*
X213357419Y-91871428D01*
X214357419Y-90966666D02*
X214357419Y-91538094D01*
X214357419Y-91252380D02*
X213357419Y-91252380D01*
X213357419Y-91252380D02*
X213500276Y-91347618D01*
X213500276Y-91347618D02*
X213595514Y-91442856D01*
X213595514Y-91442856D02*
X213643133Y-91538094D01*
D10*
X231164819Y-72935238D02*
X230688628Y-73268571D01*
X231164819Y-73506666D02*
X230164819Y-73506666D01*
X230164819Y-73506666D02*
X230164819Y-73125714D01*
X230164819Y-73125714D02*
X230212438Y-73030476D01*
X230212438Y-73030476D02*
X230260057Y-72982857D01*
X230260057Y-72982857D02*
X230355295Y-72935238D01*
X230355295Y-72935238D02*
X230498152Y-72935238D01*
X230498152Y-72935238D02*
X230593390Y-72982857D01*
X230593390Y-72982857D02*
X230641009Y-73030476D01*
X230641009Y-73030476D02*
X230688628Y-73125714D01*
X230688628Y-73125714D02*
X230688628Y-73506666D01*
X230164819Y-72649523D02*
X231164819Y-72316190D01*
X231164819Y-72316190D02*
X230164819Y-71982857D01*
X230260057Y-71697142D02*
X230212438Y-71649523D01*
X230212438Y-71649523D02*
X230164819Y-71554285D01*
X230164819Y-71554285D02*
X230164819Y-71316190D01*
X230164819Y-71316190D02*
X230212438Y-71220952D01*
X230212438Y-71220952D02*
X230260057Y-71173333D01*
X230260057Y-71173333D02*
X230355295Y-71125714D01*
X230355295Y-71125714D02*
X230450533Y-71125714D01*
X230450533Y-71125714D02*
X230593390Y-71173333D01*
X230593390Y-71173333D02*
X231164819Y-71744761D01*
X231164819Y-71744761D02*
X231164819Y-71125714D01*
X187734819Y-76505238D02*
X187258628Y-76838571D01*
X187734819Y-77076666D02*
X186734819Y-77076666D01*
X186734819Y-77076666D02*
X186734819Y-76695714D01*
X186734819Y-76695714D02*
X186782438Y-76600476D01*
X186782438Y-76600476D02*
X186830057Y-76552857D01*
X186830057Y-76552857D02*
X186925295Y-76505238D01*
X186925295Y-76505238D02*
X187068152Y-76505238D01*
X187068152Y-76505238D02*
X187163390Y-76552857D01*
X187163390Y-76552857D02*
X187211009Y-76600476D01*
X187211009Y-76600476D02*
X187258628Y-76695714D01*
X187258628Y-76695714D02*
X187258628Y-77076666D01*
X186734819Y-76219523D02*
X187734819Y-75886190D01*
X187734819Y-75886190D02*
X186734819Y-75552857D01*
X187734819Y-74695714D02*
X187734819Y-75267142D01*
X187734819Y-74981428D02*
X186734819Y-74981428D01*
X186734819Y-74981428D02*
X186877676Y-75076666D01*
X186877676Y-75076666D02*
X186972914Y-75171904D01*
X186972914Y-75171904D02*
X187020533Y-75267142D01*
X214574819Y-82996666D02*
X214098628Y-83329999D01*
X214574819Y-83568094D02*
X213574819Y-83568094D01*
X213574819Y-83568094D02*
X213574819Y-83187142D01*
X213574819Y-83187142D02*
X213622438Y-83091904D01*
X213622438Y-83091904D02*
X213670057Y-83044285D01*
X213670057Y-83044285D02*
X213765295Y-82996666D01*
X213765295Y-82996666D02*
X213908152Y-82996666D01*
X213908152Y-82996666D02*
X214003390Y-83044285D01*
X214003390Y-83044285D02*
X214051009Y-83091904D01*
X214051009Y-83091904D02*
X214098628Y-83187142D01*
X214098628Y-83187142D02*
X214098628Y-83568094D01*
X213908152Y-82139523D02*
X214574819Y-82139523D01*
X213527200Y-82377618D02*
X214241485Y-82615713D01*
X214241485Y-82615713D02*
X214241485Y-81996666D01*
X189113333Y-86334819D02*
X188780000Y-85858628D01*
X188541905Y-86334819D02*
X188541905Y-85334819D01*
X188541905Y-85334819D02*
X188922857Y-85334819D01*
X188922857Y-85334819D02*
X189018095Y-85382438D01*
X189018095Y-85382438D02*
X189065714Y-85430057D01*
X189065714Y-85430057D02*
X189113333Y-85525295D01*
X189113333Y-85525295D02*
X189113333Y-85668152D01*
X189113333Y-85668152D02*
X189065714Y-85763390D01*
X189065714Y-85763390D02*
X189018095Y-85811009D01*
X189018095Y-85811009D02*
X188922857Y-85858628D01*
X188922857Y-85858628D02*
X188541905Y-85858628D01*
X189446667Y-85334819D02*
X190065714Y-85334819D01*
X190065714Y-85334819D02*
X189732381Y-85715771D01*
X189732381Y-85715771D02*
X189875238Y-85715771D01*
X189875238Y-85715771D02*
X189970476Y-85763390D01*
X189970476Y-85763390D02*
X190018095Y-85811009D01*
X190018095Y-85811009D02*
X190065714Y-85906247D01*
X190065714Y-85906247D02*
X190065714Y-86144342D01*
X190065714Y-86144342D02*
X190018095Y-86239580D01*
X190018095Y-86239580D02*
X189970476Y-86287200D01*
X189970476Y-86287200D02*
X189875238Y-86334819D01*
X189875238Y-86334819D02*
X189589524Y-86334819D01*
X189589524Y-86334819D02*
X189494286Y-86287200D01*
X189494286Y-86287200D02*
X189446667Y-86239580D01*
X200953333Y-71824819D02*
X200620000Y-71348628D01*
X200381905Y-71824819D02*
X200381905Y-70824819D01*
X200381905Y-70824819D02*
X200762857Y-70824819D01*
X200762857Y-70824819D02*
X200858095Y-70872438D01*
X200858095Y-70872438D02*
X200905714Y-70920057D01*
X200905714Y-70920057D02*
X200953333Y-71015295D01*
X200953333Y-71015295D02*
X200953333Y-71158152D01*
X200953333Y-71158152D02*
X200905714Y-71253390D01*
X200905714Y-71253390D02*
X200858095Y-71301009D01*
X200858095Y-71301009D02*
X200762857Y-71348628D01*
X200762857Y-71348628D02*
X200381905Y-71348628D01*
X201334286Y-70920057D02*
X201381905Y-70872438D01*
X201381905Y-70872438D02*
X201477143Y-70824819D01*
X201477143Y-70824819D02*
X201715238Y-70824819D01*
X201715238Y-70824819D02*
X201810476Y-70872438D01*
X201810476Y-70872438D02*
X201858095Y-70920057D01*
X201858095Y-70920057D02*
X201905714Y-71015295D01*
X201905714Y-71015295D02*
X201905714Y-71110533D01*
X201905714Y-71110533D02*
X201858095Y-71253390D01*
X201858095Y-71253390D02*
X201286667Y-71824819D01*
X201286667Y-71824819D02*
X201905714Y-71824819D01*
X189353333Y-60154819D02*
X189020000Y-59678628D01*
X188781905Y-60154819D02*
X188781905Y-59154819D01*
X188781905Y-59154819D02*
X189162857Y-59154819D01*
X189162857Y-59154819D02*
X189258095Y-59202438D01*
X189258095Y-59202438D02*
X189305714Y-59250057D01*
X189305714Y-59250057D02*
X189353333Y-59345295D01*
X189353333Y-59345295D02*
X189353333Y-59488152D01*
X189353333Y-59488152D02*
X189305714Y-59583390D01*
X189305714Y-59583390D02*
X189258095Y-59631009D01*
X189258095Y-59631009D02*
X189162857Y-59678628D01*
X189162857Y-59678628D02*
X188781905Y-59678628D01*
X190305714Y-60154819D02*
X189734286Y-60154819D01*
X190020000Y-60154819D02*
X190020000Y-59154819D01*
X190020000Y-59154819D02*
X189924762Y-59297676D01*
X189924762Y-59297676D02*
X189829524Y-59392914D01*
X189829524Y-59392914D02*
X189734286Y-59440533D01*
X203591905Y-98814819D02*
X203591905Y-97814819D01*
X203591905Y-97814819D02*
X203830000Y-97814819D01*
X203830000Y-97814819D02*
X203972857Y-97862438D01*
X203972857Y-97862438D02*
X204068095Y-97957676D01*
X204068095Y-97957676D02*
X204115714Y-98052914D01*
X204115714Y-98052914D02*
X204163333Y-98243390D01*
X204163333Y-98243390D02*
X204163333Y-98386247D01*
X204163333Y-98386247D02*
X204115714Y-98576723D01*
X204115714Y-98576723D02*
X204068095Y-98671961D01*
X204068095Y-98671961D02*
X203972857Y-98767200D01*
X203972857Y-98767200D02*
X203830000Y-98814819D01*
X203830000Y-98814819D02*
X203591905Y-98814819D01*
X204496667Y-97814819D02*
X205115714Y-97814819D01*
X205115714Y-97814819D02*
X204782381Y-98195771D01*
X204782381Y-98195771D02*
X204925238Y-98195771D01*
X204925238Y-98195771D02*
X205020476Y-98243390D01*
X205020476Y-98243390D02*
X205068095Y-98291009D01*
X205068095Y-98291009D02*
X205115714Y-98386247D01*
X205115714Y-98386247D02*
X205115714Y-98624342D01*
X205115714Y-98624342D02*
X205068095Y-98719580D01*
X205068095Y-98719580D02*
X205020476Y-98767200D01*
X205020476Y-98767200D02*
X204925238Y-98814819D01*
X204925238Y-98814819D02*
X204639524Y-98814819D01*
X204639524Y-98814819D02*
X204544286Y-98767200D01*
X204544286Y-98767200D02*
X204496667Y-98719580D01*
X203741905Y-86314819D02*
X203741905Y-85314819D01*
X203741905Y-85314819D02*
X203980000Y-85314819D01*
X203980000Y-85314819D02*
X204122857Y-85362438D01*
X204122857Y-85362438D02*
X204218095Y-85457676D01*
X204218095Y-85457676D02*
X204265714Y-85552914D01*
X204265714Y-85552914D02*
X204313333Y-85743390D01*
X204313333Y-85743390D02*
X204313333Y-85886247D01*
X204313333Y-85886247D02*
X204265714Y-86076723D01*
X204265714Y-86076723D02*
X204218095Y-86171961D01*
X204218095Y-86171961D02*
X204122857Y-86267200D01*
X204122857Y-86267200D02*
X203980000Y-86314819D01*
X203980000Y-86314819D02*
X203741905Y-86314819D01*
X204694286Y-85410057D02*
X204741905Y-85362438D01*
X204741905Y-85362438D02*
X204837143Y-85314819D01*
X204837143Y-85314819D02*
X205075238Y-85314819D01*
X205075238Y-85314819D02*
X205170476Y-85362438D01*
X205170476Y-85362438D02*
X205218095Y-85410057D01*
X205218095Y-85410057D02*
X205265714Y-85505295D01*
X205265714Y-85505295D02*
X205265714Y-85600533D01*
X205265714Y-85600533D02*
X205218095Y-85743390D01*
X205218095Y-85743390D02*
X204646667Y-86314819D01*
X204646667Y-86314819D02*
X205265714Y-86314819D01*
X198974819Y-63828094D02*
X197974819Y-63828094D01*
X197974819Y-63828094D02*
X197974819Y-63589999D01*
X197974819Y-63589999D02*
X198022438Y-63447142D01*
X198022438Y-63447142D02*
X198117676Y-63351904D01*
X198117676Y-63351904D02*
X198212914Y-63304285D01*
X198212914Y-63304285D02*
X198403390Y-63256666D01*
X198403390Y-63256666D02*
X198546247Y-63256666D01*
X198546247Y-63256666D02*
X198736723Y-63304285D01*
X198736723Y-63304285D02*
X198831961Y-63351904D01*
X198831961Y-63351904D02*
X198927200Y-63447142D01*
X198927200Y-63447142D02*
X198974819Y-63589999D01*
X198974819Y-63589999D02*
X198974819Y-63828094D01*
X198974819Y-62304285D02*
X198974819Y-62875713D01*
X198974819Y-62589999D02*
X197974819Y-62589999D01*
X197974819Y-62589999D02*
X198117676Y-62685237D01*
X198117676Y-62685237D02*
X198212914Y-62780475D01*
X198212914Y-62780475D02*
X198260533Y-62875713D01*
X181334819Y-42303333D02*
X182049104Y-42303333D01*
X182049104Y-42303333D02*
X182191961Y-42350952D01*
X182191961Y-42350952D02*
X182287200Y-42446190D01*
X182287200Y-42446190D02*
X182334819Y-42589047D01*
X182334819Y-42589047D02*
X182334819Y-42684285D01*
X182334819Y-41303333D02*
X182334819Y-41874761D01*
X182334819Y-41589047D02*
X181334819Y-41589047D01*
X181334819Y-41589047D02*
X181477676Y-41684285D01*
X181477676Y-41684285D02*
X181572914Y-41779523D01*
X181572914Y-41779523D02*
X181620533Y-41874761D01*
%TO.C,SW1*%
D11*
X214850000Y-94400000D02*
X221750000Y-94400000D01*
X221750000Y-81600000D01*
X214850000Y-81600000D01*
X214850000Y-94400000D01*
D12*
%TO.C,RV2*%
X229580000Y-75960000D02*
X222740000Y-75960000D01*
X222740000Y-73050000D02*
X222740000Y-75960000D01*
X229580000Y-73050000D02*
X229580000Y-75960000D01*
X222740000Y-68720000D02*
X222740000Y-71750000D01*
X229580000Y-68720000D02*
X229580000Y-71750000D01*
X229580000Y-68720000D02*
X222740000Y-68720000D01*
%TO.C,RV1*%
X188410000Y-79530000D02*
X195250000Y-79530000D01*
X188410000Y-79530000D02*
X188410000Y-76500000D01*
X195250000Y-79530000D02*
X195250000Y-76500000D01*
X188410000Y-75200000D02*
X188410000Y-72290000D01*
X195250000Y-75200000D02*
X195250000Y-72290000D01*
X188410000Y-72290000D02*
X195250000Y-72290000D01*
%TO.C,R4*%
X211750000Y-86870000D02*
X211750000Y-86100000D01*
X210380000Y-86100000D02*
X213120000Y-86100000D01*
X213120000Y-86100000D02*
X213120000Y-79560000D01*
X210380000Y-79560000D02*
X210380000Y-86100000D01*
X213120000Y-79560000D02*
X210380000Y-79560000D01*
X211750000Y-78790000D02*
X211750000Y-79560000D01*
%TO.C,R3*%
X193320000Y-88250000D02*
X192550000Y-88250000D01*
X192550000Y-89620000D02*
X192550000Y-86880000D01*
X192550000Y-86880000D02*
X186010000Y-86880000D01*
X186010000Y-89620000D02*
X192550000Y-89620000D01*
X186010000Y-86880000D02*
X186010000Y-89620000D01*
X185240000Y-88250000D02*
X186010000Y-88250000D01*
%TO.C,R2*%
X197080000Y-69000000D02*
X197850000Y-69000000D01*
X197850000Y-67630000D02*
X197850000Y-70370000D01*
X197850000Y-70370000D02*
X204390000Y-70370000D01*
X204390000Y-67630000D02*
X197850000Y-67630000D01*
X204390000Y-70370000D02*
X204390000Y-67630000D01*
X205160000Y-69000000D02*
X204390000Y-69000000D01*
%TO.C,R1*%
X185480000Y-62070000D02*
X186250000Y-62070000D01*
X186250000Y-60700000D02*
X186250000Y-63440000D01*
X186250000Y-63440000D02*
X192790000Y-63440000D01*
X192790000Y-60700000D02*
X186250000Y-60700000D01*
X192790000Y-63440000D02*
X192790000Y-60700000D01*
X193560000Y-62070000D02*
X192790000Y-62070000D01*
%TO.C,D3*%
X206830000Y-94400000D02*
G75*
G02*
X201830000Y-94400000I-2500000J0D01*
G01*
X201830000Y-94400000D02*
G75*
G02*
X206830000Y-94400000I2500000J0D01*
G01*
X201340000Y-94400462D02*
G75*
G02*
X206890000Y-92855170I2990000J462D01*
G01*
X206889999Y-95944830D02*
G75*
G02*
X201340001Y-94399538I-2559999J1544830D01*
G01*
X206890000Y-95945000D02*
X206890000Y-92855000D01*
%TO.C,D2*%
X206980000Y-81900000D02*
G75*
G02*
X201980000Y-81900000I-2500000J0D01*
G01*
X201980000Y-81900000D02*
G75*
G02*
X206980000Y-81900000I2500000J0D01*
G01*
X201490000Y-81900462D02*
G75*
G02*
X207040000Y-80355170I2990000J462D01*
G01*
X207039999Y-83444830D02*
G75*
G02*
X201490001Y-81899538I-2559999J1544830D01*
G01*
X207040000Y-83445000D02*
X207040000Y-80355000D01*
%TO.C,D1*%
X203670000Y-65460000D02*
X203670000Y-61210000D01*
X203669999Y-65459999D02*
G75*
G02*
X203665162Y-61216245I-1649999J2119999D01*
G01*
%TO.C,J1*%
X182880000Y-47625000D02*
X182880000Y-46355000D01*
X184150000Y-47625000D02*
X182880000Y-47625000D01*
X227710000Y-45312071D02*
X227710000Y-44915000D01*
X226950000Y-45312071D02*
X226950000Y-44915000D01*
X227710000Y-36255000D02*
X227710000Y-42255000D01*
X226950000Y-36255000D02*
X227710000Y-36255000D01*
X226950000Y-42255000D02*
X226950000Y-36255000D01*
X226060000Y-44915000D02*
X226060000Y-42255000D01*
X225170000Y-45312071D02*
X225170000Y-44915000D01*
X224410000Y-45312071D02*
X224410000Y-44915000D01*
X225170000Y-36255000D02*
X225170000Y-42255000D01*
X224410000Y-36255000D02*
X225170000Y-36255000D01*
X224410000Y-42255000D02*
X224410000Y-36255000D01*
X223520000Y-44915000D02*
X223520000Y-42255000D01*
X222630000Y-45312071D02*
X222630000Y-44915000D01*
X221870000Y-45312071D02*
X221870000Y-44915000D01*
X222630000Y-36255000D02*
X222630000Y-42255000D01*
X221870000Y-36255000D02*
X222630000Y-36255000D01*
X221870000Y-42255000D02*
X221870000Y-36255000D01*
X220980000Y-44915000D02*
X220980000Y-42255000D01*
X220090000Y-45312071D02*
X220090000Y-44915000D01*
X219330000Y-45312071D02*
X219330000Y-44915000D01*
X220090000Y-36255000D02*
X220090000Y-42255000D01*
X219330000Y-36255000D02*
X220090000Y-36255000D01*
X219330000Y-42255000D02*
X219330000Y-36255000D01*
X218440000Y-44915000D02*
X218440000Y-42255000D01*
X217550000Y-45312071D02*
X217550000Y-44915000D01*
X216790000Y-45312071D02*
X216790000Y-44915000D01*
X217550000Y-36255000D02*
X217550000Y-42255000D01*
X216790000Y-36255000D02*
X217550000Y-36255000D01*
X216790000Y-42255000D02*
X216790000Y-36255000D01*
X215900000Y-44915000D02*
X215900000Y-42255000D01*
X215010000Y-45312071D02*
X215010000Y-44915000D01*
X214250000Y-45312071D02*
X214250000Y-44915000D01*
X215010000Y-36255000D02*
X215010000Y-42255000D01*
X214250000Y-36255000D02*
X215010000Y-36255000D01*
X214250000Y-42255000D02*
X214250000Y-36255000D01*
X213360000Y-44915000D02*
X213360000Y-42255000D01*
X212470000Y-45312071D02*
X212470000Y-44915000D01*
X211710000Y-45312071D02*
X211710000Y-44915000D01*
X212470000Y-36255000D02*
X212470000Y-42255000D01*
X211710000Y-36255000D02*
X212470000Y-36255000D01*
X211710000Y-42255000D02*
X211710000Y-36255000D01*
X210820000Y-44915000D02*
X210820000Y-42255000D01*
X209930000Y-45312071D02*
X209930000Y-44915000D01*
X209170000Y-45312071D02*
X209170000Y-44915000D01*
X209930000Y-36255000D02*
X209930000Y-42255000D01*
X209170000Y-36255000D02*
X209930000Y-36255000D01*
X209170000Y-42255000D02*
X209170000Y-36255000D01*
X208280000Y-44915000D02*
X208280000Y-42255000D01*
X207390000Y-45312071D02*
X207390000Y-44915000D01*
X206630000Y-45312071D02*
X206630000Y-44915000D01*
X207390000Y-36255000D02*
X207390000Y-42255000D01*
X206630000Y-36255000D02*
X207390000Y-36255000D01*
X206630000Y-42255000D02*
X206630000Y-36255000D01*
X205740000Y-44915000D02*
X205740000Y-42255000D01*
X204850000Y-45312071D02*
X204850000Y-44915000D01*
X204090000Y-45312071D02*
X204090000Y-44915000D01*
X204850000Y-36255000D02*
X204850000Y-42255000D01*
X204090000Y-36255000D02*
X204850000Y-36255000D01*
X204090000Y-42255000D02*
X204090000Y-36255000D01*
X203200000Y-44915000D02*
X203200000Y-42255000D01*
X202310000Y-45312071D02*
X202310000Y-44915000D01*
X201550000Y-45312071D02*
X201550000Y-44915000D01*
X202310000Y-36255000D02*
X202310000Y-42255000D01*
X201550000Y-36255000D02*
X202310000Y-36255000D01*
X201550000Y-42255000D02*
X201550000Y-36255000D01*
X200660000Y-44915000D02*
X200660000Y-42255000D01*
X199770000Y-45312071D02*
X199770000Y-44915000D01*
X199010000Y-45312071D02*
X199010000Y-44915000D01*
X199770000Y-36255000D02*
X199770000Y-42255000D01*
X199010000Y-36255000D02*
X199770000Y-36255000D01*
X199010000Y-42255000D02*
X199010000Y-36255000D01*
X198120000Y-44915000D02*
X198120000Y-42255000D01*
X197230000Y-45312071D02*
X197230000Y-44915000D01*
X196470000Y-45312071D02*
X196470000Y-44915000D01*
X197230000Y-36255000D02*
X197230000Y-42255000D01*
X196470000Y-36255000D02*
X197230000Y-36255000D01*
X196470000Y-42255000D02*
X196470000Y-36255000D01*
X195580000Y-44915000D02*
X195580000Y-42255000D01*
X194690000Y-45312071D02*
X194690000Y-44915000D01*
X193930000Y-45312071D02*
X193930000Y-44915000D01*
X194690000Y-36255000D02*
X194690000Y-42255000D01*
X193930000Y-36255000D02*
X194690000Y-36255000D01*
X193930000Y-42255000D02*
X193930000Y-36255000D01*
X193040000Y-44915000D02*
X193040000Y-42255000D01*
X192150000Y-45312071D02*
X192150000Y-44915000D01*
X191390000Y-45312071D02*
X191390000Y-44915000D01*
X192150000Y-36255000D02*
X192150000Y-42255000D01*
X191390000Y-36255000D02*
X192150000Y-36255000D01*
X191390000Y-42255000D02*
X191390000Y-36255000D01*
X190500000Y-44915000D02*
X190500000Y-42255000D01*
X189610000Y-45312071D02*
X189610000Y-44915000D01*
X188850000Y-45312071D02*
X188850000Y-44915000D01*
X189610000Y-36255000D02*
X189610000Y-42255000D01*
X188850000Y-36255000D02*
X189610000Y-36255000D01*
X188850000Y-42255000D02*
X188850000Y-36255000D01*
X187960000Y-44915000D02*
X187960000Y-42255000D01*
X187070000Y-45312071D02*
X187070000Y-44915000D01*
X186310000Y-45312071D02*
X186310000Y-44915000D01*
X187070000Y-36255000D02*
X187070000Y-42255000D01*
X186310000Y-36255000D02*
X187070000Y-36255000D01*
X186310000Y-42255000D02*
X186310000Y-36255000D01*
X185420000Y-44915000D02*
X185420000Y-42255000D01*
X184530000Y-45245000D02*
X184530000Y-44915000D01*
X183770000Y-45245000D02*
X183770000Y-44915000D01*
X184430000Y-42255000D02*
X184430000Y-36255000D01*
X184310000Y-42255000D02*
X184310000Y-36255000D01*
X184190000Y-42255000D02*
X184190000Y-36255000D01*
X184070000Y-42255000D02*
X184070000Y-36255000D01*
X183950000Y-42255000D02*
X183950000Y-36255000D01*
X183830000Y-42255000D02*
X183830000Y-36255000D01*
X184530000Y-36255000D02*
X184530000Y-42255000D01*
X183770000Y-36255000D02*
X184530000Y-36255000D01*
X183770000Y-42255000D02*
X183770000Y-36255000D01*
X182820000Y-42255000D02*
X182820000Y-44915000D01*
X228660000Y-42255000D02*
X182820000Y-42255000D01*
X228660000Y-44915000D02*
X228660000Y-42255000D01*
X182820000Y-44915000D02*
X228660000Y-44915000D01*
%TD*%
M02*
