M48
; DRILL file {KiCad 8.0.0} date 2024-03-15T09:10:02+0100
; FORMAT={-:-/ absolute / inch / decimal}
; #@! TF.CreationDate,2024-03-15T09:10:02+01:00
; #@! TF.GenerationSoftware,Kicad,Pcbnew,8.0.0
; #@! TF.FileFunction,Plated,1,2,PTH
FMAT,2
INCH
; #@! TA.AperFunction,Plated,PTH,ComponentDrill
T1C0.0276
; #@! TA.AperFunction,Plated,PTH,ComponentDrill
T2C0.0307
; #@! TA.AperFunction,Plated,PTH,ComponentDrill
T3C0.0315
; #@! TA.AperFunction,Plated,PTH,ComponentDrill
T4C0.0354
; #@! TA.AperFunction,Plated,PTH,ComponentDrill
T5C0.0394
%
G90
G05
T1
X7.9535Y-2.4429
X7.9535Y-2.5437
T3
X7.252Y-3.4744
X7.2614Y-2.4437
X7.4524Y-2.9862
X7.5524Y-2.8862
X7.652Y-3.4744
X7.6524Y-2.9862
X7.6614Y-2.4437
X7.7181Y-2.7165
X8.1181Y-2.7165
X8.3366Y-3.061
X8.3366Y-3.461
X8.8039Y-2.8504
X8.9039Y-2.9504
X9.0039Y-2.8504
T4
X7.9945Y-3.7165
X8.0004Y-3.2244
X8.0945Y-3.7165
X8.1004Y-3.2244
T5
X7.25Y-1.825
X7.35Y-1.825
X7.45Y-1.825
X7.55Y-1.825
X7.65Y-1.825
X7.75Y-1.825
X7.85Y-1.825
X7.95Y-1.825
X8.05Y-1.825
X8.15Y-1.825
X8.25Y-1.825
X8.35Y-1.825
X8.45Y-1.825
X8.55Y-1.825
X8.65Y-1.825
X8.75Y-1.825
X8.85Y-1.825
X8.95Y-1.825
T2
G00X8.5656Y-3.2756
M15
G01X8.6156Y-3.2756
M16
G05
G00X8.5656Y-3.4606
M15
G01X8.6156Y-3.4606
M16
G05
G00X8.5656Y-3.6457
M15
G01X8.6156Y-3.6457
M16
G05
M30
