%TF.GenerationSoftware,KiCad,Pcbnew,8.0.0*%
%TF.CreationDate,2024-03-15T09:09:59+01:00*%
%TF.ProjectId,carte_LED_Photodiode_carac,63617274-655f-44c4-9544-5f50686f746f,rev?*%
%TF.SameCoordinates,Original*%
%TF.FileFunction,Copper,L1,Top*%
%TF.FilePolarity,Positive*%
%FSLAX46Y46*%
G04 Gerber Fmt 4.6, Leading zero omitted, Abs format (unit mm)*
G04 Created by KiCad (PCBNEW 8.0.0) date 2024-03-15 09:09:59*
%MOMM*%
%LPD*%
G01*
G04 APERTURE LIST*
G04 Aperture macros list*
%AMRoundRect*
0 Rectangle with rounded corners*
0 $1 Rounding radius*
0 $2 $3 $4 $5 $6 $7 $8 $9 X,Y pos of 4 corners*
0 Add a 4 corners polygon primitive as box body*
4,1,4,$2,$3,$4,$5,$6,$7,$8,$9,$2,$3,0*
0 Add four circle primitives for the rounded corners*
1,1,$1+$1,$2,$3*
1,1,$1+$1,$4,$5*
1,1,$1+$1,$6,$7*
1,1,$1+$1,$8,$9*
0 Add four rect primitives between the rounded corners*
20,1,$1+$1,$2,$3,$4,$5,0*
20,1,$1+$1,$4,$5,$6,$7,0*
20,1,$1+$1,$6,$7,$8,$9,0*
20,1,$1+$1,$8,$9,$2,$3,0*%
G04 Aperture macros list end*
%TA.AperFunction,ComponentPad*%
%ADD10O,3.000000X2.000000*%
%TD*%
%TA.AperFunction,ComponentPad*%
%ADD11C,1.440000*%
%TD*%
%TA.AperFunction,ComponentPad*%
%ADD12O,1.600000X1.600000*%
%TD*%
%TA.AperFunction,ComponentPad*%
%ADD13C,1.600000*%
%TD*%
%TA.AperFunction,ComponentPad*%
%ADD14C,1.800000*%
%TD*%
%TA.AperFunction,ComponentPad*%
%ADD15R,1.800000X1.800000*%
%TD*%
%TA.AperFunction,ComponentPad*%
%ADD16RoundRect,0.249200X0.450800X-0.450800X0.450800X0.450800X-0.450800X0.450800X-0.450800X-0.450800X0*%
%TD*%
%TA.AperFunction,ComponentPad*%
%ADD17C,1.400000*%
%TD*%
%TA.AperFunction,ComponentPad*%
%ADD18R,1.700000X1.700000*%
%TD*%
%TA.AperFunction,ComponentPad*%
%ADD19O,1.700000X1.700000*%
%TD*%
G04 APERTURE END LIST*
D10*
%TO.P,SW1,3,C*%
%TO.N,Net-(D2-K)*%
X218200000Y-83200000D03*
%TO.P,SW1,2,B*%
%TO.N,OUT4*%
X218200000Y-87900000D03*
%TO.P,SW1,1,A*%
%TO.N,Net-(D3-K)*%
X218200000Y-92600000D03*
%TD*%
D11*
%TO.P,RV2,3,3*%
%TO.N,GND*%
X228700000Y-72400000D03*
%TO.P,RV2,2,2*%
X226160000Y-74940000D03*
%TO.P,RV2,1,1*%
%TO.N,Net-(R4-Pad1)*%
X223620000Y-72400000D03*
%TD*%
%TO.P,RV1,1,1*%
%TO.N,Net-(R2-Pad1)*%
X194370000Y-75850000D03*
%TO.P,RV1,2,2*%
%TO.N,GND*%
X191830000Y-73310000D03*
%TO.P,RV1,3,3*%
X189290000Y-75850000D03*
%TD*%
D12*
%TO.P,R4,2*%
%TO.N,OUT4*%
X211750000Y-87910000D03*
D13*
%TO.P,R4,1*%
%TO.N,Net-(R4-Pad1)*%
X211750000Y-77750000D03*
%TD*%
D12*
%TO.P,R3,2*%
%TO.N,OUT3*%
X194360000Y-88250000D03*
D13*
%TO.P,R3,1*%
%TO.N,IN1*%
X184200000Y-88250000D03*
%TD*%
D12*
%TO.P,R2,2*%
%TO.N,OUT2*%
X196040000Y-69000000D03*
D13*
%TO.P,R2,1*%
%TO.N,Net-(R2-Pad1)*%
X206200000Y-69000000D03*
%TD*%
%TO.P,R1,1*%
%TO.N,IN1*%
X184440000Y-62070000D03*
D12*
%TO.P,R1,2*%
%TO.N,OUT1*%
X194600000Y-62070000D03*
%TD*%
D14*
%TO.P,D3,2,A*%
%TO.N,OUT3*%
X203060000Y-94400000D03*
D15*
%TO.P,D3,1,K*%
%TO.N,Net-(D3-K)*%
X205600000Y-94400000D03*
%TD*%
D14*
%TO.P,D2,2,A*%
%TO.N,OUT3*%
X203210000Y-81900000D03*
D15*
%TO.P,D2,1,K*%
%TO.N,Net-(D2-K)*%
X205750000Y-81900000D03*
%TD*%
D16*
%TO.P,D1,1,K*%
%TO.N,OUT2*%
X202020000Y-64610000D03*
D17*
%TO.P,D1,2,A*%
%TO.N,OUT1*%
X202020000Y-62050000D03*
%TD*%
D18*
%TO.P,J1,1,Pin_1*%
%TO.N,unconnected-(J1-Pin_1-Pad1)*%
X184150000Y-46355000D03*
D19*
%TO.P,J1,2,Pin_2*%
%TO.N,unconnected-(J1-Pin_2-Pad2)*%
X186690000Y-46355000D03*
%TO.P,J1,3,Pin_3*%
%TO.N,unconnected-(J1-Pin_3-Pad3)*%
X189230000Y-46355000D03*
%TO.P,J1,4,Pin_4*%
%TO.N,GND*%
X191770000Y-46355000D03*
%TO.P,J1,5,Pin_5*%
%TO.N,IN1*%
X194310000Y-46355000D03*
%TO.P,J1,6,Pin_6*%
%TO.N,IN2*%
X196850000Y-46355000D03*
%TO.P,J1,7,Pin_7*%
%TO.N,GND*%
X199390000Y-46355000D03*
%TO.P,J1,8,Pin_8*%
%TO.N,OUT1*%
X201930000Y-46355000D03*
%TO.P,J1,9,Pin_9*%
%TO.N,OUT2*%
X204470000Y-46355000D03*
%TO.P,J1,10,Pin_10*%
%TO.N,OUT3*%
X207010000Y-46355000D03*
%TO.P,J1,11,Pin_11*%
%TO.N,OUT4*%
X209550000Y-46355000D03*
%TO.P,J1,12,Pin_12*%
%TO.N,GND*%
X212090000Y-46355000D03*
%TO.P,J1,13,Pin_13*%
%TO.N,-15V*%
X214630000Y-46355000D03*
%TO.P,J1,14,Pin_14*%
%TO.N,GND*%
X217170000Y-46355000D03*
%TO.P,J1,15,Pin_15*%
%TO.N,+15V*%
X219710000Y-46355000D03*
%TO.P,J1,16,Pin_16*%
%TO.N,GND*%
X222250000Y-46355000D03*
%TO.P,J1,17,Pin_17*%
%TO.N,5V*%
X224790000Y-46355000D03*
%TO.P,J1,18,Pin_18*%
%TO.N,3.3V*%
X227330000Y-46355000D03*
%TD*%
M02*
