%TF.GenerationSoftware,KiCad,Pcbnew,8.0.0*%
%TF.CreationDate,2024-03-15T09:09:59+01:00*%
%TF.ProjectId,carte_LED_Photodiode_carac,63617274-655f-44c4-9544-5f50686f746f,rev?*%
%TF.SameCoordinates,Original*%
%TF.FileFunction,Copper,L2,Bot*%
%TF.FilePolarity,Positive*%
%FSLAX46Y46*%
G04 Gerber Fmt 4.6, Leading zero omitted, Abs format (unit mm)*
G04 Created by KiCad (PCBNEW 8.0.0) date 2024-03-15 09:09:59*
%MOMM*%
%LPD*%
G01*
G04 APERTURE LIST*
G04 Aperture macros list*
%AMRoundRect*
0 Rectangle with rounded corners*
0 $1 Rounding radius*
0 $2 $3 $4 $5 $6 $7 $8 $9 X,Y pos of 4 corners*
0 Add a 4 corners polygon primitive as box body*
4,1,4,$2,$3,$4,$5,$6,$7,$8,$9,$2,$3,0*
0 Add four circle primitives for the rounded corners*
1,1,$1+$1,$2,$3*
1,1,$1+$1,$4,$5*
1,1,$1+$1,$6,$7*
1,1,$1+$1,$8,$9*
0 Add four rect primitives between the rounded corners*
20,1,$1+$1,$2,$3,$4,$5,0*
20,1,$1+$1,$4,$5,$6,$7,0*
20,1,$1+$1,$6,$7,$8,$9,0*
20,1,$1+$1,$8,$9,$2,$3,0*%
G04 Aperture macros list end*
%ADD10C,0.200000*%
%TA.AperFunction,NonConductor*%
%ADD11C,0.200000*%
%TD*%
%TA.AperFunction,ComponentPad*%
%ADD12O,3.000000X2.000000*%
%TD*%
%TA.AperFunction,ComponentPad*%
%ADD13C,1.440000*%
%TD*%
%TA.AperFunction,ComponentPad*%
%ADD14O,1.600000X1.600000*%
%TD*%
%TA.AperFunction,ComponentPad*%
%ADD15C,1.600000*%
%TD*%
%TA.AperFunction,ComponentPad*%
%ADD16C,1.800000*%
%TD*%
%TA.AperFunction,ComponentPad*%
%ADD17R,1.800000X1.800000*%
%TD*%
%TA.AperFunction,ComponentPad*%
%ADD18RoundRect,0.249200X0.450800X-0.450800X0.450800X0.450800X-0.450800X0.450800X-0.450800X-0.450800X0*%
%TD*%
%TA.AperFunction,ComponentPad*%
%ADD19C,1.400000*%
%TD*%
%TA.AperFunction,ComponentPad*%
%ADD20R,1.700000X1.700000*%
%TD*%
%TA.AperFunction,ComponentPad*%
%ADD21O,1.700000X1.700000*%
%TD*%
%TA.AperFunction,Conductor*%
%ADD22C,1.000000*%
%TD*%
G04 APERTURE END LIST*
D10*
D11*
X184861904Y-94952752D02*
X184385714Y-94952752D01*
X184385714Y-94952752D02*
X184385714Y-95952752D01*
X185195238Y-95476562D02*
X185528571Y-95476562D01*
X185671428Y-94952752D02*
X185195238Y-94952752D01*
X185195238Y-94952752D02*
X185195238Y-95952752D01*
X185195238Y-95952752D02*
X185671428Y-95952752D01*
X186100000Y-95619419D02*
X186100000Y-94952752D01*
X186100000Y-95524181D02*
X186147619Y-95571800D01*
X186147619Y-95571800D02*
X186242857Y-95619419D01*
X186242857Y-95619419D02*
X186385714Y-95619419D01*
X186385714Y-95619419D02*
X186480952Y-95571800D01*
X186480952Y-95571800D02*
X186528571Y-95476562D01*
X186528571Y-95476562D02*
X186528571Y-94952752D01*
X186957143Y-95000372D02*
X187052381Y-94952752D01*
X187052381Y-94952752D02*
X187242857Y-94952752D01*
X187242857Y-94952752D02*
X187338095Y-95000372D01*
X187338095Y-95000372D02*
X187385714Y-95095610D01*
X187385714Y-95095610D02*
X187385714Y-95143229D01*
X187385714Y-95143229D02*
X187338095Y-95238467D01*
X187338095Y-95238467D02*
X187242857Y-95286086D01*
X187242857Y-95286086D02*
X187100000Y-95286086D01*
X187100000Y-95286086D02*
X187004762Y-95333705D01*
X187004762Y-95333705D02*
X186957143Y-95428943D01*
X186957143Y-95428943D02*
X186957143Y-95476562D01*
X186957143Y-95476562D02*
X187004762Y-95571800D01*
X187004762Y-95571800D02*
X187100000Y-95619419D01*
X187100000Y-95619419D02*
X187242857Y-95619419D01*
X187242857Y-95619419D02*
X187338095Y-95571800D01*
X187814286Y-95476562D02*
X188147619Y-95476562D01*
X188290476Y-94952752D02*
X187814286Y-94952752D01*
X187814286Y-94952752D02*
X187814286Y-95952752D01*
X187814286Y-95952752D02*
X188290476Y-95952752D01*
X189433334Y-95857514D02*
X189480953Y-95905133D01*
X189480953Y-95905133D02*
X189576191Y-95952752D01*
X189576191Y-95952752D02*
X189814286Y-95952752D01*
X189814286Y-95952752D02*
X189909524Y-95905133D01*
X189909524Y-95905133D02*
X189957143Y-95857514D01*
X189957143Y-95857514D02*
X190004762Y-95762276D01*
X190004762Y-95762276D02*
X190004762Y-95667038D01*
X190004762Y-95667038D02*
X189957143Y-95524181D01*
X189957143Y-95524181D02*
X189385715Y-94952752D01*
X189385715Y-94952752D02*
X190004762Y-94952752D01*
X190623810Y-95952752D02*
X190719048Y-95952752D01*
X190719048Y-95952752D02*
X190814286Y-95905133D01*
X190814286Y-95905133D02*
X190861905Y-95857514D01*
X190861905Y-95857514D02*
X190909524Y-95762276D01*
X190909524Y-95762276D02*
X190957143Y-95571800D01*
X190957143Y-95571800D02*
X190957143Y-95333705D01*
X190957143Y-95333705D02*
X190909524Y-95143229D01*
X190909524Y-95143229D02*
X190861905Y-95047991D01*
X190861905Y-95047991D02*
X190814286Y-95000372D01*
X190814286Y-95000372D02*
X190719048Y-94952752D01*
X190719048Y-94952752D02*
X190623810Y-94952752D01*
X190623810Y-94952752D02*
X190528572Y-95000372D01*
X190528572Y-95000372D02*
X190480953Y-95047991D01*
X190480953Y-95047991D02*
X190433334Y-95143229D01*
X190433334Y-95143229D02*
X190385715Y-95333705D01*
X190385715Y-95333705D02*
X190385715Y-95571800D01*
X190385715Y-95571800D02*
X190433334Y-95762276D01*
X190433334Y-95762276D02*
X190480953Y-95857514D01*
X190480953Y-95857514D02*
X190528572Y-95905133D01*
X190528572Y-95905133D02*
X190623810Y-95952752D01*
X191338096Y-95857514D02*
X191385715Y-95905133D01*
X191385715Y-95905133D02*
X191480953Y-95952752D01*
X191480953Y-95952752D02*
X191719048Y-95952752D01*
X191719048Y-95952752D02*
X191814286Y-95905133D01*
X191814286Y-95905133D02*
X191861905Y-95857514D01*
X191861905Y-95857514D02*
X191909524Y-95762276D01*
X191909524Y-95762276D02*
X191909524Y-95667038D01*
X191909524Y-95667038D02*
X191861905Y-95524181D01*
X191861905Y-95524181D02*
X191290477Y-94952752D01*
X191290477Y-94952752D02*
X191909524Y-94952752D01*
X192766667Y-95619419D02*
X192766667Y-94952752D01*
X192528572Y-96000372D02*
X192290477Y-95286086D01*
X192290477Y-95286086D02*
X192909524Y-95286086D01*
X180552380Y-93342808D02*
X180552380Y-94342808D01*
X180552380Y-94342808D02*
X180790475Y-94342808D01*
X180790475Y-94342808D02*
X180933332Y-94295189D01*
X180933332Y-94295189D02*
X181028570Y-94199951D01*
X181028570Y-94199951D02*
X181076189Y-94104713D01*
X181076189Y-94104713D02*
X181123808Y-93914237D01*
X181123808Y-93914237D02*
X181123808Y-93771380D01*
X181123808Y-93771380D02*
X181076189Y-93580904D01*
X181076189Y-93580904D02*
X181028570Y-93485666D01*
X181028570Y-93485666D02*
X180933332Y-93390428D01*
X180933332Y-93390428D02*
X180790475Y-93342808D01*
X180790475Y-93342808D02*
X180552380Y-93342808D01*
X181933332Y-93390428D02*
X181838094Y-93342808D01*
X181838094Y-93342808D02*
X181647618Y-93342808D01*
X181647618Y-93342808D02*
X181552380Y-93390428D01*
X181552380Y-93390428D02*
X181504761Y-93485666D01*
X181504761Y-93485666D02*
X181504761Y-93866618D01*
X181504761Y-93866618D02*
X181552380Y-93961856D01*
X181552380Y-93961856D02*
X181647618Y-94009475D01*
X181647618Y-94009475D02*
X181838094Y-94009475D01*
X181838094Y-94009475D02*
X181933332Y-93961856D01*
X181933332Y-93961856D02*
X181980951Y-93866618D01*
X181980951Y-93866618D02*
X181980951Y-93771380D01*
X181980951Y-93771380D02*
X181504761Y-93676142D01*
X181838094Y-94390428D02*
X181695237Y-94247570D01*
X182409523Y-93342808D02*
X182409523Y-94009475D01*
X182409523Y-93914237D02*
X182457142Y-93961856D01*
X182457142Y-93961856D02*
X182552380Y-94009475D01*
X182552380Y-94009475D02*
X182695237Y-94009475D01*
X182695237Y-94009475D02*
X182790475Y-93961856D01*
X182790475Y-93961856D02*
X182838094Y-93866618D01*
X182838094Y-93866618D02*
X182838094Y-93342808D01*
X182838094Y-93866618D02*
X182885713Y-93961856D01*
X182885713Y-93961856D02*
X182980951Y-94009475D01*
X182980951Y-94009475D02*
X183123808Y-94009475D01*
X183123808Y-94009475D02*
X183219047Y-93961856D01*
X183219047Y-93961856D02*
X183266666Y-93866618D01*
X183266666Y-93866618D02*
X183266666Y-93342808D01*
X183885713Y-93342808D02*
X183790475Y-93390428D01*
X183790475Y-93390428D02*
X183742856Y-93438047D01*
X183742856Y-93438047D02*
X183695237Y-93533285D01*
X183695237Y-93533285D02*
X183695237Y-93818999D01*
X183695237Y-93818999D02*
X183742856Y-93914237D01*
X183742856Y-93914237D02*
X183790475Y-93961856D01*
X183790475Y-93961856D02*
X183885713Y-94009475D01*
X183885713Y-94009475D02*
X184028570Y-94009475D01*
X184028570Y-94009475D02*
X184123808Y-93961856D01*
X184123808Y-93961856D02*
X184171427Y-93914237D01*
X184171427Y-93914237D02*
X184219046Y-93818999D01*
X184219046Y-93818999D02*
X184219046Y-93533285D01*
X184219046Y-93533285D02*
X184171427Y-93438047D01*
X184171427Y-93438047D02*
X184123808Y-93390428D01*
X184123808Y-93390428D02*
X184028570Y-93342808D01*
X184028570Y-93342808D02*
X183885713Y-93342808D01*
X185980951Y-93438047D02*
X185933332Y-93390428D01*
X185933332Y-93390428D02*
X185790475Y-93342808D01*
X185790475Y-93342808D02*
X185695237Y-93342808D01*
X185695237Y-93342808D02*
X185552380Y-93390428D01*
X185552380Y-93390428D02*
X185457142Y-93485666D01*
X185457142Y-93485666D02*
X185409523Y-93580904D01*
X185409523Y-93580904D02*
X185361904Y-93771380D01*
X185361904Y-93771380D02*
X185361904Y-93914237D01*
X185361904Y-93914237D02*
X185409523Y-94104713D01*
X185409523Y-94104713D02*
X185457142Y-94199951D01*
X185457142Y-94199951D02*
X185552380Y-94295189D01*
X185552380Y-94295189D02*
X185695237Y-94342808D01*
X185695237Y-94342808D02*
X185790475Y-94342808D01*
X185790475Y-94342808D02*
X185933332Y-94295189D01*
X185933332Y-94295189D02*
X185980951Y-94247570D01*
X186838094Y-93342808D02*
X186838094Y-93866618D01*
X186838094Y-93866618D02*
X186790475Y-93961856D01*
X186790475Y-93961856D02*
X186695237Y-94009475D01*
X186695237Y-94009475D02*
X186504761Y-94009475D01*
X186504761Y-94009475D02*
X186409523Y-93961856D01*
X186838094Y-93390428D02*
X186742856Y-93342808D01*
X186742856Y-93342808D02*
X186504761Y-93342808D01*
X186504761Y-93342808D02*
X186409523Y-93390428D01*
X186409523Y-93390428D02*
X186361904Y-93485666D01*
X186361904Y-93485666D02*
X186361904Y-93580904D01*
X186361904Y-93580904D02*
X186409523Y-93676142D01*
X186409523Y-93676142D02*
X186504761Y-93723761D01*
X186504761Y-93723761D02*
X186742856Y-93723761D01*
X186742856Y-93723761D02*
X186838094Y-93771380D01*
X187314285Y-93342808D02*
X187314285Y-94009475D01*
X187314285Y-93818999D02*
X187361904Y-93914237D01*
X187361904Y-93914237D02*
X187409523Y-93961856D01*
X187409523Y-93961856D02*
X187504761Y-94009475D01*
X187504761Y-94009475D02*
X187599999Y-94009475D01*
X188361904Y-93342808D02*
X188361904Y-93866618D01*
X188361904Y-93866618D02*
X188314285Y-93961856D01*
X188314285Y-93961856D02*
X188219047Y-94009475D01*
X188219047Y-94009475D02*
X188028571Y-94009475D01*
X188028571Y-94009475D02*
X187933333Y-93961856D01*
X188361904Y-93390428D02*
X188266666Y-93342808D01*
X188266666Y-93342808D02*
X188028571Y-93342808D01*
X188028571Y-93342808D02*
X187933333Y-93390428D01*
X187933333Y-93390428D02*
X187885714Y-93485666D01*
X187885714Y-93485666D02*
X187885714Y-93580904D01*
X187885714Y-93580904D02*
X187933333Y-93676142D01*
X187933333Y-93676142D02*
X188028571Y-93723761D01*
X188028571Y-93723761D02*
X188266666Y-93723761D01*
X188266666Y-93723761D02*
X188361904Y-93771380D01*
X189266666Y-93390428D02*
X189171428Y-93342808D01*
X189171428Y-93342808D02*
X188980952Y-93342808D01*
X188980952Y-93342808D02*
X188885714Y-93390428D01*
X188885714Y-93390428D02*
X188838095Y-93438047D01*
X188838095Y-93438047D02*
X188790476Y-93533285D01*
X188790476Y-93533285D02*
X188790476Y-93818999D01*
X188790476Y-93818999D02*
X188838095Y-93914237D01*
X188838095Y-93914237D02*
X188885714Y-93961856D01*
X188885714Y-93961856D02*
X188980952Y-94009475D01*
X188980952Y-94009475D02*
X189171428Y-94009475D01*
X189171428Y-94009475D02*
X189266666Y-93961856D01*
X190933333Y-93342808D02*
X190457143Y-93342808D01*
X190457143Y-93342808D02*
X190457143Y-94342808D01*
X191266667Y-93866618D02*
X191600000Y-93866618D01*
X191742857Y-93342808D02*
X191266667Y-93342808D01*
X191266667Y-93342808D02*
X191266667Y-94342808D01*
X191266667Y-94342808D02*
X191742857Y-94342808D01*
X192171429Y-93342808D02*
X192171429Y-94342808D01*
X192171429Y-94342808D02*
X192409524Y-94342808D01*
X192409524Y-94342808D02*
X192552381Y-94295189D01*
X192552381Y-94295189D02*
X192647619Y-94199951D01*
X192647619Y-94199951D02*
X192695238Y-94104713D01*
X192695238Y-94104713D02*
X192742857Y-93914237D01*
X192742857Y-93914237D02*
X192742857Y-93771380D01*
X192742857Y-93771380D02*
X192695238Y-93580904D01*
X192695238Y-93580904D02*
X192647619Y-93485666D01*
X192647619Y-93485666D02*
X192552381Y-93390428D01*
X192552381Y-93390428D02*
X192409524Y-93342808D01*
X192409524Y-93342808D02*
X192171429Y-93342808D01*
X193885714Y-94390428D02*
X193028572Y-93104713D01*
X194219048Y-93342808D02*
X194219048Y-94342808D01*
X194219048Y-94342808D02*
X194600000Y-94342808D01*
X194600000Y-94342808D02*
X194695238Y-94295189D01*
X194695238Y-94295189D02*
X194742857Y-94247570D01*
X194742857Y-94247570D02*
X194790476Y-94152332D01*
X194790476Y-94152332D02*
X194790476Y-94009475D01*
X194790476Y-94009475D02*
X194742857Y-93914237D01*
X194742857Y-93914237D02*
X194695238Y-93866618D01*
X194695238Y-93866618D02*
X194600000Y-93818999D01*
X194600000Y-93818999D02*
X194219048Y-93818999D01*
X195219048Y-93342808D02*
X195219048Y-94342808D01*
X195647619Y-93342808D02*
X195647619Y-93866618D01*
X195647619Y-93866618D02*
X195600000Y-93961856D01*
X195600000Y-93961856D02*
X195504762Y-94009475D01*
X195504762Y-94009475D02*
X195361905Y-94009475D01*
X195361905Y-94009475D02*
X195266667Y-93961856D01*
X195266667Y-93961856D02*
X195219048Y-93914237D01*
X196123810Y-93342808D02*
X196123810Y-94342808D01*
X196123810Y-94342808D02*
X196361905Y-94342808D01*
X196361905Y-94342808D02*
X196504762Y-94295189D01*
X196504762Y-94295189D02*
X196600000Y-94199951D01*
X196600000Y-94199951D02*
X196647619Y-94104713D01*
X196647619Y-94104713D02*
X196695238Y-93914237D01*
X196695238Y-93914237D02*
X196695238Y-93771380D01*
X196695238Y-93771380D02*
X196647619Y-93580904D01*
X196647619Y-93580904D02*
X196600000Y-93485666D01*
X196600000Y-93485666D02*
X196504762Y-93390428D01*
X196504762Y-93390428D02*
X196361905Y-93342808D01*
X196361905Y-93342808D02*
X196123810Y-93342808D01*
D12*
%TO.P,SW1,3,C*%
%TO.N,Net-(D2-K)*%
X218200000Y-83200000D03*
%TO.P,SW1,2,B*%
%TO.N,OUT4*%
X218200000Y-87900000D03*
%TO.P,SW1,1,A*%
%TO.N,Net-(D3-K)*%
X218200000Y-92600000D03*
%TD*%
D13*
%TO.P,RV2,3,3*%
%TO.N,GND*%
X228700000Y-72400000D03*
%TO.P,RV2,2,2*%
X226160000Y-74940000D03*
%TO.P,RV2,1,1*%
%TO.N,Net-(R4-Pad1)*%
X223620000Y-72400000D03*
%TD*%
%TO.P,RV1,1,1*%
%TO.N,Net-(R2-Pad1)*%
X194370000Y-75850000D03*
%TO.P,RV1,2,2*%
%TO.N,GND*%
X191830000Y-73310000D03*
%TO.P,RV1,3,3*%
X189290000Y-75850000D03*
%TD*%
D14*
%TO.P,R4,2*%
%TO.N,OUT4*%
X211750000Y-87910000D03*
D15*
%TO.P,R4,1*%
%TO.N,Net-(R4-Pad1)*%
X211750000Y-77750000D03*
%TD*%
D14*
%TO.P,R3,2*%
%TO.N,OUT3*%
X194360000Y-88250000D03*
D15*
%TO.P,R3,1*%
%TO.N,IN1*%
X184200000Y-88250000D03*
%TD*%
D14*
%TO.P,R2,2*%
%TO.N,OUT2*%
X196040000Y-69000000D03*
D15*
%TO.P,R2,1*%
%TO.N,Net-(R2-Pad1)*%
X206200000Y-69000000D03*
%TD*%
%TO.P,R1,1*%
%TO.N,IN1*%
X184440000Y-62070000D03*
D14*
%TO.P,R1,2*%
%TO.N,OUT1*%
X194600000Y-62070000D03*
%TD*%
D16*
%TO.P,D3,2,A*%
%TO.N,OUT3*%
X203060000Y-94400000D03*
D17*
%TO.P,D3,1,K*%
%TO.N,Net-(D3-K)*%
X205600000Y-94400000D03*
%TD*%
D16*
%TO.P,D2,2,A*%
%TO.N,OUT3*%
X203210000Y-81900000D03*
D17*
%TO.P,D2,1,K*%
%TO.N,Net-(D2-K)*%
X205750000Y-81900000D03*
%TD*%
D18*
%TO.P,D1,1,K*%
%TO.N,OUT2*%
X202020000Y-64610000D03*
D19*
%TO.P,D1,2,A*%
%TO.N,OUT1*%
X202020000Y-62050000D03*
%TD*%
D20*
%TO.P,J1,1,Pin_1*%
%TO.N,unconnected-(J1-Pin_1-Pad1)*%
X184150000Y-46355000D03*
D21*
%TO.P,J1,2,Pin_2*%
%TO.N,unconnected-(J1-Pin_2-Pad2)*%
X186690000Y-46355000D03*
%TO.P,J1,3,Pin_3*%
%TO.N,unconnected-(J1-Pin_3-Pad3)*%
X189230000Y-46355000D03*
%TO.P,J1,4,Pin_4*%
%TO.N,GND*%
X191770000Y-46355000D03*
%TO.P,J1,5,Pin_5*%
%TO.N,IN1*%
X194310000Y-46355000D03*
%TO.P,J1,6,Pin_6*%
%TO.N,IN2*%
X196850000Y-46355000D03*
%TO.P,J1,7,Pin_7*%
%TO.N,GND*%
X199390000Y-46355000D03*
%TO.P,J1,8,Pin_8*%
%TO.N,OUT1*%
X201930000Y-46355000D03*
%TO.P,J1,9,Pin_9*%
%TO.N,OUT2*%
X204470000Y-46355000D03*
%TO.P,J1,10,Pin_10*%
%TO.N,OUT3*%
X207010000Y-46355000D03*
%TO.P,J1,11,Pin_11*%
%TO.N,OUT4*%
X209550000Y-46355000D03*
%TO.P,J1,12,Pin_12*%
%TO.N,GND*%
X212090000Y-46355000D03*
%TO.P,J1,13,Pin_13*%
%TO.N,-15V*%
X214630000Y-46355000D03*
%TO.P,J1,14,Pin_14*%
%TO.N,GND*%
X217170000Y-46355000D03*
%TO.P,J1,15,Pin_15*%
%TO.N,+15V*%
X219710000Y-46355000D03*
%TO.P,J1,16,Pin_16*%
%TO.N,GND*%
X222250000Y-46355000D03*
%TO.P,J1,17,Pin_17*%
%TO.N,5V*%
X224790000Y-46355000D03*
%TO.P,J1,18,Pin_18*%
%TO.N,3.3V*%
X227330000Y-46355000D03*
%TD*%
D22*
%TO.N,IN1*%
X194310000Y-52090000D02*
X194310000Y-46355000D01*
X184200000Y-62200000D02*
X194310000Y-52090000D01*
X184200000Y-71950000D02*
X184200000Y-62200000D01*
%TO.N,OUT3*%
X207010000Y-49810000D02*
X207010000Y-46355000D01*
X210600000Y-53400000D02*
X207010000Y-49810000D01*
X210600000Y-69200000D02*
X210600000Y-53400000D01*
X203210000Y-76590000D02*
X210600000Y-69200000D01*
X203210000Y-81900000D02*
X203210000Y-76590000D01*
%TO.N,OUT4*%
X209550000Y-48350000D02*
X209550000Y-46355000D01*
X213800000Y-52600000D02*
X209550000Y-48350000D01*
X208200000Y-76000000D02*
X213800000Y-70400000D01*
X208200000Y-78600000D02*
X208200000Y-76000000D01*
X210600000Y-81000000D02*
X208200000Y-78600000D01*
X215000000Y-81000000D02*
X210600000Y-81000000D01*
X220700000Y-77200000D02*
X218800000Y-77200000D01*
X223400000Y-79900000D02*
X220700000Y-77200000D01*
X213800000Y-70400000D02*
X213800000Y-52600000D01*
X221400000Y-87850000D02*
X223400000Y-85850000D01*
X218100000Y-87850000D02*
X221400000Y-87850000D01*
X218040000Y-87910000D02*
X218100000Y-87850000D01*
X223400000Y-85850000D02*
X223400000Y-79900000D01*
X211750000Y-87910000D02*
X218040000Y-87910000D01*
X218800000Y-77200000D02*
X215000000Y-81000000D01*
%TO.N,Net-(D2-K)*%
X217050000Y-84200000D02*
X208050000Y-84200000D01*
X218100000Y-83150000D02*
X217050000Y-84200000D01*
X208050000Y-84200000D02*
X205750000Y-81900000D01*
%TO.N,OUT2*%
X196040000Y-68960000D02*
X196040000Y-69000000D01*
X200390000Y-64610000D02*
X196040000Y-68960000D01*
X202020000Y-64610000D02*
X200390000Y-64610000D01*
%TO.N,Net-(R2-Pad1)*%
X199350000Y-75850000D02*
X206200000Y-69000000D01*
X194370000Y-75850000D02*
X199350000Y-75850000D01*
%TO.N,Net-(R4-Pad1)*%
X218400000Y-72400000D02*
X223620000Y-72400000D01*
X213050000Y-77750000D02*
X218400000Y-72400000D01*
X211750000Y-77750000D02*
X213050000Y-77750000D01*
%TO.N,Net-(D3-K)*%
X205600000Y-94400000D02*
X207450000Y-92550000D01*
%TO.N,OUT3*%
X196910000Y-88250000D02*
X203060000Y-94400000D01*
%TO.N,IN1*%
X184200000Y-72190000D02*
X184200000Y-88250000D01*
%TO.N,OUT2*%
X204470000Y-63650000D02*
X203510000Y-64610000D01*
X203510000Y-64610000D02*
X202020000Y-64610000D01*
X204470000Y-46355000D02*
X204470000Y-63650000D01*
%TO.N,OUT1*%
X201930000Y-61960000D02*
X202020000Y-62050000D01*
X201930000Y-46355000D02*
X201930000Y-61960000D01*
%TO.N,Net-(R2-Pad1)*%
X206200000Y-69000000D02*
X206200000Y-68920000D01*
%TO.N,Net-(D3-K)*%
X218100000Y-92550000D02*
X207450000Y-92550000D01*
%TO.N,OUT3*%
X196860000Y-88250000D02*
X196910000Y-88250000D01*
X196860000Y-88250000D02*
X203210000Y-81900000D01*
X194580000Y-88250000D02*
X196860000Y-88250000D01*
%TO.N,OUT1*%
X201920000Y-62070000D02*
X194600000Y-62070000D01*
X202050000Y-61940000D02*
X201920000Y-62070000D01*
%TO.N,IN1*%
X184440000Y-62070000D02*
X184420000Y-62050000D01*
%TD*%
%TA.AperFunction,Conductor*%
%TO.N,GND*%
G36*
X230764320Y-40818910D02*
G01*
X230865360Y-40873590D01*
X230943171Y-40958115D01*
X230989321Y-41063326D01*
X231000000Y-41149000D01*
X231000000Y-57400000D01*
X234651000Y-57400000D01*
X234764320Y-57418910D01*
X234865360Y-57473590D01*
X234943171Y-57558115D01*
X234989321Y-57663326D01*
X235000000Y-57749000D01*
X235000000Y-101451000D01*
X234981090Y-101564320D01*
X234926410Y-101665360D01*
X234841885Y-101743171D01*
X234736674Y-101789321D01*
X234651000Y-101800000D01*
X176149000Y-101800000D01*
X176035680Y-101781090D01*
X175934640Y-101726410D01*
X175856829Y-101641885D01*
X175810679Y-101536674D01*
X175800000Y-101451000D01*
X175800000Y-92489349D01*
X179938880Y-92489349D01*
X179938880Y-96615017D01*
X197310522Y-96615017D01*
X197310522Y-92489349D01*
X179938880Y-92489349D01*
X175800000Y-92489349D01*
X175800000Y-57749000D01*
X175818910Y-57635680D01*
X175873590Y-57534640D01*
X175958115Y-57456829D01*
X176063326Y-57410679D01*
X176149000Y-57400000D01*
X180600000Y-57400000D01*
X180600000Y-47253645D01*
X182791500Y-47253645D01*
X182798010Y-47314199D01*
X182849110Y-47451203D01*
X182868803Y-47477510D01*
X182936739Y-47568261D01*
X183053796Y-47655889D01*
X183190799Y-47706989D01*
X183197528Y-47707712D01*
X183251354Y-47713500D01*
X183251362Y-47713500D01*
X185048646Y-47713500D01*
X185097088Y-47708291D01*
X185109201Y-47706989D01*
X185246204Y-47655889D01*
X185363261Y-47568261D01*
X185398193Y-47521596D01*
X185481237Y-47442215D01*
X185585562Y-47394097D01*
X185699858Y-47382460D01*
X185811740Y-47408565D01*
X185891939Y-47455338D01*
X185944424Y-47496189D01*
X185944426Y-47496190D01*
X185944434Y-47496195D01*
X186120673Y-47591570D01*
X186142426Y-47603342D01*
X186355365Y-47676444D01*
X186577431Y-47713500D01*
X186577432Y-47713500D01*
X186802568Y-47713500D01*
X186802569Y-47713500D01*
X187024635Y-47676444D01*
X187237574Y-47603342D01*
X187435576Y-47496189D01*
X187613240Y-47357906D01*
X187703233Y-47260147D01*
X187793894Y-47189584D01*
X187902557Y-47152280D01*
X188017444Y-47152280D01*
X188126106Y-47189584D01*
X188216766Y-47260147D01*
X188226964Y-47271225D01*
X188306752Y-47357898D01*
X188306760Y-47357906D01*
X188484424Y-47496189D01*
X188484430Y-47496192D01*
X188484434Y-47496195D01*
X188660673Y-47591570D01*
X188682426Y-47603342D01*
X188895365Y-47676444D01*
X189117431Y-47713500D01*
X189117432Y-47713500D01*
X189342568Y-47713500D01*
X189342569Y-47713500D01*
X189564635Y-47676444D01*
X189777574Y-47603342D01*
X189975576Y-47496189D01*
X190153240Y-47357906D01*
X190243576Y-47259775D01*
X190334233Y-47189214D01*
X190442895Y-47151910D01*
X190557783Y-47151910D01*
X190666445Y-47189213D01*
X190757107Y-47259778D01*
X190757108Y-47259779D01*
X190847102Y-47357538D01*
X191024696Y-47495766D01*
X191024703Y-47495770D01*
X191222627Y-47602882D01*
X191269999Y-47619144D01*
X191270000Y-47619144D01*
X191270000Y-46420826D01*
X191304075Y-46547993D01*
X191369901Y-46662007D01*
X191462993Y-46755099D01*
X191577007Y-46820925D01*
X191704174Y-46855000D01*
X191835826Y-46855000D01*
X191962993Y-46820925D01*
X192077007Y-46755099D01*
X192170099Y-46662007D01*
X192235925Y-46547993D01*
X192270000Y-46420826D01*
X192270000Y-47619144D01*
X192317372Y-47602882D01*
X192515296Y-47495770D01*
X192515303Y-47495766D01*
X192692896Y-47357539D01*
X192695724Y-47354468D01*
X192699022Y-47351900D01*
X192703518Y-47347762D01*
X192703860Y-47348134D01*
X192786383Y-47283900D01*
X192895044Y-47246592D01*
X193009931Y-47246588D01*
X193118595Y-47283888D01*
X193209259Y-47354450D01*
X193272100Y-47450627D01*
X193300307Y-47561997D01*
X193301500Y-47590830D01*
X193301500Y-51527705D01*
X193282590Y-51641025D01*
X193227910Y-51742065D01*
X193199280Y-51774485D01*
X184258087Y-60715677D01*
X184164587Y-60782435D01*
X184101638Y-60806004D01*
X183990763Y-60835713D01*
X183990755Y-60835716D01*
X183783252Y-60932476D01*
X183595696Y-61063805D01*
X183595692Y-61063808D01*
X183433808Y-61225692D01*
X183433805Y-61225696D01*
X183302476Y-61413252D01*
X183205715Y-61620758D01*
X183146456Y-61841913D01*
X183126502Y-62069999D01*
X183126502Y-62070000D01*
X183146456Y-62298086D01*
X183179608Y-62421806D01*
X183191500Y-62512135D01*
X183191500Y-72066471D01*
X183190172Y-72066471D01*
X183190172Y-72073529D01*
X183191500Y-72073529D01*
X183191500Y-87298948D01*
X183172590Y-87412268D01*
X183128384Y-87499126D01*
X183062478Y-87593248D01*
X183062477Y-87593250D01*
X182965715Y-87800758D01*
X182906456Y-88021913D01*
X182886502Y-88249999D01*
X182886502Y-88250000D01*
X182906456Y-88478086D01*
X182965715Y-88699241D01*
X182965716Y-88699243D01*
X183062477Y-88906749D01*
X183193802Y-89094300D01*
X183193805Y-89094303D01*
X183193808Y-89094307D01*
X183355692Y-89256191D01*
X183355696Y-89256194D01*
X183355700Y-89256198D01*
X183543251Y-89387523D01*
X183750757Y-89484284D01*
X183971913Y-89543543D01*
X184200000Y-89563498D01*
X184428087Y-89543543D01*
X184649243Y-89484284D01*
X184856749Y-89387523D01*
X185044300Y-89256198D01*
X185206198Y-89094300D01*
X185337523Y-88906749D01*
X185434284Y-88699243D01*
X185493543Y-88478087D01*
X185513498Y-88250000D01*
X185493543Y-88021913D01*
X185434284Y-87800757D01*
X185337523Y-87593251D01*
X185271616Y-87499126D01*
X185222108Y-87395454D01*
X185208500Y-87298948D01*
X185208500Y-76998924D01*
X188848181Y-76998924D01*
X188868394Y-77008350D01*
X188868397Y-77008351D01*
X189075942Y-77063963D01*
X189075947Y-77063964D01*
X189290000Y-77082690D01*
X189504052Y-77063964D01*
X189504057Y-77063963D01*
X189711602Y-77008351D01*
X189711605Y-77008350D01*
X189731817Y-76998925D01*
X189731817Y-76998924D01*
X189290001Y-76557107D01*
X188848181Y-76998924D01*
X185208500Y-76998924D01*
X185208500Y-75850000D01*
X188057309Y-75850000D01*
X188076035Y-76064052D01*
X188076036Y-76064057D01*
X188131648Y-76271603D01*
X188141074Y-76291818D01*
X188530232Y-75902661D01*
X188890000Y-75902661D01*
X188917259Y-76004394D01*
X188969920Y-76095606D01*
X189044394Y-76170080D01*
X189135606Y-76222741D01*
X189237339Y-76250000D01*
X189342661Y-76250000D01*
X189444394Y-76222741D01*
X189535606Y-76170080D01*
X189610080Y-76095606D01*
X189662741Y-76004394D01*
X189690000Y-75902661D01*
X189690000Y-75850000D01*
X189997107Y-75850000D01*
X190438924Y-76291817D01*
X190438925Y-76291817D01*
X190448350Y-76271605D01*
X190448351Y-76271602D01*
X190503963Y-76064057D01*
X190503964Y-76064052D01*
X190522690Y-75850000D01*
X193136807Y-75850000D01*
X193155541Y-76064141D01*
X193189668Y-76191500D01*
X193211131Y-76271603D01*
X193211178Y-76271776D01*
X193211178Y-76271778D01*
X193302023Y-76466596D01*
X193425318Y-76642680D01*
X193425325Y-76642688D01*
X193577311Y-76794674D01*
X193577319Y-76794681D01*
X193753403Y-76917976D01*
X193948223Y-77008822D01*
X194155858Y-77064458D01*
X194370000Y-77083193D01*
X194584142Y-77064458D01*
X194791777Y-77008822D01*
X194986597Y-76917976D01*
X194986601Y-76917972D01*
X194999788Y-76910360D01*
X195000907Y-76912298D01*
X195085081Y-76872105D01*
X195181577Y-76858500D01*
X199449325Y-76858500D01*
X199449329Y-76858500D01*
X199644169Y-76819744D01*
X199827704Y-76743721D01*
X199992881Y-76633353D01*
X200133353Y-76492881D01*
X206234461Y-70391771D01*
X206327958Y-70325016D01*
X206420652Y-70294853D01*
X206428076Y-70293543D01*
X206428087Y-70293543D01*
X206649243Y-70234284D01*
X206856749Y-70137523D01*
X207044300Y-70006198D01*
X207206198Y-69844300D01*
X207337523Y-69656749D01*
X207434284Y-69449243D01*
X207493543Y-69228087D01*
X207513498Y-69000000D01*
X207503671Y-68887682D01*
X207493543Y-68771913D01*
X207434284Y-68550758D01*
X207337523Y-68343252D01*
X207337523Y-68343251D01*
X207206198Y-68155700D01*
X207206194Y-68155696D01*
X207206191Y-68155692D01*
X207044307Y-67993808D01*
X207044303Y-67993805D01*
X207044300Y-67993802D01*
X206856749Y-67862477D01*
X206649243Y-67765716D01*
X206649241Y-67765715D01*
X206428086Y-67706456D01*
X206200000Y-67686502D01*
X205971913Y-67706456D01*
X205750758Y-67765715D01*
X205543252Y-67862476D01*
X205355696Y-67993805D01*
X205355692Y-67993808D01*
X205193808Y-68155692D01*
X205193805Y-68155696D01*
X205062476Y-68343252D01*
X204965715Y-68550758D01*
X204906455Y-68771916D01*
X204905142Y-68779368D01*
X204866840Y-68887682D01*
X204808225Y-68965539D01*
X199034486Y-74739280D01*
X198940986Y-74806038D01*
X198830875Y-74838820D01*
X198787706Y-74841500D01*
X195181577Y-74841500D01*
X195068257Y-74822590D01*
X195000633Y-74788174D01*
X194999788Y-74789640D01*
X194986596Y-74782023D01*
X194791777Y-74691178D01*
X194584141Y-74635541D01*
X194370000Y-74616807D01*
X194155858Y-74635541D01*
X193948223Y-74691178D01*
X193948217Y-74691180D01*
X193753410Y-74782020D01*
X193753404Y-74782023D01*
X193577320Y-74905317D01*
X193425317Y-75057320D01*
X193302023Y-75233404D01*
X193302020Y-75233410D01*
X193211180Y-75428217D01*
X193211178Y-75428223D01*
X193155541Y-75635858D01*
X193136807Y-75849999D01*
X193136807Y-75850000D01*
X190522690Y-75850000D01*
X190503964Y-75635947D01*
X190503963Y-75635942D01*
X190448351Y-75428397D01*
X190448350Y-75428394D01*
X190438924Y-75408181D01*
X189997107Y-75850000D01*
X189690000Y-75850000D01*
X189690000Y-75797339D01*
X189662741Y-75695606D01*
X189610080Y-75604394D01*
X189535606Y-75529920D01*
X189444394Y-75477259D01*
X189342661Y-75450000D01*
X189237339Y-75450000D01*
X189135606Y-75477259D01*
X189044394Y-75529920D01*
X188969920Y-75604394D01*
X188917259Y-75695606D01*
X188890000Y-75797339D01*
X188890000Y-75902661D01*
X188530232Y-75902661D01*
X188582893Y-75850000D01*
X188582893Y-75849999D01*
X188141074Y-75408180D01*
X188131650Y-75428391D01*
X188131648Y-75428398D01*
X188076036Y-75635942D01*
X188076035Y-75635947D01*
X188057309Y-75850000D01*
X185208500Y-75850000D01*
X185208500Y-74701074D01*
X188848180Y-74701074D01*
X189290000Y-75142893D01*
X189290001Y-75142893D01*
X189731818Y-74701074D01*
X189711603Y-74691648D01*
X189504057Y-74636036D01*
X189504052Y-74636035D01*
X189290000Y-74617309D01*
X189075947Y-74636035D01*
X189075942Y-74636036D01*
X188868398Y-74691648D01*
X188868391Y-74691650D01*
X188848180Y-74701074D01*
X185208500Y-74701074D01*
X185208500Y-74458924D01*
X191388181Y-74458924D01*
X191408394Y-74468350D01*
X191408397Y-74468351D01*
X191615942Y-74523963D01*
X191615947Y-74523964D01*
X191830000Y-74542690D01*
X192044052Y-74523964D01*
X192044057Y-74523963D01*
X192251602Y-74468351D01*
X192251605Y-74468350D01*
X192271817Y-74458925D01*
X192271817Y-74458924D01*
X191830001Y-74017107D01*
X191388181Y-74458924D01*
X185208500Y-74458924D01*
X185208500Y-73310000D01*
X190597309Y-73310000D01*
X190616035Y-73524052D01*
X190616036Y-73524057D01*
X190671648Y-73731603D01*
X190681074Y-73751818D01*
X191070232Y-73362661D01*
X191430000Y-73362661D01*
X191457259Y-73464394D01*
X191509920Y-73555606D01*
X191584394Y-73630080D01*
X191675606Y-73682741D01*
X191777339Y-73710000D01*
X191882661Y-73710000D01*
X191984394Y-73682741D01*
X192075606Y-73630080D01*
X192150080Y-73555606D01*
X192202741Y-73464394D01*
X192230000Y-73362661D01*
X192230000Y-73310000D01*
X192537107Y-73310000D01*
X192978924Y-73751817D01*
X192978925Y-73751817D01*
X192988350Y-73731605D01*
X192988351Y-73731602D01*
X193043963Y-73524057D01*
X193043964Y-73524052D01*
X193062690Y-73310000D01*
X193043964Y-73095947D01*
X193043963Y-73095942D01*
X192988351Y-72888397D01*
X192988350Y-72888394D01*
X192978924Y-72868181D01*
X192537107Y-73310000D01*
X192230000Y-73310000D01*
X192230000Y-73257339D01*
X192202741Y-73155606D01*
X192150080Y-73064394D01*
X192075606Y-72989920D01*
X191984394Y-72937259D01*
X191882661Y-72910000D01*
X191777339Y-72910000D01*
X191675606Y-72937259D01*
X191584394Y-72989920D01*
X191509920Y-73064394D01*
X191457259Y-73155606D01*
X191430000Y-73257339D01*
X191430000Y-73362661D01*
X191070232Y-73362661D01*
X191122893Y-73310000D01*
X191122893Y-73309999D01*
X190681074Y-72868180D01*
X190671650Y-72888391D01*
X190671648Y-72888398D01*
X190616036Y-73095942D01*
X190616035Y-73095947D01*
X190597309Y-73310000D01*
X185208500Y-73310000D01*
X185208500Y-72161074D01*
X191388180Y-72161074D01*
X191830000Y-72602893D01*
X191830001Y-72602893D01*
X192271818Y-72161074D01*
X192251603Y-72151648D01*
X192044057Y-72096036D01*
X192044052Y-72096035D01*
X191830000Y-72077309D01*
X191615947Y-72096035D01*
X191615942Y-72096036D01*
X191408398Y-72151648D01*
X191408391Y-72151650D01*
X191388180Y-72161074D01*
X185208500Y-72161074D01*
X185208500Y-72073525D01*
X185209840Y-72073525D01*
X185209840Y-72066475D01*
X185208500Y-72066475D01*
X185208500Y-63296558D01*
X185227410Y-63183238D01*
X185282090Y-63082198D01*
X185310721Y-63049777D01*
X185446192Y-62914306D01*
X185446198Y-62914300D01*
X185577523Y-62726749D01*
X185674284Y-62519243D01*
X185733543Y-62298087D01*
X185742164Y-62199539D01*
X185770877Y-62088300D01*
X185834155Y-61992410D01*
X185843029Y-61983203D01*
X195093353Y-52732881D01*
X195203721Y-52567704D01*
X195279744Y-52384169D01*
X195318500Y-52189329D01*
X195318500Y-51990671D01*
X195318500Y-47591570D01*
X195337410Y-47478250D01*
X195392090Y-47377210D01*
X195476615Y-47299399D01*
X195581826Y-47253249D01*
X195696320Y-47243762D01*
X195807692Y-47271965D01*
X195903871Y-47334802D01*
X195924270Y-47355202D01*
X195926751Y-47357898D01*
X195926754Y-47357900D01*
X195926760Y-47357906D01*
X196104424Y-47496189D01*
X196104430Y-47496192D01*
X196104434Y-47496195D01*
X196280673Y-47591570D01*
X196302426Y-47603342D01*
X196515365Y-47676444D01*
X196737431Y-47713500D01*
X196737432Y-47713500D01*
X196962568Y-47713500D01*
X196962569Y-47713500D01*
X197184635Y-47676444D01*
X197397574Y-47603342D01*
X197595576Y-47496189D01*
X197773240Y-47357906D01*
X197863576Y-47259775D01*
X197954233Y-47189214D01*
X198062895Y-47151910D01*
X198177783Y-47151910D01*
X198286445Y-47189213D01*
X198377107Y-47259778D01*
X198377108Y-47259779D01*
X198467102Y-47357538D01*
X198644696Y-47495766D01*
X198644703Y-47495770D01*
X198842627Y-47602882D01*
X198889999Y-47619144D01*
X198890000Y-47619144D01*
X198890000Y-46420826D01*
X198924075Y-46547993D01*
X198989901Y-46662007D01*
X199082993Y-46755099D01*
X199197007Y-46820925D01*
X199324174Y-46855000D01*
X199455826Y-46855000D01*
X199582993Y-46820925D01*
X199697007Y-46755099D01*
X199790099Y-46662007D01*
X199855925Y-46547993D01*
X199890000Y-46420826D01*
X199890000Y-47619144D01*
X199937372Y-47602882D01*
X200135296Y-47495770D01*
X200135303Y-47495766D01*
X200312896Y-47357539D01*
X200315724Y-47354468D01*
X200319022Y-47351900D01*
X200323518Y-47347762D01*
X200323860Y-47348134D01*
X200406383Y-47283900D01*
X200515044Y-47246592D01*
X200629931Y-47246588D01*
X200738595Y-47283888D01*
X200829259Y-47354450D01*
X200892100Y-47450627D01*
X200920307Y-47561997D01*
X200921500Y-47590830D01*
X200921500Y-60712500D01*
X200902590Y-60825820D01*
X200847910Y-60926860D01*
X200763385Y-61004671D01*
X200658174Y-61050821D01*
X200572500Y-61061500D01*
X195551052Y-61061500D01*
X195437732Y-61042590D01*
X195350873Y-60998383D01*
X195256757Y-60932482D01*
X195256751Y-60932478D01*
X195049241Y-60835715D01*
X194828086Y-60776456D01*
X194600000Y-60756502D01*
X194371913Y-60776456D01*
X194150758Y-60835715D01*
X193943252Y-60932476D01*
X193755696Y-61063805D01*
X193755692Y-61063808D01*
X193593808Y-61225692D01*
X193593805Y-61225696D01*
X193462476Y-61413252D01*
X193365715Y-61620758D01*
X193306456Y-61841913D01*
X193286502Y-62069999D01*
X193286502Y-62070000D01*
X193306456Y-62298086D01*
X193363811Y-62512135D01*
X193365716Y-62519243D01*
X193462477Y-62726749D01*
X193593802Y-62914300D01*
X193593805Y-62914303D01*
X193593808Y-62914307D01*
X193755692Y-63076191D01*
X193755696Y-63076194D01*
X193755700Y-63076198D01*
X193943251Y-63207523D01*
X194150757Y-63304284D01*
X194371913Y-63363543D01*
X194600000Y-63383498D01*
X194828087Y-63363543D01*
X195049243Y-63304284D01*
X195256749Y-63207523D01*
X195291826Y-63182961D01*
X195350873Y-63141617D01*
X195454545Y-63092109D01*
X195551052Y-63078500D01*
X199716301Y-63078500D01*
X199829621Y-63097410D01*
X199930661Y-63152090D01*
X200008472Y-63236615D01*
X200054622Y-63341826D01*
X200064109Y-63456320D01*
X200035906Y-63567692D01*
X199973069Y-63663871D01*
X199910196Y-63717682D01*
X199747117Y-63826648D01*
X199747114Y-63826650D01*
X195953709Y-67620055D01*
X195860209Y-67686813D01*
X195797259Y-67710383D01*
X195590757Y-67765716D01*
X195383252Y-67862476D01*
X195195696Y-67993805D01*
X195195692Y-67993808D01*
X195033808Y-68155692D01*
X195033805Y-68155696D01*
X194902476Y-68343252D01*
X194805715Y-68550758D01*
X194746456Y-68771913D01*
X194726502Y-68999999D01*
X194726502Y-69000000D01*
X194746456Y-69228086D01*
X194765546Y-69299329D01*
X194805716Y-69449243D01*
X194902477Y-69656749D01*
X195033802Y-69844300D01*
X195033805Y-69844303D01*
X195033808Y-69844307D01*
X195195692Y-70006191D01*
X195195696Y-70006194D01*
X195195700Y-70006198D01*
X195383251Y-70137523D01*
X195590757Y-70234284D01*
X195811913Y-70293543D01*
X196040000Y-70313498D01*
X196268087Y-70293543D01*
X196489243Y-70234284D01*
X196696749Y-70137523D01*
X196884300Y-70006198D01*
X197046198Y-69844300D01*
X197177523Y-69656749D01*
X197274284Y-69449243D01*
X197333543Y-69228087D01*
X197335453Y-69206255D01*
X197364165Y-69095014D01*
X197427442Y-68999123D01*
X197436317Y-68989915D01*
X200697427Y-65728806D01*
X200790924Y-65662051D01*
X200901035Y-65629269D01*
X201015824Y-65634017D01*
X201122852Y-65675779D01*
X201127420Y-65678549D01*
X201246798Y-65752182D01*
X201246799Y-65752182D01*
X201246802Y-65752184D01*
X201414937Y-65807898D01*
X201518712Y-65818500D01*
X201518714Y-65818500D01*
X202521286Y-65818500D01*
X202521288Y-65818500D01*
X202625063Y-65807898D01*
X202793198Y-65752184D01*
X202832663Y-65727841D01*
X202925694Y-65670460D01*
X203032070Y-65627064D01*
X203108910Y-65618500D01*
X203609325Y-65618500D01*
X203609329Y-65618500D01*
X203804169Y-65579744D01*
X203987704Y-65503721D01*
X204152881Y-65393353D01*
X204293353Y-65252881D01*
X205253353Y-64292881D01*
X205363721Y-64127704D01*
X205414573Y-64004937D01*
X205439744Y-63944169D01*
X205478500Y-63749329D01*
X205478500Y-50483698D01*
X205497410Y-50370378D01*
X205552090Y-50269338D01*
X205636615Y-50191527D01*
X205741826Y-50145377D01*
X205856320Y-50135890D01*
X205967692Y-50164093D01*
X206063871Y-50226930D01*
X206117679Y-50289799D01*
X206226647Y-50452881D01*
X206226650Y-50452885D01*
X209489280Y-53715514D01*
X209556038Y-53809014D01*
X209588820Y-53919125D01*
X209591500Y-53962294D01*
X209591500Y-68637706D01*
X209572590Y-68751026D01*
X209517910Y-68852066D01*
X209489280Y-68884486D01*
X202567118Y-75806648D01*
X202426650Y-75947114D01*
X202426648Y-75947117D01*
X202316279Y-76112295D01*
X202240256Y-76295830D01*
X202201500Y-76490666D01*
X202201500Y-80779706D01*
X202182590Y-80893026D01*
X202127910Y-80994066D01*
X202109268Y-81016077D01*
X202094689Y-81031913D01*
X202094687Y-81031915D01*
X202094686Y-81031917D01*
X201967016Y-81227331D01*
X201967015Y-81227333D01*
X201873251Y-81441092D01*
X201815948Y-81667376D01*
X201808403Y-81758432D01*
X201780199Y-81869803D01*
X201717361Y-81965982D01*
X201707375Y-81976389D01*
X196544486Y-87139280D01*
X196450986Y-87206038D01*
X196340875Y-87238820D01*
X196297706Y-87241500D01*
X195311052Y-87241500D01*
X195197732Y-87222590D01*
X195110873Y-87178383D01*
X195016757Y-87112482D01*
X195016751Y-87112478D01*
X194809241Y-87015715D01*
X194588086Y-86956456D01*
X194360000Y-86936502D01*
X194131913Y-86956456D01*
X193910758Y-87015715D01*
X193703252Y-87112476D01*
X193664972Y-87139280D01*
X193569633Y-87206038D01*
X193515696Y-87243805D01*
X193515692Y-87243808D01*
X193353808Y-87405692D01*
X193353805Y-87405696D01*
X193353802Y-87405699D01*
X193353802Y-87405700D01*
X193349203Y-87412268D01*
X193222476Y-87593252D01*
X193125715Y-87800758D01*
X193066456Y-88021913D01*
X193046502Y-88249999D01*
X193046502Y-88250000D01*
X193066456Y-88478086D01*
X193125715Y-88699241D01*
X193125716Y-88699243D01*
X193222477Y-88906749D01*
X193353802Y-89094300D01*
X193353805Y-89094303D01*
X193353808Y-89094307D01*
X193515692Y-89256191D01*
X193515696Y-89256194D01*
X193515700Y-89256198D01*
X193703251Y-89387523D01*
X193910757Y-89484284D01*
X194131913Y-89543543D01*
X194360000Y-89563498D01*
X194588087Y-89543543D01*
X194809243Y-89484284D01*
X195016749Y-89387523D01*
X195051826Y-89362961D01*
X195110873Y-89321617D01*
X195214545Y-89272109D01*
X195311052Y-89258500D01*
X196347706Y-89258500D01*
X196461026Y-89277410D01*
X196562066Y-89332090D01*
X196594486Y-89360720D01*
X201557375Y-94323609D01*
X201624133Y-94417109D01*
X201656915Y-94527220D01*
X201658403Y-94541566D01*
X201665948Y-94632623D01*
X201665949Y-94632626D01*
X201723251Y-94858907D01*
X201817016Y-95072669D01*
X201928500Y-95243308D01*
X201944689Y-95268087D01*
X202102779Y-95439817D01*
X202102790Y-95439826D01*
X202286977Y-95583186D01*
X202286979Y-95583187D01*
X202286983Y-95583190D01*
X202492273Y-95694287D01*
X202713049Y-95770080D01*
X202943288Y-95808500D01*
X203176712Y-95808500D01*
X203406951Y-95770080D01*
X203627727Y-95694287D01*
X203833017Y-95583190D01*
X203833022Y-95583185D01*
X203845105Y-95575293D01*
X203845786Y-95576336D01*
X203933812Y-95528694D01*
X204047131Y-95509779D01*
X204160452Y-95528684D01*
X204261495Y-95583359D01*
X204326534Y-95649629D01*
X204336739Y-95663261D01*
X204453796Y-95750889D01*
X204590799Y-95801989D01*
X204597528Y-95802712D01*
X204651354Y-95808500D01*
X204651362Y-95808500D01*
X206548646Y-95808500D01*
X206597088Y-95803291D01*
X206609201Y-95801989D01*
X206746204Y-95750889D01*
X206863261Y-95663261D01*
X206950889Y-95546204D01*
X207001989Y-95409201D01*
X207003435Y-95395742D01*
X207008500Y-95348645D01*
X207008500Y-94562294D01*
X207027410Y-94448974D01*
X207082090Y-94347934D01*
X207110720Y-94315514D01*
X207765514Y-93660720D01*
X207859014Y-93593962D01*
X207969125Y-93561180D01*
X208012294Y-93558500D01*
X216380597Y-93558500D01*
X216493917Y-93577410D01*
X216594957Y-93632090D01*
X216627376Y-93660718D01*
X216717278Y-93750620D01*
X216909373Y-93890185D01*
X217120930Y-93997979D01*
X217120933Y-93997979D01*
X217120937Y-93997982D01*
X217346759Y-94071356D01*
X217581278Y-94108500D01*
X217581282Y-94108500D01*
X218818718Y-94108500D01*
X218818722Y-94108500D01*
X219053241Y-94071356D01*
X219279063Y-93997982D01*
X219490627Y-93890185D01*
X219682722Y-93750620D01*
X219850620Y-93582722D01*
X219990185Y-93390627D01*
X220097982Y-93179063D01*
X220171356Y-92953241D01*
X220208500Y-92718722D01*
X220208500Y-92481278D01*
X220171356Y-92246759D01*
X220097982Y-92020937D01*
X220097979Y-92020933D01*
X220097979Y-92020930D01*
X219990185Y-91809373D01*
X219959145Y-91766650D01*
X219850620Y-91617278D01*
X219682722Y-91449380D01*
X219490627Y-91309815D01*
X219490628Y-91309815D01*
X219490626Y-91309814D01*
X219279069Y-91202020D01*
X219053242Y-91128644D01*
X219053234Y-91128642D01*
X218818726Y-91091500D01*
X218818722Y-91091500D01*
X217581278Y-91091500D01*
X217581273Y-91091500D01*
X217346765Y-91128642D01*
X217346757Y-91128644D01*
X217120930Y-91202020D01*
X216909373Y-91309814D01*
X216717278Y-91449380D01*
X216707324Y-91457882D01*
X216608874Y-91517098D01*
X216496531Y-91541139D01*
X216480667Y-91541500D01*
X207350666Y-91541500D01*
X207155830Y-91580256D01*
X206972295Y-91656279D01*
X206807117Y-91766648D01*
X206807114Y-91766650D01*
X205684486Y-92889280D01*
X205590986Y-92956038D01*
X205480875Y-92988820D01*
X205437706Y-92991500D01*
X204651354Y-92991500D01*
X204590800Y-92998010D01*
X204453796Y-93049110D01*
X204336737Y-93136740D01*
X204336736Y-93136741D01*
X204326531Y-93150374D01*
X204243481Y-93229757D01*
X204139156Y-93277873D01*
X204024859Y-93289508D01*
X203912978Y-93263400D01*
X203845526Y-93224061D01*
X203845105Y-93224707D01*
X203833022Y-93216813D01*
X203833018Y-93216810D01*
X203833017Y-93216810D01*
X203627727Y-93105713D01*
X203406951Y-93029920D01*
X203168187Y-92990077D01*
X203059525Y-92952773D01*
X202978851Y-92892617D01*
X198558014Y-88471780D01*
X198491256Y-88378280D01*
X198458474Y-88268169D01*
X198463222Y-88153380D01*
X198504984Y-88046352D01*
X198558014Y-87978220D01*
X200785563Y-85750671D01*
X203128854Y-83407379D01*
X203222351Y-83340624D01*
X203318188Y-83309922D01*
X203326709Y-83308500D01*
X203326712Y-83308500D01*
X203556951Y-83270080D01*
X203777727Y-83194287D01*
X203983017Y-83083190D01*
X203983022Y-83083185D01*
X203995105Y-83075293D01*
X203995786Y-83076336D01*
X204083812Y-83028694D01*
X204197131Y-83009779D01*
X204310452Y-83028684D01*
X204411495Y-83083359D01*
X204476534Y-83149629D01*
X204484998Y-83160936D01*
X204486739Y-83163261D01*
X204603796Y-83250889D01*
X204740799Y-83301989D01*
X204747528Y-83302712D01*
X204801354Y-83308500D01*
X204801362Y-83308500D01*
X205587706Y-83308500D01*
X205701026Y-83327410D01*
X205802066Y-83382090D01*
X205834486Y-83410720D01*
X207407114Y-84983349D01*
X207407117Y-84983351D01*
X207407119Y-84983353D01*
X207572296Y-85093721D01*
X207755831Y-85169744D01*
X207950671Y-85208500D01*
X207950675Y-85208500D01*
X217149325Y-85208500D01*
X217149329Y-85208500D01*
X217344169Y-85169744D01*
X217527704Y-85093721D01*
X217692881Y-84983353D01*
X217833353Y-84842881D01*
X217865514Y-84810720D01*
X217959014Y-84743962D01*
X218069125Y-84711180D01*
X218112294Y-84708500D01*
X218818718Y-84708500D01*
X218818722Y-84708500D01*
X219053241Y-84671356D01*
X219279063Y-84597982D01*
X219490627Y-84490185D01*
X219682722Y-84350620D01*
X219850620Y-84182722D01*
X219990185Y-83990627D01*
X220097982Y-83779063D01*
X220171356Y-83553241D01*
X220208500Y-83318722D01*
X220208500Y-83081278D01*
X220171356Y-82846759D01*
X220097982Y-82620937D01*
X220097979Y-82620933D01*
X220097979Y-82620930D01*
X219990185Y-82409373D01*
X219850620Y-82217278D01*
X219682722Y-82049380D01*
X219529770Y-81938254D01*
X219490626Y-81909814D01*
X219279069Y-81802020D01*
X219053242Y-81728644D01*
X219053234Y-81728642D01*
X218818726Y-81691500D01*
X218818722Y-81691500D01*
X217581278Y-81691500D01*
X217581273Y-81691500D01*
X217346765Y-81728642D01*
X217346757Y-81728644D01*
X217120930Y-81802020D01*
X216909373Y-81909814D01*
X216717278Y-82049380D01*
X216717274Y-82049383D01*
X216549383Y-82217274D01*
X216549380Y-82217278D01*
X216409814Y-82409373D01*
X216302020Y-82620930D01*
X216228644Y-82846757D01*
X216228643Y-82846761D01*
X216220671Y-82897098D01*
X216184266Y-83006064D01*
X216114452Y-83097306D01*
X216018795Y-83160936D01*
X215907660Y-83190058D01*
X215875968Y-83191500D01*
X208612294Y-83191500D01*
X208498974Y-83172590D01*
X208397934Y-83117910D01*
X208365514Y-83089280D01*
X207260720Y-81984486D01*
X207193962Y-81890986D01*
X207161180Y-81780875D01*
X207158500Y-81737706D01*
X207158500Y-80951354D01*
X207151989Y-80890800D01*
X207100889Y-80753796D01*
X207013261Y-80636739D01*
X206896204Y-80549111D01*
X206896203Y-80549110D01*
X206759199Y-80498010D01*
X206698646Y-80491500D01*
X206698638Y-80491500D01*
X204801362Y-80491500D01*
X204801354Y-80491500D01*
X204740800Y-80498010D01*
X204689464Y-80517158D01*
X204576681Y-80539042D01*
X204462903Y-80523120D01*
X204360459Y-80471117D01*
X204280451Y-80388668D01*
X204231550Y-80284708D01*
X204218500Y-80190163D01*
X204218500Y-77152294D01*
X204237410Y-77038974D01*
X204292090Y-76937934D01*
X204320720Y-76905514D01*
X211383349Y-69842885D01*
X211383353Y-69842881D01*
X211493721Y-69677704D01*
X211569744Y-69494169D01*
X211608500Y-69299329D01*
X211608500Y-69100671D01*
X211608500Y-53300671D01*
X211569744Y-53105831D01*
X211519164Y-52983721D01*
X211493722Y-52922297D01*
X211493721Y-52922295D01*
X211493720Y-52922293D01*
X211383354Y-52757119D01*
X211383352Y-52757116D01*
X208120720Y-49494484D01*
X208053962Y-49400984D01*
X208021180Y-49290873D01*
X208018500Y-49247704D01*
X208018500Y-49023698D01*
X208037410Y-48910378D01*
X208092090Y-48809338D01*
X208176615Y-48731527D01*
X208281826Y-48685377D01*
X208396320Y-48675890D01*
X208507692Y-48704093D01*
X208603871Y-48766930D01*
X208657679Y-48829799D01*
X208766647Y-48992881D01*
X208766650Y-48992885D01*
X212689280Y-52915514D01*
X212756038Y-53009014D01*
X212788820Y-53119125D01*
X212791500Y-53162294D01*
X212791500Y-69837706D01*
X212772590Y-69951026D01*
X212717910Y-70052066D01*
X212689280Y-70084486D01*
X207557118Y-75216648D01*
X207416650Y-75357114D01*
X207416648Y-75357117D01*
X207306279Y-75522295D01*
X207230256Y-75705830D01*
X207191500Y-75900666D01*
X207191500Y-78699333D01*
X207230256Y-78894170D01*
X207306275Y-79077696D01*
X207306276Y-79077699D01*
X207416650Y-79242885D01*
X209957116Y-81783352D01*
X209957119Y-81783354D01*
X210122297Y-81893722D01*
X210229804Y-81938252D01*
X210229809Y-81938255D01*
X210229809Y-81938254D01*
X210305831Y-81969744D01*
X210500671Y-82008500D01*
X210500672Y-82008500D01*
X210500675Y-82008500D01*
X215099325Y-82008500D01*
X215099329Y-82008500D01*
X215294169Y-81969744D01*
X215477704Y-81893721D01*
X215642881Y-81783353D01*
X215783353Y-81642881D01*
X215948235Y-81477999D01*
X215948239Y-81477993D01*
X219115515Y-78310720D01*
X219209016Y-78243961D01*
X219319126Y-78211180D01*
X219362295Y-78208500D01*
X220137706Y-78208500D01*
X220251026Y-78227410D01*
X220352066Y-78282090D01*
X220384486Y-78310720D01*
X222289280Y-80215514D01*
X222356038Y-80309014D01*
X222388820Y-80419125D01*
X222391500Y-80462294D01*
X222391500Y-85287706D01*
X222372590Y-85401026D01*
X222317910Y-85502066D01*
X222289280Y-85534486D01*
X221084486Y-86739280D01*
X220990986Y-86806038D01*
X220880875Y-86838820D01*
X220837706Y-86841500D01*
X219919333Y-86841500D01*
X219806013Y-86822590D01*
X219704973Y-86767910D01*
X219692676Y-86757882D01*
X219682725Y-86749383D01*
X219682722Y-86749380D01*
X219490627Y-86609815D01*
X219490628Y-86609815D01*
X219490626Y-86609814D01*
X219279069Y-86502020D01*
X219250954Y-86492885D01*
X219248700Y-86492152D01*
X219053242Y-86428644D01*
X219053234Y-86428642D01*
X218818726Y-86391500D01*
X218818722Y-86391500D01*
X217581278Y-86391500D01*
X217581273Y-86391500D01*
X217346765Y-86428642D01*
X217346757Y-86428644D01*
X217120930Y-86502020D01*
X216909373Y-86609814D01*
X216717278Y-86749380D01*
X216717274Y-86749383D01*
X216667378Y-86799280D01*
X216573878Y-86866038D01*
X216463767Y-86898820D01*
X216420598Y-86901500D01*
X212701052Y-86901500D01*
X212587732Y-86882590D01*
X212500873Y-86838383D01*
X212406757Y-86772482D01*
X212406751Y-86772478D01*
X212199241Y-86675715D01*
X211978086Y-86616456D01*
X211750000Y-86596502D01*
X211521913Y-86616456D01*
X211300758Y-86675715D01*
X211093252Y-86772476D01*
X211054972Y-86799280D01*
X210959633Y-86866038D01*
X210905696Y-86903805D01*
X210905692Y-86903808D01*
X210743808Y-87065692D01*
X210743805Y-87065696D01*
X210612476Y-87253252D01*
X210515715Y-87460758D01*
X210456456Y-87681913D01*
X210436502Y-87909999D01*
X210436502Y-87910000D01*
X210456456Y-88138086D01*
X210515715Y-88359241D01*
X210571134Y-88478087D01*
X210612477Y-88566749D01*
X210743802Y-88754300D01*
X210743805Y-88754303D01*
X210743808Y-88754307D01*
X210905692Y-88916191D01*
X210905696Y-88916194D01*
X210905700Y-88916198D01*
X211093251Y-89047523D01*
X211300757Y-89144284D01*
X211521913Y-89203543D01*
X211750000Y-89223498D01*
X211978087Y-89203543D01*
X212199243Y-89144284D01*
X212406749Y-89047523D01*
X212441826Y-89022961D01*
X212500873Y-88981617D01*
X212604545Y-88932109D01*
X212701052Y-88918500D01*
X216440598Y-88918500D01*
X216553918Y-88937410D01*
X216654958Y-88992090D01*
X216687378Y-89020720D01*
X216717278Y-89050620D01*
X216846196Y-89144284D01*
X216909373Y-89190185D01*
X217120930Y-89297979D01*
X217120933Y-89297979D01*
X217120937Y-89297982D01*
X217346759Y-89371356D01*
X217581278Y-89408500D01*
X217581282Y-89408500D01*
X218818718Y-89408500D01*
X218818722Y-89408500D01*
X219053241Y-89371356D01*
X219279063Y-89297982D01*
X219490627Y-89190185D01*
X219682722Y-89050620D01*
X219772624Y-88960718D01*
X219866125Y-88893961D01*
X219976236Y-88861180D01*
X220019403Y-88858500D01*
X221499325Y-88858500D01*
X221499329Y-88858500D01*
X221694169Y-88819744D01*
X221877704Y-88743721D01*
X222042881Y-88633353D01*
X222183353Y-88492881D01*
X224183353Y-86492881D01*
X224293721Y-86327704D01*
X224369744Y-86144169D01*
X224408500Y-85949329D01*
X224408500Y-85750671D01*
X224408500Y-79800671D01*
X224369744Y-79605831D01*
X224338254Y-79529809D01*
X224338252Y-79529803D01*
X224293724Y-79422300D01*
X224293721Y-79422296D01*
X224183354Y-79257119D01*
X224183352Y-79257116D01*
X221342885Y-76416650D01*
X221342881Y-76416647D01*
X221177704Y-76306279D01*
X221152480Y-76295831D01*
X221142789Y-76291817D01*
X220994169Y-76230256D01*
X220799333Y-76191500D01*
X220799329Y-76191500D01*
X218700671Y-76191500D01*
X218700666Y-76191500D01*
X218505829Y-76230256D01*
X218458164Y-76250000D01*
X218429809Y-76261745D01*
X218429808Y-76261745D01*
X218322304Y-76306274D01*
X218322295Y-76306278D01*
X218157119Y-76416645D01*
X218157116Y-76416647D01*
X214684486Y-79889280D01*
X214590986Y-79956038D01*
X214480875Y-79988820D01*
X214437706Y-79991500D01*
X211162295Y-79991500D01*
X211048975Y-79972590D01*
X210947935Y-79917910D01*
X210915515Y-79889280D01*
X209310720Y-78284485D01*
X209243962Y-78190985D01*
X209211180Y-78080874D01*
X209208500Y-78037705D01*
X209208500Y-77750000D01*
X210436502Y-77750000D01*
X210456456Y-77978086D01*
X210513503Y-78190985D01*
X210515716Y-78199243D01*
X210612477Y-78406749D01*
X210743802Y-78594300D01*
X210743805Y-78594303D01*
X210743808Y-78594307D01*
X210905692Y-78756191D01*
X210905696Y-78756194D01*
X210905700Y-78756198D01*
X211093251Y-78887523D01*
X211300757Y-78984284D01*
X211521913Y-79043543D01*
X211750000Y-79063498D01*
X211978087Y-79043543D01*
X212199243Y-78984284D01*
X212406749Y-78887523D01*
X212441826Y-78862961D01*
X212500873Y-78821617D01*
X212604545Y-78772109D01*
X212701052Y-78758500D01*
X213149325Y-78758500D01*
X213149329Y-78758500D01*
X213344169Y-78719744D01*
X213527704Y-78643721D01*
X213692881Y-78533353D01*
X213833353Y-78392881D01*
X213998235Y-78227999D01*
X213998240Y-78227992D01*
X216137309Y-76088924D01*
X225718181Y-76088924D01*
X225738394Y-76098350D01*
X225738397Y-76098351D01*
X225945942Y-76153963D01*
X225945947Y-76153964D01*
X226160000Y-76172690D01*
X226374052Y-76153964D01*
X226374057Y-76153963D01*
X226581602Y-76098351D01*
X226581605Y-76098350D01*
X226601817Y-76088925D01*
X226601817Y-76088924D01*
X226160001Y-75647107D01*
X225718181Y-76088924D01*
X216137309Y-76088924D01*
X217286234Y-74940000D01*
X224927309Y-74940000D01*
X224946035Y-75154052D01*
X224946036Y-75154057D01*
X225001648Y-75361603D01*
X225011074Y-75381818D01*
X225400232Y-74992661D01*
X225760000Y-74992661D01*
X225787259Y-75094394D01*
X225839920Y-75185606D01*
X225914394Y-75260080D01*
X226005606Y-75312741D01*
X226107339Y-75340000D01*
X226212661Y-75340000D01*
X226314394Y-75312741D01*
X226405606Y-75260080D01*
X226480080Y-75185606D01*
X226532741Y-75094394D01*
X226560000Y-74992661D01*
X226560000Y-74940000D01*
X226867107Y-74940000D01*
X227308924Y-75381817D01*
X227308925Y-75381817D01*
X227318350Y-75361605D01*
X227318351Y-75361602D01*
X227373963Y-75154057D01*
X227373964Y-75154052D01*
X227392690Y-74940000D01*
X227373964Y-74725947D01*
X227373963Y-74725942D01*
X227318351Y-74518397D01*
X227318350Y-74518394D01*
X227308924Y-74498181D01*
X226867107Y-74940000D01*
X226560000Y-74940000D01*
X226560000Y-74887339D01*
X226532741Y-74785606D01*
X226480080Y-74694394D01*
X226405606Y-74619920D01*
X226314394Y-74567259D01*
X226212661Y-74540000D01*
X226107339Y-74540000D01*
X226005606Y-74567259D01*
X225914394Y-74619920D01*
X225839920Y-74694394D01*
X225787259Y-74785606D01*
X225760000Y-74887339D01*
X225760000Y-74992661D01*
X225400232Y-74992661D01*
X225452893Y-74940000D01*
X225452893Y-74939999D01*
X225011074Y-74498180D01*
X225001650Y-74518391D01*
X225001648Y-74518398D01*
X224946036Y-74725942D01*
X224946035Y-74725947D01*
X224927309Y-74940000D01*
X217286234Y-74940000D01*
X218435161Y-73791074D01*
X225718180Y-73791074D01*
X226160000Y-74232893D01*
X226160001Y-74232893D01*
X226601818Y-73791074D01*
X226581603Y-73781648D01*
X226374057Y-73726036D01*
X226374052Y-73726035D01*
X226160000Y-73707309D01*
X225945947Y-73726035D01*
X225945942Y-73726036D01*
X225738398Y-73781648D01*
X225738391Y-73781650D01*
X225718180Y-73791074D01*
X218435161Y-73791074D01*
X218715515Y-73510720D01*
X218809015Y-73443961D01*
X218919126Y-73411180D01*
X218962295Y-73408500D01*
X222808423Y-73408500D01*
X222921743Y-73427410D01*
X222989366Y-73461825D01*
X222990212Y-73460360D01*
X223003403Y-73467976D01*
X223198223Y-73558822D01*
X223405858Y-73614458D01*
X223620000Y-73633193D01*
X223834142Y-73614458D01*
X224041777Y-73558822D01*
X224063003Y-73548924D01*
X228258181Y-73548924D01*
X228278394Y-73558350D01*
X228278397Y-73558351D01*
X228485942Y-73613963D01*
X228485947Y-73613964D01*
X228700000Y-73632690D01*
X228914052Y-73613964D01*
X228914057Y-73613963D01*
X229121602Y-73558351D01*
X229121605Y-73558350D01*
X229141817Y-73548925D01*
X229141817Y-73548924D01*
X228700001Y-73107107D01*
X228258181Y-73548924D01*
X224063003Y-73548924D01*
X224236597Y-73467976D01*
X224412681Y-73344681D01*
X224564681Y-73192681D01*
X224687976Y-73016597D01*
X224778822Y-72821777D01*
X224834458Y-72614142D01*
X224853193Y-72400000D01*
X227467309Y-72400000D01*
X227486035Y-72614052D01*
X227486036Y-72614057D01*
X227541648Y-72821603D01*
X227551074Y-72841818D01*
X227940232Y-72452661D01*
X228300000Y-72452661D01*
X228327259Y-72554394D01*
X228379920Y-72645606D01*
X228454394Y-72720080D01*
X228545606Y-72772741D01*
X228647339Y-72800000D01*
X228752661Y-72800000D01*
X228854394Y-72772741D01*
X228945606Y-72720080D01*
X229020080Y-72645606D01*
X229072741Y-72554394D01*
X229100000Y-72452661D01*
X229100000Y-72400000D01*
X229407107Y-72400000D01*
X229848924Y-72841817D01*
X229848925Y-72841817D01*
X229858350Y-72821605D01*
X229858351Y-72821602D01*
X229913963Y-72614057D01*
X229913964Y-72614052D01*
X229932690Y-72400000D01*
X229913964Y-72185947D01*
X229913963Y-72185942D01*
X229858351Y-71978397D01*
X229858350Y-71978394D01*
X229848924Y-71958181D01*
X229407107Y-72400000D01*
X229100000Y-72400000D01*
X229100000Y-72347339D01*
X229072741Y-72245606D01*
X229020080Y-72154394D01*
X228945606Y-72079920D01*
X228854394Y-72027259D01*
X228752661Y-72000000D01*
X228647339Y-72000000D01*
X228545606Y-72027259D01*
X228454394Y-72079920D01*
X228379920Y-72154394D01*
X228327259Y-72245606D01*
X228300000Y-72347339D01*
X228300000Y-72452661D01*
X227940232Y-72452661D01*
X227992893Y-72400000D01*
X227992893Y-72399999D01*
X227551074Y-71958180D01*
X227541650Y-71978391D01*
X227541648Y-71978398D01*
X227486036Y-72185942D01*
X227486035Y-72185947D01*
X227467309Y-72400000D01*
X224853193Y-72400000D01*
X224834458Y-72185858D01*
X224778822Y-71978223D01*
X224687976Y-71783404D01*
X224624600Y-71692893D01*
X224564685Y-71607324D01*
X224564683Y-71607322D01*
X224564681Y-71607319D01*
X224412681Y-71455319D01*
X224376888Y-71430256D01*
X224236596Y-71332023D01*
X224062999Y-71251074D01*
X228258180Y-71251074D01*
X228700000Y-71692893D01*
X228700001Y-71692893D01*
X229141818Y-71251074D01*
X229121603Y-71241648D01*
X228914057Y-71186036D01*
X228914052Y-71186035D01*
X228700000Y-71167309D01*
X228485947Y-71186035D01*
X228485942Y-71186036D01*
X228278398Y-71241648D01*
X228278391Y-71241650D01*
X228258180Y-71251074D01*
X224062999Y-71251074D01*
X224041777Y-71241178D01*
X223834141Y-71185541D01*
X223620000Y-71166807D01*
X223405858Y-71185541D01*
X223198223Y-71241178D01*
X223198217Y-71241180D01*
X223003409Y-71332020D01*
X222990213Y-71339640D01*
X222989093Y-71337701D01*
X222904920Y-71377895D01*
X222808424Y-71391500D01*
X218300666Y-71391500D01*
X218105830Y-71430256D01*
X218045324Y-71455319D01*
X218045323Y-71455319D01*
X217922295Y-71506278D01*
X217757115Y-71616648D01*
X212820879Y-76552886D01*
X212727379Y-76619644D01*
X212617268Y-76652426D01*
X212502479Y-76647678D01*
X212421569Y-76616749D01*
X212420559Y-76618917D01*
X212406750Y-76612477D01*
X212406749Y-76612477D01*
X212199243Y-76515716D01*
X212199241Y-76515715D01*
X211978086Y-76456456D01*
X211750000Y-76436502D01*
X211521913Y-76456456D01*
X211300758Y-76515715D01*
X211093252Y-76612476D01*
X210905696Y-76743805D01*
X210905692Y-76743808D01*
X210743808Y-76905692D01*
X210743805Y-76905696D01*
X210743802Y-76905699D01*
X210743802Y-76905700D01*
X210691383Y-76980560D01*
X210612476Y-77093252D01*
X210515715Y-77300758D01*
X210456456Y-77521913D01*
X210436502Y-77749999D01*
X210436502Y-77750000D01*
X209208500Y-77750000D01*
X209208500Y-76562294D01*
X209227410Y-76448974D01*
X209282090Y-76347934D01*
X209310720Y-76315514D01*
X214583349Y-71042885D01*
X214583353Y-71042881D01*
X214693721Y-70877704D01*
X214769744Y-70694168D01*
X214808500Y-70499329D01*
X214808500Y-70300671D01*
X214808500Y-52500671D01*
X214769744Y-52305831D01*
X214721487Y-52189329D01*
X214693722Y-52122297D01*
X214583354Y-51957119D01*
X214583352Y-51957116D01*
X210660720Y-48034484D01*
X210593962Y-47940984D01*
X210561180Y-47830873D01*
X210558500Y-47787704D01*
X210558500Y-47590830D01*
X210577410Y-47477510D01*
X210632090Y-47376470D01*
X210716615Y-47298659D01*
X210821826Y-47252509D01*
X210936320Y-47243022D01*
X211047692Y-47271225D01*
X211143871Y-47334062D01*
X211164276Y-47354468D01*
X211167103Y-47357539D01*
X211344696Y-47495766D01*
X211344703Y-47495770D01*
X211542627Y-47602882D01*
X211589999Y-47619144D01*
X211590000Y-47619144D01*
X211590000Y-46420826D01*
X211624075Y-46547993D01*
X211689901Y-46662007D01*
X211782993Y-46755099D01*
X211897007Y-46820925D01*
X212024174Y-46855000D01*
X212155826Y-46855000D01*
X212282993Y-46820925D01*
X212397007Y-46755099D01*
X212490099Y-46662007D01*
X212555925Y-46547993D01*
X212590000Y-46420826D01*
X212590000Y-47619144D01*
X212637372Y-47602882D01*
X212835296Y-47495770D01*
X212835303Y-47495766D01*
X213012897Y-47357539D01*
X213102890Y-47259780D01*
X213193552Y-47189214D01*
X213302214Y-47151910D01*
X213417101Y-47151910D01*
X213525763Y-47189213D01*
X213616425Y-47259777D01*
X213621499Y-47265289D01*
X213706752Y-47357898D01*
X213706760Y-47357906D01*
X213884424Y-47496189D01*
X213884430Y-47496192D01*
X213884434Y-47496195D01*
X214060673Y-47591570D01*
X214082426Y-47603342D01*
X214295365Y-47676444D01*
X214517431Y-47713500D01*
X214517432Y-47713500D01*
X214742568Y-47713500D01*
X214742569Y-47713500D01*
X214964635Y-47676444D01*
X215177574Y-47603342D01*
X215375576Y-47496189D01*
X215553240Y-47357906D01*
X215643576Y-47259775D01*
X215734233Y-47189214D01*
X215842895Y-47151910D01*
X215957783Y-47151910D01*
X216066445Y-47189213D01*
X216157107Y-47259778D01*
X216157108Y-47259779D01*
X216247102Y-47357538D01*
X216424696Y-47495766D01*
X216424703Y-47495770D01*
X216622627Y-47602882D01*
X216669999Y-47619144D01*
X216670000Y-47619144D01*
X216670000Y-46420826D01*
X216704075Y-46547993D01*
X216769901Y-46662007D01*
X216862993Y-46755099D01*
X216977007Y-46820925D01*
X217104174Y-46855000D01*
X217235826Y-46855000D01*
X217362993Y-46820925D01*
X217477007Y-46755099D01*
X217570099Y-46662007D01*
X217635925Y-46547993D01*
X217670000Y-46420826D01*
X217670000Y-47619144D01*
X217717372Y-47602882D01*
X217915296Y-47495770D01*
X217915303Y-47495766D01*
X218092897Y-47357539D01*
X218182890Y-47259780D01*
X218273552Y-47189214D01*
X218382214Y-47151910D01*
X218497101Y-47151910D01*
X218605763Y-47189213D01*
X218696425Y-47259777D01*
X218701499Y-47265289D01*
X218786752Y-47357898D01*
X218786760Y-47357906D01*
X218964424Y-47496189D01*
X218964430Y-47496192D01*
X218964434Y-47496195D01*
X219140673Y-47591570D01*
X219162426Y-47603342D01*
X219375365Y-47676444D01*
X219597431Y-47713500D01*
X219597432Y-47713500D01*
X219822568Y-47713500D01*
X219822569Y-47713500D01*
X220044635Y-47676444D01*
X220257574Y-47603342D01*
X220455576Y-47496189D01*
X220633240Y-47357906D01*
X220723576Y-47259775D01*
X220814233Y-47189214D01*
X220922895Y-47151910D01*
X221037783Y-47151910D01*
X221146445Y-47189213D01*
X221237107Y-47259778D01*
X221237108Y-47259779D01*
X221327102Y-47357538D01*
X221504696Y-47495766D01*
X221504703Y-47495770D01*
X221702627Y-47602882D01*
X221749999Y-47619144D01*
X221750000Y-47619144D01*
X221750000Y-46420826D01*
X221784075Y-46547993D01*
X221849901Y-46662007D01*
X221942993Y-46755099D01*
X222057007Y-46820925D01*
X222184174Y-46855000D01*
X222315826Y-46855000D01*
X222442993Y-46820925D01*
X222557007Y-46755099D01*
X222650099Y-46662007D01*
X222715925Y-46547993D01*
X222750000Y-46420826D01*
X222750000Y-47619144D01*
X222797372Y-47602882D01*
X222995296Y-47495770D01*
X222995303Y-47495766D01*
X223172897Y-47357539D01*
X223262890Y-47259780D01*
X223353552Y-47189214D01*
X223462214Y-47151910D01*
X223577101Y-47151910D01*
X223685763Y-47189213D01*
X223776425Y-47259777D01*
X223781499Y-47265289D01*
X223866752Y-47357898D01*
X223866760Y-47357906D01*
X224044424Y-47496189D01*
X224044430Y-47496192D01*
X224044434Y-47496195D01*
X224220673Y-47591570D01*
X224242426Y-47603342D01*
X224455365Y-47676444D01*
X224677431Y-47713500D01*
X224677432Y-47713500D01*
X224902568Y-47713500D01*
X224902569Y-47713500D01*
X225124635Y-47676444D01*
X225337574Y-47603342D01*
X225535576Y-47496189D01*
X225713240Y-47357906D01*
X225803233Y-47260147D01*
X225893894Y-47189584D01*
X226002557Y-47152280D01*
X226117444Y-47152280D01*
X226226106Y-47189584D01*
X226316766Y-47260147D01*
X226326964Y-47271225D01*
X226406752Y-47357898D01*
X226406760Y-47357906D01*
X226584424Y-47496189D01*
X226584430Y-47496192D01*
X226584434Y-47496195D01*
X226760673Y-47591570D01*
X226782426Y-47603342D01*
X226995365Y-47676444D01*
X227217431Y-47713500D01*
X227217432Y-47713500D01*
X227442568Y-47713500D01*
X227442569Y-47713500D01*
X227664635Y-47676444D01*
X227877574Y-47603342D01*
X228075576Y-47496189D01*
X228253240Y-47357906D01*
X228405722Y-47192268D01*
X228528860Y-47003791D01*
X228619296Y-46797616D01*
X228674564Y-46579368D01*
X228693156Y-46355000D01*
X228674564Y-46130632D01*
X228619296Y-45912384D01*
X228619293Y-45912378D01*
X228619293Y-45912376D01*
X228528860Y-45706210D01*
X228528860Y-45706209D01*
X228405724Y-45517735D01*
X228405723Y-45517734D01*
X228405722Y-45517732D01*
X228253240Y-45352094D01*
X228075576Y-45213811D01*
X228075571Y-45213808D01*
X228075565Y-45213804D01*
X227877577Y-45106659D01*
X227664639Y-45033557D01*
X227664630Y-45033555D01*
X227442571Y-44996500D01*
X227442569Y-44996500D01*
X227217431Y-44996500D01*
X227217428Y-44996500D01*
X226995369Y-45033555D01*
X226995360Y-45033557D01*
X226782422Y-45106659D01*
X226584434Y-45213804D01*
X226584427Y-45213809D01*
X226584425Y-45213810D01*
X226584424Y-45213811D01*
X226406760Y-45352094D01*
X226406758Y-45352095D01*
X226406758Y-45352096D01*
X226406754Y-45352099D01*
X226316767Y-45449851D01*
X226226104Y-45520416D01*
X226117442Y-45557719D01*
X226002555Y-45557719D01*
X225893893Y-45520415D01*
X225803233Y-45449851D01*
X225713245Y-45352099D01*
X225713243Y-45352098D01*
X225713240Y-45352094D01*
X225535576Y-45213811D01*
X225535571Y-45213808D01*
X225535565Y-45213804D01*
X225337577Y-45106659D01*
X225124639Y-45033557D01*
X225124630Y-45033555D01*
X224902571Y-44996500D01*
X224902569Y-44996500D01*
X224677431Y-44996500D01*
X224677428Y-44996500D01*
X224455369Y-45033555D01*
X224455360Y-45033557D01*
X224242422Y-45106659D01*
X224044434Y-45213804D01*
X224044427Y-45213809D01*
X224044425Y-45213810D01*
X224044424Y-45213811D01*
X223866760Y-45352094D01*
X223866758Y-45352095D01*
X223866758Y-45352096D01*
X223866753Y-45352100D01*
X223776425Y-45450222D01*
X223685763Y-45520786D01*
X223577100Y-45558089D01*
X223462213Y-45558089D01*
X223353551Y-45520784D01*
X223262891Y-45450220D01*
X223172897Y-45352461D01*
X222995303Y-45214233D01*
X222995291Y-45214226D01*
X222797374Y-45107119D01*
X222797368Y-45107116D01*
X222750000Y-45090854D01*
X222750000Y-46289174D01*
X222715925Y-46162007D01*
X222650099Y-46047993D01*
X222557007Y-45954901D01*
X222442993Y-45889075D01*
X222315826Y-45855000D01*
X222184174Y-45855000D01*
X222057007Y-45889075D01*
X221942993Y-45954901D01*
X221849901Y-46047993D01*
X221784075Y-46162007D01*
X221750000Y-46289174D01*
X221750000Y-45090855D01*
X221749999Y-45090854D01*
X221702631Y-45107116D01*
X221702625Y-45107119D01*
X221504708Y-45214226D01*
X221504696Y-45214233D01*
X221327102Y-45352461D01*
X221327100Y-45352462D01*
X221237107Y-45450221D01*
X221146444Y-45520786D01*
X221037782Y-45558089D01*
X220922895Y-45558089D01*
X220814233Y-45520785D01*
X220723573Y-45450221D01*
X220723232Y-45449851D01*
X220633240Y-45352094D01*
X220455576Y-45213811D01*
X220455571Y-45213808D01*
X220455565Y-45213804D01*
X220257577Y-45106659D01*
X220044639Y-45033557D01*
X220044630Y-45033555D01*
X219822571Y-44996500D01*
X219822569Y-44996500D01*
X219597431Y-44996500D01*
X219597428Y-44996500D01*
X219375369Y-45033555D01*
X219375360Y-45033557D01*
X219162422Y-45106659D01*
X218964434Y-45213804D01*
X218964427Y-45213809D01*
X218964425Y-45213810D01*
X218964424Y-45213811D01*
X218786760Y-45352094D01*
X218786758Y-45352095D01*
X218786758Y-45352096D01*
X218786753Y-45352100D01*
X218696425Y-45450222D01*
X218605763Y-45520786D01*
X218497100Y-45558089D01*
X218382213Y-45558089D01*
X218273551Y-45520784D01*
X218182891Y-45450220D01*
X218092897Y-45352461D01*
X217915303Y-45214233D01*
X217915291Y-45214226D01*
X217717374Y-45107119D01*
X217717368Y-45107116D01*
X217670000Y-45090854D01*
X217670000Y-46289174D01*
X217635925Y-46162007D01*
X217570099Y-46047993D01*
X217477007Y-45954901D01*
X217362993Y-45889075D01*
X217235826Y-45855000D01*
X217104174Y-45855000D01*
X216977007Y-45889075D01*
X216862993Y-45954901D01*
X216769901Y-46047993D01*
X216704075Y-46162007D01*
X216670000Y-46289174D01*
X216670000Y-45090855D01*
X216669999Y-45090854D01*
X216622631Y-45107116D01*
X216622625Y-45107119D01*
X216424708Y-45214226D01*
X216424696Y-45214233D01*
X216247102Y-45352461D01*
X216247100Y-45352462D01*
X216157107Y-45450221D01*
X216066444Y-45520786D01*
X215957782Y-45558089D01*
X215842895Y-45558089D01*
X215734233Y-45520785D01*
X215643573Y-45450221D01*
X215643232Y-45449851D01*
X215553240Y-45352094D01*
X215375576Y-45213811D01*
X215375571Y-45213808D01*
X215375565Y-45213804D01*
X215177577Y-45106659D01*
X214964639Y-45033557D01*
X214964630Y-45033555D01*
X214742571Y-44996500D01*
X214742569Y-44996500D01*
X214517431Y-44996500D01*
X214517428Y-44996500D01*
X214295369Y-45033555D01*
X214295360Y-45033557D01*
X214082422Y-45106659D01*
X213884434Y-45213804D01*
X213884427Y-45213809D01*
X213884425Y-45213810D01*
X213884424Y-45213811D01*
X213706760Y-45352094D01*
X213706758Y-45352095D01*
X213706758Y-45352096D01*
X213706753Y-45352100D01*
X213616425Y-45450222D01*
X213525763Y-45520786D01*
X213417100Y-45558089D01*
X213302213Y-45558089D01*
X213193551Y-45520784D01*
X213102891Y-45450220D01*
X213012897Y-45352461D01*
X212835303Y-45214233D01*
X212835291Y-45214226D01*
X212637374Y-45107119D01*
X212637368Y-45107116D01*
X212590000Y-45090854D01*
X212590000Y-46289174D01*
X212555925Y-46162007D01*
X212490099Y-46047993D01*
X212397007Y-45954901D01*
X212282993Y-45889075D01*
X212155826Y-45855000D01*
X212024174Y-45855000D01*
X211897007Y-45889075D01*
X211782993Y-45954901D01*
X211689901Y-46047993D01*
X211624075Y-46162007D01*
X211590000Y-46289174D01*
X211590000Y-45090855D01*
X211589999Y-45090854D01*
X211542631Y-45107116D01*
X211542625Y-45107119D01*
X211344708Y-45214226D01*
X211344696Y-45214233D01*
X211167102Y-45352461D01*
X211167100Y-45352462D01*
X211077107Y-45450221D01*
X210986444Y-45520786D01*
X210877782Y-45558089D01*
X210762895Y-45558089D01*
X210654233Y-45520785D01*
X210563573Y-45450221D01*
X210563232Y-45449851D01*
X210473240Y-45352094D01*
X210295576Y-45213811D01*
X210295571Y-45213808D01*
X210295565Y-45213804D01*
X210097577Y-45106659D01*
X209884639Y-45033557D01*
X209884630Y-45033555D01*
X209662571Y-44996500D01*
X209662569Y-44996500D01*
X209437431Y-44996500D01*
X209437428Y-44996500D01*
X209215369Y-45033555D01*
X209215360Y-45033557D01*
X209002422Y-45106659D01*
X208804434Y-45213804D01*
X208804427Y-45213809D01*
X208804425Y-45213810D01*
X208804424Y-45213811D01*
X208626760Y-45352094D01*
X208626758Y-45352095D01*
X208626758Y-45352096D01*
X208626754Y-45352099D01*
X208536767Y-45449851D01*
X208446104Y-45520416D01*
X208337442Y-45557719D01*
X208222555Y-45557719D01*
X208113893Y-45520415D01*
X208023233Y-45449851D01*
X207933245Y-45352099D01*
X207933243Y-45352098D01*
X207933240Y-45352094D01*
X207755576Y-45213811D01*
X207755571Y-45213808D01*
X207755565Y-45213804D01*
X207557577Y-45106659D01*
X207344639Y-45033557D01*
X207344630Y-45033555D01*
X207122571Y-44996500D01*
X207122569Y-44996500D01*
X206897431Y-44996500D01*
X206897428Y-44996500D01*
X206675369Y-45033555D01*
X206675360Y-45033557D01*
X206462422Y-45106659D01*
X206264434Y-45213804D01*
X206264427Y-45213809D01*
X206264425Y-45213810D01*
X206264424Y-45213811D01*
X206086760Y-45352094D01*
X206086758Y-45352095D01*
X206086758Y-45352096D01*
X206086754Y-45352099D01*
X205996767Y-45449851D01*
X205906104Y-45520416D01*
X205797442Y-45557719D01*
X205682555Y-45557719D01*
X205573893Y-45520415D01*
X205483233Y-45449851D01*
X205393245Y-45352099D01*
X205393243Y-45352098D01*
X205393240Y-45352094D01*
X205215576Y-45213811D01*
X205215571Y-45213808D01*
X205215565Y-45213804D01*
X205017577Y-45106659D01*
X204804639Y-45033557D01*
X204804630Y-45033555D01*
X204582571Y-44996500D01*
X204582569Y-44996500D01*
X204357431Y-44996500D01*
X204357428Y-44996500D01*
X204135369Y-45033555D01*
X204135360Y-45033557D01*
X203922422Y-45106659D01*
X203724434Y-45213804D01*
X203724427Y-45213809D01*
X203724425Y-45213810D01*
X203724424Y-45213811D01*
X203546760Y-45352094D01*
X203546758Y-45352095D01*
X203546758Y-45352096D01*
X203546754Y-45352099D01*
X203456767Y-45449851D01*
X203366104Y-45520416D01*
X203257442Y-45557719D01*
X203142555Y-45557719D01*
X203033893Y-45520415D01*
X202943233Y-45449851D01*
X202853245Y-45352099D01*
X202853243Y-45352098D01*
X202853240Y-45352094D01*
X202675576Y-45213811D01*
X202675571Y-45213808D01*
X202675565Y-45213804D01*
X202477577Y-45106659D01*
X202264639Y-45033557D01*
X202264630Y-45033555D01*
X202042571Y-44996500D01*
X202042569Y-44996500D01*
X201817431Y-44996500D01*
X201817428Y-44996500D01*
X201595369Y-45033555D01*
X201595360Y-45033557D01*
X201382422Y-45106659D01*
X201184434Y-45213804D01*
X201184427Y-45213809D01*
X201184425Y-45213810D01*
X201184424Y-45213811D01*
X201006760Y-45352094D01*
X201006758Y-45352095D01*
X201006758Y-45352096D01*
X201006753Y-45352100D01*
X200916425Y-45450222D01*
X200825763Y-45520786D01*
X200717100Y-45558089D01*
X200602213Y-45558089D01*
X200493551Y-45520784D01*
X200402891Y-45450220D01*
X200312897Y-45352461D01*
X200135303Y-45214233D01*
X200135291Y-45214226D01*
X199937374Y-45107119D01*
X199937368Y-45107116D01*
X199890000Y-45090854D01*
X199890000Y-46289174D01*
X199855925Y-46162007D01*
X199790099Y-46047993D01*
X199697007Y-45954901D01*
X199582993Y-45889075D01*
X199455826Y-45855000D01*
X199324174Y-45855000D01*
X199197007Y-45889075D01*
X199082993Y-45954901D01*
X198989901Y-46047993D01*
X198924075Y-46162007D01*
X198890000Y-46289174D01*
X198890000Y-45090855D01*
X198889999Y-45090854D01*
X198842631Y-45107116D01*
X198842625Y-45107119D01*
X198644708Y-45214226D01*
X198644696Y-45214233D01*
X198467102Y-45352461D01*
X198467100Y-45352462D01*
X198377107Y-45450221D01*
X198286444Y-45520786D01*
X198177782Y-45558089D01*
X198062895Y-45558089D01*
X197954233Y-45520785D01*
X197863573Y-45450221D01*
X197863232Y-45449851D01*
X197773240Y-45352094D01*
X197595576Y-45213811D01*
X197595571Y-45213808D01*
X197595565Y-45213804D01*
X197397577Y-45106659D01*
X197184639Y-45033557D01*
X197184630Y-45033555D01*
X196962571Y-44996500D01*
X196962569Y-44996500D01*
X196737431Y-44996500D01*
X196737428Y-44996500D01*
X196515369Y-45033555D01*
X196515360Y-45033557D01*
X196302422Y-45106659D01*
X196104434Y-45213804D01*
X196104427Y-45213809D01*
X196104425Y-45213810D01*
X196104424Y-45213811D01*
X195926760Y-45352094D01*
X195926758Y-45352095D01*
X195926758Y-45352096D01*
X195926754Y-45352099D01*
X195836767Y-45449851D01*
X195746104Y-45520416D01*
X195637442Y-45557719D01*
X195522555Y-45557719D01*
X195413893Y-45520415D01*
X195323233Y-45449851D01*
X195233245Y-45352099D01*
X195233243Y-45352098D01*
X195233240Y-45352094D01*
X195055576Y-45213811D01*
X195055571Y-45213808D01*
X195055565Y-45213804D01*
X194857577Y-45106659D01*
X194644639Y-45033557D01*
X194644630Y-45033555D01*
X194422571Y-44996500D01*
X194422569Y-44996500D01*
X194197431Y-44996500D01*
X194197428Y-44996500D01*
X193975369Y-45033555D01*
X193975360Y-45033557D01*
X193762422Y-45106659D01*
X193564434Y-45213804D01*
X193564427Y-45213809D01*
X193564425Y-45213810D01*
X193564424Y-45213811D01*
X193386760Y-45352094D01*
X193386758Y-45352095D01*
X193386758Y-45352096D01*
X193386753Y-45352100D01*
X193296425Y-45450222D01*
X193205763Y-45520786D01*
X193097100Y-45558089D01*
X192982213Y-45558089D01*
X192873551Y-45520784D01*
X192782891Y-45450220D01*
X192692897Y-45352461D01*
X192515303Y-45214233D01*
X192515291Y-45214226D01*
X192317374Y-45107119D01*
X192317368Y-45107116D01*
X192270000Y-45090854D01*
X192270000Y-46289174D01*
X192235925Y-46162007D01*
X192170099Y-46047993D01*
X192077007Y-45954901D01*
X191962993Y-45889075D01*
X191835826Y-45855000D01*
X191704174Y-45855000D01*
X191577007Y-45889075D01*
X191462993Y-45954901D01*
X191369901Y-46047993D01*
X191304075Y-46162007D01*
X191270000Y-46289174D01*
X191270000Y-45090855D01*
X191269999Y-45090854D01*
X191222631Y-45107116D01*
X191222625Y-45107119D01*
X191024708Y-45214226D01*
X191024696Y-45214233D01*
X190847102Y-45352461D01*
X190847100Y-45352462D01*
X190757107Y-45450221D01*
X190666444Y-45520786D01*
X190557782Y-45558089D01*
X190442895Y-45558089D01*
X190334233Y-45520785D01*
X190243573Y-45450221D01*
X190243232Y-45449851D01*
X190153240Y-45352094D01*
X189975576Y-45213811D01*
X189975571Y-45213808D01*
X189975565Y-45213804D01*
X189777577Y-45106659D01*
X189564639Y-45033557D01*
X189564630Y-45033555D01*
X189342571Y-44996500D01*
X189342569Y-44996500D01*
X189117431Y-44996500D01*
X189117428Y-44996500D01*
X188895369Y-45033555D01*
X188895360Y-45033557D01*
X188682422Y-45106659D01*
X188484434Y-45213804D01*
X188484427Y-45213809D01*
X188484425Y-45213810D01*
X188484424Y-45213811D01*
X188306760Y-45352094D01*
X188306758Y-45352095D01*
X188306758Y-45352096D01*
X188306754Y-45352099D01*
X188216767Y-45449851D01*
X188126104Y-45520416D01*
X188017442Y-45557719D01*
X187902555Y-45557719D01*
X187793893Y-45520415D01*
X187703233Y-45449851D01*
X187613245Y-45352099D01*
X187613243Y-45352098D01*
X187613240Y-45352094D01*
X187435576Y-45213811D01*
X187435571Y-45213808D01*
X187435565Y-45213804D01*
X187237577Y-45106659D01*
X187024639Y-45033557D01*
X187024630Y-45033555D01*
X186802571Y-44996500D01*
X186802569Y-44996500D01*
X186577431Y-44996500D01*
X186577428Y-44996500D01*
X186355369Y-45033555D01*
X186355360Y-45033557D01*
X186142422Y-45106659D01*
X185944434Y-45213804D01*
X185944424Y-45213811D01*
X185891937Y-45254663D01*
X185790896Y-45309342D01*
X185677576Y-45328251D01*
X185564256Y-45309340D01*
X185463216Y-45254659D01*
X185398191Y-45188400D01*
X185363261Y-45141739D01*
X185246204Y-45054111D01*
X185246203Y-45054110D01*
X185109199Y-45003010D01*
X185048646Y-44996500D01*
X185048638Y-44996500D01*
X183251362Y-44996500D01*
X183251354Y-44996500D01*
X183190800Y-45003010D01*
X183053796Y-45054110D01*
X182936739Y-45141739D01*
X182849110Y-45258796D01*
X182798010Y-45395800D01*
X182791500Y-45456354D01*
X182791500Y-47253645D01*
X180600000Y-47253645D01*
X180600000Y-41149000D01*
X180618910Y-41035680D01*
X180673590Y-40934640D01*
X180758115Y-40856829D01*
X180863326Y-40810679D01*
X180949000Y-40800000D01*
X230651000Y-40800000D01*
X230764320Y-40818910D01*
G37*
%TD.AperFunction*%
%TD*%
M02*
