%TF.GenerationSoftware,KiCad,Pcbnew,(5.0.1)-4*%
%TF.CreationDate,2021-04-02T16:30:22+02:00*%
%TF.ProjectId,carte_PhotodectionSuiveurTrans,63617274655F50686F746F6465637469,rev?*%
%TF.SameCoordinates,Original*%
%TF.FileFunction,Copper,L2,Bot,Signal*%
%TF.FilePolarity,Positive*%
%FSLAX46Y46*%
G04 Gerber Fmt 4.6, Leading zero omitted, Abs format (unit mm)*
G04 Created by KiCad (PCBNEW (5.0.1)-4) date 02/04/2021 16:30:22*
%MOMM*%
%LPD*%
G01*
G04 APERTURE LIST*
%TA.AperFunction,NonConductor*%
%ADD10C,0.300000*%
%TD*%
%TA.AperFunction,ComponentPad*%
%ADD11R,1.700000X1.700000*%
%TD*%
%TA.AperFunction,ComponentPad*%
%ADD12O,1.700000X1.700000*%
%TD*%
%TA.AperFunction,ComponentPad*%
%ADD13R,1.800000X1.800000*%
%TD*%
%TA.AperFunction,ComponentPad*%
%ADD14C,1.800000*%
%TD*%
%TA.AperFunction,ComponentPad*%
%ADD15O,1.600000X1.600000*%
%TD*%
%TA.AperFunction,ComponentPad*%
%ADD16C,1.600000*%
%TD*%
%TA.AperFunction,ComponentPad*%
%ADD17R,2.400000X1.600000*%
%TD*%
%TA.AperFunction,ComponentPad*%
%ADD18O,2.400000X1.600000*%
%TD*%
%TA.AperFunction,ComponentPad*%
%ADD19R,1.600000X2.400000*%
%TD*%
%TA.AperFunction,ComponentPad*%
%ADD20O,1.600000X2.400000*%
%TD*%
%TA.AperFunction,ComponentPad*%
%ADD21C,1.400000*%
%TD*%
%TA.AperFunction,Conductor*%
%ADD22C,0.100000*%
%TD*%
%TA.AperFunction,ViaPad*%
%ADD23C,1.500000*%
%TD*%
%TA.AperFunction,Conductor*%
%ADD24C,1.000000*%
%TD*%
%TA.AperFunction,Conductor*%
%ADD25C,0.700000*%
%TD*%
G04 APERTURE END LIST*
D10*
X217062142Y-142278571D02*
X217776428Y-142278571D01*
X217776428Y-140778571D01*
X216562142Y-141492857D02*
X216062142Y-141492857D01*
X215847857Y-142278571D02*
X216562142Y-142278571D01*
X216562142Y-140778571D01*
X215847857Y-140778571D01*
X215205000Y-141278571D02*
X215205000Y-142278571D01*
X215205000Y-141421428D02*
X215133571Y-141350000D01*
X214990714Y-141278571D01*
X214776428Y-141278571D01*
X214633571Y-141350000D01*
X214562142Y-141492857D01*
X214562142Y-142278571D01*
X213919285Y-142207142D02*
X213776428Y-142278571D01*
X213490714Y-142278571D01*
X213347857Y-142207142D01*
X213276428Y-142064285D01*
X213276428Y-141992857D01*
X213347857Y-141850000D01*
X213490714Y-141778571D01*
X213705000Y-141778571D01*
X213847857Y-141707142D01*
X213919285Y-141564285D01*
X213919285Y-141492857D01*
X213847857Y-141350000D01*
X213705000Y-141278571D01*
X213490714Y-141278571D01*
X213347857Y-141350000D01*
X212633571Y-141492857D02*
X212133571Y-141492857D01*
X211919285Y-142278571D02*
X212633571Y-142278571D01*
X212633571Y-140778571D01*
X211919285Y-140778571D01*
X210205000Y-140921428D02*
X210133571Y-140850000D01*
X209990714Y-140778571D01*
X209633571Y-140778571D01*
X209490714Y-140850000D01*
X209419285Y-140921428D01*
X209347857Y-141064285D01*
X209347857Y-141207142D01*
X209419285Y-141421428D01*
X210276428Y-142278571D01*
X209347857Y-142278571D01*
X208419285Y-140778571D02*
X208276428Y-140778571D01*
X208133571Y-140850000D01*
X208062142Y-140921428D01*
X207990714Y-141064285D01*
X207919285Y-141350000D01*
X207919285Y-141707142D01*
X207990714Y-141992857D01*
X208062142Y-142135714D01*
X208133571Y-142207142D01*
X208276428Y-142278571D01*
X208419285Y-142278571D01*
X208562142Y-142207142D01*
X208633571Y-142135714D01*
X208705000Y-141992857D01*
X208776428Y-141707142D01*
X208776428Y-141350000D01*
X208705000Y-141064285D01*
X208633571Y-140921428D01*
X208562142Y-140850000D01*
X208419285Y-140778571D01*
X207347857Y-140921428D02*
X207276428Y-140850000D01*
X207133571Y-140778571D01*
X206776428Y-140778571D01*
X206633571Y-140850000D01*
X206562142Y-140921428D01*
X206490714Y-141064285D01*
X206490714Y-141207142D01*
X206562142Y-141421428D01*
X207419285Y-142278571D01*
X206490714Y-142278571D01*
X205062142Y-142278571D02*
X205919285Y-142278571D01*
X205490714Y-142278571D02*
X205490714Y-140778571D01*
X205633571Y-140992857D01*
X205776428Y-141135714D01*
X205919285Y-141207142D01*
X232240714Y-144828571D02*
X232240714Y-143328571D01*
X231883571Y-143328571D01*
X231669285Y-143400000D01*
X231526428Y-143542857D01*
X231455000Y-143685714D01*
X231383571Y-143971428D01*
X231383571Y-144185714D01*
X231455000Y-144471428D01*
X231526428Y-144614285D01*
X231669285Y-144757142D01*
X231883571Y-144828571D01*
X232240714Y-144828571D01*
X230169285Y-144757142D02*
X230312142Y-144828571D01*
X230597857Y-144828571D01*
X230740714Y-144757142D01*
X230812142Y-144614285D01*
X230812142Y-144042857D01*
X230740714Y-143900000D01*
X230597857Y-143828571D01*
X230312142Y-143828571D01*
X230169285Y-143900000D01*
X230097857Y-144042857D01*
X230097857Y-144185714D01*
X230812142Y-144328571D01*
X230312142Y-143257142D02*
X230526428Y-143471428D01*
X229455000Y-144828571D02*
X229455000Y-143828571D01*
X229455000Y-143971428D02*
X229383571Y-143900000D01*
X229240714Y-143828571D01*
X229026428Y-143828571D01*
X228883571Y-143900000D01*
X228812142Y-144042857D01*
X228812142Y-144828571D01*
X228812142Y-144042857D02*
X228740714Y-143900000D01*
X228597857Y-143828571D01*
X228383571Y-143828571D01*
X228240714Y-143900000D01*
X228169285Y-144042857D01*
X228169285Y-144828571D01*
X227240714Y-144828571D02*
X227383571Y-144757142D01*
X227455000Y-144685714D01*
X227526428Y-144542857D01*
X227526428Y-144114285D01*
X227455000Y-143971428D01*
X227383571Y-143900000D01*
X227240714Y-143828571D01*
X227026428Y-143828571D01*
X226883571Y-143900000D01*
X226812142Y-143971428D01*
X226740714Y-144114285D01*
X226740714Y-144542857D01*
X226812142Y-144685714D01*
X226883571Y-144757142D01*
X227026428Y-144828571D01*
X227240714Y-144828571D01*
X224955000Y-144828571D02*
X224955000Y-143328571D01*
X224383571Y-143328571D01*
X224240714Y-143400000D01*
X224169285Y-143471428D01*
X224097857Y-143614285D01*
X224097857Y-143828571D01*
X224169285Y-143971428D01*
X224240714Y-144042857D01*
X224383571Y-144114285D01*
X224955000Y-144114285D01*
X223455000Y-144828571D02*
X223455000Y-143328571D01*
X222812142Y-144828571D02*
X222812142Y-144042857D01*
X222883571Y-143900000D01*
X223026428Y-143828571D01*
X223240714Y-143828571D01*
X223383571Y-143900000D01*
X223455000Y-143971428D01*
X222097857Y-144828571D02*
X222097857Y-143328571D01*
X221740714Y-143328571D01*
X221526428Y-143400000D01*
X221383571Y-143542857D01*
X221312142Y-143685714D01*
X221240714Y-143971428D01*
X221240714Y-144185714D01*
X221312142Y-144471428D01*
X221383571Y-144614285D01*
X221526428Y-144757142D01*
X221740714Y-144828571D01*
X222097857Y-144828571D01*
X219526428Y-144757142D02*
X219312142Y-144828571D01*
X218955000Y-144828571D01*
X218812142Y-144757142D01*
X218740714Y-144685714D01*
X218669285Y-144542857D01*
X218669285Y-144400000D01*
X218740714Y-144257142D01*
X218812142Y-144185714D01*
X218955000Y-144114285D01*
X219240714Y-144042857D01*
X219383571Y-143971428D01*
X219455000Y-143900000D01*
X219526428Y-143757142D01*
X219526428Y-143614285D01*
X219455000Y-143471428D01*
X219383571Y-143400000D01*
X219240714Y-143328571D01*
X218883571Y-143328571D01*
X218669285Y-143400000D01*
X218026428Y-144828571D02*
X218026428Y-143828571D01*
X218026428Y-143328571D02*
X218097857Y-143400000D01*
X218026428Y-143471428D01*
X217955000Y-143400000D01*
X218026428Y-143328571D01*
X218026428Y-143471428D01*
X217312142Y-144828571D02*
X217312142Y-143828571D01*
X217312142Y-143971428D02*
X217240714Y-143900000D01*
X217097857Y-143828571D01*
X216883571Y-143828571D01*
X216740714Y-143900000D01*
X216669285Y-144042857D01*
X216669285Y-144828571D01*
X216669285Y-144042857D02*
X216597857Y-143900000D01*
X216455000Y-143828571D01*
X216240714Y-143828571D01*
X216097857Y-143900000D01*
X216026428Y-144042857D01*
X216026428Y-144828571D01*
X215312142Y-143828571D02*
X215312142Y-145328571D01*
X215312142Y-143900000D02*
X215169285Y-143828571D01*
X214883571Y-143828571D01*
X214740714Y-143900000D01*
X214669285Y-143971428D01*
X214597857Y-144114285D01*
X214597857Y-144542857D01*
X214669285Y-144685714D01*
X214740714Y-144757142D01*
X214883571Y-144828571D01*
X215169285Y-144828571D01*
X215312142Y-144757142D01*
X213740714Y-144828571D02*
X213883571Y-144757142D01*
X213955000Y-144614285D01*
X213955000Y-143328571D01*
X212597857Y-144757142D02*
X212740714Y-144828571D01*
X213026428Y-144828571D01*
X213169285Y-144757142D01*
X213240714Y-144614285D01*
X213240714Y-144042857D01*
X213169285Y-143900000D01*
X213026428Y-143828571D01*
X212740714Y-143828571D01*
X212597857Y-143900000D01*
X212526428Y-144042857D01*
X212526428Y-144185714D01*
X213240714Y-144328571D01*
X209669285Y-143257142D02*
X210955000Y-145185714D01*
X208097857Y-144757142D02*
X207883571Y-144828571D01*
X207526428Y-144828571D01*
X207383571Y-144757142D01*
X207312142Y-144685714D01*
X207240714Y-144542857D01*
X207240714Y-144400000D01*
X207312142Y-144257142D01*
X207383571Y-144185714D01*
X207526428Y-144114285D01*
X207812142Y-144042857D01*
X207955000Y-143971428D01*
X208026428Y-143900000D01*
X208097857Y-143757142D01*
X208097857Y-143614285D01*
X208026428Y-143471428D01*
X207955000Y-143400000D01*
X207812142Y-143328571D01*
X207455000Y-143328571D01*
X207240714Y-143400000D01*
X205955000Y-143828571D02*
X205955000Y-144828571D01*
X206597857Y-143828571D02*
X206597857Y-144614285D01*
X206526428Y-144757142D01*
X206383571Y-144828571D01*
X206169285Y-144828571D01*
X206026428Y-144757142D01*
X205955000Y-144685714D01*
X205240714Y-144828571D02*
X205240714Y-143828571D01*
X205240714Y-143328571D02*
X205312142Y-143400000D01*
X205240714Y-143471428D01*
X205169285Y-143400000D01*
X205240714Y-143328571D01*
X205240714Y-143471428D01*
X204669285Y-143828571D02*
X204312142Y-144828571D01*
X203955000Y-143828571D01*
X202812142Y-144757142D02*
X202955000Y-144828571D01*
X203240714Y-144828571D01*
X203383571Y-144757142D01*
X203455000Y-144614285D01*
X203455000Y-144042857D01*
X203383571Y-143900000D01*
X203240714Y-143828571D01*
X202955000Y-143828571D01*
X202812142Y-143900000D01*
X202740714Y-144042857D01*
X202740714Y-144185714D01*
X203455000Y-144328571D01*
X201455000Y-143828571D02*
X201455000Y-144828571D01*
X202097857Y-143828571D02*
X202097857Y-144614285D01*
X202026428Y-144757142D01*
X201883571Y-144828571D01*
X201669285Y-144828571D01*
X201526428Y-144757142D01*
X201455000Y-144685714D01*
X200740714Y-144828571D02*
X200740714Y-143828571D01*
X200740714Y-144114285D02*
X200669285Y-143971428D01*
X200597857Y-143900000D01*
X200455000Y-143828571D01*
X200312142Y-143828571D01*
X197597857Y-143257142D02*
X198883571Y-145185714D01*
X196169285Y-143328571D02*
X195312142Y-143328571D01*
X195740714Y-144828571D02*
X195740714Y-143328571D01*
X194812142Y-144828571D02*
X194812142Y-143828571D01*
X194812142Y-144114285D02*
X194740714Y-143971428D01*
X194669285Y-143900000D01*
X194526428Y-143828571D01*
X194383571Y-143828571D01*
X193240714Y-144828571D02*
X193240714Y-144042857D01*
X193312142Y-143900000D01*
X193455000Y-143828571D01*
X193740714Y-143828571D01*
X193883571Y-143900000D01*
X193240714Y-144757142D02*
X193383571Y-144828571D01*
X193740714Y-144828571D01*
X193883571Y-144757142D01*
X193955000Y-144614285D01*
X193955000Y-144471428D01*
X193883571Y-144328571D01*
X193740714Y-144257142D01*
X193383571Y-144257142D01*
X193240714Y-144185714D01*
X192526428Y-143828571D02*
X192526428Y-144828571D01*
X192526428Y-143971428D02*
X192455000Y-143900000D01*
X192312142Y-143828571D01*
X192097857Y-143828571D01*
X191955000Y-143900000D01*
X191883571Y-144042857D01*
X191883571Y-144828571D01*
X191240714Y-144757142D02*
X191097857Y-144828571D01*
X190812142Y-144828571D01*
X190669285Y-144757142D01*
X190597857Y-144614285D01*
X190597857Y-144542857D01*
X190669285Y-144400000D01*
X190812142Y-144328571D01*
X191026428Y-144328571D01*
X191169285Y-144257142D01*
X191240714Y-144114285D01*
X191240714Y-144042857D01*
X191169285Y-143900000D01*
X191026428Y-143828571D01*
X190812142Y-143828571D01*
X190669285Y-143900000D01*
D11*
%TO.P,J1,1*%
%TO.N,Net-(J1-Pad1)*%
X184150000Y-46355000D03*
D12*
%TO.P,J1,2*%
%TO.N,Net-(J1-Pad2)*%
X186690000Y-46355000D03*
%TO.P,J1,3*%
%TO.N,Net-(J1-Pad3)*%
X189230000Y-46355000D03*
%TO.P,J1,4*%
%TO.N,GND*%
X191770000Y-46355000D03*
%TO.P,J1,5*%
%TO.N,IN1*%
X194310000Y-46355000D03*
%TO.P,J1,6*%
%TO.N,IN2*%
X196850000Y-46355000D03*
%TO.P,J1,7*%
%TO.N,GND*%
X199390000Y-46355000D03*
%TO.P,J1,8*%
%TO.N,OUT1*%
X201930000Y-46355000D03*
%TO.P,J1,9*%
%TO.N,OUT2*%
X204470000Y-46355000D03*
%TO.P,J1,10*%
%TO.N,OUT3*%
X207010000Y-46355000D03*
%TO.P,J1,11*%
%TO.N,IN1*%
X209550000Y-46355000D03*
%TO.P,J1,12*%
%TO.N,GND*%
X212090000Y-46355000D03*
%TO.P,J1,13*%
%TO.N,-15V*%
X214630000Y-46355000D03*
%TO.P,J1,14*%
%TO.N,GND*%
X217170000Y-46355000D03*
%TO.P,J1,15*%
%TO.N,+15V*%
X219710000Y-46355000D03*
%TO.P,J1,16*%
%TO.N,GND*%
X222250000Y-46355000D03*
%TO.P,J1,17*%
%TO.N,5V*%
X224790000Y-46355000D03*
%TO.P,J1,18*%
%TO.N,3.3V*%
X227330000Y-46355000D03*
%TD*%
D13*
%TO.P,D1,1*%
%TO.N,Net-(D1-Pad1)*%
X210820000Y-90805000D03*
D14*
%TO.P,D1,2*%
%TO.N,LED_IN*%
X210820000Y-88265000D03*
%TD*%
%TO.P,D2,2*%
%TO.N,LED_IN*%
X210820000Y-108585000D03*
D13*
%TO.P,D2,1*%
%TO.N,Net-(D2-Pad1)*%
X210820000Y-111125000D03*
%TD*%
%TO.P,D3,1*%
%TO.N,Net-(D3-Pad1)*%
X210820000Y-131445000D03*
D14*
%TO.P,D3,2*%
%TO.N,LED_IN*%
X210820000Y-128905000D03*
%TD*%
D15*
%TO.P,R1,2*%
%TO.N,GND*%
X170815000Y-90805000D03*
D16*
%TO.P,R1,1*%
%TO.N,Net-(D1-Pad1)*%
X183515000Y-90805000D03*
%TD*%
D15*
%TO.P,R2,2*%
%TO.N,GND*%
X170815000Y-111125000D03*
D16*
%TO.P,R2,1*%
%TO.N,Net-(D2-Pad1)*%
X183515000Y-111125000D03*
%TD*%
D15*
%TO.P,R3,2*%
%TO.N,GND*%
X170815000Y-131445000D03*
D16*
%TO.P,R3,1*%
%TO.N,Net-(D3-Pad1)*%
X183515000Y-131445000D03*
%TD*%
%TO.P,R4,1*%
%TO.N,OUT1*%
X239395000Y-90805000D03*
D15*
%TO.P,R4,2*%
%TO.N,GND*%
X252095000Y-90805000D03*
%TD*%
D16*
%TO.P,R5,1*%
%TO.N,Net-(D5-Pad2)*%
X239395000Y-106045000D03*
D15*
%TO.P,R5,2*%
%TO.N,GND*%
X252095000Y-106045000D03*
%TD*%
D16*
%TO.P,R6,1*%
%TO.N,OUT3*%
X248920000Y-131445000D03*
D15*
%TO.P,R6,2*%
%TO.N,Net-(D6-Pad1)*%
X236220000Y-131445000D03*
%TD*%
D17*
%TO.P,U2,1*%
%TO.N,Net-(U2-Pad1)*%
X203835000Y-59055000D03*
D18*
%TO.P,U2,5*%
%TO.N,Net-(U2-Pad5)*%
X211455000Y-66675000D03*
%TO.P,U2,2*%
%TO.N,LED_IN*%
X203835000Y-61595000D03*
%TO.P,U2,6*%
X211455000Y-64135000D03*
%TO.P,U2,3*%
%TO.N,IN1*%
X203835000Y-64135000D03*
%TO.P,U2,7*%
%TO.N,+15V*%
X211455000Y-61595000D03*
%TO.P,U2,4*%
%TO.N,-15V*%
X203835000Y-66675000D03*
%TO.P,U2,8*%
%TO.N,Net-(U2-Pad8)*%
X211455000Y-59055000D03*
%TD*%
D19*
%TO.P,U1,1*%
%TO.N,OUT2*%
X251460000Y-117475000D03*
D20*
%TO.P,U1,5*%
%TO.N,GND*%
X243840000Y-125095000D03*
%TO.P,U1,2*%
%TO.N,OUT2*%
X248920000Y-117475000D03*
%TO.P,U1,6*%
%TO.N,Net-(D6-Pad1)*%
X246380000Y-125095000D03*
%TO.P,U1,3*%
%TO.N,Net-(D5-Pad2)*%
X246380000Y-117475000D03*
%TO.P,U1,7*%
%TO.N,OUT3*%
X248920000Y-125095000D03*
%TO.P,U1,4*%
%TO.N,-15V*%
X243840000Y-117475000D03*
%TO.P,U1,8*%
%TO.N,+15V*%
X251460000Y-125095000D03*
%TD*%
D21*
%TO.P,D4,2*%
%TO.N,OUT1*%
X227965000Y-88265000D03*
D22*
%TD*%
%TO.N,+15V*%
%TO.C,D4*%
G36*
X228440226Y-90126200D02*
X228464417Y-90129788D01*
X228488139Y-90135730D01*
X228511165Y-90143969D01*
X228533272Y-90154425D01*
X228554248Y-90166998D01*
X228573891Y-90181566D01*
X228592011Y-90197989D01*
X228608434Y-90216109D01*
X228623002Y-90235752D01*
X228635575Y-90256728D01*
X228646031Y-90278835D01*
X228654270Y-90301861D01*
X228660212Y-90325583D01*
X228663800Y-90349774D01*
X228665000Y-90374200D01*
X228665000Y-91275800D01*
X228663800Y-91300226D01*
X228660212Y-91324417D01*
X228654270Y-91348139D01*
X228646031Y-91371165D01*
X228635575Y-91393272D01*
X228623002Y-91414248D01*
X228608434Y-91433891D01*
X228592011Y-91452011D01*
X228573891Y-91468434D01*
X228554248Y-91483002D01*
X228533272Y-91495575D01*
X228511165Y-91506031D01*
X228488139Y-91514270D01*
X228464417Y-91520212D01*
X228440226Y-91523800D01*
X228415800Y-91525000D01*
X227514200Y-91525000D01*
X227489774Y-91523800D01*
X227465583Y-91520212D01*
X227441861Y-91514270D01*
X227418835Y-91506031D01*
X227396728Y-91495575D01*
X227375752Y-91483002D01*
X227356109Y-91468434D01*
X227337989Y-91452011D01*
X227321566Y-91433891D01*
X227306998Y-91414248D01*
X227294425Y-91393272D01*
X227283969Y-91371165D01*
X227275730Y-91348139D01*
X227269788Y-91324417D01*
X227266200Y-91300226D01*
X227265000Y-91275800D01*
X227265000Y-90374200D01*
X227266200Y-90349774D01*
X227269788Y-90325583D01*
X227275730Y-90301861D01*
X227283969Y-90278835D01*
X227294425Y-90256728D01*
X227306998Y-90235752D01*
X227321566Y-90216109D01*
X227337989Y-90197989D01*
X227356109Y-90181566D01*
X227375752Y-90166998D01*
X227396728Y-90154425D01*
X227418835Y-90143969D01*
X227441861Y-90135730D01*
X227465583Y-90129788D01*
X227489774Y-90126200D01*
X227514200Y-90125000D01*
X228415800Y-90125000D01*
X228440226Y-90126200D01*
X228440226Y-90126200D01*
G37*
D21*
%TO.P,D4,1*%
%TO.N,+15V*%
X227965000Y-90825000D03*
%TD*%
D22*
%TO.N,+15V*%
%TO.C,D5*%
G36*
X228440226Y-110446200D02*
X228464417Y-110449788D01*
X228488139Y-110455730D01*
X228511165Y-110463969D01*
X228533272Y-110474425D01*
X228554248Y-110486998D01*
X228573891Y-110501566D01*
X228592011Y-110517989D01*
X228608434Y-110536109D01*
X228623002Y-110555752D01*
X228635575Y-110576728D01*
X228646031Y-110598835D01*
X228654270Y-110621861D01*
X228660212Y-110645583D01*
X228663800Y-110669774D01*
X228665000Y-110694200D01*
X228665000Y-111595800D01*
X228663800Y-111620226D01*
X228660212Y-111644417D01*
X228654270Y-111668139D01*
X228646031Y-111691165D01*
X228635575Y-111713272D01*
X228623002Y-111734248D01*
X228608434Y-111753891D01*
X228592011Y-111772011D01*
X228573891Y-111788434D01*
X228554248Y-111803002D01*
X228533272Y-111815575D01*
X228511165Y-111826031D01*
X228488139Y-111834270D01*
X228464417Y-111840212D01*
X228440226Y-111843800D01*
X228415800Y-111845000D01*
X227514200Y-111845000D01*
X227489774Y-111843800D01*
X227465583Y-111840212D01*
X227441861Y-111834270D01*
X227418835Y-111826031D01*
X227396728Y-111815575D01*
X227375752Y-111803002D01*
X227356109Y-111788434D01*
X227337989Y-111772011D01*
X227321566Y-111753891D01*
X227306998Y-111734248D01*
X227294425Y-111713272D01*
X227283969Y-111691165D01*
X227275730Y-111668139D01*
X227269788Y-111644417D01*
X227266200Y-111620226D01*
X227265000Y-111595800D01*
X227265000Y-110694200D01*
X227266200Y-110669774D01*
X227269788Y-110645583D01*
X227275730Y-110621861D01*
X227283969Y-110598835D01*
X227294425Y-110576728D01*
X227306998Y-110555752D01*
X227321566Y-110536109D01*
X227337989Y-110517989D01*
X227356109Y-110501566D01*
X227375752Y-110486998D01*
X227396728Y-110474425D01*
X227418835Y-110463969D01*
X227441861Y-110455730D01*
X227465583Y-110449788D01*
X227489774Y-110446200D01*
X227514200Y-110445000D01*
X228415800Y-110445000D01*
X228440226Y-110446200D01*
X228440226Y-110446200D01*
G37*
D21*
%TD*%
%TO.P,D5,1*%
%TO.N,+15V*%
X227965000Y-111145000D03*
%TO.P,D5,2*%
%TO.N,Net-(D5-Pad2)*%
X227965000Y-108585000D03*
%TD*%
%TO.P,D6,2*%
%TO.N,-15V*%
X227965000Y-128905000D03*
D22*
%TD*%
%TO.N,Net-(D6-Pad1)*%
%TO.C,D6*%
G36*
X228440226Y-130766200D02*
X228464417Y-130769788D01*
X228488139Y-130775730D01*
X228511165Y-130783969D01*
X228533272Y-130794425D01*
X228554248Y-130806998D01*
X228573891Y-130821566D01*
X228592011Y-130837989D01*
X228608434Y-130856109D01*
X228623002Y-130875752D01*
X228635575Y-130896728D01*
X228646031Y-130918835D01*
X228654270Y-130941861D01*
X228660212Y-130965583D01*
X228663800Y-130989774D01*
X228665000Y-131014200D01*
X228665000Y-131915800D01*
X228663800Y-131940226D01*
X228660212Y-131964417D01*
X228654270Y-131988139D01*
X228646031Y-132011165D01*
X228635575Y-132033272D01*
X228623002Y-132054248D01*
X228608434Y-132073891D01*
X228592011Y-132092011D01*
X228573891Y-132108434D01*
X228554248Y-132123002D01*
X228533272Y-132135575D01*
X228511165Y-132146031D01*
X228488139Y-132154270D01*
X228464417Y-132160212D01*
X228440226Y-132163800D01*
X228415800Y-132165000D01*
X227514200Y-132165000D01*
X227489774Y-132163800D01*
X227465583Y-132160212D01*
X227441861Y-132154270D01*
X227418835Y-132146031D01*
X227396728Y-132135575D01*
X227375752Y-132123002D01*
X227356109Y-132108434D01*
X227337989Y-132092011D01*
X227321566Y-132073891D01*
X227306998Y-132054248D01*
X227294425Y-132033272D01*
X227283969Y-132011165D01*
X227275730Y-131988139D01*
X227269788Y-131964417D01*
X227266200Y-131940226D01*
X227265000Y-131915800D01*
X227265000Y-131014200D01*
X227266200Y-130989774D01*
X227269788Y-130965583D01*
X227275730Y-130941861D01*
X227283969Y-130918835D01*
X227294425Y-130896728D01*
X227306998Y-130875752D01*
X227321566Y-130856109D01*
X227337989Y-130837989D01*
X227356109Y-130821566D01*
X227375752Y-130806998D01*
X227396728Y-130794425D01*
X227418835Y-130783969D01*
X227441861Y-130775730D01*
X227465583Y-130769788D01*
X227489774Y-130766200D01*
X227514200Y-130765000D01*
X228415800Y-130765000D01*
X228440226Y-130766200D01*
X228440226Y-130766200D01*
G37*
D21*
%TO.P,D6,1*%
%TO.N,Net-(D6-Pad1)*%
X227965000Y-131465000D03*
%TD*%
D23*
%TO.N,LED_IN*%
X187325000Y-71120000D03*
X187325000Y-71120000D03*
X200660000Y-71120000D03*
%TO.N,IN1*%
X194310000Y-50165000D03*
X209550000Y-50165000D03*
%TO.N,-15V*%
X208915000Y-81915000D03*
X208915000Y-71120000D03*
%TO.N,+15V*%
X245745000Y-94615000D03*
X239395000Y-94615000D03*
%TD*%
D24*
%TO.N,Net-(D1-Pad1)*%
X183515000Y-90805000D02*
X193040000Y-90805000D01*
X193040000Y-90805000D02*
X210820000Y-90805000D01*
%TO.N,LED_IN*%
X212725000Y-128905000D02*
X210820000Y-128905000D01*
X213995000Y-127635000D02*
X212725000Y-128905000D01*
X210820000Y-108585000D02*
X213995000Y-108585000D01*
X213995000Y-108585000D02*
X213995000Y-127635000D01*
X189865000Y-80645000D02*
X187325000Y-78105000D01*
X187325000Y-78105000D02*
X187325000Y-71120000D01*
X213995000Y-89535000D02*
X213995000Y-108585000D01*
X210820000Y-88265000D02*
X212725000Y-88265000D01*
X212725000Y-88265000D02*
X213995000Y-89535000D01*
X203835000Y-61595000D02*
X201930000Y-61595000D01*
X201930000Y-61595000D02*
X200660000Y-62865000D01*
X200660000Y-62865000D02*
X200660000Y-71120000D01*
X212725000Y-64135000D02*
X211455000Y-64135000D01*
X202565000Y-73025000D02*
X212725000Y-73025000D01*
X212725000Y-73025000D02*
X213995000Y-71755000D01*
X200660000Y-71120000D02*
X202565000Y-73025000D01*
X213995000Y-71755000D02*
X213995000Y-65405000D01*
X213995000Y-65405000D02*
X212725000Y-64135000D01*
X197485000Y-88265000D02*
X192405000Y-83185000D01*
X210820000Y-88265000D02*
X197485000Y-88265000D01*
X193040000Y-83820000D02*
X192405000Y-83185000D01*
X192405000Y-83185000D02*
X189865000Y-80645000D01*
%TO.N,Net-(D2-Pad1)*%
X183515000Y-111125000D02*
X193040000Y-111125000D01*
X193040000Y-111125000D02*
X210820000Y-111125000D01*
%TO.N,Net-(D3-Pad1)*%
X183515000Y-131445000D02*
X193040000Y-131445000D01*
X193040000Y-131445000D02*
X210820000Y-131445000D01*
%TO.N,OUT1*%
X191770000Y-76835000D02*
X191770000Y-60960000D01*
X193675000Y-78740000D02*
X191770000Y-76835000D01*
X191770000Y-60960000D02*
X201930000Y-50800000D01*
X201930000Y-50800000D02*
X201930000Y-46355000D01*
X223520000Y-78740000D02*
X193675000Y-78740000D01*
X227965000Y-83185000D02*
X223520000Y-78740000D01*
X235585000Y-90805000D02*
X239395000Y-90805000D01*
X227965000Y-83185000D02*
X235585000Y-90805000D01*
X230505000Y-85725000D02*
X227965000Y-83185000D01*
X227965000Y-88265000D02*
X230505000Y-85725000D01*
%TO.N,OUT2*%
X248920000Y-117475000D02*
X251460000Y-117475000D01*
X241935000Y-107315000D02*
X248920000Y-114300000D01*
X241935000Y-90170000D02*
X241935000Y-107315000D01*
X248920000Y-114300000D02*
X248920000Y-117475000D01*
X238760000Y-86995000D02*
X241935000Y-90170000D01*
X204470000Y-50800000D02*
X193675000Y-61595000D01*
X234315000Y-86995000D02*
X238760000Y-86995000D01*
X204470000Y-46355000D02*
X204470000Y-50800000D01*
X224155000Y-76835000D02*
X234315000Y-86995000D01*
X193675000Y-75565000D02*
X194945000Y-76835000D01*
X193675000Y-61595000D02*
X193675000Y-75565000D01*
X194945000Y-76835000D02*
X224155000Y-76835000D01*
%TO.N,OUT3*%
X248920000Y-131445000D02*
X248920000Y-125095000D01*
X207010000Y-50800000D02*
X207010000Y-46355000D01*
X231140000Y-74930000D02*
X196850000Y-74930000D01*
X243840000Y-87630000D02*
X231140000Y-74930000D01*
X196850000Y-74930000D02*
X195580000Y-73660000D01*
X248920000Y-123825000D02*
X253365000Y-119380000D01*
X195580000Y-62230000D02*
X207010000Y-50800000D01*
X195580000Y-73660000D02*
X195580000Y-62230000D01*
X248920000Y-125095000D02*
X248920000Y-123825000D01*
X253365000Y-119380000D02*
X253365000Y-115570000D01*
X253365000Y-115570000D02*
X243840000Y-106045000D01*
X243840000Y-106045000D02*
X243840000Y-87630000D01*
%TO.N,IN1*%
X206375000Y-55880000D02*
X209550000Y-52705000D01*
X206375000Y-63500000D02*
X206375000Y-55880000D01*
X203835000Y-64135000D02*
X205740000Y-64135000D01*
X209550000Y-52705000D02*
X209550000Y-46355000D01*
X205740000Y-64135000D02*
X206375000Y-63500000D01*
X194310000Y-46355000D02*
X194310000Y-50165000D01*
%TO.N,-15V*%
X214630000Y-53975000D02*
X214630000Y-46355000D01*
X208915000Y-59690000D02*
X214630000Y-53975000D01*
X203835000Y-66675000D02*
X208915000Y-66675000D01*
X208915000Y-59690000D02*
X208915000Y-66675000D01*
X208915000Y-66675000D02*
X208915000Y-71120000D01*
X211455000Y-84455000D02*
X208915000Y-81915000D01*
X217170000Y-84455000D02*
X211455000Y-84455000D01*
X221615000Y-88900000D02*
X217170000Y-84455000D01*
X225425000Y-126365000D02*
X221615000Y-122555000D01*
X221615000Y-122555000D02*
X221615000Y-88900000D01*
X225425000Y-126365000D02*
X227965000Y-128905000D01*
X243840000Y-118745000D02*
X243840000Y-117475000D01*
X227965000Y-128905000D02*
X233680000Y-128905000D01*
X233680000Y-128905000D02*
X243840000Y-118745000D01*
%TO.N,+15V*%
X253365000Y-123190000D02*
X251460000Y-125095000D01*
X255270000Y-121285000D02*
X253365000Y-123190000D01*
X231775000Y-73025000D02*
X245745000Y-86995000D01*
X245745000Y-104775000D02*
X255270000Y-114300000D01*
X223520000Y-73025000D02*
X231775000Y-73025000D01*
X255270000Y-114300000D02*
X255270000Y-121285000D01*
X211455000Y-61595000D02*
X215265000Y-61595000D01*
X219710000Y-57150000D02*
X219710000Y-46355000D01*
X216535000Y-73025000D02*
X223520000Y-73025000D01*
X215265000Y-61595000D02*
X215900000Y-61595000D01*
X215900000Y-72390000D02*
X216535000Y-73025000D01*
X215900000Y-61595000D02*
X215900000Y-72390000D01*
X219710000Y-57785000D02*
X215900000Y-61595000D01*
X219710000Y-57150000D02*
X219710000Y-57785000D01*
X245745000Y-94615000D02*
X245745000Y-104775000D01*
X245745000Y-86995000D02*
X245745000Y-94615000D01*
X237490000Y-92710000D02*
X239395000Y-94615000D01*
X234315000Y-92710000D02*
X237490000Y-92710000D01*
X232410000Y-90805000D02*
X234315000Y-92710000D01*
X227965000Y-90825000D02*
X227985000Y-90805000D01*
X227985000Y-90805000D02*
X232410000Y-90805000D01*
X230485000Y-111145000D02*
X227965000Y-111145000D01*
X239395000Y-94615000D02*
X239395000Y-102235000D01*
X239395000Y-102235000D02*
X230485000Y-111145000D01*
%TO.N,Net-(D5-Pad2)*%
X238165000Y-106045000D02*
X233065000Y-111145000D01*
X239395000Y-106045000D02*
X238165000Y-106045000D01*
X246380000Y-114617500D02*
X246380000Y-117475000D01*
X239395000Y-106045000D02*
X239395000Y-107632500D01*
X239395000Y-107632500D02*
X246380000Y-114617500D01*
X233065000Y-111145000D02*
X233025000Y-111145000D01*
X233025000Y-111145000D02*
X230505000Y-113665000D01*
X230505000Y-113665000D02*
X226695000Y-113665000D01*
X226695000Y-113665000D02*
X225425000Y-112395000D01*
X225425000Y-112395000D02*
X225425000Y-109220000D01*
X226060000Y-108585000D02*
X227965000Y-108585000D01*
X225425000Y-109220000D02*
X226060000Y-108585000D01*
%TO.N,Net-(D6-Pad1)*%
X232410000Y-131445000D02*
X236220000Y-131445000D01*
X245745000Y-122555000D02*
X246380000Y-123190000D01*
X242570000Y-122555000D02*
X245745000Y-122555000D01*
X236220000Y-131445000D02*
X236220000Y-128905000D01*
X246380000Y-123190000D02*
X246380000Y-125095000D01*
X236220000Y-128905000D02*
X242570000Y-122555000D01*
X232390000Y-131465000D02*
X227965000Y-131465000D01*
X232410000Y-131445000D02*
X232390000Y-131465000D01*
%TD*%
D25*
%TO.N,GND*%
G36*
X230257001Y-57106616D02*
X230252728Y-57150000D01*
X230269777Y-57323098D01*
X230320268Y-57489544D01*
X230402260Y-57642942D01*
X230512604Y-57777396D01*
X230647058Y-57887740D01*
X230800456Y-57969732D01*
X230966902Y-58020223D01*
X231096627Y-58033000D01*
X231140000Y-58037272D01*
X231183373Y-58033000D01*
X259467000Y-58033000D01*
X259467001Y-147072000D01*
X162808000Y-147072000D01*
X162808000Y-139587000D01*
X189304143Y-139587000D01*
X189304143Y-146403000D01*
X233605857Y-146403000D01*
X233605857Y-139587000D01*
X189304143Y-139587000D01*
X162808000Y-139587000D01*
X162808000Y-136967154D01*
X198702000Y-136967154D01*
X198702000Y-137352846D01*
X198777245Y-137731128D01*
X198924843Y-138087461D01*
X199139122Y-138408152D01*
X199411848Y-138680878D01*
X199732539Y-138895157D01*
X200088872Y-139042755D01*
X200467154Y-139118000D01*
X200852846Y-139118000D01*
X201231128Y-139042755D01*
X201587461Y-138895157D01*
X201908152Y-138680878D01*
X202180878Y-138408152D01*
X202395157Y-138087461D01*
X202542755Y-137731128D01*
X202618000Y-137352846D01*
X202618000Y-136967154D01*
X232357000Y-136967154D01*
X232357000Y-137352846D01*
X232432245Y-137731128D01*
X232579843Y-138087461D01*
X232794122Y-138408152D01*
X233066848Y-138680878D01*
X233387539Y-138895157D01*
X233743872Y-139042755D01*
X234122154Y-139118000D01*
X234507846Y-139118000D01*
X234886128Y-139042755D01*
X235242461Y-138895157D01*
X235563152Y-138680878D01*
X235835878Y-138408152D01*
X236050157Y-138087461D01*
X236197755Y-137731128D01*
X236273000Y-137352846D01*
X236273000Y-136967154D01*
X236197755Y-136588872D01*
X236050157Y-136232539D01*
X235835878Y-135911848D01*
X235563152Y-135639122D01*
X235242461Y-135424843D01*
X234886128Y-135277245D01*
X234507846Y-135202000D01*
X234122154Y-135202000D01*
X233743872Y-135277245D01*
X233387539Y-135424843D01*
X233066848Y-135639122D01*
X232794122Y-135911848D01*
X232579843Y-136232539D01*
X232432245Y-136588872D01*
X232357000Y-136967154D01*
X202618000Y-136967154D01*
X202542755Y-136588872D01*
X202395157Y-136232539D01*
X202180878Y-135911848D01*
X201908152Y-135639122D01*
X201587461Y-135424843D01*
X201231128Y-135277245D01*
X200852846Y-135202000D01*
X200467154Y-135202000D01*
X200088872Y-135277245D01*
X199732539Y-135424843D01*
X199411848Y-135639122D01*
X199139122Y-135911848D01*
X198924843Y-136232539D01*
X198777245Y-136588872D01*
X198702000Y-136967154D01*
X162808000Y-136967154D01*
X162808000Y-131851458D01*
X169207593Y-131851458D01*
X169252669Y-132000072D01*
X169390978Y-132294202D01*
X169584011Y-132555698D01*
X169824350Y-132774510D01*
X170102760Y-132942230D01*
X170408541Y-133052412D01*
X170665000Y-132881706D01*
X170665000Y-131595000D01*
X170965000Y-131595000D01*
X170965000Y-132881706D01*
X171221459Y-133052412D01*
X171527240Y-132942230D01*
X171805650Y-132774510D01*
X172045989Y-132555698D01*
X172239022Y-132294202D01*
X172377331Y-132000072D01*
X172422407Y-131851458D01*
X172250685Y-131595000D01*
X170965000Y-131595000D01*
X170665000Y-131595000D01*
X169379315Y-131595000D01*
X169207593Y-131851458D01*
X162808000Y-131851458D01*
X162808000Y-131038542D01*
X169207593Y-131038542D01*
X169379315Y-131295000D01*
X170665000Y-131295000D01*
X170665000Y-130008294D01*
X170965000Y-130008294D01*
X170965000Y-131295000D01*
X172250685Y-131295000D01*
X172422407Y-131038542D01*
X172377331Y-130889928D01*
X172239022Y-130595798D01*
X172045989Y-130334302D01*
X171805650Y-130115490D01*
X171527240Y-129947770D01*
X171221459Y-129837588D01*
X170965000Y-130008294D01*
X170665000Y-130008294D01*
X170408541Y-129837588D01*
X170102760Y-129947770D01*
X169824350Y-130115490D01*
X169584011Y-130334302D01*
X169390978Y-130595798D01*
X169252669Y-130889928D01*
X169207593Y-131038542D01*
X162808000Y-131038542D01*
X162808000Y-122997154D01*
X198702000Y-122997154D01*
X198702000Y-123382846D01*
X198777245Y-123761128D01*
X198924843Y-124117461D01*
X199139122Y-124438152D01*
X199411848Y-124710878D01*
X199732539Y-124925157D01*
X200088872Y-125072755D01*
X200467154Y-125148000D01*
X200852846Y-125148000D01*
X201231128Y-125072755D01*
X201587461Y-124925157D01*
X201908152Y-124710878D01*
X202180878Y-124438152D01*
X202395157Y-124117461D01*
X202542755Y-123761128D01*
X202618000Y-123382846D01*
X202618000Y-122997154D01*
X202542755Y-122618872D01*
X202395157Y-122262539D01*
X202180878Y-121941848D01*
X201908152Y-121669122D01*
X201587461Y-121454843D01*
X201231128Y-121307245D01*
X200852846Y-121232000D01*
X200467154Y-121232000D01*
X200088872Y-121307245D01*
X199732539Y-121454843D01*
X199411848Y-121669122D01*
X199139122Y-121941848D01*
X198924843Y-122262539D01*
X198777245Y-122618872D01*
X198702000Y-122997154D01*
X162808000Y-122997154D01*
X162808000Y-116647154D01*
X198702000Y-116647154D01*
X198702000Y-117032846D01*
X198777245Y-117411128D01*
X198924843Y-117767461D01*
X199139122Y-118088152D01*
X199411848Y-118360878D01*
X199732539Y-118575157D01*
X200088872Y-118722755D01*
X200467154Y-118798000D01*
X200852846Y-118798000D01*
X201231128Y-118722755D01*
X201587461Y-118575157D01*
X201908152Y-118360878D01*
X202180878Y-118088152D01*
X202395157Y-117767461D01*
X202542755Y-117411128D01*
X202618000Y-117032846D01*
X202618000Y-116647154D01*
X202542755Y-116268872D01*
X202395157Y-115912539D01*
X202180878Y-115591848D01*
X201908152Y-115319122D01*
X201587461Y-115104843D01*
X201231128Y-114957245D01*
X200852846Y-114882000D01*
X200467154Y-114882000D01*
X200088872Y-114957245D01*
X199732539Y-115104843D01*
X199411848Y-115319122D01*
X199139122Y-115591848D01*
X198924843Y-115912539D01*
X198777245Y-116268872D01*
X198702000Y-116647154D01*
X162808000Y-116647154D01*
X162808000Y-111531458D01*
X169207593Y-111531458D01*
X169252669Y-111680072D01*
X169390978Y-111974202D01*
X169584011Y-112235698D01*
X169824350Y-112454510D01*
X170102760Y-112622230D01*
X170408541Y-112732412D01*
X170665000Y-112561706D01*
X170665000Y-111275000D01*
X170965000Y-111275000D01*
X170965000Y-112561706D01*
X171221459Y-112732412D01*
X171527240Y-112622230D01*
X171805650Y-112454510D01*
X172045989Y-112235698D01*
X172239022Y-111974202D01*
X172377331Y-111680072D01*
X172422407Y-111531458D01*
X172250685Y-111275000D01*
X170965000Y-111275000D01*
X170665000Y-111275000D01*
X169379315Y-111275000D01*
X169207593Y-111531458D01*
X162808000Y-111531458D01*
X162808000Y-110718542D01*
X169207593Y-110718542D01*
X169379315Y-110975000D01*
X170665000Y-110975000D01*
X170665000Y-109688294D01*
X170965000Y-109688294D01*
X170965000Y-110975000D01*
X172250685Y-110975000D01*
X172422407Y-110718542D01*
X172377331Y-110569928D01*
X172239022Y-110275798D01*
X172045989Y-110014302D01*
X171805650Y-109795490D01*
X171527240Y-109627770D01*
X171221459Y-109517588D01*
X170965000Y-109688294D01*
X170665000Y-109688294D01*
X170408541Y-109517588D01*
X170102760Y-109627770D01*
X169824350Y-109795490D01*
X169584011Y-110014302D01*
X169390978Y-110275798D01*
X169252669Y-110569928D01*
X169207593Y-110718542D01*
X162808000Y-110718542D01*
X162808000Y-102677154D01*
X198702000Y-102677154D01*
X198702000Y-103062846D01*
X198777245Y-103441128D01*
X198924843Y-103797461D01*
X199139122Y-104118152D01*
X199411848Y-104390878D01*
X199732539Y-104605157D01*
X200088872Y-104752755D01*
X200467154Y-104828000D01*
X200852846Y-104828000D01*
X201231128Y-104752755D01*
X201587461Y-104605157D01*
X201908152Y-104390878D01*
X202180878Y-104118152D01*
X202395157Y-103797461D01*
X202542755Y-103441128D01*
X202618000Y-103062846D01*
X202618000Y-102677154D01*
X202542755Y-102298872D01*
X202395157Y-101942539D01*
X202180878Y-101621848D01*
X201908152Y-101349122D01*
X201587461Y-101134843D01*
X201231128Y-100987245D01*
X200852846Y-100912000D01*
X200467154Y-100912000D01*
X200088872Y-100987245D01*
X199732539Y-101134843D01*
X199411848Y-101349122D01*
X199139122Y-101621848D01*
X198924843Y-101942539D01*
X198777245Y-102298872D01*
X198702000Y-102677154D01*
X162808000Y-102677154D01*
X162808000Y-96327154D01*
X198702000Y-96327154D01*
X198702000Y-96712846D01*
X198777245Y-97091128D01*
X198924843Y-97447461D01*
X199139122Y-97768152D01*
X199411848Y-98040878D01*
X199732539Y-98255157D01*
X200088872Y-98402755D01*
X200467154Y-98478000D01*
X200852846Y-98478000D01*
X201231128Y-98402755D01*
X201587461Y-98255157D01*
X201908152Y-98040878D01*
X202180878Y-97768152D01*
X202395157Y-97447461D01*
X202542755Y-97091128D01*
X202618000Y-96712846D01*
X202618000Y-96327154D01*
X202542755Y-95948872D01*
X202395157Y-95592539D01*
X202180878Y-95271848D01*
X201908152Y-94999122D01*
X201587461Y-94784843D01*
X201231128Y-94637245D01*
X200852846Y-94562000D01*
X200467154Y-94562000D01*
X200088872Y-94637245D01*
X199732539Y-94784843D01*
X199411848Y-94999122D01*
X199139122Y-95271848D01*
X198924843Y-95592539D01*
X198777245Y-95948872D01*
X198702000Y-96327154D01*
X162808000Y-96327154D01*
X162808000Y-91211458D01*
X169207593Y-91211458D01*
X169252669Y-91360072D01*
X169390978Y-91654202D01*
X169584011Y-91915698D01*
X169824350Y-92134510D01*
X170102760Y-92302230D01*
X170408541Y-92412412D01*
X170665000Y-92241706D01*
X170665000Y-90955000D01*
X170965000Y-90955000D01*
X170965000Y-92241706D01*
X171221459Y-92412412D01*
X171527240Y-92302230D01*
X171805650Y-92134510D01*
X172045989Y-91915698D01*
X172239022Y-91654202D01*
X172377331Y-91360072D01*
X172422407Y-91211458D01*
X172250685Y-90955000D01*
X170965000Y-90955000D01*
X170665000Y-90955000D01*
X169379315Y-90955000D01*
X169207593Y-91211458D01*
X162808000Y-91211458D01*
X162808000Y-90398542D01*
X169207593Y-90398542D01*
X169379315Y-90655000D01*
X170665000Y-90655000D01*
X170665000Y-89368294D01*
X170965000Y-89368294D01*
X170965000Y-90655000D01*
X172250685Y-90655000D01*
X172259589Y-90641701D01*
X181857000Y-90641701D01*
X181857000Y-90968299D01*
X181920716Y-91288621D01*
X182045700Y-91590357D01*
X182227148Y-91861913D01*
X182458087Y-92092852D01*
X182729643Y-92274300D01*
X183031379Y-92399284D01*
X183351701Y-92463000D01*
X183678299Y-92463000D01*
X183998621Y-92399284D01*
X184300357Y-92274300D01*
X184466929Y-92163000D01*
X209191931Y-92163000D01*
X209203148Y-92183985D01*
X209310367Y-92314633D01*
X209441015Y-92421852D01*
X209590069Y-92501524D01*
X209751803Y-92550585D01*
X209920000Y-92567151D01*
X211720000Y-92567151D01*
X211888197Y-92550585D01*
X212049931Y-92501524D01*
X212198985Y-92421852D01*
X212329633Y-92314633D01*
X212436852Y-92183985D01*
X212516524Y-92034931D01*
X212565585Y-91873197D01*
X212582151Y-91705000D01*
X212582151Y-90042653D01*
X212637000Y-90097502D01*
X212637001Y-107227000D01*
X211948188Y-107227000D01*
X211940660Y-107219472D01*
X211652725Y-107027081D01*
X211332790Y-106894559D01*
X210993148Y-106827000D01*
X210646852Y-106827000D01*
X210307210Y-106894559D01*
X209987275Y-107027081D01*
X209699340Y-107219472D01*
X209454472Y-107464340D01*
X209262081Y-107752275D01*
X209129559Y-108072210D01*
X209062000Y-108411852D01*
X209062000Y-108758148D01*
X209129559Y-109097790D01*
X209262081Y-109417725D01*
X209364472Y-109570965D01*
X209310367Y-109615367D01*
X209203148Y-109746015D01*
X209191931Y-109767000D01*
X184466929Y-109767000D01*
X184300357Y-109655700D01*
X183998621Y-109530716D01*
X183678299Y-109467000D01*
X183351701Y-109467000D01*
X183031379Y-109530716D01*
X182729643Y-109655700D01*
X182458087Y-109837148D01*
X182227148Y-110068087D01*
X182045700Y-110339643D01*
X181920716Y-110641379D01*
X181857000Y-110961701D01*
X181857000Y-111288299D01*
X181920716Y-111608621D01*
X182045700Y-111910357D01*
X182227148Y-112181913D01*
X182458087Y-112412852D01*
X182729643Y-112594300D01*
X183031379Y-112719284D01*
X183351701Y-112783000D01*
X183678299Y-112783000D01*
X183998621Y-112719284D01*
X184300357Y-112594300D01*
X184466929Y-112483000D01*
X209191931Y-112483000D01*
X209203148Y-112503985D01*
X209310367Y-112634633D01*
X209441015Y-112741852D01*
X209590069Y-112821524D01*
X209751803Y-112870585D01*
X209920000Y-112887151D01*
X211720000Y-112887151D01*
X211888197Y-112870585D01*
X212049931Y-112821524D01*
X212198985Y-112741852D01*
X212329633Y-112634633D01*
X212436852Y-112503985D01*
X212516524Y-112354931D01*
X212565585Y-112193197D01*
X212582151Y-112025000D01*
X212582151Y-110225000D01*
X212565585Y-110056803D01*
X212531064Y-109943000D01*
X212637000Y-109943000D01*
X212637001Y-127072497D01*
X212162499Y-127547000D01*
X211948188Y-127547000D01*
X211940660Y-127539472D01*
X211652725Y-127347081D01*
X211332790Y-127214559D01*
X210993148Y-127147000D01*
X210646852Y-127147000D01*
X210307210Y-127214559D01*
X209987275Y-127347081D01*
X209699340Y-127539472D01*
X209454472Y-127784340D01*
X209262081Y-128072275D01*
X209129559Y-128392210D01*
X209062000Y-128731852D01*
X209062000Y-129078148D01*
X209129559Y-129417790D01*
X209262081Y-129737725D01*
X209364472Y-129890965D01*
X209310367Y-129935367D01*
X209203148Y-130066015D01*
X209191931Y-130087000D01*
X184466929Y-130087000D01*
X184300357Y-129975700D01*
X183998621Y-129850716D01*
X183678299Y-129787000D01*
X183351701Y-129787000D01*
X183031379Y-129850716D01*
X182729643Y-129975700D01*
X182458087Y-130157148D01*
X182227148Y-130388087D01*
X182045700Y-130659643D01*
X181920716Y-130961379D01*
X181857000Y-131281701D01*
X181857000Y-131608299D01*
X181920716Y-131928621D01*
X182045700Y-132230357D01*
X182227148Y-132501913D01*
X182458087Y-132732852D01*
X182729643Y-132914300D01*
X183031379Y-133039284D01*
X183351701Y-133103000D01*
X183678299Y-133103000D01*
X183998621Y-133039284D01*
X184300357Y-132914300D01*
X184466929Y-132803000D01*
X209191931Y-132803000D01*
X209203148Y-132823985D01*
X209310367Y-132954633D01*
X209441015Y-133061852D01*
X209590069Y-133141524D01*
X209751803Y-133190585D01*
X209920000Y-133207151D01*
X211720000Y-133207151D01*
X211888197Y-133190585D01*
X212049931Y-133141524D01*
X212198985Y-133061852D01*
X212329633Y-132954633D01*
X212436852Y-132823985D01*
X212516524Y-132674931D01*
X212565585Y-132513197D01*
X212582151Y-132345000D01*
X212582151Y-130545000D01*
X212565585Y-130376803D01*
X212531064Y-130263000D01*
X212658297Y-130263000D01*
X212725000Y-130269570D01*
X212791703Y-130263000D01*
X212791706Y-130263000D01*
X212991214Y-130243350D01*
X213247198Y-130165698D01*
X213483114Y-130039598D01*
X213689897Y-129869897D01*
X213732425Y-129818076D01*
X214908081Y-128642421D01*
X214959897Y-128599897D01*
X215129598Y-128393114D01*
X215255698Y-128157198D01*
X215333350Y-127901214D01*
X215353000Y-127701706D01*
X215353000Y-127701704D01*
X215359570Y-127635001D01*
X215353000Y-127568297D01*
X215353000Y-108651706D01*
X215359570Y-108585000D01*
X215353000Y-108518294D01*
X215353000Y-89601703D01*
X215359570Y-89534999D01*
X215351212Y-89450145D01*
X215333350Y-89268786D01*
X215255698Y-89012802D01*
X215129598Y-88776886D01*
X215015141Y-88637419D01*
X215002419Y-88621917D01*
X215002416Y-88621914D01*
X214959896Y-88570103D01*
X214908086Y-88527584D01*
X213732425Y-87351924D01*
X213689897Y-87300103D01*
X213483114Y-87130402D01*
X213247198Y-87004302D01*
X212991214Y-86926650D01*
X212791706Y-86907000D01*
X212791703Y-86907000D01*
X212725000Y-86900430D01*
X212658297Y-86907000D01*
X211948188Y-86907000D01*
X211940660Y-86899472D01*
X211652725Y-86707081D01*
X211332790Y-86574559D01*
X210993148Y-86507000D01*
X210646852Y-86507000D01*
X210307210Y-86574559D01*
X209987275Y-86707081D01*
X209699340Y-86899472D01*
X209691812Y-86907000D01*
X198047502Y-86907000D01*
X193497656Y-82357154D01*
X198702000Y-82357154D01*
X198702000Y-82742846D01*
X198777245Y-83121128D01*
X198924843Y-83477461D01*
X199139122Y-83798152D01*
X199411848Y-84070878D01*
X199732539Y-84285157D01*
X200088872Y-84432755D01*
X200467154Y-84508000D01*
X200852846Y-84508000D01*
X201231128Y-84432755D01*
X201587461Y-84285157D01*
X201908152Y-84070878D01*
X202180878Y-83798152D01*
X202395157Y-83477461D01*
X202542755Y-83121128D01*
X202618000Y-82742846D01*
X202618000Y-82357154D01*
X202542755Y-81978872D01*
X202395157Y-81622539D01*
X202180878Y-81301848D01*
X201908152Y-81029122D01*
X201587461Y-80814843D01*
X201231128Y-80667245D01*
X200852846Y-80592000D01*
X200467154Y-80592000D01*
X200088872Y-80667245D01*
X199732539Y-80814843D01*
X199411848Y-81029122D01*
X199139122Y-81301848D01*
X198924843Y-81622539D01*
X198777245Y-81978872D01*
X198702000Y-82357154D01*
X193497656Y-82357154D01*
X193412422Y-82271921D01*
X193412418Y-82271916D01*
X190872422Y-79731921D01*
X190872418Y-79731916D01*
X188683000Y-77542499D01*
X188683000Y-71981932D01*
X188749991Y-71881673D01*
X188871205Y-71589036D01*
X188933000Y-71278374D01*
X188933000Y-70961626D01*
X188871205Y-70650964D01*
X188749991Y-70358327D01*
X188574015Y-70094960D01*
X188350040Y-69870985D01*
X188086673Y-69695009D01*
X187794036Y-69573795D01*
X187483374Y-69512000D01*
X187166626Y-69512000D01*
X186855964Y-69573795D01*
X186563327Y-69695009D01*
X186299960Y-69870985D01*
X186075985Y-70094960D01*
X185900009Y-70358327D01*
X185778795Y-70650964D01*
X185717000Y-70961626D01*
X185717000Y-71278374D01*
X185778795Y-71589036D01*
X185900009Y-71881673D01*
X185967001Y-71981934D01*
X185967000Y-78038297D01*
X185960430Y-78105000D01*
X185967000Y-78171703D01*
X185967000Y-78171705D01*
X185986650Y-78371213D01*
X186064302Y-78627197D01*
X186064303Y-78627198D01*
X186190402Y-78863114D01*
X186283999Y-78977162D01*
X186360103Y-79069896D01*
X186411920Y-79112421D01*
X188951916Y-81652418D01*
X188951921Y-81652422D01*
X191491916Y-84192418D01*
X191491921Y-84192422D01*
X196477579Y-89178081D01*
X196520103Y-89229897D01*
X196571917Y-89272419D01*
X196726885Y-89399598D01*
X196815568Y-89447000D01*
X184466929Y-89447000D01*
X184300357Y-89335700D01*
X183998621Y-89210716D01*
X183678299Y-89147000D01*
X183351701Y-89147000D01*
X183031379Y-89210716D01*
X182729643Y-89335700D01*
X182458087Y-89517148D01*
X182227148Y-89748087D01*
X182045700Y-90019643D01*
X181920716Y-90321379D01*
X181857000Y-90641701D01*
X172259589Y-90641701D01*
X172422407Y-90398542D01*
X172377331Y-90249928D01*
X172239022Y-89955798D01*
X172045989Y-89694302D01*
X171805650Y-89475490D01*
X171527240Y-89307770D01*
X171221459Y-89197588D01*
X170965000Y-89368294D01*
X170665000Y-89368294D01*
X170408541Y-89197588D01*
X170102760Y-89307770D01*
X169824350Y-89475490D01*
X169584011Y-89694302D01*
X169390978Y-89955798D01*
X169252669Y-90249928D01*
X169207593Y-90398542D01*
X162808000Y-90398542D01*
X162808000Y-60960000D01*
X190405430Y-60960000D01*
X190412001Y-61026713D01*
X190412000Y-76768297D01*
X190405430Y-76835000D01*
X190412000Y-76901703D01*
X190412000Y-76901705D01*
X190431650Y-77101213D01*
X190509302Y-77357197D01*
X190509303Y-77357198D01*
X190635402Y-77593114D01*
X190645487Y-77605402D01*
X190805103Y-77799896D01*
X190856918Y-77842419D01*
X192667579Y-79653081D01*
X192710103Y-79704897D01*
X192761917Y-79747419D01*
X192916885Y-79874598D01*
X193042985Y-79941999D01*
X193152802Y-80000698D01*
X193408786Y-80078350D01*
X193608294Y-80098000D01*
X193608296Y-80098000D01*
X193675000Y-80104570D01*
X193741703Y-80098000D01*
X222957499Y-80098000D01*
X227051917Y-84192419D01*
X227051922Y-84192423D01*
X228584498Y-85725000D01*
X227550590Y-86758909D01*
X227510548Y-86766874D01*
X227227010Y-86884319D01*
X226971833Y-87054823D01*
X226754823Y-87271833D01*
X226584319Y-87527010D01*
X226466874Y-87810548D01*
X226407000Y-88111550D01*
X226407000Y-88418450D01*
X226466874Y-88719452D01*
X226584319Y-89002990D01*
X226754823Y-89258167D01*
X226929373Y-89432717D01*
X226896766Y-89450145D01*
X226728356Y-89588356D01*
X226590145Y-89756766D01*
X226487446Y-89948904D01*
X226424203Y-90157386D01*
X226402849Y-90374200D01*
X226402849Y-91275800D01*
X226424203Y-91492614D01*
X226487446Y-91701096D01*
X226590145Y-91893234D01*
X226728356Y-92061644D01*
X226896766Y-92199855D01*
X227088904Y-92302554D01*
X227297386Y-92365797D01*
X227514200Y-92387151D01*
X228415800Y-92387151D01*
X228632614Y-92365797D01*
X228841096Y-92302554D01*
X229033234Y-92199855D01*
X229078142Y-92163000D01*
X231847499Y-92163000D01*
X233307579Y-93623081D01*
X233350103Y-93674897D01*
X233401917Y-93717419D01*
X233556885Y-93844598D01*
X233682985Y-93911999D01*
X233792802Y-93970698D01*
X234048786Y-94048350D01*
X234248294Y-94068000D01*
X234248296Y-94068000D01*
X234315000Y-94074570D01*
X234381703Y-94068000D01*
X236927499Y-94068000D01*
X237825271Y-94965772D01*
X237848795Y-95084036D01*
X237970009Y-95376673D01*
X238037000Y-95476932D01*
X238037001Y-101672497D01*
X236147822Y-103561676D01*
X236197755Y-103441128D01*
X236273000Y-103062846D01*
X236273000Y-102677154D01*
X236197755Y-102298872D01*
X236050157Y-101942539D01*
X235835878Y-101621848D01*
X235563152Y-101349122D01*
X235242461Y-101134843D01*
X234886128Y-100987245D01*
X234507846Y-100912000D01*
X234122154Y-100912000D01*
X233743872Y-100987245D01*
X233387539Y-101134843D01*
X233066848Y-101349122D01*
X232794122Y-101621848D01*
X232579843Y-101942539D01*
X232432245Y-102298872D01*
X232357000Y-102677154D01*
X232357000Y-103062846D01*
X232432245Y-103441128D01*
X232579843Y-103797461D01*
X232794122Y-104118152D01*
X233066848Y-104390878D01*
X233387539Y-104605157D01*
X233743872Y-104752755D01*
X234122154Y-104828000D01*
X234507846Y-104828000D01*
X234886128Y-104752755D01*
X235006676Y-104702822D01*
X229922499Y-109787000D01*
X229053772Y-109787000D01*
X229033234Y-109770145D01*
X229000627Y-109752717D01*
X229175177Y-109578167D01*
X229345681Y-109322990D01*
X229463126Y-109039452D01*
X229523000Y-108738450D01*
X229523000Y-108431550D01*
X229463126Y-108130548D01*
X229345681Y-107847010D01*
X229175177Y-107591833D01*
X228958167Y-107374823D01*
X228702990Y-107204319D01*
X228419452Y-107086874D01*
X228118450Y-107027000D01*
X227811550Y-107027000D01*
X227510548Y-107086874D01*
X227227010Y-107204319D01*
X227193066Y-107227000D01*
X226126703Y-107227000D01*
X226060000Y-107220430D01*
X225993296Y-107227000D01*
X225993294Y-107227000D01*
X225793786Y-107246650D01*
X225615453Y-107300747D01*
X225537801Y-107324302D01*
X225378277Y-107409570D01*
X225301886Y-107450402D01*
X225095103Y-107620103D01*
X225052575Y-107671924D01*
X224511920Y-108212579D01*
X224460104Y-108255103D01*
X224417581Y-108306918D01*
X224290402Y-108461886D01*
X224164303Y-108697802D01*
X224086651Y-108953786D01*
X224060430Y-109220000D01*
X224067001Y-109286713D01*
X224067000Y-112328296D01*
X224060430Y-112395000D01*
X224067000Y-112461703D01*
X224067000Y-112461705D01*
X224086650Y-112661213D01*
X224164302Y-112917197D01*
X224164303Y-112917198D01*
X224290402Y-113153114D01*
X224300487Y-113165402D01*
X224460103Y-113359896D01*
X224511920Y-113402421D01*
X225687579Y-114578081D01*
X225730103Y-114629897D01*
X225936886Y-114799598D01*
X226172802Y-114925698D01*
X226428786Y-115003350D01*
X226628294Y-115023000D01*
X226628296Y-115023000D01*
X226694999Y-115029570D01*
X226761703Y-115023000D01*
X230438297Y-115023000D01*
X230505000Y-115029570D01*
X230571703Y-115023000D01*
X230571706Y-115023000D01*
X230771214Y-115003350D01*
X231027198Y-114925698D01*
X231263114Y-114799598D01*
X231469897Y-114629897D01*
X231512425Y-114578076D01*
X233796883Y-112293619D01*
X233823114Y-112279598D01*
X234029897Y-112109897D01*
X234072425Y-112058076D01*
X238097413Y-108033089D01*
X238113282Y-108085402D01*
X238134303Y-108154698D01*
X238260402Y-108390614D01*
X238365186Y-108518294D01*
X238430104Y-108597397D01*
X238481920Y-108639921D01*
X245022000Y-115180002D01*
X245022000Y-115901753D01*
X245018055Y-115896945D01*
X244765592Y-115689753D01*
X244477559Y-115535796D01*
X244165025Y-115440990D01*
X243840000Y-115408978D01*
X243514976Y-115440990D01*
X243202442Y-115535796D01*
X242914409Y-115689753D01*
X242661946Y-115896945D01*
X242454753Y-116149408D01*
X242300796Y-116437441D01*
X242205990Y-116749975D01*
X242182000Y-116993551D01*
X242182000Y-117956448D01*
X242205990Y-118200024D01*
X242266151Y-118398347D01*
X233117499Y-127547000D01*
X228736934Y-127547000D01*
X228702990Y-127524319D01*
X228419452Y-127406874D01*
X228379411Y-127398909D01*
X226432423Y-125451922D01*
X226432419Y-125451917D01*
X223977656Y-122997154D01*
X232357000Y-122997154D01*
X232357000Y-123382846D01*
X232432245Y-123761128D01*
X232579843Y-124117461D01*
X232794122Y-124438152D01*
X233066848Y-124710878D01*
X233387539Y-124925157D01*
X233743872Y-125072755D01*
X234122154Y-125148000D01*
X234507846Y-125148000D01*
X234886128Y-125072755D01*
X235242461Y-124925157D01*
X235563152Y-124710878D01*
X235835878Y-124438152D01*
X236050157Y-124117461D01*
X236197755Y-123761128D01*
X236273000Y-123382846D01*
X236273000Y-122997154D01*
X236197755Y-122618872D01*
X236050157Y-122262539D01*
X235835878Y-121941848D01*
X235563152Y-121669122D01*
X235242461Y-121454843D01*
X234886128Y-121307245D01*
X234507846Y-121232000D01*
X234122154Y-121232000D01*
X233743872Y-121307245D01*
X233387539Y-121454843D01*
X233066848Y-121669122D01*
X232794122Y-121941848D01*
X232579843Y-122262539D01*
X232432245Y-122618872D01*
X232357000Y-122997154D01*
X223977656Y-122997154D01*
X222973000Y-121992499D01*
X222973000Y-116647154D01*
X232357000Y-116647154D01*
X232357000Y-117032846D01*
X232432245Y-117411128D01*
X232579843Y-117767461D01*
X232794122Y-118088152D01*
X233066848Y-118360878D01*
X233387539Y-118575157D01*
X233743872Y-118722755D01*
X234122154Y-118798000D01*
X234507846Y-118798000D01*
X234886128Y-118722755D01*
X235242461Y-118575157D01*
X235563152Y-118360878D01*
X235835878Y-118088152D01*
X236050157Y-117767461D01*
X236197755Y-117411128D01*
X236273000Y-117032846D01*
X236273000Y-116647154D01*
X236197755Y-116268872D01*
X236050157Y-115912539D01*
X235835878Y-115591848D01*
X235563152Y-115319122D01*
X235242461Y-115104843D01*
X234886128Y-114957245D01*
X234507846Y-114882000D01*
X234122154Y-114882000D01*
X233743872Y-114957245D01*
X233387539Y-115104843D01*
X233066848Y-115319122D01*
X232794122Y-115591848D01*
X232579843Y-115912539D01*
X232432245Y-116268872D01*
X232357000Y-116647154D01*
X222973000Y-116647154D01*
X222973000Y-96327154D01*
X232357000Y-96327154D01*
X232357000Y-96712846D01*
X232432245Y-97091128D01*
X232579843Y-97447461D01*
X232794122Y-97768152D01*
X233066848Y-98040878D01*
X233387539Y-98255157D01*
X233743872Y-98402755D01*
X234122154Y-98478000D01*
X234507846Y-98478000D01*
X234886128Y-98402755D01*
X235242461Y-98255157D01*
X235563152Y-98040878D01*
X235835878Y-97768152D01*
X236050157Y-97447461D01*
X236197755Y-97091128D01*
X236273000Y-96712846D01*
X236273000Y-96327154D01*
X236197755Y-95948872D01*
X236050157Y-95592539D01*
X235835878Y-95271848D01*
X235563152Y-94999122D01*
X235242461Y-94784843D01*
X234886128Y-94637245D01*
X234507846Y-94562000D01*
X234122154Y-94562000D01*
X233743872Y-94637245D01*
X233387539Y-94784843D01*
X233066848Y-94999122D01*
X232794122Y-95271848D01*
X232579843Y-95592539D01*
X232432245Y-95948872D01*
X232357000Y-96327154D01*
X222973000Y-96327154D01*
X222973000Y-88966703D01*
X222979570Y-88899999D01*
X222972838Y-88831650D01*
X222953350Y-88633786D01*
X222875698Y-88377802D01*
X222749598Y-88141886D01*
X222579897Y-87935103D01*
X222528081Y-87892579D01*
X218177425Y-83541924D01*
X218134897Y-83490103D01*
X217928114Y-83320402D01*
X217692198Y-83194302D01*
X217436214Y-83116650D01*
X217236706Y-83097000D01*
X217236703Y-83097000D01*
X217170000Y-83090430D01*
X217103297Y-83097000D01*
X212017502Y-83097000D01*
X210484729Y-81564228D01*
X210461205Y-81445964D01*
X210339991Y-81153327D01*
X210164015Y-80889960D01*
X209940040Y-80665985D01*
X209676673Y-80490009D01*
X209384036Y-80368795D01*
X209073374Y-80307000D01*
X208756626Y-80307000D01*
X208445964Y-80368795D01*
X208153327Y-80490009D01*
X207889960Y-80665985D01*
X207665985Y-80889960D01*
X207490009Y-81153327D01*
X207368795Y-81445964D01*
X207307000Y-81756626D01*
X207307000Y-82073374D01*
X207368795Y-82384036D01*
X207490009Y-82676673D01*
X207665985Y-82940040D01*
X207889960Y-83164015D01*
X208153327Y-83339991D01*
X208445964Y-83461205D01*
X208564228Y-83484729D01*
X210447579Y-85368081D01*
X210490103Y-85419897D01*
X210696886Y-85589598D01*
X210932802Y-85715698D01*
X211188786Y-85793350D01*
X211388294Y-85813000D01*
X211388296Y-85813000D01*
X211454999Y-85819570D01*
X211521703Y-85813000D01*
X216607499Y-85813000D01*
X220257001Y-89462503D01*
X220257000Y-122488297D01*
X220250430Y-122555000D01*
X220257000Y-122621703D01*
X220257000Y-122621705D01*
X220276650Y-122821213D01*
X220354302Y-123077197D01*
X220378942Y-123123295D01*
X220480402Y-123313114D01*
X220537630Y-123382846D01*
X220650103Y-123519896D01*
X220701920Y-123562421D01*
X224511917Y-127372419D01*
X224511922Y-127372423D01*
X226458909Y-129319411D01*
X226466874Y-129359452D01*
X226584319Y-129642990D01*
X226754823Y-129898167D01*
X226929373Y-130072717D01*
X226896766Y-130090145D01*
X226728356Y-130228356D01*
X226590145Y-130396766D01*
X226487446Y-130588904D01*
X226424203Y-130797386D01*
X226402849Y-131014200D01*
X226402849Y-131915800D01*
X226424203Y-132132614D01*
X226487446Y-132341096D01*
X226590145Y-132533234D01*
X226728356Y-132701644D01*
X226896766Y-132839855D01*
X227088904Y-132942554D01*
X227297386Y-133005797D01*
X227514200Y-133027151D01*
X228415800Y-133027151D01*
X228632614Y-133005797D01*
X228841096Y-132942554D01*
X229033234Y-132839855D01*
X229053772Y-132823000D01*
X232323297Y-132823000D01*
X232390000Y-132829570D01*
X232456703Y-132823000D01*
X232456706Y-132823000D01*
X232656214Y-132803350D01*
X232657368Y-132803000D01*
X235261208Y-132803000D01*
X235294408Y-132830247D01*
X235582441Y-132984204D01*
X235894975Y-133079010D01*
X236138551Y-133103000D01*
X236301449Y-133103000D01*
X236545025Y-133079010D01*
X236857559Y-132984204D01*
X237145592Y-132830247D01*
X237398055Y-132623055D01*
X237605247Y-132370592D01*
X237759204Y-132082559D01*
X237854010Y-131770025D01*
X237886022Y-131445000D01*
X237854010Y-131119975D01*
X237759204Y-130807441D01*
X237605247Y-130519408D01*
X237578000Y-130486208D01*
X237578000Y-129467501D01*
X241800501Y-125245000D01*
X242182000Y-125245000D01*
X242182000Y-125645000D01*
X242243122Y-125965578D01*
X242365611Y-126268071D01*
X242544760Y-126540856D01*
X242773684Y-126773449D01*
X243043586Y-126956912D01*
X243344094Y-127084194D01*
X243433542Y-127102407D01*
X243690000Y-126930685D01*
X243690000Y-125245000D01*
X242182000Y-125245000D01*
X241800501Y-125245000D01*
X242182000Y-124863502D01*
X242182000Y-124945000D01*
X243690000Y-124945000D01*
X243690000Y-124925000D01*
X243990000Y-124925000D01*
X243990000Y-124945000D01*
X244010000Y-124945000D01*
X244010000Y-125245000D01*
X243990000Y-125245000D01*
X243990000Y-126930685D01*
X244246458Y-127102407D01*
X244335906Y-127084194D01*
X244636414Y-126956912D01*
X244906316Y-126773449D01*
X245112453Y-126564008D01*
X245201945Y-126673055D01*
X245454408Y-126880247D01*
X245742441Y-127034204D01*
X246054975Y-127129010D01*
X246380000Y-127161022D01*
X246705024Y-127129010D01*
X247017558Y-127034204D01*
X247305591Y-126880247D01*
X247558055Y-126673055D01*
X247562001Y-126668247D01*
X247562000Y-130493071D01*
X247450700Y-130659643D01*
X247325716Y-130961379D01*
X247262000Y-131281701D01*
X247262000Y-131608299D01*
X247325716Y-131928621D01*
X247450700Y-132230357D01*
X247632148Y-132501913D01*
X247863087Y-132732852D01*
X248134643Y-132914300D01*
X248436379Y-133039284D01*
X248756701Y-133103000D01*
X249083299Y-133103000D01*
X249403621Y-133039284D01*
X249705357Y-132914300D01*
X249976913Y-132732852D01*
X250207852Y-132501913D01*
X250389300Y-132230357D01*
X250514284Y-131928621D01*
X250578000Y-131608299D01*
X250578000Y-131281701D01*
X250514284Y-130961379D01*
X250389300Y-130659643D01*
X250278000Y-130493071D01*
X250278000Y-126668248D01*
X250281945Y-126673055D01*
X250534408Y-126880247D01*
X250822441Y-127034204D01*
X251134975Y-127129010D01*
X251460000Y-127161022D01*
X251785024Y-127129010D01*
X252097558Y-127034204D01*
X252385591Y-126880247D01*
X252638055Y-126673055D01*
X252845247Y-126420592D01*
X252999204Y-126132559D01*
X253094010Y-125820025D01*
X253118000Y-125576449D01*
X253118000Y-125357501D01*
X254372419Y-124103083D01*
X254372423Y-124103078D01*
X256183081Y-122292421D01*
X256234897Y-122249897D01*
X256394514Y-122055402D01*
X256404598Y-122043115D01*
X256506938Y-121851650D01*
X256530698Y-121807198D01*
X256608350Y-121551214D01*
X256628000Y-121351706D01*
X256628000Y-121351704D01*
X256634570Y-121285000D01*
X256628000Y-121218297D01*
X256628000Y-114366703D01*
X256634570Y-114299999D01*
X256627838Y-114231650D01*
X256608350Y-114033786D01*
X256530698Y-113777802D01*
X256404598Y-113541886D01*
X256356191Y-113482902D01*
X256277419Y-113386917D01*
X256277416Y-113386914D01*
X256234896Y-113335103D01*
X256183086Y-113292584D01*
X249341960Y-106451458D01*
X250487593Y-106451458D01*
X250532669Y-106600072D01*
X250670978Y-106894202D01*
X250864011Y-107155698D01*
X251104350Y-107374510D01*
X251382760Y-107542230D01*
X251688541Y-107652412D01*
X251945000Y-107481706D01*
X251945000Y-106195000D01*
X252245000Y-106195000D01*
X252245000Y-107481706D01*
X252501459Y-107652412D01*
X252807240Y-107542230D01*
X253085650Y-107374510D01*
X253325989Y-107155698D01*
X253519022Y-106894202D01*
X253657331Y-106600072D01*
X253702407Y-106451458D01*
X253530685Y-106195000D01*
X252245000Y-106195000D01*
X251945000Y-106195000D01*
X250659315Y-106195000D01*
X250487593Y-106451458D01*
X249341960Y-106451458D01*
X248529044Y-105638542D01*
X250487593Y-105638542D01*
X250659315Y-105895000D01*
X251945000Y-105895000D01*
X251945000Y-104608294D01*
X252245000Y-104608294D01*
X252245000Y-105895000D01*
X253530685Y-105895000D01*
X253702407Y-105638542D01*
X253657331Y-105489928D01*
X253519022Y-105195798D01*
X253325989Y-104934302D01*
X253085650Y-104715490D01*
X252807240Y-104547770D01*
X252501459Y-104437588D01*
X252245000Y-104608294D01*
X251945000Y-104608294D01*
X251688541Y-104437588D01*
X251382760Y-104547770D01*
X251104350Y-104715490D01*
X250864011Y-104934302D01*
X250670978Y-105195798D01*
X250532669Y-105489928D01*
X250487593Y-105638542D01*
X248529044Y-105638542D01*
X247103000Y-104212499D01*
X247103000Y-95476932D01*
X247169991Y-95376673D01*
X247291205Y-95084036D01*
X247353000Y-94773374D01*
X247353000Y-94456626D01*
X247291205Y-94145964D01*
X247169991Y-93853327D01*
X247103000Y-93753068D01*
X247103000Y-91211458D01*
X250487593Y-91211458D01*
X250532669Y-91360072D01*
X250670978Y-91654202D01*
X250864011Y-91915698D01*
X251104350Y-92134510D01*
X251382760Y-92302230D01*
X251688541Y-92412412D01*
X251945000Y-92241706D01*
X251945000Y-90955000D01*
X252245000Y-90955000D01*
X252245000Y-92241706D01*
X252501459Y-92412412D01*
X252807240Y-92302230D01*
X253085650Y-92134510D01*
X253325989Y-91915698D01*
X253519022Y-91654202D01*
X253657331Y-91360072D01*
X253702407Y-91211458D01*
X253530685Y-90955000D01*
X252245000Y-90955000D01*
X251945000Y-90955000D01*
X250659315Y-90955000D01*
X250487593Y-91211458D01*
X247103000Y-91211458D01*
X247103000Y-90398542D01*
X250487593Y-90398542D01*
X250659315Y-90655000D01*
X251945000Y-90655000D01*
X251945000Y-89368294D01*
X252245000Y-89368294D01*
X252245000Y-90655000D01*
X253530685Y-90655000D01*
X253702407Y-90398542D01*
X253657331Y-90249928D01*
X253519022Y-89955798D01*
X253325989Y-89694302D01*
X253085650Y-89475490D01*
X252807240Y-89307770D01*
X252501459Y-89197588D01*
X252245000Y-89368294D01*
X251945000Y-89368294D01*
X251688541Y-89197588D01*
X251382760Y-89307770D01*
X251104350Y-89475490D01*
X250864011Y-89694302D01*
X250670978Y-89955798D01*
X250532669Y-90249928D01*
X250487593Y-90398542D01*
X247103000Y-90398542D01*
X247103000Y-87061703D01*
X247109570Y-86994999D01*
X247102838Y-86926650D01*
X247083350Y-86728786D01*
X247005698Y-86472802D01*
X246879598Y-86236886D01*
X246709896Y-86030103D01*
X246658086Y-85987584D01*
X232782425Y-72111924D01*
X232739897Y-72060103D01*
X232533114Y-71890402D01*
X232297198Y-71764302D01*
X232041214Y-71686650D01*
X231841706Y-71667000D01*
X231841703Y-71667000D01*
X231775000Y-71660430D01*
X231708297Y-71667000D01*
X217258000Y-71667000D01*
X217258000Y-62157501D01*
X220623081Y-58792421D01*
X220674897Y-58749897D01*
X220834514Y-58555402D01*
X220844598Y-58543115D01*
X220970698Y-58307199D01*
X221024630Y-58129408D01*
X221048350Y-58051213D01*
X221068000Y-57851705D01*
X221068000Y-57851704D01*
X221074570Y-57785000D01*
X221068000Y-57718297D01*
X221068000Y-47582034D01*
X221102440Y-47620065D01*
X221371292Y-47819635D01*
X221673912Y-47962920D01*
X221835689Y-48011989D01*
X222100000Y-47840948D01*
X222100000Y-46505000D01*
X222080000Y-46505000D01*
X222080000Y-46205000D01*
X222100000Y-46205000D01*
X222100000Y-44869052D01*
X222400000Y-44869052D01*
X222400000Y-46205000D01*
X222420000Y-46205000D01*
X222420000Y-46505000D01*
X222400000Y-46505000D01*
X222400000Y-47840948D01*
X222664311Y-48011989D01*
X222826088Y-47962920D01*
X223128708Y-47819635D01*
X223397560Y-47620065D01*
X223513552Y-47491979D01*
X223576418Y-47568582D01*
X223836495Y-47782021D01*
X224133214Y-47940621D01*
X224455174Y-48038286D01*
X224706096Y-48063000D01*
X224873904Y-48063000D01*
X225124826Y-48038286D01*
X225446786Y-47940621D01*
X225743505Y-47782021D01*
X226003582Y-47568582D01*
X226060000Y-47499836D01*
X226116418Y-47568582D01*
X226376495Y-47782021D01*
X226673214Y-47940621D01*
X226995174Y-48038286D01*
X227246096Y-48063000D01*
X227413904Y-48063000D01*
X227664826Y-48038286D01*
X227986786Y-47940621D01*
X228283505Y-47782021D01*
X228543582Y-47568582D01*
X228757021Y-47308505D01*
X228915621Y-47011786D01*
X229013286Y-46689826D01*
X229046264Y-46355000D01*
X229013286Y-46020174D01*
X228915621Y-45698214D01*
X228757021Y-45401495D01*
X228543582Y-45141418D01*
X228283505Y-44927979D01*
X227986786Y-44769379D01*
X227664826Y-44671714D01*
X227413904Y-44647000D01*
X227246096Y-44647000D01*
X226995174Y-44671714D01*
X226673214Y-44769379D01*
X226376495Y-44927979D01*
X226116418Y-45141418D01*
X226060000Y-45210164D01*
X226003582Y-45141418D01*
X225743505Y-44927979D01*
X225446786Y-44769379D01*
X225124826Y-44671714D01*
X224873904Y-44647000D01*
X224706096Y-44647000D01*
X224455174Y-44671714D01*
X224133214Y-44769379D01*
X223836495Y-44927979D01*
X223576418Y-45141418D01*
X223513552Y-45218021D01*
X223397560Y-45089935D01*
X223128708Y-44890365D01*
X222826088Y-44747080D01*
X222664311Y-44698011D01*
X222400000Y-44869052D01*
X222100000Y-44869052D01*
X221835689Y-44698011D01*
X221673912Y-44747080D01*
X221371292Y-44890365D01*
X221102440Y-45089935D01*
X220986448Y-45218021D01*
X220923582Y-45141418D01*
X220663505Y-44927979D01*
X220366786Y-44769379D01*
X220044826Y-44671714D01*
X219793904Y-44647000D01*
X219626096Y-44647000D01*
X219375174Y-44671714D01*
X219053214Y-44769379D01*
X218756495Y-44927979D01*
X218496418Y-45141418D01*
X218433552Y-45218021D01*
X218317560Y-45089935D01*
X218048708Y-44890365D01*
X217746088Y-44747080D01*
X217584311Y-44698011D01*
X217320000Y-44869052D01*
X217320000Y-46205000D01*
X217340000Y-46205000D01*
X217340000Y-46505000D01*
X217320000Y-46505000D01*
X217320000Y-47840948D01*
X217584311Y-48011989D01*
X217746088Y-47962920D01*
X218048708Y-47819635D01*
X218317560Y-47620065D01*
X218352001Y-47582033D01*
X218352000Y-57083294D01*
X218352000Y-57222498D01*
X215337499Y-60237000D01*
X213028248Y-60237000D01*
X213033055Y-60233055D01*
X213240247Y-59980592D01*
X213394204Y-59692559D01*
X213489010Y-59380025D01*
X213521022Y-59055000D01*
X213489010Y-58729975D01*
X213394204Y-58417441D01*
X213240247Y-58129408D01*
X213033055Y-57876945D01*
X212821871Y-57703630D01*
X215543086Y-54982416D01*
X215594896Y-54939897D01*
X215754514Y-54745402D01*
X215764598Y-54733115D01*
X215890698Y-54497199D01*
X215914253Y-54419547D01*
X215968350Y-54241214D01*
X215988000Y-54041706D01*
X215988000Y-54041704D01*
X215994570Y-53975000D01*
X215988000Y-53908297D01*
X215988000Y-47582034D01*
X216022440Y-47620065D01*
X216291292Y-47819635D01*
X216593912Y-47962920D01*
X216755689Y-48011989D01*
X217020000Y-47840948D01*
X217020000Y-46505000D01*
X217000000Y-46505000D01*
X217000000Y-46205000D01*
X217020000Y-46205000D01*
X217020000Y-44869052D01*
X216755689Y-44698011D01*
X216593912Y-44747080D01*
X216291292Y-44890365D01*
X216022440Y-45089935D01*
X215906448Y-45218021D01*
X215843582Y-45141418D01*
X215583505Y-44927979D01*
X215286786Y-44769379D01*
X214964826Y-44671714D01*
X214713904Y-44647000D01*
X214546096Y-44647000D01*
X214295174Y-44671714D01*
X213973214Y-44769379D01*
X213676495Y-44927979D01*
X213416418Y-45141418D01*
X213353552Y-45218021D01*
X213237560Y-45089935D01*
X212968708Y-44890365D01*
X212666088Y-44747080D01*
X212504311Y-44698011D01*
X212240000Y-44869052D01*
X212240000Y-46205000D01*
X212260000Y-46205000D01*
X212260000Y-46505000D01*
X212240000Y-46505000D01*
X212240000Y-47840948D01*
X212504311Y-48011989D01*
X212666088Y-47962920D01*
X212968708Y-47819635D01*
X213237560Y-47620065D01*
X213272001Y-47582033D01*
X213272000Y-53412498D01*
X208001920Y-58682579D01*
X207950103Y-58725104D01*
X207907581Y-58776918D01*
X207780402Y-58931886D01*
X207733000Y-59020569D01*
X207733000Y-56442501D01*
X210463086Y-53712416D01*
X210514896Y-53669897D01*
X210557419Y-53618083D01*
X210684598Y-53463115D01*
X210810697Y-53227199D01*
X210810698Y-53227198D01*
X210888350Y-52971214D01*
X210908000Y-52771706D01*
X210908000Y-52771704D01*
X210914570Y-52705001D01*
X210908000Y-52638297D01*
X210908000Y-51026932D01*
X210974991Y-50926673D01*
X211096205Y-50634036D01*
X211158000Y-50323374D01*
X211158000Y-50006626D01*
X211096205Y-49695964D01*
X210974991Y-49403327D01*
X210908000Y-49303068D01*
X210908000Y-47582034D01*
X210942440Y-47620065D01*
X211211292Y-47819635D01*
X211513912Y-47962920D01*
X211675689Y-48011989D01*
X211940000Y-47840948D01*
X211940000Y-46505000D01*
X211920000Y-46505000D01*
X211920000Y-46205000D01*
X211940000Y-46205000D01*
X211940000Y-44869052D01*
X211675689Y-44698011D01*
X211513912Y-44747080D01*
X211211292Y-44890365D01*
X210942440Y-45089935D01*
X210826448Y-45218021D01*
X210763582Y-45141418D01*
X210503505Y-44927979D01*
X210206786Y-44769379D01*
X209884826Y-44671714D01*
X209633904Y-44647000D01*
X209466096Y-44647000D01*
X209215174Y-44671714D01*
X208893214Y-44769379D01*
X208596495Y-44927979D01*
X208336418Y-45141418D01*
X208280000Y-45210164D01*
X208223582Y-45141418D01*
X207963505Y-44927979D01*
X207666786Y-44769379D01*
X207344826Y-44671714D01*
X207093904Y-44647000D01*
X206926096Y-44647000D01*
X206675174Y-44671714D01*
X206353214Y-44769379D01*
X206056495Y-44927979D01*
X205796418Y-45141418D01*
X205740000Y-45210164D01*
X205683582Y-45141418D01*
X205423505Y-44927979D01*
X205126786Y-44769379D01*
X204804826Y-44671714D01*
X204553904Y-44647000D01*
X204386096Y-44647000D01*
X204135174Y-44671714D01*
X203813214Y-44769379D01*
X203516495Y-44927979D01*
X203256418Y-45141418D01*
X203200000Y-45210164D01*
X203143582Y-45141418D01*
X202883505Y-44927979D01*
X202586786Y-44769379D01*
X202264826Y-44671714D01*
X202013904Y-44647000D01*
X201846096Y-44647000D01*
X201595174Y-44671714D01*
X201273214Y-44769379D01*
X200976495Y-44927979D01*
X200716418Y-45141418D01*
X200653552Y-45218021D01*
X200537560Y-45089935D01*
X200268708Y-44890365D01*
X199966088Y-44747080D01*
X199804311Y-44698011D01*
X199540000Y-44869052D01*
X199540000Y-46205000D01*
X199560000Y-46205000D01*
X199560000Y-46505000D01*
X199540000Y-46505000D01*
X199540000Y-47840948D01*
X199804311Y-48011989D01*
X199966088Y-47962920D01*
X200268708Y-47819635D01*
X200537560Y-47620065D01*
X200572001Y-47582033D01*
X200572000Y-50237498D01*
X190856920Y-59952579D01*
X190805104Y-59995103D01*
X190762581Y-60046918D01*
X190635402Y-60201886D01*
X190509303Y-60437802D01*
X190431651Y-60693786D01*
X190405430Y-60960000D01*
X162808000Y-60960000D01*
X162808000Y-58033000D01*
X180383373Y-58033000D01*
X180513098Y-58020223D01*
X180679544Y-57969732D01*
X180832942Y-57887740D01*
X180967396Y-57777396D01*
X181077740Y-57642942D01*
X181159732Y-57489544D01*
X181210223Y-57323098D01*
X181227272Y-57150000D01*
X181210223Y-56976902D01*
X181166419Y-56832500D01*
X181210223Y-56688098D01*
X181223000Y-56558373D01*
X181223000Y-45505000D01*
X182437849Y-45505000D01*
X182437849Y-47205000D01*
X182454415Y-47373197D01*
X182503476Y-47534931D01*
X182583148Y-47683985D01*
X182690367Y-47814633D01*
X182821015Y-47921852D01*
X182970069Y-48001524D01*
X183131803Y-48050585D01*
X183300000Y-48067151D01*
X185000000Y-48067151D01*
X185168197Y-48050585D01*
X185329931Y-48001524D01*
X185478985Y-47921852D01*
X185609633Y-47814633D01*
X185676681Y-47732933D01*
X185736495Y-47782021D01*
X186033214Y-47940621D01*
X186355174Y-48038286D01*
X186606096Y-48063000D01*
X186773904Y-48063000D01*
X187024826Y-48038286D01*
X187346786Y-47940621D01*
X187643505Y-47782021D01*
X187903582Y-47568582D01*
X187960000Y-47499836D01*
X188016418Y-47568582D01*
X188276495Y-47782021D01*
X188573214Y-47940621D01*
X188895174Y-48038286D01*
X189146096Y-48063000D01*
X189313904Y-48063000D01*
X189564826Y-48038286D01*
X189886786Y-47940621D01*
X190183505Y-47782021D01*
X190443582Y-47568582D01*
X190506448Y-47491979D01*
X190622440Y-47620065D01*
X190891292Y-47819635D01*
X191193912Y-47962920D01*
X191355689Y-48011989D01*
X191620000Y-47840948D01*
X191620000Y-46505000D01*
X191600000Y-46505000D01*
X191600000Y-46205000D01*
X191620000Y-46205000D01*
X191620000Y-44869052D01*
X191920000Y-44869052D01*
X191920000Y-46205000D01*
X191940000Y-46205000D01*
X191940000Y-46505000D01*
X191920000Y-46505000D01*
X191920000Y-47840948D01*
X192184311Y-48011989D01*
X192346088Y-47962920D01*
X192648708Y-47819635D01*
X192917560Y-47620065D01*
X192952000Y-47582034D01*
X192952001Y-49303067D01*
X192885009Y-49403327D01*
X192763795Y-49695964D01*
X192702000Y-50006626D01*
X192702000Y-50323374D01*
X192763795Y-50634036D01*
X192885009Y-50926673D01*
X193060985Y-51190040D01*
X193284960Y-51414015D01*
X193548327Y-51589991D01*
X193840964Y-51711205D01*
X194151626Y-51773000D01*
X194468374Y-51773000D01*
X194779036Y-51711205D01*
X195071673Y-51589991D01*
X195335040Y-51414015D01*
X195559015Y-51190040D01*
X195734991Y-50926673D01*
X195856205Y-50634036D01*
X195918000Y-50323374D01*
X195918000Y-50006626D01*
X195856205Y-49695964D01*
X195734991Y-49403327D01*
X195668000Y-49303068D01*
X195668000Y-47594501D01*
X195896495Y-47782021D01*
X196193214Y-47940621D01*
X196515174Y-48038286D01*
X196766096Y-48063000D01*
X196933904Y-48063000D01*
X197184826Y-48038286D01*
X197506786Y-47940621D01*
X197803505Y-47782021D01*
X198063582Y-47568582D01*
X198126448Y-47491979D01*
X198242440Y-47620065D01*
X198511292Y-47819635D01*
X198813912Y-47962920D01*
X198975689Y-48011989D01*
X199240000Y-47840948D01*
X199240000Y-46505000D01*
X199220000Y-46505000D01*
X199220000Y-46205000D01*
X199240000Y-46205000D01*
X199240000Y-44869052D01*
X198975689Y-44698011D01*
X198813912Y-44747080D01*
X198511292Y-44890365D01*
X198242440Y-45089935D01*
X198126448Y-45218021D01*
X198063582Y-45141418D01*
X197803505Y-44927979D01*
X197506786Y-44769379D01*
X197184826Y-44671714D01*
X196933904Y-44647000D01*
X196766096Y-44647000D01*
X196515174Y-44671714D01*
X196193214Y-44769379D01*
X195896495Y-44927979D01*
X195636418Y-45141418D01*
X195580000Y-45210164D01*
X195523582Y-45141418D01*
X195263505Y-44927979D01*
X194966786Y-44769379D01*
X194644826Y-44671714D01*
X194393904Y-44647000D01*
X194226096Y-44647000D01*
X193975174Y-44671714D01*
X193653214Y-44769379D01*
X193356495Y-44927979D01*
X193096418Y-45141418D01*
X193033552Y-45218021D01*
X192917560Y-45089935D01*
X192648708Y-44890365D01*
X192346088Y-44747080D01*
X192184311Y-44698011D01*
X191920000Y-44869052D01*
X191620000Y-44869052D01*
X191355689Y-44698011D01*
X191193912Y-44747080D01*
X190891292Y-44890365D01*
X190622440Y-45089935D01*
X190506448Y-45218021D01*
X190443582Y-45141418D01*
X190183505Y-44927979D01*
X189886786Y-44769379D01*
X189564826Y-44671714D01*
X189313904Y-44647000D01*
X189146096Y-44647000D01*
X188895174Y-44671714D01*
X188573214Y-44769379D01*
X188276495Y-44927979D01*
X188016418Y-45141418D01*
X187960000Y-45210164D01*
X187903582Y-45141418D01*
X187643505Y-44927979D01*
X187346786Y-44769379D01*
X187024826Y-44671714D01*
X186773904Y-44647000D01*
X186606096Y-44647000D01*
X186355174Y-44671714D01*
X186033214Y-44769379D01*
X185736495Y-44927979D01*
X185676681Y-44977067D01*
X185609633Y-44895367D01*
X185478985Y-44788148D01*
X185329931Y-44708476D01*
X185168197Y-44659415D01*
X185000000Y-44642849D01*
X183300000Y-44642849D01*
X183131803Y-44659415D01*
X182970069Y-44708476D01*
X182821015Y-44788148D01*
X182690367Y-44895367D01*
X182583148Y-45026015D01*
X182503476Y-45175069D01*
X182454415Y-45336803D01*
X182437849Y-45505000D01*
X181223000Y-45505000D01*
X181223000Y-41523000D01*
X230257000Y-41523000D01*
X230257001Y-57106616D01*
X230257001Y-57106616D01*
G37*
X230257001Y-57106616D02*
X230252728Y-57150000D01*
X230269777Y-57323098D01*
X230320268Y-57489544D01*
X230402260Y-57642942D01*
X230512604Y-57777396D01*
X230647058Y-57887740D01*
X230800456Y-57969732D01*
X230966902Y-58020223D01*
X231096627Y-58033000D01*
X231140000Y-58037272D01*
X231183373Y-58033000D01*
X259467000Y-58033000D01*
X259467001Y-147072000D01*
X162808000Y-147072000D01*
X162808000Y-139587000D01*
X189304143Y-139587000D01*
X189304143Y-146403000D01*
X233605857Y-146403000D01*
X233605857Y-139587000D01*
X189304143Y-139587000D01*
X162808000Y-139587000D01*
X162808000Y-136967154D01*
X198702000Y-136967154D01*
X198702000Y-137352846D01*
X198777245Y-137731128D01*
X198924843Y-138087461D01*
X199139122Y-138408152D01*
X199411848Y-138680878D01*
X199732539Y-138895157D01*
X200088872Y-139042755D01*
X200467154Y-139118000D01*
X200852846Y-139118000D01*
X201231128Y-139042755D01*
X201587461Y-138895157D01*
X201908152Y-138680878D01*
X202180878Y-138408152D01*
X202395157Y-138087461D01*
X202542755Y-137731128D01*
X202618000Y-137352846D01*
X202618000Y-136967154D01*
X232357000Y-136967154D01*
X232357000Y-137352846D01*
X232432245Y-137731128D01*
X232579843Y-138087461D01*
X232794122Y-138408152D01*
X233066848Y-138680878D01*
X233387539Y-138895157D01*
X233743872Y-139042755D01*
X234122154Y-139118000D01*
X234507846Y-139118000D01*
X234886128Y-139042755D01*
X235242461Y-138895157D01*
X235563152Y-138680878D01*
X235835878Y-138408152D01*
X236050157Y-138087461D01*
X236197755Y-137731128D01*
X236273000Y-137352846D01*
X236273000Y-136967154D01*
X236197755Y-136588872D01*
X236050157Y-136232539D01*
X235835878Y-135911848D01*
X235563152Y-135639122D01*
X235242461Y-135424843D01*
X234886128Y-135277245D01*
X234507846Y-135202000D01*
X234122154Y-135202000D01*
X233743872Y-135277245D01*
X233387539Y-135424843D01*
X233066848Y-135639122D01*
X232794122Y-135911848D01*
X232579843Y-136232539D01*
X232432245Y-136588872D01*
X232357000Y-136967154D01*
X202618000Y-136967154D01*
X202542755Y-136588872D01*
X202395157Y-136232539D01*
X202180878Y-135911848D01*
X201908152Y-135639122D01*
X201587461Y-135424843D01*
X201231128Y-135277245D01*
X200852846Y-135202000D01*
X200467154Y-135202000D01*
X200088872Y-135277245D01*
X199732539Y-135424843D01*
X199411848Y-135639122D01*
X199139122Y-135911848D01*
X198924843Y-136232539D01*
X198777245Y-136588872D01*
X198702000Y-136967154D01*
X162808000Y-136967154D01*
X162808000Y-131851458D01*
X169207593Y-131851458D01*
X169252669Y-132000072D01*
X169390978Y-132294202D01*
X169584011Y-132555698D01*
X169824350Y-132774510D01*
X170102760Y-132942230D01*
X170408541Y-133052412D01*
X170665000Y-132881706D01*
X170665000Y-131595000D01*
X170965000Y-131595000D01*
X170965000Y-132881706D01*
X171221459Y-133052412D01*
X171527240Y-132942230D01*
X171805650Y-132774510D01*
X172045989Y-132555698D01*
X172239022Y-132294202D01*
X172377331Y-132000072D01*
X172422407Y-131851458D01*
X172250685Y-131595000D01*
X170965000Y-131595000D01*
X170665000Y-131595000D01*
X169379315Y-131595000D01*
X169207593Y-131851458D01*
X162808000Y-131851458D01*
X162808000Y-131038542D01*
X169207593Y-131038542D01*
X169379315Y-131295000D01*
X170665000Y-131295000D01*
X170665000Y-130008294D01*
X170965000Y-130008294D01*
X170965000Y-131295000D01*
X172250685Y-131295000D01*
X172422407Y-131038542D01*
X172377331Y-130889928D01*
X172239022Y-130595798D01*
X172045989Y-130334302D01*
X171805650Y-130115490D01*
X171527240Y-129947770D01*
X171221459Y-129837588D01*
X170965000Y-130008294D01*
X170665000Y-130008294D01*
X170408541Y-129837588D01*
X170102760Y-129947770D01*
X169824350Y-130115490D01*
X169584011Y-130334302D01*
X169390978Y-130595798D01*
X169252669Y-130889928D01*
X169207593Y-131038542D01*
X162808000Y-131038542D01*
X162808000Y-122997154D01*
X198702000Y-122997154D01*
X198702000Y-123382846D01*
X198777245Y-123761128D01*
X198924843Y-124117461D01*
X199139122Y-124438152D01*
X199411848Y-124710878D01*
X199732539Y-124925157D01*
X200088872Y-125072755D01*
X200467154Y-125148000D01*
X200852846Y-125148000D01*
X201231128Y-125072755D01*
X201587461Y-124925157D01*
X201908152Y-124710878D01*
X202180878Y-124438152D01*
X202395157Y-124117461D01*
X202542755Y-123761128D01*
X202618000Y-123382846D01*
X202618000Y-122997154D01*
X202542755Y-122618872D01*
X202395157Y-122262539D01*
X202180878Y-121941848D01*
X201908152Y-121669122D01*
X201587461Y-121454843D01*
X201231128Y-121307245D01*
X200852846Y-121232000D01*
X200467154Y-121232000D01*
X200088872Y-121307245D01*
X199732539Y-121454843D01*
X199411848Y-121669122D01*
X199139122Y-121941848D01*
X198924843Y-122262539D01*
X198777245Y-122618872D01*
X198702000Y-122997154D01*
X162808000Y-122997154D01*
X162808000Y-116647154D01*
X198702000Y-116647154D01*
X198702000Y-117032846D01*
X198777245Y-117411128D01*
X198924843Y-117767461D01*
X199139122Y-118088152D01*
X199411848Y-118360878D01*
X199732539Y-118575157D01*
X200088872Y-118722755D01*
X200467154Y-118798000D01*
X200852846Y-118798000D01*
X201231128Y-118722755D01*
X201587461Y-118575157D01*
X201908152Y-118360878D01*
X202180878Y-118088152D01*
X202395157Y-117767461D01*
X202542755Y-117411128D01*
X202618000Y-117032846D01*
X202618000Y-116647154D01*
X202542755Y-116268872D01*
X202395157Y-115912539D01*
X202180878Y-115591848D01*
X201908152Y-115319122D01*
X201587461Y-115104843D01*
X201231128Y-114957245D01*
X200852846Y-114882000D01*
X200467154Y-114882000D01*
X200088872Y-114957245D01*
X199732539Y-115104843D01*
X199411848Y-115319122D01*
X199139122Y-115591848D01*
X198924843Y-115912539D01*
X198777245Y-116268872D01*
X198702000Y-116647154D01*
X162808000Y-116647154D01*
X162808000Y-111531458D01*
X169207593Y-111531458D01*
X169252669Y-111680072D01*
X169390978Y-111974202D01*
X169584011Y-112235698D01*
X169824350Y-112454510D01*
X170102760Y-112622230D01*
X170408541Y-112732412D01*
X170665000Y-112561706D01*
X170665000Y-111275000D01*
X170965000Y-111275000D01*
X170965000Y-112561706D01*
X171221459Y-112732412D01*
X171527240Y-112622230D01*
X171805650Y-112454510D01*
X172045989Y-112235698D01*
X172239022Y-111974202D01*
X172377331Y-111680072D01*
X172422407Y-111531458D01*
X172250685Y-111275000D01*
X170965000Y-111275000D01*
X170665000Y-111275000D01*
X169379315Y-111275000D01*
X169207593Y-111531458D01*
X162808000Y-111531458D01*
X162808000Y-110718542D01*
X169207593Y-110718542D01*
X169379315Y-110975000D01*
X170665000Y-110975000D01*
X170665000Y-109688294D01*
X170965000Y-109688294D01*
X170965000Y-110975000D01*
X172250685Y-110975000D01*
X172422407Y-110718542D01*
X172377331Y-110569928D01*
X172239022Y-110275798D01*
X172045989Y-110014302D01*
X171805650Y-109795490D01*
X171527240Y-109627770D01*
X171221459Y-109517588D01*
X170965000Y-109688294D01*
X170665000Y-109688294D01*
X170408541Y-109517588D01*
X170102760Y-109627770D01*
X169824350Y-109795490D01*
X169584011Y-110014302D01*
X169390978Y-110275798D01*
X169252669Y-110569928D01*
X169207593Y-110718542D01*
X162808000Y-110718542D01*
X162808000Y-102677154D01*
X198702000Y-102677154D01*
X198702000Y-103062846D01*
X198777245Y-103441128D01*
X198924843Y-103797461D01*
X199139122Y-104118152D01*
X199411848Y-104390878D01*
X199732539Y-104605157D01*
X200088872Y-104752755D01*
X200467154Y-104828000D01*
X200852846Y-104828000D01*
X201231128Y-104752755D01*
X201587461Y-104605157D01*
X201908152Y-104390878D01*
X202180878Y-104118152D01*
X202395157Y-103797461D01*
X202542755Y-103441128D01*
X202618000Y-103062846D01*
X202618000Y-102677154D01*
X202542755Y-102298872D01*
X202395157Y-101942539D01*
X202180878Y-101621848D01*
X201908152Y-101349122D01*
X201587461Y-101134843D01*
X201231128Y-100987245D01*
X200852846Y-100912000D01*
X200467154Y-100912000D01*
X200088872Y-100987245D01*
X199732539Y-101134843D01*
X199411848Y-101349122D01*
X199139122Y-101621848D01*
X198924843Y-101942539D01*
X198777245Y-102298872D01*
X198702000Y-102677154D01*
X162808000Y-102677154D01*
X162808000Y-96327154D01*
X198702000Y-96327154D01*
X198702000Y-96712846D01*
X198777245Y-97091128D01*
X198924843Y-97447461D01*
X199139122Y-97768152D01*
X199411848Y-98040878D01*
X199732539Y-98255157D01*
X200088872Y-98402755D01*
X200467154Y-98478000D01*
X200852846Y-98478000D01*
X201231128Y-98402755D01*
X201587461Y-98255157D01*
X201908152Y-98040878D01*
X202180878Y-97768152D01*
X202395157Y-97447461D01*
X202542755Y-97091128D01*
X202618000Y-96712846D01*
X202618000Y-96327154D01*
X202542755Y-95948872D01*
X202395157Y-95592539D01*
X202180878Y-95271848D01*
X201908152Y-94999122D01*
X201587461Y-94784843D01*
X201231128Y-94637245D01*
X200852846Y-94562000D01*
X200467154Y-94562000D01*
X200088872Y-94637245D01*
X199732539Y-94784843D01*
X199411848Y-94999122D01*
X199139122Y-95271848D01*
X198924843Y-95592539D01*
X198777245Y-95948872D01*
X198702000Y-96327154D01*
X162808000Y-96327154D01*
X162808000Y-91211458D01*
X169207593Y-91211458D01*
X169252669Y-91360072D01*
X169390978Y-91654202D01*
X169584011Y-91915698D01*
X169824350Y-92134510D01*
X170102760Y-92302230D01*
X170408541Y-92412412D01*
X170665000Y-92241706D01*
X170665000Y-90955000D01*
X170965000Y-90955000D01*
X170965000Y-92241706D01*
X171221459Y-92412412D01*
X171527240Y-92302230D01*
X171805650Y-92134510D01*
X172045989Y-91915698D01*
X172239022Y-91654202D01*
X172377331Y-91360072D01*
X172422407Y-91211458D01*
X172250685Y-90955000D01*
X170965000Y-90955000D01*
X170665000Y-90955000D01*
X169379315Y-90955000D01*
X169207593Y-91211458D01*
X162808000Y-91211458D01*
X162808000Y-90398542D01*
X169207593Y-90398542D01*
X169379315Y-90655000D01*
X170665000Y-90655000D01*
X170665000Y-89368294D01*
X170965000Y-89368294D01*
X170965000Y-90655000D01*
X172250685Y-90655000D01*
X172259589Y-90641701D01*
X181857000Y-90641701D01*
X181857000Y-90968299D01*
X181920716Y-91288621D01*
X182045700Y-91590357D01*
X182227148Y-91861913D01*
X182458087Y-92092852D01*
X182729643Y-92274300D01*
X183031379Y-92399284D01*
X183351701Y-92463000D01*
X183678299Y-92463000D01*
X183998621Y-92399284D01*
X184300357Y-92274300D01*
X184466929Y-92163000D01*
X209191931Y-92163000D01*
X209203148Y-92183985D01*
X209310367Y-92314633D01*
X209441015Y-92421852D01*
X209590069Y-92501524D01*
X209751803Y-92550585D01*
X209920000Y-92567151D01*
X211720000Y-92567151D01*
X211888197Y-92550585D01*
X212049931Y-92501524D01*
X212198985Y-92421852D01*
X212329633Y-92314633D01*
X212436852Y-92183985D01*
X212516524Y-92034931D01*
X212565585Y-91873197D01*
X212582151Y-91705000D01*
X212582151Y-90042653D01*
X212637000Y-90097502D01*
X212637001Y-107227000D01*
X211948188Y-107227000D01*
X211940660Y-107219472D01*
X211652725Y-107027081D01*
X211332790Y-106894559D01*
X210993148Y-106827000D01*
X210646852Y-106827000D01*
X210307210Y-106894559D01*
X209987275Y-107027081D01*
X209699340Y-107219472D01*
X209454472Y-107464340D01*
X209262081Y-107752275D01*
X209129559Y-108072210D01*
X209062000Y-108411852D01*
X209062000Y-108758148D01*
X209129559Y-109097790D01*
X209262081Y-109417725D01*
X209364472Y-109570965D01*
X209310367Y-109615367D01*
X209203148Y-109746015D01*
X209191931Y-109767000D01*
X184466929Y-109767000D01*
X184300357Y-109655700D01*
X183998621Y-109530716D01*
X183678299Y-109467000D01*
X183351701Y-109467000D01*
X183031379Y-109530716D01*
X182729643Y-109655700D01*
X182458087Y-109837148D01*
X182227148Y-110068087D01*
X182045700Y-110339643D01*
X181920716Y-110641379D01*
X181857000Y-110961701D01*
X181857000Y-111288299D01*
X181920716Y-111608621D01*
X182045700Y-111910357D01*
X182227148Y-112181913D01*
X182458087Y-112412852D01*
X182729643Y-112594300D01*
X183031379Y-112719284D01*
X183351701Y-112783000D01*
X183678299Y-112783000D01*
X183998621Y-112719284D01*
X184300357Y-112594300D01*
X184466929Y-112483000D01*
X209191931Y-112483000D01*
X209203148Y-112503985D01*
X209310367Y-112634633D01*
X209441015Y-112741852D01*
X209590069Y-112821524D01*
X209751803Y-112870585D01*
X209920000Y-112887151D01*
X211720000Y-112887151D01*
X211888197Y-112870585D01*
X212049931Y-112821524D01*
X212198985Y-112741852D01*
X212329633Y-112634633D01*
X212436852Y-112503985D01*
X212516524Y-112354931D01*
X212565585Y-112193197D01*
X212582151Y-112025000D01*
X212582151Y-110225000D01*
X212565585Y-110056803D01*
X212531064Y-109943000D01*
X212637000Y-109943000D01*
X212637001Y-127072497D01*
X212162499Y-127547000D01*
X211948188Y-127547000D01*
X211940660Y-127539472D01*
X211652725Y-127347081D01*
X211332790Y-127214559D01*
X210993148Y-127147000D01*
X210646852Y-127147000D01*
X210307210Y-127214559D01*
X209987275Y-127347081D01*
X209699340Y-127539472D01*
X209454472Y-127784340D01*
X209262081Y-128072275D01*
X209129559Y-128392210D01*
X209062000Y-128731852D01*
X209062000Y-129078148D01*
X209129559Y-129417790D01*
X209262081Y-129737725D01*
X209364472Y-129890965D01*
X209310367Y-129935367D01*
X209203148Y-130066015D01*
X209191931Y-130087000D01*
X184466929Y-130087000D01*
X184300357Y-129975700D01*
X183998621Y-129850716D01*
X183678299Y-129787000D01*
X183351701Y-129787000D01*
X183031379Y-129850716D01*
X182729643Y-129975700D01*
X182458087Y-130157148D01*
X182227148Y-130388087D01*
X182045700Y-130659643D01*
X181920716Y-130961379D01*
X181857000Y-131281701D01*
X181857000Y-131608299D01*
X181920716Y-131928621D01*
X182045700Y-132230357D01*
X182227148Y-132501913D01*
X182458087Y-132732852D01*
X182729643Y-132914300D01*
X183031379Y-133039284D01*
X183351701Y-133103000D01*
X183678299Y-133103000D01*
X183998621Y-133039284D01*
X184300357Y-132914300D01*
X184466929Y-132803000D01*
X209191931Y-132803000D01*
X209203148Y-132823985D01*
X209310367Y-132954633D01*
X209441015Y-133061852D01*
X209590069Y-133141524D01*
X209751803Y-133190585D01*
X209920000Y-133207151D01*
X211720000Y-133207151D01*
X211888197Y-133190585D01*
X212049931Y-133141524D01*
X212198985Y-133061852D01*
X212329633Y-132954633D01*
X212436852Y-132823985D01*
X212516524Y-132674931D01*
X212565585Y-132513197D01*
X212582151Y-132345000D01*
X212582151Y-130545000D01*
X212565585Y-130376803D01*
X212531064Y-130263000D01*
X212658297Y-130263000D01*
X212725000Y-130269570D01*
X212791703Y-130263000D01*
X212791706Y-130263000D01*
X212991214Y-130243350D01*
X213247198Y-130165698D01*
X213483114Y-130039598D01*
X213689897Y-129869897D01*
X213732425Y-129818076D01*
X214908081Y-128642421D01*
X214959897Y-128599897D01*
X215129598Y-128393114D01*
X215255698Y-128157198D01*
X215333350Y-127901214D01*
X215353000Y-127701706D01*
X215353000Y-127701704D01*
X215359570Y-127635001D01*
X215353000Y-127568297D01*
X215353000Y-108651706D01*
X215359570Y-108585000D01*
X215353000Y-108518294D01*
X215353000Y-89601703D01*
X215359570Y-89534999D01*
X215351212Y-89450145D01*
X215333350Y-89268786D01*
X215255698Y-89012802D01*
X215129598Y-88776886D01*
X215015141Y-88637419D01*
X215002419Y-88621917D01*
X215002416Y-88621914D01*
X214959896Y-88570103D01*
X214908086Y-88527584D01*
X213732425Y-87351924D01*
X213689897Y-87300103D01*
X213483114Y-87130402D01*
X213247198Y-87004302D01*
X212991214Y-86926650D01*
X212791706Y-86907000D01*
X212791703Y-86907000D01*
X212725000Y-86900430D01*
X212658297Y-86907000D01*
X211948188Y-86907000D01*
X211940660Y-86899472D01*
X211652725Y-86707081D01*
X211332790Y-86574559D01*
X210993148Y-86507000D01*
X210646852Y-86507000D01*
X210307210Y-86574559D01*
X209987275Y-86707081D01*
X209699340Y-86899472D01*
X209691812Y-86907000D01*
X198047502Y-86907000D01*
X193497656Y-82357154D01*
X198702000Y-82357154D01*
X198702000Y-82742846D01*
X198777245Y-83121128D01*
X198924843Y-83477461D01*
X199139122Y-83798152D01*
X199411848Y-84070878D01*
X199732539Y-84285157D01*
X200088872Y-84432755D01*
X200467154Y-84508000D01*
X200852846Y-84508000D01*
X201231128Y-84432755D01*
X201587461Y-84285157D01*
X201908152Y-84070878D01*
X202180878Y-83798152D01*
X202395157Y-83477461D01*
X202542755Y-83121128D01*
X202618000Y-82742846D01*
X202618000Y-82357154D01*
X202542755Y-81978872D01*
X202395157Y-81622539D01*
X202180878Y-81301848D01*
X201908152Y-81029122D01*
X201587461Y-80814843D01*
X201231128Y-80667245D01*
X200852846Y-80592000D01*
X200467154Y-80592000D01*
X200088872Y-80667245D01*
X199732539Y-80814843D01*
X199411848Y-81029122D01*
X199139122Y-81301848D01*
X198924843Y-81622539D01*
X198777245Y-81978872D01*
X198702000Y-82357154D01*
X193497656Y-82357154D01*
X193412422Y-82271921D01*
X193412418Y-82271916D01*
X190872422Y-79731921D01*
X190872418Y-79731916D01*
X188683000Y-77542499D01*
X188683000Y-71981932D01*
X188749991Y-71881673D01*
X188871205Y-71589036D01*
X188933000Y-71278374D01*
X188933000Y-70961626D01*
X188871205Y-70650964D01*
X188749991Y-70358327D01*
X188574015Y-70094960D01*
X188350040Y-69870985D01*
X188086673Y-69695009D01*
X187794036Y-69573795D01*
X187483374Y-69512000D01*
X187166626Y-69512000D01*
X186855964Y-69573795D01*
X186563327Y-69695009D01*
X186299960Y-69870985D01*
X186075985Y-70094960D01*
X185900009Y-70358327D01*
X185778795Y-70650964D01*
X185717000Y-70961626D01*
X185717000Y-71278374D01*
X185778795Y-71589036D01*
X185900009Y-71881673D01*
X185967001Y-71981934D01*
X185967000Y-78038297D01*
X185960430Y-78105000D01*
X185967000Y-78171703D01*
X185967000Y-78171705D01*
X185986650Y-78371213D01*
X186064302Y-78627197D01*
X186064303Y-78627198D01*
X186190402Y-78863114D01*
X186283999Y-78977162D01*
X186360103Y-79069896D01*
X186411920Y-79112421D01*
X188951916Y-81652418D01*
X188951921Y-81652422D01*
X191491916Y-84192418D01*
X191491921Y-84192422D01*
X196477579Y-89178081D01*
X196520103Y-89229897D01*
X196571917Y-89272419D01*
X196726885Y-89399598D01*
X196815568Y-89447000D01*
X184466929Y-89447000D01*
X184300357Y-89335700D01*
X183998621Y-89210716D01*
X183678299Y-89147000D01*
X183351701Y-89147000D01*
X183031379Y-89210716D01*
X182729643Y-89335700D01*
X182458087Y-89517148D01*
X182227148Y-89748087D01*
X182045700Y-90019643D01*
X181920716Y-90321379D01*
X181857000Y-90641701D01*
X172259589Y-90641701D01*
X172422407Y-90398542D01*
X172377331Y-90249928D01*
X172239022Y-89955798D01*
X172045989Y-89694302D01*
X171805650Y-89475490D01*
X171527240Y-89307770D01*
X171221459Y-89197588D01*
X170965000Y-89368294D01*
X170665000Y-89368294D01*
X170408541Y-89197588D01*
X170102760Y-89307770D01*
X169824350Y-89475490D01*
X169584011Y-89694302D01*
X169390978Y-89955798D01*
X169252669Y-90249928D01*
X169207593Y-90398542D01*
X162808000Y-90398542D01*
X162808000Y-60960000D01*
X190405430Y-60960000D01*
X190412001Y-61026713D01*
X190412000Y-76768297D01*
X190405430Y-76835000D01*
X190412000Y-76901703D01*
X190412000Y-76901705D01*
X190431650Y-77101213D01*
X190509302Y-77357197D01*
X190509303Y-77357198D01*
X190635402Y-77593114D01*
X190645487Y-77605402D01*
X190805103Y-77799896D01*
X190856918Y-77842419D01*
X192667579Y-79653081D01*
X192710103Y-79704897D01*
X192761917Y-79747419D01*
X192916885Y-79874598D01*
X193042985Y-79941999D01*
X193152802Y-80000698D01*
X193408786Y-80078350D01*
X193608294Y-80098000D01*
X193608296Y-80098000D01*
X193675000Y-80104570D01*
X193741703Y-80098000D01*
X222957499Y-80098000D01*
X227051917Y-84192419D01*
X227051922Y-84192423D01*
X228584498Y-85725000D01*
X227550590Y-86758909D01*
X227510548Y-86766874D01*
X227227010Y-86884319D01*
X226971833Y-87054823D01*
X226754823Y-87271833D01*
X226584319Y-87527010D01*
X226466874Y-87810548D01*
X226407000Y-88111550D01*
X226407000Y-88418450D01*
X226466874Y-88719452D01*
X226584319Y-89002990D01*
X226754823Y-89258167D01*
X226929373Y-89432717D01*
X226896766Y-89450145D01*
X226728356Y-89588356D01*
X226590145Y-89756766D01*
X226487446Y-89948904D01*
X226424203Y-90157386D01*
X226402849Y-90374200D01*
X226402849Y-91275800D01*
X226424203Y-91492614D01*
X226487446Y-91701096D01*
X226590145Y-91893234D01*
X226728356Y-92061644D01*
X226896766Y-92199855D01*
X227088904Y-92302554D01*
X227297386Y-92365797D01*
X227514200Y-92387151D01*
X228415800Y-92387151D01*
X228632614Y-92365797D01*
X228841096Y-92302554D01*
X229033234Y-92199855D01*
X229078142Y-92163000D01*
X231847499Y-92163000D01*
X233307579Y-93623081D01*
X233350103Y-93674897D01*
X233401917Y-93717419D01*
X233556885Y-93844598D01*
X233682985Y-93911999D01*
X233792802Y-93970698D01*
X234048786Y-94048350D01*
X234248294Y-94068000D01*
X234248296Y-94068000D01*
X234315000Y-94074570D01*
X234381703Y-94068000D01*
X236927499Y-94068000D01*
X237825271Y-94965772D01*
X237848795Y-95084036D01*
X237970009Y-95376673D01*
X238037000Y-95476932D01*
X238037001Y-101672497D01*
X236147822Y-103561676D01*
X236197755Y-103441128D01*
X236273000Y-103062846D01*
X236273000Y-102677154D01*
X236197755Y-102298872D01*
X236050157Y-101942539D01*
X235835878Y-101621848D01*
X235563152Y-101349122D01*
X235242461Y-101134843D01*
X234886128Y-100987245D01*
X234507846Y-100912000D01*
X234122154Y-100912000D01*
X233743872Y-100987245D01*
X233387539Y-101134843D01*
X233066848Y-101349122D01*
X232794122Y-101621848D01*
X232579843Y-101942539D01*
X232432245Y-102298872D01*
X232357000Y-102677154D01*
X232357000Y-103062846D01*
X232432245Y-103441128D01*
X232579843Y-103797461D01*
X232794122Y-104118152D01*
X233066848Y-104390878D01*
X233387539Y-104605157D01*
X233743872Y-104752755D01*
X234122154Y-104828000D01*
X234507846Y-104828000D01*
X234886128Y-104752755D01*
X235006676Y-104702822D01*
X229922499Y-109787000D01*
X229053772Y-109787000D01*
X229033234Y-109770145D01*
X229000627Y-109752717D01*
X229175177Y-109578167D01*
X229345681Y-109322990D01*
X229463126Y-109039452D01*
X229523000Y-108738450D01*
X229523000Y-108431550D01*
X229463126Y-108130548D01*
X229345681Y-107847010D01*
X229175177Y-107591833D01*
X228958167Y-107374823D01*
X228702990Y-107204319D01*
X228419452Y-107086874D01*
X228118450Y-107027000D01*
X227811550Y-107027000D01*
X227510548Y-107086874D01*
X227227010Y-107204319D01*
X227193066Y-107227000D01*
X226126703Y-107227000D01*
X226060000Y-107220430D01*
X225993296Y-107227000D01*
X225993294Y-107227000D01*
X225793786Y-107246650D01*
X225615453Y-107300747D01*
X225537801Y-107324302D01*
X225378277Y-107409570D01*
X225301886Y-107450402D01*
X225095103Y-107620103D01*
X225052575Y-107671924D01*
X224511920Y-108212579D01*
X224460104Y-108255103D01*
X224417581Y-108306918D01*
X224290402Y-108461886D01*
X224164303Y-108697802D01*
X224086651Y-108953786D01*
X224060430Y-109220000D01*
X224067001Y-109286713D01*
X224067000Y-112328296D01*
X224060430Y-112395000D01*
X224067000Y-112461703D01*
X224067000Y-112461705D01*
X224086650Y-112661213D01*
X224164302Y-112917197D01*
X224164303Y-112917198D01*
X224290402Y-113153114D01*
X224300487Y-113165402D01*
X224460103Y-113359896D01*
X224511920Y-113402421D01*
X225687579Y-114578081D01*
X225730103Y-114629897D01*
X225936886Y-114799598D01*
X226172802Y-114925698D01*
X226428786Y-115003350D01*
X226628294Y-115023000D01*
X226628296Y-115023000D01*
X226694999Y-115029570D01*
X226761703Y-115023000D01*
X230438297Y-115023000D01*
X230505000Y-115029570D01*
X230571703Y-115023000D01*
X230571706Y-115023000D01*
X230771214Y-115003350D01*
X231027198Y-114925698D01*
X231263114Y-114799598D01*
X231469897Y-114629897D01*
X231512425Y-114578076D01*
X233796883Y-112293619D01*
X233823114Y-112279598D01*
X234029897Y-112109897D01*
X234072425Y-112058076D01*
X238097413Y-108033089D01*
X238113282Y-108085402D01*
X238134303Y-108154698D01*
X238260402Y-108390614D01*
X238365186Y-108518294D01*
X238430104Y-108597397D01*
X238481920Y-108639921D01*
X245022000Y-115180002D01*
X245022000Y-115901753D01*
X245018055Y-115896945D01*
X244765592Y-115689753D01*
X244477559Y-115535796D01*
X244165025Y-115440990D01*
X243840000Y-115408978D01*
X243514976Y-115440990D01*
X243202442Y-115535796D01*
X242914409Y-115689753D01*
X242661946Y-115896945D01*
X242454753Y-116149408D01*
X242300796Y-116437441D01*
X242205990Y-116749975D01*
X242182000Y-116993551D01*
X242182000Y-117956448D01*
X242205990Y-118200024D01*
X242266151Y-118398347D01*
X233117499Y-127547000D01*
X228736934Y-127547000D01*
X228702990Y-127524319D01*
X228419452Y-127406874D01*
X228379411Y-127398909D01*
X226432423Y-125451922D01*
X226432419Y-125451917D01*
X223977656Y-122997154D01*
X232357000Y-122997154D01*
X232357000Y-123382846D01*
X232432245Y-123761128D01*
X232579843Y-124117461D01*
X232794122Y-124438152D01*
X233066848Y-124710878D01*
X233387539Y-124925157D01*
X233743872Y-125072755D01*
X234122154Y-125148000D01*
X234507846Y-125148000D01*
X234886128Y-125072755D01*
X235242461Y-124925157D01*
X235563152Y-124710878D01*
X235835878Y-124438152D01*
X236050157Y-124117461D01*
X236197755Y-123761128D01*
X236273000Y-123382846D01*
X236273000Y-122997154D01*
X236197755Y-122618872D01*
X236050157Y-122262539D01*
X235835878Y-121941848D01*
X235563152Y-121669122D01*
X235242461Y-121454843D01*
X234886128Y-121307245D01*
X234507846Y-121232000D01*
X234122154Y-121232000D01*
X233743872Y-121307245D01*
X233387539Y-121454843D01*
X233066848Y-121669122D01*
X232794122Y-121941848D01*
X232579843Y-122262539D01*
X232432245Y-122618872D01*
X232357000Y-122997154D01*
X223977656Y-122997154D01*
X222973000Y-121992499D01*
X222973000Y-116647154D01*
X232357000Y-116647154D01*
X232357000Y-117032846D01*
X232432245Y-117411128D01*
X232579843Y-117767461D01*
X232794122Y-118088152D01*
X233066848Y-118360878D01*
X233387539Y-118575157D01*
X233743872Y-118722755D01*
X234122154Y-118798000D01*
X234507846Y-118798000D01*
X234886128Y-118722755D01*
X235242461Y-118575157D01*
X235563152Y-118360878D01*
X235835878Y-118088152D01*
X236050157Y-117767461D01*
X236197755Y-117411128D01*
X236273000Y-117032846D01*
X236273000Y-116647154D01*
X236197755Y-116268872D01*
X236050157Y-115912539D01*
X235835878Y-115591848D01*
X235563152Y-115319122D01*
X235242461Y-115104843D01*
X234886128Y-114957245D01*
X234507846Y-114882000D01*
X234122154Y-114882000D01*
X233743872Y-114957245D01*
X233387539Y-115104843D01*
X233066848Y-115319122D01*
X232794122Y-115591848D01*
X232579843Y-115912539D01*
X232432245Y-116268872D01*
X232357000Y-116647154D01*
X222973000Y-116647154D01*
X222973000Y-96327154D01*
X232357000Y-96327154D01*
X232357000Y-96712846D01*
X232432245Y-97091128D01*
X232579843Y-97447461D01*
X232794122Y-97768152D01*
X233066848Y-98040878D01*
X233387539Y-98255157D01*
X233743872Y-98402755D01*
X234122154Y-98478000D01*
X234507846Y-98478000D01*
X234886128Y-98402755D01*
X235242461Y-98255157D01*
X235563152Y-98040878D01*
X235835878Y-97768152D01*
X236050157Y-97447461D01*
X236197755Y-97091128D01*
X236273000Y-96712846D01*
X236273000Y-96327154D01*
X236197755Y-95948872D01*
X236050157Y-95592539D01*
X235835878Y-95271848D01*
X235563152Y-94999122D01*
X235242461Y-94784843D01*
X234886128Y-94637245D01*
X234507846Y-94562000D01*
X234122154Y-94562000D01*
X233743872Y-94637245D01*
X233387539Y-94784843D01*
X233066848Y-94999122D01*
X232794122Y-95271848D01*
X232579843Y-95592539D01*
X232432245Y-95948872D01*
X232357000Y-96327154D01*
X222973000Y-96327154D01*
X222973000Y-88966703D01*
X222979570Y-88899999D01*
X222972838Y-88831650D01*
X222953350Y-88633786D01*
X222875698Y-88377802D01*
X222749598Y-88141886D01*
X222579897Y-87935103D01*
X222528081Y-87892579D01*
X218177425Y-83541924D01*
X218134897Y-83490103D01*
X217928114Y-83320402D01*
X217692198Y-83194302D01*
X217436214Y-83116650D01*
X217236706Y-83097000D01*
X217236703Y-83097000D01*
X217170000Y-83090430D01*
X217103297Y-83097000D01*
X212017502Y-83097000D01*
X210484729Y-81564228D01*
X210461205Y-81445964D01*
X210339991Y-81153327D01*
X210164015Y-80889960D01*
X209940040Y-80665985D01*
X209676673Y-80490009D01*
X209384036Y-80368795D01*
X209073374Y-80307000D01*
X208756626Y-80307000D01*
X208445964Y-80368795D01*
X208153327Y-80490009D01*
X207889960Y-80665985D01*
X207665985Y-80889960D01*
X207490009Y-81153327D01*
X207368795Y-81445964D01*
X207307000Y-81756626D01*
X207307000Y-82073374D01*
X207368795Y-82384036D01*
X207490009Y-82676673D01*
X207665985Y-82940040D01*
X207889960Y-83164015D01*
X208153327Y-83339991D01*
X208445964Y-83461205D01*
X208564228Y-83484729D01*
X210447579Y-85368081D01*
X210490103Y-85419897D01*
X210696886Y-85589598D01*
X210932802Y-85715698D01*
X211188786Y-85793350D01*
X211388294Y-85813000D01*
X211388296Y-85813000D01*
X211454999Y-85819570D01*
X211521703Y-85813000D01*
X216607499Y-85813000D01*
X220257001Y-89462503D01*
X220257000Y-122488297D01*
X220250430Y-122555000D01*
X220257000Y-122621703D01*
X220257000Y-122621705D01*
X220276650Y-122821213D01*
X220354302Y-123077197D01*
X220378942Y-123123295D01*
X220480402Y-123313114D01*
X220537630Y-123382846D01*
X220650103Y-123519896D01*
X220701920Y-123562421D01*
X224511917Y-127372419D01*
X224511922Y-127372423D01*
X226458909Y-129319411D01*
X226466874Y-129359452D01*
X226584319Y-129642990D01*
X226754823Y-129898167D01*
X226929373Y-130072717D01*
X226896766Y-130090145D01*
X226728356Y-130228356D01*
X226590145Y-130396766D01*
X226487446Y-130588904D01*
X226424203Y-130797386D01*
X226402849Y-131014200D01*
X226402849Y-131915800D01*
X226424203Y-132132614D01*
X226487446Y-132341096D01*
X226590145Y-132533234D01*
X226728356Y-132701644D01*
X226896766Y-132839855D01*
X227088904Y-132942554D01*
X227297386Y-133005797D01*
X227514200Y-133027151D01*
X228415800Y-133027151D01*
X228632614Y-133005797D01*
X228841096Y-132942554D01*
X229033234Y-132839855D01*
X229053772Y-132823000D01*
X232323297Y-132823000D01*
X232390000Y-132829570D01*
X232456703Y-132823000D01*
X232456706Y-132823000D01*
X232656214Y-132803350D01*
X232657368Y-132803000D01*
X235261208Y-132803000D01*
X235294408Y-132830247D01*
X235582441Y-132984204D01*
X235894975Y-133079010D01*
X236138551Y-133103000D01*
X236301449Y-133103000D01*
X236545025Y-133079010D01*
X236857559Y-132984204D01*
X237145592Y-132830247D01*
X237398055Y-132623055D01*
X237605247Y-132370592D01*
X237759204Y-132082559D01*
X237854010Y-131770025D01*
X237886022Y-131445000D01*
X237854010Y-131119975D01*
X237759204Y-130807441D01*
X237605247Y-130519408D01*
X237578000Y-130486208D01*
X237578000Y-129467501D01*
X241800501Y-125245000D01*
X242182000Y-125245000D01*
X242182000Y-125645000D01*
X242243122Y-125965578D01*
X242365611Y-126268071D01*
X242544760Y-126540856D01*
X242773684Y-126773449D01*
X243043586Y-126956912D01*
X243344094Y-127084194D01*
X243433542Y-127102407D01*
X243690000Y-126930685D01*
X243690000Y-125245000D01*
X242182000Y-125245000D01*
X241800501Y-125245000D01*
X242182000Y-124863502D01*
X242182000Y-124945000D01*
X243690000Y-124945000D01*
X243690000Y-124925000D01*
X243990000Y-124925000D01*
X243990000Y-124945000D01*
X244010000Y-124945000D01*
X244010000Y-125245000D01*
X243990000Y-125245000D01*
X243990000Y-126930685D01*
X244246458Y-127102407D01*
X244335906Y-127084194D01*
X244636414Y-126956912D01*
X244906316Y-126773449D01*
X245112453Y-126564008D01*
X245201945Y-126673055D01*
X245454408Y-126880247D01*
X245742441Y-127034204D01*
X246054975Y-127129010D01*
X246380000Y-127161022D01*
X246705024Y-127129010D01*
X247017558Y-127034204D01*
X247305591Y-126880247D01*
X247558055Y-126673055D01*
X247562001Y-126668247D01*
X247562000Y-130493071D01*
X247450700Y-130659643D01*
X247325716Y-130961379D01*
X247262000Y-131281701D01*
X247262000Y-131608299D01*
X247325716Y-131928621D01*
X247450700Y-132230357D01*
X247632148Y-132501913D01*
X247863087Y-132732852D01*
X248134643Y-132914300D01*
X248436379Y-133039284D01*
X248756701Y-133103000D01*
X249083299Y-133103000D01*
X249403621Y-133039284D01*
X249705357Y-132914300D01*
X249976913Y-132732852D01*
X250207852Y-132501913D01*
X250389300Y-132230357D01*
X250514284Y-131928621D01*
X250578000Y-131608299D01*
X250578000Y-131281701D01*
X250514284Y-130961379D01*
X250389300Y-130659643D01*
X250278000Y-130493071D01*
X250278000Y-126668248D01*
X250281945Y-126673055D01*
X250534408Y-126880247D01*
X250822441Y-127034204D01*
X251134975Y-127129010D01*
X251460000Y-127161022D01*
X251785024Y-127129010D01*
X252097558Y-127034204D01*
X252385591Y-126880247D01*
X252638055Y-126673055D01*
X252845247Y-126420592D01*
X252999204Y-126132559D01*
X253094010Y-125820025D01*
X253118000Y-125576449D01*
X253118000Y-125357501D01*
X254372419Y-124103083D01*
X254372423Y-124103078D01*
X256183081Y-122292421D01*
X256234897Y-122249897D01*
X256394514Y-122055402D01*
X256404598Y-122043115D01*
X256506938Y-121851650D01*
X256530698Y-121807198D01*
X256608350Y-121551214D01*
X256628000Y-121351706D01*
X256628000Y-121351704D01*
X256634570Y-121285000D01*
X256628000Y-121218297D01*
X256628000Y-114366703D01*
X256634570Y-114299999D01*
X256627838Y-114231650D01*
X256608350Y-114033786D01*
X256530698Y-113777802D01*
X256404598Y-113541886D01*
X256356191Y-113482902D01*
X256277419Y-113386917D01*
X256277416Y-113386914D01*
X256234896Y-113335103D01*
X256183086Y-113292584D01*
X249341960Y-106451458D01*
X250487593Y-106451458D01*
X250532669Y-106600072D01*
X250670978Y-106894202D01*
X250864011Y-107155698D01*
X251104350Y-107374510D01*
X251382760Y-107542230D01*
X251688541Y-107652412D01*
X251945000Y-107481706D01*
X251945000Y-106195000D01*
X252245000Y-106195000D01*
X252245000Y-107481706D01*
X252501459Y-107652412D01*
X252807240Y-107542230D01*
X253085650Y-107374510D01*
X253325989Y-107155698D01*
X253519022Y-106894202D01*
X253657331Y-106600072D01*
X253702407Y-106451458D01*
X253530685Y-106195000D01*
X252245000Y-106195000D01*
X251945000Y-106195000D01*
X250659315Y-106195000D01*
X250487593Y-106451458D01*
X249341960Y-106451458D01*
X248529044Y-105638542D01*
X250487593Y-105638542D01*
X250659315Y-105895000D01*
X251945000Y-105895000D01*
X251945000Y-104608294D01*
X252245000Y-104608294D01*
X252245000Y-105895000D01*
X253530685Y-105895000D01*
X253702407Y-105638542D01*
X253657331Y-105489928D01*
X253519022Y-105195798D01*
X253325989Y-104934302D01*
X253085650Y-104715490D01*
X252807240Y-104547770D01*
X252501459Y-104437588D01*
X252245000Y-104608294D01*
X251945000Y-104608294D01*
X251688541Y-104437588D01*
X251382760Y-104547770D01*
X251104350Y-104715490D01*
X250864011Y-104934302D01*
X250670978Y-105195798D01*
X250532669Y-105489928D01*
X250487593Y-105638542D01*
X248529044Y-105638542D01*
X247103000Y-104212499D01*
X247103000Y-95476932D01*
X247169991Y-95376673D01*
X247291205Y-95084036D01*
X247353000Y-94773374D01*
X247353000Y-94456626D01*
X247291205Y-94145964D01*
X247169991Y-93853327D01*
X247103000Y-93753068D01*
X247103000Y-91211458D01*
X250487593Y-91211458D01*
X250532669Y-91360072D01*
X250670978Y-91654202D01*
X250864011Y-91915698D01*
X251104350Y-92134510D01*
X251382760Y-92302230D01*
X251688541Y-92412412D01*
X251945000Y-92241706D01*
X251945000Y-90955000D01*
X252245000Y-90955000D01*
X252245000Y-92241706D01*
X252501459Y-92412412D01*
X252807240Y-92302230D01*
X253085650Y-92134510D01*
X253325989Y-91915698D01*
X253519022Y-91654202D01*
X253657331Y-91360072D01*
X253702407Y-91211458D01*
X253530685Y-90955000D01*
X252245000Y-90955000D01*
X251945000Y-90955000D01*
X250659315Y-90955000D01*
X250487593Y-91211458D01*
X247103000Y-91211458D01*
X247103000Y-90398542D01*
X250487593Y-90398542D01*
X250659315Y-90655000D01*
X251945000Y-90655000D01*
X251945000Y-89368294D01*
X252245000Y-89368294D01*
X252245000Y-90655000D01*
X253530685Y-90655000D01*
X253702407Y-90398542D01*
X253657331Y-90249928D01*
X253519022Y-89955798D01*
X253325989Y-89694302D01*
X253085650Y-89475490D01*
X252807240Y-89307770D01*
X252501459Y-89197588D01*
X252245000Y-89368294D01*
X251945000Y-89368294D01*
X251688541Y-89197588D01*
X251382760Y-89307770D01*
X251104350Y-89475490D01*
X250864011Y-89694302D01*
X250670978Y-89955798D01*
X250532669Y-90249928D01*
X250487593Y-90398542D01*
X247103000Y-90398542D01*
X247103000Y-87061703D01*
X247109570Y-86994999D01*
X247102838Y-86926650D01*
X247083350Y-86728786D01*
X247005698Y-86472802D01*
X246879598Y-86236886D01*
X246709896Y-86030103D01*
X246658086Y-85987584D01*
X232782425Y-72111924D01*
X232739897Y-72060103D01*
X232533114Y-71890402D01*
X232297198Y-71764302D01*
X232041214Y-71686650D01*
X231841706Y-71667000D01*
X231841703Y-71667000D01*
X231775000Y-71660430D01*
X231708297Y-71667000D01*
X217258000Y-71667000D01*
X217258000Y-62157501D01*
X220623081Y-58792421D01*
X220674897Y-58749897D01*
X220834514Y-58555402D01*
X220844598Y-58543115D01*
X220970698Y-58307199D01*
X221024630Y-58129408D01*
X221048350Y-58051213D01*
X221068000Y-57851705D01*
X221068000Y-57851704D01*
X221074570Y-57785000D01*
X221068000Y-57718297D01*
X221068000Y-47582034D01*
X221102440Y-47620065D01*
X221371292Y-47819635D01*
X221673912Y-47962920D01*
X221835689Y-48011989D01*
X222100000Y-47840948D01*
X222100000Y-46505000D01*
X222080000Y-46505000D01*
X222080000Y-46205000D01*
X222100000Y-46205000D01*
X222100000Y-44869052D01*
X222400000Y-44869052D01*
X222400000Y-46205000D01*
X222420000Y-46205000D01*
X222420000Y-46505000D01*
X222400000Y-46505000D01*
X222400000Y-47840948D01*
X222664311Y-48011989D01*
X222826088Y-47962920D01*
X223128708Y-47819635D01*
X223397560Y-47620065D01*
X223513552Y-47491979D01*
X223576418Y-47568582D01*
X223836495Y-47782021D01*
X224133214Y-47940621D01*
X224455174Y-48038286D01*
X224706096Y-48063000D01*
X224873904Y-48063000D01*
X225124826Y-48038286D01*
X225446786Y-47940621D01*
X225743505Y-47782021D01*
X226003582Y-47568582D01*
X226060000Y-47499836D01*
X226116418Y-47568582D01*
X226376495Y-47782021D01*
X226673214Y-47940621D01*
X226995174Y-48038286D01*
X227246096Y-48063000D01*
X227413904Y-48063000D01*
X227664826Y-48038286D01*
X227986786Y-47940621D01*
X228283505Y-47782021D01*
X228543582Y-47568582D01*
X228757021Y-47308505D01*
X228915621Y-47011786D01*
X229013286Y-46689826D01*
X229046264Y-46355000D01*
X229013286Y-46020174D01*
X228915621Y-45698214D01*
X228757021Y-45401495D01*
X228543582Y-45141418D01*
X228283505Y-44927979D01*
X227986786Y-44769379D01*
X227664826Y-44671714D01*
X227413904Y-44647000D01*
X227246096Y-44647000D01*
X226995174Y-44671714D01*
X226673214Y-44769379D01*
X226376495Y-44927979D01*
X226116418Y-45141418D01*
X226060000Y-45210164D01*
X226003582Y-45141418D01*
X225743505Y-44927979D01*
X225446786Y-44769379D01*
X225124826Y-44671714D01*
X224873904Y-44647000D01*
X224706096Y-44647000D01*
X224455174Y-44671714D01*
X224133214Y-44769379D01*
X223836495Y-44927979D01*
X223576418Y-45141418D01*
X223513552Y-45218021D01*
X223397560Y-45089935D01*
X223128708Y-44890365D01*
X222826088Y-44747080D01*
X222664311Y-44698011D01*
X222400000Y-44869052D01*
X222100000Y-44869052D01*
X221835689Y-44698011D01*
X221673912Y-44747080D01*
X221371292Y-44890365D01*
X221102440Y-45089935D01*
X220986448Y-45218021D01*
X220923582Y-45141418D01*
X220663505Y-44927979D01*
X220366786Y-44769379D01*
X220044826Y-44671714D01*
X219793904Y-44647000D01*
X219626096Y-44647000D01*
X219375174Y-44671714D01*
X219053214Y-44769379D01*
X218756495Y-44927979D01*
X218496418Y-45141418D01*
X218433552Y-45218021D01*
X218317560Y-45089935D01*
X218048708Y-44890365D01*
X217746088Y-44747080D01*
X217584311Y-44698011D01*
X217320000Y-44869052D01*
X217320000Y-46205000D01*
X217340000Y-46205000D01*
X217340000Y-46505000D01*
X217320000Y-46505000D01*
X217320000Y-47840948D01*
X217584311Y-48011989D01*
X217746088Y-47962920D01*
X218048708Y-47819635D01*
X218317560Y-47620065D01*
X218352001Y-47582033D01*
X218352000Y-57083294D01*
X218352000Y-57222498D01*
X215337499Y-60237000D01*
X213028248Y-60237000D01*
X213033055Y-60233055D01*
X213240247Y-59980592D01*
X213394204Y-59692559D01*
X213489010Y-59380025D01*
X213521022Y-59055000D01*
X213489010Y-58729975D01*
X213394204Y-58417441D01*
X213240247Y-58129408D01*
X213033055Y-57876945D01*
X212821871Y-57703630D01*
X215543086Y-54982416D01*
X215594896Y-54939897D01*
X215754514Y-54745402D01*
X215764598Y-54733115D01*
X215890698Y-54497199D01*
X215914253Y-54419547D01*
X215968350Y-54241214D01*
X215988000Y-54041706D01*
X215988000Y-54041704D01*
X215994570Y-53975000D01*
X215988000Y-53908297D01*
X215988000Y-47582034D01*
X216022440Y-47620065D01*
X216291292Y-47819635D01*
X216593912Y-47962920D01*
X216755689Y-48011989D01*
X217020000Y-47840948D01*
X217020000Y-46505000D01*
X217000000Y-46505000D01*
X217000000Y-46205000D01*
X217020000Y-46205000D01*
X217020000Y-44869052D01*
X216755689Y-44698011D01*
X216593912Y-44747080D01*
X216291292Y-44890365D01*
X216022440Y-45089935D01*
X215906448Y-45218021D01*
X215843582Y-45141418D01*
X215583505Y-44927979D01*
X215286786Y-44769379D01*
X214964826Y-44671714D01*
X214713904Y-44647000D01*
X214546096Y-44647000D01*
X214295174Y-44671714D01*
X213973214Y-44769379D01*
X213676495Y-44927979D01*
X213416418Y-45141418D01*
X213353552Y-45218021D01*
X213237560Y-45089935D01*
X212968708Y-44890365D01*
X212666088Y-44747080D01*
X212504311Y-44698011D01*
X212240000Y-44869052D01*
X212240000Y-46205000D01*
X212260000Y-46205000D01*
X212260000Y-46505000D01*
X212240000Y-46505000D01*
X212240000Y-47840948D01*
X212504311Y-48011989D01*
X212666088Y-47962920D01*
X212968708Y-47819635D01*
X213237560Y-47620065D01*
X213272001Y-47582033D01*
X213272000Y-53412498D01*
X208001920Y-58682579D01*
X207950103Y-58725104D01*
X207907581Y-58776918D01*
X207780402Y-58931886D01*
X207733000Y-59020569D01*
X207733000Y-56442501D01*
X210463086Y-53712416D01*
X210514896Y-53669897D01*
X210557419Y-53618083D01*
X210684598Y-53463115D01*
X210810697Y-53227199D01*
X210810698Y-53227198D01*
X210888350Y-52971214D01*
X210908000Y-52771706D01*
X210908000Y-52771704D01*
X210914570Y-52705001D01*
X210908000Y-52638297D01*
X210908000Y-51026932D01*
X210974991Y-50926673D01*
X211096205Y-50634036D01*
X211158000Y-50323374D01*
X211158000Y-50006626D01*
X211096205Y-49695964D01*
X210974991Y-49403327D01*
X210908000Y-49303068D01*
X210908000Y-47582034D01*
X210942440Y-47620065D01*
X211211292Y-47819635D01*
X211513912Y-47962920D01*
X211675689Y-48011989D01*
X211940000Y-47840948D01*
X211940000Y-46505000D01*
X211920000Y-46505000D01*
X211920000Y-46205000D01*
X211940000Y-46205000D01*
X211940000Y-44869052D01*
X211675689Y-44698011D01*
X211513912Y-44747080D01*
X211211292Y-44890365D01*
X210942440Y-45089935D01*
X210826448Y-45218021D01*
X210763582Y-45141418D01*
X210503505Y-44927979D01*
X210206786Y-44769379D01*
X209884826Y-44671714D01*
X209633904Y-44647000D01*
X209466096Y-44647000D01*
X209215174Y-44671714D01*
X208893214Y-44769379D01*
X208596495Y-44927979D01*
X208336418Y-45141418D01*
X208280000Y-45210164D01*
X208223582Y-45141418D01*
X207963505Y-44927979D01*
X207666786Y-44769379D01*
X207344826Y-44671714D01*
X207093904Y-44647000D01*
X206926096Y-44647000D01*
X206675174Y-44671714D01*
X206353214Y-44769379D01*
X206056495Y-44927979D01*
X205796418Y-45141418D01*
X205740000Y-45210164D01*
X205683582Y-45141418D01*
X205423505Y-44927979D01*
X205126786Y-44769379D01*
X204804826Y-44671714D01*
X204553904Y-44647000D01*
X204386096Y-44647000D01*
X204135174Y-44671714D01*
X203813214Y-44769379D01*
X203516495Y-44927979D01*
X203256418Y-45141418D01*
X203200000Y-45210164D01*
X203143582Y-45141418D01*
X202883505Y-44927979D01*
X202586786Y-44769379D01*
X202264826Y-44671714D01*
X202013904Y-44647000D01*
X201846096Y-44647000D01*
X201595174Y-44671714D01*
X201273214Y-44769379D01*
X200976495Y-44927979D01*
X200716418Y-45141418D01*
X200653552Y-45218021D01*
X200537560Y-45089935D01*
X200268708Y-44890365D01*
X199966088Y-44747080D01*
X199804311Y-44698011D01*
X199540000Y-44869052D01*
X199540000Y-46205000D01*
X199560000Y-46205000D01*
X199560000Y-46505000D01*
X199540000Y-46505000D01*
X199540000Y-47840948D01*
X199804311Y-48011989D01*
X199966088Y-47962920D01*
X200268708Y-47819635D01*
X200537560Y-47620065D01*
X200572001Y-47582033D01*
X200572000Y-50237498D01*
X190856920Y-59952579D01*
X190805104Y-59995103D01*
X190762581Y-60046918D01*
X190635402Y-60201886D01*
X190509303Y-60437802D01*
X190431651Y-60693786D01*
X190405430Y-60960000D01*
X162808000Y-60960000D01*
X162808000Y-58033000D01*
X180383373Y-58033000D01*
X180513098Y-58020223D01*
X180679544Y-57969732D01*
X180832942Y-57887740D01*
X180967396Y-57777396D01*
X181077740Y-57642942D01*
X181159732Y-57489544D01*
X181210223Y-57323098D01*
X181227272Y-57150000D01*
X181210223Y-56976902D01*
X181166419Y-56832500D01*
X181210223Y-56688098D01*
X181223000Y-56558373D01*
X181223000Y-45505000D01*
X182437849Y-45505000D01*
X182437849Y-47205000D01*
X182454415Y-47373197D01*
X182503476Y-47534931D01*
X182583148Y-47683985D01*
X182690367Y-47814633D01*
X182821015Y-47921852D01*
X182970069Y-48001524D01*
X183131803Y-48050585D01*
X183300000Y-48067151D01*
X185000000Y-48067151D01*
X185168197Y-48050585D01*
X185329931Y-48001524D01*
X185478985Y-47921852D01*
X185609633Y-47814633D01*
X185676681Y-47732933D01*
X185736495Y-47782021D01*
X186033214Y-47940621D01*
X186355174Y-48038286D01*
X186606096Y-48063000D01*
X186773904Y-48063000D01*
X187024826Y-48038286D01*
X187346786Y-47940621D01*
X187643505Y-47782021D01*
X187903582Y-47568582D01*
X187960000Y-47499836D01*
X188016418Y-47568582D01*
X188276495Y-47782021D01*
X188573214Y-47940621D01*
X188895174Y-48038286D01*
X189146096Y-48063000D01*
X189313904Y-48063000D01*
X189564826Y-48038286D01*
X189886786Y-47940621D01*
X190183505Y-47782021D01*
X190443582Y-47568582D01*
X190506448Y-47491979D01*
X190622440Y-47620065D01*
X190891292Y-47819635D01*
X191193912Y-47962920D01*
X191355689Y-48011989D01*
X191620000Y-47840948D01*
X191620000Y-46505000D01*
X191600000Y-46505000D01*
X191600000Y-46205000D01*
X191620000Y-46205000D01*
X191620000Y-44869052D01*
X191920000Y-44869052D01*
X191920000Y-46205000D01*
X191940000Y-46205000D01*
X191940000Y-46505000D01*
X191920000Y-46505000D01*
X191920000Y-47840948D01*
X192184311Y-48011989D01*
X192346088Y-47962920D01*
X192648708Y-47819635D01*
X192917560Y-47620065D01*
X192952000Y-47582034D01*
X192952001Y-49303067D01*
X192885009Y-49403327D01*
X192763795Y-49695964D01*
X192702000Y-50006626D01*
X192702000Y-50323374D01*
X192763795Y-50634036D01*
X192885009Y-50926673D01*
X193060985Y-51190040D01*
X193284960Y-51414015D01*
X193548327Y-51589991D01*
X193840964Y-51711205D01*
X194151626Y-51773000D01*
X194468374Y-51773000D01*
X194779036Y-51711205D01*
X195071673Y-51589991D01*
X195335040Y-51414015D01*
X195559015Y-51190040D01*
X195734991Y-50926673D01*
X195856205Y-50634036D01*
X195918000Y-50323374D01*
X195918000Y-50006626D01*
X195856205Y-49695964D01*
X195734991Y-49403327D01*
X195668000Y-49303068D01*
X195668000Y-47594501D01*
X195896495Y-47782021D01*
X196193214Y-47940621D01*
X196515174Y-48038286D01*
X196766096Y-48063000D01*
X196933904Y-48063000D01*
X197184826Y-48038286D01*
X197506786Y-47940621D01*
X197803505Y-47782021D01*
X198063582Y-47568582D01*
X198126448Y-47491979D01*
X198242440Y-47620065D01*
X198511292Y-47819635D01*
X198813912Y-47962920D01*
X198975689Y-48011989D01*
X199240000Y-47840948D01*
X199240000Y-46505000D01*
X199220000Y-46505000D01*
X199220000Y-46205000D01*
X199240000Y-46205000D01*
X199240000Y-44869052D01*
X198975689Y-44698011D01*
X198813912Y-44747080D01*
X198511292Y-44890365D01*
X198242440Y-45089935D01*
X198126448Y-45218021D01*
X198063582Y-45141418D01*
X197803505Y-44927979D01*
X197506786Y-44769379D01*
X197184826Y-44671714D01*
X196933904Y-44647000D01*
X196766096Y-44647000D01*
X196515174Y-44671714D01*
X196193214Y-44769379D01*
X195896495Y-44927979D01*
X195636418Y-45141418D01*
X195580000Y-45210164D01*
X195523582Y-45141418D01*
X195263505Y-44927979D01*
X194966786Y-44769379D01*
X194644826Y-44671714D01*
X194393904Y-44647000D01*
X194226096Y-44647000D01*
X193975174Y-44671714D01*
X193653214Y-44769379D01*
X193356495Y-44927979D01*
X193096418Y-45141418D01*
X193033552Y-45218021D01*
X192917560Y-45089935D01*
X192648708Y-44890365D01*
X192346088Y-44747080D01*
X192184311Y-44698011D01*
X191920000Y-44869052D01*
X191620000Y-44869052D01*
X191355689Y-44698011D01*
X191193912Y-44747080D01*
X190891292Y-44890365D01*
X190622440Y-45089935D01*
X190506448Y-45218021D01*
X190443582Y-45141418D01*
X190183505Y-44927979D01*
X189886786Y-44769379D01*
X189564826Y-44671714D01*
X189313904Y-44647000D01*
X189146096Y-44647000D01*
X188895174Y-44671714D01*
X188573214Y-44769379D01*
X188276495Y-44927979D01*
X188016418Y-45141418D01*
X187960000Y-45210164D01*
X187903582Y-45141418D01*
X187643505Y-44927979D01*
X187346786Y-44769379D01*
X187024826Y-44671714D01*
X186773904Y-44647000D01*
X186606096Y-44647000D01*
X186355174Y-44671714D01*
X186033214Y-44769379D01*
X185736495Y-44927979D01*
X185676681Y-44977067D01*
X185609633Y-44895367D01*
X185478985Y-44788148D01*
X185329931Y-44708476D01*
X185168197Y-44659415D01*
X185000000Y-44642849D01*
X183300000Y-44642849D01*
X183131803Y-44659415D01*
X182970069Y-44708476D01*
X182821015Y-44788148D01*
X182690367Y-44895367D01*
X182583148Y-45026015D01*
X182503476Y-45175069D01*
X182454415Y-45336803D01*
X182437849Y-45505000D01*
X181223000Y-45505000D01*
X181223000Y-41523000D01*
X230257000Y-41523000D01*
X230257001Y-57106616D01*
%TD*%
M02*
