M48
; DRILL file {KiCad 8.0.0} date 2024-03-15T09:59:22+0100
; FORMAT={-:-/ absolute / inch / decimal}
; #@! TF.CreationDate,2024-03-15T09:59:22+01:00
; #@! TF.GenerationSoftware,Kicad,Pcbnew,8.0.0
; #@! TF.FileFunction,Plated,1,2,PTH
FMAT,2
INCH
; #@! TA.AperFunction,Plated,PTH,ViaDrill
T1C0.0315
; #@! TA.AperFunction,Plated,PTH,ComponentDrill
T2C0.0315
; #@! TA.AperFunction,Plated,PTH,ComponentDrill
T3C0.0394
%
G90
G05
T1
X5.1969Y-4.0157
X5.1969Y-4.7087
X5.526Y-4.7102
X6.1024Y-4.1417
X6.1024Y-4.7087
X6.3701Y-4.0157
T2
X5.0724Y-4.5118
X5.4724Y-4.5118
X5.6701Y-4.4102
X5.6701Y-4.5102
X5.6701Y-4.6102
X5.6701Y-4.7102
X5.6701Y-4.8102
X5.6701Y-4.9102
X5.6701Y-5.0102
X5.9701Y-4.4102
X5.9701Y-4.5102
X5.9701Y-4.6102
X5.9701Y-4.7102
X5.9701Y-4.8102
X5.9701Y-4.9102
X5.9701Y-5.0102
X6.1276Y-4.9035
X6.1276Y-5.0394
X6.2142Y-4.4016
X6.2142Y-4.5354
X6.5276Y-4.9035
X6.5276Y-5.0394
X6.6142Y-4.4016
X6.6142Y-4.5354
T3
X4.975Y-3.85
X5.075Y-3.85
X5.175Y-3.85
X5.275Y-3.85
X5.375Y-3.85
X5.475Y-3.85
X5.575Y-3.85
X5.675Y-3.85
X5.775Y-3.85
X5.875Y-3.85
X5.975Y-3.85
X6.075Y-3.85
X6.175Y-3.85
X6.275Y-3.85
X6.375Y-3.85
X6.475Y-3.85
X6.575Y-3.85
X6.675Y-3.85
M30
