M48
; DRILL file {KiCad 9.0.4} date 2026-03-20T10:25:35+0100
; FORMAT={-:-/ absolute / metric / decimal}
; #@! TF.CreationDate,2026-03-20T10:25:35+01:00
; #@! TF.GenerationSoftware,Kicad,Pcbnew,9.0.4
; #@! TF.FileFunction,Plated,1,2,PTH
FMAT,2
METRIC
; #@! TA.AperFunction,Plated,PTH,ComponentDrill
T1C0.800
; #@! TA.AperFunction,Plated,PTH,ComponentDrill
T2C1.000
; #@! TA.AperFunction,Plated,PTH,ComponentDrill
T3C1.100
; #@! TA.AperFunction,Plated,PTH,ComponentDrill
T4C3.200
%
G90
G05
T1
X72.6Y-98.32
X72.6Y-108.48
X76.2Y-98.24
X76.2Y-108.4
X76.5Y-47.75
X79.8Y-98.32
X79.8Y-108.48
X80.0Y-35.0
X80.0Y-37.5
X80.0Y-42.75
X81.5Y-47.75
X82.54Y-42.75
X85.08Y-42.75
X94.75Y-38.25
X94.75Y-45.0
X97.0Y-63.0
X97.25Y-45.0
X99.75Y-38.25
X100.076Y-77.216
X102.0Y-63.0
X102.7Y-71.6
X102.75Y-45.0
X105.076Y-77.216
X105.2Y-71.6
X105.25Y-45.0
T2
X53.34Y-56.115
X53.34Y-58.885
X53.34Y-61.655
X53.34Y-64.425
X53.34Y-67.195
X53.34Y-69.965
X53.34Y-72.735
X53.34Y-75.505
X53.34Y-78.275
X53.34Y-81.045
X53.34Y-83.815
X53.34Y-86.585
X56.18Y-54.73
X56.18Y-57.5
X56.18Y-60.27
X56.18Y-63.04
X56.18Y-65.81
X56.18Y-68.58
X56.18Y-71.35
X56.18Y-74.12
X56.18Y-76.89
X56.18Y-79.66
X56.18Y-82.43
X56.18Y-85.2
X56.18Y-87.97
X73.5Y-37.5
X73.5Y-40.04
X73.5Y-42.58
X78.45Y-74.0
X78.45Y-79.75
X78.45Y-85.25
X80.99Y-74.0
X80.99Y-79.75
X80.99Y-85.25
X83.82Y-57.912
X83.82Y-60.452
X83.82Y-62.992
X88.12Y-92.3
X88.12Y-99.4
X88.12Y-106.0
X89.2Y-71.25
X89.2Y-76.75
X89.2Y-82.5
X90.5Y-48.75
X90.5Y-51.29
X90.5Y-53.83
X90.66Y-92.3
X90.66Y-99.4
X90.66Y-106.0
X91.74Y-71.25
X91.74Y-76.75
X91.74Y-82.5
X93.2Y-92.3
X93.2Y-99.4
X93.2Y-106.0
X111.0Y-54.0
X111.25Y-69.25
X113.54Y-54.0
X113.79Y-69.25
T3
X96.92Y-54.0
X99.46Y-54.0
X102.0Y-54.0
T4
X53.34Y-47.8
X53.34Y-94.9
M30
