%TF.GenerationSoftware,KiCad,Pcbnew,9.0.4*%
%TF.CreationDate,2026-04-19T18:43:12+02:00*%
%TF.ProjectId,main_board,6d61696e-5f62-46f6-9172-642e6b696361,rev?*%
%TF.SameCoordinates,Original*%
%TF.FileFunction,Copper,L2,Bot*%
%TF.FilePolarity,Positive*%
%FSLAX46Y46*%
G04 Gerber Fmt 4.6, Leading zero omitted, Abs format (unit mm)*
G04 Created by KiCad (PCBNEW 9.0.4) date 2026-04-19 18:43:12*
%MOMM*%
%LPD*%
G01*
G04 APERTURE LIST*
G04 Aperture macros list*
%AMRoundRect*
0 Rectangle with rounded corners*
0 $1 Rounding radius*
0 $2 $3 $4 $5 $6 $7 $8 $9 X,Y pos of 4 corners*
0 Add a 4 corners polygon primitive as box body*
4,1,4,$2,$3,$4,$5,$6,$7,$8,$9,$2,$3,0*
0 Add four circle primitives for the rounded corners*
1,1,$1+$1,$2,$3*
1,1,$1+$1,$4,$5*
1,1,$1+$1,$6,$7*
1,1,$1+$1,$8,$9*
0 Add four rect primitives between the rounded corners*
20,1,$1+$1,$2,$3,$4,$5,0*
20,1,$1+$1,$4,$5,$6,$7,0*
20,1,$1+$1,$6,$7,$8,$9,0*
20,1,$1+$1,$8,$9,$2,$3,0*%
G04 Aperture macros list end*
%ADD10C,0.300000*%
%TA.AperFunction,NonConductor*%
%ADD11C,0.300000*%
%TD*%
%TA.AperFunction,ComponentPad*%
%ADD12C,1.600000*%
%TD*%
%TA.AperFunction,ComponentPad*%
%ADD13R,1.700000X1.700000*%
%TD*%
%TA.AperFunction,ComponentPad*%
%ADD14C,1.700000*%
%TD*%
%TA.AperFunction,ComponentPad*%
%ADD15RoundRect,0.250000X-0.550000X-0.550000X0.550000X-0.550000X0.550000X0.550000X-0.550000X0.550000X0*%
%TD*%
%TA.AperFunction,ComponentPad*%
%ADD16C,4.000000*%
%TD*%
%TA.AperFunction,ComponentPad*%
%ADD17R,1.600000X1.600000*%
%TD*%
%TA.AperFunction,ComponentPad*%
%ADD18RoundRect,0.250000X0.550000X-0.550000X0.550000X0.550000X-0.550000X0.550000X-0.550000X-0.550000X0*%
%TD*%
%TA.AperFunction,ComponentPad*%
%ADD19R,1.905000X2.000000*%
%TD*%
%TA.AperFunction,ComponentPad*%
%ADD20O,1.905000X2.000000*%
%TD*%
%TA.AperFunction,ComponentPad*%
%ADD21RoundRect,0.250000X-0.950000X-0.550000X0.950000X-0.550000X0.950000X0.550000X-0.950000X0.550000X0*%
%TD*%
%TA.AperFunction,ComponentPad*%
%ADD22O,2.400000X1.600000*%
%TD*%
%TA.AperFunction,ComponentPad*%
%ADD23R,1.500000X1.500000*%
%TD*%
%TA.AperFunction,ComponentPad*%
%ADD24C,1.500000*%
%TD*%
%TA.AperFunction,ViaPad*%
%ADD25C,1.500000*%
%TD*%
%TA.AperFunction,Conductor*%
%ADD26C,1.500000*%
%TD*%
%TA.AperFunction,Conductor*%
%ADD27C,0.800000*%
%TD*%
G04 APERTURE END LIST*
D10*
D11*
X102400129Y-106409285D02*
X102400129Y-107123571D01*
X102400129Y-107123571D02*
X103900129Y-107123571D01*
X103185843Y-105909285D02*
X103185843Y-105409285D01*
X102400129Y-105194999D02*
X102400129Y-105909285D01*
X102400129Y-105909285D02*
X103900129Y-105909285D01*
X103900129Y-105909285D02*
X103900129Y-105194999D01*
X103400129Y-104552142D02*
X102400129Y-104552142D01*
X103257272Y-104552142D02*
X103328700Y-104480713D01*
X103328700Y-104480713D02*
X103400129Y-104337856D01*
X103400129Y-104337856D02*
X103400129Y-104123570D01*
X103400129Y-104123570D02*
X103328700Y-103980713D01*
X103328700Y-103980713D02*
X103185843Y-103909285D01*
X103185843Y-103909285D02*
X102400129Y-103909285D01*
X102471558Y-103266427D02*
X102400129Y-103123570D01*
X102400129Y-103123570D02*
X102400129Y-102837856D01*
X102400129Y-102837856D02*
X102471558Y-102694999D01*
X102471558Y-102694999D02*
X102614415Y-102623570D01*
X102614415Y-102623570D02*
X102685843Y-102623570D01*
X102685843Y-102623570D02*
X102828700Y-102694999D01*
X102828700Y-102694999D02*
X102900129Y-102837856D01*
X102900129Y-102837856D02*
X102900129Y-103052142D01*
X102900129Y-103052142D02*
X102971558Y-103194999D01*
X102971558Y-103194999D02*
X103114415Y-103266427D01*
X103114415Y-103266427D02*
X103185843Y-103266427D01*
X103185843Y-103266427D02*
X103328700Y-103194999D01*
X103328700Y-103194999D02*
X103400129Y-103052142D01*
X103400129Y-103052142D02*
X103400129Y-102837856D01*
X103400129Y-102837856D02*
X103328700Y-102694999D01*
X103185843Y-101980713D02*
X103185843Y-101480713D01*
X102400129Y-101266427D02*
X102400129Y-101980713D01*
X102400129Y-101980713D02*
X103900129Y-101980713D01*
X103900129Y-101980713D02*
X103900129Y-101266427D01*
X103971558Y-98409284D02*
X102042986Y-99694998D01*
X103757272Y-96837855D02*
X103828700Y-96766427D01*
X103828700Y-96766427D02*
X103900129Y-96623570D01*
X103900129Y-96623570D02*
X103900129Y-96266427D01*
X103900129Y-96266427D02*
X103828700Y-96123570D01*
X103828700Y-96123570D02*
X103757272Y-96052141D01*
X103757272Y-96052141D02*
X103614415Y-95980712D01*
X103614415Y-95980712D02*
X103471558Y-95980712D01*
X103471558Y-95980712D02*
X103257272Y-96052141D01*
X103257272Y-96052141D02*
X102400129Y-96909284D01*
X102400129Y-96909284D02*
X102400129Y-95980712D01*
X103900129Y-95052141D02*
X103900129Y-94909284D01*
X103900129Y-94909284D02*
X103828700Y-94766427D01*
X103828700Y-94766427D02*
X103757272Y-94694999D01*
X103757272Y-94694999D02*
X103614415Y-94623570D01*
X103614415Y-94623570D02*
X103328700Y-94552141D01*
X103328700Y-94552141D02*
X102971558Y-94552141D01*
X102971558Y-94552141D02*
X102685843Y-94623570D01*
X102685843Y-94623570D02*
X102542986Y-94694999D01*
X102542986Y-94694999D02*
X102471558Y-94766427D01*
X102471558Y-94766427D02*
X102400129Y-94909284D01*
X102400129Y-94909284D02*
X102400129Y-95052141D01*
X102400129Y-95052141D02*
X102471558Y-95194999D01*
X102471558Y-95194999D02*
X102542986Y-95266427D01*
X102542986Y-95266427D02*
X102685843Y-95337856D01*
X102685843Y-95337856D02*
X102971558Y-95409284D01*
X102971558Y-95409284D02*
X103328700Y-95409284D01*
X103328700Y-95409284D02*
X103614415Y-95337856D01*
X103614415Y-95337856D02*
X103757272Y-95266427D01*
X103757272Y-95266427D02*
X103828700Y-95194999D01*
X103828700Y-95194999D02*
X103900129Y-95052141D01*
X103757272Y-93980713D02*
X103828700Y-93909285D01*
X103828700Y-93909285D02*
X103900129Y-93766428D01*
X103900129Y-93766428D02*
X103900129Y-93409285D01*
X103900129Y-93409285D02*
X103828700Y-93266428D01*
X103828700Y-93266428D02*
X103757272Y-93194999D01*
X103757272Y-93194999D02*
X103614415Y-93123570D01*
X103614415Y-93123570D02*
X103471558Y-93123570D01*
X103471558Y-93123570D02*
X103257272Y-93194999D01*
X103257272Y-93194999D02*
X102400129Y-94052142D01*
X102400129Y-94052142D02*
X102400129Y-93123570D01*
X103900129Y-91837857D02*
X103900129Y-92123571D01*
X103900129Y-92123571D02*
X103828700Y-92266428D01*
X103828700Y-92266428D02*
X103757272Y-92337857D01*
X103757272Y-92337857D02*
X103542986Y-92480714D01*
X103542986Y-92480714D02*
X103257272Y-92552142D01*
X103257272Y-92552142D02*
X102685843Y-92552142D01*
X102685843Y-92552142D02*
X102542986Y-92480714D01*
X102542986Y-92480714D02*
X102471558Y-92409285D01*
X102471558Y-92409285D02*
X102400129Y-92266428D01*
X102400129Y-92266428D02*
X102400129Y-91980714D01*
X102400129Y-91980714D02*
X102471558Y-91837857D01*
X102471558Y-91837857D02*
X102542986Y-91766428D01*
X102542986Y-91766428D02*
X102685843Y-91694999D01*
X102685843Y-91694999D02*
X103042986Y-91694999D01*
X103042986Y-91694999D02*
X103185843Y-91766428D01*
X103185843Y-91766428D02*
X103257272Y-91837857D01*
X103257272Y-91837857D02*
X103328700Y-91980714D01*
X103328700Y-91980714D02*
X103328700Y-92266428D01*
X103328700Y-92266428D02*
X103257272Y-92409285D01*
X103257272Y-92409285D02*
X103185843Y-92480714D01*
X103185843Y-92480714D02*
X103042986Y-92552142D01*
X101485213Y-109837857D02*
X101485213Y-109552143D01*
X101485213Y-109552143D02*
X101413784Y-109409286D01*
X101413784Y-109409286D02*
X101270927Y-109266429D01*
X101270927Y-109266429D02*
X100985213Y-109195000D01*
X100985213Y-109195000D02*
X100485213Y-109195000D01*
X100485213Y-109195000D02*
X100199499Y-109266429D01*
X100199499Y-109266429D02*
X100056642Y-109409286D01*
X100056642Y-109409286D02*
X99985213Y-109552143D01*
X99985213Y-109552143D02*
X99985213Y-109837857D01*
X99985213Y-109837857D02*
X100056642Y-109980715D01*
X100056642Y-109980715D02*
X100199499Y-110123572D01*
X100199499Y-110123572D02*
X100485213Y-110195000D01*
X100485213Y-110195000D02*
X100985213Y-110195000D01*
X100985213Y-110195000D02*
X101270927Y-110123572D01*
X101270927Y-110123572D02*
X101413784Y-109980715D01*
X101413784Y-109980715D02*
X101485213Y-109837857D01*
X99985213Y-108552143D02*
X101485213Y-108552143D01*
X101485213Y-108552143D02*
X101485213Y-107980714D01*
X101485213Y-107980714D02*
X101413784Y-107837857D01*
X101413784Y-107837857D02*
X101342356Y-107766428D01*
X101342356Y-107766428D02*
X101199499Y-107695000D01*
X101199499Y-107695000D02*
X100985213Y-107695000D01*
X100985213Y-107695000D02*
X100842356Y-107766428D01*
X100842356Y-107766428D02*
X100770927Y-107837857D01*
X100770927Y-107837857D02*
X100699499Y-107980714D01*
X100699499Y-107980714D02*
X100699499Y-108552143D01*
X101485213Y-107266428D02*
X101485213Y-106409286D01*
X99985213Y-106837857D02*
X101485213Y-106837857D01*
X101485213Y-105623571D02*
X101485213Y-105337857D01*
X101485213Y-105337857D02*
X101413784Y-105195000D01*
X101413784Y-105195000D02*
X101270927Y-105052143D01*
X101270927Y-105052143D02*
X100985213Y-104980714D01*
X100985213Y-104980714D02*
X100485213Y-104980714D01*
X100485213Y-104980714D02*
X100199499Y-105052143D01*
X100199499Y-105052143D02*
X100056642Y-105195000D01*
X100056642Y-105195000D02*
X99985213Y-105337857D01*
X99985213Y-105337857D02*
X99985213Y-105623571D01*
X99985213Y-105623571D02*
X100056642Y-105766429D01*
X100056642Y-105766429D02*
X100199499Y-105909286D01*
X100199499Y-105909286D02*
X100485213Y-105980714D01*
X100485213Y-105980714D02*
X100985213Y-105980714D01*
X100985213Y-105980714D02*
X101270927Y-105909286D01*
X101270927Y-105909286D02*
X101413784Y-105766429D01*
X101413784Y-105766429D02*
X101485213Y-105623571D01*
X100556642Y-104337857D02*
X100556642Y-103195000D01*
X100770927Y-102480714D02*
X100770927Y-101980714D01*
X99985213Y-101766428D02*
X99985213Y-102480714D01*
X99985213Y-102480714D02*
X101485213Y-102480714D01*
X101485213Y-102480714D02*
X101485213Y-101766428D01*
X99985213Y-100409285D02*
X99985213Y-101123571D01*
X99985213Y-101123571D02*
X101485213Y-101123571D01*
X100770927Y-99909285D02*
X100770927Y-99409285D01*
X99985213Y-99194999D02*
X99985213Y-99909285D01*
X99985213Y-99909285D02*
X101485213Y-99909285D01*
X101485213Y-99909285D02*
X101485213Y-99194999D01*
X100128070Y-97694999D02*
X100056642Y-97766427D01*
X100056642Y-97766427D02*
X99985213Y-97980713D01*
X99985213Y-97980713D02*
X99985213Y-98123570D01*
X99985213Y-98123570D02*
X100056642Y-98337856D01*
X100056642Y-98337856D02*
X100199499Y-98480713D01*
X100199499Y-98480713D02*
X100342356Y-98552142D01*
X100342356Y-98552142D02*
X100628070Y-98623570D01*
X100628070Y-98623570D02*
X100842356Y-98623570D01*
X100842356Y-98623570D02*
X101128070Y-98552142D01*
X101128070Y-98552142D02*
X101270927Y-98480713D01*
X101270927Y-98480713D02*
X101413784Y-98337856D01*
X101413784Y-98337856D02*
X101485213Y-98123570D01*
X101485213Y-98123570D02*
X101485213Y-97980713D01*
X101485213Y-97980713D02*
X101413784Y-97766427D01*
X101413784Y-97766427D02*
X101342356Y-97694999D01*
X101556642Y-94837856D02*
X99628070Y-96123570D01*
X99985213Y-93194999D02*
X101485213Y-93194999D01*
X101485213Y-93194999D02*
X100413784Y-92694999D01*
X100413784Y-92694999D02*
X101485213Y-92194999D01*
X101485213Y-92194999D02*
X99985213Y-92194999D01*
X99985213Y-90837856D02*
X100770927Y-90837856D01*
X100770927Y-90837856D02*
X100913784Y-90909284D01*
X100913784Y-90909284D02*
X100985213Y-91052141D01*
X100985213Y-91052141D02*
X100985213Y-91337856D01*
X100985213Y-91337856D02*
X100913784Y-91480713D01*
X100056642Y-90837856D02*
X99985213Y-90980713D01*
X99985213Y-90980713D02*
X99985213Y-91337856D01*
X99985213Y-91337856D02*
X100056642Y-91480713D01*
X100056642Y-91480713D02*
X100199499Y-91552141D01*
X100199499Y-91552141D02*
X100342356Y-91552141D01*
X100342356Y-91552141D02*
X100485213Y-91480713D01*
X100485213Y-91480713D02*
X100556642Y-91337856D01*
X100556642Y-91337856D02*
X100556642Y-90980713D01*
X100556642Y-90980713D02*
X100628070Y-90837856D01*
X99985213Y-90123570D02*
X100985213Y-90123570D01*
X101485213Y-90123570D02*
X101413784Y-90194998D01*
X101413784Y-90194998D02*
X101342356Y-90123570D01*
X101342356Y-90123570D02*
X101413784Y-90052141D01*
X101413784Y-90052141D02*
X101485213Y-90123570D01*
X101485213Y-90123570D02*
X101342356Y-90123570D01*
X100985213Y-89409284D02*
X99985213Y-89409284D01*
X100842356Y-89409284D02*
X100913784Y-89337855D01*
X100913784Y-89337855D02*
X100985213Y-89194998D01*
X100985213Y-89194998D02*
X100985213Y-88980712D01*
X100985213Y-88980712D02*
X100913784Y-88837855D01*
X100913784Y-88837855D02*
X100770927Y-88766427D01*
X100770927Y-88766427D02*
X99985213Y-88766427D01*
D12*
%TO.P,C1,1*%
%TO.N,+15V*%
X103650000Y-63000000D03*
%TO.P,C1,2*%
%TO.N,GND*%
X108650000Y-63000000D03*
%TD*%
D13*
%TO.P,J6,1,In*%
%TO.N,OUT4*%
X84410000Y-71250000D03*
D14*
%TO.P,J6,2,Ext*%
%TO.N,GND*%
X86950000Y-71250000D03*
%TD*%
D13*
%TO.P,J7,1,Pin_1*%
%TO.N,GND*%
X107950000Y-71374000D03*
D14*
%TO.P,J7,2,Pin_2*%
%TO.N,+15V*%
X105410000Y-71374000D03*
%TD*%
D15*
%TO.P,C3,1*%
%TO.N,+15V*%
X106974000Y-48260000D03*
D12*
%TO.P,C3,2*%
%TO.N,GND*%
X109474000Y-48260000D03*
%TD*%
D13*
%TO.P,J3,1,In*%
%TO.N,OUT1*%
X73660000Y-79750000D03*
D14*
%TO.P,J3,2,Ext*%
%TO.N,GND*%
X76200000Y-79750000D03*
%TD*%
D13*
%TO.P,J8,1,Pin_1*%
%TO.N,GND*%
X107950000Y-78486000D03*
D14*
%TO.P,J8,2,Pin_2*%
%TO.N,-15V*%
X105410000Y-78486000D03*
%TD*%
D12*
%TO.P,C7,1*%
%TO.N,5V*%
X94996000Y-31790000D03*
%TO.P,C7,2*%
%TO.N,GND*%
X94996000Y-36790000D03*
%TD*%
%TO.P,R3,1*%
%TO.N,SEL3*%
X72600000Y-98320000D03*
%TO.P,R3,2*%
%TO.N,GND*%
X72600000Y-108480000D03*
%TD*%
D13*
%TO.P,J9,1,Pin_1*%
%TO.N,GND*%
X88120000Y-92300000D03*
D14*
%TO.P,J9,2,Pin_2*%
%TO.N,SEL1*%
X90660000Y-92300000D03*
%TO.P,J9,3,Pin_3*%
%TO.N,3.3V*%
X93200000Y-92300000D03*
%TD*%
D13*
%TO.P,J1,1,In*%
%TO.N,IN1*%
X84410000Y-82500000D03*
D14*
%TO.P,J1,2,Ext*%
%TO.N,GND*%
X86950000Y-82500000D03*
%TD*%
D12*
%TO.P,C2,1*%
%TO.N,GND*%
X99314000Y-83486000D03*
%TO.P,C2,2*%
%TO.N,-15V*%
X99314000Y-78486000D03*
%TD*%
D13*
%TO.P,J2,1,In*%
%TO.N,IN2*%
X73660000Y-85250000D03*
D14*
%TO.P,J2,2,Ext*%
%TO.N,GND*%
X76200000Y-85250000D03*
%TD*%
D15*
%TO.P,C4,1*%
%TO.N,5V*%
X100076000Y-31750000D03*
D12*
%TO.P,C4,2*%
%TO.N,GND*%
X102576000Y-31750000D03*
%TD*%
D13*
%TO.P,RV1,1,1*%
%TO.N,5V*%
X96850000Y-48750000D03*
D14*
%TO.P,RV1,2,2*%
%TO.N,Net-(U3B-+)*%
X96850000Y-51290000D03*
%TO.P,RV1,3,3*%
%TO.N,GND*%
X96850000Y-53830000D03*
%TD*%
D16*
%TO.P,J13,0,PAD*%
%TO.N,GND*%
X48260000Y-47800000D03*
X48260000Y-94900000D03*
D17*
%TO.P,J13,1,1*%
%TO.N,SEL1*%
X51100000Y-87970000D03*
D12*
%TO.P,J13,2,2*%
%TO.N,IN2*%
X51100000Y-85200000D03*
%TO.P,J13,3,3*%
%TO.N,IN1*%
X51100000Y-82430000D03*
%TO.P,J13,4,4*%
%TO.N,OUT1*%
X51100000Y-79660000D03*
%TO.P,J13,5,5*%
%TO.N,OUT2*%
X51100000Y-76890000D03*
%TO.P,J13,6,6*%
%TO.N,OUT3*%
X51100000Y-74120000D03*
%TO.P,J13,7,7*%
%TO.N,OUT4*%
X51100000Y-71350000D03*
%TO.P,J13,8,8*%
%TO.N,-15V*%
X51100000Y-68580000D03*
%TO.P,J13,9,9*%
%TO.N,GND*%
X51100000Y-65810000D03*
%TO.P,J13,10,10*%
%TO.N,+15V*%
X51100000Y-63040000D03*
%TO.P,J13,11,11*%
%TO.N,RVAR_15V*%
X51100000Y-60270000D03*
%TO.P,J13,12,12*%
%TO.N,RVAR_5V*%
X51100000Y-57500000D03*
%TO.P,J13,13,13*%
%TO.N,5V*%
X51100000Y-54730000D03*
%TO.P,J13,14,P14*%
%TO.N,SEL2*%
X48260000Y-86585000D03*
%TO.P,J13,15,P15*%
%TO.N,SEL3*%
X48260000Y-83815000D03*
%TO.P,J13,16,P16*%
%TO.N,GND*%
X48260000Y-81045000D03*
%TO.P,J13,17,P17*%
X48260000Y-78275000D03*
%TO.P,J13,18,P18*%
X48260000Y-75505000D03*
%TO.P,J13,19,P19*%
X48260000Y-72735000D03*
%TO.P,J13,20,P20*%
X48260000Y-69965000D03*
%TO.P,J13,21,P21*%
X48260000Y-67195000D03*
%TO.P,J13,22,P22*%
X48260000Y-64425000D03*
%TO.P,J13,23,P23*%
X48260000Y-61655000D03*
%TO.P,J13,24,P24*%
%TO.N,RVAR_3.3V*%
X48260000Y-58885000D03*
%TO.P,J13,25,P25*%
%TO.N,3.3V*%
X48260000Y-56115000D03*
%TD*%
D15*
%TO.P,C5,1*%
%TO.N,GND*%
X96774000Y-71374000D03*
D12*
%TO.P,C5,2*%
%TO.N,-15V*%
X99274000Y-71374000D03*
%TD*%
D13*
%TO.P,J4,1,In*%
%TO.N,OUT2*%
X84410000Y-76750000D03*
D14*
%TO.P,J4,2,Ext*%
%TO.N,GND*%
X86950000Y-76750000D03*
%TD*%
D13*
%TO.P,RV2,1,1*%
%TO.N,3.3V*%
X79850000Y-37500000D03*
D14*
%TO.P,RV2,2,2*%
%TO.N,Net-(U3A-+)*%
X79850000Y-40040000D03*
%TO.P,RV2,3,3*%
%TO.N,GND*%
X79850000Y-42580000D03*
%TD*%
D13*
%TO.P,J12,1,Pin_1*%
%TO.N,GND*%
X88120000Y-106000000D03*
D14*
%TO.P,J12,2,Pin_2*%
%TO.N,SEL3*%
X90660000Y-106000000D03*
%TO.P,J12,3,Pin_3*%
%TO.N,3.3V*%
X93200000Y-106000000D03*
%TD*%
D18*
%TO.P,C6,1*%
%TO.N,3.3V*%
X86350000Y-37500000D03*
D12*
%TO.P,C6,2*%
%TO.N,GND*%
X86350000Y-35000000D03*
%TD*%
D19*
%TO.P,U1,1,IN*%
%TO.N,+15V*%
X108650000Y-54000000D03*
D20*
%TO.P,U1,2,GND*%
%TO.N,GND*%
X106110000Y-54000000D03*
%TO.P,U1,3,OUT*%
%TO.N,5V*%
X103570000Y-54000000D03*
%TD*%
D13*
%TO.P,RV3,1,1*%
%TO.N,+15V*%
X90170000Y-62992000D03*
D14*
%TO.P,RV3,2,2*%
%TO.N,Net-(U3C-+)*%
X90170000Y-60452000D03*
%TO.P,RV3,3,3*%
%TO.N,GND*%
X90170000Y-57912000D03*
%TD*%
D21*
%TO.P,U3,1*%
%TO.N,RVAR_3.3V*%
X66040000Y-41910000D03*
D22*
%TO.P,U3,2,-*%
X66040000Y-44450000D03*
%TO.P,U3,3,+*%
%TO.N,Net-(U3A-+)*%
X66040000Y-46990000D03*
%TO.P,U3,4,V+*%
%TO.N,+15V*%
X66040000Y-49530000D03*
%TO.P,U3,5,+*%
%TO.N,Net-(U3B-+)*%
X66040000Y-52070000D03*
%TO.P,U3,6,-*%
%TO.N,RVAR_5V*%
X66040000Y-54610000D03*
%TO.P,U3,7*%
X66040000Y-57150000D03*
%TO.P,U3,8*%
%TO.N,RVAR_15V*%
X73660000Y-57150000D03*
%TO.P,U3,9,-*%
X73660000Y-54610000D03*
%TO.P,U3,10,+*%
%TO.N,Net-(U3C-+)*%
X73660000Y-52070000D03*
%TO.P,U3,11,V-*%
%TO.N,-15V*%
X73660000Y-49530000D03*
%TO.P,U3,12*%
%TO.N,N/C*%
X73660000Y-46990000D03*
%TO.P,U3,13*%
X73660000Y-44450000D03*
%TO.P,U3,14*%
X73660000Y-41910000D03*
%TD*%
D12*
%TO.P,R2,1*%
%TO.N,SEL2*%
X76200000Y-98240000D03*
%TO.P,R2,2*%
%TO.N,GND*%
X76200000Y-108400000D03*
%TD*%
D13*
%TO.P,J11,1,Pin_1*%
%TO.N,GND*%
X88120000Y-99400000D03*
D14*
%TO.P,J11,2,Pin_2*%
%TO.N,SEL2*%
X90660000Y-99400000D03*
%TO.P,J11,3,Pin_3*%
%TO.N,3.3V*%
X93200000Y-99400000D03*
%TD*%
D13*
%TO.P,J5,1,In*%
%TO.N,OUT3*%
X73660000Y-74000000D03*
D14*
%TO.P,J5,2,Ext*%
%TO.N,GND*%
X76200000Y-74000000D03*
%TD*%
D12*
%TO.P,R1,1*%
%TO.N,SEL1*%
X79800000Y-98320000D03*
%TO.P,R1,2*%
%TO.N,GND*%
X79800000Y-108480000D03*
%TD*%
%TO.P,C8,1*%
%TO.N,3.3V*%
X82850000Y-47750000D03*
%TO.P,C8,2*%
%TO.N,GND*%
X87850000Y-47750000D03*
%TD*%
D23*
%TO.P,U2,1,VO*%
%TO.N,3.3V*%
X86350000Y-42750000D03*
D24*
%TO.P,U2,2,GND*%
%TO.N,GND*%
X88890000Y-42750000D03*
%TO.P,U2,3,VI*%
%TO.N,+15V*%
X91430000Y-42750000D03*
%TD*%
D25*
%TO.N,+15V*%
X62738000Y-63000000D03*
%TO.N,5V*%
X58928000Y-54610000D03*
%TO.N,3.3V*%
X58166000Y-40386000D03*
X82804000Y-57150000D03*
X55372000Y-51562000D03*
%TO.N,-15V*%
X77978000Y-67310000D03*
%TD*%
D26*
%TO.N,+15V*%
X108650000Y-54000000D02*
X108650000Y-52262000D01*
X106934000Y-50546000D02*
X106934000Y-48300000D01*
X106934000Y-48300000D02*
X106974000Y-48260000D01*
X108650000Y-54000000D02*
X108650000Y-58000000D01*
X93726000Y-63000000D02*
X51140000Y-63000000D01*
X93726000Y-56388000D02*
X93726000Y-63000000D01*
X105410000Y-64760000D02*
X103650000Y-63000000D01*
X105410000Y-71374000D02*
X105410000Y-64760000D01*
X103650000Y-63000000D02*
X93726000Y-63000000D01*
X91430000Y-54092000D02*
X93726000Y-56388000D01*
X108650000Y-58000000D02*
X103650000Y-63000000D01*
X51140000Y-63000000D02*
X51100000Y-63040000D01*
X91430000Y-42750000D02*
X91430000Y-54092000D01*
X108650000Y-52262000D02*
X106934000Y-50546000D01*
%TO.N,GND*%
X96850000Y-53830000D02*
X96850000Y-54000000D01*
%TO.N,5V*%
X51220000Y-54610000D02*
X51100000Y-54730000D01*
X100076000Y-48750000D02*
X100076000Y-31830000D01*
X103378000Y-53808000D02*
X103570000Y-54000000D01*
X100076000Y-48750000D02*
X101400000Y-50074000D01*
X101400000Y-50092000D02*
X103378000Y-52070000D01*
X101400000Y-50074000D02*
X101400000Y-50092000D01*
X100116000Y-31790000D02*
X94996000Y-31790000D01*
X58928000Y-54610000D02*
X51220000Y-54610000D01*
X100076000Y-31830000D02*
X100116000Y-31790000D01*
X96850000Y-48750000D02*
X100076000Y-48750000D01*
X103378000Y-52070000D02*
X103378000Y-53808000D01*
D27*
%TO.N,3.3V*%
X93200000Y-99400000D02*
X93200000Y-106000000D01*
X79850000Y-37500000D02*
X61052000Y-37500000D01*
X93200000Y-92300000D02*
X93200000Y-99400000D01*
X86350000Y-37500000D02*
X79850000Y-37500000D01*
X48260000Y-53340000D02*
X48260000Y-56115000D01*
X82850000Y-57104000D02*
X82850000Y-47750000D01*
X82804000Y-57150000D02*
X82850000Y-57104000D01*
X86350000Y-37500000D02*
X86350000Y-42750000D01*
X61052000Y-37500000D02*
X58166000Y-40386000D01*
X50038000Y-51562000D02*
X48260000Y-53340000D01*
X55372000Y-51562000D02*
X50038000Y-51562000D01*
%TO.N,IN1*%
X84340000Y-82430000D02*
X51100000Y-82430000D01*
X84320000Y-82410000D02*
X84410000Y-82500000D01*
X84410000Y-82500000D02*
X84340000Y-82430000D01*
%TO.N,IN2*%
X73660000Y-85250000D02*
X73610000Y-85200000D01*
X73610000Y-85200000D02*
X51100000Y-85200000D01*
X73590000Y-85180000D02*
X73660000Y-85250000D01*
%TO.N,OUT1*%
X73660000Y-79750000D02*
X73570000Y-79660000D01*
X73570000Y-79660000D02*
X51100000Y-79660000D01*
%TO.N,OUT2*%
X84270000Y-76890000D02*
X51100000Y-76890000D01*
X84410000Y-76750000D02*
X84270000Y-76890000D01*
%TO.N,OUT3*%
X73660000Y-74000000D02*
X73540000Y-74120000D01*
X73540000Y-74120000D02*
X51100000Y-74120000D01*
%TO.N,OUT4*%
X84310000Y-71350000D02*
X51100000Y-71350000D01*
X84410000Y-71250000D02*
X84310000Y-71350000D01*
D26*
%TO.N,-15V*%
X97680000Y-67200000D02*
X70180000Y-67200000D01*
X99314000Y-68834000D02*
X97680000Y-67200000D01*
X99314000Y-78486000D02*
X99314000Y-68834000D01*
X68800000Y-68580000D02*
X51100000Y-68580000D01*
X70180000Y-67200000D02*
X68800000Y-68580000D01*
X99314000Y-78486000D02*
X105410000Y-78486000D01*
D27*
%TO.N,SEL1*%
X72270000Y-87970000D02*
X51100000Y-87970000D01*
X79800000Y-95500000D02*
X72270000Y-87970000D01*
X79800000Y-98320000D02*
X79800000Y-95500000D01*
%TO.N,SEL2*%
X71500000Y-90700000D02*
X54378000Y-90700000D01*
X49276000Y-90678000D02*
X48260000Y-89662000D01*
X54378000Y-90700000D02*
X54356000Y-90678000D01*
X76200000Y-98240000D02*
X76200000Y-95400000D01*
X76200000Y-95400000D02*
X71500000Y-90700000D01*
X54356000Y-90678000D02*
X49276000Y-90678000D01*
X48260000Y-89662000D02*
X48260000Y-86585000D01*
%TO.N,SEL3*%
X59440000Y-99060000D02*
X46482000Y-99060000D01*
X44704000Y-84836000D02*
X45720000Y-83820000D01*
X46223000Y-83815000D02*
X48260000Y-83815000D01*
X45720000Y-83820000D02*
X46218000Y-83820000D01*
X60200000Y-98300000D02*
X59440000Y-99060000D01*
X44704000Y-97282000D02*
X44704000Y-84836000D01*
X72600000Y-98320000D02*
X72580000Y-98300000D01*
X46482000Y-99060000D02*
X44704000Y-97282000D01*
X46218000Y-83820000D02*
X46223000Y-83815000D01*
X72580000Y-98300000D02*
X60200000Y-98300000D01*
%TO.N,RVAR_5V*%
X66040000Y-57150000D02*
X65690000Y-57500000D01*
X65690000Y-57500000D02*
X51100000Y-57500000D01*
X66040000Y-54610000D02*
X66040000Y-57150000D01*
%TO.N,RVAR_3.3V*%
X44958000Y-44196000D02*
X44958000Y-57658000D01*
X44958000Y-57658000D02*
X46185000Y-58885000D01*
X64770000Y-43180000D02*
X66040000Y-41910000D01*
X64770000Y-43180000D02*
X45974000Y-43180000D01*
X64770000Y-43180000D02*
X66040000Y-44450000D01*
X45974000Y-43180000D02*
X44958000Y-44196000D01*
X46185000Y-58885000D02*
X48260000Y-58885000D01*
%TO.N,RVAR_15V*%
X73660000Y-59182000D02*
X72572000Y-60270000D01*
X73660000Y-57150000D02*
X73660000Y-59182000D01*
X72572000Y-60270000D02*
X51100000Y-60270000D01*
X73660000Y-57150000D02*
X73660000Y-54610000D01*
%TO.N,Net-(U3C-+)*%
X76454000Y-53086000D02*
X75438000Y-52070000D01*
X76454000Y-58674000D02*
X76454000Y-53086000D01*
X78232000Y-60452000D02*
X76454000Y-58674000D01*
X89988000Y-60270000D02*
X90170000Y-60452000D01*
X75438000Y-52070000D02*
X73660000Y-52070000D01*
X90170000Y-60452000D02*
X78232000Y-60452000D01*
%TO.N,Net-(U3A-+)*%
X71120000Y-39370000D02*
X76454000Y-39370000D01*
X79810000Y-40000000D02*
X79850000Y-40040000D01*
X76454000Y-39370000D02*
X77124000Y-40040000D01*
X69850000Y-45720000D02*
X69850000Y-40640000D01*
X77124000Y-40040000D02*
X79850000Y-40040000D01*
X69850000Y-40640000D02*
X71120000Y-39370000D01*
X68580000Y-46990000D02*
X69850000Y-45720000D01*
X66040000Y-46990000D02*
X68580000Y-46990000D01*
%TD*%
%TA.AperFunction,Conductor*%
%TO.N,GND*%
G36*
X85127776Y-38428185D02*
G01*
X85166273Y-38467400D01*
X85200970Y-38523652D01*
X85326348Y-38649030D01*
X85382598Y-38683725D01*
X85429321Y-38735672D01*
X85441500Y-38789263D01*
X85441500Y-41430304D01*
X85421815Y-41497343D01*
X85369011Y-41543098D01*
X85360842Y-41546482D01*
X85358041Y-41547527D01*
X85353795Y-41549111D01*
X85236739Y-41636739D01*
X85149111Y-41753795D01*
X85098011Y-41890795D01*
X85098011Y-41890797D01*
X85091500Y-41951345D01*
X85091500Y-43548654D01*
X85098011Y-43609202D01*
X85098011Y-43609204D01*
X85144791Y-43734622D01*
X85149111Y-43746204D01*
X85236739Y-43863261D01*
X85353796Y-43950889D01*
X85490799Y-44001989D01*
X85518050Y-44004918D01*
X85551345Y-44008499D01*
X85551362Y-44008500D01*
X87148638Y-44008500D01*
X87148654Y-44008499D01*
X87175692Y-44005591D01*
X87209201Y-44001989D01*
X87346204Y-43950889D01*
X87463261Y-43863261D01*
X87550889Y-43746204D01*
X87594867Y-43628293D01*
X87601988Y-43609204D01*
X87601988Y-43609203D01*
X87601989Y-43609201D01*
X87605591Y-43575692D01*
X87608499Y-43548654D01*
X87608500Y-43548637D01*
X87608500Y-43494426D01*
X87628185Y-43427387D01*
X87680989Y-43381632D01*
X87750147Y-43371688D01*
X87813703Y-43400713D01*
X87832820Y-43421543D01*
X87846320Y-43440125D01*
X88490000Y-42796445D01*
X88490000Y-42802661D01*
X88517259Y-42904394D01*
X88569920Y-42995606D01*
X88644394Y-43070080D01*
X88735606Y-43122741D01*
X88837339Y-43150000D01*
X88843553Y-43150000D01*
X88199873Y-43793677D01*
X88199873Y-43793678D01*
X88234858Y-43819096D01*
X88410164Y-43908418D01*
X88597294Y-43969221D01*
X88791618Y-44000000D01*
X88988382Y-44000000D01*
X89182705Y-43969221D01*
X89369835Y-43908418D01*
X89545143Y-43819095D01*
X89580125Y-43793678D01*
X89580126Y-43793678D01*
X88936448Y-43150000D01*
X88942661Y-43150000D01*
X89044394Y-43122741D01*
X89135606Y-43070080D01*
X89210080Y-42995606D01*
X89262741Y-42904394D01*
X89290000Y-42802661D01*
X89290000Y-42796447D01*
X89933678Y-43440126D01*
X89933679Y-43440125D01*
X89947182Y-43421541D01*
X90002512Y-43378875D01*
X90072125Y-43372896D01*
X90133920Y-43405502D01*
X90168277Y-43466340D01*
X90171500Y-43494426D01*
X90171500Y-54191051D01*
X90202487Y-54386700D01*
X90263703Y-54575101D01*
X90327078Y-54699479D01*
X90353634Y-54751598D01*
X90470070Y-54911858D01*
X90470072Y-54911860D01*
X92431181Y-56872969D01*
X92464666Y-56934292D01*
X92467500Y-56960650D01*
X92467500Y-61617500D01*
X92447815Y-61684539D01*
X92395011Y-61730294D01*
X92343500Y-61741500D01*
X91374787Y-61741500D01*
X91321953Y-61729681D01*
X91310559Y-61724314D01*
X91266204Y-61691111D01*
X91140541Y-61644240D01*
X91135875Y-61642043D01*
X91113445Y-61622141D01*
X91089441Y-61604172D01*
X91087584Y-61599195D01*
X91083612Y-61595670D01*
X91075503Y-61566802D01*
X91065025Y-61538707D01*
X91066154Y-61533516D01*
X91064718Y-61528404D01*
X91073502Y-61499737D01*
X91079877Y-61470434D01*
X91084287Y-61464542D01*
X91085189Y-61461600D01*
X91088738Y-61458597D01*
X91101022Y-61442187D01*
X91206206Y-61337004D01*
X91331894Y-61164009D01*
X91428972Y-60973483D01*
X91495049Y-60770116D01*
X91528500Y-60558916D01*
X91528500Y-60345084D01*
X91495049Y-60133884D01*
X91428972Y-59930517D01*
X91428972Y-59930516D01*
X91359158Y-59793499D01*
X91331894Y-59739991D01*
X91206206Y-59566996D01*
X91055004Y-59415794D01*
X90882009Y-59290106D01*
X90882010Y-59290106D01*
X90882008Y-59290105D01*
X90877311Y-59287712D01*
X90826517Y-59239735D01*
X90809724Y-59171914D01*
X90832264Y-59105780D01*
X90873790Y-59069801D01*
X90873402Y-59069168D01*
X90877229Y-59066822D01*
X90877327Y-59066738D01*
X90877556Y-59066621D01*
X90931716Y-59027270D01*
X90931717Y-59027270D01*
X90299408Y-58394962D01*
X90362993Y-58377925D01*
X90477007Y-58312099D01*
X90570099Y-58219007D01*
X90635925Y-58104993D01*
X90652962Y-58041408D01*
X91285270Y-58673717D01*
X91285270Y-58673716D01*
X91324622Y-58619554D01*
X91421095Y-58430217D01*
X91486757Y-58228130D01*
X91486757Y-58228127D01*
X91520000Y-58018246D01*
X91520000Y-57805753D01*
X91486757Y-57595872D01*
X91486757Y-57595869D01*
X91421095Y-57393782D01*
X91324624Y-57204449D01*
X91285270Y-57150282D01*
X91285269Y-57150282D01*
X90652962Y-57782590D01*
X90635925Y-57719007D01*
X90570099Y-57604993D01*
X90477007Y-57511901D01*
X90362993Y-57446075D01*
X90299409Y-57429037D01*
X90931716Y-56796728D01*
X90877550Y-56757375D01*
X90688217Y-56660904D01*
X90486129Y-56595242D01*
X90276246Y-56562000D01*
X90063754Y-56562000D01*
X89853872Y-56595242D01*
X89853869Y-56595242D01*
X89651782Y-56660904D01*
X89462439Y-56757380D01*
X89408282Y-56796727D01*
X89408282Y-56796728D01*
X90040591Y-57429037D01*
X89977007Y-57446075D01*
X89862993Y-57511901D01*
X89769901Y-57604993D01*
X89704075Y-57719007D01*
X89687037Y-57782591D01*
X89054728Y-57150282D01*
X89054727Y-57150282D01*
X89015380Y-57204439D01*
X88918904Y-57393782D01*
X88853242Y-57595869D01*
X88853242Y-57595872D01*
X88820000Y-57805753D01*
X88820000Y-58018246D01*
X88853242Y-58228127D01*
X88853242Y-58228130D01*
X88918904Y-58430217D01*
X89015375Y-58619550D01*
X89054728Y-58673716D01*
X89687037Y-58041408D01*
X89704075Y-58104993D01*
X89769901Y-58219007D01*
X89862993Y-58312099D01*
X89977007Y-58377925D01*
X90040590Y-58394962D01*
X89408282Y-59027269D01*
X89408282Y-59027270D01*
X89462449Y-59066624D01*
X89462682Y-59066743D01*
X89462755Y-59066812D01*
X89466604Y-59069171D01*
X89466108Y-59069979D01*
X89513479Y-59114716D01*
X89530275Y-59182537D01*
X89507739Y-59248672D01*
X89462693Y-59287709D01*
X89457994Y-59290103D01*
X89284993Y-59415796D01*
X89193609Y-59507181D01*
X89132286Y-59540666D01*
X89105928Y-59543500D01*
X78659675Y-59543500D01*
X78592636Y-59523815D01*
X78571994Y-59507181D01*
X77398819Y-58334006D01*
X77365334Y-58272683D01*
X77362500Y-58246325D01*
X77362500Y-52996520D01*
X77362499Y-52996516D01*
X77348836Y-52927829D01*
X77327587Y-52821000D01*
X77322759Y-52809343D01*
X77308814Y-52775677D01*
X77259106Y-52655670D01*
X77259099Y-52655657D01*
X77159678Y-52506865D01*
X77159675Y-52506861D01*
X76017138Y-51364324D01*
X76017134Y-51364321D01*
X75868342Y-51264900D01*
X75868329Y-51264893D01*
X75703001Y-51196413D01*
X75702992Y-51196410D01*
X75527483Y-51161500D01*
X75527479Y-51161500D01*
X75053360Y-51161500D01*
X74986321Y-51141815D01*
X74965679Y-51125181D01*
X74912428Y-51071930D01*
X74912423Y-51071926D01*
X74745806Y-50950873D01*
X74745805Y-50950872D01*
X74745803Y-50950871D01*
X74666540Y-50910484D01*
X74615745Y-50862510D01*
X74598950Y-50794689D01*
X74621487Y-50728554D01*
X74666541Y-50689515D01*
X74668708Y-50688411D01*
X74745803Y-50649129D01*
X74912430Y-50528068D01*
X75058068Y-50382430D01*
X75179129Y-50215803D01*
X75272634Y-50032290D01*
X75336280Y-49836408D01*
X75368500Y-49632981D01*
X75368500Y-49427019D01*
X75352638Y-49326870D01*
X75336280Y-49223591D01*
X75281232Y-49054173D01*
X75272634Y-49027710D01*
X75272632Y-49027707D01*
X75272632Y-49027705D01*
X75234129Y-48952140D01*
X75179129Y-48844197D01*
X75068551Y-48691998D01*
X75058073Y-48677576D01*
X75058069Y-48677571D01*
X74912428Y-48531930D01*
X74912423Y-48531926D01*
X74745806Y-48410873D01*
X74745805Y-48410872D01*
X74745803Y-48410871D01*
X74666540Y-48370484D01*
X74615745Y-48322510D01*
X74598950Y-48254689D01*
X74621487Y-48188554D01*
X74666541Y-48149515D01*
X74745803Y-48109129D01*
X74912430Y-47988068D01*
X75058068Y-47842430D01*
X75179129Y-47675803D01*
X75193795Y-47647019D01*
X81541500Y-47647019D01*
X81541500Y-47852980D01*
X81573719Y-48056408D01*
X81637367Y-48252294D01*
X81670524Y-48317366D01*
X81728602Y-48431350D01*
X81730873Y-48435806D01*
X81851926Y-48602423D01*
X81851930Y-48602428D01*
X81905181Y-48655679D01*
X81938666Y-48717002D01*
X81941500Y-48743360D01*
X81941500Y-56181350D01*
X81921815Y-56248389D01*
X81905181Y-56269031D01*
X81844072Y-56330139D01*
X81844072Y-56330140D01*
X81844070Y-56330142D01*
X81825818Y-56355264D01*
X81727634Y-56490401D01*
X81637703Y-56666898D01*
X81576487Y-56855299D01*
X81545500Y-57050948D01*
X81545500Y-57249051D01*
X81576487Y-57444700D01*
X81637703Y-57633101D01*
X81705354Y-57765871D01*
X81727634Y-57809598D01*
X81844070Y-57969858D01*
X81984142Y-58109930D01*
X82144402Y-58226366D01*
X82183574Y-58246325D01*
X82320898Y-58316296D01*
X82320900Y-58316296D01*
X82320903Y-58316298D01*
X82375403Y-58334006D01*
X82509299Y-58377512D01*
X82704949Y-58408500D01*
X82704954Y-58408500D01*
X82903051Y-58408500D01*
X83098700Y-58377512D01*
X83126691Y-58368417D01*
X83287097Y-58316298D01*
X83463598Y-58226366D01*
X83623858Y-58109930D01*
X83763930Y-57969858D01*
X83880366Y-57809598D01*
X83970298Y-57633097D01*
X84031512Y-57444700D01*
X84039572Y-57393812D01*
X84062500Y-57249051D01*
X84062500Y-57050948D01*
X84032793Y-56863385D01*
X84031511Y-56855299D01*
X84012995Y-56798312D01*
X83970296Y-56666898D01*
X83913373Y-56555181D01*
X83880366Y-56490402D01*
X83782181Y-56355263D01*
X83758702Y-56289457D01*
X83758500Y-56282378D01*
X83758500Y-48743360D01*
X83778185Y-48676321D01*
X83794819Y-48655679D01*
X83817757Y-48632741D01*
X83848068Y-48602430D01*
X83969129Y-48435803D01*
X84062634Y-48252290D01*
X84126280Y-48056408D01*
X84158500Y-47852981D01*
X84158500Y-47647682D01*
X86550000Y-47647682D01*
X86550000Y-47852317D01*
X86582009Y-48054417D01*
X86645244Y-48249031D01*
X86738141Y-48431350D01*
X86738147Y-48431359D01*
X86770523Y-48475921D01*
X86770524Y-48475922D01*
X87450000Y-47796446D01*
X87450000Y-47802661D01*
X87477259Y-47904394D01*
X87529920Y-47995606D01*
X87604394Y-48070080D01*
X87695606Y-48122741D01*
X87797339Y-48150000D01*
X87803553Y-48150000D01*
X87124076Y-48829474D01*
X87168650Y-48861859D01*
X87350968Y-48954755D01*
X87545582Y-49017990D01*
X87747683Y-49050000D01*
X87952317Y-49050000D01*
X88154417Y-49017990D01*
X88349031Y-48954755D01*
X88531349Y-48861859D01*
X88575921Y-48829474D01*
X87896447Y-48150000D01*
X87902661Y-48150000D01*
X88004394Y-48122741D01*
X88095606Y-48070080D01*
X88170080Y-47995606D01*
X88222741Y-47904394D01*
X88250000Y-47802661D01*
X88250000Y-47796447D01*
X88929474Y-48475921D01*
X88961859Y-48431349D01*
X89054755Y-48249031D01*
X89117990Y-48054417D01*
X89150000Y-47852317D01*
X89150000Y-47647682D01*
X89117990Y-47445582D01*
X89054755Y-47250968D01*
X88961859Y-47068650D01*
X88929474Y-47024077D01*
X88929474Y-47024076D01*
X88250000Y-47703551D01*
X88250000Y-47697339D01*
X88222741Y-47595606D01*
X88170080Y-47504394D01*
X88095606Y-47429920D01*
X88004394Y-47377259D01*
X87902661Y-47350000D01*
X87896446Y-47350000D01*
X88575922Y-46670524D01*
X88575921Y-46670523D01*
X88531359Y-46638147D01*
X88531350Y-46638141D01*
X88349031Y-46545244D01*
X88154417Y-46482009D01*
X87952317Y-46450000D01*
X87747683Y-46450000D01*
X87545582Y-46482009D01*
X87350968Y-46545244D01*
X87168644Y-46638143D01*
X87124077Y-46670523D01*
X87124077Y-46670524D01*
X87803554Y-47350000D01*
X87797339Y-47350000D01*
X87695606Y-47377259D01*
X87604394Y-47429920D01*
X87529920Y-47504394D01*
X87477259Y-47595606D01*
X87450000Y-47697339D01*
X87450000Y-47703553D01*
X86770524Y-47024077D01*
X86770523Y-47024077D01*
X86738143Y-47068644D01*
X86645244Y-47250968D01*
X86582009Y-47445582D01*
X86550000Y-47647682D01*
X84158500Y-47647682D01*
X84158500Y-47647019D01*
X84141033Y-47536739D01*
X84126280Y-47443591D01*
X84075725Y-47288001D01*
X84062634Y-47247710D01*
X84062632Y-47247707D01*
X84062632Y-47247705D01*
X84011901Y-47148141D01*
X83969129Y-47064197D01*
X83894961Y-46962113D01*
X83848073Y-46897576D01*
X83848069Y-46897571D01*
X83702428Y-46751930D01*
X83702423Y-46751926D01*
X83535806Y-46630873D01*
X83535805Y-46630872D01*
X83535803Y-46630871D01*
X83478496Y-46601671D01*
X83352294Y-46537367D01*
X83156408Y-46473719D01*
X82980794Y-46445905D01*
X82952981Y-46441500D01*
X82747019Y-46441500D01*
X82722550Y-46445375D01*
X82543591Y-46473719D01*
X82347705Y-46537367D01*
X82164193Y-46630873D01*
X81997576Y-46751926D01*
X81997571Y-46751930D01*
X81851930Y-46897571D01*
X81851926Y-46897576D01*
X81730873Y-47064193D01*
X81637367Y-47247705D01*
X81573719Y-47443591D01*
X81541500Y-47647019D01*
X75193795Y-47647019D01*
X75219992Y-47595606D01*
X75224963Y-47585851D01*
X75272632Y-47492294D01*
X75272632Y-47492293D01*
X75272634Y-47492290D01*
X75336280Y-47296408D01*
X75368500Y-47092981D01*
X75368500Y-46887019D01*
X75336280Y-46683592D01*
X75272634Y-46487710D01*
X75272632Y-46487707D01*
X75272632Y-46487705D01*
X75202998Y-46351043D01*
X75179129Y-46304197D01*
X75132049Y-46239397D01*
X75058073Y-46137576D01*
X75058069Y-46137571D01*
X74912428Y-45991930D01*
X74912423Y-45991926D01*
X74745806Y-45870873D01*
X74745805Y-45870872D01*
X74745803Y-45870871D01*
X74666540Y-45830484D01*
X74615745Y-45782510D01*
X74598950Y-45714689D01*
X74621487Y-45648554D01*
X74666541Y-45609515D01*
X74668549Y-45608492D01*
X74745803Y-45569129D01*
X74912430Y-45448068D01*
X75058068Y-45302430D01*
X75179129Y-45135803D01*
X75272634Y-44952290D01*
X75336280Y-44756408D01*
X75368500Y-44552981D01*
X75368500Y-44347019D01*
X75336280Y-44143591D01*
X75292386Y-44008500D01*
X75272634Y-43947710D01*
X75272632Y-43947707D01*
X75272632Y-43947705D01*
X75213215Y-43831095D01*
X75179129Y-43764197D01*
X75166058Y-43746206D01*
X75147670Y-43720896D01*
X75058073Y-43597576D01*
X75058069Y-43597571D01*
X74912428Y-43451930D01*
X74912423Y-43451926D01*
X74745806Y-43330873D01*
X74745805Y-43330872D01*
X74745803Y-43330871D01*
X74666540Y-43290484D01*
X74615745Y-43242510D01*
X74598950Y-43174689D01*
X74621487Y-43108554D01*
X74666541Y-43069515D01*
X74745803Y-43029129D01*
X74912430Y-42908068D01*
X75058068Y-42762430D01*
X75179129Y-42595803D01*
X75272634Y-42412290D01*
X75336280Y-42216408D01*
X75368500Y-42012981D01*
X75368500Y-41807019D01*
X75336280Y-41603592D01*
X75332377Y-41591581D01*
X75290393Y-41462366D01*
X75272634Y-41407710D01*
X75272632Y-41407707D01*
X75272632Y-41407705D01*
X75222566Y-41309447D01*
X75179129Y-41224197D01*
X75065410Y-41067675D01*
X75058073Y-41057576D01*
X75058069Y-41057571D01*
X74912428Y-40911930D01*
X74912423Y-40911926D01*
X74745806Y-40790873D01*
X74745805Y-40790872D01*
X74745803Y-40790871D01*
X74687119Y-40760970D01*
X74562294Y-40697367D01*
X74366408Y-40633719D01*
X74190794Y-40605905D01*
X74162981Y-40601500D01*
X73157019Y-40601500D01*
X73132550Y-40605375D01*
X72953591Y-40633719D01*
X72757705Y-40697367D01*
X72574193Y-40790873D01*
X72407576Y-40911926D01*
X72407571Y-40911930D01*
X72261930Y-41057571D01*
X72261926Y-41057576D01*
X72140873Y-41224193D01*
X72047367Y-41407705D01*
X71983719Y-41603591D01*
X71951500Y-41807019D01*
X71951500Y-42012980D01*
X71983719Y-42216408D01*
X72047367Y-42412294D01*
X72097433Y-42510552D01*
X72132818Y-42579999D01*
X72140873Y-42595806D01*
X72261926Y-42762423D01*
X72261930Y-42762428D01*
X72407571Y-42908069D01*
X72407576Y-42908073D01*
X72574195Y-43029128D01*
X72653459Y-43069516D01*
X72704254Y-43117490D01*
X72721049Y-43185311D01*
X72698511Y-43251446D01*
X72653459Y-43290484D01*
X72574195Y-43330871D01*
X72407576Y-43451926D01*
X72407571Y-43451930D01*
X72261930Y-43597571D01*
X72261926Y-43597576D01*
X72140873Y-43764193D01*
X72047367Y-43947705D01*
X71983719Y-44143591D01*
X71951500Y-44347019D01*
X71951500Y-44552980D01*
X71983719Y-44756408D01*
X72047367Y-44952294D01*
X72140873Y-45135806D01*
X72261926Y-45302423D01*
X72261930Y-45302428D01*
X72407571Y-45448069D01*
X72407576Y-45448073D01*
X72574195Y-45569128D01*
X72653459Y-45609516D01*
X72704254Y-45657490D01*
X72721049Y-45725311D01*
X72698511Y-45791446D01*
X72653459Y-45830484D01*
X72574195Y-45870871D01*
X72407576Y-45991926D01*
X72407571Y-45991930D01*
X72261930Y-46137571D01*
X72261926Y-46137576D01*
X72140873Y-46304193D01*
X72047367Y-46487705D01*
X71983719Y-46683591D01*
X71951500Y-46887019D01*
X71951500Y-47092980D01*
X71983719Y-47296408D01*
X72047367Y-47492294D01*
X72091369Y-47578650D01*
X72132541Y-47659455D01*
X72140873Y-47675806D01*
X72261926Y-47842423D01*
X72261930Y-47842428D01*
X72407571Y-47988069D01*
X72407576Y-47988073D01*
X72574195Y-48109128D01*
X72653459Y-48149516D01*
X72704254Y-48197490D01*
X72721049Y-48265311D01*
X72698511Y-48331446D01*
X72653459Y-48370484D01*
X72574195Y-48410871D01*
X72407576Y-48531926D01*
X72407571Y-48531930D01*
X72261930Y-48677571D01*
X72261926Y-48677576D01*
X72140873Y-48844193D01*
X72047367Y-49027705D01*
X71983719Y-49223591D01*
X71951500Y-49427019D01*
X71951500Y-49632980D01*
X71983719Y-49836408D01*
X72047367Y-50032294D01*
X72091163Y-50118247D01*
X72135915Y-50206077D01*
X72140873Y-50215806D01*
X72261926Y-50382423D01*
X72261930Y-50382428D01*
X72407571Y-50528069D01*
X72407576Y-50528073D01*
X72574195Y-50649128D01*
X72653459Y-50689516D01*
X72704254Y-50737490D01*
X72721049Y-50805311D01*
X72698511Y-50871446D01*
X72653459Y-50910484D01*
X72574195Y-50950871D01*
X72407576Y-51071926D01*
X72407571Y-51071930D01*
X72261930Y-51217571D01*
X72261926Y-51217576D01*
X72140873Y-51384193D01*
X72047367Y-51567705D01*
X71983719Y-51763591D01*
X71951500Y-51967019D01*
X71951500Y-52172981D01*
X71951821Y-52175006D01*
X71983719Y-52376408D01*
X72047367Y-52572294D01*
X72099890Y-52675374D01*
X72139848Y-52753796D01*
X72140873Y-52755806D01*
X72261926Y-52922423D01*
X72261930Y-52922428D01*
X72407571Y-53068069D01*
X72407576Y-53068073D01*
X72574195Y-53189128D01*
X72653459Y-53229516D01*
X72704254Y-53277490D01*
X72721049Y-53345311D01*
X72698511Y-53411446D01*
X72653459Y-53450484D01*
X72574195Y-53490871D01*
X72407576Y-53611926D01*
X72407571Y-53611930D01*
X72261930Y-53757571D01*
X72261926Y-53757576D01*
X72140873Y-53924193D01*
X72047367Y-54107705D01*
X71983719Y-54303591D01*
X71951500Y-54507019D01*
X71951500Y-54712980D01*
X71983719Y-54916408D01*
X72047367Y-55112294D01*
X72078300Y-55173002D01*
X72137806Y-55289788D01*
X72140873Y-55295806D01*
X72261926Y-55462423D01*
X72261930Y-55462428D01*
X72407571Y-55608069D01*
X72407576Y-55608073D01*
X72574195Y-55729128D01*
X72574197Y-55729129D01*
X72653458Y-55769514D01*
X72704254Y-55817488D01*
X72721050Y-55885309D01*
X72698513Y-55951444D01*
X72653460Y-55990483D01*
X72574195Y-56030871D01*
X72407576Y-56151926D01*
X72407571Y-56151930D01*
X72261930Y-56297571D01*
X72261926Y-56297576D01*
X72140873Y-56464193D01*
X72047367Y-56647705D01*
X71983719Y-56843591D01*
X71951500Y-57047019D01*
X71951500Y-57252980D01*
X71983719Y-57456408D01*
X72047367Y-57652294D01*
X72081360Y-57719007D01*
X72125893Y-57806408D01*
X72140873Y-57835806D01*
X72261926Y-58002423D01*
X72261930Y-58002428D01*
X72407571Y-58148069D01*
X72407576Y-58148073D01*
X72574195Y-58269128D01*
X72574197Y-58269129D01*
X72630245Y-58297687D01*
X72683794Y-58324971D01*
X72734590Y-58372945D01*
X72751500Y-58435456D01*
X72751500Y-58754325D01*
X72731815Y-58821364D01*
X72715181Y-58842006D01*
X72232006Y-59325181D01*
X72170683Y-59358666D01*
X72144325Y-59361500D01*
X52093360Y-59361500D01*
X52026321Y-59341815D01*
X52005679Y-59325181D01*
X51952428Y-59271930D01*
X51952423Y-59271926D01*
X51785806Y-59150873D01*
X51785805Y-59150872D01*
X51785803Y-59150871D01*
X51714845Y-59114716D01*
X51602294Y-59057367D01*
X51434757Y-59002931D01*
X51377082Y-58963493D01*
X51349884Y-58899134D01*
X51361799Y-58830288D01*
X51409043Y-58778812D01*
X51434757Y-58767069D01*
X51473978Y-58754325D01*
X51602290Y-58712634D01*
X51785803Y-58619129D01*
X51952430Y-58498068D01*
X52005679Y-58444819D01*
X52067002Y-58411334D01*
X52093360Y-58408500D01*
X65259232Y-58408500D01*
X65297548Y-58414568D01*
X65333592Y-58426280D01*
X65537019Y-58458500D01*
X65537020Y-58458500D01*
X66542980Y-58458500D01*
X66542981Y-58458500D01*
X66746408Y-58426280D01*
X66942290Y-58362634D01*
X67125803Y-58269129D01*
X67292430Y-58148068D01*
X67438068Y-58002430D01*
X67559129Y-57835803D01*
X67652634Y-57652290D01*
X67716280Y-57456408D01*
X67748500Y-57252981D01*
X67748500Y-57047019D01*
X67719415Y-56863385D01*
X67716280Y-56843591D01*
X67658870Y-56666903D01*
X67652634Y-56647710D01*
X67652632Y-56647707D01*
X67652632Y-56647705D01*
X67605488Y-56555181D01*
X67559129Y-56464197D01*
X67498591Y-56380873D01*
X67438073Y-56297576D01*
X67438069Y-56297571D01*
X67292428Y-56151930D01*
X67292423Y-56151926D01*
X67125802Y-56030870D01*
X67125801Y-56030869D01*
X67046540Y-55990483D01*
X66995744Y-55942509D01*
X66978949Y-55874688D01*
X67001487Y-55808553D01*
X67046538Y-55769516D01*
X67125803Y-55729129D01*
X67292430Y-55608068D01*
X67438068Y-55462430D01*
X67559129Y-55295803D01*
X67652634Y-55112290D01*
X67716280Y-54916408D01*
X67748500Y-54712981D01*
X67748500Y-54507019D01*
X67723348Y-54348217D01*
X67716280Y-54303591D01*
X67679713Y-54191051D01*
X67652634Y-54107710D01*
X67652632Y-54107707D01*
X67652632Y-54107705D01*
X67609468Y-54022993D01*
X67559129Y-53924197D01*
X67525257Y-53877576D01*
X67438073Y-53757576D01*
X67438069Y-53757571D01*
X67292428Y-53611930D01*
X67292423Y-53611926D01*
X67125806Y-53490873D01*
X67125805Y-53490872D01*
X67125803Y-53490871D01*
X67046540Y-53450484D01*
X66995745Y-53402510D01*
X66978950Y-53334689D01*
X67001487Y-53268554D01*
X67046541Y-53229515D01*
X67125803Y-53189129D01*
X67292430Y-53068068D01*
X67438068Y-52922430D01*
X67559129Y-52755803D01*
X67652634Y-52572290D01*
X67716280Y-52376408D01*
X67748500Y-52172981D01*
X67748500Y-51967019D01*
X67718704Y-51778898D01*
X67716280Y-51763591D01*
X67665763Y-51608117D01*
X67652634Y-51567710D01*
X67652632Y-51567707D01*
X67652632Y-51567705D01*
X67599255Y-51462948D01*
X67559129Y-51384197D01*
X67474198Y-51267299D01*
X67438073Y-51217576D01*
X67438069Y-51217571D01*
X67292428Y-51071930D01*
X67292423Y-51071926D01*
X67125806Y-50950873D01*
X67125805Y-50950872D01*
X67125803Y-50950871D01*
X67046540Y-50910484D01*
X66995745Y-50862510D01*
X66978950Y-50794689D01*
X67001487Y-50728554D01*
X67046541Y-50689515D01*
X67048708Y-50688411D01*
X67125803Y-50649129D01*
X67292430Y-50528068D01*
X67438068Y-50382430D01*
X67559129Y-50215803D01*
X67652634Y-50032290D01*
X67716280Y-49836408D01*
X67748500Y-49632981D01*
X67748500Y-49427019D01*
X67732638Y-49326870D01*
X67716280Y-49223591D01*
X67661232Y-49054173D01*
X67652634Y-49027710D01*
X67652632Y-49027707D01*
X67652632Y-49027705D01*
X67614129Y-48952140D01*
X67559129Y-48844197D01*
X67448551Y-48691998D01*
X67438073Y-48677576D01*
X67438069Y-48677571D01*
X67292428Y-48531930D01*
X67292423Y-48531926D01*
X67125806Y-48410873D01*
X67125805Y-48410872D01*
X67125803Y-48410871D01*
X67046540Y-48370484D01*
X66995745Y-48322510D01*
X66978950Y-48254689D01*
X67001487Y-48188554D01*
X67046541Y-48149515D01*
X67125803Y-48109129D01*
X67292430Y-47988068D01*
X67345679Y-47934819D01*
X67407002Y-47901334D01*
X67433360Y-47898500D01*
X68669480Y-47898500D01*
X68669481Y-47898499D01*
X68727986Y-47886862D01*
X68844992Y-47863589D01*
X68844995Y-47863587D01*
X68845000Y-47863587D01*
X69010336Y-47795103D01*
X69159135Y-47695678D01*
X70555678Y-46299135D01*
X70655102Y-46150336D01*
X70683615Y-46081500D01*
X70723587Y-45985000D01*
X70758500Y-45809479D01*
X70758500Y-41067675D01*
X70778185Y-41000636D01*
X70794819Y-40979994D01*
X71459994Y-40314819D01*
X71521317Y-40281334D01*
X71547675Y-40278500D01*
X76026325Y-40278500D01*
X76093364Y-40298185D01*
X76114006Y-40314819D01*
X76544861Y-40745675D01*
X76544865Y-40745678D01*
X76693657Y-40845099D01*
X76693670Y-40845106D01*
X76793234Y-40886346D01*
X76859000Y-40913587D01*
X76859002Y-40913587D01*
X76859007Y-40913589D01*
X77034516Y-40948499D01*
X77034520Y-40948500D01*
X77034521Y-40948500D01*
X78785928Y-40948500D01*
X78852967Y-40968185D01*
X78873609Y-40984819D01*
X78964996Y-41076206D01*
X79137991Y-41201894D01*
X79142680Y-41204283D01*
X79193478Y-41252254D01*
X79210276Y-41320074D01*
X79187742Y-41386210D01*
X79146205Y-41422209D01*
X79146590Y-41422838D01*
X79142804Y-41425157D01*
X79142702Y-41425246D01*
X79142449Y-41425374D01*
X79142440Y-41425380D01*
X79088282Y-41464727D01*
X79088282Y-41464728D01*
X79720591Y-42097037D01*
X79657007Y-42114075D01*
X79542993Y-42179901D01*
X79449901Y-42272993D01*
X79384075Y-42387007D01*
X79367037Y-42450591D01*
X78734728Y-41818282D01*
X78734727Y-41818282D01*
X78695380Y-41872439D01*
X78598904Y-42061782D01*
X78533242Y-42263869D01*
X78533242Y-42263872D01*
X78500000Y-42473753D01*
X78500000Y-42686246D01*
X78533242Y-42896127D01*
X78533242Y-42896130D01*
X78598904Y-43098217D01*
X78695375Y-43287550D01*
X78734728Y-43341716D01*
X79367037Y-42709408D01*
X79384075Y-42772993D01*
X79449901Y-42887007D01*
X79542993Y-42980099D01*
X79657007Y-43045925D01*
X79720590Y-43062962D01*
X79088282Y-43695269D01*
X79088282Y-43695270D01*
X79142449Y-43734624D01*
X79331782Y-43831095D01*
X79533870Y-43896757D01*
X79743754Y-43930000D01*
X79956246Y-43930000D01*
X80166127Y-43896757D01*
X80166130Y-43896757D01*
X80368217Y-43831095D01*
X80557554Y-43734622D01*
X80611716Y-43695270D01*
X80611717Y-43695270D01*
X79979408Y-43062962D01*
X80042993Y-43045925D01*
X80157007Y-42980099D01*
X80250099Y-42887007D01*
X80315925Y-42772993D01*
X80332962Y-42709408D01*
X80965270Y-43341717D01*
X80965270Y-43341716D01*
X81004622Y-43287554D01*
X81101095Y-43098217D01*
X81166757Y-42896130D01*
X81166757Y-42896127D01*
X81200000Y-42686246D01*
X81200000Y-42473753D01*
X81166757Y-42263872D01*
X81166757Y-42263869D01*
X81101095Y-42061782D01*
X81004624Y-41872449D01*
X80965270Y-41818282D01*
X80965269Y-41818282D01*
X80332962Y-42450590D01*
X80315925Y-42387007D01*
X80250099Y-42272993D01*
X80157007Y-42179901D01*
X80042993Y-42114075D01*
X79979409Y-42097037D01*
X80611716Y-41464728D01*
X80557547Y-41425373D01*
X80557545Y-41425371D01*
X80557308Y-41425251D01*
X80557234Y-41425181D01*
X80553396Y-41422829D01*
X80553890Y-41422022D01*
X80506515Y-41377274D01*
X80489724Y-41309451D01*
X80512266Y-41243318D01*
X80557319Y-41204283D01*
X80562009Y-41201894D01*
X80735004Y-41076206D01*
X80886206Y-40925004D01*
X81011894Y-40752009D01*
X81108972Y-40561483D01*
X81175049Y-40358116D01*
X81208500Y-40146916D01*
X81208500Y-39933084D01*
X81175049Y-39721884D01*
X81124446Y-39566142D01*
X81108973Y-39518519D01*
X81108972Y-39518516D01*
X81011893Y-39327990D01*
X80933218Y-39219703D01*
X80886206Y-39154996D01*
X80781027Y-39049817D01*
X80747543Y-38988495D01*
X80752527Y-38918803D01*
X80794399Y-38862870D01*
X80825367Y-38845959D01*
X80946204Y-38800889D01*
X81063261Y-38713261D01*
X81150889Y-38596204D01*
X81190813Y-38489164D01*
X81232684Y-38433232D01*
X81298149Y-38408816D01*
X81306994Y-38408500D01*
X85060737Y-38408500D01*
X85127776Y-38428185D01*
G37*
%TD.AperFunction*%
%TA.AperFunction,Conductor*%
G36*
X116682539Y-28060185D02*
G01*
X116728294Y-28112989D01*
X116739500Y-28164500D01*
X116739500Y-111535500D01*
X116719815Y-111602539D01*
X116667011Y-111648294D01*
X116615500Y-111659500D01*
X56104500Y-111659500D01*
X56037461Y-111639815D01*
X55991706Y-111587011D01*
X55980500Y-111535500D01*
X55980500Y-110861204D01*
X98961726Y-110861204D01*
X104637902Y-110861204D01*
X104637902Y-102735186D01*
X108089500Y-102735186D01*
X108089500Y-103004813D01*
X108119686Y-103272719D01*
X108119688Y-103272731D01*
X108179684Y-103535594D01*
X108179687Y-103535602D01*
X108268734Y-103790082D01*
X108385714Y-104032994D01*
X108385716Y-104032997D01*
X108529162Y-104261289D01*
X108697266Y-104472085D01*
X108887915Y-104662734D01*
X109098711Y-104830838D01*
X109327003Y-104974284D01*
X109569921Y-105091267D01*
X109694363Y-105134811D01*
X109824397Y-105180312D01*
X109824405Y-105180315D01*
X109824408Y-105180315D01*
X109824409Y-105180316D01*
X110087268Y-105240312D01*
X110355187Y-105270499D01*
X110355188Y-105270500D01*
X110355191Y-105270500D01*
X110624812Y-105270500D01*
X110624812Y-105270499D01*
X110892732Y-105240312D01*
X111155591Y-105180316D01*
X111410079Y-105091267D01*
X111652997Y-104974284D01*
X111881289Y-104830838D01*
X112092085Y-104662734D01*
X112282734Y-104472085D01*
X112450838Y-104261289D01*
X112594284Y-104032997D01*
X112711267Y-103790079D01*
X112800316Y-103535591D01*
X112860312Y-103272732D01*
X112890500Y-103004809D01*
X112890500Y-102735191D01*
X112860312Y-102467268D01*
X112800316Y-102204409D01*
X112711267Y-101949921D01*
X112594284Y-101707003D01*
X112450838Y-101478711D01*
X112282734Y-101267915D01*
X112092085Y-101077266D01*
X111881289Y-100909162D01*
X111652997Y-100765716D01*
X111652994Y-100765714D01*
X111410082Y-100648734D01*
X111155602Y-100559687D01*
X111155594Y-100559684D01*
X110958446Y-100514687D01*
X110892732Y-100499688D01*
X110892728Y-100499687D01*
X110892719Y-100499686D01*
X110624813Y-100469500D01*
X110624809Y-100469500D01*
X110355191Y-100469500D01*
X110355186Y-100469500D01*
X110087280Y-100499686D01*
X110087268Y-100499688D01*
X109824405Y-100559684D01*
X109824397Y-100559687D01*
X109569917Y-100648734D01*
X109327005Y-100765714D01*
X109098712Y-100909161D01*
X108887915Y-101077265D01*
X108697265Y-101267915D01*
X108529161Y-101478712D01*
X108385714Y-101707005D01*
X108268734Y-101949917D01*
X108179687Y-102204397D01*
X108179684Y-102204405D01*
X108119688Y-102467268D01*
X108119686Y-102467280D01*
X108089500Y-102735186D01*
X104637902Y-102735186D01*
X104637902Y-88101202D01*
X98961726Y-88101202D01*
X98961726Y-110861204D01*
X55980500Y-110861204D01*
X55980500Y-108377682D01*
X71300000Y-108377682D01*
X71300000Y-108582317D01*
X71332009Y-108784417D01*
X71395244Y-108979031D01*
X71488141Y-109161350D01*
X71488147Y-109161359D01*
X71520523Y-109205921D01*
X71520524Y-109205922D01*
X72200000Y-108526446D01*
X72200000Y-108532661D01*
X72227259Y-108634394D01*
X72279920Y-108725606D01*
X72354394Y-108800080D01*
X72445606Y-108852741D01*
X72547339Y-108880000D01*
X72553553Y-108880000D01*
X71874076Y-109559474D01*
X71918650Y-109591859D01*
X72100968Y-109684755D01*
X72295582Y-109747990D01*
X72497683Y-109780000D01*
X72702317Y-109780000D01*
X72904417Y-109747990D01*
X73099031Y-109684755D01*
X73281349Y-109591859D01*
X73325921Y-109559474D01*
X73325922Y-109559474D01*
X73286344Y-109519896D01*
X72646447Y-108880000D01*
X72652661Y-108880000D01*
X72754394Y-108852741D01*
X72845606Y-108800080D01*
X72920080Y-108725606D01*
X72972741Y-108634394D01*
X73000000Y-108532661D01*
X73000000Y-108526447D01*
X73679474Y-109205921D01*
X73711859Y-109161349D01*
X73804755Y-108979031D01*
X73867990Y-108784417D01*
X73900000Y-108582317D01*
X73900000Y-108377682D01*
X73889631Y-108312214D01*
X73887329Y-108297682D01*
X74900000Y-108297682D01*
X74900000Y-108502317D01*
X74932009Y-108704417D01*
X74995244Y-108899031D01*
X75088141Y-109081350D01*
X75088147Y-109081359D01*
X75120523Y-109125921D01*
X75120524Y-109125922D01*
X75800000Y-108446446D01*
X75800000Y-108452661D01*
X75827259Y-108554394D01*
X75879920Y-108645606D01*
X75954394Y-108720080D01*
X76045606Y-108772741D01*
X76147339Y-108800000D01*
X76153553Y-108800000D01*
X75474076Y-109479474D01*
X75518650Y-109511859D01*
X75700968Y-109604755D01*
X75895582Y-109667990D01*
X76097683Y-109700000D01*
X76302317Y-109700000D01*
X76504417Y-109667990D01*
X76699031Y-109604755D01*
X76881349Y-109511859D01*
X76925921Y-109479474D01*
X76925922Y-109479474D01*
X76246447Y-108800000D01*
X76252661Y-108800000D01*
X76354394Y-108772741D01*
X76445606Y-108720080D01*
X76520080Y-108645606D01*
X76572741Y-108554394D01*
X76600000Y-108452661D01*
X76600000Y-108446448D01*
X77279474Y-109125922D01*
X77279474Y-109125921D01*
X77311859Y-109081349D01*
X77404755Y-108899031D01*
X77467990Y-108704417D01*
X77500000Y-108502317D01*
X77500000Y-108377682D01*
X78500000Y-108377682D01*
X78500000Y-108582317D01*
X78532009Y-108784417D01*
X78595244Y-108979031D01*
X78688141Y-109161350D01*
X78688147Y-109161359D01*
X78720523Y-109205921D01*
X78720524Y-109205922D01*
X79400000Y-108526446D01*
X79400000Y-108532661D01*
X79427259Y-108634394D01*
X79479920Y-108725606D01*
X79554394Y-108800080D01*
X79645606Y-108852741D01*
X79747339Y-108880000D01*
X79753553Y-108880000D01*
X79074076Y-109559474D01*
X79118650Y-109591859D01*
X79300968Y-109684755D01*
X79495582Y-109747990D01*
X79697683Y-109780000D01*
X79902317Y-109780000D01*
X80104417Y-109747990D01*
X80299031Y-109684755D01*
X80481349Y-109591859D01*
X80525921Y-109559474D01*
X79846447Y-108880000D01*
X79852661Y-108880000D01*
X79954394Y-108852741D01*
X80045606Y-108800080D01*
X80120080Y-108725606D01*
X80172741Y-108634394D01*
X80200000Y-108532661D01*
X80200000Y-108526447D01*
X80879474Y-109205921D01*
X80911859Y-109161349D01*
X81004755Y-108979031D01*
X81067990Y-108784417D01*
X81100000Y-108582317D01*
X81100000Y-108377682D01*
X81067990Y-108175582D01*
X81004755Y-107980968D01*
X80911859Y-107798650D01*
X80879474Y-107754077D01*
X80879474Y-107754076D01*
X80200000Y-108433551D01*
X80200000Y-108427339D01*
X80172741Y-108325606D01*
X80120080Y-108234394D01*
X80045606Y-108159920D01*
X79954394Y-108107259D01*
X79852661Y-108080000D01*
X79846446Y-108080000D01*
X80525922Y-107400524D01*
X80525921Y-107400523D01*
X80481359Y-107368147D01*
X80481350Y-107368141D01*
X80299031Y-107275244D01*
X80104417Y-107212009D01*
X79902317Y-107180000D01*
X79697683Y-107180000D01*
X79495582Y-107212009D01*
X79300968Y-107275244D01*
X79118644Y-107368143D01*
X79074077Y-107400523D01*
X79074077Y-107400524D01*
X79753554Y-108080000D01*
X79747339Y-108080000D01*
X79645606Y-108107259D01*
X79554394Y-108159920D01*
X79479920Y-108234394D01*
X79427259Y-108325606D01*
X79400000Y-108427339D01*
X79400000Y-108433553D01*
X78720524Y-107754077D01*
X78720523Y-107754077D01*
X78688143Y-107798644D01*
X78595244Y-107980968D01*
X78532009Y-108175582D01*
X78500000Y-108377682D01*
X77500000Y-108377682D01*
X77500000Y-108297682D01*
X77467990Y-108095582D01*
X77404755Y-107900968D01*
X77311859Y-107718650D01*
X77279474Y-107674077D01*
X77279474Y-107674076D01*
X76600000Y-108353551D01*
X76600000Y-108347339D01*
X76572741Y-108245606D01*
X76520080Y-108154394D01*
X76445606Y-108079920D01*
X76354394Y-108027259D01*
X76252661Y-108000000D01*
X76246446Y-108000000D01*
X76886345Y-107360102D01*
X76925922Y-107320524D01*
X76925921Y-107320523D01*
X76881359Y-107288147D01*
X76881350Y-107288141D01*
X76699031Y-107195244D01*
X76504417Y-107132009D01*
X76302317Y-107100000D01*
X76097683Y-107100000D01*
X75895582Y-107132009D01*
X75700968Y-107195244D01*
X75518644Y-107288143D01*
X75474077Y-107320523D01*
X75474077Y-107320524D01*
X76153554Y-108000000D01*
X76147339Y-108000000D01*
X76045606Y-108027259D01*
X75954394Y-108079920D01*
X75879920Y-108154394D01*
X75827259Y-108245606D01*
X75800000Y-108347339D01*
X75800000Y-108353553D01*
X75120524Y-107674077D01*
X75120523Y-107674077D01*
X75088143Y-107718644D01*
X74995244Y-107900968D01*
X74932009Y-108095582D01*
X74900000Y-108297682D01*
X73887329Y-108297682D01*
X73867990Y-108175582D01*
X73804755Y-107980968D01*
X73711859Y-107798650D01*
X73679474Y-107754077D01*
X73679474Y-107754076D01*
X73000000Y-108433551D01*
X73000000Y-108427339D01*
X72972741Y-108325606D01*
X72920080Y-108234394D01*
X72845606Y-108159920D01*
X72754394Y-108107259D01*
X72652661Y-108080000D01*
X72646446Y-108080000D01*
X73325922Y-107400524D01*
X73325921Y-107400523D01*
X73281359Y-107368147D01*
X73281350Y-107368141D01*
X73099031Y-107275244D01*
X72904417Y-107212009D01*
X72702317Y-107180000D01*
X72497683Y-107180000D01*
X72295582Y-107212009D01*
X72100968Y-107275244D01*
X71918644Y-107368143D01*
X71874077Y-107400523D01*
X71874077Y-107400524D01*
X72553554Y-108080000D01*
X72547339Y-108080000D01*
X72445606Y-108107259D01*
X72354394Y-108159920D01*
X72279920Y-108234394D01*
X72227259Y-108325606D01*
X72200000Y-108427339D01*
X72200000Y-108433553D01*
X71520524Y-107754077D01*
X71520523Y-107754077D01*
X71488143Y-107798644D01*
X71395244Y-107980968D01*
X71332009Y-108175582D01*
X71300000Y-108377682D01*
X55980500Y-108377682D01*
X55980500Y-104865186D01*
X62599500Y-104865186D01*
X62599500Y-105134813D01*
X62629686Y-105402719D01*
X62629688Y-105402731D01*
X62689684Y-105665594D01*
X62689687Y-105665602D01*
X62778734Y-105920082D01*
X62895714Y-106162994D01*
X62895716Y-106162997D01*
X63039162Y-106391289D01*
X63207266Y-106602085D01*
X63397915Y-106792734D01*
X63608711Y-106960838D01*
X63837003Y-107104284D01*
X64079921Y-107221267D01*
X64234179Y-107275244D01*
X64334397Y-107310312D01*
X64334405Y-107310315D01*
X64334408Y-107310315D01*
X64334409Y-107310316D01*
X64597268Y-107370312D01*
X64865187Y-107400499D01*
X64865188Y-107400500D01*
X64865191Y-107400500D01*
X65134812Y-107400500D01*
X65134812Y-107400499D01*
X65402732Y-107370312D01*
X65665591Y-107310316D01*
X65920079Y-107221267D01*
X66162997Y-107104284D01*
X66391289Y-106960838D01*
X66602085Y-106792734D01*
X66792734Y-106602085D01*
X66960838Y-106391289D01*
X67104284Y-106162997D01*
X67104287Y-106162991D01*
X67113030Y-106144837D01*
X67113030Y-106144836D01*
X67214479Y-105934174D01*
X67221267Y-105920079D01*
X67310316Y-105665591D01*
X67370312Y-105402732D01*
X67400500Y-105134809D01*
X67400500Y-104865191D01*
X67370312Y-104597268D01*
X67310316Y-104334409D01*
X67221267Y-104079921D01*
X67104284Y-103837003D01*
X66960838Y-103608711D01*
X66792734Y-103397915D01*
X66602085Y-103207266D01*
X66391289Y-103039162D01*
X66162997Y-102895716D01*
X66162994Y-102895714D01*
X65920082Y-102778734D01*
X65665602Y-102689687D01*
X65665594Y-102689684D01*
X65468446Y-102644687D01*
X65402732Y-102629688D01*
X65402728Y-102629687D01*
X65402719Y-102629686D01*
X65134813Y-102599500D01*
X65134809Y-102599500D01*
X64865191Y-102599500D01*
X64865186Y-102599500D01*
X64597280Y-102629686D01*
X64597268Y-102629688D01*
X64334405Y-102689684D01*
X64334397Y-102689687D01*
X64079917Y-102778734D01*
X63837005Y-102895714D01*
X63608712Y-103039161D01*
X63397915Y-103207265D01*
X63207265Y-103397915D01*
X63039161Y-103608712D01*
X62895714Y-103837005D01*
X62778734Y-104079917D01*
X62689687Y-104334397D01*
X62689684Y-104334405D01*
X62629688Y-104597268D01*
X62629686Y-104597280D01*
X62599500Y-104865186D01*
X55980500Y-104865186D01*
X55980500Y-101580010D01*
X55980499Y-101580007D01*
X55965200Y-101543071D01*
X55936928Y-101514799D01*
X55899992Y-101499500D01*
X55899991Y-101499500D01*
X43404500Y-101499500D01*
X43337461Y-101479815D01*
X43291706Y-101427011D01*
X43280500Y-101375500D01*
X43280500Y-84746516D01*
X43795500Y-84746516D01*
X43795500Y-97371483D01*
X43830410Y-97546992D01*
X43830413Y-97547001D01*
X43898893Y-97712329D01*
X43898900Y-97712342D01*
X43998321Y-97861134D01*
X43998324Y-97861138D01*
X45902861Y-99765675D01*
X45902865Y-99765678D01*
X46051664Y-99865103D01*
X46168574Y-99913528D01*
X46217000Y-99933587D01*
X46392516Y-99968499D01*
X46392520Y-99968500D01*
X46392521Y-99968500D01*
X59529480Y-99968500D01*
X59529481Y-99968499D01*
X59587986Y-99956862D01*
X59704992Y-99933589D01*
X59704995Y-99933587D01*
X59705000Y-99933587D01*
X59870336Y-99865103D01*
X60019135Y-99765678D01*
X60277898Y-99506915D01*
X60539995Y-99244819D01*
X60601318Y-99211334D01*
X60627676Y-99208500D01*
X71586640Y-99208500D01*
X71653679Y-99228185D01*
X71674321Y-99244819D01*
X71747571Y-99318069D01*
X71747576Y-99318073D01*
X71892908Y-99423661D01*
X71914197Y-99439129D01*
X72010412Y-99488153D01*
X72097705Y-99532632D01*
X72097707Y-99532632D01*
X72097710Y-99532634D01*
X72202707Y-99566749D01*
X72293591Y-99596280D01*
X72395305Y-99612390D01*
X72497019Y-99628500D01*
X72497020Y-99628500D01*
X72702980Y-99628500D01*
X72702981Y-99628500D01*
X72906408Y-99596280D01*
X73102290Y-99532634D01*
X73285803Y-99439129D01*
X73452430Y-99318068D01*
X73598068Y-99172430D01*
X73719129Y-99005803D01*
X73812634Y-98822290D01*
X73876280Y-98626408D01*
X73908500Y-98422981D01*
X73908500Y-98217019D01*
X73891018Y-98106645D01*
X73876280Y-98013591D01*
X73846749Y-97922707D01*
X73812634Y-97817710D01*
X73812632Y-97817707D01*
X73812632Y-97817705D01*
X73758939Y-97712329D01*
X73719129Y-97634197D01*
X73655771Y-97546992D01*
X73598073Y-97467576D01*
X73598069Y-97467571D01*
X73452428Y-97321930D01*
X73452423Y-97321926D01*
X73285806Y-97200873D01*
X73285805Y-97200872D01*
X73285803Y-97200871D01*
X73228496Y-97171671D01*
X73102294Y-97107367D01*
X72906408Y-97043719D01*
X72730794Y-97015905D01*
X72702981Y-97011500D01*
X72497019Y-97011500D01*
X72472550Y-97015375D01*
X72293591Y-97043719D01*
X72097705Y-97107367D01*
X71914193Y-97200873D01*
X71747576Y-97321926D01*
X71747571Y-97321930D01*
X71714321Y-97355181D01*
X71652998Y-97388666D01*
X71626640Y-97391500D01*
X60110520Y-97391500D01*
X60081397Y-97397292D01*
X60081396Y-97397291D01*
X59935005Y-97426411D01*
X59934999Y-97426413D01*
X59769661Y-97494899D01*
X59769658Y-97494900D01*
X59620865Y-97594320D01*
X59620858Y-97594326D01*
X59100006Y-98115181D01*
X59038683Y-98148666D01*
X59012325Y-98151500D01*
X46909675Y-98151500D01*
X46842636Y-98131815D01*
X46821994Y-98115181D01*
X45648819Y-96942006D01*
X45634115Y-96915078D01*
X45617523Y-96889260D01*
X45616631Y-96883059D01*
X45615334Y-96880683D01*
X45612500Y-96854325D01*
X45612500Y-95633047D01*
X45632185Y-95566008D01*
X45684989Y-95520253D01*
X45754147Y-95510309D01*
X45817703Y-95539334D01*
X45853542Y-95592093D01*
X45946662Y-95858217D01*
X46068492Y-96111200D01*
X46217884Y-96348956D01*
X46324187Y-96482257D01*
X46965747Y-95840697D01*
X47039588Y-95942330D01*
X47217670Y-96120412D01*
X47319300Y-96194251D01*
X46677741Y-96835810D01*
X46677741Y-96835811D01*
X46811043Y-96942115D01*
X47048799Y-97091507D01*
X47301782Y-97213337D01*
X47566819Y-97306077D01*
X47566821Y-97306078D01*
X47840575Y-97368560D01*
X47840587Y-97368562D01*
X48119598Y-97399999D01*
X48119600Y-97400000D01*
X48400400Y-97400000D01*
X48400401Y-97399999D01*
X48679412Y-97368562D01*
X48679424Y-97368560D01*
X48953178Y-97306078D01*
X48953180Y-97306077D01*
X49218217Y-97213337D01*
X49471200Y-97091507D01*
X49708956Y-96942116D01*
X49842257Y-96835810D01*
X49200698Y-96194251D01*
X49302330Y-96120412D01*
X49480412Y-95942330D01*
X49554251Y-95840698D01*
X50195810Y-96482257D01*
X50302116Y-96348956D01*
X50451507Y-96111200D01*
X50573337Y-95858217D01*
X50666077Y-95593180D01*
X50666078Y-95593178D01*
X50728560Y-95319424D01*
X50728562Y-95319412D01*
X50759999Y-95040401D01*
X50760000Y-95040399D01*
X50760000Y-94759600D01*
X50759999Y-94759598D01*
X50728562Y-94480587D01*
X50728560Y-94480575D01*
X50666078Y-94206821D01*
X50666077Y-94206819D01*
X50573337Y-93941782D01*
X50451507Y-93688799D01*
X50302115Y-93451043D01*
X50195810Y-93317741D01*
X49554251Y-93959300D01*
X49480412Y-93857670D01*
X49302330Y-93679588D01*
X49200697Y-93605747D01*
X49842257Y-92964187D01*
X49708956Y-92857884D01*
X49471200Y-92708492D01*
X49218217Y-92586662D01*
X48953180Y-92493922D01*
X48953178Y-92493921D01*
X48679424Y-92431439D01*
X48679412Y-92431437D01*
X48400401Y-92400000D01*
X48119598Y-92400000D01*
X47840587Y-92431437D01*
X47840575Y-92431439D01*
X47566821Y-92493921D01*
X47566819Y-92493922D01*
X47301782Y-92586662D01*
X47048799Y-92708492D01*
X46811043Y-92857884D01*
X46677741Y-92964187D01*
X47319301Y-93605747D01*
X47217670Y-93679588D01*
X47039588Y-93857670D01*
X46965747Y-93959301D01*
X46324187Y-93317741D01*
X46217884Y-93451043D01*
X46068492Y-93688799D01*
X45946663Y-93941780D01*
X45853542Y-94207907D01*
X45812820Y-94264683D01*
X45747867Y-94290430D01*
X45679306Y-94276974D01*
X45628903Y-94228587D01*
X45612500Y-94166952D01*
X45612500Y-85263675D01*
X45632185Y-85196636D01*
X45648819Y-85175994D01*
X46059994Y-84764819D01*
X46085596Y-84750839D01*
X46109735Y-84734447D01*
X46117983Y-84733154D01*
X46121317Y-84731334D01*
X46144531Y-84728540D01*
X46146108Y-84728500D01*
X46307479Y-84728500D01*
X46331060Y-84723809D01*
X46341684Y-84723540D01*
X46342423Y-84723736D01*
X46344828Y-84723500D01*
X47266640Y-84723500D01*
X47333679Y-84743185D01*
X47354321Y-84759819D01*
X47407571Y-84813069D01*
X47407576Y-84813073D01*
X47552908Y-84918661D01*
X47574197Y-84934129D01*
X47691128Y-84993709D01*
X47757705Y-85027632D01*
X47757707Y-85027632D01*
X47757710Y-85027634D01*
X47830804Y-85051383D01*
X47925242Y-85082069D01*
X47982917Y-85121507D01*
X48010115Y-85185866D01*
X47998200Y-85254712D01*
X47950956Y-85306188D01*
X47925242Y-85317931D01*
X47757705Y-85372367D01*
X47574193Y-85465873D01*
X47407576Y-85586926D01*
X47407571Y-85586930D01*
X47261930Y-85732571D01*
X47261926Y-85732576D01*
X47140873Y-85899193D01*
X47047367Y-86082705D01*
X46983719Y-86278591D01*
X46951500Y-86482019D01*
X46951500Y-86687980D01*
X46983719Y-86891408D01*
X47047367Y-87087294D01*
X47086909Y-87164897D01*
X47137568Y-87264321D01*
X47140873Y-87270806D01*
X47261926Y-87437423D01*
X47261930Y-87437428D01*
X47315181Y-87490679D01*
X47348666Y-87552002D01*
X47351500Y-87578360D01*
X47351500Y-89751483D01*
X47386410Y-89926992D01*
X47386413Y-89927001D01*
X47454893Y-90092329D01*
X47454900Y-90092342D01*
X47554321Y-90241134D01*
X47554324Y-90241138D01*
X48696861Y-91383675D01*
X48696865Y-91383678D01*
X48845657Y-91483099D01*
X48845670Y-91483106D01*
X48969666Y-91534466D01*
X49011000Y-91551587D01*
X49011002Y-91551587D01*
X49011007Y-91551589D01*
X49186516Y-91586499D01*
X49186520Y-91586500D01*
X49186521Y-91586500D01*
X54165708Y-91586500D01*
X54189898Y-91588882D01*
X54288519Y-91608499D01*
X54288520Y-91608500D01*
X54288521Y-91608500D01*
X54467480Y-91608500D01*
X71072325Y-91608500D01*
X71139364Y-91628185D01*
X71160006Y-91644819D01*
X75255181Y-95739994D01*
X75288666Y-95801317D01*
X75291500Y-95827675D01*
X75291500Y-97246640D01*
X75271815Y-97313679D01*
X75255181Y-97334321D01*
X75201930Y-97387571D01*
X75201926Y-97387576D01*
X75080873Y-97554193D01*
X74987367Y-97737705D01*
X74923719Y-97933591D01*
X74896311Y-98106645D01*
X74891500Y-98137019D01*
X74891500Y-98342981D01*
X74894797Y-98363796D01*
X74923719Y-98546408D01*
X74987367Y-98742294D01*
X75028128Y-98822290D01*
X75074071Y-98912458D01*
X75080873Y-98925806D01*
X75201926Y-99092423D01*
X75201930Y-99092428D01*
X75347571Y-99238069D01*
X75347576Y-99238073D01*
X75423293Y-99293084D01*
X75514197Y-99359129D01*
X75631128Y-99418709D01*
X75697705Y-99452632D01*
X75697707Y-99452632D01*
X75697710Y-99452634D01*
X75738311Y-99465826D01*
X75893591Y-99516280D01*
X75995305Y-99532390D01*
X76097019Y-99548500D01*
X76097020Y-99548500D01*
X76302980Y-99548500D01*
X76302981Y-99548500D01*
X76506408Y-99516280D01*
X76702290Y-99452634D01*
X76885803Y-99359129D01*
X77052430Y-99238068D01*
X77198068Y-99092430D01*
X77319129Y-98925803D01*
X77412634Y-98742290D01*
X77476280Y-98546408D01*
X77508500Y-98342981D01*
X77508500Y-98137019D01*
X77476280Y-97933592D01*
X77412634Y-97737710D01*
X77412632Y-97737707D01*
X77412632Y-97737705D01*
X77359889Y-97634193D01*
X77319129Y-97554197D01*
X77303661Y-97532908D01*
X77198073Y-97387576D01*
X77198069Y-97387571D01*
X77144819Y-97334321D01*
X77111334Y-97272998D01*
X77108500Y-97246640D01*
X77108500Y-95310520D01*
X77108499Y-95310516D01*
X77073587Y-95135000D01*
X77073585Y-95134995D01*
X77046524Y-95069663D01*
X77005106Y-94969670D01*
X77005099Y-94969657D01*
X76905678Y-94820865D01*
X76905675Y-94820861D01*
X72079138Y-89994324D01*
X72079134Y-89994321D01*
X71930342Y-89894900D01*
X71930329Y-89894893D01*
X71765001Y-89826413D01*
X71764992Y-89826410D01*
X71589483Y-89791500D01*
X71589479Y-89791500D01*
X54568292Y-89791500D01*
X54544101Y-89789117D01*
X54500499Y-89780444D01*
X54445480Y-89769500D01*
X54445479Y-89769500D01*
X49703675Y-89769500D01*
X49636636Y-89749815D01*
X49615994Y-89733181D01*
X49204819Y-89322006D01*
X49171334Y-89260683D01*
X49168500Y-89234325D01*
X49168500Y-87578360D01*
X49188185Y-87511321D01*
X49204819Y-87490679D01*
X49258068Y-87437430D01*
X49379129Y-87270803D01*
X49472634Y-87087290D01*
X49536280Y-86891408D01*
X49568500Y-86687981D01*
X49568500Y-86482019D01*
X49550009Y-86365270D01*
X49536280Y-86278591D01*
X49487410Y-86128185D01*
X49472634Y-86082710D01*
X49472632Y-86082707D01*
X49472632Y-86082705D01*
X49436461Y-86011716D01*
X49379129Y-85899197D01*
X49270732Y-85750000D01*
X49258073Y-85732576D01*
X49258069Y-85732571D01*
X49112428Y-85586930D01*
X49112423Y-85586926D01*
X48945806Y-85465873D01*
X48945805Y-85465872D01*
X48945803Y-85465871D01*
X48888496Y-85436671D01*
X48762294Y-85372367D01*
X48594757Y-85317931D01*
X48537082Y-85278493D01*
X48509884Y-85214134D01*
X48521799Y-85145288D01*
X48569043Y-85093812D01*
X48594757Y-85082069D01*
X48671889Y-85057007D01*
X48762290Y-85027634D01*
X48945803Y-84934129D01*
X49112430Y-84813068D01*
X49258068Y-84667430D01*
X49379129Y-84500803D01*
X49472634Y-84317290D01*
X49536280Y-84121408D01*
X49568500Y-83917981D01*
X49568500Y-83712019D01*
X49548907Y-83588317D01*
X49536280Y-83508591D01*
X49486168Y-83354364D01*
X49472634Y-83312710D01*
X49472632Y-83312707D01*
X49472632Y-83312705D01*
X49419054Y-83207554D01*
X49379129Y-83129197D01*
X49296083Y-83014893D01*
X49258073Y-82962576D01*
X49258069Y-82962571D01*
X49112428Y-82816930D01*
X49112423Y-82816926D01*
X48945806Y-82695873D01*
X48945805Y-82695872D01*
X48945803Y-82695871D01*
X48888496Y-82666671D01*
X48762294Y-82602367D01*
X48581004Y-82543462D01*
X48523329Y-82504024D01*
X48496131Y-82439665D01*
X48508046Y-82370819D01*
X48555290Y-82319343D01*
X48581005Y-82307600D01*
X48759029Y-82249755D01*
X48941349Y-82156859D01*
X48985921Y-82124474D01*
X48389409Y-81527962D01*
X48452993Y-81510925D01*
X48567007Y-81445099D01*
X48660099Y-81352007D01*
X48725925Y-81237993D01*
X48742962Y-81174409D01*
X49339474Y-81770921D01*
X49371859Y-81726349D01*
X49464755Y-81544031D01*
X49527990Y-81349417D01*
X49560000Y-81147317D01*
X49560000Y-80942682D01*
X49527990Y-80740582D01*
X49464755Y-80545968D01*
X49371859Y-80363650D01*
X49339474Y-80319077D01*
X49339474Y-80319076D01*
X48742962Y-80915589D01*
X48725925Y-80852007D01*
X48660099Y-80737993D01*
X48567007Y-80644901D01*
X48452993Y-80579075D01*
X48389408Y-80562037D01*
X48985922Y-79965524D01*
X48985921Y-79965523D01*
X48941359Y-79933147D01*
X48941350Y-79933141D01*
X48759031Y-79840244D01*
X48567252Y-79777931D01*
X48509577Y-79738493D01*
X48482379Y-79674134D01*
X48494294Y-79605288D01*
X48541538Y-79553812D01*
X48567252Y-79542069D01*
X48759031Y-79479755D01*
X48941349Y-79386859D01*
X48985921Y-79354474D01*
X48389409Y-78757962D01*
X48452993Y-78740925D01*
X48567007Y-78675099D01*
X48660099Y-78582007D01*
X48725925Y-78467993D01*
X48742962Y-78404409D01*
X49339474Y-79000921D01*
X49371859Y-78956349D01*
X49464755Y-78774031D01*
X49527990Y-78579417D01*
X49560000Y-78377317D01*
X49560000Y-78172682D01*
X49527990Y-77970582D01*
X49464755Y-77775968D01*
X49371859Y-77593650D01*
X49339474Y-77549077D01*
X49339474Y-77549076D01*
X48742962Y-78145589D01*
X48725925Y-78082007D01*
X48660099Y-77967993D01*
X48567007Y-77874901D01*
X48452993Y-77809075D01*
X48389408Y-77792037D01*
X48985922Y-77195524D01*
X48985921Y-77195523D01*
X48941359Y-77163147D01*
X48941350Y-77163141D01*
X48759031Y-77070244D01*
X48567252Y-77007931D01*
X48509577Y-76968493D01*
X48482379Y-76904134D01*
X48494294Y-76835288D01*
X48541538Y-76783812D01*
X48567252Y-76772069D01*
X48759031Y-76709755D01*
X48941349Y-76616859D01*
X48985921Y-76584474D01*
X48389409Y-75987962D01*
X48452993Y-75970925D01*
X48567007Y-75905099D01*
X48660099Y-75812007D01*
X48725925Y-75697993D01*
X48742962Y-75634409D01*
X49339474Y-76230921D01*
X49371859Y-76186349D01*
X49464755Y-76004031D01*
X49527990Y-75809417D01*
X49560000Y-75607317D01*
X49560000Y-75402682D01*
X49527990Y-75200582D01*
X49464755Y-75005968D01*
X49371859Y-74823650D01*
X49339474Y-74779077D01*
X49339474Y-74779076D01*
X48742962Y-75375589D01*
X48725925Y-75312007D01*
X48660099Y-75197993D01*
X48567007Y-75104901D01*
X48452993Y-75039075D01*
X48389408Y-75022037D01*
X48985922Y-74425524D01*
X48985921Y-74425523D01*
X48941359Y-74393147D01*
X48941350Y-74393141D01*
X48759031Y-74300244D01*
X48567252Y-74237931D01*
X48509577Y-74198493D01*
X48482379Y-74134134D01*
X48494294Y-74065288D01*
X48541538Y-74013812D01*
X48567252Y-74002069D01*
X48759031Y-73939755D01*
X48941349Y-73846859D01*
X48985921Y-73814474D01*
X48389409Y-73217962D01*
X48452993Y-73200925D01*
X48567007Y-73135099D01*
X48660099Y-73042007D01*
X48725925Y-72927993D01*
X48742962Y-72864409D01*
X49339474Y-73460921D01*
X49371859Y-73416349D01*
X49464755Y-73234031D01*
X49527990Y-73039417D01*
X49560000Y-72837317D01*
X49560000Y-72632682D01*
X49527990Y-72430582D01*
X49464755Y-72235968D01*
X49371859Y-72053650D01*
X49339474Y-72009077D01*
X49339474Y-72009076D01*
X48742962Y-72605589D01*
X48725925Y-72542007D01*
X48660099Y-72427993D01*
X48567007Y-72334901D01*
X48452993Y-72269075D01*
X48389408Y-72252037D01*
X48985922Y-71655524D01*
X48985921Y-71655523D01*
X48941359Y-71623147D01*
X48941350Y-71623141D01*
X48759031Y-71530244D01*
X48567252Y-71467931D01*
X48509577Y-71428493D01*
X48482379Y-71364134D01*
X48494294Y-71295288D01*
X48541538Y-71243812D01*
X48567252Y-71232069D01*
X48759031Y-71169755D01*
X48941349Y-71076859D01*
X48985921Y-71044474D01*
X48389409Y-70447962D01*
X48452993Y-70430925D01*
X48567007Y-70365099D01*
X48660099Y-70272007D01*
X48725925Y-70157993D01*
X48742962Y-70094409D01*
X49339474Y-70690921D01*
X49371859Y-70646349D01*
X49464755Y-70464031D01*
X49527990Y-70269417D01*
X49560000Y-70067317D01*
X49560000Y-69862682D01*
X49527990Y-69660582D01*
X49464755Y-69465968D01*
X49371859Y-69283650D01*
X49339474Y-69239077D01*
X49339474Y-69239076D01*
X48742962Y-69835589D01*
X48725925Y-69772007D01*
X48660099Y-69657993D01*
X48567007Y-69564901D01*
X48452993Y-69499075D01*
X48389408Y-69482037D01*
X48985922Y-68885524D01*
X48985921Y-68885523D01*
X48941359Y-68853147D01*
X48941350Y-68853141D01*
X48759031Y-68760244D01*
X48567252Y-68697931D01*
X48509577Y-68658493D01*
X48482379Y-68594134D01*
X48494294Y-68525288D01*
X48541538Y-68473812D01*
X48567252Y-68462069D01*
X48759031Y-68399755D01*
X48833793Y-68361662D01*
X48941349Y-68306859D01*
X48985921Y-68274474D01*
X48389409Y-67677962D01*
X48452993Y-67660925D01*
X48567007Y-67595099D01*
X48660099Y-67502007D01*
X48725925Y-67387993D01*
X48742962Y-67324409D01*
X49339474Y-67920921D01*
X49371859Y-67876349D01*
X49464755Y-67694031D01*
X49527990Y-67499417D01*
X49560000Y-67297317D01*
X49560000Y-67092682D01*
X49527990Y-66890582D01*
X49464755Y-66695968D01*
X49371859Y-66513650D01*
X49339474Y-66469077D01*
X49339474Y-66469076D01*
X48742962Y-67065589D01*
X48725925Y-67002007D01*
X48660099Y-66887993D01*
X48567007Y-66794901D01*
X48452993Y-66729075D01*
X48389408Y-66712037D01*
X48985922Y-66115524D01*
X48985921Y-66115523D01*
X48941359Y-66083147D01*
X48941350Y-66083141D01*
X48759031Y-65990244D01*
X48567252Y-65927931D01*
X48509577Y-65888493D01*
X48482379Y-65824134D01*
X48494294Y-65755288D01*
X48541538Y-65703812D01*
X48567252Y-65692069D01*
X48759031Y-65629755D01*
X48832480Y-65592331D01*
X48941349Y-65536859D01*
X48985921Y-65504474D01*
X48389409Y-64907962D01*
X48452993Y-64890925D01*
X48567007Y-64825099D01*
X48660099Y-64732007D01*
X48725925Y-64617993D01*
X48742962Y-64554409D01*
X49339474Y-65150921D01*
X49371859Y-65106349D01*
X49464755Y-64924031D01*
X49527990Y-64729417D01*
X49560000Y-64527317D01*
X49560000Y-64322682D01*
X49527990Y-64120582D01*
X49464755Y-63925968D01*
X49371859Y-63743650D01*
X49339474Y-63699077D01*
X49339474Y-63699076D01*
X48742962Y-64295589D01*
X48725925Y-64232007D01*
X48660099Y-64117993D01*
X48567007Y-64024901D01*
X48452993Y-63959075D01*
X48389408Y-63942037D01*
X48985922Y-63345524D01*
X48985921Y-63345523D01*
X48941359Y-63313147D01*
X48941350Y-63313141D01*
X48759031Y-63220244D01*
X48567252Y-63157931D01*
X48509577Y-63118493D01*
X48482379Y-63054134D01*
X48494294Y-62985288D01*
X48541538Y-62933812D01*
X48567252Y-62922069D01*
X48759031Y-62859755D01*
X48941349Y-62766859D01*
X48985921Y-62734474D01*
X48389409Y-62137962D01*
X48452993Y-62120925D01*
X48567007Y-62055099D01*
X48660099Y-61962007D01*
X48725925Y-61847993D01*
X48742962Y-61784409D01*
X49339474Y-62380921D01*
X49371859Y-62336349D01*
X49464755Y-62154031D01*
X49527990Y-61959417D01*
X49560000Y-61757317D01*
X49560000Y-61552682D01*
X49527990Y-61350582D01*
X49464755Y-61155968D01*
X49371859Y-60973650D01*
X49339474Y-60929077D01*
X49339474Y-60929076D01*
X48742962Y-61525589D01*
X48725925Y-61462007D01*
X48660099Y-61347993D01*
X48567007Y-61254901D01*
X48452993Y-61189075D01*
X48389408Y-61172037D01*
X48985922Y-60575524D01*
X48985921Y-60575523D01*
X48941359Y-60543147D01*
X48941350Y-60543141D01*
X48759031Y-60450244D01*
X48581004Y-60392399D01*
X48523329Y-60352961D01*
X48496131Y-60288602D01*
X48508046Y-60219756D01*
X48555290Y-60168280D01*
X48581005Y-60156537D01*
X48762290Y-60097634D01*
X48945803Y-60004129D01*
X49112430Y-59883068D01*
X49258068Y-59737430D01*
X49379129Y-59570803D01*
X49472634Y-59387290D01*
X49536280Y-59191408D01*
X49568500Y-58987981D01*
X49568500Y-58782019D01*
X49557510Y-58712632D01*
X49536280Y-58578591D01*
X49486791Y-58426280D01*
X49472634Y-58382710D01*
X49472632Y-58382707D01*
X49472632Y-58382705D01*
X49414761Y-58269129D01*
X49379129Y-58199197D01*
X49363661Y-58177908D01*
X49258073Y-58032576D01*
X49258069Y-58032571D01*
X49112428Y-57886930D01*
X49112423Y-57886926D01*
X48945806Y-57765873D01*
X48945805Y-57765872D01*
X48945803Y-57765871D01*
X48853828Y-57719007D01*
X48762294Y-57672367D01*
X48594757Y-57617931D01*
X48537082Y-57578493D01*
X48509884Y-57514134D01*
X48521799Y-57445288D01*
X48569043Y-57393812D01*
X48594757Y-57382069D01*
X48625923Y-57371942D01*
X48762290Y-57327634D01*
X48945803Y-57234129D01*
X49112430Y-57113068D01*
X49258068Y-56967430D01*
X49379129Y-56800803D01*
X49472634Y-56617290D01*
X49536280Y-56421408D01*
X49568500Y-56217981D01*
X49568500Y-56012019D01*
X49545769Y-55868500D01*
X49536280Y-55808591D01*
X49472632Y-55612705D01*
X49419536Y-55508500D01*
X49379129Y-55429197D01*
X49331223Y-55363260D01*
X49258073Y-55262576D01*
X49258069Y-55262571D01*
X49204819Y-55209321D01*
X49171334Y-55147998D01*
X49168500Y-55121640D01*
X49168500Y-53767675D01*
X49188185Y-53700636D01*
X49204819Y-53679994D01*
X50377994Y-52506819D01*
X50439317Y-52473334D01*
X50465675Y-52470500D01*
X54449350Y-52470500D01*
X54516389Y-52490185D01*
X54537031Y-52506819D01*
X54552142Y-52521930D01*
X54712402Y-52638366D01*
X54780039Y-52672829D01*
X54888898Y-52728296D01*
X54888900Y-52728296D01*
X54888903Y-52728298D01*
X54940279Y-52744991D01*
X55077299Y-52789512D01*
X55272949Y-52820500D01*
X55272954Y-52820500D01*
X55471051Y-52820500D01*
X55666700Y-52789512D01*
X55691038Y-52781604D01*
X55855097Y-52728298D01*
X56031598Y-52638366D01*
X56191858Y-52521930D01*
X56331930Y-52381858D01*
X56448366Y-52221598D01*
X56538298Y-52045097D01*
X56599512Y-51856700D01*
X56611834Y-51778903D01*
X56630500Y-51661051D01*
X56630500Y-51462948D01*
X56599512Y-51267299D01*
X56558739Y-51141815D01*
X56538298Y-51078903D01*
X56538296Y-51078900D01*
X56538296Y-51078898D01*
X56453184Y-50911858D01*
X56448366Y-50902402D01*
X56331930Y-50742142D01*
X56191858Y-50602070D01*
X56031598Y-50485634D01*
X55855101Y-50395703D01*
X55666700Y-50334487D01*
X55471051Y-50303500D01*
X55471046Y-50303500D01*
X55272954Y-50303500D01*
X55272949Y-50303500D01*
X55077299Y-50334487D01*
X54888898Y-50395703D01*
X54712401Y-50485634D01*
X54653995Y-50528069D01*
X54552142Y-50602070D01*
X54552140Y-50602072D01*
X54552139Y-50602072D01*
X54537031Y-50617181D01*
X54475708Y-50650666D01*
X54449350Y-50653500D01*
X49948516Y-50653500D01*
X49773006Y-50688411D01*
X49772993Y-50688415D01*
X49739842Y-50702146D01*
X49724574Y-50708471D01*
X49607668Y-50756894D01*
X49607666Y-50756895D01*
X49458865Y-50856321D01*
X49458861Y-50856324D01*
X47554324Y-52760861D01*
X47554321Y-52760865D01*
X47454898Y-52909660D01*
X47391812Y-53061966D01*
X47391810Y-53061970D01*
X47386415Y-53074992D01*
X47386411Y-53075006D01*
X47351500Y-53250516D01*
X47351500Y-55121640D01*
X47331815Y-55188679D01*
X47315181Y-55209321D01*
X47261930Y-55262571D01*
X47261926Y-55262576D01*
X47140873Y-55429193D01*
X47047367Y-55612705D01*
X46983719Y-55808591D01*
X46951500Y-56012019D01*
X46951500Y-56217980D01*
X46983719Y-56421408D01*
X47047367Y-56617294D01*
X47072645Y-56666903D01*
X47138794Y-56796727D01*
X47140873Y-56800806D01*
X47261926Y-56967423D01*
X47261930Y-56967428D01*
X47407571Y-57113069D01*
X47407576Y-57113073D01*
X47518401Y-57193591D01*
X47574197Y-57234129D01*
X47691128Y-57293709D01*
X47757705Y-57327632D01*
X47757707Y-57327632D01*
X47757710Y-57327634D01*
X47830804Y-57351383D01*
X47925242Y-57382069D01*
X47982917Y-57421507D01*
X48010115Y-57485866D01*
X47998200Y-57554712D01*
X47950956Y-57606188D01*
X47925242Y-57617931D01*
X47757705Y-57672367D01*
X47574193Y-57765873D01*
X47407576Y-57886926D01*
X47407571Y-57886930D01*
X47354321Y-57940181D01*
X47292998Y-57973666D01*
X47266640Y-57976500D01*
X46612675Y-57976500D01*
X46545636Y-57956815D01*
X46524994Y-57940181D01*
X45902819Y-57318006D01*
X45869334Y-57256683D01*
X45866500Y-57230325D01*
X45866500Y-49120145D01*
X45886185Y-49053106D01*
X45938989Y-49007351D01*
X46008147Y-48997407D01*
X46071703Y-49026432D01*
X46095494Y-49054173D01*
X46217884Y-49248956D01*
X46324187Y-49382257D01*
X46965747Y-48740697D01*
X47039588Y-48842330D01*
X47217670Y-49020412D01*
X47319300Y-49094251D01*
X46677741Y-49735810D01*
X46677741Y-49735811D01*
X46811043Y-49842115D01*
X47048799Y-49991507D01*
X47301782Y-50113337D01*
X47566819Y-50206077D01*
X47566821Y-50206078D01*
X47840575Y-50268560D01*
X47840587Y-50268562D01*
X48119598Y-50299999D01*
X48119600Y-50300000D01*
X48400400Y-50300000D01*
X48400401Y-50299999D01*
X48679412Y-50268562D01*
X48679424Y-50268560D01*
X48953178Y-50206078D01*
X48953180Y-50206077D01*
X49218217Y-50113337D01*
X49471200Y-49991507D01*
X49708956Y-49842116D01*
X49842257Y-49735810D01*
X49200698Y-49094251D01*
X49302330Y-49020412D01*
X49480412Y-48842330D01*
X49554251Y-48740698D01*
X50195810Y-49382257D01*
X50302116Y-49248956D01*
X50451507Y-49011200D01*
X50573337Y-48758217D01*
X50666077Y-48493180D01*
X50666078Y-48493178D01*
X50728560Y-48219424D01*
X50728562Y-48219412D01*
X50759999Y-47940401D01*
X50760000Y-47940399D01*
X50760000Y-47659600D01*
X50759999Y-47659598D01*
X50728562Y-47380587D01*
X50728560Y-47380575D01*
X50666078Y-47106821D01*
X50666077Y-47106819D01*
X50573337Y-46841782D01*
X50451507Y-46588799D01*
X50302115Y-46351043D01*
X50195810Y-46217741D01*
X49554251Y-46859300D01*
X49480412Y-46757670D01*
X49302330Y-46579588D01*
X49200697Y-46505747D01*
X49842257Y-45864187D01*
X49708956Y-45757884D01*
X49471200Y-45608492D01*
X49218217Y-45486662D01*
X48953180Y-45393922D01*
X48953178Y-45393921D01*
X48679424Y-45331439D01*
X48679412Y-45331437D01*
X48400401Y-45300000D01*
X48119598Y-45300000D01*
X47840587Y-45331437D01*
X47840575Y-45331439D01*
X47566821Y-45393921D01*
X47566819Y-45393922D01*
X47301782Y-45486662D01*
X47048799Y-45608492D01*
X46811043Y-45757884D01*
X46677741Y-45864187D01*
X47319301Y-46505747D01*
X47217670Y-46579588D01*
X47039588Y-46757670D01*
X46965747Y-46859301D01*
X46324187Y-46217741D01*
X46217884Y-46351043D01*
X46095494Y-46545826D01*
X46043159Y-46592117D01*
X45974106Y-46602765D01*
X45910257Y-46574390D01*
X45871885Y-46516001D01*
X45866500Y-46479854D01*
X45866500Y-44623675D01*
X45886185Y-44556636D01*
X45902819Y-44535994D01*
X46313994Y-44124819D01*
X46375317Y-44091334D01*
X46401675Y-44088500D01*
X64227261Y-44088500D01*
X64294300Y-44108185D01*
X64340055Y-44160989D01*
X64349999Y-44230147D01*
X64349734Y-44231898D01*
X64331500Y-44347020D01*
X64331500Y-44552980D01*
X64363719Y-44756408D01*
X64427367Y-44952294D01*
X64520873Y-45135806D01*
X64641926Y-45302423D01*
X64641930Y-45302428D01*
X64787571Y-45448069D01*
X64787576Y-45448073D01*
X64954195Y-45569128D01*
X65033459Y-45609516D01*
X65084254Y-45657490D01*
X65101049Y-45725311D01*
X65078511Y-45791446D01*
X65033459Y-45830484D01*
X64954195Y-45870871D01*
X64787576Y-45991926D01*
X64787571Y-45991930D01*
X64641930Y-46137571D01*
X64641926Y-46137576D01*
X64520873Y-46304193D01*
X64427367Y-46487705D01*
X64363719Y-46683591D01*
X64331500Y-46887019D01*
X64331500Y-47092980D01*
X64363719Y-47296408D01*
X64427367Y-47492294D01*
X64471369Y-47578650D01*
X64512541Y-47659455D01*
X64520873Y-47675806D01*
X64641926Y-47842423D01*
X64641930Y-47842428D01*
X64787571Y-47988069D01*
X64787576Y-47988073D01*
X64954195Y-48109128D01*
X65033459Y-48149516D01*
X65084254Y-48197490D01*
X65101049Y-48265311D01*
X65078511Y-48331446D01*
X65033459Y-48370484D01*
X64954195Y-48410871D01*
X64787576Y-48531926D01*
X64787571Y-48531930D01*
X64641930Y-48677571D01*
X64641926Y-48677576D01*
X64520873Y-48844193D01*
X64427367Y-49027705D01*
X64363719Y-49223591D01*
X64331500Y-49427019D01*
X64331500Y-49632980D01*
X64363719Y-49836408D01*
X64427367Y-50032294D01*
X64471163Y-50118247D01*
X64515915Y-50206077D01*
X64520873Y-50215806D01*
X64641926Y-50382423D01*
X64641930Y-50382428D01*
X64787571Y-50528069D01*
X64787576Y-50528073D01*
X64954195Y-50649128D01*
X65033459Y-50689516D01*
X65084254Y-50737490D01*
X65101049Y-50805311D01*
X65078511Y-50871446D01*
X65033459Y-50910484D01*
X64954195Y-50950871D01*
X64787576Y-51071926D01*
X64787571Y-51071930D01*
X64641930Y-51217571D01*
X64641926Y-51217576D01*
X64520873Y-51384193D01*
X64427367Y-51567705D01*
X64363719Y-51763591D01*
X64331500Y-51967019D01*
X64331500Y-52172981D01*
X64331821Y-52175006D01*
X64363719Y-52376408D01*
X64427367Y-52572294D01*
X64479890Y-52675374D01*
X64519848Y-52753796D01*
X64520873Y-52755806D01*
X64641926Y-52922423D01*
X64641930Y-52922428D01*
X64787571Y-53068069D01*
X64787576Y-53068073D01*
X64954195Y-53189128D01*
X65033459Y-53229516D01*
X65084254Y-53277490D01*
X65101049Y-53345311D01*
X65078511Y-53411446D01*
X65033459Y-53450484D01*
X64954195Y-53490871D01*
X64787576Y-53611926D01*
X64787571Y-53611930D01*
X64641930Y-53757571D01*
X64641926Y-53757576D01*
X64520873Y-53924193D01*
X64427367Y-54107705D01*
X64363719Y-54303591D01*
X64331500Y-54507019D01*
X64331500Y-54712980D01*
X64363719Y-54916408D01*
X64427367Y-55112294D01*
X64458300Y-55173002D01*
X64517806Y-55289788D01*
X64520873Y-55295806D01*
X64641926Y-55462423D01*
X64641930Y-55462428D01*
X64787571Y-55608069D01*
X64787576Y-55608073D01*
X64954195Y-55729128D01*
X64954197Y-55729129D01*
X65033458Y-55769514D01*
X65084254Y-55817488D01*
X65101050Y-55885309D01*
X65078513Y-55951444D01*
X65033460Y-55990483D01*
X64954195Y-56030871D01*
X64787576Y-56151926D01*
X64787571Y-56151930D01*
X64641930Y-56297571D01*
X64641926Y-56297576D01*
X64520870Y-56464197D01*
X64520869Y-56464198D01*
X64490503Y-56523795D01*
X64442529Y-56574591D01*
X64380019Y-56591500D01*
X52093360Y-56591500D01*
X52026321Y-56571815D01*
X52005679Y-56555181D01*
X51952428Y-56501930D01*
X51952423Y-56501926D01*
X51785806Y-56380873D01*
X51785805Y-56380872D01*
X51785803Y-56380871D01*
X51728496Y-56351671D01*
X51602294Y-56287367D01*
X51434757Y-56232931D01*
X51377082Y-56193493D01*
X51349884Y-56129134D01*
X51361799Y-56060288D01*
X51409043Y-56008812D01*
X51434757Y-55997069D01*
X51465923Y-55986942D01*
X51602290Y-55942634D01*
X51676341Y-55904903D01*
X51721261Y-55882015D01*
X51777556Y-55868500D01*
X59027051Y-55868500D01*
X59222700Y-55837512D01*
X59411097Y-55776298D01*
X59587598Y-55686366D01*
X59747858Y-55569930D01*
X59887930Y-55429858D01*
X60004366Y-55269598D01*
X60094298Y-55093097D01*
X60155512Y-54904700D01*
X60179761Y-54751598D01*
X60186500Y-54709051D01*
X60186500Y-54510948D01*
X60155512Y-54315299D01*
X60105860Y-54162488D01*
X60094298Y-54126903D01*
X60094296Y-54126900D01*
X60094296Y-54126898D01*
X60004365Y-53950401D01*
X59994081Y-53936246D01*
X59887930Y-53790142D01*
X59747858Y-53650070D01*
X59587598Y-53533634D01*
X59548813Y-53513872D01*
X59411101Y-53443703D01*
X59222700Y-53382487D01*
X59027051Y-53351500D01*
X59027046Y-53351500D01*
X51120954Y-53351500D01*
X51120949Y-53351500D01*
X50925299Y-53382488D01*
X50925296Y-53382488D01*
X50864087Y-53402377D01*
X50864086Y-53402377D01*
X50736908Y-53443698D01*
X50560406Y-53533630D01*
X50555654Y-53537083D01*
X50539076Y-53547240D01*
X50414195Y-53610871D01*
X50247576Y-53731926D01*
X50247571Y-53731930D01*
X50101930Y-53877571D01*
X50101926Y-53877576D01*
X49980873Y-54044193D01*
X49887367Y-54227705D01*
X49823719Y-54423591D01*
X49791500Y-54627019D01*
X49791500Y-54832980D01*
X49823719Y-55036408D01*
X49887367Y-55232294D01*
X49920368Y-55297060D01*
X49975940Y-55406126D01*
X49980873Y-55415806D01*
X50101926Y-55582423D01*
X50101930Y-55582428D01*
X50247571Y-55728069D01*
X50247576Y-55728073D01*
X50358401Y-55808591D01*
X50414197Y-55849129D01*
X50523649Y-55904898D01*
X50597705Y-55942632D01*
X50597707Y-55942632D01*
X50597710Y-55942634D01*
X50670804Y-55966383D01*
X50765242Y-55997069D01*
X50822917Y-56036507D01*
X50850115Y-56100866D01*
X50838200Y-56169712D01*
X50790956Y-56221188D01*
X50765242Y-56232931D01*
X50597705Y-56287367D01*
X50414193Y-56380873D01*
X50247576Y-56501926D01*
X50247571Y-56501930D01*
X50101930Y-56647571D01*
X50101926Y-56647576D01*
X49980873Y-56814193D01*
X49887367Y-56997705D01*
X49823719Y-57193591D01*
X49791500Y-57397019D01*
X49791500Y-57602980D01*
X49823719Y-57806408D01*
X49887367Y-58002294D01*
X49951671Y-58128496D01*
X49961644Y-58148069D01*
X49980873Y-58185806D01*
X50101926Y-58352423D01*
X50101930Y-58352428D01*
X50247571Y-58498069D01*
X50247576Y-58498073D01*
X50358401Y-58578591D01*
X50414197Y-58619129D01*
X50531128Y-58678709D01*
X50597705Y-58712632D01*
X50597707Y-58712632D01*
X50597710Y-58712634D01*
X50670804Y-58736383D01*
X50765242Y-58767069D01*
X50822917Y-58806507D01*
X50850115Y-58870866D01*
X50838200Y-58939712D01*
X50790956Y-58991188D01*
X50765242Y-59002931D01*
X50597705Y-59057367D01*
X50414193Y-59150873D01*
X50247576Y-59271926D01*
X50247571Y-59271930D01*
X50101930Y-59417571D01*
X50101926Y-59417576D01*
X49980873Y-59584193D01*
X49887367Y-59767705D01*
X49823719Y-59963591D01*
X49796748Y-60133882D01*
X49791500Y-60167019D01*
X49791500Y-60372981D01*
X49794576Y-60392399D01*
X49823719Y-60576408D01*
X49887367Y-60772294D01*
X49951671Y-60898496D01*
X49967253Y-60929077D01*
X49980873Y-60955806D01*
X50101926Y-61122423D01*
X50101930Y-61122428D01*
X50247571Y-61268069D01*
X50247576Y-61268073D01*
X50357578Y-61347993D01*
X50414197Y-61389129D01*
X50518315Y-61442180D01*
X50597705Y-61482632D01*
X50597707Y-61482632D01*
X50597710Y-61482634D01*
X50649831Y-61499569D01*
X50765242Y-61537069D01*
X50822917Y-61576507D01*
X50850115Y-61640866D01*
X50838200Y-61709712D01*
X50790956Y-61761188D01*
X50765242Y-61772931D01*
X50597705Y-61827367D01*
X50414193Y-61920873D01*
X50247576Y-62041926D01*
X50247571Y-62041930D01*
X50101930Y-62187571D01*
X50101926Y-62187576D01*
X49980873Y-62354193D01*
X49887367Y-62537705D01*
X49823719Y-62733591D01*
X49791500Y-62937019D01*
X49791500Y-63142980D01*
X49823719Y-63346408D01*
X49887367Y-63542294D01*
X49951671Y-63668496D01*
X49967253Y-63699077D01*
X49980873Y-63725806D01*
X50101926Y-63892423D01*
X50101930Y-63892428D01*
X50247571Y-64038069D01*
X50247576Y-64038073D01*
X50349135Y-64111859D01*
X50414197Y-64159129D01*
X50597710Y-64252634D01*
X50751448Y-64302586D01*
X50778994Y-64311537D01*
X50836670Y-64350975D01*
X50863868Y-64415333D01*
X50851953Y-64484180D01*
X50804709Y-64535655D01*
X50778995Y-64547399D01*
X50600968Y-64605244D01*
X50418644Y-64698143D01*
X50374077Y-64730523D01*
X50374077Y-64730524D01*
X50970591Y-65327037D01*
X50907007Y-65344075D01*
X50792993Y-65409901D01*
X50699901Y-65502993D01*
X50634075Y-65617007D01*
X50617037Y-65680590D01*
X50020524Y-65084077D01*
X50020523Y-65084077D01*
X49988143Y-65128644D01*
X49895244Y-65310968D01*
X49832009Y-65505582D01*
X49800000Y-65707682D01*
X49800000Y-65912317D01*
X49832009Y-66114417D01*
X49895244Y-66309031D01*
X49988141Y-66491350D01*
X49988147Y-66491359D01*
X50020523Y-66535921D01*
X50020524Y-66535922D01*
X50617037Y-65939408D01*
X50634075Y-66002993D01*
X50699901Y-66117007D01*
X50792993Y-66210099D01*
X50907007Y-66275925D01*
X50970590Y-66292962D01*
X50374076Y-66889474D01*
X50418650Y-66921859D01*
X50600968Y-67014754D01*
X50778995Y-67072600D01*
X50836670Y-67112038D01*
X50863868Y-67176397D01*
X50851953Y-67245243D01*
X50804709Y-67296719D01*
X50778995Y-67308462D01*
X50597705Y-67367367D01*
X50414193Y-67460873D01*
X50247576Y-67581926D01*
X50247571Y-67581930D01*
X50101930Y-67727571D01*
X50101926Y-67727576D01*
X49980873Y-67894193D01*
X49887367Y-68077705D01*
X49823719Y-68273591D01*
X49791500Y-68477019D01*
X49791500Y-68682980D01*
X49823719Y-68886408D01*
X49887367Y-69082294D01*
X49951671Y-69208496D01*
X49967253Y-69239077D01*
X49980873Y-69265806D01*
X50101926Y-69432423D01*
X50101930Y-69432428D01*
X50247571Y-69578069D01*
X50247576Y-69578073D01*
X50293511Y-69611446D01*
X50414197Y-69699129D01*
X50506767Y-69746296D01*
X50597705Y-69792632D01*
X50597707Y-69792632D01*
X50597710Y-69792634D01*
X50643500Y-69807512D01*
X50765242Y-69847069D01*
X50822917Y-69886507D01*
X50850115Y-69950866D01*
X50838200Y-70019712D01*
X50790956Y-70071188D01*
X50765242Y-70082931D01*
X50597705Y-70137367D01*
X50414193Y-70230873D01*
X50247576Y-70351926D01*
X50247571Y-70351930D01*
X50101930Y-70497571D01*
X50101926Y-70497576D01*
X49980873Y-70664193D01*
X49887367Y-70847705D01*
X49823719Y-71043591D01*
X49791500Y-71247019D01*
X49791500Y-71452980D01*
X49823719Y-71656408D01*
X49887367Y-71852294D01*
X49951671Y-71978496D01*
X49967253Y-72009077D01*
X49980873Y-72035806D01*
X50101926Y-72202423D01*
X50101930Y-72202428D01*
X50247571Y-72348069D01*
X50247576Y-72348073D01*
X50293511Y-72381446D01*
X50414197Y-72469129D01*
X50531128Y-72528709D01*
X50597705Y-72562632D01*
X50597707Y-72562632D01*
X50597710Y-72562634D01*
X50670804Y-72586383D01*
X50765242Y-72617069D01*
X50822917Y-72656507D01*
X50850115Y-72720866D01*
X50838200Y-72789712D01*
X50790956Y-72841188D01*
X50765242Y-72852931D01*
X50597705Y-72907367D01*
X50414193Y-73000873D01*
X50247576Y-73121926D01*
X50247571Y-73121930D01*
X50101930Y-73267571D01*
X50101926Y-73267576D01*
X49980873Y-73434193D01*
X49887367Y-73617705D01*
X49823719Y-73813591D01*
X49791500Y-74017019D01*
X49791500Y-74222980D01*
X49823719Y-74426408D01*
X49887367Y-74622294D01*
X49930810Y-74707554D01*
X49974171Y-74792654D01*
X49980873Y-74805806D01*
X50101926Y-74972423D01*
X50101930Y-74972428D01*
X50247571Y-75118069D01*
X50247576Y-75118073D01*
X50392908Y-75223661D01*
X50414197Y-75239129D01*
X50531128Y-75298709D01*
X50597705Y-75332632D01*
X50597707Y-75332632D01*
X50597710Y-75332634D01*
X50670804Y-75356383D01*
X50765242Y-75387069D01*
X50822917Y-75426507D01*
X50850115Y-75490866D01*
X50838200Y-75559712D01*
X50790956Y-75611188D01*
X50765242Y-75622931D01*
X50597705Y-75677367D01*
X50414193Y-75770873D01*
X50247576Y-75891926D01*
X50247571Y-75891930D01*
X50101930Y-76037571D01*
X50101926Y-76037576D01*
X49980873Y-76204193D01*
X49887367Y-76387705D01*
X49823719Y-76583591D01*
X49791500Y-76787019D01*
X49791500Y-76992980D01*
X49823719Y-77196408D01*
X49887367Y-77392294D01*
X49948217Y-77511716D01*
X49979526Y-77573164D01*
X49980873Y-77575806D01*
X50101926Y-77742423D01*
X50101930Y-77742428D01*
X50247571Y-77888069D01*
X50247576Y-77888073D01*
X50392908Y-77993661D01*
X50414197Y-78009129D01*
X50527298Y-78066757D01*
X50597705Y-78102632D01*
X50597707Y-78102632D01*
X50597710Y-78102634D01*
X50666145Y-78124870D01*
X50765242Y-78157069D01*
X50822917Y-78196507D01*
X50850115Y-78260866D01*
X50838200Y-78329712D01*
X50790956Y-78381188D01*
X50765242Y-78392931D01*
X50597705Y-78447367D01*
X50414193Y-78540873D01*
X50247576Y-78661926D01*
X50247571Y-78661930D01*
X50101930Y-78807571D01*
X50101926Y-78807576D01*
X49980873Y-78974193D01*
X49887367Y-79157705D01*
X49823719Y-79353591D01*
X49791500Y-79557019D01*
X49791500Y-79762980D01*
X49823719Y-79966408D01*
X49887367Y-80162294D01*
X49941339Y-80268217D01*
X49967253Y-80319077D01*
X49980873Y-80345806D01*
X50101926Y-80512423D01*
X50101930Y-80512428D01*
X50247571Y-80658069D01*
X50247576Y-80658073D01*
X50317950Y-80709202D01*
X50414197Y-80779129D01*
X50531128Y-80838709D01*
X50597705Y-80872632D01*
X50597707Y-80872632D01*
X50597710Y-80872634D01*
X50670804Y-80896383D01*
X50765242Y-80927069D01*
X50822917Y-80966507D01*
X50850115Y-81030866D01*
X50838200Y-81099712D01*
X50790956Y-81151188D01*
X50765242Y-81162931D01*
X50597705Y-81217367D01*
X50414193Y-81310873D01*
X50247576Y-81431926D01*
X50247571Y-81431930D01*
X50101930Y-81577571D01*
X50101926Y-81577576D01*
X49980873Y-81744193D01*
X49887367Y-81927705D01*
X49823719Y-82123591D01*
X49791500Y-82327019D01*
X49791500Y-82532980D01*
X49823719Y-82736408D01*
X49887367Y-82932294D01*
X49929458Y-83014900D01*
X49980117Y-83114324D01*
X49980873Y-83115806D01*
X50101926Y-83282423D01*
X50101930Y-83282428D01*
X50247571Y-83428069D01*
X50247576Y-83428073D01*
X50327307Y-83486000D01*
X50414197Y-83549129D01*
X50531128Y-83608709D01*
X50597705Y-83642632D01*
X50597707Y-83642632D01*
X50597710Y-83642634D01*
X50670804Y-83666383D01*
X50765242Y-83697069D01*
X50822917Y-83736507D01*
X50850115Y-83800866D01*
X50838200Y-83869712D01*
X50790956Y-83921188D01*
X50765242Y-83932931D01*
X50597705Y-83987367D01*
X50414193Y-84080873D01*
X50247576Y-84201926D01*
X50247571Y-84201930D01*
X50101930Y-84347571D01*
X50101926Y-84347576D01*
X49980873Y-84514193D01*
X49887367Y-84697705D01*
X49823719Y-84893591D01*
X49797837Y-85057007D01*
X49791500Y-85097019D01*
X49791500Y-85302981D01*
X49793868Y-85317931D01*
X49823719Y-85506408D01*
X49887367Y-85702294D01*
X49980873Y-85885806D01*
X50101926Y-86052423D01*
X50101930Y-86052428D01*
X50247571Y-86198069D01*
X50247576Y-86198073D01*
X50358401Y-86278591D01*
X50414197Y-86319129D01*
X50597710Y-86412634D01*
X50619056Y-86419569D01*
X50676730Y-86459007D01*
X50703928Y-86523366D01*
X50692013Y-86592212D01*
X50644768Y-86643688D01*
X50580736Y-86661500D01*
X50251345Y-86661500D01*
X50190797Y-86668011D01*
X50190795Y-86668011D01*
X50053795Y-86719111D01*
X49936739Y-86806739D01*
X49849111Y-86923795D01*
X49798011Y-87060795D01*
X49798011Y-87060797D01*
X49791500Y-87121345D01*
X49791500Y-88818654D01*
X49798011Y-88879202D01*
X49798011Y-88879204D01*
X49827836Y-88959165D01*
X49849111Y-89016204D01*
X49936739Y-89133261D01*
X50053796Y-89220889D01*
X50190799Y-89271989D01*
X50218050Y-89274918D01*
X50251345Y-89278499D01*
X50251362Y-89278500D01*
X51948638Y-89278500D01*
X51948654Y-89278499D01*
X51975692Y-89275591D01*
X52009201Y-89271989D01*
X52146204Y-89220889D01*
X52263261Y-89133261D01*
X52350889Y-89016204D01*
X52372164Y-88959165D01*
X52414036Y-88903232D01*
X52479500Y-88878816D01*
X52488345Y-88878500D01*
X71842325Y-88878500D01*
X71909364Y-88898185D01*
X71930006Y-88914819D01*
X78855181Y-95839994D01*
X78888666Y-95901317D01*
X78891500Y-95927675D01*
X78891500Y-97326640D01*
X78871815Y-97393679D01*
X78855181Y-97414321D01*
X78801930Y-97467571D01*
X78801926Y-97467576D01*
X78680873Y-97634193D01*
X78587367Y-97817705D01*
X78523719Y-98013591D01*
X78495334Y-98192812D01*
X78491500Y-98217019D01*
X78491500Y-98422981D01*
X78492807Y-98431230D01*
X78523719Y-98626408D01*
X78587367Y-98822294D01*
X78680873Y-99005806D01*
X78801926Y-99172423D01*
X78801930Y-99172428D01*
X78947571Y-99318069D01*
X78947576Y-99318073D01*
X79092908Y-99423661D01*
X79114197Y-99439129D01*
X79210412Y-99488153D01*
X79297705Y-99532632D01*
X79297707Y-99532632D01*
X79297710Y-99532634D01*
X79402707Y-99566749D01*
X79493591Y-99596280D01*
X79595305Y-99612390D01*
X79697019Y-99628500D01*
X79697020Y-99628500D01*
X79902980Y-99628500D01*
X79902981Y-99628500D01*
X80106408Y-99596280D01*
X80302290Y-99532634D01*
X80485803Y-99439129D01*
X80652430Y-99318068D01*
X80798068Y-99172430D01*
X80919129Y-99005803D01*
X81012634Y-98822290D01*
X81076280Y-98626408D01*
X81094866Y-98509063D01*
X81099556Y-98479453D01*
X81099556Y-98479452D01*
X81108500Y-98422981D01*
X81108500Y-98217019D01*
X81076280Y-98013591D01*
X81046749Y-97922707D01*
X81012634Y-97817710D01*
X81012632Y-97817707D01*
X81012632Y-97817705D01*
X80958939Y-97712329D01*
X80919129Y-97634197D01*
X80855771Y-97546992D01*
X80798073Y-97467576D01*
X80798069Y-97467571D01*
X80744819Y-97414321D01*
X80711334Y-97352998D01*
X80708500Y-97326640D01*
X80708500Y-95410520D01*
X80708499Y-95410516D01*
X80681477Y-95274668D01*
X80673587Y-95235000D01*
X80632165Y-95135000D01*
X80605103Y-95069664D01*
X80505678Y-94920865D01*
X80505675Y-94920861D01*
X76986969Y-91402155D01*
X86770000Y-91402155D01*
X86770000Y-92050000D01*
X87686988Y-92050000D01*
X87654075Y-92107007D01*
X87620000Y-92234174D01*
X87620000Y-92365826D01*
X87654075Y-92492993D01*
X87686988Y-92550000D01*
X86770000Y-92550000D01*
X86770000Y-93197844D01*
X86776401Y-93257372D01*
X86776403Y-93257379D01*
X86826645Y-93392086D01*
X86826649Y-93392093D01*
X86912809Y-93507187D01*
X86912812Y-93507190D01*
X87027906Y-93593350D01*
X87027913Y-93593354D01*
X87162620Y-93643596D01*
X87162627Y-93643598D01*
X87222155Y-93649999D01*
X87222172Y-93650000D01*
X87870000Y-93650000D01*
X87870000Y-92733012D01*
X87927007Y-92765925D01*
X88054174Y-92800000D01*
X88185826Y-92800000D01*
X88312993Y-92765925D01*
X88370000Y-92733012D01*
X88370000Y-93650000D01*
X89017828Y-93650000D01*
X89017844Y-93649999D01*
X89077372Y-93643598D01*
X89077379Y-93643596D01*
X89212086Y-93593354D01*
X89212093Y-93593350D01*
X89327187Y-93507190D01*
X89327190Y-93507187D01*
X89413350Y-93392093D01*
X89413355Y-93392084D01*
X89459348Y-93268770D01*
X89501219Y-93212836D01*
X89566683Y-93188418D01*
X89634956Y-93203269D01*
X89663211Y-93224421D01*
X89774996Y-93336206D01*
X89947991Y-93461894D01*
X90036883Y-93507187D01*
X90138516Y-93558972D01*
X90138519Y-93558973D01*
X90240200Y-93592010D01*
X90341884Y-93625049D01*
X90553084Y-93658500D01*
X90553085Y-93658500D01*
X90766915Y-93658500D01*
X90766916Y-93658500D01*
X90978116Y-93625049D01*
X91181483Y-93558972D01*
X91372009Y-93461894D01*
X91545004Y-93336206D01*
X91696206Y-93185004D01*
X91821894Y-93012009D01*
X91821896Y-93012004D01*
X91824270Y-93008132D01*
X91876080Y-92961254D01*
X91945009Y-92949829D01*
X92009173Y-92977483D01*
X92035730Y-93008132D01*
X92038103Y-93012005D01*
X92038106Y-93012009D01*
X92163794Y-93185004D01*
X92163796Y-93185006D01*
X92255181Y-93276391D01*
X92288666Y-93337714D01*
X92291500Y-93364072D01*
X92291500Y-98335928D01*
X92271815Y-98402967D01*
X92255181Y-98423609D01*
X92163796Y-98514993D01*
X92038105Y-98687991D01*
X92035727Y-98691873D01*
X91983914Y-98738748D01*
X91914984Y-98750169D01*
X91850822Y-98722512D01*
X91824273Y-98691873D01*
X91821894Y-98687991D01*
X91777151Y-98626408D01*
X91696206Y-98514996D01*
X91545004Y-98363794D01*
X91372009Y-98238106D01*
X91181483Y-98141027D01*
X91181480Y-98141026D01*
X90978117Y-98074951D01*
X90860997Y-98056401D01*
X90766916Y-98041500D01*
X90553084Y-98041500D01*
X90482684Y-98052650D01*
X90341882Y-98074951D01*
X90138519Y-98141026D01*
X90138516Y-98141027D01*
X89947990Y-98238106D01*
X89774997Y-98363793D01*
X89663211Y-98475579D01*
X89601888Y-98509063D01*
X89532196Y-98504079D01*
X89476263Y-98462207D01*
X89459348Y-98431230D01*
X89413354Y-98307913D01*
X89413350Y-98307906D01*
X89327190Y-98192812D01*
X89327187Y-98192809D01*
X89212093Y-98106649D01*
X89212086Y-98106645D01*
X89077379Y-98056403D01*
X89077372Y-98056401D01*
X89017844Y-98050000D01*
X88370000Y-98050000D01*
X88370000Y-98966988D01*
X88312993Y-98934075D01*
X88185826Y-98900000D01*
X88054174Y-98900000D01*
X87927007Y-98934075D01*
X87870000Y-98966988D01*
X87870000Y-98050000D01*
X87222155Y-98050000D01*
X87162627Y-98056401D01*
X87162620Y-98056403D01*
X87027913Y-98106645D01*
X87027906Y-98106649D01*
X86912812Y-98192809D01*
X86912809Y-98192812D01*
X86826649Y-98307906D01*
X86826645Y-98307913D01*
X86776403Y-98442620D01*
X86776401Y-98442627D01*
X86770000Y-98502155D01*
X86770000Y-99150000D01*
X87686988Y-99150000D01*
X87654075Y-99207007D01*
X87620000Y-99334174D01*
X87620000Y-99465826D01*
X87654075Y-99592993D01*
X87686988Y-99650000D01*
X86770000Y-99650000D01*
X86770000Y-100297844D01*
X86776401Y-100357372D01*
X86776403Y-100357379D01*
X86826645Y-100492086D01*
X86826649Y-100492093D01*
X86912809Y-100607187D01*
X86912812Y-100607190D01*
X87027906Y-100693350D01*
X87027913Y-100693354D01*
X87162620Y-100743596D01*
X87162627Y-100743598D01*
X87222155Y-100749999D01*
X87222172Y-100750000D01*
X87870000Y-100750000D01*
X87870000Y-99833012D01*
X87927007Y-99865925D01*
X88054174Y-99900000D01*
X88185826Y-99900000D01*
X88312993Y-99865925D01*
X88370000Y-99833012D01*
X88370000Y-100750000D01*
X89017828Y-100750000D01*
X89017844Y-100749999D01*
X89077372Y-100743598D01*
X89077379Y-100743596D01*
X89212086Y-100693354D01*
X89212093Y-100693350D01*
X89327187Y-100607190D01*
X89327190Y-100607187D01*
X89413350Y-100492093D01*
X89413355Y-100492084D01*
X89459348Y-100368770D01*
X89501219Y-100312836D01*
X89566683Y-100288418D01*
X89634956Y-100303269D01*
X89663211Y-100324421D01*
X89774996Y-100436206D01*
X89947991Y-100561894D01*
X90036883Y-100607187D01*
X90138516Y-100658972D01*
X90138519Y-100658973D01*
X90240200Y-100692010D01*
X90341884Y-100725049D01*
X90553084Y-100758500D01*
X90553085Y-100758500D01*
X90766915Y-100758500D01*
X90766916Y-100758500D01*
X90978116Y-100725049D01*
X91181483Y-100658972D01*
X91372009Y-100561894D01*
X91545004Y-100436206D01*
X91696206Y-100285004D01*
X91821894Y-100112009D01*
X91821896Y-100112004D01*
X91824270Y-100108132D01*
X91876080Y-100061254D01*
X91945009Y-100049829D01*
X92009173Y-100077483D01*
X92035730Y-100108132D01*
X92038103Y-100112005D01*
X92038106Y-100112009D01*
X92163794Y-100285004D01*
X92163796Y-100285006D01*
X92255181Y-100376391D01*
X92288666Y-100437714D01*
X92291500Y-100464072D01*
X92291500Y-104935928D01*
X92271815Y-105002967D01*
X92255181Y-105023609D01*
X92163796Y-105114993D01*
X92038105Y-105287991D01*
X92035727Y-105291873D01*
X91983914Y-105338748D01*
X91914984Y-105350169D01*
X91850822Y-105322512D01*
X91824273Y-105291873D01*
X91821894Y-105287991D01*
X91787253Y-105240312D01*
X91696206Y-105114996D01*
X91545004Y-104963794D01*
X91372009Y-104838106D01*
X91357745Y-104830838D01*
X91181483Y-104741027D01*
X91181480Y-104741026D01*
X90978117Y-104674951D01*
X90860997Y-104656401D01*
X90766916Y-104641500D01*
X90553084Y-104641500D01*
X90482684Y-104652650D01*
X90341882Y-104674951D01*
X90138519Y-104741026D01*
X90138516Y-104741027D01*
X89947990Y-104838106D01*
X89774997Y-104963793D01*
X89663211Y-105075579D01*
X89601888Y-105109063D01*
X89532196Y-105104079D01*
X89476263Y-105062207D01*
X89459348Y-105031230D01*
X89413354Y-104907913D01*
X89413350Y-104907906D01*
X89327190Y-104792812D01*
X89327187Y-104792809D01*
X89212093Y-104706649D01*
X89212086Y-104706645D01*
X89077379Y-104656403D01*
X89077372Y-104656401D01*
X89017844Y-104650000D01*
X88370000Y-104650000D01*
X88370000Y-105566988D01*
X88312993Y-105534075D01*
X88185826Y-105500000D01*
X88054174Y-105500000D01*
X87927007Y-105534075D01*
X87870000Y-105566988D01*
X87870000Y-104650000D01*
X87222155Y-104650000D01*
X87162627Y-104656401D01*
X87162620Y-104656403D01*
X87027913Y-104706645D01*
X87027906Y-104706649D01*
X86912812Y-104792809D01*
X86912809Y-104792812D01*
X86826649Y-104907906D01*
X86826645Y-104907913D01*
X86776403Y-105042620D01*
X86776401Y-105042627D01*
X86770000Y-105102155D01*
X86770000Y-105750000D01*
X87686988Y-105750000D01*
X87654075Y-105807007D01*
X87620000Y-105934174D01*
X87620000Y-106065826D01*
X87654075Y-106192993D01*
X87686988Y-106250000D01*
X86770000Y-106250000D01*
X86770000Y-106897844D01*
X86776401Y-106957372D01*
X86776403Y-106957379D01*
X86826645Y-107092086D01*
X86826649Y-107092093D01*
X86912809Y-107207187D01*
X86912812Y-107207190D01*
X87027906Y-107293350D01*
X87027913Y-107293354D01*
X87162620Y-107343596D01*
X87162627Y-107343598D01*
X87222155Y-107349999D01*
X87222172Y-107350000D01*
X87870000Y-107350000D01*
X87870000Y-106433012D01*
X87927007Y-106465925D01*
X88054174Y-106500000D01*
X88185826Y-106500000D01*
X88312993Y-106465925D01*
X88370000Y-106433012D01*
X88370000Y-107350000D01*
X89017828Y-107350000D01*
X89017844Y-107349999D01*
X89077372Y-107343598D01*
X89077379Y-107343596D01*
X89212086Y-107293354D01*
X89212093Y-107293350D01*
X89327187Y-107207190D01*
X89327190Y-107207187D01*
X89413350Y-107092093D01*
X89413355Y-107092084D01*
X89459348Y-106968770D01*
X89501219Y-106912836D01*
X89566683Y-106888418D01*
X89634956Y-106903269D01*
X89663211Y-106924421D01*
X89774996Y-107036206D01*
X89947991Y-107161894D01*
X90013444Y-107195244D01*
X90138516Y-107258972D01*
X90138519Y-107258973D01*
X90228291Y-107288141D01*
X90341884Y-107325049D01*
X90553084Y-107358500D01*
X90553085Y-107358500D01*
X90766915Y-107358500D01*
X90766916Y-107358500D01*
X90978116Y-107325049D01*
X91181483Y-107258972D01*
X91372009Y-107161894D01*
X91545004Y-107036206D01*
X91696206Y-106885004D01*
X91821894Y-106712009D01*
X91821896Y-106712004D01*
X91824270Y-106708132D01*
X91876080Y-106661254D01*
X91945009Y-106649829D01*
X92009173Y-106677483D01*
X92035730Y-106708132D01*
X92038103Y-106712005D01*
X92038106Y-106712009D01*
X92163794Y-106885004D01*
X92314996Y-107036206D01*
X92487991Y-107161894D01*
X92553444Y-107195244D01*
X92678516Y-107258972D01*
X92678519Y-107258973D01*
X92768291Y-107288141D01*
X92881884Y-107325049D01*
X93093084Y-107358500D01*
X93093085Y-107358500D01*
X93306915Y-107358500D01*
X93306916Y-107358500D01*
X93518116Y-107325049D01*
X93721483Y-107258972D01*
X93912009Y-107161894D01*
X94085004Y-107036206D01*
X94236206Y-106885004D01*
X94361894Y-106712009D01*
X94458972Y-106521483D01*
X94525049Y-106318116D01*
X94558500Y-106106916D01*
X94558500Y-105893084D01*
X94525049Y-105681884D01*
X94458972Y-105478517D01*
X94458972Y-105478516D01*
X94361893Y-105287990D01*
X94327253Y-105240312D01*
X94236206Y-105114996D01*
X94144819Y-105023609D01*
X94111334Y-104962286D01*
X94108500Y-104935928D01*
X94108500Y-100464072D01*
X94128185Y-100397033D01*
X94144819Y-100376391D01*
X94163838Y-100357372D01*
X94236206Y-100285004D01*
X94361894Y-100112009D01*
X94458972Y-99921483D01*
X94525049Y-99718116D01*
X94558500Y-99506916D01*
X94558500Y-99293084D01*
X94525049Y-99081884D01*
X94458972Y-98878517D01*
X94458972Y-98878516D01*
X94361893Y-98687990D01*
X94317151Y-98626408D01*
X94236206Y-98514996D01*
X94144819Y-98423609D01*
X94111334Y-98362286D01*
X94108500Y-98335928D01*
X94108500Y-93364072D01*
X94128185Y-93297033D01*
X94144819Y-93276391D01*
X94163838Y-93257372D01*
X94236206Y-93185004D01*
X94361894Y-93012009D01*
X94458972Y-92821483D01*
X94525049Y-92618116D01*
X94558500Y-92406916D01*
X94558500Y-92193084D01*
X94525049Y-91981884D01*
X94458972Y-91778517D01*
X94458972Y-91778516D01*
X94379483Y-91622512D01*
X94361894Y-91587991D01*
X94236206Y-91414996D01*
X94085004Y-91263794D01*
X93912009Y-91138106D01*
X93721483Y-91041027D01*
X93721480Y-91041026D01*
X93518117Y-90974951D01*
X93400997Y-90956401D01*
X93306916Y-90941500D01*
X93093084Y-90941500D01*
X93022684Y-90952650D01*
X92881882Y-90974951D01*
X92678519Y-91041026D01*
X92678516Y-91041027D01*
X92487990Y-91138106D01*
X92314993Y-91263796D01*
X92163796Y-91414993D01*
X92038105Y-91587991D01*
X92035727Y-91591873D01*
X91983914Y-91638748D01*
X91914984Y-91650169D01*
X91850822Y-91622512D01*
X91824273Y-91591873D01*
X91821894Y-91587991D01*
X91795444Y-91551586D01*
X91696206Y-91414996D01*
X91545004Y-91263794D01*
X91372009Y-91138106D01*
X91181483Y-91041027D01*
X91181480Y-91041026D01*
X90978117Y-90974951D01*
X90860997Y-90956401D01*
X90766916Y-90941500D01*
X90553084Y-90941500D01*
X90482684Y-90952650D01*
X90341882Y-90974951D01*
X90138519Y-91041026D01*
X90138516Y-91041027D01*
X89947990Y-91138106D01*
X89774997Y-91263793D01*
X89663211Y-91375579D01*
X89601888Y-91409063D01*
X89532196Y-91404079D01*
X89476263Y-91362207D01*
X89459348Y-91331230D01*
X89413354Y-91207913D01*
X89413350Y-91207906D01*
X89327190Y-91092812D01*
X89327187Y-91092809D01*
X89212093Y-91006649D01*
X89212086Y-91006645D01*
X89077379Y-90956403D01*
X89077372Y-90956401D01*
X89017844Y-90950000D01*
X88370000Y-90950000D01*
X88370000Y-91866988D01*
X88312993Y-91834075D01*
X88185826Y-91800000D01*
X88054174Y-91800000D01*
X87927007Y-91834075D01*
X87870000Y-91866988D01*
X87870000Y-90950000D01*
X87222155Y-90950000D01*
X87162627Y-90956401D01*
X87162620Y-90956403D01*
X87027913Y-91006645D01*
X87027906Y-91006649D01*
X86912812Y-91092809D01*
X86912809Y-91092812D01*
X86826649Y-91207906D01*
X86826645Y-91207913D01*
X86776403Y-91342620D01*
X86776401Y-91342627D01*
X86770000Y-91402155D01*
X76986969Y-91402155D01*
X72849138Y-87264324D01*
X72849134Y-87264321D01*
X72700342Y-87164900D01*
X72700329Y-87164893D01*
X72535001Y-87096413D01*
X72534992Y-87096410D01*
X72359483Y-87061500D01*
X72359479Y-87061500D01*
X52488345Y-87061500D01*
X52421306Y-87041815D01*
X52375551Y-86989011D01*
X52372164Y-86980835D01*
X52364752Y-86960963D01*
X52350889Y-86923796D01*
X52263261Y-86806739D01*
X52146204Y-86719111D01*
X52009203Y-86668011D01*
X51948654Y-86661500D01*
X51948638Y-86661500D01*
X51619264Y-86661500D01*
X51552225Y-86641815D01*
X51506470Y-86589011D01*
X51496526Y-86519853D01*
X51525551Y-86456297D01*
X51580943Y-86419569D01*
X51602290Y-86412634D01*
X51785803Y-86319129D01*
X51952430Y-86198068D01*
X52005679Y-86144819D01*
X52067002Y-86111334D01*
X52093360Y-86108500D01*
X72186102Y-86108500D01*
X72253141Y-86128185D01*
X72298896Y-86180989D01*
X72306780Y-86203992D01*
X72308011Y-86209201D01*
X72359111Y-86346204D01*
X72446739Y-86463261D01*
X72563796Y-86550889D01*
X72700799Y-86601989D01*
X72728050Y-86604918D01*
X72761345Y-86608499D01*
X72761362Y-86608500D01*
X74558638Y-86608500D01*
X74558654Y-86608499D01*
X74585692Y-86605591D01*
X74619201Y-86601989D01*
X74756204Y-86550889D01*
X74873261Y-86463261D01*
X74960889Y-86346204D01*
X75011989Y-86209201D01*
X75018500Y-86148638D01*
X75018500Y-86116708D01*
X75021035Y-86104364D01*
X75031749Y-86084186D01*
X75038185Y-86062268D01*
X75053437Y-86043340D01*
X75053802Y-86042654D01*
X75054146Y-86042460D01*
X75054819Y-86041626D01*
X75717037Y-85379408D01*
X75734075Y-85442993D01*
X75799901Y-85557007D01*
X75892993Y-85650099D01*
X76007007Y-85715925D01*
X76070590Y-85732962D01*
X75438282Y-86365269D01*
X75438282Y-86365270D01*
X75492449Y-86404624D01*
X75681782Y-86501095D01*
X75883870Y-86566757D01*
X76093754Y-86600000D01*
X76306246Y-86600000D01*
X76516127Y-86566757D01*
X76516130Y-86566757D01*
X76718217Y-86501095D01*
X76907554Y-86404622D01*
X76961716Y-86365270D01*
X76961717Y-86365270D01*
X76329408Y-85732962D01*
X76392993Y-85715925D01*
X76507007Y-85650099D01*
X76600099Y-85557007D01*
X76665925Y-85442993D01*
X76682962Y-85379408D01*
X77315270Y-86011717D01*
X77315270Y-86011716D01*
X77354622Y-85957554D01*
X77451095Y-85768217D01*
X77516757Y-85566130D01*
X77516757Y-85566127D01*
X77550000Y-85356246D01*
X77550000Y-85143753D01*
X77516757Y-84933872D01*
X77516757Y-84933869D01*
X77451095Y-84731782D01*
X77370960Y-84574510D01*
X77370959Y-84574508D01*
X77354626Y-84542452D01*
X77315270Y-84488282D01*
X77315269Y-84488282D01*
X76682962Y-85120590D01*
X76665925Y-85057007D01*
X76600099Y-84942993D01*
X76507007Y-84849901D01*
X76392993Y-84784075D01*
X76329409Y-84767037D01*
X76961716Y-84134728D01*
X76907550Y-84095375D01*
X76718217Y-83998904D01*
X76516129Y-83933242D01*
X76306246Y-83900000D01*
X76093754Y-83900000D01*
X75883872Y-83933242D01*
X75883869Y-83933242D01*
X75681782Y-83998904D01*
X75492439Y-84095380D01*
X75438282Y-84134727D01*
X75438282Y-84134728D01*
X76070591Y-84767037D01*
X76007007Y-84784075D01*
X75892993Y-84849901D01*
X75799901Y-84942993D01*
X75734075Y-85057007D01*
X75717037Y-85120591D01*
X75054819Y-84458373D01*
X75021334Y-84397050D01*
X75021035Y-84395636D01*
X75018500Y-84383292D01*
X75018500Y-84351362D01*
X75011989Y-84290799D01*
X74960889Y-84153796D01*
X74873261Y-84036739D01*
X74756204Y-83949111D01*
X74619203Y-83898011D01*
X74558654Y-83891500D01*
X74558638Y-83891500D01*
X72761362Y-83891500D01*
X72761345Y-83891500D01*
X72700797Y-83898011D01*
X72700795Y-83898011D01*
X72563795Y-83949111D01*
X72446739Y-84036739D01*
X72359111Y-84153795D01*
X72337836Y-84210835D01*
X72295964Y-84266768D01*
X72230500Y-84291184D01*
X72221655Y-84291500D01*
X52093360Y-84291500D01*
X52026321Y-84271815D01*
X52005679Y-84255181D01*
X51952428Y-84201930D01*
X51952423Y-84201926D01*
X51785806Y-84080873D01*
X51785805Y-84080872D01*
X51785803Y-84080871D01*
X51728496Y-84051671D01*
X51602294Y-83987367D01*
X51434757Y-83932931D01*
X51377082Y-83893493D01*
X51349884Y-83829134D01*
X51361799Y-83760288D01*
X51409043Y-83708812D01*
X51434757Y-83697069D01*
X51465923Y-83686942D01*
X51602290Y-83642634D01*
X51785803Y-83549129D01*
X51952430Y-83428068D01*
X52005679Y-83374819D01*
X52067002Y-83341334D01*
X52093360Y-83338500D01*
X82933651Y-83338500D01*
X83000690Y-83358185D01*
X83046445Y-83410989D01*
X83056940Y-83449242D01*
X83058011Y-83459202D01*
X83058011Y-83459204D01*
X83106169Y-83588317D01*
X83109111Y-83596204D01*
X83196739Y-83713261D01*
X83313796Y-83800889D01*
X83450799Y-83851989D01*
X83478050Y-83854918D01*
X83511345Y-83858499D01*
X83511362Y-83858500D01*
X85308638Y-83858500D01*
X85308654Y-83858499D01*
X85335692Y-83855591D01*
X85369201Y-83851989D01*
X85506204Y-83800889D01*
X85623261Y-83713261D01*
X85710889Y-83596204D01*
X85761989Y-83459201D01*
X85768500Y-83398638D01*
X85768500Y-83366708D01*
X85771035Y-83354364D01*
X85781749Y-83334186D01*
X85788185Y-83312268D01*
X85803437Y-83293340D01*
X85803802Y-83292654D01*
X85804146Y-83292460D01*
X85804819Y-83291626D01*
X86467037Y-82629408D01*
X86484075Y-82692993D01*
X86549901Y-82807007D01*
X86642993Y-82900099D01*
X86757007Y-82965925D01*
X86820590Y-82982962D01*
X86188282Y-83615269D01*
X86188282Y-83615270D01*
X86242449Y-83654624D01*
X86431782Y-83751095D01*
X86633870Y-83816757D01*
X86843754Y-83850000D01*
X87056246Y-83850000D01*
X87266127Y-83816757D01*
X87266130Y-83816757D01*
X87468217Y-83751095D01*
X87657554Y-83654622D01*
X87711716Y-83615270D01*
X87711717Y-83615270D01*
X87480129Y-83383682D01*
X98014000Y-83383682D01*
X98014000Y-83588317D01*
X98046009Y-83790417D01*
X98109244Y-83985031D01*
X98202141Y-84167350D01*
X98202147Y-84167359D01*
X98234523Y-84211921D01*
X98234524Y-84211922D01*
X98914000Y-83532446D01*
X98914000Y-83538661D01*
X98941259Y-83640394D01*
X98993920Y-83731606D01*
X99068394Y-83806080D01*
X99159606Y-83858741D01*
X99261339Y-83886000D01*
X99267553Y-83886000D01*
X98588076Y-84565474D01*
X98632650Y-84597859D01*
X98814968Y-84690755D01*
X99009582Y-84753990D01*
X99211683Y-84786000D01*
X99416317Y-84786000D01*
X99618417Y-84753990D01*
X99813031Y-84690755D01*
X99995349Y-84597859D01*
X100039921Y-84565474D01*
X99360447Y-83886000D01*
X99366661Y-83886000D01*
X99468394Y-83858741D01*
X99559606Y-83806080D01*
X99634080Y-83731606D01*
X99686741Y-83640394D01*
X99714000Y-83538661D01*
X99714000Y-83532447D01*
X100393474Y-84211921D01*
X100425859Y-84167349D01*
X100518755Y-83985031D01*
X100581990Y-83790417D01*
X100614000Y-83588317D01*
X100614000Y-83383682D01*
X100581990Y-83181582D01*
X100518755Y-82986968D01*
X100425859Y-82804650D01*
X100393474Y-82760077D01*
X100393474Y-82760076D01*
X99714000Y-83439551D01*
X99714000Y-83433339D01*
X99686741Y-83331606D01*
X99634080Y-83240394D01*
X99559606Y-83165920D01*
X99468394Y-83113259D01*
X99366661Y-83086000D01*
X99360446Y-83086000D01*
X100039922Y-82406524D01*
X100039921Y-82406523D01*
X99995359Y-82374147D01*
X99995350Y-82374141D01*
X99813031Y-82281244D01*
X99618417Y-82218009D01*
X99416317Y-82186000D01*
X99211683Y-82186000D01*
X99009582Y-82218009D01*
X98814968Y-82281244D01*
X98632644Y-82374143D01*
X98588077Y-82406523D01*
X98588077Y-82406524D01*
X99267554Y-83086000D01*
X99261339Y-83086000D01*
X99159606Y-83113259D01*
X99068394Y-83165920D01*
X98993920Y-83240394D01*
X98941259Y-83331606D01*
X98914000Y-83433339D01*
X98914000Y-83439553D01*
X98234524Y-82760077D01*
X98234523Y-82760077D01*
X98202143Y-82804644D01*
X98109244Y-82986968D01*
X98046009Y-83181582D01*
X98014000Y-83383682D01*
X87480129Y-83383682D01*
X87079408Y-82982962D01*
X87142993Y-82965925D01*
X87257007Y-82900099D01*
X87350099Y-82807007D01*
X87415925Y-82692993D01*
X87432962Y-82629408D01*
X88065270Y-83261717D01*
X88065270Y-83261716D01*
X88104622Y-83207554D01*
X88201095Y-83018217D01*
X88266757Y-82816130D01*
X88266757Y-82816127D01*
X88300000Y-82606246D01*
X88300000Y-82393753D01*
X88266757Y-82183872D01*
X88266757Y-82183869D01*
X88201095Y-81981782D01*
X88104624Y-81792449D01*
X88065270Y-81738282D01*
X88065269Y-81738282D01*
X87432962Y-82370590D01*
X87415925Y-82307007D01*
X87350099Y-82192993D01*
X87257007Y-82099901D01*
X87142993Y-82034075D01*
X87079409Y-82017037D01*
X87711716Y-81384728D01*
X87657550Y-81345375D01*
X87468217Y-81248904D01*
X87266129Y-81183242D01*
X87056246Y-81150000D01*
X86843754Y-81150000D01*
X86633872Y-81183242D01*
X86633869Y-81183242D01*
X86431782Y-81248904D01*
X86242439Y-81345380D01*
X86188282Y-81384727D01*
X86188282Y-81384728D01*
X86820591Y-82017037D01*
X86757007Y-82034075D01*
X86642993Y-82099901D01*
X86549901Y-82192993D01*
X86484075Y-82307007D01*
X86467037Y-82370591D01*
X85804819Y-81708373D01*
X85771334Y-81647050D01*
X85771035Y-81645636D01*
X85768500Y-81633292D01*
X85768500Y-81601362D01*
X85761989Y-81540799D01*
X85710889Y-81403796D01*
X85623261Y-81286739D01*
X85506204Y-81199111D01*
X85369203Y-81148011D01*
X85308654Y-81141500D01*
X85308638Y-81141500D01*
X83511362Y-81141500D01*
X83511345Y-81141500D01*
X83450797Y-81148011D01*
X83450795Y-81148011D01*
X83313795Y-81199111D01*
X83196739Y-81286739D01*
X83109111Y-81403794D01*
X83101849Y-81423265D01*
X83095295Y-81440835D01*
X83053425Y-81496767D01*
X82987961Y-81521184D01*
X82979115Y-81521500D01*
X52093360Y-81521500D01*
X52026321Y-81501815D01*
X52005679Y-81485181D01*
X51952428Y-81431930D01*
X51952423Y-81431926D01*
X51785806Y-81310873D01*
X51785805Y-81310872D01*
X51785803Y-81310871D01*
X51728496Y-81281671D01*
X51602294Y-81217367D01*
X51434757Y-81162931D01*
X51377082Y-81123493D01*
X51349884Y-81059134D01*
X51361799Y-80990288D01*
X51409043Y-80938812D01*
X51434757Y-80927069D01*
X51465923Y-80916942D01*
X51602290Y-80872634D01*
X51785803Y-80779129D01*
X51952430Y-80658068D01*
X52005679Y-80604819D01*
X52067002Y-80571334D01*
X52093360Y-80568500D01*
X72181501Y-80568500D01*
X72248540Y-80588185D01*
X72294295Y-80640989D01*
X72304790Y-80679244D01*
X72308011Y-80709202D01*
X72308011Y-80709204D01*
X72334093Y-80779129D01*
X72359111Y-80846204D01*
X72446739Y-80963261D01*
X72563796Y-81050889D01*
X72700799Y-81101989D01*
X72728050Y-81104918D01*
X72761345Y-81108499D01*
X72761362Y-81108500D01*
X74558638Y-81108500D01*
X74558654Y-81108499D01*
X74585692Y-81105591D01*
X74619201Y-81101989D01*
X74756204Y-81050889D01*
X74873261Y-80963261D01*
X74960889Y-80846204D01*
X75011989Y-80709201D01*
X75018500Y-80648638D01*
X75018500Y-80616708D01*
X75021035Y-80604364D01*
X75031749Y-80584186D01*
X75038185Y-80562268D01*
X75053437Y-80543340D01*
X75053802Y-80542654D01*
X75054146Y-80542460D01*
X75054819Y-80541626D01*
X75717037Y-79879408D01*
X75734075Y-79942993D01*
X75799901Y-80057007D01*
X75892993Y-80150099D01*
X76007007Y-80215925D01*
X76070590Y-80232962D01*
X75438282Y-80865269D01*
X75438282Y-80865270D01*
X75492449Y-80904624D01*
X75681782Y-81001095D01*
X75883870Y-81066757D01*
X76093754Y-81100000D01*
X76306246Y-81100000D01*
X76516127Y-81066757D01*
X76516130Y-81066757D01*
X76718217Y-81001095D01*
X76907554Y-80904622D01*
X76961716Y-80865270D01*
X76961717Y-80865270D01*
X76329408Y-80232962D01*
X76392993Y-80215925D01*
X76507007Y-80150099D01*
X76600099Y-80057007D01*
X76665925Y-79942993D01*
X76682962Y-79879408D01*
X77315270Y-80511717D01*
X77315270Y-80511716D01*
X77354622Y-80457554D01*
X77451095Y-80268217D01*
X77516757Y-80066130D01*
X77516757Y-80066127D01*
X77550000Y-79856246D01*
X77550000Y-79643753D01*
X77516757Y-79433872D01*
X77516757Y-79433869D01*
X77451095Y-79231782D01*
X77354624Y-79042449D01*
X77315270Y-78988282D01*
X77315269Y-78988282D01*
X76682962Y-79620590D01*
X76665925Y-79557007D01*
X76600099Y-79442993D01*
X76507007Y-79349901D01*
X76392993Y-79284075D01*
X76329409Y-79267037D01*
X76961716Y-78634728D01*
X76907550Y-78595375D01*
X76718217Y-78498904D01*
X76516129Y-78433242D01*
X76306246Y-78400000D01*
X76093754Y-78400000D01*
X75883872Y-78433242D01*
X75883869Y-78433242D01*
X75681782Y-78498904D01*
X75492439Y-78595380D01*
X75438282Y-78634727D01*
X75438282Y-78634728D01*
X76070591Y-79267037D01*
X76007007Y-79284075D01*
X75892993Y-79349901D01*
X75799901Y-79442993D01*
X75734075Y-79557007D01*
X75717037Y-79620591D01*
X75054819Y-78958373D01*
X75021334Y-78897050D01*
X75021035Y-78895636D01*
X75018500Y-78883292D01*
X75018500Y-78851362D01*
X75011989Y-78790799D01*
X74960889Y-78653796D01*
X74873261Y-78536739D01*
X74756204Y-78449111D01*
X74751526Y-78447366D01*
X74619203Y-78398011D01*
X74558654Y-78391500D01*
X74558638Y-78391500D01*
X72761362Y-78391500D01*
X72761345Y-78391500D01*
X72700797Y-78398011D01*
X72700795Y-78398011D01*
X72563795Y-78449111D01*
X72446739Y-78536739D01*
X72359112Y-78653793D01*
X72359111Y-78653796D01*
X72352755Y-78670836D01*
X72310885Y-78726767D01*
X72245421Y-78751184D01*
X72236575Y-78751500D01*
X52093360Y-78751500D01*
X52026321Y-78731815D01*
X52005679Y-78715181D01*
X51952428Y-78661930D01*
X51952423Y-78661926D01*
X51785806Y-78540873D01*
X51785805Y-78540872D01*
X51785803Y-78540871D01*
X51703439Y-78498904D01*
X51602294Y-78447367D01*
X51434757Y-78392931D01*
X51377082Y-78353493D01*
X51349884Y-78289134D01*
X51361799Y-78220288D01*
X51409043Y-78168812D01*
X51434757Y-78157069D01*
X51476370Y-78143548D01*
X51602290Y-78102634D01*
X51785803Y-78009129D01*
X51952430Y-77888068D01*
X52005679Y-77834819D01*
X52067002Y-77801334D01*
X52093360Y-77798500D01*
X83011330Y-77798500D01*
X83078369Y-77818185D01*
X83110596Y-77848188D01*
X83196739Y-77963261D01*
X83313796Y-78050889D01*
X83450799Y-78101989D01*
X83478050Y-78104918D01*
X83511345Y-78108499D01*
X83511362Y-78108500D01*
X85308638Y-78108500D01*
X85308654Y-78108499D01*
X85339054Y-78105230D01*
X85369201Y-78101989D01*
X85506204Y-78050889D01*
X85623261Y-77963261D01*
X85710889Y-77846204D01*
X85761989Y-77709201D01*
X85768500Y-77648638D01*
X85768500Y-77616708D01*
X85771035Y-77604364D01*
X85781749Y-77584186D01*
X85788185Y-77562268D01*
X85803437Y-77543340D01*
X85803802Y-77542654D01*
X85804146Y-77542460D01*
X85804819Y-77541626D01*
X86467037Y-76879408D01*
X86484075Y-76942993D01*
X86549901Y-77057007D01*
X86642993Y-77150099D01*
X86757007Y-77215925D01*
X86820590Y-77232962D01*
X86188282Y-77865269D01*
X86188282Y-77865270D01*
X86242449Y-77904624D01*
X86431782Y-78001095D01*
X86633870Y-78066757D01*
X86843754Y-78100000D01*
X87056246Y-78100000D01*
X87266127Y-78066757D01*
X87266130Y-78066757D01*
X87468217Y-78001095D01*
X87657554Y-77904622D01*
X87711716Y-77865270D01*
X87711717Y-77865270D01*
X87079408Y-77232962D01*
X87142993Y-77215925D01*
X87257007Y-77150099D01*
X87350099Y-77057007D01*
X87415925Y-76942993D01*
X87432962Y-76879408D01*
X88065270Y-77511717D01*
X88065270Y-77511716D01*
X88104622Y-77457554D01*
X88201095Y-77268217D01*
X88266757Y-77066130D01*
X88266757Y-77066127D01*
X88300000Y-76856246D01*
X88300000Y-76643753D01*
X88266757Y-76433872D01*
X88266757Y-76433869D01*
X88201095Y-76231782D01*
X88104624Y-76042449D01*
X88065270Y-75988282D01*
X88065269Y-75988282D01*
X87432962Y-76620590D01*
X87415925Y-76557007D01*
X87350099Y-76442993D01*
X87257007Y-76349901D01*
X87142993Y-76284075D01*
X87079409Y-76267037D01*
X87711716Y-75634728D01*
X87657550Y-75595375D01*
X87468217Y-75498904D01*
X87266129Y-75433242D01*
X87056246Y-75400000D01*
X86843754Y-75400000D01*
X86633872Y-75433242D01*
X86633869Y-75433242D01*
X86431782Y-75498904D01*
X86242439Y-75595380D01*
X86188282Y-75634727D01*
X86188282Y-75634728D01*
X86820591Y-76267037D01*
X86757007Y-76284075D01*
X86642993Y-76349901D01*
X86549901Y-76442993D01*
X86484075Y-76557007D01*
X86467037Y-76620591D01*
X85804819Y-75958373D01*
X85771334Y-75897050D01*
X85771035Y-75895636D01*
X85768500Y-75883292D01*
X85768500Y-75851362D01*
X85761989Y-75790799D01*
X85710889Y-75653796D01*
X85623261Y-75536739D01*
X85506204Y-75449111D01*
X85369203Y-75398011D01*
X85308654Y-75391500D01*
X85308638Y-75391500D01*
X83511362Y-75391500D01*
X83511345Y-75391500D01*
X83450797Y-75398011D01*
X83450795Y-75398011D01*
X83313795Y-75449111D01*
X83196739Y-75536739D01*
X83109111Y-75653795D01*
X83058011Y-75790795D01*
X83058011Y-75790797D01*
X83051500Y-75851345D01*
X83051500Y-75857500D01*
X83031815Y-75924539D01*
X82979011Y-75970294D01*
X82927500Y-75981500D01*
X52093360Y-75981500D01*
X52026321Y-75961815D01*
X52005679Y-75945181D01*
X51952428Y-75891930D01*
X51952423Y-75891926D01*
X51785806Y-75770873D01*
X51785805Y-75770872D01*
X51785803Y-75770871D01*
X51678769Y-75716334D01*
X51602294Y-75677367D01*
X51434757Y-75622931D01*
X51377082Y-75583493D01*
X51349884Y-75519134D01*
X51361799Y-75450288D01*
X51409043Y-75398812D01*
X51434757Y-75387069D01*
X51465923Y-75376942D01*
X51602290Y-75332634D01*
X51785803Y-75239129D01*
X51952430Y-75118068D01*
X52005679Y-75064819D01*
X52067002Y-75031334D01*
X52093360Y-75028500D01*
X72248569Y-75028500D01*
X72315608Y-75048185D01*
X72353742Y-75089143D01*
X72353796Y-75089104D01*
X72354166Y-75089599D01*
X72357401Y-75093073D01*
X72359109Y-75096202D01*
X72375478Y-75118068D01*
X72446739Y-75213261D01*
X72563796Y-75300889D01*
X72700799Y-75351989D01*
X72728050Y-75354918D01*
X72761345Y-75358499D01*
X72761362Y-75358500D01*
X74558638Y-75358500D01*
X74558654Y-75358499D01*
X74585692Y-75355591D01*
X74619201Y-75351989D01*
X74756204Y-75300889D01*
X74873261Y-75213261D01*
X74960889Y-75096204D01*
X75011989Y-74959201D01*
X75018500Y-74898638D01*
X75018500Y-74866708D01*
X75021035Y-74854364D01*
X75031749Y-74834186D01*
X75038185Y-74812268D01*
X75053437Y-74793340D01*
X75053802Y-74792654D01*
X75054146Y-74792460D01*
X75054819Y-74791626D01*
X75717037Y-74129408D01*
X75734075Y-74192993D01*
X75799901Y-74307007D01*
X75892993Y-74400099D01*
X76007007Y-74465925D01*
X76070590Y-74482962D01*
X75438282Y-75115269D01*
X75438282Y-75115270D01*
X75492449Y-75154624D01*
X75681782Y-75251095D01*
X75883870Y-75316757D01*
X76093754Y-75350000D01*
X76306246Y-75350000D01*
X76516127Y-75316757D01*
X76516130Y-75316757D01*
X76718217Y-75251095D01*
X76907554Y-75154622D01*
X76961716Y-75115270D01*
X76961717Y-75115270D01*
X76329408Y-74482962D01*
X76392993Y-74465925D01*
X76507007Y-74400099D01*
X76600099Y-74307007D01*
X76665925Y-74192993D01*
X76682962Y-74129408D01*
X77315270Y-74761717D01*
X77315270Y-74761716D01*
X77354622Y-74707554D01*
X77451095Y-74518217D01*
X77516757Y-74316130D01*
X77516757Y-74316127D01*
X77550000Y-74106246D01*
X77550000Y-73893753D01*
X77516757Y-73683872D01*
X77516757Y-73683869D01*
X77451095Y-73481782D01*
X77354624Y-73292449D01*
X77315270Y-73238282D01*
X77315269Y-73238282D01*
X76682962Y-73870590D01*
X76665925Y-73807007D01*
X76600099Y-73692993D01*
X76507007Y-73599901D01*
X76392993Y-73534075D01*
X76329409Y-73517037D01*
X76961716Y-72884728D01*
X76907550Y-72845375D01*
X76718217Y-72748904D01*
X76516129Y-72683242D01*
X76306246Y-72650000D01*
X76093754Y-72650000D01*
X75883872Y-72683242D01*
X75883869Y-72683242D01*
X75681782Y-72748904D01*
X75492439Y-72845380D01*
X75438282Y-72884727D01*
X75438282Y-72884728D01*
X76070591Y-73517037D01*
X76007007Y-73534075D01*
X75892993Y-73599901D01*
X75799901Y-73692993D01*
X75734075Y-73807007D01*
X75717037Y-73870591D01*
X75054819Y-73208373D01*
X75021334Y-73147050D01*
X75021035Y-73145636D01*
X75018500Y-73133292D01*
X75018500Y-73101362D01*
X75011989Y-73040799D01*
X74960889Y-72903796D01*
X74873261Y-72786739D01*
X74756204Y-72699111D01*
X74756035Y-72699048D01*
X74619203Y-72648011D01*
X74558654Y-72641500D01*
X74558638Y-72641500D01*
X72761362Y-72641500D01*
X72761345Y-72641500D01*
X72700797Y-72648011D01*
X72700795Y-72648011D01*
X72563795Y-72699111D01*
X72446739Y-72786739D01*
X72359111Y-72903795D01*
X72308011Y-73040795D01*
X72308011Y-73040797D01*
X72301564Y-73100757D01*
X72274825Y-73165307D01*
X72217433Y-73205155D01*
X72178275Y-73211500D01*
X52093360Y-73211500D01*
X52026321Y-73191815D01*
X52005679Y-73175181D01*
X51952428Y-73121930D01*
X51952423Y-73121926D01*
X51785806Y-73000873D01*
X51785805Y-73000872D01*
X51785803Y-73000871D01*
X51718021Y-72966334D01*
X51602294Y-72907367D01*
X51434757Y-72852931D01*
X51377082Y-72813493D01*
X51349884Y-72749134D01*
X51361799Y-72680288D01*
X51409043Y-72628812D01*
X51434757Y-72617069D01*
X51487289Y-72600000D01*
X51602290Y-72562634D01*
X51785803Y-72469129D01*
X51952430Y-72348068D01*
X52005679Y-72294819D01*
X52067002Y-72261334D01*
X52093360Y-72258500D01*
X82990305Y-72258500D01*
X83057344Y-72278185D01*
X83103099Y-72330989D01*
X83106480Y-72339150D01*
X83109111Y-72346204D01*
X83196739Y-72463261D01*
X83313796Y-72550889D01*
X83450799Y-72601989D01*
X83478050Y-72604918D01*
X83511345Y-72608499D01*
X83511362Y-72608500D01*
X85308638Y-72608500D01*
X85308654Y-72608499D01*
X85335692Y-72605591D01*
X85369201Y-72601989D01*
X85506204Y-72550889D01*
X85623261Y-72463261D01*
X85710889Y-72346204D01*
X85761989Y-72209201D01*
X85768500Y-72148638D01*
X85768500Y-72116708D01*
X85771035Y-72104364D01*
X85781749Y-72084186D01*
X85788185Y-72062268D01*
X85803437Y-72043340D01*
X85803802Y-72042654D01*
X85804146Y-72042460D01*
X85804819Y-72041626D01*
X86467037Y-71379408D01*
X86484075Y-71442993D01*
X86549901Y-71557007D01*
X86642993Y-71650099D01*
X86757007Y-71715925D01*
X86820590Y-71732962D01*
X86188282Y-72365269D01*
X86188282Y-72365270D01*
X86242449Y-72404624D01*
X86431782Y-72501095D01*
X86633870Y-72566757D01*
X86843754Y-72600000D01*
X87056246Y-72600000D01*
X87266127Y-72566757D01*
X87266130Y-72566757D01*
X87468217Y-72501095D01*
X87657554Y-72404622D01*
X87711716Y-72365270D01*
X87711717Y-72365270D01*
X87079408Y-71732962D01*
X87142993Y-71715925D01*
X87257007Y-71650099D01*
X87350099Y-71557007D01*
X87415925Y-71442993D01*
X87432962Y-71379408D01*
X88065270Y-72011717D01*
X88065270Y-72011716D01*
X88104622Y-71957554D01*
X88201095Y-71768217D01*
X88266757Y-71566130D01*
X88266758Y-71566125D01*
X88268799Y-71553241D01*
X88268799Y-71553240D01*
X88300000Y-71356246D01*
X88300000Y-71143753D01*
X88266757Y-70933872D01*
X88266757Y-70933869D01*
X88226244Y-70809182D01*
X88201095Y-70731782D01*
X88104624Y-70542449D01*
X88065270Y-70488282D01*
X88065269Y-70488282D01*
X87432962Y-71120590D01*
X87415925Y-71057007D01*
X87350099Y-70942993D01*
X87257007Y-70849901D01*
X87142993Y-70784075D01*
X87079409Y-70767037D01*
X87711716Y-70134728D01*
X87657550Y-70095375D01*
X87468217Y-69998904D01*
X87266129Y-69933242D01*
X87056246Y-69900000D01*
X86843754Y-69900000D01*
X86633872Y-69933242D01*
X86633869Y-69933242D01*
X86431782Y-69998904D01*
X86242439Y-70095380D01*
X86188282Y-70134727D01*
X86188282Y-70134728D01*
X86820591Y-70767037D01*
X86757007Y-70784075D01*
X86642993Y-70849901D01*
X86549901Y-70942993D01*
X86484075Y-71057007D01*
X86467037Y-71120591D01*
X85804819Y-70458373D01*
X85771334Y-70397050D01*
X85771035Y-70395636D01*
X85768500Y-70383292D01*
X85768500Y-70351362D01*
X85761989Y-70290799D01*
X85710889Y-70153796D01*
X85623261Y-70036739D01*
X85506204Y-69949111D01*
X85503359Y-69948050D01*
X85369203Y-69898011D01*
X85308654Y-69891500D01*
X85308638Y-69891500D01*
X83511362Y-69891500D01*
X83511345Y-69891500D01*
X83450797Y-69898011D01*
X83450795Y-69898011D01*
X83313795Y-69949111D01*
X83196739Y-70036739D01*
X83109111Y-70153795D01*
X83058011Y-70290795D01*
X83058010Y-70290798D01*
X83053715Y-70330755D01*
X83026977Y-70395306D01*
X82969585Y-70435155D01*
X82930426Y-70441500D01*
X52093360Y-70441500D01*
X52026321Y-70421815D01*
X52005679Y-70405181D01*
X51952428Y-70351930D01*
X51952423Y-70351926D01*
X51785806Y-70230873D01*
X51785805Y-70230872D01*
X51785803Y-70230871D01*
X51716339Y-70195477D01*
X51602294Y-70137367D01*
X51434755Y-70082930D01*
X51408718Y-70065126D01*
X51381709Y-70048835D01*
X51380096Y-70045554D01*
X51377080Y-70043492D01*
X51364800Y-70014434D01*
X51350888Y-69986130D01*
X51351304Y-69982500D01*
X51349882Y-69979133D01*
X51355261Y-69948050D01*
X51358860Y-69916717D01*
X51361173Y-69913887D01*
X51361797Y-69910287D01*
X51383126Y-69887046D01*
X51403094Y-69862633D01*
X51407537Y-69860448D01*
X51409041Y-69858811D01*
X51434762Y-69847067D01*
X51442463Y-69844565D01*
X51480768Y-69838500D01*
X68899051Y-69838500D01*
X69094700Y-69807512D01*
X69283097Y-69746298D01*
X69459598Y-69656366D01*
X69619858Y-69539930D01*
X69759930Y-69399858D01*
X70664969Y-68494819D01*
X70726292Y-68461334D01*
X70752650Y-68458500D01*
X77430204Y-68458500D01*
X77486499Y-68472016D01*
X77494903Y-68476298D01*
X77623591Y-68518111D01*
X77683299Y-68537512D01*
X77878949Y-68568500D01*
X77878954Y-68568500D01*
X78077051Y-68568500D01*
X78272700Y-68537512D01*
X78461097Y-68476298D01*
X78469501Y-68472016D01*
X78525796Y-68458500D01*
X97107350Y-68458500D01*
X97174389Y-68478185D01*
X97195031Y-68494819D01*
X98019181Y-69318969D01*
X98052666Y-69380292D01*
X98055500Y-69406650D01*
X98055500Y-70195477D01*
X98035815Y-70262516D01*
X97983011Y-70308271D01*
X97913853Y-70318215D01*
X97850297Y-70289190D01*
X97843819Y-70283158D01*
X97792345Y-70231684D01*
X97643124Y-70139643D01*
X97643119Y-70139641D01*
X97476697Y-70084494D01*
X97476690Y-70084493D01*
X97373986Y-70074000D01*
X97024000Y-70074000D01*
X97024000Y-71058314D01*
X97019606Y-71053920D01*
X96928394Y-71001259D01*
X96826661Y-70974000D01*
X96721339Y-70974000D01*
X96619606Y-71001259D01*
X96528394Y-71053920D01*
X96524000Y-71058314D01*
X96524000Y-70074000D01*
X96174028Y-70074000D01*
X96174012Y-70074001D01*
X96071302Y-70084494D01*
X95904880Y-70139641D01*
X95904875Y-70139643D01*
X95755654Y-70231684D01*
X95631684Y-70355654D01*
X95539643Y-70504875D01*
X95539641Y-70504880D01*
X95484494Y-70671302D01*
X95484493Y-70671309D01*
X95474000Y-70774013D01*
X95474000Y-71124000D01*
X96458314Y-71124000D01*
X96453920Y-71128394D01*
X96401259Y-71219606D01*
X96374000Y-71321339D01*
X96374000Y-71426661D01*
X96401259Y-71528394D01*
X96453920Y-71619606D01*
X96458314Y-71624000D01*
X95474001Y-71624000D01*
X95474001Y-71973986D01*
X95484494Y-72076697D01*
X95539641Y-72243119D01*
X95539643Y-72243124D01*
X95631684Y-72392345D01*
X95755654Y-72516315D01*
X95904875Y-72608356D01*
X95904880Y-72608358D01*
X96071302Y-72663505D01*
X96071309Y-72663506D01*
X96174019Y-72673999D01*
X96523999Y-72673999D01*
X96524000Y-72673998D01*
X96524000Y-71689686D01*
X96528394Y-71694080D01*
X96619606Y-71746741D01*
X96721339Y-71774000D01*
X96826661Y-71774000D01*
X96928394Y-71746741D01*
X97019606Y-71694080D01*
X97024000Y-71689686D01*
X97024000Y-72673999D01*
X97373972Y-72673999D01*
X97373986Y-72673998D01*
X97476697Y-72663505D01*
X97643119Y-72608358D01*
X97643124Y-72608356D01*
X97792345Y-72516315D01*
X97843819Y-72464842D01*
X97905142Y-72431357D01*
X97974834Y-72436341D01*
X98030767Y-72478213D01*
X98055184Y-72543677D01*
X98055500Y-72552523D01*
X98055500Y-78105230D01*
X98049431Y-78143548D01*
X98037720Y-78179590D01*
X98005500Y-78383019D01*
X98005500Y-78588980D01*
X98037719Y-78792408D01*
X98101367Y-78988294D01*
X98165671Y-79114496D01*
X98187690Y-79157710D01*
X98194873Y-79171806D01*
X98315926Y-79338423D01*
X98315930Y-79338428D01*
X98461571Y-79484069D01*
X98461576Y-79484073D01*
X98541402Y-79542069D01*
X98628197Y-79605129D01*
X98712126Y-79647893D01*
X98811705Y-79698632D01*
X98811707Y-79698632D01*
X98811710Y-79698634D01*
X98916707Y-79732749D01*
X99007591Y-79762280D01*
X99109305Y-79778390D01*
X99211019Y-79794500D01*
X99211020Y-79794500D01*
X99416980Y-79794500D01*
X99416981Y-79794500D01*
X99620408Y-79762280D01*
X99656451Y-79750568D01*
X99694768Y-79744500D01*
X104867425Y-79744500D01*
X104905743Y-79750569D01*
X105091884Y-79811049D01*
X105303084Y-79844500D01*
X105303085Y-79844500D01*
X105516915Y-79844500D01*
X105516916Y-79844500D01*
X105728116Y-79811049D01*
X105931483Y-79744972D01*
X106122009Y-79647894D01*
X106295004Y-79522206D01*
X106406791Y-79410418D01*
X106468110Y-79376936D01*
X106537802Y-79381920D01*
X106593736Y-79423791D01*
X106610651Y-79454769D01*
X106656645Y-79578086D01*
X106656649Y-79578093D01*
X106742809Y-79693187D01*
X106742812Y-79693190D01*
X106857906Y-79779350D01*
X106857913Y-79779354D01*
X106992620Y-79829596D01*
X106992627Y-79829598D01*
X107052155Y-79835999D01*
X107052172Y-79836000D01*
X107700000Y-79836000D01*
X107700000Y-78919012D01*
X107757007Y-78951925D01*
X107884174Y-78986000D01*
X108015826Y-78986000D01*
X108142993Y-78951925D01*
X108200000Y-78919012D01*
X108200000Y-79836000D01*
X108847828Y-79836000D01*
X108847844Y-79835999D01*
X108907372Y-79829598D01*
X108907379Y-79829596D01*
X109042086Y-79779354D01*
X109042093Y-79779350D01*
X109157187Y-79693190D01*
X109157190Y-79693187D01*
X109243350Y-79578093D01*
X109243354Y-79578086D01*
X109293596Y-79443379D01*
X109293598Y-79443372D01*
X109299999Y-79383844D01*
X109300000Y-79383827D01*
X109300000Y-78736000D01*
X108383012Y-78736000D01*
X108415925Y-78678993D01*
X108450000Y-78551826D01*
X108450000Y-78420174D01*
X108415925Y-78293007D01*
X108383012Y-78236000D01*
X109300000Y-78236000D01*
X109300000Y-77588172D01*
X109299999Y-77588155D01*
X109293598Y-77528627D01*
X109293596Y-77528620D01*
X109243354Y-77393913D01*
X109243350Y-77393906D01*
X109157190Y-77278812D01*
X109157187Y-77278809D01*
X109042093Y-77192649D01*
X109042086Y-77192645D01*
X108907379Y-77142403D01*
X108907372Y-77142401D01*
X108847844Y-77136000D01*
X108200000Y-77136000D01*
X108200000Y-78052988D01*
X108142993Y-78020075D01*
X108015826Y-77986000D01*
X107884174Y-77986000D01*
X107757007Y-78020075D01*
X107700000Y-78052988D01*
X107700000Y-77136000D01*
X107052155Y-77136000D01*
X106992627Y-77142401D01*
X106992620Y-77142403D01*
X106857913Y-77192645D01*
X106857906Y-77192649D01*
X106742812Y-77278809D01*
X106742809Y-77278812D01*
X106656649Y-77393906D01*
X106656645Y-77393913D01*
X106610651Y-77517230D01*
X106568779Y-77573164D01*
X106503315Y-77597581D01*
X106435042Y-77582729D01*
X106406788Y-77561578D01*
X106295006Y-77449796D01*
X106295004Y-77449794D01*
X106122009Y-77324106D01*
X105931483Y-77227027D01*
X105931480Y-77227026D01*
X105728117Y-77160951D01*
X105610997Y-77142401D01*
X105516916Y-77127500D01*
X105303084Y-77127500D01*
X105232684Y-77138650D01*
X105091882Y-77160951D01*
X104905743Y-77221431D01*
X104867425Y-77227500D01*
X100696500Y-77227500D01*
X100629461Y-77207815D01*
X100583706Y-77155011D01*
X100572500Y-77103500D01*
X100572500Y-71549873D01*
X100574027Y-71530475D01*
X100574357Y-71528394D01*
X100582500Y-71476981D01*
X100582500Y-71271019D01*
X100574027Y-71217523D01*
X100572500Y-71198125D01*
X100572500Y-68734948D01*
X100541512Y-68539299D01*
X100496171Y-68399755D01*
X100480298Y-68350903D01*
X100480296Y-68350900D01*
X100480296Y-68350898D01*
X100390365Y-68174401D01*
X100273930Y-68014142D01*
X100133858Y-67874070D01*
X98499858Y-66240070D01*
X98339598Y-66123634D01*
X98339596Y-66123633D01*
X98339577Y-66123621D01*
X98339223Y-66123443D01*
X98163101Y-66033703D01*
X97974700Y-65972487D01*
X97779051Y-65941500D01*
X97779046Y-65941500D01*
X70080954Y-65941500D01*
X70080949Y-65941500D01*
X69885301Y-65972487D01*
X69861741Y-65980142D01*
X69839061Y-65987512D01*
X69839060Y-65987512D01*
X69696909Y-66033698D01*
X69696903Y-66033700D01*
X69520402Y-66123633D01*
X69465458Y-66163553D01*
X69360142Y-66240070D01*
X69360140Y-66240072D01*
X69360139Y-66240072D01*
X68315031Y-67285181D01*
X68253708Y-67318666D01*
X68227350Y-67321500D01*
X51480768Y-67321500D01*
X51478434Y-67321130D01*
X51477223Y-67321449D01*
X51442449Y-67315430D01*
X51428100Y-67310768D01*
X51421000Y-67308461D01*
X51363326Y-67269021D01*
X51336130Y-67204662D01*
X51348046Y-67135816D01*
X51395292Y-67084342D01*
X51421004Y-67072600D01*
X51599029Y-67014755D01*
X51781349Y-66921859D01*
X51825921Y-66889474D01*
X51229409Y-66292962D01*
X51292993Y-66275925D01*
X51407007Y-66210099D01*
X51500099Y-66117007D01*
X51565925Y-66002993D01*
X51582962Y-65939409D01*
X52179474Y-66535921D01*
X52211859Y-66491349D01*
X52304755Y-66309031D01*
X52367990Y-66114417D01*
X52400000Y-65912317D01*
X52400000Y-65707682D01*
X52367990Y-65505582D01*
X52304755Y-65310968D01*
X52211859Y-65128650D01*
X52179474Y-65084077D01*
X52179474Y-65084076D01*
X51582962Y-65680589D01*
X51565925Y-65617007D01*
X51500099Y-65502993D01*
X51407007Y-65409901D01*
X51292993Y-65344075D01*
X51229408Y-65327037D01*
X51825922Y-64730524D01*
X51825921Y-64730523D01*
X51781359Y-64698147D01*
X51781350Y-64698141D01*
X51599031Y-64605244D01*
X51421003Y-64547399D01*
X51394970Y-64529597D01*
X51367966Y-64513314D01*
X51366350Y-64510027D01*
X51363328Y-64507961D01*
X51351053Y-64478915D01*
X51337138Y-64450613D01*
X51337555Y-64446975D01*
X51336130Y-64443602D01*
X51341508Y-64412525D01*
X51345103Y-64381198D01*
X51347420Y-64378363D01*
X51348045Y-64374756D01*
X51369367Y-64351523D01*
X51389331Y-64327109D01*
X51393784Y-64324919D01*
X51395289Y-64323280D01*
X51421000Y-64311538D01*
X51565558Y-64264568D01*
X51603875Y-64258500D01*
X62638954Y-64258500D01*
X62837046Y-64258500D01*
X88986586Y-64258500D01*
X89053625Y-64278185D01*
X89060896Y-64283233D01*
X89073793Y-64292887D01*
X89073793Y-64292888D01*
X89155277Y-64323280D01*
X89210799Y-64343989D01*
X89238050Y-64346918D01*
X89271345Y-64350499D01*
X89271362Y-64350500D01*
X91068638Y-64350500D01*
X91068654Y-64350499D01*
X91095692Y-64347591D01*
X91129201Y-64343989D01*
X91266204Y-64292889D01*
X91266204Y-64292888D01*
X91266206Y-64292888D01*
X91266206Y-64292887D01*
X91270870Y-64289395D01*
X91279104Y-64283233D01*
X91344568Y-64258816D01*
X91353414Y-64258500D01*
X93626954Y-64258500D01*
X103077350Y-64258500D01*
X103144389Y-64278185D01*
X103165031Y-64294819D01*
X104115181Y-65244969D01*
X104148666Y-65306292D01*
X104151500Y-65332650D01*
X104151500Y-70831425D01*
X104145431Y-70869743D01*
X104084951Y-71055882D01*
X104081629Y-71076859D01*
X104051500Y-71267084D01*
X104051500Y-71480916D01*
X104060877Y-71540117D01*
X104084951Y-71692117D01*
X104151026Y-71895480D01*
X104151027Y-71895483D01*
X104226015Y-72042654D01*
X104248106Y-72086009D01*
X104373794Y-72259004D01*
X104524996Y-72410206D01*
X104697991Y-72535894D01*
X104758563Y-72566757D01*
X104888516Y-72632972D01*
X104888519Y-72632973D01*
X104960951Y-72656507D01*
X105091884Y-72699049D01*
X105303084Y-72732500D01*
X105303085Y-72732500D01*
X105516915Y-72732500D01*
X105516916Y-72732500D01*
X105728116Y-72699049D01*
X105931483Y-72632972D01*
X106122009Y-72535894D01*
X106295004Y-72410206D01*
X106406791Y-72298418D01*
X106468110Y-72264936D01*
X106537802Y-72269920D01*
X106593736Y-72311791D01*
X106610651Y-72342769D01*
X106656645Y-72466086D01*
X106656649Y-72466093D01*
X106742809Y-72581187D01*
X106742812Y-72581190D01*
X106857906Y-72667350D01*
X106857913Y-72667354D01*
X106992620Y-72717596D01*
X106992627Y-72717598D01*
X107052155Y-72723999D01*
X107052172Y-72724000D01*
X107700000Y-72724000D01*
X107700000Y-71807012D01*
X107757007Y-71839925D01*
X107884174Y-71874000D01*
X108015826Y-71874000D01*
X108142993Y-71839925D01*
X108200000Y-71807012D01*
X108200000Y-72724000D01*
X108847828Y-72724000D01*
X108847844Y-72723999D01*
X108907372Y-72717598D01*
X108907379Y-72717596D01*
X109042086Y-72667354D01*
X109042093Y-72667350D01*
X109157187Y-72581190D01*
X109157190Y-72581187D01*
X109243350Y-72466093D01*
X109243354Y-72466086D01*
X109293596Y-72331379D01*
X109293598Y-72331372D01*
X109299999Y-72271844D01*
X109300000Y-72271827D01*
X109300000Y-71624000D01*
X108383012Y-71624000D01*
X108415925Y-71566993D01*
X108450000Y-71439826D01*
X108450000Y-71308174D01*
X108415925Y-71181007D01*
X108383012Y-71124000D01*
X109300000Y-71124000D01*
X109300000Y-70476172D01*
X109299999Y-70476155D01*
X109293598Y-70416627D01*
X109293596Y-70416620D01*
X109243354Y-70281913D01*
X109243350Y-70281906D01*
X109157190Y-70166812D01*
X109157187Y-70166809D01*
X109042093Y-70080649D01*
X109042086Y-70080645D01*
X108907379Y-70030403D01*
X108907372Y-70030401D01*
X108847844Y-70024000D01*
X108200000Y-70024000D01*
X108200000Y-70940988D01*
X108142993Y-70908075D01*
X108015826Y-70874000D01*
X107884174Y-70874000D01*
X107757007Y-70908075D01*
X107700000Y-70940988D01*
X107700000Y-70024000D01*
X107052155Y-70024000D01*
X106992627Y-70030401D01*
X106992620Y-70030403D01*
X106857913Y-70080645D01*
X106851928Y-70083914D01*
X106783655Y-70098766D01*
X106718190Y-70074350D01*
X106676318Y-70018416D01*
X106668500Y-69975082D01*
X106668500Y-64660948D01*
X106637512Y-64465299D01*
X106608092Y-64374756D01*
X106576298Y-64276903D01*
X106576296Y-64276900D01*
X106576296Y-64276898D01*
X106553422Y-64232007D01*
X106540323Y-64206298D01*
X106486367Y-64100402D01*
X106369930Y-63940142D01*
X105517469Y-63087681D01*
X105513130Y-63079735D01*
X105505883Y-63074310D01*
X105496648Y-63049550D01*
X105483984Y-63026358D01*
X105484629Y-63017328D01*
X105481466Y-63008846D01*
X105487082Y-62983025D01*
X105488968Y-62956666D01*
X105494786Y-62947612D01*
X105496318Y-62940573D01*
X105517469Y-62912319D01*
X105532106Y-62897682D01*
X107350000Y-62897682D01*
X107350000Y-63102317D01*
X107382009Y-63304417D01*
X107445244Y-63499031D01*
X107538141Y-63681350D01*
X107538147Y-63681359D01*
X107570523Y-63725921D01*
X107570524Y-63725922D01*
X108250000Y-63046446D01*
X108250000Y-63052661D01*
X108277259Y-63154394D01*
X108329920Y-63245606D01*
X108404394Y-63320080D01*
X108495606Y-63372741D01*
X108597339Y-63400000D01*
X108603553Y-63400000D01*
X107924076Y-64079474D01*
X107968650Y-64111859D01*
X108150968Y-64204755D01*
X108345582Y-64267990D01*
X108547683Y-64300000D01*
X108752317Y-64300000D01*
X108954417Y-64267990D01*
X109149031Y-64204755D01*
X109331349Y-64111859D01*
X109375921Y-64079474D01*
X108696447Y-63400000D01*
X108702661Y-63400000D01*
X108804394Y-63372741D01*
X108895606Y-63320080D01*
X108970080Y-63245606D01*
X109022741Y-63154394D01*
X109050000Y-63052661D01*
X109050000Y-63046447D01*
X109729474Y-63725921D01*
X109761859Y-63681349D01*
X109854755Y-63499031D01*
X109917990Y-63304417D01*
X109950000Y-63102317D01*
X109950000Y-62897682D01*
X109917990Y-62695582D01*
X109854755Y-62500968D01*
X109761859Y-62318650D01*
X109729474Y-62274077D01*
X109729474Y-62274076D01*
X109050000Y-62953551D01*
X109050000Y-62947339D01*
X109022741Y-62845606D01*
X108970080Y-62754394D01*
X108895606Y-62679920D01*
X108804394Y-62627259D01*
X108702661Y-62600000D01*
X108696446Y-62600000D01*
X109375922Y-61920524D01*
X109375921Y-61920523D01*
X109331359Y-61888147D01*
X109331350Y-61888141D01*
X109149031Y-61795244D01*
X108954417Y-61732009D01*
X108752317Y-61700000D01*
X108547683Y-61700000D01*
X108345582Y-61732009D01*
X108150968Y-61795244D01*
X107968644Y-61888143D01*
X107924077Y-61920523D01*
X107924077Y-61920524D01*
X108603554Y-62600000D01*
X108597339Y-62600000D01*
X108495606Y-62627259D01*
X108404394Y-62679920D01*
X108329920Y-62754394D01*
X108277259Y-62845606D01*
X108250000Y-62947339D01*
X108250000Y-62953553D01*
X107570524Y-62274077D01*
X107570523Y-62274077D01*
X107538143Y-62318644D01*
X107445244Y-62500968D01*
X107382009Y-62695582D01*
X107350000Y-62897682D01*
X105532106Y-62897682D01*
X106549686Y-61880102D01*
X108076827Y-60352961D01*
X109609930Y-58819858D01*
X109726367Y-58659598D01*
X109816299Y-58483096D01*
X109877512Y-58294699D01*
X109900736Y-58148068D01*
X109908500Y-58099051D01*
X109908500Y-55468195D01*
X109928185Y-55401156D01*
X109958188Y-55368929D01*
X109965761Y-55363261D01*
X110053389Y-55246204D01*
X110104489Y-55109201D01*
X110108091Y-55075692D01*
X110110999Y-55048654D01*
X110111000Y-55048637D01*
X110111000Y-52951362D01*
X110110999Y-52951345D01*
X110106517Y-52909664D01*
X110104489Y-52890799D01*
X110093559Y-52861496D01*
X110078453Y-52820995D01*
X110053389Y-52753796D01*
X109965761Y-52636739D01*
X109965757Y-52636736D01*
X109965755Y-52636734D01*
X109958187Y-52631068D01*
X109916317Y-52575133D01*
X109908500Y-52531803D01*
X109908500Y-52162948D01*
X109877512Y-51967299D01*
X109816296Y-51778898D01*
X109756247Y-51661046D01*
X109726366Y-51602402D01*
X109609930Y-51442142D01*
X109469858Y-51302070D01*
X108228819Y-50061031D01*
X108195334Y-49999708D01*
X108192500Y-49973350D01*
X108192500Y-49206190D01*
X108210964Y-49141089D01*
X108211318Y-49140514D01*
X108216115Y-49132738D01*
X108237497Y-49068207D01*
X108277268Y-49010763D01*
X108341784Y-48983939D01*
X108364932Y-48983593D01*
X108394525Y-48985921D01*
X109074000Y-48306446D01*
X109074000Y-48312661D01*
X109101259Y-48414394D01*
X109153920Y-48505606D01*
X109228394Y-48580080D01*
X109319606Y-48632741D01*
X109421339Y-48660000D01*
X109427553Y-48660000D01*
X108748076Y-49339474D01*
X108792650Y-49371859D01*
X108974968Y-49464755D01*
X109169582Y-49527990D01*
X109371683Y-49560000D01*
X109576317Y-49560000D01*
X109778417Y-49527990D01*
X109973031Y-49464755D01*
X110155349Y-49371859D01*
X110199921Y-49339474D01*
X109520447Y-48660000D01*
X109526661Y-48660000D01*
X109628394Y-48632741D01*
X109719606Y-48580080D01*
X109794080Y-48505606D01*
X109846741Y-48414394D01*
X109874000Y-48312661D01*
X109874000Y-48306447D01*
X110553474Y-48985921D01*
X110585859Y-48941349D01*
X110678755Y-48759031D01*
X110741990Y-48564417D01*
X110774000Y-48362317D01*
X110774000Y-48157682D01*
X110741990Y-47955582D01*
X110678755Y-47760968D01*
X110585859Y-47578650D01*
X110553474Y-47534077D01*
X110553474Y-47534076D01*
X109874000Y-48213551D01*
X109874000Y-48207339D01*
X109846741Y-48105606D01*
X109794080Y-48014394D01*
X109719606Y-47939920D01*
X109628394Y-47887259D01*
X109526661Y-47860000D01*
X109520446Y-47860000D01*
X110199922Y-47180524D01*
X110199921Y-47180523D01*
X110155359Y-47148147D01*
X110155350Y-47148141D01*
X109973031Y-47055244D01*
X109778417Y-46992009D01*
X109576317Y-46960000D01*
X109371683Y-46960000D01*
X109169582Y-46992009D01*
X108974968Y-47055244D01*
X108792644Y-47148143D01*
X108748077Y-47180523D01*
X108748077Y-47180524D01*
X109427554Y-47860000D01*
X109421339Y-47860000D01*
X109319606Y-47887259D01*
X109228394Y-47939920D01*
X109153920Y-48014394D01*
X109101259Y-48105606D01*
X109074000Y-48207339D01*
X109074000Y-48213553D01*
X108394524Y-47534077D01*
X108364932Y-47536406D01*
X108344730Y-47532162D01*
X108324099Y-47532824D01*
X108311230Y-47525124D01*
X108296555Y-47522042D01*
X108281854Y-47507549D01*
X108264141Y-47496952D01*
X108254460Y-47480544D01*
X108246798Y-47472990D01*
X108244117Y-47467888D01*
X108240243Y-47460079D01*
X108216115Y-47387262D01*
X108123030Y-47236348D01*
X107997652Y-47110970D01*
X107846738Y-47017885D01*
X107768648Y-46992009D01*
X107678427Y-46962113D01*
X107574545Y-46951500D01*
X106373462Y-46951500D01*
X106373446Y-46951501D01*
X106269572Y-46962113D01*
X106101264Y-47017884D01*
X106101259Y-47017886D01*
X105950346Y-47110971D01*
X105824971Y-47236346D01*
X105731886Y-47387259D01*
X105731884Y-47387264D01*
X105676113Y-47555572D01*
X105665500Y-47659447D01*
X105665500Y-48860537D01*
X105665501Y-48860553D01*
X105674858Y-48952140D01*
X105675500Y-48964742D01*
X105675500Y-50645051D01*
X105706487Y-50840700D01*
X105767703Y-51029101D01*
X105793077Y-51078898D01*
X105801639Y-51095702D01*
X105857634Y-51205598D01*
X105974070Y-51365858D01*
X105974072Y-51365860D01*
X107221730Y-52613518D01*
X107230389Y-52629376D01*
X107243115Y-52642203D01*
X107246785Y-52659404D01*
X107255215Y-52674841D01*
X107253926Y-52692863D01*
X107257697Y-52710534D01*
X107251054Y-52733023D01*
X107250231Y-52744533D01*
X107250059Y-52744991D01*
X107246861Y-52753461D01*
X107246611Y-52753796D01*
X107236325Y-52781371D01*
X107236238Y-52781604D01*
X107215301Y-52809343D01*
X107194536Y-52837081D01*
X107194298Y-52837169D01*
X107194146Y-52837372D01*
X107161556Y-52849380D01*
X107129071Y-52861496D01*
X107128823Y-52861442D01*
X107128585Y-52861530D01*
X107094645Y-52854006D01*
X107060799Y-52846643D01*
X107060459Y-52846428D01*
X107060372Y-52846409D01*
X107060275Y-52846311D01*
X107047343Y-52838130D01*
X106871279Y-52710213D01*
X106667568Y-52606417D01*
X106450124Y-52535765D01*
X106360000Y-52521490D01*
X106360000Y-53509252D01*
X106322292Y-53487482D01*
X106182409Y-53450000D01*
X106037591Y-53450000D01*
X105897708Y-53487482D01*
X105860000Y-53509252D01*
X105860000Y-52521490D01*
X105859999Y-52521490D01*
X105769875Y-52535765D01*
X105552431Y-52606417D01*
X105348723Y-52710211D01*
X105163757Y-52844597D01*
X105002097Y-53006257D01*
X105002090Y-53006266D01*
X104945570Y-53084058D01*
X104924687Y-53100160D01*
X104906327Y-53119088D01*
X104897456Y-53121159D01*
X104890240Y-53126724D01*
X104863963Y-53128980D01*
X104838288Y-53134976D01*
X104829704Y-53131922D01*
X104820627Y-53132702D01*
X104797303Y-53120395D01*
X104772460Y-53111557D01*
X104763402Y-53102507D01*
X104758832Y-53100096D01*
X104747127Y-53086983D01*
X104746023Y-53085555D01*
X104684389Y-53000722D01*
X104667214Y-52983547D01*
X104662374Y-52977282D01*
X104652433Y-52951818D01*
X104639334Y-52927829D01*
X104637914Y-52914628D01*
X104636965Y-52912196D01*
X104637413Y-52909970D01*
X104636500Y-52901471D01*
X104636500Y-51970948D01*
X104605512Y-51775299D01*
X104568390Y-51661051D01*
X104544298Y-51586903D01*
X104544296Y-51586900D01*
X104544296Y-51586898D01*
X104496854Y-51493790D01*
X104454366Y-51410402D01*
X104337930Y-51250142D01*
X104197858Y-51110070D01*
X102414658Y-49326870D01*
X102402022Y-49312075D01*
X102359934Y-49254148D01*
X102359930Y-49254142D01*
X101370819Y-48265031D01*
X101337334Y-48203708D01*
X101334500Y-48177350D01*
X101334500Y-37965186D01*
X108089500Y-37965186D01*
X108089500Y-38234813D01*
X108119686Y-38502719D01*
X108119688Y-38502731D01*
X108179684Y-38765594D01*
X108179687Y-38765602D01*
X108268734Y-39020082D01*
X108385714Y-39262994D01*
X108385716Y-39262997D01*
X108529162Y-39491289D01*
X108697266Y-39702085D01*
X108887915Y-39892734D01*
X109098711Y-40060838D01*
X109327003Y-40204284D01*
X109569921Y-40321267D01*
X109726322Y-40375994D01*
X109824397Y-40410312D01*
X109824405Y-40410315D01*
X109824408Y-40410315D01*
X109824409Y-40410316D01*
X110087268Y-40470312D01*
X110355187Y-40500499D01*
X110355188Y-40500500D01*
X110355191Y-40500500D01*
X110624812Y-40500500D01*
X110624812Y-40500499D01*
X110892732Y-40470312D01*
X111155591Y-40410316D01*
X111410079Y-40321267D01*
X111652997Y-40204284D01*
X111881289Y-40060838D01*
X112092085Y-39892734D01*
X112282734Y-39702085D01*
X112450838Y-39491289D01*
X112594284Y-39262997D01*
X112711267Y-39020079D01*
X112800316Y-38765591D01*
X112860312Y-38502732D01*
X112890500Y-38234809D01*
X112890500Y-37965191D01*
X112860312Y-37697268D01*
X112800316Y-37434409D01*
X112711267Y-37179921D01*
X112594284Y-36937003D01*
X112450838Y-36708711D01*
X112282734Y-36497915D01*
X112092085Y-36307266D01*
X111881289Y-36139162D01*
X111652997Y-35995716D01*
X111652994Y-35995714D01*
X111410082Y-35878734D01*
X111155602Y-35789687D01*
X111155594Y-35789684D01*
X110958446Y-35744687D01*
X110892732Y-35729688D01*
X110892728Y-35729687D01*
X110892719Y-35729686D01*
X110624813Y-35699500D01*
X110624809Y-35699500D01*
X110355191Y-35699500D01*
X110355186Y-35699500D01*
X110087280Y-35729686D01*
X110087268Y-35729688D01*
X109824405Y-35789684D01*
X109824397Y-35789687D01*
X109569917Y-35878734D01*
X109327005Y-35995714D01*
X109098712Y-36139161D01*
X108887915Y-36307265D01*
X108697265Y-36497915D01*
X108529161Y-36708712D01*
X108385714Y-36937005D01*
X108268734Y-37179917D01*
X108179687Y-37434397D01*
X108179684Y-37434405D01*
X108119688Y-37697268D01*
X108119686Y-37697280D01*
X108089500Y-37965186D01*
X101334500Y-37965186D01*
X101334500Y-32597313D01*
X101354185Y-32530274D01*
X101406989Y-32484519D01*
X101468229Y-32473695D01*
X101496525Y-32475921D01*
X102176000Y-31796446D01*
X102176000Y-31802661D01*
X102203259Y-31904394D01*
X102255920Y-31995606D01*
X102330394Y-32070080D01*
X102421606Y-32122741D01*
X102523339Y-32150000D01*
X102529553Y-32150000D01*
X101850076Y-32829474D01*
X101894650Y-32861859D01*
X102076968Y-32954755D01*
X102271582Y-33017990D01*
X102473683Y-33050000D01*
X102678317Y-33050000D01*
X102880417Y-33017990D01*
X103075031Y-32954755D01*
X103257349Y-32861859D01*
X103301921Y-32829474D01*
X102622447Y-32150000D01*
X102628661Y-32150000D01*
X102730394Y-32122741D01*
X102821606Y-32070080D01*
X102896080Y-31995606D01*
X102948741Y-31904394D01*
X102976000Y-31802661D01*
X102976000Y-31796447D01*
X103655474Y-32475921D01*
X103687859Y-32431349D01*
X103780755Y-32249031D01*
X103843990Y-32054417D01*
X103876000Y-31852317D01*
X103876000Y-31647682D01*
X103843990Y-31445582D01*
X103780755Y-31250968D01*
X103687859Y-31068650D01*
X103655474Y-31024077D01*
X103655474Y-31024076D01*
X102976000Y-31703551D01*
X102976000Y-31697339D01*
X102948741Y-31595606D01*
X102896080Y-31504394D01*
X102821606Y-31429920D01*
X102730394Y-31377259D01*
X102628661Y-31350000D01*
X102622446Y-31350000D01*
X103301922Y-30670524D01*
X103301921Y-30670523D01*
X103257359Y-30638147D01*
X103257350Y-30638141D01*
X103075031Y-30545244D01*
X102880417Y-30482009D01*
X102678317Y-30450000D01*
X102473683Y-30450000D01*
X102271582Y-30482009D01*
X102076968Y-30545244D01*
X101894644Y-30638143D01*
X101850077Y-30670523D01*
X101850077Y-30670524D01*
X102529554Y-31350000D01*
X102523339Y-31350000D01*
X102421606Y-31377259D01*
X102330394Y-31429920D01*
X102255920Y-31504394D01*
X102203259Y-31595606D01*
X102176000Y-31697339D01*
X102176000Y-31703553D01*
X101496524Y-31024077D01*
X101466932Y-31026406D01*
X101446730Y-31022162D01*
X101426099Y-31022824D01*
X101413230Y-31015124D01*
X101398555Y-31012042D01*
X101383854Y-30997549D01*
X101366141Y-30986952D01*
X101356460Y-30970544D01*
X101348798Y-30962990D01*
X101346117Y-30957888D01*
X101342243Y-30950079D01*
X101318115Y-30877262D01*
X101225030Y-30726348D01*
X101099652Y-30600970D01*
X100987024Y-30531500D01*
X100948740Y-30507886D01*
X100948735Y-30507884D01*
X100780427Y-30452113D01*
X100676545Y-30441500D01*
X99475462Y-30441500D01*
X99475446Y-30441501D01*
X99371571Y-30452113D01*
X99203264Y-30507883D01*
X99203261Y-30507884D01*
X99194907Y-30513038D01*
X99129810Y-30531500D01*
X95376768Y-30531500D01*
X95338451Y-30525431D01*
X95302408Y-30513720D01*
X95302405Y-30513719D01*
X95146138Y-30488969D01*
X95098981Y-30481500D01*
X94893019Y-30481500D01*
X94868550Y-30485375D01*
X94689591Y-30513719D01*
X94493705Y-30577367D01*
X94310193Y-30670873D01*
X94143576Y-30791926D01*
X94143571Y-30791930D01*
X93997930Y-30937571D01*
X93997926Y-30937576D01*
X93876873Y-31104193D01*
X93783367Y-31287705D01*
X93719719Y-31483591D01*
X93687500Y-31687019D01*
X93687500Y-31892980D01*
X93719719Y-32096408D01*
X93783367Y-32292294D01*
X93847671Y-32418496D01*
X93854220Y-32431349D01*
X93876873Y-32475806D01*
X93997926Y-32642423D01*
X93997930Y-32642428D01*
X94143571Y-32788069D01*
X94143576Y-32788073D01*
X94245135Y-32861859D01*
X94310197Y-32909129D01*
X94399743Y-32954755D01*
X94493705Y-33002632D01*
X94493707Y-33002632D01*
X94493710Y-33002634D01*
X94540971Y-33017990D01*
X94689591Y-33066280D01*
X94791305Y-33082390D01*
X94893019Y-33098500D01*
X94893020Y-33098500D01*
X95098980Y-33098500D01*
X95098981Y-33098500D01*
X95302408Y-33066280D01*
X95338451Y-33054568D01*
X95376768Y-33048500D01*
X98693500Y-33048500D01*
X98760539Y-33068185D01*
X98806294Y-33120989D01*
X98817500Y-33172500D01*
X98817500Y-47367500D01*
X98797815Y-47434539D01*
X98745011Y-47480294D01*
X98693500Y-47491500D01*
X98044100Y-47491500D01*
X97977061Y-47471815D01*
X97969789Y-47466766D01*
X97946207Y-47449112D01*
X97946206Y-47449111D01*
X97809203Y-47398011D01*
X97748654Y-47391500D01*
X97748638Y-47391500D01*
X95951362Y-47391500D01*
X95951345Y-47391500D01*
X95890797Y-47398011D01*
X95890795Y-47398011D01*
X95753795Y-47449111D01*
X95636739Y-47536739D01*
X95549111Y-47653795D01*
X95498011Y-47790795D01*
X95498011Y-47790797D01*
X95491500Y-47851345D01*
X95491500Y-49648654D01*
X95498011Y-49709202D01*
X95498011Y-49709204D01*
X95545457Y-49836408D01*
X95549111Y-49846204D01*
X95636739Y-49963261D01*
X95753796Y-50050889D01*
X95874626Y-50095956D01*
X95930557Y-50137827D01*
X95954974Y-50203291D01*
X95940122Y-50271564D01*
X95918972Y-50299818D01*
X95813793Y-50404997D01*
X95688106Y-50577990D01*
X95591027Y-50768516D01*
X95591026Y-50768519D01*
X95524951Y-50971882D01*
X95508001Y-51078903D01*
X95491500Y-51183084D01*
X95491500Y-51396916D01*
X95508225Y-51502516D01*
X95524951Y-51608117D01*
X95591026Y-51811480D01*
X95591027Y-51811483D01*
X95688106Y-52002009D01*
X95813794Y-52175004D01*
X95964996Y-52326206D01*
X96137991Y-52451894D01*
X96142680Y-52454283D01*
X96193478Y-52502254D01*
X96210276Y-52570074D01*
X96187742Y-52636210D01*
X96146205Y-52672209D01*
X96146590Y-52672838D01*
X96142804Y-52675157D01*
X96142702Y-52675246D01*
X96142449Y-52675374D01*
X96142440Y-52675380D01*
X96088282Y-52714727D01*
X96088282Y-52714728D01*
X96720591Y-53347037D01*
X96657007Y-53364075D01*
X96542993Y-53429901D01*
X96449901Y-53522993D01*
X96384075Y-53637007D01*
X96367037Y-53700591D01*
X95734728Y-53068282D01*
X95734727Y-53068282D01*
X95695380Y-53122439D01*
X95598904Y-53311782D01*
X95533242Y-53513869D01*
X95533242Y-53513872D01*
X95500000Y-53723753D01*
X95500000Y-53936246D01*
X95533242Y-54146127D01*
X95533242Y-54146130D01*
X95598904Y-54348217D01*
X95695375Y-54537550D01*
X95734728Y-54591716D01*
X96367037Y-53959408D01*
X96384075Y-54022993D01*
X96449901Y-54137007D01*
X96542993Y-54230099D01*
X96657007Y-54295925D01*
X96720590Y-54312962D01*
X96088282Y-54945269D01*
X96088282Y-54945270D01*
X96142449Y-54984624D01*
X96331782Y-55081095D01*
X96533870Y-55146757D01*
X96743754Y-55180000D01*
X96956246Y-55180000D01*
X97166127Y-55146757D01*
X97166130Y-55146757D01*
X97368217Y-55081095D01*
X97557554Y-54984622D01*
X97611716Y-54945270D01*
X97611717Y-54945270D01*
X96979408Y-54312962D01*
X97042993Y-54295925D01*
X97157007Y-54230099D01*
X97250099Y-54137007D01*
X97315925Y-54022993D01*
X97332962Y-53959409D01*
X97965270Y-54591717D01*
X97965270Y-54591716D01*
X98004622Y-54537554D01*
X98101095Y-54348217D01*
X98166757Y-54146130D01*
X98166757Y-54146127D01*
X98200000Y-53936246D01*
X98200000Y-53723753D01*
X98166757Y-53513872D01*
X98166757Y-53513869D01*
X98101095Y-53311782D01*
X98004624Y-53122449D01*
X97965270Y-53068282D01*
X97965269Y-53068282D01*
X97332962Y-53700590D01*
X97315925Y-53637007D01*
X97250099Y-53522993D01*
X97157007Y-53429901D01*
X97042993Y-53364075D01*
X96979409Y-53347037D01*
X97611716Y-52714728D01*
X97557547Y-52675373D01*
X97557545Y-52675371D01*
X97557308Y-52675251D01*
X97557234Y-52675181D01*
X97553396Y-52672829D01*
X97553890Y-52672022D01*
X97506515Y-52627274D01*
X97489724Y-52559451D01*
X97512266Y-52493318D01*
X97557319Y-52454283D01*
X97562009Y-52451894D01*
X97735004Y-52326206D01*
X97886206Y-52175004D01*
X98011894Y-52002009D01*
X98108972Y-51811483D01*
X98175049Y-51608116D01*
X98208500Y-51396916D01*
X98208500Y-51183084D01*
X98175049Y-50971884D01*
X98120927Y-50805311D01*
X98108973Y-50768519D01*
X98108972Y-50768516D01*
X98011893Y-50577990D01*
X97886206Y-50404996D01*
X97781028Y-50299818D01*
X97766263Y-50272779D01*
X97749656Y-50246813D01*
X97749665Y-50242382D01*
X97747543Y-50238495D01*
X97749740Y-50207760D01*
X97749808Y-50176943D01*
X97752210Y-50173221D01*
X97752527Y-50168803D01*
X97770994Y-50144134D01*
X97787711Y-50118247D01*
X97792492Y-50115417D01*
X97794399Y-50112870D01*
X97817443Y-50099231D01*
X97821342Y-50097460D01*
X97946204Y-50050889D01*
X97980571Y-50025161D01*
X97992834Y-50019594D01*
X98014628Y-50016508D01*
X98035253Y-50008816D01*
X98044100Y-50008500D01*
X99503350Y-50008500D01*
X99570389Y-50028185D01*
X99591031Y-50044819D01*
X100385341Y-50839129D01*
X100397977Y-50853923D01*
X100440069Y-50911857D01*
X102083181Y-52554969D01*
X102116666Y-52616292D01*
X102119500Y-52642650D01*
X102119500Y-53761464D01*
X102117973Y-53780863D01*
X102109000Y-53837512D01*
X102109000Y-54162488D01*
X102144973Y-54389618D01*
X102216039Y-54608333D01*
X102320440Y-54813231D01*
X102455611Y-54999278D01*
X102618222Y-55161889D01*
X102804269Y-55297060D01*
X102901078Y-55346386D01*
X103009166Y-55401460D01*
X103009168Y-55401460D01*
X103009171Y-55401462D01*
X103126404Y-55439553D01*
X103227881Y-55472526D01*
X103455012Y-55508500D01*
X103455017Y-55508500D01*
X103684988Y-55508500D01*
X103912118Y-55472526D01*
X103943196Y-55462428D01*
X104130829Y-55401462D01*
X104335731Y-55297060D01*
X104521778Y-55161889D01*
X104684389Y-54999278D01*
X104744937Y-54915940D01*
X104800264Y-54873276D01*
X104869877Y-54867297D01*
X104931672Y-54899902D01*
X104945571Y-54915941D01*
X105002097Y-54993741D01*
X105002097Y-54993742D01*
X105163757Y-55155402D01*
X105348723Y-55289788D01*
X105552429Y-55393582D01*
X105769871Y-55464234D01*
X105860000Y-55478509D01*
X105860000Y-54490747D01*
X105897708Y-54512518D01*
X106037591Y-54550000D01*
X106182409Y-54550000D01*
X106322292Y-54512518D01*
X106360000Y-54490747D01*
X106360000Y-55478508D01*
X106450128Y-55464234D01*
X106667570Y-55393582D01*
X106871276Y-55289788D01*
X107047342Y-55161869D01*
X107113149Y-55138389D01*
X107181203Y-55154214D01*
X107229898Y-55204320D01*
X107236409Y-55218852D01*
X107246611Y-55246204D01*
X107334239Y-55363261D01*
X107341809Y-55368928D01*
X107383681Y-55424859D01*
X107391500Y-55468195D01*
X107391500Y-57427350D01*
X107371815Y-57494389D01*
X107355181Y-57515031D01*
X103165031Y-61705181D01*
X103103708Y-61738666D01*
X103077350Y-61741500D01*
X95108500Y-61741500D01*
X95041461Y-61721815D01*
X94995706Y-61669011D01*
X94984500Y-61617500D01*
X94984500Y-56288948D01*
X94953512Y-56093299D01*
X94907420Y-55951444D01*
X94892298Y-55904903D01*
X94892296Y-55904900D01*
X94892296Y-55904898D01*
X94826769Y-55776296D01*
X94802366Y-55728402D01*
X94685930Y-55568142D01*
X94545858Y-55428070D01*
X92724819Y-53607031D01*
X92691334Y-53545708D01*
X92688500Y-53519350D01*
X92688500Y-42650948D01*
X92657512Y-42455299D01*
X92609653Y-42308006D01*
X92596298Y-42266903D01*
X92596296Y-42266900D01*
X92596296Y-42266898D01*
X92525066Y-42127103D01*
X92506366Y-42090402D01*
X92389930Y-41930142D01*
X92249858Y-41790070D01*
X92089598Y-41673634D01*
X91913101Y-41583703D01*
X91724700Y-41522487D01*
X91529051Y-41491500D01*
X91529046Y-41491500D01*
X91330954Y-41491500D01*
X91330949Y-41491500D01*
X91135299Y-41522487D01*
X90946898Y-41583703D01*
X90770401Y-41673634D01*
X90678967Y-41740065D01*
X90610142Y-41790070D01*
X90610140Y-41790072D01*
X90610139Y-41790072D01*
X90470072Y-41930139D01*
X90470072Y-41930140D01*
X90470070Y-41930142D01*
X90454665Y-41951345D01*
X90353634Y-42090401D01*
X90265714Y-42262953D01*
X90217739Y-42313749D01*
X90149918Y-42330544D01*
X90083783Y-42308006D01*
X90044744Y-42262953D01*
X89959096Y-42094858D01*
X89933678Y-42059873D01*
X89933677Y-42059873D01*
X89290000Y-42703551D01*
X89290000Y-42697339D01*
X89262741Y-42595606D01*
X89210080Y-42504394D01*
X89135606Y-42429920D01*
X89044394Y-42377259D01*
X88942661Y-42350000D01*
X88936447Y-42350000D01*
X89580125Y-41706320D01*
X89580125Y-41706319D01*
X89545145Y-41680905D01*
X89369835Y-41591581D01*
X89182705Y-41530778D01*
X88988382Y-41500000D01*
X88791618Y-41500000D01*
X88597294Y-41530778D01*
X88410161Y-41591582D01*
X88234863Y-41680899D01*
X88234859Y-41680902D01*
X88199873Y-41706320D01*
X88199872Y-41706320D01*
X88843554Y-42350000D01*
X88837339Y-42350000D01*
X88735606Y-42377259D01*
X88644394Y-42429920D01*
X88569920Y-42504394D01*
X88517259Y-42595606D01*
X88490000Y-42697339D01*
X88490000Y-42703552D01*
X87846320Y-42059872D01*
X87846319Y-42059873D01*
X87832820Y-42078455D01*
X87777491Y-42121122D01*
X87707878Y-42127103D01*
X87646082Y-42094499D01*
X87611723Y-42033661D01*
X87608500Y-42005572D01*
X87608500Y-41951362D01*
X87608499Y-41951345D01*
X87605157Y-41920270D01*
X87601989Y-41890799D01*
X87550889Y-41753796D01*
X87463261Y-41636739D01*
X87346204Y-41549111D01*
X87346205Y-41549111D01*
X87341958Y-41547527D01*
X87339162Y-41546484D01*
X87283231Y-41504612D01*
X87258816Y-41439147D01*
X87258500Y-41430304D01*
X87258500Y-38789263D01*
X87278185Y-38722224D01*
X87317401Y-38683725D01*
X87373652Y-38649030D01*
X87499030Y-38523652D01*
X87592115Y-38372738D01*
X87647887Y-38204426D01*
X87658500Y-38100545D01*
X87658499Y-37471359D01*
X87658499Y-36899462D01*
X87658498Y-36899446D01*
X87652697Y-36842661D01*
X87647887Y-36795574D01*
X87646040Y-36789999D01*
X87623448Y-36721819D01*
X87612136Y-36687682D01*
X93696000Y-36687682D01*
X93696000Y-36892317D01*
X93728009Y-37094417D01*
X93791244Y-37289031D01*
X93884141Y-37471350D01*
X93884147Y-37471359D01*
X93916523Y-37515921D01*
X93916524Y-37515922D01*
X94596000Y-36836446D01*
X94596000Y-36842661D01*
X94623259Y-36944394D01*
X94675920Y-37035606D01*
X94750394Y-37110080D01*
X94841606Y-37162741D01*
X94943339Y-37190000D01*
X94949553Y-37190000D01*
X94270076Y-37869474D01*
X94314650Y-37901859D01*
X94496968Y-37994755D01*
X94691582Y-38057990D01*
X94893683Y-38090000D01*
X95098317Y-38090000D01*
X95300417Y-38057990D01*
X95495031Y-37994755D01*
X95677349Y-37901859D01*
X95721921Y-37869474D01*
X95042447Y-37190000D01*
X95048661Y-37190000D01*
X95150394Y-37162741D01*
X95241606Y-37110080D01*
X95316080Y-37035606D01*
X95368741Y-36944394D01*
X95396000Y-36842661D01*
X95396000Y-36836447D01*
X96075474Y-37515921D01*
X96107859Y-37471349D01*
X96200755Y-37289031D01*
X96263990Y-37094417D01*
X96296000Y-36892317D01*
X96296000Y-36687682D01*
X96263990Y-36485582D01*
X96200755Y-36290968D01*
X96107859Y-36108650D01*
X96075474Y-36064077D01*
X96075474Y-36064076D01*
X95396000Y-36743551D01*
X95396000Y-36737339D01*
X95368741Y-36635606D01*
X95316080Y-36544394D01*
X95241606Y-36469920D01*
X95150394Y-36417259D01*
X95048661Y-36390000D01*
X95042446Y-36390000D01*
X95721922Y-35710524D01*
X95721921Y-35710523D01*
X95677359Y-35678147D01*
X95677350Y-35678141D01*
X95495031Y-35585244D01*
X95300417Y-35522009D01*
X95098317Y-35490000D01*
X94893683Y-35490000D01*
X94691582Y-35522009D01*
X94496968Y-35585244D01*
X94314644Y-35678143D01*
X94270077Y-35710523D01*
X94270077Y-35710524D01*
X94949554Y-36390000D01*
X94943339Y-36390000D01*
X94841606Y-36417259D01*
X94750394Y-36469920D01*
X94675920Y-36544394D01*
X94623259Y-36635606D01*
X94596000Y-36737339D01*
X94596000Y-36743553D01*
X93916524Y-36064077D01*
X93916523Y-36064077D01*
X93884143Y-36108644D01*
X93791244Y-36290968D01*
X93728009Y-36485582D01*
X93696000Y-36687682D01*
X87612136Y-36687682D01*
X87609727Y-36680414D01*
X87592115Y-36627262D01*
X87499030Y-36476348D01*
X87373652Y-36350970D01*
X87222738Y-36257885D01*
X87222736Y-36257884D01*
X87222733Y-36257883D01*
X87158207Y-36236502D01*
X87100761Y-36196730D01*
X87073938Y-36132214D01*
X87073592Y-36109066D01*
X87075921Y-36079473D01*
X86396447Y-35400000D01*
X86402661Y-35400000D01*
X86504394Y-35372741D01*
X86595606Y-35320080D01*
X86670080Y-35245606D01*
X86722741Y-35154394D01*
X86750000Y-35052661D01*
X86750000Y-35046447D01*
X87429474Y-35725921D01*
X87459280Y-35684899D01*
X87459281Y-35684898D01*
X87461860Y-35681347D01*
X87554755Y-35499031D01*
X87617990Y-35304417D01*
X87650000Y-35102317D01*
X87650000Y-34897682D01*
X87617990Y-34695582D01*
X87554755Y-34500968D01*
X87461859Y-34318650D01*
X87429474Y-34274077D01*
X87429474Y-34274076D01*
X86750000Y-34953551D01*
X86750000Y-34947339D01*
X86722741Y-34845606D01*
X86670080Y-34754394D01*
X86595606Y-34679920D01*
X86504394Y-34627259D01*
X86402661Y-34600000D01*
X86396446Y-34600000D01*
X87075922Y-33920524D01*
X87075921Y-33920523D01*
X87031359Y-33888147D01*
X87031350Y-33888141D01*
X86849031Y-33795244D01*
X86654417Y-33732009D01*
X86452317Y-33700000D01*
X86247683Y-33700000D01*
X86045582Y-33732009D01*
X85850968Y-33795244D01*
X85668644Y-33888143D01*
X85624077Y-33920523D01*
X85624077Y-33920524D01*
X86303554Y-34600000D01*
X86297339Y-34600000D01*
X86195606Y-34627259D01*
X86104394Y-34679920D01*
X86029920Y-34754394D01*
X85977259Y-34845606D01*
X85950000Y-34947339D01*
X85950000Y-34953553D01*
X85270524Y-34274077D01*
X85270523Y-34274077D01*
X85238143Y-34318644D01*
X85145244Y-34500968D01*
X85082009Y-34695582D01*
X85050000Y-34897682D01*
X85050000Y-35102317D01*
X85082009Y-35304417D01*
X85145244Y-35499031D01*
X85238141Y-35681350D01*
X85238147Y-35681359D01*
X85270523Y-35725921D01*
X85270524Y-35725922D01*
X85950000Y-35046446D01*
X85950000Y-35052661D01*
X85977259Y-35154394D01*
X86029920Y-35245606D01*
X86104394Y-35320080D01*
X86195606Y-35372741D01*
X86297339Y-35400000D01*
X86303553Y-35400000D01*
X85624076Y-36079474D01*
X85626405Y-36109069D01*
X85612040Y-36177446D01*
X85562988Y-36227202D01*
X85541792Y-36236502D01*
X85477262Y-36257885D01*
X85477259Y-36257886D01*
X85326346Y-36350971D01*
X85200971Y-36476346D01*
X85195274Y-36485582D01*
X85166273Y-36532599D01*
X85114328Y-36579321D01*
X85060737Y-36591500D01*
X81306994Y-36591500D01*
X81239955Y-36571815D01*
X81194200Y-36519011D01*
X81190817Y-36510846D01*
X81150889Y-36403796D01*
X81143768Y-36394284D01*
X81133599Y-36380699D01*
X81063261Y-36286739D01*
X80946204Y-36199111D01*
X80925801Y-36191501D01*
X80809203Y-36148011D01*
X80748654Y-36141500D01*
X80748638Y-36141500D01*
X78951362Y-36141500D01*
X78951345Y-36141500D01*
X78890797Y-36148011D01*
X78890795Y-36148011D01*
X78753795Y-36199111D01*
X78636739Y-36286739D01*
X78549112Y-36403793D01*
X78541661Y-36423768D01*
X78509186Y-36510835D01*
X78467316Y-36566768D01*
X78401851Y-36591184D01*
X78393006Y-36591500D01*
X66279543Y-36591500D01*
X66212504Y-36571815D01*
X66166749Y-36519011D01*
X66156805Y-36449853D01*
X66185830Y-36386297D01*
X66213571Y-36362506D01*
X66231929Y-36350971D01*
X66391289Y-36250838D01*
X66602085Y-36082734D01*
X66792734Y-35892085D01*
X66960838Y-35681289D01*
X67104284Y-35452997D01*
X67221267Y-35210079D01*
X67310316Y-34955591D01*
X67370312Y-34692732D01*
X67400500Y-34424809D01*
X67400500Y-34155191D01*
X67392796Y-34086822D01*
X67380949Y-33981667D01*
X67370411Y-33888147D01*
X67370312Y-33887268D01*
X67310316Y-33624409D01*
X67221267Y-33369921D01*
X67104284Y-33127003D01*
X66960838Y-32898711D01*
X66792734Y-32687915D01*
X66602085Y-32497266D01*
X66391289Y-32329162D01*
X66162997Y-32185716D01*
X66162994Y-32185714D01*
X65920082Y-32068734D01*
X65665602Y-31979687D01*
X65665594Y-31979684D01*
X65468446Y-31934687D01*
X65402732Y-31919688D01*
X65402728Y-31919687D01*
X65402719Y-31919686D01*
X65134813Y-31889500D01*
X65134809Y-31889500D01*
X64865191Y-31889500D01*
X64865186Y-31889500D01*
X64597280Y-31919686D01*
X64597268Y-31919688D01*
X64334405Y-31979684D01*
X64334397Y-31979687D01*
X64079917Y-32068734D01*
X63837005Y-32185714D01*
X63608712Y-32329161D01*
X63397915Y-32497265D01*
X63207265Y-32687915D01*
X63039161Y-32898712D01*
X62895714Y-33127005D01*
X62778734Y-33369917D01*
X62689687Y-33624397D01*
X62689684Y-33624405D01*
X62629688Y-33887268D01*
X62629686Y-33887280D01*
X62599500Y-34155186D01*
X62599500Y-34424813D01*
X62629686Y-34692719D01*
X62629687Y-34692728D01*
X62629688Y-34692732D01*
X62643762Y-34754394D01*
X62689684Y-34955594D01*
X62689687Y-34955602D01*
X62778734Y-35210082D01*
X62895714Y-35452994D01*
X62895716Y-35452997D01*
X63039162Y-35681289D01*
X63207266Y-35892085D01*
X63397915Y-36082734D01*
X63608711Y-36250838D01*
X63768071Y-36350971D01*
X63786429Y-36362506D01*
X63832720Y-36414841D01*
X63843368Y-36483894D01*
X63814993Y-36547743D01*
X63756603Y-36586115D01*
X63720457Y-36591500D01*
X60962520Y-36591500D01*
X60933397Y-36597292D01*
X60933396Y-36597291D01*
X60787005Y-36626411D01*
X60786999Y-36626413D01*
X60632283Y-36690499D01*
X60632282Y-36690498D01*
X60621672Y-36694893D01*
X60621658Y-36694901D01*
X60472863Y-36794322D01*
X60472860Y-36794325D01*
X58176006Y-39091181D01*
X58114683Y-39124666D01*
X58088325Y-39127500D01*
X58066949Y-39127500D01*
X57871299Y-39158487D01*
X57682898Y-39219703D01*
X57506401Y-39309634D01*
X57414967Y-39376065D01*
X57346142Y-39426070D01*
X57346140Y-39426072D01*
X57346139Y-39426072D01*
X57206072Y-39566139D01*
X57206072Y-39566140D01*
X57206070Y-39566142D01*
X57156065Y-39634967D01*
X57089634Y-39726401D01*
X56999703Y-39902898D01*
X56938487Y-40091299D01*
X56907500Y-40286948D01*
X56907500Y-40485051D01*
X56938487Y-40680700D01*
X56999703Y-40869101D01*
X57085385Y-41037259D01*
X57089634Y-41045598D01*
X57206070Y-41205858D01*
X57346142Y-41345930D01*
X57506402Y-41462366D01*
X57563581Y-41491500D01*
X57682898Y-41552296D01*
X57682900Y-41552296D01*
X57682903Y-41552298D01*
X57783888Y-41585110D01*
X57871299Y-41613512D01*
X58066949Y-41644500D01*
X58066954Y-41644500D01*
X58265051Y-41644500D01*
X58460700Y-41613512D01*
X58649097Y-41552298D01*
X58825598Y-41462366D01*
X58985858Y-41345930D01*
X59125930Y-41205858D01*
X59242366Y-41045598D01*
X59332298Y-40869097D01*
X59393512Y-40680700D01*
X59400953Y-40633719D01*
X59424500Y-40485051D01*
X59424500Y-40463675D01*
X59444185Y-40396636D01*
X59460819Y-40375994D01*
X61391994Y-38444819D01*
X61453317Y-38411334D01*
X61479675Y-38408500D01*
X70514956Y-38408500D01*
X70581995Y-38428185D01*
X70627750Y-38480989D01*
X70637694Y-38550147D01*
X70608669Y-38613703D01*
X70583847Y-38635602D01*
X70540865Y-38664321D01*
X70540861Y-38664324D01*
X69144324Y-40060861D01*
X69144321Y-40060865D01*
X69044898Y-40209661D01*
X69044897Y-40209663D01*
X69012883Y-40286953D01*
X69012883Y-40286954D01*
X68976413Y-40374999D01*
X68976411Y-40375007D01*
X68941500Y-40550516D01*
X68941500Y-45292325D01*
X68921815Y-45359364D01*
X68905181Y-45380006D01*
X68240006Y-46045181D01*
X68178683Y-46078666D01*
X68152325Y-46081500D01*
X67433360Y-46081500D01*
X67366321Y-46061815D01*
X67345679Y-46045181D01*
X67292428Y-45991930D01*
X67292423Y-45991926D01*
X67125806Y-45870873D01*
X67125805Y-45870872D01*
X67125803Y-45870871D01*
X67046540Y-45830484D01*
X66995745Y-45782510D01*
X66978950Y-45714689D01*
X67001487Y-45648554D01*
X67046541Y-45609515D01*
X67048549Y-45608492D01*
X67125803Y-45569129D01*
X67292430Y-45448068D01*
X67438068Y-45302430D01*
X67559129Y-45135803D01*
X67652634Y-44952290D01*
X67716280Y-44756408D01*
X67748500Y-44552981D01*
X67748500Y-44347019D01*
X67716280Y-44143591D01*
X67672386Y-44008500D01*
X67652634Y-43947710D01*
X67652632Y-43947707D01*
X67652632Y-43947705D01*
X67593215Y-43831095D01*
X67559129Y-43764197D01*
X67446521Y-43609204D01*
X67438073Y-43597576D01*
X67438069Y-43597571D01*
X67292424Y-43451926D01*
X67210862Y-43392669D01*
X67168196Y-43337340D01*
X67162217Y-43267726D01*
X67194822Y-43205931D01*
X67244742Y-43174646D01*
X67312738Y-43152115D01*
X67463652Y-43059030D01*
X67589030Y-42933652D01*
X67682115Y-42782738D01*
X67737887Y-42614426D01*
X67748500Y-42510545D01*
X67748499Y-41309456D01*
X67737887Y-41205574D01*
X67682115Y-41037262D01*
X67589030Y-40886348D01*
X67463652Y-40760970D01*
X67359824Y-40696928D01*
X67312740Y-40667886D01*
X67312735Y-40667884D01*
X67144427Y-40612113D01*
X67040545Y-40601500D01*
X65039462Y-40601500D01*
X65039446Y-40601501D01*
X64935572Y-40612113D01*
X64767264Y-40667884D01*
X64767259Y-40667886D01*
X64616346Y-40760971D01*
X64490971Y-40886346D01*
X64397886Y-41037259D01*
X64397884Y-41037264D01*
X64342113Y-41205572D01*
X64331500Y-41309447D01*
X64331500Y-41309451D01*
X64331500Y-41309455D01*
X64331500Y-41790072D01*
X64331501Y-42147500D01*
X64311817Y-42214539D01*
X64259013Y-42260294D01*
X64207501Y-42271500D01*
X45884516Y-42271500D01*
X45709007Y-42306410D01*
X45708998Y-42306413D01*
X45543670Y-42374893D01*
X45543657Y-42374900D01*
X45394865Y-42474321D01*
X45394861Y-42474324D01*
X44252324Y-43616861D01*
X44252321Y-43616865D01*
X44152898Y-43765661D01*
X44152897Y-43765663D01*
X44109322Y-43870864D01*
X44109322Y-43870865D01*
X44084413Y-43930999D01*
X44084411Y-43931007D01*
X44049500Y-44106516D01*
X44049500Y-57747483D01*
X44084410Y-57922992D01*
X44084413Y-57923001D01*
X44152893Y-58088329D01*
X44152900Y-58088342D01*
X44252321Y-58237134D01*
X44252324Y-58237138D01*
X45605861Y-59590675D01*
X45605865Y-59590678D01*
X45754657Y-59690099D01*
X45754670Y-59690106D01*
X45868905Y-59737423D01*
X45920000Y-59758587D01*
X45920002Y-59758587D01*
X45920007Y-59758589D01*
X46095516Y-59793499D01*
X46095520Y-59793500D01*
X46095521Y-59793500D01*
X47266640Y-59793500D01*
X47333679Y-59813185D01*
X47354321Y-59829819D01*
X47407571Y-59883069D01*
X47407576Y-59883073D01*
X47472878Y-59930517D01*
X47574197Y-60004129D01*
X47757710Y-60097634D01*
X47911448Y-60147586D01*
X47938994Y-60156537D01*
X47996670Y-60195975D01*
X48023868Y-60260333D01*
X48011953Y-60329180D01*
X47964709Y-60380655D01*
X47938995Y-60392399D01*
X47760968Y-60450244D01*
X47578644Y-60543143D01*
X47534077Y-60575523D01*
X47534077Y-60575524D01*
X48130591Y-61172037D01*
X48067007Y-61189075D01*
X47952993Y-61254901D01*
X47859901Y-61347993D01*
X47794075Y-61462007D01*
X47777037Y-61525590D01*
X47180524Y-60929077D01*
X47180523Y-60929077D01*
X47148143Y-60973644D01*
X47055244Y-61155968D01*
X46992009Y-61350582D01*
X46960000Y-61552682D01*
X46960000Y-61757317D01*
X46992009Y-61959417D01*
X47055244Y-62154031D01*
X47148141Y-62336350D01*
X47148147Y-62336359D01*
X47180523Y-62380921D01*
X47180524Y-62380922D01*
X47777037Y-61784409D01*
X47794075Y-61847993D01*
X47859901Y-61962007D01*
X47952993Y-62055099D01*
X48067007Y-62120925D01*
X48130590Y-62137962D01*
X47534076Y-62734474D01*
X47578650Y-62766859D01*
X47760968Y-62859755D01*
X47952747Y-62922069D01*
X48010422Y-62961507D01*
X48037620Y-63025866D01*
X48025705Y-63094712D01*
X47978461Y-63146188D01*
X47952747Y-63157931D01*
X47760968Y-63220244D01*
X47578644Y-63313143D01*
X47534077Y-63345523D01*
X47534077Y-63345524D01*
X48130591Y-63942037D01*
X48067007Y-63959075D01*
X47952993Y-64024901D01*
X47859901Y-64117993D01*
X47794075Y-64232007D01*
X47777037Y-64295590D01*
X47180524Y-63699077D01*
X47180523Y-63699077D01*
X47148143Y-63743644D01*
X47055244Y-63925968D01*
X46992009Y-64120582D01*
X46960000Y-64322682D01*
X46960000Y-64527317D01*
X46992009Y-64729417D01*
X47055244Y-64924031D01*
X47148141Y-65106350D01*
X47148147Y-65106359D01*
X47180523Y-65150921D01*
X47180524Y-65150922D01*
X47777037Y-64554409D01*
X47794075Y-64617993D01*
X47859901Y-64732007D01*
X47952993Y-64825099D01*
X48067007Y-64890925D01*
X48130590Y-64907962D01*
X47534076Y-65504474D01*
X47578650Y-65536859D01*
X47760968Y-65629755D01*
X47952747Y-65692069D01*
X48010422Y-65731507D01*
X48037620Y-65795866D01*
X48025705Y-65864712D01*
X47978461Y-65916188D01*
X47952747Y-65927931D01*
X47760968Y-65990244D01*
X47578644Y-66083143D01*
X47534077Y-66115523D01*
X47534077Y-66115524D01*
X48130591Y-66712037D01*
X48067007Y-66729075D01*
X47952993Y-66794901D01*
X47859901Y-66887993D01*
X47794075Y-67002007D01*
X47777037Y-67065590D01*
X47180524Y-66469077D01*
X47180523Y-66469077D01*
X47148143Y-66513644D01*
X47055244Y-66695968D01*
X46992009Y-66890582D01*
X46960000Y-67092682D01*
X46960000Y-67297317D01*
X46992009Y-67499417D01*
X47055244Y-67694031D01*
X47148141Y-67876350D01*
X47148147Y-67876359D01*
X47180523Y-67920921D01*
X47180524Y-67920922D01*
X47777037Y-67324409D01*
X47794075Y-67387993D01*
X47859901Y-67502007D01*
X47952993Y-67595099D01*
X48067007Y-67660925D01*
X48130590Y-67677962D01*
X47534076Y-68274474D01*
X47578650Y-68306859D01*
X47760968Y-68399755D01*
X47952747Y-68462069D01*
X48010422Y-68501507D01*
X48037620Y-68565866D01*
X48025705Y-68634712D01*
X47978461Y-68686188D01*
X47952747Y-68697931D01*
X47760968Y-68760244D01*
X47578644Y-68853143D01*
X47534077Y-68885523D01*
X47534077Y-68885524D01*
X48130591Y-69482037D01*
X48067007Y-69499075D01*
X47952993Y-69564901D01*
X47859901Y-69657993D01*
X47794075Y-69772007D01*
X47777037Y-69835590D01*
X47180524Y-69239077D01*
X47180523Y-69239077D01*
X47148143Y-69283644D01*
X47055244Y-69465968D01*
X46992009Y-69660582D01*
X46960000Y-69862682D01*
X46960000Y-70067317D01*
X46992009Y-70269417D01*
X47055244Y-70464031D01*
X47148141Y-70646350D01*
X47148147Y-70646359D01*
X47180523Y-70690921D01*
X47180524Y-70690922D01*
X47777037Y-70094409D01*
X47794075Y-70157993D01*
X47859901Y-70272007D01*
X47952993Y-70365099D01*
X48067007Y-70430925D01*
X48130590Y-70447962D01*
X47534076Y-71044474D01*
X47578650Y-71076859D01*
X47760968Y-71169755D01*
X47952747Y-71232069D01*
X48010422Y-71271507D01*
X48037620Y-71335866D01*
X48025705Y-71404712D01*
X47978461Y-71456188D01*
X47952747Y-71467931D01*
X47760968Y-71530244D01*
X47578644Y-71623143D01*
X47534077Y-71655523D01*
X47534077Y-71655524D01*
X48130591Y-72252037D01*
X48067007Y-72269075D01*
X47952993Y-72334901D01*
X47859901Y-72427993D01*
X47794075Y-72542007D01*
X47777037Y-72605590D01*
X47180524Y-72009077D01*
X47180523Y-72009077D01*
X47148143Y-72053644D01*
X47055244Y-72235968D01*
X46992009Y-72430582D01*
X46960000Y-72632682D01*
X46960000Y-72837317D01*
X46992009Y-73039417D01*
X47055244Y-73234031D01*
X47148141Y-73416350D01*
X47148147Y-73416359D01*
X47180523Y-73460921D01*
X47180524Y-73460922D01*
X47777037Y-72864409D01*
X47794075Y-72927993D01*
X47859901Y-73042007D01*
X47952993Y-73135099D01*
X48067007Y-73200925D01*
X48130590Y-73217962D01*
X47534076Y-73814474D01*
X47578650Y-73846859D01*
X47760968Y-73939755D01*
X47952747Y-74002069D01*
X48010422Y-74041507D01*
X48037620Y-74105866D01*
X48025705Y-74174712D01*
X47978461Y-74226188D01*
X47952747Y-74237931D01*
X47760968Y-74300244D01*
X47578644Y-74393143D01*
X47534077Y-74425523D01*
X47534077Y-74425524D01*
X48130591Y-75022037D01*
X48067007Y-75039075D01*
X47952993Y-75104901D01*
X47859901Y-75197993D01*
X47794075Y-75312007D01*
X47777037Y-75375590D01*
X47180524Y-74779077D01*
X47180523Y-74779077D01*
X47148143Y-74823644D01*
X47055244Y-75005968D01*
X46992009Y-75200582D01*
X46960000Y-75402682D01*
X46960000Y-75607317D01*
X46992009Y-75809417D01*
X47055244Y-76004031D01*
X47148141Y-76186350D01*
X47148147Y-76186359D01*
X47180523Y-76230921D01*
X47180524Y-76230922D01*
X47777037Y-75634409D01*
X47794075Y-75697993D01*
X47859901Y-75812007D01*
X47952993Y-75905099D01*
X48067007Y-75970925D01*
X48130590Y-75987962D01*
X47534076Y-76584474D01*
X47578650Y-76616859D01*
X47760968Y-76709755D01*
X47952747Y-76772069D01*
X48010422Y-76811507D01*
X48037620Y-76875866D01*
X48025705Y-76944712D01*
X47978461Y-76996188D01*
X47952747Y-77007931D01*
X47760968Y-77070244D01*
X47578644Y-77163143D01*
X47534077Y-77195523D01*
X47534077Y-77195524D01*
X48130591Y-77792037D01*
X48067007Y-77809075D01*
X47952993Y-77874901D01*
X47859901Y-77967993D01*
X47794075Y-78082007D01*
X47777037Y-78145590D01*
X47180524Y-77549077D01*
X47180523Y-77549077D01*
X47148143Y-77593644D01*
X47055244Y-77775968D01*
X46992009Y-77970582D01*
X46960000Y-78172682D01*
X46960000Y-78377317D01*
X46992009Y-78579417D01*
X47055244Y-78774031D01*
X47148141Y-78956350D01*
X47148147Y-78956359D01*
X47180523Y-79000921D01*
X47180524Y-79000922D01*
X47777037Y-78404409D01*
X47794075Y-78467993D01*
X47859901Y-78582007D01*
X47952993Y-78675099D01*
X48067007Y-78740925D01*
X48130590Y-78757962D01*
X47534076Y-79354474D01*
X47578650Y-79386859D01*
X47760968Y-79479755D01*
X47952747Y-79542069D01*
X48010422Y-79581507D01*
X48037620Y-79645866D01*
X48025705Y-79714712D01*
X47978461Y-79766188D01*
X47952747Y-79777931D01*
X47760968Y-79840244D01*
X47578644Y-79933143D01*
X47534077Y-79965523D01*
X47534077Y-79965524D01*
X48130591Y-80562037D01*
X48067007Y-80579075D01*
X47952993Y-80644901D01*
X47859901Y-80737993D01*
X47794075Y-80852007D01*
X47777037Y-80915590D01*
X47180524Y-80319077D01*
X47180523Y-80319077D01*
X47148143Y-80363644D01*
X47055244Y-80545968D01*
X46992009Y-80740582D01*
X46960000Y-80942682D01*
X46960000Y-81147317D01*
X46992009Y-81349417D01*
X47055244Y-81544031D01*
X47148141Y-81726350D01*
X47148147Y-81726359D01*
X47180523Y-81770921D01*
X47180524Y-81770922D01*
X47777037Y-81174409D01*
X47794075Y-81237993D01*
X47859901Y-81352007D01*
X47952993Y-81445099D01*
X48067007Y-81510925D01*
X48130590Y-81527962D01*
X47534076Y-82124474D01*
X47578650Y-82156859D01*
X47760968Y-82249754D01*
X47938995Y-82307600D01*
X47996670Y-82347038D01*
X48023868Y-82411397D01*
X48011953Y-82480243D01*
X47964709Y-82531719D01*
X47938995Y-82543462D01*
X47757705Y-82602367D01*
X47574193Y-82695873D01*
X47407576Y-82816926D01*
X47407571Y-82816930D01*
X47354321Y-82870181D01*
X47292998Y-82903666D01*
X47266640Y-82906500D01*
X46133520Y-82906500D01*
X46120364Y-82909117D01*
X46096172Y-82911500D01*
X45630516Y-82911500D01*
X45455007Y-82946410D01*
X45454998Y-82946413D01*
X45289670Y-83014893D01*
X45289657Y-83014900D01*
X45140865Y-83114321D01*
X45140861Y-83114324D01*
X43998324Y-84256861D01*
X43998321Y-84256865D01*
X43898900Y-84405657D01*
X43898893Y-84405670D01*
X43851257Y-84520677D01*
X43830414Y-84570995D01*
X43830411Y-84571007D01*
X43795500Y-84746516D01*
X43280500Y-84746516D01*
X43280500Y-40864500D01*
X43300185Y-40797461D01*
X43352989Y-40751706D01*
X43404500Y-40740500D01*
X55899989Y-40740500D01*
X55899991Y-40740500D01*
X55936929Y-40725200D01*
X55965200Y-40696929D01*
X55980500Y-40659991D01*
X55980500Y-28164500D01*
X56000185Y-28097461D01*
X56052989Y-28051706D01*
X56104500Y-28040500D01*
X116615500Y-28040500D01*
X116682539Y-28060185D01*
G37*
%TD.AperFunction*%
%TD*%
M02*
