%TF.GenerationSoftware,KiCad,Pcbnew,9.0.4*%
%TF.CreationDate,2026-04-19T18:43:12+02:00*%
%TF.ProjectId,main_board,6d61696e-5f62-46f6-9172-642e6b696361,rev?*%
%TF.SameCoordinates,Original*%
%TF.FileFunction,Soldermask,Bot*%
%TF.FilePolarity,Negative*%
%FSLAX46Y46*%
G04 Gerber Fmt 4.6, Leading zero omitted, Abs format (unit mm)*
G04 Created by KiCad (PCBNEW 9.0.4) date 2026-04-19 18:43:12*
%MOMM*%
%LPD*%
G01*
G04 APERTURE LIST*
G04 APERTURE END LIST*
G36*
X72846742Y-107666601D02*
G01*
X73000687Y-107730367D01*
X73139234Y-107822941D01*
X73257059Y-107940766D01*
X73349633Y-108079313D01*
X73413399Y-108233258D01*
X73445907Y-108396685D01*
X73445907Y-108563315D01*
X73413399Y-108726742D01*
X73349633Y-108880687D01*
X73257059Y-109019234D01*
X73139234Y-109137059D01*
X73000687Y-109229633D01*
X72846742Y-109293399D01*
X72683315Y-109325907D01*
X72516685Y-109325907D01*
X72353258Y-109293399D01*
X72199313Y-109229633D01*
X72060766Y-109137059D01*
X71942941Y-109019234D01*
X71850367Y-108880687D01*
X71786601Y-108726742D01*
X71754093Y-108563315D01*
X71754093Y-108396685D01*
X71786601Y-108233258D01*
X71850367Y-108079313D01*
X71942941Y-107940766D01*
X72060766Y-107822941D01*
X72199313Y-107730367D01*
X72353258Y-107666601D01*
X72516685Y-107634093D01*
X72683315Y-107634093D01*
X72846742Y-107666601D01*
G37*
G36*
X80046742Y-107666601D02*
G01*
X80200687Y-107730367D01*
X80339234Y-107822941D01*
X80457059Y-107940766D01*
X80549633Y-108079313D01*
X80613399Y-108233258D01*
X80645907Y-108396685D01*
X80645907Y-108563315D01*
X80613399Y-108726742D01*
X80549633Y-108880687D01*
X80457059Y-109019234D01*
X80339234Y-109137059D01*
X80200687Y-109229633D01*
X80046742Y-109293399D01*
X79883315Y-109325907D01*
X79716685Y-109325907D01*
X79553258Y-109293399D01*
X79399313Y-109229633D01*
X79260766Y-109137059D01*
X79142941Y-109019234D01*
X79050367Y-108880687D01*
X78986601Y-108726742D01*
X78954093Y-108563315D01*
X78954093Y-108396685D01*
X78986601Y-108233258D01*
X79050367Y-108079313D01*
X79142941Y-107940766D01*
X79260766Y-107822941D01*
X79399313Y-107730367D01*
X79553258Y-107666601D01*
X79716685Y-107634093D01*
X79883315Y-107634093D01*
X80046742Y-107666601D01*
G37*
G36*
X76446742Y-107586601D02*
G01*
X76600687Y-107650367D01*
X76739234Y-107742941D01*
X76857059Y-107860766D01*
X76949633Y-107999313D01*
X77013399Y-108153258D01*
X77045907Y-108316685D01*
X77045907Y-108483315D01*
X77013399Y-108646742D01*
X76949633Y-108800687D01*
X76857059Y-108939234D01*
X76739234Y-109057059D01*
X76600687Y-109149633D01*
X76446742Y-109213399D01*
X76283315Y-109245907D01*
X76116685Y-109245907D01*
X75953258Y-109213399D01*
X75799313Y-109149633D01*
X75660766Y-109057059D01*
X75542941Y-108939234D01*
X75450367Y-108800687D01*
X75386601Y-108646742D01*
X75354093Y-108483315D01*
X75354093Y-108316685D01*
X75386601Y-108153258D01*
X75450367Y-107999313D01*
X75542941Y-107860766D01*
X75660766Y-107742941D01*
X75799313Y-107650367D01*
X75953258Y-107586601D01*
X76116685Y-107554093D01*
X76283315Y-107554093D01*
X76446742Y-107586601D01*
G37*
G36*
X65429199Y-102842272D02*
G01*
X65707167Y-102916754D01*
X65973035Y-103026880D01*
X66222255Y-103170767D01*
X66450561Y-103345952D01*
X66654048Y-103549439D01*
X66829233Y-103777745D01*
X66973120Y-104026965D01*
X67083246Y-104292833D01*
X67157728Y-104570801D01*
X67195290Y-104856113D01*
X67195290Y-105143887D01*
X67157728Y-105429199D01*
X67083246Y-105707167D01*
X66973120Y-105973035D01*
X66829233Y-106222255D01*
X66654048Y-106450561D01*
X66450561Y-106654048D01*
X66222255Y-106829233D01*
X65973035Y-106973120D01*
X65707167Y-107083246D01*
X65429199Y-107157728D01*
X65143887Y-107195290D01*
X64856113Y-107195290D01*
X64570801Y-107157728D01*
X64292833Y-107083246D01*
X64026965Y-106973120D01*
X63777745Y-106829233D01*
X63549439Y-106654048D01*
X63345952Y-106450561D01*
X63170767Y-106222255D01*
X63026880Y-105973035D01*
X62916754Y-105707167D01*
X62842272Y-105429199D01*
X62804710Y-105143887D01*
X62804710Y-104856113D01*
X62842272Y-104570801D01*
X62916754Y-104292833D01*
X63026880Y-104026965D01*
X63170767Y-103777745D01*
X63345952Y-103549439D01*
X63549439Y-103345952D01*
X63777745Y-103170767D01*
X64026965Y-103026880D01*
X64292833Y-102916754D01*
X64570801Y-102842272D01*
X64856113Y-102804710D01*
X65143887Y-102804710D01*
X65429199Y-102842272D01*
G37*
G36*
X88989134Y-105103806D02*
G01*
X89005355Y-105114645D01*
X89016194Y-105130866D01*
X89020000Y-105150000D01*
X89020000Y-106850000D01*
X89016194Y-106869134D01*
X89005355Y-106885355D01*
X88989134Y-106896194D01*
X88970000Y-106900000D01*
X87270000Y-106900000D01*
X87250866Y-106896194D01*
X87234645Y-106885355D01*
X87223806Y-106869134D01*
X87220000Y-106850000D01*
X87220000Y-105150000D01*
X87223806Y-105130866D01*
X87234645Y-105114645D01*
X87250866Y-105103806D01*
X87270000Y-105100000D01*
X88970000Y-105100000D01*
X88989134Y-105103806D01*
G37*
G36*
X90921256Y-105138754D02*
G01*
X91084257Y-105206271D01*
X91230954Y-105304291D01*
X91355709Y-105429046D01*
X91453729Y-105575743D01*
X91521246Y-105738744D01*
X91555666Y-105911785D01*
X91555666Y-106088215D01*
X91521246Y-106261256D01*
X91453729Y-106424257D01*
X91355709Y-106570954D01*
X91230954Y-106695709D01*
X91084257Y-106793729D01*
X90921256Y-106861246D01*
X90748215Y-106895666D01*
X90571785Y-106895666D01*
X90398744Y-106861246D01*
X90235743Y-106793729D01*
X90089046Y-106695709D01*
X89964291Y-106570954D01*
X89866271Y-106424257D01*
X89798754Y-106261256D01*
X89764334Y-106088215D01*
X89764334Y-105911785D01*
X89798754Y-105738744D01*
X89866271Y-105575743D01*
X89964291Y-105429046D01*
X90089046Y-105304291D01*
X90235743Y-105206271D01*
X90398744Y-105138754D01*
X90571785Y-105104334D01*
X90748215Y-105104334D01*
X90921256Y-105138754D01*
G37*
G36*
X93461256Y-105138754D02*
G01*
X93624257Y-105206271D01*
X93770954Y-105304291D01*
X93895709Y-105429046D01*
X93993729Y-105575743D01*
X94061246Y-105738744D01*
X94095666Y-105911785D01*
X94095666Y-106088215D01*
X94061246Y-106261256D01*
X93993729Y-106424257D01*
X93895709Y-106570954D01*
X93770954Y-106695709D01*
X93624257Y-106793729D01*
X93461256Y-106861246D01*
X93288215Y-106895666D01*
X93111785Y-106895666D01*
X92938744Y-106861246D01*
X92775743Y-106793729D01*
X92629046Y-106695709D01*
X92504291Y-106570954D01*
X92406271Y-106424257D01*
X92338754Y-106261256D01*
X92304334Y-106088215D01*
X92304334Y-105911785D01*
X92338754Y-105738744D01*
X92406271Y-105575743D01*
X92504291Y-105429046D01*
X92629046Y-105304291D01*
X92775743Y-105206271D01*
X92938744Y-105138754D01*
X93111785Y-105104334D01*
X93288215Y-105104334D01*
X93461256Y-105138754D01*
G37*
G36*
X110919199Y-100712272D02*
G01*
X111197167Y-100786754D01*
X111463035Y-100896880D01*
X111712255Y-101040767D01*
X111940561Y-101215952D01*
X112144048Y-101419439D01*
X112319233Y-101647745D01*
X112463120Y-101896965D01*
X112573246Y-102162833D01*
X112647728Y-102440801D01*
X112685290Y-102726113D01*
X112685290Y-103013887D01*
X112647728Y-103299199D01*
X112573246Y-103577167D01*
X112463120Y-103843035D01*
X112319233Y-104092255D01*
X112144048Y-104320561D01*
X111940561Y-104524048D01*
X111712255Y-104699233D01*
X111463035Y-104843120D01*
X111197167Y-104953246D01*
X110919199Y-105027728D01*
X110633887Y-105065290D01*
X110346113Y-105065290D01*
X110060801Y-105027728D01*
X109782833Y-104953246D01*
X109516965Y-104843120D01*
X109267745Y-104699233D01*
X109039439Y-104524048D01*
X108835952Y-104320561D01*
X108660767Y-104092255D01*
X108516880Y-103843035D01*
X108406754Y-103577167D01*
X108332272Y-103299199D01*
X108294710Y-103013887D01*
X108294710Y-102726113D01*
X108332272Y-102440801D01*
X108406754Y-102162833D01*
X108516880Y-101896965D01*
X108660767Y-101647745D01*
X108835952Y-101419439D01*
X109039439Y-101215952D01*
X109267745Y-101040767D01*
X109516965Y-100896880D01*
X109782833Y-100786754D01*
X110060801Y-100712272D01*
X110346113Y-100674710D01*
X110633887Y-100674710D01*
X110919199Y-100712272D01*
G37*
G36*
X88989134Y-98503806D02*
G01*
X89005355Y-98514645D01*
X89016194Y-98530866D01*
X89020000Y-98550000D01*
X89020000Y-100250000D01*
X89016194Y-100269134D01*
X89005355Y-100285355D01*
X88989134Y-100296194D01*
X88970000Y-100300000D01*
X87270000Y-100300000D01*
X87250866Y-100296194D01*
X87234645Y-100285355D01*
X87223806Y-100269134D01*
X87220000Y-100250000D01*
X87220000Y-98550000D01*
X87223806Y-98530866D01*
X87234645Y-98514645D01*
X87250866Y-98503806D01*
X87270000Y-98500000D01*
X88970000Y-98500000D01*
X88989134Y-98503806D01*
G37*
G36*
X90921256Y-98538754D02*
G01*
X91084257Y-98606271D01*
X91230954Y-98704291D01*
X91355709Y-98829046D01*
X91453729Y-98975743D01*
X91521246Y-99138744D01*
X91555666Y-99311785D01*
X91555666Y-99488215D01*
X91521246Y-99661256D01*
X91453729Y-99824257D01*
X91355709Y-99970954D01*
X91230954Y-100095709D01*
X91084257Y-100193729D01*
X90921256Y-100261246D01*
X90748215Y-100295666D01*
X90571785Y-100295666D01*
X90398744Y-100261246D01*
X90235743Y-100193729D01*
X90089046Y-100095709D01*
X89964291Y-99970954D01*
X89866271Y-99824257D01*
X89798754Y-99661256D01*
X89764334Y-99488215D01*
X89764334Y-99311785D01*
X89798754Y-99138744D01*
X89866271Y-98975743D01*
X89964291Y-98829046D01*
X90089046Y-98704291D01*
X90235743Y-98606271D01*
X90398744Y-98538754D01*
X90571785Y-98504334D01*
X90748215Y-98504334D01*
X90921256Y-98538754D01*
G37*
G36*
X93461256Y-98538754D02*
G01*
X93624257Y-98606271D01*
X93770954Y-98704291D01*
X93895709Y-98829046D01*
X93993729Y-98975743D01*
X94061246Y-99138744D01*
X94095666Y-99311785D01*
X94095666Y-99488215D01*
X94061246Y-99661256D01*
X93993729Y-99824257D01*
X93895709Y-99970954D01*
X93770954Y-100095709D01*
X93624257Y-100193729D01*
X93461256Y-100261246D01*
X93288215Y-100295666D01*
X93111785Y-100295666D01*
X92938744Y-100261246D01*
X92775743Y-100193729D01*
X92629046Y-100095709D01*
X92504291Y-99970954D01*
X92406271Y-99824257D01*
X92338754Y-99661256D01*
X92304334Y-99488215D01*
X92304334Y-99311785D01*
X92338754Y-99138744D01*
X92406271Y-98975743D01*
X92504291Y-98829046D01*
X92629046Y-98704291D01*
X92775743Y-98606271D01*
X92938744Y-98538754D01*
X93111785Y-98504334D01*
X93288215Y-98504334D01*
X93461256Y-98538754D01*
G37*
G36*
X72846742Y-97506601D02*
G01*
X73000687Y-97570367D01*
X73139234Y-97662941D01*
X73257059Y-97780766D01*
X73349633Y-97919313D01*
X73413399Y-98073258D01*
X73445907Y-98236685D01*
X73445907Y-98403315D01*
X73413399Y-98566742D01*
X73349633Y-98720687D01*
X73257059Y-98859234D01*
X73139234Y-98977059D01*
X73000687Y-99069633D01*
X72846742Y-99133399D01*
X72683315Y-99165907D01*
X72516685Y-99165907D01*
X72353258Y-99133399D01*
X72199313Y-99069633D01*
X72060766Y-98977059D01*
X71942941Y-98859234D01*
X71850367Y-98720687D01*
X71786601Y-98566742D01*
X71754093Y-98403315D01*
X71754093Y-98236685D01*
X71786601Y-98073258D01*
X71850367Y-97919313D01*
X71942941Y-97780766D01*
X72060766Y-97662941D01*
X72199313Y-97570367D01*
X72353258Y-97506601D01*
X72516685Y-97474093D01*
X72683315Y-97474093D01*
X72846742Y-97506601D01*
G37*
G36*
X80046742Y-97506601D02*
G01*
X80200687Y-97570367D01*
X80339234Y-97662941D01*
X80457059Y-97780766D01*
X80549633Y-97919313D01*
X80613399Y-98073258D01*
X80645907Y-98236685D01*
X80645907Y-98403315D01*
X80613399Y-98566742D01*
X80549633Y-98720687D01*
X80457059Y-98859234D01*
X80339234Y-98977059D01*
X80200687Y-99069633D01*
X80046742Y-99133399D01*
X79883315Y-99165907D01*
X79716685Y-99165907D01*
X79553258Y-99133399D01*
X79399313Y-99069633D01*
X79260766Y-98977059D01*
X79142941Y-98859234D01*
X79050367Y-98720687D01*
X78986601Y-98566742D01*
X78954093Y-98403315D01*
X78954093Y-98236685D01*
X78986601Y-98073258D01*
X79050367Y-97919313D01*
X79142941Y-97780766D01*
X79260766Y-97662941D01*
X79399313Y-97570367D01*
X79553258Y-97506601D01*
X79716685Y-97474093D01*
X79883315Y-97474093D01*
X80046742Y-97506601D01*
G37*
G36*
X76446742Y-97426601D02*
G01*
X76600687Y-97490367D01*
X76739234Y-97582941D01*
X76857059Y-97700766D01*
X76949633Y-97839313D01*
X77013399Y-97993258D01*
X77045907Y-98156685D01*
X77045907Y-98323315D01*
X77013399Y-98486742D01*
X76949633Y-98640687D01*
X76857059Y-98779234D01*
X76739234Y-98897059D01*
X76600687Y-98989633D01*
X76446742Y-99053399D01*
X76283315Y-99085907D01*
X76116685Y-99085907D01*
X75953258Y-99053399D01*
X75799313Y-98989633D01*
X75660766Y-98897059D01*
X75542941Y-98779234D01*
X75450367Y-98640687D01*
X75386601Y-98486742D01*
X75354093Y-98323315D01*
X75354093Y-98156685D01*
X75386601Y-97993258D01*
X75450367Y-97839313D01*
X75542941Y-97700766D01*
X75660766Y-97582941D01*
X75799313Y-97490367D01*
X75953258Y-97426601D01*
X76116685Y-97394093D01*
X76283315Y-97394093D01*
X76446742Y-97426601D01*
G37*
G36*
X48659935Y-92889390D02*
G01*
X48918951Y-92958793D01*
X49166692Y-93061411D01*
X49398919Y-93195487D01*
X49611659Y-93358728D01*
X49801272Y-93548341D01*
X49964513Y-93761081D01*
X50098589Y-93993308D01*
X50201207Y-94241049D01*
X50270610Y-94500065D01*
X50305611Y-94765924D01*
X50305611Y-95034076D01*
X50270610Y-95299935D01*
X50201207Y-95558951D01*
X50098589Y-95806692D01*
X49964513Y-96038919D01*
X49801272Y-96251659D01*
X49611659Y-96441272D01*
X49398919Y-96604513D01*
X49166692Y-96738589D01*
X48918951Y-96841207D01*
X48659935Y-96910610D01*
X48394076Y-96945611D01*
X48125924Y-96945611D01*
X47860065Y-96910610D01*
X47601049Y-96841207D01*
X47353308Y-96738589D01*
X47121081Y-96604513D01*
X46908341Y-96441272D01*
X46718728Y-96251659D01*
X46555487Y-96038919D01*
X46421411Y-95806692D01*
X46318793Y-95558951D01*
X46249390Y-95299935D01*
X46214389Y-95034076D01*
X46214389Y-94765924D01*
X46249390Y-94500065D01*
X46318793Y-94241049D01*
X46421411Y-93993308D01*
X46555487Y-93761081D01*
X46718728Y-93548341D01*
X46908341Y-93358728D01*
X47121081Y-93195487D01*
X47353308Y-93061411D01*
X47601049Y-92958793D01*
X47860065Y-92889390D01*
X48125924Y-92854389D01*
X48394076Y-92854389D01*
X48659935Y-92889390D01*
G37*
G36*
X88989134Y-91403806D02*
G01*
X89005355Y-91414645D01*
X89016194Y-91430866D01*
X89020000Y-91450000D01*
X89020000Y-93150000D01*
X89016194Y-93169134D01*
X89005355Y-93185355D01*
X88989134Y-93196194D01*
X88970000Y-93200000D01*
X87270000Y-93200000D01*
X87250866Y-93196194D01*
X87234645Y-93185355D01*
X87223806Y-93169134D01*
X87220000Y-93150000D01*
X87220000Y-91450000D01*
X87223806Y-91430866D01*
X87234645Y-91414645D01*
X87250866Y-91403806D01*
X87270000Y-91400000D01*
X88970000Y-91400000D01*
X88989134Y-91403806D01*
G37*
G36*
X90921256Y-91438754D02*
G01*
X91084257Y-91506271D01*
X91230954Y-91604291D01*
X91355709Y-91729046D01*
X91453729Y-91875743D01*
X91521246Y-92038744D01*
X91555666Y-92211785D01*
X91555666Y-92388215D01*
X91521246Y-92561256D01*
X91453729Y-92724257D01*
X91355709Y-92870954D01*
X91230954Y-92995709D01*
X91084257Y-93093729D01*
X90921256Y-93161246D01*
X90748215Y-93195666D01*
X90571785Y-93195666D01*
X90398744Y-93161246D01*
X90235743Y-93093729D01*
X90089046Y-92995709D01*
X89964291Y-92870954D01*
X89866271Y-92724257D01*
X89798754Y-92561256D01*
X89764334Y-92388215D01*
X89764334Y-92211785D01*
X89798754Y-92038744D01*
X89866271Y-91875743D01*
X89964291Y-91729046D01*
X90089046Y-91604291D01*
X90235743Y-91506271D01*
X90398744Y-91438754D01*
X90571785Y-91404334D01*
X90748215Y-91404334D01*
X90921256Y-91438754D01*
G37*
G36*
X93461256Y-91438754D02*
G01*
X93624257Y-91506271D01*
X93770954Y-91604291D01*
X93895709Y-91729046D01*
X93993729Y-91875743D01*
X94061246Y-92038744D01*
X94095666Y-92211785D01*
X94095666Y-92388215D01*
X94061246Y-92561256D01*
X93993729Y-92724257D01*
X93895709Y-92870954D01*
X93770954Y-92995709D01*
X93624257Y-93093729D01*
X93461256Y-93161246D01*
X93288215Y-93195666D01*
X93111785Y-93195666D01*
X92938744Y-93161246D01*
X92775743Y-93093729D01*
X92629046Y-92995709D01*
X92504291Y-92870954D01*
X92406271Y-92724257D01*
X92338754Y-92561256D01*
X92304334Y-92388215D01*
X92304334Y-92211785D01*
X92338754Y-92038744D01*
X92406271Y-91875743D01*
X92504291Y-91729046D01*
X92629046Y-91604291D01*
X92775743Y-91506271D01*
X92938744Y-91438754D01*
X93111785Y-91404334D01*
X93288215Y-91404334D01*
X93461256Y-91438754D01*
G37*
G36*
X51919134Y-87123806D02*
G01*
X51935355Y-87134645D01*
X51946194Y-87150866D01*
X51950000Y-87170000D01*
X51950000Y-88770000D01*
X51946194Y-88789134D01*
X51935355Y-88805355D01*
X51919134Y-88816194D01*
X51900000Y-88820000D01*
X50300000Y-88820000D01*
X50280866Y-88816194D01*
X50264645Y-88805355D01*
X50253806Y-88789134D01*
X50250000Y-88770000D01*
X50250000Y-87170000D01*
X50253806Y-87150866D01*
X50264645Y-87134645D01*
X50280866Y-87123806D01*
X50300000Y-87120000D01*
X51900000Y-87120000D01*
X51919134Y-87123806D01*
G37*
G36*
X48506742Y-85771601D02*
G01*
X48660687Y-85835367D01*
X48799234Y-85927941D01*
X48917059Y-86045766D01*
X49009633Y-86184313D01*
X49073399Y-86338258D01*
X49105907Y-86501685D01*
X49105907Y-86668315D01*
X49073399Y-86831742D01*
X49009633Y-86985687D01*
X48917059Y-87124234D01*
X48799234Y-87242059D01*
X48660687Y-87334633D01*
X48506742Y-87398399D01*
X48343315Y-87430907D01*
X48176685Y-87430907D01*
X48013258Y-87398399D01*
X47859313Y-87334633D01*
X47720766Y-87242059D01*
X47602941Y-87124234D01*
X47510367Y-86985687D01*
X47446601Y-86831742D01*
X47414093Y-86668315D01*
X47414093Y-86501685D01*
X47446601Y-86338258D01*
X47510367Y-86184313D01*
X47602941Y-86045766D01*
X47720766Y-85927941D01*
X47859313Y-85835367D01*
X48013258Y-85771601D01*
X48176685Y-85739093D01*
X48343315Y-85739093D01*
X48506742Y-85771601D01*
G37*
G36*
X74529134Y-84353806D02*
G01*
X74545355Y-84364645D01*
X74556194Y-84380866D01*
X74560000Y-84400000D01*
X74560000Y-86100000D01*
X74556194Y-86119134D01*
X74545355Y-86135355D01*
X74529134Y-86146194D01*
X74510000Y-86150000D01*
X72810000Y-86150000D01*
X72790866Y-86146194D01*
X72774645Y-86135355D01*
X72763806Y-86119134D01*
X72760000Y-86100000D01*
X72760000Y-84400000D01*
X72763806Y-84380866D01*
X72774645Y-84364645D01*
X72790866Y-84353806D01*
X72810000Y-84350000D01*
X74510000Y-84350000D01*
X74529134Y-84353806D01*
G37*
G36*
X76461256Y-84388754D02*
G01*
X76624257Y-84456271D01*
X76770954Y-84554291D01*
X76895709Y-84679046D01*
X76993729Y-84825743D01*
X77061246Y-84988744D01*
X77095666Y-85161785D01*
X77095666Y-85338215D01*
X77061246Y-85511256D01*
X76993729Y-85674257D01*
X76895709Y-85820954D01*
X76770954Y-85945709D01*
X76624257Y-86043729D01*
X76461256Y-86111246D01*
X76288215Y-86145666D01*
X76111785Y-86145666D01*
X75938744Y-86111246D01*
X75775743Y-86043729D01*
X75629046Y-85945709D01*
X75504291Y-85820954D01*
X75406271Y-85674257D01*
X75338754Y-85511256D01*
X75304334Y-85338215D01*
X75304334Y-85161785D01*
X75338754Y-84988744D01*
X75406271Y-84825743D01*
X75504291Y-84679046D01*
X75629046Y-84554291D01*
X75775743Y-84456271D01*
X75938744Y-84388754D01*
X76111785Y-84354334D01*
X76288215Y-84354334D01*
X76461256Y-84388754D01*
G37*
G36*
X51346742Y-84386601D02*
G01*
X51500687Y-84450367D01*
X51639234Y-84542941D01*
X51757059Y-84660766D01*
X51849633Y-84799313D01*
X51913399Y-84953258D01*
X51945907Y-85116685D01*
X51945907Y-85283315D01*
X51913399Y-85446742D01*
X51849633Y-85600687D01*
X51757059Y-85739234D01*
X51639234Y-85857059D01*
X51500687Y-85949633D01*
X51346742Y-86013399D01*
X51183315Y-86045907D01*
X51016685Y-86045907D01*
X50853258Y-86013399D01*
X50699313Y-85949633D01*
X50560766Y-85857059D01*
X50442941Y-85739234D01*
X50350367Y-85600687D01*
X50286601Y-85446742D01*
X50254093Y-85283315D01*
X50254093Y-85116685D01*
X50286601Y-84953258D01*
X50350367Y-84799313D01*
X50442941Y-84660766D01*
X50560766Y-84542941D01*
X50699313Y-84450367D01*
X50853258Y-84386601D01*
X51016685Y-84354093D01*
X51183315Y-84354093D01*
X51346742Y-84386601D01*
G37*
G36*
X48506742Y-83001601D02*
G01*
X48660687Y-83065367D01*
X48799234Y-83157941D01*
X48917059Y-83275766D01*
X49009633Y-83414313D01*
X49073399Y-83568258D01*
X49105907Y-83731685D01*
X49105907Y-83898315D01*
X49073399Y-84061742D01*
X49009633Y-84215687D01*
X48917059Y-84354234D01*
X48799234Y-84472059D01*
X48660687Y-84564633D01*
X48506742Y-84628399D01*
X48343315Y-84660907D01*
X48176685Y-84660907D01*
X48013258Y-84628399D01*
X47859313Y-84564633D01*
X47720766Y-84472059D01*
X47602941Y-84354234D01*
X47510367Y-84215687D01*
X47446601Y-84061742D01*
X47414093Y-83898315D01*
X47414093Y-83731685D01*
X47446601Y-83568258D01*
X47510367Y-83414313D01*
X47602941Y-83275766D01*
X47720766Y-83157941D01*
X47859313Y-83065367D01*
X48013258Y-83001601D01*
X48176685Y-82969093D01*
X48343315Y-82969093D01*
X48506742Y-83001601D01*
G37*
G36*
X99560742Y-82672601D02*
G01*
X99714687Y-82736367D01*
X99853234Y-82828941D01*
X99971059Y-82946766D01*
X100063633Y-83085313D01*
X100127399Y-83239258D01*
X100159907Y-83402685D01*
X100159907Y-83569315D01*
X100127399Y-83732742D01*
X100063633Y-83886687D01*
X99971059Y-84025234D01*
X99853234Y-84143059D01*
X99714687Y-84235633D01*
X99560742Y-84299399D01*
X99397315Y-84331907D01*
X99230685Y-84331907D01*
X99067258Y-84299399D01*
X98913313Y-84235633D01*
X98774766Y-84143059D01*
X98656941Y-84025234D01*
X98564367Y-83886687D01*
X98500601Y-83732742D01*
X98468093Y-83569315D01*
X98468093Y-83402685D01*
X98500601Y-83239258D01*
X98564367Y-83085313D01*
X98656941Y-82946766D01*
X98774766Y-82828941D01*
X98913313Y-82736367D01*
X99067258Y-82672601D01*
X99230685Y-82640093D01*
X99397315Y-82640093D01*
X99560742Y-82672601D01*
G37*
G36*
X85279134Y-81603806D02*
G01*
X85295355Y-81614645D01*
X85306194Y-81630866D01*
X85310000Y-81650000D01*
X85310000Y-83350000D01*
X85306194Y-83369134D01*
X85295355Y-83385355D01*
X85279134Y-83396194D01*
X85260000Y-83400000D01*
X83560000Y-83400000D01*
X83540866Y-83396194D01*
X83524645Y-83385355D01*
X83513806Y-83369134D01*
X83510000Y-83350000D01*
X83510000Y-81650000D01*
X83513806Y-81630866D01*
X83524645Y-81614645D01*
X83540866Y-81603806D01*
X83560000Y-81600000D01*
X85260000Y-81600000D01*
X85279134Y-81603806D01*
G37*
G36*
X87211256Y-81638754D02*
G01*
X87374257Y-81706271D01*
X87520954Y-81804291D01*
X87645709Y-81929046D01*
X87743729Y-82075743D01*
X87811246Y-82238744D01*
X87845666Y-82411785D01*
X87845666Y-82588215D01*
X87811246Y-82761256D01*
X87743729Y-82924257D01*
X87645709Y-83070954D01*
X87520954Y-83195709D01*
X87374257Y-83293729D01*
X87211256Y-83361246D01*
X87038215Y-83395666D01*
X86861785Y-83395666D01*
X86688744Y-83361246D01*
X86525743Y-83293729D01*
X86379046Y-83195709D01*
X86254291Y-83070954D01*
X86156271Y-82924257D01*
X86088754Y-82761256D01*
X86054334Y-82588215D01*
X86054334Y-82411785D01*
X86088754Y-82238744D01*
X86156271Y-82075743D01*
X86254291Y-81929046D01*
X86379046Y-81804291D01*
X86525743Y-81706271D01*
X86688744Y-81638754D01*
X86861785Y-81604334D01*
X87038215Y-81604334D01*
X87211256Y-81638754D01*
G37*
G36*
X51346742Y-81616601D02*
G01*
X51500687Y-81680367D01*
X51639234Y-81772941D01*
X51757059Y-81890766D01*
X51849633Y-82029313D01*
X51913399Y-82183258D01*
X51945907Y-82346685D01*
X51945907Y-82513315D01*
X51913399Y-82676742D01*
X51849633Y-82830687D01*
X51757059Y-82969234D01*
X51639234Y-83087059D01*
X51500687Y-83179633D01*
X51346742Y-83243399D01*
X51183315Y-83275907D01*
X51016685Y-83275907D01*
X50853258Y-83243399D01*
X50699313Y-83179633D01*
X50560766Y-83087059D01*
X50442941Y-82969234D01*
X50350367Y-82830687D01*
X50286601Y-82676742D01*
X50254093Y-82513315D01*
X50254093Y-82346685D01*
X50286601Y-82183258D01*
X50350367Y-82029313D01*
X50442941Y-81890766D01*
X50560766Y-81772941D01*
X50699313Y-81680367D01*
X50853258Y-81616601D01*
X51016685Y-81584093D01*
X51183315Y-81584093D01*
X51346742Y-81616601D01*
G37*
G36*
X48506742Y-80231601D02*
G01*
X48660687Y-80295367D01*
X48799234Y-80387941D01*
X48917059Y-80505766D01*
X49009633Y-80644313D01*
X49073399Y-80798258D01*
X49105907Y-80961685D01*
X49105907Y-81128315D01*
X49073399Y-81291742D01*
X49009633Y-81445687D01*
X48917059Y-81584234D01*
X48799234Y-81702059D01*
X48660687Y-81794633D01*
X48506742Y-81858399D01*
X48343315Y-81890907D01*
X48176685Y-81890907D01*
X48013258Y-81858399D01*
X47859313Y-81794633D01*
X47720766Y-81702059D01*
X47602941Y-81584234D01*
X47510367Y-81445687D01*
X47446601Y-81291742D01*
X47414093Y-81128315D01*
X47414093Y-80961685D01*
X47446601Y-80798258D01*
X47510367Y-80644313D01*
X47602941Y-80505766D01*
X47720766Y-80387941D01*
X47859313Y-80295367D01*
X48013258Y-80231601D01*
X48176685Y-80199093D01*
X48343315Y-80199093D01*
X48506742Y-80231601D01*
G37*
G36*
X74529134Y-78853806D02*
G01*
X74545355Y-78864645D01*
X74556194Y-78880866D01*
X74560000Y-78900000D01*
X74560000Y-80600000D01*
X74556194Y-80619134D01*
X74545355Y-80635355D01*
X74529134Y-80646194D01*
X74510000Y-80650000D01*
X72810000Y-80650000D01*
X72790866Y-80646194D01*
X72774645Y-80635355D01*
X72763806Y-80619134D01*
X72760000Y-80600000D01*
X72760000Y-78900000D01*
X72763806Y-78880866D01*
X72774645Y-78864645D01*
X72790866Y-78853806D01*
X72810000Y-78850000D01*
X74510000Y-78850000D01*
X74529134Y-78853806D01*
G37*
G36*
X76461256Y-78888754D02*
G01*
X76624257Y-78956271D01*
X76770954Y-79054291D01*
X76895709Y-79179046D01*
X76993729Y-79325743D01*
X77061246Y-79488744D01*
X77095666Y-79661785D01*
X77095666Y-79838215D01*
X77061246Y-80011256D01*
X76993729Y-80174257D01*
X76895709Y-80320954D01*
X76770954Y-80445709D01*
X76624257Y-80543729D01*
X76461256Y-80611246D01*
X76288215Y-80645666D01*
X76111785Y-80645666D01*
X75938744Y-80611246D01*
X75775743Y-80543729D01*
X75629046Y-80445709D01*
X75504291Y-80320954D01*
X75406271Y-80174257D01*
X75338754Y-80011256D01*
X75304334Y-79838215D01*
X75304334Y-79661785D01*
X75338754Y-79488744D01*
X75406271Y-79325743D01*
X75504291Y-79179046D01*
X75629046Y-79054291D01*
X75775743Y-78956271D01*
X75938744Y-78888754D01*
X76111785Y-78854334D01*
X76288215Y-78854334D01*
X76461256Y-78888754D01*
G37*
G36*
X51346742Y-78846601D02*
G01*
X51500687Y-78910367D01*
X51639234Y-79002941D01*
X51757059Y-79120766D01*
X51849633Y-79259313D01*
X51913399Y-79413258D01*
X51945907Y-79576685D01*
X51945907Y-79743315D01*
X51913399Y-79906742D01*
X51849633Y-80060687D01*
X51757059Y-80199234D01*
X51639234Y-80317059D01*
X51500687Y-80409633D01*
X51346742Y-80473399D01*
X51183315Y-80505907D01*
X51016685Y-80505907D01*
X50853258Y-80473399D01*
X50699313Y-80409633D01*
X50560766Y-80317059D01*
X50442941Y-80199234D01*
X50350367Y-80060687D01*
X50286601Y-79906742D01*
X50254093Y-79743315D01*
X50254093Y-79576685D01*
X50286601Y-79413258D01*
X50350367Y-79259313D01*
X50442941Y-79120766D01*
X50560766Y-79002941D01*
X50699313Y-78910367D01*
X50853258Y-78846601D01*
X51016685Y-78814093D01*
X51183315Y-78814093D01*
X51346742Y-78846601D01*
G37*
G36*
X108819134Y-77589806D02*
G01*
X108835355Y-77600645D01*
X108846194Y-77616866D01*
X108850000Y-77636000D01*
X108850000Y-79336000D01*
X108846194Y-79355134D01*
X108835355Y-79371355D01*
X108819134Y-79382194D01*
X108800000Y-79386000D01*
X107100000Y-79386000D01*
X107080866Y-79382194D01*
X107064645Y-79371355D01*
X107053806Y-79355134D01*
X107050000Y-79336000D01*
X107050000Y-77636000D01*
X107053806Y-77616866D01*
X107064645Y-77600645D01*
X107080866Y-77589806D01*
X107100000Y-77586000D01*
X108800000Y-77586000D01*
X108819134Y-77589806D01*
G37*
G36*
X105671256Y-77624754D02*
G01*
X105834257Y-77692271D01*
X105980954Y-77790291D01*
X106105709Y-77915046D01*
X106203729Y-78061743D01*
X106271246Y-78224744D01*
X106305666Y-78397785D01*
X106305666Y-78574215D01*
X106271246Y-78747256D01*
X106203729Y-78910257D01*
X106105709Y-79056954D01*
X105980954Y-79181709D01*
X105834257Y-79279729D01*
X105671256Y-79347246D01*
X105498215Y-79381666D01*
X105321785Y-79381666D01*
X105148744Y-79347246D01*
X104985743Y-79279729D01*
X104839046Y-79181709D01*
X104714291Y-79056954D01*
X104616271Y-78910257D01*
X104548754Y-78747256D01*
X104514334Y-78574215D01*
X104514334Y-78397785D01*
X104548754Y-78224744D01*
X104616271Y-78061743D01*
X104714291Y-77915046D01*
X104839046Y-77790291D01*
X104985743Y-77692271D01*
X105148744Y-77624754D01*
X105321785Y-77590334D01*
X105498215Y-77590334D01*
X105671256Y-77624754D01*
G37*
G36*
X99560742Y-77672601D02*
G01*
X99714687Y-77736367D01*
X99853234Y-77828941D01*
X99971059Y-77946766D01*
X100063633Y-78085313D01*
X100127399Y-78239258D01*
X100159907Y-78402685D01*
X100159907Y-78569315D01*
X100127399Y-78732742D01*
X100063633Y-78886687D01*
X99971059Y-79025234D01*
X99853234Y-79143059D01*
X99714687Y-79235633D01*
X99560742Y-79299399D01*
X99397315Y-79331907D01*
X99230685Y-79331907D01*
X99067258Y-79299399D01*
X98913313Y-79235633D01*
X98774766Y-79143059D01*
X98656941Y-79025234D01*
X98564367Y-78886687D01*
X98500601Y-78732742D01*
X98468093Y-78569315D01*
X98468093Y-78402685D01*
X98500601Y-78239258D01*
X98564367Y-78085313D01*
X98656941Y-77946766D01*
X98774766Y-77828941D01*
X98913313Y-77736367D01*
X99067258Y-77672601D01*
X99230685Y-77640093D01*
X99397315Y-77640093D01*
X99560742Y-77672601D01*
G37*
G36*
X48506742Y-77461601D02*
G01*
X48660687Y-77525367D01*
X48799234Y-77617941D01*
X48917059Y-77735766D01*
X49009633Y-77874313D01*
X49073399Y-78028258D01*
X49105907Y-78191685D01*
X49105907Y-78358315D01*
X49073399Y-78521742D01*
X49009633Y-78675687D01*
X48917059Y-78814234D01*
X48799234Y-78932059D01*
X48660687Y-79024633D01*
X48506742Y-79088399D01*
X48343315Y-79120907D01*
X48176685Y-79120907D01*
X48013258Y-79088399D01*
X47859313Y-79024633D01*
X47720766Y-78932059D01*
X47602941Y-78814234D01*
X47510367Y-78675687D01*
X47446601Y-78521742D01*
X47414093Y-78358315D01*
X47414093Y-78191685D01*
X47446601Y-78028258D01*
X47510367Y-77874313D01*
X47602941Y-77735766D01*
X47720766Y-77617941D01*
X47859313Y-77525367D01*
X48013258Y-77461601D01*
X48176685Y-77429093D01*
X48343315Y-77429093D01*
X48506742Y-77461601D01*
G37*
G36*
X51346742Y-76076601D02*
G01*
X51500687Y-76140367D01*
X51639234Y-76232941D01*
X51757059Y-76350766D01*
X51849633Y-76489313D01*
X51913399Y-76643258D01*
X51945907Y-76806685D01*
X51945907Y-76973315D01*
X51913399Y-77136742D01*
X51849633Y-77290687D01*
X51757059Y-77429234D01*
X51639234Y-77547059D01*
X51500687Y-77639633D01*
X51346742Y-77703399D01*
X51183315Y-77735907D01*
X51016685Y-77735907D01*
X50853258Y-77703399D01*
X50699313Y-77639633D01*
X50560766Y-77547059D01*
X50442941Y-77429234D01*
X50350367Y-77290687D01*
X50286601Y-77136742D01*
X50254093Y-76973315D01*
X50254093Y-76806685D01*
X50286601Y-76643258D01*
X50350367Y-76489313D01*
X50442941Y-76350766D01*
X50560766Y-76232941D01*
X50699313Y-76140367D01*
X50853258Y-76076601D01*
X51016685Y-76044093D01*
X51183315Y-76044093D01*
X51346742Y-76076601D01*
G37*
G36*
X85279134Y-75853806D02*
G01*
X85295355Y-75864645D01*
X85306194Y-75880866D01*
X85310000Y-75900000D01*
X85310000Y-77600000D01*
X85306194Y-77619134D01*
X85295355Y-77635355D01*
X85279134Y-77646194D01*
X85260000Y-77650000D01*
X83560000Y-77650000D01*
X83540866Y-77646194D01*
X83524645Y-77635355D01*
X83513806Y-77619134D01*
X83510000Y-77600000D01*
X83510000Y-75900000D01*
X83513806Y-75880866D01*
X83524645Y-75864645D01*
X83540866Y-75853806D01*
X83560000Y-75850000D01*
X85260000Y-75850000D01*
X85279134Y-75853806D01*
G37*
G36*
X87211256Y-75888754D02*
G01*
X87374257Y-75956271D01*
X87520954Y-76054291D01*
X87645709Y-76179046D01*
X87743729Y-76325743D01*
X87811246Y-76488744D01*
X87845666Y-76661785D01*
X87845666Y-76838215D01*
X87811246Y-77011256D01*
X87743729Y-77174257D01*
X87645709Y-77320954D01*
X87520954Y-77445709D01*
X87374257Y-77543729D01*
X87211256Y-77611246D01*
X87038215Y-77645666D01*
X86861785Y-77645666D01*
X86688744Y-77611246D01*
X86525743Y-77543729D01*
X86379046Y-77445709D01*
X86254291Y-77320954D01*
X86156271Y-77174257D01*
X86088754Y-77011256D01*
X86054334Y-76838215D01*
X86054334Y-76661785D01*
X86088754Y-76488744D01*
X86156271Y-76325743D01*
X86254291Y-76179046D01*
X86379046Y-76054291D01*
X86525743Y-75956271D01*
X86688744Y-75888754D01*
X86861785Y-75854334D01*
X87038215Y-75854334D01*
X87211256Y-75888754D01*
G37*
G36*
X48506742Y-74691601D02*
G01*
X48660687Y-74755367D01*
X48799234Y-74847941D01*
X48917059Y-74965766D01*
X49009633Y-75104313D01*
X49073399Y-75258258D01*
X49105907Y-75421685D01*
X49105907Y-75588315D01*
X49073399Y-75751742D01*
X49009633Y-75905687D01*
X48917059Y-76044234D01*
X48799234Y-76162059D01*
X48660687Y-76254633D01*
X48506742Y-76318399D01*
X48343315Y-76350907D01*
X48176685Y-76350907D01*
X48013258Y-76318399D01*
X47859313Y-76254633D01*
X47720766Y-76162059D01*
X47602941Y-76044234D01*
X47510367Y-75905687D01*
X47446601Y-75751742D01*
X47414093Y-75588315D01*
X47414093Y-75421685D01*
X47446601Y-75258258D01*
X47510367Y-75104313D01*
X47602941Y-74965766D01*
X47720766Y-74847941D01*
X47859313Y-74755367D01*
X48013258Y-74691601D01*
X48176685Y-74659093D01*
X48343315Y-74659093D01*
X48506742Y-74691601D01*
G37*
G36*
X51346742Y-73306601D02*
G01*
X51500687Y-73370367D01*
X51639234Y-73462941D01*
X51757059Y-73580766D01*
X51849633Y-73719313D01*
X51913399Y-73873258D01*
X51945907Y-74036685D01*
X51945907Y-74203315D01*
X51913399Y-74366742D01*
X51849633Y-74520687D01*
X51757059Y-74659234D01*
X51639234Y-74777059D01*
X51500687Y-74869633D01*
X51346742Y-74933399D01*
X51183315Y-74965907D01*
X51016685Y-74965907D01*
X50853258Y-74933399D01*
X50699313Y-74869633D01*
X50560766Y-74777059D01*
X50442941Y-74659234D01*
X50350367Y-74520687D01*
X50286601Y-74366742D01*
X50254093Y-74203315D01*
X50254093Y-74036685D01*
X50286601Y-73873258D01*
X50350367Y-73719313D01*
X50442941Y-73580766D01*
X50560766Y-73462941D01*
X50699313Y-73370367D01*
X50853258Y-73306601D01*
X51016685Y-73274093D01*
X51183315Y-73274093D01*
X51346742Y-73306601D01*
G37*
G36*
X74529134Y-73103806D02*
G01*
X74545355Y-73114645D01*
X74556194Y-73130866D01*
X74560000Y-73150000D01*
X74560000Y-74850000D01*
X74556194Y-74869134D01*
X74545355Y-74885355D01*
X74529134Y-74896194D01*
X74510000Y-74900000D01*
X72810000Y-74900000D01*
X72790866Y-74896194D01*
X72774645Y-74885355D01*
X72763806Y-74869134D01*
X72760000Y-74850000D01*
X72760000Y-73150000D01*
X72763806Y-73130866D01*
X72774645Y-73114645D01*
X72790866Y-73103806D01*
X72810000Y-73100000D01*
X74510000Y-73100000D01*
X74529134Y-73103806D01*
G37*
G36*
X76461256Y-73138754D02*
G01*
X76624257Y-73206271D01*
X76770954Y-73304291D01*
X76895709Y-73429046D01*
X76993729Y-73575743D01*
X77061246Y-73738744D01*
X77095666Y-73911785D01*
X77095666Y-74088215D01*
X77061246Y-74261256D01*
X76993729Y-74424257D01*
X76895709Y-74570954D01*
X76770954Y-74695709D01*
X76624257Y-74793729D01*
X76461256Y-74861246D01*
X76288215Y-74895666D01*
X76111785Y-74895666D01*
X75938744Y-74861246D01*
X75775743Y-74793729D01*
X75629046Y-74695709D01*
X75504291Y-74570954D01*
X75406271Y-74424257D01*
X75338754Y-74261256D01*
X75304334Y-74088215D01*
X75304334Y-73911785D01*
X75338754Y-73738744D01*
X75406271Y-73575743D01*
X75504291Y-73429046D01*
X75629046Y-73304291D01*
X75775743Y-73206271D01*
X75938744Y-73138754D01*
X76111785Y-73104334D01*
X76288215Y-73104334D01*
X76461256Y-73138754D01*
G37*
G36*
X48506742Y-71921601D02*
G01*
X48660687Y-71985367D01*
X48799234Y-72077941D01*
X48917059Y-72195766D01*
X49009633Y-72334313D01*
X49073399Y-72488258D01*
X49105907Y-72651685D01*
X49105907Y-72818315D01*
X49073399Y-72981742D01*
X49009633Y-73135687D01*
X48917059Y-73274234D01*
X48799234Y-73392059D01*
X48660687Y-73484633D01*
X48506742Y-73548399D01*
X48343315Y-73580907D01*
X48176685Y-73580907D01*
X48013258Y-73548399D01*
X47859313Y-73484633D01*
X47720766Y-73392059D01*
X47602941Y-73274234D01*
X47510367Y-73135687D01*
X47446601Y-72981742D01*
X47414093Y-72818315D01*
X47414093Y-72651685D01*
X47446601Y-72488258D01*
X47510367Y-72334313D01*
X47602941Y-72195766D01*
X47720766Y-72077941D01*
X47859313Y-71985367D01*
X48013258Y-71921601D01*
X48176685Y-71889093D01*
X48343315Y-71889093D01*
X48506742Y-71921601D01*
G37*
G36*
X108819134Y-70477806D02*
G01*
X108835355Y-70488645D01*
X108846194Y-70504866D01*
X108850000Y-70524000D01*
X108850000Y-72224000D01*
X108846194Y-72243134D01*
X108835355Y-72259355D01*
X108819134Y-72270194D01*
X108800000Y-72274000D01*
X107100000Y-72274000D01*
X107080866Y-72270194D01*
X107064645Y-72259355D01*
X107053806Y-72243134D01*
X107050000Y-72224000D01*
X107050000Y-70524000D01*
X107053806Y-70504866D01*
X107064645Y-70488645D01*
X107080866Y-70477806D01*
X107100000Y-70474000D01*
X108800000Y-70474000D01*
X108819134Y-70477806D01*
G37*
G36*
X105671256Y-70512754D02*
G01*
X105834257Y-70580271D01*
X105980954Y-70678291D01*
X106105709Y-70803046D01*
X106203729Y-70949743D01*
X106271246Y-71112744D01*
X106305666Y-71285785D01*
X106305666Y-71462215D01*
X106271246Y-71635256D01*
X106203729Y-71798257D01*
X106105709Y-71944954D01*
X105980954Y-72069709D01*
X105834257Y-72167729D01*
X105671256Y-72235246D01*
X105498215Y-72269666D01*
X105321785Y-72269666D01*
X105148744Y-72235246D01*
X104985743Y-72167729D01*
X104839046Y-72069709D01*
X104714291Y-71944954D01*
X104616271Y-71798257D01*
X104548754Y-71635256D01*
X104514334Y-71462215D01*
X104514334Y-71285785D01*
X104548754Y-71112744D01*
X104616271Y-70949743D01*
X104714291Y-70803046D01*
X104839046Y-70678291D01*
X104985743Y-70580271D01*
X105148744Y-70512754D01*
X105321785Y-70478334D01*
X105498215Y-70478334D01*
X105671256Y-70512754D01*
G37*
G36*
X97392685Y-70531969D02*
G01*
X97408461Y-70538934D01*
X97416222Y-70540164D01*
X97448542Y-70556632D01*
X97493541Y-70576501D01*
X97571499Y-70654459D01*
X97591370Y-70699464D01*
X97607835Y-70731777D01*
X97609063Y-70739535D01*
X97616031Y-70755315D01*
X97624000Y-70824000D01*
X97624000Y-71924000D01*
X97616031Y-71992685D01*
X97609063Y-72008464D01*
X97607835Y-72016222D01*
X97591373Y-72048528D01*
X97571499Y-72093541D01*
X97493541Y-72171499D01*
X97448528Y-72191373D01*
X97416222Y-72207835D01*
X97408464Y-72209063D01*
X97392685Y-72216031D01*
X97324000Y-72224000D01*
X96224000Y-72224000D01*
X96155315Y-72216031D01*
X96139535Y-72209063D01*
X96131777Y-72207835D01*
X96099464Y-72191370D01*
X96054459Y-72171499D01*
X95976501Y-72093541D01*
X95956632Y-72048542D01*
X95940164Y-72016222D01*
X95938934Y-72008461D01*
X95931969Y-71992685D01*
X95924000Y-71924000D01*
X95924000Y-70824000D01*
X95931969Y-70755315D01*
X95938934Y-70739539D01*
X95940164Y-70731777D01*
X95956635Y-70699449D01*
X95976501Y-70654459D01*
X96054459Y-70576501D01*
X96099449Y-70556635D01*
X96131777Y-70540164D01*
X96139539Y-70538934D01*
X96155315Y-70531969D01*
X96224000Y-70524000D01*
X97324000Y-70524000D01*
X97392685Y-70531969D01*
G37*
G36*
X99520742Y-70560601D02*
G01*
X99674687Y-70624367D01*
X99813234Y-70716941D01*
X99931059Y-70834766D01*
X100023633Y-70973313D01*
X100087399Y-71127258D01*
X100119907Y-71290685D01*
X100119907Y-71457315D01*
X100087399Y-71620742D01*
X100023633Y-71774687D01*
X99931059Y-71913234D01*
X99813234Y-72031059D01*
X99674687Y-72123633D01*
X99520742Y-72187399D01*
X99357315Y-72219907D01*
X99190685Y-72219907D01*
X99027258Y-72187399D01*
X98873313Y-72123633D01*
X98734766Y-72031059D01*
X98616941Y-71913234D01*
X98524367Y-71774687D01*
X98460601Y-71620742D01*
X98428093Y-71457315D01*
X98428093Y-71290685D01*
X98460601Y-71127258D01*
X98524367Y-70973313D01*
X98616941Y-70834766D01*
X98734766Y-70716941D01*
X98873313Y-70624367D01*
X99027258Y-70560601D01*
X99190685Y-70528093D01*
X99357315Y-70528093D01*
X99520742Y-70560601D01*
G37*
G36*
X51346742Y-70536601D02*
G01*
X51500687Y-70600367D01*
X51639234Y-70692941D01*
X51757059Y-70810766D01*
X51849633Y-70949313D01*
X51913399Y-71103258D01*
X51945907Y-71266685D01*
X51945907Y-71433315D01*
X51913399Y-71596742D01*
X51849633Y-71750687D01*
X51757059Y-71889234D01*
X51639234Y-72007059D01*
X51500687Y-72099633D01*
X51346742Y-72163399D01*
X51183315Y-72195907D01*
X51016685Y-72195907D01*
X50853258Y-72163399D01*
X50699313Y-72099633D01*
X50560766Y-72007059D01*
X50442941Y-71889234D01*
X50350367Y-71750687D01*
X50286601Y-71596742D01*
X50254093Y-71433315D01*
X50254093Y-71266685D01*
X50286601Y-71103258D01*
X50350367Y-70949313D01*
X50442941Y-70810766D01*
X50560766Y-70692941D01*
X50699313Y-70600367D01*
X50853258Y-70536601D01*
X51016685Y-70504093D01*
X51183315Y-70504093D01*
X51346742Y-70536601D01*
G37*
G36*
X85279134Y-70353806D02*
G01*
X85295355Y-70364645D01*
X85306194Y-70380866D01*
X85310000Y-70400000D01*
X85310000Y-72100000D01*
X85306194Y-72119134D01*
X85295355Y-72135355D01*
X85279134Y-72146194D01*
X85260000Y-72150000D01*
X83560000Y-72150000D01*
X83540866Y-72146194D01*
X83524645Y-72135355D01*
X83513806Y-72119134D01*
X83510000Y-72100000D01*
X83510000Y-70400000D01*
X83513806Y-70380866D01*
X83524645Y-70364645D01*
X83540866Y-70353806D01*
X83560000Y-70350000D01*
X85260000Y-70350000D01*
X85279134Y-70353806D01*
G37*
G36*
X87211256Y-70388754D02*
G01*
X87374257Y-70456271D01*
X87520954Y-70554291D01*
X87645709Y-70679046D01*
X87743729Y-70825743D01*
X87811246Y-70988744D01*
X87845666Y-71161785D01*
X87845666Y-71338215D01*
X87811246Y-71511256D01*
X87743729Y-71674257D01*
X87645709Y-71820954D01*
X87520954Y-71945709D01*
X87374257Y-72043729D01*
X87211256Y-72111246D01*
X87038215Y-72145666D01*
X86861785Y-72145666D01*
X86688744Y-72111246D01*
X86525743Y-72043729D01*
X86379046Y-71945709D01*
X86254291Y-71820954D01*
X86156271Y-71674257D01*
X86088754Y-71511256D01*
X86054334Y-71338215D01*
X86054334Y-71161785D01*
X86088754Y-70988744D01*
X86156271Y-70825743D01*
X86254291Y-70679046D01*
X86379046Y-70554291D01*
X86525743Y-70456271D01*
X86688744Y-70388754D01*
X86861785Y-70354334D01*
X87038215Y-70354334D01*
X87211256Y-70388754D01*
G37*
G36*
X48506742Y-69151601D02*
G01*
X48660687Y-69215367D01*
X48799234Y-69307941D01*
X48917059Y-69425766D01*
X49009633Y-69564313D01*
X49073399Y-69718258D01*
X49105907Y-69881685D01*
X49105907Y-70048315D01*
X49073399Y-70211742D01*
X49009633Y-70365687D01*
X48917059Y-70504234D01*
X48799234Y-70622059D01*
X48660687Y-70714633D01*
X48506742Y-70778399D01*
X48343315Y-70810907D01*
X48176685Y-70810907D01*
X48013258Y-70778399D01*
X47859313Y-70714633D01*
X47720766Y-70622059D01*
X47602941Y-70504234D01*
X47510367Y-70365687D01*
X47446601Y-70211742D01*
X47414093Y-70048315D01*
X47414093Y-69881685D01*
X47446601Y-69718258D01*
X47510367Y-69564313D01*
X47602941Y-69425766D01*
X47720766Y-69307941D01*
X47859313Y-69215367D01*
X48013258Y-69151601D01*
X48176685Y-69119093D01*
X48343315Y-69119093D01*
X48506742Y-69151601D01*
G37*
G36*
X51346742Y-67766601D02*
G01*
X51500687Y-67830367D01*
X51639234Y-67922941D01*
X51757059Y-68040766D01*
X51849633Y-68179313D01*
X51913399Y-68333258D01*
X51945907Y-68496685D01*
X51945907Y-68663315D01*
X51913399Y-68826742D01*
X51849633Y-68980687D01*
X51757059Y-69119234D01*
X51639234Y-69237059D01*
X51500687Y-69329633D01*
X51346742Y-69393399D01*
X51183315Y-69425907D01*
X51016685Y-69425907D01*
X50853258Y-69393399D01*
X50699313Y-69329633D01*
X50560766Y-69237059D01*
X50442941Y-69119234D01*
X50350367Y-68980687D01*
X50286601Y-68826742D01*
X50254093Y-68663315D01*
X50254093Y-68496685D01*
X50286601Y-68333258D01*
X50350367Y-68179313D01*
X50442941Y-68040766D01*
X50560766Y-67922941D01*
X50699313Y-67830367D01*
X50853258Y-67766601D01*
X51016685Y-67734093D01*
X51183315Y-67734093D01*
X51346742Y-67766601D01*
G37*
G36*
X48506742Y-66381601D02*
G01*
X48660687Y-66445367D01*
X48799234Y-66537941D01*
X48917059Y-66655766D01*
X49009633Y-66794313D01*
X49073399Y-66948258D01*
X49105907Y-67111685D01*
X49105907Y-67278315D01*
X49073399Y-67441742D01*
X49009633Y-67595687D01*
X48917059Y-67734234D01*
X48799234Y-67852059D01*
X48660687Y-67944633D01*
X48506742Y-68008399D01*
X48343315Y-68040907D01*
X48176685Y-68040907D01*
X48013258Y-68008399D01*
X47859313Y-67944633D01*
X47720766Y-67852059D01*
X47602941Y-67734234D01*
X47510367Y-67595687D01*
X47446601Y-67441742D01*
X47414093Y-67278315D01*
X47414093Y-67111685D01*
X47446601Y-66948258D01*
X47510367Y-66794313D01*
X47602941Y-66655766D01*
X47720766Y-66537941D01*
X47859313Y-66445367D01*
X48013258Y-66381601D01*
X48176685Y-66349093D01*
X48343315Y-66349093D01*
X48506742Y-66381601D01*
G37*
G36*
X51346742Y-64996601D02*
G01*
X51500687Y-65060367D01*
X51639234Y-65152941D01*
X51757059Y-65270766D01*
X51849633Y-65409313D01*
X51913399Y-65563258D01*
X51945907Y-65726685D01*
X51945907Y-65893315D01*
X51913399Y-66056742D01*
X51849633Y-66210687D01*
X51757059Y-66349234D01*
X51639234Y-66467059D01*
X51500687Y-66559633D01*
X51346742Y-66623399D01*
X51183315Y-66655907D01*
X51016685Y-66655907D01*
X50853258Y-66623399D01*
X50699313Y-66559633D01*
X50560766Y-66467059D01*
X50442941Y-66349234D01*
X50350367Y-66210687D01*
X50286601Y-66056742D01*
X50254093Y-65893315D01*
X50254093Y-65726685D01*
X50286601Y-65563258D01*
X50350367Y-65409313D01*
X50442941Y-65270766D01*
X50560766Y-65152941D01*
X50699313Y-65060367D01*
X50853258Y-64996601D01*
X51016685Y-64964093D01*
X51183315Y-64964093D01*
X51346742Y-64996601D01*
G37*
G36*
X48506742Y-63611601D02*
G01*
X48660687Y-63675367D01*
X48799234Y-63767941D01*
X48917059Y-63885766D01*
X49009633Y-64024313D01*
X49073399Y-64178258D01*
X49105907Y-64341685D01*
X49105907Y-64508315D01*
X49073399Y-64671742D01*
X49009633Y-64825687D01*
X48917059Y-64964234D01*
X48799234Y-65082059D01*
X48660687Y-65174633D01*
X48506742Y-65238399D01*
X48343315Y-65270907D01*
X48176685Y-65270907D01*
X48013258Y-65238399D01*
X47859313Y-65174633D01*
X47720766Y-65082059D01*
X47602941Y-64964234D01*
X47510367Y-64825687D01*
X47446601Y-64671742D01*
X47414093Y-64508315D01*
X47414093Y-64341685D01*
X47446601Y-64178258D01*
X47510367Y-64024313D01*
X47602941Y-63885766D01*
X47720766Y-63767941D01*
X47859313Y-63675367D01*
X48013258Y-63611601D01*
X48176685Y-63579093D01*
X48343315Y-63579093D01*
X48506742Y-63611601D01*
G37*
G36*
X91039134Y-62095806D02*
G01*
X91055355Y-62106645D01*
X91066194Y-62122866D01*
X91070000Y-62142000D01*
X91070000Y-63842000D01*
X91066194Y-63861134D01*
X91055355Y-63877355D01*
X91039134Y-63888194D01*
X91020000Y-63892000D01*
X89320000Y-63892000D01*
X89300866Y-63888194D01*
X89284645Y-63877355D01*
X89273806Y-63861134D01*
X89270000Y-63842000D01*
X89270000Y-62142000D01*
X89273806Y-62122866D01*
X89284645Y-62106645D01*
X89300866Y-62095806D01*
X89320000Y-62092000D01*
X91020000Y-62092000D01*
X91039134Y-62095806D01*
G37*
G36*
X51346742Y-62226601D02*
G01*
X51500687Y-62290367D01*
X51639234Y-62382941D01*
X51757059Y-62500766D01*
X51849633Y-62639313D01*
X51913399Y-62793258D01*
X51945907Y-62956685D01*
X51945907Y-63123315D01*
X51913399Y-63286742D01*
X51849633Y-63440687D01*
X51757059Y-63579234D01*
X51639234Y-63697059D01*
X51500687Y-63789633D01*
X51346742Y-63853399D01*
X51183315Y-63885907D01*
X51016685Y-63885907D01*
X50853258Y-63853399D01*
X50699313Y-63789633D01*
X50560766Y-63697059D01*
X50442941Y-63579234D01*
X50350367Y-63440687D01*
X50286601Y-63286742D01*
X50254093Y-63123315D01*
X50254093Y-62956685D01*
X50286601Y-62793258D01*
X50350367Y-62639313D01*
X50442941Y-62500766D01*
X50560766Y-62382941D01*
X50699313Y-62290367D01*
X50853258Y-62226601D01*
X51016685Y-62194093D01*
X51183315Y-62194093D01*
X51346742Y-62226601D01*
G37*
G36*
X103896742Y-62186601D02*
G01*
X104050687Y-62250367D01*
X104189234Y-62342941D01*
X104307059Y-62460766D01*
X104399633Y-62599313D01*
X104463399Y-62753258D01*
X104495907Y-62916685D01*
X104495907Y-63083315D01*
X104463399Y-63246742D01*
X104399633Y-63400687D01*
X104307059Y-63539234D01*
X104189234Y-63657059D01*
X104050687Y-63749633D01*
X103896742Y-63813399D01*
X103733315Y-63845907D01*
X103566685Y-63845907D01*
X103403258Y-63813399D01*
X103249313Y-63749633D01*
X103110766Y-63657059D01*
X102992941Y-63539234D01*
X102900367Y-63400687D01*
X102836601Y-63246742D01*
X102804093Y-63083315D01*
X102804093Y-62916685D01*
X102836601Y-62753258D01*
X102900367Y-62599313D01*
X102992941Y-62460766D01*
X103110766Y-62342941D01*
X103249313Y-62250367D01*
X103403258Y-62186601D01*
X103566685Y-62154093D01*
X103733315Y-62154093D01*
X103896742Y-62186601D01*
G37*
G36*
X108896742Y-62186601D02*
G01*
X109050687Y-62250367D01*
X109189234Y-62342941D01*
X109307059Y-62460766D01*
X109399633Y-62599313D01*
X109463399Y-62753258D01*
X109495907Y-62916685D01*
X109495907Y-63083315D01*
X109463399Y-63246742D01*
X109399633Y-63400687D01*
X109307059Y-63539234D01*
X109189234Y-63657059D01*
X109050687Y-63749633D01*
X108896742Y-63813399D01*
X108733315Y-63845907D01*
X108566685Y-63845907D01*
X108403258Y-63813399D01*
X108249313Y-63749633D01*
X108110766Y-63657059D01*
X107992941Y-63539234D01*
X107900367Y-63400687D01*
X107836601Y-63246742D01*
X107804093Y-63083315D01*
X107804093Y-62916685D01*
X107836601Y-62753258D01*
X107900367Y-62599313D01*
X107992941Y-62460766D01*
X108110766Y-62342941D01*
X108249313Y-62250367D01*
X108403258Y-62186601D01*
X108566685Y-62154093D01*
X108733315Y-62154093D01*
X108896742Y-62186601D01*
G37*
G36*
X48506742Y-60841601D02*
G01*
X48660687Y-60905367D01*
X48799234Y-60997941D01*
X48917059Y-61115766D01*
X49009633Y-61254313D01*
X49073399Y-61408258D01*
X49105907Y-61571685D01*
X49105907Y-61738315D01*
X49073399Y-61901742D01*
X49009633Y-62055687D01*
X48917059Y-62194234D01*
X48799234Y-62312059D01*
X48660687Y-62404633D01*
X48506742Y-62468399D01*
X48343315Y-62500907D01*
X48176685Y-62500907D01*
X48013258Y-62468399D01*
X47859313Y-62404633D01*
X47720766Y-62312059D01*
X47602941Y-62194234D01*
X47510367Y-62055687D01*
X47446601Y-61901742D01*
X47414093Y-61738315D01*
X47414093Y-61571685D01*
X47446601Y-61408258D01*
X47510367Y-61254313D01*
X47602941Y-61115766D01*
X47720766Y-60997941D01*
X47859313Y-60905367D01*
X48013258Y-60841601D01*
X48176685Y-60809093D01*
X48343315Y-60809093D01*
X48506742Y-60841601D01*
G37*
G36*
X90431256Y-59590754D02*
G01*
X90594257Y-59658271D01*
X90740954Y-59756291D01*
X90865709Y-59881046D01*
X90963729Y-60027743D01*
X91031246Y-60190744D01*
X91065666Y-60363785D01*
X91065666Y-60540215D01*
X91031246Y-60713256D01*
X90963729Y-60876257D01*
X90865709Y-61022954D01*
X90740954Y-61147709D01*
X90594257Y-61245729D01*
X90431256Y-61313246D01*
X90258215Y-61347666D01*
X90081785Y-61347666D01*
X89908744Y-61313246D01*
X89745743Y-61245729D01*
X89599046Y-61147709D01*
X89474291Y-61022954D01*
X89376271Y-60876257D01*
X89308754Y-60713256D01*
X89274334Y-60540215D01*
X89274334Y-60363785D01*
X89308754Y-60190744D01*
X89376271Y-60027743D01*
X89474291Y-59881046D01*
X89599046Y-59756291D01*
X89745743Y-59658271D01*
X89908744Y-59590754D01*
X90081785Y-59556334D01*
X90258215Y-59556334D01*
X90431256Y-59590754D01*
G37*
G36*
X51346742Y-59456601D02*
G01*
X51500687Y-59520367D01*
X51639234Y-59612941D01*
X51757059Y-59730766D01*
X51849633Y-59869313D01*
X51913399Y-60023258D01*
X51945907Y-60186685D01*
X51945907Y-60353315D01*
X51913399Y-60516742D01*
X51849633Y-60670687D01*
X51757059Y-60809234D01*
X51639234Y-60927059D01*
X51500687Y-61019633D01*
X51346742Y-61083399D01*
X51183315Y-61115907D01*
X51016685Y-61115907D01*
X50853258Y-61083399D01*
X50699313Y-61019633D01*
X50560766Y-60927059D01*
X50442941Y-60809234D01*
X50350367Y-60670687D01*
X50286601Y-60516742D01*
X50254093Y-60353315D01*
X50254093Y-60186685D01*
X50286601Y-60023258D01*
X50350367Y-59869313D01*
X50442941Y-59730766D01*
X50560766Y-59612941D01*
X50699313Y-59520367D01*
X50853258Y-59456601D01*
X51016685Y-59424093D01*
X51183315Y-59424093D01*
X51346742Y-59456601D01*
G37*
G36*
X48506742Y-58071601D02*
G01*
X48660687Y-58135367D01*
X48799234Y-58227941D01*
X48917059Y-58345766D01*
X49009633Y-58484313D01*
X49073399Y-58638258D01*
X49105907Y-58801685D01*
X49105907Y-58968315D01*
X49073399Y-59131742D01*
X49009633Y-59285687D01*
X48917059Y-59424234D01*
X48799234Y-59542059D01*
X48660687Y-59634633D01*
X48506742Y-59698399D01*
X48343315Y-59730907D01*
X48176685Y-59730907D01*
X48013258Y-59698399D01*
X47859313Y-59634633D01*
X47720766Y-59542059D01*
X47602941Y-59424234D01*
X47510367Y-59285687D01*
X47446601Y-59131742D01*
X47414093Y-58968315D01*
X47414093Y-58801685D01*
X47446601Y-58638258D01*
X47510367Y-58484313D01*
X47602941Y-58345766D01*
X47720766Y-58227941D01*
X47859313Y-58135367D01*
X48013258Y-58071601D01*
X48176685Y-58039093D01*
X48343315Y-58039093D01*
X48506742Y-58071601D01*
G37*
G36*
X90431256Y-57050754D02*
G01*
X90594257Y-57118271D01*
X90740954Y-57216291D01*
X90865709Y-57341046D01*
X90963729Y-57487743D01*
X91031246Y-57650744D01*
X91065666Y-57823785D01*
X91065666Y-58000215D01*
X91031246Y-58173256D01*
X90963729Y-58336257D01*
X90865709Y-58482954D01*
X90740954Y-58607709D01*
X90594257Y-58705729D01*
X90431256Y-58773246D01*
X90258215Y-58807666D01*
X90081785Y-58807666D01*
X89908744Y-58773246D01*
X89745743Y-58705729D01*
X89599046Y-58607709D01*
X89474291Y-58482954D01*
X89376271Y-58336257D01*
X89308754Y-58173256D01*
X89274334Y-58000215D01*
X89274334Y-57823785D01*
X89308754Y-57650744D01*
X89376271Y-57487743D01*
X89474291Y-57341046D01*
X89599046Y-57216291D01*
X89745743Y-57118271D01*
X89908744Y-57050754D01*
X90081785Y-57016334D01*
X90258215Y-57016334D01*
X90431256Y-57050754D01*
G37*
G36*
X51346742Y-56686601D02*
G01*
X51500687Y-56750367D01*
X51639234Y-56842941D01*
X51757059Y-56960766D01*
X51849633Y-57099313D01*
X51913399Y-57253258D01*
X51945907Y-57416685D01*
X51945907Y-57583315D01*
X51913399Y-57746742D01*
X51849633Y-57900687D01*
X51757059Y-58039234D01*
X51639234Y-58157059D01*
X51500687Y-58249633D01*
X51346742Y-58313399D01*
X51183315Y-58345907D01*
X51016685Y-58345907D01*
X50853258Y-58313399D01*
X50699313Y-58249633D01*
X50560766Y-58157059D01*
X50442941Y-58039234D01*
X50350367Y-57900687D01*
X50286601Y-57746742D01*
X50254093Y-57583315D01*
X50254093Y-57416685D01*
X50286601Y-57253258D01*
X50350367Y-57099313D01*
X50442941Y-56960766D01*
X50560766Y-56842941D01*
X50699313Y-56750367D01*
X50853258Y-56686601D01*
X51016685Y-56654093D01*
X51183315Y-56654093D01*
X51346742Y-56686601D01*
G37*
G36*
X66523315Y-56304093D02*
G01*
X66686742Y-56336601D01*
X66840687Y-56400367D01*
X66979234Y-56492941D01*
X67097059Y-56610766D01*
X67189633Y-56749313D01*
X67253399Y-56903258D01*
X67285907Y-57066685D01*
X67285907Y-57233315D01*
X67253399Y-57396742D01*
X67189633Y-57550687D01*
X67097059Y-57689234D01*
X66979234Y-57807059D01*
X66840687Y-57899633D01*
X66686742Y-57963399D01*
X66523315Y-57995907D01*
X66440000Y-58000000D01*
X66436940Y-58000000D01*
X65643060Y-58000000D01*
X65640000Y-58000000D01*
X65556685Y-57995907D01*
X65393258Y-57963399D01*
X65239313Y-57899633D01*
X65100766Y-57807059D01*
X64982941Y-57689234D01*
X64890367Y-57550687D01*
X64826601Y-57396742D01*
X64794093Y-57233315D01*
X64794093Y-57066685D01*
X64826601Y-56903258D01*
X64890367Y-56749313D01*
X64982941Y-56610766D01*
X65100766Y-56492941D01*
X65239313Y-56400367D01*
X65393258Y-56336601D01*
X65556685Y-56304093D01*
X65640000Y-56300000D01*
X66440000Y-56300000D01*
X66523315Y-56304093D01*
G37*
G36*
X74143315Y-56304093D02*
G01*
X74306742Y-56336601D01*
X74460687Y-56400367D01*
X74599234Y-56492941D01*
X74717059Y-56610766D01*
X74809633Y-56749313D01*
X74873399Y-56903258D01*
X74905907Y-57066685D01*
X74905907Y-57233315D01*
X74873399Y-57396742D01*
X74809633Y-57550687D01*
X74717059Y-57689234D01*
X74599234Y-57807059D01*
X74460687Y-57899633D01*
X74306742Y-57963399D01*
X74143315Y-57995907D01*
X74060000Y-58000000D01*
X74056940Y-58000000D01*
X73263060Y-58000000D01*
X73260000Y-58000000D01*
X73176685Y-57995907D01*
X73013258Y-57963399D01*
X72859313Y-57899633D01*
X72720766Y-57807059D01*
X72602941Y-57689234D01*
X72510367Y-57550687D01*
X72446601Y-57396742D01*
X72414093Y-57233315D01*
X72414093Y-57066685D01*
X72446601Y-56903258D01*
X72510367Y-56749313D01*
X72602941Y-56610766D01*
X72720766Y-56492941D01*
X72859313Y-56400367D01*
X73013258Y-56336601D01*
X73176685Y-56304093D01*
X73260000Y-56300000D01*
X74060000Y-56300000D01*
X74143315Y-56304093D01*
G37*
G36*
X48506742Y-55301601D02*
G01*
X48660687Y-55365367D01*
X48799234Y-55457941D01*
X48917059Y-55575766D01*
X49009633Y-55714313D01*
X49073399Y-55868258D01*
X49105907Y-56031685D01*
X49105907Y-56198315D01*
X49073399Y-56361742D01*
X49009633Y-56515687D01*
X48917059Y-56654234D01*
X48799234Y-56772059D01*
X48660687Y-56864633D01*
X48506742Y-56928399D01*
X48343315Y-56960907D01*
X48176685Y-56960907D01*
X48013258Y-56928399D01*
X47859313Y-56864633D01*
X47720766Y-56772059D01*
X47602941Y-56654234D01*
X47510367Y-56515687D01*
X47446601Y-56361742D01*
X47414093Y-56198315D01*
X47414093Y-56031685D01*
X47446601Y-55868258D01*
X47510367Y-55714313D01*
X47602941Y-55575766D01*
X47720766Y-55457941D01*
X47859313Y-55365367D01*
X48013258Y-55301601D01*
X48176685Y-55269093D01*
X48343315Y-55269093D01*
X48506742Y-55301601D01*
G37*
G36*
X51346742Y-53916601D02*
G01*
X51500687Y-53980367D01*
X51639234Y-54072941D01*
X51757059Y-54190766D01*
X51849633Y-54329313D01*
X51913399Y-54483258D01*
X51945907Y-54646685D01*
X51945907Y-54813315D01*
X51913399Y-54976742D01*
X51849633Y-55130687D01*
X51757059Y-55269234D01*
X51639234Y-55387059D01*
X51500687Y-55479633D01*
X51346742Y-55543399D01*
X51183315Y-55575907D01*
X51016685Y-55575907D01*
X50853258Y-55543399D01*
X50699313Y-55479633D01*
X50560766Y-55387059D01*
X50442941Y-55269234D01*
X50350367Y-55130687D01*
X50286601Y-54976742D01*
X50254093Y-54813315D01*
X50254093Y-54646685D01*
X50286601Y-54483258D01*
X50350367Y-54329313D01*
X50442941Y-54190766D01*
X50560766Y-54072941D01*
X50699313Y-53980367D01*
X50853258Y-53916601D01*
X51016685Y-53884093D01*
X51183315Y-53884093D01*
X51346742Y-53916601D01*
G37*
G36*
X66523315Y-53764093D02*
G01*
X66686742Y-53796601D01*
X66840687Y-53860367D01*
X66979234Y-53952941D01*
X67097059Y-54070766D01*
X67189633Y-54209313D01*
X67253399Y-54363258D01*
X67285907Y-54526685D01*
X67285907Y-54693315D01*
X67253399Y-54856742D01*
X67189633Y-55010687D01*
X67097059Y-55149234D01*
X66979234Y-55267059D01*
X66840687Y-55359633D01*
X66686742Y-55423399D01*
X66523315Y-55455907D01*
X66440000Y-55460000D01*
X66436940Y-55460000D01*
X65643060Y-55460000D01*
X65640000Y-55460000D01*
X65556685Y-55455907D01*
X65393258Y-55423399D01*
X65239313Y-55359633D01*
X65100766Y-55267059D01*
X64982941Y-55149234D01*
X64890367Y-55010687D01*
X64826601Y-54856742D01*
X64794093Y-54693315D01*
X64794093Y-54526685D01*
X64826601Y-54363258D01*
X64890367Y-54209313D01*
X64982941Y-54070766D01*
X65100766Y-53952941D01*
X65239313Y-53860367D01*
X65393258Y-53796601D01*
X65556685Y-53764093D01*
X65640000Y-53760000D01*
X66440000Y-53760000D01*
X66523315Y-53764093D01*
G37*
G36*
X74143315Y-53764093D02*
G01*
X74306742Y-53796601D01*
X74460687Y-53860367D01*
X74599234Y-53952941D01*
X74717059Y-54070766D01*
X74809633Y-54209313D01*
X74873399Y-54363258D01*
X74905907Y-54526685D01*
X74905907Y-54693315D01*
X74873399Y-54856742D01*
X74809633Y-55010687D01*
X74717059Y-55149234D01*
X74599234Y-55267059D01*
X74460687Y-55359633D01*
X74306742Y-55423399D01*
X74143315Y-55455907D01*
X74060000Y-55460000D01*
X74056940Y-55460000D01*
X73263060Y-55460000D01*
X73260000Y-55460000D01*
X73176685Y-55455907D01*
X73013258Y-55423399D01*
X72859313Y-55359633D01*
X72720766Y-55267059D01*
X72602941Y-55149234D01*
X72510367Y-55010687D01*
X72446601Y-54856742D01*
X72414093Y-54693315D01*
X72414093Y-54526685D01*
X72446601Y-54363258D01*
X72510367Y-54209313D01*
X72602941Y-54070766D01*
X72720766Y-53952941D01*
X72859313Y-53860367D01*
X73013258Y-53796601D01*
X73176685Y-53764093D01*
X73260000Y-53760000D01*
X74060000Y-53760000D01*
X74143315Y-53764093D01*
G37*
G36*
X109621634Y-52953806D02*
G01*
X109637855Y-52964645D01*
X109648694Y-52980866D01*
X109652500Y-53000000D01*
X109652500Y-55000000D01*
X109648694Y-55019134D01*
X109637855Y-55035355D01*
X109621634Y-55046194D01*
X109602500Y-55050000D01*
X107697500Y-55050000D01*
X107678366Y-55046194D01*
X107662145Y-55035355D01*
X107651306Y-55019134D01*
X107647500Y-55000000D01*
X107647500Y-53000000D01*
X107651306Y-52980866D01*
X107662145Y-52964645D01*
X107678366Y-52953806D01*
X107697500Y-52950000D01*
X109602500Y-52950000D01*
X109621634Y-52953806D01*
G37*
G36*
X103657156Y-52954827D02*
G01*
X103668262Y-52954827D01*
X103711664Y-52963460D01*
X103803938Y-52978075D01*
X103833616Y-52987718D01*
X103861010Y-52993167D01*
X103899665Y-53009178D01*
X103953492Y-53026668D01*
X104003923Y-53052364D01*
X104042575Y-53068374D01*
X104065792Y-53083887D01*
X104093602Y-53098057D01*
X104169199Y-53152981D01*
X104205979Y-53177557D01*
X104213828Y-53185406D01*
X104220817Y-53190484D01*
X104332015Y-53301682D01*
X104337092Y-53308670D01*
X104344943Y-53316521D01*
X104369521Y-53353305D01*
X104424442Y-53428897D01*
X104438610Y-53456704D01*
X104454126Y-53479925D01*
X104470137Y-53518581D01*
X104495831Y-53569007D01*
X104513318Y-53622826D01*
X104529333Y-53661490D01*
X104534783Y-53688889D01*
X104544424Y-53718561D01*
X104559037Y-53810823D01*
X104567673Y-53854238D01*
X104568463Y-53870339D01*
X104569409Y-53876306D01*
X104572015Y-53942646D01*
X104572500Y-53952500D01*
X104572500Y-54047500D01*
X104572015Y-54057357D01*
X104569409Y-54123693D01*
X104568464Y-54129659D01*
X104567673Y-54145762D01*
X104559036Y-54189180D01*
X104544424Y-54281438D01*
X104534783Y-54311108D01*
X104529333Y-54338510D01*
X104513316Y-54377176D01*
X104495831Y-54430992D01*
X104470140Y-54481413D01*
X104454126Y-54520075D01*
X104438608Y-54543299D01*
X104424442Y-54571102D01*
X104369529Y-54646682D01*
X104344943Y-54683479D01*
X104337089Y-54691332D01*
X104332015Y-54698317D01*
X104220817Y-54809515D01*
X104213832Y-54814589D01*
X104205979Y-54822443D01*
X104169182Y-54847029D01*
X104093602Y-54901942D01*
X104065799Y-54916108D01*
X104042575Y-54931626D01*
X104003913Y-54947640D01*
X103953492Y-54973331D01*
X103899676Y-54990816D01*
X103861010Y-55006833D01*
X103833608Y-55012283D01*
X103803938Y-55021924D01*
X103711674Y-55036537D01*
X103668262Y-55045173D01*
X103657156Y-55045173D01*
X103648626Y-55046524D01*
X103491374Y-55046524D01*
X103482844Y-55045173D01*
X103471738Y-55045173D01*
X103428326Y-55036537D01*
X103336061Y-55021924D01*
X103306389Y-55012283D01*
X103278990Y-55006833D01*
X103240326Y-54990818D01*
X103186507Y-54973331D01*
X103136081Y-54947637D01*
X103097425Y-54931626D01*
X103074204Y-54916110D01*
X103046397Y-54901942D01*
X102970805Y-54847021D01*
X102934021Y-54822443D01*
X102926170Y-54814592D01*
X102919182Y-54809515D01*
X102807984Y-54698317D01*
X102802906Y-54691328D01*
X102795057Y-54683479D01*
X102770481Y-54646699D01*
X102715557Y-54571102D01*
X102701387Y-54543292D01*
X102685874Y-54520075D01*
X102669864Y-54481423D01*
X102644168Y-54430992D01*
X102626678Y-54377165D01*
X102610667Y-54338510D01*
X102605218Y-54311116D01*
X102595575Y-54281438D01*
X102580958Y-54189155D01*
X102572327Y-54145762D01*
X102571536Y-54129668D01*
X102570590Y-54123693D01*
X102567983Y-54057341D01*
X102567500Y-54047500D01*
X102567500Y-53952500D01*
X102567983Y-53942662D01*
X102570590Y-53876306D01*
X102571536Y-53870330D01*
X102572327Y-53854238D01*
X102580957Y-53810848D01*
X102595575Y-53718561D01*
X102605218Y-53688881D01*
X102610667Y-53661490D01*
X102626677Y-53622837D01*
X102644168Y-53569007D01*
X102669866Y-53518570D01*
X102685874Y-53479925D01*
X102701385Y-53456710D01*
X102715557Y-53428897D01*
X102770490Y-53353287D01*
X102795057Y-53316521D01*
X102802904Y-53308673D01*
X102807984Y-53301682D01*
X102919182Y-53190484D01*
X102926173Y-53185404D01*
X102934021Y-53177557D01*
X102970787Y-53152990D01*
X103046397Y-53098057D01*
X103074210Y-53083885D01*
X103097425Y-53068374D01*
X103136070Y-53052366D01*
X103186507Y-53026668D01*
X103240337Y-53009177D01*
X103278990Y-52993167D01*
X103306381Y-52987718D01*
X103336061Y-52978075D01*
X103428336Y-52963460D01*
X103471738Y-52954827D01*
X103482844Y-52954827D01*
X103491374Y-52953476D01*
X103648626Y-52953476D01*
X103657156Y-52954827D01*
G37*
G36*
X106197156Y-52954827D02*
G01*
X106208262Y-52954827D01*
X106251664Y-52963460D01*
X106343938Y-52978075D01*
X106373616Y-52987718D01*
X106401010Y-52993167D01*
X106439665Y-53009178D01*
X106493492Y-53026668D01*
X106543923Y-53052364D01*
X106582575Y-53068374D01*
X106605792Y-53083887D01*
X106633602Y-53098057D01*
X106709199Y-53152981D01*
X106745979Y-53177557D01*
X106753828Y-53185406D01*
X106760817Y-53190484D01*
X106872015Y-53301682D01*
X106877092Y-53308670D01*
X106884943Y-53316521D01*
X106909521Y-53353305D01*
X106964442Y-53428897D01*
X106978610Y-53456704D01*
X106994126Y-53479925D01*
X107010137Y-53518581D01*
X107035831Y-53569007D01*
X107053318Y-53622826D01*
X107069333Y-53661490D01*
X107074783Y-53688889D01*
X107084424Y-53718561D01*
X107099037Y-53810823D01*
X107107673Y-53854238D01*
X107108463Y-53870339D01*
X107109409Y-53876306D01*
X107112015Y-53942646D01*
X107112500Y-53952500D01*
X107112500Y-54047500D01*
X107112015Y-54057357D01*
X107109409Y-54123693D01*
X107108464Y-54129659D01*
X107107673Y-54145762D01*
X107099036Y-54189180D01*
X107084424Y-54281438D01*
X107074783Y-54311108D01*
X107069333Y-54338510D01*
X107053316Y-54377176D01*
X107035831Y-54430992D01*
X107010140Y-54481413D01*
X106994126Y-54520075D01*
X106978608Y-54543299D01*
X106964442Y-54571102D01*
X106909529Y-54646682D01*
X106884943Y-54683479D01*
X106877089Y-54691332D01*
X106872015Y-54698317D01*
X106760817Y-54809515D01*
X106753832Y-54814589D01*
X106745979Y-54822443D01*
X106709182Y-54847029D01*
X106633602Y-54901942D01*
X106605799Y-54916108D01*
X106582575Y-54931626D01*
X106543913Y-54947640D01*
X106493492Y-54973331D01*
X106439676Y-54990816D01*
X106401010Y-55006833D01*
X106373608Y-55012283D01*
X106343938Y-55021924D01*
X106251674Y-55036537D01*
X106208262Y-55045173D01*
X106197156Y-55045173D01*
X106188626Y-55046524D01*
X106031374Y-55046524D01*
X106022844Y-55045173D01*
X106011738Y-55045173D01*
X105968326Y-55036537D01*
X105876061Y-55021924D01*
X105846389Y-55012283D01*
X105818990Y-55006833D01*
X105780326Y-54990818D01*
X105726507Y-54973331D01*
X105676081Y-54947637D01*
X105637425Y-54931626D01*
X105614204Y-54916110D01*
X105586397Y-54901942D01*
X105510805Y-54847021D01*
X105474021Y-54822443D01*
X105466170Y-54814592D01*
X105459182Y-54809515D01*
X105347984Y-54698317D01*
X105342906Y-54691328D01*
X105335057Y-54683479D01*
X105310481Y-54646699D01*
X105255557Y-54571102D01*
X105241387Y-54543292D01*
X105225874Y-54520075D01*
X105209864Y-54481423D01*
X105184168Y-54430992D01*
X105166678Y-54377165D01*
X105150667Y-54338510D01*
X105145218Y-54311116D01*
X105135575Y-54281438D01*
X105120958Y-54189155D01*
X105112327Y-54145762D01*
X105111536Y-54129668D01*
X105110590Y-54123693D01*
X105107983Y-54057341D01*
X105107500Y-54047500D01*
X105107500Y-53952500D01*
X105107983Y-53942662D01*
X105110590Y-53876306D01*
X105111536Y-53870330D01*
X105112327Y-53854238D01*
X105120957Y-53810848D01*
X105135575Y-53718561D01*
X105145218Y-53688881D01*
X105150667Y-53661490D01*
X105166677Y-53622837D01*
X105184168Y-53569007D01*
X105209866Y-53518570D01*
X105225874Y-53479925D01*
X105241385Y-53456710D01*
X105255557Y-53428897D01*
X105310490Y-53353287D01*
X105335057Y-53316521D01*
X105342904Y-53308673D01*
X105347984Y-53301682D01*
X105459182Y-53190484D01*
X105466173Y-53185404D01*
X105474021Y-53177557D01*
X105510787Y-53152990D01*
X105586397Y-53098057D01*
X105614210Y-53083885D01*
X105637425Y-53068374D01*
X105676070Y-53052366D01*
X105726507Y-53026668D01*
X105780337Y-53009177D01*
X105818990Y-52993167D01*
X105846381Y-52987718D01*
X105876061Y-52978075D01*
X105968336Y-52963460D01*
X106011738Y-52954827D01*
X106022844Y-52954827D01*
X106031374Y-52953476D01*
X106188626Y-52953476D01*
X106197156Y-52954827D01*
G37*
G36*
X97111256Y-52968754D02*
G01*
X97274257Y-53036271D01*
X97420954Y-53134291D01*
X97545709Y-53259046D01*
X97643729Y-53405743D01*
X97711246Y-53568744D01*
X97745666Y-53741785D01*
X97745666Y-53918215D01*
X97711246Y-54091256D01*
X97643729Y-54254257D01*
X97545709Y-54400954D01*
X97420954Y-54525709D01*
X97274257Y-54623729D01*
X97111256Y-54691246D01*
X96938215Y-54725666D01*
X96761785Y-54725666D01*
X96588744Y-54691246D01*
X96425743Y-54623729D01*
X96279046Y-54525709D01*
X96154291Y-54400954D01*
X96056271Y-54254257D01*
X95988754Y-54091256D01*
X95954334Y-53918215D01*
X95954334Y-53741785D01*
X95988754Y-53568744D01*
X96056271Y-53405743D01*
X96154291Y-53259046D01*
X96279046Y-53134291D01*
X96425743Y-53036271D01*
X96588744Y-52968754D01*
X96761785Y-52934334D01*
X96938215Y-52934334D01*
X97111256Y-52968754D01*
G37*
G36*
X66523315Y-51224093D02*
G01*
X66686742Y-51256601D01*
X66840687Y-51320367D01*
X66979234Y-51412941D01*
X67097059Y-51530766D01*
X67189633Y-51669313D01*
X67253399Y-51823258D01*
X67285907Y-51986685D01*
X67285907Y-52153315D01*
X67253399Y-52316742D01*
X67189633Y-52470687D01*
X67097059Y-52609234D01*
X66979234Y-52727059D01*
X66840687Y-52819633D01*
X66686742Y-52883399D01*
X66523315Y-52915907D01*
X66440000Y-52920000D01*
X66436940Y-52920000D01*
X65643060Y-52920000D01*
X65640000Y-52920000D01*
X65556685Y-52915907D01*
X65393258Y-52883399D01*
X65239313Y-52819633D01*
X65100766Y-52727059D01*
X64982941Y-52609234D01*
X64890367Y-52470687D01*
X64826601Y-52316742D01*
X64794093Y-52153315D01*
X64794093Y-51986685D01*
X64826601Y-51823258D01*
X64890367Y-51669313D01*
X64982941Y-51530766D01*
X65100766Y-51412941D01*
X65239313Y-51320367D01*
X65393258Y-51256601D01*
X65556685Y-51224093D01*
X65640000Y-51220000D01*
X66440000Y-51220000D01*
X66523315Y-51224093D01*
G37*
G36*
X74143315Y-51224093D02*
G01*
X74306742Y-51256601D01*
X74460687Y-51320367D01*
X74599234Y-51412941D01*
X74717059Y-51530766D01*
X74809633Y-51669313D01*
X74873399Y-51823258D01*
X74905907Y-51986685D01*
X74905907Y-52153315D01*
X74873399Y-52316742D01*
X74809633Y-52470687D01*
X74717059Y-52609234D01*
X74599234Y-52727059D01*
X74460687Y-52819633D01*
X74306742Y-52883399D01*
X74143315Y-52915907D01*
X74060000Y-52920000D01*
X74056940Y-52920000D01*
X73263060Y-52920000D01*
X73260000Y-52920000D01*
X73176685Y-52915907D01*
X73013258Y-52883399D01*
X72859313Y-52819633D01*
X72720766Y-52727059D01*
X72602941Y-52609234D01*
X72510367Y-52470687D01*
X72446601Y-52316742D01*
X72414093Y-52153315D01*
X72414093Y-51986685D01*
X72446601Y-51823258D01*
X72510367Y-51669313D01*
X72602941Y-51530766D01*
X72720766Y-51412941D01*
X72859313Y-51320367D01*
X73013258Y-51256601D01*
X73176685Y-51224093D01*
X73260000Y-51220000D01*
X74060000Y-51220000D01*
X74143315Y-51224093D01*
G37*
G36*
X97111256Y-50428754D02*
G01*
X97274257Y-50496271D01*
X97420954Y-50594291D01*
X97545709Y-50719046D01*
X97643729Y-50865743D01*
X97711246Y-51028744D01*
X97745666Y-51201785D01*
X97745666Y-51378215D01*
X97711246Y-51551256D01*
X97643729Y-51714257D01*
X97545709Y-51860954D01*
X97420954Y-51985709D01*
X97274257Y-52083729D01*
X97111256Y-52151246D01*
X96938215Y-52185666D01*
X96761785Y-52185666D01*
X96588744Y-52151246D01*
X96425743Y-52083729D01*
X96279046Y-51985709D01*
X96154291Y-51860954D01*
X96056271Y-51714257D01*
X95988754Y-51551256D01*
X95954334Y-51378215D01*
X95954334Y-51201785D01*
X95988754Y-51028744D01*
X96056271Y-50865743D01*
X96154291Y-50719046D01*
X96279046Y-50594291D01*
X96425743Y-50496271D01*
X96588744Y-50428754D01*
X96761785Y-50394334D01*
X96938215Y-50394334D01*
X97111256Y-50428754D01*
G37*
G36*
X66523315Y-48684093D02*
G01*
X66686742Y-48716601D01*
X66840687Y-48780367D01*
X66979234Y-48872941D01*
X67097059Y-48990766D01*
X67189633Y-49129313D01*
X67253399Y-49283258D01*
X67285907Y-49446685D01*
X67285907Y-49613315D01*
X67253399Y-49776742D01*
X67189633Y-49930687D01*
X67097059Y-50069234D01*
X66979234Y-50187059D01*
X66840687Y-50279633D01*
X66686742Y-50343399D01*
X66523315Y-50375907D01*
X66440000Y-50380000D01*
X66436940Y-50380000D01*
X65643060Y-50380000D01*
X65640000Y-50380000D01*
X65556685Y-50375907D01*
X65393258Y-50343399D01*
X65239313Y-50279633D01*
X65100766Y-50187059D01*
X64982941Y-50069234D01*
X64890367Y-49930687D01*
X64826601Y-49776742D01*
X64794093Y-49613315D01*
X64794093Y-49446685D01*
X64826601Y-49283258D01*
X64890367Y-49129313D01*
X64982941Y-48990766D01*
X65100766Y-48872941D01*
X65239313Y-48780367D01*
X65393258Y-48716601D01*
X65556685Y-48684093D01*
X65640000Y-48680000D01*
X66440000Y-48680000D01*
X66523315Y-48684093D01*
G37*
G36*
X74143315Y-48684093D02*
G01*
X74306742Y-48716601D01*
X74460687Y-48780367D01*
X74599234Y-48872941D01*
X74717059Y-48990766D01*
X74809633Y-49129313D01*
X74873399Y-49283258D01*
X74905907Y-49446685D01*
X74905907Y-49613315D01*
X74873399Y-49776742D01*
X74809633Y-49930687D01*
X74717059Y-50069234D01*
X74599234Y-50187059D01*
X74460687Y-50279633D01*
X74306742Y-50343399D01*
X74143315Y-50375907D01*
X74060000Y-50380000D01*
X74056940Y-50380000D01*
X73263060Y-50380000D01*
X73260000Y-50380000D01*
X73176685Y-50375907D01*
X73013258Y-50343399D01*
X72859313Y-50279633D01*
X72720766Y-50187059D01*
X72602941Y-50069234D01*
X72510367Y-49930687D01*
X72446601Y-49776742D01*
X72414093Y-49613315D01*
X72414093Y-49446685D01*
X72446601Y-49283258D01*
X72510367Y-49129313D01*
X72602941Y-48990766D01*
X72720766Y-48872941D01*
X72859313Y-48780367D01*
X73013258Y-48716601D01*
X73176685Y-48684093D01*
X73260000Y-48680000D01*
X74060000Y-48680000D01*
X74143315Y-48684093D01*
G37*
G36*
X48659935Y-45789390D02*
G01*
X48918951Y-45858793D01*
X49166692Y-45961411D01*
X49398919Y-46095487D01*
X49611659Y-46258728D01*
X49801272Y-46448341D01*
X49964513Y-46661081D01*
X50098589Y-46893308D01*
X50201207Y-47141049D01*
X50270610Y-47400065D01*
X50305611Y-47665924D01*
X50305611Y-47934076D01*
X50270610Y-48199935D01*
X50201207Y-48458951D01*
X50098589Y-48706692D01*
X49964513Y-48938919D01*
X49801272Y-49151659D01*
X49611659Y-49341272D01*
X49398919Y-49504513D01*
X49166692Y-49638589D01*
X48918951Y-49741207D01*
X48659935Y-49810610D01*
X48394076Y-49845611D01*
X48125924Y-49845611D01*
X47860065Y-49810610D01*
X47601049Y-49741207D01*
X47353308Y-49638589D01*
X47121081Y-49504513D01*
X46908341Y-49341272D01*
X46718728Y-49151659D01*
X46555487Y-48938919D01*
X46421411Y-48706692D01*
X46318793Y-48458951D01*
X46249390Y-48199935D01*
X46214389Y-47934076D01*
X46214389Y-47665924D01*
X46249390Y-47400065D01*
X46318793Y-47141049D01*
X46421411Y-46893308D01*
X46555487Y-46661081D01*
X46718728Y-46448341D01*
X46908341Y-46258728D01*
X47121081Y-46095487D01*
X47353308Y-45961411D01*
X47601049Y-45858793D01*
X47860065Y-45789390D01*
X48125924Y-45754389D01*
X48394076Y-45754389D01*
X48659935Y-45789390D01*
G37*
G36*
X97719134Y-47853806D02*
G01*
X97735355Y-47864645D01*
X97746194Y-47880866D01*
X97750000Y-47900000D01*
X97750000Y-49600000D01*
X97746194Y-49619134D01*
X97735355Y-49635355D01*
X97719134Y-49646194D01*
X97700000Y-49650000D01*
X96000000Y-49650000D01*
X95980866Y-49646194D01*
X95964645Y-49635355D01*
X95953806Y-49619134D01*
X95950000Y-49600000D01*
X95950000Y-47900000D01*
X95953806Y-47880866D01*
X95964645Y-47864645D01*
X95980866Y-47853806D01*
X96000000Y-47850000D01*
X97700000Y-47850000D01*
X97719134Y-47853806D01*
G37*
G36*
X107592685Y-47417969D02*
G01*
X107608461Y-47424934D01*
X107616222Y-47426164D01*
X107648542Y-47442632D01*
X107693541Y-47462501D01*
X107771499Y-47540459D01*
X107791370Y-47585464D01*
X107807835Y-47617777D01*
X107809063Y-47625535D01*
X107816031Y-47641315D01*
X107824000Y-47710000D01*
X107824000Y-48810000D01*
X107816031Y-48878685D01*
X107809063Y-48894464D01*
X107807835Y-48902222D01*
X107791373Y-48934528D01*
X107771499Y-48979541D01*
X107693541Y-49057499D01*
X107648528Y-49077373D01*
X107616222Y-49093835D01*
X107608464Y-49095063D01*
X107592685Y-49102031D01*
X107524000Y-49110000D01*
X106424000Y-49110000D01*
X106355315Y-49102031D01*
X106339535Y-49095063D01*
X106331777Y-49093835D01*
X106299464Y-49077370D01*
X106254459Y-49057499D01*
X106176501Y-48979541D01*
X106156632Y-48934542D01*
X106140164Y-48902222D01*
X106138934Y-48894461D01*
X106131969Y-48878685D01*
X106124000Y-48810000D01*
X106124000Y-47710000D01*
X106131969Y-47641315D01*
X106138934Y-47625539D01*
X106140164Y-47617777D01*
X106156635Y-47585449D01*
X106176501Y-47540459D01*
X106254459Y-47462501D01*
X106299449Y-47442635D01*
X106331777Y-47426164D01*
X106339539Y-47424934D01*
X106355315Y-47417969D01*
X106424000Y-47410000D01*
X107524000Y-47410000D01*
X107592685Y-47417969D01*
G37*
G36*
X109720742Y-47446601D02*
G01*
X109874687Y-47510367D01*
X110013234Y-47602941D01*
X110131059Y-47720766D01*
X110223633Y-47859313D01*
X110287399Y-48013258D01*
X110319907Y-48176685D01*
X110319907Y-48343315D01*
X110287399Y-48506742D01*
X110223633Y-48660687D01*
X110131059Y-48799234D01*
X110013234Y-48917059D01*
X109874687Y-49009633D01*
X109720742Y-49073399D01*
X109557315Y-49105907D01*
X109390685Y-49105907D01*
X109227258Y-49073399D01*
X109073313Y-49009633D01*
X108934766Y-48917059D01*
X108816941Y-48799234D01*
X108724367Y-48660687D01*
X108660601Y-48506742D01*
X108628093Y-48343315D01*
X108628093Y-48176685D01*
X108660601Y-48013258D01*
X108724367Y-47859313D01*
X108816941Y-47720766D01*
X108934766Y-47602941D01*
X109073313Y-47510367D01*
X109227258Y-47446601D01*
X109390685Y-47414093D01*
X109557315Y-47414093D01*
X109720742Y-47446601D01*
G37*
G36*
X83096742Y-46936601D02*
G01*
X83250687Y-47000367D01*
X83389234Y-47092941D01*
X83507059Y-47210766D01*
X83599633Y-47349313D01*
X83663399Y-47503258D01*
X83695907Y-47666685D01*
X83695907Y-47833315D01*
X83663399Y-47996742D01*
X83599633Y-48150687D01*
X83507059Y-48289234D01*
X83389234Y-48407059D01*
X83250687Y-48499633D01*
X83096742Y-48563399D01*
X82933315Y-48595907D01*
X82766685Y-48595907D01*
X82603258Y-48563399D01*
X82449313Y-48499633D01*
X82310766Y-48407059D01*
X82192941Y-48289234D01*
X82100367Y-48150687D01*
X82036601Y-47996742D01*
X82004093Y-47833315D01*
X82004093Y-47666685D01*
X82036601Y-47503258D01*
X82100367Y-47349313D01*
X82192941Y-47210766D01*
X82310766Y-47092941D01*
X82449313Y-47000367D01*
X82603258Y-46936601D01*
X82766685Y-46904093D01*
X82933315Y-46904093D01*
X83096742Y-46936601D01*
G37*
G36*
X88096742Y-46936601D02*
G01*
X88250687Y-47000367D01*
X88389234Y-47092941D01*
X88507059Y-47210766D01*
X88599633Y-47349313D01*
X88663399Y-47503258D01*
X88695907Y-47666685D01*
X88695907Y-47833315D01*
X88663399Y-47996742D01*
X88599633Y-48150687D01*
X88507059Y-48289234D01*
X88389234Y-48407059D01*
X88250687Y-48499633D01*
X88096742Y-48563399D01*
X87933315Y-48595907D01*
X87766685Y-48595907D01*
X87603258Y-48563399D01*
X87449313Y-48499633D01*
X87310766Y-48407059D01*
X87192941Y-48289234D01*
X87100367Y-48150687D01*
X87036601Y-47996742D01*
X87004093Y-47833315D01*
X87004093Y-47666685D01*
X87036601Y-47503258D01*
X87100367Y-47349313D01*
X87192941Y-47210766D01*
X87310766Y-47092941D01*
X87449313Y-47000367D01*
X87603258Y-46936601D01*
X87766685Y-46904093D01*
X87933315Y-46904093D01*
X88096742Y-46936601D01*
G37*
G36*
X66523315Y-46144093D02*
G01*
X66686742Y-46176601D01*
X66840687Y-46240367D01*
X66979234Y-46332941D01*
X67097059Y-46450766D01*
X67189633Y-46589313D01*
X67253399Y-46743258D01*
X67285907Y-46906685D01*
X67285907Y-47073315D01*
X67253399Y-47236742D01*
X67189633Y-47390687D01*
X67097059Y-47529234D01*
X66979234Y-47647059D01*
X66840687Y-47739633D01*
X66686742Y-47803399D01*
X66523315Y-47835907D01*
X66440000Y-47840000D01*
X66436940Y-47840000D01*
X65643060Y-47840000D01*
X65640000Y-47840000D01*
X65556685Y-47835907D01*
X65393258Y-47803399D01*
X65239313Y-47739633D01*
X65100766Y-47647059D01*
X64982941Y-47529234D01*
X64890367Y-47390687D01*
X64826601Y-47236742D01*
X64794093Y-47073315D01*
X64794093Y-46906685D01*
X64826601Y-46743258D01*
X64890367Y-46589313D01*
X64982941Y-46450766D01*
X65100766Y-46332941D01*
X65239313Y-46240367D01*
X65393258Y-46176601D01*
X65556685Y-46144093D01*
X65640000Y-46140000D01*
X66440000Y-46140000D01*
X66523315Y-46144093D01*
G37*
G36*
X74143315Y-46144093D02*
G01*
X74306742Y-46176601D01*
X74460687Y-46240367D01*
X74599234Y-46332941D01*
X74717059Y-46450766D01*
X74809633Y-46589313D01*
X74873399Y-46743258D01*
X74905907Y-46906685D01*
X74905907Y-47073315D01*
X74873399Y-47236742D01*
X74809633Y-47390687D01*
X74717059Y-47529234D01*
X74599234Y-47647059D01*
X74460687Y-47739633D01*
X74306742Y-47803399D01*
X74143315Y-47835907D01*
X74060000Y-47840000D01*
X74056940Y-47840000D01*
X73263060Y-47840000D01*
X73260000Y-47840000D01*
X73176685Y-47835907D01*
X73013258Y-47803399D01*
X72859313Y-47739633D01*
X72720766Y-47647059D01*
X72602941Y-47529234D01*
X72510367Y-47390687D01*
X72446601Y-47236742D01*
X72414093Y-47073315D01*
X72414093Y-46906685D01*
X72446601Y-46743258D01*
X72510367Y-46589313D01*
X72602941Y-46450766D01*
X72720766Y-46332941D01*
X72859313Y-46240367D01*
X73013258Y-46176601D01*
X73176685Y-46144093D01*
X73260000Y-46140000D01*
X74060000Y-46140000D01*
X74143315Y-46144093D01*
G37*
G36*
X66523315Y-43604093D02*
G01*
X66686742Y-43636601D01*
X66840687Y-43700367D01*
X66979234Y-43792941D01*
X67097059Y-43910766D01*
X67189633Y-44049313D01*
X67253399Y-44203258D01*
X67285907Y-44366685D01*
X67285907Y-44533315D01*
X67253399Y-44696742D01*
X67189633Y-44850687D01*
X67097059Y-44989234D01*
X66979234Y-45107059D01*
X66840687Y-45199633D01*
X66686742Y-45263399D01*
X66523315Y-45295907D01*
X66440000Y-45300000D01*
X66436940Y-45300000D01*
X65643060Y-45300000D01*
X65640000Y-45300000D01*
X65556685Y-45295907D01*
X65393258Y-45263399D01*
X65239313Y-45199633D01*
X65100766Y-45107059D01*
X64982941Y-44989234D01*
X64890367Y-44850687D01*
X64826601Y-44696742D01*
X64794093Y-44533315D01*
X64794093Y-44366685D01*
X64826601Y-44203258D01*
X64890367Y-44049313D01*
X64982941Y-43910766D01*
X65100766Y-43792941D01*
X65239313Y-43700367D01*
X65393258Y-43636601D01*
X65556685Y-43604093D01*
X65640000Y-43600000D01*
X66440000Y-43600000D01*
X66523315Y-43604093D01*
G37*
G36*
X74143315Y-43604093D02*
G01*
X74306742Y-43636601D01*
X74460687Y-43700367D01*
X74599234Y-43792941D01*
X74717059Y-43910766D01*
X74809633Y-44049313D01*
X74873399Y-44203258D01*
X74905907Y-44366685D01*
X74905907Y-44533315D01*
X74873399Y-44696742D01*
X74809633Y-44850687D01*
X74717059Y-44989234D01*
X74599234Y-45107059D01*
X74460687Y-45199633D01*
X74306742Y-45263399D01*
X74143315Y-45295907D01*
X74060000Y-45300000D01*
X74056940Y-45300000D01*
X73263060Y-45300000D01*
X73260000Y-45300000D01*
X73176685Y-45295907D01*
X73013258Y-45263399D01*
X72859313Y-45199633D01*
X72720766Y-45107059D01*
X72602941Y-44989234D01*
X72510367Y-44850687D01*
X72446601Y-44696742D01*
X72414093Y-44533315D01*
X72414093Y-44366685D01*
X72446601Y-44203258D01*
X72510367Y-44049313D01*
X72602941Y-43910766D01*
X72720766Y-43792941D01*
X72859313Y-43700367D01*
X73013258Y-43636601D01*
X73176685Y-43604093D01*
X73260000Y-43600000D01*
X74060000Y-43600000D01*
X74143315Y-43604093D01*
G37*
G36*
X87119134Y-41953806D02*
G01*
X87135355Y-41964645D01*
X87146194Y-41980866D01*
X87150000Y-42000000D01*
X87150000Y-43500000D01*
X87146194Y-43519134D01*
X87135355Y-43535355D01*
X87119134Y-43546194D01*
X87100000Y-43550000D01*
X85600000Y-43550000D01*
X85580866Y-43546194D01*
X85564645Y-43535355D01*
X85553806Y-43519134D01*
X85550000Y-43500000D01*
X85550000Y-42000000D01*
X85553806Y-41980866D01*
X85564645Y-41964645D01*
X85580866Y-41953806D01*
X85600000Y-41950000D01*
X87100000Y-41950000D01*
X87119134Y-41953806D01*
G37*
G36*
X89122228Y-41984448D02*
G01*
X89267117Y-42044463D01*
X89397515Y-42131592D01*
X89508408Y-42242485D01*
X89595537Y-42372883D01*
X89655552Y-42517772D01*
X89686148Y-42671586D01*
X89686148Y-42828414D01*
X89655552Y-42982228D01*
X89595537Y-43127117D01*
X89508408Y-43257515D01*
X89397515Y-43368408D01*
X89267117Y-43455537D01*
X89122228Y-43515552D01*
X88968414Y-43546148D01*
X88811586Y-43546148D01*
X88657772Y-43515552D01*
X88512883Y-43455537D01*
X88382485Y-43368408D01*
X88271592Y-43257515D01*
X88184463Y-43127117D01*
X88124448Y-42982228D01*
X88093852Y-42828414D01*
X88093852Y-42671586D01*
X88124448Y-42517772D01*
X88184463Y-42372883D01*
X88271592Y-42242485D01*
X88382485Y-42131592D01*
X88512883Y-42044463D01*
X88657772Y-41984448D01*
X88811586Y-41953852D01*
X88968414Y-41953852D01*
X89122228Y-41984448D01*
G37*
G36*
X91662228Y-41984448D02*
G01*
X91807117Y-42044463D01*
X91937515Y-42131592D01*
X92048408Y-42242485D01*
X92135537Y-42372883D01*
X92195552Y-42517772D01*
X92226148Y-42671586D01*
X92226148Y-42828414D01*
X92195552Y-42982228D01*
X92135537Y-43127117D01*
X92048408Y-43257515D01*
X91937515Y-43368408D01*
X91807117Y-43455537D01*
X91662228Y-43515552D01*
X91508414Y-43546148D01*
X91351586Y-43546148D01*
X91197772Y-43515552D01*
X91052883Y-43455537D01*
X90922485Y-43368408D01*
X90811592Y-43257515D01*
X90724463Y-43127117D01*
X90664448Y-42982228D01*
X90633852Y-42828414D01*
X90633852Y-42671586D01*
X90664448Y-42517772D01*
X90724463Y-42372883D01*
X90811592Y-42242485D01*
X90922485Y-42131592D01*
X91052883Y-42044463D01*
X91197772Y-41984448D01*
X91351586Y-41953852D01*
X91508414Y-41953852D01*
X91662228Y-41984448D01*
G37*
G36*
X80111256Y-41718754D02*
G01*
X80274257Y-41786271D01*
X80420954Y-41884291D01*
X80545709Y-42009046D01*
X80643729Y-42155743D01*
X80711246Y-42318744D01*
X80745666Y-42491785D01*
X80745666Y-42668215D01*
X80711246Y-42841256D01*
X80643729Y-43004257D01*
X80545709Y-43150954D01*
X80420954Y-43275709D01*
X80274257Y-43373729D01*
X80111256Y-43441246D01*
X79938215Y-43475666D01*
X79761785Y-43475666D01*
X79588744Y-43441246D01*
X79425743Y-43373729D01*
X79279046Y-43275709D01*
X79154291Y-43150954D01*
X79056271Y-43004257D01*
X78988754Y-42841256D01*
X78954334Y-42668215D01*
X78954334Y-42491785D01*
X78988754Y-42318744D01*
X79056271Y-42155743D01*
X79154291Y-42009046D01*
X79279046Y-41884291D01*
X79425743Y-41786271D01*
X79588744Y-41718754D01*
X79761785Y-41684334D01*
X79938215Y-41684334D01*
X80111256Y-41718754D01*
G37*
G36*
X67058685Y-41067969D02*
G01*
X67074461Y-41074934D01*
X67082222Y-41076164D01*
X67114542Y-41092632D01*
X67159541Y-41112501D01*
X67237499Y-41190459D01*
X67257370Y-41235464D01*
X67273835Y-41267777D01*
X67275063Y-41275535D01*
X67282031Y-41291315D01*
X67290000Y-41360000D01*
X67290000Y-42460000D01*
X67282031Y-42528685D01*
X67275063Y-42544464D01*
X67273835Y-42552222D01*
X67257373Y-42584528D01*
X67237499Y-42629541D01*
X67159541Y-42707499D01*
X67114528Y-42727373D01*
X67082222Y-42743835D01*
X67074464Y-42745063D01*
X67058685Y-42752031D01*
X66990000Y-42760000D01*
X65090000Y-42760000D01*
X65021315Y-42752031D01*
X65005535Y-42745063D01*
X64997777Y-42743835D01*
X64965464Y-42727370D01*
X64920459Y-42707499D01*
X64842501Y-42629541D01*
X64822632Y-42584542D01*
X64806164Y-42552222D01*
X64804934Y-42544461D01*
X64797969Y-42528685D01*
X64790000Y-42460000D01*
X64790000Y-41360000D01*
X64797969Y-41291315D01*
X64804934Y-41275539D01*
X64806164Y-41267777D01*
X64822635Y-41235449D01*
X64842501Y-41190459D01*
X64920459Y-41112501D01*
X64965449Y-41092635D01*
X64997777Y-41076164D01*
X65005539Y-41074934D01*
X65021315Y-41067969D01*
X65090000Y-41060000D01*
X66990000Y-41060000D01*
X67058685Y-41067969D01*
G37*
G36*
X74143315Y-41064093D02*
G01*
X74306742Y-41096601D01*
X74460687Y-41160367D01*
X74599234Y-41252941D01*
X74717059Y-41370766D01*
X74809633Y-41509313D01*
X74873399Y-41663258D01*
X74905907Y-41826685D01*
X74905907Y-41993315D01*
X74873399Y-42156742D01*
X74809633Y-42310687D01*
X74717059Y-42449234D01*
X74599234Y-42567059D01*
X74460687Y-42659633D01*
X74306742Y-42723399D01*
X74143315Y-42755907D01*
X74060000Y-42760000D01*
X74056940Y-42760000D01*
X73263060Y-42760000D01*
X73260000Y-42760000D01*
X73176685Y-42755907D01*
X73013258Y-42723399D01*
X72859313Y-42659633D01*
X72720766Y-42567059D01*
X72602941Y-42449234D01*
X72510367Y-42310687D01*
X72446601Y-42156742D01*
X72414093Y-41993315D01*
X72414093Y-41826685D01*
X72446601Y-41663258D01*
X72510367Y-41509313D01*
X72602941Y-41370766D01*
X72720766Y-41252941D01*
X72859313Y-41160367D01*
X73013258Y-41096601D01*
X73176685Y-41064093D01*
X73260000Y-41060000D01*
X74060000Y-41060000D01*
X74143315Y-41064093D01*
G37*
G36*
X80111256Y-39178754D02*
G01*
X80274257Y-39246271D01*
X80420954Y-39344291D01*
X80545709Y-39469046D01*
X80643729Y-39615743D01*
X80711246Y-39778744D01*
X80745666Y-39951785D01*
X80745666Y-40128215D01*
X80711246Y-40301256D01*
X80643729Y-40464257D01*
X80545709Y-40610954D01*
X80420954Y-40735709D01*
X80274257Y-40833729D01*
X80111256Y-40901246D01*
X79938215Y-40935666D01*
X79761785Y-40935666D01*
X79588744Y-40901246D01*
X79425743Y-40833729D01*
X79279046Y-40735709D01*
X79154291Y-40610954D01*
X79056271Y-40464257D01*
X78988754Y-40301256D01*
X78954334Y-40128215D01*
X78954334Y-39951785D01*
X78988754Y-39778744D01*
X79056271Y-39615743D01*
X79154291Y-39469046D01*
X79279046Y-39344291D01*
X79425743Y-39246271D01*
X79588744Y-39178754D01*
X79761785Y-39144334D01*
X79938215Y-39144334D01*
X80111256Y-39178754D01*
G37*
G36*
X110919199Y-35942272D02*
G01*
X111197167Y-36016754D01*
X111463035Y-36126880D01*
X111712255Y-36270767D01*
X111940561Y-36445952D01*
X112144048Y-36649439D01*
X112319233Y-36877745D01*
X112463120Y-37126965D01*
X112573246Y-37392833D01*
X112647728Y-37670801D01*
X112685290Y-37956113D01*
X112685290Y-38243887D01*
X112647728Y-38529199D01*
X112573246Y-38807167D01*
X112463120Y-39073035D01*
X112319233Y-39322255D01*
X112144048Y-39550561D01*
X111940561Y-39754048D01*
X111712255Y-39929233D01*
X111463035Y-40073120D01*
X111197167Y-40183246D01*
X110919199Y-40257728D01*
X110633887Y-40295290D01*
X110346113Y-40295290D01*
X110060801Y-40257728D01*
X109782833Y-40183246D01*
X109516965Y-40073120D01*
X109267745Y-39929233D01*
X109039439Y-39754048D01*
X108835952Y-39550561D01*
X108660767Y-39322255D01*
X108516880Y-39073035D01*
X108406754Y-38807167D01*
X108332272Y-38529199D01*
X108294710Y-38243887D01*
X108294710Y-37956113D01*
X108332272Y-37670801D01*
X108406754Y-37392833D01*
X108516880Y-37126965D01*
X108660767Y-36877745D01*
X108835952Y-36649439D01*
X109039439Y-36445952D01*
X109267745Y-36270767D01*
X109516965Y-36126880D01*
X109782833Y-36016754D01*
X110060801Y-35942272D01*
X110346113Y-35904710D01*
X110633887Y-35904710D01*
X110919199Y-35942272D01*
G37*
G36*
X80719134Y-36603806D02*
G01*
X80735355Y-36614645D01*
X80746194Y-36630866D01*
X80750000Y-36650000D01*
X80750000Y-38350000D01*
X80746194Y-38369134D01*
X80735355Y-38385355D01*
X80719134Y-38396194D01*
X80700000Y-38400000D01*
X79000000Y-38400000D01*
X78980866Y-38396194D01*
X78964645Y-38385355D01*
X78953806Y-38369134D01*
X78950000Y-38350000D01*
X78950000Y-36650000D01*
X78953806Y-36630866D01*
X78964645Y-36614645D01*
X78980866Y-36603806D01*
X79000000Y-36600000D01*
X80700000Y-36600000D01*
X80719134Y-36603806D01*
G37*
G36*
X86968685Y-36657969D02*
G01*
X86984461Y-36664934D01*
X86992222Y-36666164D01*
X87024542Y-36682632D01*
X87069541Y-36702501D01*
X87147499Y-36780459D01*
X87167370Y-36825464D01*
X87183835Y-36857777D01*
X87185063Y-36865535D01*
X87192031Y-36881315D01*
X87200000Y-36950000D01*
X87200000Y-38050000D01*
X87192031Y-38118685D01*
X87185063Y-38134464D01*
X87183835Y-38142222D01*
X87167373Y-38174528D01*
X87147499Y-38219541D01*
X87069541Y-38297499D01*
X87024528Y-38317373D01*
X86992222Y-38333835D01*
X86984464Y-38335063D01*
X86968685Y-38342031D01*
X86900000Y-38350000D01*
X85800000Y-38350000D01*
X85731315Y-38342031D01*
X85715535Y-38335063D01*
X85707777Y-38333835D01*
X85675464Y-38317370D01*
X85630459Y-38297499D01*
X85552501Y-38219541D01*
X85532632Y-38174542D01*
X85516164Y-38142222D01*
X85514934Y-38134461D01*
X85507969Y-38118685D01*
X85500000Y-38050000D01*
X85500000Y-36950000D01*
X85507969Y-36881315D01*
X85514934Y-36865539D01*
X85516164Y-36857777D01*
X85532635Y-36825449D01*
X85552501Y-36780459D01*
X85630459Y-36702501D01*
X85675449Y-36682635D01*
X85707777Y-36666164D01*
X85715539Y-36664934D01*
X85731315Y-36657969D01*
X85800000Y-36650000D01*
X86900000Y-36650000D01*
X86968685Y-36657969D01*
G37*
G36*
X95242742Y-35976601D02*
G01*
X95396687Y-36040367D01*
X95535234Y-36132941D01*
X95653059Y-36250766D01*
X95745633Y-36389313D01*
X95809399Y-36543258D01*
X95841907Y-36706685D01*
X95841907Y-36873315D01*
X95809399Y-37036742D01*
X95745633Y-37190687D01*
X95653059Y-37329234D01*
X95535234Y-37447059D01*
X95396687Y-37539633D01*
X95242742Y-37603399D01*
X95079315Y-37635907D01*
X94912685Y-37635907D01*
X94749258Y-37603399D01*
X94595313Y-37539633D01*
X94456766Y-37447059D01*
X94338941Y-37329234D01*
X94246367Y-37190687D01*
X94182601Y-37036742D01*
X94150093Y-36873315D01*
X94150093Y-36706685D01*
X94182601Y-36543258D01*
X94246367Y-36389313D01*
X94338941Y-36250766D01*
X94456766Y-36132941D01*
X94595313Y-36040367D01*
X94749258Y-35976601D01*
X94912685Y-35944093D01*
X95079315Y-35944093D01*
X95242742Y-35976601D01*
G37*
G36*
X65429199Y-32132272D02*
G01*
X65707167Y-32206754D01*
X65973035Y-32316880D01*
X66222255Y-32460767D01*
X66450561Y-32635952D01*
X66654048Y-32839439D01*
X66829233Y-33067745D01*
X66973120Y-33316965D01*
X67083246Y-33582833D01*
X67157728Y-33860801D01*
X67195290Y-34146113D01*
X67195290Y-34433887D01*
X67157728Y-34719199D01*
X67083246Y-34997167D01*
X66973120Y-35263035D01*
X66829233Y-35512255D01*
X66654048Y-35740561D01*
X66450561Y-35944048D01*
X66222255Y-36119233D01*
X65973035Y-36263120D01*
X65707167Y-36373246D01*
X65429199Y-36447728D01*
X65143887Y-36485290D01*
X64856113Y-36485290D01*
X64570801Y-36447728D01*
X64292833Y-36373246D01*
X64026965Y-36263120D01*
X63777745Y-36119233D01*
X63549439Y-35944048D01*
X63345952Y-35740561D01*
X63170767Y-35512255D01*
X63026880Y-35263035D01*
X62916754Y-34997167D01*
X62842272Y-34719199D01*
X62804710Y-34433887D01*
X62804710Y-34146113D01*
X62842272Y-33860801D01*
X62916754Y-33582833D01*
X63026880Y-33316965D01*
X63170767Y-33067745D01*
X63345952Y-32839439D01*
X63549439Y-32635952D01*
X63777745Y-32460767D01*
X64026965Y-32316880D01*
X64292833Y-32206754D01*
X64570801Y-32132272D01*
X64856113Y-32094710D01*
X65143887Y-32094710D01*
X65429199Y-32132272D01*
G37*
G36*
X86596742Y-34186601D02*
G01*
X86750687Y-34250367D01*
X86889234Y-34342941D01*
X87007059Y-34460766D01*
X87099633Y-34599313D01*
X87163399Y-34753258D01*
X87195907Y-34916685D01*
X87195907Y-35083315D01*
X87163399Y-35246742D01*
X87099633Y-35400687D01*
X87007059Y-35539234D01*
X86889234Y-35657059D01*
X86750687Y-35749633D01*
X86596742Y-35813399D01*
X86433315Y-35845907D01*
X86266685Y-35845907D01*
X86103258Y-35813399D01*
X85949313Y-35749633D01*
X85810766Y-35657059D01*
X85692941Y-35539234D01*
X85600367Y-35400687D01*
X85536601Y-35246742D01*
X85504093Y-35083315D01*
X85504093Y-34916685D01*
X85536601Y-34753258D01*
X85600367Y-34599313D01*
X85692941Y-34460766D01*
X85810766Y-34342941D01*
X85949313Y-34250367D01*
X86103258Y-34186601D01*
X86266685Y-34154093D01*
X86433315Y-34154093D01*
X86596742Y-34186601D01*
G37*
G36*
X95242742Y-30976601D02*
G01*
X95396687Y-31040367D01*
X95535234Y-31132941D01*
X95653059Y-31250766D01*
X95745633Y-31389313D01*
X95809399Y-31543258D01*
X95841907Y-31706685D01*
X95841907Y-31873315D01*
X95809399Y-32036742D01*
X95745633Y-32190687D01*
X95653059Y-32329234D01*
X95535234Y-32447059D01*
X95396687Y-32539633D01*
X95242742Y-32603399D01*
X95079315Y-32635907D01*
X94912685Y-32635907D01*
X94749258Y-32603399D01*
X94595313Y-32539633D01*
X94456766Y-32447059D01*
X94338941Y-32329234D01*
X94246367Y-32190687D01*
X94182601Y-32036742D01*
X94150093Y-31873315D01*
X94150093Y-31706685D01*
X94182601Y-31543258D01*
X94246367Y-31389313D01*
X94338941Y-31250766D01*
X94456766Y-31132941D01*
X94595313Y-31040367D01*
X94749258Y-30976601D01*
X94912685Y-30944093D01*
X95079315Y-30944093D01*
X95242742Y-30976601D01*
G37*
G36*
X100694685Y-30907969D02*
G01*
X100710461Y-30914934D01*
X100718222Y-30916164D01*
X100750542Y-30932632D01*
X100795541Y-30952501D01*
X100873499Y-31030459D01*
X100893370Y-31075464D01*
X100909835Y-31107777D01*
X100911063Y-31115535D01*
X100918031Y-31131315D01*
X100926000Y-31200000D01*
X100926000Y-32300000D01*
X100918031Y-32368685D01*
X100911063Y-32384464D01*
X100909835Y-32392222D01*
X100893373Y-32424528D01*
X100873499Y-32469541D01*
X100795541Y-32547499D01*
X100750528Y-32567373D01*
X100718222Y-32583835D01*
X100710464Y-32585063D01*
X100694685Y-32592031D01*
X100626000Y-32600000D01*
X99526000Y-32600000D01*
X99457315Y-32592031D01*
X99441535Y-32585063D01*
X99433777Y-32583835D01*
X99401464Y-32567370D01*
X99356459Y-32547499D01*
X99278501Y-32469541D01*
X99258632Y-32424542D01*
X99242164Y-32392222D01*
X99240934Y-32384461D01*
X99233969Y-32368685D01*
X99226000Y-32300000D01*
X99226000Y-31200000D01*
X99233969Y-31131315D01*
X99240934Y-31115539D01*
X99242164Y-31107777D01*
X99258635Y-31075449D01*
X99278501Y-31030459D01*
X99356459Y-30952501D01*
X99401449Y-30932635D01*
X99433777Y-30916164D01*
X99441539Y-30914934D01*
X99457315Y-30907969D01*
X99526000Y-30900000D01*
X100626000Y-30900000D01*
X100694685Y-30907969D01*
G37*
G36*
X102822742Y-30936601D02*
G01*
X102976687Y-31000367D01*
X103115234Y-31092941D01*
X103233059Y-31210766D01*
X103325633Y-31349313D01*
X103389399Y-31503258D01*
X103421907Y-31666685D01*
X103421907Y-31833315D01*
X103389399Y-31996742D01*
X103325633Y-32150687D01*
X103233059Y-32289234D01*
X103115234Y-32407059D01*
X102976687Y-32499633D01*
X102822742Y-32563399D01*
X102659315Y-32595907D01*
X102492685Y-32595907D01*
X102329258Y-32563399D01*
X102175313Y-32499633D01*
X102036766Y-32407059D01*
X101918941Y-32289234D01*
X101826367Y-32150687D01*
X101762601Y-31996742D01*
X101730093Y-31833315D01*
X101730093Y-31666685D01*
X101762601Y-31503258D01*
X101826367Y-31349313D01*
X101918941Y-31210766D01*
X102036766Y-31092941D01*
X102175313Y-31000367D01*
X102329258Y-30936601D01*
X102492685Y-30904093D01*
X102659315Y-30904093D01*
X102822742Y-30936601D01*
G37*
M02*
