%TF.GenerationSoftware,KiCad,Pcbnew,9.0.4*%
%TF.CreationDate,2026-04-19T18:43:12+02:00*%
%TF.ProjectId,main_board,6d61696e-5f62-46f6-9172-642e6b696361,rev?*%
%TF.SameCoordinates,Original*%
%TF.FileFunction,Legend,Top*%
%TF.FilePolarity,Positive*%
%FSLAX46Y46*%
G04 Gerber Fmt 4.6, Leading zero omitted, Abs format (unit mm)*
G04 Created by KiCad (PCBNEW 9.0.4) date 2026-04-19 18:43:12*
%MOMM*%
%LPD*%
G01*
G04 APERTURE LIST*
%ADD10C,0.100000*%
%ADD11C,0.150000*%
%ADD12C,0.200000*%
%ADD13C,0.120000*%
%ADD14C,0.000000*%
G04 APERTURE END LIST*
D10*
X87281966Y-58445332D02*
X87248633Y-58511999D01*
X87248633Y-58511999D02*
X87248633Y-58611999D01*
X87248633Y-58611999D02*
X87281966Y-58711999D01*
X87281966Y-58711999D02*
X87348633Y-58778666D01*
X87348633Y-58778666D02*
X87415300Y-58811999D01*
X87415300Y-58811999D02*
X87548633Y-58845332D01*
X87548633Y-58845332D02*
X87648633Y-58845332D01*
X87648633Y-58845332D02*
X87781966Y-58811999D01*
X87781966Y-58811999D02*
X87848633Y-58778666D01*
X87848633Y-58778666D02*
X87915300Y-58711999D01*
X87915300Y-58711999D02*
X87948633Y-58611999D01*
X87948633Y-58611999D02*
X87948633Y-58545332D01*
X87948633Y-58545332D02*
X87915300Y-58445332D01*
X87915300Y-58445332D02*
X87881966Y-58411999D01*
X87881966Y-58411999D02*
X87648633Y-58411999D01*
X87648633Y-58411999D02*
X87648633Y-58545332D01*
X87948633Y-58111999D02*
X87248633Y-58111999D01*
X87248633Y-58111999D02*
X87948633Y-57711999D01*
X87948633Y-57711999D02*
X87248633Y-57711999D01*
X87948633Y-57378666D02*
X87248633Y-57378666D01*
X87248633Y-57378666D02*
X87248633Y-57211999D01*
X87248633Y-57211999D02*
X87281966Y-57111999D01*
X87281966Y-57111999D02*
X87348633Y-57045333D01*
X87348633Y-57045333D02*
X87415300Y-57011999D01*
X87415300Y-57011999D02*
X87548633Y-56978666D01*
X87548633Y-56978666D02*
X87648633Y-56978666D01*
X87648633Y-56978666D02*
X87781966Y-57011999D01*
X87781966Y-57011999D02*
X87848633Y-57045333D01*
X87848633Y-57045333D02*
X87915300Y-57111999D01*
X87915300Y-57111999D02*
X87948633Y-57211999D01*
X87948633Y-57211999D02*
X87948633Y-57378666D01*
D11*
X105483866Y-69071904D02*
X105483866Y-68310000D01*
X105864819Y-68690952D02*
X105102914Y-68690952D01*
X105864819Y-67310000D02*
X105864819Y-67881428D01*
X105864819Y-67595714D02*
X104864819Y-67595714D01*
X104864819Y-67595714D02*
X105007676Y-67690952D01*
X105007676Y-67690952D02*
X105102914Y-67786190D01*
X105102914Y-67786190D02*
X105150533Y-67881428D01*
X104864819Y-66405238D02*
X104864819Y-66881428D01*
X104864819Y-66881428D02*
X105341009Y-66929047D01*
X105341009Y-66929047D02*
X105293390Y-66881428D01*
X105293390Y-66881428D02*
X105245771Y-66786190D01*
X105245771Y-66786190D02*
X105245771Y-66548095D01*
X105245771Y-66548095D02*
X105293390Y-66452857D01*
X105293390Y-66452857D02*
X105341009Y-66405238D01*
X105341009Y-66405238D02*
X105436247Y-66357619D01*
X105436247Y-66357619D02*
X105674342Y-66357619D01*
X105674342Y-66357619D02*
X105769580Y-66405238D01*
X105769580Y-66405238D02*
X105817200Y-66452857D01*
X105817200Y-66452857D02*
X105864819Y-66548095D01*
X105864819Y-66548095D02*
X105864819Y-66786190D01*
X105864819Y-66786190D02*
X105817200Y-66881428D01*
X105817200Y-66881428D02*
X105769580Y-66929047D01*
X104864819Y-66071904D02*
X105864819Y-65738571D01*
X105864819Y-65738571D02*
X104864819Y-65405238D01*
D10*
X87666667Y-101551966D02*
X87600000Y-101518633D01*
X87600000Y-101518633D02*
X87500000Y-101518633D01*
X87500000Y-101518633D02*
X87400000Y-101551966D01*
X87400000Y-101551966D02*
X87333334Y-101618633D01*
X87333334Y-101618633D02*
X87300000Y-101685300D01*
X87300000Y-101685300D02*
X87266667Y-101818633D01*
X87266667Y-101818633D02*
X87266667Y-101918633D01*
X87266667Y-101918633D02*
X87300000Y-102051966D01*
X87300000Y-102051966D02*
X87333334Y-102118633D01*
X87333334Y-102118633D02*
X87400000Y-102185300D01*
X87400000Y-102185300D02*
X87500000Y-102218633D01*
X87500000Y-102218633D02*
X87566667Y-102218633D01*
X87566667Y-102218633D02*
X87666667Y-102185300D01*
X87666667Y-102185300D02*
X87700000Y-102151966D01*
X87700000Y-102151966D02*
X87700000Y-101918633D01*
X87700000Y-101918633D02*
X87566667Y-101918633D01*
X88000000Y-102218633D02*
X88000000Y-101518633D01*
X88000000Y-101518633D02*
X88400000Y-102218633D01*
X88400000Y-102218633D02*
X88400000Y-101518633D01*
X88733333Y-102218633D02*
X88733333Y-101518633D01*
X88733333Y-101518633D02*
X88900000Y-101518633D01*
X88900000Y-101518633D02*
X89000000Y-101551966D01*
X89000000Y-101551966D02*
X89066667Y-101618633D01*
X89066667Y-101618633D02*
X89100000Y-101685300D01*
X89100000Y-101685300D02*
X89133333Y-101818633D01*
X89133333Y-101818633D02*
X89133333Y-101918633D01*
X89133333Y-101918633D02*
X89100000Y-102051966D01*
X89100000Y-102051966D02*
X89066667Y-102118633D01*
X89066667Y-102118633D02*
X89000000Y-102185300D01*
X89000000Y-102185300D02*
X88900000Y-102218633D01*
X88900000Y-102218633D02*
X88733333Y-102218633D01*
X72500000Y-88068633D02*
X72500000Y-87368633D01*
X72833333Y-88068633D02*
X72833333Y-87368633D01*
X72833333Y-87368633D02*
X73233333Y-88068633D01*
X73233333Y-88068633D02*
X73233333Y-87368633D01*
X73533333Y-87435300D02*
X73566666Y-87401966D01*
X73566666Y-87401966D02*
X73633333Y-87368633D01*
X73633333Y-87368633D02*
X73800000Y-87368633D01*
X73800000Y-87368633D02*
X73866666Y-87401966D01*
X73866666Y-87401966D02*
X73900000Y-87435300D01*
X73900000Y-87435300D02*
X73933333Y-87501966D01*
X73933333Y-87501966D02*
X73933333Y-87568633D01*
X73933333Y-87568633D02*
X73900000Y-87668633D01*
X73900000Y-87668633D02*
X73500000Y-88068633D01*
X73500000Y-88068633D02*
X73933333Y-88068633D01*
X72376667Y-76118633D02*
X72510000Y-76118633D01*
X72510000Y-76118633D02*
X72576667Y-76151966D01*
X72576667Y-76151966D02*
X72643333Y-76218633D01*
X72643333Y-76218633D02*
X72676667Y-76351966D01*
X72676667Y-76351966D02*
X72676667Y-76585300D01*
X72676667Y-76585300D02*
X72643333Y-76718633D01*
X72643333Y-76718633D02*
X72576667Y-76785300D01*
X72576667Y-76785300D02*
X72510000Y-76818633D01*
X72510000Y-76818633D02*
X72376667Y-76818633D01*
X72376667Y-76818633D02*
X72310000Y-76785300D01*
X72310000Y-76785300D02*
X72243333Y-76718633D01*
X72243333Y-76718633D02*
X72210000Y-76585300D01*
X72210000Y-76585300D02*
X72210000Y-76351966D01*
X72210000Y-76351966D02*
X72243333Y-76218633D01*
X72243333Y-76218633D02*
X72310000Y-76151966D01*
X72310000Y-76151966D02*
X72376667Y-76118633D01*
X72976666Y-76118633D02*
X72976666Y-76685300D01*
X72976666Y-76685300D02*
X73010000Y-76751966D01*
X73010000Y-76751966D02*
X73043333Y-76785300D01*
X73043333Y-76785300D02*
X73110000Y-76818633D01*
X73110000Y-76818633D02*
X73243333Y-76818633D01*
X73243333Y-76818633D02*
X73310000Y-76785300D01*
X73310000Y-76785300D02*
X73343333Y-76751966D01*
X73343333Y-76751966D02*
X73376666Y-76685300D01*
X73376666Y-76685300D02*
X73376666Y-76118633D01*
X73609999Y-76118633D02*
X74009999Y-76118633D01*
X73809999Y-76818633D02*
X73809999Y-76118633D01*
X74176666Y-76118633D02*
X74609999Y-76118633D01*
X74609999Y-76118633D02*
X74376666Y-76385300D01*
X74376666Y-76385300D02*
X74476666Y-76385300D01*
X74476666Y-76385300D02*
X74543332Y-76418633D01*
X74543332Y-76418633D02*
X74576666Y-76451966D01*
X74576666Y-76451966D02*
X74609999Y-76518633D01*
X74609999Y-76518633D02*
X74609999Y-76685300D01*
X74609999Y-76685300D02*
X74576666Y-76751966D01*
X74576666Y-76751966D02*
X74543332Y-76785300D01*
X74543332Y-76785300D02*
X74476666Y-76818633D01*
X74476666Y-76818633D02*
X74276666Y-76818633D01*
X74276666Y-76818633D02*
X74209999Y-76785300D01*
X74209999Y-76785300D02*
X74176666Y-76751966D01*
X75876667Y-81901966D02*
X75810000Y-81868633D01*
X75810000Y-81868633D02*
X75710000Y-81868633D01*
X75710000Y-81868633D02*
X75610000Y-81901966D01*
X75610000Y-81901966D02*
X75543334Y-81968633D01*
X75543334Y-81968633D02*
X75510000Y-82035300D01*
X75510000Y-82035300D02*
X75476667Y-82168633D01*
X75476667Y-82168633D02*
X75476667Y-82268633D01*
X75476667Y-82268633D02*
X75510000Y-82401966D01*
X75510000Y-82401966D02*
X75543334Y-82468633D01*
X75543334Y-82468633D02*
X75610000Y-82535300D01*
X75610000Y-82535300D02*
X75710000Y-82568633D01*
X75710000Y-82568633D02*
X75776667Y-82568633D01*
X75776667Y-82568633D02*
X75876667Y-82535300D01*
X75876667Y-82535300D02*
X75910000Y-82501966D01*
X75910000Y-82501966D02*
X75910000Y-82268633D01*
X75910000Y-82268633D02*
X75776667Y-82268633D01*
X76210000Y-82568633D02*
X76210000Y-81868633D01*
X76210000Y-81868633D02*
X76610000Y-82568633D01*
X76610000Y-82568633D02*
X76610000Y-81868633D01*
X76943333Y-82568633D02*
X76943333Y-81868633D01*
X76943333Y-81868633D02*
X77110000Y-81868633D01*
X77110000Y-81868633D02*
X77210000Y-81901966D01*
X77210000Y-81901966D02*
X77276667Y-81968633D01*
X77276667Y-81968633D02*
X77310000Y-82035300D01*
X77310000Y-82035300D02*
X77343333Y-82168633D01*
X77343333Y-82168633D02*
X77343333Y-82268633D01*
X77343333Y-82268633D02*
X77310000Y-82401966D01*
X77310000Y-82401966D02*
X77276667Y-82468633D01*
X77276667Y-82468633D02*
X77210000Y-82535300D01*
X77210000Y-82535300D02*
X77110000Y-82568633D01*
X77110000Y-82568633D02*
X76943333Y-82568633D01*
X86626667Y-78901966D02*
X86560000Y-78868633D01*
X86560000Y-78868633D02*
X86460000Y-78868633D01*
X86460000Y-78868633D02*
X86360000Y-78901966D01*
X86360000Y-78901966D02*
X86293334Y-78968633D01*
X86293334Y-78968633D02*
X86260000Y-79035300D01*
X86260000Y-79035300D02*
X86226667Y-79168633D01*
X86226667Y-79168633D02*
X86226667Y-79268633D01*
X86226667Y-79268633D02*
X86260000Y-79401966D01*
X86260000Y-79401966D02*
X86293334Y-79468633D01*
X86293334Y-79468633D02*
X86360000Y-79535300D01*
X86360000Y-79535300D02*
X86460000Y-79568633D01*
X86460000Y-79568633D02*
X86526667Y-79568633D01*
X86526667Y-79568633D02*
X86626667Y-79535300D01*
X86626667Y-79535300D02*
X86660000Y-79501966D01*
X86660000Y-79501966D02*
X86660000Y-79268633D01*
X86660000Y-79268633D02*
X86526667Y-79268633D01*
X86960000Y-79568633D02*
X86960000Y-78868633D01*
X86960000Y-78868633D02*
X87360000Y-79568633D01*
X87360000Y-79568633D02*
X87360000Y-78868633D01*
X87693333Y-79568633D02*
X87693333Y-78868633D01*
X87693333Y-78868633D02*
X87860000Y-78868633D01*
X87860000Y-78868633D02*
X87960000Y-78901966D01*
X87960000Y-78901966D02*
X88026667Y-78968633D01*
X88026667Y-78968633D02*
X88060000Y-79035300D01*
X88060000Y-79035300D02*
X88093333Y-79168633D01*
X88093333Y-79168633D02*
X88093333Y-79268633D01*
X88093333Y-79268633D02*
X88060000Y-79401966D01*
X88060000Y-79401966D02*
X88026667Y-79468633D01*
X88026667Y-79468633D02*
X87960000Y-79535300D01*
X87960000Y-79535300D02*
X87860000Y-79568633D01*
X87860000Y-79568633D02*
X87693333Y-79568633D01*
D12*
X54260952Y-88404600D02*
X54403809Y-88452219D01*
X54403809Y-88452219D02*
X54641904Y-88452219D01*
X54641904Y-88452219D02*
X54737142Y-88404600D01*
X54737142Y-88404600D02*
X54784761Y-88356980D01*
X54784761Y-88356980D02*
X54832380Y-88261742D01*
X54832380Y-88261742D02*
X54832380Y-88166504D01*
X54832380Y-88166504D02*
X54784761Y-88071266D01*
X54784761Y-88071266D02*
X54737142Y-88023647D01*
X54737142Y-88023647D02*
X54641904Y-87976028D01*
X54641904Y-87976028D02*
X54451428Y-87928409D01*
X54451428Y-87928409D02*
X54356190Y-87880790D01*
X54356190Y-87880790D02*
X54308571Y-87833171D01*
X54308571Y-87833171D02*
X54260952Y-87737933D01*
X54260952Y-87737933D02*
X54260952Y-87642695D01*
X54260952Y-87642695D02*
X54308571Y-87547457D01*
X54308571Y-87547457D02*
X54356190Y-87499838D01*
X54356190Y-87499838D02*
X54451428Y-87452219D01*
X54451428Y-87452219D02*
X54689523Y-87452219D01*
X54689523Y-87452219D02*
X54832380Y-87499838D01*
X55260952Y-87928409D02*
X55594285Y-87928409D01*
X55737142Y-88452219D02*
X55260952Y-88452219D01*
X55260952Y-88452219D02*
X55260952Y-87452219D01*
X55260952Y-87452219D02*
X55737142Y-87452219D01*
X56641904Y-88452219D02*
X56165714Y-88452219D01*
X56165714Y-88452219D02*
X56165714Y-87452219D01*
X57499047Y-88452219D02*
X56927619Y-88452219D01*
X57213333Y-88452219D02*
X57213333Y-87452219D01*
X57213333Y-87452219D02*
X57118095Y-87595076D01*
X57118095Y-87595076D02*
X57022857Y-87690314D01*
X57022857Y-87690314D02*
X56927619Y-87737933D01*
D10*
X70901966Y-43283332D02*
X70868633Y-43349999D01*
X70868633Y-43349999D02*
X70868633Y-43449999D01*
X70868633Y-43449999D02*
X70901966Y-43549999D01*
X70901966Y-43549999D02*
X70968633Y-43616666D01*
X70968633Y-43616666D02*
X71035300Y-43649999D01*
X71035300Y-43649999D02*
X71168633Y-43683332D01*
X71168633Y-43683332D02*
X71268633Y-43683332D01*
X71268633Y-43683332D02*
X71401966Y-43649999D01*
X71401966Y-43649999D02*
X71468633Y-43616666D01*
X71468633Y-43616666D02*
X71535300Y-43549999D01*
X71535300Y-43549999D02*
X71568633Y-43449999D01*
X71568633Y-43449999D02*
X71568633Y-43383332D01*
X71568633Y-43383332D02*
X71535300Y-43283332D01*
X71535300Y-43283332D02*
X71501966Y-43249999D01*
X71501966Y-43249999D02*
X71268633Y-43249999D01*
X71268633Y-43249999D02*
X71268633Y-43383332D01*
X71568633Y-42949999D02*
X70868633Y-42949999D01*
X70868633Y-42949999D02*
X71568633Y-42549999D01*
X71568633Y-42549999D02*
X70868633Y-42549999D01*
X71568633Y-42216666D02*
X70868633Y-42216666D01*
X70868633Y-42216666D02*
X70868633Y-42049999D01*
X70868633Y-42049999D02*
X70901966Y-41949999D01*
X70901966Y-41949999D02*
X70968633Y-41883333D01*
X70968633Y-41883333D02*
X71035300Y-41849999D01*
X71035300Y-41849999D02*
X71168633Y-41816666D01*
X71168633Y-41816666D02*
X71268633Y-41816666D01*
X71268633Y-41816666D02*
X71401966Y-41849999D01*
X71401966Y-41849999D02*
X71468633Y-41883333D01*
X71468633Y-41883333D02*
X71535300Y-41949999D01*
X71535300Y-41949999D02*
X71568633Y-42049999D01*
X71568633Y-42049999D02*
X71568633Y-42216666D01*
X83126667Y-78868633D02*
X83260000Y-78868633D01*
X83260000Y-78868633D02*
X83326667Y-78901966D01*
X83326667Y-78901966D02*
X83393333Y-78968633D01*
X83393333Y-78968633D02*
X83426667Y-79101966D01*
X83426667Y-79101966D02*
X83426667Y-79335300D01*
X83426667Y-79335300D02*
X83393333Y-79468633D01*
X83393333Y-79468633D02*
X83326667Y-79535300D01*
X83326667Y-79535300D02*
X83260000Y-79568633D01*
X83260000Y-79568633D02*
X83126667Y-79568633D01*
X83126667Y-79568633D02*
X83060000Y-79535300D01*
X83060000Y-79535300D02*
X82993333Y-79468633D01*
X82993333Y-79468633D02*
X82960000Y-79335300D01*
X82960000Y-79335300D02*
X82960000Y-79101966D01*
X82960000Y-79101966D02*
X82993333Y-78968633D01*
X82993333Y-78968633D02*
X83060000Y-78901966D01*
X83060000Y-78901966D02*
X83126667Y-78868633D01*
X83726666Y-78868633D02*
X83726666Y-79435300D01*
X83726666Y-79435300D02*
X83760000Y-79501966D01*
X83760000Y-79501966D02*
X83793333Y-79535300D01*
X83793333Y-79535300D02*
X83860000Y-79568633D01*
X83860000Y-79568633D02*
X83993333Y-79568633D01*
X83993333Y-79568633D02*
X84060000Y-79535300D01*
X84060000Y-79535300D02*
X84093333Y-79501966D01*
X84093333Y-79501966D02*
X84126666Y-79435300D01*
X84126666Y-79435300D02*
X84126666Y-78868633D01*
X84359999Y-78868633D02*
X84759999Y-78868633D01*
X84559999Y-79568633D02*
X84559999Y-78868633D01*
X84959999Y-78935300D02*
X84993332Y-78901966D01*
X84993332Y-78901966D02*
X85059999Y-78868633D01*
X85059999Y-78868633D02*
X85226666Y-78868633D01*
X85226666Y-78868633D02*
X85293332Y-78901966D01*
X85293332Y-78901966D02*
X85326666Y-78935300D01*
X85326666Y-78935300D02*
X85359999Y-79001966D01*
X85359999Y-79001966D02*
X85359999Y-79068633D01*
X85359999Y-79068633D02*
X85326666Y-79168633D01*
X85326666Y-79168633D02*
X84926666Y-79568633D01*
X84926666Y-79568633D02*
X85359999Y-79568633D01*
D11*
X82480952Y-100007200D02*
X82623809Y-100054819D01*
X82623809Y-100054819D02*
X82861904Y-100054819D01*
X82861904Y-100054819D02*
X82957142Y-100007200D01*
X82957142Y-100007200D02*
X83004761Y-99959580D01*
X83004761Y-99959580D02*
X83052380Y-99864342D01*
X83052380Y-99864342D02*
X83052380Y-99769104D01*
X83052380Y-99769104D02*
X83004761Y-99673866D01*
X83004761Y-99673866D02*
X82957142Y-99626247D01*
X82957142Y-99626247D02*
X82861904Y-99578628D01*
X82861904Y-99578628D02*
X82671428Y-99531009D01*
X82671428Y-99531009D02*
X82576190Y-99483390D01*
X82576190Y-99483390D02*
X82528571Y-99435771D01*
X82528571Y-99435771D02*
X82480952Y-99340533D01*
X82480952Y-99340533D02*
X82480952Y-99245295D01*
X82480952Y-99245295D02*
X82528571Y-99150057D01*
X82528571Y-99150057D02*
X82576190Y-99102438D01*
X82576190Y-99102438D02*
X82671428Y-99054819D01*
X82671428Y-99054819D02*
X82909523Y-99054819D01*
X82909523Y-99054819D02*
X83052380Y-99102438D01*
X83480952Y-99531009D02*
X83814285Y-99531009D01*
X83957142Y-100054819D02*
X83480952Y-100054819D01*
X83480952Y-100054819D02*
X83480952Y-99054819D01*
X83480952Y-99054819D02*
X83957142Y-99054819D01*
X84861904Y-100054819D02*
X84385714Y-100054819D01*
X84385714Y-100054819D02*
X84385714Y-99054819D01*
X85147619Y-99150057D02*
X85195238Y-99102438D01*
X85195238Y-99102438D02*
X85290476Y-99054819D01*
X85290476Y-99054819D02*
X85528571Y-99054819D01*
X85528571Y-99054819D02*
X85623809Y-99102438D01*
X85623809Y-99102438D02*
X85671428Y-99150057D01*
X85671428Y-99150057D02*
X85719047Y-99245295D01*
X85719047Y-99245295D02*
X85719047Y-99340533D01*
X85719047Y-99340533D02*
X85671428Y-99483390D01*
X85671428Y-99483390D02*
X85100000Y-100054819D01*
X85100000Y-100054819D02*
X85719047Y-100054819D01*
X82480952Y-106407200D02*
X82623809Y-106454819D01*
X82623809Y-106454819D02*
X82861904Y-106454819D01*
X82861904Y-106454819D02*
X82957142Y-106407200D01*
X82957142Y-106407200D02*
X83004761Y-106359580D01*
X83004761Y-106359580D02*
X83052380Y-106264342D01*
X83052380Y-106264342D02*
X83052380Y-106169104D01*
X83052380Y-106169104D02*
X83004761Y-106073866D01*
X83004761Y-106073866D02*
X82957142Y-106026247D01*
X82957142Y-106026247D02*
X82861904Y-105978628D01*
X82861904Y-105978628D02*
X82671428Y-105931009D01*
X82671428Y-105931009D02*
X82576190Y-105883390D01*
X82576190Y-105883390D02*
X82528571Y-105835771D01*
X82528571Y-105835771D02*
X82480952Y-105740533D01*
X82480952Y-105740533D02*
X82480952Y-105645295D01*
X82480952Y-105645295D02*
X82528571Y-105550057D01*
X82528571Y-105550057D02*
X82576190Y-105502438D01*
X82576190Y-105502438D02*
X82671428Y-105454819D01*
X82671428Y-105454819D02*
X82909523Y-105454819D01*
X82909523Y-105454819D02*
X83052380Y-105502438D01*
X83480952Y-105931009D02*
X83814285Y-105931009D01*
X83957142Y-106454819D02*
X83480952Y-106454819D01*
X83480952Y-106454819D02*
X83480952Y-105454819D01*
X83480952Y-105454819D02*
X83957142Y-105454819D01*
X84861904Y-106454819D02*
X84385714Y-106454819D01*
X84385714Y-106454819D02*
X84385714Y-105454819D01*
X85100000Y-105454819D02*
X85719047Y-105454819D01*
X85719047Y-105454819D02*
X85385714Y-105835771D01*
X85385714Y-105835771D02*
X85528571Y-105835771D01*
X85528571Y-105835771D02*
X85623809Y-105883390D01*
X85623809Y-105883390D02*
X85671428Y-105931009D01*
X85671428Y-105931009D02*
X85719047Y-106026247D01*
X85719047Y-106026247D02*
X85719047Y-106264342D01*
X85719047Y-106264342D02*
X85671428Y-106359580D01*
X85671428Y-106359580D02*
X85623809Y-106407200D01*
X85623809Y-106407200D02*
X85528571Y-106454819D01*
X85528571Y-106454819D02*
X85242857Y-106454819D01*
X85242857Y-106454819D02*
X85147619Y-106407200D01*
X85147619Y-106407200D02*
X85100000Y-106359580D01*
D10*
X107670667Y-73565966D02*
X107604000Y-73532633D01*
X107604000Y-73532633D02*
X107504000Y-73532633D01*
X107504000Y-73532633D02*
X107404000Y-73565966D01*
X107404000Y-73565966D02*
X107337334Y-73632633D01*
X107337334Y-73632633D02*
X107304000Y-73699300D01*
X107304000Y-73699300D02*
X107270667Y-73832633D01*
X107270667Y-73832633D02*
X107270667Y-73932633D01*
X107270667Y-73932633D02*
X107304000Y-74065966D01*
X107304000Y-74065966D02*
X107337334Y-74132633D01*
X107337334Y-74132633D02*
X107404000Y-74199300D01*
X107404000Y-74199300D02*
X107504000Y-74232633D01*
X107504000Y-74232633D02*
X107570667Y-74232633D01*
X107570667Y-74232633D02*
X107670667Y-74199300D01*
X107670667Y-74199300D02*
X107704000Y-74165966D01*
X107704000Y-74165966D02*
X107704000Y-73932633D01*
X107704000Y-73932633D02*
X107570667Y-73932633D01*
X108004000Y-74232633D02*
X108004000Y-73532633D01*
X108004000Y-73532633D02*
X108404000Y-74232633D01*
X108404000Y-74232633D02*
X108404000Y-73532633D01*
X108737333Y-74232633D02*
X108737333Y-73532633D01*
X108737333Y-73532633D02*
X108904000Y-73532633D01*
X108904000Y-73532633D02*
X109004000Y-73565966D01*
X109004000Y-73565966D02*
X109070667Y-73632633D01*
X109070667Y-73632633D02*
X109104000Y-73699300D01*
X109104000Y-73699300D02*
X109137333Y-73832633D01*
X109137333Y-73832633D02*
X109137333Y-73932633D01*
X109137333Y-73932633D02*
X109104000Y-74065966D01*
X109104000Y-74065966D02*
X109070667Y-74132633D01*
X109070667Y-74132633D02*
X109004000Y-74199300D01*
X109004000Y-74199300D02*
X108904000Y-74232633D01*
X108904000Y-74232633D02*
X108737333Y-74232633D01*
D12*
X60661112Y-94304285D02*
X60661112Y-94018571D01*
X60661112Y-94018571D02*
X60732541Y-93875714D01*
X60732541Y-93875714D02*
X60875398Y-93732857D01*
X60875398Y-93732857D02*
X61161112Y-93661428D01*
X61161112Y-93661428D02*
X61661112Y-93661428D01*
X61661112Y-93661428D02*
X61946826Y-93732857D01*
X61946826Y-93732857D02*
X62089684Y-93875714D01*
X62089684Y-93875714D02*
X62161112Y-94018571D01*
X62161112Y-94018571D02*
X62161112Y-94304285D01*
X62161112Y-94304285D02*
X62089684Y-94447143D01*
X62089684Y-94447143D02*
X61946826Y-94590000D01*
X61946826Y-94590000D02*
X61661112Y-94661428D01*
X61661112Y-94661428D02*
X61161112Y-94661428D01*
X61161112Y-94661428D02*
X60875398Y-94590000D01*
X60875398Y-94590000D02*
X60732541Y-94447143D01*
X60732541Y-94447143D02*
X60661112Y-94304285D01*
X62161112Y-93018571D02*
X60661112Y-93018571D01*
X60661112Y-93018571D02*
X60661112Y-92447142D01*
X60661112Y-92447142D02*
X60732541Y-92304285D01*
X60732541Y-92304285D02*
X60803969Y-92232856D01*
X60803969Y-92232856D02*
X60946826Y-92161428D01*
X60946826Y-92161428D02*
X61161112Y-92161428D01*
X61161112Y-92161428D02*
X61303969Y-92232856D01*
X61303969Y-92232856D02*
X61375398Y-92304285D01*
X61375398Y-92304285D02*
X61446826Y-92447142D01*
X61446826Y-92447142D02*
X61446826Y-93018571D01*
X60661112Y-91732856D02*
X60661112Y-90875714D01*
X62161112Y-91304285D02*
X60661112Y-91304285D01*
X60661112Y-90089999D02*
X60661112Y-89804285D01*
X60661112Y-89804285D02*
X60732541Y-89661428D01*
X60732541Y-89661428D02*
X60875398Y-89518571D01*
X60875398Y-89518571D02*
X61161112Y-89447142D01*
X61161112Y-89447142D02*
X61661112Y-89447142D01*
X61661112Y-89447142D02*
X61946826Y-89518571D01*
X61946826Y-89518571D02*
X62089684Y-89661428D01*
X62089684Y-89661428D02*
X62161112Y-89804285D01*
X62161112Y-89804285D02*
X62161112Y-90089999D01*
X62161112Y-90089999D02*
X62089684Y-90232857D01*
X62089684Y-90232857D02*
X61946826Y-90375714D01*
X61946826Y-90375714D02*
X61661112Y-90447142D01*
X61661112Y-90447142D02*
X61161112Y-90447142D01*
X61161112Y-90447142D02*
X60875398Y-90375714D01*
X60875398Y-90375714D02*
X60732541Y-90232857D01*
X60732541Y-90232857D02*
X60661112Y-90089999D01*
X62161112Y-87661428D02*
X60661112Y-87661428D01*
X60661112Y-87661428D02*
X61732541Y-87161428D01*
X61732541Y-87161428D02*
X60661112Y-86661428D01*
X60661112Y-86661428D02*
X62161112Y-86661428D01*
X62161112Y-85304285D02*
X61375398Y-85304285D01*
X61375398Y-85304285D02*
X61232541Y-85375713D01*
X61232541Y-85375713D02*
X61161112Y-85518570D01*
X61161112Y-85518570D02*
X61161112Y-85804285D01*
X61161112Y-85804285D02*
X61232541Y-85947142D01*
X62089684Y-85304285D02*
X62161112Y-85447142D01*
X62161112Y-85447142D02*
X62161112Y-85804285D01*
X62161112Y-85804285D02*
X62089684Y-85947142D01*
X62089684Y-85947142D02*
X61946826Y-86018570D01*
X61946826Y-86018570D02*
X61803969Y-86018570D01*
X61803969Y-86018570D02*
X61661112Y-85947142D01*
X61661112Y-85947142D02*
X61589684Y-85804285D01*
X61589684Y-85804285D02*
X61589684Y-85447142D01*
X61589684Y-85447142D02*
X61518255Y-85304285D01*
X62161112Y-84589999D02*
X61161112Y-84589999D01*
X60661112Y-84589999D02*
X60732541Y-84661427D01*
X60732541Y-84661427D02*
X60803969Y-84589999D01*
X60803969Y-84589999D02*
X60732541Y-84518570D01*
X60732541Y-84518570D02*
X60661112Y-84589999D01*
X60661112Y-84589999D02*
X60803969Y-84589999D01*
X61161112Y-83875713D02*
X62161112Y-83875713D01*
X61303969Y-83875713D02*
X61232541Y-83804284D01*
X61232541Y-83804284D02*
X61161112Y-83661427D01*
X61161112Y-83661427D02*
X61161112Y-83447141D01*
X61161112Y-83447141D02*
X61232541Y-83304284D01*
X61232541Y-83304284D02*
X61375398Y-83232856D01*
X61375398Y-83232856D02*
X62161112Y-83232856D01*
X61375398Y-80875713D02*
X61446826Y-80661427D01*
X61446826Y-80661427D02*
X61518255Y-80589998D01*
X61518255Y-80589998D02*
X61661112Y-80518570D01*
X61661112Y-80518570D02*
X61875398Y-80518570D01*
X61875398Y-80518570D02*
X62018255Y-80589998D01*
X62018255Y-80589998D02*
X62089684Y-80661427D01*
X62089684Y-80661427D02*
X62161112Y-80804284D01*
X62161112Y-80804284D02*
X62161112Y-81375713D01*
X62161112Y-81375713D02*
X60661112Y-81375713D01*
X60661112Y-81375713D02*
X60661112Y-80875713D01*
X60661112Y-80875713D02*
X60732541Y-80732856D01*
X60732541Y-80732856D02*
X60803969Y-80661427D01*
X60803969Y-80661427D02*
X60946826Y-80589998D01*
X60946826Y-80589998D02*
X61089684Y-80589998D01*
X61089684Y-80589998D02*
X61232541Y-80661427D01*
X61232541Y-80661427D02*
X61303969Y-80732856D01*
X61303969Y-80732856D02*
X61375398Y-80875713D01*
X61375398Y-80875713D02*
X61375398Y-81375713D01*
X62161112Y-79661427D02*
X62089684Y-79804284D01*
X62089684Y-79804284D02*
X62018255Y-79875713D01*
X62018255Y-79875713D02*
X61875398Y-79947141D01*
X61875398Y-79947141D02*
X61446826Y-79947141D01*
X61446826Y-79947141D02*
X61303969Y-79875713D01*
X61303969Y-79875713D02*
X61232541Y-79804284D01*
X61232541Y-79804284D02*
X61161112Y-79661427D01*
X61161112Y-79661427D02*
X61161112Y-79447141D01*
X61161112Y-79447141D02*
X61232541Y-79304284D01*
X61232541Y-79304284D02*
X61303969Y-79232856D01*
X61303969Y-79232856D02*
X61446826Y-79161427D01*
X61446826Y-79161427D02*
X61875398Y-79161427D01*
X61875398Y-79161427D02*
X62018255Y-79232856D01*
X62018255Y-79232856D02*
X62089684Y-79304284D01*
X62089684Y-79304284D02*
X62161112Y-79447141D01*
X62161112Y-79447141D02*
X62161112Y-79661427D01*
X62161112Y-77875713D02*
X61375398Y-77875713D01*
X61375398Y-77875713D02*
X61232541Y-77947141D01*
X61232541Y-77947141D02*
X61161112Y-78089998D01*
X61161112Y-78089998D02*
X61161112Y-78375713D01*
X61161112Y-78375713D02*
X61232541Y-78518570D01*
X62089684Y-77875713D02*
X62161112Y-78018570D01*
X62161112Y-78018570D02*
X62161112Y-78375713D01*
X62161112Y-78375713D02*
X62089684Y-78518570D01*
X62089684Y-78518570D02*
X61946826Y-78589998D01*
X61946826Y-78589998D02*
X61803969Y-78589998D01*
X61803969Y-78589998D02*
X61661112Y-78518570D01*
X61661112Y-78518570D02*
X61589684Y-78375713D01*
X61589684Y-78375713D02*
X61589684Y-78018570D01*
X61589684Y-78018570D02*
X61518255Y-77875713D01*
X62161112Y-77161427D02*
X61161112Y-77161427D01*
X61446826Y-77161427D02*
X61303969Y-77089998D01*
X61303969Y-77089998D02*
X61232541Y-77018570D01*
X61232541Y-77018570D02*
X61161112Y-76875712D01*
X61161112Y-76875712D02*
X61161112Y-76732855D01*
X62161112Y-75589999D02*
X60661112Y-75589999D01*
X62089684Y-75589999D02*
X62161112Y-75732856D01*
X62161112Y-75732856D02*
X62161112Y-76018570D01*
X62161112Y-76018570D02*
X62089684Y-76161427D01*
X62089684Y-76161427D02*
X62018255Y-76232856D01*
X62018255Y-76232856D02*
X61875398Y-76304284D01*
X61875398Y-76304284D02*
X61446826Y-76304284D01*
X61446826Y-76304284D02*
X61303969Y-76232856D01*
X61303969Y-76232856D02*
X61232541Y-76161427D01*
X61232541Y-76161427D02*
X61161112Y-76018570D01*
X61161112Y-76018570D02*
X61161112Y-75732856D01*
X61161112Y-75732856D02*
X61232541Y-75589999D01*
X64576028Y-90697142D02*
X64576028Y-91411428D01*
X64576028Y-91411428D02*
X63076028Y-91411428D01*
X63790314Y-90197142D02*
X63790314Y-89697142D01*
X64576028Y-89482856D02*
X64576028Y-90197142D01*
X64576028Y-90197142D02*
X63076028Y-90197142D01*
X63076028Y-90197142D02*
X63076028Y-89482856D01*
X63576028Y-88839999D02*
X64576028Y-88839999D01*
X63718885Y-88839999D02*
X63647457Y-88768570D01*
X63647457Y-88768570D02*
X63576028Y-88625713D01*
X63576028Y-88625713D02*
X63576028Y-88411427D01*
X63576028Y-88411427D02*
X63647457Y-88268570D01*
X63647457Y-88268570D02*
X63790314Y-88197142D01*
X63790314Y-88197142D02*
X64576028Y-88197142D01*
X64504600Y-87554284D02*
X64576028Y-87411427D01*
X64576028Y-87411427D02*
X64576028Y-87125713D01*
X64576028Y-87125713D02*
X64504600Y-86982856D01*
X64504600Y-86982856D02*
X64361742Y-86911427D01*
X64361742Y-86911427D02*
X64290314Y-86911427D01*
X64290314Y-86911427D02*
X64147457Y-86982856D01*
X64147457Y-86982856D02*
X64076028Y-87125713D01*
X64076028Y-87125713D02*
X64076028Y-87339999D01*
X64076028Y-87339999D02*
X64004600Y-87482856D01*
X64004600Y-87482856D02*
X63861742Y-87554284D01*
X63861742Y-87554284D02*
X63790314Y-87554284D01*
X63790314Y-87554284D02*
X63647457Y-87482856D01*
X63647457Y-87482856D02*
X63576028Y-87339999D01*
X63576028Y-87339999D02*
X63576028Y-87125713D01*
X63576028Y-87125713D02*
X63647457Y-86982856D01*
X63790314Y-86268570D02*
X63790314Y-85768570D01*
X64576028Y-85554284D02*
X64576028Y-86268570D01*
X64576028Y-86268570D02*
X63076028Y-86268570D01*
X63076028Y-86268570D02*
X63076028Y-85554284D01*
X63218885Y-83839998D02*
X63147457Y-83768570D01*
X63147457Y-83768570D02*
X63076028Y-83625713D01*
X63076028Y-83625713D02*
X63076028Y-83268570D01*
X63076028Y-83268570D02*
X63147457Y-83125713D01*
X63147457Y-83125713D02*
X63218885Y-83054284D01*
X63218885Y-83054284D02*
X63361742Y-82982855D01*
X63361742Y-82982855D02*
X63504600Y-82982855D01*
X63504600Y-82982855D02*
X63718885Y-83054284D01*
X63718885Y-83054284D02*
X64576028Y-83911427D01*
X64576028Y-83911427D02*
X64576028Y-82982855D01*
X63076028Y-82054284D02*
X63076028Y-81911427D01*
X63076028Y-81911427D02*
X63147457Y-81768570D01*
X63147457Y-81768570D02*
X63218885Y-81697142D01*
X63218885Y-81697142D02*
X63361742Y-81625713D01*
X63361742Y-81625713D02*
X63647457Y-81554284D01*
X63647457Y-81554284D02*
X64004600Y-81554284D01*
X64004600Y-81554284D02*
X64290314Y-81625713D01*
X64290314Y-81625713D02*
X64433171Y-81697142D01*
X64433171Y-81697142D02*
X64504600Y-81768570D01*
X64504600Y-81768570D02*
X64576028Y-81911427D01*
X64576028Y-81911427D02*
X64576028Y-82054284D01*
X64576028Y-82054284D02*
X64504600Y-82197142D01*
X64504600Y-82197142D02*
X64433171Y-82268570D01*
X64433171Y-82268570D02*
X64290314Y-82339999D01*
X64290314Y-82339999D02*
X64004600Y-82411427D01*
X64004600Y-82411427D02*
X63647457Y-82411427D01*
X63647457Y-82411427D02*
X63361742Y-82339999D01*
X63361742Y-82339999D02*
X63218885Y-82268570D01*
X63218885Y-82268570D02*
X63147457Y-82197142D01*
X63147457Y-82197142D02*
X63076028Y-82054284D01*
X63218885Y-80982856D02*
X63147457Y-80911428D01*
X63147457Y-80911428D02*
X63076028Y-80768571D01*
X63076028Y-80768571D02*
X63076028Y-80411428D01*
X63076028Y-80411428D02*
X63147457Y-80268571D01*
X63147457Y-80268571D02*
X63218885Y-80197142D01*
X63218885Y-80197142D02*
X63361742Y-80125713D01*
X63361742Y-80125713D02*
X63504600Y-80125713D01*
X63504600Y-80125713D02*
X63718885Y-80197142D01*
X63718885Y-80197142D02*
X64576028Y-81054285D01*
X64576028Y-81054285D02*
X64576028Y-80125713D01*
X63076028Y-78840000D02*
X63076028Y-79125714D01*
X63076028Y-79125714D02*
X63147457Y-79268571D01*
X63147457Y-79268571D02*
X63218885Y-79340000D01*
X63218885Y-79340000D02*
X63433171Y-79482857D01*
X63433171Y-79482857D02*
X63718885Y-79554285D01*
X63718885Y-79554285D02*
X64290314Y-79554285D01*
X64290314Y-79554285D02*
X64433171Y-79482857D01*
X64433171Y-79482857D02*
X64504600Y-79411428D01*
X64504600Y-79411428D02*
X64576028Y-79268571D01*
X64576028Y-79268571D02*
X64576028Y-78982857D01*
X64576028Y-78982857D02*
X64504600Y-78840000D01*
X64504600Y-78840000D02*
X64433171Y-78768571D01*
X64433171Y-78768571D02*
X64290314Y-78697142D01*
X64290314Y-78697142D02*
X63933171Y-78697142D01*
X63933171Y-78697142D02*
X63790314Y-78768571D01*
X63790314Y-78768571D02*
X63718885Y-78840000D01*
X63718885Y-78840000D02*
X63647457Y-78982857D01*
X63647457Y-78982857D02*
X63647457Y-79268571D01*
X63647457Y-79268571D02*
X63718885Y-79411428D01*
X63718885Y-79411428D02*
X63790314Y-79482857D01*
X63790314Y-79482857D02*
X63933171Y-79554285D01*
D10*
X83126667Y-73368633D02*
X83260000Y-73368633D01*
X83260000Y-73368633D02*
X83326667Y-73401966D01*
X83326667Y-73401966D02*
X83393333Y-73468633D01*
X83393333Y-73468633D02*
X83426667Y-73601966D01*
X83426667Y-73601966D02*
X83426667Y-73835300D01*
X83426667Y-73835300D02*
X83393333Y-73968633D01*
X83393333Y-73968633D02*
X83326667Y-74035300D01*
X83326667Y-74035300D02*
X83260000Y-74068633D01*
X83260000Y-74068633D02*
X83126667Y-74068633D01*
X83126667Y-74068633D02*
X83060000Y-74035300D01*
X83060000Y-74035300D02*
X82993333Y-73968633D01*
X82993333Y-73968633D02*
X82960000Y-73835300D01*
X82960000Y-73835300D02*
X82960000Y-73601966D01*
X82960000Y-73601966D02*
X82993333Y-73468633D01*
X82993333Y-73468633D02*
X83060000Y-73401966D01*
X83060000Y-73401966D02*
X83126667Y-73368633D01*
X83726666Y-73368633D02*
X83726666Y-73935300D01*
X83726666Y-73935300D02*
X83760000Y-74001966D01*
X83760000Y-74001966D02*
X83793333Y-74035300D01*
X83793333Y-74035300D02*
X83860000Y-74068633D01*
X83860000Y-74068633D02*
X83993333Y-74068633D01*
X83993333Y-74068633D02*
X84060000Y-74035300D01*
X84060000Y-74035300D02*
X84093333Y-74001966D01*
X84093333Y-74001966D02*
X84126666Y-73935300D01*
X84126666Y-73935300D02*
X84126666Y-73368633D01*
X84359999Y-73368633D02*
X84759999Y-73368633D01*
X84559999Y-74068633D02*
X84559999Y-73368633D01*
X85293332Y-73601966D02*
X85293332Y-74068633D01*
X85126666Y-73335300D02*
X84959999Y-73835300D01*
X84959999Y-73835300D02*
X85393332Y-73835300D01*
X83460000Y-85318633D02*
X83460000Y-84618633D01*
X83793333Y-85318633D02*
X83793333Y-84618633D01*
X83793333Y-84618633D02*
X84193333Y-85318633D01*
X84193333Y-85318633D02*
X84193333Y-84618633D01*
X84893333Y-85318633D02*
X84493333Y-85318633D01*
X84693333Y-85318633D02*
X84693333Y-84618633D01*
X84693333Y-84618633D02*
X84626666Y-84718633D01*
X84626666Y-84718633D02*
X84560000Y-84785300D01*
X84560000Y-84785300D02*
X84493333Y-84818633D01*
X92466667Y-108118633D02*
X92900000Y-108118633D01*
X92900000Y-108118633D02*
X92666667Y-108385300D01*
X92666667Y-108385300D02*
X92766667Y-108385300D01*
X92766667Y-108385300D02*
X92833333Y-108418633D01*
X92833333Y-108418633D02*
X92866667Y-108451966D01*
X92866667Y-108451966D02*
X92900000Y-108518633D01*
X92900000Y-108518633D02*
X92900000Y-108685300D01*
X92900000Y-108685300D02*
X92866667Y-108751966D01*
X92866667Y-108751966D02*
X92833333Y-108785300D01*
X92833333Y-108785300D02*
X92766667Y-108818633D01*
X92766667Y-108818633D02*
X92566667Y-108818633D01*
X92566667Y-108818633D02*
X92500000Y-108785300D01*
X92500000Y-108785300D02*
X92466667Y-108751966D01*
X93200000Y-108751966D02*
X93233334Y-108785300D01*
X93233334Y-108785300D02*
X93200000Y-108818633D01*
X93200000Y-108818633D02*
X93166667Y-108785300D01*
X93166667Y-108785300D02*
X93200000Y-108751966D01*
X93200000Y-108751966D02*
X93200000Y-108818633D01*
X93466667Y-108118633D02*
X93900000Y-108118633D01*
X93900000Y-108118633D02*
X93666667Y-108385300D01*
X93666667Y-108385300D02*
X93766667Y-108385300D01*
X93766667Y-108385300D02*
X93833333Y-108418633D01*
X93833333Y-108418633D02*
X93866667Y-108451966D01*
X93866667Y-108451966D02*
X93900000Y-108518633D01*
X93900000Y-108518633D02*
X93900000Y-108685300D01*
X93900000Y-108685300D02*
X93866667Y-108751966D01*
X93866667Y-108751966D02*
X93833333Y-108785300D01*
X93833333Y-108785300D02*
X93766667Y-108818633D01*
X93766667Y-108818633D02*
X93566667Y-108818633D01*
X93566667Y-108818633D02*
X93500000Y-108785300D01*
X93500000Y-108785300D02*
X93466667Y-108751966D01*
X94100000Y-108118633D02*
X94333334Y-108818633D01*
X94333334Y-108818633D02*
X94566667Y-108118633D01*
X107670667Y-80931966D02*
X107604000Y-80898633D01*
X107604000Y-80898633D02*
X107504000Y-80898633D01*
X107504000Y-80898633D02*
X107404000Y-80931966D01*
X107404000Y-80931966D02*
X107337334Y-80998633D01*
X107337334Y-80998633D02*
X107304000Y-81065300D01*
X107304000Y-81065300D02*
X107270667Y-81198633D01*
X107270667Y-81198633D02*
X107270667Y-81298633D01*
X107270667Y-81298633D02*
X107304000Y-81431966D01*
X107304000Y-81431966D02*
X107337334Y-81498633D01*
X107337334Y-81498633D02*
X107404000Y-81565300D01*
X107404000Y-81565300D02*
X107504000Y-81598633D01*
X107504000Y-81598633D02*
X107570667Y-81598633D01*
X107570667Y-81598633D02*
X107670667Y-81565300D01*
X107670667Y-81565300D02*
X107704000Y-81531966D01*
X107704000Y-81531966D02*
X107704000Y-81298633D01*
X107704000Y-81298633D02*
X107570667Y-81298633D01*
X108004000Y-81598633D02*
X108004000Y-80898633D01*
X108004000Y-80898633D02*
X108404000Y-81598633D01*
X108404000Y-81598633D02*
X108404000Y-80898633D01*
X108737333Y-81598633D02*
X108737333Y-80898633D01*
X108737333Y-80898633D02*
X108904000Y-80898633D01*
X108904000Y-80898633D02*
X109004000Y-80931966D01*
X109004000Y-80931966D02*
X109070667Y-80998633D01*
X109070667Y-80998633D02*
X109104000Y-81065300D01*
X109104000Y-81065300D02*
X109137333Y-81198633D01*
X109137333Y-81198633D02*
X109137333Y-81298633D01*
X109137333Y-81298633D02*
X109104000Y-81431966D01*
X109104000Y-81431966D02*
X109070667Y-81498633D01*
X109070667Y-81498633D02*
X109004000Y-81565300D01*
X109004000Y-81565300D02*
X108904000Y-81598633D01*
X108904000Y-81598633D02*
X108737333Y-81598633D01*
X92466667Y-101518633D02*
X92900000Y-101518633D01*
X92900000Y-101518633D02*
X92666667Y-101785300D01*
X92666667Y-101785300D02*
X92766667Y-101785300D01*
X92766667Y-101785300D02*
X92833333Y-101818633D01*
X92833333Y-101818633D02*
X92866667Y-101851966D01*
X92866667Y-101851966D02*
X92900000Y-101918633D01*
X92900000Y-101918633D02*
X92900000Y-102085300D01*
X92900000Y-102085300D02*
X92866667Y-102151966D01*
X92866667Y-102151966D02*
X92833333Y-102185300D01*
X92833333Y-102185300D02*
X92766667Y-102218633D01*
X92766667Y-102218633D02*
X92566667Y-102218633D01*
X92566667Y-102218633D02*
X92500000Y-102185300D01*
X92500000Y-102185300D02*
X92466667Y-102151966D01*
X93200000Y-102151966D02*
X93233334Y-102185300D01*
X93233334Y-102185300D02*
X93200000Y-102218633D01*
X93200000Y-102218633D02*
X93166667Y-102185300D01*
X93166667Y-102185300D02*
X93200000Y-102151966D01*
X93200000Y-102151966D02*
X93200000Y-102218633D01*
X93466667Y-101518633D02*
X93900000Y-101518633D01*
X93900000Y-101518633D02*
X93666667Y-101785300D01*
X93666667Y-101785300D02*
X93766667Y-101785300D01*
X93766667Y-101785300D02*
X93833333Y-101818633D01*
X93833333Y-101818633D02*
X93866667Y-101851966D01*
X93866667Y-101851966D02*
X93900000Y-101918633D01*
X93900000Y-101918633D02*
X93900000Y-102085300D01*
X93900000Y-102085300D02*
X93866667Y-102151966D01*
X93866667Y-102151966D02*
X93833333Y-102185300D01*
X93833333Y-102185300D02*
X93766667Y-102218633D01*
X93766667Y-102218633D02*
X93566667Y-102218633D01*
X93566667Y-102218633D02*
X93500000Y-102185300D01*
X93500000Y-102185300D02*
X93466667Y-102151966D01*
X94100000Y-101518633D02*
X94333334Y-102218633D01*
X94333334Y-102218633D02*
X94566667Y-101518633D01*
X92466667Y-94418633D02*
X92900000Y-94418633D01*
X92900000Y-94418633D02*
X92666667Y-94685300D01*
X92666667Y-94685300D02*
X92766667Y-94685300D01*
X92766667Y-94685300D02*
X92833333Y-94718633D01*
X92833333Y-94718633D02*
X92866667Y-94751966D01*
X92866667Y-94751966D02*
X92900000Y-94818633D01*
X92900000Y-94818633D02*
X92900000Y-94985300D01*
X92900000Y-94985300D02*
X92866667Y-95051966D01*
X92866667Y-95051966D02*
X92833333Y-95085300D01*
X92833333Y-95085300D02*
X92766667Y-95118633D01*
X92766667Y-95118633D02*
X92566667Y-95118633D01*
X92566667Y-95118633D02*
X92500000Y-95085300D01*
X92500000Y-95085300D02*
X92466667Y-95051966D01*
X93200000Y-95051966D02*
X93233334Y-95085300D01*
X93233334Y-95085300D02*
X93200000Y-95118633D01*
X93200000Y-95118633D02*
X93166667Y-95085300D01*
X93166667Y-95085300D02*
X93200000Y-95051966D01*
X93200000Y-95051966D02*
X93200000Y-95118633D01*
X93466667Y-94418633D02*
X93900000Y-94418633D01*
X93900000Y-94418633D02*
X93666667Y-94685300D01*
X93666667Y-94685300D02*
X93766667Y-94685300D01*
X93766667Y-94685300D02*
X93833333Y-94718633D01*
X93833333Y-94718633D02*
X93866667Y-94751966D01*
X93866667Y-94751966D02*
X93900000Y-94818633D01*
X93900000Y-94818633D02*
X93900000Y-94985300D01*
X93900000Y-94985300D02*
X93866667Y-95051966D01*
X93866667Y-95051966D02*
X93833333Y-95085300D01*
X93833333Y-95085300D02*
X93766667Y-95118633D01*
X93766667Y-95118633D02*
X93566667Y-95118633D01*
X93566667Y-95118633D02*
X93500000Y-95085300D01*
X93500000Y-95085300D02*
X93466667Y-95051966D01*
X94100000Y-94418633D02*
X94333334Y-95118633D01*
X94333334Y-95118633D02*
X94566667Y-94418633D01*
D11*
X105737866Y-84565904D02*
X105737866Y-83804000D01*
X106118819Y-82804000D02*
X106118819Y-83375428D01*
X106118819Y-83089714D02*
X105118819Y-83089714D01*
X105118819Y-83089714D02*
X105261676Y-83184952D01*
X105261676Y-83184952D02*
X105356914Y-83280190D01*
X105356914Y-83280190D02*
X105404533Y-83375428D01*
X105118819Y-81899238D02*
X105118819Y-82375428D01*
X105118819Y-82375428D02*
X105595009Y-82423047D01*
X105595009Y-82423047D02*
X105547390Y-82375428D01*
X105547390Y-82375428D02*
X105499771Y-82280190D01*
X105499771Y-82280190D02*
X105499771Y-82042095D01*
X105499771Y-82042095D02*
X105547390Y-81946857D01*
X105547390Y-81946857D02*
X105595009Y-81899238D01*
X105595009Y-81899238D02*
X105690247Y-81851619D01*
X105690247Y-81851619D02*
X105928342Y-81851619D01*
X105928342Y-81851619D02*
X106023580Y-81899238D01*
X106023580Y-81899238D02*
X106071200Y-81946857D01*
X106071200Y-81946857D02*
X106118819Y-82042095D01*
X106118819Y-82042095D02*
X106118819Y-82280190D01*
X106118819Y-82280190D02*
X106071200Y-82375428D01*
X106071200Y-82375428D02*
X106023580Y-82423047D01*
X105118819Y-81565904D02*
X106118819Y-81232571D01*
X106118819Y-81232571D02*
X105118819Y-80899238D01*
D10*
X87694633Y-63425333D02*
X87694633Y-63825333D01*
X87694633Y-63625333D02*
X86994633Y-63625333D01*
X86994633Y-63625333D02*
X87094633Y-63692000D01*
X87094633Y-63692000D02*
X87161300Y-63758667D01*
X87161300Y-63758667D02*
X87194633Y-63825333D01*
X86994633Y-62792000D02*
X86994633Y-63125333D01*
X86994633Y-63125333D02*
X87327966Y-63158666D01*
X87327966Y-63158666D02*
X87294633Y-63125333D01*
X87294633Y-63125333D02*
X87261300Y-63058666D01*
X87261300Y-63058666D02*
X87261300Y-62892000D01*
X87261300Y-62892000D02*
X87294633Y-62825333D01*
X87294633Y-62825333D02*
X87327966Y-62792000D01*
X87327966Y-62792000D02*
X87394633Y-62758666D01*
X87394633Y-62758666D02*
X87561300Y-62758666D01*
X87561300Y-62758666D02*
X87627966Y-62792000D01*
X87627966Y-62792000D02*
X87661300Y-62825333D01*
X87661300Y-62825333D02*
X87694633Y-62892000D01*
X87694633Y-62892000D02*
X87694633Y-63058666D01*
X87694633Y-63058666D02*
X87661300Y-63125333D01*
X87661300Y-63125333D02*
X87627966Y-63158666D01*
X86994633Y-62558666D02*
X87694633Y-62325333D01*
X87694633Y-62325333D02*
X86994633Y-62091999D01*
X94068633Y-48833333D02*
X94068633Y-49166666D01*
X94068633Y-49166666D02*
X94401966Y-49199999D01*
X94401966Y-49199999D02*
X94368633Y-49166666D01*
X94368633Y-49166666D02*
X94335300Y-49099999D01*
X94335300Y-49099999D02*
X94335300Y-48933333D01*
X94335300Y-48933333D02*
X94368633Y-48866666D01*
X94368633Y-48866666D02*
X94401966Y-48833333D01*
X94401966Y-48833333D02*
X94468633Y-48799999D01*
X94468633Y-48799999D02*
X94635300Y-48799999D01*
X94635300Y-48799999D02*
X94701966Y-48833333D01*
X94701966Y-48833333D02*
X94735300Y-48866666D01*
X94735300Y-48866666D02*
X94768633Y-48933333D01*
X94768633Y-48933333D02*
X94768633Y-49099999D01*
X94768633Y-49099999D02*
X94735300Y-49166666D01*
X94735300Y-49166666D02*
X94701966Y-49199999D01*
X94068633Y-48599999D02*
X94768633Y-48366666D01*
X94768633Y-48366666D02*
X94068633Y-48133332D01*
D12*
X53832286Y-54681266D02*
X54594191Y-54681266D01*
X54213238Y-55062219D02*
X54213238Y-54300314D01*
X55546571Y-54062219D02*
X55070381Y-54062219D01*
X55070381Y-54062219D02*
X55022762Y-54538409D01*
X55022762Y-54538409D02*
X55070381Y-54490790D01*
X55070381Y-54490790D02*
X55165619Y-54443171D01*
X55165619Y-54443171D02*
X55403714Y-54443171D01*
X55403714Y-54443171D02*
X55498952Y-54490790D01*
X55498952Y-54490790D02*
X55546571Y-54538409D01*
X55546571Y-54538409D02*
X55594190Y-54633647D01*
X55594190Y-54633647D02*
X55594190Y-54871742D01*
X55594190Y-54871742D02*
X55546571Y-54966980D01*
X55546571Y-54966980D02*
X55498952Y-55014600D01*
X55498952Y-55014600D02*
X55403714Y-55062219D01*
X55403714Y-55062219D02*
X55165619Y-55062219D01*
X55165619Y-55062219D02*
X55070381Y-55014600D01*
X55070381Y-55014600D02*
X55022762Y-54966980D01*
X55879905Y-54062219D02*
X56213238Y-55062219D01*
X56213238Y-55062219D02*
X56546571Y-54062219D01*
D10*
X86626667Y-73401966D02*
X86560000Y-73368633D01*
X86560000Y-73368633D02*
X86460000Y-73368633D01*
X86460000Y-73368633D02*
X86360000Y-73401966D01*
X86360000Y-73401966D02*
X86293334Y-73468633D01*
X86293334Y-73468633D02*
X86260000Y-73535300D01*
X86260000Y-73535300D02*
X86226667Y-73668633D01*
X86226667Y-73668633D02*
X86226667Y-73768633D01*
X86226667Y-73768633D02*
X86260000Y-73901966D01*
X86260000Y-73901966D02*
X86293334Y-73968633D01*
X86293334Y-73968633D02*
X86360000Y-74035300D01*
X86360000Y-74035300D02*
X86460000Y-74068633D01*
X86460000Y-74068633D02*
X86526667Y-74068633D01*
X86526667Y-74068633D02*
X86626667Y-74035300D01*
X86626667Y-74035300D02*
X86660000Y-74001966D01*
X86660000Y-74001966D02*
X86660000Y-73768633D01*
X86660000Y-73768633D02*
X86526667Y-73768633D01*
X86960000Y-74068633D02*
X86960000Y-73368633D01*
X86960000Y-73368633D02*
X87360000Y-74068633D01*
X87360000Y-74068633D02*
X87360000Y-73368633D01*
X87693333Y-74068633D02*
X87693333Y-73368633D01*
X87693333Y-73368633D02*
X87860000Y-73368633D01*
X87860000Y-73368633D02*
X87960000Y-73401966D01*
X87960000Y-73401966D02*
X88026667Y-73468633D01*
X88026667Y-73468633D02*
X88060000Y-73535300D01*
X88060000Y-73535300D02*
X88093333Y-73668633D01*
X88093333Y-73668633D02*
X88093333Y-73768633D01*
X88093333Y-73768633D02*
X88060000Y-73901966D01*
X88060000Y-73901966D02*
X88026667Y-73968633D01*
X88026667Y-73968633D02*
X87960000Y-74035300D01*
X87960000Y-74035300D02*
X87860000Y-74068633D01*
X87860000Y-74068633D02*
X87693333Y-74068633D01*
X94101966Y-54433332D02*
X94068633Y-54499999D01*
X94068633Y-54499999D02*
X94068633Y-54599999D01*
X94068633Y-54599999D02*
X94101966Y-54699999D01*
X94101966Y-54699999D02*
X94168633Y-54766666D01*
X94168633Y-54766666D02*
X94235300Y-54799999D01*
X94235300Y-54799999D02*
X94368633Y-54833332D01*
X94368633Y-54833332D02*
X94468633Y-54833332D01*
X94468633Y-54833332D02*
X94601966Y-54799999D01*
X94601966Y-54799999D02*
X94668633Y-54766666D01*
X94668633Y-54766666D02*
X94735300Y-54699999D01*
X94735300Y-54699999D02*
X94768633Y-54599999D01*
X94768633Y-54599999D02*
X94768633Y-54533332D01*
X94768633Y-54533332D02*
X94735300Y-54433332D01*
X94735300Y-54433332D02*
X94701966Y-54399999D01*
X94701966Y-54399999D02*
X94468633Y-54399999D01*
X94468633Y-54399999D02*
X94468633Y-54533332D01*
X94768633Y-54099999D02*
X94068633Y-54099999D01*
X94068633Y-54099999D02*
X94768633Y-53699999D01*
X94768633Y-53699999D02*
X94068633Y-53699999D01*
X94768633Y-53366666D02*
X94068633Y-53366666D01*
X94068633Y-53366666D02*
X94068633Y-53199999D01*
X94068633Y-53199999D02*
X94101966Y-53099999D01*
X94101966Y-53099999D02*
X94168633Y-53033333D01*
X94168633Y-53033333D02*
X94235300Y-52999999D01*
X94235300Y-52999999D02*
X94368633Y-52966666D01*
X94368633Y-52966666D02*
X94468633Y-52966666D01*
X94468633Y-52966666D02*
X94601966Y-52999999D01*
X94601966Y-52999999D02*
X94668633Y-53033333D01*
X94668633Y-53033333D02*
X94735300Y-53099999D01*
X94735300Y-53099999D02*
X94768633Y-53199999D01*
X94768633Y-53199999D02*
X94768633Y-53366666D01*
X87666667Y-108151966D02*
X87600000Y-108118633D01*
X87600000Y-108118633D02*
X87500000Y-108118633D01*
X87500000Y-108118633D02*
X87400000Y-108151966D01*
X87400000Y-108151966D02*
X87333334Y-108218633D01*
X87333334Y-108218633D02*
X87300000Y-108285300D01*
X87300000Y-108285300D02*
X87266667Y-108418633D01*
X87266667Y-108418633D02*
X87266667Y-108518633D01*
X87266667Y-108518633D02*
X87300000Y-108651966D01*
X87300000Y-108651966D02*
X87333334Y-108718633D01*
X87333334Y-108718633D02*
X87400000Y-108785300D01*
X87400000Y-108785300D02*
X87500000Y-108818633D01*
X87500000Y-108818633D02*
X87566667Y-108818633D01*
X87566667Y-108818633D02*
X87666667Y-108785300D01*
X87666667Y-108785300D02*
X87700000Y-108751966D01*
X87700000Y-108751966D02*
X87700000Y-108518633D01*
X87700000Y-108518633D02*
X87566667Y-108518633D01*
X88000000Y-108818633D02*
X88000000Y-108118633D01*
X88000000Y-108118633D02*
X88400000Y-108818633D01*
X88400000Y-108818633D02*
X88400000Y-108118633D01*
X88733333Y-108818633D02*
X88733333Y-108118633D01*
X88733333Y-108118633D02*
X88900000Y-108118633D01*
X88900000Y-108118633D02*
X89000000Y-108151966D01*
X89000000Y-108151966D02*
X89066667Y-108218633D01*
X89066667Y-108218633D02*
X89100000Y-108285300D01*
X89100000Y-108285300D02*
X89133333Y-108418633D01*
X89133333Y-108418633D02*
X89133333Y-108518633D01*
X89133333Y-108518633D02*
X89100000Y-108651966D01*
X89100000Y-108651966D02*
X89066667Y-108718633D01*
X89066667Y-108718633D02*
X89000000Y-108785300D01*
X89000000Y-108785300D02*
X88900000Y-108818633D01*
X88900000Y-108818633D02*
X88733333Y-108818633D01*
X76834633Y-38283333D02*
X76834633Y-37849999D01*
X76834633Y-37849999D02*
X77101300Y-38083333D01*
X77101300Y-38083333D02*
X77101300Y-37983333D01*
X77101300Y-37983333D02*
X77134633Y-37916666D01*
X77134633Y-37916666D02*
X77167966Y-37883333D01*
X77167966Y-37883333D02*
X77234633Y-37849999D01*
X77234633Y-37849999D02*
X77401300Y-37849999D01*
X77401300Y-37849999D02*
X77467966Y-37883333D01*
X77467966Y-37883333D02*
X77501300Y-37916666D01*
X77501300Y-37916666D02*
X77534633Y-37983333D01*
X77534633Y-37983333D02*
X77534633Y-38183333D01*
X77534633Y-38183333D02*
X77501300Y-38249999D01*
X77501300Y-38249999D02*
X77467966Y-38283333D01*
X77467966Y-37549999D02*
X77501300Y-37516666D01*
X77501300Y-37516666D02*
X77534633Y-37549999D01*
X77534633Y-37549999D02*
X77501300Y-37583332D01*
X77501300Y-37583332D02*
X77467966Y-37549999D01*
X77467966Y-37549999D02*
X77534633Y-37549999D01*
X76834633Y-37283333D02*
X76834633Y-36849999D01*
X76834633Y-36849999D02*
X77101300Y-37083333D01*
X77101300Y-37083333D02*
X77101300Y-36983333D01*
X77101300Y-36983333D02*
X77134633Y-36916666D01*
X77134633Y-36916666D02*
X77167966Y-36883333D01*
X77167966Y-36883333D02*
X77234633Y-36849999D01*
X77234633Y-36849999D02*
X77401300Y-36849999D01*
X77401300Y-36849999D02*
X77467966Y-36883333D01*
X77467966Y-36883333D02*
X77501300Y-36916666D01*
X77501300Y-36916666D02*
X77534633Y-36983333D01*
X77534633Y-36983333D02*
X77534633Y-37183333D01*
X77534633Y-37183333D02*
X77501300Y-37249999D01*
X77501300Y-37249999D02*
X77467966Y-37283333D01*
X76834633Y-36649999D02*
X77534633Y-36416666D01*
X77534633Y-36416666D02*
X76834633Y-36183332D01*
X86376667Y-84651966D02*
X86310000Y-84618633D01*
X86310000Y-84618633D02*
X86210000Y-84618633D01*
X86210000Y-84618633D02*
X86110000Y-84651966D01*
X86110000Y-84651966D02*
X86043334Y-84718633D01*
X86043334Y-84718633D02*
X86010000Y-84785300D01*
X86010000Y-84785300D02*
X85976667Y-84918633D01*
X85976667Y-84918633D02*
X85976667Y-85018633D01*
X85976667Y-85018633D02*
X86010000Y-85151966D01*
X86010000Y-85151966D02*
X86043334Y-85218633D01*
X86043334Y-85218633D02*
X86110000Y-85285300D01*
X86110000Y-85285300D02*
X86210000Y-85318633D01*
X86210000Y-85318633D02*
X86276667Y-85318633D01*
X86276667Y-85318633D02*
X86376667Y-85285300D01*
X86376667Y-85285300D02*
X86410000Y-85251966D01*
X86410000Y-85251966D02*
X86410000Y-85018633D01*
X86410000Y-85018633D02*
X86276667Y-85018633D01*
X86710000Y-85318633D02*
X86710000Y-84618633D01*
X86710000Y-84618633D02*
X87110000Y-85318633D01*
X87110000Y-85318633D02*
X87110000Y-84618633D01*
X87443333Y-85318633D02*
X87443333Y-84618633D01*
X87443333Y-84618633D02*
X87610000Y-84618633D01*
X87610000Y-84618633D02*
X87710000Y-84651966D01*
X87710000Y-84651966D02*
X87776667Y-84718633D01*
X87776667Y-84718633D02*
X87810000Y-84785300D01*
X87810000Y-84785300D02*
X87843333Y-84918633D01*
X87843333Y-84918633D02*
X87843333Y-85018633D01*
X87843333Y-85018633D02*
X87810000Y-85151966D01*
X87810000Y-85151966D02*
X87776667Y-85218633D01*
X87776667Y-85218633D02*
X87710000Y-85285300D01*
X87710000Y-85285300D02*
X87610000Y-85318633D01*
X87610000Y-85318633D02*
X87443333Y-85318633D01*
X75666667Y-87401966D02*
X75600000Y-87368633D01*
X75600000Y-87368633D02*
X75500000Y-87368633D01*
X75500000Y-87368633D02*
X75400000Y-87401966D01*
X75400000Y-87401966D02*
X75333334Y-87468633D01*
X75333334Y-87468633D02*
X75300000Y-87535300D01*
X75300000Y-87535300D02*
X75266667Y-87668633D01*
X75266667Y-87668633D02*
X75266667Y-87768633D01*
X75266667Y-87768633D02*
X75300000Y-87901966D01*
X75300000Y-87901966D02*
X75333334Y-87968633D01*
X75333334Y-87968633D02*
X75400000Y-88035300D01*
X75400000Y-88035300D02*
X75500000Y-88068633D01*
X75500000Y-88068633D02*
X75566667Y-88068633D01*
X75566667Y-88068633D02*
X75666667Y-88035300D01*
X75666667Y-88035300D02*
X75700000Y-88001966D01*
X75700000Y-88001966D02*
X75700000Y-87768633D01*
X75700000Y-87768633D02*
X75566667Y-87768633D01*
X76000000Y-88068633D02*
X76000000Y-87368633D01*
X76000000Y-87368633D02*
X76400000Y-88068633D01*
X76400000Y-88068633D02*
X76400000Y-87368633D01*
X76733333Y-88068633D02*
X76733333Y-87368633D01*
X76733333Y-87368633D02*
X76900000Y-87368633D01*
X76900000Y-87368633D02*
X77000000Y-87401966D01*
X77000000Y-87401966D02*
X77066667Y-87468633D01*
X77066667Y-87468633D02*
X77100000Y-87535300D01*
X77100000Y-87535300D02*
X77133333Y-87668633D01*
X77133333Y-87668633D02*
X77133333Y-87768633D01*
X77133333Y-87768633D02*
X77100000Y-87901966D01*
X77100000Y-87901966D02*
X77066667Y-87968633D01*
X77066667Y-87968633D02*
X77000000Y-88035300D01*
X77000000Y-88035300D02*
X76900000Y-88068633D01*
X76900000Y-88068633D02*
X76733333Y-88068633D01*
X75876667Y-76151966D02*
X75810000Y-76118633D01*
X75810000Y-76118633D02*
X75710000Y-76118633D01*
X75710000Y-76118633D02*
X75610000Y-76151966D01*
X75610000Y-76151966D02*
X75543334Y-76218633D01*
X75543334Y-76218633D02*
X75510000Y-76285300D01*
X75510000Y-76285300D02*
X75476667Y-76418633D01*
X75476667Y-76418633D02*
X75476667Y-76518633D01*
X75476667Y-76518633D02*
X75510000Y-76651966D01*
X75510000Y-76651966D02*
X75543334Y-76718633D01*
X75543334Y-76718633D02*
X75610000Y-76785300D01*
X75610000Y-76785300D02*
X75710000Y-76818633D01*
X75710000Y-76818633D02*
X75776667Y-76818633D01*
X75776667Y-76818633D02*
X75876667Y-76785300D01*
X75876667Y-76785300D02*
X75910000Y-76751966D01*
X75910000Y-76751966D02*
X75910000Y-76518633D01*
X75910000Y-76518633D02*
X75776667Y-76518633D01*
X76210000Y-76818633D02*
X76210000Y-76118633D01*
X76210000Y-76118633D02*
X76610000Y-76818633D01*
X76610000Y-76818633D02*
X76610000Y-76118633D01*
X76943333Y-76818633D02*
X76943333Y-76118633D01*
X76943333Y-76118633D02*
X77110000Y-76118633D01*
X77110000Y-76118633D02*
X77210000Y-76151966D01*
X77210000Y-76151966D02*
X77276667Y-76218633D01*
X77276667Y-76218633D02*
X77310000Y-76285300D01*
X77310000Y-76285300D02*
X77343333Y-76418633D01*
X77343333Y-76418633D02*
X77343333Y-76518633D01*
X77343333Y-76518633D02*
X77310000Y-76651966D01*
X77310000Y-76651966D02*
X77276667Y-76718633D01*
X77276667Y-76718633D02*
X77210000Y-76785300D01*
X77210000Y-76785300D02*
X77110000Y-76818633D01*
X77110000Y-76818633D02*
X76943333Y-76818633D01*
X87466667Y-94451966D02*
X87400000Y-94418633D01*
X87400000Y-94418633D02*
X87300000Y-94418633D01*
X87300000Y-94418633D02*
X87200000Y-94451966D01*
X87200000Y-94451966D02*
X87133334Y-94518633D01*
X87133334Y-94518633D02*
X87100000Y-94585300D01*
X87100000Y-94585300D02*
X87066667Y-94718633D01*
X87066667Y-94718633D02*
X87066667Y-94818633D01*
X87066667Y-94818633D02*
X87100000Y-94951966D01*
X87100000Y-94951966D02*
X87133334Y-95018633D01*
X87133334Y-95018633D02*
X87200000Y-95085300D01*
X87200000Y-95085300D02*
X87300000Y-95118633D01*
X87300000Y-95118633D02*
X87366667Y-95118633D01*
X87366667Y-95118633D02*
X87466667Y-95085300D01*
X87466667Y-95085300D02*
X87500000Y-95051966D01*
X87500000Y-95051966D02*
X87500000Y-94818633D01*
X87500000Y-94818633D02*
X87366667Y-94818633D01*
X87800000Y-95118633D02*
X87800000Y-94418633D01*
X87800000Y-94418633D02*
X88200000Y-95118633D01*
X88200000Y-95118633D02*
X88200000Y-94418633D01*
X88533333Y-95118633D02*
X88533333Y-94418633D01*
X88533333Y-94418633D02*
X88700000Y-94418633D01*
X88700000Y-94418633D02*
X88800000Y-94451966D01*
X88800000Y-94451966D02*
X88866667Y-94518633D01*
X88866667Y-94518633D02*
X88900000Y-94585300D01*
X88900000Y-94585300D02*
X88933333Y-94718633D01*
X88933333Y-94718633D02*
X88933333Y-94818633D01*
X88933333Y-94818633D02*
X88900000Y-94951966D01*
X88900000Y-94951966D02*
X88866667Y-95018633D01*
X88866667Y-95018633D02*
X88800000Y-95085300D01*
X88800000Y-95085300D02*
X88700000Y-95118633D01*
X88700000Y-95118633D02*
X88533333Y-95118633D01*
D11*
X82580952Y-92707200D02*
X82723809Y-92754819D01*
X82723809Y-92754819D02*
X82961904Y-92754819D01*
X82961904Y-92754819D02*
X83057142Y-92707200D01*
X83057142Y-92707200D02*
X83104761Y-92659580D01*
X83104761Y-92659580D02*
X83152380Y-92564342D01*
X83152380Y-92564342D02*
X83152380Y-92469104D01*
X83152380Y-92469104D02*
X83104761Y-92373866D01*
X83104761Y-92373866D02*
X83057142Y-92326247D01*
X83057142Y-92326247D02*
X82961904Y-92278628D01*
X82961904Y-92278628D02*
X82771428Y-92231009D01*
X82771428Y-92231009D02*
X82676190Y-92183390D01*
X82676190Y-92183390D02*
X82628571Y-92135771D01*
X82628571Y-92135771D02*
X82580952Y-92040533D01*
X82580952Y-92040533D02*
X82580952Y-91945295D01*
X82580952Y-91945295D02*
X82628571Y-91850057D01*
X82628571Y-91850057D02*
X82676190Y-91802438D01*
X82676190Y-91802438D02*
X82771428Y-91754819D01*
X82771428Y-91754819D02*
X83009523Y-91754819D01*
X83009523Y-91754819D02*
X83152380Y-91802438D01*
X83580952Y-92231009D02*
X83914285Y-92231009D01*
X84057142Y-92754819D02*
X83580952Y-92754819D01*
X83580952Y-92754819D02*
X83580952Y-91754819D01*
X83580952Y-91754819D02*
X84057142Y-91754819D01*
X84961904Y-92754819D02*
X84485714Y-92754819D01*
X84485714Y-92754819D02*
X84485714Y-91754819D01*
X85819047Y-92754819D02*
X85247619Y-92754819D01*
X85533333Y-92754819D02*
X85533333Y-91754819D01*
X85533333Y-91754819D02*
X85438095Y-91897676D01*
X85438095Y-91897676D02*
X85342857Y-91992914D01*
X85342857Y-91992914D02*
X85247619Y-92040533D01*
D10*
X72376667Y-81868633D02*
X72510000Y-81868633D01*
X72510000Y-81868633D02*
X72576667Y-81901966D01*
X72576667Y-81901966D02*
X72643333Y-81968633D01*
X72643333Y-81968633D02*
X72676667Y-82101966D01*
X72676667Y-82101966D02*
X72676667Y-82335300D01*
X72676667Y-82335300D02*
X72643333Y-82468633D01*
X72643333Y-82468633D02*
X72576667Y-82535300D01*
X72576667Y-82535300D02*
X72510000Y-82568633D01*
X72510000Y-82568633D02*
X72376667Y-82568633D01*
X72376667Y-82568633D02*
X72310000Y-82535300D01*
X72310000Y-82535300D02*
X72243333Y-82468633D01*
X72243333Y-82468633D02*
X72210000Y-82335300D01*
X72210000Y-82335300D02*
X72210000Y-82101966D01*
X72210000Y-82101966D02*
X72243333Y-81968633D01*
X72243333Y-81968633D02*
X72310000Y-81901966D01*
X72310000Y-81901966D02*
X72376667Y-81868633D01*
X72976666Y-81868633D02*
X72976666Y-82435300D01*
X72976666Y-82435300D02*
X73010000Y-82501966D01*
X73010000Y-82501966D02*
X73043333Y-82535300D01*
X73043333Y-82535300D02*
X73110000Y-82568633D01*
X73110000Y-82568633D02*
X73243333Y-82568633D01*
X73243333Y-82568633D02*
X73310000Y-82535300D01*
X73310000Y-82535300D02*
X73343333Y-82501966D01*
X73343333Y-82501966D02*
X73376666Y-82435300D01*
X73376666Y-82435300D02*
X73376666Y-81868633D01*
X73609999Y-81868633D02*
X74009999Y-81868633D01*
X73809999Y-82568633D02*
X73809999Y-81868633D01*
X74609999Y-82568633D02*
X74209999Y-82568633D01*
X74409999Y-82568633D02*
X74409999Y-81868633D01*
X74409999Y-81868633D02*
X74343332Y-81968633D01*
X74343332Y-81968633D02*
X74276666Y-82035300D01*
X74276666Y-82035300D02*
X74209999Y-82068633D01*
D11*
X60204819Y-35551904D02*
X59204819Y-35551904D01*
X59204819Y-35551904D02*
X59919104Y-35218571D01*
X59919104Y-35218571D02*
X59204819Y-34885238D01*
X59204819Y-34885238D02*
X60204819Y-34885238D01*
X59538152Y-33980476D02*
X60204819Y-33980476D01*
X59157200Y-34218571D02*
X59871485Y-34456666D01*
X59871485Y-34456666D02*
X59871485Y-33837619D01*
X60204819Y-33028095D02*
X59681009Y-33028095D01*
X59681009Y-33028095D02*
X59585771Y-33075714D01*
X59585771Y-33075714D02*
X59538152Y-33170952D01*
X59538152Y-33170952D02*
X59538152Y-33361428D01*
X59538152Y-33361428D02*
X59585771Y-33456666D01*
X60157200Y-33028095D02*
X60204819Y-33123333D01*
X60204819Y-33123333D02*
X60204819Y-33361428D01*
X60204819Y-33361428D02*
X60157200Y-33456666D01*
X60157200Y-33456666D02*
X60061961Y-33504285D01*
X60061961Y-33504285D02*
X59966723Y-33504285D01*
X59966723Y-33504285D02*
X59871485Y-33456666D01*
X59871485Y-33456666D02*
X59823866Y-33361428D01*
X59823866Y-33361428D02*
X59823866Y-33123333D01*
X59823866Y-33123333D02*
X59776247Y-33028095D01*
X99759580Y-63166666D02*
X99807200Y-63214285D01*
X99807200Y-63214285D02*
X99854819Y-63357142D01*
X99854819Y-63357142D02*
X99854819Y-63452380D01*
X99854819Y-63452380D02*
X99807200Y-63595237D01*
X99807200Y-63595237D02*
X99711961Y-63690475D01*
X99711961Y-63690475D02*
X99616723Y-63738094D01*
X99616723Y-63738094D02*
X99426247Y-63785713D01*
X99426247Y-63785713D02*
X99283390Y-63785713D01*
X99283390Y-63785713D02*
X99092914Y-63738094D01*
X99092914Y-63738094D02*
X98997676Y-63690475D01*
X98997676Y-63690475D02*
X98902438Y-63595237D01*
X98902438Y-63595237D02*
X98854819Y-63452380D01*
X98854819Y-63452380D02*
X98854819Y-63357142D01*
X98854819Y-63357142D02*
X98902438Y-63214285D01*
X98902438Y-63214285D02*
X98950057Y-63166666D01*
X99854819Y-62214285D02*
X99854819Y-62785713D01*
X99854819Y-62499999D02*
X98854819Y-62499999D01*
X98854819Y-62499999D02*
X98997676Y-62595237D01*
X98997676Y-62595237D02*
X99092914Y-62690475D01*
X99092914Y-62690475D02*
X99140533Y-62785713D01*
X89114819Y-71583333D02*
X89829104Y-71583333D01*
X89829104Y-71583333D02*
X89971961Y-71630952D01*
X89971961Y-71630952D02*
X90067200Y-71726190D01*
X90067200Y-71726190D02*
X90114819Y-71869047D01*
X90114819Y-71869047D02*
X90114819Y-71964285D01*
X89114819Y-70678571D02*
X89114819Y-70869047D01*
X89114819Y-70869047D02*
X89162438Y-70964285D01*
X89162438Y-70964285D02*
X89210057Y-71011904D01*
X89210057Y-71011904D02*
X89352914Y-71107142D01*
X89352914Y-71107142D02*
X89543390Y-71154761D01*
X89543390Y-71154761D02*
X89924342Y-71154761D01*
X89924342Y-71154761D02*
X90019580Y-71107142D01*
X90019580Y-71107142D02*
X90067200Y-71059523D01*
X90067200Y-71059523D02*
X90114819Y-70964285D01*
X90114819Y-70964285D02*
X90114819Y-70773809D01*
X90114819Y-70773809D02*
X90067200Y-70678571D01*
X90067200Y-70678571D02*
X90019580Y-70630952D01*
X90019580Y-70630952D02*
X89924342Y-70583333D01*
X89924342Y-70583333D02*
X89686247Y-70583333D01*
X89686247Y-70583333D02*
X89591009Y-70630952D01*
X89591009Y-70630952D02*
X89543390Y-70678571D01*
X89543390Y-70678571D02*
X89495771Y-70773809D01*
X89495771Y-70773809D02*
X89495771Y-70964285D01*
X89495771Y-70964285D02*
X89543390Y-71059523D01*
X89543390Y-71059523D02*
X89591009Y-71107142D01*
X89591009Y-71107142D02*
X89686247Y-71154761D01*
X110174819Y-71707333D02*
X110889104Y-71707333D01*
X110889104Y-71707333D02*
X111031961Y-71754952D01*
X111031961Y-71754952D02*
X111127200Y-71850190D01*
X111127200Y-71850190D02*
X111174819Y-71993047D01*
X111174819Y-71993047D02*
X111174819Y-72088285D01*
X110174819Y-71326380D02*
X110174819Y-70659714D01*
X110174819Y-70659714D02*
X111174819Y-71088285D01*
X105769580Y-44616666D02*
X105817200Y-44664285D01*
X105817200Y-44664285D02*
X105864819Y-44807142D01*
X105864819Y-44807142D02*
X105864819Y-44902380D01*
X105864819Y-44902380D02*
X105817200Y-45045237D01*
X105817200Y-45045237D02*
X105721961Y-45140475D01*
X105721961Y-45140475D02*
X105626723Y-45188094D01*
X105626723Y-45188094D02*
X105436247Y-45235713D01*
X105436247Y-45235713D02*
X105293390Y-45235713D01*
X105293390Y-45235713D02*
X105102914Y-45188094D01*
X105102914Y-45188094D02*
X105007676Y-45140475D01*
X105007676Y-45140475D02*
X104912438Y-45045237D01*
X104912438Y-45045237D02*
X104864819Y-44902380D01*
X104864819Y-44902380D02*
X104864819Y-44807142D01*
X104864819Y-44807142D02*
X104912438Y-44664285D01*
X104912438Y-44664285D02*
X104960057Y-44616666D01*
X104864819Y-44283332D02*
X104864819Y-43664285D01*
X104864819Y-43664285D02*
X105245771Y-43997618D01*
X105245771Y-43997618D02*
X105245771Y-43854761D01*
X105245771Y-43854761D02*
X105293390Y-43759523D01*
X105293390Y-43759523D02*
X105341009Y-43711904D01*
X105341009Y-43711904D02*
X105436247Y-43664285D01*
X105436247Y-43664285D02*
X105674342Y-43664285D01*
X105674342Y-43664285D02*
X105769580Y-43711904D01*
X105769580Y-43711904D02*
X105817200Y-43759523D01*
X105817200Y-43759523D02*
X105864819Y-43854761D01*
X105864819Y-43854761D02*
X105864819Y-44140475D01*
X105864819Y-44140475D02*
X105817200Y-44235713D01*
X105817200Y-44235713D02*
X105769580Y-44283332D01*
X78364819Y-80083333D02*
X79079104Y-80083333D01*
X79079104Y-80083333D02*
X79221961Y-80130952D01*
X79221961Y-80130952D02*
X79317200Y-80226190D01*
X79317200Y-80226190D02*
X79364819Y-80369047D01*
X79364819Y-80369047D02*
X79364819Y-80464285D01*
X78364819Y-79702380D02*
X78364819Y-79083333D01*
X78364819Y-79083333D02*
X78745771Y-79416666D01*
X78745771Y-79416666D02*
X78745771Y-79273809D01*
X78745771Y-79273809D02*
X78793390Y-79178571D01*
X78793390Y-79178571D02*
X78841009Y-79130952D01*
X78841009Y-79130952D02*
X78936247Y-79083333D01*
X78936247Y-79083333D02*
X79174342Y-79083333D01*
X79174342Y-79083333D02*
X79269580Y-79130952D01*
X79269580Y-79130952D02*
X79317200Y-79178571D01*
X79317200Y-79178571D02*
X79364819Y-79273809D01*
X79364819Y-79273809D02*
X79364819Y-79559523D01*
X79364819Y-79559523D02*
X79317200Y-79654761D01*
X79317200Y-79654761D02*
X79269580Y-79702380D01*
X110174819Y-78819333D02*
X110889104Y-78819333D01*
X110889104Y-78819333D02*
X111031961Y-78866952D01*
X111031961Y-78866952D02*
X111127200Y-78962190D01*
X111127200Y-78962190D02*
X111174819Y-79105047D01*
X111174819Y-79105047D02*
X111174819Y-79200285D01*
X110603390Y-78200285D02*
X110555771Y-78295523D01*
X110555771Y-78295523D02*
X110508152Y-78343142D01*
X110508152Y-78343142D02*
X110412914Y-78390761D01*
X110412914Y-78390761D02*
X110365295Y-78390761D01*
X110365295Y-78390761D02*
X110270057Y-78343142D01*
X110270057Y-78343142D02*
X110222438Y-78295523D01*
X110222438Y-78295523D02*
X110174819Y-78200285D01*
X110174819Y-78200285D02*
X110174819Y-78009809D01*
X110174819Y-78009809D02*
X110222438Y-77914571D01*
X110222438Y-77914571D02*
X110270057Y-77866952D01*
X110270057Y-77866952D02*
X110365295Y-77819333D01*
X110365295Y-77819333D02*
X110412914Y-77819333D01*
X110412914Y-77819333D02*
X110508152Y-77866952D01*
X110508152Y-77866952D02*
X110555771Y-77914571D01*
X110555771Y-77914571D02*
X110603390Y-78009809D01*
X110603390Y-78009809D02*
X110603390Y-78200285D01*
X110603390Y-78200285D02*
X110651009Y-78295523D01*
X110651009Y-78295523D02*
X110698628Y-78343142D01*
X110698628Y-78343142D02*
X110793866Y-78390761D01*
X110793866Y-78390761D02*
X110984342Y-78390761D01*
X110984342Y-78390761D02*
X111079580Y-78343142D01*
X111079580Y-78343142D02*
X111127200Y-78295523D01*
X111127200Y-78295523D02*
X111174819Y-78200285D01*
X111174819Y-78200285D02*
X111174819Y-78009809D01*
X111174819Y-78009809D02*
X111127200Y-77914571D01*
X111127200Y-77914571D02*
X111079580Y-77866952D01*
X111079580Y-77866952D02*
X110984342Y-77819333D01*
X110984342Y-77819333D02*
X110793866Y-77819333D01*
X110793866Y-77819333D02*
X110698628Y-77866952D01*
X110698628Y-77866952D02*
X110651009Y-77914571D01*
X110651009Y-77914571D02*
X110603390Y-78009809D01*
X93069580Y-36996666D02*
X93117200Y-37044285D01*
X93117200Y-37044285D02*
X93164819Y-37187142D01*
X93164819Y-37187142D02*
X93164819Y-37282380D01*
X93164819Y-37282380D02*
X93117200Y-37425237D01*
X93117200Y-37425237D02*
X93021961Y-37520475D01*
X93021961Y-37520475D02*
X92926723Y-37568094D01*
X92926723Y-37568094D02*
X92736247Y-37615713D01*
X92736247Y-37615713D02*
X92593390Y-37615713D01*
X92593390Y-37615713D02*
X92402914Y-37568094D01*
X92402914Y-37568094D02*
X92307676Y-37520475D01*
X92307676Y-37520475D02*
X92212438Y-37425237D01*
X92212438Y-37425237D02*
X92164819Y-37282380D01*
X92164819Y-37282380D02*
X92164819Y-37187142D01*
X92164819Y-37187142D02*
X92212438Y-37044285D01*
X92212438Y-37044285D02*
X92260057Y-36996666D01*
X92164819Y-36663332D02*
X92164819Y-35996666D01*
X92164819Y-35996666D02*
X93164819Y-36425237D01*
X73054819Y-95666666D02*
X72578628Y-95999999D01*
X73054819Y-96238094D02*
X72054819Y-96238094D01*
X72054819Y-96238094D02*
X72054819Y-95857142D01*
X72054819Y-95857142D02*
X72102438Y-95761904D01*
X72102438Y-95761904D02*
X72150057Y-95714285D01*
X72150057Y-95714285D02*
X72245295Y-95666666D01*
X72245295Y-95666666D02*
X72388152Y-95666666D01*
X72388152Y-95666666D02*
X72483390Y-95714285D01*
X72483390Y-95714285D02*
X72531009Y-95761904D01*
X72531009Y-95761904D02*
X72578628Y-95857142D01*
X72578628Y-95857142D02*
X72578628Y-96238094D01*
X72054819Y-95333332D02*
X72054819Y-94714285D01*
X72054819Y-94714285D02*
X72435771Y-95047618D01*
X72435771Y-95047618D02*
X72435771Y-94904761D01*
X72435771Y-94904761D02*
X72483390Y-94809523D01*
X72483390Y-94809523D02*
X72531009Y-94761904D01*
X72531009Y-94761904D02*
X72626247Y-94714285D01*
X72626247Y-94714285D02*
X72864342Y-94714285D01*
X72864342Y-94714285D02*
X72959580Y-94761904D01*
X72959580Y-94761904D02*
X73007200Y-94809523D01*
X73007200Y-94809523D02*
X73054819Y-94904761D01*
X73054819Y-94904761D02*
X73054819Y-95190475D01*
X73054819Y-95190475D02*
X73007200Y-95285713D01*
X73007200Y-95285713D02*
X72959580Y-95333332D01*
X95404819Y-92633333D02*
X96119104Y-92633333D01*
X96119104Y-92633333D02*
X96261961Y-92680952D01*
X96261961Y-92680952D02*
X96357200Y-92776190D01*
X96357200Y-92776190D02*
X96404819Y-92919047D01*
X96404819Y-92919047D02*
X96404819Y-93014285D01*
X96404819Y-92109523D02*
X96404819Y-91919047D01*
X96404819Y-91919047D02*
X96357200Y-91823809D01*
X96357200Y-91823809D02*
X96309580Y-91776190D01*
X96309580Y-91776190D02*
X96166723Y-91680952D01*
X96166723Y-91680952D02*
X95976247Y-91633333D01*
X95976247Y-91633333D02*
X95595295Y-91633333D01*
X95595295Y-91633333D02*
X95500057Y-91680952D01*
X95500057Y-91680952D02*
X95452438Y-91728571D01*
X95452438Y-91728571D02*
X95404819Y-91823809D01*
X95404819Y-91823809D02*
X95404819Y-92014285D01*
X95404819Y-92014285D02*
X95452438Y-92109523D01*
X95452438Y-92109523D02*
X95500057Y-92157142D01*
X95500057Y-92157142D02*
X95595295Y-92204761D01*
X95595295Y-92204761D02*
X95833390Y-92204761D01*
X95833390Y-92204761D02*
X95928628Y-92157142D01*
X95928628Y-92157142D02*
X95976247Y-92109523D01*
X95976247Y-92109523D02*
X96023866Y-92014285D01*
X96023866Y-92014285D02*
X96023866Y-91823809D01*
X96023866Y-91823809D02*
X95976247Y-91728571D01*
X95976247Y-91728571D02*
X95928628Y-91680952D01*
X95928628Y-91680952D02*
X95833390Y-91633333D01*
X89114819Y-82833333D02*
X89829104Y-82833333D01*
X89829104Y-82833333D02*
X89971961Y-82880952D01*
X89971961Y-82880952D02*
X90067200Y-82976190D01*
X90067200Y-82976190D02*
X90114819Y-83119047D01*
X90114819Y-83119047D02*
X90114819Y-83214285D01*
X90114819Y-81833333D02*
X90114819Y-82404761D01*
X90114819Y-82119047D02*
X89114819Y-82119047D01*
X89114819Y-82119047D02*
X89257676Y-82214285D01*
X89257676Y-82214285D02*
X89352914Y-82309523D01*
X89352914Y-82309523D02*
X89400533Y-82404761D01*
X97133580Y-84875666D02*
X97181200Y-84923285D01*
X97181200Y-84923285D02*
X97228819Y-85066142D01*
X97228819Y-85066142D02*
X97228819Y-85161380D01*
X97228819Y-85161380D02*
X97181200Y-85304237D01*
X97181200Y-85304237D02*
X97085961Y-85399475D01*
X97085961Y-85399475D02*
X96990723Y-85447094D01*
X96990723Y-85447094D02*
X96800247Y-85494713D01*
X96800247Y-85494713D02*
X96657390Y-85494713D01*
X96657390Y-85494713D02*
X96466914Y-85447094D01*
X96466914Y-85447094D02*
X96371676Y-85399475D01*
X96371676Y-85399475D02*
X96276438Y-85304237D01*
X96276438Y-85304237D02*
X96228819Y-85161380D01*
X96228819Y-85161380D02*
X96228819Y-85066142D01*
X96228819Y-85066142D02*
X96276438Y-84923285D01*
X96276438Y-84923285D02*
X96324057Y-84875666D01*
X96324057Y-84494713D02*
X96276438Y-84447094D01*
X96276438Y-84447094D02*
X96228819Y-84351856D01*
X96228819Y-84351856D02*
X96228819Y-84113761D01*
X96228819Y-84113761D02*
X96276438Y-84018523D01*
X96276438Y-84018523D02*
X96324057Y-83970904D01*
X96324057Y-83970904D02*
X96419295Y-83923285D01*
X96419295Y-83923285D02*
X96514533Y-83923285D01*
X96514533Y-83923285D02*
X96657390Y-83970904D01*
X96657390Y-83970904D02*
X97228819Y-84542332D01*
X97228819Y-84542332D02*
X97228819Y-83923285D01*
X78364819Y-85583333D02*
X79079104Y-85583333D01*
X79079104Y-85583333D02*
X79221961Y-85630952D01*
X79221961Y-85630952D02*
X79317200Y-85726190D01*
X79317200Y-85726190D02*
X79364819Y-85869047D01*
X79364819Y-85869047D02*
X79364819Y-85964285D01*
X78460057Y-85154761D02*
X78412438Y-85107142D01*
X78412438Y-85107142D02*
X78364819Y-85011904D01*
X78364819Y-85011904D02*
X78364819Y-84773809D01*
X78364819Y-84773809D02*
X78412438Y-84678571D01*
X78412438Y-84678571D02*
X78460057Y-84630952D01*
X78460057Y-84630952D02*
X78555295Y-84583333D01*
X78555295Y-84583333D02*
X78650533Y-84583333D01*
X78650533Y-84583333D02*
X78793390Y-84630952D01*
X78793390Y-84630952D02*
X79364819Y-85202380D01*
X79364819Y-85202380D02*
X79364819Y-84583333D01*
X104499580Y-35416666D02*
X104547200Y-35464285D01*
X104547200Y-35464285D02*
X104594819Y-35607142D01*
X104594819Y-35607142D02*
X104594819Y-35702380D01*
X104594819Y-35702380D02*
X104547200Y-35845237D01*
X104547200Y-35845237D02*
X104451961Y-35940475D01*
X104451961Y-35940475D02*
X104356723Y-35988094D01*
X104356723Y-35988094D02*
X104166247Y-36035713D01*
X104166247Y-36035713D02*
X104023390Y-36035713D01*
X104023390Y-36035713D02*
X103832914Y-35988094D01*
X103832914Y-35988094D02*
X103737676Y-35940475D01*
X103737676Y-35940475D02*
X103642438Y-35845237D01*
X103642438Y-35845237D02*
X103594819Y-35702380D01*
X103594819Y-35702380D02*
X103594819Y-35607142D01*
X103594819Y-35607142D02*
X103642438Y-35464285D01*
X103642438Y-35464285D02*
X103690057Y-35416666D01*
X103928152Y-34559523D02*
X104594819Y-34559523D01*
X103547200Y-34797618D02*
X104261485Y-35035713D01*
X104261485Y-35035713D02*
X104261485Y-34416666D01*
X93604819Y-54195238D02*
X93128628Y-54528571D01*
X93604819Y-54766666D02*
X92604819Y-54766666D01*
X92604819Y-54766666D02*
X92604819Y-54385714D01*
X92604819Y-54385714D02*
X92652438Y-54290476D01*
X92652438Y-54290476D02*
X92700057Y-54242857D01*
X92700057Y-54242857D02*
X92795295Y-54195238D01*
X92795295Y-54195238D02*
X92938152Y-54195238D01*
X92938152Y-54195238D02*
X93033390Y-54242857D01*
X93033390Y-54242857D02*
X93081009Y-54290476D01*
X93081009Y-54290476D02*
X93128628Y-54385714D01*
X93128628Y-54385714D02*
X93128628Y-54766666D01*
X92604819Y-53909523D02*
X93604819Y-53576190D01*
X93604819Y-53576190D02*
X92604819Y-53242857D01*
X93604819Y-52385714D02*
X93604819Y-52957142D01*
X93604819Y-52671428D02*
X92604819Y-52671428D01*
X92604819Y-52671428D02*
X92747676Y-52766666D01*
X92747676Y-52766666D02*
X92842914Y-52861904D01*
X92842914Y-52861904D02*
X92890533Y-52957142D01*
X53354819Y-72159523D02*
X54069104Y-72159523D01*
X54069104Y-72159523D02*
X54211961Y-72207142D01*
X54211961Y-72207142D02*
X54307200Y-72302380D01*
X54307200Y-72302380D02*
X54354819Y-72445237D01*
X54354819Y-72445237D02*
X54354819Y-72540475D01*
X54354819Y-71159523D02*
X54354819Y-71730951D01*
X54354819Y-71445237D02*
X53354819Y-71445237D01*
X53354819Y-71445237D02*
X53497676Y-71540475D01*
X53497676Y-71540475D02*
X53592914Y-71635713D01*
X53592914Y-71635713D02*
X53640533Y-71730951D01*
X53354819Y-70826189D02*
X53354819Y-70207142D01*
X53354819Y-70207142D02*
X53735771Y-70540475D01*
X53735771Y-70540475D02*
X53735771Y-70397618D01*
X53735771Y-70397618D02*
X53783390Y-70302380D01*
X53783390Y-70302380D02*
X53831009Y-70254761D01*
X53831009Y-70254761D02*
X53926247Y-70207142D01*
X53926247Y-70207142D02*
X54164342Y-70207142D01*
X54164342Y-70207142D02*
X54259580Y-70254761D01*
X54259580Y-70254761D02*
X54307200Y-70302380D01*
X54307200Y-70302380D02*
X54354819Y-70397618D01*
X54354819Y-70397618D02*
X54354819Y-70683332D01*
X54354819Y-70683332D02*
X54307200Y-70778570D01*
X54307200Y-70778570D02*
X54259580Y-70826189D01*
X94133580Y-71540666D02*
X94181200Y-71588285D01*
X94181200Y-71588285D02*
X94228819Y-71731142D01*
X94228819Y-71731142D02*
X94228819Y-71826380D01*
X94228819Y-71826380D02*
X94181200Y-71969237D01*
X94181200Y-71969237D02*
X94085961Y-72064475D01*
X94085961Y-72064475D02*
X93990723Y-72112094D01*
X93990723Y-72112094D02*
X93800247Y-72159713D01*
X93800247Y-72159713D02*
X93657390Y-72159713D01*
X93657390Y-72159713D02*
X93466914Y-72112094D01*
X93466914Y-72112094D02*
X93371676Y-72064475D01*
X93371676Y-72064475D02*
X93276438Y-71969237D01*
X93276438Y-71969237D02*
X93228819Y-71826380D01*
X93228819Y-71826380D02*
X93228819Y-71731142D01*
X93228819Y-71731142D02*
X93276438Y-71588285D01*
X93276438Y-71588285D02*
X93324057Y-71540666D01*
X93228819Y-70635904D02*
X93228819Y-71112094D01*
X93228819Y-71112094D02*
X93705009Y-71159713D01*
X93705009Y-71159713D02*
X93657390Y-71112094D01*
X93657390Y-71112094D02*
X93609771Y-71016856D01*
X93609771Y-71016856D02*
X93609771Y-70778761D01*
X93609771Y-70778761D02*
X93657390Y-70683523D01*
X93657390Y-70683523D02*
X93705009Y-70635904D01*
X93705009Y-70635904D02*
X93800247Y-70588285D01*
X93800247Y-70588285D02*
X94038342Y-70588285D01*
X94038342Y-70588285D02*
X94133580Y-70635904D01*
X94133580Y-70635904D02*
X94181200Y-70683523D01*
X94181200Y-70683523D02*
X94228819Y-70778761D01*
X94228819Y-70778761D02*
X94228819Y-71016856D01*
X94228819Y-71016856D02*
X94181200Y-71112094D01*
X94181200Y-71112094D02*
X94133580Y-71159713D01*
X60204819Y-106261904D02*
X59204819Y-106261904D01*
X59204819Y-106261904D02*
X59919104Y-105928571D01*
X59919104Y-105928571D02*
X59204819Y-105595238D01*
X59204819Y-105595238D02*
X60204819Y-105595238D01*
X59538152Y-104690476D02*
X60204819Y-104690476D01*
X59157200Y-104928571D02*
X59871485Y-105166666D01*
X59871485Y-105166666D02*
X59871485Y-104547619D01*
X60204819Y-103738095D02*
X59204819Y-103738095D01*
X60157200Y-103738095D02*
X60204819Y-103833333D01*
X60204819Y-103833333D02*
X60204819Y-104023809D01*
X60204819Y-104023809D02*
X60157200Y-104119047D01*
X60157200Y-104119047D02*
X60109580Y-104166666D01*
X60109580Y-104166666D02*
X60014342Y-104214285D01*
X60014342Y-104214285D02*
X59728628Y-104214285D01*
X59728628Y-104214285D02*
X59633390Y-104166666D01*
X59633390Y-104166666D02*
X59585771Y-104119047D01*
X59585771Y-104119047D02*
X59538152Y-104023809D01*
X59538152Y-104023809D02*
X59538152Y-103833333D01*
X59538152Y-103833333D02*
X59585771Y-103738095D01*
X89114819Y-77083333D02*
X89829104Y-77083333D01*
X89829104Y-77083333D02*
X89971961Y-77130952D01*
X89971961Y-77130952D02*
X90067200Y-77226190D01*
X90067200Y-77226190D02*
X90114819Y-77369047D01*
X90114819Y-77369047D02*
X90114819Y-77464285D01*
X89448152Y-76178571D02*
X90114819Y-76178571D01*
X89067200Y-76416666D02*
X89781485Y-76654761D01*
X89781485Y-76654761D02*
X89781485Y-76035714D01*
X76804819Y-43095238D02*
X76328628Y-43428571D01*
X76804819Y-43666666D02*
X75804819Y-43666666D01*
X75804819Y-43666666D02*
X75804819Y-43285714D01*
X75804819Y-43285714D02*
X75852438Y-43190476D01*
X75852438Y-43190476D02*
X75900057Y-43142857D01*
X75900057Y-43142857D02*
X75995295Y-43095238D01*
X75995295Y-43095238D02*
X76138152Y-43095238D01*
X76138152Y-43095238D02*
X76233390Y-43142857D01*
X76233390Y-43142857D02*
X76281009Y-43190476D01*
X76281009Y-43190476D02*
X76328628Y-43285714D01*
X76328628Y-43285714D02*
X76328628Y-43666666D01*
X75804819Y-42809523D02*
X76804819Y-42476190D01*
X76804819Y-42476190D02*
X75804819Y-42142857D01*
X75900057Y-41857142D02*
X75852438Y-41809523D01*
X75852438Y-41809523D02*
X75804819Y-41714285D01*
X75804819Y-41714285D02*
X75804819Y-41476190D01*
X75804819Y-41476190D02*
X75852438Y-41380952D01*
X75852438Y-41380952D02*
X75900057Y-41333333D01*
X75900057Y-41333333D02*
X75995295Y-41285714D01*
X75995295Y-41285714D02*
X76090533Y-41285714D01*
X76090533Y-41285714D02*
X76233390Y-41333333D01*
X76233390Y-41333333D02*
X76804819Y-41904761D01*
X76804819Y-41904761D02*
X76804819Y-41285714D01*
X95364819Y-106809523D02*
X96079104Y-106809523D01*
X96079104Y-106809523D02*
X96221961Y-106857142D01*
X96221961Y-106857142D02*
X96317200Y-106952380D01*
X96317200Y-106952380D02*
X96364819Y-107095237D01*
X96364819Y-107095237D02*
X96364819Y-107190475D01*
X96364819Y-105809523D02*
X96364819Y-106380951D01*
X96364819Y-106095237D02*
X95364819Y-106095237D01*
X95364819Y-106095237D02*
X95507676Y-106190475D01*
X95507676Y-106190475D02*
X95602914Y-106285713D01*
X95602914Y-106285713D02*
X95650533Y-106380951D01*
X95460057Y-105428570D02*
X95412438Y-105380951D01*
X95412438Y-105380951D02*
X95364819Y-105285713D01*
X95364819Y-105285713D02*
X95364819Y-105047618D01*
X95364819Y-105047618D02*
X95412438Y-104952380D01*
X95412438Y-104952380D02*
X95460057Y-104904761D01*
X95460057Y-104904761D02*
X95555295Y-104857142D01*
X95555295Y-104857142D02*
X95650533Y-104857142D01*
X95650533Y-104857142D02*
X95793390Y-104904761D01*
X95793390Y-104904761D02*
X96364819Y-105476189D01*
X96364819Y-105476189D02*
X96364819Y-104857142D01*
X82959580Y-36416666D02*
X83007200Y-36464285D01*
X83007200Y-36464285D02*
X83054819Y-36607142D01*
X83054819Y-36607142D02*
X83054819Y-36702380D01*
X83054819Y-36702380D02*
X83007200Y-36845237D01*
X83007200Y-36845237D02*
X82911961Y-36940475D01*
X82911961Y-36940475D02*
X82816723Y-36988094D01*
X82816723Y-36988094D02*
X82626247Y-37035713D01*
X82626247Y-37035713D02*
X82483390Y-37035713D01*
X82483390Y-37035713D02*
X82292914Y-36988094D01*
X82292914Y-36988094D02*
X82197676Y-36940475D01*
X82197676Y-36940475D02*
X82102438Y-36845237D01*
X82102438Y-36845237D02*
X82054819Y-36702380D01*
X82054819Y-36702380D02*
X82054819Y-36607142D01*
X82054819Y-36607142D02*
X82102438Y-36464285D01*
X82102438Y-36464285D02*
X82150057Y-36416666D01*
X82054819Y-35559523D02*
X82054819Y-35749999D01*
X82054819Y-35749999D02*
X82102438Y-35845237D01*
X82102438Y-35845237D02*
X82150057Y-35892856D01*
X82150057Y-35892856D02*
X82292914Y-35988094D01*
X82292914Y-35988094D02*
X82483390Y-36035713D01*
X82483390Y-36035713D02*
X82864342Y-36035713D01*
X82864342Y-36035713D02*
X82959580Y-35988094D01*
X82959580Y-35988094D02*
X83007200Y-35940475D01*
X83007200Y-35940475D02*
X83054819Y-35845237D01*
X83054819Y-35845237D02*
X83054819Y-35654761D01*
X83054819Y-35654761D02*
X83007200Y-35559523D01*
X83007200Y-35559523D02*
X82959580Y-35511904D01*
X82959580Y-35511904D02*
X82864342Y-35464285D01*
X82864342Y-35464285D02*
X82626247Y-35464285D01*
X82626247Y-35464285D02*
X82531009Y-35511904D01*
X82531009Y-35511904D02*
X82483390Y-35559523D01*
X82483390Y-35559523D02*
X82435771Y-35654761D01*
X82435771Y-35654761D02*
X82435771Y-35845237D01*
X82435771Y-35845237D02*
X82483390Y-35940475D01*
X82483390Y-35940475D02*
X82531009Y-35988094D01*
X82531009Y-35988094D02*
X82626247Y-36035713D01*
X112354819Y-57261904D02*
X113164342Y-57261904D01*
X113164342Y-57261904D02*
X113259580Y-57214285D01*
X113259580Y-57214285D02*
X113307200Y-57166666D01*
X113307200Y-57166666D02*
X113354819Y-57071428D01*
X113354819Y-57071428D02*
X113354819Y-56880952D01*
X113354819Y-56880952D02*
X113307200Y-56785714D01*
X113307200Y-56785714D02*
X113259580Y-56738095D01*
X113259580Y-56738095D02*
X113164342Y-56690476D01*
X113164342Y-56690476D02*
X112354819Y-56690476D01*
X113354819Y-55690476D02*
X113354819Y-56261904D01*
X113354819Y-55976190D02*
X112354819Y-55976190D01*
X112354819Y-55976190D02*
X112497676Y-56071428D01*
X112497676Y-56071428D02*
X112592914Y-56166666D01*
X112592914Y-56166666D02*
X112640533Y-56261904D01*
X86306819Y-63333238D02*
X85830628Y-63666571D01*
X86306819Y-63904666D02*
X85306819Y-63904666D01*
X85306819Y-63904666D02*
X85306819Y-63523714D01*
X85306819Y-63523714D02*
X85354438Y-63428476D01*
X85354438Y-63428476D02*
X85402057Y-63380857D01*
X85402057Y-63380857D02*
X85497295Y-63333238D01*
X85497295Y-63333238D02*
X85640152Y-63333238D01*
X85640152Y-63333238D02*
X85735390Y-63380857D01*
X85735390Y-63380857D02*
X85783009Y-63428476D01*
X85783009Y-63428476D02*
X85830628Y-63523714D01*
X85830628Y-63523714D02*
X85830628Y-63904666D01*
X85306819Y-63047523D02*
X86306819Y-62714190D01*
X86306819Y-62714190D02*
X85306819Y-62380857D01*
X85306819Y-62142761D02*
X85306819Y-61523714D01*
X85306819Y-61523714D02*
X85687771Y-61857047D01*
X85687771Y-61857047D02*
X85687771Y-61714190D01*
X85687771Y-61714190D02*
X85735390Y-61618952D01*
X85735390Y-61618952D02*
X85783009Y-61571333D01*
X85783009Y-61571333D02*
X85878247Y-61523714D01*
X85878247Y-61523714D02*
X86116342Y-61523714D01*
X86116342Y-61523714D02*
X86211580Y-61571333D01*
X86211580Y-61571333D02*
X86259200Y-61618952D01*
X86259200Y-61618952D02*
X86306819Y-61714190D01*
X86306819Y-61714190D02*
X86306819Y-61999904D01*
X86306819Y-61999904D02*
X86259200Y-62095142D01*
X86259200Y-62095142D02*
X86211580Y-62142761D01*
X69088095Y-39034819D02*
X69088095Y-39844342D01*
X69088095Y-39844342D02*
X69135714Y-39939580D01*
X69135714Y-39939580D02*
X69183333Y-39987200D01*
X69183333Y-39987200D02*
X69278571Y-40034819D01*
X69278571Y-40034819D02*
X69469047Y-40034819D01*
X69469047Y-40034819D02*
X69564285Y-39987200D01*
X69564285Y-39987200D02*
X69611904Y-39939580D01*
X69611904Y-39939580D02*
X69659523Y-39844342D01*
X69659523Y-39844342D02*
X69659523Y-39034819D01*
X70040476Y-39034819D02*
X70659523Y-39034819D01*
X70659523Y-39034819D02*
X70326190Y-39415771D01*
X70326190Y-39415771D02*
X70469047Y-39415771D01*
X70469047Y-39415771D02*
X70564285Y-39463390D01*
X70564285Y-39463390D02*
X70611904Y-39511009D01*
X70611904Y-39511009D02*
X70659523Y-39606247D01*
X70659523Y-39606247D02*
X70659523Y-39844342D01*
X70659523Y-39844342D02*
X70611904Y-39939580D01*
X70611904Y-39939580D02*
X70564285Y-39987200D01*
X70564285Y-39987200D02*
X70469047Y-40034819D01*
X70469047Y-40034819D02*
X70183333Y-40034819D01*
X70183333Y-40034819D02*
X70088095Y-39987200D01*
X70088095Y-39987200D02*
X70040476Y-39939580D01*
X76654819Y-95666666D02*
X76178628Y-95999999D01*
X76654819Y-96238094D02*
X75654819Y-96238094D01*
X75654819Y-96238094D02*
X75654819Y-95857142D01*
X75654819Y-95857142D02*
X75702438Y-95761904D01*
X75702438Y-95761904D02*
X75750057Y-95714285D01*
X75750057Y-95714285D02*
X75845295Y-95666666D01*
X75845295Y-95666666D02*
X75988152Y-95666666D01*
X75988152Y-95666666D02*
X76083390Y-95714285D01*
X76083390Y-95714285D02*
X76131009Y-95761904D01*
X76131009Y-95761904D02*
X76178628Y-95857142D01*
X76178628Y-95857142D02*
X76178628Y-96238094D01*
X75750057Y-95285713D02*
X75702438Y-95238094D01*
X75702438Y-95238094D02*
X75654819Y-95142856D01*
X75654819Y-95142856D02*
X75654819Y-94904761D01*
X75654819Y-94904761D02*
X75702438Y-94809523D01*
X75702438Y-94809523D02*
X75750057Y-94761904D01*
X75750057Y-94761904D02*
X75845295Y-94714285D01*
X75845295Y-94714285D02*
X75940533Y-94714285D01*
X75940533Y-94714285D02*
X76083390Y-94761904D01*
X76083390Y-94761904D02*
X76654819Y-95333332D01*
X76654819Y-95333332D02*
X76654819Y-94714285D01*
X95654819Y-100209523D02*
X96369104Y-100209523D01*
X96369104Y-100209523D02*
X96511961Y-100257142D01*
X96511961Y-100257142D02*
X96607200Y-100352380D01*
X96607200Y-100352380D02*
X96654819Y-100495237D01*
X96654819Y-100495237D02*
X96654819Y-100590475D01*
X96654819Y-99209523D02*
X96654819Y-99780951D01*
X96654819Y-99495237D02*
X95654819Y-99495237D01*
X95654819Y-99495237D02*
X95797676Y-99590475D01*
X95797676Y-99590475D02*
X95892914Y-99685713D01*
X95892914Y-99685713D02*
X95940533Y-99780951D01*
X96654819Y-98257142D02*
X96654819Y-98828570D01*
X96654819Y-98542856D02*
X95654819Y-98542856D01*
X95654819Y-98542856D02*
X95797676Y-98638094D01*
X95797676Y-98638094D02*
X95892914Y-98733332D01*
X95892914Y-98733332D02*
X95940533Y-98828570D01*
X109251905Y-109074819D02*
X109251905Y-108074819D01*
X109251905Y-108074819D02*
X109585238Y-108789104D01*
X109585238Y-108789104D02*
X109918571Y-108074819D01*
X109918571Y-108074819D02*
X109918571Y-109074819D01*
X110823333Y-108408152D02*
X110823333Y-109074819D01*
X110585238Y-108027200D02*
X110347143Y-108741485D01*
X110347143Y-108741485D02*
X110966190Y-108741485D01*
X111775714Y-109027200D02*
X111680476Y-109074819D01*
X111680476Y-109074819D02*
X111490000Y-109074819D01*
X111490000Y-109074819D02*
X111394762Y-109027200D01*
X111394762Y-109027200D02*
X111347143Y-108979580D01*
X111347143Y-108979580D02*
X111299524Y-108884342D01*
X111299524Y-108884342D02*
X111299524Y-108598628D01*
X111299524Y-108598628D02*
X111347143Y-108503390D01*
X111347143Y-108503390D02*
X111394762Y-108455771D01*
X111394762Y-108455771D02*
X111490000Y-108408152D01*
X111490000Y-108408152D02*
X111680476Y-108408152D01*
X111680476Y-108408152D02*
X111775714Y-108455771D01*
X78364819Y-74333333D02*
X79079104Y-74333333D01*
X79079104Y-74333333D02*
X79221961Y-74380952D01*
X79221961Y-74380952D02*
X79317200Y-74476190D01*
X79317200Y-74476190D02*
X79364819Y-74619047D01*
X79364819Y-74619047D02*
X79364819Y-74714285D01*
X78364819Y-73380952D02*
X78364819Y-73857142D01*
X78364819Y-73857142D02*
X78841009Y-73904761D01*
X78841009Y-73904761D02*
X78793390Y-73857142D01*
X78793390Y-73857142D02*
X78745771Y-73761904D01*
X78745771Y-73761904D02*
X78745771Y-73523809D01*
X78745771Y-73523809D02*
X78793390Y-73428571D01*
X78793390Y-73428571D02*
X78841009Y-73380952D01*
X78841009Y-73380952D02*
X78936247Y-73333333D01*
X78936247Y-73333333D02*
X79174342Y-73333333D01*
X79174342Y-73333333D02*
X79269580Y-73380952D01*
X79269580Y-73380952D02*
X79317200Y-73428571D01*
X79317200Y-73428571D02*
X79364819Y-73523809D01*
X79364819Y-73523809D02*
X79364819Y-73761904D01*
X79364819Y-73761904D02*
X79317200Y-73857142D01*
X79317200Y-73857142D02*
X79269580Y-73904761D01*
X80254819Y-95666666D02*
X79778628Y-95999999D01*
X80254819Y-96238094D02*
X79254819Y-96238094D01*
X79254819Y-96238094D02*
X79254819Y-95857142D01*
X79254819Y-95857142D02*
X79302438Y-95761904D01*
X79302438Y-95761904D02*
X79350057Y-95714285D01*
X79350057Y-95714285D02*
X79445295Y-95666666D01*
X79445295Y-95666666D02*
X79588152Y-95666666D01*
X79588152Y-95666666D02*
X79683390Y-95714285D01*
X79683390Y-95714285D02*
X79731009Y-95761904D01*
X79731009Y-95761904D02*
X79778628Y-95857142D01*
X79778628Y-95857142D02*
X79778628Y-96238094D01*
X80254819Y-94714285D02*
X80254819Y-95285713D01*
X80254819Y-94999999D02*
X79254819Y-94999999D01*
X79254819Y-94999999D02*
X79397676Y-95095237D01*
X79397676Y-95095237D02*
X79492914Y-95190475D01*
X79492914Y-95190475D02*
X79540533Y-95285713D01*
X109228095Y-33304819D02*
X109228095Y-32304819D01*
X109228095Y-32304819D02*
X109561428Y-33019104D01*
X109561428Y-33019104D02*
X109894761Y-32304819D01*
X109894761Y-32304819D02*
X109894761Y-33304819D01*
X110799523Y-32638152D02*
X110799523Y-33304819D01*
X110561428Y-32257200D02*
X110323333Y-32971485D01*
X110323333Y-32971485D02*
X110942380Y-32971485D01*
X111323333Y-33304819D02*
X111323333Y-32304819D01*
X111323333Y-32685771D02*
X111418571Y-32638152D01*
X111418571Y-32638152D02*
X111609047Y-32638152D01*
X111609047Y-32638152D02*
X111704285Y-32685771D01*
X111704285Y-32685771D02*
X111751904Y-32733390D01*
X111751904Y-32733390D02*
X111799523Y-32828628D01*
X111799523Y-32828628D02*
X111799523Y-33114342D01*
X111799523Y-33114342D02*
X111751904Y-33209580D01*
X111751904Y-33209580D02*
X111704285Y-33257200D01*
X111704285Y-33257200D02*
X111609047Y-33304819D01*
X111609047Y-33304819D02*
X111418571Y-33304819D01*
X111418571Y-33304819D02*
X111323333Y-33257200D01*
X81709580Y-50666666D02*
X81757200Y-50714285D01*
X81757200Y-50714285D02*
X81804819Y-50857142D01*
X81804819Y-50857142D02*
X81804819Y-50952380D01*
X81804819Y-50952380D02*
X81757200Y-51095237D01*
X81757200Y-51095237D02*
X81661961Y-51190475D01*
X81661961Y-51190475D02*
X81566723Y-51238094D01*
X81566723Y-51238094D02*
X81376247Y-51285713D01*
X81376247Y-51285713D02*
X81233390Y-51285713D01*
X81233390Y-51285713D02*
X81042914Y-51238094D01*
X81042914Y-51238094D02*
X80947676Y-51190475D01*
X80947676Y-51190475D02*
X80852438Y-51095237D01*
X80852438Y-51095237D02*
X80804819Y-50952380D01*
X80804819Y-50952380D02*
X80804819Y-50857142D01*
X80804819Y-50857142D02*
X80852438Y-50714285D01*
X80852438Y-50714285D02*
X80900057Y-50666666D01*
X81233390Y-50095237D02*
X81185771Y-50190475D01*
X81185771Y-50190475D02*
X81138152Y-50238094D01*
X81138152Y-50238094D02*
X81042914Y-50285713D01*
X81042914Y-50285713D02*
X80995295Y-50285713D01*
X80995295Y-50285713D02*
X80900057Y-50238094D01*
X80900057Y-50238094D02*
X80852438Y-50190475D01*
X80852438Y-50190475D02*
X80804819Y-50095237D01*
X80804819Y-50095237D02*
X80804819Y-49904761D01*
X80804819Y-49904761D02*
X80852438Y-49809523D01*
X80852438Y-49809523D02*
X80900057Y-49761904D01*
X80900057Y-49761904D02*
X80995295Y-49714285D01*
X80995295Y-49714285D02*
X81042914Y-49714285D01*
X81042914Y-49714285D02*
X81138152Y-49761904D01*
X81138152Y-49761904D02*
X81185771Y-49809523D01*
X81185771Y-49809523D02*
X81233390Y-49904761D01*
X81233390Y-49904761D02*
X81233390Y-50095237D01*
X81233390Y-50095237D02*
X81281009Y-50190475D01*
X81281009Y-50190475D02*
X81328628Y-50238094D01*
X81328628Y-50238094D02*
X81423866Y-50285713D01*
X81423866Y-50285713D02*
X81614342Y-50285713D01*
X81614342Y-50285713D02*
X81709580Y-50238094D01*
X81709580Y-50238094D02*
X81757200Y-50190475D01*
X81757200Y-50190475D02*
X81804819Y-50095237D01*
X81804819Y-50095237D02*
X81804819Y-49904761D01*
X81804819Y-49904761D02*
X81757200Y-49809523D01*
X81757200Y-49809523D02*
X81709580Y-49761904D01*
X81709580Y-49761904D02*
X81614342Y-49714285D01*
X81614342Y-49714285D02*
X81423866Y-49714285D01*
X81423866Y-49714285D02*
X81328628Y-49761904D01*
X81328628Y-49761904D02*
X81281009Y-49809523D01*
X81281009Y-49809523D02*
X81233390Y-49904761D01*
X83804819Y-43511904D02*
X84614342Y-43511904D01*
X84614342Y-43511904D02*
X84709580Y-43464285D01*
X84709580Y-43464285D02*
X84757200Y-43416666D01*
X84757200Y-43416666D02*
X84804819Y-43321428D01*
X84804819Y-43321428D02*
X84804819Y-43130952D01*
X84804819Y-43130952D02*
X84757200Y-43035714D01*
X84757200Y-43035714D02*
X84709580Y-42988095D01*
X84709580Y-42988095D02*
X84614342Y-42940476D01*
X84614342Y-42940476D02*
X83804819Y-42940476D01*
X83900057Y-42511904D02*
X83852438Y-42464285D01*
X83852438Y-42464285D02*
X83804819Y-42369047D01*
X83804819Y-42369047D02*
X83804819Y-42130952D01*
X83804819Y-42130952D02*
X83852438Y-42035714D01*
X83852438Y-42035714D02*
X83900057Y-41988095D01*
X83900057Y-41988095D02*
X83995295Y-41940476D01*
X83995295Y-41940476D02*
X84090533Y-41940476D01*
X84090533Y-41940476D02*
X84233390Y-41988095D01*
X84233390Y-41988095D02*
X84804819Y-42559523D01*
X84804819Y-42559523D02*
X84804819Y-41940476D01*
D13*
%TO.C,C1*%
X101030000Y-61630000D02*
X111270000Y-61630000D01*
X101030000Y-64370000D02*
X101030000Y-61630000D01*
X111270000Y-61630000D02*
X111270000Y-64370000D01*
X111270000Y-64370000D02*
X101030000Y-64370000D01*
%TO.C,J6*%
X83030000Y-72630000D02*
X83030000Y-71250000D01*
X84410000Y-72630000D02*
X83030000Y-72630000D01*
X85680000Y-69870000D02*
X88330000Y-69870000D01*
X85680000Y-72630000D02*
X85680000Y-69870000D01*
X85680000Y-72630000D02*
X88330000Y-72630000D01*
X88330000Y-72630000D02*
X88330000Y-69870000D01*
%TO.C,J7*%
X104080000Y-70044000D02*
X104080000Y-72704000D01*
X106680000Y-70044000D02*
X104080000Y-70044000D01*
X106680000Y-70044000D02*
X106680000Y-72704000D01*
X106680000Y-72704000D02*
X104080000Y-72704000D01*
X109280000Y-71374000D02*
X109280000Y-72704000D01*
X109280000Y-72704000D02*
X107950000Y-72704000D01*
%TO.C,C3*%
X105419225Y-46785000D02*
X105919225Y-46785000D01*
X105669225Y-46535000D02*
X105669225Y-47035000D01*
X108224000Y-45680000D02*
X108224000Y-50840000D01*
X108264000Y-45680000D02*
X108264000Y-50840000D01*
X108304000Y-45681000D02*
X108304000Y-50839000D01*
X108344000Y-45683000D02*
X108344000Y-50837000D01*
X108384000Y-45685000D02*
X108384000Y-50835000D01*
X108424000Y-45688000D02*
X108424000Y-50832000D01*
X108464000Y-45691000D02*
X108464000Y-47220000D01*
X108464000Y-49300000D02*
X108464000Y-50829000D01*
X108504000Y-45695000D02*
X108504000Y-47220000D01*
X108504000Y-49300000D02*
X108504000Y-50825000D01*
X108544000Y-45700000D02*
X108544000Y-47220000D01*
X108544000Y-49300000D02*
X108544000Y-50820000D01*
X108584000Y-45705000D02*
X108584000Y-47220000D01*
X108584000Y-49300000D02*
X108584000Y-50815000D01*
X108624000Y-45711000D02*
X108624000Y-47220000D01*
X108624000Y-49300000D02*
X108624000Y-50809000D01*
X108664000Y-45717000D02*
X108664000Y-47220000D01*
X108664000Y-49300000D02*
X108664000Y-50803000D01*
X108704000Y-45724000D02*
X108704000Y-47220000D01*
X108704000Y-49300000D02*
X108704000Y-50796000D01*
X108744000Y-45732000D02*
X108744000Y-47220000D01*
X108744000Y-49300000D02*
X108744000Y-50788000D01*
X108784000Y-45741000D02*
X108784000Y-47220000D01*
X108784000Y-49300000D02*
X108784000Y-50779000D01*
X108824000Y-45750000D02*
X108824000Y-47220000D01*
X108824000Y-49300000D02*
X108824000Y-50770000D01*
X108864000Y-45759000D02*
X108864000Y-47220000D01*
X108864000Y-49300000D02*
X108864000Y-50761000D01*
X108904000Y-45770000D02*
X108904000Y-47220000D01*
X108904000Y-49300000D02*
X108904000Y-50750000D01*
X108944000Y-45781000D02*
X108944000Y-47220000D01*
X108944000Y-49300000D02*
X108944000Y-50739000D01*
X108984000Y-45793000D02*
X108984000Y-47220000D01*
X108984000Y-49300000D02*
X108984000Y-50727000D01*
X109024000Y-45805000D02*
X109024000Y-47220000D01*
X109024000Y-49300000D02*
X109024000Y-50715000D01*
X109064000Y-45818000D02*
X109064000Y-47220000D01*
X109064000Y-49300000D02*
X109064000Y-50702000D01*
X109104000Y-45832000D02*
X109104000Y-47220000D01*
X109104000Y-49300000D02*
X109104000Y-50688000D01*
X109144000Y-45847000D02*
X109144000Y-47220000D01*
X109144000Y-49300000D02*
X109144000Y-50673000D01*
X109184000Y-45862000D02*
X109184000Y-47220000D01*
X109184000Y-49300000D02*
X109184000Y-50658000D01*
X109224000Y-45878000D02*
X109224000Y-47220000D01*
X109224000Y-49300000D02*
X109224000Y-50642000D01*
X109264000Y-45895000D02*
X109264000Y-47220000D01*
X109264000Y-49300000D02*
X109264000Y-50625000D01*
X109304000Y-45913000D02*
X109304000Y-47220000D01*
X109304000Y-49300000D02*
X109304000Y-50607000D01*
X109344000Y-45931000D02*
X109344000Y-47220000D01*
X109344000Y-49300000D02*
X109344000Y-50589000D01*
X109384000Y-45951000D02*
X109384000Y-47220000D01*
X109384000Y-49300000D02*
X109384000Y-50569000D01*
X109424000Y-45971000D02*
X109424000Y-47220000D01*
X109424000Y-49300000D02*
X109424000Y-50549000D01*
X109464000Y-45992000D02*
X109464000Y-47220000D01*
X109464000Y-49300000D02*
X109464000Y-50528000D01*
X109504000Y-46014000D02*
X109504000Y-47220000D01*
X109504000Y-49300000D02*
X109504000Y-50506000D01*
X109544000Y-46037000D02*
X109544000Y-47220000D01*
X109544000Y-49300000D02*
X109544000Y-50483000D01*
X109584000Y-46061000D02*
X109584000Y-47220000D01*
X109584000Y-49300000D02*
X109584000Y-50459000D01*
X109624000Y-46085000D02*
X109624000Y-47220000D01*
X109624000Y-49300000D02*
X109624000Y-50435000D01*
X109664000Y-46111000D02*
X109664000Y-47220000D01*
X109664000Y-49300000D02*
X109664000Y-50409000D01*
X109704000Y-46138000D02*
X109704000Y-47220000D01*
X109704000Y-49300000D02*
X109704000Y-50382000D01*
X109744000Y-46166000D02*
X109744000Y-47220000D01*
X109744000Y-49300000D02*
X109744000Y-50354000D01*
X109784000Y-46195000D02*
X109784000Y-47220000D01*
X109784000Y-49300000D02*
X109784000Y-50325000D01*
X109824000Y-46225000D02*
X109824000Y-47220000D01*
X109824000Y-49300000D02*
X109824000Y-50295000D01*
X109864000Y-46257000D02*
X109864000Y-47220000D01*
X109864000Y-49300000D02*
X109864000Y-50263000D01*
X109904000Y-46290000D02*
X109904000Y-47220000D01*
X109904000Y-49300000D02*
X109904000Y-50230000D01*
X109944000Y-46324000D02*
X109944000Y-47220000D01*
X109944000Y-49300000D02*
X109944000Y-50196000D01*
X109984000Y-46359000D02*
X109984000Y-47220000D01*
X109984000Y-49300000D02*
X109984000Y-50161000D01*
X110024000Y-46396000D02*
X110024000Y-47220000D01*
X110024000Y-49300000D02*
X110024000Y-50124000D01*
X110064000Y-46435000D02*
X110064000Y-47220000D01*
X110064000Y-49300000D02*
X110064000Y-50085000D01*
X110104000Y-46475000D02*
X110104000Y-47220000D01*
X110104000Y-49300000D02*
X110104000Y-50045000D01*
X110144000Y-46517000D02*
X110144000Y-47220000D01*
X110144000Y-49300000D02*
X110144000Y-50003000D01*
X110184000Y-46561000D02*
X110184000Y-47220000D01*
X110184000Y-49300000D02*
X110184000Y-49959000D01*
X110224000Y-46608000D02*
X110224000Y-47220000D01*
X110224000Y-49300000D02*
X110224000Y-49912000D01*
X110264000Y-46656000D02*
X110264000Y-47220000D01*
X110264000Y-49300000D02*
X110264000Y-49864000D01*
X110304000Y-46707000D02*
X110304000Y-47220000D01*
X110304000Y-49300000D02*
X110304000Y-49813000D01*
X110344000Y-46761000D02*
X110344000Y-47220000D01*
X110344000Y-49300000D02*
X110344000Y-49759000D01*
X110384000Y-46817000D02*
X110384000Y-47220000D01*
X110384000Y-49300000D02*
X110384000Y-49703000D01*
X110424000Y-46877000D02*
X110424000Y-47220000D01*
X110424000Y-49300000D02*
X110424000Y-49643000D01*
X110464000Y-46941000D02*
X110464000Y-47220000D01*
X110464000Y-49300000D02*
X110464000Y-49579000D01*
X110504000Y-47009000D02*
X110504000Y-47220000D01*
X110504000Y-49300000D02*
X110504000Y-49511000D01*
X110544000Y-47083000D02*
X110544000Y-49437000D01*
X110584000Y-47162000D02*
X110584000Y-49358000D01*
X110624000Y-47249000D02*
X110624000Y-49271000D01*
X110664000Y-47346000D02*
X110664000Y-49174000D01*
X110704000Y-47455000D02*
X110704000Y-49065000D01*
X110744000Y-47583000D02*
X110744000Y-48937000D01*
X110784000Y-47743000D02*
X110784000Y-48777000D01*
X110824000Y-47977000D02*
X110824000Y-48543000D01*
X110844000Y-48260000D02*
G75*
G02*
X105604000Y-48260000I-2620000J0D01*
G01*
X105604000Y-48260000D02*
G75*
G02*
X110844000Y-48260000I2620000J0D01*
G01*
%TO.C,J3*%
X72280000Y-81130000D02*
X72280000Y-79750000D01*
X73660000Y-81130000D02*
X72280000Y-81130000D01*
X74930000Y-78370000D02*
X77580000Y-78370000D01*
X74930000Y-81130000D02*
X74930000Y-78370000D01*
X74930000Y-81130000D02*
X77580000Y-81130000D01*
X77580000Y-81130000D02*
X77580000Y-78370000D01*
%TO.C,J8*%
X104080000Y-77156000D02*
X104080000Y-79816000D01*
X106680000Y-77156000D02*
X104080000Y-77156000D01*
X106680000Y-77156000D02*
X106680000Y-79816000D01*
X106680000Y-79816000D02*
X104080000Y-79816000D01*
X109280000Y-78486000D02*
X109280000Y-79816000D01*
X109280000Y-79816000D02*
X107950000Y-79816000D01*
%TO.C,C7*%
X93626000Y-29170000D02*
X96366000Y-29170000D01*
X93626000Y-39410000D02*
X93626000Y-29170000D01*
X96366000Y-29170000D02*
X96366000Y-39410000D01*
X96366000Y-39410000D02*
X93626000Y-39410000D01*
%TO.C,R3*%
X72600000Y-99360000D02*
X72600000Y-100130000D01*
X72600000Y-107440000D02*
X72600000Y-106670000D01*
X73970000Y-100130000D02*
X71230000Y-100130000D01*
X71230000Y-106670000D01*
X73970000Y-106670000D01*
X73970000Y-100130000D01*
%TO.C,J9*%
X86790000Y-90970000D02*
X88120000Y-90970000D01*
X86790000Y-92300000D02*
X86790000Y-90970000D01*
X89390000Y-90970000D02*
X94530000Y-90970000D01*
X89390000Y-93630000D02*
X89390000Y-90970000D01*
X89390000Y-93630000D02*
X94530000Y-93630000D01*
X94530000Y-93630000D02*
X94530000Y-90970000D01*
%TO.C,J1*%
X83030000Y-83880000D02*
X83030000Y-82500000D01*
X84410000Y-83880000D02*
X83030000Y-83880000D01*
X85680000Y-81120000D02*
X88330000Y-81120000D01*
X85680000Y-83880000D02*
X85680000Y-81120000D01*
X85680000Y-83880000D02*
X88330000Y-83880000D01*
X88330000Y-83880000D02*
X88330000Y-81120000D01*
%TO.C,C2*%
X97944000Y-75866000D02*
X100684000Y-75866000D01*
X97944000Y-86106000D02*
X97944000Y-75866000D01*
X100684000Y-75866000D02*
X100684000Y-86106000D01*
X100684000Y-86106000D02*
X97944000Y-86106000D01*
%TO.C,J2*%
X72280000Y-86630000D02*
X72280000Y-85250000D01*
X73660000Y-86630000D02*
X72280000Y-86630000D01*
X74930000Y-83870000D02*
X77580000Y-83870000D01*
X74930000Y-86630000D02*
X74930000Y-83870000D01*
X74930000Y-86630000D02*
X77580000Y-86630000D01*
X77580000Y-86630000D02*
X77580000Y-83870000D01*
%TO.C,C4*%
X98521225Y-30275000D02*
X99021225Y-30275000D01*
X98771225Y-30025000D02*
X98771225Y-30525000D01*
X101326000Y-29170000D02*
X101326000Y-34330000D01*
X101366000Y-29170000D02*
X101366000Y-34330000D01*
X101406000Y-29171000D02*
X101406000Y-34329000D01*
X101446000Y-29173000D02*
X101446000Y-34327000D01*
X101486000Y-29175000D02*
X101486000Y-34325000D01*
X101526000Y-29178000D02*
X101526000Y-34322000D01*
X101566000Y-29181000D02*
X101566000Y-30710000D01*
X101566000Y-32790000D02*
X101566000Y-34319000D01*
X101606000Y-29185000D02*
X101606000Y-30710000D01*
X101606000Y-32790000D02*
X101606000Y-34315000D01*
X101646000Y-29190000D02*
X101646000Y-30710000D01*
X101646000Y-32790000D02*
X101646000Y-34310000D01*
X101686000Y-29195000D02*
X101686000Y-30710000D01*
X101686000Y-32790000D02*
X101686000Y-34305000D01*
X101726000Y-29201000D02*
X101726000Y-30710000D01*
X101726000Y-32790000D02*
X101726000Y-34299000D01*
X101766000Y-29207000D02*
X101766000Y-30710000D01*
X101766000Y-32790000D02*
X101766000Y-34293000D01*
X101806000Y-29214000D02*
X101806000Y-30710000D01*
X101806000Y-32790000D02*
X101806000Y-34286000D01*
X101846000Y-29222000D02*
X101846000Y-30710000D01*
X101846000Y-32790000D02*
X101846000Y-34278000D01*
X101886000Y-29231000D02*
X101886000Y-30710000D01*
X101886000Y-32790000D02*
X101886000Y-34269000D01*
X101926000Y-29240000D02*
X101926000Y-30710000D01*
X101926000Y-32790000D02*
X101926000Y-34260000D01*
X101966000Y-29249000D02*
X101966000Y-30710000D01*
X101966000Y-32790000D02*
X101966000Y-34251000D01*
X102006000Y-29260000D02*
X102006000Y-30710000D01*
X102006000Y-32790000D02*
X102006000Y-34240000D01*
X102046000Y-29271000D02*
X102046000Y-30710000D01*
X102046000Y-32790000D02*
X102046000Y-34229000D01*
X102086000Y-29283000D02*
X102086000Y-30710000D01*
X102086000Y-32790000D02*
X102086000Y-34217000D01*
X102126000Y-29295000D02*
X102126000Y-30710000D01*
X102126000Y-32790000D02*
X102126000Y-34205000D01*
X102166000Y-29308000D02*
X102166000Y-30710000D01*
X102166000Y-32790000D02*
X102166000Y-34192000D01*
X102206000Y-29322000D02*
X102206000Y-30710000D01*
X102206000Y-32790000D02*
X102206000Y-34178000D01*
X102246000Y-29337000D02*
X102246000Y-30710000D01*
X102246000Y-32790000D02*
X102246000Y-34163000D01*
X102286000Y-29352000D02*
X102286000Y-30710000D01*
X102286000Y-32790000D02*
X102286000Y-34148000D01*
X102326000Y-29368000D02*
X102326000Y-30710000D01*
X102326000Y-32790000D02*
X102326000Y-34132000D01*
X102366000Y-29385000D02*
X102366000Y-30710000D01*
X102366000Y-32790000D02*
X102366000Y-34115000D01*
X102406000Y-29403000D02*
X102406000Y-30710000D01*
X102406000Y-32790000D02*
X102406000Y-34097000D01*
X102446000Y-29421000D02*
X102446000Y-30710000D01*
X102446000Y-32790000D02*
X102446000Y-34079000D01*
X102486000Y-29441000D02*
X102486000Y-30710000D01*
X102486000Y-32790000D02*
X102486000Y-34059000D01*
X102526000Y-29461000D02*
X102526000Y-30710000D01*
X102526000Y-32790000D02*
X102526000Y-34039000D01*
X102566000Y-29482000D02*
X102566000Y-30710000D01*
X102566000Y-32790000D02*
X102566000Y-34018000D01*
X102606000Y-29504000D02*
X102606000Y-30710000D01*
X102606000Y-32790000D02*
X102606000Y-33996000D01*
X102646000Y-29527000D02*
X102646000Y-30710000D01*
X102646000Y-32790000D02*
X102646000Y-33973000D01*
X102686000Y-29551000D02*
X102686000Y-30710000D01*
X102686000Y-32790000D02*
X102686000Y-33949000D01*
X102726000Y-29575000D02*
X102726000Y-30710000D01*
X102726000Y-32790000D02*
X102726000Y-33925000D01*
X102766000Y-29601000D02*
X102766000Y-30710000D01*
X102766000Y-32790000D02*
X102766000Y-33899000D01*
X102806000Y-29628000D02*
X102806000Y-30710000D01*
X102806000Y-32790000D02*
X102806000Y-33872000D01*
X102846000Y-29656000D02*
X102846000Y-30710000D01*
X102846000Y-32790000D02*
X102846000Y-33844000D01*
X102886000Y-29685000D02*
X102886000Y-30710000D01*
X102886000Y-32790000D02*
X102886000Y-33815000D01*
X102926000Y-29715000D02*
X102926000Y-30710000D01*
X102926000Y-32790000D02*
X102926000Y-33785000D01*
X102966000Y-29747000D02*
X102966000Y-30710000D01*
X102966000Y-32790000D02*
X102966000Y-33753000D01*
X103006000Y-29780000D02*
X103006000Y-30710000D01*
X103006000Y-32790000D02*
X103006000Y-33720000D01*
X103046000Y-29814000D02*
X103046000Y-30710000D01*
X103046000Y-32790000D02*
X103046000Y-33686000D01*
X103086000Y-29849000D02*
X103086000Y-30710000D01*
X103086000Y-32790000D02*
X103086000Y-33651000D01*
X103126000Y-29886000D02*
X103126000Y-30710000D01*
X103126000Y-32790000D02*
X103126000Y-33614000D01*
X103166000Y-29925000D02*
X103166000Y-30710000D01*
X103166000Y-32790000D02*
X103166000Y-33575000D01*
X103206000Y-29965000D02*
X103206000Y-30710000D01*
X103206000Y-32790000D02*
X103206000Y-33535000D01*
X103246000Y-30007000D02*
X103246000Y-30710000D01*
X103246000Y-32790000D02*
X103246000Y-33493000D01*
X103286000Y-30051000D02*
X103286000Y-30710000D01*
X103286000Y-32790000D02*
X103286000Y-33449000D01*
X103326000Y-30098000D02*
X103326000Y-30710000D01*
X103326000Y-32790000D02*
X103326000Y-33402000D01*
X103366000Y-30146000D02*
X103366000Y-30710000D01*
X103366000Y-32790000D02*
X103366000Y-33354000D01*
X103406000Y-30197000D02*
X103406000Y-30710000D01*
X103406000Y-32790000D02*
X103406000Y-33303000D01*
X103446000Y-30251000D02*
X103446000Y-30710000D01*
X103446000Y-32790000D02*
X103446000Y-33249000D01*
X103486000Y-30307000D02*
X103486000Y-30710000D01*
X103486000Y-32790000D02*
X103486000Y-33193000D01*
X103526000Y-30367000D02*
X103526000Y-30710000D01*
X103526000Y-32790000D02*
X103526000Y-33133000D01*
X103566000Y-30431000D02*
X103566000Y-30710000D01*
X103566000Y-32790000D02*
X103566000Y-33069000D01*
X103606000Y-30499000D02*
X103606000Y-30710000D01*
X103606000Y-32790000D02*
X103606000Y-33001000D01*
X103646000Y-30573000D02*
X103646000Y-32927000D01*
X103686000Y-30652000D02*
X103686000Y-32848000D01*
X103726000Y-30739000D02*
X103726000Y-32761000D01*
X103766000Y-30836000D02*
X103766000Y-32664000D01*
X103806000Y-30945000D02*
X103806000Y-32555000D01*
X103846000Y-31073000D02*
X103846000Y-32427000D01*
X103886000Y-31233000D02*
X103886000Y-32267000D01*
X103926000Y-31467000D02*
X103926000Y-32033000D01*
X103946000Y-31750000D02*
G75*
G02*
X98706000Y-31750000I-2620000J0D01*
G01*
X98706000Y-31750000D02*
G75*
G02*
X103946000Y-31750000I2620000J0D01*
G01*
%TO.C,RV1*%
X95470000Y-47370000D02*
X96850000Y-47370000D01*
X95470000Y-48750000D02*
X95470000Y-47370000D01*
X95470000Y-50020000D02*
X95470000Y-55210000D01*
X95470000Y-50020000D02*
X98230000Y-50020000D01*
X95470000Y-55210000D02*
X98230000Y-55210000D01*
X98230000Y-50020000D02*
X98230000Y-55210000D01*
%TO.C,J13*%
X43380000Y-44740000D02*
X52960000Y-44740000D01*
X52960000Y-44740000D02*
X52960000Y-97960000D01*
X52960000Y-97960000D02*
X43380000Y-97960000D01*
X53421325Y-87970000D02*
X53854338Y-87720000D01*
X53854338Y-87720000D02*
X53854338Y-88220000D01*
X53854338Y-88220000D02*
X53421325Y-87970000D01*
%TO.C,C5*%
X95219225Y-69899000D02*
X95719225Y-69899000D01*
X95469225Y-69649000D02*
X95469225Y-70149000D01*
X98024000Y-68794000D02*
X98024000Y-73954000D01*
X98064000Y-68794000D02*
X98064000Y-73954000D01*
X98104000Y-68795000D02*
X98104000Y-73953000D01*
X98144000Y-68797000D02*
X98144000Y-73951000D01*
X98184000Y-68799000D02*
X98184000Y-73949000D01*
X98224000Y-68802000D02*
X98224000Y-73946000D01*
X98264000Y-68805000D02*
X98264000Y-70334000D01*
X98264000Y-72414000D02*
X98264000Y-73943000D01*
X98304000Y-68809000D02*
X98304000Y-70334000D01*
X98304000Y-72414000D02*
X98304000Y-73939000D01*
X98344000Y-68814000D02*
X98344000Y-70334000D01*
X98344000Y-72414000D02*
X98344000Y-73934000D01*
X98384000Y-68819000D02*
X98384000Y-70334000D01*
X98384000Y-72414000D02*
X98384000Y-73929000D01*
X98424000Y-68825000D02*
X98424000Y-70334000D01*
X98424000Y-72414000D02*
X98424000Y-73923000D01*
X98464000Y-68831000D02*
X98464000Y-70334000D01*
X98464000Y-72414000D02*
X98464000Y-73917000D01*
X98504000Y-68838000D02*
X98504000Y-70334000D01*
X98504000Y-72414000D02*
X98504000Y-73910000D01*
X98544000Y-68846000D02*
X98544000Y-70334000D01*
X98544000Y-72414000D02*
X98544000Y-73902000D01*
X98584000Y-68855000D02*
X98584000Y-70334000D01*
X98584000Y-72414000D02*
X98584000Y-73893000D01*
X98624000Y-68864000D02*
X98624000Y-70334000D01*
X98624000Y-72414000D02*
X98624000Y-73884000D01*
X98664000Y-68873000D02*
X98664000Y-70334000D01*
X98664000Y-72414000D02*
X98664000Y-73875000D01*
X98704000Y-68884000D02*
X98704000Y-70334000D01*
X98704000Y-72414000D02*
X98704000Y-73864000D01*
X98744000Y-68895000D02*
X98744000Y-70334000D01*
X98744000Y-72414000D02*
X98744000Y-73853000D01*
X98784000Y-68907000D02*
X98784000Y-70334000D01*
X98784000Y-72414000D02*
X98784000Y-73841000D01*
X98824000Y-68919000D02*
X98824000Y-70334000D01*
X98824000Y-72414000D02*
X98824000Y-73829000D01*
X98864000Y-68932000D02*
X98864000Y-70334000D01*
X98864000Y-72414000D02*
X98864000Y-73816000D01*
X98904000Y-68946000D02*
X98904000Y-70334000D01*
X98904000Y-72414000D02*
X98904000Y-73802000D01*
X98944000Y-68961000D02*
X98944000Y-70334000D01*
X98944000Y-72414000D02*
X98944000Y-73787000D01*
X98984000Y-68976000D02*
X98984000Y-70334000D01*
X98984000Y-72414000D02*
X98984000Y-73772000D01*
X99024000Y-68992000D02*
X99024000Y-70334000D01*
X99024000Y-72414000D02*
X99024000Y-73756000D01*
X99064000Y-69009000D02*
X99064000Y-70334000D01*
X99064000Y-72414000D02*
X99064000Y-73739000D01*
X99104000Y-69027000D02*
X99104000Y-70334000D01*
X99104000Y-72414000D02*
X99104000Y-73721000D01*
X99144000Y-69045000D02*
X99144000Y-70334000D01*
X99144000Y-72414000D02*
X99144000Y-73703000D01*
X99184000Y-69065000D02*
X99184000Y-70334000D01*
X99184000Y-72414000D02*
X99184000Y-73683000D01*
X99224000Y-69085000D02*
X99224000Y-70334000D01*
X99224000Y-72414000D02*
X99224000Y-73663000D01*
X99264000Y-69106000D02*
X99264000Y-70334000D01*
X99264000Y-72414000D02*
X99264000Y-73642000D01*
X99304000Y-69128000D02*
X99304000Y-70334000D01*
X99304000Y-72414000D02*
X99304000Y-73620000D01*
X99344000Y-69151000D02*
X99344000Y-70334000D01*
X99344000Y-72414000D02*
X99344000Y-73597000D01*
X99384000Y-69175000D02*
X99384000Y-70334000D01*
X99384000Y-72414000D02*
X99384000Y-73573000D01*
X99424000Y-69199000D02*
X99424000Y-70334000D01*
X99424000Y-72414000D02*
X99424000Y-73549000D01*
X99464000Y-69225000D02*
X99464000Y-70334000D01*
X99464000Y-72414000D02*
X99464000Y-73523000D01*
X99504000Y-69252000D02*
X99504000Y-70334000D01*
X99504000Y-72414000D02*
X99504000Y-73496000D01*
X99544000Y-69280000D02*
X99544000Y-70334000D01*
X99544000Y-72414000D02*
X99544000Y-73468000D01*
X99584000Y-69309000D02*
X99584000Y-70334000D01*
X99584000Y-72414000D02*
X99584000Y-73439000D01*
X99624000Y-69339000D02*
X99624000Y-70334000D01*
X99624000Y-72414000D02*
X99624000Y-73409000D01*
X99664000Y-69371000D02*
X99664000Y-70334000D01*
X99664000Y-72414000D02*
X99664000Y-73377000D01*
X99704000Y-69404000D02*
X99704000Y-70334000D01*
X99704000Y-72414000D02*
X99704000Y-73344000D01*
X99744000Y-69438000D02*
X99744000Y-70334000D01*
X99744000Y-72414000D02*
X99744000Y-73310000D01*
X99784000Y-69473000D02*
X99784000Y-70334000D01*
X99784000Y-72414000D02*
X99784000Y-73275000D01*
X99824000Y-69510000D02*
X99824000Y-70334000D01*
X99824000Y-72414000D02*
X99824000Y-73238000D01*
X99864000Y-69549000D02*
X99864000Y-70334000D01*
X99864000Y-72414000D02*
X99864000Y-73199000D01*
X99904000Y-69589000D02*
X99904000Y-70334000D01*
X99904000Y-72414000D02*
X99904000Y-73159000D01*
X99944000Y-69631000D02*
X99944000Y-70334000D01*
X99944000Y-72414000D02*
X99944000Y-73117000D01*
X99984000Y-69675000D02*
X99984000Y-70334000D01*
X99984000Y-72414000D02*
X99984000Y-73073000D01*
X100024000Y-69722000D02*
X100024000Y-70334000D01*
X100024000Y-72414000D02*
X100024000Y-73026000D01*
X100064000Y-69770000D02*
X100064000Y-70334000D01*
X100064000Y-72414000D02*
X100064000Y-72978000D01*
X100104000Y-69821000D02*
X100104000Y-70334000D01*
X100104000Y-72414000D02*
X100104000Y-72927000D01*
X100144000Y-69875000D02*
X100144000Y-70334000D01*
X100144000Y-72414000D02*
X100144000Y-72873000D01*
X100184000Y-69931000D02*
X100184000Y-70334000D01*
X100184000Y-72414000D02*
X100184000Y-72817000D01*
X100224000Y-69991000D02*
X100224000Y-70334000D01*
X100224000Y-72414000D02*
X100224000Y-72757000D01*
X100264000Y-70055000D02*
X100264000Y-70334000D01*
X100264000Y-72414000D02*
X100264000Y-72693000D01*
X100304000Y-70123000D02*
X100304000Y-70334000D01*
X100304000Y-72414000D02*
X100304000Y-72625000D01*
X100344000Y-70197000D02*
X100344000Y-72551000D01*
X100384000Y-70276000D02*
X100384000Y-72472000D01*
X100424000Y-70363000D02*
X100424000Y-72385000D01*
X100464000Y-70460000D02*
X100464000Y-72288000D01*
X100504000Y-70569000D02*
X100504000Y-72179000D01*
X100544000Y-70697000D02*
X100544000Y-72051000D01*
X100584000Y-70857000D02*
X100584000Y-71891000D01*
X100624000Y-71091000D02*
X100624000Y-71657000D01*
X100644000Y-71374000D02*
G75*
G02*
X95404000Y-71374000I-2620000J0D01*
G01*
X95404000Y-71374000D02*
G75*
G02*
X100644000Y-71374000I2620000J0D01*
G01*
%TO.C,J4*%
X83030000Y-78130000D02*
X83030000Y-76750000D01*
X84410000Y-78130000D02*
X83030000Y-78130000D01*
X85680000Y-75370000D02*
X88330000Y-75370000D01*
X85680000Y-78130000D02*
X85680000Y-75370000D01*
X85680000Y-78130000D02*
X88330000Y-78130000D01*
X88330000Y-78130000D02*
X88330000Y-75370000D01*
%TO.C,RV2*%
X78470000Y-36120000D02*
X79850000Y-36120000D01*
X78470000Y-37500000D02*
X78470000Y-36120000D01*
X78470000Y-38770000D02*
X78470000Y-43960000D01*
X78470000Y-38770000D02*
X81230000Y-38770000D01*
X78470000Y-43960000D02*
X81230000Y-43960000D01*
X81230000Y-38770000D02*
X81230000Y-43960000D01*
%TO.C,J12*%
X86790000Y-104670000D02*
X88120000Y-104670000D01*
X86790000Y-106000000D02*
X86790000Y-104670000D01*
X89390000Y-104670000D02*
X94530000Y-104670000D01*
X89390000Y-107330000D02*
X89390000Y-104670000D01*
X89390000Y-107330000D02*
X94530000Y-107330000D01*
X94530000Y-107330000D02*
X94530000Y-104670000D01*
%TO.C,C6*%
X83770000Y-36210000D02*
X88930000Y-36210000D01*
X83770000Y-36250000D02*
X88930000Y-36250000D01*
X83771000Y-36170000D02*
X88929000Y-36170000D01*
X83773000Y-36130000D02*
X88927000Y-36130000D01*
X83775000Y-36090000D02*
X88925000Y-36090000D01*
X83778000Y-36050000D02*
X88922000Y-36050000D01*
X83781000Y-36010000D02*
X85310000Y-36010000D01*
X83785000Y-35970000D02*
X85310000Y-35970000D01*
X83790000Y-35930000D02*
X85310000Y-35930000D01*
X83795000Y-35890000D02*
X85310000Y-35890000D01*
X83801000Y-35850000D02*
X85310000Y-35850000D01*
X83807000Y-35810000D02*
X85310000Y-35810000D01*
X83814000Y-35770000D02*
X85310000Y-35770000D01*
X83822000Y-35730000D02*
X85310000Y-35730000D01*
X83831000Y-35690000D02*
X85310000Y-35690000D01*
X83840000Y-35650000D02*
X85310000Y-35650000D01*
X83849000Y-35610000D02*
X85310000Y-35610000D01*
X83860000Y-35570000D02*
X85310000Y-35570000D01*
X83871000Y-35530000D02*
X85310000Y-35530000D01*
X83883000Y-35490000D02*
X85310000Y-35490000D01*
X83895000Y-35450000D02*
X85310000Y-35450000D01*
X83908000Y-35410000D02*
X85310000Y-35410000D01*
X83922000Y-35370000D02*
X85310000Y-35370000D01*
X83937000Y-35330000D02*
X85310000Y-35330000D01*
X83952000Y-35290000D02*
X85310000Y-35290000D01*
X83968000Y-35250000D02*
X85310000Y-35250000D01*
X83985000Y-35210000D02*
X85310000Y-35210000D01*
X84003000Y-35170000D02*
X85310000Y-35170000D01*
X84021000Y-35130000D02*
X85310000Y-35130000D01*
X84041000Y-35090000D02*
X85310000Y-35090000D01*
X84061000Y-35050000D02*
X85310000Y-35050000D01*
X84082000Y-35010000D02*
X85310000Y-35010000D01*
X84104000Y-34970000D02*
X85310000Y-34970000D01*
X84127000Y-34930000D02*
X85310000Y-34930000D01*
X84151000Y-34890000D02*
X85310000Y-34890000D01*
X84175000Y-34850000D02*
X85310000Y-34850000D01*
X84201000Y-34810000D02*
X85310000Y-34810000D01*
X84228000Y-34770000D02*
X85310000Y-34770000D01*
X84256000Y-34730000D02*
X85310000Y-34730000D01*
X84285000Y-34690000D02*
X85310000Y-34690000D01*
X84315000Y-34650000D02*
X85310000Y-34650000D01*
X84347000Y-34610000D02*
X85310000Y-34610000D01*
X84380000Y-34570000D02*
X85310000Y-34570000D01*
X84414000Y-34530000D02*
X85310000Y-34530000D01*
X84449000Y-34490000D02*
X85310000Y-34490000D01*
X84486000Y-34450000D02*
X85310000Y-34450000D01*
X84525000Y-34410000D02*
X85310000Y-34410000D01*
X84565000Y-34370000D02*
X85310000Y-34370000D01*
X84607000Y-34330000D02*
X85310000Y-34330000D01*
X84625000Y-38804775D02*
X85125000Y-38804775D01*
X84651000Y-34290000D02*
X85310000Y-34290000D01*
X84698000Y-34250000D02*
X85310000Y-34250000D01*
X84746000Y-34210000D02*
X85310000Y-34210000D01*
X84797000Y-34170000D02*
X85310000Y-34170000D01*
X84851000Y-34130000D02*
X85310000Y-34130000D01*
X84875000Y-39054775D02*
X84875000Y-38554775D01*
X84907000Y-34090000D02*
X85310000Y-34090000D01*
X84967000Y-34050000D02*
X85310000Y-34050000D01*
X85031000Y-34010000D02*
X85310000Y-34010000D01*
X85099000Y-33970000D02*
X85310000Y-33970000D01*
X85173000Y-33930000D02*
X87527000Y-33930000D01*
X85252000Y-33890000D02*
X87448000Y-33890000D01*
X85339000Y-33850000D02*
X87361000Y-33850000D01*
X85436000Y-33810000D02*
X87264000Y-33810000D01*
X85545000Y-33770000D02*
X87155000Y-33770000D01*
X85673000Y-33730000D02*
X87027000Y-33730000D01*
X85833000Y-33690000D02*
X86867000Y-33690000D01*
X86067000Y-33650000D02*
X86633000Y-33650000D01*
X87390000Y-33970000D02*
X87601000Y-33970000D01*
X87390000Y-34010000D02*
X87669000Y-34010000D01*
X87390000Y-34050000D02*
X87733000Y-34050000D01*
X87390000Y-34090000D02*
X87793000Y-34090000D01*
X87390000Y-34130000D02*
X87849000Y-34130000D01*
X87390000Y-34170000D02*
X87903000Y-34170000D01*
X87390000Y-34210000D02*
X87954000Y-34210000D01*
X87390000Y-34250000D02*
X88002000Y-34250000D01*
X87390000Y-34290000D02*
X88049000Y-34290000D01*
X87390000Y-34330000D02*
X88093000Y-34330000D01*
X87390000Y-34370000D02*
X88135000Y-34370000D01*
X87390000Y-34410000D02*
X88175000Y-34410000D01*
X87390000Y-34450000D02*
X88214000Y-34450000D01*
X87390000Y-34490000D02*
X88251000Y-34490000D01*
X87390000Y-34530000D02*
X88286000Y-34530000D01*
X87390000Y-34570000D02*
X88320000Y-34570000D01*
X87390000Y-34610000D02*
X88353000Y-34610000D01*
X87390000Y-34650000D02*
X88385000Y-34650000D01*
X87390000Y-34690000D02*
X88415000Y-34690000D01*
X87390000Y-34730000D02*
X88444000Y-34730000D01*
X87390000Y-34770000D02*
X88472000Y-34770000D01*
X87390000Y-34810000D02*
X88499000Y-34810000D01*
X87390000Y-34850000D02*
X88525000Y-34850000D01*
X87390000Y-34890000D02*
X88549000Y-34890000D01*
X87390000Y-34930000D02*
X88573000Y-34930000D01*
X87390000Y-34970000D02*
X88596000Y-34970000D01*
X87390000Y-35010000D02*
X88618000Y-35010000D01*
X87390000Y-35050000D02*
X88639000Y-35050000D01*
X87390000Y-35090000D02*
X88659000Y-35090000D01*
X87390000Y-35130000D02*
X88679000Y-35130000D01*
X87390000Y-35170000D02*
X88697000Y-35170000D01*
X87390000Y-35210000D02*
X88715000Y-35210000D01*
X87390000Y-35250000D02*
X88732000Y-35250000D01*
X87390000Y-35290000D02*
X88748000Y-35290000D01*
X87390000Y-35330000D02*
X88763000Y-35330000D01*
X87390000Y-35370000D02*
X88778000Y-35370000D01*
X87390000Y-35410000D02*
X88792000Y-35410000D01*
X87390000Y-35450000D02*
X88805000Y-35450000D01*
X87390000Y-35490000D02*
X88817000Y-35490000D01*
X87390000Y-35530000D02*
X88829000Y-35530000D01*
X87390000Y-35570000D02*
X88840000Y-35570000D01*
X87390000Y-35610000D02*
X88851000Y-35610000D01*
X87390000Y-35650000D02*
X88860000Y-35650000D01*
X87390000Y-35690000D02*
X88869000Y-35690000D01*
X87390000Y-35730000D02*
X88878000Y-35730000D01*
X87390000Y-35770000D02*
X88886000Y-35770000D01*
X87390000Y-35810000D02*
X88893000Y-35810000D01*
X87390000Y-35850000D02*
X88899000Y-35850000D01*
X87390000Y-35890000D02*
X88905000Y-35890000D01*
X87390000Y-35930000D02*
X88910000Y-35930000D01*
X87390000Y-35970000D02*
X88915000Y-35970000D01*
X87390000Y-36010000D02*
X88919000Y-36010000D01*
X88970000Y-36250000D02*
G75*
G02*
X83730000Y-36250000I-2620000J0D01*
G01*
X83730000Y-36250000D02*
G75*
G02*
X88970000Y-36250000I2620000J0D01*
G01*
D14*
%TO.C,G\u002A\u002A\u002A*%
G36*
X101890522Y-98620066D02*
G01*
X101890522Y-100570720D01*
X101786764Y-100570720D01*
X101683006Y-100570720D01*
X101683006Y-98620066D01*
X101683006Y-96669413D01*
X101786764Y-96669413D01*
X101890522Y-96669413D01*
X101890522Y-98620066D01*
G37*
G36*
X102215776Y-91717010D02*
G01*
X102222548Y-91751275D01*
X102201489Y-91802929D01*
X102177932Y-91805576D01*
X102135052Y-91762728D01*
X102133316Y-91751275D01*
X102165627Y-91702611D01*
X102177932Y-91696975D01*
X102215776Y-91717010D01*
G37*
G36*
X103122029Y-92586675D02*
G01*
X103127665Y-92598980D01*
X103107631Y-92636824D01*
X103073365Y-92643596D01*
X103021711Y-92622537D01*
X103019065Y-92598980D01*
X103061912Y-92556100D01*
X103073365Y-92554364D01*
X103122029Y-92586675D01*
G37*
G36*
X103135124Y-94404691D02*
G01*
X103200318Y-94447668D01*
X103251638Y-94491420D01*
X103234438Y-94507273D01*
X103166747Y-94509923D01*
X103075334Y-94491114D01*
X103052613Y-94448988D01*
X103072565Y-94393417D01*
X103135124Y-94404691D01*
G37*
G36*
X101897345Y-105356651D02*
G01*
X101932171Y-105394418D01*
X101904356Y-105440437D01*
X101837415Y-105467963D01*
X101747179Y-105467325D01*
X101669932Y-105443298D01*
X101641502Y-105405851D01*
X101673002Y-105359806D01*
X101773534Y-105343708D01*
X101786764Y-105343596D01*
X101897345Y-105356651D01*
G37*
G36*
X102589944Y-91737989D02*
G01*
X102665080Y-91757077D01*
X102679084Y-91772027D01*
X102641757Y-91795702D01*
X102546318Y-91810730D01*
X102471568Y-91813530D01*
X102353191Y-91806065D01*
X102278055Y-91786977D01*
X102264051Y-91772027D01*
X102301378Y-91748352D01*
X102396817Y-91733325D01*
X102471568Y-91730524D01*
X102589944Y-91737989D01*
G37*
G36*
X103503016Y-92568055D02*
G01*
X103578152Y-92587142D01*
X103592156Y-92602092D01*
X103554829Y-92625768D01*
X103459390Y-92640795D01*
X103384640Y-92643596D01*
X103266263Y-92636130D01*
X103191127Y-92617043D01*
X103177123Y-92602092D01*
X103214450Y-92578417D01*
X103309889Y-92563390D01*
X103384640Y-92560589D01*
X103503016Y-92568055D01*
G37*
G36*
X104334925Y-90449787D02*
G01*
X104431442Y-90465321D01*
X104463725Y-90485426D01*
X104425608Y-90507114D01*
X104324636Y-90521962D01*
X104193953Y-90526929D01*
X104052982Y-90521065D01*
X103956465Y-90505531D01*
X103924182Y-90485426D01*
X103962298Y-90463738D01*
X104063270Y-90448889D01*
X104193953Y-90443922D01*
X104334925Y-90449787D01*
G37*
G36*
X104425742Y-92824633D02*
G01*
X104459786Y-92850045D01*
X104463725Y-92871864D01*
X104449462Y-92907241D01*
X104395475Y-92925281D01*
X104284967Y-92929417D01*
X104193953Y-92927007D01*
X104044526Y-92914979D01*
X103949936Y-92893686D01*
X103924182Y-92871864D01*
X103963059Y-92845401D01*
X104069336Y-92825635D01*
X104193953Y-92816720D01*
X104342730Y-92814669D01*
X104425742Y-92824633D01*
G37*
G36*
X102430064Y-98592397D02*
G01*
X102429485Y-98984186D01*
X102427825Y-99350346D01*
X102425204Y-99682560D01*
X102421738Y-99972506D01*
X102417546Y-100211863D01*
X102412746Y-100392312D01*
X102407456Y-100505532D01*
X102402396Y-100543051D01*
X102343008Y-100564889D01*
X102277886Y-100570720D01*
X102181045Y-100570720D01*
X102181045Y-98620066D01*
X102181045Y-96669413D01*
X102305555Y-96669413D01*
X102430064Y-96669413D01*
X102430064Y-98592397D01*
G37*
G36*
X104148033Y-93036941D02*
G01*
X104152450Y-93062087D01*
X104191739Y-93108666D01*
X104304937Y-93133497D01*
X104308087Y-93133764D01*
X104422621Y-93153087D01*
X104460465Y-93179893D01*
X104426408Y-93205800D01*
X104325234Y-93222421D01*
X104256208Y-93224641D01*
X104133380Y-93222011D01*
X104072132Y-93205312D01*
X104051044Y-93161336D01*
X104048692Y-93096673D01*
X104062709Y-93003886D01*
X104100571Y-92985998D01*
X104148033Y-93036941D01*
G37*
G36*
X100428428Y-94266102D02*
G01*
X100459364Y-94289397D01*
X100474289Y-94349590D01*
X100479029Y-94464168D01*
X100479411Y-94573498D01*
X100479411Y-94884772D01*
X99877613Y-94884772D01*
X99275816Y-94884772D01*
X99275816Y-94760262D01*
X99275816Y-94635753D01*
X99773855Y-94635753D01*
X100271894Y-94635753D01*
X100271894Y-94448988D01*
X100276195Y-94333739D01*
X100297334Y-94279136D01*
X100347667Y-94262936D01*
X100375653Y-94262223D01*
X100428428Y-94266102D01*
G37*
G36*
X102347648Y-91404817D02*
G01*
X102359083Y-91440001D01*
X102396784Y-91498996D01*
X102483113Y-91521595D01*
X102529937Y-91523007D01*
X102627483Y-91533179D01*
X102677390Y-91558272D01*
X102679084Y-91564511D01*
X102641757Y-91588186D01*
X102546318Y-91603213D01*
X102471568Y-91606014D01*
X102348723Y-91603294D01*
X102287465Y-91586568D01*
X102266381Y-91542990D01*
X102264051Y-91481504D01*
X102278150Y-91387145D01*
X102310825Y-91359482D01*
X102347648Y-91404817D01*
G37*
G36*
X102347648Y-93023444D02*
G01*
X102359083Y-93058628D01*
X102396784Y-93117624D01*
X102483113Y-93140223D01*
X102529937Y-93141635D01*
X102627483Y-93151807D01*
X102677390Y-93176899D01*
X102679084Y-93183138D01*
X102641757Y-93206813D01*
X102546318Y-93221841D01*
X102471568Y-93224641D01*
X102348723Y-93221921D01*
X102287465Y-93205196D01*
X102266381Y-93161618D01*
X102264051Y-93100132D01*
X102278150Y-93005772D01*
X102310825Y-92978109D01*
X102347648Y-93023444D01*
G37*
G36*
X103330774Y-96663974D02*
G01*
X103343133Y-96750870D01*
X103343136Y-96752419D01*
X103343136Y-96876929D01*
X103094117Y-96876929D01*
X102961475Y-96870628D01*
X102871548Y-96854169D01*
X102845097Y-96835426D01*
X102882424Y-96811750D01*
X102977863Y-96796723D01*
X103052613Y-96793922D01*
X103177083Y-96789552D01*
X103239160Y-96771003D01*
X103259242Y-96730115D01*
X103260130Y-96710916D01*
X103277510Y-96643475D01*
X103301633Y-96627909D01*
X103330774Y-96663974D01*
G37*
G36*
X101139952Y-103269686D02*
G01*
X101255608Y-103275607D01*
X101319065Y-103289438D01*
X101345720Y-103314420D01*
X101350979Y-103351439D01*
X101345026Y-103390018D01*
X101316899Y-103414367D01*
X101251203Y-103427727D01*
X101132539Y-103433338D01*
X100956698Y-103434445D01*
X100773445Y-103433192D01*
X100657789Y-103427271D01*
X100594332Y-103413440D01*
X100567676Y-103388458D01*
X100562417Y-103351439D01*
X100568371Y-103312859D01*
X100596497Y-103288510D01*
X100662194Y-103275151D01*
X100780857Y-103269539D01*
X100956698Y-103268432D01*
X101139952Y-103269686D01*
G37*
G36*
X101150080Y-105969036D02*
G01*
X101272372Y-105978808D01*
X101335328Y-105997112D01*
X101350979Y-106021482D01*
X101332544Y-106092068D01*
X101323311Y-106104489D01*
X101271918Y-106116872D01*
X101158150Y-106126392D01*
X101002624Y-106131602D01*
X100929030Y-106132158D01*
X100753523Y-106130721D01*
X100645067Y-106124006D01*
X100587723Y-106108402D01*
X100565552Y-106080302D01*
X100562417Y-106049151D01*
X100568371Y-106010572D01*
X100596497Y-105986223D01*
X100662194Y-105972863D01*
X100780857Y-105967252D01*
X100956698Y-105966145D01*
X101150080Y-105969036D01*
G37*
G36*
X102190200Y-103228242D02*
G01*
X102301187Y-103234545D01*
X102360720Y-103249381D01*
X102384568Y-103276294D01*
X102388561Y-103311551D01*
X102383102Y-103351974D01*
X102356007Y-103376089D01*
X102291197Y-103387116D01*
X102172595Y-103388274D01*
X102025875Y-103384182D01*
X101847675Y-103375925D01*
X101736546Y-103363119D01*
X101676558Y-103342184D01*
X101651780Y-103309542D01*
X101649302Y-103299560D01*
X101650894Y-103265073D01*
X101681589Y-103243544D01*
X101756195Y-103232008D01*
X101889526Y-103227498D01*
X102011989Y-103226929D01*
X102190200Y-103228242D01*
G37*
G36*
X102662332Y-94589841D02*
G01*
X102677180Y-94683696D01*
X102679084Y-94739511D01*
X102679084Y-94926275D01*
X102409313Y-94926275D01*
X102257994Y-94922119D01*
X102173890Y-94907268D01*
X102141517Y-94878149D01*
X102139542Y-94864021D01*
X102160035Y-94826477D01*
X102231945Y-94807148D01*
X102367809Y-94801766D01*
X102498307Y-94799675D01*
X102566230Y-94785973D01*
X102592009Y-94749516D01*
X102596077Y-94679160D01*
X102596077Y-94677256D01*
X102608099Y-94589833D01*
X102637064Y-94552756D01*
X102637581Y-94552746D01*
X102662332Y-94589841D01*
G37*
G36*
X102938206Y-101801301D02*
G01*
X102948437Y-101815141D01*
X103002469Y-101840774D01*
X103107886Y-101855737D01*
X103158821Y-101857321D01*
X103281030Y-101865680D01*
X103336150Y-101894030D01*
X103343136Y-101919576D01*
X103318694Y-101960609D01*
X103235586Y-101979300D01*
X103156372Y-101981831D01*
X103044990Y-101990074D01*
X102978177Y-102010931D01*
X102969607Y-102023334D01*
X102935991Y-102060155D01*
X102907352Y-102064838D01*
X102857857Y-102027836D01*
X102845097Y-101942777D01*
X102859694Y-101843063D01*
X102894982Y-101790653D01*
X102938206Y-101801301D01*
G37*
G36*
X103242837Y-89520475D02*
G01*
X103297659Y-89557616D01*
X103390548Y-89572354D01*
X103476212Y-89560068D01*
X103485070Y-89525466D01*
X103485341Y-89493389D01*
X103511154Y-89496933D01*
X103574801Y-89548013D01*
X103566730Y-89617209D01*
X103541659Y-89643917D01*
X103443207Y-89686860D01*
X103304642Y-89709482D01*
X103167357Y-89707177D01*
X103104492Y-89692553D01*
X103028659Y-89645549D01*
X103017082Y-89598903D01*
X103072127Y-89573179D01*
X103090658Y-89572354D01*
X103168752Y-89548427D01*
X103194416Y-89520475D01*
X103221673Y-89489953D01*
X103242837Y-89520475D01*
G37*
G36*
X102672075Y-92343168D02*
G01*
X102676660Y-92411303D01*
X102653579Y-92475984D01*
X102627205Y-92496556D01*
X102492463Y-92524899D01*
X102350580Y-92533952D01*
X102238373Y-92522287D01*
X102212172Y-92512656D01*
X102150365Y-92459819D01*
X102147921Y-92412379D01*
X102198338Y-92394576D01*
X102267309Y-92362836D01*
X102281344Y-92342697D01*
X102308601Y-92312175D01*
X102329765Y-92342697D01*
X102379212Y-92377261D01*
X102463333Y-92392971D01*
X102546735Y-92388450D01*
X102594029Y-92362318D01*
X102596077Y-92353073D01*
X102627660Y-92312776D01*
X102637581Y-92311570D01*
X102672075Y-92343168D01*
G37*
G36*
X104456715Y-91056567D02*
G01*
X104461300Y-91124701D01*
X104438220Y-91189382D01*
X104411845Y-91209954D01*
X104277104Y-91238298D01*
X104135220Y-91247351D01*
X104023014Y-91235686D01*
X103996813Y-91226055D01*
X103935006Y-91173218D01*
X103932562Y-91125778D01*
X103982978Y-91107975D01*
X104051949Y-91076235D01*
X104065985Y-91056096D01*
X104093241Y-91025574D01*
X104114405Y-91056096D01*
X104163853Y-91090659D01*
X104247974Y-91106370D01*
X104331376Y-91101848D01*
X104378669Y-91075716D01*
X104380718Y-91066472D01*
X104412301Y-91026174D01*
X104422221Y-91024968D01*
X104456715Y-91056567D01*
G37*
G36*
X103210465Y-103066951D02*
G01*
X103292852Y-103089520D01*
X103338399Y-103135320D01*
X103341676Y-103141194D01*
X103377889Y-103216235D01*
X103373184Y-103259069D01*
X103334836Y-103301635D01*
X103270410Y-103331170D01*
X103165998Y-103348039D01*
X103047180Y-103352353D01*
X102939540Y-103344223D01*
X102868658Y-103323759D01*
X102855259Y-103299560D01*
X102903122Y-103266130D01*
X103006055Y-103238754D01*
X103076609Y-103229428D01*
X103280881Y-103211175D01*
X103076583Y-103187924D01*
X102928740Y-103160244D01*
X102858091Y-103125267D01*
X102865181Y-103091502D01*
X102950556Y-103067456D01*
X103068446Y-103060916D01*
X103210465Y-103066951D01*
G37*
G36*
X103330774Y-101187831D02*
G01*
X103343133Y-101274726D01*
X103343136Y-101276275D01*
X103343136Y-101400785D01*
X103094117Y-101400785D01*
X102845097Y-101400785D01*
X102845097Y-101276275D01*
X102863658Y-101177426D01*
X102907352Y-101151766D01*
X102958052Y-101186367D01*
X102969607Y-101234772D01*
X102986987Y-101302214D01*
X103011110Y-101317779D01*
X103047931Y-101284163D01*
X103052613Y-101255524D01*
X103072665Y-101200259D01*
X103089676Y-101193269D01*
X103135047Y-101226298D01*
X103150629Y-101255524D01*
X103197082Y-101313071D01*
X103243324Y-101298768D01*
X103260130Y-101234772D01*
X103277510Y-101167331D01*
X103301633Y-101151766D01*
X103330774Y-101187831D01*
G37*
G36*
X103242331Y-93156746D02*
G01*
X103261052Y-93234978D01*
X103261053Y-93235017D01*
X103261975Y-93328400D01*
X103337160Y-93230645D01*
X103425411Y-93158211D01*
X103510204Y-93154023D01*
X103569977Y-93214809D01*
X103583685Y-93268053D01*
X103582557Y-93358575D01*
X103566392Y-93402584D01*
X103505313Y-93432587D01*
X103475114Y-93393919D01*
X103479661Y-93349193D01*
X103484654Y-93267110D01*
X103453140Y-93250738D01*
X103404433Y-93304350D01*
X103391598Y-93329701D01*
X103336649Y-93405787D01*
X103283833Y-93432158D01*
X103210400Y-93396485D01*
X103166339Y-93311192D01*
X103166639Y-93218747D01*
X103203382Y-93150047D01*
X103242331Y-93156746D01*
G37*
G36*
X103545464Y-89793829D02*
G01*
X103584376Y-89826466D01*
X103551677Y-89863923D01*
X103449747Y-89892342D01*
X103412559Y-89896510D01*
X103295558Y-89922679D01*
X103253665Y-89964120D01*
X103285208Y-90004556D01*
X103388518Y-90027709D01*
X103426143Y-90028890D01*
X103530101Y-90038095D01*
X103587923Y-90061090D01*
X103592156Y-90070393D01*
X103554880Y-90094307D01*
X103459788Y-90109306D01*
X103389478Y-90111896D01*
X103266557Y-90107601D01*
X103202718Y-90087169D01*
X103174176Y-90039282D01*
X103166517Y-90005795D01*
X103176085Y-89887721D01*
X103255564Y-89811752D01*
X103401834Y-89780536D01*
X103432566Y-89779870D01*
X103545464Y-89793829D01*
G37*
G36*
X103532082Y-91699543D02*
G01*
X103586208Y-91724368D01*
X103566597Y-91753385D01*
X103470014Y-91776482D01*
X103436519Y-91779898D01*
X103320156Y-91804591D01*
X103280898Y-91853723D01*
X103280881Y-91855034D01*
X103318539Y-91904695D01*
X103433247Y-91929892D01*
X103436519Y-91930170D01*
X103551071Y-91949679D01*
X103588752Y-91976828D01*
X103554068Y-92002909D01*
X103451528Y-92019211D01*
X103389478Y-92021047D01*
X103266127Y-92016489D01*
X103202099Y-91995765D01*
X103173896Y-91948302D01*
X103167722Y-91921245D01*
X103166892Y-91796813D01*
X103226464Y-91722045D01*
X103352760Y-91690818D01*
X103407453Y-91689021D01*
X103532082Y-91699543D01*
G37*
G36*
X103532082Y-93525687D02*
G01*
X103586208Y-93550512D01*
X103566597Y-93579529D01*
X103470014Y-93602625D01*
X103436519Y-93606041D01*
X103320156Y-93630735D01*
X103280898Y-93679867D01*
X103280881Y-93681177D01*
X103318539Y-93730839D01*
X103433247Y-93756036D01*
X103436519Y-93756313D01*
X103551071Y-93775823D01*
X103588752Y-93802972D01*
X103554068Y-93829052D01*
X103451528Y-93845354D01*
X103389478Y-93847190D01*
X103266127Y-93842633D01*
X103202099Y-93821909D01*
X103173896Y-93774446D01*
X103167722Y-93747389D01*
X103166892Y-93622957D01*
X103226464Y-93548189D01*
X103352760Y-93516962D01*
X103407453Y-93515164D01*
X103532082Y-93525687D01*
G37*
G36*
X102588707Y-91925947D02*
G01*
X102661789Y-91998801D01*
X102683767Y-92092033D01*
X102647592Y-92182578D01*
X102575326Y-92236115D01*
X102460308Y-92258041D01*
X102453255Y-92259386D01*
X102345069Y-92227122D01*
X102276102Y-92151013D01*
X102264051Y-92092492D01*
X102270537Y-92068293D01*
X102347058Y-92068293D01*
X102381752Y-92116392D01*
X102460308Y-92139847D01*
X102533823Y-92130548D01*
X102588760Y-92089092D01*
X102596077Y-92068293D01*
X102563017Y-92021750D01*
X102533823Y-92006038D01*
X102448178Y-91998051D01*
X102373431Y-92025698D01*
X102347058Y-92068293D01*
X102270537Y-92068293D01*
X102296235Y-91972416D01*
X102389524Y-91907302D01*
X102471568Y-91896537D01*
X102588707Y-91925947D01*
G37*
G36*
X102588707Y-93337058D02*
G01*
X102661789Y-93409912D01*
X102683767Y-93503144D01*
X102647592Y-93593689D01*
X102575326Y-93647226D01*
X102460554Y-93669106D01*
X102453255Y-93670497D01*
X102345069Y-93638233D01*
X102276102Y-93562124D01*
X102264051Y-93503603D01*
X102270978Y-93477760D01*
X102347058Y-93477760D01*
X102381759Y-93527180D01*
X102460554Y-93551089D01*
X102533823Y-93541659D01*
X102590982Y-93491189D01*
X102576932Y-93429777D01*
X102554203Y-93411177D01*
X102484959Y-93400944D01*
X102403570Y-93422635D01*
X102351061Y-93463063D01*
X102347058Y-93477760D01*
X102270978Y-93477760D01*
X102296235Y-93383527D01*
X102389524Y-93318413D01*
X102471568Y-93307648D01*
X102588707Y-93337058D01*
G37*
G36*
X104433058Y-91332161D02*
G01*
X104468864Y-91370702D01*
X104436193Y-91413914D01*
X104337424Y-91444595D01*
X104308087Y-91447871D01*
X104207970Y-91465947D01*
X104154975Y-91494604D01*
X104152450Y-91502256D01*
X104189162Y-91531992D01*
X104280175Y-91553657D01*
X104308087Y-91556640D01*
X104424697Y-91581478D01*
X104463719Y-91630805D01*
X104463725Y-91631545D01*
X104444272Y-91669401D01*
X104374529Y-91683758D01*
X104266584Y-91680919D01*
X104146676Y-91668998D01*
X104086230Y-91643403D01*
X104061715Y-91589071D01*
X104055507Y-91545806D01*
X104073725Y-91422268D01*
X104159783Y-91344798D01*
X104311010Y-91315666D01*
X104326396Y-91315491D01*
X104433058Y-91332161D01*
G37*
G36*
X103142928Y-103774311D02*
G01*
X103255665Y-103787346D01*
X103310146Y-103817510D01*
X103331101Y-103883794D01*
X103335390Y-103922109D01*
X103348395Y-104056994D01*
X103114868Y-104056994D01*
X103096746Y-104056994D01*
X102957707Y-104054684D01*
X102882310Y-104042696D01*
X102851219Y-104013451D01*
X102845098Y-103959363D01*
X102845097Y-103958318D01*
X102856809Y-103914064D01*
X103019719Y-103914064D01*
X103069604Y-103920942D01*
X103114868Y-103922018D01*
X103200286Y-103918677D01*
X103222332Y-103909272D01*
X103208735Y-103903969D01*
X103109067Y-103896238D01*
X103042721Y-103903131D01*
X103019719Y-103914064D01*
X102856809Y-103914064D01*
X102874429Y-103847490D01*
X102965153Y-103786561D01*
X103121360Y-103773004D01*
X103142928Y-103774311D01*
G37*
G36*
X103257071Y-98099129D02*
G01*
X103356749Y-98153161D01*
X103384640Y-98225785D01*
X103358022Y-98292773D01*
X103334836Y-98321243D01*
X103265774Y-98351032D01*
X103148689Y-98368828D01*
X103094117Y-98370844D01*
X103088613Y-98371047D01*
X102960838Y-98363618D01*
X102893320Y-98336249D01*
X102867704Y-98293887D01*
X102860315Y-98227510D01*
X102981066Y-98227510D01*
X103033211Y-98234022D01*
X103094117Y-98235233D01*
X103183882Y-98231995D01*
X103208524Y-98223717D01*
X103187499Y-98217247D01*
X103066559Y-98210380D01*
X103000734Y-98217247D01*
X102981066Y-98227510D01*
X102860315Y-98227510D01*
X102855169Y-98181286D01*
X102907263Y-98112460D01*
X103028969Y-98082634D01*
X103090256Y-98080524D01*
X103257071Y-98099129D01*
G37*
G36*
X103266301Y-97394969D02*
G01*
X103360027Y-97451538D01*
X103384640Y-97520230D01*
X103358022Y-97587218D01*
X103334836Y-97615687D01*
X103265774Y-97645477D01*
X103148689Y-97663273D01*
X103094117Y-97665288D01*
X103088613Y-97665491D01*
X102963181Y-97658880D01*
X102896448Y-97633040D01*
X102865217Y-97580493D01*
X102864954Y-97521955D01*
X102981066Y-97521955D01*
X103033211Y-97528467D01*
X103094117Y-97529677D01*
X103183882Y-97526440D01*
X103208524Y-97518162D01*
X103187499Y-97511691D01*
X103066559Y-97504825D01*
X103000734Y-97511691D01*
X102981066Y-97521955D01*
X102864954Y-97521955D01*
X102864747Y-97476037D01*
X102936224Y-97406387D01*
X103074349Y-97375961D01*
X103111650Y-97374968D01*
X103266301Y-97394969D01*
G37*
G36*
X100479411Y-92768105D02*
G01*
X100479411Y-92892615D01*
X100126633Y-92892615D01*
X99955102Y-92894160D01*
X99850327Y-92901340D01*
X99796078Y-92917974D01*
X99776124Y-92947882D01*
X99773855Y-92975622D01*
X99780420Y-93015982D01*
X99810935Y-93040635D01*
X99881631Y-93053400D01*
X100008739Y-93058095D01*
X100126633Y-93058628D01*
X100479411Y-93058628D01*
X100479411Y-93183138D01*
X100479411Y-93307648D01*
X100028155Y-93307648D01*
X99576900Y-93307648D01*
X99556367Y-93093960D01*
X99547957Y-92956468D01*
X99549490Y-92845183D01*
X99554604Y-92808497D01*
X99606661Y-92732050D01*
X99720428Y-92680361D01*
X99902477Y-92651541D01*
X100128586Y-92643596D01*
X100479411Y-92643596D01*
X100479411Y-92768105D01*
G37*
G36*
X102993580Y-100294623D02*
G01*
X102990490Y-100362789D01*
X102990359Y-100363204D01*
X102982937Y-100429024D01*
X102998330Y-100446210D01*
X103044579Y-100415009D01*
X103084485Y-100363204D01*
X103165185Y-100293528D01*
X103259248Y-100289467D01*
X103336421Y-100351341D01*
X103341676Y-100360475D01*
X103377889Y-100435516D01*
X103373184Y-100478350D01*
X103334836Y-100520916D01*
X103264650Y-100567741D01*
X103227311Y-100547794D01*
X103230652Y-100487713D01*
X103238294Y-100419206D01*
X103205221Y-100415548D01*
X103126565Y-100476951D01*
X103109279Y-100492964D01*
X103015788Y-100544710D01*
X102927957Y-100540577D01*
X102865803Y-100494169D01*
X102849344Y-100419093D01*
X102887039Y-100341923D01*
X102953284Y-100286471D01*
X102993580Y-100294623D01*
G37*
G36*
X101128291Y-96674686D02*
G01*
X101170061Y-96699161D01*
X101203037Y-96755818D01*
X101232620Y-96857640D01*
X101264210Y-97017607D01*
X101296592Y-97208498D01*
X101317266Y-97363419D01*
X101334734Y-97561714D01*
X101349333Y-97810861D01*
X101361402Y-98118336D01*
X101371277Y-98491617D01*
X101379297Y-98938181D01*
X101381384Y-99086978D01*
X101401060Y-100570720D01*
X101293013Y-100570720D01*
X101184966Y-100570720D01*
X101184819Y-99585017D01*
X101181154Y-99093509D01*
X101170694Y-98623977D01*
X101154016Y-98184952D01*
X101131697Y-97784963D01*
X101104315Y-97432542D01*
X101072448Y-97136217D01*
X101036672Y-96904520D01*
X100997566Y-96745980D01*
X100991466Y-96729080D01*
X100999516Y-96682673D01*
X101072327Y-96669413D01*
X101128291Y-96674686D01*
G37*
G36*
X103570934Y-93954639D02*
G01*
X103589625Y-94037747D01*
X103592156Y-94116962D01*
X103592156Y-94303726D01*
X103322385Y-94303726D01*
X103052613Y-94303726D01*
X103052613Y-94116962D01*
X103060857Y-94005580D01*
X103081713Y-93938767D01*
X103094117Y-93930197D01*
X103123257Y-93966262D01*
X103135617Y-94053158D01*
X103135620Y-94054707D01*
X103147642Y-94142129D01*
X103176607Y-94179207D01*
X103177123Y-94179217D01*
X103213944Y-94145601D01*
X103218626Y-94116962D01*
X103251848Y-94061938D01*
X103280881Y-94054707D01*
X103335905Y-94087929D01*
X103343136Y-94116962D01*
X103376358Y-94171985D01*
X103405391Y-94179217D01*
X103454816Y-94142095D01*
X103467646Y-94054707D01*
X103486207Y-93955858D01*
X103529901Y-93930197D01*
X103570934Y-93954639D01*
G37*
G36*
X101796666Y-103458245D02*
G01*
X101807515Y-103493657D01*
X101822417Y-103528806D01*
X101877819Y-103548945D01*
X101989768Y-103557682D01*
X102098038Y-103558955D01*
X102250717Y-103561195D01*
X102338184Y-103571294D01*
X102378189Y-103594323D01*
X102388480Y-103635354D01*
X102388561Y-103641962D01*
X102380723Y-103685584D01*
X102345376Y-103710575D01*
X102264773Y-103722005D01*
X102121164Y-103724945D01*
X102098038Y-103724968D01*
X101940192Y-103728629D01*
X101849852Y-103741794D01*
X101811751Y-103767733D01*
X101807515Y-103787223D01*
X101772692Y-103837872D01*
X101722235Y-103849478D01*
X101671055Y-103840088D01*
X101648518Y-103797822D01*
X101646819Y-103701537D01*
X101649604Y-103652711D01*
X101666511Y-103523029D01*
X101700421Y-103458056D01*
X101734885Y-103442151D01*
X101796666Y-103458245D01*
G37*
G36*
X102594076Y-93749825D02*
G01*
X102661385Y-93835240D01*
X102679084Y-93961230D01*
X102679084Y-94100171D01*
X102483719Y-94090745D01*
X102422983Y-94087815D01*
X102266587Y-94072075D01*
X102171697Y-94044564D01*
X102149753Y-94023579D01*
X102167130Y-93979062D01*
X102198338Y-93971700D01*
X102253379Y-93937679D01*
X102263233Y-93900112D01*
X102357749Y-93900112D01*
X102358880Y-93904183D01*
X102404949Y-93946767D01*
X102483719Y-93964879D01*
X102559325Y-93956636D01*
X102595905Y-93920153D01*
X102596077Y-93916642D01*
X102562551Y-93850085D01*
X102533823Y-93832182D01*
X102449163Y-93823387D01*
X102379612Y-93850500D01*
X102357749Y-93900112D01*
X102263233Y-93900112D01*
X102264051Y-93896994D01*
X102299566Y-93791528D01*
X102397028Y-93731845D01*
X102471568Y-93722681D01*
X102594076Y-93749825D01*
G37*
G36*
X103339232Y-104459414D02*
G01*
X103335690Y-104519199D01*
X103296582Y-104569551D01*
X103291257Y-104572327D01*
X103260735Y-104599583D01*
X103291257Y-104620747D01*
X103339327Y-104676312D01*
X103343136Y-104697980D01*
X103327077Y-104725330D01*
X103268033Y-104729890D01*
X103149709Y-104712020D01*
X103135620Y-104709272D01*
X103104743Y-104703249D01*
X102942000Y-104658902D01*
X102858327Y-104609363D01*
X102855372Y-104568868D01*
X103107951Y-104568868D01*
X103113648Y-104593542D01*
X103135620Y-104596537D01*
X103169782Y-104581351D01*
X103163289Y-104568868D01*
X103114034Y-104563901D01*
X103107951Y-104568868D01*
X102855372Y-104568868D01*
X102854616Y-104558502D01*
X102931760Y-104510189D01*
X103052370Y-104475957D01*
X103180209Y-104450060D01*
X103275042Y-104433608D01*
X103303676Y-104430524D01*
X103339232Y-104459414D01*
G37*
G36*
X103339551Y-102425759D02*
G01*
X103335572Y-102485531D01*
X103296718Y-102535806D01*
X103291257Y-102538666D01*
X103260735Y-102565923D01*
X103291257Y-102587087D01*
X103339327Y-102642652D01*
X103343136Y-102664320D01*
X103327077Y-102691670D01*
X103268033Y-102696230D01*
X103149709Y-102678360D01*
X103135620Y-102675612D01*
X103104743Y-102669588D01*
X102942834Y-102625833D01*
X102861025Y-102577447D01*
X102860170Y-102535208D01*
X103107951Y-102535208D01*
X103113648Y-102559882D01*
X103135620Y-102562877D01*
X103169782Y-102547691D01*
X103163289Y-102535208D01*
X103114034Y-102530241D01*
X103107951Y-102535208D01*
X102860170Y-102535208D01*
X102860014Y-102527520D01*
X102940498Y-102479141D01*
X103054180Y-102445864D01*
X103181656Y-102418018D01*
X103276062Y-102400266D01*
X103304799Y-102396864D01*
X103339551Y-102425759D01*
G37*
G36*
X104446973Y-94589841D02*
G01*
X104461820Y-94683696D01*
X104463725Y-94739511D01*
X104463725Y-94926275D01*
X104193953Y-94926275D01*
X103924182Y-94926275D01*
X103924182Y-94739511D01*
X103932425Y-94628129D01*
X103953282Y-94561316D01*
X103965685Y-94552746D01*
X103994826Y-94588811D01*
X104007185Y-94675707D01*
X104007189Y-94677256D01*
X104025749Y-94776105D01*
X104069443Y-94801766D01*
X104124467Y-94768544D01*
X104131698Y-94739511D01*
X104154109Y-94684279D01*
X104173202Y-94677256D01*
X104210022Y-94710872D01*
X104214705Y-94739511D01*
X104249306Y-94790211D01*
X104297711Y-94801766D01*
X104358470Y-94782199D01*
X104379862Y-94709397D01*
X104380718Y-94677256D01*
X104392740Y-94589833D01*
X104421705Y-94552756D01*
X104422221Y-94552746D01*
X104446973Y-94589841D01*
G37*
G36*
X104390621Y-92197539D02*
G01*
X104454980Y-92217465D01*
X104453481Y-92244909D01*
X104379939Y-92269840D01*
X104317596Y-92277937D01*
X104221174Y-92296819D01*
X104172790Y-92326629D01*
X104171467Y-92332321D01*
X104208025Y-92362929D01*
X104297964Y-92384599D01*
X104317596Y-92386706D01*
X104427765Y-92406721D01*
X104457604Y-92435906D01*
X104408309Y-92467831D01*
X104297711Y-92493520D01*
X104180472Y-92526720D01*
X104139087Y-92568975D01*
X104168823Y-92609459D01*
X104264944Y-92637347D01*
X104363361Y-92643596D01*
X104439719Y-92658239D01*
X104463725Y-92685099D01*
X104426461Y-92709074D01*
X104331459Y-92724065D01*
X104262263Y-92726602D01*
X104060802Y-92726602D01*
X104065123Y-92467207D01*
X104069443Y-92207811D01*
X104266584Y-92195162D01*
X104390621Y-92197539D01*
G37*
G36*
X104462466Y-94176196D02*
G01*
X104463725Y-94190711D01*
X104436645Y-94268094D01*
X104418605Y-94290741D01*
X104395931Y-94340839D01*
X104418605Y-94363746D01*
X104460009Y-94426018D01*
X104463725Y-94452394D01*
X104453569Y-94488898D01*
X104409577Y-94476051D01*
X104362749Y-94446995D01*
X104270241Y-94404571D01*
X104187109Y-94421181D01*
X104172430Y-94428649D01*
X104092633Y-94454088D01*
X104051248Y-94439600D01*
X104066233Y-94398324D01*
X104097367Y-94373722D01*
X104144918Y-94333800D01*
X104122346Y-94297134D01*
X104097433Y-94278225D01*
X104053176Y-94223550D01*
X104072293Y-94190227D01*
X104135375Y-94193524D01*
X104178544Y-94214425D01*
X104255425Y-94244941D01*
X104332943Y-94220401D01*
X104363421Y-94201521D01*
X104436119Y-94162321D01*
X104462466Y-94176196D01*
G37*
G36*
X100712712Y-102629534D02*
G01*
X100728430Y-102664817D01*
X100749097Y-102698634D01*
X100820155Y-102720552D01*
X100955187Y-102733854D01*
X101028889Y-102737447D01*
X101189516Y-102747376D01*
X101284320Y-102764075D01*
X101330454Y-102792173D01*
X101343207Y-102822272D01*
X101341034Y-102859586D01*
X101306164Y-102881502D01*
X101222590Y-102891953D01*
X101074305Y-102894871D01*
X101047589Y-102894903D01*
X100887132Y-102897312D01*
X100791123Y-102907630D01*
X100741066Y-102930492D01*
X100718466Y-102970535D01*
X100716405Y-102977909D01*
X100670990Y-103045409D01*
X100628558Y-103060916D01*
X100589238Y-103043563D01*
X100568870Y-102980058D01*
X100562481Y-102853232D01*
X100562417Y-102832648D01*
X100566020Y-102700732D01*
X100581598Y-102632012D01*
X100616303Y-102606815D01*
X100645424Y-102604380D01*
X100712712Y-102629534D01*
G37*
G36*
X100712712Y-103667116D02*
G01*
X100728430Y-103702398D01*
X100749097Y-103736216D01*
X100820155Y-103758134D01*
X100955187Y-103771436D01*
X101028889Y-103775029D01*
X101189516Y-103784958D01*
X101284320Y-103801656D01*
X101330454Y-103829755D01*
X101343207Y-103859854D01*
X101341086Y-103896938D01*
X101306574Y-103918832D01*
X101223757Y-103929382D01*
X101076721Y-103932434D01*
X101042748Y-103932485D01*
X100882665Y-103934409D01*
X100788430Y-103943197D01*
X100742919Y-103963370D01*
X100729006Y-103999452D01*
X100728430Y-104015491D01*
X100699083Y-104084856D01*
X100645424Y-104098498D01*
X100597455Y-104088590D01*
X100572465Y-104045752D01*
X100563303Y-103950312D01*
X100562417Y-103870230D01*
X100566020Y-103738314D01*
X100581598Y-103669593D01*
X100616303Y-103644396D01*
X100645424Y-103641962D01*
X100712712Y-103667116D01*
G37*
G36*
X103226759Y-98833883D02*
G01*
X103316685Y-98850343D01*
X103343136Y-98869086D01*
X103308485Y-98903141D01*
X103262579Y-98910589D01*
X103183127Y-98929647D01*
X103156372Y-98952092D01*
X103171065Y-98982868D01*
X103236929Y-98993596D01*
X103322211Y-99014820D01*
X103343136Y-99055851D01*
X103324012Y-99091999D01*
X103256218Y-99111407D01*
X103124121Y-99117983D01*
X103094117Y-99118105D01*
X102949522Y-99113324D01*
X102871890Y-99096376D01*
X102845588Y-99063352D01*
X102845097Y-99055851D01*
X102881176Y-99005780D01*
X102948855Y-98993596D01*
X103026853Y-98979389D01*
X103052613Y-98952092D01*
X103017096Y-98920893D01*
X102948855Y-98910589D01*
X102870858Y-98896382D01*
X102845097Y-98869086D01*
X102882901Y-98846979D01*
X102981657Y-98831991D01*
X103094117Y-98827583D01*
X103226759Y-98833883D01*
G37*
G36*
X104463725Y-90795729D02*
G01*
X104446064Y-90915131D01*
X104401470Y-90968456D01*
X104339215Y-90972180D01*
X104297475Y-90974677D01*
X104230105Y-90912965D01*
X104214705Y-90837057D01*
X104207312Y-90796700D01*
X104297711Y-90796700D01*
X104320122Y-90851932D01*
X104339215Y-90858955D01*
X104376036Y-90825339D01*
X104380718Y-90796700D01*
X104358307Y-90741469D01*
X104339215Y-90734445D01*
X104302394Y-90768061D01*
X104297711Y-90796700D01*
X104207312Y-90796700D01*
X104201458Y-90764747D01*
X104172101Y-90755877D01*
X104139883Y-90814590D01*
X104140974Y-90838612D01*
X104127764Y-90890975D01*
X104110947Y-90897737D01*
X104080887Y-90864070D01*
X104069443Y-90786324D01*
X104076178Y-90716897D01*
X104110918Y-90681093D01*
X104195471Y-90664890D01*
X104266584Y-90659541D01*
X104463725Y-90646891D01*
X104463725Y-90795729D01*
G37*
G36*
X100691454Y-101186608D02*
G01*
X100716405Y-101234772D01*
X100736736Y-101277817D01*
X100782085Y-101302860D01*
X100871040Y-101314606D01*
X101022193Y-101317755D01*
X101044545Y-101317779D01*
X101202204Y-101319799D01*
X101294219Y-101328989D01*
X101337914Y-101350042D01*
X101350616Y-101387650D01*
X101350979Y-101400785D01*
X101343628Y-101443225D01*
X101310104Y-101468127D01*
X101233208Y-101480077D01*
X101095736Y-101483662D01*
X101039705Y-101483792D01*
X100875516Y-101487053D01*
X100779139Y-101498838D01*
X100735562Y-101522148D01*
X100728430Y-101546047D01*
X100693829Y-101596747D01*
X100645424Y-101608302D01*
X100597455Y-101598394D01*
X100572465Y-101555556D01*
X100563303Y-101460116D01*
X100562417Y-101380034D01*
X100567445Y-101244330D01*
X100585846Y-101174037D01*
X100622594Y-101151985D01*
X100628558Y-101151766D01*
X100691454Y-101186608D01*
G37*
G36*
X102366973Y-101176940D02*
G01*
X102385336Y-101261452D01*
X102388561Y-101359282D01*
X102388561Y-101566798D01*
X102012758Y-101566798D01*
X101636954Y-101566798D01*
X101649604Y-101370031D01*
X101666511Y-101240349D01*
X101700421Y-101175376D01*
X101734885Y-101159472D01*
X101784335Y-101166628D01*
X101804879Y-101226062D01*
X101807515Y-101293984D01*
X101820450Y-101402621D01*
X101862007Y-101441786D01*
X101869770Y-101442288D01*
X101915374Y-101411476D01*
X101931814Y-101312478D01*
X101932025Y-101293984D01*
X101940134Y-101194541D01*
X101971164Y-101158471D01*
X102004656Y-101159438D01*
X102066431Y-101211883D01*
X102090479Y-101310244D01*
X102120182Y-101410477D01*
X102170251Y-101440522D01*
X102221466Y-101403155D01*
X102254608Y-101301147D01*
X102256305Y-101286311D01*
X102282960Y-101185722D01*
X102328936Y-101151766D01*
X102366973Y-101176940D01*
G37*
G36*
X102000042Y-103953070D02*
G01*
X102080382Y-104038400D01*
X102098038Y-104124331D01*
X102109861Y-104191256D01*
X102161384Y-104218613D01*
X102243300Y-104223007D01*
X102350737Y-104236507D01*
X102388299Y-104279592D01*
X102388561Y-104285262D01*
X102374124Y-104315451D01*
X102321401Y-104334335D01*
X102216278Y-104344232D01*
X102044639Y-104347464D01*
X102009727Y-104347517D01*
X101866727Y-104347517D01*
X101630893Y-104347517D01*
X101658493Y-104174766D01*
X101815746Y-104174766D01*
X101845156Y-104218817D01*
X101866727Y-104223007D01*
X101920608Y-104188096D01*
X101932025Y-104136542D01*
X101912197Y-104073289D01*
X101880146Y-104067351D01*
X101828467Y-104112009D01*
X101815746Y-104174766D01*
X101658493Y-104174766D01*
X101659074Y-104171128D01*
X101689984Y-104030389D01*
X101735572Y-103954434D01*
X101811020Y-103925041D01*
X101866530Y-103922109D01*
X102000042Y-103953070D01*
G37*
G36*
X103277926Y-105167789D02*
G01*
X103338293Y-105199496D01*
X103323122Y-105246225D01*
X103249754Y-105292941D01*
X103156372Y-105337978D01*
X103249754Y-105340787D01*
X103322704Y-105358649D01*
X103343136Y-105385099D01*
X103305333Y-105407206D01*
X103206576Y-105422194D01*
X103094117Y-105426602D01*
X103011110Y-105425234D01*
X102956051Y-105424326D01*
X102881503Y-105412217D01*
X102851008Y-105382357D01*
X102845098Y-105326825D01*
X102845097Y-105325293D01*
X102849484Y-105302092D01*
X102969607Y-105302092D01*
X103001190Y-105342390D01*
X103011110Y-105343596D01*
X103051407Y-105312013D01*
X103052613Y-105302092D01*
X103021030Y-105261795D01*
X103011110Y-105260589D01*
X102970813Y-105292172D01*
X102969607Y-105302092D01*
X102849484Y-105302092D01*
X102862061Y-105235570D01*
X102922660Y-105183123D01*
X103041456Y-105159776D01*
X103145996Y-105156336D01*
X103277926Y-105167789D01*
G37*
G36*
X104284706Y-91767925D02*
G01*
X104297711Y-91855034D01*
X104309733Y-91942456D01*
X104338698Y-91979534D01*
X104339215Y-91979543D01*
X104370149Y-91943952D01*
X104380718Y-91873336D01*
X104393893Y-91802723D01*
X104422221Y-91792779D01*
X104457712Y-91856121D01*
X104458540Y-91952401D01*
X104426034Y-92039759D01*
X104413921Y-92054249D01*
X104322774Y-92098562D01*
X104212806Y-92093885D01*
X104172525Y-92075870D01*
X104113530Y-92049486D01*
X104054459Y-91974634D01*
X104048795Y-91940169D01*
X104156800Y-91940169D01*
X104172525Y-91958373D01*
X104208618Y-91949356D01*
X104214705Y-91919738D01*
X104205080Y-91862819D01*
X104196403Y-91855034D01*
X104157663Y-91885446D01*
X104156800Y-91940169D01*
X104048795Y-91940169D01*
X104048692Y-91939544D01*
X104080662Y-91841720D01*
X104156251Y-91760933D01*
X104238421Y-91730524D01*
X104284706Y-91767925D01*
G37*
G36*
X103445021Y-94595573D02*
G01*
X103530247Y-94604551D01*
X103569522Y-94628694D01*
X103581375Y-94675511D01*
X103582838Y-94710792D01*
X103575751Y-94813084D01*
X103557610Y-94873514D01*
X103498887Y-94917474D01*
X103418948Y-94947333D01*
X103353928Y-94944310D01*
X103316078Y-94942550D01*
X103222848Y-94891730D01*
X103164253Y-94814981D01*
X103162999Y-94777588D01*
X103265151Y-94777588D01*
X103292636Y-94827602D01*
X103353928Y-94843269D01*
X103457729Y-94828424D01*
X103490652Y-94779574D01*
X103480256Y-94733259D01*
X103426094Y-94689873D01*
X103369405Y-94685437D01*
X103291681Y-94720610D01*
X103265151Y-94777588D01*
X103162999Y-94777588D01*
X103161753Y-94740452D01*
X103156400Y-94689548D01*
X103098557Y-94677256D01*
X103028741Y-94660670D01*
X103011110Y-94635753D01*
X103049419Y-94614343D01*
X103151750Y-94599591D01*
X103295317Y-94594249D01*
X103445021Y-94595573D01*
G37*
G36*
X103407600Y-90219783D02*
G01*
X103425904Y-90304662D01*
X103426143Y-90321862D01*
X103436460Y-90402617D01*
X103461518Y-90426736D01*
X103463750Y-90425579D01*
X103484497Y-90372158D01*
X103478208Y-90313815D01*
X103474402Y-90248925D01*
X103513232Y-90244476D01*
X103570985Y-90299627D01*
X103578635Y-90388961D01*
X103535561Y-90480019D01*
X103518084Y-90498091D01*
X103404384Y-90561783D01*
X103301633Y-90544349D01*
X103292682Y-90542830D01*
X103219568Y-90486367D01*
X103164501Y-90386537D01*
X103165244Y-90381668D01*
X103260130Y-90381668D01*
X103282540Y-90436899D01*
X103301633Y-90443922D01*
X103338454Y-90410307D01*
X103343136Y-90381668D01*
X103320726Y-90326436D01*
X103301633Y-90319413D01*
X103264812Y-90353029D01*
X103260130Y-90381668D01*
X103165244Y-90381668D01*
X103179297Y-90289517D01*
X103253324Y-90218389D01*
X103353512Y-90195538D01*
X103407600Y-90219783D01*
G37*
G36*
X104377202Y-93742042D02*
G01*
X104449677Y-93803026D01*
X104463725Y-93872382D01*
X104486184Y-93952498D01*
X104525979Y-93971700D01*
X104580530Y-94005078D01*
X104588234Y-94035936D01*
X104573461Y-94071237D01*
X104517856Y-94088374D01*
X104404494Y-94090734D01*
X104328839Y-94087815D01*
X104292030Y-94085503D01*
X104186983Y-94078905D01*
X104107936Y-94062968D01*
X104071537Y-94030468D01*
X104057626Y-93971871D01*
X104056069Y-93958815D01*
X104061209Y-93911895D01*
X104149937Y-93911895D01*
X104153737Y-93932279D01*
X104210232Y-93966261D01*
X104292030Y-93969876D01*
X104360783Y-93946399D01*
X104380718Y-93912904D01*
X104349589Y-93847882D01*
X104328839Y-93835506D01*
X104256803Y-93835235D01*
X104186257Y-93866729D01*
X104149937Y-93911895D01*
X104061209Y-93911895D01*
X104070593Y-93826236D01*
X104143549Y-93744172D01*
X104237144Y-93722681D01*
X104377202Y-93742042D01*
G37*
G36*
X102679084Y-94315287D02*
G01*
X102671610Y-94418636D01*
X102653416Y-94481206D01*
X102651415Y-94483574D01*
X102572849Y-94512890D01*
X102554574Y-94506821D01*
X102486624Y-94484254D01*
X102433600Y-94417860D01*
X102415822Y-94345230D01*
X102513071Y-94345230D01*
X102528670Y-94404143D01*
X102554574Y-94407485D01*
X102594460Y-94356333D01*
X102596077Y-94345230D01*
X102566030Y-94291482D01*
X102554574Y-94282975D01*
X102522207Y-94296010D01*
X102513071Y-94345230D01*
X102415822Y-94345230D01*
X102413000Y-94333700D01*
X102416635Y-94293351D01*
X102403580Y-94264216D01*
X102388402Y-94262223D01*
X102355691Y-94295551D01*
X102354825Y-94338868D01*
X102347200Y-94405266D01*
X102326306Y-94421875D01*
X102296325Y-94391061D01*
X102284803Y-94314102D01*
X102291537Y-94244674D01*
X102326278Y-94208871D01*
X102410831Y-94192668D01*
X102481943Y-94187318D01*
X102679084Y-94174669D01*
X102679084Y-94315287D01*
G37*
G36*
X102493727Y-91007039D02*
G01*
X102512717Y-91089465D01*
X102513071Y-91110424D01*
X102524517Y-91194644D01*
X102554781Y-91211584D01*
X102555675Y-91211053D01*
X102588209Y-91152427D01*
X102586802Y-91134746D01*
X102602643Y-91081472D01*
X102616829Y-91074330D01*
X102652084Y-91101503D01*
X102671431Y-91168589D01*
X102659340Y-91259792D01*
X102582335Y-91319822D01*
X102578049Y-91321802D01*
X102462329Y-91349229D01*
X102388561Y-91328792D01*
X102367809Y-91323043D01*
X102286641Y-91250637D01*
X102263883Y-91153860D01*
X102266064Y-91147029D01*
X102347058Y-91147029D01*
X102377226Y-91203238D01*
X102388561Y-91211733D01*
X102424092Y-91202324D01*
X102430064Y-91172679D01*
X102408396Y-91115894D01*
X102388561Y-91107975D01*
X102348246Y-91137763D01*
X102347058Y-91147029D01*
X102266064Y-91147029D01*
X102293881Y-91059925D01*
X102370982Y-90996046D01*
X102438365Y-90983465D01*
X102493727Y-91007039D01*
G37*
G36*
X103325310Y-99588188D02*
G01*
X103341676Y-99613416D01*
X103374558Y-99682468D01*
X103381363Y-99706799D01*
X103365160Y-99751580D01*
X103357153Y-99771782D01*
X103301858Y-99805141D01*
X103177047Y-99822070D01*
X103110107Y-99823661D01*
X102945589Y-99807738D01*
X102857416Y-99760095D01*
X102845803Y-99680916D01*
X102874068Y-99620879D01*
X102937002Y-99559545D01*
X103004662Y-99540567D01*
X103048305Y-99568536D01*
X103052613Y-99592350D01*
X103031117Y-99649507D01*
X103011110Y-99657648D01*
X102970813Y-99689231D01*
X102969607Y-99699151D01*
X103006092Y-99726584D01*
X103095805Y-99740296D01*
X103114868Y-99740655D01*
X103210882Y-99730230D01*
X103258875Y-99704598D01*
X103260130Y-99699151D01*
X103228547Y-99658854D01*
X103218626Y-99657648D01*
X103181806Y-99624032D01*
X103177123Y-99595393D01*
X103203236Y-99541886D01*
X103262280Y-99540541D01*
X103325310Y-99588188D01*
G37*
G36*
X103395576Y-92739392D02*
G01*
X103423289Y-92794580D01*
X103426143Y-92853561D01*
X103437689Y-92938396D01*
X103468710Y-92954203D01*
X103469334Y-92953827D01*
X103493142Y-92898157D01*
X103485731Y-92842709D01*
X103479122Y-92780545D01*
X103515170Y-92776822D01*
X103569533Y-92831566D01*
X103582169Y-92920390D01*
X103548035Y-93002915D01*
X103543942Y-93007234D01*
X103456951Y-93049943D01*
X103342581Y-93057498D01*
X103301633Y-93047570D01*
X103237705Y-93032070D01*
X103183488Y-92985998D01*
X103170061Y-92913367D01*
X103260130Y-92913367D01*
X103282540Y-92968598D01*
X103301633Y-92975622D01*
X103338454Y-92942006D01*
X103343136Y-92913367D01*
X103320726Y-92858136D01*
X103301633Y-92851112D01*
X103264812Y-92884728D01*
X103260130Y-92913367D01*
X103170061Y-92913367D01*
X103163505Y-92877905D01*
X103203677Y-92783060D01*
X103288835Y-92730064D01*
X103321047Y-92726602D01*
X103395576Y-92739392D01*
G37*
G36*
X102181723Y-104504888D02*
G01*
X102300461Y-104579692D01*
X102387947Y-104687774D01*
X102431698Y-104817814D01*
X102419233Y-104958491D01*
X102338070Y-105098484D01*
X102329844Y-105107589D01*
X102181027Y-105218228D01*
X102028572Y-105246693D01*
X102017210Y-105248814D01*
X101888063Y-105218068D01*
X101739743Y-105118897D01*
X101656446Y-104982462D01*
X101644864Y-104859097D01*
X101807515Y-104859097D01*
X101841522Y-104969292D01*
X101924506Y-105057923D01*
X102027913Y-105094574D01*
X102028572Y-105094576D01*
X102150638Y-105060351D01*
X102230018Y-104973989D01*
X102255990Y-104859958D01*
X102217834Y-104742726D01*
X102195364Y-104713939D01*
X102093646Y-104652833D01*
X101978863Y-104653901D01*
X101877349Y-104707284D01*
X101815442Y-104803127D01*
X101807515Y-104859097D01*
X101644864Y-104859097D01*
X101641869Y-104827198D01*
X101699709Y-104671540D01*
X101762820Y-104593344D01*
X101900421Y-104500394D01*
X102044216Y-104474682D01*
X102181723Y-104504888D01*
G37*
G36*
X103580627Y-92121398D02*
G01*
X103685073Y-92173832D01*
X103716666Y-92255166D01*
X103687553Y-92322305D01*
X103675162Y-92332321D01*
X103639971Y-92321063D01*
X103631028Y-92282891D01*
X103622387Y-92245962D01*
X103598102Y-92284707D01*
X103587587Y-92310049D01*
X103553856Y-92391324D01*
X103520619Y-92427491D01*
X103453481Y-92448592D01*
X103419279Y-92457054D01*
X103370762Y-92454784D01*
X103298054Y-92451381D01*
X103205527Y-92383420D01*
X103169520Y-92290818D01*
X103260130Y-92290818D01*
X103294266Y-92334323D01*
X103370762Y-92354441D01*
X103450748Y-92344867D01*
X103480352Y-92326532D01*
X103492181Y-92277238D01*
X103439125Y-92239869D01*
X103361439Y-92228563D01*
X103279825Y-92250651D01*
X103260130Y-92290818D01*
X103169520Y-92290818D01*
X103162804Y-92273545D01*
X103166042Y-92212643D01*
X103185429Y-92148785D01*
X103227173Y-92116514D01*
X103314363Y-92105202D01*
X103401929Y-92104053D01*
X103580627Y-92121398D01*
G37*
G36*
X103401208Y-91290954D02*
G01*
X103425579Y-91357959D01*
X103426143Y-91380195D01*
X103439454Y-91451354D01*
X103468323Y-91460334D01*
X103492265Y-91410595D01*
X103486625Y-91395630D01*
X103482871Y-91329120D01*
X103491136Y-91311060D01*
X103528604Y-91292117D01*
X103555205Y-91321436D01*
X103589821Y-91436859D01*
X103555403Y-91541394D01*
X103542352Y-91556210D01*
X103457886Y-91595113D01*
X103342315Y-91603588D01*
X103301633Y-91593482D01*
X103242795Y-91578866D01*
X103235225Y-91574251D01*
X103170435Y-91491774D01*
X103168120Y-91419249D01*
X103260130Y-91419249D01*
X103282540Y-91474481D01*
X103301633Y-91481504D01*
X103338454Y-91447888D01*
X103343136Y-91419249D01*
X103320726Y-91364018D01*
X103301633Y-91356994D01*
X103264812Y-91390610D01*
X103260130Y-91419249D01*
X103168120Y-91419249D01*
X103167349Y-91395090D01*
X103217463Y-91313013D01*
X103312273Y-91274356D01*
X103323845Y-91273988D01*
X103401208Y-91290954D01*
G37*
G36*
X102622329Y-92607016D02*
G01*
X102667810Y-92635874D01*
X102678857Y-92709804D01*
X102679084Y-92742272D01*
X102663215Y-92852251D01*
X102624753Y-92927390D01*
X102622090Y-92929753D01*
X102554574Y-92955519D01*
X102536937Y-92962250D01*
X102465313Y-92927444D01*
X102425064Y-92840924D01*
X102425118Y-92788857D01*
X102513071Y-92788857D01*
X102535482Y-92844088D01*
X102554574Y-92851112D01*
X102591395Y-92817496D01*
X102596077Y-92788857D01*
X102573667Y-92733626D01*
X102554574Y-92726602D01*
X102517753Y-92760218D01*
X102513071Y-92788857D01*
X102425118Y-92788857D01*
X102425150Y-92757730D01*
X102398335Y-92727901D01*
X102385952Y-92726602D01*
X102355246Y-92759989D01*
X102354825Y-92803247D01*
X102347142Y-92870481D01*
X102326306Y-92887898D01*
X102286836Y-92863178D01*
X102271443Y-92792099D01*
X102282956Y-92708543D01*
X102307450Y-92662063D01*
X102380211Y-92622341D01*
X102495632Y-92602637D01*
X102518153Y-92602092D01*
X102622329Y-92607016D01*
G37*
G36*
X101140531Y-105013025D02*
G01*
X101256618Y-105019381D01*
X101320200Y-105033616D01*
X101346517Y-105058714D01*
X101350979Y-105088700D01*
X101315412Y-105157439D01*
X101216003Y-105251268D01*
X101112336Y-105327344D01*
X100873692Y-105488857D01*
X101112336Y-105501304D01*
X101270263Y-105521383D01*
X101348750Y-105560725D01*
X101347152Y-105618884D01*
X101323311Y-105647953D01*
X101271918Y-105660336D01*
X101158150Y-105669856D01*
X101002624Y-105675066D01*
X100929030Y-105675622D01*
X100754049Y-105674505D01*
X100646012Y-105668422D01*
X100588863Y-105653277D01*
X100566542Y-105624975D01*
X100562971Y-105582239D01*
X100588564Y-105509927D01*
X100671391Y-105426318D01*
X100801615Y-105333689D01*
X101039705Y-105178521D01*
X100801061Y-105178052D01*
X100665507Y-105174473D01*
X100593536Y-105159917D01*
X100565834Y-105127627D01*
X100562417Y-105094576D01*
X100568371Y-105055996D01*
X100596497Y-105031648D01*
X100662194Y-105018288D01*
X100780857Y-105012677D01*
X100956698Y-105011570D01*
X101140531Y-105013025D01*
G37*
G36*
X101241855Y-104319552D02*
G01*
X101249253Y-104324281D01*
X101329699Y-104421882D01*
X101349719Y-104553417D01*
X101306152Y-104689919D01*
X101238129Y-104752182D01*
X101161502Y-104754266D01*
X101121588Y-104719229D01*
X101122000Y-104655129D01*
X101144533Y-104615999D01*
X101174518Y-104532182D01*
X101168322Y-104488516D01*
X101143436Y-104460178D01*
X101096244Y-104475538D01*
X101012787Y-104541415D01*
X100957090Y-104591745D01*
X100843496Y-104693557D01*
X100768773Y-104744980D01*
X100711461Y-104752641D01*
X100650102Y-104723165D01*
X100613155Y-104697942D01*
X100536526Y-104599812D01*
X100528889Y-104475756D01*
X100578678Y-104367392D01*
X100631569Y-104314350D01*
X100684429Y-104329215D01*
X100704947Y-104345250D01*
X100747896Y-104406856D01*
X100730189Y-104445366D01*
X100690621Y-104504750D01*
X100686927Y-104521831D01*
X100710602Y-104556045D01*
X100771514Y-104532953D01*
X100854496Y-104459617D01*
X100878194Y-104432742D01*
X101003430Y-104316793D01*
X101121794Y-104279898D01*
X101241855Y-104319552D01*
G37*
G36*
X103306063Y-105852678D02*
G01*
X103343127Y-105879283D01*
X103343136Y-105879744D01*
X103354694Y-105952177D01*
X103360600Y-105973126D01*
X103363020Y-106060252D01*
X103357141Y-106080279D01*
X103302005Y-106113687D01*
X103218626Y-106125104D01*
X103178289Y-106130628D01*
X103114207Y-106132158D01*
X102980564Y-106127177D01*
X102907148Y-106107127D01*
X102871510Y-106064342D01*
X102865217Y-106047160D01*
X102867351Y-105947773D01*
X102922151Y-105868458D01*
X102995440Y-105841635D01*
X103043698Y-105870330D01*
X103047196Y-105929459D01*
X103004388Y-105978583D01*
X103000734Y-105980161D01*
X102986176Y-105998432D01*
X103021486Y-106004371D01*
X103071821Y-105979979D01*
X103190958Y-105979979D01*
X103196655Y-106004653D01*
X103218626Y-106007648D01*
X103252788Y-105992463D01*
X103246295Y-105979979D01*
X103197041Y-105975012D01*
X103190958Y-105979979D01*
X103071821Y-105979979D01*
X103082583Y-105974764D01*
X103094117Y-105924641D01*
X103113683Y-105863883D01*
X103186486Y-105842491D01*
X103218626Y-105841635D01*
X103306063Y-105852678D01*
G37*
G36*
X99421420Y-96965697D02*
G01*
X99558305Y-97057310D01*
X99714979Y-97186001D01*
X99880817Y-97342474D01*
X100045194Y-97517432D01*
X100197484Y-97701580D01*
X100309270Y-97858052D01*
X100456210Y-98116361D01*
X100588941Y-98413862D01*
X100645361Y-98569138D01*
X100705366Y-98759540D01*
X100745602Y-98920485D01*
X100770660Y-99080639D01*
X100785128Y-99268668D01*
X100793049Y-99491635D01*
X100794864Y-99720345D01*
X100789606Y-99946449D01*
X100778314Y-100142049D01*
X100764238Y-100266607D01*
X100734012Y-100403864D01*
X100697577Y-100504721D01*
X100667495Y-100543719D01*
X100644644Y-100537739D01*
X100630938Y-100491089D01*
X100625607Y-100392571D01*
X100627883Y-100230984D01*
X100634220Y-100059269D01*
X100622490Y-99485979D01*
X100537136Y-98950740D01*
X100377738Y-98452472D01*
X100143877Y-97990096D01*
X99835132Y-97562530D01*
X99543423Y-97253798D01*
X99415649Y-97128553D01*
X99317042Y-97024415D01*
X99259135Y-96954056D01*
X99249523Y-96930891D01*
X99314951Y-96920459D01*
X99421420Y-96965697D01*
G37*
G36*
X99731417Y-91976585D02*
G01*
X99778117Y-92072247D01*
X99780346Y-92148542D01*
X99782561Y-92241089D01*
X99816435Y-92257126D01*
X99881643Y-92196736D01*
X99949105Y-92104053D01*
X100030589Y-92004826D01*
X100122712Y-91959199D01*
X100217479Y-91946220D01*
X100339550Y-91947363D01*
X100414550Y-91981421D01*
X100454767Y-92028085D01*
X100512240Y-92179032D01*
X100500957Y-92355820D01*
X100478117Y-92425704D01*
X100416330Y-92505920D01*
X100327538Y-92507698D01*
X100280662Y-92483879D01*
X100248459Y-92435967D01*
X100265927Y-92348341D01*
X100270583Y-92335771D01*
X100294878Y-92222405D01*
X100268809Y-92156569D01*
X100232041Y-92145556D01*
X100190933Y-92178037D01*
X100130941Y-92259120D01*
X100111177Y-92291163D01*
X100000129Y-92425251D01*
X99873202Y-92495660D01*
X99746651Y-92501329D01*
X99636728Y-92441196D01*
X99564260Y-92326853D01*
X99550009Y-92233818D01*
X99558674Y-92120041D01*
X99584327Y-92015056D01*
X99621037Y-91948398D01*
X99642188Y-91938676D01*
X99731417Y-91976585D01*
G37*
G36*
X103417721Y-90618114D02*
G01*
X103536319Y-90642388D01*
X103583603Y-90679358D01*
X103558105Y-90714629D01*
X103458354Y-90733808D01*
X103429601Y-90734445D01*
X103312870Y-90744310D01*
X103263806Y-90777169D01*
X103260130Y-90796700D01*
X103287543Y-90839988D01*
X103378415Y-90857825D01*
X103426143Y-90858955D01*
X103544603Y-90870593D01*
X103588107Y-90897537D01*
X103554869Y-90927837D01*
X103443102Y-90949540D01*
X103439727Y-90949832D01*
X103325403Y-90973109D01*
X103271572Y-91009447D01*
X103283064Y-91044850D01*
X103364708Y-91065320D01*
X103399483Y-91066472D01*
X103515887Y-91079632D01*
X103575517Y-91114040D01*
X103565640Y-91162082D01*
X103563359Y-91164441D01*
X103508837Y-91180750D01*
X103403531Y-91190108D01*
X103356971Y-91190981D01*
X103240211Y-91183809D01*
X103186044Y-91157091D01*
X103174674Y-91118351D01*
X103169957Y-91029515D01*
X103161580Y-90906304D01*
X103160120Y-90886849D01*
X103172088Y-90735909D01*
X103238344Y-90646931D01*
X103362541Y-90616103D01*
X103417721Y-90618114D01*
G37*
G36*
X102140996Y-101736620D02*
G01*
X102255075Y-101750580D01*
X102326192Y-101778493D01*
X102361377Y-101808710D01*
X102421035Y-101926853D01*
X102417688Y-102056639D01*
X102354166Y-102162163D01*
X102285514Y-102200835D01*
X102174014Y-102222625D01*
X102001746Y-102230631D01*
X101956841Y-102230851D01*
X101794573Y-102228803D01*
X101699483Y-102220176D01*
X101655795Y-102201245D01*
X101647730Y-102168282D01*
X101649275Y-102158220D01*
X101670869Y-102118973D01*
X101728705Y-102094478D01*
X101839938Y-102080108D01*
X101963593Y-102073395D01*
X102120248Y-102064521D01*
X102211082Y-102050258D01*
X102253281Y-102025370D01*
X102264031Y-101984619D01*
X102264051Y-101981831D01*
X102254525Y-101940062D01*
X102214489Y-101914442D01*
X102126757Y-101899734D01*
X101974145Y-101890701D01*
X101963593Y-101890267D01*
X101802965Y-101880338D01*
X101708162Y-101863640D01*
X101662027Y-101835541D01*
X101649275Y-101805442D01*
X101651253Y-101769011D01*
X101684768Y-101747190D01*
X101765461Y-101736369D01*
X101908976Y-101732939D01*
X101964053Y-101732811D01*
X102140996Y-101736620D01*
G37*
G36*
X101080689Y-101862675D02*
G01*
X101203391Y-101880493D01*
X101275499Y-101913407D01*
X101285760Y-101922541D01*
X101336225Y-102020565D01*
X101349025Y-102147808D01*
X101319620Y-102257380D01*
X101318372Y-102259382D01*
X101231465Y-102326966D01*
X101078134Y-102373745D01*
X100873241Y-102395707D01*
X100808735Y-102396864D01*
X100670571Y-102393769D01*
X100596244Y-102380200D01*
X100566686Y-102349730D01*
X100562417Y-102313857D01*
X100571627Y-102267246D01*
X100611984Y-102242200D01*
X100702581Y-102232267D01*
X100808042Y-102230851D01*
X100992611Y-102225134D01*
X101108079Y-102204950D01*
X101167760Y-102165743D01*
X101184964Y-102102959D01*
X101184966Y-102101900D01*
X101176433Y-102061613D01*
X101139480Y-102037965D01*
X101057079Y-102026660D01*
X100912201Y-102023399D01*
X100873692Y-102023334D01*
X100714541Y-102021374D01*
X100621161Y-102012434D01*
X100576350Y-101991928D01*
X100562906Y-101955269D01*
X100562417Y-101940328D01*
X100569406Y-101898821D01*
X100601548Y-101874017D01*
X100675612Y-101861686D01*
X100808363Y-101857598D01*
X100891479Y-101857321D01*
X101080689Y-101862675D01*
G37*
G36*
X102193008Y-105552686D02*
G01*
X102303655Y-105559583D01*
X102362621Y-105575063D01*
X102385558Y-105602386D01*
X102388561Y-105628931D01*
X102396661Y-105726576D01*
X102413636Y-105832124D01*
X102414054Y-105950082D01*
X102351381Y-106044828D01*
X102230048Y-106121035D01*
X102175141Y-106127088D01*
X102099371Y-106135440D01*
X101979697Y-106096348D01*
X101891378Y-106012067D01*
X101854760Y-105890904D01*
X101856261Y-105866008D01*
X101973528Y-105866008D01*
X102008416Y-105936291D01*
X102088106Y-105979588D01*
X102175141Y-105980014D01*
X102204449Y-105963943D01*
X102258221Y-105880322D01*
X102248810Y-105794260D01*
X102179768Y-105737474D01*
X102179053Y-105737245D01*
X102080162Y-105739296D01*
X102000732Y-105793317D01*
X101973528Y-105866008D01*
X101856261Y-105866008D01*
X101857631Y-105843272D01*
X101862584Y-105755186D01*
X101827494Y-105721822D01*
X101758824Y-105717125D01*
X101670951Y-105702242D01*
X101642015Y-105648058D01*
X101641502Y-105634119D01*
X101647744Y-105594681D01*
X101677000Y-105570176D01*
X101745071Y-105557091D01*
X101867753Y-105551916D01*
X102015032Y-105551112D01*
X102193008Y-105552686D01*
G37*
G36*
X100427112Y-91111513D02*
G01*
X100457925Y-91133418D01*
X100473384Y-91190626D01*
X100478781Y-91300072D01*
X100479411Y-91440001D01*
X100479411Y-91772027D01*
X99877613Y-91772027D01*
X99275816Y-91772027D01*
X99275816Y-91440001D01*
X99276922Y-91275330D01*
X99283767Y-91176728D01*
X99301645Y-91127260D01*
X99335847Y-91109989D01*
X99379574Y-91107975D01*
X99441154Y-91114703D01*
X99471874Y-91149039D01*
X99482349Y-91232210D01*
X99483332Y-91315491D01*
X99486053Y-91438336D01*
X99502778Y-91499594D01*
X99546356Y-91520677D01*
X99607842Y-91523007D01*
X99691496Y-91514910D01*
X99725807Y-91473836D01*
X99732352Y-91377746D01*
X99740104Y-91279512D01*
X99774989Y-91239296D01*
X99836110Y-91232485D01*
X99906278Y-91243338D01*
X99935003Y-91292176D01*
X99939868Y-91377746D01*
X99944894Y-91470752D01*
X99975926Y-91512084D01*
X100056895Y-91522683D01*
X100105881Y-91523007D01*
X100271894Y-91523007D01*
X100271894Y-91315491D01*
X100275259Y-91192332D01*
X100292426Y-91130891D01*
X100334012Y-91109941D01*
X100375653Y-91107975D01*
X100427112Y-91111513D01*
G37*
G36*
X100427112Y-93435696D02*
G01*
X100457925Y-93457601D01*
X100473384Y-93514809D01*
X100478781Y-93624255D01*
X100479411Y-93764184D01*
X100479411Y-94096210D01*
X99877613Y-94096210D01*
X99275816Y-94096210D01*
X99275816Y-93784936D01*
X99277109Y-93626608D01*
X99284874Y-93533801D01*
X99304938Y-93489028D01*
X99343131Y-93474805D01*
X99379574Y-93473661D01*
X99441154Y-93480389D01*
X99471874Y-93514725D01*
X99482349Y-93597896D01*
X99483332Y-93681177D01*
X99486053Y-93804022D01*
X99502778Y-93865280D01*
X99546356Y-93886364D01*
X99607842Y-93888694D01*
X99691496Y-93880596D01*
X99725807Y-93839522D01*
X99732352Y-93743432D01*
X99740104Y-93645198D01*
X99774989Y-93604983D01*
X99836110Y-93598171D01*
X99906278Y-93609024D01*
X99935003Y-93657863D01*
X99939868Y-93743432D01*
X99944894Y-93836438D01*
X99975926Y-93877770D01*
X100056895Y-93888369D01*
X100105881Y-93888694D01*
X100271894Y-93888694D01*
X100271894Y-93660426D01*
X100274588Y-93529692D01*
X100288823Y-93461620D01*
X100323834Y-93435897D01*
X100375653Y-93432158D01*
X100427112Y-93435696D01*
G37*
G36*
X104275598Y-93327371D02*
G01*
X104296884Y-93400561D01*
X104297711Y-93432158D01*
X104309733Y-93519580D01*
X104338698Y-93556658D01*
X104339215Y-93556668D01*
X104370414Y-93521150D01*
X104380718Y-93452909D01*
X104394925Y-93374912D01*
X104422221Y-93349151D01*
X104460449Y-93381339D01*
X104466679Y-93457738D01*
X104445604Y-93548097D01*
X104401913Y-93622169D01*
X104376852Y-93641743D01*
X104285509Y-93666113D01*
X104185958Y-93660942D01*
X104172525Y-93655658D01*
X104110848Y-93631399D01*
X104090195Y-93596353D01*
X104055854Y-93552341D01*
X103990412Y-93517293D01*
X104156800Y-93517293D01*
X104172525Y-93535498D01*
X104208618Y-93526480D01*
X104214705Y-93496862D01*
X104205080Y-93439943D01*
X104196403Y-93432158D01*
X104157663Y-93462570D01*
X104156800Y-93517293D01*
X103990412Y-93517293D01*
X103986437Y-93515164D01*
X103909069Y-93462363D01*
X103882679Y-93406001D01*
X103888934Y-93359635D01*
X103921835Y-93372898D01*
X103956740Y-93403311D01*
X104016756Y-93446721D01*
X104057157Y-93425314D01*
X104081602Y-93388992D01*
X104155373Y-93323956D01*
X104215057Y-93307648D01*
X104275598Y-93327371D01*
G37*
G36*
X102468969Y-102357017D02*
G01*
X102471568Y-102416659D01*
X102457829Y-102495118D01*
X102431102Y-102521373D01*
X102409580Y-102556532D01*
X102415050Y-102643411D01*
X102415489Y-102645635D01*
X102413777Y-102804965D01*
X102355309Y-102952035D01*
X102253074Y-103055422D01*
X102243973Y-103060555D01*
X102078695Y-103113125D01*
X102024309Y-103108493D01*
X101925711Y-103100095D01*
X101795957Y-103034739D01*
X101700372Y-102930328D01*
X101649893Y-102800136D01*
X101652205Y-102740824D01*
X101813100Y-102740824D01*
X101848113Y-102848474D01*
X101937619Y-102932550D01*
X102024309Y-102970358D01*
X102094952Y-102958400D01*
X102155511Y-102922605D01*
X102220863Y-102857470D01*
X102260424Y-102778713D01*
X102265615Y-102713118D01*
X102230849Y-102687387D01*
X102175554Y-102712805D01*
X102143015Y-102739266D01*
X102107860Y-102760784D01*
X102099810Y-102721424D01*
X102106774Y-102656259D01*
X102112496Y-102564009D01*
X102082369Y-102527518D01*
X102009304Y-102521373D01*
X101897816Y-102553636D01*
X101831042Y-102634666D01*
X101813100Y-102740824D01*
X101652205Y-102740824D01*
X101655456Y-102657434D01*
X101728000Y-102515494D01*
X101762820Y-102476678D01*
X101900094Y-102385445D01*
X102055248Y-102352478D01*
X102199255Y-102382889D01*
X102222146Y-102395737D01*
X102310465Y-102405983D01*
X102377784Y-102373393D01*
X102445454Y-102335585D01*
X102468969Y-102357017D01*
G37*
G36*
X102407638Y-95715018D02*
G01*
X102868301Y-95715650D01*
X103257564Y-95716872D01*
X103581227Y-95718820D01*
X103845093Y-95721631D01*
X104054964Y-95725443D01*
X104216643Y-95730392D01*
X104335931Y-95736616D01*
X104418632Y-95744251D01*
X104470546Y-95753435D01*
X104497478Y-95764305D01*
X104505227Y-95776997D01*
X104505228Y-95777092D01*
X104497591Y-95789798D01*
X104470814Y-95800680D01*
X104419094Y-95809875D01*
X104336629Y-95817521D01*
X104217616Y-95823754D01*
X104056254Y-95828711D01*
X103846739Y-95832530D01*
X103583270Y-95835348D01*
X103260045Y-95837302D01*
X102871261Y-95838528D01*
X102411117Y-95839164D01*
X101873809Y-95839347D01*
X101869770Y-95839347D01*
X101331903Y-95839167D01*
X100871239Y-95838534D01*
X100481977Y-95837313D01*
X100158314Y-95835365D01*
X99894448Y-95832553D01*
X99684577Y-95828742D01*
X99522898Y-95823792D01*
X99403609Y-95817569D01*
X99320909Y-95809934D01*
X99268994Y-95800750D01*
X99242063Y-95789880D01*
X99234313Y-95777188D01*
X99234313Y-95777092D01*
X99241949Y-95764387D01*
X99268726Y-95753505D01*
X99320446Y-95744310D01*
X99402912Y-95736664D01*
X99521924Y-95730431D01*
X99683287Y-95725474D01*
X99892801Y-95721654D01*
X100156270Y-95718837D01*
X100479495Y-95716883D01*
X100868279Y-95715657D01*
X101328424Y-95715021D01*
X101865732Y-95714838D01*
X101869770Y-95714838D01*
X102407638Y-95715018D01*
G37*
D13*
%TO.C,U1*%
X101000000Y-52640000D02*
X111220000Y-52640000D01*
X101000000Y-57260000D02*
X101000000Y-52640000D01*
X104260000Y-57260000D02*
X104260000Y-55880000D01*
X107960000Y-57260000D02*
X107960000Y-55880000D01*
X111220000Y-52640000D02*
X111220000Y-57260000D01*
X111220000Y-55880000D02*
X101000000Y-55880000D01*
X111220000Y-57260000D02*
X101000000Y-57260000D01*
%TO.C,RV3*%
X88790000Y-61722000D02*
X88790000Y-56532000D01*
X91550000Y-56532000D02*
X88790000Y-56532000D01*
X91550000Y-61722000D02*
X88790000Y-61722000D01*
X91550000Y-61722000D02*
X91550000Y-56532000D01*
X91550000Y-62992000D02*
X91550000Y-64372000D01*
X91550000Y-64372000D02*
X90170000Y-64372000D01*
%TO.C,U3*%
X67600000Y-40580000D02*
X67600000Y-58480000D01*
X67600000Y-58480000D02*
X72100000Y-58480000D01*
X68850000Y-40580000D02*
X67600000Y-40580000D01*
X72100000Y-40580000D02*
X70850000Y-40580000D01*
X72100000Y-58480000D02*
X72100000Y-40580000D01*
X64600000Y-40520000D02*
X75100000Y-40520000D01*
X75100000Y-58540000D01*
X64600000Y-58540000D01*
X64600000Y-40520000D01*
X70850000Y-40580000D02*
G75*
G02*
X68850000Y-40580000I-1000000J0D01*
G01*
%TO.C,R2*%
X76200000Y-99280000D02*
X76200000Y-100050000D01*
X76200000Y-107360000D02*
X76200000Y-106590000D01*
X77570000Y-100050000D02*
X74830000Y-100050000D01*
X74830000Y-106590000D01*
X77570000Y-106590000D01*
X77570000Y-100050000D01*
%TO.C,J11*%
X86790000Y-98070000D02*
X88120000Y-98070000D01*
X86790000Y-99400000D02*
X86790000Y-98070000D01*
X89390000Y-98070000D02*
X94530000Y-98070000D01*
X89390000Y-100730000D02*
X89390000Y-98070000D01*
X89390000Y-100730000D02*
X94530000Y-100730000D01*
X94530000Y-100730000D02*
X94530000Y-98070000D01*
%TO.C,J5*%
X72280000Y-75380000D02*
X72280000Y-74000000D01*
X73660000Y-75380000D02*
X72280000Y-75380000D01*
X74930000Y-72620000D02*
X77580000Y-72620000D01*
X74930000Y-75380000D02*
X74930000Y-72620000D01*
X74930000Y-75380000D02*
X77580000Y-75380000D01*
X77580000Y-75380000D02*
X77580000Y-72620000D01*
%TO.C,R1*%
X79800000Y-99360000D02*
X79800000Y-100130000D01*
X79800000Y-107440000D02*
X79800000Y-106670000D01*
X81170000Y-100130000D02*
X78430000Y-100130000D01*
X78430000Y-106670000D01*
X81170000Y-106670000D01*
X81170000Y-100130000D01*
%TO.C,C8*%
X80230000Y-46380000D02*
X90470000Y-46380000D01*
X80230000Y-49120000D02*
X80230000Y-46380000D01*
X90470000Y-46380000D02*
X90470000Y-49120000D01*
X90470000Y-49120000D02*
X80230000Y-49120000D01*
%TO.C,U2*%
X87090000Y-44600000D02*
X90690000Y-44600000D01*
X86533600Y-41651193D02*
G75*
G02*
X88890000Y-40150000I2356400J-1098807D01*
G01*
X87090000Y-44600000D02*
G75*
G02*
X86565816Y-43872795I1800000J1850000D01*
G01*
X88890000Y-40150000D02*
G75*
G02*
X91246400Y-41651193I0J-2600000D01*
G01*
X91214184Y-43872795D02*
G75*
G02*
X90690000Y-44600000I-2324184J1122795D01*
G01*
%TD*%
M02*
