M48
; DRILL file {KiCad 9.0.4} date 2026-04-19T18:43:14+0200
; FORMAT={-:-/ absolute / metric / decimal}
; #@! TF.CreationDate,2026-04-19T18:43:14+02:00
; #@! TF.GenerationSoftware,Kicad,Pcbnew,9.0.4
; #@! TF.FileFunction,Plated,1,2,PTH
FMAT,2
METRIC
; #@! TA.AperFunction,Plated,PTH,ViaDrill
T1C0.800
; #@! TA.AperFunction,Plated,PTH,ComponentDrill
T2C0.800
; #@! TA.AperFunction,Plated,PTH,ComponentDrill
T3C1.000
; #@! TA.AperFunction,Plated,PTH,ComponentDrill
T4C1.100
; #@! TA.AperFunction,Plated,PTH,ComponentDrill
T5C3.200
%
G90
G05
T1
X55.372Y-51.562
X58.166Y-40.386
X58.928Y-54.61
X62.738Y-63.0
X77.978Y-67.31
X82.804Y-57.15
T2
X66.04Y-41.91
X66.04Y-44.45
X66.04Y-46.99
X66.04Y-49.53
X66.04Y-52.07
X66.04Y-54.61
X66.04Y-57.15
X72.6Y-98.32
X72.6Y-108.48
X73.66Y-41.91
X73.66Y-44.45
X73.66Y-46.99
X73.66Y-49.53
X73.66Y-52.07
X73.66Y-54.61
X73.66Y-57.15
X76.2Y-98.24
X76.2Y-108.4
X79.8Y-98.32
X79.8Y-108.48
X82.85Y-47.75
X86.35Y-35.0
X86.35Y-37.5
X86.35Y-42.75
X87.85Y-47.75
X88.89Y-42.75
X91.43Y-42.75
X94.996Y-31.79
X94.996Y-36.79
X96.774Y-71.374
X99.274Y-71.374
X99.314Y-78.486
X99.314Y-83.486
X100.076Y-31.75
X102.576Y-31.75
X103.65Y-63.0
X106.974Y-48.26
X108.65Y-63.0
X109.474Y-48.26
T3
X48.26Y-56.115
X48.26Y-58.885
X48.26Y-61.655
X48.26Y-64.425
X48.26Y-67.195
X48.26Y-69.965
X48.26Y-72.735
X48.26Y-75.505
X48.26Y-78.275
X48.26Y-81.045
X48.26Y-83.815
X48.26Y-86.585
X51.1Y-54.73
X51.1Y-57.5
X51.1Y-60.27
X51.1Y-63.04
X51.1Y-65.81
X51.1Y-68.58
X51.1Y-71.35
X51.1Y-74.12
X51.1Y-76.89
X51.1Y-79.66
X51.1Y-82.43
X51.1Y-85.2
X51.1Y-87.97
X73.66Y-74.0
X73.66Y-79.75
X73.66Y-85.25
X76.2Y-74.0
X76.2Y-79.75
X76.2Y-85.25
X79.85Y-37.5
X79.85Y-40.04
X79.85Y-42.58
X84.41Y-71.25
X84.41Y-76.75
X84.41Y-82.5
X86.95Y-71.25
X86.95Y-76.75
X86.95Y-82.5
X88.12Y-92.3
X88.12Y-99.4
X88.12Y-106.0
X90.17Y-57.912
X90.17Y-60.452
X90.17Y-62.992
X90.66Y-92.3
X90.66Y-99.4
X90.66Y-106.0
X93.2Y-92.3
X93.2Y-99.4
X93.2Y-106.0
X96.85Y-48.75
X96.85Y-51.29
X96.85Y-53.83
X105.41Y-71.374
X105.41Y-78.486
X107.95Y-71.374
X107.95Y-78.486
T4
X103.57Y-54.0
X106.11Y-54.0
X108.65Y-54.0
T5
X48.26Y-47.8
X48.26Y-94.9
M30
