%TF.GenerationSoftware,KiCad,Pcbnew,9.0.4*%
%TF.CreationDate,2026-03-18T08:21:29+01:00*%
%TF.ProjectId,main_board,6d61696e-5f62-46f6-9172-642e6b696361,rev?*%
%TF.SameCoordinates,Original*%
%TF.FileFunction,Copper,L2,Bot*%
%TF.FilePolarity,Positive*%
%FSLAX46Y46*%
G04 Gerber Fmt 4.6, Leading zero omitted, Abs format (unit mm)*
G04 Created by KiCad (PCBNEW 9.0.4) date 2026-03-18 08:21:29*
%MOMM*%
%LPD*%
G01*
G04 APERTURE LIST*
G04 Aperture macros list*
%AMRoundRect*
0 Rectangle with rounded corners*
0 $1 Rounding radius*
0 $2 $3 $4 $5 $6 $7 $8 $9 X,Y pos of 4 corners*
0 Add a 4 corners polygon primitive as box body*
4,1,4,$2,$3,$4,$5,$6,$7,$8,$9,$2,$3,0*
0 Add four circle primitives for the rounded corners*
1,1,$1+$1,$2,$3*
1,1,$1+$1,$4,$5*
1,1,$1+$1,$6,$7*
1,1,$1+$1,$8,$9*
0 Add four rect primitives between the rounded corners*
20,1,$1+$1,$2,$3,$4,$5,0*
20,1,$1+$1,$4,$5,$6,$7,0*
20,1,$1+$1,$6,$7,$8,$9,0*
20,1,$1+$1,$8,$9,$2,$3,0*%
G04 Aperture macros list end*
%ADD10C,0.300000*%
%TA.AperFunction,NonConductor*%
%ADD11C,0.300000*%
%TD*%
%TA.AperFunction,ComponentPad*%
%ADD12C,4.000000*%
%TD*%
%TA.AperFunction,ComponentPad*%
%ADD13R,1.600000X1.600000*%
%TD*%
%TA.AperFunction,ComponentPad*%
%ADD14C,1.600000*%
%TD*%
%TA.AperFunction,ComponentPad*%
%ADD15R,1.700000X1.700000*%
%TD*%
%TA.AperFunction,ComponentPad*%
%ADD16C,1.700000*%
%TD*%
%TA.AperFunction,ComponentPad*%
%ADD17RoundRect,0.250000X-0.550000X-0.550000X0.550000X-0.550000X0.550000X0.550000X-0.550000X0.550000X0*%
%TD*%
%TA.AperFunction,ComponentPad*%
%ADD18RoundRect,0.250000X0.550000X-0.550000X0.550000X0.550000X-0.550000X0.550000X-0.550000X-0.550000X0*%
%TD*%
%TA.AperFunction,ComponentPad*%
%ADD19R,1.905000X2.000000*%
%TD*%
%TA.AperFunction,ComponentPad*%
%ADD20O,1.905000X2.000000*%
%TD*%
%TA.AperFunction,ComponentPad*%
%ADD21R,1.500000X1.500000*%
%TD*%
%TA.AperFunction,ComponentPad*%
%ADD22C,1.500000*%
%TD*%
%TA.AperFunction,Conductor*%
%ADD23C,1.500000*%
%TD*%
%TA.AperFunction,Conductor*%
%ADD24C,0.800000*%
%TD*%
G04 APERTURE END LIST*
D10*
D11*
X104029129Y-104214285D02*
X104029129Y-104928571D01*
X104029129Y-104928571D02*
X105529129Y-104928571D01*
X104814843Y-103714285D02*
X104814843Y-103214285D01*
X104029129Y-102999999D02*
X104029129Y-103714285D01*
X104029129Y-103714285D02*
X105529129Y-103714285D01*
X105529129Y-103714285D02*
X105529129Y-102999999D01*
X105029129Y-102357142D02*
X104029129Y-102357142D01*
X104886272Y-102357142D02*
X104957700Y-102285713D01*
X104957700Y-102285713D02*
X105029129Y-102142856D01*
X105029129Y-102142856D02*
X105029129Y-101928570D01*
X105029129Y-101928570D02*
X104957700Y-101785713D01*
X104957700Y-101785713D02*
X104814843Y-101714285D01*
X104814843Y-101714285D02*
X104029129Y-101714285D01*
X104100558Y-101071427D02*
X104029129Y-100928570D01*
X104029129Y-100928570D02*
X104029129Y-100642856D01*
X104029129Y-100642856D02*
X104100558Y-100499999D01*
X104100558Y-100499999D02*
X104243415Y-100428570D01*
X104243415Y-100428570D02*
X104314843Y-100428570D01*
X104314843Y-100428570D02*
X104457700Y-100499999D01*
X104457700Y-100499999D02*
X104529129Y-100642856D01*
X104529129Y-100642856D02*
X104529129Y-100857142D01*
X104529129Y-100857142D02*
X104600558Y-100999999D01*
X104600558Y-100999999D02*
X104743415Y-101071427D01*
X104743415Y-101071427D02*
X104814843Y-101071427D01*
X104814843Y-101071427D02*
X104957700Y-100999999D01*
X104957700Y-100999999D02*
X105029129Y-100857142D01*
X105029129Y-100857142D02*
X105029129Y-100642856D01*
X105029129Y-100642856D02*
X104957700Y-100499999D01*
X104814843Y-99785713D02*
X104814843Y-99285713D01*
X104029129Y-99071427D02*
X104029129Y-99785713D01*
X104029129Y-99785713D02*
X105529129Y-99785713D01*
X105529129Y-99785713D02*
X105529129Y-99071427D01*
X105600558Y-96214284D02*
X103671986Y-97499998D01*
X105386272Y-94642855D02*
X105457700Y-94571427D01*
X105457700Y-94571427D02*
X105529129Y-94428570D01*
X105529129Y-94428570D02*
X105529129Y-94071427D01*
X105529129Y-94071427D02*
X105457700Y-93928570D01*
X105457700Y-93928570D02*
X105386272Y-93857141D01*
X105386272Y-93857141D02*
X105243415Y-93785712D01*
X105243415Y-93785712D02*
X105100558Y-93785712D01*
X105100558Y-93785712D02*
X104886272Y-93857141D01*
X104886272Y-93857141D02*
X104029129Y-94714284D01*
X104029129Y-94714284D02*
X104029129Y-93785712D01*
X105529129Y-92857141D02*
X105529129Y-92714284D01*
X105529129Y-92714284D02*
X105457700Y-92571427D01*
X105457700Y-92571427D02*
X105386272Y-92499999D01*
X105386272Y-92499999D02*
X105243415Y-92428570D01*
X105243415Y-92428570D02*
X104957700Y-92357141D01*
X104957700Y-92357141D02*
X104600558Y-92357141D01*
X104600558Y-92357141D02*
X104314843Y-92428570D01*
X104314843Y-92428570D02*
X104171986Y-92499999D01*
X104171986Y-92499999D02*
X104100558Y-92571427D01*
X104100558Y-92571427D02*
X104029129Y-92714284D01*
X104029129Y-92714284D02*
X104029129Y-92857141D01*
X104029129Y-92857141D02*
X104100558Y-92999999D01*
X104100558Y-92999999D02*
X104171986Y-93071427D01*
X104171986Y-93071427D02*
X104314843Y-93142856D01*
X104314843Y-93142856D02*
X104600558Y-93214284D01*
X104600558Y-93214284D02*
X104957700Y-93214284D01*
X104957700Y-93214284D02*
X105243415Y-93142856D01*
X105243415Y-93142856D02*
X105386272Y-93071427D01*
X105386272Y-93071427D02*
X105457700Y-92999999D01*
X105457700Y-92999999D02*
X105529129Y-92857141D01*
X105386272Y-91785713D02*
X105457700Y-91714285D01*
X105457700Y-91714285D02*
X105529129Y-91571428D01*
X105529129Y-91571428D02*
X105529129Y-91214285D01*
X105529129Y-91214285D02*
X105457700Y-91071428D01*
X105457700Y-91071428D02*
X105386272Y-90999999D01*
X105386272Y-90999999D02*
X105243415Y-90928570D01*
X105243415Y-90928570D02*
X105100558Y-90928570D01*
X105100558Y-90928570D02*
X104886272Y-90999999D01*
X104886272Y-90999999D02*
X104029129Y-91857142D01*
X104029129Y-91857142D02*
X104029129Y-90928570D01*
X105529129Y-89642857D02*
X105529129Y-89928571D01*
X105529129Y-89928571D02*
X105457700Y-90071428D01*
X105457700Y-90071428D02*
X105386272Y-90142857D01*
X105386272Y-90142857D02*
X105171986Y-90285714D01*
X105171986Y-90285714D02*
X104886272Y-90357142D01*
X104886272Y-90357142D02*
X104314843Y-90357142D01*
X104314843Y-90357142D02*
X104171986Y-90285714D01*
X104171986Y-90285714D02*
X104100558Y-90214285D01*
X104100558Y-90214285D02*
X104029129Y-90071428D01*
X104029129Y-90071428D02*
X104029129Y-89785714D01*
X104029129Y-89785714D02*
X104100558Y-89642857D01*
X104100558Y-89642857D02*
X104171986Y-89571428D01*
X104171986Y-89571428D02*
X104314843Y-89499999D01*
X104314843Y-89499999D02*
X104671986Y-89499999D01*
X104671986Y-89499999D02*
X104814843Y-89571428D01*
X104814843Y-89571428D02*
X104886272Y-89642857D01*
X104886272Y-89642857D02*
X104957700Y-89785714D01*
X104957700Y-89785714D02*
X104957700Y-90071428D01*
X104957700Y-90071428D02*
X104886272Y-90214285D01*
X104886272Y-90214285D02*
X104814843Y-90285714D01*
X104814843Y-90285714D02*
X104671986Y-90357142D01*
X103114213Y-107642857D02*
X103114213Y-107357143D01*
X103114213Y-107357143D02*
X103042784Y-107214286D01*
X103042784Y-107214286D02*
X102899927Y-107071429D01*
X102899927Y-107071429D02*
X102614213Y-107000000D01*
X102614213Y-107000000D02*
X102114213Y-107000000D01*
X102114213Y-107000000D02*
X101828499Y-107071429D01*
X101828499Y-107071429D02*
X101685642Y-107214286D01*
X101685642Y-107214286D02*
X101614213Y-107357143D01*
X101614213Y-107357143D02*
X101614213Y-107642857D01*
X101614213Y-107642857D02*
X101685642Y-107785715D01*
X101685642Y-107785715D02*
X101828499Y-107928572D01*
X101828499Y-107928572D02*
X102114213Y-108000000D01*
X102114213Y-108000000D02*
X102614213Y-108000000D01*
X102614213Y-108000000D02*
X102899927Y-107928572D01*
X102899927Y-107928572D02*
X103042784Y-107785715D01*
X103042784Y-107785715D02*
X103114213Y-107642857D01*
X101614213Y-106357143D02*
X103114213Y-106357143D01*
X103114213Y-106357143D02*
X103114213Y-105785714D01*
X103114213Y-105785714D02*
X103042784Y-105642857D01*
X103042784Y-105642857D02*
X102971356Y-105571428D01*
X102971356Y-105571428D02*
X102828499Y-105500000D01*
X102828499Y-105500000D02*
X102614213Y-105500000D01*
X102614213Y-105500000D02*
X102471356Y-105571428D01*
X102471356Y-105571428D02*
X102399927Y-105642857D01*
X102399927Y-105642857D02*
X102328499Y-105785714D01*
X102328499Y-105785714D02*
X102328499Y-106357143D01*
X103114213Y-105071428D02*
X103114213Y-104214286D01*
X101614213Y-104642857D02*
X103114213Y-104642857D01*
X103114213Y-103428571D02*
X103114213Y-103142857D01*
X103114213Y-103142857D02*
X103042784Y-103000000D01*
X103042784Y-103000000D02*
X102899927Y-102857143D01*
X102899927Y-102857143D02*
X102614213Y-102785714D01*
X102614213Y-102785714D02*
X102114213Y-102785714D01*
X102114213Y-102785714D02*
X101828499Y-102857143D01*
X101828499Y-102857143D02*
X101685642Y-103000000D01*
X101685642Y-103000000D02*
X101614213Y-103142857D01*
X101614213Y-103142857D02*
X101614213Y-103428571D01*
X101614213Y-103428571D02*
X101685642Y-103571429D01*
X101685642Y-103571429D02*
X101828499Y-103714286D01*
X101828499Y-103714286D02*
X102114213Y-103785714D01*
X102114213Y-103785714D02*
X102614213Y-103785714D01*
X102614213Y-103785714D02*
X102899927Y-103714286D01*
X102899927Y-103714286D02*
X103042784Y-103571429D01*
X103042784Y-103571429D02*
X103114213Y-103428571D01*
X102185642Y-102142857D02*
X102185642Y-101000000D01*
X102399927Y-100285714D02*
X102399927Y-99785714D01*
X101614213Y-99571428D02*
X101614213Y-100285714D01*
X101614213Y-100285714D02*
X103114213Y-100285714D01*
X103114213Y-100285714D02*
X103114213Y-99571428D01*
X101614213Y-98214285D02*
X101614213Y-98928571D01*
X101614213Y-98928571D02*
X103114213Y-98928571D01*
X102399927Y-97714285D02*
X102399927Y-97214285D01*
X101614213Y-96999999D02*
X101614213Y-97714285D01*
X101614213Y-97714285D02*
X103114213Y-97714285D01*
X103114213Y-97714285D02*
X103114213Y-96999999D01*
X101757070Y-95499999D02*
X101685642Y-95571427D01*
X101685642Y-95571427D02*
X101614213Y-95785713D01*
X101614213Y-95785713D02*
X101614213Y-95928570D01*
X101614213Y-95928570D02*
X101685642Y-96142856D01*
X101685642Y-96142856D02*
X101828499Y-96285713D01*
X101828499Y-96285713D02*
X101971356Y-96357142D01*
X101971356Y-96357142D02*
X102257070Y-96428570D01*
X102257070Y-96428570D02*
X102471356Y-96428570D01*
X102471356Y-96428570D02*
X102757070Y-96357142D01*
X102757070Y-96357142D02*
X102899927Y-96285713D01*
X102899927Y-96285713D02*
X103042784Y-96142856D01*
X103042784Y-96142856D02*
X103114213Y-95928570D01*
X103114213Y-95928570D02*
X103114213Y-95785713D01*
X103114213Y-95785713D02*
X103042784Y-95571427D01*
X103042784Y-95571427D02*
X102971356Y-95499999D01*
X103185642Y-92642856D02*
X101257070Y-93928570D01*
X101614213Y-90999999D02*
X103114213Y-90999999D01*
X103114213Y-90999999D02*
X102042784Y-90499999D01*
X102042784Y-90499999D02*
X103114213Y-89999999D01*
X103114213Y-89999999D02*
X101614213Y-89999999D01*
X101614213Y-88642856D02*
X102399927Y-88642856D01*
X102399927Y-88642856D02*
X102542784Y-88714284D01*
X102542784Y-88714284D02*
X102614213Y-88857141D01*
X102614213Y-88857141D02*
X102614213Y-89142856D01*
X102614213Y-89142856D02*
X102542784Y-89285713D01*
X101685642Y-88642856D02*
X101614213Y-88785713D01*
X101614213Y-88785713D02*
X101614213Y-89142856D01*
X101614213Y-89142856D02*
X101685642Y-89285713D01*
X101685642Y-89285713D02*
X101828499Y-89357141D01*
X101828499Y-89357141D02*
X101971356Y-89357141D01*
X101971356Y-89357141D02*
X102114213Y-89285713D01*
X102114213Y-89285713D02*
X102185642Y-89142856D01*
X102185642Y-89142856D02*
X102185642Y-88785713D01*
X102185642Y-88785713D02*
X102257070Y-88642856D01*
X101614213Y-87928570D02*
X102614213Y-87928570D01*
X103114213Y-87928570D02*
X103042784Y-87999998D01*
X103042784Y-87999998D02*
X102971356Y-87928570D01*
X102971356Y-87928570D02*
X103042784Y-87857141D01*
X103042784Y-87857141D02*
X103114213Y-87928570D01*
X103114213Y-87928570D02*
X102971356Y-87928570D01*
X102614213Y-87214284D02*
X101614213Y-87214284D01*
X102471356Y-87214284D02*
X102542784Y-87142855D01*
X102542784Y-87142855D02*
X102614213Y-86999998D01*
X102614213Y-86999998D02*
X102614213Y-86785712D01*
X102614213Y-86785712D02*
X102542784Y-86642855D01*
X102542784Y-86642855D02*
X102399927Y-86571427D01*
X102399927Y-86571427D02*
X101614213Y-86571427D01*
D12*
%TO.P,J13,0,PAD*%
%TO.N,GND*%
X63580000Y-47800000D03*
X63580000Y-94900000D03*
D13*
%TO.P,J13,1,1*%
%TO.N,SEL1*%
X65000000Y-87970000D03*
D14*
%TO.P,J13,2,2*%
%TO.N,IN2*%
X65000000Y-85200000D03*
%TO.P,J13,3,3*%
%TO.N,IN1*%
X65000000Y-82430000D03*
%TO.P,J13,4,4*%
%TO.N,OUT1*%
X65000000Y-79660000D03*
%TO.P,J13,5,5*%
%TO.N,OUT2*%
X65000000Y-76890000D03*
%TO.P,J13,6,6*%
%TO.N,OUT3*%
X65000000Y-74120000D03*
%TO.P,J13,7,7*%
%TO.N,OUT4*%
X65000000Y-71350000D03*
%TO.P,J13,8,8*%
%TO.N,-15V*%
X65000000Y-68580000D03*
%TO.P,J13,9,9*%
%TO.N,GND*%
X65000000Y-65810000D03*
%TO.P,J13,10,10*%
%TO.N,+15V*%
X65000000Y-63040000D03*
%TO.P,J13,11,11*%
%TO.N,GND*%
X65000000Y-60270000D03*
%TO.P,J13,12,12*%
%TO.N,RVAR_5V*%
X65000000Y-57500000D03*
%TO.P,J13,13,13*%
%TO.N,5V*%
X65000000Y-54730000D03*
%TO.P,J13,14,P14*%
%TO.N,SEL2*%
X62160000Y-86585000D03*
%TO.P,J13,15,P15*%
%TO.N,SEL3*%
X62160000Y-83815000D03*
%TO.P,J13,16,P16*%
%TO.N,GND*%
X62160000Y-81045000D03*
%TO.P,J13,17,P17*%
X62160000Y-78275000D03*
%TO.P,J13,18,P18*%
X62160000Y-75505000D03*
%TO.P,J13,19,P19*%
X62160000Y-72735000D03*
%TO.P,J13,20,P20*%
X62160000Y-69965000D03*
%TO.P,J13,21,P21*%
X62160000Y-67195000D03*
%TO.P,J13,22,P22*%
X62160000Y-64425000D03*
%TO.P,J13,23,P23*%
X62160000Y-61655000D03*
%TO.P,J13,24,P24*%
%TO.N,RVAR_3.3V*%
X62160000Y-58885000D03*
%TO.P,J13,25,P25*%
%TO.N,3.3V*%
X62160000Y-56115000D03*
%TD*%
%TO.P,C1,1*%
%TO.N,+15V*%
X97000000Y-63000000D03*
%TO.P,C1,2*%
%TO.N,GND*%
X102000000Y-63000000D03*
%TD*%
D15*
%TO.P,J6,1,In*%
%TO.N,OUT4*%
X89200000Y-71250000D03*
D16*
%TO.P,J6,2,Ext*%
%TO.N,GND*%
X91740000Y-71250000D03*
%TD*%
D15*
%TO.P,J7,1,Pin_1*%
%TO.N,GND*%
X113540000Y-54000000D03*
D16*
%TO.P,J7,2,Pin_2*%
%TO.N,+15V*%
X111000000Y-54000000D03*
%TD*%
D17*
%TO.P,C3,1*%
%TO.N,+15V*%
X102750000Y-45000000D03*
D14*
%TO.P,C3,2*%
%TO.N,GND*%
X105250000Y-45000000D03*
%TD*%
D15*
%TO.P,J3,1,In*%
%TO.N,OUT1*%
X78450000Y-79750000D03*
D16*
%TO.P,J3,2,Ext*%
%TO.N,GND*%
X80990000Y-79750000D03*
%TD*%
D15*
%TO.P,J8,1,Pin_1*%
%TO.N,GND*%
X113790000Y-69250000D03*
D16*
%TO.P,J8,2,Pin_2*%
%TO.N,-15V*%
X111250000Y-69250000D03*
%TD*%
D14*
%TO.P,C7,1*%
%TO.N,5V*%
X94750000Y-38250000D03*
%TO.P,C7,2*%
%TO.N,GND*%
X99750000Y-38250000D03*
%TD*%
%TO.P,R3,1*%
%TO.N,SEL3*%
X72600000Y-98320000D03*
%TO.P,R3,2*%
%TO.N,GND*%
X72600000Y-108480000D03*
%TD*%
D15*
%TO.P,J9,1,Pin_1*%
%TO.N,GND*%
X88120000Y-92300000D03*
D16*
%TO.P,J9,2,Pin_2*%
%TO.N,SEL1*%
X90660000Y-92300000D03*
%TO.P,J9,3,Pin_3*%
%TO.N,3.3V*%
X93200000Y-92300000D03*
%TD*%
D15*
%TO.P,J1,1,In*%
%TO.N,IN1*%
X89200000Y-82500000D03*
D16*
%TO.P,J1,2,Ext*%
%TO.N,GND*%
X91740000Y-82500000D03*
%TD*%
D14*
%TO.P,C2,1*%
%TO.N,GND*%
X110200000Y-77400000D03*
%TO.P,C2,2*%
%TO.N,-15V*%
X105200000Y-77400000D03*
%TD*%
D15*
%TO.P,J2,1,In*%
%TO.N,IN2*%
X78450000Y-85250000D03*
D16*
%TO.P,J2,2,Ext*%
%TO.N,GND*%
X80990000Y-85250000D03*
%TD*%
D17*
%TO.P,C4,1*%
%TO.N,5V*%
X94750000Y-45000000D03*
D14*
%TO.P,C4,2*%
%TO.N,GND*%
X97250000Y-45000000D03*
%TD*%
D15*
%TO.P,RV1,1,1*%
%TO.N,5V*%
X90500000Y-48750000D03*
D16*
%TO.P,RV1,2,2*%
%TO.N,RVAR_5V*%
X90500000Y-51290000D03*
%TO.P,RV1,3,3*%
%TO.N,GND*%
X90500000Y-53830000D03*
%TD*%
D17*
%TO.P,C5,1*%
%TO.N,GND*%
X102700000Y-71600000D03*
D14*
%TO.P,C5,2*%
%TO.N,-15V*%
X105200000Y-71600000D03*
%TD*%
D15*
%TO.P,J4,1,In*%
%TO.N,OUT2*%
X89200000Y-76750000D03*
D16*
%TO.P,J4,2,Ext*%
%TO.N,GND*%
X91740000Y-76750000D03*
%TD*%
D15*
%TO.P,RV2,1,1*%
%TO.N,3.3V*%
X73500000Y-37500000D03*
D16*
%TO.P,RV2,2,2*%
%TO.N,RVAR_3.3V*%
X73500000Y-40040000D03*
%TO.P,RV2,3,3*%
%TO.N,GND*%
X73500000Y-42580000D03*
%TD*%
D15*
%TO.P,J12,1,Pin_1*%
%TO.N,GND*%
X88120000Y-106000000D03*
D16*
%TO.P,J12,2,Pin_2*%
%TO.N,SEL3*%
X90660000Y-106000000D03*
%TO.P,J12,3,Pin_3*%
%TO.N,3.3V*%
X93200000Y-106000000D03*
%TD*%
D18*
%TO.P,C6,1*%
%TO.N,3.3V*%
X80000000Y-37500000D03*
D14*
%TO.P,C6,2*%
%TO.N,GND*%
X80000000Y-35000000D03*
%TD*%
D19*
%TO.P,U1,1,IN*%
%TO.N,+15V*%
X102000000Y-54000000D03*
D20*
%TO.P,U1,2,GND*%
%TO.N,GND*%
X99460000Y-54000000D03*
%TO.P,U1,3,OUT*%
%TO.N,5V*%
X96920000Y-54000000D03*
%TD*%
D14*
%TO.P,R2,1*%
%TO.N,SEL2*%
X76200000Y-98240000D03*
%TO.P,R2,2*%
%TO.N,GND*%
X76200000Y-108400000D03*
%TD*%
D15*
%TO.P,J11,1,Pin_1*%
%TO.N,GND*%
X88120000Y-99400000D03*
D16*
%TO.P,J11,2,Pin_2*%
%TO.N,SEL2*%
X90660000Y-99400000D03*
%TO.P,J11,3,Pin_3*%
%TO.N,3.3V*%
X93200000Y-99400000D03*
%TD*%
D15*
%TO.P,J5,1,In*%
%TO.N,OUT3*%
X78450000Y-74000000D03*
D16*
%TO.P,J5,2,Ext*%
%TO.N,GND*%
X80990000Y-74000000D03*
%TD*%
D14*
%TO.P,R1,1*%
%TO.N,SEL1*%
X79800000Y-98320000D03*
%TO.P,R1,2*%
%TO.N,GND*%
X79800000Y-108480000D03*
%TD*%
%TO.P,C8,1*%
%TO.N,3.3V*%
X76500000Y-47750000D03*
%TO.P,C8,2*%
%TO.N,GND*%
X81500000Y-47750000D03*
%TD*%
D21*
%TO.P,U2,1,VO*%
%TO.N,3.3V*%
X80000000Y-42750000D03*
D22*
%TO.P,U2,2,GND*%
%TO.N,GND*%
X82540000Y-42750000D03*
%TO.P,U2,3,VI*%
%TO.N,+15V*%
X85080000Y-42750000D03*
%TD*%
D23*
%TO.N,+15V*%
X65000000Y-63040000D02*
X96560000Y-63040000D01*
X102000000Y-54000000D02*
X102000000Y-58000000D01*
X85080000Y-42750000D02*
X85080000Y-36420000D01*
X87000000Y-34500000D02*
X100750000Y-34500000D01*
X102000000Y-45750000D02*
X102750000Y-45000000D01*
X85080000Y-36420000D02*
X87000000Y-34500000D01*
X102000000Y-54000000D02*
X111000000Y-54000000D01*
X102000000Y-58000000D02*
X97000000Y-63000000D01*
X102750000Y-36500000D02*
X102750000Y-45000000D01*
X100750000Y-34500000D02*
X102750000Y-36500000D01*
X102000000Y-54750000D02*
X102000000Y-45750000D01*
%TO.N,GND*%
X90500000Y-53830000D02*
X90500000Y-54000000D01*
%TO.N,5V*%
X94750000Y-48500000D02*
X94750000Y-51830000D01*
X94500000Y-48750000D02*
X94750000Y-48500000D01*
X86750000Y-48750000D02*
X90500000Y-48750000D01*
X80770000Y-54730000D02*
X86750000Y-48750000D01*
X94750000Y-51830000D02*
X96920000Y-54000000D01*
X90500000Y-48750000D02*
X94500000Y-48750000D01*
X65000000Y-54730000D02*
X80770000Y-54730000D01*
X94750000Y-45000000D02*
X94750000Y-38250000D01*
X94750000Y-45000000D02*
X94750000Y-48500000D01*
D24*
%TO.N,3.3V*%
X93200000Y-99400000D02*
X93200000Y-106000000D01*
X72500000Y-51750000D02*
X63500000Y-51750000D01*
X62160000Y-53090000D02*
X62160000Y-56115000D01*
X93200000Y-92300000D02*
X93200000Y-99400000D01*
X80000000Y-37500000D02*
X73500000Y-37500000D01*
X63500000Y-51750000D02*
X62160000Y-53090000D01*
X80000000Y-37500000D02*
X80000000Y-42750000D01*
X76500000Y-47750000D02*
X72500000Y-51750000D01*
%TO.N,IN1*%
X89110000Y-82410000D02*
X89200000Y-82500000D01*
X89130000Y-82430000D02*
X89200000Y-82500000D01*
X65000000Y-82430000D02*
X89130000Y-82430000D01*
%TO.N,IN2*%
X78400000Y-85200000D02*
X78450000Y-85250000D01*
X65000000Y-85200000D02*
X78400000Y-85200000D01*
X78380000Y-85180000D02*
X78450000Y-85250000D01*
%TO.N,OUT1*%
X65000000Y-79660000D02*
X78360000Y-79660000D01*
X78360000Y-79660000D02*
X78450000Y-79750000D01*
%TO.N,OUT2*%
X65000000Y-76890000D02*
X89060000Y-76890000D01*
X89060000Y-76890000D02*
X89200000Y-76750000D01*
X65110000Y-77000000D02*
X65000000Y-76890000D01*
%TO.N,OUT3*%
X78330000Y-74120000D02*
X78450000Y-74000000D01*
X65000000Y-74120000D02*
X78330000Y-74120000D01*
%TO.N,OUT4*%
X89100000Y-71350000D02*
X89200000Y-71250000D01*
X65100000Y-71250000D02*
X65000000Y-71350000D01*
X65000000Y-71350000D02*
X89100000Y-71350000D01*
D23*
%TO.N,-15V*%
X104331370Y-67200000D02*
X70180000Y-67200000D01*
X105250000Y-68118630D02*
X104331370Y-67200000D01*
X68800000Y-68580000D02*
X65000000Y-68580000D01*
X105250000Y-75250000D02*
X105200000Y-75300000D01*
X105250000Y-69250000D02*
X105250000Y-75250000D01*
X70180000Y-67200000D02*
X68800000Y-68580000D01*
X105250000Y-69250000D02*
X105250000Y-68118630D01*
X105200000Y-75300000D02*
X105200000Y-77400000D01*
X105250000Y-69250000D02*
X111250000Y-69250000D01*
D24*
%TO.N,SEL1*%
X79800000Y-95500000D02*
X72270000Y-87970000D01*
X72270000Y-87970000D02*
X65000000Y-87970000D01*
X79800000Y-98320000D02*
X79800000Y-95500000D01*
%TO.N,SEL2*%
X62160000Y-89460000D02*
X62160000Y-86585000D01*
X76200000Y-98240000D02*
X76200000Y-95400000D01*
X71500000Y-90700000D02*
X63400000Y-90700000D01*
X63400000Y-90700000D02*
X62160000Y-89460000D01*
X76200000Y-95400000D02*
X71500000Y-90700000D01*
%TO.N,SEL3*%
X60185000Y-83815000D02*
X62160000Y-83815000D01*
X58600000Y-96700000D02*
X58600000Y-85400000D01*
X72600000Y-98320000D02*
X72580000Y-98300000D01*
X72580000Y-98300000D02*
X60200000Y-98300000D01*
X58600000Y-85400000D02*
X60185000Y-83815000D01*
X60200000Y-98300000D02*
X58600000Y-96700000D01*
%TO.N,RVAR_5V*%
X90500000Y-51290000D02*
X88210000Y-51290000D01*
X82000000Y-57500000D02*
X65000000Y-57500000D01*
X88210000Y-51290000D02*
X82000000Y-57500000D01*
%TO.N,RVAR_3.3V*%
X59885000Y-58885000D02*
X62160000Y-58885000D01*
X73460000Y-40000000D02*
X68000000Y-40000000D01*
X58750000Y-42000000D02*
X58750000Y-57750000D01*
X58750000Y-57750000D02*
X59885000Y-58885000D01*
X59750000Y-41000000D02*
X58750000Y-42000000D01*
X73500000Y-40040000D02*
X73460000Y-40000000D01*
X68000000Y-40000000D02*
X67000000Y-41000000D01*
X67000000Y-41000000D02*
X59750000Y-41000000D01*
%TD*%
%TA.AperFunction,Conductor*%
%TO.N,GND*%
G36*
X93434539Y-50028185D02*
G01*
X93480294Y-50080989D01*
X93491500Y-50132500D01*
X93491500Y-51929051D01*
X93522487Y-52124700D01*
X93583702Y-52313097D01*
X93591874Y-52329135D01*
X93673634Y-52489598D01*
X93790070Y-52649858D01*
X93790072Y-52649860D01*
X95459924Y-54319712D01*
X95493409Y-54381035D01*
X95494714Y-54387983D01*
X95494971Y-54389610D01*
X95506013Y-54423592D01*
X95566038Y-54608329D01*
X95670440Y-54813231D01*
X95805611Y-54999278D01*
X95968222Y-55161889D01*
X96154269Y-55297060D01*
X96209199Y-55325048D01*
X96359166Y-55401460D01*
X96359168Y-55401460D01*
X96359171Y-55401462D01*
X96444518Y-55429193D01*
X96577881Y-55472526D01*
X96805012Y-55508500D01*
X96805017Y-55508500D01*
X97034988Y-55508500D01*
X97262118Y-55472526D01*
X97287638Y-55464234D01*
X97480829Y-55401462D01*
X97685731Y-55297060D01*
X97871778Y-55161889D01*
X98034389Y-54999278D01*
X98094937Y-54915940D01*
X98150264Y-54873276D01*
X98219877Y-54867297D01*
X98281672Y-54899902D01*
X98295571Y-54915941D01*
X98352097Y-54993741D01*
X98352097Y-54993742D01*
X98513757Y-55155402D01*
X98698723Y-55289788D01*
X98902429Y-55393582D01*
X99119871Y-55464234D01*
X99210000Y-55478509D01*
X99210000Y-54490747D01*
X99247708Y-54512518D01*
X99387591Y-54550000D01*
X99532409Y-54550000D01*
X99672292Y-54512518D01*
X99710000Y-54490747D01*
X99710000Y-55478508D01*
X99800128Y-55464234D01*
X100017570Y-55393582D01*
X100221276Y-55289788D01*
X100397342Y-55161869D01*
X100463149Y-55138389D01*
X100531203Y-55154214D01*
X100579898Y-55204320D01*
X100586409Y-55218852D01*
X100596611Y-55246204D01*
X100684239Y-55363261D01*
X100691809Y-55368928D01*
X100733681Y-55424859D01*
X100741500Y-55468195D01*
X100741500Y-57427350D01*
X100721815Y-57494389D01*
X100705181Y-57515031D01*
X96475031Y-61745181D01*
X96413708Y-61778666D01*
X96387350Y-61781500D01*
X65380768Y-61781500D01*
X65378434Y-61781130D01*
X65377223Y-61781449D01*
X65342449Y-61775430D01*
X65328100Y-61770768D01*
X65321000Y-61768461D01*
X65263326Y-61729021D01*
X65236130Y-61664662D01*
X65248046Y-61595816D01*
X65295292Y-61544342D01*
X65321004Y-61532600D01*
X65499029Y-61474755D01*
X65681349Y-61381859D01*
X65725921Y-61349474D01*
X65129409Y-60752962D01*
X65192993Y-60735925D01*
X65307007Y-60670099D01*
X65400099Y-60577007D01*
X65465925Y-60462993D01*
X65482962Y-60399409D01*
X66079474Y-60995921D01*
X66111859Y-60951349D01*
X66204755Y-60769031D01*
X66267990Y-60574417D01*
X66300000Y-60372317D01*
X66300000Y-60167682D01*
X66267990Y-59965582D01*
X66204755Y-59770968D01*
X66111859Y-59588650D01*
X66079474Y-59544077D01*
X66079474Y-59544076D01*
X65482962Y-60140589D01*
X65465925Y-60077007D01*
X65400099Y-59962993D01*
X65307007Y-59869901D01*
X65192993Y-59804075D01*
X65129408Y-59787037D01*
X65725922Y-59190524D01*
X65725921Y-59190523D01*
X65681359Y-59158147D01*
X65681350Y-59158141D01*
X65499031Y-59065244D01*
X65321004Y-59007399D01*
X65263329Y-58967961D01*
X65236131Y-58903602D01*
X65248046Y-58834756D01*
X65295290Y-58783280D01*
X65321005Y-58771537D01*
X65502290Y-58712634D01*
X65685803Y-58619129D01*
X65852430Y-58498068D01*
X65905679Y-58444819D01*
X65967002Y-58411334D01*
X65993360Y-58408500D01*
X82089480Y-58408500D01*
X82089481Y-58408499D01*
X82147986Y-58396862D01*
X82264992Y-58373589D01*
X82264995Y-58373587D01*
X82265000Y-58373587D01*
X82428494Y-58305866D01*
X82430329Y-58305106D01*
X82430329Y-58305105D01*
X82430336Y-58305103D01*
X82579135Y-58205678D01*
X88549994Y-52234819D01*
X88611317Y-52201334D01*
X88637675Y-52198500D01*
X89435928Y-52198500D01*
X89502967Y-52218185D01*
X89523609Y-52234819D01*
X89614996Y-52326206D01*
X89787991Y-52451894D01*
X89792680Y-52454283D01*
X89843478Y-52502254D01*
X89860276Y-52570074D01*
X89837742Y-52636210D01*
X89796205Y-52672209D01*
X89796590Y-52672838D01*
X89792804Y-52675157D01*
X89792702Y-52675246D01*
X89792449Y-52675374D01*
X89792440Y-52675380D01*
X89738282Y-52714727D01*
X89738282Y-52714728D01*
X90370591Y-53347037D01*
X90307007Y-53364075D01*
X90192993Y-53429901D01*
X90099901Y-53522993D01*
X90034075Y-53637007D01*
X90017037Y-53700591D01*
X89384728Y-53068282D01*
X89384727Y-53068282D01*
X89345380Y-53122439D01*
X89248904Y-53311782D01*
X89183242Y-53513869D01*
X89183242Y-53513872D01*
X89150000Y-53723753D01*
X89150000Y-53936246D01*
X89183242Y-54146127D01*
X89183242Y-54146130D01*
X89248904Y-54348217D01*
X89345375Y-54537550D01*
X89384728Y-54591716D01*
X90017037Y-53959408D01*
X90034075Y-54022993D01*
X90099901Y-54137007D01*
X90192993Y-54230099D01*
X90307007Y-54295925D01*
X90370590Y-54312962D01*
X89738282Y-54945269D01*
X89738282Y-54945270D01*
X89792449Y-54984624D01*
X89981782Y-55081095D01*
X90183870Y-55146757D01*
X90393754Y-55180000D01*
X90606246Y-55180000D01*
X90816127Y-55146757D01*
X90816130Y-55146757D01*
X91018217Y-55081095D01*
X91207554Y-54984622D01*
X91261716Y-54945270D01*
X91261717Y-54945270D01*
X90629408Y-54312962D01*
X90692993Y-54295925D01*
X90807007Y-54230099D01*
X90900099Y-54137007D01*
X90965925Y-54022993D01*
X90982962Y-53959408D01*
X91615270Y-54591717D01*
X91615270Y-54591716D01*
X91654622Y-54537554D01*
X91751095Y-54348217D01*
X91816757Y-54146130D01*
X91816757Y-54146127D01*
X91850000Y-53936246D01*
X91850000Y-53723753D01*
X91816757Y-53513872D01*
X91816757Y-53513869D01*
X91751095Y-53311782D01*
X91654624Y-53122449D01*
X91615270Y-53068282D01*
X91615269Y-53068282D01*
X90982962Y-53700590D01*
X90965925Y-53637007D01*
X90900099Y-53522993D01*
X90807007Y-53429901D01*
X90692993Y-53364075D01*
X90629409Y-53347037D01*
X91261716Y-52714728D01*
X91207547Y-52675373D01*
X91207545Y-52675371D01*
X91207308Y-52675251D01*
X91207234Y-52675181D01*
X91203396Y-52672829D01*
X91203890Y-52672022D01*
X91156515Y-52627274D01*
X91139724Y-52559451D01*
X91162266Y-52493318D01*
X91207319Y-52454283D01*
X91212009Y-52451894D01*
X91385004Y-52326206D01*
X91536206Y-52175004D01*
X91661894Y-52002009D01*
X91758972Y-51811483D01*
X91825049Y-51608116D01*
X91858500Y-51396916D01*
X91858500Y-51183084D01*
X91825049Y-50971884D01*
X91782685Y-50841500D01*
X91758973Y-50768519D01*
X91758972Y-50768516D01*
X91709507Y-50671438D01*
X91661894Y-50577991D01*
X91536206Y-50404996D01*
X91431027Y-50299817D01*
X91416263Y-50272779D01*
X91399656Y-50246813D01*
X91399665Y-50242382D01*
X91397543Y-50238495D01*
X91399740Y-50207760D01*
X91399808Y-50176943D01*
X91402210Y-50173221D01*
X91402527Y-50168803D01*
X91420994Y-50144134D01*
X91437711Y-50118247D01*
X91442492Y-50115417D01*
X91444399Y-50112870D01*
X91467443Y-50099231D01*
X91471342Y-50097460D01*
X91596204Y-50050889D01*
X91630571Y-50025161D01*
X91642834Y-50019594D01*
X91664628Y-50016508D01*
X91685253Y-50008816D01*
X91694100Y-50008500D01*
X93367500Y-50008500D01*
X93434539Y-50028185D01*
G37*
%TD.AperFunction*%
%TA.AperFunction,Conductor*%
G36*
X119342539Y-30220185D02*
G01*
X119388294Y-30272989D01*
X119399500Y-30324500D01*
X119399500Y-111775500D01*
X119379815Y-111842539D01*
X119327011Y-111888294D01*
X119275500Y-111899500D01*
X56724500Y-111899500D01*
X56657461Y-111879815D01*
X56611706Y-111827011D01*
X56600500Y-111775500D01*
X56600500Y-108377682D01*
X71300000Y-108377682D01*
X71300000Y-108582317D01*
X71332009Y-108784417D01*
X71395244Y-108979031D01*
X71488141Y-109161350D01*
X71488147Y-109161359D01*
X71520523Y-109205921D01*
X71520524Y-109205922D01*
X72200000Y-108526446D01*
X72200000Y-108532661D01*
X72227259Y-108634394D01*
X72279920Y-108725606D01*
X72354394Y-108800080D01*
X72445606Y-108852741D01*
X72547339Y-108880000D01*
X72553553Y-108880000D01*
X71874076Y-109559474D01*
X71918650Y-109591859D01*
X72100968Y-109684755D01*
X72295582Y-109747990D01*
X72497683Y-109780000D01*
X72702317Y-109780000D01*
X72904417Y-109747990D01*
X73099031Y-109684755D01*
X73281349Y-109591859D01*
X73325921Y-109559474D01*
X73325922Y-109559474D01*
X73286344Y-109519896D01*
X72646447Y-108880000D01*
X72652661Y-108880000D01*
X72754394Y-108852741D01*
X72845606Y-108800080D01*
X72920080Y-108725606D01*
X72972741Y-108634394D01*
X73000000Y-108532661D01*
X73000000Y-108526447D01*
X73679474Y-109205921D01*
X73711859Y-109161349D01*
X73804755Y-108979031D01*
X73867990Y-108784417D01*
X73900000Y-108582317D01*
X73900000Y-108377682D01*
X73889631Y-108312214D01*
X73887329Y-108297682D01*
X74900000Y-108297682D01*
X74900000Y-108502317D01*
X74932009Y-108704417D01*
X74995244Y-108899031D01*
X75088141Y-109081350D01*
X75088147Y-109081359D01*
X75120523Y-109125921D01*
X75120524Y-109125922D01*
X75800000Y-108446446D01*
X75800000Y-108452661D01*
X75827259Y-108554394D01*
X75879920Y-108645606D01*
X75954394Y-108720080D01*
X76045606Y-108772741D01*
X76147339Y-108800000D01*
X76153553Y-108800000D01*
X75474076Y-109479474D01*
X75518650Y-109511859D01*
X75700968Y-109604755D01*
X75895582Y-109667990D01*
X76097683Y-109700000D01*
X76302317Y-109700000D01*
X76504417Y-109667990D01*
X76699031Y-109604755D01*
X76881349Y-109511859D01*
X76925921Y-109479474D01*
X76925922Y-109479474D01*
X76246447Y-108800000D01*
X76252661Y-108800000D01*
X76354394Y-108772741D01*
X76445606Y-108720080D01*
X76520080Y-108645606D01*
X76572741Y-108554394D01*
X76600000Y-108452661D01*
X76600000Y-108446448D01*
X77279474Y-109125922D01*
X77279474Y-109125921D01*
X77311859Y-109081349D01*
X77404755Y-108899031D01*
X77467990Y-108704417D01*
X77500000Y-108502317D01*
X77500000Y-108377682D01*
X78500000Y-108377682D01*
X78500000Y-108582317D01*
X78532009Y-108784417D01*
X78595244Y-108979031D01*
X78688141Y-109161350D01*
X78688147Y-109161359D01*
X78720523Y-109205921D01*
X78720524Y-109205922D01*
X79400000Y-108526446D01*
X79400000Y-108532661D01*
X79427259Y-108634394D01*
X79479920Y-108725606D01*
X79554394Y-108800080D01*
X79645606Y-108852741D01*
X79747339Y-108880000D01*
X79753553Y-108880000D01*
X79074076Y-109559474D01*
X79118650Y-109591859D01*
X79300968Y-109684755D01*
X79495582Y-109747990D01*
X79697683Y-109780000D01*
X79902317Y-109780000D01*
X80104417Y-109747990D01*
X80299031Y-109684755D01*
X80481349Y-109591859D01*
X80525921Y-109559474D01*
X79846447Y-108880000D01*
X79852661Y-108880000D01*
X79954394Y-108852741D01*
X80045606Y-108800080D01*
X80120080Y-108725606D01*
X80172741Y-108634394D01*
X80200000Y-108532661D01*
X80200000Y-108526447D01*
X80879474Y-109205921D01*
X80911859Y-109161349D01*
X81004755Y-108979031D01*
X81067990Y-108784417D01*
X81086713Y-108666204D01*
X100590726Y-108666204D01*
X106266902Y-108666204D01*
X106266902Y-99865186D01*
X110099500Y-99865186D01*
X110099500Y-100134813D01*
X110129686Y-100402719D01*
X110129687Y-100402728D01*
X110129688Y-100402732D01*
X110144687Y-100468446D01*
X110189684Y-100665594D01*
X110189687Y-100665602D01*
X110278734Y-100920082D01*
X110395714Y-101162994D01*
X110395716Y-101162997D01*
X110539162Y-101391289D01*
X110707266Y-101602085D01*
X110897915Y-101792734D01*
X111108711Y-101960838D01*
X111337003Y-102104284D01*
X111579921Y-102221267D01*
X111771049Y-102288145D01*
X111834397Y-102310312D01*
X111834405Y-102310315D01*
X111834408Y-102310315D01*
X111834409Y-102310316D01*
X112097268Y-102370312D01*
X112365187Y-102400499D01*
X112365188Y-102400500D01*
X112365191Y-102400500D01*
X112634812Y-102400500D01*
X112634812Y-102400499D01*
X112902732Y-102370312D01*
X113165591Y-102310316D01*
X113420079Y-102221267D01*
X113662997Y-102104284D01*
X113891289Y-101960838D01*
X114102085Y-101792734D01*
X114292734Y-101602085D01*
X114460838Y-101391289D01*
X114604284Y-101162997D01*
X114721267Y-100920079D01*
X114810316Y-100665591D01*
X114870312Y-100402732D01*
X114900500Y-100134809D01*
X114900500Y-99865191D01*
X114870312Y-99597268D01*
X114810316Y-99334409D01*
X114804598Y-99318069D01*
X114773147Y-99228185D01*
X114721267Y-99079921D01*
X114604284Y-98837003D01*
X114460838Y-98608711D01*
X114292734Y-98397915D01*
X114102085Y-98207266D01*
X114083956Y-98192809D01*
X114019024Y-98141027D01*
X113891289Y-98039162D01*
X113662997Y-97895716D01*
X113662994Y-97895714D01*
X113420082Y-97778734D01*
X113165602Y-97689687D01*
X113165594Y-97689684D01*
X112968446Y-97644687D01*
X112902732Y-97629688D01*
X112902728Y-97629687D01*
X112902719Y-97629686D01*
X112634813Y-97599500D01*
X112634809Y-97599500D01*
X112365191Y-97599500D01*
X112365186Y-97599500D01*
X112097280Y-97629686D01*
X112097268Y-97629688D01*
X111834405Y-97689684D01*
X111834397Y-97689687D01*
X111579917Y-97778734D01*
X111337005Y-97895714D01*
X111108712Y-98039161D01*
X110897915Y-98207265D01*
X110707265Y-98397915D01*
X110539161Y-98608712D01*
X110395714Y-98837005D01*
X110278734Y-99079917D01*
X110189687Y-99334397D01*
X110189684Y-99334405D01*
X110129688Y-99597268D01*
X110129686Y-99597280D01*
X110099500Y-99865186D01*
X106266902Y-99865186D01*
X106266902Y-85906202D01*
X100590726Y-85906202D01*
X100590726Y-108666204D01*
X81086713Y-108666204D01*
X81100000Y-108582317D01*
X81100000Y-108377682D01*
X81067990Y-108175582D01*
X81004755Y-107980968D01*
X80911859Y-107798650D01*
X80879474Y-107754077D01*
X80879474Y-107754076D01*
X80200000Y-108433551D01*
X80200000Y-108427339D01*
X80172741Y-108325606D01*
X80120080Y-108234394D01*
X80045606Y-108159920D01*
X79954394Y-108107259D01*
X79852661Y-108080000D01*
X79846446Y-108080000D01*
X80525922Y-107400524D01*
X80525921Y-107400523D01*
X80481359Y-107368147D01*
X80481350Y-107368141D01*
X80299031Y-107275244D01*
X80104417Y-107212009D01*
X79902317Y-107180000D01*
X79697683Y-107180000D01*
X79495582Y-107212009D01*
X79300968Y-107275244D01*
X79118644Y-107368143D01*
X79074077Y-107400523D01*
X79074077Y-107400524D01*
X79753554Y-108080000D01*
X79747339Y-108080000D01*
X79645606Y-108107259D01*
X79554394Y-108159920D01*
X79479920Y-108234394D01*
X79427259Y-108325606D01*
X79400000Y-108427339D01*
X79400000Y-108433553D01*
X78720524Y-107754077D01*
X78720523Y-107754077D01*
X78688143Y-107798644D01*
X78595244Y-107980968D01*
X78532009Y-108175582D01*
X78500000Y-108377682D01*
X77500000Y-108377682D01*
X77500000Y-108297682D01*
X77467990Y-108095582D01*
X77404755Y-107900968D01*
X77311859Y-107718650D01*
X77279474Y-107674077D01*
X77279474Y-107674076D01*
X76600000Y-108353551D01*
X76600000Y-108347339D01*
X76572741Y-108245606D01*
X76520080Y-108154394D01*
X76445606Y-108079920D01*
X76354394Y-108027259D01*
X76252661Y-108000000D01*
X76246446Y-108000000D01*
X76886345Y-107360102D01*
X76925922Y-107320524D01*
X76925921Y-107320523D01*
X76881359Y-107288147D01*
X76881350Y-107288141D01*
X76699031Y-107195244D01*
X76504417Y-107132009D01*
X76302317Y-107100000D01*
X76097683Y-107100000D01*
X75895582Y-107132009D01*
X75700968Y-107195244D01*
X75518644Y-107288143D01*
X75474077Y-107320523D01*
X75474077Y-107320524D01*
X76153554Y-108000000D01*
X76147339Y-108000000D01*
X76045606Y-108027259D01*
X75954394Y-108079920D01*
X75879920Y-108154394D01*
X75827259Y-108245606D01*
X75800000Y-108347339D01*
X75800000Y-108353553D01*
X75120524Y-107674077D01*
X75120523Y-107674077D01*
X75088143Y-107718644D01*
X74995244Y-107900968D01*
X74932009Y-108095582D01*
X74900000Y-108297682D01*
X73887329Y-108297682D01*
X73867990Y-108175582D01*
X73804755Y-107980968D01*
X73711859Y-107798650D01*
X73679474Y-107754077D01*
X73679474Y-107754076D01*
X73000000Y-108433551D01*
X73000000Y-108427339D01*
X72972741Y-108325606D01*
X72920080Y-108234394D01*
X72845606Y-108159920D01*
X72754394Y-108107259D01*
X72652661Y-108080000D01*
X72646446Y-108080000D01*
X73325922Y-107400524D01*
X73325921Y-107400523D01*
X73281359Y-107368147D01*
X73281350Y-107368141D01*
X73099031Y-107275244D01*
X72904417Y-107212009D01*
X72702317Y-107180000D01*
X72497683Y-107180000D01*
X72295582Y-107212009D01*
X72100968Y-107275244D01*
X71918644Y-107368143D01*
X71874077Y-107400523D01*
X71874077Y-107400524D01*
X72553554Y-108080000D01*
X72547339Y-108080000D01*
X72445606Y-108107259D01*
X72354394Y-108159920D01*
X72279920Y-108234394D01*
X72227259Y-108325606D01*
X72200000Y-108427339D01*
X72200000Y-108433553D01*
X71520524Y-107754077D01*
X71520523Y-107754077D01*
X71488143Y-107798644D01*
X71395244Y-107980968D01*
X71332009Y-108175582D01*
X71300000Y-108377682D01*
X56600500Y-108377682D01*
X56600500Y-104865186D01*
X62599500Y-104865186D01*
X62599500Y-105134813D01*
X62629686Y-105402719D01*
X62629688Y-105402731D01*
X62689684Y-105665594D01*
X62689687Y-105665602D01*
X62778734Y-105920082D01*
X62895714Y-106162994D01*
X62895716Y-106162997D01*
X63039162Y-106391289D01*
X63207266Y-106602085D01*
X63397915Y-106792734D01*
X63608711Y-106960838D01*
X63837003Y-107104284D01*
X64079921Y-107221267D01*
X64234179Y-107275244D01*
X64334397Y-107310312D01*
X64334405Y-107310315D01*
X64334408Y-107310315D01*
X64334409Y-107310316D01*
X64597268Y-107370312D01*
X64865187Y-107400499D01*
X64865188Y-107400500D01*
X64865191Y-107400500D01*
X65134812Y-107400500D01*
X65134812Y-107400499D01*
X65402732Y-107370312D01*
X65665591Y-107310316D01*
X65920079Y-107221267D01*
X66162997Y-107104284D01*
X66391289Y-106960838D01*
X66602085Y-106792734D01*
X66792734Y-106602085D01*
X66960838Y-106391289D01*
X67104284Y-106162997D01*
X67104287Y-106162991D01*
X67113030Y-106144837D01*
X67113030Y-106144836D01*
X67214479Y-105934174D01*
X67221267Y-105920079D01*
X67310316Y-105665591D01*
X67370312Y-105402732D01*
X67400500Y-105134809D01*
X67400500Y-104865191D01*
X67370312Y-104597268D01*
X67310316Y-104334409D01*
X67221267Y-104079921D01*
X67104284Y-103837003D01*
X66960838Y-103608711D01*
X66792734Y-103397915D01*
X66602085Y-103207266D01*
X66391289Y-103039162D01*
X66162997Y-102895716D01*
X66162994Y-102895714D01*
X65920082Y-102778734D01*
X65665602Y-102689687D01*
X65665594Y-102689684D01*
X65468446Y-102644687D01*
X65402732Y-102629688D01*
X65402728Y-102629687D01*
X65402719Y-102629686D01*
X65134813Y-102599500D01*
X65134809Y-102599500D01*
X64865191Y-102599500D01*
X64865186Y-102599500D01*
X64597280Y-102629686D01*
X64597268Y-102629688D01*
X64334405Y-102689684D01*
X64334397Y-102689687D01*
X64079917Y-102778734D01*
X63837005Y-102895714D01*
X63608712Y-103039161D01*
X63397915Y-103207265D01*
X63207265Y-103397915D01*
X63039161Y-103608712D01*
X62895714Y-103837005D01*
X62778734Y-104079917D01*
X62689687Y-104334397D01*
X62689684Y-104334405D01*
X62629688Y-104597268D01*
X62629686Y-104597280D01*
X62599500Y-104865186D01*
X56600500Y-104865186D01*
X56600500Y-98976243D01*
X56598800Y-98958296D01*
X56600000Y-98800000D01*
X53124224Y-98800000D01*
X53057185Y-98780315D01*
X53011430Y-98727511D01*
X53000224Y-98675777D01*
X53024306Y-85310516D01*
X57691500Y-85310516D01*
X57691500Y-96789483D01*
X57726410Y-96964992D01*
X57726413Y-96965001D01*
X57794893Y-97130329D01*
X57794900Y-97130342D01*
X57894321Y-97279134D01*
X57894324Y-97279138D01*
X59620861Y-99005675D01*
X59620865Y-99005678D01*
X59769664Y-99105103D01*
X59874435Y-99148500D01*
X59935000Y-99173587D01*
X60103015Y-99207007D01*
X60110516Y-99208499D01*
X60110520Y-99208500D01*
X60110521Y-99208500D01*
X60289480Y-99208500D01*
X71586640Y-99208500D01*
X71653679Y-99228185D01*
X71674321Y-99244819D01*
X71747571Y-99318069D01*
X71747576Y-99318073D01*
X71892908Y-99423661D01*
X71914197Y-99439129D01*
X72010412Y-99488153D01*
X72097705Y-99532632D01*
X72097707Y-99532632D01*
X72097710Y-99532634D01*
X72202707Y-99566749D01*
X72293591Y-99596280D01*
X72395305Y-99612390D01*
X72497019Y-99628500D01*
X72497020Y-99628500D01*
X72702980Y-99628500D01*
X72702981Y-99628500D01*
X72906408Y-99596280D01*
X73102290Y-99532634D01*
X73285803Y-99439129D01*
X73452430Y-99318068D01*
X73598068Y-99172430D01*
X73719129Y-99005803D01*
X73812634Y-98822290D01*
X73876280Y-98626408D01*
X73908500Y-98422981D01*
X73908500Y-98217019D01*
X73891018Y-98106645D01*
X73876280Y-98013591D01*
X73812632Y-97817705D01*
X73771869Y-97737705D01*
X73719129Y-97634197D01*
X73661003Y-97554193D01*
X73598073Y-97467576D01*
X73598069Y-97467571D01*
X73452428Y-97321930D01*
X73452423Y-97321926D01*
X73285806Y-97200873D01*
X73285805Y-97200872D01*
X73285803Y-97200871D01*
X73228496Y-97171671D01*
X73102294Y-97107367D01*
X72906408Y-97043719D01*
X72730794Y-97015905D01*
X72702981Y-97011500D01*
X72497019Y-97011500D01*
X72472550Y-97015375D01*
X72293591Y-97043719D01*
X72097705Y-97107367D01*
X71914193Y-97200873D01*
X71747576Y-97321926D01*
X71747571Y-97321930D01*
X71714321Y-97355181D01*
X71652998Y-97388666D01*
X71626640Y-97391500D01*
X64711539Y-97391500D01*
X64644500Y-97371815D01*
X64598745Y-97319011D01*
X64588801Y-97249853D01*
X64617826Y-97186297D01*
X64657737Y-97155780D01*
X64791200Y-97091507D01*
X65028956Y-96942116D01*
X65162257Y-96835810D01*
X64520698Y-96194251D01*
X64622330Y-96120412D01*
X64800412Y-95942330D01*
X64874251Y-95840698D01*
X65515810Y-96482257D01*
X65622116Y-96348956D01*
X65771507Y-96111200D01*
X65893337Y-95858217D01*
X65986077Y-95593180D01*
X65986078Y-95593178D01*
X66048560Y-95319424D01*
X66048562Y-95319412D01*
X66079999Y-95040401D01*
X66080000Y-95040399D01*
X66080000Y-94759600D01*
X66079999Y-94759598D01*
X66048562Y-94480587D01*
X66048560Y-94480575D01*
X65986078Y-94206821D01*
X65986077Y-94206819D01*
X65893337Y-93941782D01*
X65771507Y-93688799D01*
X65622115Y-93451043D01*
X65515810Y-93317741D01*
X64874251Y-93959300D01*
X64800412Y-93857670D01*
X64622330Y-93679588D01*
X64520697Y-93605747D01*
X65162257Y-92964187D01*
X65028956Y-92857884D01*
X64791200Y-92708492D01*
X64538217Y-92586662D01*
X64273180Y-92493922D01*
X64273178Y-92493921D01*
X63999424Y-92431439D01*
X63999412Y-92431437D01*
X63720401Y-92400000D01*
X63439598Y-92400000D01*
X63160587Y-92431437D01*
X63160575Y-92431439D01*
X62886821Y-92493921D01*
X62886819Y-92493922D01*
X62621782Y-92586662D01*
X62368799Y-92708492D01*
X62131043Y-92857884D01*
X61997741Y-92964187D01*
X62639301Y-93605747D01*
X62537670Y-93679588D01*
X62359588Y-93857670D01*
X62285747Y-93959301D01*
X61644187Y-93317741D01*
X61537884Y-93451043D01*
X61388492Y-93688799D01*
X61266662Y-93941782D01*
X61173922Y-94206819D01*
X61173921Y-94206821D01*
X61111439Y-94480575D01*
X61111437Y-94480587D01*
X61080000Y-94759598D01*
X61080000Y-95040401D01*
X61111437Y-95319412D01*
X61111439Y-95319424D01*
X61173921Y-95593178D01*
X61173922Y-95593180D01*
X61266662Y-95858217D01*
X61388492Y-96111200D01*
X61537884Y-96348956D01*
X61644187Y-96482257D01*
X62285747Y-95840697D01*
X62359588Y-95942330D01*
X62537670Y-96120412D01*
X62639300Y-96194251D01*
X61997741Y-96835810D01*
X61997741Y-96835811D01*
X62131043Y-96942115D01*
X62368799Y-97091507D01*
X62502263Y-97155780D01*
X62554122Y-97202602D01*
X62572435Y-97270029D01*
X62551387Y-97336653D01*
X62497661Y-97381322D01*
X62448461Y-97391500D01*
X60627675Y-97391500D01*
X60560636Y-97371815D01*
X60539994Y-97355181D01*
X59544819Y-96360006D01*
X59511334Y-96298683D01*
X59508500Y-96272325D01*
X59508500Y-85827675D01*
X59528185Y-85760636D01*
X59544819Y-85739994D01*
X60524994Y-84759819D01*
X60586317Y-84726334D01*
X60612675Y-84723500D01*
X61166640Y-84723500D01*
X61233679Y-84743185D01*
X61254321Y-84759819D01*
X61307571Y-84813069D01*
X61307576Y-84813073D01*
X61452908Y-84918661D01*
X61474197Y-84934129D01*
X61591128Y-84993709D01*
X61657705Y-85027632D01*
X61657707Y-85027632D01*
X61657710Y-85027634D01*
X61730804Y-85051383D01*
X61825242Y-85082069D01*
X61882917Y-85121507D01*
X61910115Y-85185866D01*
X61898200Y-85254712D01*
X61850956Y-85306188D01*
X61825242Y-85317931D01*
X61657705Y-85372367D01*
X61474193Y-85465873D01*
X61307576Y-85586926D01*
X61307571Y-85586930D01*
X61161930Y-85732571D01*
X61161926Y-85732576D01*
X61040873Y-85899193D01*
X60947367Y-86082705D01*
X60883719Y-86278591D01*
X60851500Y-86482019D01*
X60851500Y-86687980D01*
X60883719Y-86891408D01*
X60947367Y-87087294D01*
X60986909Y-87164897D01*
X61037568Y-87264321D01*
X61040873Y-87270806D01*
X61161926Y-87437423D01*
X61161930Y-87437428D01*
X61215181Y-87490679D01*
X61248666Y-87552002D01*
X61251500Y-87578360D01*
X61251500Y-89549483D01*
X61286410Y-89724992D01*
X61286413Y-89725001D01*
X61354893Y-89890329D01*
X61354900Y-89890342D01*
X61454321Y-90039134D01*
X61454324Y-90039138D01*
X62820861Y-91405675D01*
X62820865Y-91405678D01*
X62969664Y-91505103D01*
X63086574Y-91553528D01*
X63135000Y-91573587D01*
X63310516Y-91608499D01*
X63310520Y-91608500D01*
X63310521Y-91608500D01*
X63489480Y-91608500D01*
X71072325Y-91608500D01*
X71139364Y-91628185D01*
X71160006Y-91644819D01*
X75255181Y-95739994D01*
X75288666Y-95801317D01*
X75291500Y-95827675D01*
X75291500Y-97246640D01*
X75271815Y-97313679D01*
X75255181Y-97334321D01*
X75201930Y-97387571D01*
X75201926Y-97387576D01*
X75080873Y-97554193D01*
X74987367Y-97737705D01*
X74923719Y-97933591D01*
X74896311Y-98106645D01*
X74891500Y-98137019D01*
X74891500Y-98342981D01*
X74894797Y-98363796D01*
X74923719Y-98546408D01*
X74987367Y-98742294D01*
X75028128Y-98822290D01*
X75074071Y-98912458D01*
X75080873Y-98925806D01*
X75201926Y-99092423D01*
X75201930Y-99092428D01*
X75347571Y-99238069D01*
X75347576Y-99238073D01*
X75423293Y-99293084D01*
X75514197Y-99359129D01*
X75631128Y-99418709D01*
X75697705Y-99452632D01*
X75697707Y-99452632D01*
X75697710Y-99452634D01*
X75738311Y-99465826D01*
X75893591Y-99516280D01*
X75995305Y-99532390D01*
X76097019Y-99548500D01*
X76097020Y-99548500D01*
X76302980Y-99548500D01*
X76302981Y-99548500D01*
X76506408Y-99516280D01*
X76702290Y-99452634D01*
X76885803Y-99359129D01*
X77052430Y-99238068D01*
X77198068Y-99092430D01*
X77319129Y-98925803D01*
X77412634Y-98742290D01*
X77476280Y-98546408D01*
X77508500Y-98342981D01*
X77508500Y-98137019D01*
X77476280Y-97933592D01*
X77463973Y-97895716D01*
X77438626Y-97817705D01*
X77412634Y-97737710D01*
X77412632Y-97737707D01*
X77412632Y-97737705D01*
X77359889Y-97634193D01*
X77319129Y-97554197D01*
X77303661Y-97532908D01*
X77198073Y-97387576D01*
X77198069Y-97387571D01*
X77144819Y-97334321D01*
X77111334Y-97272998D01*
X77108500Y-97246640D01*
X77108500Y-95310520D01*
X77108499Y-95310516D01*
X77073587Y-95135000D01*
X77073585Y-95134995D01*
X77046524Y-95069663D01*
X77005106Y-94969670D01*
X77005099Y-94969657D01*
X76905678Y-94820865D01*
X76905675Y-94820861D01*
X72079138Y-89994324D01*
X72079134Y-89994321D01*
X71930342Y-89894900D01*
X71930329Y-89894893D01*
X71765001Y-89826413D01*
X71764992Y-89826410D01*
X71589483Y-89791500D01*
X71589479Y-89791500D01*
X63827675Y-89791500D01*
X63760636Y-89771815D01*
X63739994Y-89755181D01*
X63104819Y-89120006D01*
X63071334Y-89058683D01*
X63068500Y-89032325D01*
X63068500Y-87578360D01*
X63088185Y-87511321D01*
X63104819Y-87490679D01*
X63158068Y-87437430D01*
X63279129Y-87270803D01*
X63372634Y-87087290D01*
X63436280Y-86891408D01*
X63468500Y-86687981D01*
X63468500Y-86482019D01*
X63450009Y-86365270D01*
X63436280Y-86278591D01*
X63387410Y-86128185D01*
X63372634Y-86082710D01*
X63372632Y-86082707D01*
X63372632Y-86082705D01*
X63336461Y-86011716D01*
X63279129Y-85899197D01*
X63263661Y-85877908D01*
X63158073Y-85732576D01*
X63158069Y-85732571D01*
X63012428Y-85586930D01*
X63012423Y-85586926D01*
X62845806Y-85465873D01*
X62845805Y-85465872D01*
X62845803Y-85465871D01*
X62788496Y-85436671D01*
X62662294Y-85372367D01*
X62494757Y-85317931D01*
X62437082Y-85278493D01*
X62409884Y-85214134D01*
X62421799Y-85145288D01*
X62469043Y-85093812D01*
X62494757Y-85082069D01*
X62571889Y-85057007D01*
X62662290Y-85027634D01*
X62845803Y-84934129D01*
X63012430Y-84813068D01*
X63158068Y-84667430D01*
X63279129Y-84500803D01*
X63372634Y-84317290D01*
X63436280Y-84121408D01*
X63468500Y-83917981D01*
X63468500Y-83712019D01*
X63450156Y-83596203D01*
X63436280Y-83508591D01*
X63386168Y-83354364D01*
X63372634Y-83312710D01*
X63372632Y-83312707D01*
X63372632Y-83312705D01*
X63319054Y-83207554D01*
X63279129Y-83129197D01*
X63198498Y-83018217D01*
X63158073Y-82962576D01*
X63158069Y-82962571D01*
X63012428Y-82816930D01*
X63012423Y-82816926D01*
X62845806Y-82695873D01*
X62845805Y-82695872D01*
X62845803Y-82695871D01*
X62788496Y-82666671D01*
X62662294Y-82602367D01*
X62481004Y-82543462D01*
X62423329Y-82504024D01*
X62396131Y-82439665D01*
X62408046Y-82370819D01*
X62455290Y-82319343D01*
X62481005Y-82307600D01*
X62659029Y-82249755D01*
X62841349Y-82156859D01*
X62885921Y-82124474D01*
X62289409Y-81527962D01*
X62352993Y-81510925D01*
X62467007Y-81445099D01*
X62560099Y-81352007D01*
X62625925Y-81237993D01*
X62642962Y-81174409D01*
X63239474Y-81770921D01*
X63271859Y-81726349D01*
X63364755Y-81544031D01*
X63427990Y-81349417D01*
X63460000Y-81147317D01*
X63460000Y-80942682D01*
X63427990Y-80740582D01*
X63364755Y-80545968D01*
X63271859Y-80363650D01*
X63239474Y-80319077D01*
X63239474Y-80319076D01*
X62642962Y-80915589D01*
X62625925Y-80852007D01*
X62560099Y-80737993D01*
X62467007Y-80644901D01*
X62352993Y-80579075D01*
X62289408Y-80562037D01*
X62885922Y-79965524D01*
X62885921Y-79965523D01*
X62841359Y-79933147D01*
X62841350Y-79933141D01*
X62659031Y-79840244D01*
X62467252Y-79777931D01*
X62409577Y-79738493D01*
X62382379Y-79674134D01*
X62394294Y-79605288D01*
X62441538Y-79553812D01*
X62467252Y-79542069D01*
X62659031Y-79479755D01*
X62841349Y-79386859D01*
X62885921Y-79354474D01*
X62289409Y-78757962D01*
X62352993Y-78740925D01*
X62467007Y-78675099D01*
X62560099Y-78582007D01*
X62625925Y-78467993D01*
X62642962Y-78404409D01*
X63239474Y-79000921D01*
X63271859Y-78956349D01*
X63364755Y-78774031D01*
X63427990Y-78579417D01*
X63460000Y-78377317D01*
X63460000Y-78172682D01*
X63427990Y-77970582D01*
X63364755Y-77775968D01*
X63271859Y-77593650D01*
X63239474Y-77549077D01*
X63239474Y-77549076D01*
X62642962Y-78145589D01*
X62625925Y-78082007D01*
X62560099Y-77967993D01*
X62467007Y-77874901D01*
X62352993Y-77809075D01*
X62289408Y-77792037D01*
X62885922Y-77195524D01*
X62885921Y-77195523D01*
X62841359Y-77163147D01*
X62841350Y-77163141D01*
X62659031Y-77070244D01*
X62467252Y-77007931D01*
X62409577Y-76968493D01*
X62382379Y-76904134D01*
X62394294Y-76835288D01*
X62441538Y-76783812D01*
X62467252Y-76772069D01*
X62659031Y-76709755D01*
X62841349Y-76616859D01*
X62885921Y-76584474D01*
X62289409Y-75987962D01*
X62352993Y-75970925D01*
X62467007Y-75905099D01*
X62560099Y-75812007D01*
X62625925Y-75697993D01*
X62642962Y-75634409D01*
X63239474Y-76230921D01*
X63271859Y-76186349D01*
X63364755Y-76004031D01*
X63427990Y-75809417D01*
X63460000Y-75607317D01*
X63460000Y-75402682D01*
X63427990Y-75200582D01*
X63364755Y-75005968D01*
X63271859Y-74823650D01*
X63239474Y-74779077D01*
X63239474Y-74779076D01*
X62642962Y-75375589D01*
X62625925Y-75312007D01*
X62560099Y-75197993D01*
X62467007Y-75104901D01*
X62352993Y-75039075D01*
X62289408Y-75022037D01*
X62885922Y-74425524D01*
X62885921Y-74425523D01*
X62841359Y-74393147D01*
X62841350Y-74393141D01*
X62659031Y-74300244D01*
X62467252Y-74237931D01*
X62409577Y-74198493D01*
X62382379Y-74134134D01*
X62394294Y-74065288D01*
X62441538Y-74013812D01*
X62467252Y-74002069D01*
X62659031Y-73939755D01*
X62841349Y-73846859D01*
X62885921Y-73814474D01*
X62289409Y-73217962D01*
X62352993Y-73200925D01*
X62467007Y-73135099D01*
X62560099Y-73042007D01*
X62625925Y-72927993D01*
X62642962Y-72864409D01*
X63239474Y-73460921D01*
X63271859Y-73416349D01*
X63364755Y-73234031D01*
X63427990Y-73039417D01*
X63460000Y-72837317D01*
X63460000Y-72632682D01*
X63427990Y-72430582D01*
X63364755Y-72235968D01*
X63271859Y-72053650D01*
X63239474Y-72009077D01*
X63239474Y-72009076D01*
X62642962Y-72605589D01*
X62625925Y-72542007D01*
X62560099Y-72427993D01*
X62467007Y-72334901D01*
X62352993Y-72269075D01*
X62289408Y-72252037D01*
X62885922Y-71655524D01*
X62885921Y-71655523D01*
X62841359Y-71623147D01*
X62841350Y-71623141D01*
X62659031Y-71530244D01*
X62467252Y-71467931D01*
X62409577Y-71428493D01*
X62382379Y-71364134D01*
X62394294Y-71295288D01*
X62441538Y-71243812D01*
X62467252Y-71232069D01*
X62659031Y-71169755D01*
X62841349Y-71076859D01*
X62885921Y-71044474D01*
X62289409Y-70447962D01*
X62352993Y-70430925D01*
X62467007Y-70365099D01*
X62560099Y-70272007D01*
X62625925Y-70157993D01*
X62642962Y-70094409D01*
X63239474Y-70690921D01*
X63271859Y-70646349D01*
X63364755Y-70464031D01*
X63427990Y-70269417D01*
X63460000Y-70067317D01*
X63460000Y-69862682D01*
X63427990Y-69660582D01*
X63364755Y-69465968D01*
X63271859Y-69283650D01*
X63239474Y-69239077D01*
X63239474Y-69239076D01*
X62642962Y-69835589D01*
X62625925Y-69772007D01*
X62560099Y-69657993D01*
X62467007Y-69564901D01*
X62352993Y-69499075D01*
X62289408Y-69482037D01*
X62885922Y-68885524D01*
X62885921Y-68885523D01*
X62841359Y-68853147D01*
X62841350Y-68853141D01*
X62659031Y-68760244D01*
X62467252Y-68697931D01*
X62409577Y-68658493D01*
X62382379Y-68594134D01*
X62394294Y-68525288D01*
X62441538Y-68473812D01*
X62467252Y-68462069D01*
X62659031Y-68399755D01*
X62733793Y-68361662D01*
X62841349Y-68306859D01*
X62885921Y-68274474D01*
X62289409Y-67677962D01*
X62352993Y-67660925D01*
X62467007Y-67595099D01*
X62560099Y-67502007D01*
X62625925Y-67387993D01*
X62642962Y-67324409D01*
X63239474Y-67920921D01*
X63271859Y-67876349D01*
X63364755Y-67694031D01*
X63427990Y-67499417D01*
X63460000Y-67297317D01*
X63460000Y-67092682D01*
X63427990Y-66890582D01*
X63364755Y-66695968D01*
X63271859Y-66513650D01*
X63239474Y-66469077D01*
X63239474Y-66469076D01*
X62642962Y-67065589D01*
X62625925Y-67002007D01*
X62560099Y-66887993D01*
X62467007Y-66794901D01*
X62352993Y-66729075D01*
X62289408Y-66712037D01*
X62885922Y-66115524D01*
X62885921Y-66115523D01*
X62841359Y-66083147D01*
X62841350Y-66083141D01*
X62659031Y-65990244D01*
X62467252Y-65927931D01*
X62409577Y-65888493D01*
X62382379Y-65824134D01*
X62394294Y-65755288D01*
X62441538Y-65703812D01*
X62467252Y-65692069D01*
X62659031Y-65629755D01*
X62732480Y-65592331D01*
X62841349Y-65536859D01*
X62885921Y-65504474D01*
X62289409Y-64907962D01*
X62352993Y-64890925D01*
X62467007Y-64825099D01*
X62560099Y-64732007D01*
X62625925Y-64617993D01*
X62642962Y-64554410D01*
X63239474Y-65150922D01*
X63239474Y-65150921D01*
X63271859Y-65106349D01*
X63364755Y-64924031D01*
X63427990Y-64729417D01*
X63460000Y-64527317D01*
X63460000Y-64322682D01*
X63427990Y-64120582D01*
X63364755Y-63925968D01*
X63271859Y-63743650D01*
X63239474Y-63699077D01*
X63239474Y-63699076D01*
X62642962Y-64295589D01*
X62625925Y-64232007D01*
X62560099Y-64117993D01*
X62467007Y-64024901D01*
X62352993Y-63959075D01*
X62289408Y-63942037D01*
X62885922Y-63345524D01*
X62885921Y-63345523D01*
X62841359Y-63313147D01*
X62841350Y-63313141D01*
X62659031Y-63220244D01*
X62467252Y-63157931D01*
X62409577Y-63118493D01*
X62382379Y-63054134D01*
X62394294Y-62985288D01*
X62441538Y-62933812D01*
X62467252Y-62922069D01*
X62659031Y-62859755D01*
X62733793Y-62821662D01*
X62841349Y-62766859D01*
X62885921Y-62734474D01*
X62289409Y-62137962D01*
X62352993Y-62120925D01*
X62467007Y-62055099D01*
X62560099Y-61962007D01*
X62625925Y-61847993D01*
X62642962Y-61784410D01*
X63239474Y-62380922D01*
X63239474Y-62380921D01*
X63271859Y-62336349D01*
X63364755Y-62154031D01*
X63427990Y-61959417D01*
X63460000Y-61757317D01*
X63460000Y-61552682D01*
X63427990Y-61350582D01*
X63364755Y-61155968D01*
X63271859Y-60973650D01*
X63239474Y-60929077D01*
X63239474Y-60929076D01*
X62642962Y-61525589D01*
X62625925Y-61462007D01*
X62560099Y-61347993D01*
X62467007Y-61254901D01*
X62352993Y-61189075D01*
X62289408Y-61172037D01*
X62885922Y-60575524D01*
X62885921Y-60575523D01*
X62841359Y-60543147D01*
X62841350Y-60543141D01*
X62659031Y-60450244D01*
X62481004Y-60392399D01*
X62423329Y-60352961D01*
X62396131Y-60288602D01*
X62408046Y-60219756D01*
X62455290Y-60168280D01*
X62481005Y-60156537D01*
X62662290Y-60097634D01*
X62845803Y-60004129D01*
X63012430Y-59883068D01*
X63158068Y-59737430D01*
X63279129Y-59570803D01*
X63372634Y-59387290D01*
X63436280Y-59191408D01*
X63468500Y-58987981D01*
X63468500Y-58782019D01*
X63449110Y-58659598D01*
X63436280Y-58578591D01*
X63392814Y-58444819D01*
X63372634Y-58382710D01*
X63372632Y-58382707D01*
X63372632Y-58382705D01*
X63327786Y-58294692D01*
X63279129Y-58199197D01*
X63206369Y-58099051D01*
X63158073Y-58032576D01*
X63158069Y-58032571D01*
X63012428Y-57886930D01*
X63012423Y-57886926D01*
X62845806Y-57765873D01*
X62845805Y-57765872D01*
X62845803Y-57765871D01*
X62788496Y-57736671D01*
X62662294Y-57672367D01*
X62494757Y-57617931D01*
X62437082Y-57578493D01*
X62409884Y-57514134D01*
X62421799Y-57445288D01*
X62469043Y-57393812D01*
X62494757Y-57382069D01*
X62525923Y-57371942D01*
X62662290Y-57327634D01*
X62845803Y-57234129D01*
X63012430Y-57113068D01*
X63158068Y-56967430D01*
X63279129Y-56800803D01*
X63372634Y-56617290D01*
X63436280Y-56421408D01*
X63468500Y-56217981D01*
X63468500Y-56012019D01*
X63450171Y-55896296D01*
X63436280Y-55808591D01*
X63372632Y-55612705D01*
X63319536Y-55508500D01*
X63279129Y-55429197D01*
X63227765Y-55358500D01*
X63158073Y-55262576D01*
X63158069Y-55262571D01*
X63104819Y-55209321D01*
X63071334Y-55147998D01*
X63068500Y-55121640D01*
X63068500Y-53517675D01*
X63088185Y-53450636D01*
X63104819Y-53429994D01*
X63839994Y-52694819D01*
X63901317Y-52661334D01*
X63927675Y-52658500D01*
X72589480Y-52658500D01*
X72589481Y-52658499D01*
X72647986Y-52646862D01*
X72764992Y-52623589D01*
X72764995Y-52623587D01*
X72765000Y-52623587D01*
X72930336Y-52555103D01*
X73079135Y-52455678D01*
X76439994Y-49094819D01*
X76501317Y-49061334D01*
X76527675Y-49058500D01*
X76602980Y-49058500D01*
X76602981Y-49058500D01*
X76806408Y-49026280D01*
X77002290Y-48962634D01*
X77185803Y-48869129D01*
X77352430Y-48748068D01*
X77498068Y-48602430D01*
X77619129Y-48435803D01*
X77712634Y-48252290D01*
X77776280Y-48056408D01*
X77808500Y-47852981D01*
X77808500Y-47647682D01*
X80200000Y-47647682D01*
X80200000Y-47852317D01*
X80232009Y-48054417D01*
X80295244Y-48249031D01*
X80388141Y-48431350D01*
X80388147Y-48431359D01*
X80420523Y-48475921D01*
X80420524Y-48475922D01*
X81100000Y-47796446D01*
X81100000Y-47802661D01*
X81127259Y-47904394D01*
X81179920Y-47995606D01*
X81254394Y-48070080D01*
X81345606Y-48122741D01*
X81447339Y-48150000D01*
X81453553Y-48150000D01*
X80774076Y-48829474D01*
X80818650Y-48861859D01*
X81000968Y-48954755D01*
X81195582Y-49017990D01*
X81397683Y-49050000D01*
X81602317Y-49050000D01*
X81804417Y-49017990D01*
X81999031Y-48954755D01*
X82181349Y-48861859D01*
X82225921Y-48829474D01*
X81546447Y-48150000D01*
X81552661Y-48150000D01*
X81654394Y-48122741D01*
X81745606Y-48070080D01*
X81820080Y-47995606D01*
X81872741Y-47904394D01*
X81900000Y-47802661D01*
X81900000Y-47796447D01*
X82579474Y-48475921D01*
X82611859Y-48431349D01*
X82704755Y-48249031D01*
X82767990Y-48054417D01*
X82800000Y-47852317D01*
X82800000Y-47647682D01*
X82767990Y-47445582D01*
X82704755Y-47250968D01*
X82611859Y-47068650D01*
X82579474Y-47024077D01*
X82579474Y-47024076D01*
X81900000Y-47703551D01*
X81900000Y-47697339D01*
X81872741Y-47595606D01*
X81820080Y-47504394D01*
X81745606Y-47429920D01*
X81654394Y-47377259D01*
X81552661Y-47350000D01*
X81546446Y-47350000D01*
X82225922Y-46670524D01*
X82225921Y-46670523D01*
X82181359Y-46638147D01*
X82181350Y-46638141D01*
X81999031Y-46545244D01*
X81804417Y-46482009D01*
X81602317Y-46450000D01*
X81397683Y-46450000D01*
X81195582Y-46482009D01*
X81000968Y-46545244D01*
X80818644Y-46638143D01*
X80774077Y-46670523D01*
X80774077Y-46670524D01*
X81453554Y-47350000D01*
X81447339Y-47350000D01*
X81345606Y-47377259D01*
X81254394Y-47429920D01*
X81179920Y-47504394D01*
X81127259Y-47595606D01*
X81100000Y-47697339D01*
X81100000Y-47703553D01*
X80420524Y-47024077D01*
X80420523Y-47024077D01*
X80388143Y-47068644D01*
X80295244Y-47250968D01*
X80232009Y-47445582D01*
X80200000Y-47647682D01*
X77808500Y-47647682D01*
X77808500Y-47647019D01*
X77798472Y-47583703D01*
X77776280Y-47443591D01*
X77745870Y-47350000D01*
X77712634Y-47247710D01*
X77712632Y-47247707D01*
X77712632Y-47247705D01*
X77640847Y-47106821D01*
X77619129Y-47064197D01*
X77589980Y-47024076D01*
X77498073Y-46897576D01*
X77498069Y-46897571D01*
X77352428Y-46751930D01*
X77352423Y-46751926D01*
X77185806Y-46630873D01*
X77185805Y-46630872D01*
X77185803Y-46630871D01*
X77128496Y-46601671D01*
X77002294Y-46537367D01*
X76806408Y-46473719D01*
X76630794Y-46445905D01*
X76602981Y-46441500D01*
X76397019Y-46441500D01*
X76372550Y-46445375D01*
X76193591Y-46473719D01*
X75997705Y-46537367D01*
X75814193Y-46630873D01*
X75647576Y-46751926D01*
X75647571Y-46751930D01*
X75501930Y-46897571D01*
X75501926Y-46897576D01*
X75380873Y-47064193D01*
X75287367Y-47247705D01*
X75223719Y-47443591D01*
X75191500Y-47647019D01*
X75191500Y-47722325D01*
X75171815Y-47789364D01*
X75155181Y-47810006D01*
X72160006Y-50805181D01*
X72098683Y-50838666D01*
X72072325Y-50841500D01*
X63410520Y-50841500D01*
X63381397Y-50847292D01*
X63381396Y-50847291D01*
X63235005Y-50876411D01*
X63234999Y-50876413D01*
X63069667Y-50944896D01*
X63069657Y-50944901D01*
X62920865Y-51044321D01*
X62920861Y-51044324D01*
X61454324Y-52510861D01*
X61454321Y-52510865D01*
X61354900Y-52659657D01*
X61354893Y-52659670D01*
X61286413Y-52824998D01*
X61286410Y-52825007D01*
X61251500Y-53000516D01*
X61251500Y-55121640D01*
X61231815Y-55188679D01*
X61215181Y-55209321D01*
X61161930Y-55262571D01*
X61161926Y-55262576D01*
X61040873Y-55429193D01*
X60947367Y-55612705D01*
X60883719Y-55808591D01*
X60851500Y-56012019D01*
X60851500Y-56217980D01*
X60883719Y-56421408D01*
X60947367Y-56617294D01*
X61040873Y-56800806D01*
X61161926Y-56967423D01*
X61161930Y-56967428D01*
X61307571Y-57113069D01*
X61307576Y-57113073D01*
X61418401Y-57193591D01*
X61474197Y-57234129D01*
X61591128Y-57293709D01*
X61657705Y-57327632D01*
X61657707Y-57327632D01*
X61657710Y-57327634D01*
X61722492Y-57348683D01*
X61825242Y-57382069D01*
X61882917Y-57421507D01*
X61910115Y-57485866D01*
X61898200Y-57554712D01*
X61850956Y-57606188D01*
X61825242Y-57617931D01*
X61657705Y-57672367D01*
X61474193Y-57765873D01*
X61307576Y-57886926D01*
X61307571Y-57886930D01*
X61254321Y-57940181D01*
X61192998Y-57973666D01*
X61166640Y-57976500D01*
X60312675Y-57976500D01*
X60245636Y-57956815D01*
X60224994Y-57940181D01*
X59694819Y-57410006D01*
X59661334Y-57348683D01*
X59658500Y-57322325D01*
X59658500Y-47659598D01*
X61080000Y-47659598D01*
X61080000Y-47940401D01*
X61111437Y-48219412D01*
X61111439Y-48219424D01*
X61173921Y-48493178D01*
X61173922Y-48493180D01*
X61266662Y-48758217D01*
X61388492Y-49011200D01*
X61537884Y-49248956D01*
X61644187Y-49382257D01*
X62285747Y-48740697D01*
X62359588Y-48842330D01*
X62537670Y-49020412D01*
X62639300Y-49094251D01*
X61997741Y-49735810D01*
X61997741Y-49735811D01*
X62131043Y-49842115D01*
X62368799Y-49991507D01*
X62621782Y-50113337D01*
X62886819Y-50206077D01*
X62886821Y-50206078D01*
X63160575Y-50268560D01*
X63160587Y-50268562D01*
X63439598Y-50299999D01*
X63439600Y-50300000D01*
X63720400Y-50300000D01*
X63720401Y-50299999D01*
X63999412Y-50268562D01*
X63999424Y-50268560D01*
X64273178Y-50206078D01*
X64273180Y-50206077D01*
X64538217Y-50113337D01*
X64791200Y-49991507D01*
X65028956Y-49842116D01*
X65162257Y-49735810D01*
X64520698Y-49094251D01*
X64622330Y-49020412D01*
X64800412Y-48842330D01*
X64874251Y-48740698D01*
X65515810Y-49382257D01*
X65622116Y-49248956D01*
X65771507Y-49011200D01*
X65893337Y-48758217D01*
X65986077Y-48493180D01*
X65986078Y-48493178D01*
X66048560Y-48219424D01*
X66048562Y-48219412D01*
X66079999Y-47940401D01*
X66080000Y-47940399D01*
X66080000Y-47659600D01*
X66079999Y-47659598D01*
X66048562Y-47380587D01*
X66048560Y-47380575D01*
X65986078Y-47106821D01*
X65986077Y-47106819D01*
X65893337Y-46841782D01*
X65771507Y-46588799D01*
X65622115Y-46351043D01*
X65515810Y-46217741D01*
X64874251Y-46859300D01*
X64800412Y-46757670D01*
X64622330Y-46579588D01*
X64520697Y-46505747D01*
X65162257Y-45864187D01*
X65028956Y-45757884D01*
X64791200Y-45608492D01*
X64538217Y-45486662D01*
X64273180Y-45393922D01*
X64273178Y-45393921D01*
X63999424Y-45331439D01*
X63999412Y-45331437D01*
X63720401Y-45300000D01*
X63439598Y-45300000D01*
X63160587Y-45331437D01*
X63160575Y-45331439D01*
X62886821Y-45393921D01*
X62886819Y-45393922D01*
X62621782Y-45486662D01*
X62368799Y-45608492D01*
X62131043Y-45757884D01*
X61997741Y-45864187D01*
X62639301Y-46505747D01*
X62537670Y-46579588D01*
X62359588Y-46757670D01*
X62285747Y-46859301D01*
X61644187Y-46217741D01*
X61537884Y-46351043D01*
X61388492Y-46588799D01*
X61266662Y-46841782D01*
X61173922Y-47106819D01*
X61173921Y-47106821D01*
X61111439Y-47380575D01*
X61111437Y-47380587D01*
X61080000Y-47659598D01*
X59658500Y-47659598D01*
X59658500Y-42427675D01*
X59678185Y-42360636D01*
X59694819Y-42339994D01*
X60089994Y-41944819D01*
X60151317Y-41911334D01*
X60177675Y-41908500D01*
X67089480Y-41908500D01*
X67089481Y-41908499D01*
X67178489Y-41890795D01*
X67264992Y-41873589D01*
X67264995Y-41873587D01*
X67265000Y-41873587D01*
X67430336Y-41805103D01*
X67579135Y-41705678D01*
X68339994Y-40944819D01*
X68401317Y-40911334D01*
X68427675Y-40908500D01*
X72395928Y-40908500D01*
X72462967Y-40928185D01*
X72483609Y-40944819D01*
X72614996Y-41076206D01*
X72787991Y-41201894D01*
X72792680Y-41204283D01*
X72843478Y-41252254D01*
X72860276Y-41320074D01*
X72837742Y-41386210D01*
X72796205Y-41422209D01*
X72796590Y-41422838D01*
X72792804Y-41425157D01*
X72792702Y-41425246D01*
X72792449Y-41425374D01*
X72792440Y-41425380D01*
X72738282Y-41464727D01*
X72738282Y-41464728D01*
X73370591Y-42097037D01*
X73307007Y-42114075D01*
X73192993Y-42179901D01*
X73099901Y-42272993D01*
X73034075Y-42387007D01*
X73017037Y-42450591D01*
X72384728Y-41818282D01*
X72384727Y-41818282D01*
X72345380Y-41872439D01*
X72248904Y-42061782D01*
X72183242Y-42263869D01*
X72183242Y-42263872D01*
X72150000Y-42473753D01*
X72150000Y-42686246D01*
X72183242Y-42896127D01*
X72183242Y-42896130D01*
X72248904Y-43098217D01*
X72345375Y-43287550D01*
X72384728Y-43341716D01*
X73017037Y-42709408D01*
X73034075Y-42772993D01*
X73099901Y-42887007D01*
X73192993Y-42980099D01*
X73307007Y-43045925D01*
X73370590Y-43062962D01*
X72738282Y-43695269D01*
X72738282Y-43695270D01*
X72792449Y-43734624D01*
X72981782Y-43831095D01*
X73183870Y-43896757D01*
X73393754Y-43930000D01*
X73606246Y-43930000D01*
X73816127Y-43896757D01*
X73816130Y-43896757D01*
X74018217Y-43831095D01*
X74207554Y-43734622D01*
X74261716Y-43695270D01*
X74261717Y-43695270D01*
X73629408Y-43062962D01*
X73692993Y-43045925D01*
X73807007Y-42980099D01*
X73900099Y-42887007D01*
X73965925Y-42772993D01*
X73982962Y-42709408D01*
X74615270Y-43341717D01*
X74615270Y-43341716D01*
X74654622Y-43287554D01*
X74751095Y-43098217D01*
X74816757Y-42896130D01*
X74816757Y-42896127D01*
X74850000Y-42686246D01*
X74850000Y-42473753D01*
X74816757Y-42263872D01*
X74816757Y-42263869D01*
X74751095Y-42061782D01*
X74654624Y-41872449D01*
X74615270Y-41818282D01*
X74615269Y-41818282D01*
X73982962Y-42450590D01*
X73965925Y-42387007D01*
X73900099Y-42272993D01*
X73807007Y-42179901D01*
X73692993Y-42114075D01*
X73629409Y-42097037D01*
X74261716Y-41464728D01*
X74207547Y-41425373D01*
X74207545Y-41425371D01*
X74207308Y-41425251D01*
X74207234Y-41425181D01*
X74203396Y-41422829D01*
X74203890Y-41422022D01*
X74156515Y-41377274D01*
X74139724Y-41309451D01*
X74162266Y-41243318D01*
X74207319Y-41204283D01*
X74212009Y-41201894D01*
X74385004Y-41076206D01*
X74536206Y-40925004D01*
X74661894Y-40752009D01*
X74758972Y-40561483D01*
X74825049Y-40358116D01*
X74858500Y-40146916D01*
X74858500Y-39933084D01*
X74825049Y-39721884D01*
X74781224Y-39587003D01*
X74758973Y-39518519D01*
X74758972Y-39518516D01*
X74709507Y-39421438D01*
X74661894Y-39327991D01*
X74536206Y-39154996D01*
X74431028Y-39049818D01*
X74397543Y-38988495D01*
X74402527Y-38918803D01*
X74444399Y-38862870D01*
X74475367Y-38845959D01*
X74596204Y-38800889D01*
X74713261Y-38713261D01*
X74800889Y-38596204D01*
X74840813Y-38489164D01*
X74882684Y-38433232D01*
X74948149Y-38408816D01*
X74956994Y-38408500D01*
X78710737Y-38408500D01*
X78777776Y-38428185D01*
X78816273Y-38467400D01*
X78850970Y-38523652D01*
X78976348Y-38649030D01*
X79032598Y-38683725D01*
X79079321Y-38735672D01*
X79091500Y-38789263D01*
X79091500Y-41430304D01*
X79071815Y-41497343D01*
X79019011Y-41543098D01*
X79010842Y-41546482D01*
X79008041Y-41547527D01*
X79003795Y-41549111D01*
X78886739Y-41636739D01*
X78799111Y-41753795D01*
X78748011Y-41890795D01*
X78748011Y-41890797D01*
X78741500Y-41951345D01*
X78741500Y-43548654D01*
X78748011Y-43609202D01*
X78748011Y-43609204D01*
X78783028Y-43703085D01*
X78799111Y-43746204D01*
X78886739Y-43863261D01*
X79003796Y-43950889D01*
X79140799Y-44001989D01*
X79168050Y-44004918D01*
X79201345Y-44008499D01*
X79201362Y-44008500D01*
X80798638Y-44008500D01*
X80798654Y-44008499D01*
X80825692Y-44005591D01*
X80859201Y-44001989D01*
X80996204Y-43950889D01*
X81113261Y-43863261D01*
X81200889Y-43746204D01*
X81251989Y-43609201D01*
X81255591Y-43575692D01*
X81258499Y-43548654D01*
X81258500Y-43548637D01*
X81258500Y-43494426D01*
X81278185Y-43427387D01*
X81330989Y-43381632D01*
X81400147Y-43371688D01*
X81463703Y-43400713D01*
X81482820Y-43421543D01*
X81496320Y-43440125D01*
X82140000Y-42796445D01*
X82140000Y-42802661D01*
X82167259Y-42904394D01*
X82219920Y-42995606D01*
X82294394Y-43070080D01*
X82385606Y-43122741D01*
X82487339Y-43150000D01*
X82493553Y-43150000D01*
X81849873Y-43793677D01*
X81849873Y-43793678D01*
X81884858Y-43819096D01*
X82060164Y-43908418D01*
X82247294Y-43969221D01*
X82441618Y-44000000D01*
X82638382Y-44000000D01*
X82832705Y-43969221D01*
X83019835Y-43908418D01*
X83195143Y-43819095D01*
X83230125Y-43793678D01*
X83230126Y-43793678D01*
X82586448Y-43150000D01*
X82592661Y-43150000D01*
X82694394Y-43122741D01*
X82785606Y-43070080D01*
X82860080Y-42995606D01*
X82912741Y-42904394D01*
X82940000Y-42802661D01*
X82940000Y-42796448D01*
X83583678Y-43440126D01*
X83583678Y-43440125D01*
X83609097Y-43405141D01*
X83694744Y-43237047D01*
X83742718Y-43186251D01*
X83810539Y-43169455D01*
X83876674Y-43191992D01*
X83915714Y-43237046D01*
X84003634Y-43409598D01*
X84120070Y-43569858D01*
X84260142Y-43709930D01*
X84420402Y-43826366D01*
X84492810Y-43863260D01*
X84596898Y-43916296D01*
X84596900Y-43916296D01*
X84596903Y-43916298D01*
X84697888Y-43949110D01*
X84785299Y-43977512D01*
X84980949Y-44008500D01*
X84980954Y-44008500D01*
X85179051Y-44008500D01*
X85374700Y-43977512D01*
X85400217Y-43969221D01*
X85563097Y-43916298D01*
X85739598Y-43826366D01*
X85899858Y-43709930D01*
X86039930Y-43569858D01*
X86156366Y-43409598D01*
X86246298Y-43233097D01*
X86307512Y-43044700D01*
X86312256Y-43014748D01*
X86338500Y-42849051D01*
X86338500Y-36992650D01*
X86358185Y-36925611D01*
X86374819Y-36904969D01*
X87484969Y-35794819D01*
X87546292Y-35761334D01*
X87572650Y-35758500D01*
X100177350Y-35758500D01*
X100244389Y-35778185D01*
X100265031Y-35794819D01*
X101455181Y-36984969D01*
X101488666Y-37046292D01*
X101491500Y-37072650D01*
X101491500Y-44156700D01*
X101485206Y-44195704D01*
X101452113Y-44295572D01*
X101441500Y-44399447D01*
X101441500Y-44477349D01*
X101421815Y-44544388D01*
X101405181Y-44565030D01*
X101180142Y-44790070D01*
X101040072Y-44930139D01*
X101040072Y-44930140D01*
X101040070Y-44930142D01*
X101027576Y-44947339D01*
X100923634Y-45090401D01*
X100833703Y-45266898D01*
X100772487Y-45455299D01*
X100741500Y-45650948D01*
X100741500Y-52531803D01*
X100721815Y-52598842D01*
X100691813Y-52631068D01*
X100684244Y-52636734D01*
X100684240Y-52636738D01*
X100684239Y-52636739D01*
X100674417Y-52649860D01*
X100596611Y-52753794D01*
X100586409Y-52781148D01*
X100544536Y-52837081D01*
X100479071Y-52861496D01*
X100410799Y-52846643D01*
X100397343Y-52838130D01*
X100221279Y-52710213D01*
X100017568Y-52606417D01*
X99800124Y-52535765D01*
X99710000Y-52521490D01*
X99710000Y-53509252D01*
X99672292Y-53487482D01*
X99532409Y-53450000D01*
X99387591Y-53450000D01*
X99247708Y-53487482D01*
X99210000Y-53509252D01*
X99210000Y-52521490D01*
X99209999Y-52521490D01*
X99119875Y-52535765D01*
X98902431Y-52606417D01*
X98698723Y-52710211D01*
X98513757Y-52844597D01*
X98352097Y-53006257D01*
X98352090Y-53006266D01*
X98295570Y-53084058D01*
X98240240Y-53126724D01*
X98170627Y-53132702D01*
X98108832Y-53100096D01*
X98094935Y-53084057D01*
X98064834Y-53042627D01*
X98034389Y-53000722D01*
X97871778Y-52838111D01*
X97685731Y-52702940D01*
X97480829Y-52598538D01*
X97378821Y-52565393D01*
X97262110Y-52527471D01*
X97260483Y-52527214D01*
X97259915Y-52526944D01*
X97257376Y-52526335D01*
X97257504Y-52525801D01*
X97197351Y-52497279D01*
X97192212Y-52492424D01*
X96044819Y-51345031D01*
X96011334Y-51283708D01*
X96008500Y-51257350D01*
X96008500Y-45847313D01*
X96028185Y-45780274D01*
X96080989Y-45734519D01*
X96142229Y-45723695D01*
X96170525Y-45725921D01*
X96850000Y-45046446D01*
X96850000Y-45052661D01*
X96877259Y-45154394D01*
X96929920Y-45245606D01*
X97004394Y-45320080D01*
X97095606Y-45372741D01*
X97197339Y-45400000D01*
X97203553Y-45400000D01*
X96524076Y-46079474D01*
X96568650Y-46111859D01*
X96750968Y-46204755D01*
X96945582Y-46267990D01*
X97147683Y-46300000D01*
X97352317Y-46300000D01*
X97554417Y-46267990D01*
X97749031Y-46204755D01*
X97931349Y-46111859D01*
X97975921Y-46079474D01*
X97296447Y-45400000D01*
X97302661Y-45400000D01*
X97404394Y-45372741D01*
X97495606Y-45320080D01*
X97570080Y-45245606D01*
X97622741Y-45154394D01*
X97650000Y-45052661D01*
X97650000Y-45046447D01*
X98329474Y-45725921D01*
X98361859Y-45681349D01*
X98454755Y-45499031D01*
X98517990Y-45304417D01*
X98550000Y-45102317D01*
X98550000Y-44897682D01*
X98517990Y-44695582D01*
X98454755Y-44500968D01*
X98361859Y-44318650D01*
X98329474Y-44274077D01*
X98329474Y-44274076D01*
X97650000Y-44953551D01*
X97650000Y-44947339D01*
X97622741Y-44845606D01*
X97570080Y-44754394D01*
X97495606Y-44679920D01*
X97404394Y-44627259D01*
X97302661Y-44600000D01*
X97296446Y-44600000D01*
X97975922Y-43920524D01*
X97975921Y-43920523D01*
X97931359Y-43888147D01*
X97931350Y-43888141D01*
X97749031Y-43795244D01*
X97554417Y-43732009D01*
X97352317Y-43700000D01*
X97147683Y-43700000D01*
X96945582Y-43732009D01*
X96750968Y-43795244D01*
X96568644Y-43888143D01*
X96524077Y-43920523D01*
X96524077Y-43920524D01*
X97203554Y-44600000D01*
X97197339Y-44600000D01*
X97095606Y-44627259D01*
X97004394Y-44679920D01*
X96929920Y-44754394D01*
X96877259Y-44845606D01*
X96850000Y-44947339D01*
X96850000Y-44953553D01*
X96170524Y-44274077D01*
X96142229Y-44276304D01*
X96128618Y-44273444D01*
X96114853Y-44275424D01*
X96095101Y-44266403D01*
X96073852Y-44261940D01*
X96063947Y-44252176D01*
X96051297Y-44246399D01*
X96039557Y-44228132D01*
X96024095Y-44212889D01*
X96020268Y-44198117D01*
X96013523Y-44187621D01*
X96008500Y-44152686D01*
X96008500Y-38630768D01*
X96014569Y-38592450D01*
X96026280Y-38556408D01*
X96058500Y-38352981D01*
X96058500Y-38147682D01*
X98450000Y-38147682D01*
X98450000Y-38352317D01*
X98482009Y-38554417D01*
X98545244Y-38749031D01*
X98638141Y-38931350D01*
X98638147Y-38931359D01*
X98670523Y-38975921D01*
X98670524Y-38975922D01*
X99350000Y-38296446D01*
X99350000Y-38302661D01*
X99377259Y-38404394D01*
X99429920Y-38495606D01*
X99504394Y-38570080D01*
X99595606Y-38622741D01*
X99697339Y-38650000D01*
X99703553Y-38650000D01*
X99024076Y-39329474D01*
X99068650Y-39361859D01*
X99250968Y-39454755D01*
X99445582Y-39517990D01*
X99647683Y-39550000D01*
X99852317Y-39550000D01*
X100054417Y-39517990D01*
X100249031Y-39454755D01*
X100431349Y-39361859D01*
X100475921Y-39329474D01*
X99796447Y-38650000D01*
X99802661Y-38650000D01*
X99904394Y-38622741D01*
X99995606Y-38570080D01*
X100070080Y-38495606D01*
X100122741Y-38404394D01*
X100150000Y-38302661D01*
X100150000Y-38296447D01*
X100829474Y-38975921D01*
X100861859Y-38931349D01*
X100954755Y-38749031D01*
X101017990Y-38554417D01*
X101050000Y-38352317D01*
X101050000Y-38147682D01*
X101017990Y-37945582D01*
X100954755Y-37750968D01*
X100861859Y-37568650D01*
X100829474Y-37524077D01*
X100829474Y-37524076D01*
X100150000Y-38203551D01*
X100150000Y-38197339D01*
X100122741Y-38095606D01*
X100070080Y-38004394D01*
X99995606Y-37929920D01*
X99904394Y-37877259D01*
X99802661Y-37850000D01*
X99796446Y-37850000D01*
X100475922Y-37170524D01*
X100475921Y-37170523D01*
X100431359Y-37138147D01*
X100431350Y-37138141D01*
X100249031Y-37045244D01*
X100054417Y-36982009D01*
X99852317Y-36950000D01*
X99647683Y-36950000D01*
X99445582Y-36982009D01*
X99250968Y-37045244D01*
X99068644Y-37138143D01*
X99024077Y-37170523D01*
X99024077Y-37170524D01*
X99703554Y-37850000D01*
X99697339Y-37850000D01*
X99595606Y-37877259D01*
X99504394Y-37929920D01*
X99429920Y-38004394D01*
X99377259Y-38095606D01*
X99350000Y-38197339D01*
X99350000Y-38203553D01*
X98670524Y-37524077D01*
X98670523Y-37524077D01*
X98638143Y-37568644D01*
X98545244Y-37750968D01*
X98482009Y-37945582D01*
X98450000Y-38147682D01*
X96058500Y-38147682D01*
X96058500Y-38147019D01*
X96026280Y-37943592D01*
X95962634Y-37747710D01*
X95962632Y-37747707D01*
X95962632Y-37747705D01*
X95923079Y-37670079D01*
X95869129Y-37564197D01*
X95839980Y-37524076D01*
X95748073Y-37397576D01*
X95748069Y-37397571D01*
X95602428Y-37251930D01*
X95602423Y-37251926D01*
X95435806Y-37130873D01*
X95435805Y-37130872D01*
X95435803Y-37130871D01*
X95378496Y-37101671D01*
X95252294Y-37037367D01*
X95056408Y-36973719D01*
X94880794Y-36945905D01*
X94852981Y-36941500D01*
X94647019Y-36941500D01*
X94622550Y-36945375D01*
X94443591Y-36973719D01*
X94247705Y-37037367D01*
X94064193Y-37130873D01*
X93897576Y-37251926D01*
X93897571Y-37251930D01*
X93751930Y-37397571D01*
X93751926Y-37397576D01*
X93630873Y-37564193D01*
X93537367Y-37747705D01*
X93473719Y-37943591D01*
X93441500Y-38147019D01*
X93441500Y-38352980D01*
X93473719Y-38556404D01*
X93473719Y-38556405D01*
X93485431Y-38592450D01*
X93491500Y-38630768D01*
X93491500Y-44156700D01*
X93485206Y-44195704D01*
X93452113Y-44295572D01*
X93441500Y-44399447D01*
X93441500Y-45600537D01*
X93441501Y-45600553D01*
X93452113Y-45704427D01*
X93461958Y-45734138D01*
X93485206Y-45804297D01*
X93491500Y-45843298D01*
X93491500Y-47367500D01*
X93471815Y-47434539D01*
X93419011Y-47480294D01*
X93367500Y-47491500D01*
X91694100Y-47491500D01*
X91627061Y-47471815D01*
X91619789Y-47466766D01*
X91596207Y-47449112D01*
X91596206Y-47449111D01*
X91459203Y-47398011D01*
X91398654Y-47391500D01*
X91398638Y-47391500D01*
X89601362Y-47391500D01*
X89601345Y-47391500D01*
X89540797Y-47398011D01*
X89540795Y-47398011D01*
X89403793Y-47449111D01*
X89403792Y-47449112D01*
X89380211Y-47466766D01*
X89314747Y-47491184D01*
X89305900Y-47491500D01*
X86650949Y-47491500D01*
X86455299Y-47522487D01*
X86266898Y-47583703D01*
X86142637Y-47647019D01*
X86090401Y-47673634D01*
X85998967Y-47740065D01*
X85930142Y-47790070D01*
X85930140Y-47790072D01*
X85930139Y-47790072D01*
X80285031Y-53435181D01*
X80223708Y-53468666D01*
X80197350Y-53471500D01*
X65380768Y-53471500D01*
X65342451Y-53465431D01*
X65306408Y-53453720D01*
X65306405Y-53453719D01*
X65150138Y-53428969D01*
X65102981Y-53421500D01*
X64897019Y-53421500D01*
X64872550Y-53425375D01*
X64693591Y-53453719D01*
X64497705Y-53517367D01*
X64314193Y-53610873D01*
X64147576Y-53731926D01*
X64147571Y-53731930D01*
X64001930Y-53877571D01*
X64001926Y-53877576D01*
X63880873Y-54044193D01*
X63787367Y-54227705D01*
X63723719Y-54423591D01*
X63691500Y-54627019D01*
X63691500Y-54832980D01*
X63723719Y-55036408D01*
X63787367Y-55232294D01*
X63851671Y-55358496D01*
X63875940Y-55406126D01*
X63880873Y-55415806D01*
X64001926Y-55582423D01*
X64001930Y-55582428D01*
X64147571Y-55728069D01*
X64147576Y-55728073D01*
X64255337Y-55806365D01*
X64314197Y-55849129D01*
X64406767Y-55896296D01*
X64497705Y-55942632D01*
X64497707Y-55942632D01*
X64497710Y-55942634D01*
X64543500Y-55957512D01*
X64665242Y-55997069D01*
X64722917Y-56036507D01*
X64750115Y-56100866D01*
X64738200Y-56169712D01*
X64690956Y-56221188D01*
X64665242Y-56232931D01*
X64497705Y-56287367D01*
X64314193Y-56380873D01*
X64147576Y-56501926D01*
X64147571Y-56501930D01*
X64001930Y-56647571D01*
X64001926Y-56647576D01*
X63880873Y-56814193D01*
X63787367Y-56997705D01*
X63723719Y-57193591D01*
X63691500Y-57397019D01*
X63691500Y-57602980D01*
X63723719Y-57806408D01*
X63787367Y-58002294D01*
X63836666Y-58099046D01*
X63878088Y-58180342D01*
X63880873Y-58185806D01*
X64001926Y-58352423D01*
X64001930Y-58352428D01*
X64147571Y-58498069D01*
X64147576Y-58498073D01*
X64258401Y-58578591D01*
X64314197Y-58619129D01*
X64497710Y-58712634D01*
X64651448Y-58762586D01*
X64678994Y-58771537D01*
X64736670Y-58810975D01*
X64763868Y-58875333D01*
X64751953Y-58944180D01*
X64704709Y-58995655D01*
X64678995Y-59007399D01*
X64500968Y-59065244D01*
X64318644Y-59158143D01*
X64274077Y-59190523D01*
X64274077Y-59190524D01*
X64870591Y-59787037D01*
X64807007Y-59804075D01*
X64692993Y-59869901D01*
X64599901Y-59962993D01*
X64534075Y-60077007D01*
X64517037Y-60140590D01*
X63920524Y-59544077D01*
X63920523Y-59544077D01*
X63888143Y-59588644D01*
X63795244Y-59770968D01*
X63732009Y-59965582D01*
X63700000Y-60167682D01*
X63700000Y-60372317D01*
X63732009Y-60574417D01*
X63795244Y-60769031D01*
X63888141Y-60951350D01*
X63888147Y-60951359D01*
X63920523Y-60995921D01*
X63920524Y-60995922D01*
X64517037Y-60399408D01*
X64534075Y-60462993D01*
X64599901Y-60577007D01*
X64692993Y-60670099D01*
X64807007Y-60735925D01*
X64870590Y-60752962D01*
X64274076Y-61349474D01*
X64318650Y-61381859D01*
X64500968Y-61474754D01*
X64678995Y-61532600D01*
X64736670Y-61572038D01*
X64763868Y-61636397D01*
X64751953Y-61705243D01*
X64704709Y-61756719D01*
X64678995Y-61768462D01*
X64497705Y-61827367D01*
X64314193Y-61920873D01*
X64147576Y-62041926D01*
X64147571Y-62041930D01*
X64001930Y-62187571D01*
X64001926Y-62187576D01*
X63880873Y-62354193D01*
X63787367Y-62537705D01*
X63723719Y-62733591D01*
X63691500Y-62937019D01*
X63691500Y-63142980D01*
X63723719Y-63346408D01*
X63787367Y-63542294D01*
X63834369Y-63634538D01*
X63867253Y-63699077D01*
X63880873Y-63725806D01*
X64001926Y-63892423D01*
X64001930Y-63892428D01*
X64147571Y-64038069D01*
X64147576Y-64038073D01*
X64249135Y-64111859D01*
X64314197Y-64159129D01*
X64497710Y-64252634D01*
X64651448Y-64302586D01*
X64678994Y-64311537D01*
X64736670Y-64350975D01*
X64763868Y-64415333D01*
X64751953Y-64484180D01*
X64704709Y-64535655D01*
X64678995Y-64547399D01*
X64500968Y-64605244D01*
X64318644Y-64698143D01*
X64274077Y-64730523D01*
X64274077Y-64730524D01*
X64870591Y-65327037D01*
X64807007Y-65344075D01*
X64692993Y-65409901D01*
X64599901Y-65502993D01*
X64534075Y-65617007D01*
X64517037Y-65680590D01*
X63920524Y-65084077D01*
X63920523Y-65084077D01*
X63888143Y-65128644D01*
X63795244Y-65310968D01*
X63732009Y-65505582D01*
X63700000Y-65707682D01*
X63700000Y-65912317D01*
X63732009Y-66114417D01*
X63795244Y-66309031D01*
X63888141Y-66491350D01*
X63888147Y-66491359D01*
X63920523Y-66535921D01*
X63920524Y-66535922D01*
X64517037Y-65939408D01*
X64534075Y-66002993D01*
X64599901Y-66117007D01*
X64692993Y-66210099D01*
X64807007Y-66275925D01*
X64870590Y-66292962D01*
X64274076Y-66889474D01*
X64318650Y-66921859D01*
X64500968Y-67014754D01*
X64678995Y-67072600D01*
X64736670Y-67112038D01*
X64763868Y-67176397D01*
X64751953Y-67245243D01*
X64704709Y-67296719D01*
X64678995Y-67308462D01*
X64497705Y-67367367D01*
X64314193Y-67460873D01*
X64147576Y-67581926D01*
X64147571Y-67581930D01*
X64001930Y-67727571D01*
X64001926Y-67727576D01*
X63880873Y-67894193D01*
X63787367Y-68077705D01*
X63723719Y-68273591D01*
X63694433Y-68458500D01*
X63691500Y-68477019D01*
X63691500Y-68682981D01*
X63693868Y-68697931D01*
X63723719Y-68886408D01*
X63787367Y-69082294D01*
X63818342Y-69143084D01*
X63867253Y-69239077D01*
X63880873Y-69265806D01*
X64001926Y-69432423D01*
X64001930Y-69432428D01*
X64147571Y-69578069D01*
X64147576Y-69578073D01*
X64255337Y-69656365D01*
X64314197Y-69699129D01*
X64431128Y-69758709D01*
X64497705Y-69792632D01*
X64497707Y-69792632D01*
X64497710Y-69792634D01*
X64543500Y-69807512D01*
X64665242Y-69847069D01*
X64722917Y-69886507D01*
X64750115Y-69950866D01*
X64738200Y-70019712D01*
X64690956Y-70071188D01*
X64665242Y-70082931D01*
X64497705Y-70137367D01*
X64314193Y-70230873D01*
X64147576Y-70351926D01*
X64147571Y-70351930D01*
X64001930Y-70497571D01*
X64001926Y-70497576D01*
X63880873Y-70664193D01*
X63787367Y-70847705D01*
X63723719Y-71043591D01*
X63691500Y-71247019D01*
X63691500Y-71452980D01*
X63723719Y-71656408D01*
X63787367Y-71852294D01*
X63841001Y-71957554D01*
X63867253Y-72009077D01*
X63880873Y-72035806D01*
X64001926Y-72202423D01*
X64001930Y-72202428D01*
X64147571Y-72348069D01*
X64147576Y-72348073D01*
X64193511Y-72381446D01*
X64314197Y-72469129D01*
X64376934Y-72501095D01*
X64497705Y-72562632D01*
X64497707Y-72562632D01*
X64497710Y-72562634D01*
X64570804Y-72586383D01*
X64665242Y-72617069D01*
X64722917Y-72656507D01*
X64750115Y-72720866D01*
X64738200Y-72789712D01*
X64690956Y-72841188D01*
X64665242Y-72852931D01*
X64497705Y-72907367D01*
X64314193Y-73000873D01*
X64147576Y-73121926D01*
X64147571Y-73121930D01*
X64001930Y-73267571D01*
X64001926Y-73267576D01*
X63880873Y-73434193D01*
X63787367Y-73617705D01*
X63723719Y-73813591D01*
X63691500Y-74017019D01*
X63691500Y-74222980D01*
X63723719Y-74426408D01*
X63787367Y-74622294D01*
X63830810Y-74707554D01*
X63874171Y-74792654D01*
X63880873Y-74805806D01*
X64001926Y-74972423D01*
X64001930Y-74972428D01*
X64147571Y-75118069D01*
X64147576Y-75118073D01*
X64292908Y-75223661D01*
X64314197Y-75239129D01*
X64431128Y-75298709D01*
X64497705Y-75332632D01*
X64497707Y-75332632D01*
X64497710Y-75332634D01*
X64570804Y-75356383D01*
X64665242Y-75387069D01*
X64722917Y-75426507D01*
X64750115Y-75490866D01*
X64738200Y-75559712D01*
X64690956Y-75611188D01*
X64665242Y-75622931D01*
X64497705Y-75677367D01*
X64314193Y-75770873D01*
X64147576Y-75891926D01*
X64147571Y-75891930D01*
X64001930Y-76037571D01*
X64001926Y-76037576D01*
X63880873Y-76204193D01*
X63787367Y-76387705D01*
X63723719Y-76583591D01*
X63691500Y-76787019D01*
X63691500Y-76992980D01*
X63723719Y-77196408D01*
X63787367Y-77392294D01*
X63843428Y-77502317D01*
X63867253Y-77549077D01*
X63880873Y-77575806D01*
X64001926Y-77742423D01*
X64001930Y-77742428D01*
X64147571Y-77888069D01*
X64147576Y-77888073D01*
X64170357Y-77904624D01*
X64314197Y-78009129D01*
X64427298Y-78066757D01*
X64497705Y-78102632D01*
X64497707Y-78102632D01*
X64497710Y-78102634D01*
X64569380Y-78125921D01*
X64665242Y-78157069D01*
X64722917Y-78196507D01*
X64750115Y-78260866D01*
X64738200Y-78329712D01*
X64690956Y-78381188D01*
X64665242Y-78392931D01*
X64497705Y-78447367D01*
X64314193Y-78540873D01*
X64147576Y-78661926D01*
X64147571Y-78661930D01*
X64001930Y-78807571D01*
X64001926Y-78807576D01*
X63880873Y-78974193D01*
X63787367Y-79157705D01*
X63723719Y-79353591D01*
X63691500Y-79557019D01*
X63691500Y-79762980D01*
X63723719Y-79966408D01*
X63787367Y-80162294D01*
X63841339Y-80268217D01*
X63867253Y-80319077D01*
X63880873Y-80345806D01*
X64001926Y-80512423D01*
X64001930Y-80512428D01*
X64147571Y-80658069D01*
X64147576Y-80658073D01*
X64217950Y-80709202D01*
X64314197Y-80779129D01*
X64431128Y-80838709D01*
X64497705Y-80872632D01*
X64497707Y-80872632D01*
X64497710Y-80872634D01*
X64570804Y-80896383D01*
X64665242Y-80927069D01*
X64722917Y-80966507D01*
X64750115Y-81030866D01*
X64738200Y-81099712D01*
X64690956Y-81151188D01*
X64665242Y-81162931D01*
X64497705Y-81217367D01*
X64314193Y-81310873D01*
X64147576Y-81431926D01*
X64147571Y-81431930D01*
X64001930Y-81577571D01*
X64001926Y-81577576D01*
X63880873Y-81744193D01*
X63787367Y-81927705D01*
X63723719Y-82123591D01*
X63691500Y-82327019D01*
X63691500Y-82532980D01*
X63723719Y-82736408D01*
X63787367Y-82932294D01*
X63821866Y-83000000D01*
X63877569Y-83109323D01*
X63880873Y-83115806D01*
X64001926Y-83282423D01*
X64001930Y-83282428D01*
X64147571Y-83428069D01*
X64147576Y-83428073D01*
X64190422Y-83459202D01*
X64314197Y-83549129D01*
X64431128Y-83608709D01*
X64497705Y-83642632D01*
X64497707Y-83642632D01*
X64497710Y-83642634D01*
X64570804Y-83666383D01*
X64665242Y-83697069D01*
X64722917Y-83736507D01*
X64750115Y-83800866D01*
X64738200Y-83869712D01*
X64690956Y-83921188D01*
X64665242Y-83932931D01*
X64497705Y-83987367D01*
X64314193Y-84080873D01*
X64147576Y-84201926D01*
X64147571Y-84201930D01*
X64001930Y-84347571D01*
X64001926Y-84347576D01*
X63880873Y-84514193D01*
X63787367Y-84697705D01*
X63723719Y-84893591D01*
X63697837Y-85057007D01*
X63691500Y-85097019D01*
X63691500Y-85302981D01*
X63693868Y-85317931D01*
X63723719Y-85506408D01*
X63787367Y-85702294D01*
X63880873Y-85885806D01*
X64001926Y-86052423D01*
X64001930Y-86052428D01*
X64147571Y-86198069D01*
X64147576Y-86198073D01*
X64258401Y-86278591D01*
X64314197Y-86319129D01*
X64497710Y-86412634D01*
X64519056Y-86419569D01*
X64576730Y-86459007D01*
X64603928Y-86523366D01*
X64592013Y-86592212D01*
X64544768Y-86643688D01*
X64480736Y-86661500D01*
X64151345Y-86661500D01*
X64090797Y-86668011D01*
X64090795Y-86668011D01*
X63953795Y-86719111D01*
X63836739Y-86806739D01*
X63749111Y-86923795D01*
X63698011Y-87060795D01*
X63698011Y-87060797D01*
X63691500Y-87121345D01*
X63691500Y-88818654D01*
X63698011Y-88879202D01*
X63698011Y-88879204D01*
X63727836Y-88959165D01*
X63749111Y-89016204D01*
X63836739Y-89133261D01*
X63953796Y-89220889D01*
X64090799Y-89271989D01*
X64118050Y-89274918D01*
X64151345Y-89278499D01*
X64151362Y-89278500D01*
X65848638Y-89278500D01*
X65848654Y-89278499D01*
X65875692Y-89275591D01*
X65909201Y-89271989D01*
X66046204Y-89220889D01*
X66163261Y-89133261D01*
X66250889Y-89016204D01*
X66272164Y-88959165D01*
X66314036Y-88903232D01*
X66379500Y-88878816D01*
X66388345Y-88878500D01*
X71842325Y-88878500D01*
X71909364Y-88898185D01*
X71930006Y-88914819D01*
X78855181Y-95839994D01*
X78888666Y-95901317D01*
X78891500Y-95927675D01*
X78891500Y-97326640D01*
X78871815Y-97393679D01*
X78855181Y-97414321D01*
X78801930Y-97467571D01*
X78801926Y-97467576D01*
X78680873Y-97634193D01*
X78587367Y-97817705D01*
X78523719Y-98013591D01*
X78495334Y-98192812D01*
X78491500Y-98217019D01*
X78491500Y-98422981D01*
X78492807Y-98431230D01*
X78523719Y-98626408D01*
X78587367Y-98822294D01*
X78648907Y-98943071D01*
X78680807Y-99005678D01*
X78680873Y-99005806D01*
X78801926Y-99172423D01*
X78801930Y-99172428D01*
X78947571Y-99318069D01*
X78947576Y-99318073D01*
X79092908Y-99423661D01*
X79114197Y-99439129D01*
X79210412Y-99488153D01*
X79297705Y-99532632D01*
X79297707Y-99532632D01*
X79297710Y-99532634D01*
X79402707Y-99566749D01*
X79493591Y-99596280D01*
X79595305Y-99612390D01*
X79697019Y-99628500D01*
X79697020Y-99628500D01*
X79902980Y-99628500D01*
X79902981Y-99628500D01*
X80106408Y-99596280D01*
X80302290Y-99532634D01*
X80485803Y-99439129D01*
X80652430Y-99318068D01*
X80798068Y-99172430D01*
X80919129Y-99005803D01*
X81012634Y-98822290D01*
X81076280Y-98626408D01*
X81094866Y-98509063D01*
X81099556Y-98479453D01*
X81099556Y-98479452D01*
X81108500Y-98422981D01*
X81108500Y-98217019D01*
X81076280Y-98013591D01*
X81012632Y-97817705D01*
X80971869Y-97737705D01*
X80919129Y-97634197D01*
X80861003Y-97554193D01*
X80798073Y-97467576D01*
X80798069Y-97467571D01*
X80744819Y-97414321D01*
X80711334Y-97352998D01*
X80708500Y-97326640D01*
X80708500Y-95410520D01*
X80708499Y-95410516D01*
X80681477Y-95274668D01*
X80673587Y-95235000D01*
X80632165Y-95135000D01*
X80605103Y-95069664D01*
X80505678Y-94920865D01*
X80505675Y-94920861D01*
X76986969Y-91402155D01*
X86770000Y-91402155D01*
X86770000Y-92050000D01*
X87686988Y-92050000D01*
X87654075Y-92107007D01*
X87620000Y-92234174D01*
X87620000Y-92365826D01*
X87654075Y-92492993D01*
X87686988Y-92550000D01*
X86770000Y-92550000D01*
X86770000Y-93197844D01*
X86776401Y-93257372D01*
X86776403Y-93257379D01*
X86826645Y-93392086D01*
X86826649Y-93392093D01*
X86912809Y-93507187D01*
X86912812Y-93507190D01*
X87027906Y-93593350D01*
X87027913Y-93593354D01*
X87162620Y-93643596D01*
X87162627Y-93643598D01*
X87222155Y-93649999D01*
X87222172Y-93650000D01*
X87870000Y-93650000D01*
X87870000Y-92733012D01*
X87927007Y-92765925D01*
X88054174Y-92800000D01*
X88185826Y-92800000D01*
X88312993Y-92765925D01*
X88370000Y-92733012D01*
X88370000Y-93650000D01*
X89017828Y-93650000D01*
X89017844Y-93649999D01*
X89077372Y-93643598D01*
X89077379Y-93643596D01*
X89212086Y-93593354D01*
X89212093Y-93593350D01*
X89327187Y-93507190D01*
X89327190Y-93507187D01*
X89413350Y-93392093D01*
X89413355Y-93392084D01*
X89459348Y-93268770D01*
X89501219Y-93212836D01*
X89566683Y-93188418D01*
X89634956Y-93203269D01*
X89663211Y-93224421D01*
X89774996Y-93336206D01*
X89947991Y-93461894D01*
X90036883Y-93507187D01*
X90138516Y-93558972D01*
X90138519Y-93558973D01*
X90240200Y-93592010D01*
X90341884Y-93625049D01*
X90553084Y-93658500D01*
X90553085Y-93658500D01*
X90766915Y-93658500D01*
X90766916Y-93658500D01*
X90978116Y-93625049D01*
X91181483Y-93558972D01*
X91372009Y-93461894D01*
X91545004Y-93336206D01*
X91696206Y-93185004D01*
X91821894Y-93012009D01*
X91821896Y-93012004D01*
X91824270Y-93008132D01*
X91876080Y-92961254D01*
X91945009Y-92949829D01*
X92009173Y-92977483D01*
X92035730Y-93008132D01*
X92038103Y-93012005D01*
X92038106Y-93012009D01*
X92163794Y-93185004D01*
X92163796Y-93185006D01*
X92255181Y-93276391D01*
X92288666Y-93337714D01*
X92291500Y-93364072D01*
X92291500Y-98335928D01*
X92271815Y-98402967D01*
X92255181Y-98423609D01*
X92163796Y-98514993D01*
X92038105Y-98687991D01*
X92035727Y-98691873D01*
X91983914Y-98738748D01*
X91914984Y-98750169D01*
X91850822Y-98722512D01*
X91824273Y-98691873D01*
X91821894Y-98687991D01*
X91777151Y-98626408D01*
X91696206Y-98514996D01*
X91545004Y-98363794D01*
X91372009Y-98238106D01*
X91181483Y-98141027D01*
X91181480Y-98141026D01*
X90978117Y-98074951D01*
X90860997Y-98056401D01*
X90766916Y-98041500D01*
X90553084Y-98041500D01*
X90482684Y-98052650D01*
X90341882Y-98074951D01*
X90138519Y-98141026D01*
X90138516Y-98141027D01*
X89947990Y-98238106D01*
X89774997Y-98363793D01*
X89663211Y-98475579D01*
X89601888Y-98509063D01*
X89532196Y-98504079D01*
X89476263Y-98462207D01*
X89459348Y-98431230D01*
X89413354Y-98307913D01*
X89413350Y-98307906D01*
X89327190Y-98192812D01*
X89327187Y-98192809D01*
X89212093Y-98106649D01*
X89212086Y-98106645D01*
X89077379Y-98056403D01*
X89077372Y-98056401D01*
X89017844Y-98050000D01*
X88370000Y-98050000D01*
X88370000Y-98966988D01*
X88312993Y-98934075D01*
X88185826Y-98900000D01*
X88054174Y-98900000D01*
X87927007Y-98934075D01*
X87870000Y-98966988D01*
X87870000Y-98050000D01*
X87222155Y-98050000D01*
X87162627Y-98056401D01*
X87162620Y-98056403D01*
X87027913Y-98106645D01*
X87027906Y-98106649D01*
X86912812Y-98192809D01*
X86912809Y-98192812D01*
X86826649Y-98307906D01*
X86826645Y-98307913D01*
X86776403Y-98442620D01*
X86776401Y-98442627D01*
X86770000Y-98502155D01*
X86770000Y-99150000D01*
X87686988Y-99150000D01*
X87654075Y-99207007D01*
X87620000Y-99334174D01*
X87620000Y-99465826D01*
X87654075Y-99592993D01*
X87686988Y-99650000D01*
X86770000Y-99650000D01*
X86770000Y-100297844D01*
X86776401Y-100357372D01*
X86776403Y-100357379D01*
X86826645Y-100492086D01*
X86826649Y-100492093D01*
X86912809Y-100607187D01*
X86912812Y-100607190D01*
X87027906Y-100693350D01*
X87027913Y-100693354D01*
X87162620Y-100743596D01*
X87162627Y-100743598D01*
X87222155Y-100749999D01*
X87222172Y-100750000D01*
X87870000Y-100750000D01*
X87870000Y-99833012D01*
X87927007Y-99865925D01*
X88054174Y-99900000D01*
X88185826Y-99900000D01*
X88312993Y-99865925D01*
X88370000Y-99833012D01*
X88370000Y-100750000D01*
X89017828Y-100750000D01*
X89017844Y-100749999D01*
X89077372Y-100743598D01*
X89077379Y-100743596D01*
X89212086Y-100693354D01*
X89212093Y-100693350D01*
X89327187Y-100607190D01*
X89327190Y-100607187D01*
X89413350Y-100492093D01*
X89413355Y-100492084D01*
X89459348Y-100368770D01*
X89501219Y-100312836D01*
X89566683Y-100288418D01*
X89634956Y-100303269D01*
X89663211Y-100324421D01*
X89774996Y-100436206D01*
X89947991Y-100561894D01*
X90036883Y-100607187D01*
X90138516Y-100658972D01*
X90138519Y-100658973D01*
X90240200Y-100692010D01*
X90341884Y-100725049D01*
X90553084Y-100758500D01*
X90553085Y-100758500D01*
X90766915Y-100758500D01*
X90766916Y-100758500D01*
X90978116Y-100725049D01*
X91181483Y-100658972D01*
X91372009Y-100561894D01*
X91545004Y-100436206D01*
X91696206Y-100285004D01*
X91821894Y-100112009D01*
X91821896Y-100112004D01*
X91824270Y-100108132D01*
X91876080Y-100061254D01*
X91945009Y-100049829D01*
X92009173Y-100077483D01*
X92035730Y-100108132D01*
X92038103Y-100112005D01*
X92038106Y-100112009D01*
X92163794Y-100285004D01*
X92163796Y-100285006D01*
X92255181Y-100376391D01*
X92288666Y-100437714D01*
X92291500Y-100464072D01*
X92291500Y-104935928D01*
X92271815Y-105002967D01*
X92255181Y-105023609D01*
X92163796Y-105114993D01*
X92038105Y-105287991D01*
X92035727Y-105291873D01*
X91983914Y-105338748D01*
X91914984Y-105350169D01*
X91850822Y-105322512D01*
X91824273Y-105291873D01*
X91821894Y-105287991D01*
X91821893Y-105287990D01*
X91696206Y-105114996D01*
X91545004Y-104963794D01*
X91372009Y-104838106D01*
X91181483Y-104741027D01*
X91181480Y-104741026D01*
X90978117Y-104674951D01*
X90860997Y-104656401D01*
X90766916Y-104641500D01*
X90553084Y-104641500D01*
X90482684Y-104652650D01*
X90341882Y-104674951D01*
X90138519Y-104741026D01*
X90138516Y-104741027D01*
X89947990Y-104838106D01*
X89774997Y-104963793D01*
X89663211Y-105075579D01*
X89601888Y-105109063D01*
X89532196Y-105104079D01*
X89476263Y-105062207D01*
X89459348Y-105031230D01*
X89413354Y-104907913D01*
X89413350Y-104907906D01*
X89327190Y-104792812D01*
X89327187Y-104792809D01*
X89212093Y-104706649D01*
X89212086Y-104706645D01*
X89077379Y-104656403D01*
X89077372Y-104656401D01*
X89017844Y-104650000D01*
X88370000Y-104650000D01*
X88370000Y-105566988D01*
X88312993Y-105534075D01*
X88185826Y-105500000D01*
X88054174Y-105500000D01*
X87927007Y-105534075D01*
X87870000Y-105566988D01*
X87870000Y-104650000D01*
X87222155Y-104650000D01*
X87162627Y-104656401D01*
X87162620Y-104656403D01*
X87027913Y-104706645D01*
X87027906Y-104706649D01*
X86912812Y-104792809D01*
X86912809Y-104792812D01*
X86826649Y-104907906D01*
X86826645Y-104907913D01*
X86776403Y-105042620D01*
X86776401Y-105042627D01*
X86770000Y-105102155D01*
X86770000Y-105750000D01*
X87686988Y-105750000D01*
X87654075Y-105807007D01*
X87620000Y-105934174D01*
X87620000Y-106065826D01*
X87654075Y-106192993D01*
X87686988Y-106250000D01*
X86770000Y-106250000D01*
X86770000Y-106897844D01*
X86776401Y-106957372D01*
X86776403Y-106957379D01*
X86826645Y-107092086D01*
X86826649Y-107092093D01*
X86912809Y-107207187D01*
X86912812Y-107207190D01*
X87027906Y-107293350D01*
X87027913Y-107293354D01*
X87162620Y-107343596D01*
X87162627Y-107343598D01*
X87222155Y-107349999D01*
X87222172Y-107350000D01*
X87870000Y-107350000D01*
X87870000Y-106433012D01*
X87927007Y-106465925D01*
X88054174Y-106500000D01*
X88185826Y-106500000D01*
X88312993Y-106465925D01*
X88370000Y-106433012D01*
X88370000Y-107350000D01*
X89017828Y-107350000D01*
X89017844Y-107349999D01*
X89077372Y-107343598D01*
X89077379Y-107343596D01*
X89212086Y-107293354D01*
X89212093Y-107293350D01*
X89327187Y-107207190D01*
X89327190Y-107207187D01*
X89413350Y-107092093D01*
X89413355Y-107092084D01*
X89459348Y-106968770D01*
X89501219Y-106912836D01*
X89566683Y-106888418D01*
X89634956Y-106903269D01*
X89663211Y-106924421D01*
X89774996Y-107036206D01*
X89947991Y-107161894D01*
X90013444Y-107195244D01*
X90138516Y-107258972D01*
X90138519Y-107258973D01*
X90228291Y-107288141D01*
X90341884Y-107325049D01*
X90553084Y-107358500D01*
X90553085Y-107358500D01*
X90766915Y-107358500D01*
X90766916Y-107358500D01*
X90978116Y-107325049D01*
X91181483Y-107258972D01*
X91372009Y-107161894D01*
X91545004Y-107036206D01*
X91696206Y-106885004D01*
X91821894Y-106712009D01*
X91821896Y-106712004D01*
X91824270Y-106708132D01*
X91876080Y-106661254D01*
X91945009Y-106649829D01*
X92009173Y-106677483D01*
X92035730Y-106708132D01*
X92038103Y-106712005D01*
X92038106Y-106712009D01*
X92163794Y-106885004D01*
X92314996Y-107036206D01*
X92487991Y-107161894D01*
X92553444Y-107195244D01*
X92678516Y-107258972D01*
X92678519Y-107258973D01*
X92768291Y-107288141D01*
X92881884Y-107325049D01*
X93093084Y-107358500D01*
X93093085Y-107358500D01*
X93306915Y-107358500D01*
X93306916Y-107358500D01*
X93518116Y-107325049D01*
X93721483Y-107258972D01*
X93912009Y-107161894D01*
X94085004Y-107036206D01*
X94236206Y-106885004D01*
X94361894Y-106712009D01*
X94458972Y-106521483D01*
X94525049Y-106318116D01*
X94558500Y-106106916D01*
X94558500Y-105893084D01*
X94525049Y-105681884D01*
X94458972Y-105478517D01*
X94458972Y-105478516D01*
X94361893Y-105287990D01*
X94236206Y-105114996D01*
X94144819Y-105023609D01*
X94111334Y-104962286D01*
X94108500Y-104935928D01*
X94108500Y-100464072D01*
X94128185Y-100397033D01*
X94144819Y-100376391D01*
X94163838Y-100357372D01*
X94236206Y-100285004D01*
X94361894Y-100112009D01*
X94458972Y-99921483D01*
X94525049Y-99718116D01*
X94558500Y-99506916D01*
X94558500Y-99293084D01*
X94525049Y-99081884D01*
X94458972Y-98878517D01*
X94458972Y-98878516D01*
X94409507Y-98781438D01*
X94361894Y-98687991D01*
X94236206Y-98514996D01*
X94144819Y-98423609D01*
X94111334Y-98362286D01*
X94108500Y-98335928D01*
X94108500Y-93364072D01*
X94128185Y-93297033D01*
X94144819Y-93276391D01*
X94163838Y-93257372D01*
X94236206Y-93185004D01*
X94361894Y-93012009D01*
X94458972Y-92821483D01*
X94525049Y-92618116D01*
X94558500Y-92406916D01*
X94558500Y-92193084D01*
X94525049Y-91981884D01*
X94458972Y-91778517D01*
X94458972Y-91778516D01*
X94379483Y-91622512D01*
X94361894Y-91587991D01*
X94236206Y-91414996D01*
X94085004Y-91263794D01*
X93912009Y-91138106D01*
X93721483Y-91041027D01*
X93721480Y-91041026D01*
X93518117Y-90974951D01*
X93400997Y-90956401D01*
X93306916Y-90941500D01*
X93093084Y-90941500D01*
X93022684Y-90952650D01*
X92881882Y-90974951D01*
X92678519Y-91041026D01*
X92678516Y-91041027D01*
X92487990Y-91138106D01*
X92314993Y-91263796D01*
X92163796Y-91414993D01*
X92038105Y-91587991D01*
X92035727Y-91591873D01*
X91983914Y-91638748D01*
X91914984Y-91650169D01*
X91850822Y-91622512D01*
X91824273Y-91591873D01*
X91821894Y-91587991D01*
X91761672Y-91505103D01*
X91696206Y-91414996D01*
X91545004Y-91263794D01*
X91372009Y-91138106D01*
X91181483Y-91041027D01*
X91181480Y-91041026D01*
X90978117Y-90974951D01*
X90860997Y-90956401D01*
X90766916Y-90941500D01*
X90553084Y-90941500D01*
X90482684Y-90952650D01*
X90341882Y-90974951D01*
X90138519Y-91041026D01*
X90138516Y-91041027D01*
X89947990Y-91138106D01*
X89774997Y-91263793D01*
X89663211Y-91375579D01*
X89601888Y-91409063D01*
X89532196Y-91404079D01*
X89476263Y-91362207D01*
X89459348Y-91331230D01*
X89413354Y-91207913D01*
X89413350Y-91207906D01*
X89327190Y-91092812D01*
X89327187Y-91092809D01*
X89212093Y-91006649D01*
X89212086Y-91006645D01*
X89077379Y-90956403D01*
X89077372Y-90956401D01*
X89017844Y-90950000D01*
X88370000Y-90950000D01*
X88370000Y-91866988D01*
X88312993Y-91834075D01*
X88185826Y-91800000D01*
X88054174Y-91800000D01*
X87927007Y-91834075D01*
X87870000Y-91866988D01*
X87870000Y-90950000D01*
X87222155Y-90950000D01*
X87162627Y-90956401D01*
X87162620Y-90956403D01*
X87027913Y-91006645D01*
X87027906Y-91006649D01*
X86912812Y-91092809D01*
X86912809Y-91092812D01*
X86826649Y-91207906D01*
X86826645Y-91207913D01*
X86776403Y-91342620D01*
X86776401Y-91342627D01*
X86770000Y-91402155D01*
X76986969Y-91402155D01*
X72849138Y-87264324D01*
X72849134Y-87264321D01*
X72700342Y-87164900D01*
X72700329Y-87164893D01*
X72535001Y-87096413D01*
X72534992Y-87096410D01*
X72359483Y-87061500D01*
X72359479Y-87061500D01*
X66388345Y-87061500D01*
X66321306Y-87041815D01*
X66275551Y-86989011D01*
X66272164Y-86980835D01*
X66264752Y-86960963D01*
X66250889Y-86923796D01*
X66163261Y-86806739D01*
X66046204Y-86719111D01*
X65909203Y-86668011D01*
X65848654Y-86661500D01*
X65848638Y-86661500D01*
X65519264Y-86661500D01*
X65452225Y-86641815D01*
X65406470Y-86589011D01*
X65396526Y-86519853D01*
X65425551Y-86456297D01*
X65480943Y-86419569D01*
X65502290Y-86412634D01*
X65685803Y-86319129D01*
X65852430Y-86198068D01*
X65905679Y-86144819D01*
X65967002Y-86111334D01*
X65993360Y-86108500D01*
X76976102Y-86108500D01*
X77043141Y-86128185D01*
X77088896Y-86180989D01*
X77096780Y-86203992D01*
X77098011Y-86209201D01*
X77149111Y-86346204D01*
X77236739Y-86463261D01*
X77353796Y-86550889D01*
X77490799Y-86601989D01*
X77518050Y-86604918D01*
X77551345Y-86608499D01*
X77551362Y-86608500D01*
X79348638Y-86608500D01*
X79348654Y-86608499D01*
X79375692Y-86605591D01*
X79409201Y-86601989D01*
X79546204Y-86550889D01*
X79663261Y-86463261D01*
X79750889Y-86346204D01*
X79801989Y-86209201D01*
X79808500Y-86148638D01*
X79808500Y-86116708D01*
X79811035Y-86104364D01*
X79821749Y-86084186D01*
X79828185Y-86062268D01*
X79843437Y-86043340D01*
X79843802Y-86042654D01*
X79844146Y-86042460D01*
X79844819Y-86041626D01*
X80507037Y-85379408D01*
X80524075Y-85442993D01*
X80589901Y-85557007D01*
X80682993Y-85650099D01*
X80797007Y-85715925D01*
X80860590Y-85732962D01*
X80228282Y-86365269D01*
X80228282Y-86365270D01*
X80282449Y-86404624D01*
X80471782Y-86501095D01*
X80673870Y-86566757D01*
X80883754Y-86600000D01*
X81096246Y-86600000D01*
X81306127Y-86566757D01*
X81306130Y-86566757D01*
X81508217Y-86501095D01*
X81697554Y-86404622D01*
X81751716Y-86365270D01*
X81751717Y-86365270D01*
X81119408Y-85732962D01*
X81182993Y-85715925D01*
X81297007Y-85650099D01*
X81390099Y-85557007D01*
X81455925Y-85442993D01*
X81472962Y-85379408D01*
X82105270Y-86011717D01*
X82105270Y-86011716D01*
X82144622Y-85957554D01*
X82225643Y-85798545D01*
X82225644Y-85798543D01*
X82241094Y-85768220D01*
X82306757Y-85566130D01*
X82306757Y-85566127D01*
X82340000Y-85356246D01*
X82340000Y-85143753D01*
X82306757Y-84933872D01*
X82306757Y-84933869D01*
X82241095Y-84731782D01*
X82144624Y-84542449D01*
X82105270Y-84488282D01*
X82105269Y-84488282D01*
X81472962Y-85120590D01*
X81455925Y-85057007D01*
X81390099Y-84942993D01*
X81297007Y-84849901D01*
X81182993Y-84784075D01*
X81119409Y-84767037D01*
X81751716Y-84134728D01*
X81697550Y-84095375D01*
X81508217Y-83998904D01*
X81306129Y-83933242D01*
X81096246Y-83900000D01*
X80883754Y-83900000D01*
X80673872Y-83933242D01*
X80673869Y-83933242D01*
X80471782Y-83998904D01*
X80282439Y-84095380D01*
X80228282Y-84134727D01*
X80228282Y-84134728D01*
X80860591Y-84767037D01*
X80797007Y-84784075D01*
X80682993Y-84849901D01*
X80589901Y-84942993D01*
X80524075Y-85057007D01*
X80507037Y-85120591D01*
X79844819Y-84458373D01*
X79811334Y-84397050D01*
X79811035Y-84395636D01*
X79808500Y-84383292D01*
X79808500Y-84351362D01*
X79801989Y-84290799D01*
X79750889Y-84153796D01*
X79663261Y-84036739D01*
X79546204Y-83949111D01*
X79409203Y-83898011D01*
X79348654Y-83891500D01*
X79348638Y-83891500D01*
X77551362Y-83891500D01*
X77551345Y-83891500D01*
X77490797Y-83898011D01*
X77490795Y-83898011D01*
X77353795Y-83949111D01*
X77236739Y-84036739D01*
X77149111Y-84153795D01*
X77127836Y-84210835D01*
X77085964Y-84266768D01*
X77020500Y-84291184D01*
X77011655Y-84291500D01*
X65993360Y-84291500D01*
X65926321Y-84271815D01*
X65905679Y-84255181D01*
X65852428Y-84201930D01*
X65852423Y-84201926D01*
X65685806Y-84080873D01*
X65685805Y-84080872D01*
X65685803Y-84080871D01*
X65628496Y-84051671D01*
X65502294Y-83987367D01*
X65334757Y-83932931D01*
X65277082Y-83893493D01*
X65249884Y-83829134D01*
X65261799Y-83760288D01*
X65309043Y-83708812D01*
X65334757Y-83697069D01*
X65365923Y-83686942D01*
X65502290Y-83642634D01*
X65685803Y-83549129D01*
X65852430Y-83428068D01*
X65905679Y-83374819D01*
X65967002Y-83341334D01*
X65993360Y-83338500D01*
X87723651Y-83338500D01*
X87790690Y-83358185D01*
X87836445Y-83410989D01*
X87846940Y-83449242D01*
X87848011Y-83459202D01*
X87848011Y-83459204D01*
X87899111Y-83596203D01*
X87899111Y-83596204D01*
X87986739Y-83713261D01*
X88103796Y-83800889D01*
X88240799Y-83851989D01*
X88268050Y-83854918D01*
X88301345Y-83858499D01*
X88301362Y-83858500D01*
X90098638Y-83858500D01*
X90098654Y-83858499D01*
X90125692Y-83855591D01*
X90159201Y-83851989D01*
X90296204Y-83800889D01*
X90413261Y-83713261D01*
X90500889Y-83596204D01*
X90551989Y-83459201D01*
X90558500Y-83398638D01*
X90558500Y-83366708D01*
X90561035Y-83354364D01*
X90571749Y-83334186D01*
X90578185Y-83312268D01*
X90593437Y-83293340D01*
X90593802Y-83292654D01*
X90594146Y-83292460D01*
X90594819Y-83291626D01*
X91257037Y-82629408D01*
X91274075Y-82692993D01*
X91339901Y-82807007D01*
X91432993Y-82900099D01*
X91547007Y-82965925D01*
X91610590Y-82982962D01*
X90978282Y-83615269D01*
X90978282Y-83615270D01*
X91032449Y-83654624D01*
X91221782Y-83751095D01*
X91423870Y-83816757D01*
X91633754Y-83850000D01*
X91846246Y-83850000D01*
X92056127Y-83816757D01*
X92056130Y-83816757D01*
X92258217Y-83751095D01*
X92447554Y-83654622D01*
X92501716Y-83615270D01*
X92501717Y-83615270D01*
X91869408Y-82982962D01*
X91932993Y-82965925D01*
X92047007Y-82900099D01*
X92140099Y-82807007D01*
X92205925Y-82692993D01*
X92222962Y-82629408D01*
X92855270Y-83261717D01*
X92855270Y-83261716D01*
X92894622Y-83207554D01*
X92991095Y-83018217D01*
X93056757Y-82816130D01*
X93056757Y-82816127D01*
X93090000Y-82606246D01*
X93090000Y-82393753D01*
X93056757Y-82183872D01*
X93056757Y-82183869D01*
X92991095Y-81981782D01*
X92894624Y-81792449D01*
X92855270Y-81738282D01*
X92855269Y-81738282D01*
X92222962Y-82370590D01*
X92205925Y-82307007D01*
X92140099Y-82192993D01*
X92047007Y-82099901D01*
X91932993Y-82034075D01*
X91869409Y-82017037D01*
X92501716Y-81384728D01*
X92447550Y-81345375D01*
X92258217Y-81248904D01*
X92056129Y-81183242D01*
X91846246Y-81150000D01*
X91633754Y-81150000D01*
X91423872Y-81183242D01*
X91423869Y-81183242D01*
X91221782Y-81248904D01*
X91032439Y-81345380D01*
X90978282Y-81384727D01*
X90978282Y-81384728D01*
X91610591Y-82017037D01*
X91547007Y-82034075D01*
X91432993Y-82099901D01*
X91339901Y-82192993D01*
X91274075Y-82307007D01*
X91257037Y-82370591D01*
X90594819Y-81708373D01*
X90561334Y-81647050D01*
X90561035Y-81645636D01*
X90558500Y-81633292D01*
X90558500Y-81601362D01*
X90551989Y-81540799D01*
X90500889Y-81403796D01*
X90413261Y-81286739D01*
X90296204Y-81199111D01*
X90159203Y-81148011D01*
X90098654Y-81141500D01*
X90098638Y-81141500D01*
X88301362Y-81141500D01*
X88301345Y-81141500D01*
X88240797Y-81148011D01*
X88240795Y-81148011D01*
X88103795Y-81199111D01*
X87986739Y-81286739D01*
X87899111Y-81403794D01*
X87891849Y-81423265D01*
X87885295Y-81440835D01*
X87843425Y-81496767D01*
X87777961Y-81521184D01*
X87769115Y-81521500D01*
X65993360Y-81521500D01*
X65926321Y-81501815D01*
X65905679Y-81485181D01*
X65852428Y-81431930D01*
X65852423Y-81431926D01*
X65685806Y-81310873D01*
X65685805Y-81310872D01*
X65685803Y-81310871D01*
X65628496Y-81281671D01*
X65502294Y-81217367D01*
X65334757Y-81162931D01*
X65277082Y-81123493D01*
X65249884Y-81059134D01*
X65261799Y-80990288D01*
X65309043Y-80938812D01*
X65334757Y-80927069D01*
X65365923Y-80916942D01*
X65502290Y-80872634D01*
X65685803Y-80779129D01*
X65852430Y-80658068D01*
X65905679Y-80604819D01*
X65967002Y-80571334D01*
X65993360Y-80568500D01*
X76971501Y-80568500D01*
X77038540Y-80588185D01*
X77084295Y-80640989D01*
X77094790Y-80679244D01*
X77098011Y-80709202D01*
X77098011Y-80709204D01*
X77124093Y-80779129D01*
X77149111Y-80846204D01*
X77236739Y-80963261D01*
X77353796Y-81050889D01*
X77490799Y-81101989D01*
X77518050Y-81104918D01*
X77551345Y-81108499D01*
X77551362Y-81108500D01*
X79348638Y-81108500D01*
X79348654Y-81108499D01*
X79375692Y-81105591D01*
X79409201Y-81101989D01*
X79546204Y-81050889D01*
X79663261Y-80963261D01*
X79750889Y-80846204D01*
X79801989Y-80709201D01*
X79808500Y-80648638D01*
X79808500Y-80616708D01*
X79811035Y-80604364D01*
X79821749Y-80584186D01*
X79828185Y-80562268D01*
X79843437Y-80543340D01*
X79843802Y-80542654D01*
X79844146Y-80542460D01*
X79844819Y-80541626D01*
X80507037Y-79879408D01*
X80524075Y-79942993D01*
X80589901Y-80057007D01*
X80682993Y-80150099D01*
X80797007Y-80215925D01*
X80860590Y-80232962D01*
X80228282Y-80865269D01*
X80228282Y-80865270D01*
X80282449Y-80904624D01*
X80471782Y-81001095D01*
X80673870Y-81066757D01*
X80883754Y-81100000D01*
X81096246Y-81100000D01*
X81306127Y-81066757D01*
X81306130Y-81066757D01*
X81508217Y-81001095D01*
X81697554Y-80904622D01*
X81751716Y-80865270D01*
X81751717Y-80865270D01*
X81119408Y-80232962D01*
X81182993Y-80215925D01*
X81297007Y-80150099D01*
X81390099Y-80057007D01*
X81455925Y-79942993D01*
X81472962Y-79879408D01*
X82105270Y-80511717D01*
X82105270Y-80511716D01*
X82144622Y-80457554D01*
X82241095Y-80268217D01*
X82306757Y-80066130D01*
X82306757Y-80066127D01*
X82340000Y-79856246D01*
X82340000Y-79643753D01*
X82306757Y-79433872D01*
X82306757Y-79433869D01*
X82241095Y-79231782D01*
X82144624Y-79042449D01*
X82105270Y-78988282D01*
X82105269Y-78988282D01*
X81472962Y-79620590D01*
X81455925Y-79557007D01*
X81390099Y-79442993D01*
X81297007Y-79349901D01*
X81182993Y-79284075D01*
X81119409Y-79267037D01*
X81751716Y-78634728D01*
X81697550Y-78595375D01*
X81508217Y-78498904D01*
X81306129Y-78433242D01*
X81096246Y-78400000D01*
X80883754Y-78400000D01*
X80673872Y-78433242D01*
X80673869Y-78433242D01*
X80471782Y-78498904D01*
X80282439Y-78595380D01*
X80228282Y-78634727D01*
X80228282Y-78634728D01*
X80860591Y-79267037D01*
X80797007Y-79284075D01*
X80682993Y-79349901D01*
X80589901Y-79442993D01*
X80524075Y-79557007D01*
X80507037Y-79620591D01*
X79844819Y-78958373D01*
X79811334Y-78897050D01*
X79811035Y-78895636D01*
X79808500Y-78883292D01*
X79808500Y-78851362D01*
X79801989Y-78790799D01*
X79750889Y-78653796D01*
X79663261Y-78536739D01*
X79546204Y-78449111D01*
X79541526Y-78447366D01*
X79409203Y-78398011D01*
X79348654Y-78391500D01*
X79348638Y-78391500D01*
X77551362Y-78391500D01*
X77551345Y-78391500D01*
X77490797Y-78398011D01*
X77490795Y-78398011D01*
X77353795Y-78449111D01*
X77236739Y-78536739D01*
X77149112Y-78653793D01*
X77149111Y-78653796D01*
X77142755Y-78670836D01*
X77100885Y-78726767D01*
X77035421Y-78751184D01*
X77026575Y-78751500D01*
X65993360Y-78751500D01*
X65926321Y-78731815D01*
X65905679Y-78715181D01*
X65852428Y-78661930D01*
X65852423Y-78661926D01*
X65685806Y-78540873D01*
X65685805Y-78540872D01*
X65685803Y-78540871D01*
X65603439Y-78498904D01*
X65502294Y-78447367D01*
X65334757Y-78392931D01*
X65277082Y-78353493D01*
X65249884Y-78289134D01*
X65261799Y-78220288D01*
X65309043Y-78168812D01*
X65334757Y-78157069D01*
X65365923Y-78146942D01*
X65502290Y-78102634D01*
X65685803Y-78009129D01*
X65852430Y-77888068D01*
X65905679Y-77834819D01*
X65967002Y-77801334D01*
X65993360Y-77798500D01*
X87801330Y-77798500D01*
X87868369Y-77818185D01*
X87900596Y-77848188D01*
X87986739Y-77963261D01*
X88103796Y-78050889D01*
X88240799Y-78101989D01*
X88268050Y-78104918D01*
X88301345Y-78108499D01*
X88301362Y-78108500D01*
X90098638Y-78108500D01*
X90098654Y-78108499D01*
X90125692Y-78105591D01*
X90159201Y-78101989D01*
X90296204Y-78050889D01*
X90413261Y-77963261D01*
X90500889Y-77846204D01*
X90551989Y-77709201D01*
X90558500Y-77648638D01*
X90558500Y-77616708D01*
X90561035Y-77604364D01*
X90571749Y-77584186D01*
X90578185Y-77562268D01*
X90593437Y-77543340D01*
X90593802Y-77542654D01*
X90594146Y-77542460D01*
X90594819Y-77541626D01*
X91257037Y-76879408D01*
X91274075Y-76942993D01*
X91339901Y-77057007D01*
X91432993Y-77150099D01*
X91547007Y-77215925D01*
X91610590Y-77232962D01*
X90978282Y-77865269D01*
X90978282Y-77865270D01*
X91032449Y-77904624D01*
X91221782Y-78001095D01*
X91423870Y-78066757D01*
X91633754Y-78100000D01*
X91846246Y-78100000D01*
X92056127Y-78066757D01*
X92056130Y-78066757D01*
X92258217Y-78001095D01*
X92447554Y-77904622D01*
X92501716Y-77865270D01*
X92501717Y-77865270D01*
X91869408Y-77232962D01*
X91932993Y-77215925D01*
X92047007Y-77150099D01*
X92140099Y-77057007D01*
X92205925Y-76942993D01*
X92222962Y-76879408D01*
X92855270Y-77511717D01*
X92855270Y-77511716D01*
X92894622Y-77457554D01*
X92991095Y-77268217D01*
X93056757Y-77066130D01*
X93056757Y-77066127D01*
X93090000Y-76856246D01*
X93090000Y-76643753D01*
X93056757Y-76433872D01*
X93056757Y-76433869D01*
X92991095Y-76231782D01*
X92894624Y-76042449D01*
X92855270Y-75988282D01*
X92855269Y-75988282D01*
X92222962Y-76620590D01*
X92205925Y-76557007D01*
X92140099Y-76442993D01*
X92047007Y-76349901D01*
X91932993Y-76284075D01*
X91869409Y-76267037D01*
X92501716Y-75634728D01*
X92447550Y-75595375D01*
X92258217Y-75498904D01*
X92056129Y-75433242D01*
X91846246Y-75400000D01*
X91633754Y-75400000D01*
X91423872Y-75433242D01*
X91423869Y-75433242D01*
X91221782Y-75498904D01*
X91032439Y-75595380D01*
X90978282Y-75634727D01*
X90978282Y-75634728D01*
X91610591Y-76267037D01*
X91547007Y-76284075D01*
X91432993Y-76349901D01*
X91339901Y-76442993D01*
X91274075Y-76557007D01*
X91257037Y-76620591D01*
X90594819Y-75958373D01*
X90561334Y-75897050D01*
X90561035Y-75895636D01*
X90558500Y-75883292D01*
X90558500Y-75851362D01*
X90551989Y-75790799D01*
X90500889Y-75653796D01*
X90413261Y-75536739D01*
X90296204Y-75449111D01*
X90159203Y-75398011D01*
X90098654Y-75391500D01*
X90098638Y-75391500D01*
X88301362Y-75391500D01*
X88301345Y-75391500D01*
X88240797Y-75398011D01*
X88240795Y-75398011D01*
X88103795Y-75449111D01*
X87986739Y-75536739D01*
X87899111Y-75653795D01*
X87848011Y-75790795D01*
X87848011Y-75790797D01*
X87841500Y-75851345D01*
X87841500Y-75857500D01*
X87821815Y-75924539D01*
X87769011Y-75970294D01*
X87717500Y-75981500D01*
X65993360Y-75981500D01*
X65926321Y-75961815D01*
X65905679Y-75945181D01*
X65852428Y-75891930D01*
X65852423Y-75891926D01*
X65685806Y-75770873D01*
X65685805Y-75770872D01*
X65685803Y-75770871D01*
X65578769Y-75716334D01*
X65502294Y-75677367D01*
X65334757Y-75622931D01*
X65277082Y-75583493D01*
X65249884Y-75519134D01*
X65261799Y-75450288D01*
X65309043Y-75398812D01*
X65334757Y-75387069D01*
X65365923Y-75376942D01*
X65502290Y-75332634D01*
X65685803Y-75239129D01*
X65852430Y-75118068D01*
X65905679Y-75064819D01*
X65967002Y-75031334D01*
X65993360Y-75028500D01*
X77038569Y-75028500D01*
X77105608Y-75048185D01*
X77143742Y-75089143D01*
X77143796Y-75089104D01*
X77144166Y-75089599D01*
X77147401Y-75093073D01*
X77149109Y-75096202D01*
X77165478Y-75118068D01*
X77236739Y-75213261D01*
X77353796Y-75300889D01*
X77438907Y-75332634D01*
X77482908Y-75349046D01*
X77490799Y-75351989D01*
X77518050Y-75354918D01*
X77551345Y-75358499D01*
X77551362Y-75358500D01*
X79348638Y-75358500D01*
X79348654Y-75358499D01*
X79375692Y-75355591D01*
X79409201Y-75351989D01*
X79417092Y-75349046D01*
X79423768Y-75346555D01*
X79546204Y-75300889D01*
X79663261Y-75213261D01*
X79750889Y-75096204D01*
X79801989Y-74959201D01*
X79808500Y-74898638D01*
X79808500Y-74866708D01*
X79811035Y-74854364D01*
X79821749Y-74834186D01*
X79828185Y-74812268D01*
X79843437Y-74793340D01*
X79843802Y-74792654D01*
X79844146Y-74792460D01*
X79844819Y-74791626D01*
X80507037Y-74129408D01*
X80524075Y-74192993D01*
X80589901Y-74307007D01*
X80682993Y-74400099D01*
X80797007Y-74465925D01*
X80860590Y-74482962D01*
X80228282Y-75115269D01*
X80228282Y-75115270D01*
X80282449Y-75154624D01*
X80471782Y-75251095D01*
X80673870Y-75316757D01*
X80883754Y-75350000D01*
X81096246Y-75350000D01*
X81306127Y-75316757D01*
X81306130Y-75316757D01*
X81508217Y-75251095D01*
X81697554Y-75154622D01*
X81751716Y-75115270D01*
X81751717Y-75115270D01*
X81119408Y-74482962D01*
X81182993Y-74465925D01*
X81297007Y-74400099D01*
X81390099Y-74307007D01*
X81455925Y-74192993D01*
X81472962Y-74129408D01*
X82105270Y-74761717D01*
X82105270Y-74761716D01*
X82144622Y-74707554D01*
X82241095Y-74518217D01*
X82306757Y-74316130D01*
X82306757Y-74316127D01*
X82340000Y-74106246D01*
X82340000Y-73893753D01*
X82306757Y-73683872D01*
X82306757Y-73683869D01*
X82241095Y-73481782D01*
X82144624Y-73292449D01*
X82105270Y-73238282D01*
X82105269Y-73238282D01*
X81472962Y-73870590D01*
X81455925Y-73807007D01*
X81390099Y-73692993D01*
X81297007Y-73599901D01*
X81182993Y-73534075D01*
X81119409Y-73517037D01*
X81751716Y-72884728D01*
X81697550Y-72845375D01*
X81508217Y-72748904D01*
X81306129Y-72683242D01*
X81096246Y-72650000D01*
X80883754Y-72650000D01*
X80673872Y-72683242D01*
X80673869Y-72683242D01*
X80471782Y-72748904D01*
X80282439Y-72845380D01*
X80228282Y-72884727D01*
X80228282Y-72884728D01*
X80860591Y-73517037D01*
X80797007Y-73534075D01*
X80682993Y-73599901D01*
X80589901Y-73692993D01*
X80524075Y-73807007D01*
X80507037Y-73870591D01*
X79844819Y-73208373D01*
X79811334Y-73147050D01*
X79811035Y-73145636D01*
X79808500Y-73133292D01*
X79808500Y-73101362D01*
X79801989Y-73040799D01*
X79750889Y-72903796D01*
X79663261Y-72786739D01*
X79546204Y-72699111D01*
X79533072Y-72694213D01*
X79409203Y-72648011D01*
X79348654Y-72641500D01*
X79348638Y-72641500D01*
X77551362Y-72641500D01*
X77551345Y-72641500D01*
X77490797Y-72648011D01*
X77490795Y-72648011D01*
X77353795Y-72699111D01*
X77236739Y-72786739D01*
X77149111Y-72903795D01*
X77098011Y-73040795D01*
X77098011Y-73040797D01*
X77091564Y-73100757D01*
X77064825Y-73165307D01*
X77007433Y-73205155D01*
X76968275Y-73211500D01*
X65993360Y-73211500D01*
X65926321Y-73191815D01*
X65905679Y-73175181D01*
X65852428Y-73121930D01*
X65852423Y-73121926D01*
X65685806Y-73000873D01*
X65685805Y-73000872D01*
X65685803Y-73000871D01*
X65618021Y-72966334D01*
X65502294Y-72907367D01*
X65334757Y-72852931D01*
X65277082Y-72813493D01*
X65249884Y-72749134D01*
X65261799Y-72680288D01*
X65309043Y-72628812D01*
X65334757Y-72617069D01*
X65387289Y-72600000D01*
X65502290Y-72562634D01*
X65685803Y-72469129D01*
X65852430Y-72348068D01*
X65905679Y-72294819D01*
X65967002Y-72261334D01*
X65993360Y-72258500D01*
X87780305Y-72258500D01*
X87847344Y-72278185D01*
X87893099Y-72330989D01*
X87896480Y-72339150D01*
X87899111Y-72346204D01*
X87986739Y-72463261D01*
X88103796Y-72550889D01*
X88240799Y-72601989D01*
X88268050Y-72604918D01*
X88301345Y-72608499D01*
X88301362Y-72608500D01*
X90098638Y-72608500D01*
X90098654Y-72608499D01*
X90125692Y-72605591D01*
X90159201Y-72601989D01*
X90296204Y-72550889D01*
X90413261Y-72463261D01*
X90500889Y-72346204D01*
X90551989Y-72209201D01*
X90558500Y-72148638D01*
X90558500Y-72116708D01*
X90561035Y-72104364D01*
X90571749Y-72084186D01*
X90578185Y-72062268D01*
X90593437Y-72043340D01*
X90593802Y-72042654D01*
X90594146Y-72042460D01*
X90594819Y-72041626D01*
X91257037Y-71379408D01*
X91274075Y-71442993D01*
X91339901Y-71557007D01*
X91432993Y-71650099D01*
X91547007Y-71715925D01*
X91610590Y-71732962D01*
X90978282Y-72365269D01*
X90978282Y-72365270D01*
X91032449Y-72404624D01*
X91221782Y-72501095D01*
X91423870Y-72566757D01*
X91633754Y-72600000D01*
X91846246Y-72600000D01*
X92056127Y-72566757D01*
X92056130Y-72566757D01*
X92258217Y-72501095D01*
X92447554Y-72404622D01*
X92501716Y-72365270D01*
X92501717Y-72365270D01*
X91869408Y-71732962D01*
X91932993Y-71715925D01*
X92047007Y-71650099D01*
X92140099Y-71557007D01*
X92205925Y-71442993D01*
X92222962Y-71379408D01*
X92855270Y-72011717D01*
X92855270Y-72011716D01*
X92894622Y-71957554D01*
X92991095Y-71768217D01*
X92993663Y-71760316D01*
X92993663Y-71760315D01*
X93056757Y-71566130D01*
X93056757Y-71566127D01*
X93090000Y-71356246D01*
X93090000Y-71143753D01*
X93069807Y-71016262D01*
X93056757Y-70933872D01*
X93056757Y-70933869D01*
X92991095Y-70731782D01*
X92894624Y-70542449D01*
X92855270Y-70488282D01*
X92855269Y-70488282D01*
X92222962Y-71120590D01*
X92205925Y-71057007D01*
X92140099Y-70942993D01*
X92047007Y-70849901D01*
X91932993Y-70784075D01*
X91869409Y-70767037D01*
X92501716Y-70134728D01*
X92447550Y-70095375D01*
X92258217Y-69998904D01*
X92056129Y-69933242D01*
X91846246Y-69900000D01*
X91633754Y-69900000D01*
X91423872Y-69933242D01*
X91423869Y-69933242D01*
X91221782Y-69998904D01*
X91032439Y-70095380D01*
X90978282Y-70134727D01*
X90978282Y-70134728D01*
X91610591Y-70767037D01*
X91547007Y-70784075D01*
X91432993Y-70849901D01*
X91339901Y-70942993D01*
X91274075Y-71057007D01*
X91257037Y-71120591D01*
X90594819Y-70458373D01*
X90561334Y-70397050D01*
X90561035Y-70395636D01*
X90558500Y-70383292D01*
X90558500Y-70351362D01*
X90551989Y-70290799D01*
X90500889Y-70153796D01*
X90496433Y-70147844D01*
X90457155Y-70095375D01*
X90413261Y-70036739D01*
X90296204Y-69949111D01*
X90293359Y-69948050D01*
X90159203Y-69898011D01*
X90098654Y-69891500D01*
X90098638Y-69891500D01*
X88301362Y-69891500D01*
X88301345Y-69891500D01*
X88240797Y-69898011D01*
X88240795Y-69898011D01*
X88103795Y-69949111D01*
X87986739Y-70036739D01*
X87899111Y-70153795D01*
X87848011Y-70290795D01*
X87848010Y-70290798D01*
X87843715Y-70330755D01*
X87816977Y-70395306D01*
X87759585Y-70435155D01*
X87720426Y-70441500D01*
X65993360Y-70441500D01*
X65926321Y-70421815D01*
X65905679Y-70405181D01*
X65852428Y-70351930D01*
X65852423Y-70351926D01*
X65685806Y-70230873D01*
X65685805Y-70230872D01*
X65685803Y-70230871D01*
X65628496Y-70201671D01*
X65502294Y-70137367D01*
X65334755Y-70082930D01*
X65308718Y-70065126D01*
X65281709Y-70048835D01*
X65280096Y-70045554D01*
X65277080Y-70043492D01*
X65264800Y-70014434D01*
X65250888Y-69986130D01*
X65251304Y-69982500D01*
X65249882Y-69979133D01*
X65255261Y-69948050D01*
X65258860Y-69916717D01*
X65261173Y-69913887D01*
X65261797Y-69910287D01*
X65283126Y-69887046D01*
X65303094Y-69862633D01*
X65307537Y-69860448D01*
X65309041Y-69858811D01*
X65334762Y-69847067D01*
X65342463Y-69844565D01*
X65380768Y-69838500D01*
X68899051Y-69838500D01*
X69094700Y-69807512D01*
X69283097Y-69746298D01*
X69459598Y-69656366D01*
X69619858Y-69539930D01*
X69759930Y-69399858D01*
X70664969Y-68494819D01*
X70726292Y-68461334D01*
X70752650Y-68458500D01*
X103758720Y-68458500D01*
X103788160Y-68467144D01*
X103818147Y-68473668D01*
X103823162Y-68477422D01*
X103825759Y-68478185D01*
X103846401Y-68494819D01*
X103955181Y-68603599D01*
X103988666Y-68664922D01*
X103991500Y-68691280D01*
X103991500Y-70431477D01*
X103971815Y-70498516D01*
X103919011Y-70544271D01*
X103849853Y-70554215D01*
X103786297Y-70525190D01*
X103779819Y-70519158D01*
X103718345Y-70457684D01*
X103569124Y-70365643D01*
X103569119Y-70365641D01*
X103402697Y-70310494D01*
X103402690Y-70310493D01*
X103299986Y-70300000D01*
X102950000Y-70300000D01*
X102950000Y-71284314D01*
X102945606Y-71279920D01*
X102854394Y-71227259D01*
X102752661Y-71200000D01*
X102647339Y-71200000D01*
X102545606Y-71227259D01*
X102454394Y-71279920D01*
X102450000Y-71284314D01*
X102450000Y-70300000D01*
X102100028Y-70300000D01*
X102100012Y-70300001D01*
X101997302Y-70310494D01*
X101830880Y-70365641D01*
X101830875Y-70365643D01*
X101681654Y-70457684D01*
X101557684Y-70581654D01*
X101465643Y-70730875D01*
X101465641Y-70730880D01*
X101410494Y-70897302D01*
X101410493Y-70897309D01*
X101400000Y-71000013D01*
X101400000Y-71350000D01*
X102384314Y-71350000D01*
X102379920Y-71354394D01*
X102327259Y-71445606D01*
X102300000Y-71547339D01*
X102300000Y-71652661D01*
X102327259Y-71754394D01*
X102379920Y-71845606D01*
X102384314Y-71850000D01*
X101400001Y-71850000D01*
X101400001Y-72199986D01*
X101410494Y-72302697D01*
X101465641Y-72469119D01*
X101465643Y-72469124D01*
X101557684Y-72618345D01*
X101681654Y-72742315D01*
X101830875Y-72834356D01*
X101830880Y-72834358D01*
X101997302Y-72889505D01*
X101997309Y-72889506D01*
X102100019Y-72899999D01*
X102449999Y-72899999D01*
X102450000Y-72899998D01*
X102450000Y-71915686D01*
X102454394Y-71920080D01*
X102545606Y-71972741D01*
X102647339Y-72000000D01*
X102752661Y-72000000D01*
X102854394Y-71972741D01*
X102945606Y-71920080D01*
X102950000Y-71915686D01*
X102950000Y-72899999D01*
X103299972Y-72899999D01*
X103299986Y-72899998D01*
X103402697Y-72889505D01*
X103569119Y-72834358D01*
X103569124Y-72834356D01*
X103718345Y-72742315D01*
X103779819Y-72680842D01*
X103841142Y-72647357D01*
X103910834Y-72652341D01*
X103966767Y-72694213D01*
X103991184Y-72759677D01*
X103991500Y-72768523D01*
X103991500Y-74927147D01*
X103985431Y-74965465D01*
X103972487Y-75005299D01*
X103941500Y-75200948D01*
X103941500Y-77019230D01*
X103935431Y-77057548D01*
X103923720Y-77093590D01*
X103891500Y-77297019D01*
X103891500Y-77502980D01*
X103923719Y-77706408D01*
X103987367Y-77902294D01*
X104037710Y-78001095D01*
X104078602Y-78081350D01*
X104080873Y-78085806D01*
X104201926Y-78252423D01*
X104201930Y-78252428D01*
X104347571Y-78398069D01*
X104347576Y-78398073D01*
X104492908Y-78503661D01*
X104514197Y-78519129D01*
X104631128Y-78578709D01*
X104697705Y-78612632D01*
X104697707Y-78612632D01*
X104697710Y-78612634D01*
X104802707Y-78646749D01*
X104893591Y-78676280D01*
X104995305Y-78692390D01*
X105097019Y-78708500D01*
X105097020Y-78708500D01*
X105302980Y-78708500D01*
X105302981Y-78708500D01*
X105506408Y-78676280D01*
X105702290Y-78612634D01*
X105885803Y-78519129D01*
X106052430Y-78398068D01*
X106198068Y-78252430D01*
X106319129Y-78085803D01*
X106412634Y-77902290D01*
X106476280Y-77706408D01*
X106508500Y-77502981D01*
X106508500Y-77297682D01*
X108900000Y-77297682D01*
X108900000Y-77502317D01*
X108932009Y-77704417D01*
X108995244Y-77899031D01*
X109088141Y-78081350D01*
X109088147Y-78081359D01*
X109120523Y-78125921D01*
X109120524Y-78125922D01*
X109800000Y-77446446D01*
X109800000Y-77452661D01*
X109827259Y-77554394D01*
X109879920Y-77645606D01*
X109954394Y-77720080D01*
X110045606Y-77772741D01*
X110147339Y-77800000D01*
X110153553Y-77800000D01*
X109474076Y-78479474D01*
X109518650Y-78511859D01*
X109700968Y-78604755D01*
X109895582Y-78667990D01*
X110097683Y-78700000D01*
X110302317Y-78700000D01*
X110504417Y-78667990D01*
X110699031Y-78604755D01*
X110881349Y-78511859D01*
X110925921Y-78479474D01*
X110246447Y-77800000D01*
X110252661Y-77800000D01*
X110354394Y-77772741D01*
X110445606Y-77720080D01*
X110520080Y-77645606D01*
X110572741Y-77554394D01*
X110600000Y-77452661D01*
X110600000Y-77446447D01*
X111279474Y-78125921D01*
X111311859Y-78081349D01*
X111404755Y-77899031D01*
X111467990Y-77704417D01*
X111500000Y-77502317D01*
X111500000Y-77297682D01*
X111467990Y-77095582D01*
X111404755Y-76900968D01*
X111311859Y-76718650D01*
X111279474Y-76674077D01*
X111279474Y-76674076D01*
X110600000Y-77353551D01*
X110600000Y-77347339D01*
X110572741Y-77245606D01*
X110520080Y-77154394D01*
X110445606Y-77079920D01*
X110354394Y-77027259D01*
X110252661Y-77000000D01*
X110246446Y-77000000D01*
X110925922Y-76320524D01*
X110925921Y-76320523D01*
X110881359Y-76288147D01*
X110881350Y-76288141D01*
X110699031Y-76195244D01*
X110504417Y-76132009D01*
X110302317Y-76100000D01*
X110097683Y-76100000D01*
X109895582Y-76132009D01*
X109700968Y-76195244D01*
X109518644Y-76288143D01*
X109474077Y-76320523D01*
X109474077Y-76320524D01*
X110153554Y-77000000D01*
X110147339Y-77000000D01*
X110045606Y-77027259D01*
X109954394Y-77079920D01*
X109879920Y-77154394D01*
X109827259Y-77245606D01*
X109800000Y-77347339D01*
X109800000Y-77353553D01*
X109120524Y-76674077D01*
X109120523Y-76674077D01*
X109088143Y-76718644D01*
X108995244Y-76900968D01*
X108932009Y-77095582D01*
X108900000Y-77297682D01*
X106508500Y-77297682D01*
X106508500Y-77297019D01*
X106476280Y-77093592D01*
X106464569Y-77057548D01*
X106458500Y-77019230D01*
X106458500Y-75622852D01*
X106464569Y-75584533D01*
X106465555Y-75581500D01*
X106477512Y-75544699D01*
X106492652Y-75449111D01*
X106496232Y-75426507D01*
X106508500Y-75349050D01*
X106508500Y-70632500D01*
X106528185Y-70565461D01*
X106580989Y-70519706D01*
X106632500Y-70508500D01*
X110707425Y-70508500D01*
X110745743Y-70514569D01*
X110931884Y-70575049D01*
X111143084Y-70608500D01*
X111143085Y-70608500D01*
X111356915Y-70608500D01*
X111356916Y-70608500D01*
X111568116Y-70575049D01*
X111771483Y-70508972D01*
X111962009Y-70411894D01*
X112135004Y-70286206D01*
X112246791Y-70174418D01*
X112308110Y-70140936D01*
X112377802Y-70145920D01*
X112433736Y-70187791D01*
X112450651Y-70218769D01*
X112496645Y-70342086D01*
X112496649Y-70342093D01*
X112582809Y-70457187D01*
X112582812Y-70457190D01*
X112697906Y-70543350D01*
X112697913Y-70543354D01*
X112832620Y-70593596D01*
X112832627Y-70593598D01*
X112892155Y-70599999D01*
X112892172Y-70600000D01*
X113540000Y-70600000D01*
X113540000Y-69683012D01*
X113597007Y-69715925D01*
X113724174Y-69750000D01*
X113855826Y-69750000D01*
X113982993Y-69715925D01*
X114040000Y-69683012D01*
X114040000Y-70600000D01*
X114687828Y-70600000D01*
X114687844Y-70599999D01*
X114747372Y-70593598D01*
X114747379Y-70593596D01*
X114882086Y-70543354D01*
X114882093Y-70543350D01*
X114997187Y-70457190D01*
X114997190Y-70457187D01*
X115083350Y-70342093D01*
X115083354Y-70342086D01*
X115133596Y-70207379D01*
X115133598Y-70207372D01*
X115139999Y-70147844D01*
X115140000Y-70147827D01*
X115140000Y-69500000D01*
X114223012Y-69500000D01*
X114255925Y-69442993D01*
X114290000Y-69315826D01*
X114290000Y-69184174D01*
X114255925Y-69057007D01*
X114223012Y-69000000D01*
X115140000Y-69000000D01*
X115140000Y-68352172D01*
X115139999Y-68352155D01*
X115133598Y-68292627D01*
X115133596Y-68292620D01*
X115083354Y-68157913D01*
X115083350Y-68157906D01*
X114997190Y-68042812D01*
X114997187Y-68042809D01*
X114882093Y-67956649D01*
X114882086Y-67956645D01*
X114747379Y-67906403D01*
X114747372Y-67906401D01*
X114687844Y-67900000D01*
X114040000Y-67900000D01*
X114040000Y-68816988D01*
X113982993Y-68784075D01*
X113855826Y-68750000D01*
X113724174Y-68750000D01*
X113597007Y-68784075D01*
X113540000Y-68816988D01*
X113540000Y-67900000D01*
X112892155Y-67900000D01*
X112832627Y-67906401D01*
X112832620Y-67906403D01*
X112697913Y-67956645D01*
X112697906Y-67956649D01*
X112582812Y-68042809D01*
X112582809Y-68042812D01*
X112496649Y-68157906D01*
X112496645Y-68157913D01*
X112450651Y-68281230D01*
X112408779Y-68337164D01*
X112343315Y-68361581D01*
X112275042Y-68346729D01*
X112246788Y-68325578D01*
X112135006Y-68213796D01*
X112135004Y-68213794D01*
X111962009Y-68088106D01*
X111941596Y-68077705D01*
X111771483Y-67991027D01*
X111771480Y-67991026D01*
X111568117Y-67924951D01*
X111450997Y-67906401D01*
X111356916Y-67891500D01*
X111143084Y-67891500D01*
X111072684Y-67902650D01*
X110931882Y-67924951D01*
X110745743Y-67985431D01*
X110707425Y-67991500D01*
X106609958Y-67991500D01*
X106542919Y-67971815D01*
X106497164Y-67919011D01*
X106487485Y-67886897D01*
X106477512Y-67823930D01*
X106477512Y-67823929D01*
X106416296Y-67635528D01*
X106326365Y-67459031D01*
X106209930Y-67298772D01*
X106069858Y-67158700D01*
X105151228Y-66240070D01*
X104990968Y-66123634D01*
X104990966Y-66123633D01*
X104990947Y-66123621D01*
X104990593Y-66123443D01*
X104814471Y-66033703D01*
X104626070Y-65972487D01*
X104430421Y-65941500D01*
X104430416Y-65941500D01*
X70080954Y-65941500D01*
X70080949Y-65941500D01*
X69885299Y-65972488D01*
X69885296Y-65972488D01*
X69824087Y-65992377D01*
X69824086Y-65992377D01*
X69696908Y-66033698D01*
X69520402Y-66123633D01*
X69465458Y-66163553D01*
X69360142Y-66240070D01*
X69360140Y-66240072D01*
X69360139Y-66240072D01*
X68315031Y-67285181D01*
X68253708Y-67318666D01*
X68227350Y-67321500D01*
X65380768Y-67321500D01*
X65378434Y-67321130D01*
X65377223Y-67321449D01*
X65342449Y-67315430D01*
X65328100Y-67310768D01*
X65321000Y-67308461D01*
X65263326Y-67269021D01*
X65236130Y-67204662D01*
X65248046Y-67135816D01*
X65295292Y-67084342D01*
X65321004Y-67072600D01*
X65499029Y-67014755D01*
X65681349Y-66921859D01*
X65725921Y-66889474D01*
X65129409Y-66292962D01*
X65192993Y-66275925D01*
X65307007Y-66210099D01*
X65400099Y-66117007D01*
X65465925Y-66002993D01*
X65482962Y-65939409D01*
X66079474Y-66535921D01*
X66111859Y-66491349D01*
X66204755Y-66309031D01*
X66267990Y-66114417D01*
X66300000Y-65912317D01*
X66300000Y-65707682D01*
X66267990Y-65505582D01*
X66204755Y-65310968D01*
X66111859Y-65128650D01*
X66079474Y-65084077D01*
X66079474Y-65084076D01*
X65482962Y-65680589D01*
X65465925Y-65617007D01*
X65400099Y-65502993D01*
X65307007Y-65409901D01*
X65192993Y-65344075D01*
X65129408Y-65327037D01*
X65725922Y-64730524D01*
X65725921Y-64730523D01*
X65681359Y-64698147D01*
X65681350Y-64698141D01*
X65499031Y-64605244D01*
X65321003Y-64547399D01*
X65294970Y-64529598D01*
X65267965Y-64513313D01*
X65266349Y-64510027D01*
X65263328Y-64507961D01*
X65251053Y-64478915D01*
X65237138Y-64450612D01*
X65237555Y-64446974D01*
X65236130Y-64443602D01*
X65241508Y-64412527D01*
X65245103Y-64381197D01*
X65247420Y-64378362D01*
X65248045Y-64374756D01*
X65269369Y-64351521D01*
X65289332Y-64327109D01*
X65293783Y-64324920D01*
X65295289Y-64323280D01*
X65321005Y-64311537D01*
X65342451Y-64304569D01*
X65380768Y-64298500D01*
X96659044Y-64298500D01*
X96659046Y-64298500D01*
X96727069Y-64287726D01*
X96765860Y-64287726D01*
X96897019Y-64308500D01*
X96897020Y-64308500D01*
X97102980Y-64308500D01*
X97102981Y-64308500D01*
X97306408Y-64276280D01*
X97502290Y-64212634D01*
X97685803Y-64119129D01*
X97852430Y-63998068D01*
X97998068Y-63852430D01*
X98119129Y-63685803D01*
X98136333Y-63652035D01*
X98159135Y-63620651D01*
X98882104Y-62897682D01*
X100700000Y-62897682D01*
X100700000Y-63102317D01*
X100732009Y-63304417D01*
X100795244Y-63499031D01*
X100888141Y-63681350D01*
X100888147Y-63681359D01*
X100920523Y-63725921D01*
X100920524Y-63725922D01*
X101600000Y-63046446D01*
X101600000Y-63052661D01*
X101627259Y-63154394D01*
X101679920Y-63245606D01*
X101754394Y-63320080D01*
X101845606Y-63372741D01*
X101947339Y-63400000D01*
X101953553Y-63400000D01*
X101274076Y-64079474D01*
X101318650Y-64111859D01*
X101500968Y-64204755D01*
X101695582Y-64267990D01*
X101897683Y-64300000D01*
X102102317Y-64300000D01*
X102304417Y-64267990D01*
X102499031Y-64204755D01*
X102681349Y-64111859D01*
X102725921Y-64079474D01*
X102046447Y-63400000D01*
X102052661Y-63400000D01*
X102154394Y-63372741D01*
X102245606Y-63320080D01*
X102320080Y-63245606D01*
X102372741Y-63154394D01*
X102400000Y-63052661D01*
X102400000Y-63046448D01*
X103079474Y-63725922D01*
X103079474Y-63725921D01*
X103111859Y-63681349D01*
X103204755Y-63499031D01*
X103267990Y-63304417D01*
X103300000Y-63102317D01*
X103300000Y-62897682D01*
X103267990Y-62695582D01*
X103204755Y-62500968D01*
X103111859Y-62318650D01*
X103079474Y-62274077D01*
X103079474Y-62274076D01*
X102400000Y-62953551D01*
X102400000Y-62947339D01*
X102372741Y-62845606D01*
X102320080Y-62754394D01*
X102245606Y-62679920D01*
X102154394Y-62627259D01*
X102052661Y-62600000D01*
X102046446Y-62600000D01*
X102725922Y-61920524D01*
X102725921Y-61920523D01*
X102681359Y-61888147D01*
X102681350Y-61888141D01*
X102499031Y-61795244D01*
X102304417Y-61732009D01*
X102102317Y-61700000D01*
X101897683Y-61700000D01*
X101695582Y-61732009D01*
X101500968Y-61795244D01*
X101318644Y-61888143D01*
X101274077Y-61920523D01*
X101274077Y-61920524D01*
X101953554Y-62600000D01*
X101947339Y-62600000D01*
X101845606Y-62627259D01*
X101754394Y-62679920D01*
X101679920Y-62754394D01*
X101627259Y-62845606D01*
X101600000Y-62947339D01*
X101600000Y-62953553D01*
X100920524Y-62274077D01*
X100920523Y-62274077D01*
X100888143Y-62318644D01*
X100795244Y-62500968D01*
X100732009Y-62695582D01*
X100700000Y-62897682D01*
X98882104Y-62897682D01*
X102959930Y-58819858D01*
X103076367Y-58659598D01*
X103166299Y-58483096D01*
X103189616Y-58411334D01*
X103223884Y-58305866D01*
X103223885Y-58305866D01*
X103223885Y-58305860D01*
X103227512Y-58294700D01*
X103235327Y-58245354D01*
X103258500Y-58099051D01*
X103258500Y-55468195D01*
X103278185Y-55401156D01*
X103288516Y-55387307D01*
X103297348Y-55377044D01*
X103315761Y-55363261D01*
X103359511Y-55304817D01*
X103362270Y-55301612D01*
X103388188Y-55284832D01*
X103412921Y-55266318D01*
X103418279Y-55265351D01*
X103420921Y-55263641D01*
X103427888Y-55263617D01*
X103456254Y-55258500D01*
X110457425Y-55258500D01*
X110495743Y-55264569D01*
X110681884Y-55325049D01*
X110893084Y-55358500D01*
X110893085Y-55358500D01*
X111106915Y-55358500D01*
X111106916Y-55358500D01*
X111318116Y-55325049D01*
X111521483Y-55258972D01*
X111712009Y-55161894D01*
X111885004Y-55036206D01*
X111996791Y-54924418D01*
X112058110Y-54890936D01*
X112127802Y-54895920D01*
X112183736Y-54937791D01*
X112200651Y-54968769D01*
X112246645Y-55092086D01*
X112246649Y-55092093D01*
X112332809Y-55207187D01*
X112332812Y-55207190D01*
X112447906Y-55293350D01*
X112447913Y-55293354D01*
X112582620Y-55343596D01*
X112582627Y-55343598D01*
X112642155Y-55349999D01*
X112642172Y-55350000D01*
X113290000Y-55350000D01*
X113290000Y-54433012D01*
X113347007Y-54465925D01*
X113474174Y-54500000D01*
X113605826Y-54500000D01*
X113732993Y-54465925D01*
X113790000Y-54433012D01*
X113790000Y-55350000D01*
X114437828Y-55350000D01*
X114437844Y-55349999D01*
X114497372Y-55343598D01*
X114497379Y-55343596D01*
X114632086Y-55293354D01*
X114632093Y-55293350D01*
X114747187Y-55207190D01*
X114747190Y-55207187D01*
X114833350Y-55092093D01*
X114833354Y-55092086D01*
X114883596Y-54957379D01*
X114883598Y-54957372D01*
X114889999Y-54897844D01*
X114890000Y-54897827D01*
X114890000Y-54250000D01*
X113973012Y-54250000D01*
X114005925Y-54192993D01*
X114040000Y-54065826D01*
X114040000Y-53934174D01*
X114005925Y-53807007D01*
X113973012Y-53750000D01*
X114890000Y-53750000D01*
X114890000Y-53102172D01*
X114889999Y-53102155D01*
X114883598Y-53042627D01*
X114883596Y-53042620D01*
X114833354Y-52907913D01*
X114833350Y-52907906D01*
X114747190Y-52792812D01*
X114747187Y-52792809D01*
X114632093Y-52706649D01*
X114632086Y-52706645D01*
X114497379Y-52656403D01*
X114497372Y-52656401D01*
X114437844Y-52650000D01*
X113790000Y-52650000D01*
X113790000Y-53566988D01*
X113732993Y-53534075D01*
X113605826Y-53500000D01*
X113474174Y-53500000D01*
X113347007Y-53534075D01*
X113290000Y-53566988D01*
X113290000Y-52650000D01*
X112642155Y-52650000D01*
X112582627Y-52656401D01*
X112582620Y-52656403D01*
X112447913Y-52706645D01*
X112447906Y-52706649D01*
X112332812Y-52792809D01*
X112332809Y-52792812D01*
X112246649Y-52907906D01*
X112246645Y-52907913D01*
X112200651Y-53031230D01*
X112158779Y-53087164D01*
X112093315Y-53111581D01*
X112025042Y-53096729D01*
X111996788Y-53075578D01*
X111885006Y-52963796D01*
X111885004Y-52963794D01*
X111712009Y-52838106D01*
X111686283Y-52824998D01*
X111521483Y-52741027D01*
X111521480Y-52741026D01*
X111318117Y-52674951D01*
X111200997Y-52656401D01*
X111106916Y-52641500D01*
X110893084Y-52641500D01*
X110822684Y-52652650D01*
X110681882Y-52674951D01*
X110495743Y-52735431D01*
X110457425Y-52741500D01*
X103456254Y-52741500D01*
X103456045Y-52741438D01*
X103455837Y-52741499D01*
X103422417Y-52731564D01*
X103389215Y-52721815D01*
X103389004Y-52721631D01*
X103388864Y-52721590D01*
X103387625Y-52720433D01*
X103362269Y-52698387D01*
X103359511Y-52695183D01*
X103315761Y-52636739D01*
X103297351Y-52622957D01*
X103288515Y-52612690D01*
X103279467Y-52592700D01*
X103266317Y-52575133D01*
X103262871Y-52556035D01*
X103259704Y-52549037D01*
X103260560Y-52543221D01*
X103258500Y-52531803D01*
X103258500Y-46429880D01*
X103278185Y-46362841D01*
X103330989Y-46317086D01*
X103369898Y-46306522D01*
X103378034Y-46305690D01*
X103454426Y-46297887D01*
X103622738Y-46242115D01*
X103773652Y-46149030D01*
X103899030Y-46023652D01*
X103992115Y-45872738D01*
X104016244Y-45799917D01*
X104020117Y-45792111D01*
X104038148Y-45772602D01*
X104053268Y-45750763D01*
X104061494Y-45747342D01*
X104067541Y-45740801D01*
X104093252Y-45734138D01*
X104117784Y-45723939D01*
X104133522Y-45723703D01*
X104135177Y-45723275D01*
X104136352Y-45723661D01*
X104140932Y-45723593D01*
X104170525Y-45725921D01*
X104850000Y-45046446D01*
X104850000Y-45052661D01*
X104877259Y-45154394D01*
X104929920Y-45245606D01*
X105004394Y-45320080D01*
X105095606Y-45372741D01*
X105197339Y-45400000D01*
X105203553Y-45400000D01*
X104524076Y-46079474D01*
X104568650Y-46111859D01*
X104750968Y-46204755D01*
X104945582Y-46267990D01*
X105147683Y-46300000D01*
X105352317Y-46300000D01*
X105554417Y-46267990D01*
X105749031Y-46204755D01*
X105931349Y-46111859D01*
X105975921Y-46079474D01*
X105296447Y-45400000D01*
X105302661Y-45400000D01*
X105404394Y-45372741D01*
X105495606Y-45320080D01*
X105570080Y-45245606D01*
X105622741Y-45154394D01*
X105650000Y-45052661D01*
X105650000Y-45046447D01*
X106329474Y-45725921D01*
X106361859Y-45681349D01*
X106454755Y-45499031D01*
X106517990Y-45304417D01*
X106550000Y-45102317D01*
X106550000Y-44897682D01*
X106517990Y-44695582D01*
X106454755Y-44500968D01*
X106361859Y-44318650D01*
X106329474Y-44274077D01*
X106329474Y-44274076D01*
X105650000Y-44953551D01*
X105650000Y-44947339D01*
X105622741Y-44845606D01*
X105570080Y-44754394D01*
X105495606Y-44679920D01*
X105404394Y-44627259D01*
X105302661Y-44600000D01*
X105296446Y-44600000D01*
X105975922Y-43920524D01*
X105975921Y-43920523D01*
X105931359Y-43888147D01*
X105931350Y-43888141D01*
X105749031Y-43795244D01*
X105554417Y-43732009D01*
X105352317Y-43700000D01*
X105147683Y-43700000D01*
X104945582Y-43732009D01*
X104750968Y-43795244D01*
X104568644Y-43888143D01*
X104524077Y-43920523D01*
X104524077Y-43920524D01*
X105203554Y-44600000D01*
X105197339Y-44600000D01*
X105095606Y-44627259D01*
X105004394Y-44679920D01*
X104929920Y-44754394D01*
X104877259Y-44845606D01*
X104850000Y-44947339D01*
X104850000Y-44953553D01*
X104170524Y-44274077D01*
X104142229Y-44276304D01*
X104128618Y-44273444D01*
X104114853Y-44275424D01*
X104095101Y-44266403D01*
X104073852Y-44261940D01*
X104063947Y-44252176D01*
X104051297Y-44246399D01*
X104039557Y-44228132D01*
X104024095Y-44212889D01*
X104020268Y-44198117D01*
X104013523Y-44187621D01*
X104008500Y-44152686D01*
X104008500Y-40615186D01*
X110099500Y-40615186D01*
X110099500Y-40884813D01*
X110129686Y-41152719D01*
X110129687Y-41152728D01*
X110129688Y-41152732D01*
X110140909Y-41201894D01*
X110189684Y-41415594D01*
X110189687Y-41415602D01*
X110278734Y-41670082D01*
X110395714Y-41912994D01*
X110395716Y-41912997D01*
X110539162Y-42141289D01*
X110707266Y-42352085D01*
X110897915Y-42542734D01*
X111108711Y-42710838D01*
X111337003Y-42854284D01*
X111579921Y-42971267D01*
X111704183Y-43014748D01*
X111834397Y-43060312D01*
X111834405Y-43060315D01*
X111834408Y-43060315D01*
X111834409Y-43060316D01*
X112097268Y-43120312D01*
X112365187Y-43150499D01*
X112365188Y-43150500D01*
X112365191Y-43150500D01*
X112634812Y-43150500D01*
X112634812Y-43150499D01*
X112902732Y-43120312D01*
X113165591Y-43060316D01*
X113420079Y-42971267D01*
X113662997Y-42854284D01*
X113891289Y-42710838D01*
X114102085Y-42542734D01*
X114292734Y-42352085D01*
X114460838Y-42141289D01*
X114604284Y-41912997D01*
X114721267Y-41670079D01*
X114810316Y-41415591D01*
X114870312Y-41152732D01*
X114900500Y-40884809D01*
X114900500Y-40615191D01*
X114870312Y-40347268D01*
X114810316Y-40084409D01*
X114721267Y-39829921D01*
X114604284Y-39587003D01*
X114460838Y-39358711D01*
X114292734Y-39147915D01*
X114102085Y-38957266D01*
X114097085Y-38953279D01*
X114015006Y-38887823D01*
X113891289Y-38789162D01*
X113662997Y-38645716D01*
X113662994Y-38645714D01*
X113420082Y-38528734D01*
X113165602Y-38439687D01*
X113165594Y-38439684D01*
X112968446Y-38394687D01*
X112902732Y-38379688D01*
X112902728Y-38379687D01*
X112902719Y-38379686D01*
X112634813Y-38349500D01*
X112634809Y-38349500D01*
X112365191Y-38349500D01*
X112365186Y-38349500D01*
X112097280Y-38379686D01*
X112097268Y-38379688D01*
X111834405Y-38439684D01*
X111834397Y-38439687D01*
X111579917Y-38528734D01*
X111337005Y-38645714D01*
X111108712Y-38789161D01*
X110897915Y-38957265D01*
X110707265Y-39147915D01*
X110539161Y-39358712D01*
X110395714Y-39587005D01*
X110278734Y-39829917D01*
X110189687Y-40084397D01*
X110189684Y-40084405D01*
X110129688Y-40347268D01*
X110129686Y-40347280D01*
X110099500Y-40615186D01*
X104008500Y-40615186D01*
X104008500Y-36400948D01*
X103977512Y-36205299D01*
X103938228Y-36084397D01*
X103916298Y-36016903D01*
X103916296Y-36016900D01*
X103916296Y-36016898D01*
X103826365Y-35840401D01*
X103818748Y-35829917D01*
X103709930Y-35680142D01*
X103569858Y-35540070D01*
X101569858Y-33540070D01*
X101409598Y-33423634D01*
X101233101Y-33333703D01*
X101044700Y-33272487D01*
X100849051Y-33241500D01*
X100849046Y-33241500D01*
X86900954Y-33241500D01*
X86900949Y-33241500D01*
X86705299Y-33272487D01*
X86516898Y-33333703D01*
X86340401Y-33423634D01*
X86248967Y-33490065D01*
X86180142Y-33540070D01*
X86180140Y-33540072D01*
X86180139Y-33540072D01*
X84120072Y-35600139D01*
X84120072Y-35600140D01*
X84120070Y-35600142D01*
X84070065Y-35668967D01*
X84003634Y-35760401D01*
X83913703Y-35936898D01*
X83852487Y-36125299D01*
X83821500Y-36320948D01*
X83821500Y-42005573D01*
X83801815Y-42072612D01*
X83749011Y-42118367D01*
X83679853Y-42128311D01*
X83616297Y-42099286D01*
X83597182Y-42078458D01*
X83583679Y-42059873D01*
X83583677Y-42059873D01*
X82940000Y-42703551D01*
X82940000Y-42697339D01*
X82912741Y-42595606D01*
X82860080Y-42504394D01*
X82785606Y-42429920D01*
X82694394Y-42377259D01*
X82592661Y-42350000D01*
X82586447Y-42350000D01*
X83230125Y-41706320D01*
X83230125Y-41706319D01*
X83195145Y-41680905D01*
X83019835Y-41591581D01*
X82832705Y-41530778D01*
X82638382Y-41500000D01*
X82441618Y-41500000D01*
X82247294Y-41530778D01*
X82060161Y-41591582D01*
X81884863Y-41680899D01*
X81884859Y-41680902D01*
X81849873Y-41706320D01*
X81849872Y-41706320D01*
X82493554Y-42350000D01*
X82487339Y-42350000D01*
X82385606Y-42377259D01*
X82294394Y-42429920D01*
X82219920Y-42504394D01*
X82167259Y-42595606D01*
X82140000Y-42697339D01*
X82140000Y-42703552D01*
X81496320Y-42059872D01*
X81496319Y-42059873D01*
X81482820Y-42078455D01*
X81427491Y-42121122D01*
X81357878Y-42127103D01*
X81296082Y-42094499D01*
X81261723Y-42033661D01*
X81258500Y-42005572D01*
X81258500Y-41951362D01*
X81258499Y-41951345D01*
X81254375Y-41912994D01*
X81251989Y-41890799D01*
X81200889Y-41753796D01*
X81113261Y-41636739D01*
X80996204Y-41549111D01*
X80996205Y-41549111D01*
X80991958Y-41547527D01*
X80989162Y-41546484D01*
X80933231Y-41504612D01*
X80908816Y-41439147D01*
X80908500Y-41430304D01*
X80908500Y-38789263D01*
X80928185Y-38722224D01*
X80967401Y-38683725D01*
X81023652Y-38649030D01*
X81149030Y-38523652D01*
X81242115Y-38372738D01*
X81297887Y-38204426D01*
X81308500Y-38100545D01*
X81308499Y-36899456D01*
X81297887Y-36795574D01*
X81242115Y-36627262D01*
X81149030Y-36476348D01*
X81023652Y-36350970D01*
X80872738Y-36257885D01*
X80872736Y-36257884D01*
X80872733Y-36257883D01*
X80808207Y-36236502D01*
X80750761Y-36196730D01*
X80723938Y-36132214D01*
X80723592Y-36109066D01*
X80725921Y-36079473D01*
X80046447Y-35400000D01*
X80052661Y-35400000D01*
X80154394Y-35372741D01*
X80245606Y-35320080D01*
X80320080Y-35245606D01*
X80372741Y-35154394D01*
X80400000Y-35052661D01*
X80400000Y-35046447D01*
X81079474Y-35725921D01*
X81111859Y-35681349D01*
X81204755Y-35499031D01*
X81267990Y-35304417D01*
X81300000Y-35102317D01*
X81300000Y-34897682D01*
X81267990Y-34695582D01*
X81204755Y-34500968D01*
X81111859Y-34318650D01*
X81079474Y-34274077D01*
X81079474Y-34274076D01*
X80400000Y-34953551D01*
X80400000Y-34947339D01*
X80372741Y-34845606D01*
X80320080Y-34754394D01*
X80245606Y-34679920D01*
X80154394Y-34627259D01*
X80052661Y-34600000D01*
X80046446Y-34600000D01*
X80725922Y-33920524D01*
X80725921Y-33920523D01*
X80681359Y-33888147D01*
X80681350Y-33888141D01*
X80499031Y-33795244D01*
X80304417Y-33732009D01*
X80102317Y-33700000D01*
X79897683Y-33700000D01*
X79695582Y-33732009D01*
X79500968Y-33795244D01*
X79318644Y-33888143D01*
X79274077Y-33920523D01*
X79274077Y-33920524D01*
X79953554Y-34600000D01*
X79947339Y-34600000D01*
X79845606Y-34627259D01*
X79754394Y-34679920D01*
X79679920Y-34754394D01*
X79627259Y-34845606D01*
X79600000Y-34947339D01*
X79600000Y-34953553D01*
X78920524Y-34274077D01*
X78920523Y-34274077D01*
X78888143Y-34318644D01*
X78795244Y-34500968D01*
X78732009Y-34695582D01*
X78700000Y-34897682D01*
X78700000Y-35102317D01*
X78732009Y-35304417D01*
X78795244Y-35499031D01*
X78888141Y-35681350D01*
X78888147Y-35681359D01*
X78920523Y-35725921D01*
X78920524Y-35725922D01*
X79600000Y-35046446D01*
X79600000Y-35052661D01*
X79627259Y-35154394D01*
X79679920Y-35245606D01*
X79754394Y-35320080D01*
X79845606Y-35372741D01*
X79947339Y-35400000D01*
X79953553Y-35400000D01*
X79274076Y-36079474D01*
X79276405Y-36109069D01*
X79262040Y-36177446D01*
X79212988Y-36227202D01*
X79191792Y-36236502D01*
X79127262Y-36257885D01*
X79127259Y-36257886D01*
X78976346Y-36350971D01*
X78850971Y-36476346D01*
X78850970Y-36476348D01*
X78816273Y-36532599D01*
X78764328Y-36579321D01*
X78710737Y-36591500D01*
X74956994Y-36591500D01*
X74889955Y-36571815D01*
X74844200Y-36519011D01*
X74840817Y-36510846D01*
X74800889Y-36403796D01*
X74798761Y-36400954D01*
X74783599Y-36380699D01*
X74713261Y-36286739D01*
X74596204Y-36199111D01*
X74575801Y-36191501D01*
X74459203Y-36148011D01*
X74398654Y-36141500D01*
X74398638Y-36141500D01*
X72601362Y-36141500D01*
X72601345Y-36141500D01*
X72540797Y-36148011D01*
X72540795Y-36148011D01*
X72403795Y-36199111D01*
X72286739Y-36286739D01*
X72199111Y-36403795D01*
X72148011Y-36540795D01*
X72148011Y-36540797D01*
X72141500Y-36601345D01*
X72141500Y-38398654D01*
X72148011Y-38459202D01*
X72148011Y-38459204D01*
X72189367Y-38570080D01*
X72199111Y-38596204D01*
X72286739Y-38713261D01*
X72380699Y-38783599D01*
X72388265Y-38789263D01*
X72403796Y-38800889D01*
X72524626Y-38845956D01*
X72550948Y-38865662D01*
X72580550Y-38887817D01*
X72580552Y-38887823D01*
X72580557Y-38887827D01*
X72592389Y-38919550D01*
X72604973Y-38953279D01*
X72604971Y-38953284D01*
X72604974Y-38953291D01*
X72599075Y-38980407D01*
X72590128Y-39021554D01*
X72590122Y-39021561D01*
X72590122Y-39021564D01*
X72568979Y-39049810D01*
X72563617Y-39055173D01*
X72502297Y-39088664D01*
X72475928Y-39091500D01*
X67910516Y-39091500D01*
X67735007Y-39126411D01*
X67734999Y-39126413D01*
X67687040Y-39146279D01*
X67687039Y-39146279D01*
X67569663Y-39194897D01*
X67569661Y-39194898D01*
X67420865Y-39294321D01*
X67420861Y-39294324D01*
X66660006Y-40055181D01*
X66598683Y-40088666D01*
X66572325Y-40091500D01*
X59660516Y-40091500D01*
X59485006Y-40126411D01*
X59484993Y-40126415D01*
X59451842Y-40140146D01*
X59436574Y-40146471D01*
X59319668Y-40194894D01*
X59319666Y-40194895D01*
X59170865Y-40294321D01*
X59170861Y-40294324D01*
X58044324Y-41420861D01*
X58044321Y-41420865D01*
X57944900Y-41569657D01*
X57944893Y-41569670D01*
X57876413Y-41734998D01*
X57876410Y-41735007D01*
X57841500Y-41910516D01*
X57841500Y-57839483D01*
X57876410Y-58014992D01*
X57876413Y-58015001D01*
X57944893Y-58180329D01*
X57944900Y-58180342D01*
X58044321Y-58329134D01*
X58044324Y-58329138D01*
X59179322Y-59464135D01*
X59259263Y-59544076D01*
X59305866Y-59590679D01*
X59454657Y-59690098D01*
X59454661Y-59690100D01*
X59454664Y-59690102D01*
X59620000Y-59758587D01*
X59766399Y-59787707D01*
X59780959Y-59790603D01*
X59795519Y-59793500D01*
X59795520Y-59793500D01*
X59795521Y-59793500D01*
X61166640Y-59793500D01*
X61233679Y-59813185D01*
X61254321Y-59829819D01*
X61307571Y-59883069D01*
X61307576Y-59883073D01*
X61353511Y-59916446D01*
X61474197Y-60004129D01*
X61657710Y-60097634D01*
X61811448Y-60147586D01*
X61838994Y-60156537D01*
X61896670Y-60195975D01*
X61923868Y-60260333D01*
X61911953Y-60329180D01*
X61864709Y-60380655D01*
X61838995Y-60392399D01*
X61660968Y-60450244D01*
X61478644Y-60543143D01*
X61434077Y-60575523D01*
X61434077Y-60575524D01*
X62030591Y-61172037D01*
X61967007Y-61189075D01*
X61852993Y-61254901D01*
X61759901Y-61347993D01*
X61694075Y-61462007D01*
X61677037Y-61525590D01*
X61080524Y-60929077D01*
X61080523Y-60929077D01*
X61048143Y-60973644D01*
X60955244Y-61155968D01*
X60892009Y-61350582D01*
X60860000Y-61552682D01*
X60860000Y-61757317D01*
X60892009Y-61959417D01*
X60955244Y-62154031D01*
X61048141Y-62336350D01*
X61048147Y-62336359D01*
X61080523Y-62380921D01*
X61080524Y-62380922D01*
X61677037Y-61784408D01*
X61694075Y-61847993D01*
X61759901Y-61962007D01*
X61852993Y-62055099D01*
X61967007Y-62120925D01*
X62030590Y-62137962D01*
X61434076Y-62734474D01*
X61478650Y-62766859D01*
X61660968Y-62859755D01*
X61852747Y-62922069D01*
X61910422Y-62961507D01*
X61937620Y-63025866D01*
X61925705Y-63094712D01*
X61878461Y-63146188D01*
X61852747Y-63157931D01*
X61660968Y-63220244D01*
X61478644Y-63313143D01*
X61434077Y-63345523D01*
X61434077Y-63345524D01*
X62030591Y-63942037D01*
X61967007Y-63959075D01*
X61852993Y-64024901D01*
X61759901Y-64117993D01*
X61694075Y-64232007D01*
X61677037Y-64295590D01*
X61080524Y-63699077D01*
X61080523Y-63699077D01*
X61048143Y-63743644D01*
X60955244Y-63925968D01*
X60892009Y-64120582D01*
X60860000Y-64322682D01*
X60860000Y-64527317D01*
X60892009Y-64729417D01*
X60955244Y-64924031D01*
X61048141Y-65106350D01*
X61048147Y-65106359D01*
X61080523Y-65150921D01*
X61080524Y-65150922D01*
X61677037Y-64554408D01*
X61694075Y-64617993D01*
X61759901Y-64732007D01*
X61852993Y-64825099D01*
X61967007Y-64890925D01*
X62030590Y-64907962D01*
X61434076Y-65504474D01*
X61478650Y-65536859D01*
X61660968Y-65629755D01*
X61852747Y-65692069D01*
X61910422Y-65731507D01*
X61937620Y-65795866D01*
X61925705Y-65864712D01*
X61878461Y-65916188D01*
X61852747Y-65927931D01*
X61660968Y-65990244D01*
X61478644Y-66083143D01*
X61434077Y-66115523D01*
X61434077Y-66115524D01*
X62030591Y-66712037D01*
X61967007Y-66729075D01*
X61852993Y-66794901D01*
X61759901Y-66887993D01*
X61694075Y-67002007D01*
X61677037Y-67065590D01*
X61080524Y-66469077D01*
X61080523Y-66469077D01*
X61048143Y-66513644D01*
X60955244Y-66695968D01*
X60892009Y-66890582D01*
X60860000Y-67092682D01*
X60860000Y-67297317D01*
X60892009Y-67499417D01*
X60955244Y-67694031D01*
X61048141Y-67876350D01*
X61048147Y-67876359D01*
X61080523Y-67920921D01*
X61080524Y-67920922D01*
X61677037Y-67324408D01*
X61694075Y-67387993D01*
X61759901Y-67502007D01*
X61852993Y-67595099D01*
X61967007Y-67660925D01*
X62030590Y-67677962D01*
X61434076Y-68274474D01*
X61478650Y-68306859D01*
X61660968Y-68399755D01*
X61852747Y-68462069D01*
X61910422Y-68501507D01*
X61937620Y-68565866D01*
X61925705Y-68634712D01*
X61878461Y-68686188D01*
X61852747Y-68697931D01*
X61660968Y-68760244D01*
X61478644Y-68853143D01*
X61434077Y-68885523D01*
X61434077Y-68885524D01*
X62030591Y-69482037D01*
X61967007Y-69499075D01*
X61852993Y-69564901D01*
X61759901Y-69657993D01*
X61694075Y-69772007D01*
X61677037Y-69835590D01*
X61080524Y-69239077D01*
X61080523Y-69239077D01*
X61048143Y-69283644D01*
X60955244Y-69465968D01*
X60892009Y-69660582D01*
X60860000Y-69862682D01*
X60860000Y-70067317D01*
X60892009Y-70269417D01*
X60955244Y-70464031D01*
X61048141Y-70646350D01*
X61048147Y-70646359D01*
X61080523Y-70690921D01*
X61080524Y-70690922D01*
X61677037Y-70094409D01*
X61694075Y-70157993D01*
X61759901Y-70272007D01*
X61852993Y-70365099D01*
X61967007Y-70430925D01*
X62030590Y-70447962D01*
X61434076Y-71044474D01*
X61478650Y-71076859D01*
X61660968Y-71169755D01*
X61852747Y-71232069D01*
X61910422Y-71271507D01*
X61937620Y-71335866D01*
X61925705Y-71404712D01*
X61878461Y-71456188D01*
X61852747Y-71467931D01*
X61660968Y-71530244D01*
X61478644Y-71623143D01*
X61434077Y-71655523D01*
X61434077Y-71655524D01*
X62030591Y-72252037D01*
X61967007Y-72269075D01*
X61852993Y-72334901D01*
X61759901Y-72427993D01*
X61694075Y-72542007D01*
X61677037Y-72605590D01*
X61080524Y-72009077D01*
X61080523Y-72009077D01*
X61048143Y-72053644D01*
X60955244Y-72235968D01*
X60892009Y-72430582D01*
X60860000Y-72632682D01*
X60860000Y-72837317D01*
X60892009Y-73039417D01*
X60955244Y-73234031D01*
X61048141Y-73416350D01*
X61048147Y-73416359D01*
X61080523Y-73460921D01*
X61080524Y-73460922D01*
X61677037Y-72864409D01*
X61694075Y-72927993D01*
X61759901Y-73042007D01*
X61852993Y-73135099D01*
X61967007Y-73200925D01*
X62030590Y-73217962D01*
X61434076Y-73814474D01*
X61478650Y-73846859D01*
X61660968Y-73939755D01*
X61852747Y-74002069D01*
X61910422Y-74041507D01*
X61937620Y-74105866D01*
X61925705Y-74174712D01*
X61878461Y-74226188D01*
X61852747Y-74237931D01*
X61660968Y-74300244D01*
X61478644Y-74393143D01*
X61434077Y-74425523D01*
X61434077Y-74425524D01*
X62030591Y-75022037D01*
X61967007Y-75039075D01*
X61852993Y-75104901D01*
X61759901Y-75197993D01*
X61694075Y-75312007D01*
X61677037Y-75375590D01*
X61080524Y-74779077D01*
X61080523Y-74779077D01*
X61048143Y-74823644D01*
X60955244Y-75005968D01*
X60892009Y-75200582D01*
X60860000Y-75402682D01*
X60860000Y-75607317D01*
X60892009Y-75809417D01*
X60955244Y-76004031D01*
X61048141Y-76186350D01*
X61048147Y-76186359D01*
X61080523Y-76230921D01*
X61080524Y-76230922D01*
X61677037Y-75634409D01*
X61694075Y-75697993D01*
X61759901Y-75812007D01*
X61852993Y-75905099D01*
X61967007Y-75970925D01*
X62030590Y-75987962D01*
X61434076Y-76584474D01*
X61478650Y-76616859D01*
X61660968Y-76709755D01*
X61852747Y-76772069D01*
X61910422Y-76811507D01*
X61937620Y-76875866D01*
X61925705Y-76944712D01*
X61878461Y-76996188D01*
X61852747Y-77007931D01*
X61660968Y-77070244D01*
X61478644Y-77163143D01*
X61434077Y-77195523D01*
X61434077Y-77195524D01*
X62030591Y-77792037D01*
X61967007Y-77809075D01*
X61852993Y-77874901D01*
X61759901Y-77967993D01*
X61694075Y-78082007D01*
X61677037Y-78145590D01*
X61080524Y-77549077D01*
X61080523Y-77549077D01*
X61048143Y-77593644D01*
X60955244Y-77775968D01*
X60892009Y-77970582D01*
X60860000Y-78172682D01*
X60860000Y-78377317D01*
X60892009Y-78579417D01*
X60955244Y-78774031D01*
X61048141Y-78956350D01*
X61048147Y-78956359D01*
X61080523Y-79000921D01*
X61080524Y-79000922D01*
X61677037Y-78404409D01*
X61694075Y-78467993D01*
X61759901Y-78582007D01*
X61852993Y-78675099D01*
X61967007Y-78740925D01*
X62030590Y-78757962D01*
X61434076Y-79354474D01*
X61478650Y-79386859D01*
X61660968Y-79479755D01*
X61852747Y-79542069D01*
X61910422Y-79581507D01*
X61937620Y-79645866D01*
X61925705Y-79714712D01*
X61878461Y-79766188D01*
X61852747Y-79777931D01*
X61660968Y-79840244D01*
X61478644Y-79933143D01*
X61434077Y-79965523D01*
X61434077Y-79965524D01*
X62030591Y-80562037D01*
X61967007Y-80579075D01*
X61852993Y-80644901D01*
X61759901Y-80737993D01*
X61694075Y-80852007D01*
X61677037Y-80915590D01*
X61080524Y-80319077D01*
X61080523Y-80319077D01*
X61048143Y-80363644D01*
X60955244Y-80545968D01*
X60892009Y-80740582D01*
X60860000Y-80942682D01*
X60860000Y-81147317D01*
X60892009Y-81349417D01*
X60955244Y-81544031D01*
X61048141Y-81726350D01*
X61048147Y-81726359D01*
X61080523Y-81770921D01*
X61080524Y-81770922D01*
X61677037Y-81174409D01*
X61694075Y-81237993D01*
X61759901Y-81352007D01*
X61852993Y-81445099D01*
X61967007Y-81510925D01*
X62030590Y-81527962D01*
X61434076Y-82124474D01*
X61478650Y-82156859D01*
X61660968Y-82249754D01*
X61838995Y-82307600D01*
X61896670Y-82347038D01*
X61923868Y-82411397D01*
X61911953Y-82480243D01*
X61864709Y-82531719D01*
X61838995Y-82543462D01*
X61657705Y-82602367D01*
X61474193Y-82695873D01*
X61307576Y-82816926D01*
X61307571Y-82816930D01*
X61254321Y-82870181D01*
X61192998Y-82903666D01*
X61166640Y-82906500D01*
X60095520Y-82906500D01*
X60066397Y-82912292D01*
X60066396Y-82912291D01*
X59920005Y-82941411D01*
X59919999Y-82941413D01*
X59754665Y-83009897D01*
X59754661Y-83009899D01*
X59651044Y-83079133D01*
X59651045Y-83079134D01*
X59605861Y-83109324D01*
X57894324Y-84820861D01*
X57894321Y-84820865D01*
X57794895Y-84969666D01*
X57731177Y-85123495D01*
X57731178Y-85123496D01*
X57726411Y-85135004D01*
X57691500Y-85310516D01*
X53024306Y-85310516D01*
X53024317Y-85304206D01*
X53032185Y-80937593D01*
X53035123Y-79306992D01*
X53037176Y-78167593D01*
X53040114Y-76536992D01*
X53042167Y-75397593D01*
X53045105Y-73766992D01*
X53047158Y-72627593D01*
X53050096Y-70996992D01*
X53052149Y-69857593D01*
X53055087Y-68226992D01*
X53057140Y-67087593D01*
X53060078Y-65456992D01*
X53062131Y-64317593D01*
X53065069Y-62686992D01*
X53067122Y-61547593D01*
X53099777Y-43423777D01*
X53119583Y-43356773D01*
X53172469Y-43311113D01*
X53223777Y-43300000D01*
X56500000Y-43300000D01*
X56500000Y-43134718D01*
X56500500Y-43129643D01*
X56500500Y-36615186D01*
X62599500Y-36615186D01*
X62599500Y-36884813D01*
X62629686Y-37152719D01*
X62629688Y-37152731D01*
X62689684Y-37415594D01*
X62689687Y-37415602D01*
X62778734Y-37670082D01*
X62895714Y-37912994D01*
X62895716Y-37912997D01*
X63039162Y-38141289D01*
X63089512Y-38204426D01*
X63205204Y-38349500D01*
X63207266Y-38352085D01*
X63397915Y-38542734D01*
X63608711Y-38710838D01*
X63837003Y-38854284D01*
X64079921Y-38971267D01*
X64223662Y-39021564D01*
X64334397Y-39060312D01*
X64334405Y-39060315D01*
X64334408Y-39060315D01*
X64334409Y-39060316D01*
X64597268Y-39120312D01*
X64865187Y-39150499D01*
X64865188Y-39150500D01*
X64865191Y-39150500D01*
X65134812Y-39150500D01*
X65134812Y-39150499D01*
X65402732Y-39120312D01*
X65665591Y-39060316D01*
X65920079Y-38971267D01*
X66162997Y-38854284D01*
X66391289Y-38710838D01*
X66602085Y-38542734D01*
X66792734Y-38352085D01*
X66960838Y-38141289D01*
X67104284Y-37912997D01*
X67221267Y-37670079D01*
X67310316Y-37415591D01*
X67370312Y-37152732D01*
X67400500Y-36884809D01*
X67400500Y-36615191D01*
X67370312Y-36347268D01*
X67310316Y-36084409D01*
X67221267Y-35829921D01*
X67104284Y-35587003D01*
X66960838Y-35358711D01*
X66792734Y-35147915D01*
X66602085Y-34957266D01*
X66391289Y-34789162D01*
X66162997Y-34645716D01*
X66162994Y-34645714D01*
X65920082Y-34528734D01*
X65665602Y-34439687D01*
X65665594Y-34439684D01*
X65468446Y-34394687D01*
X65402732Y-34379688D01*
X65402728Y-34379687D01*
X65402719Y-34379686D01*
X65134813Y-34349500D01*
X65134809Y-34349500D01*
X64865191Y-34349500D01*
X64865186Y-34349500D01*
X64597280Y-34379686D01*
X64597268Y-34379688D01*
X64334405Y-34439684D01*
X64334397Y-34439687D01*
X64079917Y-34528734D01*
X63837005Y-34645714D01*
X63608712Y-34789161D01*
X63397915Y-34957265D01*
X63207265Y-35147915D01*
X63039161Y-35358712D01*
X62895714Y-35587005D01*
X62778734Y-35829917D01*
X62689687Y-36084397D01*
X62689684Y-36084405D01*
X62629688Y-36347268D01*
X62629686Y-36347280D01*
X62599500Y-36615186D01*
X56500500Y-36615186D01*
X56500500Y-30324500D01*
X56520185Y-30257461D01*
X56572989Y-30211706D01*
X56624500Y-30200500D01*
X119275500Y-30200500D01*
X119342539Y-30220185D01*
G37*
%TD.AperFunction*%
%TD*%
M02*
