%TF.GenerationSoftware,KiCad,Pcbnew,8.0.0*%
%TF.CreationDate,2024-10-06T21:21:36+02:00*%
%TF.ProjectId,Rayonnement_L476RG,5261796f-6e6e-4656-9d65-6e745f4c3437,rev?*%
%TF.SameCoordinates,Original*%
%TF.FileFunction,Copper,L1,Top*%
%TF.FilePolarity,Positive*%
%FSLAX46Y46*%
G04 Gerber Fmt 4.6, Leading zero omitted, Abs format (unit mm)*
G04 Created by KiCad (PCBNEW 8.0.0) date 2024-10-06 21:21:36*
%MOMM*%
%LPD*%
G01*
G04 APERTURE LIST*
G04 Aperture macros list*
%AMRoundRect*
0 Rectangle with rounded corners*
0 $1 Rounding radius*
0 $2 $3 $4 $5 $6 $7 $8 $9 X,Y pos of 4 corners*
0 Add a 4 corners polygon primitive as box body*
4,1,4,$2,$3,$4,$5,$6,$7,$8,$9,$2,$3,0*
0 Add four circle primitives for the rounded corners*
1,1,$1+$1,$2,$3*
1,1,$1+$1,$4,$5*
1,1,$1+$1,$6,$7*
1,1,$1+$1,$8,$9*
0 Add four rect primitives between the rounded corners*
20,1,$1+$1,$2,$3,$4,$5,0*
20,1,$1+$1,$4,$5,$6,$7,0*
20,1,$1+$1,$6,$7,$8,$9,0*
20,1,$1+$1,$8,$9,$2,$3,0*%
G04 Aperture macros list end*
%TA.AperFunction,ComponentPad*%
%ADD10R,1.700000X1.700000*%
%TD*%
%TA.AperFunction,ComponentPad*%
%ADD11O,1.700000X1.700000*%
%TD*%
%TA.AperFunction,ComponentPad*%
%ADD12R,2.600000X2.600000*%
%TD*%
%TA.AperFunction,ComponentPad*%
%ADD13C,2.600000*%
%TD*%
%TA.AperFunction,ComponentPad*%
%ADD14R,1.800000X1.800000*%
%TD*%
%TA.AperFunction,ComponentPad*%
%ADD15C,1.800000*%
%TD*%
%TA.AperFunction,ComponentPad*%
%ADD16C,1.524000*%
%TD*%
%TA.AperFunction,ComponentPad*%
%ADD17C,1.440000*%
%TD*%
%TA.AperFunction,ComponentPad*%
%ADD18R,2.400000X1.600000*%
%TD*%
%TA.AperFunction,ComponentPad*%
%ADD19O,2.400000X1.600000*%
%TD*%
%TA.AperFunction,ComponentPad*%
%ADD20C,1.600000*%
%TD*%
%TA.AperFunction,ComponentPad*%
%ADD21O,1.600000X1.600000*%
%TD*%
%TA.AperFunction,ComponentPad*%
%ADD22R,1.600000X1.600000*%
%TD*%
%TA.AperFunction,SMDPad,CuDef*%
%ADD23RoundRect,0.150000X0.150000X-0.650000X0.150000X0.650000X-0.150000X0.650000X-0.150000X-0.650000X0*%
%TD*%
%TA.AperFunction,ComponentPad*%
%ADD24R,1.905000X2.000000*%
%TD*%
%TA.AperFunction,ComponentPad*%
%ADD25O,1.905000X2.000000*%
%TD*%
%TA.AperFunction,ViaPad*%
%ADD26C,1.500000*%
%TD*%
%TA.AperFunction,Conductor*%
%ADD27C,0.500000*%
%TD*%
%TA.AperFunction,Conductor*%
%ADD28C,1.000000*%
%TD*%
G04 APERTURE END LIST*
D10*
%TO.P,J4,1,Pin_1*%
%TO.N,unconnected-(J4-Pin_1-Pad1)*%
X208500000Y-143440000D03*
D11*
%TO.P,J4,2,Pin_2*%
%TO.N,unconnected-(J4-Pin_2-Pad2)*%
X205960000Y-143440000D03*
%TO.P,J4,3,Pin_3*%
%TO.N,unconnected-(J4-Pin_3-Pad3)*%
X208500000Y-140900000D03*
%TO.P,J4,4,Pin_4*%
%TO.N,unconnected-(J4-Pin_4-Pad4)*%
X205960000Y-140900000D03*
%TO.P,J4,5,Pin_5*%
%TO.N,unconnected-(J4-Pin_5-Pad5)*%
X208500000Y-138360000D03*
%TO.P,J4,6,Pin_6*%
%TO.N,unconnected-(J4-Pin_6-Pad6)*%
X205960000Y-138360000D03*
%TO.P,J4,7,Pin_7*%
%TO.N,unconnected-(J4-Pin_7-Pad7)*%
X208500000Y-135820000D03*
%TO.P,J4,8,Pin_8*%
%TO.N,unconnected-(J4-Pin_8-Pad8)*%
X205960000Y-135820000D03*
%TO.P,J4,9,Pin_9*%
%TO.N,unconnected-(J4-Pin_9-Pad9)*%
X208500000Y-133280000D03*
%TO.P,J4,10,Pin_10*%
%TO.N,unconnected-(J4-Pin_10-Pad10)*%
X205960000Y-133280000D03*
%TO.P,J4,11,Pin_11*%
%TO.N,unconnected-(J4-Pin_11-Pad11)*%
X208500000Y-130740000D03*
%TO.P,J4,12,Pin_12*%
%TO.N,unconnected-(J4-Pin_12-Pad12)*%
X205960000Y-130740000D03*
%TO.P,J4,13,Pin_13*%
%TO.N,unconnected-(J4-Pin_13-Pad13)*%
X208500000Y-128200000D03*
%TO.P,J4,14,Pin_14*%
%TO.N,unconnected-(J4-Pin_14-Pad14)*%
X205960000Y-128200000D03*
%TO.P,J4,15,Pin_15*%
%TO.N,unconnected-(J4-Pin_15-Pad15)*%
X208500000Y-125660000D03*
%TO.P,J4,16,Pin_16*%
%TO.N,unconnected-(J4-Pin_16-Pad16)*%
X205960000Y-125660000D03*
%TO.P,J4,17,Pin_17*%
%TO.N,unconnected-(J4-Pin_17-Pad17)*%
X208500000Y-123120000D03*
%TO.P,J4,18,Pin_18*%
%TO.N,3.3V_NUC*%
X205960000Y-123120000D03*
%TO.P,J4,19,Pin_19*%
%TO.N,unconnected-(J4-Pin_19-Pad19)*%
X208500000Y-120580000D03*
%TO.P,J4,20,Pin_20*%
%TO.N,5V_NUC*%
X205960000Y-120580000D03*
%TO.P,J4,21,Pin_21*%
%TO.N,GND*%
X208500000Y-118040000D03*
%TO.P,J4,22,Pin_22*%
X205960000Y-118040000D03*
%TO.P,J4,23,Pin_23*%
%TO.N,Servo*%
X208500000Y-115500000D03*
%TO.P,J4,24,Pin_24*%
%TO.N,GND*%
X205960000Y-115500000D03*
%TO.P,J4,25,Pin_25*%
%TO.N,USER_BUTTON*%
X208500000Y-112960000D03*
%TO.P,J4,26,Pin_26*%
%TO.N,VIN*%
X205960000Y-112960000D03*
%TO.P,J4,27,Pin_27*%
%TO.N,unconnected-(J4-Pin_27-Pad27)*%
X208500000Y-110420000D03*
%TO.P,J4,28,Pin_28*%
%TO.N,unconnected-(J4-Pin_28-Pad28)*%
X205960000Y-110420000D03*
%TO.P,J4,29,Pin_29*%
%TO.N,unconnected-(J4-Pin_29-Pad29)*%
X208500000Y-107880000D03*
%TO.P,J4,30,Pin_30*%
%TO.N,unconnected-(J4-Pin_30-Pad30)*%
X205960000Y-107880000D03*
%TO.P,J4,31,Pin_31*%
%TO.N,unconnected-(J4-Pin_31-Pad31)*%
X208500000Y-105340000D03*
%TO.P,J4,32,Pin_32*%
%TO.N,unconnected-(J4-Pin_32-Pad32)*%
X205960000Y-105340000D03*
%TO.P,J4,33,Pin_33*%
%TO.N,unconnected-(J4-Pin_33-Pad33)*%
X208500000Y-102800000D03*
%TO.P,J4,34,Pin_34*%
%TO.N,unconnected-(J4-Pin_34-Pad34)*%
X205960000Y-102800000D03*
%TO.P,J4,35,Pin_35*%
%TO.N,unconnected-(J4-Pin_35-Pad35)*%
X208500000Y-100260000D03*
%TO.P,J4,36,Pin_36*%
%TO.N,POT_NUM_OUT*%
X205960000Y-100260000D03*
%TO.P,J4,37,Pin_37*%
%TO.N,unconnected-(J4-Pin_37-Pad37)*%
X208500000Y-97720000D03*
%TO.P,J4,38,Pin_38*%
%TO.N,RT_OUT*%
X205960000Y-97720000D03*
%TO.P,J4,39,Pin_39*%
%TO.N,PHD_OUT*%
X208500000Y-95180000D03*
%TO.P,J4,40,Pin_40*%
%TO.N,unconnected-(J4-Pin_40-Pad40)*%
X205960000Y-95180000D03*
%TD*%
D10*
%TO.P,J7,1,Pin_1*%
%TO.N,unconnected-(J7-Pin_1-Pad1)*%
X147460001Y-143440000D03*
D11*
%TO.P,J7,2,Pin_2*%
%TO.N,unconnected-(J7-Pin_2-Pad2)*%
X144920001Y-143440000D03*
%TO.P,J7,3,Pin_3*%
%TO.N,unconnected-(J7-Pin_3-Pad3)*%
X147460001Y-140900000D03*
%TO.P,J7,4,Pin_4*%
%TO.N,SW2_OUT*%
X144920001Y-140900000D03*
%TO.P,J7,5,Pin_5*%
%TO.N,unconnected-(J7-Pin_5-Pad5)*%
X147460001Y-138360000D03*
%TO.P,J7,6,Pin_6*%
%TO.N,SW1_OUT*%
X144920001Y-138360000D03*
%TO.P,J7,7,Pin_7*%
%TO.N,CS_2*%
X147460001Y-135820000D03*
%TO.P,J7,8,Pin_8*%
%TO.N,unconnected-(J7-Pin_8-Pad8)*%
X144920001Y-135820000D03*
%TO.P,J7,9,Pin_9*%
%TO.N,unconnected-(J7-Pin_9-Pad9)*%
X147460001Y-133280000D03*
%TO.P,J7,10,Pin_10*%
%TO.N,unconnected-(J7-Pin_10-Pad10)*%
X144920001Y-133280000D03*
%TO.P,J7,11,Pin_11*%
%TO.N,unconnected-(J7-Pin_11-Pad11)*%
X147460001Y-130740000D03*
%TO.P,J7,12,Pin_12*%
%TO.N,unconnected-(J7-Pin_12-Pad12)*%
X144920001Y-130740000D03*
%TO.P,J7,13,Pin_13*%
%TO.N,SCK*%
X147460001Y-128200000D03*
%TO.P,J7,14,Pin_14*%
%TO.N,unconnected-(J7-Pin_14-Pad14)*%
X144920001Y-128200000D03*
%TO.P,J7,15,Pin_15*%
%TO.N,MISO*%
X147460001Y-125660000D03*
%TO.P,J7,16,Pin_16*%
%TO.N,unconnected-(J7-Pin_16-Pad16)*%
X144920001Y-125660000D03*
%TO.P,J7,17,Pin_17*%
%TO.N,MOSI*%
X147460001Y-123120000D03*
%TO.P,J7,18,Pin_18*%
%TO.N,unconnected-(J7-Pin_18-Pad18)*%
X144920001Y-123120000D03*
%TO.P,J7,19,Pin_19*%
%TO.N,unconnected-(J7-Pin_19-Pad19)*%
X147460001Y-120580000D03*
%TO.P,J7,20,Pin_20*%
%TO.N,unconnected-(J7-Pin_20-Pad20)*%
X144920001Y-120580000D03*
%TO.P,J7,21,Pin_21*%
%TO.N,LED_OUT*%
X147460001Y-118040000D03*
%TO.P,J7,22,Pin_22*%
%TO.N,GND*%
X144920001Y-118040000D03*
%TO.P,J7,23,Pin_23*%
%TO.N,unconnected-(J7-Pin_23-Pad23)*%
X147460001Y-115500000D03*
%TO.P,J7,24,Pin_24*%
%TO.N,Net-(J7-Pin_24)*%
X144920001Y-115500000D03*
%TO.P,J7,25,Pin_25*%
%TO.N,unconnected-(J7-Pin_25-Pad25)*%
X147460001Y-112960000D03*
%TO.P,J7,26,Pin_26*%
%TO.N,Net-(J7-Pin_26)*%
X144920001Y-112960000D03*
%TO.P,J7,27,Pin_27*%
%TO.N,unconnected-(J7-Pin_27-Pad27)*%
X147460001Y-110420000D03*
%TO.P,J7,28,Pin_28*%
%TO.N,Net-(J7-Pin_28)*%
X144920001Y-110420000D03*
%TO.P,J7,29,Pin_29*%
%TO.N,unconnected-(J7-Pin_29-Pad29)*%
X147460001Y-107880000D03*
%TO.P,J7,30,Pin_30*%
%TO.N,Net-(J7-Pin_30)*%
X144920001Y-107880000D03*
%TO.P,J7,31,Pin_31*%
%TO.N,CS_1*%
X147460001Y-105340000D03*
%TO.P,J7,32,Pin_32*%
%TO.N,LED_OUT2*%
X144920001Y-105340000D03*
%TO.P,J7,33,Pin_33*%
%TO.N,unconnected-(J7-Pin_33-Pad33)*%
X147460001Y-102800000D03*
%TO.P,J7,34,Pin_34*%
%TO.N,unconnected-(J7-Pin_34-Pad34)*%
X144920001Y-102800000D03*
%TO.P,J7,35,Pin_35*%
%TO.N,unconnected-(J7-Pin_35-Pad35)*%
X147460001Y-100260000D03*
%TO.P,J7,36,Pin_36*%
%TO.N,POT_OUT*%
X144920001Y-100260000D03*
%TO.P,J7,37,Pin_37*%
%TO.N,unconnected-(J7-Pin_37-Pad37)*%
X147460001Y-97720000D03*
%TO.P,J7,38,Pin_38*%
%TO.N,unconnected-(J7-Pin_38-Pad38)*%
X144920001Y-97720000D03*
%TO.P,J7,39,Pin_39*%
%TO.N,unconnected-(J7-Pin_39-Pad39)*%
X147460001Y-95180000D03*
%TO.P,J7,40,Pin_40*%
%TO.N,unconnected-(J7-Pin_40-Pad40)*%
X144920001Y-95180000D03*
%TD*%
D12*
%TO.P,J3,1,Pin_1*%
%TO.N,GND*%
X191880000Y-67335000D03*
D13*
%TO.P,J3,2,Pin_2*%
%TO.N,VIN*%
X186800000Y-67335000D03*
%TD*%
D12*
%TO.P,J5,1,Pin_1*%
%TO.N,LED_POW_IN*%
X152585000Y-67350000D03*
D13*
%TO.P,J5,2,Pin_2*%
%TO.N,Net-(J5-Pin_2)*%
X147505000Y-67350000D03*
%TD*%
D10*
%TO.P,J11,1,Pin_1*%
%TO.N,3.3V_NUC*%
X132500000Y-66370000D03*
D11*
%TO.P,J11,2,Pin_2*%
X132500000Y-68910000D03*
%TO.P,J11,3,Pin_3*%
X132500000Y-71450000D03*
%TD*%
D14*
%TO.P,D2,1,K*%
%TO.N,GND*%
X131550000Y-112790000D03*
D15*
%TO.P,D2,2,A*%
%TO.N,Net-(D2-A)*%
X131550000Y-115330000D03*
%TD*%
D16*
%TO.P,SW1,1,1*%
%TO.N,3.3V_NUC*%
X133400000Y-129950000D03*
%TO.P,SW1,2,2*%
%TO.N,SW1_OUT*%
X133400000Y-134950000D03*
%TD*%
D10*
%TO.P,J2,1,Pin_1*%
%TO.N,GND*%
X202720000Y-71800000D03*
D11*
%TO.P,J2,2,Pin_2*%
%TO.N,5V*%
X205260000Y-71800000D03*
%TO.P,J2,3,Pin_3*%
%TO.N,Servo*%
X207800000Y-71800000D03*
%TD*%
D17*
%TO.P,RV2,1,1*%
%TO.N,Net-(R4-Pad1)*%
X193200000Y-85480000D03*
%TO.P,RV2,2,2*%
X195740000Y-82940000D03*
%TO.P,RV2,3,3*%
%TO.N,GND*%
X193200000Y-80400000D03*
%TD*%
D18*
%TO.P,U4,1,CS*%
%TO.N,CS_2*%
X176000000Y-87350000D03*
D19*
%TO.P,U4,2,SCK*%
%TO.N,SCK*%
X176000000Y-84810000D03*
%TO.P,U4,3,SDI/MOSI*%
%TO.N,MOSI*%
X176000000Y-82270000D03*
%TO.P,U4,4,VSS*%
%TO.N,GND*%
X176000000Y-79730000D03*
%TO.P,U4,5,POW*%
%TO.N,POT_NUM_OUT*%
X168380000Y-79730000D03*
%TO.P,U4,6,POB*%
%TO.N,3.3V_NUC*%
X168380000Y-82270000D03*
%TO.P,U4,7,SDO/MISO*%
%TO.N,MISO*%
X168380000Y-84810000D03*
%TO.P,U4,8,VDD*%
%TO.N,5V_NUC*%
X168380000Y-87350000D03*
%TD*%
D20*
%TO.P,R2,1*%
%TO.N,SW2_OUT*%
X131040000Y-122800000D03*
D21*
%TO.P,R2,2*%
%TO.N,GND*%
X141200000Y-122800000D03*
%TD*%
D12*
%TO.P,J1,1,Pin_1*%
%TO.N,GND*%
X166445000Y-67400000D03*
D13*
%TO.P,J1,2,Pin_2*%
%TO.N,LED_POW_IN*%
X161365000Y-67400000D03*
%TD*%
D10*
%TO.P,J6,1,Pin_1*%
%TO.N,3.3V_NUC*%
X205260000Y-79200000D03*
D11*
%TO.P,J6,2,Pin_2*%
%TO.N,PHD_OUT*%
X207800000Y-79200000D03*
%TD*%
D14*
%TO.P,D1,1,K*%
%TO.N,Net-(D1-K)*%
X131650000Y-98690000D03*
D15*
%TO.P,D1,2,A*%
%TO.N,3.3V_NUC*%
X131650000Y-101230000D03*
%TD*%
D20*
%TO.P,C2,1*%
%TO.N,3.3V_NUC*%
X139700000Y-143800000D03*
%TO.P,C2,2*%
%TO.N,SW2_OUT*%
X139700000Y-138800000D03*
%TD*%
D10*
%TO.P,J8,1,Pin_1*%
%TO.N,GND*%
X140750000Y-117950000D03*
D11*
%TO.P,J8,2,Pin_2*%
%TO.N,Net-(J7-Pin_24)*%
X140750000Y-115410000D03*
%TO.P,J8,3,Pin_3*%
%TO.N,Net-(J7-Pin_26)*%
X140750000Y-112870000D03*
%TO.P,J8,4,Pin_4*%
%TO.N,Net-(J7-Pin_28)*%
X140750000Y-110330000D03*
%TO.P,J8,5,Pin_5*%
%TO.N,Net-(J7-Pin_30)*%
X140750000Y-107790000D03*
%TO.P,J8,6,Pin_6*%
%TO.N,LED_OUT2*%
X140750000Y-105250000D03*
%TD*%
D22*
%TO.P,C3,1*%
%TO.N,VIN*%
X177285000Y-67350000D03*
D20*
%TO.P,C3,2*%
%TO.N,GND*%
X177285000Y-69850000D03*
%TD*%
D10*
%TO.P,J9,1,Pin_1*%
%TO.N,RT_OUT*%
X205260000Y-85600000D03*
D11*
%TO.P,J9,2,Pin_2*%
%TO.N,GND*%
X207800000Y-85600000D03*
%TD*%
D20*
%TO.P,R4,1*%
%TO.N,Net-(R4-Pad1)*%
X194640000Y-90600000D03*
D21*
%TO.P,R4,2*%
%TO.N,PHD_OUT*%
X204800000Y-90600000D03*
%TD*%
D20*
%TO.P,C1,1*%
%TO.N,3.3V_NUC*%
X139750000Y-129950000D03*
%TO.P,C1,2*%
%TO.N,SW1_OUT*%
X139750000Y-134950000D03*
%TD*%
D16*
%TO.P,SW2,1,1*%
%TO.N,3.3V_NUC*%
X133450000Y-143800000D03*
%TO.P,SW2,2,2*%
%TO.N,SW2_OUT*%
X133450000Y-138800000D03*
%TD*%
D20*
%TO.P,R3,1*%
%TO.N,Net-(D1-K)*%
X130720000Y-94480000D03*
D21*
%TO.P,R3,2*%
%TO.N,LED_OUT*%
X140880000Y-94480000D03*
%TD*%
D20*
%TO.P,R1,1*%
%TO.N,SW1_OUT*%
X131040000Y-126200000D03*
D21*
%TO.P,R1,2*%
%TO.N,GND*%
X141200000Y-126200000D03*
%TD*%
D20*
%TO.P,R6,1*%
%TO.N,Net-(D2-A)*%
X136320000Y-115380000D03*
D21*
%TO.P,R6,2*%
%TO.N,LED_OUT2*%
X136320000Y-105220000D03*
%TD*%
D10*
%TO.P,J10,1,Pin_1*%
%TO.N,GND*%
X137450000Y-66370000D03*
D11*
%TO.P,J10,2,Pin_2*%
X137450000Y-68910000D03*
%TO.P,J10,3,Pin_3*%
X137450000Y-71450000D03*
%TD*%
D23*
%TO.P,U2,1,NC*%
%TO.N,unconnected-(U2-NC-Pad1)*%
X144335000Y-82450000D03*
%TO.P,U2,2,GND*%
%TO.N,GND*%
X145285000Y-82450000D03*
%TO.P,U2,3,REXT*%
%TO.N,Net-(U1-POB)*%
X146235000Y-82450000D03*
%TO.P,U2,4,VS*%
%TO.N,LED_POW_IN*%
X146235000Y-80150000D03*
%TO.P,U2,5,NC*%
%TO.N,unconnected-(U2-NC-Pad5)*%
X145285000Y-80150000D03*
%TO.P,U2,6,OUT*%
%TO.N,Net-(J5-Pin_2)*%
X144335000Y-80150000D03*
%TD*%
D20*
%TO.P,R5,1*%
%TO.N,RT_OUT*%
X201360000Y-95200000D03*
D21*
%TO.P,R5,2*%
%TO.N,3.3V_NUC*%
X191200000Y-95200000D03*
%TD*%
D20*
%TO.P,R7,1*%
%TO.N,POT_NUM_OUT*%
X194200000Y-99200000D03*
D21*
%TO.P,R7,2*%
%TO.N,GND*%
X194200000Y-109360000D03*
%TD*%
D24*
%TO.P,U3,1,VI*%
%TO.N,VIN*%
X207940000Y-64455000D03*
D25*
%TO.P,U3,2,GND*%
%TO.N,GND*%
X205400000Y-64455000D03*
%TO.P,U3,3,VO*%
%TO.N,5V*%
X202860000Y-64455000D03*
%TD*%
D18*
%TO.P,U1,1,CS*%
%TO.N,CS_1*%
X160530000Y-87350000D03*
D19*
%TO.P,U1,2,SCK*%
%TO.N,SCK*%
X160530000Y-84810000D03*
%TO.P,U1,3,SDI/MOSI*%
%TO.N,MOSI*%
X160530000Y-82270000D03*
%TO.P,U1,4,VSS*%
%TO.N,GND*%
X160530000Y-79730000D03*
%TO.P,U1,5,POW*%
X152910000Y-79730000D03*
%TO.P,U1,6,POB*%
%TO.N,Net-(U1-POB)*%
X152910000Y-82270000D03*
%TO.P,U1,7,SDO/MISO*%
%TO.N,MISO*%
X152910000Y-84810000D03*
%TO.P,U1,8,VDD*%
%TO.N,5V_NUC*%
X152910000Y-87350000D03*
%TD*%
D17*
%TO.P,RV1,1,1*%
%TO.N,3.3V_NUC*%
X133400000Y-87480000D03*
%TO.P,RV1,2,2*%
%TO.N,POT_OUT*%
X135940000Y-84940000D03*
%TO.P,RV1,3,3*%
%TO.N,GND*%
X133400000Y-82400000D03*
%TD*%
D26*
%TO.N,GND*%
X145250000Y-85400000D03*
%TO.N,LED_POW_IN*%
X146235000Y-77065000D03*
%TO.N,3.3V_NUC*%
X183000000Y-95200000D03*
X191200000Y-123200000D03*
%TO.N,SCK*%
X169000000Y-94600000D03*
%TO.N,MOSI*%
X157400000Y-123000000D03*
%TO.N,POT_NUM_OUT*%
X189200000Y-77000000D03*
%TO.N,Net-(J5-Pin_2)*%
X144350000Y-74850000D03*
%TO.N,CS_1*%
X150600000Y-105400000D03*
%TO.N,CS_2*%
X157800000Y-135800000D03*
%TO.N,Net-(U1-POB)*%
X150450000Y-82400000D03*
%TD*%
D27*
%TO.N,GND*%
X145285000Y-85365000D02*
X145285000Y-82450000D01*
X145250000Y-85400000D02*
X145285000Y-85365000D01*
%TO.N,LED_POW_IN*%
X146235000Y-80150000D02*
X146235000Y-77065000D01*
X146250000Y-77050000D02*
X146235000Y-77065000D01*
%TO.N,3.3V_NUC*%
X200000000Y-90200000D02*
X200000000Y-80400000D01*
X195000000Y-95200000D02*
X200000000Y-90200000D01*
X200000000Y-80400000D02*
X201200000Y-79200000D01*
D28*
X183000000Y-95200000D02*
X191200000Y-95200000D01*
D27*
X191200000Y-95200000D02*
X195000000Y-95200000D01*
X201200000Y-79200000D02*
X205260000Y-79200000D01*
D28*
X191200000Y-95200000D02*
X191200000Y-123200000D01*
D27*
%TO.N,SCK*%
X173400000Y-90000000D02*
X173400000Y-85600000D01*
X173400000Y-85600000D02*
X174190000Y-84810000D01*
X174190000Y-84810000D02*
X176000000Y-84810000D01*
X169000000Y-94400000D02*
X173400000Y-90000000D01*
X169000000Y-94600000D02*
X169000000Y-94400000D01*
%TO.N,MISO*%
X157200000Y-77000000D02*
X164400000Y-77000000D01*
X154190000Y-84810000D02*
X156000000Y-83000000D01*
X164400000Y-77000000D02*
X165600000Y-78200000D01*
X156000000Y-78200000D02*
X157200000Y-77000000D01*
X152910000Y-84810000D02*
X154190000Y-84810000D01*
X166810000Y-84810000D02*
X168380000Y-84810000D01*
X156000000Y-83000000D02*
X156000000Y-78200000D01*
X165600000Y-78200000D02*
X165600000Y-83600000D01*
X165600000Y-83600000D02*
X166810000Y-84810000D01*
%TO.N,MOSI*%
X171400000Y-85000000D02*
X171400000Y-88400000D01*
X165600000Y-123000000D02*
X157400000Y-123000000D01*
X163400000Y-89600000D02*
X166800000Y-93000000D01*
X166800000Y-94600000D02*
X166800000Y-121800000D01*
X163400000Y-82800000D02*
X163400000Y-89600000D01*
X174130000Y-82270000D02*
X171400000Y-85000000D01*
X171400000Y-88400000D02*
X166800000Y-93000000D01*
X166800000Y-93000000D02*
X166800000Y-94600000D01*
X162870000Y-82270000D02*
X163400000Y-82800000D01*
X166800000Y-121800000D02*
X165600000Y-123000000D01*
X176000000Y-82270000D02*
X174130000Y-82270000D01*
X160530000Y-82270000D02*
X162870000Y-82270000D01*
%TO.N,PHD_OUT*%
X209000000Y-89800000D02*
X211000000Y-87800000D01*
X211000000Y-87800000D02*
X211000000Y-82400000D01*
X211000000Y-82400000D02*
X207800000Y-79200000D01*
X208500000Y-90300000D02*
X209000000Y-89800000D01*
X208500000Y-95180000D02*
X208500000Y-90300000D01*
%TO.N,POT_NUM_OUT*%
X189000000Y-76800000D02*
X189200000Y-77000000D01*
X169200000Y-76800000D02*
X168380000Y-77620000D01*
X183000000Y-76800000D02*
X189000000Y-76800000D01*
X183000000Y-76800000D02*
X169200000Y-76800000D01*
X168380000Y-77620000D02*
X168380000Y-79730000D01*
%TO.N,Net-(J5-Pin_2)*%
X144335000Y-74865000D02*
X144350000Y-74850000D01*
X144335000Y-80150000D02*
X144335000Y-74865000D01*
%TO.N,CS_1*%
X155660000Y-105340000D02*
X150660000Y-105340000D01*
X158050000Y-87350000D02*
X160530000Y-87350000D01*
X155660000Y-105340000D02*
X156600000Y-104400000D01*
X156600000Y-104400000D02*
X156600000Y-88800000D01*
X150660000Y-105340000D02*
X150600000Y-105400000D01*
X156600000Y-88800000D02*
X158050000Y-87350000D01*
%TO.N,CS_2*%
X172400000Y-93800000D02*
X172400000Y-134800000D01*
X176000000Y-87350000D02*
X176000000Y-90200000D01*
X172400000Y-134800000D02*
X171380000Y-135820000D01*
X176000000Y-90200000D02*
X172400000Y-93800000D01*
X171360000Y-135800000D02*
X171380000Y-135820000D01*
X157800000Y-135800000D02*
X171360000Y-135800000D01*
%TO.N,Net-(U1-POB)*%
X150400000Y-82450000D02*
X150450000Y-82400000D01*
X146235000Y-82450000D02*
X150400000Y-82450000D01*
%TD*%
M02*
