%TF.GenerationSoftware,KiCad,Pcbnew,8.0.0*%
%TF.CreationDate,2024-10-06T21:21:39+02:00*%
%TF.ProjectId,Rayonnement_L476RG,5261796f-6e6e-4656-9d65-6e745f4c3437,rev?*%
%TF.SameCoordinates,Original*%
%TF.FileFunction,Drillmap*%
%TF.FilePolarity,Positive*%
%FSLAX45Y45*%
G04 Gerber Fmt 4.5, Leading zero omitted, Abs format (unit mm)*
G04 Created by KiCad (PCBNEW 8.0.0) date 2024-10-06 21:21:39*
%MOMM*%
%LPD*%
G01*
G04 APERTURE LIST*
%ADD10C,0.050000*%
%ADD11C,0.200000*%
%ADD12C,0.100000*%
%ADD13C,0.110000*%
%ADD14C,0.130000*%
G04 APERTURE END LIST*
D10*
X12350000Y-5805000D02*
X21350000Y-5805000D01*
X21350000Y-15050000D01*
X12350000Y-15050000D01*
X12350000Y-5805000D01*
D11*
D12*
X14405000Y-7455000D02*
X14465000Y-7515000D01*
X14465000Y-7455000D02*
X14405000Y-7515000D01*
X14495000Y-8510000D02*
X14555000Y-8570000D01*
X14555000Y-8510000D02*
X14495000Y-8570000D01*
X14593500Y-7676500D02*
X14653500Y-7736500D01*
X14653500Y-7676500D02*
X14593500Y-7736500D01*
X15015000Y-8210000D02*
X15075000Y-8270000D01*
X15075000Y-8210000D02*
X15015000Y-8270000D01*
X15030000Y-10510000D02*
X15090000Y-10570000D01*
X15090000Y-10510000D02*
X15030000Y-10570000D01*
X15710000Y-12270000D02*
X15770000Y-12330000D01*
X15770000Y-12270000D02*
X15710000Y-12330000D01*
X15750000Y-13550000D02*
X15810000Y-13610000D01*
X15810000Y-13550000D02*
X15750000Y-13610000D01*
X16870000Y-9430000D02*
X16930000Y-9490000D01*
X16930000Y-9430000D02*
X16870000Y-9490000D01*
X18270000Y-9490000D02*
X18330000Y-9550000D01*
X18330000Y-9490000D02*
X18270000Y-9550000D01*
X18890000Y-7670000D02*
X18950000Y-7730000D01*
X18950000Y-7670000D02*
X18890000Y-7730000D01*
X19090000Y-12290000D02*
X19150000Y-12350000D01*
X19150000Y-12290000D02*
X19090000Y-12350000D01*
X13378100Y-12995000D02*
G75*
G02*
X13301900Y-12995000I-38100J0D01*
G01*
X13301900Y-12995000D02*
G75*
G02*
X13378100Y-12995000I38100J0D01*
G01*
X13378100Y-13495000D02*
G75*
G02*
X13301900Y-13495000I-38100J0D01*
G01*
X13301900Y-13495000D02*
G75*
G02*
X13378100Y-13495000I38100J0D01*
G01*
X13383100Y-13880000D02*
G75*
G02*
X13306900Y-13880000I-38100J0D01*
G01*
X13306900Y-13880000D02*
G75*
G02*
X13383100Y-13880000I38100J0D01*
G01*
X13383100Y-14380000D02*
G75*
G02*
X13306900Y-14380000I-38100J0D01*
G01*
X13306900Y-14380000D02*
G75*
G02*
X13383100Y-14380000I38100J0D01*
G01*
X13072000Y-9408000D02*
X13072000Y-9488000D01*
X13032000Y-9448000D02*
X13112000Y-9448000D01*
X13104000Y-12240000D02*
X13104000Y-12320000D01*
X13064000Y-12280000D02*
X13144000Y-12280000D01*
X13104000Y-12580000D02*
X13104000Y-12660000D01*
X13064000Y-12620000D02*
X13144000Y-12620000D01*
X13340000Y-8200000D02*
X13340000Y-8280000D01*
X13300000Y-8240000D02*
X13380000Y-8240000D01*
X13340000Y-8708000D02*
X13340000Y-8788000D01*
X13300000Y-8748000D02*
X13380000Y-8748000D01*
X13594000Y-8454000D02*
X13594000Y-8534000D01*
X13554000Y-8494000D02*
X13634000Y-8494000D01*
X13632000Y-10482000D02*
X13632000Y-10562000D01*
X13592000Y-10522000D02*
X13672000Y-10522000D01*
X13632000Y-11498000D02*
X13632000Y-11578000D01*
X13592000Y-11538000D02*
X13672000Y-11538000D01*
X13970000Y-13840000D02*
X13970000Y-13920000D01*
X13930000Y-13880000D02*
X14010000Y-13880000D01*
X13970000Y-14340000D02*
X13970000Y-14420000D01*
X13930000Y-14380000D02*
X14010000Y-14380000D01*
X13975000Y-12955000D02*
X13975000Y-13035000D01*
X13935000Y-12995000D02*
X14015000Y-12995000D01*
X13975000Y-13455000D02*
X13975000Y-13535000D01*
X13935000Y-13495000D02*
X14015000Y-13495000D01*
X14088000Y-9408000D02*
X14088000Y-9488000D01*
X14048000Y-9448000D02*
X14128000Y-9448000D01*
X14120000Y-12240000D02*
X14120000Y-12320000D01*
X14080000Y-12280000D02*
X14160000Y-12280000D01*
X14120000Y-12580000D02*
X14120000Y-12660000D01*
X14080000Y-12620000D02*
X14160000Y-12620000D01*
X15291000Y-7933000D02*
X15291000Y-8013000D01*
X15251000Y-7973000D02*
X15331000Y-7973000D01*
X15291000Y-8187000D02*
X15291000Y-8267000D01*
X15251000Y-8227000D02*
X15331000Y-8227000D01*
X15291000Y-8441000D02*
X15291000Y-8521000D01*
X15251000Y-8481000D02*
X15331000Y-8481000D01*
X15291000Y-8695000D02*
X15291000Y-8775000D01*
X15251000Y-8735000D02*
X15331000Y-8735000D01*
X16053000Y-7933000D02*
X16053000Y-8013000D01*
X16013000Y-7973000D02*
X16093000Y-7973000D01*
X16053000Y-8187000D02*
X16053000Y-8267000D01*
X16013000Y-8227000D02*
X16093000Y-8227000D01*
X16053000Y-8441000D02*
X16053000Y-8521000D01*
X16013000Y-8481000D02*
X16093000Y-8481000D01*
X16053000Y-8695000D02*
X16053000Y-8775000D01*
X16013000Y-8735000D02*
X16093000Y-8735000D01*
X16838000Y-7933000D02*
X16838000Y-8013000D01*
X16798000Y-7973000D02*
X16878000Y-7973000D01*
X16838000Y-8187000D02*
X16838000Y-8267000D01*
X16798000Y-8227000D02*
X16878000Y-8227000D01*
X16838000Y-8441000D02*
X16838000Y-8521000D01*
X16798000Y-8481000D02*
X16878000Y-8481000D01*
X16838000Y-8695000D02*
X16838000Y-8775000D01*
X16798000Y-8735000D02*
X16878000Y-8735000D01*
X17600000Y-7933000D02*
X17600000Y-8013000D01*
X17560000Y-7973000D02*
X17640000Y-7973000D01*
X17600000Y-8187000D02*
X17600000Y-8267000D01*
X17560000Y-8227000D02*
X17640000Y-8227000D01*
X17600000Y-8441000D02*
X17600000Y-8521000D01*
X17560000Y-8481000D02*
X17640000Y-8481000D01*
X17600000Y-8695000D02*
X17600000Y-8775000D01*
X17560000Y-8735000D02*
X17640000Y-8735000D01*
X17728500Y-6695000D02*
X17728500Y-6775000D01*
X17688500Y-6735000D02*
X17768500Y-6735000D01*
X17728500Y-6945000D02*
X17728500Y-7025000D01*
X17688500Y-6985000D02*
X17768500Y-6985000D01*
X19120000Y-9480000D02*
X19120000Y-9560000D01*
X19080000Y-9520000D02*
X19160000Y-9520000D01*
X19320000Y-8000000D02*
X19320000Y-8080000D01*
X19280000Y-8040000D02*
X19360000Y-8040000D01*
X19320000Y-8508000D02*
X19320000Y-8588000D01*
X19280000Y-8548000D02*
X19360000Y-8548000D01*
X19420000Y-9880000D02*
X19420000Y-9960000D01*
X19380000Y-9920000D02*
X19460000Y-9920000D01*
X19420000Y-10896000D02*
X19420000Y-10976000D01*
X19380000Y-10936000D02*
X19460000Y-10936000D01*
X19464000Y-9020000D02*
X19464000Y-9100000D01*
X19424000Y-9060000D02*
X19504000Y-9060000D01*
X19574000Y-8254000D02*
X19574000Y-8334000D01*
X19534000Y-8294000D02*
X19614000Y-8294000D01*
X20136000Y-9480000D02*
X20136000Y-9560000D01*
X20096000Y-9520000D02*
X20176000Y-9520000D01*
X20480000Y-9020000D02*
X20480000Y-9100000D01*
X20440000Y-9060000D02*
X20520000Y-9060000D01*
X13186820Y-11310820D02*
X13186820Y-11247180D01*
X13123180Y-11247180D01*
X13123180Y-11310820D01*
X13186820Y-11310820D01*
X13186820Y-11564820D02*
X13186820Y-11501180D01*
X13123180Y-11501180D01*
X13123180Y-11564820D01*
X13186820Y-11564820D01*
X13196820Y-9900820D02*
X13196820Y-9837180D01*
X13133180Y-9837180D01*
X13133180Y-9900820D01*
X13196820Y-9900820D01*
X13196820Y-10154820D02*
X13196820Y-10091180D01*
X13133180Y-10091180D01*
X13133180Y-10154820D01*
X13196820Y-10154820D01*
X13250000Y-6687000D02*
X13300000Y-6637000D01*
X13250000Y-6587000D01*
X13200000Y-6637000D01*
X13250000Y-6687000D01*
X13250000Y-6941000D02*
X13300000Y-6891000D01*
X13250000Y-6841000D01*
X13200000Y-6891000D01*
X13250000Y-6941000D01*
X13250000Y-7195000D02*
X13300000Y-7145000D01*
X13250000Y-7095000D01*
X13200000Y-7145000D01*
X13250000Y-7195000D01*
X13745000Y-6687000D02*
X13795000Y-6637000D01*
X13745000Y-6587000D01*
X13695000Y-6637000D01*
X13745000Y-6687000D01*
X13745000Y-6941000D02*
X13795000Y-6891000D01*
X13745000Y-6841000D01*
X13695000Y-6891000D01*
X13745000Y-6941000D01*
X13745000Y-7195000D02*
X13795000Y-7145000D01*
X13745000Y-7095000D01*
X13695000Y-7145000D01*
X13745000Y-7195000D01*
X14075000Y-10575000D02*
X14125000Y-10525000D01*
X14075000Y-10475000D01*
X14025000Y-10525000D01*
X14075000Y-10575000D01*
X14075000Y-10829000D02*
X14125000Y-10779000D01*
X14075000Y-10729000D01*
X14025000Y-10779000D01*
X14075000Y-10829000D01*
X14075000Y-11083000D02*
X14125000Y-11033000D01*
X14075000Y-10983000D01*
X14025000Y-11033000D01*
X14075000Y-11083000D01*
X14075000Y-11337000D02*
X14125000Y-11287000D01*
X14075000Y-11237000D01*
X14025000Y-11287000D01*
X14075000Y-11337000D01*
X14075000Y-11591000D02*
X14125000Y-11541000D01*
X14075000Y-11491000D01*
X14025000Y-11541000D01*
X14075000Y-11591000D01*
X14075000Y-11845000D02*
X14125000Y-11795000D01*
X14075000Y-11745000D01*
X14025000Y-11795000D01*
X14075000Y-11845000D01*
X14492000Y-9568000D02*
X14542000Y-9518000D01*
X14492000Y-9468000D01*
X14442000Y-9518000D01*
X14492000Y-9568000D01*
X14492000Y-9822000D02*
X14542000Y-9772000D01*
X14492000Y-9722000D01*
X14442000Y-9772000D01*
X14492000Y-9822000D01*
X14492000Y-10076000D02*
X14542000Y-10026000D01*
X14492000Y-9976000D01*
X14442000Y-10026000D01*
X14492000Y-10076000D01*
X14492000Y-10330000D02*
X14542000Y-10280000D01*
X14492000Y-10230000D01*
X14442000Y-10280000D01*
X14492000Y-10330000D01*
X14492000Y-10584000D02*
X14542000Y-10534000D01*
X14492000Y-10484000D01*
X14442000Y-10534000D01*
X14492000Y-10584000D01*
X14492000Y-10838000D02*
X14542000Y-10788000D01*
X14492000Y-10738000D01*
X14442000Y-10788000D01*
X14492000Y-10838000D01*
X14492000Y-11092000D02*
X14542000Y-11042000D01*
X14492000Y-10992000D01*
X14442000Y-11042000D01*
X14492000Y-11092000D01*
X14492000Y-11346000D02*
X14542000Y-11296000D01*
X14492000Y-11246000D01*
X14442000Y-11296000D01*
X14492000Y-11346000D01*
X14492000Y-11600000D02*
X14542000Y-11550000D01*
X14492000Y-11500000D01*
X14442000Y-11550000D01*
X14492000Y-11600000D01*
X14492000Y-11854000D02*
X14542000Y-11804000D01*
X14492000Y-11754000D01*
X14442000Y-11804000D01*
X14492000Y-11854000D01*
X14492000Y-12108000D02*
X14542000Y-12058000D01*
X14492000Y-12008000D01*
X14442000Y-12058000D01*
X14492000Y-12108000D01*
X14492000Y-12362000D02*
X14542000Y-12312000D01*
X14492000Y-12262000D01*
X14442000Y-12312000D01*
X14492000Y-12362000D01*
X14492000Y-12616000D02*
X14542000Y-12566000D01*
X14492000Y-12516000D01*
X14442000Y-12566000D01*
X14492000Y-12616000D01*
X14492000Y-12870000D02*
X14542000Y-12820000D01*
X14492000Y-12770000D01*
X14442000Y-12820000D01*
X14492000Y-12870000D01*
X14492000Y-13124000D02*
X14542000Y-13074000D01*
X14492000Y-13024000D01*
X14442000Y-13074000D01*
X14492000Y-13124000D01*
X14492000Y-13378000D02*
X14542000Y-13328000D01*
X14492000Y-13278000D01*
X14442000Y-13328000D01*
X14492000Y-13378000D01*
X14492000Y-13632000D02*
X14542000Y-13582000D01*
X14492000Y-13532000D01*
X14442000Y-13582000D01*
X14492000Y-13632000D01*
X14492000Y-13886000D02*
X14542000Y-13836000D01*
X14492000Y-13786000D01*
X14442000Y-13836000D01*
X14492000Y-13886000D01*
X14492000Y-14140000D02*
X14542000Y-14090000D01*
X14492000Y-14040000D01*
X14442000Y-14090000D01*
X14492000Y-14140000D01*
X14492000Y-14394000D02*
X14542000Y-14344000D01*
X14492000Y-14294000D01*
X14442000Y-14344000D01*
X14492000Y-14394000D01*
X14746000Y-9568000D02*
X14796000Y-9518000D01*
X14746000Y-9468000D01*
X14696000Y-9518000D01*
X14746000Y-9568000D01*
X14746000Y-9822000D02*
X14796000Y-9772000D01*
X14746000Y-9722000D01*
X14696000Y-9772000D01*
X14746000Y-9822000D01*
X14746000Y-10076000D02*
X14796000Y-10026000D01*
X14746000Y-9976000D01*
X14696000Y-10026000D01*
X14746000Y-10076000D01*
X14746000Y-10330000D02*
X14796000Y-10280000D01*
X14746000Y-10230000D01*
X14696000Y-10280000D01*
X14746000Y-10330000D01*
X14746000Y-10584000D02*
X14796000Y-10534000D01*
X14746000Y-10484000D01*
X14696000Y-10534000D01*
X14746000Y-10584000D01*
X14746000Y-10838000D02*
X14796000Y-10788000D01*
X14746000Y-10738000D01*
X14696000Y-10788000D01*
X14746000Y-10838000D01*
X14746000Y-11092000D02*
X14796000Y-11042000D01*
X14746000Y-10992000D01*
X14696000Y-11042000D01*
X14746000Y-11092000D01*
X14746000Y-11346000D02*
X14796000Y-11296000D01*
X14746000Y-11246000D01*
X14696000Y-11296000D01*
X14746000Y-11346000D01*
X14746000Y-11600000D02*
X14796000Y-11550000D01*
X14746000Y-11500000D01*
X14696000Y-11550000D01*
X14746000Y-11600000D01*
X14746000Y-11854000D02*
X14796000Y-11804000D01*
X14746000Y-11754000D01*
X14696000Y-11804000D01*
X14746000Y-11854000D01*
X14746000Y-12108000D02*
X14796000Y-12058000D01*
X14746000Y-12008000D01*
X14696000Y-12058000D01*
X14746000Y-12108000D01*
X14746000Y-12362000D02*
X14796000Y-12312000D01*
X14746000Y-12262000D01*
X14696000Y-12312000D01*
X14746000Y-12362000D01*
X14746000Y-12616000D02*
X14796000Y-12566000D01*
X14746000Y-12516000D01*
X14696000Y-12566000D01*
X14746000Y-12616000D01*
X14746000Y-12870000D02*
X14796000Y-12820000D01*
X14746000Y-12770000D01*
X14696000Y-12820000D01*
X14746000Y-12870000D01*
X14746000Y-13124000D02*
X14796000Y-13074000D01*
X14746000Y-13024000D01*
X14696000Y-13074000D01*
X14746000Y-13124000D01*
X14746000Y-13378000D02*
X14796000Y-13328000D01*
X14746000Y-13278000D01*
X14696000Y-13328000D01*
X14746000Y-13378000D01*
X14746000Y-13632000D02*
X14796000Y-13582000D01*
X14746000Y-13532000D01*
X14696000Y-13582000D01*
X14746000Y-13632000D01*
X14746000Y-13886000D02*
X14796000Y-13836000D01*
X14746000Y-13786000D01*
X14696000Y-13836000D01*
X14746000Y-13886000D01*
X14746000Y-14140000D02*
X14796000Y-14090000D01*
X14746000Y-14040000D01*
X14696000Y-14090000D01*
X14746000Y-14140000D01*
X14746000Y-14394000D02*
X14796000Y-14344000D01*
X14746000Y-14294000D01*
X14696000Y-14344000D01*
X14746000Y-14394000D01*
X20272000Y-7230000D02*
X20322000Y-7180000D01*
X20272000Y-7130000D01*
X20222000Y-7180000D01*
X20272000Y-7230000D01*
X20526000Y-7230000D02*
X20576000Y-7180000D01*
X20526000Y-7130000D01*
X20476000Y-7180000D01*
X20526000Y-7230000D01*
X20526000Y-7970000D02*
X20576000Y-7920000D01*
X20526000Y-7870000D01*
X20476000Y-7920000D01*
X20526000Y-7970000D01*
X20526000Y-8610000D02*
X20576000Y-8560000D01*
X20526000Y-8510000D01*
X20476000Y-8560000D01*
X20526000Y-8610000D01*
X20596000Y-9568000D02*
X20646000Y-9518000D01*
X20596000Y-9468000D01*
X20546000Y-9518000D01*
X20596000Y-9568000D01*
X20596000Y-9822000D02*
X20646000Y-9772000D01*
X20596000Y-9722000D01*
X20546000Y-9772000D01*
X20596000Y-9822000D01*
X20596000Y-10076000D02*
X20646000Y-10026000D01*
X20596000Y-9976000D01*
X20546000Y-10026000D01*
X20596000Y-10076000D01*
X20596000Y-10330000D02*
X20646000Y-10280000D01*
X20596000Y-10230000D01*
X20546000Y-10280000D01*
X20596000Y-10330000D01*
X20596000Y-10584000D02*
X20646000Y-10534000D01*
X20596000Y-10484000D01*
X20546000Y-10534000D01*
X20596000Y-10584000D01*
X20596000Y-10838000D02*
X20646000Y-10788000D01*
X20596000Y-10738000D01*
X20546000Y-10788000D01*
X20596000Y-10838000D01*
X20596000Y-11092000D02*
X20646000Y-11042000D01*
X20596000Y-10992000D01*
X20546000Y-11042000D01*
X20596000Y-11092000D01*
X20596000Y-11346000D02*
X20646000Y-11296000D01*
X20596000Y-11246000D01*
X20546000Y-11296000D01*
X20596000Y-11346000D01*
X20596000Y-11600000D02*
X20646000Y-11550000D01*
X20596000Y-11500000D01*
X20546000Y-11550000D01*
X20596000Y-11600000D01*
X20596000Y-11854000D02*
X20646000Y-11804000D01*
X20596000Y-11754000D01*
X20546000Y-11804000D01*
X20596000Y-11854000D01*
X20596000Y-12108000D02*
X20646000Y-12058000D01*
X20596000Y-12008000D01*
X20546000Y-12058000D01*
X20596000Y-12108000D01*
X20596000Y-12362000D02*
X20646000Y-12312000D01*
X20596000Y-12262000D01*
X20546000Y-12312000D01*
X20596000Y-12362000D01*
X20596000Y-12616000D02*
X20646000Y-12566000D01*
X20596000Y-12516000D01*
X20546000Y-12566000D01*
X20596000Y-12616000D01*
X20596000Y-12870000D02*
X20646000Y-12820000D01*
X20596000Y-12770000D01*
X20546000Y-12820000D01*
X20596000Y-12870000D01*
X20596000Y-13124000D02*
X20646000Y-13074000D01*
X20596000Y-13024000D01*
X20546000Y-13074000D01*
X20596000Y-13124000D01*
X20596000Y-13378000D02*
X20646000Y-13328000D01*
X20596000Y-13278000D01*
X20546000Y-13328000D01*
X20596000Y-13378000D01*
X20596000Y-13632000D02*
X20646000Y-13582000D01*
X20596000Y-13532000D01*
X20546000Y-13582000D01*
X20596000Y-13632000D01*
X20596000Y-13886000D02*
X20646000Y-13836000D01*
X20596000Y-13786000D01*
X20546000Y-13836000D01*
X20596000Y-13886000D01*
X20596000Y-14140000D02*
X20646000Y-14090000D01*
X20596000Y-14040000D01*
X20546000Y-14090000D01*
X20596000Y-14140000D01*
X20596000Y-14394000D02*
X20646000Y-14344000D01*
X20596000Y-14294000D01*
X20546000Y-14344000D01*
X20596000Y-14394000D01*
X20780000Y-7230000D02*
X20830000Y-7180000D01*
X20780000Y-7130000D01*
X20730000Y-7180000D01*
X20780000Y-7230000D01*
X20780000Y-7970000D02*
X20830000Y-7920000D01*
X20780000Y-7870000D01*
X20730000Y-7920000D01*
X20780000Y-7970000D01*
X20780000Y-8610000D02*
X20830000Y-8560000D01*
X20780000Y-8510000D01*
X20730000Y-8560000D01*
X20780000Y-8610000D01*
X20850000Y-9568000D02*
X20900000Y-9518000D01*
X20850000Y-9468000D01*
X20800000Y-9518000D01*
X20850000Y-9568000D01*
X20850000Y-9822000D02*
X20900000Y-9772000D01*
X20850000Y-9722000D01*
X20800000Y-9772000D01*
X20850000Y-9822000D01*
X20850000Y-10076000D02*
X20900000Y-10026000D01*
X20850000Y-9976000D01*
X20800000Y-10026000D01*
X20850000Y-10076000D01*
X20850000Y-10330000D02*
X20900000Y-10280000D01*
X20850000Y-10230000D01*
X20800000Y-10280000D01*
X20850000Y-10330000D01*
X20850000Y-10584000D02*
X20900000Y-10534000D01*
X20850000Y-10484000D01*
X20800000Y-10534000D01*
X20850000Y-10584000D01*
X20850000Y-10838000D02*
X20900000Y-10788000D01*
X20850000Y-10738000D01*
X20800000Y-10788000D01*
X20850000Y-10838000D01*
X20850000Y-11092000D02*
X20900000Y-11042000D01*
X20850000Y-10992000D01*
X20800000Y-11042000D01*
X20850000Y-11092000D01*
X20850000Y-11346000D02*
X20900000Y-11296000D01*
X20850000Y-11246000D01*
X20800000Y-11296000D01*
X20850000Y-11346000D01*
X20850000Y-11600000D02*
X20900000Y-11550000D01*
X20850000Y-11500000D01*
X20800000Y-11550000D01*
X20850000Y-11600000D01*
X20850000Y-11854000D02*
X20900000Y-11804000D01*
X20850000Y-11754000D01*
X20800000Y-11804000D01*
X20850000Y-11854000D01*
X20850000Y-12108000D02*
X20900000Y-12058000D01*
X20850000Y-12008000D01*
X20800000Y-12058000D01*
X20850000Y-12108000D01*
X20850000Y-12362000D02*
X20900000Y-12312000D01*
X20850000Y-12262000D01*
X20800000Y-12312000D01*
X20850000Y-12362000D01*
X20850000Y-12616000D02*
X20900000Y-12566000D01*
X20850000Y-12516000D01*
X20800000Y-12566000D01*
X20850000Y-12616000D01*
X20850000Y-12870000D02*
X20900000Y-12820000D01*
X20850000Y-12770000D01*
X20800000Y-12820000D01*
X20850000Y-12870000D01*
X20850000Y-13124000D02*
X20900000Y-13074000D01*
X20850000Y-13024000D01*
X20800000Y-13074000D01*
X20850000Y-13124000D01*
X20850000Y-13378000D02*
X20900000Y-13328000D01*
X20850000Y-13278000D01*
X20800000Y-13328000D01*
X20850000Y-13378000D01*
X20850000Y-13632000D02*
X20900000Y-13582000D01*
X20850000Y-13532000D01*
X20800000Y-13582000D01*
X20850000Y-13632000D01*
X20850000Y-13886000D02*
X20900000Y-13836000D01*
X20850000Y-13786000D01*
X20800000Y-13836000D01*
X20850000Y-13886000D01*
X20850000Y-14140000D02*
X20900000Y-14090000D01*
X20850000Y-14040000D01*
X20800000Y-14090000D01*
X20850000Y-14140000D01*
X20850000Y-14394000D02*
X20900000Y-14344000D01*
X20850000Y-14294000D01*
X20800000Y-14344000D01*
X20850000Y-14394000D01*
D13*
X20231000Y-6390500D02*
X20341000Y-6500500D01*
X20341000Y-6390500D02*
X20231000Y-6500500D01*
X20341000Y-6445500D02*
G75*
G02*
X20231000Y-6445500I-55000J0D01*
G01*
X20231000Y-6445500D02*
G75*
G02*
X20341000Y-6445500I55000J0D01*
G01*
X20485000Y-6390500D02*
X20595000Y-6500500D01*
X20595000Y-6390500D02*
X20485000Y-6500500D01*
X20595000Y-6445500D02*
G75*
G02*
X20485000Y-6445500I-55000J0D01*
G01*
X20485000Y-6445500D02*
G75*
G02*
X20595000Y-6445500I55000J0D01*
G01*
X20739000Y-6390500D02*
X20849000Y-6500500D01*
X20849000Y-6390500D02*
X20739000Y-6500500D01*
X20849000Y-6445500D02*
G75*
G02*
X20739000Y-6445500I-55000J0D01*
G01*
X20739000Y-6445500D02*
G75*
G02*
X20849000Y-6445500I55000J0D01*
G01*
D14*
X14685500Y-6670000D02*
X14815500Y-6800000D01*
X14815500Y-6670000D02*
X14685500Y-6800000D01*
X14750500Y-6670000D02*
X14750500Y-6800000D01*
X14685500Y-6735000D02*
X14815500Y-6735000D01*
X15193500Y-6670000D02*
X15323500Y-6800000D01*
X15323500Y-6670000D02*
X15193500Y-6800000D01*
X15258500Y-6670000D02*
X15258500Y-6800000D01*
X15193500Y-6735000D02*
X15323500Y-6735000D01*
X16071500Y-6675000D02*
X16201500Y-6805000D01*
X16201500Y-6675000D02*
X16071500Y-6805000D01*
X16136500Y-6675000D02*
X16136500Y-6805000D01*
X16071500Y-6740000D02*
X16201500Y-6740000D01*
X16579500Y-6675000D02*
X16709500Y-6805000D01*
X16709500Y-6675000D02*
X16579500Y-6805000D01*
X16644500Y-6675000D02*
X16644500Y-6805000D01*
X16579500Y-6740000D02*
X16709500Y-6740000D01*
X18615000Y-6668500D02*
X18745000Y-6798500D01*
X18745000Y-6668500D02*
X18615000Y-6798500D01*
X18680000Y-6668500D02*
X18680000Y-6798500D01*
X18615000Y-6733500D02*
X18745000Y-6733500D01*
X19123000Y-6668500D02*
X19253000Y-6798500D01*
X19253000Y-6668500D02*
X19123000Y-6798500D01*
X19188000Y-6668500D02*
X19188000Y-6798500D01*
X19123000Y-6733500D02*
X19253000Y-6733500D01*
D11*
X12608277Y-15363984D02*
X12608277Y-15163984D01*
X12608277Y-15163984D02*
X12655896Y-15163984D01*
X12655896Y-15163984D02*
X12684467Y-15173508D01*
X12684467Y-15173508D02*
X12703515Y-15192555D01*
X12703515Y-15192555D02*
X12713039Y-15211603D01*
X12713039Y-15211603D02*
X12722562Y-15249698D01*
X12722562Y-15249698D02*
X12722562Y-15278269D01*
X12722562Y-15278269D02*
X12713039Y-15316365D01*
X12713039Y-15316365D02*
X12703515Y-15335412D01*
X12703515Y-15335412D02*
X12684467Y-15354460D01*
X12684467Y-15354460D02*
X12655896Y-15363984D01*
X12655896Y-15363984D02*
X12608277Y-15363984D01*
X12808277Y-15363984D02*
X12808277Y-15230650D01*
X12808277Y-15268746D02*
X12817801Y-15249698D01*
X12817801Y-15249698D02*
X12827324Y-15240174D01*
X12827324Y-15240174D02*
X12846372Y-15230650D01*
X12846372Y-15230650D02*
X12865420Y-15230650D01*
X12932086Y-15363984D02*
X12932086Y-15230650D01*
X12932086Y-15163984D02*
X12922562Y-15173508D01*
X12922562Y-15173508D02*
X12932086Y-15183031D01*
X12932086Y-15183031D02*
X12941610Y-15173508D01*
X12941610Y-15173508D02*
X12932086Y-15163984D01*
X12932086Y-15163984D02*
X12932086Y-15183031D01*
X13055896Y-15363984D02*
X13036848Y-15354460D01*
X13036848Y-15354460D02*
X13027324Y-15335412D01*
X13027324Y-15335412D02*
X13027324Y-15163984D01*
X13160658Y-15363984D02*
X13141610Y-15354460D01*
X13141610Y-15354460D02*
X13132086Y-15335412D01*
X13132086Y-15335412D02*
X13132086Y-15163984D01*
X13389229Y-15363984D02*
X13389229Y-15163984D01*
X13389229Y-15163984D02*
X13455896Y-15306841D01*
X13455896Y-15306841D02*
X13522562Y-15163984D01*
X13522562Y-15163984D02*
X13522562Y-15363984D01*
X13703515Y-15363984D02*
X13703515Y-15259222D01*
X13703515Y-15259222D02*
X13693991Y-15240174D01*
X13693991Y-15240174D02*
X13674943Y-15230650D01*
X13674943Y-15230650D02*
X13636848Y-15230650D01*
X13636848Y-15230650D02*
X13617801Y-15240174D01*
X13703515Y-15354460D02*
X13684467Y-15363984D01*
X13684467Y-15363984D02*
X13636848Y-15363984D01*
X13636848Y-15363984D02*
X13617801Y-15354460D01*
X13617801Y-15354460D02*
X13608277Y-15335412D01*
X13608277Y-15335412D02*
X13608277Y-15316365D01*
X13608277Y-15316365D02*
X13617801Y-15297317D01*
X13617801Y-15297317D02*
X13636848Y-15287793D01*
X13636848Y-15287793D02*
X13684467Y-15287793D01*
X13684467Y-15287793D02*
X13703515Y-15278269D01*
X13798753Y-15230650D02*
X13798753Y-15430650D01*
X13798753Y-15240174D02*
X13817801Y-15230650D01*
X13817801Y-15230650D02*
X13855896Y-15230650D01*
X13855896Y-15230650D02*
X13874943Y-15240174D01*
X13874943Y-15240174D02*
X13884467Y-15249698D01*
X13884467Y-15249698D02*
X13893991Y-15268746D01*
X13893991Y-15268746D02*
X13893991Y-15325888D01*
X13893991Y-15325888D02*
X13884467Y-15344936D01*
X13884467Y-15344936D02*
X13874943Y-15354460D01*
X13874943Y-15354460D02*
X13855896Y-15363984D01*
X13855896Y-15363984D02*
X13817801Y-15363984D01*
X13817801Y-15363984D02*
X13798753Y-15354460D01*
X13979705Y-15344936D02*
X13989229Y-15354460D01*
X13989229Y-15354460D02*
X13979705Y-15363984D01*
X13979705Y-15363984D02*
X13970182Y-15354460D01*
X13970182Y-15354460D02*
X13979705Y-15344936D01*
X13979705Y-15344936D02*
X13979705Y-15363984D01*
X13979705Y-15240174D02*
X13989229Y-15249698D01*
X13989229Y-15249698D02*
X13979705Y-15259222D01*
X13979705Y-15259222D02*
X13970182Y-15249698D01*
X13970182Y-15249698D02*
X13979705Y-15240174D01*
X13979705Y-15240174D02*
X13979705Y-15259222D01*
D12*
X12287500Y-15662500D02*
X12347500Y-15722500D01*
X12347500Y-15662500D02*
X12287500Y-15722500D01*
D11*
X12646372Y-15583984D02*
X12665420Y-15583984D01*
X12665420Y-15583984D02*
X12684467Y-15593508D01*
X12684467Y-15593508D02*
X12693991Y-15603031D01*
X12693991Y-15603031D02*
X12703515Y-15622079D01*
X12703515Y-15622079D02*
X12713039Y-15660174D01*
X12713039Y-15660174D02*
X12713039Y-15707793D01*
X12713039Y-15707793D02*
X12703515Y-15745888D01*
X12703515Y-15745888D02*
X12693991Y-15764936D01*
X12693991Y-15764936D02*
X12684467Y-15774460D01*
X12684467Y-15774460D02*
X12665420Y-15783984D01*
X12665420Y-15783984D02*
X12646372Y-15783984D01*
X12646372Y-15783984D02*
X12627324Y-15774460D01*
X12627324Y-15774460D02*
X12617801Y-15764936D01*
X12617801Y-15764936D02*
X12608277Y-15745888D01*
X12608277Y-15745888D02*
X12598753Y-15707793D01*
X12598753Y-15707793D02*
X12598753Y-15660174D01*
X12598753Y-15660174D02*
X12608277Y-15622079D01*
X12608277Y-15622079D02*
X12617801Y-15603031D01*
X12617801Y-15603031D02*
X12627324Y-15593508D01*
X12627324Y-15593508D02*
X12646372Y-15583984D01*
X12798753Y-15764936D02*
X12808277Y-15774460D01*
X12808277Y-15774460D02*
X12798753Y-15783984D01*
X12798753Y-15783984D02*
X12789229Y-15774460D01*
X12789229Y-15774460D02*
X12798753Y-15764936D01*
X12798753Y-15764936D02*
X12798753Y-15783984D01*
X12979705Y-15583984D02*
X12941610Y-15583984D01*
X12941610Y-15583984D02*
X12922562Y-15593508D01*
X12922562Y-15593508D02*
X12913039Y-15603031D01*
X12913039Y-15603031D02*
X12893991Y-15631603D01*
X12893991Y-15631603D02*
X12884467Y-15669698D01*
X12884467Y-15669698D02*
X12884467Y-15745888D01*
X12884467Y-15745888D02*
X12893991Y-15764936D01*
X12893991Y-15764936D02*
X12903515Y-15774460D01*
X12903515Y-15774460D02*
X12922562Y-15783984D01*
X12922562Y-15783984D02*
X12960658Y-15783984D01*
X12960658Y-15783984D02*
X12979705Y-15774460D01*
X12979705Y-15774460D02*
X12989229Y-15764936D01*
X12989229Y-15764936D02*
X12998753Y-15745888D01*
X12998753Y-15745888D02*
X12998753Y-15698269D01*
X12998753Y-15698269D02*
X12989229Y-15679222D01*
X12989229Y-15679222D02*
X12979705Y-15669698D01*
X12979705Y-15669698D02*
X12960658Y-15660174D01*
X12960658Y-15660174D02*
X12922562Y-15660174D01*
X12922562Y-15660174D02*
X12903515Y-15669698D01*
X12903515Y-15669698D02*
X12893991Y-15679222D01*
X12893991Y-15679222D02*
X12884467Y-15698269D01*
X13122562Y-15583984D02*
X13141610Y-15583984D01*
X13141610Y-15583984D02*
X13160658Y-15593508D01*
X13160658Y-15593508D02*
X13170182Y-15603031D01*
X13170182Y-15603031D02*
X13179705Y-15622079D01*
X13179705Y-15622079D02*
X13189229Y-15660174D01*
X13189229Y-15660174D02*
X13189229Y-15707793D01*
X13189229Y-15707793D02*
X13179705Y-15745888D01*
X13179705Y-15745888D02*
X13170182Y-15764936D01*
X13170182Y-15764936D02*
X13160658Y-15774460D01*
X13160658Y-15774460D02*
X13141610Y-15783984D01*
X13141610Y-15783984D02*
X13122562Y-15783984D01*
X13122562Y-15783984D02*
X13103515Y-15774460D01*
X13103515Y-15774460D02*
X13093991Y-15764936D01*
X13093991Y-15764936D02*
X13084467Y-15745888D01*
X13084467Y-15745888D02*
X13074943Y-15707793D01*
X13074943Y-15707793D02*
X13074943Y-15660174D01*
X13074943Y-15660174D02*
X13084467Y-15622079D01*
X13084467Y-15622079D02*
X13093991Y-15603031D01*
X13093991Y-15603031D02*
X13103515Y-15593508D01*
X13103515Y-15593508D02*
X13122562Y-15583984D01*
X13313039Y-15583984D02*
X13332086Y-15583984D01*
X13332086Y-15583984D02*
X13351134Y-15593508D01*
X13351134Y-15593508D02*
X13360658Y-15603031D01*
X13360658Y-15603031D02*
X13370182Y-15622079D01*
X13370182Y-15622079D02*
X13379705Y-15660174D01*
X13379705Y-15660174D02*
X13379705Y-15707793D01*
X13379705Y-15707793D02*
X13370182Y-15745888D01*
X13370182Y-15745888D02*
X13360658Y-15764936D01*
X13360658Y-15764936D02*
X13351134Y-15774460D01*
X13351134Y-15774460D02*
X13332086Y-15783984D01*
X13332086Y-15783984D02*
X13313039Y-15783984D01*
X13313039Y-15783984D02*
X13293991Y-15774460D01*
X13293991Y-15774460D02*
X13284467Y-15764936D01*
X13284467Y-15764936D02*
X13274943Y-15745888D01*
X13274943Y-15745888D02*
X13265420Y-15707793D01*
X13265420Y-15707793D02*
X13265420Y-15660174D01*
X13265420Y-15660174D02*
X13274943Y-15622079D01*
X13274943Y-15622079D02*
X13284467Y-15603031D01*
X13284467Y-15603031D02*
X13293991Y-15593508D01*
X13293991Y-15593508D02*
X13313039Y-15583984D01*
X13465420Y-15783984D02*
X13465420Y-15650650D01*
X13465420Y-15669698D02*
X13474943Y-15660174D01*
X13474943Y-15660174D02*
X13493991Y-15650650D01*
X13493991Y-15650650D02*
X13522563Y-15650650D01*
X13522563Y-15650650D02*
X13541610Y-15660174D01*
X13541610Y-15660174D02*
X13551134Y-15679222D01*
X13551134Y-15679222D02*
X13551134Y-15783984D01*
X13551134Y-15679222D02*
X13560658Y-15660174D01*
X13560658Y-15660174D02*
X13579705Y-15650650D01*
X13579705Y-15650650D02*
X13608277Y-15650650D01*
X13608277Y-15650650D02*
X13627324Y-15660174D01*
X13627324Y-15660174D02*
X13636848Y-15679222D01*
X13636848Y-15679222D02*
X13636848Y-15783984D01*
X13732086Y-15783984D02*
X13732086Y-15650650D01*
X13732086Y-15669698D02*
X13741610Y-15660174D01*
X13741610Y-15660174D02*
X13760658Y-15650650D01*
X13760658Y-15650650D02*
X13789229Y-15650650D01*
X13789229Y-15650650D02*
X13808277Y-15660174D01*
X13808277Y-15660174D02*
X13817801Y-15679222D01*
X13817801Y-15679222D02*
X13817801Y-15783984D01*
X13817801Y-15679222D02*
X13827324Y-15660174D01*
X13827324Y-15660174D02*
X13846372Y-15650650D01*
X13846372Y-15650650D02*
X13874943Y-15650650D01*
X13874943Y-15650650D02*
X13893991Y-15660174D01*
X13893991Y-15660174D02*
X13903515Y-15679222D01*
X13903515Y-15679222D02*
X13903515Y-15783984D01*
X14293991Y-15574460D02*
X14122563Y-15831603D01*
X14551134Y-15583984D02*
X14570182Y-15583984D01*
X14570182Y-15583984D02*
X14589229Y-15593508D01*
X14589229Y-15593508D02*
X14598753Y-15603031D01*
X14598753Y-15603031D02*
X14608277Y-15622079D01*
X14608277Y-15622079D02*
X14617801Y-15660174D01*
X14617801Y-15660174D02*
X14617801Y-15707793D01*
X14617801Y-15707793D02*
X14608277Y-15745888D01*
X14608277Y-15745888D02*
X14598753Y-15764936D01*
X14598753Y-15764936D02*
X14589229Y-15774460D01*
X14589229Y-15774460D02*
X14570182Y-15783984D01*
X14570182Y-15783984D02*
X14551134Y-15783984D01*
X14551134Y-15783984D02*
X14532086Y-15774460D01*
X14532086Y-15774460D02*
X14522563Y-15764936D01*
X14522563Y-15764936D02*
X14513039Y-15745888D01*
X14513039Y-15745888D02*
X14503515Y-15707793D01*
X14503515Y-15707793D02*
X14503515Y-15660174D01*
X14503515Y-15660174D02*
X14513039Y-15622079D01*
X14513039Y-15622079D02*
X14522563Y-15603031D01*
X14522563Y-15603031D02*
X14532086Y-15593508D01*
X14532086Y-15593508D02*
X14551134Y-15583984D01*
X14703515Y-15764936D02*
X14713039Y-15774460D01*
X14713039Y-15774460D02*
X14703515Y-15783984D01*
X14703515Y-15783984D02*
X14693991Y-15774460D01*
X14693991Y-15774460D02*
X14703515Y-15764936D01*
X14703515Y-15764936D02*
X14703515Y-15783984D01*
X14836848Y-15583984D02*
X14855896Y-15583984D01*
X14855896Y-15583984D02*
X14874944Y-15593508D01*
X14874944Y-15593508D02*
X14884467Y-15603031D01*
X14884467Y-15603031D02*
X14893991Y-15622079D01*
X14893991Y-15622079D02*
X14903515Y-15660174D01*
X14903515Y-15660174D02*
X14903515Y-15707793D01*
X14903515Y-15707793D02*
X14893991Y-15745888D01*
X14893991Y-15745888D02*
X14884467Y-15764936D01*
X14884467Y-15764936D02*
X14874944Y-15774460D01*
X14874944Y-15774460D02*
X14855896Y-15783984D01*
X14855896Y-15783984D02*
X14836848Y-15783984D01*
X14836848Y-15783984D02*
X14817801Y-15774460D01*
X14817801Y-15774460D02*
X14808277Y-15764936D01*
X14808277Y-15764936D02*
X14798753Y-15745888D01*
X14798753Y-15745888D02*
X14789229Y-15707793D01*
X14789229Y-15707793D02*
X14789229Y-15660174D01*
X14789229Y-15660174D02*
X14798753Y-15622079D01*
X14798753Y-15622079D02*
X14808277Y-15603031D01*
X14808277Y-15603031D02*
X14817801Y-15593508D01*
X14817801Y-15593508D02*
X14836848Y-15583984D01*
X14979706Y-15603031D02*
X14989229Y-15593508D01*
X14989229Y-15593508D02*
X15008277Y-15583984D01*
X15008277Y-15583984D02*
X15055896Y-15583984D01*
X15055896Y-15583984D02*
X15074944Y-15593508D01*
X15074944Y-15593508D02*
X15084467Y-15603031D01*
X15084467Y-15603031D02*
X15093991Y-15622079D01*
X15093991Y-15622079D02*
X15093991Y-15641127D01*
X15093991Y-15641127D02*
X15084467Y-15669698D01*
X15084467Y-15669698D02*
X14970182Y-15783984D01*
X14970182Y-15783984D02*
X15093991Y-15783984D01*
X15160658Y-15583984D02*
X15284467Y-15583984D01*
X15284467Y-15583984D02*
X15217801Y-15660174D01*
X15217801Y-15660174D02*
X15246372Y-15660174D01*
X15246372Y-15660174D02*
X15265420Y-15669698D01*
X15265420Y-15669698D02*
X15274944Y-15679222D01*
X15274944Y-15679222D02*
X15284467Y-15698269D01*
X15284467Y-15698269D02*
X15284467Y-15745888D01*
X15284467Y-15745888D02*
X15274944Y-15764936D01*
X15274944Y-15764936D02*
X15265420Y-15774460D01*
X15265420Y-15774460D02*
X15246372Y-15783984D01*
X15246372Y-15783984D02*
X15189229Y-15783984D01*
X15189229Y-15783984D02*
X15170182Y-15774460D01*
X15170182Y-15774460D02*
X15160658Y-15764936D01*
X15455896Y-15583984D02*
X15417801Y-15583984D01*
X15417801Y-15583984D02*
X15398753Y-15593508D01*
X15398753Y-15593508D02*
X15389229Y-15603031D01*
X15389229Y-15603031D02*
X15370182Y-15631603D01*
X15370182Y-15631603D02*
X15360658Y-15669698D01*
X15360658Y-15669698D02*
X15360658Y-15745888D01*
X15360658Y-15745888D02*
X15370182Y-15764936D01*
X15370182Y-15764936D02*
X15379706Y-15774460D01*
X15379706Y-15774460D02*
X15398753Y-15783984D01*
X15398753Y-15783984D02*
X15436848Y-15783984D01*
X15436848Y-15783984D02*
X15455896Y-15774460D01*
X15455896Y-15774460D02*
X15465420Y-15764936D01*
X15465420Y-15764936D02*
X15474944Y-15745888D01*
X15474944Y-15745888D02*
X15474944Y-15698269D01*
X15474944Y-15698269D02*
X15465420Y-15679222D01*
X15465420Y-15679222D02*
X15455896Y-15669698D01*
X15455896Y-15669698D02*
X15436848Y-15660174D01*
X15436848Y-15660174D02*
X15398753Y-15660174D01*
X15398753Y-15660174D02*
X15379706Y-15669698D01*
X15379706Y-15669698D02*
X15370182Y-15679222D01*
X15370182Y-15679222D02*
X15360658Y-15698269D01*
X15551134Y-15583984D02*
X15551134Y-15622079D01*
X15627325Y-15583984D02*
X15627325Y-15622079D01*
X15922563Y-15860174D02*
X15913039Y-15850650D01*
X15913039Y-15850650D02*
X15893991Y-15822079D01*
X15893991Y-15822079D02*
X15884468Y-15803031D01*
X15884468Y-15803031D02*
X15874944Y-15774460D01*
X15874944Y-15774460D02*
X15865420Y-15726841D01*
X15865420Y-15726841D02*
X15865420Y-15688746D01*
X15865420Y-15688746D02*
X15874944Y-15641127D01*
X15874944Y-15641127D02*
X15884468Y-15612555D01*
X15884468Y-15612555D02*
X15893991Y-15593508D01*
X15893991Y-15593508D02*
X15913039Y-15564936D01*
X15913039Y-15564936D02*
X15922563Y-15555412D01*
X16103515Y-15783984D02*
X15989229Y-15783984D01*
X16046372Y-15783984D02*
X16046372Y-15583984D01*
X16046372Y-15583984D02*
X16027325Y-15612555D01*
X16027325Y-15612555D02*
X16008277Y-15631603D01*
X16008277Y-15631603D02*
X15989229Y-15641127D01*
X16293991Y-15783984D02*
X16179706Y-15783984D01*
X16236848Y-15783984D02*
X16236848Y-15583984D01*
X16236848Y-15583984D02*
X16217801Y-15612555D01*
X16217801Y-15612555D02*
X16198753Y-15631603D01*
X16198753Y-15631603D02*
X16179706Y-15641127D01*
X16532087Y-15783984D02*
X16532087Y-15583984D01*
X16617801Y-15783984D02*
X16617801Y-15679222D01*
X16617801Y-15679222D02*
X16608277Y-15660174D01*
X16608277Y-15660174D02*
X16589230Y-15650650D01*
X16589230Y-15650650D02*
X16560658Y-15650650D01*
X16560658Y-15650650D02*
X16541610Y-15660174D01*
X16541610Y-15660174D02*
X16532087Y-15669698D01*
X16741610Y-15783984D02*
X16722563Y-15774460D01*
X16722563Y-15774460D02*
X16713039Y-15764936D01*
X16713039Y-15764936D02*
X16703515Y-15745888D01*
X16703515Y-15745888D02*
X16703515Y-15688746D01*
X16703515Y-15688746D02*
X16713039Y-15669698D01*
X16713039Y-15669698D02*
X16722563Y-15660174D01*
X16722563Y-15660174D02*
X16741610Y-15650650D01*
X16741610Y-15650650D02*
X16770182Y-15650650D01*
X16770182Y-15650650D02*
X16789230Y-15660174D01*
X16789230Y-15660174D02*
X16798753Y-15669698D01*
X16798753Y-15669698D02*
X16808277Y-15688746D01*
X16808277Y-15688746D02*
X16808277Y-15745888D01*
X16808277Y-15745888D02*
X16798753Y-15764936D01*
X16798753Y-15764936D02*
X16789230Y-15774460D01*
X16789230Y-15774460D02*
X16770182Y-15783984D01*
X16770182Y-15783984D02*
X16741610Y-15783984D01*
X16922563Y-15783984D02*
X16903515Y-15774460D01*
X16903515Y-15774460D02*
X16893992Y-15755412D01*
X16893992Y-15755412D02*
X16893992Y-15583984D01*
X17074944Y-15774460D02*
X17055896Y-15783984D01*
X17055896Y-15783984D02*
X17017801Y-15783984D01*
X17017801Y-15783984D02*
X16998753Y-15774460D01*
X16998753Y-15774460D02*
X16989230Y-15755412D01*
X16989230Y-15755412D02*
X16989230Y-15679222D01*
X16989230Y-15679222D02*
X16998753Y-15660174D01*
X16998753Y-15660174D02*
X17017801Y-15650650D01*
X17017801Y-15650650D02*
X17055896Y-15650650D01*
X17055896Y-15650650D02*
X17074944Y-15660174D01*
X17074944Y-15660174D02*
X17084468Y-15679222D01*
X17084468Y-15679222D02*
X17084468Y-15698269D01*
X17084468Y-15698269D02*
X16989230Y-15717317D01*
X17160658Y-15774460D02*
X17179706Y-15783984D01*
X17179706Y-15783984D02*
X17217801Y-15783984D01*
X17217801Y-15783984D02*
X17236849Y-15774460D01*
X17236849Y-15774460D02*
X17246373Y-15755412D01*
X17246373Y-15755412D02*
X17246373Y-15745888D01*
X17246373Y-15745888D02*
X17236849Y-15726841D01*
X17236849Y-15726841D02*
X17217801Y-15717317D01*
X17217801Y-15717317D02*
X17189230Y-15717317D01*
X17189230Y-15717317D02*
X17170182Y-15707793D01*
X17170182Y-15707793D02*
X17160658Y-15688746D01*
X17160658Y-15688746D02*
X17160658Y-15679222D01*
X17160658Y-15679222D02*
X17170182Y-15660174D01*
X17170182Y-15660174D02*
X17189230Y-15650650D01*
X17189230Y-15650650D02*
X17217801Y-15650650D01*
X17217801Y-15650650D02*
X17236849Y-15660174D01*
X17313039Y-15860174D02*
X17322563Y-15850650D01*
X17322563Y-15850650D02*
X17341611Y-15822079D01*
X17341611Y-15822079D02*
X17351134Y-15803031D01*
X17351134Y-15803031D02*
X17360658Y-15774460D01*
X17360658Y-15774460D02*
X17370182Y-15726841D01*
X17370182Y-15726841D02*
X17370182Y-15688746D01*
X17370182Y-15688746D02*
X17360658Y-15641127D01*
X17360658Y-15641127D02*
X17351134Y-15612555D01*
X17351134Y-15612555D02*
X17341611Y-15593508D01*
X17341611Y-15593508D02*
X17322563Y-15564936D01*
X17322563Y-15564936D02*
X17313039Y-15555412D01*
D12*
X12347500Y-15956500D02*
G75*
G02*
X12271300Y-15956500I-38100J0D01*
G01*
X12271300Y-15956500D02*
G75*
G02*
X12347500Y-15956500I38100J0D01*
G01*
D11*
X12646372Y-15847984D02*
X12665420Y-15847984D01*
X12665420Y-15847984D02*
X12684467Y-15857508D01*
X12684467Y-15857508D02*
X12693991Y-15867031D01*
X12693991Y-15867031D02*
X12703515Y-15886079D01*
X12703515Y-15886079D02*
X12713039Y-15924174D01*
X12713039Y-15924174D02*
X12713039Y-15971793D01*
X12713039Y-15971793D02*
X12703515Y-16009888D01*
X12703515Y-16009888D02*
X12693991Y-16028936D01*
X12693991Y-16028936D02*
X12684467Y-16038460D01*
X12684467Y-16038460D02*
X12665420Y-16047984D01*
X12665420Y-16047984D02*
X12646372Y-16047984D01*
X12646372Y-16047984D02*
X12627324Y-16038460D01*
X12627324Y-16038460D02*
X12617801Y-16028936D01*
X12617801Y-16028936D02*
X12608277Y-16009888D01*
X12608277Y-16009888D02*
X12598753Y-15971793D01*
X12598753Y-15971793D02*
X12598753Y-15924174D01*
X12598753Y-15924174D02*
X12608277Y-15886079D01*
X12608277Y-15886079D02*
X12617801Y-15867031D01*
X12617801Y-15867031D02*
X12627324Y-15857508D01*
X12627324Y-15857508D02*
X12646372Y-15847984D01*
X12798753Y-16028936D02*
X12808277Y-16038460D01*
X12808277Y-16038460D02*
X12798753Y-16047984D01*
X12798753Y-16047984D02*
X12789229Y-16038460D01*
X12789229Y-16038460D02*
X12798753Y-16028936D01*
X12798753Y-16028936D02*
X12798753Y-16047984D01*
X12874943Y-15847984D02*
X13008277Y-15847984D01*
X13008277Y-15847984D02*
X12922562Y-16047984D01*
X13170182Y-15847984D02*
X13132086Y-15847984D01*
X13132086Y-15847984D02*
X13113039Y-15857508D01*
X13113039Y-15857508D02*
X13103515Y-15867031D01*
X13103515Y-15867031D02*
X13084467Y-15895603D01*
X13084467Y-15895603D02*
X13074943Y-15933698D01*
X13074943Y-15933698D02*
X13074943Y-16009888D01*
X13074943Y-16009888D02*
X13084467Y-16028936D01*
X13084467Y-16028936D02*
X13093991Y-16038460D01*
X13093991Y-16038460D02*
X13113039Y-16047984D01*
X13113039Y-16047984D02*
X13151134Y-16047984D01*
X13151134Y-16047984D02*
X13170182Y-16038460D01*
X13170182Y-16038460D02*
X13179705Y-16028936D01*
X13179705Y-16028936D02*
X13189229Y-16009888D01*
X13189229Y-16009888D02*
X13189229Y-15962269D01*
X13189229Y-15962269D02*
X13179705Y-15943222D01*
X13179705Y-15943222D02*
X13170182Y-15933698D01*
X13170182Y-15933698D02*
X13151134Y-15924174D01*
X13151134Y-15924174D02*
X13113039Y-15924174D01*
X13113039Y-15924174D02*
X13093991Y-15933698D01*
X13093991Y-15933698D02*
X13084467Y-15943222D01*
X13084467Y-15943222D02*
X13074943Y-15962269D01*
X13265420Y-15867031D02*
X13274943Y-15857508D01*
X13274943Y-15857508D02*
X13293991Y-15847984D01*
X13293991Y-15847984D02*
X13341610Y-15847984D01*
X13341610Y-15847984D02*
X13360658Y-15857508D01*
X13360658Y-15857508D02*
X13370182Y-15867031D01*
X13370182Y-15867031D02*
X13379705Y-15886079D01*
X13379705Y-15886079D02*
X13379705Y-15905127D01*
X13379705Y-15905127D02*
X13370182Y-15933698D01*
X13370182Y-15933698D02*
X13255896Y-16047984D01*
X13255896Y-16047984D02*
X13379705Y-16047984D01*
X13465420Y-16047984D02*
X13465420Y-15914650D01*
X13465420Y-15933698D02*
X13474943Y-15924174D01*
X13474943Y-15924174D02*
X13493991Y-15914650D01*
X13493991Y-15914650D02*
X13522563Y-15914650D01*
X13522563Y-15914650D02*
X13541610Y-15924174D01*
X13541610Y-15924174D02*
X13551134Y-15943222D01*
X13551134Y-15943222D02*
X13551134Y-16047984D01*
X13551134Y-15943222D02*
X13560658Y-15924174D01*
X13560658Y-15924174D02*
X13579705Y-15914650D01*
X13579705Y-15914650D02*
X13608277Y-15914650D01*
X13608277Y-15914650D02*
X13627324Y-15924174D01*
X13627324Y-15924174D02*
X13636848Y-15943222D01*
X13636848Y-15943222D02*
X13636848Y-16047984D01*
X13732086Y-16047984D02*
X13732086Y-15914650D01*
X13732086Y-15933698D02*
X13741610Y-15924174D01*
X13741610Y-15924174D02*
X13760658Y-15914650D01*
X13760658Y-15914650D02*
X13789229Y-15914650D01*
X13789229Y-15914650D02*
X13808277Y-15924174D01*
X13808277Y-15924174D02*
X13817801Y-15943222D01*
X13817801Y-15943222D02*
X13817801Y-16047984D01*
X13817801Y-15943222D02*
X13827324Y-15924174D01*
X13827324Y-15924174D02*
X13846372Y-15914650D01*
X13846372Y-15914650D02*
X13874943Y-15914650D01*
X13874943Y-15914650D02*
X13893991Y-15924174D01*
X13893991Y-15924174D02*
X13903515Y-15943222D01*
X13903515Y-15943222D02*
X13903515Y-16047984D01*
X14293991Y-15838460D02*
X14122563Y-16095603D01*
X14551134Y-15847984D02*
X14570182Y-15847984D01*
X14570182Y-15847984D02*
X14589229Y-15857508D01*
X14589229Y-15857508D02*
X14598753Y-15867031D01*
X14598753Y-15867031D02*
X14608277Y-15886079D01*
X14608277Y-15886079D02*
X14617801Y-15924174D01*
X14617801Y-15924174D02*
X14617801Y-15971793D01*
X14617801Y-15971793D02*
X14608277Y-16009888D01*
X14608277Y-16009888D02*
X14598753Y-16028936D01*
X14598753Y-16028936D02*
X14589229Y-16038460D01*
X14589229Y-16038460D02*
X14570182Y-16047984D01*
X14570182Y-16047984D02*
X14551134Y-16047984D01*
X14551134Y-16047984D02*
X14532086Y-16038460D01*
X14532086Y-16038460D02*
X14522563Y-16028936D01*
X14522563Y-16028936D02*
X14513039Y-16009888D01*
X14513039Y-16009888D02*
X14503515Y-15971793D01*
X14503515Y-15971793D02*
X14503515Y-15924174D01*
X14503515Y-15924174D02*
X14513039Y-15886079D01*
X14513039Y-15886079D02*
X14522563Y-15867031D01*
X14522563Y-15867031D02*
X14532086Y-15857508D01*
X14532086Y-15857508D02*
X14551134Y-15847984D01*
X14703515Y-16028936D02*
X14713039Y-16038460D01*
X14713039Y-16038460D02*
X14703515Y-16047984D01*
X14703515Y-16047984D02*
X14693991Y-16038460D01*
X14693991Y-16038460D02*
X14703515Y-16028936D01*
X14703515Y-16028936D02*
X14703515Y-16047984D01*
X14836848Y-15847984D02*
X14855896Y-15847984D01*
X14855896Y-15847984D02*
X14874944Y-15857508D01*
X14874944Y-15857508D02*
X14884467Y-15867031D01*
X14884467Y-15867031D02*
X14893991Y-15886079D01*
X14893991Y-15886079D02*
X14903515Y-15924174D01*
X14903515Y-15924174D02*
X14903515Y-15971793D01*
X14903515Y-15971793D02*
X14893991Y-16009888D01*
X14893991Y-16009888D02*
X14884467Y-16028936D01*
X14884467Y-16028936D02*
X14874944Y-16038460D01*
X14874944Y-16038460D02*
X14855896Y-16047984D01*
X14855896Y-16047984D02*
X14836848Y-16047984D01*
X14836848Y-16047984D02*
X14817801Y-16038460D01*
X14817801Y-16038460D02*
X14808277Y-16028936D01*
X14808277Y-16028936D02*
X14798753Y-16009888D01*
X14798753Y-16009888D02*
X14789229Y-15971793D01*
X14789229Y-15971793D02*
X14789229Y-15924174D01*
X14789229Y-15924174D02*
X14798753Y-15886079D01*
X14798753Y-15886079D02*
X14808277Y-15867031D01*
X14808277Y-15867031D02*
X14817801Y-15857508D01*
X14817801Y-15857508D02*
X14836848Y-15847984D01*
X14970182Y-15847984D02*
X15093991Y-15847984D01*
X15093991Y-15847984D02*
X15027325Y-15924174D01*
X15027325Y-15924174D02*
X15055896Y-15924174D01*
X15055896Y-15924174D02*
X15074944Y-15933698D01*
X15074944Y-15933698D02*
X15084467Y-15943222D01*
X15084467Y-15943222D02*
X15093991Y-15962269D01*
X15093991Y-15962269D02*
X15093991Y-16009888D01*
X15093991Y-16009888D02*
X15084467Y-16028936D01*
X15084467Y-16028936D02*
X15074944Y-16038460D01*
X15074944Y-16038460D02*
X15055896Y-16047984D01*
X15055896Y-16047984D02*
X14998753Y-16047984D01*
X14998753Y-16047984D02*
X14979706Y-16038460D01*
X14979706Y-16038460D02*
X14970182Y-16028936D01*
X15217801Y-15847984D02*
X15236848Y-15847984D01*
X15236848Y-15847984D02*
X15255896Y-15857508D01*
X15255896Y-15857508D02*
X15265420Y-15867031D01*
X15265420Y-15867031D02*
X15274944Y-15886079D01*
X15274944Y-15886079D02*
X15284467Y-15924174D01*
X15284467Y-15924174D02*
X15284467Y-15971793D01*
X15284467Y-15971793D02*
X15274944Y-16009888D01*
X15274944Y-16009888D02*
X15265420Y-16028936D01*
X15265420Y-16028936D02*
X15255896Y-16038460D01*
X15255896Y-16038460D02*
X15236848Y-16047984D01*
X15236848Y-16047984D02*
X15217801Y-16047984D01*
X15217801Y-16047984D02*
X15198753Y-16038460D01*
X15198753Y-16038460D02*
X15189229Y-16028936D01*
X15189229Y-16028936D02*
X15179706Y-16009888D01*
X15179706Y-16009888D02*
X15170182Y-15971793D01*
X15170182Y-15971793D02*
X15170182Y-15924174D01*
X15170182Y-15924174D02*
X15179706Y-15886079D01*
X15179706Y-15886079D02*
X15189229Y-15867031D01*
X15189229Y-15867031D02*
X15198753Y-15857508D01*
X15198753Y-15857508D02*
X15217801Y-15847984D01*
X15408277Y-15847984D02*
X15427325Y-15847984D01*
X15427325Y-15847984D02*
X15446372Y-15857508D01*
X15446372Y-15857508D02*
X15455896Y-15867031D01*
X15455896Y-15867031D02*
X15465420Y-15886079D01*
X15465420Y-15886079D02*
X15474944Y-15924174D01*
X15474944Y-15924174D02*
X15474944Y-15971793D01*
X15474944Y-15971793D02*
X15465420Y-16009888D01*
X15465420Y-16009888D02*
X15455896Y-16028936D01*
X15455896Y-16028936D02*
X15446372Y-16038460D01*
X15446372Y-16038460D02*
X15427325Y-16047984D01*
X15427325Y-16047984D02*
X15408277Y-16047984D01*
X15408277Y-16047984D02*
X15389229Y-16038460D01*
X15389229Y-16038460D02*
X15379706Y-16028936D01*
X15379706Y-16028936D02*
X15370182Y-16009888D01*
X15370182Y-16009888D02*
X15360658Y-15971793D01*
X15360658Y-15971793D02*
X15360658Y-15924174D01*
X15360658Y-15924174D02*
X15370182Y-15886079D01*
X15370182Y-15886079D02*
X15379706Y-15867031D01*
X15379706Y-15867031D02*
X15389229Y-15857508D01*
X15389229Y-15857508D02*
X15408277Y-15847984D01*
X15551134Y-15847984D02*
X15551134Y-15886079D01*
X15627325Y-15847984D02*
X15627325Y-15886079D01*
X15922563Y-16124174D02*
X15913039Y-16114650D01*
X15913039Y-16114650D02*
X15893991Y-16086079D01*
X15893991Y-16086079D02*
X15884468Y-16067031D01*
X15884468Y-16067031D02*
X15874944Y-16038460D01*
X15874944Y-16038460D02*
X15865420Y-15990841D01*
X15865420Y-15990841D02*
X15865420Y-15952746D01*
X15865420Y-15952746D02*
X15874944Y-15905127D01*
X15874944Y-15905127D02*
X15884468Y-15876555D01*
X15884468Y-15876555D02*
X15893991Y-15857508D01*
X15893991Y-15857508D02*
X15913039Y-15828936D01*
X15913039Y-15828936D02*
X15922563Y-15819412D01*
X16084468Y-15914650D02*
X16084468Y-16047984D01*
X16036848Y-15838460D02*
X15989229Y-15981317D01*
X15989229Y-15981317D02*
X16113039Y-15981317D01*
X16341610Y-16047984D02*
X16341610Y-15847984D01*
X16427325Y-16047984D02*
X16427325Y-15943222D01*
X16427325Y-15943222D02*
X16417801Y-15924174D01*
X16417801Y-15924174D02*
X16398753Y-15914650D01*
X16398753Y-15914650D02*
X16370182Y-15914650D01*
X16370182Y-15914650D02*
X16351134Y-15924174D01*
X16351134Y-15924174D02*
X16341610Y-15933698D01*
X16551134Y-16047984D02*
X16532087Y-16038460D01*
X16532087Y-16038460D02*
X16522563Y-16028936D01*
X16522563Y-16028936D02*
X16513039Y-16009888D01*
X16513039Y-16009888D02*
X16513039Y-15952746D01*
X16513039Y-15952746D02*
X16522563Y-15933698D01*
X16522563Y-15933698D02*
X16532087Y-15924174D01*
X16532087Y-15924174D02*
X16551134Y-15914650D01*
X16551134Y-15914650D02*
X16579706Y-15914650D01*
X16579706Y-15914650D02*
X16598753Y-15924174D01*
X16598753Y-15924174D02*
X16608277Y-15933698D01*
X16608277Y-15933698D02*
X16617801Y-15952746D01*
X16617801Y-15952746D02*
X16617801Y-16009888D01*
X16617801Y-16009888D02*
X16608277Y-16028936D01*
X16608277Y-16028936D02*
X16598753Y-16038460D01*
X16598753Y-16038460D02*
X16579706Y-16047984D01*
X16579706Y-16047984D02*
X16551134Y-16047984D01*
X16732087Y-16047984D02*
X16713039Y-16038460D01*
X16713039Y-16038460D02*
X16703515Y-16019412D01*
X16703515Y-16019412D02*
X16703515Y-15847984D01*
X16884468Y-16038460D02*
X16865420Y-16047984D01*
X16865420Y-16047984D02*
X16827325Y-16047984D01*
X16827325Y-16047984D02*
X16808277Y-16038460D01*
X16808277Y-16038460D02*
X16798753Y-16019412D01*
X16798753Y-16019412D02*
X16798753Y-15943222D01*
X16798753Y-15943222D02*
X16808277Y-15924174D01*
X16808277Y-15924174D02*
X16827325Y-15914650D01*
X16827325Y-15914650D02*
X16865420Y-15914650D01*
X16865420Y-15914650D02*
X16884468Y-15924174D01*
X16884468Y-15924174D02*
X16893992Y-15943222D01*
X16893992Y-15943222D02*
X16893992Y-15962269D01*
X16893992Y-15962269D02*
X16798753Y-15981317D01*
X16970182Y-16038460D02*
X16989230Y-16047984D01*
X16989230Y-16047984D02*
X17027325Y-16047984D01*
X17027325Y-16047984D02*
X17046373Y-16038460D01*
X17046373Y-16038460D02*
X17055896Y-16019412D01*
X17055896Y-16019412D02*
X17055896Y-16009888D01*
X17055896Y-16009888D02*
X17046373Y-15990841D01*
X17046373Y-15990841D02*
X17027325Y-15981317D01*
X17027325Y-15981317D02*
X16998753Y-15981317D01*
X16998753Y-15981317D02*
X16979706Y-15971793D01*
X16979706Y-15971793D02*
X16970182Y-15952746D01*
X16970182Y-15952746D02*
X16970182Y-15943222D01*
X16970182Y-15943222D02*
X16979706Y-15924174D01*
X16979706Y-15924174D02*
X16998753Y-15914650D01*
X16998753Y-15914650D02*
X17027325Y-15914650D01*
X17027325Y-15914650D02*
X17046373Y-15924174D01*
X17122563Y-16124174D02*
X17132087Y-16114650D01*
X17132087Y-16114650D02*
X17151134Y-16086079D01*
X17151134Y-16086079D02*
X17160658Y-16067031D01*
X17160658Y-16067031D02*
X17170182Y-16038460D01*
X17170182Y-16038460D02*
X17179706Y-15990841D01*
X17179706Y-15990841D02*
X17179706Y-15952746D01*
X17179706Y-15952746D02*
X17170182Y-15905127D01*
X17170182Y-15905127D02*
X17160658Y-15876555D01*
X17160658Y-15876555D02*
X17151134Y-15857508D01*
X17151134Y-15857508D02*
X17132087Y-15828936D01*
X17132087Y-15828936D02*
X17122563Y-15819412D01*
D12*
X12307500Y-16180500D02*
X12307500Y-16260500D01*
X12267500Y-16220500D02*
X12347500Y-16220500D01*
D11*
X12646372Y-16111984D02*
X12665420Y-16111984D01*
X12665420Y-16111984D02*
X12684467Y-16121508D01*
X12684467Y-16121508D02*
X12693991Y-16131031D01*
X12693991Y-16131031D02*
X12703515Y-16150079D01*
X12703515Y-16150079D02*
X12713039Y-16188174D01*
X12713039Y-16188174D02*
X12713039Y-16235793D01*
X12713039Y-16235793D02*
X12703515Y-16273888D01*
X12703515Y-16273888D02*
X12693991Y-16292936D01*
X12693991Y-16292936D02*
X12684467Y-16302460D01*
X12684467Y-16302460D02*
X12665420Y-16311984D01*
X12665420Y-16311984D02*
X12646372Y-16311984D01*
X12646372Y-16311984D02*
X12627324Y-16302460D01*
X12627324Y-16302460D02*
X12617801Y-16292936D01*
X12617801Y-16292936D02*
X12608277Y-16273888D01*
X12608277Y-16273888D02*
X12598753Y-16235793D01*
X12598753Y-16235793D02*
X12598753Y-16188174D01*
X12598753Y-16188174D02*
X12608277Y-16150079D01*
X12608277Y-16150079D02*
X12617801Y-16131031D01*
X12617801Y-16131031D02*
X12627324Y-16121508D01*
X12627324Y-16121508D02*
X12646372Y-16111984D01*
X12798753Y-16292936D02*
X12808277Y-16302460D01*
X12808277Y-16302460D02*
X12798753Y-16311984D01*
X12798753Y-16311984D02*
X12789229Y-16302460D01*
X12789229Y-16302460D02*
X12798753Y-16292936D01*
X12798753Y-16292936D02*
X12798753Y-16311984D01*
X12922562Y-16197698D02*
X12903515Y-16188174D01*
X12903515Y-16188174D02*
X12893991Y-16178650D01*
X12893991Y-16178650D02*
X12884467Y-16159603D01*
X12884467Y-16159603D02*
X12884467Y-16150079D01*
X12884467Y-16150079D02*
X12893991Y-16131031D01*
X12893991Y-16131031D02*
X12903515Y-16121508D01*
X12903515Y-16121508D02*
X12922562Y-16111984D01*
X12922562Y-16111984D02*
X12960658Y-16111984D01*
X12960658Y-16111984D02*
X12979705Y-16121508D01*
X12979705Y-16121508D02*
X12989229Y-16131031D01*
X12989229Y-16131031D02*
X12998753Y-16150079D01*
X12998753Y-16150079D02*
X12998753Y-16159603D01*
X12998753Y-16159603D02*
X12989229Y-16178650D01*
X12989229Y-16178650D02*
X12979705Y-16188174D01*
X12979705Y-16188174D02*
X12960658Y-16197698D01*
X12960658Y-16197698D02*
X12922562Y-16197698D01*
X12922562Y-16197698D02*
X12903515Y-16207222D01*
X12903515Y-16207222D02*
X12893991Y-16216746D01*
X12893991Y-16216746D02*
X12884467Y-16235793D01*
X12884467Y-16235793D02*
X12884467Y-16273888D01*
X12884467Y-16273888D02*
X12893991Y-16292936D01*
X12893991Y-16292936D02*
X12903515Y-16302460D01*
X12903515Y-16302460D02*
X12922562Y-16311984D01*
X12922562Y-16311984D02*
X12960658Y-16311984D01*
X12960658Y-16311984D02*
X12979705Y-16302460D01*
X12979705Y-16302460D02*
X12989229Y-16292936D01*
X12989229Y-16292936D02*
X12998753Y-16273888D01*
X12998753Y-16273888D02*
X12998753Y-16235793D01*
X12998753Y-16235793D02*
X12989229Y-16216746D01*
X12989229Y-16216746D02*
X12979705Y-16207222D01*
X12979705Y-16207222D02*
X12960658Y-16197698D01*
X13122562Y-16111984D02*
X13141610Y-16111984D01*
X13141610Y-16111984D02*
X13160658Y-16121508D01*
X13160658Y-16121508D02*
X13170182Y-16131031D01*
X13170182Y-16131031D02*
X13179705Y-16150079D01*
X13179705Y-16150079D02*
X13189229Y-16188174D01*
X13189229Y-16188174D02*
X13189229Y-16235793D01*
X13189229Y-16235793D02*
X13179705Y-16273888D01*
X13179705Y-16273888D02*
X13170182Y-16292936D01*
X13170182Y-16292936D02*
X13160658Y-16302460D01*
X13160658Y-16302460D02*
X13141610Y-16311984D01*
X13141610Y-16311984D02*
X13122562Y-16311984D01*
X13122562Y-16311984D02*
X13103515Y-16302460D01*
X13103515Y-16302460D02*
X13093991Y-16292936D01*
X13093991Y-16292936D02*
X13084467Y-16273888D01*
X13084467Y-16273888D02*
X13074943Y-16235793D01*
X13074943Y-16235793D02*
X13074943Y-16188174D01*
X13074943Y-16188174D02*
X13084467Y-16150079D01*
X13084467Y-16150079D02*
X13093991Y-16131031D01*
X13093991Y-16131031D02*
X13103515Y-16121508D01*
X13103515Y-16121508D02*
X13122562Y-16111984D01*
X13313039Y-16111984D02*
X13332086Y-16111984D01*
X13332086Y-16111984D02*
X13351134Y-16121508D01*
X13351134Y-16121508D02*
X13360658Y-16131031D01*
X13360658Y-16131031D02*
X13370182Y-16150079D01*
X13370182Y-16150079D02*
X13379705Y-16188174D01*
X13379705Y-16188174D02*
X13379705Y-16235793D01*
X13379705Y-16235793D02*
X13370182Y-16273888D01*
X13370182Y-16273888D02*
X13360658Y-16292936D01*
X13360658Y-16292936D02*
X13351134Y-16302460D01*
X13351134Y-16302460D02*
X13332086Y-16311984D01*
X13332086Y-16311984D02*
X13313039Y-16311984D01*
X13313039Y-16311984D02*
X13293991Y-16302460D01*
X13293991Y-16302460D02*
X13284467Y-16292936D01*
X13284467Y-16292936D02*
X13274943Y-16273888D01*
X13274943Y-16273888D02*
X13265420Y-16235793D01*
X13265420Y-16235793D02*
X13265420Y-16188174D01*
X13265420Y-16188174D02*
X13274943Y-16150079D01*
X13274943Y-16150079D02*
X13284467Y-16131031D01*
X13284467Y-16131031D02*
X13293991Y-16121508D01*
X13293991Y-16121508D02*
X13313039Y-16111984D01*
X13465420Y-16311984D02*
X13465420Y-16178650D01*
X13465420Y-16197698D02*
X13474943Y-16188174D01*
X13474943Y-16188174D02*
X13493991Y-16178650D01*
X13493991Y-16178650D02*
X13522563Y-16178650D01*
X13522563Y-16178650D02*
X13541610Y-16188174D01*
X13541610Y-16188174D02*
X13551134Y-16207222D01*
X13551134Y-16207222D02*
X13551134Y-16311984D01*
X13551134Y-16207222D02*
X13560658Y-16188174D01*
X13560658Y-16188174D02*
X13579705Y-16178650D01*
X13579705Y-16178650D02*
X13608277Y-16178650D01*
X13608277Y-16178650D02*
X13627324Y-16188174D01*
X13627324Y-16188174D02*
X13636848Y-16207222D01*
X13636848Y-16207222D02*
X13636848Y-16311984D01*
X13732086Y-16311984D02*
X13732086Y-16178650D01*
X13732086Y-16197698D02*
X13741610Y-16188174D01*
X13741610Y-16188174D02*
X13760658Y-16178650D01*
X13760658Y-16178650D02*
X13789229Y-16178650D01*
X13789229Y-16178650D02*
X13808277Y-16188174D01*
X13808277Y-16188174D02*
X13817801Y-16207222D01*
X13817801Y-16207222D02*
X13817801Y-16311984D01*
X13817801Y-16207222D02*
X13827324Y-16188174D01*
X13827324Y-16188174D02*
X13846372Y-16178650D01*
X13846372Y-16178650D02*
X13874943Y-16178650D01*
X13874943Y-16178650D02*
X13893991Y-16188174D01*
X13893991Y-16188174D02*
X13903515Y-16207222D01*
X13903515Y-16207222D02*
X13903515Y-16311984D01*
X14293991Y-16102460D02*
X14122563Y-16359603D01*
X14551134Y-16111984D02*
X14570182Y-16111984D01*
X14570182Y-16111984D02*
X14589229Y-16121508D01*
X14589229Y-16121508D02*
X14598753Y-16131031D01*
X14598753Y-16131031D02*
X14608277Y-16150079D01*
X14608277Y-16150079D02*
X14617801Y-16188174D01*
X14617801Y-16188174D02*
X14617801Y-16235793D01*
X14617801Y-16235793D02*
X14608277Y-16273888D01*
X14608277Y-16273888D02*
X14598753Y-16292936D01*
X14598753Y-16292936D02*
X14589229Y-16302460D01*
X14589229Y-16302460D02*
X14570182Y-16311984D01*
X14570182Y-16311984D02*
X14551134Y-16311984D01*
X14551134Y-16311984D02*
X14532086Y-16302460D01*
X14532086Y-16302460D02*
X14522563Y-16292936D01*
X14522563Y-16292936D02*
X14513039Y-16273888D01*
X14513039Y-16273888D02*
X14503515Y-16235793D01*
X14503515Y-16235793D02*
X14503515Y-16188174D01*
X14503515Y-16188174D02*
X14513039Y-16150079D01*
X14513039Y-16150079D02*
X14522563Y-16131031D01*
X14522563Y-16131031D02*
X14532086Y-16121508D01*
X14532086Y-16121508D02*
X14551134Y-16111984D01*
X14703515Y-16292936D02*
X14713039Y-16302460D01*
X14713039Y-16302460D02*
X14703515Y-16311984D01*
X14703515Y-16311984D02*
X14693991Y-16302460D01*
X14693991Y-16302460D02*
X14703515Y-16292936D01*
X14703515Y-16292936D02*
X14703515Y-16311984D01*
X14836848Y-16111984D02*
X14855896Y-16111984D01*
X14855896Y-16111984D02*
X14874944Y-16121508D01*
X14874944Y-16121508D02*
X14884467Y-16131031D01*
X14884467Y-16131031D02*
X14893991Y-16150079D01*
X14893991Y-16150079D02*
X14903515Y-16188174D01*
X14903515Y-16188174D02*
X14903515Y-16235793D01*
X14903515Y-16235793D02*
X14893991Y-16273888D01*
X14893991Y-16273888D02*
X14884467Y-16292936D01*
X14884467Y-16292936D02*
X14874944Y-16302460D01*
X14874944Y-16302460D02*
X14855896Y-16311984D01*
X14855896Y-16311984D02*
X14836848Y-16311984D01*
X14836848Y-16311984D02*
X14817801Y-16302460D01*
X14817801Y-16302460D02*
X14808277Y-16292936D01*
X14808277Y-16292936D02*
X14798753Y-16273888D01*
X14798753Y-16273888D02*
X14789229Y-16235793D01*
X14789229Y-16235793D02*
X14789229Y-16188174D01*
X14789229Y-16188174D02*
X14798753Y-16150079D01*
X14798753Y-16150079D02*
X14808277Y-16131031D01*
X14808277Y-16131031D02*
X14817801Y-16121508D01*
X14817801Y-16121508D02*
X14836848Y-16111984D01*
X14970182Y-16111984D02*
X15093991Y-16111984D01*
X15093991Y-16111984D02*
X15027325Y-16188174D01*
X15027325Y-16188174D02*
X15055896Y-16188174D01*
X15055896Y-16188174D02*
X15074944Y-16197698D01*
X15074944Y-16197698D02*
X15084467Y-16207222D01*
X15084467Y-16207222D02*
X15093991Y-16226269D01*
X15093991Y-16226269D02*
X15093991Y-16273888D01*
X15093991Y-16273888D02*
X15084467Y-16292936D01*
X15084467Y-16292936D02*
X15074944Y-16302460D01*
X15074944Y-16302460D02*
X15055896Y-16311984D01*
X15055896Y-16311984D02*
X14998753Y-16311984D01*
X14998753Y-16311984D02*
X14979706Y-16302460D01*
X14979706Y-16302460D02*
X14970182Y-16292936D01*
X15284467Y-16311984D02*
X15170182Y-16311984D01*
X15227325Y-16311984D02*
X15227325Y-16111984D01*
X15227325Y-16111984D02*
X15208277Y-16140555D01*
X15208277Y-16140555D02*
X15189229Y-16159603D01*
X15189229Y-16159603D02*
X15170182Y-16169127D01*
X15465420Y-16111984D02*
X15370182Y-16111984D01*
X15370182Y-16111984D02*
X15360658Y-16207222D01*
X15360658Y-16207222D02*
X15370182Y-16197698D01*
X15370182Y-16197698D02*
X15389229Y-16188174D01*
X15389229Y-16188174D02*
X15436848Y-16188174D01*
X15436848Y-16188174D02*
X15455896Y-16197698D01*
X15455896Y-16197698D02*
X15465420Y-16207222D01*
X15465420Y-16207222D02*
X15474944Y-16226269D01*
X15474944Y-16226269D02*
X15474944Y-16273888D01*
X15474944Y-16273888D02*
X15465420Y-16292936D01*
X15465420Y-16292936D02*
X15455896Y-16302460D01*
X15455896Y-16302460D02*
X15436848Y-16311984D01*
X15436848Y-16311984D02*
X15389229Y-16311984D01*
X15389229Y-16311984D02*
X15370182Y-16302460D01*
X15370182Y-16302460D02*
X15360658Y-16292936D01*
X15551134Y-16111984D02*
X15551134Y-16150079D01*
X15627325Y-16111984D02*
X15627325Y-16150079D01*
X15922563Y-16388174D02*
X15913039Y-16378650D01*
X15913039Y-16378650D02*
X15893991Y-16350079D01*
X15893991Y-16350079D02*
X15884468Y-16331031D01*
X15884468Y-16331031D02*
X15874944Y-16302460D01*
X15874944Y-16302460D02*
X15865420Y-16254841D01*
X15865420Y-16254841D02*
X15865420Y-16216746D01*
X15865420Y-16216746D02*
X15874944Y-16169127D01*
X15874944Y-16169127D02*
X15884468Y-16140555D01*
X15884468Y-16140555D02*
X15893991Y-16121508D01*
X15893991Y-16121508D02*
X15913039Y-16092936D01*
X15913039Y-16092936D02*
X15922563Y-16083412D01*
X16084468Y-16178650D02*
X16084468Y-16311984D01*
X16036848Y-16102460D02*
X15989229Y-16245317D01*
X15989229Y-16245317D02*
X16113039Y-16245317D01*
X16179706Y-16131031D02*
X16189229Y-16121508D01*
X16189229Y-16121508D02*
X16208277Y-16111984D01*
X16208277Y-16111984D02*
X16255896Y-16111984D01*
X16255896Y-16111984D02*
X16274944Y-16121508D01*
X16274944Y-16121508D02*
X16284468Y-16131031D01*
X16284468Y-16131031D02*
X16293991Y-16150079D01*
X16293991Y-16150079D02*
X16293991Y-16169127D01*
X16293991Y-16169127D02*
X16284468Y-16197698D01*
X16284468Y-16197698D02*
X16170182Y-16311984D01*
X16170182Y-16311984D02*
X16293991Y-16311984D01*
X16532087Y-16311984D02*
X16532087Y-16111984D01*
X16617801Y-16311984D02*
X16617801Y-16207222D01*
X16617801Y-16207222D02*
X16608277Y-16188174D01*
X16608277Y-16188174D02*
X16589230Y-16178650D01*
X16589230Y-16178650D02*
X16560658Y-16178650D01*
X16560658Y-16178650D02*
X16541610Y-16188174D01*
X16541610Y-16188174D02*
X16532087Y-16197698D01*
X16741610Y-16311984D02*
X16722563Y-16302460D01*
X16722563Y-16302460D02*
X16713039Y-16292936D01*
X16713039Y-16292936D02*
X16703515Y-16273888D01*
X16703515Y-16273888D02*
X16703515Y-16216746D01*
X16703515Y-16216746D02*
X16713039Y-16197698D01*
X16713039Y-16197698D02*
X16722563Y-16188174D01*
X16722563Y-16188174D02*
X16741610Y-16178650D01*
X16741610Y-16178650D02*
X16770182Y-16178650D01*
X16770182Y-16178650D02*
X16789230Y-16188174D01*
X16789230Y-16188174D02*
X16798753Y-16197698D01*
X16798753Y-16197698D02*
X16808277Y-16216746D01*
X16808277Y-16216746D02*
X16808277Y-16273888D01*
X16808277Y-16273888D02*
X16798753Y-16292936D01*
X16798753Y-16292936D02*
X16789230Y-16302460D01*
X16789230Y-16302460D02*
X16770182Y-16311984D01*
X16770182Y-16311984D02*
X16741610Y-16311984D01*
X16922563Y-16311984D02*
X16903515Y-16302460D01*
X16903515Y-16302460D02*
X16893992Y-16283412D01*
X16893992Y-16283412D02*
X16893992Y-16111984D01*
X17074944Y-16302460D02*
X17055896Y-16311984D01*
X17055896Y-16311984D02*
X17017801Y-16311984D01*
X17017801Y-16311984D02*
X16998753Y-16302460D01*
X16998753Y-16302460D02*
X16989230Y-16283412D01*
X16989230Y-16283412D02*
X16989230Y-16207222D01*
X16989230Y-16207222D02*
X16998753Y-16188174D01*
X16998753Y-16188174D02*
X17017801Y-16178650D01*
X17017801Y-16178650D02*
X17055896Y-16178650D01*
X17055896Y-16178650D02*
X17074944Y-16188174D01*
X17074944Y-16188174D02*
X17084468Y-16207222D01*
X17084468Y-16207222D02*
X17084468Y-16226269D01*
X17084468Y-16226269D02*
X16989230Y-16245317D01*
X17160658Y-16302460D02*
X17179706Y-16311984D01*
X17179706Y-16311984D02*
X17217801Y-16311984D01*
X17217801Y-16311984D02*
X17236849Y-16302460D01*
X17236849Y-16302460D02*
X17246373Y-16283412D01*
X17246373Y-16283412D02*
X17246373Y-16273888D01*
X17246373Y-16273888D02*
X17236849Y-16254841D01*
X17236849Y-16254841D02*
X17217801Y-16245317D01*
X17217801Y-16245317D02*
X17189230Y-16245317D01*
X17189230Y-16245317D02*
X17170182Y-16235793D01*
X17170182Y-16235793D02*
X17160658Y-16216746D01*
X17160658Y-16216746D02*
X17160658Y-16207222D01*
X17160658Y-16207222D02*
X17170182Y-16188174D01*
X17170182Y-16188174D02*
X17189230Y-16178650D01*
X17189230Y-16178650D02*
X17217801Y-16178650D01*
X17217801Y-16178650D02*
X17236849Y-16188174D01*
X17313039Y-16388174D02*
X17322563Y-16378650D01*
X17322563Y-16378650D02*
X17341611Y-16350079D01*
X17341611Y-16350079D02*
X17351134Y-16331031D01*
X17351134Y-16331031D02*
X17360658Y-16302460D01*
X17360658Y-16302460D02*
X17370182Y-16254841D01*
X17370182Y-16254841D02*
X17370182Y-16216746D01*
X17370182Y-16216746D02*
X17360658Y-16169127D01*
X17360658Y-16169127D02*
X17351134Y-16140555D01*
X17351134Y-16140555D02*
X17341611Y-16121508D01*
X17341611Y-16121508D02*
X17322563Y-16092936D01*
X17322563Y-16092936D02*
X17313039Y-16083412D01*
D12*
X12334320Y-16516320D02*
X12334320Y-16452680D01*
X12270680Y-16452680D01*
X12270680Y-16516320D01*
X12334320Y-16516320D01*
D11*
X12646372Y-16375984D02*
X12665420Y-16375984D01*
X12665420Y-16375984D02*
X12684467Y-16385508D01*
X12684467Y-16385508D02*
X12693991Y-16395031D01*
X12693991Y-16395031D02*
X12703515Y-16414079D01*
X12703515Y-16414079D02*
X12713039Y-16452174D01*
X12713039Y-16452174D02*
X12713039Y-16499793D01*
X12713039Y-16499793D02*
X12703515Y-16537888D01*
X12703515Y-16537888D02*
X12693991Y-16556936D01*
X12693991Y-16556936D02*
X12684467Y-16566460D01*
X12684467Y-16566460D02*
X12665420Y-16575984D01*
X12665420Y-16575984D02*
X12646372Y-16575984D01*
X12646372Y-16575984D02*
X12627324Y-16566460D01*
X12627324Y-16566460D02*
X12617801Y-16556936D01*
X12617801Y-16556936D02*
X12608277Y-16537888D01*
X12608277Y-16537888D02*
X12598753Y-16499793D01*
X12598753Y-16499793D02*
X12598753Y-16452174D01*
X12598753Y-16452174D02*
X12608277Y-16414079D01*
X12608277Y-16414079D02*
X12617801Y-16395031D01*
X12617801Y-16395031D02*
X12627324Y-16385508D01*
X12627324Y-16385508D02*
X12646372Y-16375984D01*
X12798753Y-16556936D02*
X12808277Y-16566460D01*
X12808277Y-16566460D02*
X12798753Y-16575984D01*
X12798753Y-16575984D02*
X12789229Y-16566460D01*
X12789229Y-16566460D02*
X12798753Y-16556936D01*
X12798753Y-16556936D02*
X12798753Y-16575984D01*
X12903515Y-16575984D02*
X12941610Y-16575984D01*
X12941610Y-16575984D02*
X12960658Y-16566460D01*
X12960658Y-16566460D02*
X12970182Y-16556936D01*
X12970182Y-16556936D02*
X12989229Y-16528365D01*
X12989229Y-16528365D02*
X12998753Y-16490269D01*
X12998753Y-16490269D02*
X12998753Y-16414079D01*
X12998753Y-16414079D02*
X12989229Y-16395031D01*
X12989229Y-16395031D02*
X12979705Y-16385508D01*
X12979705Y-16385508D02*
X12960658Y-16375984D01*
X12960658Y-16375984D02*
X12922562Y-16375984D01*
X12922562Y-16375984D02*
X12903515Y-16385508D01*
X12903515Y-16385508D02*
X12893991Y-16395031D01*
X12893991Y-16395031D02*
X12884467Y-16414079D01*
X12884467Y-16414079D02*
X12884467Y-16461698D01*
X12884467Y-16461698D02*
X12893991Y-16480746D01*
X12893991Y-16480746D02*
X12903515Y-16490269D01*
X12903515Y-16490269D02*
X12922562Y-16499793D01*
X12922562Y-16499793D02*
X12960658Y-16499793D01*
X12960658Y-16499793D02*
X12979705Y-16490269D01*
X12979705Y-16490269D02*
X12989229Y-16480746D01*
X12989229Y-16480746D02*
X12998753Y-16461698D01*
X13122562Y-16375984D02*
X13141610Y-16375984D01*
X13141610Y-16375984D02*
X13160658Y-16385508D01*
X13160658Y-16385508D02*
X13170182Y-16395031D01*
X13170182Y-16395031D02*
X13179705Y-16414079D01*
X13179705Y-16414079D02*
X13189229Y-16452174D01*
X13189229Y-16452174D02*
X13189229Y-16499793D01*
X13189229Y-16499793D02*
X13179705Y-16537888D01*
X13179705Y-16537888D02*
X13170182Y-16556936D01*
X13170182Y-16556936D02*
X13160658Y-16566460D01*
X13160658Y-16566460D02*
X13141610Y-16575984D01*
X13141610Y-16575984D02*
X13122562Y-16575984D01*
X13122562Y-16575984D02*
X13103515Y-16566460D01*
X13103515Y-16566460D02*
X13093991Y-16556936D01*
X13093991Y-16556936D02*
X13084467Y-16537888D01*
X13084467Y-16537888D02*
X13074943Y-16499793D01*
X13074943Y-16499793D02*
X13074943Y-16452174D01*
X13074943Y-16452174D02*
X13084467Y-16414079D01*
X13084467Y-16414079D02*
X13093991Y-16395031D01*
X13093991Y-16395031D02*
X13103515Y-16385508D01*
X13103515Y-16385508D02*
X13122562Y-16375984D01*
X13313039Y-16375984D02*
X13332086Y-16375984D01*
X13332086Y-16375984D02*
X13351134Y-16385508D01*
X13351134Y-16385508D02*
X13360658Y-16395031D01*
X13360658Y-16395031D02*
X13370182Y-16414079D01*
X13370182Y-16414079D02*
X13379705Y-16452174D01*
X13379705Y-16452174D02*
X13379705Y-16499793D01*
X13379705Y-16499793D02*
X13370182Y-16537888D01*
X13370182Y-16537888D02*
X13360658Y-16556936D01*
X13360658Y-16556936D02*
X13351134Y-16566460D01*
X13351134Y-16566460D02*
X13332086Y-16575984D01*
X13332086Y-16575984D02*
X13313039Y-16575984D01*
X13313039Y-16575984D02*
X13293991Y-16566460D01*
X13293991Y-16566460D02*
X13284467Y-16556936D01*
X13284467Y-16556936D02*
X13274943Y-16537888D01*
X13274943Y-16537888D02*
X13265420Y-16499793D01*
X13265420Y-16499793D02*
X13265420Y-16452174D01*
X13265420Y-16452174D02*
X13274943Y-16414079D01*
X13274943Y-16414079D02*
X13284467Y-16395031D01*
X13284467Y-16395031D02*
X13293991Y-16385508D01*
X13293991Y-16385508D02*
X13313039Y-16375984D01*
X13465420Y-16575984D02*
X13465420Y-16442650D01*
X13465420Y-16461698D02*
X13474943Y-16452174D01*
X13474943Y-16452174D02*
X13493991Y-16442650D01*
X13493991Y-16442650D02*
X13522563Y-16442650D01*
X13522563Y-16442650D02*
X13541610Y-16452174D01*
X13541610Y-16452174D02*
X13551134Y-16471222D01*
X13551134Y-16471222D02*
X13551134Y-16575984D01*
X13551134Y-16471222D02*
X13560658Y-16452174D01*
X13560658Y-16452174D02*
X13579705Y-16442650D01*
X13579705Y-16442650D02*
X13608277Y-16442650D01*
X13608277Y-16442650D02*
X13627324Y-16452174D01*
X13627324Y-16452174D02*
X13636848Y-16471222D01*
X13636848Y-16471222D02*
X13636848Y-16575984D01*
X13732086Y-16575984D02*
X13732086Y-16442650D01*
X13732086Y-16461698D02*
X13741610Y-16452174D01*
X13741610Y-16452174D02*
X13760658Y-16442650D01*
X13760658Y-16442650D02*
X13789229Y-16442650D01*
X13789229Y-16442650D02*
X13808277Y-16452174D01*
X13808277Y-16452174D02*
X13817801Y-16471222D01*
X13817801Y-16471222D02*
X13817801Y-16575984D01*
X13817801Y-16471222D02*
X13827324Y-16452174D01*
X13827324Y-16452174D02*
X13846372Y-16442650D01*
X13846372Y-16442650D02*
X13874943Y-16442650D01*
X13874943Y-16442650D02*
X13893991Y-16452174D01*
X13893991Y-16452174D02*
X13903515Y-16471222D01*
X13903515Y-16471222D02*
X13903515Y-16575984D01*
X14293991Y-16366460D02*
X14122563Y-16623603D01*
X14551134Y-16375984D02*
X14570182Y-16375984D01*
X14570182Y-16375984D02*
X14589229Y-16385508D01*
X14589229Y-16385508D02*
X14598753Y-16395031D01*
X14598753Y-16395031D02*
X14608277Y-16414079D01*
X14608277Y-16414079D02*
X14617801Y-16452174D01*
X14617801Y-16452174D02*
X14617801Y-16499793D01*
X14617801Y-16499793D02*
X14608277Y-16537888D01*
X14608277Y-16537888D02*
X14598753Y-16556936D01*
X14598753Y-16556936D02*
X14589229Y-16566460D01*
X14589229Y-16566460D02*
X14570182Y-16575984D01*
X14570182Y-16575984D02*
X14551134Y-16575984D01*
X14551134Y-16575984D02*
X14532086Y-16566460D01*
X14532086Y-16566460D02*
X14522563Y-16556936D01*
X14522563Y-16556936D02*
X14513039Y-16537888D01*
X14513039Y-16537888D02*
X14503515Y-16499793D01*
X14503515Y-16499793D02*
X14503515Y-16452174D01*
X14503515Y-16452174D02*
X14513039Y-16414079D01*
X14513039Y-16414079D02*
X14522563Y-16395031D01*
X14522563Y-16395031D02*
X14532086Y-16385508D01*
X14532086Y-16385508D02*
X14551134Y-16375984D01*
X14703515Y-16556936D02*
X14713039Y-16566460D01*
X14713039Y-16566460D02*
X14703515Y-16575984D01*
X14703515Y-16575984D02*
X14693991Y-16566460D01*
X14693991Y-16566460D02*
X14703515Y-16556936D01*
X14703515Y-16556936D02*
X14703515Y-16575984D01*
X14836848Y-16375984D02*
X14855896Y-16375984D01*
X14855896Y-16375984D02*
X14874944Y-16385508D01*
X14874944Y-16385508D02*
X14884467Y-16395031D01*
X14884467Y-16395031D02*
X14893991Y-16414079D01*
X14893991Y-16414079D02*
X14903515Y-16452174D01*
X14903515Y-16452174D02*
X14903515Y-16499793D01*
X14903515Y-16499793D02*
X14893991Y-16537888D01*
X14893991Y-16537888D02*
X14884467Y-16556936D01*
X14884467Y-16556936D02*
X14874944Y-16566460D01*
X14874944Y-16566460D02*
X14855896Y-16575984D01*
X14855896Y-16575984D02*
X14836848Y-16575984D01*
X14836848Y-16575984D02*
X14817801Y-16566460D01*
X14817801Y-16566460D02*
X14808277Y-16556936D01*
X14808277Y-16556936D02*
X14798753Y-16537888D01*
X14798753Y-16537888D02*
X14789229Y-16499793D01*
X14789229Y-16499793D02*
X14789229Y-16452174D01*
X14789229Y-16452174D02*
X14798753Y-16414079D01*
X14798753Y-16414079D02*
X14808277Y-16395031D01*
X14808277Y-16395031D02*
X14817801Y-16385508D01*
X14817801Y-16385508D02*
X14836848Y-16375984D01*
X14970182Y-16375984D02*
X15093991Y-16375984D01*
X15093991Y-16375984D02*
X15027325Y-16452174D01*
X15027325Y-16452174D02*
X15055896Y-16452174D01*
X15055896Y-16452174D02*
X15074944Y-16461698D01*
X15074944Y-16461698D02*
X15084467Y-16471222D01*
X15084467Y-16471222D02*
X15093991Y-16490269D01*
X15093991Y-16490269D02*
X15093991Y-16537888D01*
X15093991Y-16537888D02*
X15084467Y-16556936D01*
X15084467Y-16556936D02*
X15074944Y-16566460D01*
X15074944Y-16566460D02*
X15055896Y-16575984D01*
X15055896Y-16575984D02*
X14998753Y-16575984D01*
X14998753Y-16575984D02*
X14979706Y-16566460D01*
X14979706Y-16566460D02*
X14970182Y-16556936D01*
X15274944Y-16375984D02*
X15179706Y-16375984D01*
X15179706Y-16375984D02*
X15170182Y-16471222D01*
X15170182Y-16471222D02*
X15179706Y-16461698D01*
X15179706Y-16461698D02*
X15198753Y-16452174D01*
X15198753Y-16452174D02*
X15246372Y-16452174D01*
X15246372Y-16452174D02*
X15265420Y-16461698D01*
X15265420Y-16461698D02*
X15274944Y-16471222D01*
X15274944Y-16471222D02*
X15284467Y-16490269D01*
X15284467Y-16490269D02*
X15284467Y-16537888D01*
X15284467Y-16537888D02*
X15274944Y-16556936D01*
X15274944Y-16556936D02*
X15265420Y-16566460D01*
X15265420Y-16566460D02*
X15246372Y-16575984D01*
X15246372Y-16575984D02*
X15198753Y-16575984D01*
X15198753Y-16575984D02*
X15179706Y-16566460D01*
X15179706Y-16566460D02*
X15170182Y-16556936D01*
X15455896Y-16442650D02*
X15455896Y-16575984D01*
X15408277Y-16366460D02*
X15360658Y-16509317D01*
X15360658Y-16509317D02*
X15484467Y-16509317D01*
X15551134Y-16375984D02*
X15551134Y-16414079D01*
X15627325Y-16375984D02*
X15627325Y-16414079D01*
X15922563Y-16652174D02*
X15913039Y-16642650D01*
X15913039Y-16642650D02*
X15893991Y-16614079D01*
X15893991Y-16614079D02*
X15884468Y-16595031D01*
X15884468Y-16595031D02*
X15874944Y-16566460D01*
X15874944Y-16566460D02*
X15865420Y-16518841D01*
X15865420Y-16518841D02*
X15865420Y-16480746D01*
X15865420Y-16480746D02*
X15874944Y-16433127D01*
X15874944Y-16433127D02*
X15884468Y-16404555D01*
X15884468Y-16404555D02*
X15893991Y-16385508D01*
X15893991Y-16385508D02*
X15913039Y-16356936D01*
X15913039Y-16356936D02*
X15922563Y-16347412D01*
X16084468Y-16442650D02*
X16084468Y-16575984D01*
X16036848Y-16366460D02*
X15989229Y-16509317D01*
X15989229Y-16509317D02*
X16113039Y-16509317D01*
X16341610Y-16575984D02*
X16341610Y-16375984D01*
X16427325Y-16575984D02*
X16427325Y-16471222D01*
X16427325Y-16471222D02*
X16417801Y-16452174D01*
X16417801Y-16452174D02*
X16398753Y-16442650D01*
X16398753Y-16442650D02*
X16370182Y-16442650D01*
X16370182Y-16442650D02*
X16351134Y-16452174D01*
X16351134Y-16452174D02*
X16341610Y-16461698D01*
X16551134Y-16575984D02*
X16532087Y-16566460D01*
X16532087Y-16566460D02*
X16522563Y-16556936D01*
X16522563Y-16556936D02*
X16513039Y-16537888D01*
X16513039Y-16537888D02*
X16513039Y-16480746D01*
X16513039Y-16480746D02*
X16522563Y-16461698D01*
X16522563Y-16461698D02*
X16532087Y-16452174D01*
X16532087Y-16452174D02*
X16551134Y-16442650D01*
X16551134Y-16442650D02*
X16579706Y-16442650D01*
X16579706Y-16442650D02*
X16598753Y-16452174D01*
X16598753Y-16452174D02*
X16608277Y-16461698D01*
X16608277Y-16461698D02*
X16617801Y-16480746D01*
X16617801Y-16480746D02*
X16617801Y-16537888D01*
X16617801Y-16537888D02*
X16608277Y-16556936D01*
X16608277Y-16556936D02*
X16598753Y-16566460D01*
X16598753Y-16566460D02*
X16579706Y-16575984D01*
X16579706Y-16575984D02*
X16551134Y-16575984D01*
X16732087Y-16575984D02*
X16713039Y-16566460D01*
X16713039Y-16566460D02*
X16703515Y-16547412D01*
X16703515Y-16547412D02*
X16703515Y-16375984D01*
X16884468Y-16566460D02*
X16865420Y-16575984D01*
X16865420Y-16575984D02*
X16827325Y-16575984D01*
X16827325Y-16575984D02*
X16808277Y-16566460D01*
X16808277Y-16566460D02*
X16798753Y-16547412D01*
X16798753Y-16547412D02*
X16798753Y-16471222D01*
X16798753Y-16471222D02*
X16808277Y-16452174D01*
X16808277Y-16452174D02*
X16827325Y-16442650D01*
X16827325Y-16442650D02*
X16865420Y-16442650D01*
X16865420Y-16442650D02*
X16884468Y-16452174D01*
X16884468Y-16452174D02*
X16893992Y-16471222D01*
X16893992Y-16471222D02*
X16893992Y-16490269D01*
X16893992Y-16490269D02*
X16798753Y-16509317D01*
X16970182Y-16566460D02*
X16989230Y-16575984D01*
X16989230Y-16575984D02*
X17027325Y-16575984D01*
X17027325Y-16575984D02*
X17046373Y-16566460D01*
X17046373Y-16566460D02*
X17055896Y-16547412D01*
X17055896Y-16547412D02*
X17055896Y-16537888D01*
X17055896Y-16537888D02*
X17046373Y-16518841D01*
X17046373Y-16518841D02*
X17027325Y-16509317D01*
X17027325Y-16509317D02*
X16998753Y-16509317D01*
X16998753Y-16509317D02*
X16979706Y-16499793D01*
X16979706Y-16499793D02*
X16970182Y-16480746D01*
X16970182Y-16480746D02*
X16970182Y-16471222D01*
X16970182Y-16471222D02*
X16979706Y-16452174D01*
X16979706Y-16452174D02*
X16998753Y-16442650D01*
X16998753Y-16442650D02*
X17027325Y-16442650D01*
X17027325Y-16442650D02*
X17046373Y-16452174D01*
X17122563Y-16652174D02*
X17132087Y-16642650D01*
X17132087Y-16642650D02*
X17151134Y-16614079D01*
X17151134Y-16614079D02*
X17160658Y-16595031D01*
X17160658Y-16595031D02*
X17170182Y-16566460D01*
X17170182Y-16566460D02*
X17179706Y-16518841D01*
X17179706Y-16518841D02*
X17179706Y-16480746D01*
X17179706Y-16480746D02*
X17170182Y-16433127D01*
X17170182Y-16433127D02*
X17160658Y-16404555D01*
X17160658Y-16404555D02*
X17151134Y-16385508D01*
X17151134Y-16385508D02*
X17132087Y-16356936D01*
X17132087Y-16356936D02*
X17122563Y-16347412D01*
D12*
X12297500Y-16798500D02*
X12347500Y-16748500D01*
X12297500Y-16698500D01*
X12247500Y-16748500D01*
X12297500Y-16798500D01*
D11*
X12713039Y-16839984D02*
X12598753Y-16839984D01*
X12655896Y-16839984D02*
X12655896Y-16639984D01*
X12655896Y-16639984D02*
X12636848Y-16668555D01*
X12636848Y-16668555D02*
X12617801Y-16687603D01*
X12617801Y-16687603D02*
X12598753Y-16697127D01*
X12798753Y-16820936D02*
X12808277Y-16830460D01*
X12808277Y-16830460D02*
X12798753Y-16839984D01*
X12798753Y-16839984D02*
X12789229Y-16830460D01*
X12789229Y-16830460D02*
X12798753Y-16820936D01*
X12798753Y-16820936D02*
X12798753Y-16839984D01*
X12932086Y-16639984D02*
X12951134Y-16639984D01*
X12951134Y-16639984D02*
X12970182Y-16649508D01*
X12970182Y-16649508D02*
X12979705Y-16659031D01*
X12979705Y-16659031D02*
X12989229Y-16678079D01*
X12989229Y-16678079D02*
X12998753Y-16716174D01*
X12998753Y-16716174D02*
X12998753Y-16763793D01*
X12998753Y-16763793D02*
X12989229Y-16801889D01*
X12989229Y-16801889D02*
X12979705Y-16820936D01*
X12979705Y-16820936D02*
X12970182Y-16830460D01*
X12970182Y-16830460D02*
X12951134Y-16839984D01*
X12951134Y-16839984D02*
X12932086Y-16839984D01*
X12932086Y-16839984D02*
X12913039Y-16830460D01*
X12913039Y-16830460D02*
X12903515Y-16820936D01*
X12903515Y-16820936D02*
X12893991Y-16801889D01*
X12893991Y-16801889D02*
X12884467Y-16763793D01*
X12884467Y-16763793D02*
X12884467Y-16716174D01*
X12884467Y-16716174D02*
X12893991Y-16678079D01*
X12893991Y-16678079D02*
X12903515Y-16659031D01*
X12903515Y-16659031D02*
X12913039Y-16649508D01*
X12913039Y-16649508D02*
X12932086Y-16639984D01*
X13122562Y-16639984D02*
X13141610Y-16639984D01*
X13141610Y-16639984D02*
X13160658Y-16649508D01*
X13160658Y-16649508D02*
X13170182Y-16659031D01*
X13170182Y-16659031D02*
X13179705Y-16678079D01*
X13179705Y-16678079D02*
X13189229Y-16716174D01*
X13189229Y-16716174D02*
X13189229Y-16763793D01*
X13189229Y-16763793D02*
X13179705Y-16801889D01*
X13179705Y-16801889D02*
X13170182Y-16820936D01*
X13170182Y-16820936D02*
X13160658Y-16830460D01*
X13160658Y-16830460D02*
X13141610Y-16839984D01*
X13141610Y-16839984D02*
X13122562Y-16839984D01*
X13122562Y-16839984D02*
X13103515Y-16830460D01*
X13103515Y-16830460D02*
X13093991Y-16820936D01*
X13093991Y-16820936D02*
X13084467Y-16801889D01*
X13084467Y-16801889D02*
X13074943Y-16763793D01*
X13074943Y-16763793D02*
X13074943Y-16716174D01*
X13074943Y-16716174D02*
X13084467Y-16678079D01*
X13084467Y-16678079D02*
X13093991Y-16659031D01*
X13093991Y-16659031D02*
X13103515Y-16649508D01*
X13103515Y-16649508D02*
X13122562Y-16639984D01*
X13313039Y-16639984D02*
X13332086Y-16639984D01*
X13332086Y-16639984D02*
X13351134Y-16649508D01*
X13351134Y-16649508D02*
X13360658Y-16659031D01*
X13360658Y-16659031D02*
X13370182Y-16678079D01*
X13370182Y-16678079D02*
X13379705Y-16716174D01*
X13379705Y-16716174D02*
X13379705Y-16763793D01*
X13379705Y-16763793D02*
X13370182Y-16801889D01*
X13370182Y-16801889D02*
X13360658Y-16820936D01*
X13360658Y-16820936D02*
X13351134Y-16830460D01*
X13351134Y-16830460D02*
X13332086Y-16839984D01*
X13332086Y-16839984D02*
X13313039Y-16839984D01*
X13313039Y-16839984D02*
X13293991Y-16830460D01*
X13293991Y-16830460D02*
X13284467Y-16820936D01*
X13284467Y-16820936D02*
X13274943Y-16801889D01*
X13274943Y-16801889D02*
X13265420Y-16763793D01*
X13265420Y-16763793D02*
X13265420Y-16716174D01*
X13265420Y-16716174D02*
X13274943Y-16678079D01*
X13274943Y-16678079D02*
X13284467Y-16659031D01*
X13284467Y-16659031D02*
X13293991Y-16649508D01*
X13293991Y-16649508D02*
X13313039Y-16639984D01*
X13465420Y-16839984D02*
X13465420Y-16706650D01*
X13465420Y-16725698D02*
X13474943Y-16716174D01*
X13474943Y-16716174D02*
X13493991Y-16706650D01*
X13493991Y-16706650D02*
X13522563Y-16706650D01*
X13522563Y-16706650D02*
X13541610Y-16716174D01*
X13541610Y-16716174D02*
X13551134Y-16735222D01*
X13551134Y-16735222D02*
X13551134Y-16839984D01*
X13551134Y-16735222D02*
X13560658Y-16716174D01*
X13560658Y-16716174D02*
X13579705Y-16706650D01*
X13579705Y-16706650D02*
X13608277Y-16706650D01*
X13608277Y-16706650D02*
X13627324Y-16716174D01*
X13627324Y-16716174D02*
X13636848Y-16735222D01*
X13636848Y-16735222D02*
X13636848Y-16839984D01*
X13732086Y-16839984D02*
X13732086Y-16706650D01*
X13732086Y-16725698D02*
X13741610Y-16716174D01*
X13741610Y-16716174D02*
X13760658Y-16706650D01*
X13760658Y-16706650D02*
X13789229Y-16706650D01*
X13789229Y-16706650D02*
X13808277Y-16716174D01*
X13808277Y-16716174D02*
X13817801Y-16735222D01*
X13817801Y-16735222D02*
X13817801Y-16839984D01*
X13817801Y-16735222D02*
X13827324Y-16716174D01*
X13827324Y-16716174D02*
X13846372Y-16706650D01*
X13846372Y-16706650D02*
X13874943Y-16706650D01*
X13874943Y-16706650D02*
X13893991Y-16716174D01*
X13893991Y-16716174D02*
X13903515Y-16735222D01*
X13903515Y-16735222D02*
X13903515Y-16839984D01*
X14293991Y-16630460D02*
X14122563Y-16887603D01*
X14551134Y-16639984D02*
X14570182Y-16639984D01*
X14570182Y-16639984D02*
X14589229Y-16649508D01*
X14589229Y-16649508D02*
X14598753Y-16659031D01*
X14598753Y-16659031D02*
X14608277Y-16678079D01*
X14608277Y-16678079D02*
X14617801Y-16716174D01*
X14617801Y-16716174D02*
X14617801Y-16763793D01*
X14617801Y-16763793D02*
X14608277Y-16801889D01*
X14608277Y-16801889D02*
X14598753Y-16820936D01*
X14598753Y-16820936D02*
X14589229Y-16830460D01*
X14589229Y-16830460D02*
X14570182Y-16839984D01*
X14570182Y-16839984D02*
X14551134Y-16839984D01*
X14551134Y-16839984D02*
X14532086Y-16830460D01*
X14532086Y-16830460D02*
X14522563Y-16820936D01*
X14522563Y-16820936D02*
X14513039Y-16801889D01*
X14513039Y-16801889D02*
X14503515Y-16763793D01*
X14503515Y-16763793D02*
X14503515Y-16716174D01*
X14503515Y-16716174D02*
X14513039Y-16678079D01*
X14513039Y-16678079D02*
X14522563Y-16659031D01*
X14522563Y-16659031D02*
X14532086Y-16649508D01*
X14532086Y-16649508D02*
X14551134Y-16639984D01*
X14703515Y-16820936D02*
X14713039Y-16830460D01*
X14713039Y-16830460D02*
X14703515Y-16839984D01*
X14703515Y-16839984D02*
X14693991Y-16830460D01*
X14693991Y-16830460D02*
X14703515Y-16820936D01*
X14703515Y-16820936D02*
X14703515Y-16839984D01*
X14836848Y-16639984D02*
X14855896Y-16639984D01*
X14855896Y-16639984D02*
X14874944Y-16649508D01*
X14874944Y-16649508D02*
X14884467Y-16659031D01*
X14884467Y-16659031D02*
X14893991Y-16678079D01*
X14893991Y-16678079D02*
X14903515Y-16716174D01*
X14903515Y-16716174D02*
X14903515Y-16763793D01*
X14903515Y-16763793D02*
X14893991Y-16801889D01*
X14893991Y-16801889D02*
X14884467Y-16820936D01*
X14884467Y-16820936D02*
X14874944Y-16830460D01*
X14874944Y-16830460D02*
X14855896Y-16839984D01*
X14855896Y-16839984D02*
X14836848Y-16839984D01*
X14836848Y-16839984D02*
X14817801Y-16830460D01*
X14817801Y-16830460D02*
X14808277Y-16820936D01*
X14808277Y-16820936D02*
X14798753Y-16801889D01*
X14798753Y-16801889D02*
X14789229Y-16763793D01*
X14789229Y-16763793D02*
X14789229Y-16716174D01*
X14789229Y-16716174D02*
X14798753Y-16678079D01*
X14798753Y-16678079D02*
X14808277Y-16659031D01*
X14808277Y-16659031D02*
X14817801Y-16649508D01*
X14817801Y-16649508D02*
X14836848Y-16639984D01*
X14970182Y-16639984D02*
X15093991Y-16639984D01*
X15093991Y-16639984D02*
X15027325Y-16716174D01*
X15027325Y-16716174D02*
X15055896Y-16716174D01*
X15055896Y-16716174D02*
X15074944Y-16725698D01*
X15074944Y-16725698D02*
X15084467Y-16735222D01*
X15084467Y-16735222D02*
X15093991Y-16754269D01*
X15093991Y-16754269D02*
X15093991Y-16801889D01*
X15093991Y-16801889D02*
X15084467Y-16820936D01*
X15084467Y-16820936D02*
X15074944Y-16830460D01*
X15074944Y-16830460D02*
X15055896Y-16839984D01*
X15055896Y-16839984D02*
X14998753Y-16839984D01*
X14998753Y-16839984D02*
X14979706Y-16830460D01*
X14979706Y-16830460D02*
X14970182Y-16820936D01*
X15189229Y-16839984D02*
X15227325Y-16839984D01*
X15227325Y-16839984D02*
X15246372Y-16830460D01*
X15246372Y-16830460D02*
X15255896Y-16820936D01*
X15255896Y-16820936D02*
X15274944Y-16792365D01*
X15274944Y-16792365D02*
X15284467Y-16754269D01*
X15284467Y-16754269D02*
X15284467Y-16678079D01*
X15284467Y-16678079D02*
X15274944Y-16659031D01*
X15274944Y-16659031D02*
X15265420Y-16649508D01*
X15265420Y-16649508D02*
X15246372Y-16639984D01*
X15246372Y-16639984D02*
X15208277Y-16639984D01*
X15208277Y-16639984D02*
X15189229Y-16649508D01*
X15189229Y-16649508D02*
X15179706Y-16659031D01*
X15179706Y-16659031D02*
X15170182Y-16678079D01*
X15170182Y-16678079D02*
X15170182Y-16725698D01*
X15170182Y-16725698D02*
X15179706Y-16744746D01*
X15179706Y-16744746D02*
X15189229Y-16754269D01*
X15189229Y-16754269D02*
X15208277Y-16763793D01*
X15208277Y-16763793D02*
X15246372Y-16763793D01*
X15246372Y-16763793D02*
X15265420Y-16754269D01*
X15265420Y-16754269D02*
X15274944Y-16744746D01*
X15274944Y-16744746D02*
X15284467Y-16725698D01*
X15455896Y-16706650D02*
X15455896Y-16839984D01*
X15408277Y-16630460D02*
X15360658Y-16773317D01*
X15360658Y-16773317D02*
X15484467Y-16773317D01*
X15551134Y-16639984D02*
X15551134Y-16678079D01*
X15627325Y-16639984D02*
X15627325Y-16678079D01*
X15922563Y-16916174D02*
X15913039Y-16906650D01*
X15913039Y-16906650D02*
X15893991Y-16878079D01*
X15893991Y-16878079D02*
X15884468Y-16859031D01*
X15884468Y-16859031D02*
X15874944Y-16830460D01*
X15874944Y-16830460D02*
X15865420Y-16782841D01*
X15865420Y-16782841D02*
X15865420Y-16744746D01*
X15865420Y-16744746D02*
X15874944Y-16697127D01*
X15874944Y-16697127D02*
X15884468Y-16668555D01*
X15884468Y-16668555D02*
X15893991Y-16649508D01*
X15893991Y-16649508D02*
X15913039Y-16620936D01*
X15913039Y-16620936D02*
X15922563Y-16611412D01*
X16008277Y-16839984D02*
X16046372Y-16839984D01*
X16046372Y-16839984D02*
X16065420Y-16830460D01*
X16065420Y-16830460D02*
X16074944Y-16820936D01*
X16074944Y-16820936D02*
X16093991Y-16792365D01*
X16093991Y-16792365D02*
X16103515Y-16754269D01*
X16103515Y-16754269D02*
X16103515Y-16678079D01*
X16103515Y-16678079D02*
X16093991Y-16659031D01*
X16093991Y-16659031D02*
X16084468Y-16649508D01*
X16084468Y-16649508D02*
X16065420Y-16639984D01*
X16065420Y-16639984D02*
X16027325Y-16639984D01*
X16027325Y-16639984D02*
X16008277Y-16649508D01*
X16008277Y-16649508D02*
X15998753Y-16659031D01*
X15998753Y-16659031D02*
X15989229Y-16678079D01*
X15989229Y-16678079D02*
X15989229Y-16725698D01*
X15989229Y-16725698D02*
X15998753Y-16744746D01*
X15998753Y-16744746D02*
X16008277Y-16754269D01*
X16008277Y-16754269D02*
X16027325Y-16763793D01*
X16027325Y-16763793D02*
X16065420Y-16763793D01*
X16065420Y-16763793D02*
X16084468Y-16754269D01*
X16084468Y-16754269D02*
X16093991Y-16744746D01*
X16093991Y-16744746D02*
X16103515Y-16725698D01*
X16198753Y-16839984D02*
X16236848Y-16839984D01*
X16236848Y-16839984D02*
X16255896Y-16830460D01*
X16255896Y-16830460D02*
X16265420Y-16820936D01*
X16265420Y-16820936D02*
X16284468Y-16792365D01*
X16284468Y-16792365D02*
X16293991Y-16754269D01*
X16293991Y-16754269D02*
X16293991Y-16678079D01*
X16293991Y-16678079D02*
X16284468Y-16659031D01*
X16284468Y-16659031D02*
X16274944Y-16649508D01*
X16274944Y-16649508D02*
X16255896Y-16639984D01*
X16255896Y-16639984D02*
X16217801Y-16639984D01*
X16217801Y-16639984D02*
X16198753Y-16649508D01*
X16198753Y-16649508D02*
X16189229Y-16659031D01*
X16189229Y-16659031D02*
X16179706Y-16678079D01*
X16179706Y-16678079D02*
X16179706Y-16725698D01*
X16179706Y-16725698D02*
X16189229Y-16744746D01*
X16189229Y-16744746D02*
X16198753Y-16754269D01*
X16198753Y-16754269D02*
X16217801Y-16763793D01*
X16217801Y-16763793D02*
X16255896Y-16763793D01*
X16255896Y-16763793D02*
X16274944Y-16754269D01*
X16274944Y-16754269D02*
X16284468Y-16744746D01*
X16284468Y-16744746D02*
X16293991Y-16725698D01*
X16532087Y-16839984D02*
X16532087Y-16639984D01*
X16617801Y-16839984D02*
X16617801Y-16735222D01*
X16617801Y-16735222D02*
X16608277Y-16716174D01*
X16608277Y-16716174D02*
X16589230Y-16706650D01*
X16589230Y-16706650D02*
X16560658Y-16706650D01*
X16560658Y-16706650D02*
X16541610Y-16716174D01*
X16541610Y-16716174D02*
X16532087Y-16725698D01*
X16741610Y-16839984D02*
X16722563Y-16830460D01*
X16722563Y-16830460D02*
X16713039Y-16820936D01*
X16713039Y-16820936D02*
X16703515Y-16801889D01*
X16703515Y-16801889D02*
X16703515Y-16744746D01*
X16703515Y-16744746D02*
X16713039Y-16725698D01*
X16713039Y-16725698D02*
X16722563Y-16716174D01*
X16722563Y-16716174D02*
X16741610Y-16706650D01*
X16741610Y-16706650D02*
X16770182Y-16706650D01*
X16770182Y-16706650D02*
X16789230Y-16716174D01*
X16789230Y-16716174D02*
X16798753Y-16725698D01*
X16798753Y-16725698D02*
X16808277Y-16744746D01*
X16808277Y-16744746D02*
X16808277Y-16801889D01*
X16808277Y-16801889D02*
X16798753Y-16820936D01*
X16798753Y-16820936D02*
X16789230Y-16830460D01*
X16789230Y-16830460D02*
X16770182Y-16839984D01*
X16770182Y-16839984D02*
X16741610Y-16839984D01*
X16922563Y-16839984D02*
X16903515Y-16830460D01*
X16903515Y-16830460D02*
X16893992Y-16811412D01*
X16893992Y-16811412D02*
X16893992Y-16639984D01*
X17074944Y-16830460D02*
X17055896Y-16839984D01*
X17055896Y-16839984D02*
X17017801Y-16839984D01*
X17017801Y-16839984D02*
X16998753Y-16830460D01*
X16998753Y-16830460D02*
X16989230Y-16811412D01*
X16989230Y-16811412D02*
X16989230Y-16735222D01*
X16989230Y-16735222D02*
X16998753Y-16716174D01*
X16998753Y-16716174D02*
X17017801Y-16706650D01*
X17017801Y-16706650D02*
X17055896Y-16706650D01*
X17055896Y-16706650D02*
X17074944Y-16716174D01*
X17074944Y-16716174D02*
X17084468Y-16735222D01*
X17084468Y-16735222D02*
X17084468Y-16754269D01*
X17084468Y-16754269D02*
X16989230Y-16773317D01*
X17160658Y-16830460D02*
X17179706Y-16839984D01*
X17179706Y-16839984D02*
X17217801Y-16839984D01*
X17217801Y-16839984D02*
X17236849Y-16830460D01*
X17236849Y-16830460D02*
X17246373Y-16811412D01*
X17246373Y-16811412D02*
X17246373Y-16801889D01*
X17246373Y-16801889D02*
X17236849Y-16782841D01*
X17236849Y-16782841D02*
X17217801Y-16773317D01*
X17217801Y-16773317D02*
X17189230Y-16773317D01*
X17189230Y-16773317D02*
X17170182Y-16763793D01*
X17170182Y-16763793D02*
X17160658Y-16744746D01*
X17160658Y-16744746D02*
X17160658Y-16735222D01*
X17160658Y-16735222D02*
X17170182Y-16716174D01*
X17170182Y-16716174D02*
X17189230Y-16706650D01*
X17189230Y-16706650D02*
X17217801Y-16706650D01*
X17217801Y-16706650D02*
X17236849Y-16716174D01*
X17313039Y-16916174D02*
X17322563Y-16906650D01*
X17322563Y-16906650D02*
X17341611Y-16878079D01*
X17341611Y-16878079D02*
X17351134Y-16859031D01*
X17351134Y-16859031D02*
X17360658Y-16830460D01*
X17360658Y-16830460D02*
X17370182Y-16782841D01*
X17370182Y-16782841D02*
X17370182Y-16744746D01*
X17370182Y-16744746D02*
X17360658Y-16697127D01*
X17360658Y-16697127D02*
X17351134Y-16668555D01*
X17351134Y-16668555D02*
X17341611Y-16649508D01*
X17341611Y-16649508D02*
X17322563Y-16620936D01*
X17322563Y-16620936D02*
X17313039Y-16611412D01*
D13*
X12237500Y-16957500D02*
X12347500Y-17067500D01*
X12347500Y-16957500D02*
X12237500Y-17067500D01*
X12347500Y-17012500D02*
G75*
G02*
X12237500Y-17012500I-55000J0D01*
G01*
X12237500Y-17012500D02*
G75*
G02*
X12347500Y-17012500I55000J0D01*
G01*
D11*
X12713039Y-17103984D02*
X12598753Y-17103984D01*
X12655896Y-17103984D02*
X12655896Y-16903984D01*
X12655896Y-16903984D02*
X12636848Y-16932555D01*
X12636848Y-16932555D02*
X12617801Y-16951603D01*
X12617801Y-16951603D02*
X12598753Y-16961127D01*
X12798753Y-17084936D02*
X12808277Y-17094460D01*
X12808277Y-17094460D02*
X12798753Y-17103984D01*
X12798753Y-17103984D02*
X12789229Y-17094460D01*
X12789229Y-17094460D02*
X12798753Y-17084936D01*
X12798753Y-17084936D02*
X12798753Y-17103984D01*
X12998753Y-17103984D02*
X12884467Y-17103984D01*
X12941610Y-17103984D02*
X12941610Y-16903984D01*
X12941610Y-16903984D02*
X12922562Y-16932555D01*
X12922562Y-16932555D02*
X12903515Y-16951603D01*
X12903515Y-16951603D02*
X12884467Y-16961127D01*
X13122562Y-16903984D02*
X13141610Y-16903984D01*
X13141610Y-16903984D02*
X13160658Y-16913508D01*
X13160658Y-16913508D02*
X13170182Y-16923031D01*
X13170182Y-16923031D02*
X13179705Y-16942079D01*
X13179705Y-16942079D02*
X13189229Y-16980174D01*
X13189229Y-16980174D02*
X13189229Y-17027793D01*
X13189229Y-17027793D02*
X13179705Y-17065889D01*
X13179705Y-17065889D02*
X13170182Y-17084936D01*
X13170182Y-17084936D02*
X13160658Y-17094460D01*
X13160658Y-17094460D02*
X13141610Y-17103984D01*
X13141610Y-17103984D02*
X13122562Y-17103984D01*
X13122562Y-17103984D02*
X13103515Y-17094460D01*
X13103515Y-17094460D02*
X13093991Y-17084936D01*
X13093991Y-17084936D02*
X13084467Y-17065889D01*
X13084467Y-17065889D02*
X13074943Y-17027793D01*
X13074943Y-17027793D02*
X13074943Y-16980174D01*
X13074943Y-16980174D02*
X13084467Y-16942079D01*
X13084467Y-16942079D02*
X13093991Y-16923031D01*
X13093991Y-16923031D02*
X13103515Y-16913508D01*
X13103515Y-16913508D02*
X13122562Y-16903984D01*
X13313039Y-16903984D02*
X13332086Y-16903984D01*
X13332086Y-16903984D02*
X13351134Y-16913508D01*
X13351134Y-16913508D02*
X13360658Y-16923031D01*
X13360658Y-16923031D02*
X13370182Y-16942079D01*
X13370182Y-16942079D02*
X13379705Y-16980174D01*
X13379705Y-16980174D02*
X13379705Y-17027793D01*
X13379705Y-17027793D02*
X13370182Y-17065889D01*
X13370182Y-17065889D02*
X13360658Y-17084936D01*
X13360658Y-17084936D02*
X13351134Y-17094460D01*
X13351134Y-17094460D02*
X13332086Y-17103984D01*
X13332086Y-17103984D02*
X13313039Y-17103984D01*
X13313039Y-17103984D02*
X13293991Y-17094460D01*
X13293991Y-17094460D02*
X13284467Y-17084936D01*
X13284467Y-17084936D02*
X13274943Y-17065889D01*
X13274943Y-17065889D02*
X13265420Y-17027793D01*
X13265420Y-17027793D02*
X13265420Y-16980174D01*
X13265420Y-16980174D02*
X13274943Y-16942079D01*
X13274943Y-16942079D02*
X13284467Y-16923031D01*
X13284467Y-16923031D02*
X13293991Y-16913508D01*
X13293991Y-16913508D02*
X13313039Y-16903984D01*
X13465420Y-17103984D02*
X13465420Y-16970650D01*
X13465420Y-16989698D02*
X13474943Y-16980174D01*
X13474943Y-16980174D02*
X13493991Y-16970650D01*
X13493991Y-16970650D02*
X13522563Y-16970650D01*
X13522563Y-16970650D02*
X13541610Y-16980174D01*
X13541610Y-16980174D02*
X13551134Y-16999222D01*
X13551134Y-16999222D02*
X13551134Y-17103984D01*
X13551134Y-16999222D02*
X13560658Y-16980174D01*
X13560658Y-16980174D02*
X13579705Y-16970650D01*
X13579705Y-16970650D02*
X13608277Y-16970650D01*
X13608277Y-16970650D02*
X13627324Y-16980174D01*
X13627324Y-16980174D02*
X13636848Y-16999222D01*
X13636848Y-16999222D02*
X13636848Y-17103984D01*
X13732086Y-17103984D02*
X13732086Y-16970650D01*
X13732086Y-16989698D02*
X13741610Y-16980174D01*
X13741610Y-16980174D02*
X13760658Y-16970650D01*
X13760658Y-16970650D02*
X13789229Y-16970650D01*
X13789229Y-16970650D02*
X13808277Y-16980174D01*
X13808277Y-16980174D02*
X13817801Y-16999222D01*
X13817801Y-16999222D02*
X13817801Y-17103984D01*
X13817801Y-16999222D02*
X13827324Y-16980174D01*
X13827324Y-16980174D02*
X13846372Y-16970650D01*
X13846372Y-16970650D02*
X13874943Y-16970650D01*
X13874943Y-16970650D02*
X13893991Y-16980174D01*
X13893991Y-16980174D02*
X13903515Y-16999222D01*
X13903515Y-16999222D02*
X13903515Y-17103984D01*
X14293991Y-16894460D02*
X14122563Y-17151603D01*
X14551134Y-16903984D02*
X14570182Y-16903984D01*
X14570182Y-16903984D02*
X14589229Y-16913508D01*
X14589229Y-16913508D02*
X14598753Y-16923031D01*
X14598753Y-16923031D02*
X14608277Y-16942079D01*
X14608277Y-16942079D02*
X14617801Y-16980174D01*
X14617801Y-16980174D02*
X14617801Y-17027793D01*
X14617801Y-17027793D02*
X14608277Y-17065889D01*
X14608277Y-17065889D02*
X14598753Y-17084936D01*
X14598753Y-17084936D02*
X14589229Y-17094460D01*
X14589229Y-17094460D02*
X14570182Y-17103984D01*
X14570182Y-17103984D02*
X14551134Y-17103984D01*
X14551134Y-17103984D02*
X14532086Y-17094460D01*
X14532086Y-17094460D02*
X14522563Y-17084936D01*
X14522563Y-17084936D02*
X14513039Y-17065889D01*
X14513039Y-17065889D02*
X14503515Y-17027793D01*
X14503515Y-17027793D02*
X14503515Y-16980174D01*
X14503515Y-16980174D02*
X14513039Y-16942079D01*
X14513039Y-16942079D02*
X14522563Y-16923031D01*
X14522563Y-16923031D02*
X14532086Y-16913508D01*
X14532086Y-16913508D02*
X14551134Y-16903984D01*
X14703515Y-17084936D02*
X14713039Y-17094460D01*
X14713039Y-17094460D02*
X14703515Y-17103984D01*
X14703515Y-17103984D02*
X14693991Y-17094460D01*
X14693991Y-17094460D02*
X14703515Y-17084936D01*
X14703515Y-17084936D02*
X14703515Y-17103984D01*
X14836848Y-16903984D02*
X14855896Y-16903984D01*
X14855896Y-16903984D02*
X14874944Y-16913508D01*
X14874944Y-16913508D02*
X14884467Y-16923031D01*
X14884467Y-16923031D02*
X14893991Y-16942079D01*
X14893991Y-16942079D02*
X14903515Y-16980174D01*
X14903515Y-16980174D02*
X14903515Y-17027793D01*
X14903515Y-17027793D02*
X14893991Y-17065889D01*
X14893991Y-17065889D02*
X14884467Y-17084936D01*
X14884467Y-17084936D02*
X14874944Y-17094460D01*
X14874944Y-17094460D02*
X14855896Y-17103984D01*
X14855896Y-17103984D02*
X14836848Y-17103984D01*
X14836848Y-17103984D02*
X14817801Y-17094460D01*
X14817801Y-17094460D02*
X14808277Y-17084936D01*
X14808277Y-17084936D02*
X14798753Y-17065889D01*
X14798753Y-17065889D02*
X14789229Y-17027793D01*
X14789229Y-17027793D02*
X14789229Y-16980174D01*
X14789229Y-16980174D02*
X14798753Y-16942079D01*
X14798753Y-16942079D02*
X14808277Y-16923031D01*
X14808277Y-16923031D02*
X14817801Y-16913508D01*
X14817801Y-16913508D02*
X14836848Y-16903984D01*
X15074944Y-16970650D02*
X15074944Y-17103984D01*
X15027325Y-16894460D02*
X14979706Y-17037317D01*
X14979706Y-17037317D02*
X15103515Y-17037317D01*
X15160658Y-16903984D02*
X15284467Y-16903984D01*
X15284467Y-16903984D02*
X15217801Y-16980174D01*
X15217801Y-16980174D02*
X15246372Y-16980174D01*
X15246372Y-16980174D02*
X15265420Y-16989698D01*
X15265420Y-16989698D02*
X15274944Y-16999222D01*
X15274944Y-16999222D02*
X15284467Y-17018270D01*
X15284467Y-17018270D02*
X15284467Y-17065889D01*
X15284467Y-17065889D02*
X15274944Y-17084936D01*
X15274944Y-17084936D02*
X15265420Y-17094460D01*
X15265420Y-17094460D02*
X15246372Y-17103984D01*
X15246372Y-17103984D02*
X15189229Y-17103984D01*
X15189229Y-17103984D02*
X15170182Y-17094460D01*
X15170182Y-17094460D02*
X15160658Y-17084936D01*
X15351134Y-16903984D02*
X15474944Y-16903984D01*
X15474944Y-16903984D02*
X15408277Y-16980174D01*
X15408277Y-16980174D02*
X15436848Y-16980174D01*
X15436848Y-16980174D02*
X15455896Y-16989698D01*
X15455896Y-16989698D02*
X15465420Y-16999222D01*
X15465420Y-16999222D02*
X15474944Y-17018270D01*
X15474944Y-17018270D02*
X15474944Y-17065889D01*
X15474944Y-17065889D02*
X15465420Y-17084936D01*
X15465420Y-17084936D02*
X15455896Y-17094460D01*
X15455896Y-17094460D02*
X15436848Y-17103984D01*
X15436848Y-17103984D02*
X15379706Y-17103984D01*
X15379706Y-17103984D02*
X15360658Y-17094460D01*
X15360658Y-17094460D02*
X15351134Y-17084936D01*
X15551134Y-16903984D02*
X15551134Y-16942079D01*
X15627325Y-16903984D02*
X15627325Y-16942079D01*
X15922563Y-17180174D02*
X15913039Y-17170650D01*
X15913039Y-17170650D02*
X15893991Y-17142079D01*
X15893991Y-17142079D02*
X15884468Y-17123031D01*
X15884468Y-17123031D02*
X15874944Y-17094460D01*
X15874944Y-17094460D02*
X15865420Y-17046841D01*
X15865420Y-17046841D02*
X15865420Y-17008746D01*
X15865420Y-17008746D02*
X15874944Y-16961127D01*
X15874944Y-16961127D02*
X15884468Y-16932555D01*
X15884468Y-16932555D02*
X15893991Y-16913508D01*
X15893991Y-16913508D02*
X15913039Y-16884936D01*
X15913039Y-16884936D02*
X15922563Y-16875412D01*
X15979706Y-16903984D02*
X16103515Y-16903984D01*
X16103515Y-16903984D02*
X16036848Y-16980174D01*
X16036848Y-16980174D02*
X16065420Y-16980174D01*
X16065420Y-16980174D02*
X16084468Y-16989698D01*
X16084468Y-16989698D02*
X16093991Y-16999222D01*
X16093991Y-16999222D02*
X16103515Y-17018270D01*
X16103515Y-17018270D02*
X16103515Y-17065889D01*
X16103515Y-17065889D02*
X16093991Y-17084936D01*
X16093991Y-17084936D02*
X16084468Y-17094460D01*
X16084468Y-17094460D02*
X16065420Y-17103984D01*
X16065420Y-17103984D02*
X16008277Y-17103984D01*
X16008277Y-17103984D02*
X15989229Y-17094460D01*
X15989229Y-17094460D02*
X15979706Y-17084936D01*
X16341610Y-17103984D02*
X16341610Y-16903984D01*
X16427325Y-17103984D02*
X16427325Y-16999222D01*
X16427325Y-16999222D02*
X16417801Y-16980174D01*
X16417801Y-16980174D02*
X16398753Y-16970650D01*
X16398753Y-16970650D02*
X16370182Y-16970650D01*
X16370182Y-16970650D02*
X16351134Y-16980174D01*
X16351134Y-16980174D02*
X16341610Y-16989698D01*
X16551134Y-17103984D02*
X16532087Y-17094460D01*
X16532087Y-17094460D02*
X16522563Y-17084936D01*
X16522563Y-17084936D02*
X16513039Y-17065889D01*
X16513039Y-17065889D02*
X16513039Y-17008746D01*
X16513039Y-17008746D02*
X16522563Y-16989698D01*
X16522563Y-16989698D02*
X16532087Y-16980174D01*
X16532087Y-16980174D02*
X16551134Y-16970650D01*
X16551134Y-16970650D02*
X16579706Y-16970650D01*
X16579706Y-16970650D02*
X16598753Y-16980174D01*
X16598753Y-16980174D02*
X16608277Y-16989698D01*
X16608277Y-16989698D02*
X16617801Y-17008746D01*
X16617801Y-17008746D02*
X16617801Y-17065889D01*
X16617801Y-17065889D02*
X16608277Y-17084936D01*
X16608277Y-17084936D02*
X16598753Y-17094460D01*
X16598753Y-17094460D02*
X16579706Y-17103984D01*
X16579706Y-17103984D02*
X16551134Y-17103984D01*
X16732087Y-17103984D02*
X16713039Y-17094460D01*
X16713039Y-17094460D02*
X16703515Y-17075412D01*
X16703515Y-17075412D02*
X16703515Y-16903984D01*
X16884468Y-17094460D02*
X16865420Y-17103984D01*
X16865420Y-17103984D02*
X16827325Y-17103984D01*
X16827325Y-17103984D02*
X16808277Y-17094460D01*
X16808277Y-17094460D02*
X16798753Y-17075412D01*
X16798753Y-17075412D02*
X16798753Y-16999222D01*
X16798753Y-16999222D02*
X16808277Y-16980174D01*
X16808277Y-16980174D02*
X16827325Y-16970650D01*
X16827325Y-16970650D02*
X16865420Y-16970650D01*
X16865420Y-16970650D02*
X16884468Y-16980174D01*
X16884468Y-16980174D02*
X16893992Y-16999222D01*
X16893992Y-16999222D02*
X16893992Y-17018270D01*
X16893992Y-17018270D02*
X16798753Y-17037317D01*
X16970182Y-17094460D02*
X16989230Y-17103984D01*
X16989230Y-17103984D02*
X17027325Y-17103984D01*
X17027325Y-17103984D02*
X17046373Y-17094460D01*
X17046373Y-17094460D02*
X17055896Y-17075412D01*
X17055896Y-17075412D02*
X17055896Y-17065889D01*
X17055896Y-17065889D02*
X17046373Y-17046841D01*
X17046373Y-17046841D02*
X17027325Y-17037317D01*
X17027325Y-17037317D02*
X16998753Y-17037317D01*
X16998753Y-17037317D02*
X16979706Y-17027793D01*
X16979706Y-17027793D02*
X16970182Y-17008746D01*
X16970182Y-17008746D02*
X16970182Y-16999222D01*
X16970182Y-16999222D02*
X16979706Y-16980174D01*
X16979706Y-16980174D02*
X16998753Y-16970650D01*
X16998753Y-16970650D02*
X17027325Y-16970650D01*
X17027325Y-16970650D02*
X17046373Y-16980174D01*
X17122563Y-17180174D02*
X17132087Y-17170650D01*
X17132087Y-17170650D02*
X17151134Y-17142079D01*
X17151134Y-17142079D02*
X17160658Y-17123031D01*
X17160658Y-17123031D02*
X17170182Y-17094460D01*
X17170182Y-17094460D02*
X17179706Y-17046841D01*
X17179706Y-17046841D02*
X17179706Y-17008746D01*
X17179706Y-17008746D02*
X17170182Y-16961127D01*
X17170182Y-16961127D02*
X17160658Y-16932555D01*
X17160658Y-16932555D02*
X17151134Y-16913508D01*
X17151134Y-16913508D02*
X17132087Y-16884936D01*
X17132087Y-16884936D02*
X17122563Y-16875412D01*
D14*
X12217500Y-17211500D02*
X12347500Y-17341500D01*
X12347500Y-17211500D02*
X12217500Y-17341500D01*
X12282500Y-17211500D02*
X12282500Y-17341500D01*
X12217500Y-17276500D02*
X12347500Y-17276500D01*
D11*
X12713039Y-17367984D02*
X12598753Y-17367984D01*
X12655896Y-17367984D02*
X12655896Y-17167984D01*
X12655896Y-17167984D02*
X12636848Y-17196555D01*
X12636848Y-17196555D02*
X12617801Y-17215603D01*
X12617801Y-17215603D02*
X12598753Y-17225127D01*
X12798753Y-17348936D02*
X12808277Y-17358460D01*
X12808277Y-17358460D02*
X12798753Y-17367984D01*
X12798753Y-17367984D02*
X12789229Y-17358460D01*
X12789229Y-17358460D02*
X12798753Y-17348936D01*
X12798753Y-17348936D02*
X12798753Y-17367984D01*
X12874943Y-17167984D02*
X12998753Y-17167984D01*
X12998753Y-17167984D02*
X12932086Y-17244174D01*
X12932086Y-17244174D02*
X12960658Y-17244174D01*
X12960658Y-17244174D02*
X12979705Y-17253698D01*
X12979705Y-17253698D02*
X12989229Y-17263222D01*
X12989229Y-17263222D02*
X12998753Y-17282270D01*
X12998753Y-17282270D02*
X12998753Y-17329889D01*
X12998753Y-17329889D02*
X12989229Y-17348936D01*
X12989229Y-17348936D02*
X12979705Y-17358460D01*
X12979705Y-17358460D02*
X12960658Y-17367984D01*
X12960658Y-17367984D02*
X12903515Y-17367984D01*
X12903515Y-17367984D02*
X12884467Y-17358460D01*
X12884467Y-17358460D02*
X12874943Y-17348936D01*
X13122562Y-17167984D02*
X13141610Y-17167984D01*
X13141610Y-17167984D02*
X13160658Y-17177508D01*
X13160658Y-17177508D02*
X13170182Y-17187031D01*
X13170182Y-17187031D02*
X13179705Y-17206079D01*
X13179705Y-17206079D02*
X13189229Y-17244174D01*
X13189229Y-17244174D02*
X13189229Y-17291793D01*
X13189229Y-17291793D02*
X13179705Y-17329889D01*
X13179705Y-17329889D02*
X13170182Y-17348936D01*
X13170182Y-17348936D02*
X13160658Y-17358460D01*
X13160658Y-17358460D02*
X13141610Y-17367984D01*
X13141610Y-17367984D02*
X13122562Y-17367984D01*
X13122562Y-17367984D02*
X13103515Y-17358460D01*
X13103515Y-17358460D02*
X13093991Y-17348936D01*
X13093991Y-17348936D02*
X13084467Y-17329889D01*
X13084467Y-17329889D02*
X13074943Y-17291793D01*
X13074943Y-17291793D02*
X13074943Y-17244174D01*
X13074943Y-17244174D02*
X13084467Y-17206079D01*
X13084467Y-17206079D02*
X13093991Y-17187031D01*
X13093991Y-17187031D02*
X13103515Y-17177508D01*
X13103515Y-17177508D02*
X13122562Y-17167984D01*
X13313039Y-17167984D02*
X13332086Y-17167984D01*
X13332086Y-17167984D02*
X13351134Y-17177508D01*
X13351134Y-17177508D02*
X13360658Y-17187031D01*
X13360658Y-17187031D02*
X13370182Y-17206079D01*
X13370182Y-17206079D02*
X13379705Y-17244174D01*
X13379705Y-17244174D02*
X13379705Y-17291793D01*
X13379705Y-17291793D02*
X13370182Y-17329889D01*
X13370182Y-17329889D02*
X13360658Y-17348936D01*
X13360658Y-17348936D02*
X13351134Y-17358460D01*
X13351134Y-17358460D02*
X13332086Y-17367984D01*
X13332086Y-17367984D02*
X13313039Y-17367984D01*
X13313039Y-17367984D02*
X13293991Y-17358460D01*
X13293991Y-17358460D02*
X13284467Y-17348936D01*
X13284467Y-17348936D02*
X13274943Y-17329889D01*
X13274943Y-17329889D02*
X13265420Y-17291793D01*
X13265420Y-17291793D02*
X13265420Y-17244174D01*
X13265420Y-17244174D02*
X13274943Y-17206079D01*
X13274943Y-17206079D02*
X13284467Y-17187031D01*
X13284467Y-17187031D02*
X13293991Y-17177508D01*
X13293991Y-17177508D02*
X13313039Y-17167984D01*
X13465420Y-17367984D02*
X13465420Y-17234650D01*
X13465420Y-17253698D02*
X13474943Y-17244174D01*
X13474943Y-17244174D02*
X13493991Y-17234650D01*
X13493991Y-17234650D02*
X13522563Y-17234650D01*
X13522563Y-17234650D02*
X13541610Y-17244174D01*
X13541610Y-17244174D02*
X13551134Y-17263222D01*
X13551134Y-17263222D02*
X13551134Y-17367984D01*
X13551134Y-17263222D02*
X13560658Y-17244174D01*
X13560658Y-17244174D02*
X13579705Y-17234650D01*
X13579705Y-17234650D02*
X13608277Y-17234650D01*
X13608277Y-17234650D02*
X13627324Y-17244174D01*
X13627324Y-17244174D02*
X13636848Y-17263222D01*
X13636848Y-17263222D02*
X13636848Y-17367984D01*
X13732086Y-17367984D02*
X13732086Y-17234650D01*
X13732086Y-17253698D02*
X13741610Y-17244174D01*
X13741610Y-17244174D02*
X13760658Y-17234650D01*
X13760658Y-17234650D02*
X13789229Y-17234650D01*
X13789229Y-17234650D02*
X13808277Y-17244174D01*
X13808277Y-17244174D02*
X13817801Y-17263222D01*
X13817801Y-17263222D02*
X13817801Y-17367984D01*
X13817801Y-17263222D02*
X13827324Y-17244174D01*
X13827324Y-17244174D02*
X13846372Y-17234650D01*
X13846372Y-17234650D02*
X13874943Y-17234650D01*
X13874943Y-17234650D02*
X13893991Y-17244174D01*
X13893991Y-17244174D02*
X13903515Y-17263222D01*
X13903515Y-17263222D02*
X13903515Y-17367984D01*
X14293991Y-17158460D02*
X14122563Y-17415603D01*
X14551134Y-17167984D02*
X14570182Y-17167984D01*
X14570182Y-17167984D02*
X14589229Y-17177508D01*
X14589229Y-17177508D02*
X14598753Y-17187031D01*
X14598753Y-17187031D02*
X14608277Y-17206079D01*
X14608277Y-17206079D02*
X14617801Y-17244174D01*
X14617801Y-17244174D02*
X14617801Y-17291793D01*
X14617801Y-17291793D02*
X14608277Y-17329889D01*
X14608277Y-17329889D02*
X14598753Y-17348936D01*
X14598753Y-17348936D02*
X14589229Y-17358460D01*
X14589229Y-17358460D02*
X14570182Y-17367984D01*
X14570182Y-17367984D02*
X14551134Y-17367984D01*
X14551134Y-17367984D02*
X14532086Y-17358460D01*
X14532086Y-17358460D02*
X14522563Y-17348936D01*
X14522563Y-17348936D02*
X14513039Y-17329889D01*
X14513039Y-17329889D02*
X14503515Y-17291793D01*
X14503515Y-17291793D02*
X14503515Y-17244174D01*
X14503515Y-17244174D02*
X14513039Y-17206079D01*
X14513039Y-17206079D02*
X14522563Y-17187031D01*
X14522563Y-17187031D02*
X14532086Y-17177508D01*
X14532086Y-17177508D02*
X14551134Y-17167984D01*
X14703515Y-17348936D02*
X14713039Y-17358460D01*
X14713039Y-17358460D02*
X14703515Y-17367984D01*
X14703515Y-17367984D02*
X14693991Y-17358460D01*
X14693991Y-17358460D02*
X14703515Y-17348936D01*
X14703515Y-17348936D02*
X14703515Y-17367984D01*
X14836848Y-17167984D02*
X14855896Y-17167984D01*
X14855896Y-17167984D02*
X14874944Y-17177508D01*
X14874944Y-17177508D02*
X14884467Y-17187031D01*
X14884467Y-17187031D02*
X14893991Y-17206079D01*
X14893991Y-17206079D02*
X14903515Y-17244174D01*
X14903515Y-17244174D02*
X14903515Y-17291793D01*
X14903515Y-17291793D02*
X14893991Y-17329889D01*
X14893991Y-17329889D02*
X14884467Y-17348936D01*
X14884467Y-17348936D02*
X14874944Y-17358460D01*
X14874944Y-17358460D02*
X14855896Y-17367984D01*
X14855896Y-17367984D02*
X14836848Y-17367984D01*
X14836848Y-17367984D02*
X14817801Y-17358460D01*
X14817801Y-17358460D02*
X14808277Y-17348936D01*
X14808277Y-17348936D02*
X14798753Y-17329889D01*
X14798753Y-17329889D02*
X14789229Y-17291793D01*
X14789229Y-17291793D02*
X14789229Y-17244174D01*
X14789229Y-17244174D02*
X14798753Y-17206079D01*
X14798753Y-17206079D02*
X14808277Y-17187031D01*
X14808277Y-17187031D02*
X14817801Y-17177508D01*
X14817801Y-17177508D02*
X14836848Y-17167984D01*
X15084467Y-17167984D02*
X14989229Y-17167984D01*
X14989229Y-17167984D02*
X14979706Y-17263222D01*
X14979706Y-17263222D02*
X14989229Y-17253698D01*
X14989229Y-17253698D02*
X15008277Y-17244174D01*
X15008277Y-17244174D02*
X15055896Y-17244174D01*
X15055896Y-17244174D02*
X15074944Y-17253698D01*
X15074944Y-17253698D02*
X15084467Y-17263222D01*
X15084467Y-17263222D02*
X15093991Y-17282270D01*
X15093991Y-17282270D02*
X15093991Y-17329889D01*
X15093991Y-17329889D02*
X15084467Y-17348936D01*
X15084467Y-17348936D02*
X15074944Y-17358460D01*
X15074944Y-17358460D02*
X15055896Y-17367984D01*
X15055896Y-17367984D02*
X15008277Y-17367984D01*
X15008277Y-17367984D02*
X14989229Y-17358460D01*
X14989229Y-17358460D02*
X14979706Y-17348936D01*
X15284467Y-17367984D02*
X15170182Y-17367984D01*
X15227325Y-17367984D02*
X15227325Y-17167984D01*
X15227325Y-17167984D02*
X15208277Y-17196555D01*
X15208277Y-17196555D02*
X15189229Y-17215603D01*
X15189229Y-17215603D02*
X15170182Y-17225127D01*
X15360658Y-17187031D02*
X15370182Y-17177508D01*
X15370182Y-17177508D02*
X15389229Y-17167984D01*
X15389229Y-17167984D02*
X15436848Y-17167984D01*
X15436848Y-17167984D02*
X15455896Y-17177508D01*
X15455896Y-17177508D02*
X15465420Y-17187031D01*
X15465420Y-17187031D02*
X15474944Y-17206079D01*
X15474944Y-17206079D02*
X15474944Y-17225127D01*
X15474944Y-17225127D02*
X15465420Y-17253698D01*
X15465420Y-17253698D02*
X15351134Y-17367984D01*
X15351134Y-17367984D02*
X15474944Y-17367984D01*
X15551134Y-17167984D02*
X15551134Y-17206079D01*
X15627325Y-17167984D02*
X15627325Y-17206079D01*
X15922563Y-17444174D02*
X15913039Y-17434650D01*
X15913039Y-17434650D02*
X15893991Y-17406079D01*
X15893991Y-17406079D02*
X15884468Y-17387031D01*
X15884468Y-17387031D02*
X15874944Y-17358460D01*
X15874944Y-17358460D02*
X15865420Y-17310841D01*
X15865420Y-17310841D02*
X15865420Y-17272746D01*
X15865420Y-17272746D02*
X15874944Y-17225127D01*
X15874944Y-17225127D02*
X15884468Y-17196555D01*
X15884468Y-17196555D02*
X15893991Y-17177508D01*
X15893991Y-17177508D02*
X15913039Y-17148936D01*
X15913039Y-17148936D02*
X15922563Y-17139412D01*
X16084468Y-17167984D02*
X16046372Y-17167984D01*
X16046372Y-17167984D02*
X16027325Y-17177508D01*
X16027325Y-17177508D02*
X16017801Y-17187031D01*
X16017801Y-17187031D02*
X15998753Y-17215603D01*
X15998753Y-17215603D02*
X15989229Y-17253698D01*
X15989229Y-17253698D02*
X15989229Y-17329889D01*
X15989229Y-17329889D02*
X15998753Y-17348936D01*
X15998753Y-17348936D02*
X16008277Y-17358460D01*
X16008277Y-17358460D02*
X16027325Y-17367984D01*
X16027325Y-17367984D02*
X16065420Y-17367984D01*
X16065420Y-17367984D02*
X16084468Y-17358460D01*
X16084468Y-17358460D02*
X16093991Y-17348936D01*
X16093991Y-17348936D02*
X16103515Y-17329889D01*
X16103515Y-17329889D02*
X16103515Y-17282270D01*
X16103515Y-17282270D02*
X16093991Y-17263222D01*
X16093991Y-17263222D02*
X16084468Y-17253698D01*
X16084468Y-17253698D02*
X16065420Y-17244174D01*
X16065420Y-17244174D02*
X16027325Y-17244174D01*
X16027325Y-17244174D02*
X16008277Y-17253698D01*
X16008277Y-17253698D02*
X15998753Y-17263222D01*
X15998753Y-17263222D02*
X15989229Y-17282270D01*
X16341610Y-17367984D02*
X16341610Y-17167984D01*
X16427325Y-17367984D02*
X16427325Y-17263222D01*
X16427325Y-17263222D02*
X16417801Y-17244174D01*
X16417801Y-17244174D02*
X16398753Y-17234650D01*
X16398753Y-17234650D02*
X16370182Y-17234650D01*
X16370182Y-17234650D02*
X16351134Y-17244174D01*
X16351134Y-17244174D02*
X16341610Y-17253698D01*
X16551134Y-17367984D02*
X16532087Y-17358460D01*
X16532087Y-17358460D02*
X16522563Y-17348936D01*
X16522563Y-17348936D02*
X16513039Y-17329889D01*
X16513039Y-17329889D02*
X16513039Y-17272746D01*
X16513039Y-17272746D02*
X16522563Y-17253698D01*
X16522563Y-17253698D02*
X16532087Y-17244174D01*
X16532087Y-17244174D02*
X16551134Y-17234650D01*
X16551134Y-17234650D02*
X16579706Y-17234650D01*
X16579706Y-17234650D02*
X16598753Y-17244174D01*
X16598753Y-17244174D02*
X16608277Y-17253698D01*
X16608277Y-17253698D02*
X16617801Y-17272746D01*
X16617801Y-17272746D02*
X16617801Y-17329889D01*
X16617801Y-17329889D02*
X16608277Y-17348936D01*
X16608277Y-17348936D02*
X16598753Y-17358460D01*
X16598753Y-17358460D02*
X16579706Y-17367984D01*
X16579706Y-17367984D02*
X16551134Y-17367984D01*
X16732087Y-17367984D02*
X16713039Y-17358460D01*
X16713039Y-17358460D02*
X16703515Y-17339412D01*
X16703515Y-17339412D02*
X16703515Y-17167984D01*
X16884468Y-17358460D02*
X16865420Y-17367984D01*
X16865420Y-17367984D02*
X16827325Y-17367984D01*
X16827325Y-17367984D02*
X16808277Y-17358460D01*
X16808277Y-17358460D02*
X16798753Y-17339412D01*
X16798753Y-17339412D02*
X16798753Y-17263222D01*
X16798753Y-17263222D02*
X16808277Y-17244174D01*
X16808277Y-17244174D02*
X16827325Y-17234650D01*
X16827325Y-17234650D02*
X16865420Y-17234650D01*
X16865420Y-17234650D02*
X16884468Y-17244174D01*
X16884468Y-17244174D02*
X16893992Y-17263222D01*
X16893992Y-17263222D02*
X16893992Y-17282270D01*
X16893992Y-17282270D02*
X16798753Y-17301317D01*
X16970182Y-17358460D02*
X16989230Y-17367984D01*
X16989230Y-17367984D02*
X17027325Y-17367984D01*
X17027325Y-17367984D02*
X17046373Y-17358460D01*
X17046373Y-17358460D02*
X17055896Y-17339412D01*
X17055896Y-17339412D02*
X17055896Y-17329889D01*
X17055896Y-17329889D02*
X17046373Y-17310841D01*
X17046373Y-17310841D02*
X17027325Y-17301317D01*
X17027325Y-17301317D02*
X16998753Y-17301317D01*
X16998753Y-17301317D02*
X16979706Y-17291793D01*
X16979706Y-17291793D02*
X16970182Y-17272746D01*
X16970182Y-17272746D02*
X16970182Y-17263222D01*
X16970182Y-17263222D02*
X16979706Y-17244174D01*
X16979706Y-17244174D02*
X16998753Y-17234650D01*
X16998753Y-17234650D02*
X17027325Y-17234650D01*
X17027325Y-17234650D02*
X17046373Y-17244174D01*
X17122563Y-17444174D02*
X17132087Y-17434650D01*
X17132087Y-17434650D02*
X17151134Y-17406079D01*
X17151134Y-17406079D02*
X17160658Y-17387031D01*
X17160658Y-17387031D02*
X17170182Y-17358460D01*
X17170182Y-17358460D02*
X17179706Y-17310841D01*
X17179706Y-17310841D02*
X17179706Y-17272746D01*
X17179706Y-17272746D02*
X17170182Y-17225127D01*
X17170182Y-17225127D02*
X17160658Y-17196555D01*
X17160658Y-17196555D02*
X17151134Y-17177508D01*
X17151134Y-17177508D02*
X17132087Y-17148936D01*
X17132087Y-17148936D02*
X17122563Y-17139412D01*
M02*
