M48
; DRILL file {KiCad 8.0.0} date 2024-10-06T21:21:38+0200
; FORMAT={-:-/ absolute / inch / decimal}
; #@! TF.CreationDate,2024-10-06T21:21:38+02:00
; #@! TF.GenerationSoftware,Kicad,Pcbnew,8.0.0
; #@! TF.FileFunction,Plated,1,2,PTH
FMAT,2
INCH
; #@! TA.AperFunction,Plated,PTH,ViaDrill
T1C0.0236
; #@! TA.AperFunction,Plated,PTH,ComponentDrill
T2C0.0300
; #@! TA.AperFunction,Plated,PTH,ComponentDrill
T3C0.0315
; #@! TA.AperFunction,Plated,PTH,ComponentDrill
T4C0.0354
; #@! TA.AperFunction,Plated,PTH,ComponentDrill
T5C0.0394
; #@! TA.AperFunction,Plated,PTH,ComponentDrill
T6C0.0433
; #@! TA.AperFunction,Plated,PTH,ComponentDrill
T7C0.0512
%
G90
G05
T1
X5.6831Y-2.9469
X5.7185Y-3.3622
X5.7573Y-3.0341
X5.9232Y-3.2441
X5.9291Y-4.1496
X6.1969Y-4.8425
X6.2126Y-5.3465
X6.6535Y-3.7244
X7.2047Y-3.748
X7.4488Y-3.0315
X7.5276Y-4.8504
T2
X5.252Y-5.1161
X5.252Y-5.313
X5.2539Y-5.4646
X5.2539Y-5.6614
T3
X5.1465Y-3.7197
X5.1591Y-4.8346
X5.1591Y-4.9685
X5.252Y-3.2441
X5.252Y-3.4441
X5.352Y-3.3441
X5.3669Y-4.1425
X5.3669Y-4.5425
X5.5Y-5.4646
X5.5Y-5.6614
X5.502Y-5.1161
X5.502Y-5.313
X5.5465Y-3.7197
X5.5591Y-4.8346
X5.5591Y-4.9685
X6.0201Y-3.139
X6.0201Y-3.239
X6.0201Y-3.339
X6.0201Y-3.439
X6.3201Y-3.139
X6.3201Y-3.239
X6.3201Y-3.339
X6.3201Y-3.439
X6.6291Y-3.139
X6.6291Y-3.239
X6.6291Y-3.339
X6.6291Y-3.439
X6.9291Y-3.139
X6.9291Y-3.239
X6.9291Y-3.339
X6.9291Y-3.439
X6.9797Y-2.6516
X6.9797Y-2.75
X7.5276Y-3.748
X7.6063Y-3.1654
X7.6063Y-3.3654
X7.6457Y-3.9055
X7.6457Y-4.3055
X7.663Y-3.5669
X7.7063Y-3.2654
X7.9276Y-3.748
X8.063Y-3.5669
T4
X5.1791Y-4.4406
X5.1791Y-4.5406
X5.1831Y-3.8854
X5.1831Y-3.9854
T5
X5.2165Y-2.613
X5.2165Y-2.713
X5.2165Y-2.813
X5.4114Y-2.613
X5.4114Y-2.713
X5.4114Y-2.813
X5.5413Y-4.1437
X5.5413Y-4.2437
X5.5413Y-4.3437
X5.5413Y-4.4437
X5.5413Y-4.5437
X5.5413Y-4.6437
X5.7055Y-3.7472
X5.7055Y-3.8472
X5.7055Y-3.9472
X5.7055Y-4.0472
X5.7055Y-4.1472
X5.7055Y-4.2472
X5.7055Y-4.3472
X5.7055Y-4.4472
X5.7055Y-4.5472
X5.7055Y-4.6472
X5.7055Y-4.7472
X5.7055Y-4.8472
X5.7055Y-4.9472
X5.7055Y-5.0472
X5.7055Y-5.1472
X5.7055Y-5.2472
X5.7055Y-5.3472
X5.7055Y-5.4472
X5.7055Y-5.5472
X5.7055Y-5.6472
X5.8055Y-3.7472
X5.8055Y-3.8472
X5.8055Y-3.9472
X5.8055Y-4.0472
X5.8055Y-4.1472
X5.8055Y-4.2472
X5.8055Y-4.3472
X5.8055Y-4.4472
X5.8055Y-4.5472
X5.8055Y-4.6472
X5.8055Y-4.7472
X5.8055Y-4.8472
X5.8055Y-4.9472
X5.8055Y-5.0472
X5.8055Y-5.1472
X5.8055Y-5.2472
X5.8055Y-5.3472
X5.8055Y-5.4472
X5.8055Y-5.5472
X5.8055Y-5.6472
X7.9811Y-2.8268
X8.0811Y-2.8268
X8.0811Y-3.1181
X8.0811Y-3.3701
X8.1087Y-3.7472
X8.1087Y-3.8472
X8.1087Y-3.9472
X8.1087Y-4.0472
X8.1087Y-4.1472
X8.1087Y-4.2472
X8.1087Y-4.3472
X8.1087Y-4.4472
X8.1087Y-4.5472
X8.1087Y-4.6472
X8.1087Y-4.7472
X8.1087Y-4.8472
X8.1087Y-4.9472
X8.1087Y-5.0472
X8.1087Y-5.1472
X8.1087Y-5.2472
X8.1087Y-5.3472
X8.1087Y-5.4472
X8.1087Y-5.5472
X8.1087Y-5.6472
X8.1811Y-2.8268
X8.1811Y-3.1181
X8.1811Y-3.3701
X8.2087Y-3.7472
X8.2087Y-3.8472
X8.2087Y-3.9472
X8.2087Y-4.0472
X8.2087Y-4.1472
X8.2087Y-4.2472
X8.2087Y-4.3472
X8.2087Y-4.4472
X8.2087Y-4.5472
X8.2087Y-4.6472
X8.2087Y-4.7472
X8.2087Y-4.8472
X8.2087Y-4.9472
X8.2087Y-5.0472
X8.2087Y-5.1472
X8.2087Y-5.2472
X8.2087Y-5.3472
X8.2087Y-5.4472
X8.2087Y-5.5472
X8.2087Y-5.6472
T6
X7.9866Y-2.5376
X8.0866Y-2.5376
X8.1866Y-2.5376
T7
X5.8073Y-2.6516
X6.0073Y-2.6516
X6.353Y-2.6535
X6.553Y-2.6535
X7.3543Y-2.651
X7.5543Y-2.651
M30
