%TF.GenerationSoftware,KiCad,Pcbnew,8.0.0*%
%TF.CreationDate,2024-05-29T15:57:02+02:00*%
%TF.ProjectId,FIR_filter_G431KB,4649525f-6669-46c7-9465-725f47343331,rev?*%
%TF.SameCoordinates,Original*%
%TF.FileFunction,Legend,Top*%
%TF.FilePolarity,Positive*%
%FSLAX46Y46*%
G04 Gerber Fmt 4.6, Leading zero omitted, Abs format (unit mm)*
G04 Created by KiCad (PCBNEW 8.0.0) date 2024-05-29 15:57:02*
%MOMM*%
%LPD*%
G01*
G04 APERTURE LIST*
%ADD10C,0.100000*%
%ADD11C,0.150000*%
%ADD12C,0.120000*%
%ADD13C,0.000000*%
%ADD14C,0.127000*%
%ADD15C,0.200000*%
G04 APERTURE END LIST*
D10*
X243556265Y-97886704D02*
X244032455Y-97886704D01*
X243461027Y-98172419D02*
X243794360Y-97172419D01*
X243794360Y-97172419D02*
X244127693Y-98172419D01*
X244461027Y-97505752D02*
X244461027Y-98172419D01*
X244461027Y-97600990D02*
X244508646Y-97553371D01*
X244508646Y-97553371D02*
X244603884Y-97505752D01*
X244603884Y-97505752D02*
X244746741Y-97505752D01*
X244746741Y-97505752D02*
X244841979Y-97553371D01*
X244841979Y-97553371D02*
X244889598Y-97648609D01*
X244889598Y-97648609D02*
X244889598Y-98172419D01*
X245794360Y-98172419D02*
X245794360Y-97648609D01*
X245794360Y-97648609D02*
X245746741Y-97553371D01*
X245746741Y-97553371D02*
X245651503Y-97505752D01*
X245651503Y-97505752D02*
X245461027Y-97505752D01*
X245461027Y-97505752D02*
X245365789Y-97553371D01*
X245794360Y-98124800D02*
X245699122Y-98172419D01*
X245699122Y-98172419D02*
X245461027Y-98172419D01*
X245461027Y-98172419D02*
X245365789Y-98124800D01*
X245365789Y-98124800D02*
X245318170Y-98029561D01*
X245318170Y-98029561D02*
X245318170Y-97934323D01*
X245318170Y-97934323D02*
X245365789Y-97839085D01*
X245365789Y-97839085D02*
X245461027Y-97791466D01*
X245461027Y-97791466D02*
X245699122Y-97791466D01*
X245699122Y-97791466D02*
X245794360Y-97743847D01*
X246413408Y-98172419D02*
X246318170Y-98124800D01*
X246318170Y-98124800D02*
X246270551Y-98029561D01*
X246270551Y-98029561D02*
X246270551Y-97172419D01*
X246937218Y-98172419D02*
X246841980Y-98124800D01*
X246841980Y-98124800D02*
X246794361Y-98077180D01*
X246794361Y-98077180D02*
X246746742Y-97981942D01*
X246746742Y-97981942D02*
X246746742Y-97696228D01*
X246746742Y-97696228D02*
X246794361Y-97600990D01*
X246794361Y-97600990D02*
X246841980Y-97553371D01*
X246841980Y-97553371D02*
X246937218Y-97505752D01*
X246937218Y-97505752D02*
X247080075Y-97505752D01*
X247080075Y-97505752D02*
X247175313Y-97553371D01*
X247175313Y-97553371D02*
X247222932Y-97600990D01*
X247222932Y-97600990D02*
X247270551Y-97696228D01*
X247270551Y-97696228D02*
X247270551Y-97981942D01*
X247270551Y-97981942D02*
X247222932Y-98077180D01*
X247222932Y-98077180D02*
X247175313Y-98124800D01*
X247175313Y-98124800D02*
X247080075Y-98172419D01*
X247080075Y-98172419D02*
X246937218Y-98172419D01*
X248127694Y-97505752D02*
X248127694Y-98315276D01*
X248127694Y-98315276D02*
X248080075Y-98410514D01*
X248080075Y-98410514D02*
X248032456Y-98458133D01*
X248032456Y-98458133D02*
X247937218Y-98505752D01*
X247937218Y-98505752D02*
X247794361Y-98505752D01*
X247794361Y-98505752D02*
X247699123Y-98458133D01*
X248127694Y-98124800D02*
X248032456Y-98172419D01*
X248032456Y-98172419D02*
X247841980Y-98172419D01*
X247841980Y-98172419D02*
X247746742Y-98124800D01*
X247746742Y-98124800D02*
X247699123Y-98077180D01*
X247699123Y-98077180D02*
X247651504Y-97981942D01*
X247651504Y-97981942D02*
X247651504Y-97696228D01*
X247651504Y-97696228D02*
X247699123Y-97600990D01*
X247699123Y-97600990D02*
X247746742Y-97553371D01*
X247746742Y-97553371D02*
X247841980Y-97505752D01*
X247841980Y-97505752D02*
X248032456Y-97505752D01*
X248032456Y-97505752D02*
X248127694Y-97553371D01*
X249365790Y-98172419D02*
X249365790Y-97172419D01*
X249841980Y-97505752D02*
X249841980Y-98172419D01*
X249841980Y-97600990D02*
X249889599Y-97553371D01*
X249889599Y-97553371D02*
X249984837Y-97505752D01*
X249984837Y-97505752D02*
X250127694Y-97505752D01*
X250127694Y-97505752D02*
X250222932Y-97553371D01*
X250222932Y-97553371D02*
X250270551Y-97648609D01*
X250270551Y-97648609D02*
X250270551Y-98172419D01*
X228171428Y-150438665D02*
X227838095Y-150438665D01*
X227838095Y-150962475D02*
X227838095Y-149962475D01*
X227838095Y-149962475D02*
X228314285Y-149962475D01*
X228695238Y-150962475D02*
X228695238Y-149962475D01*
X229742856Y-150962475D02*
X229409523Y-150486284D01*
X229171428Y-150962475D02*
X229171428Y-149962475D01*
X229171428Y-149962475D02*
X229552380Y-149962475D01*
X229552380Y-149962475D02*
X229647618Y-150010094D01*
X229647618Y-150010094D02*
X229695237Y-150057713D01*
X229695237Y-150057713D02*
X229742856Y-150152951D01*
X229742856Y-150152951D02*
X229742856Y-150295808D01*
X229742856Y-150295808D02*
X229695237Y-150391046D01*
X229695237Y-150391046D02*
X229647618Y-150438665D01*
X229647618Y-150438665D02*
X229552380Y-150486284D01*
X229552380Y-150486284D02*
X229171428Y-150486284D01*
X229933333Y-151057713D02*
X230695237Y-151057713D01*
X231266666Y-150438665D02*
X230933333Y-150438665D01*
X230933333Y-150962475D02*
X230933333Y-149962475D01*
X230933333Y-149962475D02*
X231409523Y-149962475D01*
X231790476Y-150962475D02*
X231790476Y-150295808D01*
X231790476Y-149962475D02*
X231742857Y-150010094D01*
X231742857Y-150010094D02*
X231790476Y-150057713D01*
X231790476Y-150057713D02*
X231838095Y-150010094D01*
X231838095Y-150010094D02*
X231790476Y-149962475D01*
X231790476Y-149962475D02*
X231790476Y-150057713D01*
X232409523Y-150962475D02*
X232314285Y-150914856D01*
X232314285Y-150914856D02*
X232266666Y-150819617D01*
X232266666Y-150819617D02*
X232266666Y-149962475D01*
X232647619Y-150295808D02*
X233028571Y-150295808D01*
X232790476Y-149962475D02*
X232790476Y-150819617D01*
X232790476Y-150819617D02*
X232838095Y-150914856D01*
X232838095Y-150914856D02*
X232933333Y-150962475D01*
X232933333Y-150962475D02*
X233028571Y-150962475D01*
X233742857Y-150914856D02*
X233647619Y-150962475D01*
X233647619Y-150962475D02*
X233457143Y-150962475D01*
X233457143Y-150962475D02*
X233361905Y-150914856D01*
X233361905Y-150914856D02*
X233314286Y-150819617D01*
X233314286Y-150819617D02*
X233314286Y-150438665D01*
X233314286Y-150438665D02*
X233361905Y-150343427D01*
X233361905Y-150343427D02*
X233457143Y-150295808D01*
X233457143Y-150295808D02*
X233647619Y-150295808D01*
X233647619Y-150295808D02*
X233742857Y-150343427D01*
X233742857Y-150343427D02*
X233790476Y-150438665D01*
X233790476Y-150438665D02*
X233790476Y-150533903D01*
X233790476Y-150533903D02*
X233314286Y-150629141D01*
X234219048Y-150962475D02*
X234219048Y-150295808D01*
X234219048Y-150486284D02*
X234266667Y-150391046D01*
X234266667Y-150391046D02*
X234314286Y-150343427D01*
X234314286Y-150343427D02*
X234409524Y-150295808D01*
X234409524Y-150295808D02*
X234504762Y-150295808D01*
X227361904Y-152572419D02*
X226885714Y-152572419D01*
X226885714Y-152572419D02*
X226885714Y-151572419D01*
X227695238Y-152048609D02*
X228028571Y-152048609D01*
X228171428Y-152572419D02*
X227695238Y-152572419D01*
X227695238Y-152572419D02*
X227695238Y-151572419D01*
X227695238Y-151572419D02*
X228171428Y-151572419D01*
X228600000Y-151905752D02*
X228600000Y-152572419D01*
X228600000Y-152000990D02*
X228647619Y-151953371D01*
X228647619Y-151953371D02*
X228742857Y-151905752D01*
X228742857Y-151905752D02*
X228885714Y-151905752D01*
X228885714Y-151905752D02*
X228980952Y-151953371D01*
X228980952Y-151953371D02*
X229028571Y-152048609D01*
X229028571Y-152048609D02*
X229028571Y-152572419D01*
X229457143Y-152524800D02*
X229552381Y-152572419D01*
X229552381Y-152572419D02*
X229742857Y-152572419D01*
X229742857Y-152572419D02*
X229838095Y-152524800D01*
X229838095Y-152524800D02*
X229885714Y-152429561D01*
X229885714Y-152429561D02*
X229885714Y-152381942D01*
X229885714Y-152381942D02*
X229838095Y-152286704D01*
X229838095Y-152286704D02*
X229742857Y-152239085D01*
X229742857Y-152239085D02*
X229600000Y-152239085D01*
X229600000Y-152239085D02*
X229504762Y-152191466D01*
X229504762Y-152191466D02*
X229457143Y-152096228D01*
X229457143Y-152096228D02*
X229457143Y-152048609D01*
X229457143Y-152048609D02*
X229504762Y-151953371D01*
X229504762Y-151953371D02*
X229600000Y-151905752D01*
X229600000Y-151905752D02*
X229742857Y-151905752D01*
X229742857Y-151905752D02*
X229838095Y-151953371D01*
X230314286Y-152048609D02*
X230647619Y-152048609D01*
X230790476Y-152572419D02*
X230314286Y-152572419D01*
X230314286Y-152572419D02*
X230314286Y-151572419D01*
X230314286Y-151572419D02*
X230790476Y-151572419D01*
X231933334Y-151667657D02*
X231980953Y-151620038D01*
X231980953Y-151620038D02*
X232076191Y-151572419D01*
X232076191Y-151572419D02*
X232314286Y-151572419D01*
X232314286Y-151572419D02*
X232409524Y-151620038D01*
X232409524Y-151620038D02*
X232457143Y-151667657D01*
X232457143Y-151667657D02*
X232504762Y-151762895D01*
X232504762Y-151762895D02*
X232504762Y-151858133D01*
X232504762Y-151858133D02*
X232457143Y-152000990D01*
X232457143Y-152000990D02*
X231885715Y-152572419D01*
X231885715Y-152572419D02*
X232504762Y-152572419D01*
X233123810Y-151572419D02*
X233219048Y-151572419D01*
X233219048Y-151572419D02*
X233314286Y-151620038D01*
X233314286Y-151620038D02*
X233361905Y-151667657D01*
X233361905Y-151667657D02*
X233409524Y-151762895D01*
X233409524Y-151762895D02*
X233457143Y-151953371D01*
X233457143Y-151953371D02*
X233457143Y-152191466D01*
X233457143Y-152191466D02*
X233409524Y-152381942D01*
X233409524Y-152381942D02*
X233361905Y-152477180D01*
X233361905Y-152477180D02*
X233314286Y-152524800D01*
X233314286Y-152524800D02*
X233219048Y-152572419D01*
X233219048Y-152572419D02*
X233123810Y-152572419D01*
X233123810Y-152572419D02*
X233028572Y-152524800D01*
X233028572Y-152524800D02*
X232980953Y-152477180D01*
X232980953Y-152477180D02*
X232933334Y-152381942D01*
X232933334Y-152381942D02*
X232885715Y-152191466D01*
X232885715Y-152191466D02*
X232885715Y-151953371D01*
X232885715Y-151953371D02*
X232933334Y-151762895D01*
X232933334Y-151762895D02*
X232980953Y-151667657D01*
X232980953Y-151667657D02*
X233028572Y-151620038D01*
X233028572Y-151620038D02*
X233123810Y-151572419D01*
X233838096Y-151667657D02*
X233885715Y-151620038D01*
X233885715Y-151620038D02*
X233980953Y-151572419D01*
X233980953Y-151572419D02*
X234219048Y-151572419D01*
X234219048Y-151572419D02*
X234314286Y-151620038D01*
X234314286Y-151620038D02*
X234361905Y-151667657D01*
X234361905Y-151667657D02*
X234409524Y-151762895D01*
X234409524Y-151762895D02*
X234409524Y-151858133D01*
X234409524Y-151858133D02*
X234361905Y-152000990D01*
X234361905Y-152000990D02*
X233790477Y-152572419D01*
X233790477Y-152572419D02*
X234409524Y-152572419D01*
X235266667Y-151905752D02*
X235266667Y-152572419D01*
X235028572Y-151524800D02*
X234790477Y-152239085D01*
X234790477Y-152239085D02*
X235409524Y-152239085D01*
X190680074Y-108822419D02*
X190203884Y-108822419D01*
X190203884Y-108822419D02*
X190203884Y-107822419D01*
X191013408Y-108298609D02*
X191346741Y-108298609D01*
X191489598Y-108822419D02*
X191013408Y-108822419D01*
X191013408Y-108822419D02*
X191013408Y-107822419D01*
X191013408Y-107822419D02*
X191489598Y-107822419D01*
X191918170Y-108822419D02*
X191918170Y-107822419D01*
X191918170Y-107822419D02*
X192156265Y-107822419D01*
X192156265Y-107822419D02*
X192299122Y-107870038D01*
X192299122Y-107870038D02*
X192394360Y-107965276D01*
X192394360Y-107965276D02*
X192441979Y-108060514D01*
X192441979Y-108060514D02*
X192489598Y-108250990D01*
X192489598Y-108250990D02*
X192489598Y-108393847D01*
X192489598Y-108393847D02*
X192441979Y-108584323D01*
X192441979Y-108584323D02*
X192394360Y-108679561D01*
X192394360Y-108679561D02*
X192299122Y-108774800D01*
X192299122Y-108774800D02*
X192156265Y-108822419D01*
X192156265Y-108822419D02*
X191918170Y-108822419D01*
X193441979Y-108822419D02*
X192870551Y-108822419D01*
X193156265Y-108822419D02*
X193156265Y-107822419D01*
X193156265Y-107822419D02*
X193061027Y-107965276D01*
X193061027Y-107965276D02*
X192965789Y-108060514D01*
X192965789Y-108060514D02*
X192870551Y-108108133D01*
X196596115Y-139644247D02*
X195834211Y-139358533D01*
X195834211Y-139358533D02*
X196596115Y-139072819D01*
X179811027Y-125572419D02*
X180144360Y-126572419D01*
X180144360Y-126572419D02*
X180477693Y-125572419D01*
X180811027Y-126572419D02*
X180811027Y-125905752D01*
X180811027Y-125572419D02*
X180763408Y-125620038D01*
X180763408Y-125620038D02*
X180811027Y-125667657D01*
X180811027Y-125667657D02*
X180858646Y-125620038D01*
X180858646Y-125620038D02*
X180811027Y-125572419D01*
X180811027Y-125572419D02*
X180811027Y-125667657D01*
X181287217Y-125905752D02*
X181287217Y-126572419D01*
X181287217Y-126000990D02*
X181334836Y-125953371D01*
X181334836Y-125953371D02*
X181430074Y-125905752D01*
X181430074Y-125905752D02*
X181572931Y-125905752D01*
X181572931Y-125905752D02*
X181668169Y-125953371D01*
X181668169Y-125953371D02*
X181715788Y-126048609D01*
X181715788Y-126048609D02*
X181715788Y-126572419D01*
X219022419Y-119046115D02*
X218022419Y-119046115D01*
X218022419Y-119046115D02*
X219022419Y-118474687D01*
X219022419Y-118474687D02*
X218022419Y-118474687D01*
X218355752Y-117569925D02*
X219022419Y-117569925D01*
X218355752Y-117998496D02*
X218879561Y-117998496D01*
X218879561Y-117998496D02*
X218974800Y-117950877D01*
X218974800Y-117950877D02*
X219022419Y-117855639D01*
X219022419Y-117855639D02*
X219022419Y-117712782D01*
X219022419Y-117712782D02*
X218974800Y-117617544D01*
X218974800Y-117617544D02*
X218927180Y-117569925D01*
X218974800Y-116665163D02*
X219022419Y-116760401D01*
X219022419Y-116760401D02*
X219022419Y-116950877D01*
X219022419Y-116950877D02*
X218974800Y-117046115D01*
X218974800Y-117046115D02*
X218927180Y-117093734D01*
X218927180Y-117093734D02*
X218831942Y-117141353D01*
X218831942Y-117141353D02*
X218546228Y-117141353D01*
X218546228Y-117141353D02*
X218450990Y-117093734D01*
X218450990Y-117093734D02*
X218403371Y-117046115D01*
X218403371Y-117046115D02*
X218355752Y-116950877D01*
X218355752Y-116950877D02*
X218355752Y-116760401D01*
X218355752Y-116760401D02*
X218403371Y-116665163D01*
X219022419Y-116093734D02*
X218974800Y-116188972D01*
X218974800Y-116188972D02*
X218879561Y-116236591D01*
X218879561Y-116236591D02*
X218022419Y-116236591D01*
X218974800Y-115331829D02*
X219022419Y-115427067D01*
X219022419Y-115427067D02*
X219022419Y-115617543D01*
X219022419Y-115617543D02*
X218974800Y-115712781D01*
X218974800Y-115712781D02*
X218879561Y-115760400D01*
X218879561Y-115760400D02*
X218498609Y-115760400D01*
X218498609Y-115760400D02*
X218403371Y-115712781D01*
X218403371Y-115712781D02*
X218355752Y-115617543D01*
X218355752Y-115617543D02*
X218355752Y-115427067D01*
X218355752Y-115427067D02*
X218403371Y-115331829D01*
X218403371Y-115331829D02*
X218498609Y-115284210D01*
X218498609Y-115284210D02*
X218593847Y-115284210D01*
X218593847Y-115284210D02*
X218689085Y-115760400D01*
X219022419Y-114712781D02*
X218974800Y-114808019D01*
X218974800Y-114808019D02*
X218927180Y-114855638D01*
X218927180Y-114855638D02*
X218831942Y-114903257D01*
X218831942Y-114903257D02*
X218546228Y-114903257D01*
X218546228Y-114903257D02*
X218450990Y-114855638D01*
X218450990Y-114855638D02*
X218403371Y-114808019D01*
X218403371Y-114808019D02*
X218355752Y-114712781D01*
X218355752Y-114712781D02*
X218355752Y-114569924D01*
X218355752Y-114569924D02*
X218403371Y-114474686D01*
X218403371Y-114474686D02*
X218450990Y-114427067D01*
X218450990Y-114427067D02*
X218546228Y-114379448D01*
X218546228Y-114379448D02*
X218831942Y-114379448D01*
X218831942Y-114379448D02*
X218927180Y-114427067D01*
X218927180Y-114427067D02*
X218974800Y-114474686D01*
X218974800Y-114474686D02*
X219022419Y-114569924D01*
X219022419Y-114569924D02*
X219022419Y-114712781D01*
X218070038Y-112665162D02*
X218022419Y-112760400D01*
X218022419Y-112760400D02*
X218022419Y-112903257D01*
X218022419Y-112903257D02*
X218070038Y-113046114D01*
X218070038Y-113046114D02*
X218165276Y-113141352D01*
X218165276Y-113141352D02*
X218260514Y-113188971D01*
X218260514Y-113188971D02*
X218450990Y-113236590D01*
X218450990Y-113236590D02*
X218593847Y-113236590D01*
X218593847Y-113236590D02*
X218784323Y-113188971D01*
X218784323Y-113188971D02*
X218879561Y-113141352D01*
X218879561Y-113141352D02*
X218974800Y-113046114D01*
X218974800Y-113046114D02*
X219022419Y-112903257D01*
X219022419Y-112903257D02*
X219022419Y-112808019D01*
X219022419Y-112808019D02*
X218974800Y-112665162D01*
X218974800Y-112665162D02*
X218927180Y-112617543D01*
X218927180Y-112617543D02*
X218593847Y-112617543D01*
X218593847Y-112617543D02*
X218593847Y-112808019D01*
X218355752Y-111760400D02*
X219022419Y-111760400D01*
X217974800Y-111998495D02*
X218689085Y-112236590D01*
X218689085Y-112236590D02*
X218689085Y-111617543D01*
X218022419Y-111331828D02*
X218022419Y-110712781D01*
X218022419Y-110712781D02*
X218403371Y-111046114D01*
X218403371Y-111046114D02*
X218403371Y-110903257D01*
X218403371Y-110903257D02*
X218450990Y-110808019D01*
X218450990Y-110808019D02*
X218498609Y-110760400D01*
X218498609Y-110760400D02*
X218593847Y-110712781D01*
X218593847Y-110712781D02*
X218831942Y-110712781D01*
X218831942Y-110712781D02*
X218927180Y-110760400D01*
X218927180Y-110760400D02*
X218974800Y-110808019D01*
X218974800Y-110808019D02*
X219022419Y-110903257D01*
X219022419Y-110903257D02*
X219022419Y-111188971D01*
X219022419Y-111188971D02*
X218974800Y-111284209D01*
X218974800Y-111284209D02*
X218927180Y-111331828D01*
X219022419Y-109760400D02*
X219022419Y-110331828D01*
X219022419Y-110046114D02*
X218022419Y-110046114D01*
X218022419Y-110046114D02*
X218165276Y-110141352D01*
X218165276Y-110141352D02*
X218260514Y-110236590D01*
X218260514Y-110236590D02*
X218308133Y-110331828D01*
X219022419Y-109331828D02*
X218022419Y-109331828D01*
X219022419Y-108760400D02*
X218450990Y-109188971D01*
X218022419Y-108760400D02*
X218593847Y-109331828D01*
X218498609Y-107998495D02*
X218546228Y-107855638D01*
X218546228Y-107855638D02*
X218593847Y-107808019D01*
X218593847Y-107808019D02*
X218689085Y-107760400D01*
X218689085Y-107760400D02*
X218831942Y-107760400D01*
X218831942Y-107760400D02*
X218927180Y-107808019D01*
X218927180Y-107808019D02*
X218974800Y-107855638D01*
X218974800Y-107855638D02*
X219022419Y-107950876D01*
X219022419Y-107950876D02*
X219022419Y-108331828D01*
X219022419Y-108331828D02*
X218022419Y-108331828D01*
X218022419Y-108331828D02*
X218022419Y-107998495D01*
X218022419Y-107998495D02*
X218070038Y-107903257D01*
X218070038Y-107903257D02*
X218117657Y-107855638D01*
X218117657Y-107855638D02*
X218212895Y-107808019D01*
X218212895Y-107808019D02*
X218308133Y-107808019D01*
X218308133Y-107808019D02*
X218403371Y-107855638D01*
X218403371Y-107855638D02*
X218450990Y-107903257D01*
X218450990Y-107903257D02*
X218498609Y-107998495D01*
X218498609Y-107998495D02*
X218498609Y-108331828D01*
D11*
X179810588Y-123067438D02*
X179715350Y-123019819D01*
X179715350Y-123019819D02*
X179572493Y-123019819D01*
X179572493Y-123019819D02*
X179429636Y-123067438D01*
X179429636Y-123067438D02*
X179334398Y-123162676D01*
X179334398Y-123162676D02*
X179286779Y-123257914D01*
X179286779Y-123257914D02*
X179239160Y-123448390D01*
X179239160Y-123448390D02*
X179239160Y-123591247D01*
X179239160Y-123591247D02*
X179286779Y-123781723D01*
X179286779Y-123781723D02*
X179334398Y-123876961D01*
X179334398Y-123876961D02*
X179429636Y-123972200D01*
X179429636Y-123972200D02*
X179572493Y-124019819D01*
X179572493Y-124019819D02*
X179667731Y-124019819D01*
X179667731Y-124019819D02*
X179810588Y-123972200D01*
X179810588Y-123972200D02*
X179858207Y-123924580D01*
X179858207Y-123924580D02*
X179858207Y-123591247D01*
X179858207Y-123591247D02*
X179667731Y-123591247D01*
X180286779Y-124019819D02*
X180286779Y-123019819D01*
X180286779Y-123019819D02*
X180858207Y-124019819D01*
X180858207Y-124019819D02*
X180858207Y-123019819D01*
X181334398Y-124019819D02*
X181334398Y-123019819D01*
X181334398Y-123019819D02*
X181572493Y-123019819D01*
X181572493Y-123019819D02*
X181715350Y-123067438D01*
X181715350Y-123067438D02*
X181810588Y-123162676D01*
X181810588Y-123162676D02*
X181858207Y-123257914D01*
X181858207Y-123257914D02*
X181905826Y-123448390D01*
X181905826Y-123448390D02*
X181905826Y-123591247D01*
X181905826Y-123591247D02*
X181858207Y-123781723D01*
X181858207Y-123781723D02*
X181810588Y-123876961D01*
X181810588Y-123876961D02*
X181715350Y-123972200D01*
X181715350Y-123972200D02*
X181572493Y-124019819D01*
X181572493Y-124019819D02*
X181334398Y-124019819D01*
D10*
X192380074Y-121872419D02*
X191903884Y-121872419D01*
X191903884Y-121872419D02*
X191903884Y-120872419D01*
X192713408Y-121348609D02*
X193046741Y-121348609D01*
X193189598Y-121872419D02*
X192713408Y-121872419D01*
X192713408Y-121872419D02*
X192713408Y-120872419D01*
X192713408Y-120872419D02*
X193189598Y-120872419D01*
X193618170Y-121872419D02*
X193618170Y-120872419D01*
X193618170Y-120872419D02*
X193856265Y-120872419D01*
X193856265Y-120872419D02*
X193999122Y-120920038D01*
X193999122Y-120920038D02*
X194094360Y-121015276D01*
X194094360Y-121015276D02*
X194141979Y-121110514D01*
X194141979Y-121110514D02*
X194189598Y-121300990D01*
X194189598Y-121300990D02*
X194189598Y-121443847D01*
X194189598Y-121443847D02*
X194141979Y-121634323D01*
X194141979Y-121634323D02*
X194094360Y-121729561D01*
X194094360Y-121729561D02*
X193999122Y-121824800D01*
X193999122Y-121824800D02*
X193856265Y-121872419D01*
X193856265Y-121872419D02*
X193618170Y-121872419D01*
X194570551Y-120967657D02*
X194618170Y-120920038D01*
X194618170Y-120920038D02*
X194713408Y-120872419D01*
X194713408Y-120872419D02*
X194951503Y-120872419D01*
X194951503Y-120872419D02*
X195046741Y-120920038D01*
X195046741Y-120920038D02*
X195094360Y-120967657D01*
X195094360Y-120967657D02*
X195141979Y-121062895D01*
X195141979Y-121062895D02*
X195141979Y-121158133D01*
X195141979Y-121158133D02*
X195094360Y-121300990D01*
X195094360Y-121300990D02*
X194522932Y-121872419D01*
X194522932Y-121872419D02*
X195141979Y-121872419D01*
D11*
X256060588Y-135017438D02*
X255965350Y-134969819D01*
X255965350Y-134969819D02*
X255822493Y-134969819D01*
X255822493Y-134969819D02*
X255679636Y-135017438D01*
X255679636Y-135017438D02*
X255584398Y-135112676D01*
X255584398Y-135112676D02*
X255536779Y-135207914D01*
X255536779Y-135207914D02*
X255489160Y-135398390D01*
X255489160Y-135398390D02*
X255489160Y-135541247D01*
X255489160Y-135541247D02*
X255536779Y-135731723D01*
X255536779Y-135731723D02*
X255584398Y-135826961D01*
X255584398Y-135826961D02*
X255679636Y-135922200D01*
X255679636Y-135922200D02*
X255822493Y-135969819D01*
X255822493Y-135969819D02*
X255917731Y-135969819D01*
X255917731Y-135969819D02*
X256060588Y-135922200D01*
X256060588Y-135922200D02*
X256108207Y-135874580D01*
X256108207Y-135874580D02*
X256108207Y-135541247D01*
X256108207Y-135541247D02*
X255917731Y-135541247D01*
X256536779Y-135969819D02*
X256536779Y-134969819D01*
X256536779Y-134969819D02*
X257108207Y-135969819D01*
X257108207Y-135969819D02*
X257108207Y-134969819D01*
X257584398Y-135969819D02*
X257584398Y-134969819D01*
X257584398Y-134969819D02*
X257822493Y-134969819D01*
X257822493Y-134969819D02*
X257965350Y-135017438D01*
X257965350Y-135017438D02*
X258060588Y-135112676D01*
X258060588Y-135112676D02*
X258108207Y-135207914D01*
X258108207Y-135207914D02*
X258155826Y-135398390D01*
X258155826Y-135398390D02*
X258155826Y-135541247D01*
X258155826Y-135541247D02*
X258108207Y-135731723D01*
X258108207Y-135731723D02*
X258060588Y-135826961D01*
X258060588Y-135826961D02*
X257965350Y-135922200D01*
X257965350Y-135922200D02*
X257822493Y-135969819D01*
X257822493Y-135969819D02*
X257584398Y-135969819D01*
X245267997Y-105986470D02*
X245220378Y-106081708D01*
X245220378Y-106081708D02*
X245220378Y-106224565D01*
X245220378Y-106224565D02*
X245267997Y-106367422D01*
X245267997Y-106367422D02*
X245363235Y-106462660D01*
X245363235Y-106462660D02*
X245458473Y-106510279D01*
X245458473Y-106510279D02*
X245648949Y-106557898D01*
X245648949Y-106557898D02*
X245791806Y-106557898D01*
X245791806Y-106557898D02*
X245982282Y-106510279D01*
X245982282Y-106510279D02*
X246077520Y-106462660D01*
X246077520Y-106462660D02*
X246172759Y-106367422D01*
X246172759Y-106367422D02*
X246220378Y-106224565D01*
X246220378Y-106224565D02*
X246220378Y-106129327D01*
X246220378Y-106129327D02*
X246172759Y-105986470D01*
X246172759Y-105986470D02*
X246125139Y-105938851D01*
X246125139Y-105938851D02*
X245791806Y-105938851D01*
X245791806Y-105938851D02*
X245791806Y-106129327D01*
X246220378Y-105510279D02*
X245220378Y-105510279D01*
X245220378Y-105510279D02*
X246220378Y-104938851D01*
X246220378Y-104938851D02*
X245220378Y-104938851D01*
X246220378Y-104462660D02*
X245220378Y-104462660D01*
X245220378Y-104462660D02*
X245220378Y-104224565D01*
X245220378Y-104224565D02*
X245267997Y-104081708D01*
X245267997Y-104081708D02*
X245363235Y-103986470D01*
X245363235Y-103986470D02*
X245458473Y-103938851D01*
X245458473Y-103938851D02*
X245648949Y-103891232D01*
X245648949Y-103891232D02*
X245791806Y-103891232D01*
X245791806Y-103891232D02*
X245982282Y-103938851D01*
X245982282Y-103938851D02*
X246077520Y-103986470D01*
X246077520Y-103986470D02*
X246172759Y-104081708D01*
X246172759Y-104081708D02*
X246220378Y-104224565D01*
X246220378Y-104224565D02*
X246220378Y-104462660D01*
X227617438Y-106639411D02*
X227569819Y-106734649D01*
X227569819Y-106734649D02*
X227569819Y-106877506D01*
X227569819Y-106877506D02*
X227617438Y-107020363D01*
X227617438Y-107020363D02*
X227712676Y-107115601D01*
X227712676Y-107115601D02*
X227807914Y-107163220D01*
X227807914Y-107163220D02*
X227998390Y-107210839D01*
X227998390Y-107210839D02*
X228141247Y-107210839D01*
X228141247Y-107210839D02*
X228331723Y-107163220D01*
X228331723Y-107163220D02*
X228426961Y-107115601D01*
X228426961Y-107115601D02*
X228522200Y-107020363D01*
X228522200Y-107020363D02*
X228569819Y-106877506D01*
X228569819Y-106877506D02*
X228569819Y-106782268D01*
X228569819Y-106782268D02*
X228522200Y-106639411D01*
X228522200Y-106639411D02*
X228474580Y-106591792D01*
X228474580Y-106591792D02*
X228141247Y-106591792D01*
X228141247Y-106591792D02*
X228141247Y-106782268D01*
X228569819Y-106163220D02*
X227569819Y-106163220D01*
X227569819Y-106163220D02*
X228569819Y-105591792D01*
X228569819Y-105591792D02*
X227569819Y-105591792D01*
X228569819Y-105115601D02*
X227569819Y-105115601D01*
X227569819Y-105115601D02*
X227569819Y-104877506D01*
X227569819Y-104877506D02*
X227617438Y-104734649D01*
X227617438Y-104734649D02*
X227712676Y-104639411D01*
X227712676Y-104639411D02*
X227807914Y-104591792D01*
X227807914Y-104591792D02*
X227998390Y-104544173D01*
X227998390Y-104544173D02*
X228141247Y-104544173D01*
X228141247Y-104544173D02*
X228331723Y-104591792D01*
X228331723Y-104591792D02*
X228426961Y-104639411D01*
X228426961Y-104639411D02*
X228522200Y-104734649D01*
X228522200Y-104734649D02*
X228569819Y-104877506D01*
X228569819Y-104877506D02*
X228569819Y-105115601D01*
D10*
X264419062Y-140997092D02*
X264419062Y-140520902D01*
X264704777Y-141092330D02*
X263704777Y-140758997D01*
X263704777Y-140758997D02*
X264704777Y-140425664D01*
X264038110Y-140092330D02*
X264704777Y-140092330D01*
X264133348Y-140092330D02*
X264085729Y-140044711D01*
X264085729Y-140044711D02*
X264038110Y-139949473D01*
X264038110Y-139949473D02*
X264038110Y-139806616D01*
X264038110Y-139806616D02*
X264085729Y-139711378D01*
X264085729Y-139711378D02*
X264180967Y-139663759D01*
X264180967Y-139663759D02*
X264704777Y-139663759D01*
X264704777Y-138758997D02*
X264180967Y-138758997D01*
X264180967Y-138758997D02*
X264085729Y-138806616D01*
X264085729Y-138806616D02*
X264038110Y-138901854D01*
X264038110Y-138901854D02*
X264038110Y-139092330D01*
X264038110Y-139092330D02*
X264085729Y-139187568D01*
X264657158Y-138758997D02*
X264704777Y-138854235D01*
X264704777Y-138854235D02*
X264704777Y-139092330D01*
X264704777Y-139092330D02*
X264657158Y-139187568D01*
X264657158Y-139187568D02*
X264561919Y-139235187D01*
X264561919Y-139235187D02*
X264466681Y-139235187D01*
X264466681Y-139235187D02*
X264371443Y-139187568D01*
X264371443Y-139187568D02*
X264323824Y-139092330D01*
X264323824Y-139092330D02*
X264323824Y-138854235D01*
X264323824Y-138854235D02*
X264276205Y-138758997D01*
X264704777Y-138139949D02*
X264657158Y-138235187D01*
X264657158Y-138235187D02*
X264561919Y-138282806D01*
X264561919Y-138282806D02*
X263704777Y-138282806D01*
X264704777Y-137616139D02*
X264657158Y-137711377D01*
X264657158Y-137711377D02*
X264609538Y-137758996D01*
X264609538Y-137758996D02*
X264514300Y-137806615D01*
X264514300Y-137806615D02*
X264228586Y-137806615D01*
X264228586Y-137806615D02*
X264133348Y-137758996D01*
X264133348Y-137758996D02*
X264085729Y-137711377D01*
X264085729Y-137711377D02*
X264038110Y-137616139D01*
X264038110Y-137616139D02*
X264038110Y-137473282D01*
X264038110Y-137473282D02*
X264085729Y-137378044D01*
X264085729Y-137378044D02*
X264133348Y-137330425D01*
X264133348Y-137330425D02*
X264228586Y-137282806D01*
X264228586Y-137282806D02*
X264514300Y-137282806D01*
X264514300Y-137282806D02*
X264609538Y-137330425D01*
X264609538Y-137330425D02*
X264657158Y-137378044D01*
X264657158Y-137378044D02*
X264704777Y-137473282D01*
X264704777Y-137473282D02*
X264704777Y-137616139D01*
X264038110Y-136425663D02*
X264847634Y-136425663D01*
X264847634Y-136425663D02*
X264942872Y-136473282D01*
X264942872Y-136473282D02*
X264990491Y-136520901D01*
X264990491Y-136520901D02*
X265038110Y-136616139D01*
X265038110Y-136616139D02*
X265038110Y-136758996D01*
X265038110Y-136758996D02*
X264990491Y-136854234D01*
X264657158Y-136425663D02*
X264704777Y-136520901D01*
X264704777Y-136520901D02*
X264704777Y-136711377D01*
X264704777Y-136711377D02*
X264657158Y-136806615D01*
X264657158Y-136806615D02*
X264609538Y-136854234D01*
X264609538Y-136854234D02*
X264514300Y-136901853D01*
X264514300Y-136901853D02*
X264228586Y-136901853D01*
X264228586Y-136901853D02*
X264133348Y-136854234D01*
X264133348Y-136854234D02*
X264085729Y-136806615D01*
X264085729Y-136806615D02*
X264038110Y-136711377D01*
X264038110Y-136711377D02*
X264038110Y-136520901D01*
X264038110Y-136520901D02*
X264085729Y-136425663D01*
X263704777Y-134997091D02*
X263704777Y-134806615D01*
X263704777Y-134806615D02*
X263752396Y-134711377D01*
X263752396Y-134711377D02*
X263847634Y-134616139D01*
X263847634Y-134616139D02*
X264038110Y-134568520D01*
X264038110Y-134568520D02*
X264371443Y-134568520D01*
X264371443Y-134568520D02*
X264561919Y-134616139D01*
X264561919Y-134616139D02*
X264657158Y-134711377D01*
X264657158Y-134711377D02*
X264704777Y-134806615D01*
X264704777Y-134806615D02*
X264704777Y-134997091D01*
X264704777Y-134997091D02*
X264657158Y-135092329D01*
X264657158Y-135092329D02*
X264561919Y-135187567D01*
X264561919Y-135187567D02*
X264371443Y-135235186D01*
X264371443Y-135235186D02*
X264038110Y-135235186D01*
X264038110Y-135235186D02*
X263847634Y-135187567D01*
X263847634Y-135187567D02*
X263752396Y-135092329D01*
X263752396Y-135092329D02*
X263704777Y-134997091D01*
X264038110Y-133711377D02*
X264704777Y-133711377D01*
X264038110Y-134139948D02*
X264561919Y-134139948D01*
X264561919Y-134139948D02*
X264657158Y-134092329D01*
X264657158Y-134092329D02*
X264704777Y-133997091D01*
X264704777Y-133997091D02*
X264704777Y-133854234D01*
X264704777Y-133854234D02*
X264657158Y-133758996D01*
X264657158Y-133758996D02*
X264609538Y-133711377D01*
X264038110Y-133378043D02*
X264038110Y-132997091D01*
X263704777Y-133235186D02*
X264561919Y-133235186D01*
X264561919Y-133235186D02*
X264657158Y-133187567D01*
X264657158Y-133187567D02*
X264704777Y-133092329D01*
X264704777Y-133092329D02*
X264704777Y-132997091D01*
D11*
X226069819Y-105763220D02*
X225069819Y-105763220D01*
X226069819Y-105287030D02*
X225069819Y-105287030D01*
X225069819Y-105287030D02*
X226069819Y-104715602D01*
X226069819Y-104715602D02*
X225069819Y-104715602D01*
X230269819Y-106972744D02*
X230269819Y-106782268D01*
X230269819Y-106782268D02*
X230317438Y-106687030D01*
X230317438Y-106687030D02*
X230412676Y-106591792D01*
X230412676Y-106591792D02*
X230603152Y-106544173D01*
X230603152Y-106544173D02*
X230936485Y-106544173D01*
X230936485Y-106544173D02*
X231126961Y-106591792D01*
X231126961Y-106591792D02*
X231222200Y-106687030D01*
X231222200Y-106687030D02*
X231269819Y-106782268D01*
X231269819Y-106782268D02*
X231269819Y-106972744D01*
X231269819Y-106972744D02*
X231222200Y-107067982D01*
X231222200Y-107067982D02*
X231126961Y-107163220D01*
X231126961Y-107163220D02*
X230936485Y-107210839D01*
X230936485Y-107210839D02*
X230603152Y-107210839D01*
X230603152Y-107210839D02*
X230412676Y-107163220D01*
X230412676Y-107163220D02*
X230317438Y-107067982D01*
X230317438Y-107067982D02*
X230269819Y-106972744D01*
X230269819Y-106115601D02*
X231079342Y-106115601D01*
X231079342Y-106115601D02*
X231174580Y-106067982D01*
X231174580Y-106067982D02*
X231222200Y-106020363D01*
X231222200Y-106020363D02*
X231269819Y-105925125D01*
X231269819Y-105925125D02*
X231269819Y-105734649D01*
X231269819Y-105734649D02*
X231222200Y-105639411D01*
X231222200Y-105639411D02*
X231174580Y-105591792D01*
X231174580Y-105591792D02*
X231079342Y-105544173D01*
X231079342Y-105544173D02*
X230269819Y-105544173D01*
X230269819Y-105210839D02*
X230269819Y-104639411D01*
X231269819Y-104925125D02*
X230269819Y-104925125D01*
D10*
X190474800Y-142993734D02*
X190522419Y-142850877D01*
X190522419Y-142850877D02*
X190522419Y-142612782D01*
X190522419Y-142612782D02*
X190474800Y-142517544D01*
X190474800Y-142517544D02*
X190427180Y-142469925D01*
X190427180Y-142469925D02*
X190331942Y-142422306D01*
X190331942Y-142422306D02*
X190236704Y-142422306D01*
X190236704Y-142422306D02*
X190141466Y-142469925D01*
X190141466Y-142469925D02*
X190093847Y-142517544D01*
X190093847Y-142517544D02*
X190046228Y-142612782D01*
X190046228Y-142612782D02*
X189998609Y-142803258D01*
X189998609Y-142803258D02*
X189950990Y-142898496D01*
X189950990Y-142898496D02*
X189903371Y-142946115D01*
X189903371Y-142946115D02*
X189808133Y-142993734D01*
X189808133Y-142993734D02*
X189712895Y-142993734D01*
X189712895Y-142993734D02*
X189617657Y-142946115D01*
X189617657Y-142946115D02*
X189570038Y-142898496D01*
X189570038Y-142898496D02*
X189522419Y-142803258D01*
X189522419Y-142803258D02*
X189522419Y-142565163D01*
X189522419Y-142565163D02*
X189570038Y-142422306D01*
X189522419Y-142088972D02*
X190522419Y-141850877D01*
X190522419Y-141850877D02*
X189808133Y-141660401D01*
X189808133Y-141660401D02*
X190522419Y-141469925D01*
X190522419Y-141469925D02*
X189522419Y-141231830D01*
X190617657Y-141088973D02*
X190617657Y-140327068D01*
X190427180Y-139517544D02*
X190474800Y-139565163D01*
X190474800Y-139565163D02*
X190522419Y-139708020D01*
X190522419Y-139708020D02*
X190522419Y-139803258D01*
X190522419Y-139803258D02*
X190474800Y-139946115D01*
X190474800Y-139946115D02*
X190379561Y-140041353D01*
X190379561Y-140041353D02*
X190284323Y-140088972D01*
X190284323Y-140088972D02*
X190093847Y-140136591D01*
X190093847Y-140136591D02*
X189950990Y-140136591D01*
X189950990Y-140136591D02*
X189760514Y-140088972D01*
X189760514Y-140088972D02*
X189665276Y-140041353D01*
X189665276Y-140041353D02*
X189570038Y-139946115D01*
X189570038Y-139946115D02*
X189522419Y-139803258D01*
X189522419Y-139803258D02*
X189522419Y-139708020D01*
X189522419Y-139708020D02*
X189570038Y-139565163D01*
X189570038Y-139565163D02*
X189617657Y-139517544D01*
X190522419Y-139088972D02*
X189522419Y-139088972D01*
X190522419Y-138660401D02*
X189998609Y-138660401D01*
X189998609Y-138660401D02*
X189903371Y-138708020D01*
X189903371Y-138708020D02*
X189855752Y-138803258D01*
X189855752Y-138803258D02*
X189855752Y-138946115D01*
X189855752Y-138946115D02*
X189903371Y-139041353D01*
X189903371Y-139041353D02*
X189950990Y-139088972D01*
X190522419Y-138041353D02*
X190474800Y-138136591D01*
X190474800Y-138136591D02*
X190427180Y-138184210D01*
X190427180Y-138184210D02*
X190331942Y-138231829D01*
X190331942Y-138231829D02*
X190046228Y-138231829D01*
X190046228Y-138231829D02*
X189950990Y-138184210D01*
X189950990Y-138184210D02*
X189903371Y-138136591D01*
X189903371Y-138136591D02*
X189855752Y-138041353D01*
X189855752Y-138041353D02*
X189855752Y-137898496D01*
X189855752Y-137898496D02*
X189903371Y-137803258D01*
X189903371Y-137803258D02*
X189950990Y-137755639D01*
X189950990Y-137755639D02*
X190046228Y-137708020D01*
X190046228Y-137708020D02*
X190331942Y-137708020D01*
X190331942Y-137708020D02*
X190427180Y-137755639D01*
X190427180Y-137755639D02*
X190474800Y-137803258D01*
X190474800Y-137803258D02*
X190522419Y-137898496D01*
X190522419Y-137898496D02*
X190522419Y-138041353D01*
X190522419Y-137279448D02*
X189855752Y-137279448D01*
X189522419Y-137279448D02*
X189570038Y-137327067D01*
X189570038Y-137327067D02*
X189617657Y-137279448D01*
X189617657Y-137279448D02*
X189570038Y-137231829D01*
X189570038Y-137231829D02*
X189522419Y-137279448D01*
X189522419Y-137279448D02*
X189617657Y-137279448D01*
X190474800Y-136374687D02*
X190522419Y-136469925D01*
X190522419Y-136469925D02*
X190522419Y-136660401D01*
X190522419Y-136660401D02*
X190474800Y-136755639D01*
X190474800Y-136755639D02*
X190427180Y-136803258D01*
X190427180Y-136803258D02*
X190331942Y-136850877D01*
X190331942Y-136850877D02*
X190046228Y-136850877D01*
X190046228Y-136850877D02*
X189950990Y-136803258D01*
X189950990Y-136803258D02*
X189903371Y-136755639D01*
X189903371Y-136755639D02*
X189855752Y-136660401D01*
X189855752Y-136660401D02*
X189855752Y-136469925D01*
X189855752Y-136469925D02*
X189903371Y-136374687D01*
X190474800Y-135565163D02*
X190522419Y-135660401D01*
X190522419Y-135660401D02*
X190522419Y-135850877D01*
X190522419Y-135850877D02*
X190474800Y-135946115D01*
X190474800Y-135946115D02*
X190379561Y-135993734D01*
X190379561Y-135993734D02*
X189998609Y-135993734D01*
X189998609Y-135993734D02*
X189903371Y-135946115D01*
X189903371Y-135946115D02*
X189855752Y-135850877D01*
X189855752Y-135850877D02*
X189855752Y-135660401D01*
X189855752Y-135660401D02*
X189903371Y-135565163D01*
X189903371Y-135565163D02*
X189998609Y-135517544D01*
X189998609Y-135517544D02*
X190093847Y-135517544D01*
X190093847Y-135517544D02*
X190189085Y-135993734D01*
D11*
X244124819Y-115796666D02*
X243648628Y-116129999D01*
X244124819Y-116368094D02*
X243124819Y-116368094D01*
X243124819Y-116368094D02*
X243124819Y-115987142D01*
X243124819Y-115987142D02*
X243172438Y-115891904D01*
X243172438Y-115891904D02*
X243220057Y-115844285D01*
X243220057Y-115844285D02*
X243315295Y-115796666D01*
X243315295Y-115796666D02*
X243458152Y-115796666D01*
X243458152Y-115796666D02*
X243553390Y-115844285D01*
X243553390Y-115844285D02*
X243601009Y-115891904D01*
X243601009Y-115891904D02*
X243648628Y-115987142D01*
X243648628Y-115987142D02*
X243648628Y-116368094D01*
X243458152Y-114939523D02*
X244124819Y-114939523D01*
X243077200Y-115177618D02*
X243791485Y-115415713D01*
X243791485Y-115415713D02*
X243791485Y-114796666D01*
X187524819Y-111446666D02*
X187048628Y-111779999D01*
X187524819Y-112018094D02*
X186524819Y-112018094D01*
X186524819Y-112018094D02*
X186524819Y-111637142D01*
X186524819Y-111637142D02*
X186572438Y-111541904D01*
X186572438Y-111541904D02*
X186620057Y-111494285D01*
X186620057Y-111494285D02*
X186715295Y-111446666D01*
X186715295Y-111446666D02*
X186858152Y-111446666D01*
X186858152Y-111446666D02*
X186953390Y-111494285D01*
X186953390Y-111494285D02*
X187001009Y-111541904D01*
X187001009Y-111541904D02*
X187048628Y-111637142D01*
X187048628Y-111637142D02*
X187048628Y-112018094D01*
X186524819Y-111113332D02*
X186524819Y-110494285D01*
X186524819Y-110494285D02*
X186905771Y-110827618D01*
X186905771Y-110827618D02*
X186905771Y-110684761D01*
X186905771Y-110684761D02*
X186953390Y-110589523D01*
X186953390Y-110589523D02*
X187001009Y-110541904D01*
X187001009Y-110541904D02*
X187096247Y-110494285D01*
X187096247Y-110494285D02*
X187334342Y-110494285D01*
X187334342Y-110494285D02*
X187429580Y-110541904D01*
X187429580Y-110541904D02*
X187477200Y-110589523D01*
X187477200Y-110589523D02*
X187524819Y-110684761D01*
X187524819Y-110684761D02*
X187524819Y-110970475D01*
X187524819Y-110970475D02*
X187477200Y-111065713D01*
X187477200Y-111065713D02*
X187429580Y-111113332D01*
X225554819Y-134016666D02*
X225078628Y-134349999D01*
X225554819Y-134588094D02*
X224554819Y-134588094D01*
X224554819Y-134588094D02*
X224554819Y-134207142D01*
X224554819Y-134207142D02*
X224602438Y-134111904D01*
X224602438Y-134111904D02*
X224650057Y-134064285D01*
X224650057Y-134064285D02*
X224745295Y-134016666D01*
X224745295Y-134016666D02*
X224888152Y-134016666D01*
X224888152Y-134016666D02*
X224983390Y-134064285D01*
X224983390Y-134064285D02*
X225031009Y-134111904D01*
X225031009Y-134111904D02*
X225078628Y-134207142D01*
X225078628Y-134207142D02*
X225078628Y-134588094D01*
X225554819Y-133064285D02*
X225554819Y-133635713D01*
X225554819Y-133349999D02*
X224554819Y-133349999D01*
X224554819Y-133349999D02*
X224697676Y-133445237D01*
X224697676Y-133445237D02*
X224792914Y-133540475D01*
X224792914Y-133540475D02*
X224840533Y-133635713D01*
X229254819Y-134638094D02*
X228254819Y-134638094D01*
X228254819Y-134638094D02*
X228254819Y-134399999D01*
X228254819Y-134399999D02*
X228302438Y-134257142D01*
X228302438Y-134257142D02*
X228397676Y-134161904D01*
X228397676Y-134161904D02*
X228492914Y-134114285D01*
X228492914Y-134114285D02*
X228683390Y-134066666D01*
X228683390Y-134066666D02*
X228826247Y-134066666D01*
X228826247Y-134066666D02*
X229016723Y-134114285D01*
X229016723Y-134114285D02*
X229111961Y-134161904D01*
X229111961Y-134161904D02*
X229207200Y-134257142D01*
X229207200Y-134257142D02*
X229254819Y-134399999D01*
X229254819Y-134399999D02*
X229254819Y-134638094D01*
X229254819Y-133114285D02*
X229254819Y-133685713D01*
X229254819Y-133399999D02*
X228254819Y-133399999D01*
X228254819Y-133399999D02*
X228397676Y-133495237D01*
X228397676Y-133495237D02*
X228492914Y-133590475D01*
X228492914Y-133590475D02*
X228540533Y-133685713D01*
X227564819Y-144501904D02*
X226564819Y-144501904D01*
X227564819Y-143930476D02*
X226993390Y-144359047D01*
X226564819Y-143930476D02*
X227136247Y-144501904D01*
X236954819Y-134166666D02*
X236478628Y-134499999D01*
X236954819Y-134738094D02*
X235954819Y-134738094D01*
X235954819Y-134738094D02*
X235954819Y-134357142D01*
X235954819Y-134357142D02*
X236002438Y-134261904D01*
X236002438Y-134261904D02*
X236050057Y-134214285D01*
X236050057Y-134214285D02*
X236145295Y-134166666D01*
X236145295Y-134166666D02*
X236288152Y-134166666D01*
X236288152Y-134166666D02*
X236383390Y-134214285D01*
X236383390Y-134214285D02*
X236431009Y-134261904D01*
X236431009Y-134261904D02*
X236478628Y-134357142D01*
X236478628Y-134357142D02*
X236478628Y-134738094D01*
X236050057Y-133785713D02*
X236002438Y-133738094D01*
X236002438Y-133738094D02*
X235954819Y-133642856D01*
X235954819Y-133642856D02*
X235954819Y-133404761D01*
X235954819Y-133404761D02*
X236002438Y-133309523D01*
X236002438Y-133309523D02*
X236050057Y-133261904D01*
X236050057Y-133261904D02*
X236145295Y-133214285D01*
X236145295Y-133214285D02*
X236240533Y-133214285D01*
X236240533Y-133214285D02*
X236383390Y-133261904D01*
X236383390Y-133261904D02*
X236954819Y-133833332D01*
X236954819Y-133833332D02*
X236954819Y-133214285D01*
X189204819Y-129216666D02*
X188728628Y-129549999D01*
X189204819Y-129788094D02*
X188204819Y-129788094D01*
X188204819Y-129788094D02*
X188204819Y-129407142D01*
X188204819Y-129407142D02*
X188252438Y-129311904D01*
X188252438Y-129311904D02*
X188300057Y-129264285D01*
X188300057Y-129264285D02*
X188395295Y-129216666D01*
X188395295Y-129216666D02*
X188538152Y-129216666D01*
X188538152Y-129216666D02*
X188633390Y-129264285D01*
X188633390Y-129264285D02*
X188681009Y-129311904D01*
X188681009Y-129311904D02*
X188728628Y-129407142D01*
X188728628Y-129407142D02*
X188728628Y-129788094D01*
X188204819Y-128311904D02*
X188204819Y-128788094D01*
X188204819Y-128788094D02*
X188681009Y-128835713D01*
X188681009Y-128835713D02*
X188633390Y-128788094D01*
X188633390Y-128788094D02*
X188585771Y-128692856D01*
X188585771Y-128692856D02*
X188585771Y-128454761D01*
X188585771Y-128454761D02*
X188633390Y-128359523D01*
X188633390Y-128359523D02*
X188681009Y-128311904D01*
X188681009Y-128311904D02*
X188776247Y-128264285D01*
X188776247Y-128264285D02*
X189014342Y-128264285D01*
X189014342Y-128264285D02*
X189109580Y-128311904D01*
X189109580Y-128311904D02*
X189157200Y-128359523D01*
X189157200Y-128359523D02*
X189204819Y-128454761D01*
X189204819Y-128454761D02*
X189204819Y-128692856D01*
X189204819Y-128692856D02*
X189157200Y-128788094D01*
X189157200Y-128788094D02*
X189109580Y-128835713D01*
X253459580Y-129216666D02*
X253507200Y-129264285D01*
X253507200Y-129264285D02*
X253554819Y-129407142D01*
X253554819Y-129407142D02*
X253554819Y-129502380D01*
X253554819Y-129502380D02*
X253507200Y-129645237D01*
X253507200Y-129645237D02*
X253411961Y-129740475D01*
X253411961Y-129740475D02*
X253316723Y-129788094D01*
X253316723Y-129788094D02*
X253126247Y-129835713D01*
X253126247Y-129835713D02*
X252983390Y-129835713D01*
X252983390Y-129835713D02*
X252792914Y-129788094D01*
X252792914Y-129788094D02*
X252697676Y-129740475D01*
X252697676Y-129740475D02*
X252602438Y-129645237D01*
X252602438Y-129645237D02*
X252554819Y-129502380D01*
X252554819Y-129502380D02*
X252554819Y-129407142D01*
X252554819Y-129407142D02*
X252602438Y-129264285D01*
X252602438Y-129264285D02*
X252650057Y-129216666D01*
X253554819Y-128264285D02*
X253554819Y-128835713D01*
X253554819Y-128549999D02*
X252554819Y-128549999D01*
X252554819Y-128549999D02*
X252697676Y-128645237D01*
X252697676Y-128645237D02*
X252792914Y-128740475D01*
X252792914Y-128740475D02*
X252840533Y-128835713D01*
X233004819Y-134688094D02*
X232004819Y-134688094D01*
X232004819Y-134688094D02*
X232004819Y-134449999D01*
X232004819Y-134449999D02*
X232052438Y-134307142D01*
X232052438Y-134307142D02*
X232147676Y-134211904D01*
X232147676Y-134211904D02*
X232242914Y-134164285D01*
X232242914Y-134164285D02*
X232433390Y-134116666D01*
X232433390Y-134116666D02*
X232576247Y-134116666D01*
X232576247Y-134116666D02*
X232766723Y-134164285D01*
X232766723Y-134164285D02*
X232861961Y-134211904D01*
X232861961Y-134211904D02*
X232957200Y-134307142D01*
X232957200Y-134307142D02*
X233004819Y-134449999D01*
X233004819Y-134449999D02*
X233004819Y-134688094D01*
X232100057Y-133735713D02*
X232052438Y-133688094D01*
X232052438Y-133688094D02*
X232004819Y-133592856D01*
X232004819Y-133592856D02*
X232004819Y-133354761D01*
X232004819Y-133354761D02*
X232052438Y-133259523D01*
X232052438Y-133259523D02*
X232100057Y-133211904D01*
X232100057Y-133211904D02*
X232195295Y-133164285D01*
X232195295Y-133164285D02*
X232290533Y-133164285D01*
X232290533Y-133164285D02*
X232433390Y-133211904D01*
X232433390Y-133211904D02*
X233004819Y-133783332D01*
X233004819Y-133783332D02*
X233004819Y-133164285D01*
X234854819Y-136901904D02*
X233854819Y-136901904D01*
X234854819Y-136330476D02*
X234283390Y-136759047D01*
X233854819Y-136330476D02*
X234426247Y-136901904D01*
X201203095Y-98334819D02*
X201203095Y-99144342D01*
X201203095Y-99144342D02*
X201250714Y-99239580D01*
X201250714Y-99239580D02*
X201298333Y-99287200D01*
X201298333Y-99287200D02*
X201393571Y-99334819D01*
X201393571Y-99334819D02*
X201584047Y-99334819D01*
X201584047Y-99334819D02*
X201679285Y-99287200D01*
X201679285Y-99287200D02*
X201726904Y-99239580D01*
X201726904Y-99239580D02*
X201774523Y-99144342D01*
X201774523Y-99144342D02*
X201774523Y-98334819D01*
X202774523Y-99334819D02*
X202203095Y-99334819D01*
X202488809Y-99334819D02*
X202488809Y-98334819D01*
X202488809Y-98334819D02*
X202393571Y-98477676D01*
X202393571Y-98477676D02*
X202298333Y-98572914D01*
X202298333Y-98572914D02*
X202203095Y-98620533D01*
X183966666Y-120184819D02*
X183966666Y-120899104D01*
X183966666Y-120899104D02*
X183919047Y-121041961D01*
X183919047Y-121041961D02*
X183823809Y-121137200D01*
X183823809Y-121137200D02*
X183680952Y-121184819D01*
X183680952Y-121184819D02*
X183585714Y-121184819D01*
X184871428Y-120518152D02*
X184871428Y-121184819D01*
X184633333Y-120137200D02*
X184395238Y-120851485D01*
X184395238Y-120851485D02*
X185014285Y-120851485D01*
X233633333Y-122559580D02*
X233585714Y-122607200D01*
X233585714Y-122607200D02*
X233442857Y-122654819D01*
X233442857Y-122654819D02*
X233347619Y-122654819D01*
X233347619Y-122654819D02*
X233204762Y-122607200D01*
X233204762Y-122607200D02*
X233109524Y-122511961D01*
X233109524Y-122511961D02*
X233061905Y-122416723D01*
X233061905Y-122416723D02*
X233014286Y-122226247D01*
X233014286Y-122226247D02*
X233014286Y-122083390D01*
X233014286Y-122083390D02*
X233061905Y-121892914D01*
X233061905Y-121892914D02*
X233109524Y-121797676D01*
X233109524Y-121797676D02*
X233204762Y-121702438D01*
X233204762Y-121702438D02*
X233347619Y-121654819D01*
X233347619Y-121654819D02*
X233442857Y-121654819D01*
X233442857Y-121654819D02*
X233585714Y-121702438D01*
X233585714Y-121702438D02*
X233633333Y-121750057D01*
X234014286Y-121750057D02*
X234061905Y-121702438D01*
X234061905Y-121702438D02*
X234157143Y-121654819D01*
X234157143Y-121654819D02*
X234395238Y-121654819D01*
X234395238Y-121654819D02*
X234490476Y-121702438D01*
X234490476Y-121702438D02*
X234538095Y-121750057D01*
X234538095Y-121750057D02*
X234585714Y-121845295D01*
X234585714Y-121845295D02*
X234585714Y-121940533D01*
X234585714Y-121940533D02*
X234538095Y-122083390D01*
X234538095Y-122083390D02*
X233966667Y-122654819D01*
X233966667Y-122654819D02*
X234585714Y-122654819D01*
X259866666Y-140264819D02*
X259866666Y-140979104D01*
X259866666Y-140979104D02*
X259819047Y-141121961D01*
X259819047Y-141121961D02*
X259723809Y-141217200D01*
X259723809Y-141217200D02*
X259580952Y-141264819D01*
X259580952Y-141264819D02*
X259485714Y-141264819D01*
X260819047Y-140264819D02*
X260342857Y-140264819D01*
X260342857Y-140264819D02*
X260295238Y-140741009D01*
X260295238Y-140741009D02*
X260342857Y-140693390D01*
X260342857Y-140693390D02*
X260438095Y-140645771D01*
X260438095Y-140645771D02*
X260676190Y-140645771D01*
X260676190Y-140645771D02*
X260771428Y-140693390D01*
X260771428Y-140693390D02*
X260819047Y-140741009D01*
X260819047Y-140741009D02*
X260866666Y-140836247D01*
X260866666Y-140836247D02*
X260866666Y-141074342D01*
X260866666Y-141074342D02*
X260819047Y-141169580D01*
X260819047Y-141169580D02*
X260771428Y-141217200D01*
X260771428Y-141217200D02*
X260676190Y-141264819D01*
X260676190Y-141264819D02*
X260438095Y-141264819D01*
X260438095Y-141264819D02*
X260342857Y-141217200D01*
X260342857Y-141217200D02*
X260295238Y-141169580D01*
X193116666Y-133484819D02*
X193116666Y-134199104D01*
X193116666Y-134199104D02*
X193069047Y-134341961D01*
X193069047Y-134341961D02*
X192973809Y-134437200D01*
X192973809Y-134437200D02*
X192830952Y-134484819D01*
X192830952Y-134484819D02*
X192735714Y-134484819D01*
X194116666Y-134484819D02*
X193545238Y-134484819D01*
X193830952Y-134484819D02*
X193830952Y-133484819D01*
X193830952Y-133484819D02*
X193735714Y-133627676D01*
X193735714Y-133627676D02*
X193640476Y-133722914D01*
X193640476Y-133722914D02*
X193545238Y-133770533D01*
X190761905Y-101794819D02*
X190761905Y-100794819D01*
X190761905Y-100794819D02*
X191000000Y-100794819D01*
X191000000Y-100794819D02*
X191142857Y-100842438D01*
X191142857Y-100842438D02*
X191238095Y-100937676D01*
X191238095Y-100937676D02*
X191285714Y-101032914D01*
X191285714Y-101032914D02*
X191333333Y-101223390D01*
X191333333Y-101223390D02*
X191333333Y-101366247D01*
X191333333Y-101366247D02*
X191285714Y-101556723D01*
X191285714Y-101556723D02*
X191238095Y-101651961D01*
X191238095Y-101651961D02*
X191142857Y-101747200D01*
X191142857Y-101747200D02*
X191000000Y-101794819D01*
X191000000Y-101794819D02*
X190761905Y-101794819D01*
X191666667Y-100794819D02*
X192285714Y-100794819D01*
X192285714Y-100794819D02*
X191952381Y-101175771D01*
X191952381Y-101175771D02*
X192095238Y-101175771D01*
X192095238Y-101175771D02*
X192190476Y-101223390D01*
X192190476Y-101223390D02*
X192238095Y-101271009D01*
X192238095Y-101271009D02*
X192285714Y-101366247D01*
X192285714Y-101366247D02*
X192285714Y-101604342D01*
X192285714Y-101604342D02*
X192238095Y-101699580D01*
X192238095Y-101699580D02*
X192190476Y-101747200D01*
X192190476Y-101747200D02*
X192095238Y-101794819D01*
X192095238Y-101794819D02*
X191809524Y-101794819D01*
X191809524Y-101794819D02*
X191714286Y-101747200D01*
X191714286Y-101747200D02*
X191666667Y-101699580D01*
X232924819Y-102233333D02*
X233639104Y-102233333D01*
X233639104Y-102233333D02*
X233781961Y-102280952D01*
X233781961Y-102280952D02*
X233877200Y-102376190D01*
X233877200Y-102376190D02*
X233924819Y-102519047D01*
X233924819Y-102519047D02*
X233924819Y-102614285D01*
X233020057Y-101804761D02*
X232972438Y-101757142D01*
X232972438Y-101757142D02*
X232924819Y-101661904D01*
X232924819Y-101661904D02*
X232924819Y-101423809D01*
X232924819Y-101423809D02*
X232972438Y-101328571D01*
X232972438Y-101328571D02*
X233020057Y-101280952D01*
X233020057Y-101280952D02*
X233115295Y-101233333D01*
X233115295Y-101233333D02*
X233210533Y-101233333D01*
X233210533Y-101233333D02*
X233353390Y-101280952D01*
X233353390Y-101280952D02*
X233924819Y-101852380D01*
X233924819Y-101852380D02*
X233924819Y-101233333D01*
X242344819Y-102033333D02*
X243059104Y-102033333D01*
X243059104Y-102033333D02*
X243201961Y-102080952D01*
X243201961Y-102080952D02*
X243297200Y-102176190D01*
X243297200Y-102176190D02*
X243344819Y-102319047D01*
X243344819Y-102319047D02*
X243344819Y-102414285D01*
X242344819Y-101652380D02*
X242344819Y-101033333D01*
X242344819Y-101033333D02*
X242725771Y-101366666D01*
X242725771Y-101366666D02*
X242725771Y-101223809D01*
X242725771Y-101223809D02*
X242773390Y-101128571D01*
X242773390Y-101128571D02*
X242821009Y-101080952D01*
X242821009Y-101080952D02*
X242916247Y-101033333D01*
X242916247Y-101033333D02*
X243154342Y-101033333D01*
X243154342Y-101033333D02*
X243249580Y-101080952D01*
X243249580Y-101080952D02*
X243297200Y-101128571D01*
X243297200Y-101128571D02*
X243344819Y-101223809D01*
X243344819Y-101223809D02*
X243344819Y-101509523D01*
X243344819Y-101509523D02*
X243297200Y-101604761D01*
X243297200Y-101604761D02*
X243249580Y-101652380D01*
X193804819Y-129738094D02*
X192804819Y-129738094D01*
X192804819Y-129738094D02*
X192804819Y-129499999D01*
X192804819Y-129499999D02*
X192852438Y-129357142D01*
X192852438Y-129357142D02*
X192947676Y-129261904D01*
X192947676Y-129261904D02*
X193042914Y-129214285D01*
X193042914Y-129214285D02*
X193233390Y-129166666D01*
X193233390Y-129166666D02*
X193376247Y-129166666D01*
X193376247Y-129166666D02*
X193566723Y-129214285D01*
X193566723Y-129214285D02*
X193661961Y-129261904D01*
X193661961Y-129261904D02*
X193757200Y-129357142D01*
X193757200Y-129357142D02*
X193804819Y-129499999D01*
X193804819Y-129499999D02*
X193804819Y-129738094D01*
X193138152Y-128309523D02*
X193804819Y-128309523D01*
X192757200Y-128547618D02*
X193471485Y-128785713D01*
X193471485Y-128785713D02*
X193471485Y-128166666D01*
D12*
%TO.C,R4*%
X239930000Y-112360000D02*
X239930000Y-118900000D01*
X239930000Y-118900000D02*
X242670000Y-118900000D01*
X241300000Y-111590000D02*
X241300000Y-112360000D01*
X241300000Y-119670000D02*
X241300000Y-118900000D01*
X242670000Y-112360000D02*
X239930000Y-112360000D01*
X242670000Y-118900000D02*
X242670000Y-112360000D01*
%TO.C,R3*%
X183330000Y-108010000D02*
X183330000Y-114550000D01*
X183330000Y-114550000D02*
X186070000Y-114550000D01*
X184700000Y-107240000D02*
X184700000Y-108010000D01*
X184700000Y-115320000D02*
X184700000Y-114550000D01*
X186070000Y-108010000D02*
X183330000Y-108010000D01*
X186070000Y-114550000D02*
X186070000Y-108010000D01*
%TO.C,R1*%
X223750000Y-138370000D02*
X223750000Y-144910000D01*
X223750000Y-144910000D02*
X226490000Y-144910000D01*
X225120000Y-137600000D02*
X225120000Y-138370000D01*
X225120000Y-145680000D02*
X225120000Y-144910000D01*
X226490000Y-138370000D02*
X223750000Y-138370000D01*
X226490000Y-144910000D02*
X226490000Y-138370000D01*
%TO.C,D1*%
X227790000Y-138310000D02*
X227790000Y-142550000D01*
X227790000Y-141710000D02*
X230030000Y-141710000D01*
X227790000Y-141830000D02*
X230030000Y-141830000D01*
X227790000Y-141950000D02*
X230030000Y-141950000D01*
X227790000Y-142550000D02*
X230030000Y-142550000D01*
X228910000Y-137660000D02*
X228910000Y-138310000D01*
X228910000Y-143200000D02*
X228910000Y-142550000D01*
X230030000Y-138310000D02*
X227790000Y-138310000D01*
X230030000Y-142550000D02*
X230030000Y-138310000D01*
%TO.C,R2*%
X235130000Y-138450000D02*
X235130000Y-144990000D01*
X235130000Y-144990000D02*
X237870000Y-144990000D01*
X236500000Y-137680000D02*
X236500000Y-138450000D01*
X236500000Y-145760000D02*
X236500000Y-144990000D01*
X237870000Y-138450000D02*
X235130000Y-138450000D01*
X237870000Y-144990000D02*
X237870000Y-138450000D01*
D13*
%TO.C,G\u002A\u002A\u002A*%
G36*
X251216208Y-150077341D02*
G01*
X251220620Y-150094395D01*
X251206545Y-150136012D01*
X251176506Y-150150157D01*
X251160603Y-150141818D01*
X251144077Y-150101396D01*
X251159273Y-150066066D01*
X251182482Y-150057758D01*
X251216208Y-150077341D01*
G37*
G36*
X252147123Y-148540841D02*
G01*
X252173595Y-148572979D01*
X252170925Y-148594833D01*
X252141307Y-148630871D01*
X252107932Y-148619432D01*
X252093858Y-148594699D01*
X252090428Y-148547745D01*
X252123388Y-148534580D01*
X252147123Y-148540841D01*
G37*
G36*
X245953769Y-150045815D02*
G01*
X245977595Y-150072305D01*
X245976634Y-150089553D01*
X245947072Y-150120534D01*
X245902792Y-150130428D01*
X245872616Y-150115159D01*
X245872243Y-150077145D01*
X245880392Y-150059195D01*
X245913709Y-150039029D01*
X245953769Y-150045815D01*
G37*
G36*
X251445344Y-149307406D02*
G01*
X251452319Y-149313120D01*
X251466554Y-149353213D01*
X251448009Y-149388654D01*
X251424024Y-149396696D01*
X251391415Y-149378176D01*
X251384516Y-149369056D01*
X251381546Y-149330280D01*
X251408447Y-149304265D01*
X251445344Y-149307406D01*
G37*
G36*
X249871554Y-149306769D02*
G01*
X249880474Y-149337715D01*
X249871063Y-149390433D01*
X249850283Y-149442585D01*
X249825102Y-149471831D01*
X249819735Y-149472973D01*
X249803502Y-149450903D01*
X249796796Y-149398197D01*
X249808244Y-149331113D01*
X249838270Y-149300117D01*
X249871554Y-149306769D01*
G37*
G36*
X250755428Y-150041748D02*
G01*
X250753176Y-150069486D01*
X250723602Y-150109041D01*
X250681924Y-150144377D01*
X250643713Y-150159459D01*
X250621831Y-150149953D01*
X250633227Y-150113611D01*
X250636604Y-150107172D01*
X250676679Y-150058226D01*
X250722969Y-150034203D01*
X250755428Y-150041748D01*
G37*
G36*
X240058858Y-147526239D02*
G01*
X240058858Y-147871171D01*
X239994497Y-147871171D01*
X239941105Y-147859474D01*
X239917372Y-147837909D01*
X239912955Y-147800552D01*
X239910449Y-147723705D01*
X239910039Y-147618700D01*
X239911813Y-147501022D01*
X239919019Y-147197397D01*
X239988939Y-147189352D01*
X240058858Y-147181307D01*
X240058858Y-147526239D01*
G37*
G36*
X245793331Y-150197151D02*
G01*
X245805005Y-150247650D01*
X245794394Y-150299806D01*
X245770349Y-150308321D01*
X245744552Y-150270390D01*
X245741960Y-150262795D01*
X245709461Y-150217073D01*
X245683039Y-150203166D01*
X245653434Y-150192849D01*
X245670662Y-150179435D01*
X245684234Y-150173387D01*
X245749927Y-150164430D01*
X245793331Y-150197151D01*
G37*
G36*
X249669669Y-146522089D02*
G01*
X249669669Y-146955856D01*
X249834935Y-146955856D01*
X250000200Y-146955856D01*
X250000200Y-147044845D01*
X250000200Y-147133834D01*
X249732706Y-147133834D01*
X249465213Y-147133834D01*
X249472096Y-146618969D01*
X249478979Y-146104104D01*
X249574324Y-146096213D01*
X249669669Y-146088322D01*
X249669669Y-146522089D01*
G37*
G36*
X240579257Y-148132026D02*
G01*
X240588169Y-148160722D01*
X240583392Y-148182632D01*
X240570430Y-148256267D01*
X240567714Y-148297047D01*
X240551532Y-148342791D01*
X240517053Y-148352180D01*
X240484235Y-148321299D01*
X240481098Y-148314036D01*
X240469598Y-148259217D01*
X240465665Y-148199622D01*
X240472806Y-148146235D01*
X240503618Y-148127077D01*
X240532194Y-148125425D01*
X240579257Y-148132026D01*
G37*
G36*
X242366998Y-148462003D02*
G01*
X242362901Y-148596000D01*
X242357097Y-148687028D01*
X242348437Y-148742966D01*
X242335771Y-148771691D01*
X242320481Y-148780699D01*
X242275277Y-148777529D01*
X242263274Y-148770415D01*
X242256304Y-148739365D01*
X242250611Y-148668159D01*
X242246792Y-148567489D01*
X242245445Y-148451718D01*
X242245445Y-148150851D01*
X242309791Y-148150851D01*
X242374137Y-148150851D01*
X242366998Y-148462003D01*
G37*
G36*
X251203203Y-150195351D02*
G01*
X251215062Y-150232987D01*
X251220064Y-150307143D01*
X251220620Y-150362863D01*
X251218377Y-150459561D01*
X251210313Y-150514905D01*
X251194422Y-150538246D01*
X251182482Y-150540841D01*
X251161761Y-150530374D01*
X251149902Y-150492738D01*
X251144900Y-150418582D01*
X251144344Y-150362863D01*
X251146587Y-150266164D01*
X251154652Y-150210821D01*
X251170542Y-150187480D01*
X251182482Y-150184885D01*
X251203203Y-150195351D01*
G37*
G36*
X251452754Y-149426332D02*
G01*
X251467496Y-149446418D01*
X251472345Y-149493566D01*
X251470235Y-149578961D01*
X251469680Y-149591717D01*
X251458910Y-149700681D01*
X251438653Y-149762012D01*
X251409378Y-149774705D01*
X251390653Y-149761657D01*
X251381551Y-149728847D01*
X251375229Y-149660749D01*
X251373173Y-149583150D01*
X251374785Y-149495212D01*
X251382080Y-149446674D01*
X251398743Y-149426122D01*
X251425185Y-149422122D01*
X251452754Y-149426332D01*
G37*
G36*
X252143944Y-148669826D02*
G01*
X252155803Y-148707461D01*
X252160805Y-148781618D01*
X252161361Y-148837337D01*
X252159118Y-148934036D01*
X252151053Y-148989379D01*
X252135163Y-149012720D01*
X252123223Y-149015315D01*
X252102502Y-149004848D01*
X252090642Y-148967213D01*
X252085641Y-148893057D01*
X252085085Y-148837337D01*
X252087328Y-148740639D01*
X252095392Y-148685295D01*
X252111283Y-148661954D01*
X252123223Y-148659359D01*
X252143944Y-148669826D01*
G37*
G36*
X253239466Y-150069596D02*
G01*
X253248347Y-150104756D01*
X253251315Y-150176386D01*
X253249284Y-150288438D01*
X253242485Y-150414972D01*
X253231085Y-150494765D01*
X253214440Y-150531773D01*
X253209173Y-150534875D01*
X253193566Y-150529003D01*
X253184685Y-150493842D01*
X253181717Y-150422212D01*
X253183748Y-150310160D01*
X253190547Y-150183626D01*
X253201947Y-150103833D01*
X253218592Y-150066825D01*
X253223859Y-150063723D01*
X253239466Y-150069596D01*
G37*
G36*
X242341541Y-147519810D02*
G01*
X242338323Y-147656585D01*
X242334398Y-147750752D01*
X242328238Y-147810543D01*
X242318311Y-147844195D01*
X242303089Y-147859943D01*
X242281041Y-147866020D01*
X242277113Y-147866598D01*
X242226887Y-147859588D01*
X242206344Y-147839692D01*
X242201658Y-147801599D01*
X242198933Y-147724098D01*
X242198380Y-147618605D01*
X242200101Y-147501022D01*
X242207307Y-147197397D01*
X242277977Y-147189280D01*
X242348647Y-147181162D01*
X242341541Y-147519810D01*
G37*
G36*
X245982983Y-150322645D02*
G01*
X245985295Y-150414334D01*
X245991313Y-150489109D01*
X245998416Y-150526048D01*
X245997985Y-150555286D01*
X245959441Y-150565816D01*
X245940377Y-150566266D01*
X245866906Y-150566266D01*
X245877131Y-150385310D01*
X245879958Y-150280237D01*
X245873178Y-150216315D01*
X245855701Y-150184561D01*
X245852537Y-150182295D01*
X245844187Y-150166699D01*
X245884288Y-150160145D01*
X245900350Y-150159849D01*
X245982983Y-150159459D01*
X245982983Y-150322645D01*
G37*
G36*
X252432941Y-148668532D02*
G01*
X252461819Y-148689815D01*
X252449731Y-148713855D01*
X252395828Y-148730881D01*
X252362904Y-148743432D01*
X252344834Y-148777370D01*
X252335744Y-148845845D01*
X252334256Y-148868722D01*
X252323763Y-148949048D01*
X252305545Y-148999472D01*
X252294844Y-149009079D01*
X252277228Y-149000144D01*
X252267075Y-148954768D01*
X252263193Y-148866594D01*
X252263063Y-148839456D01*
X252263063Y-148659359D01*
X252366883Y-148659359D01*
X252432941Y-148668532D01*
G37*
G36*
X242906506Y-147260961D02*
G01*
X242899665Y-147315473D01*
X242870584Y-147335415D01*
X242842943Y-147337237D01*
X242779379Y-147337237D01*
X242779379Y-147604204D01*
X242779379Y-147871171D01*
X242715815Y-147871171D01*
X242652252Y-147871171D01*
X242652252Y-147604204D01*
X242652252Y-147337237D01*
X242588688Y-147337237D01*
X242543261Y-147329028D01*
X242526643Y-147294130D01*
X242525125Y-147260961D01*
X242525125Y-147184684D01*
X242715815Y-147184684D01*
X242906506Y-147184684D01*
X242906506Y-147260961D01*
G37*
G36*
X244126927Y-147260961D02*
G01*
X244120085Y-147315473D01*
X244091004Y-147335415D01*
X244063363Y-147337237D01*
X243999799Y-147337237D01*
X243999799Y-147604204D01*
X243999799Y-147871171D01*
X243936236Y-147871171D01*
X243872672Y-147871171D01*
X243872672Y-147604204D01*
X243872672Y-147337237D01*
X243809109Y-147337237D01*
X243763682Y-147329028D01*
X243747063Y-147294130D01*
X243745545Y-147260961D01*
X243745545Y-147184684D01*
X243936236Y-147184684D01*
X244126927Y-147184684D01*
X244126927Y-147260961D01*
G37*
G36*
X251056910Y-150189813D02*
G01*
X251087252Y-150205516D01*
X251087264Y-150216666D01*
X251056379Y-150245716D01*
X251022855Y-150256406D01*
X250989931Y-150268958D01*
X250971861Y-150302896D01*
X250962771Y-150371371D01*
X250961283Y-150394247D01*
X250948696Y-150484136D01*
X250925288Y-150531740D01*
X250893232Y-150533484D01*
X250882144Y-150524420D01*
X250873043Y-150491610D01*
X250866720Y-150423511D01*
X250864664Y-150345912D01*
X250864664Y-150184885D01*
X250981197Y-150184885D01*
X251056910Y-150189813D01*
G37*
G36*
X251058001Y-148669037D02*
G01*
X251093260Y-148691705D01*
X251092316Y-148717819D01*
X251049916Y-148737833D01*
X251036286Y-148740223D01*
X251002074Y-148751568D01*
X250983302Y-148781947D01*
X250973900Y-148844606D01*
X250971394Y-148881832D01*
X250961723Y-148966938D01*
X250943752Y-149008446D01*
X250926899Y-149015315D01*
X250906729Y-149003685D01*
X250895202Y-148962875D01*
X250890484Y-148884004D01*
X250890090Y-148837337D01*
X250890090Y-148659359D01*
X250991791Y-148659359D01*
X251058001Y-148669037D01*
G37*
G36*
X245601879Y-150161842D02*
G01*
X245620815Y-150175695D01*
X245629440Y-150211266D01*
X245630569Y-150278748D01*
X245627723Y-150369219D01*
X245628990Y-150459124D01*
X245640155Y-150508089D01*
X245650113Y-150515415D01*
X245676660Y-150533408D01*
X245677877Y-150540841D01*
X245655647Y-150558152D01*
X245601499Y-150566214D01*
X245595245Y-150566288D01*
X245512612Y-150566310D01*
X245512612Y-150362939D01*
X245513463Y-150261948D01*
X245517953Y-150201459D01*
X245528992Y-150171131D01*
X245549488Y-150160620D01*
X245569819Y-150159514D01*
X245601879Y-150161842D01*
G37*
G36*
X247841133Y-149173018D02*
G01*
X247856476Y-149195962D01*
X247863099Y-149247934D01*
X247864464Y-149333133D01*
X247866049Y-149422572D01*
X247873108Y-149472436D01*
X247889100Y-149493962D01*
X247915315Y-149498398D01*
X247956728Y-149514296D01*
X247966166Y-149536536D01*
X247949372Y-149563055D01*
X247893703Y-149573982D01*
X247864464Y-149574674D01*
X247762762Y-149574674D01*
X247762762Y-149371271D01*
X247763824Y-149269927D01*
X247768714Y-149209189D01*
X247779989Y-149178828D01*
X247800206Y-149168616D01*
X247813613Y-149167868D01*
X247841133Y-149173018D01*
G37*
G36*
X247940740Y-148252367D02*
G01*
X247940740Y-148354254D01*
X246300002Y-148354254D01*
X245965298Y-148354123D01*
X245677966Y-148353678D01*
X245434527Y-148352844D01*
X245231504Y-148351544D01*
X245065418Y-148349703D01*
X244932790Y-148347242D01*
X244830143Y-148344087D01*
X244753998Y-148340161D01*
X244700877Y-148335388D01*
X244667301Y-148329691D01*
X244649792Y-148322994D01*
X244645339Y-148317965D01*
X244637543Y-148264433D01*
X244639781Y-148222620D01*
X244648148Y-148163563D01*
X246294444Y-148157022D01*
X247940740Y-148150480D01*
X247940740Y-148252367D01*
G37*
G36*
X247940740Y-148684599D02*
G01*
X247940740Y-148786486D01*
X246300002Y-148786486D01*
X245965298Y-148786355D01*
X245677966Y-148785911D01*
X245434527Y-148785077D01*
X245231504Y-148783777D01*
X245065418Y-148781935D01*
X244932790Y-148779474D01*
X244830143Y-148776319D01*
X244753998Y-148772393D01*
X244700877Y-148767620D01*
X244667301Y-148761923D01*
X244649792Y-148755226D01*
X244645339Y-148750197D01*
X244637543Y-148696666D01*
X244639781Y-148654852D01*
X244648148Y-148595796D01*
X246294444Y-148589254D01*
X247940740Y-148582712D01*
X247940740Y-148684599D01*
G37*
G36*
X249499773Y-148568184D02*
G01*
X249511637Y-148606012D01*
X249516595Y-148680508D01*
X249517117Y-148734174D01*
X249517117Y-148910690D01*
X249624955Y-148918508D01*
X249700763Y-148930912D01*
X249736281Y-148956669D01*
X249741234Y-148970821D01*
X249739354Y-148995601D01*
X249714742Y-149009113D01*
X249656856Y-149014567D01*
X249595257Y-149015315D01*
X249440840Y-149015315D01*
X249440840Y-148786486D01*
X249442327Y-148674850D01*
X249447751Y-148605313D01*
X249458562Y-148569186D01*
X249476207Y-148557778D01*
X249478979Y-148557657D01*
X249499773Y-148568184D01*
G37*
G36*
X242016616Y-147259847D02*
G01*
X242010006Y-147314871D01*
X241981751Y-147335235D01*
X241953053Y-147337237D01*
X241889489Y-147337237D01*
X241889489Y-147604204D01*
X241889489Y-147871171D01*
X241825926Y-147871171D01*
X241762362Y-147871171D01*
X241762362Y-147604204D01*
X241762362Y-147337237D01*
X241697110Y-147337237D01*
X241650618Y-147329909D01*
X241637796Y-147297387D01*
X241639902Y-147267317D01*
X241646483Y-147231176D01*
X241663456Y-147209707D01*
X241702199Y-147198332D01*
X241774092Y-147192473D01*
X241832282Y-147189927D01*
X242016616Y-147182457D01*
X242016616Y-147259847D01*
G37*
G36*
X243551619Y-149174940D02*
G01*
X243589874Y-149192773D01*
X243587569Y-149216289D01*
X243554854Y-149234949D01*
X243532359Y-149258802D01*
X243520306Y-149314703D01*
X243516716Y-149411835D01*
X243516716Y-149412129D01*
X243514096Y-149503958D01*
X243504747Y-149554646D01*
X243486438Y-149573703D01*
X243478578Y-149574674D01*
X243457186Y-149563641D01*
X243445296Y-149524217D01*
X243440719Y-149446916D01*
X243440440Y-149409409D01*
X243437894Y-149316709D01*
X243428796Y-149265187D01*
X243410957Y-149245354D01*
X243402302Y-149244144D01*
X243368594Y-149223792D01*
X243364164Y-149206006D01*
X243379137Y-149180868D01*
X243430050Y-149169418D01*
X243478578Y-149167868D01*
X243551619Y-149174940D01*
G37*
G36*
X253733140Y-149432429D02*
G01*
X253784780Y-149468313D01*
X253808194Y-149537223D01*
X253809015Y-149643472D01*
X253796835Y-149722804D01*
X253777187Y-149766635D01*
X253756575Y-149771578D01*
X253741506Y-149734248D01*
X253737737Y-149680574D01*
X253731292Y-149579517D01*
X253710067Y-149521237D01*
X253671227Y-149499084D01*
X253660070Y-149498398D01*
X253631387Y-149507411D01*
X253615153Y-149542188D01*
X253606557Y-149614335D01*
X253605583Y-149629883D01*
X253595114Y-149711102D01*
X253576969Y-149761995D01*
X253566116Y-149771842D01*
X253548499Y-149762906D01*
X253538346Y-149717530D01*
X253534465Y-149629357D01*
X253534334Y-149602219D01*
X253534334Y-149422122D01*
X253647854Y-149422122D01*
X253733140Y-149432429D01*
G37*
G36*
X244112897Y-149176156D02*
G01*
X244146853Y-149195719D01*
X244138850Y-149218606D01*
X244085811Y-149236866D01*
X244067759Y-149239476D01*
X244018527Y-149257988D01*
X244000362Y-149287933D01*
X244016599Y-149313533D01*
X244050650Y-149320420D01*
X244092063Y-149336318D01*
X244101501Y-149358558D01*
X244080304Y-149389618D01*
X244050650Y-149396696D01*
X244007204Y-149411779D01*
X243997160Y-149445766D01*
X244017801Y-149481769D01*
X244066412Y-149502898D01*
X244067759Y-149503066D01*
X244131137Y-149519236D01*
X244148802Y-149541787D01*
X244123829Y-149562765D01*
X244059294Y-149574222D01*
X244040056Y-149574674D01*
X243923523Y-149574674D01*
X243923523Y-149371271D01*
X243923523Y-149167868D01*
X244040056Y-149167868D01*
X244112897Y-149176156D01*
G37*
G36*
X246733033Y-149371271D02*
G01*
X246733033Y-149561962D01*
X246637483Y-149569865D01*
X246561068Y-149566701D01*
X246528116Y-149541762D01*
X246522021Y-149498630D01*
X246519996Y-149422441D01*
X246521044Y-149380243D01*
X246595850Y-149380243D01*
X246596727Y-149448696D01*
X246605135Y-149492846D01*
X246625866Y-149521139D01*
X246645433Y-149507484D01*
X246660000Y-149460716D01*
X246665733Y-149389667D01*
X246664651Y-149355749D01*
X246655428Y-149284130D01*
X246640650Y-149239200D01*
X246631331Y-149231431D01*
X246614929Y-149253877D01*
X246602510Y-149309392D01*
X246595850Y-149380243D01*
X246521044Y-149380243D01*
X246521964Y-149343168D01*
X246529629Y-149180580D01*
X246631331Y-149180580D01*
X246733033Y-149180580D01*
X246733033Y-149371271D01*
G37*
G36*
X250972742Y-146354904D02*
G01*
X251009262Y-146373286D01*
X251039953Y-146387177D01*
X251053986Y-146373286D01*
X251092182Y-146352499D01*
X251157751Y-146346587D01*
X251229385Y-146355739D01*
X251272030Y-146371370D01*
X251314121Y-146414315D01*
X251344313Y-146494035D01*
X251363409Y-146614414D01*
X251372211Y-146779338D01*
X251373031Y-146860510D01*
X251373173Y-147133834D01*
X251271471Y-147133834D01*
X251169769Y-147133834D01*
X251169769Y-146827040D01*
X251169769Y-146520246D01*
X251099849Y-146528291D01*
X251029930Y-146536336D01*
X251022766Y-146835085D01*
X251015603Y-147133834D01*
X250927421Y-147133834D01*
X250839239Y-147133834D01*
X250839239Y-146739740D01*
X250839239Y-146345645D01*
X250910430Y-146345645D01*
X250972742Y-146354904D01*
G37*
G36*
X241836896Y-149176080D02*
G01*
X241884999Y-149206794D01*
X241908650Y-149269125D01*
X241914915Y-149371271D01*
X241908550Y-149474006D01*
X241884747Y-149536074D01*
X241836440Y-149566592D01*
X241757277Y-149574674D01*
X241660660Y-149574674D01*
X241660660Y-149371271D01*
X241762362Y-149371271D01*
X241764557Y-149455861D01*
X241772885Y-149499070D01*
X241789963Y-149510249D01*
X241800500Y-149507593D01*
X241826927Y-149475588D01*
X241838041Y-149402193D01*
X241838638Y-149371271D01*
X241831786Y-149284322D01*
X241810119Y-149240546D01*
X241800500Y-149234949D01*
X241778916Y-149235355D01*
X241767192Y-149263822D01*
X241762712Y-149329699D01*
X241762362Y-149371271D01*
X241660660Y-149371271D01*
X241660660Y-149167868D01*
X241757277Y-149167868D01*
X241836896Y-149176080D01*
G37*
G36*
X250673974Y-146193093D02*
G01*
X250673974Y-146282082D01*
X250502352Y-146289600D01*
X250330730Y-146297118D01*
X250330730Y-146397658D01*
X250330730Y-146498198D01*
X250445145Y-146498198D01*
X250515446Y-146500098D01*
X250548736Y-146512973D01*
X250558853Y-146547586D01*
X250559559Y-146587187D01*
X250557117Y-146641866D01*
X250540563Y-146667758D01*
X250496060Y-146675627D01*
X250445145Y-146676176D01*
X250330730Y-146676176D01*
X250330730Y-146816016D01*
X250330730Y-146955856D01*
X250508708Y-146955856D01*
X250686686Y-146955856D01*
X250686686Y-147044845D01*
X250686686Y-147133834D01*
X250406480Y-147133834D01*
X250126274Y-147133834D01*
X250133157Y-146618969D01*
X250140040Y-146104104D01*
X250407007Y-146104104D01*
X250673974Y-146104104D01*
X250673974Y-146193093D01*
G37*
G36*
X251923658Y-148675261D02*
G01*
X251981372Y-148727559D01*
X252007760Y-148814838D01*
X252008808Y-148839836D01*
X251990584Y-148924355D01*
X251943758Y-148984471D01*
X251880101Y-149013528D01*
X251811385Y-149004868D01*
X251769121Y-148975399D01*
X251721810Y-148900748D01*
X251710009Y-148818289D01*
X251715283Y-148798676D01*
X251789415Y-148798676D01*
X251794031Y-148861831D01*
X251804891Y-148887228D01*
X251841108Y-148932595D01*
X251879073Y-148928458D01*
X251905945Y-148902300D01*
X251929864Y-148844431D01*
X251920748Y-148785709D01*
X251883689Y-148746157D01*
X251864796Y-148740510D01*
X251815030Y-148753272D01*
X251789415Y-148798676D01*
X251715283Y-148798676D01*
X251730553Y-148741897D01*
X251780274Y-148685446D01*
X251840237Y-148663810D01*
X251923658Y-148675261D01*
G37*
G36*
X252406144Y-150193072D02*
G01*
X252456388Y-150223396D01*
X252482788Y-150284499D01*
X252491663Y-150385022D01*
X252491891Y-150412042D01*
X252487632Y-150493496D01*
X252473223Y-150533243D01*
X252455082Y-150540841D01*
X252430617Y-150523539D01*
X252415918Y-150467038D01*
X252410588Y-150407357D01*
X252403272Y-150328359D01*
X252389585Y-150288118D01*
X252364228Y-150274555D01*
X252352052Y-150273874D01*
X252321539Y-150281138D01*
X252304491Y-150310985D01*
X252295610Y-150375497D01*
X252293516Y-150407357D01*
X252283845Y-150492464D01*
X252265874Y-150533971D01*
X252249021Y-150540841D01*
X252228851Y-150529211D01*
X252217325Y-150488401D01*
X252212606Y-150409529D01*
X252212212Y-150362863D01*
X252212212Y-150184885D01*
X252325732Y-150184885D01*
X252406144Y-150193072D01*
G37*
G36*
X252669869Y-146193093D02*
G01*
X252669869Y-146294795D01*
X252504604Y-146294795D01*
X252339339Y-146294795D01*
X252339339Y-146396496D01*
X252339339Y-146498198D01*
X252453753Y-146498198D01*
X252524055Y-146500098D01*
X252557344Y-146512973D01*
X252567462Y-146547586D01*
X252568168Y-146587187D01*
X252565725Y-146641866D01*
X252549172Y-146667758D01*
X252504668Y-146675627D01*
X252453753Y-146676176D01*
X252339339Y-146676176D01*
X252339339Y-146816016D01*
X252339339Y-146955856D01*
X252517317Y-146955856D01*
X252695295Y-146955856D01*
X252695295Y-147044845D01*
X252695295Y-147133834D01*
X252415615Y-147133834D01*
X252135936Y-147133834D01*
X252135936Y-146612612D01*
X252135936Y-146091391D01*
X252402902Y-146091391D01*
X252669869Y-146091391D01*
X252669869Y-146193093D01*
G37*
G36*
X242483099Y-149176641D02*
G01*
X242493544Y-149209221D01*
X242496588Y-149274998D01*
X242494412Y-149364915D01*
X242486987Y-149561962D01*
X242410585Y-149569464D01*
X242345516Y-149565049D01*
X242302527Y-149545310D01*
X242283671Y-149503417D01*
X242272599Y-149433327D01*
X242269101Y-149349970D01*
X242272967Y-149268275D01*
X242283985Y-149203173D01*
X242301946Y-149169594D01*
X242307847Y-149167868D01*
X242329285Y-149181331D01*
X242342984Y-149227219D01*
X242351082Y-149313780D01*
X242352341Y-149339489D01*
X242361508Y-149441470D01*
X242375758Y-149493572D01*
X242391908Y-149496092D01*
X242406775Y-149449325D01*
X242417175Y-149353568D01*
X242418228Y-149333363D01*
X242425421Y-149239326D01*
X242437895Y-149187276D01*
X242458067Y-149168430D01*
X242463792Y-149167868D01*
X242483099Y-149176641D01*
G37*
G36*
X250540406Y-149428832D02*
G01*
X250595365Y-149445613D01*
X250605325Y-149452632D01*
X250624588Y-149494818D01*
X250634937Y-149563062D01*
X250636679Y-149641373D01*
X250630125Y-149713757D01*
X250615585Y-149764221D01*
X250599026Y-149778078D01*
X250574561Y-149760777D01*
X250559862Y-149704275D01*
X250554532Y-149644594D01*
X250547216Y-149565596D01*
X250533529Y-149525356D01*
X250508172Y-149511792D01*
X250495996Y-149511111D01*
X250465483Y-149518375D01*
X250448435Y-149548223D01*
X250439553Y-149612734D01*
X250437460Y-149644594D01*
X250427789Y-149729701D01*
X250409818Y-149771209D01*
X250392965Y-149778078D01*
X250372795Y-149766448D01*
X250361268Y-149725638D01*
X250356550Y-149646767D01*
X250356156Y-149600100D01*
X250356156Y-149422122D01*
X250465485Y-149422122D01*
X250540406Y-149428832D01*
G37*
G36*
X250895277Y-149442879D02*
G01*
X250930972Y-149461747D01*
X250927387Y-149483542D01*
X250880419Y-149500370D01*
X250859851Y-149503029D01*
X250775675Y-149511111D01*
X250871021Y-149567461D01*
X250939051Y-149620148D01*
X250966198Y-149670811D01*
X250966366Y-149674624D01*
X250944237Y-149728523D01*
X250887988Y-149764149D01*
X250812826Y-149775579D01*
X250743893Y-149761239D01*
X250714578Y-149727656D01*
X250712112Y-149713031D01*
X250727996Y-149689477D01*
X250780868Y-149691423D01*
X250785304Y-149692286D01*
X250849759Y-149696088D01*
X250871223Y-149678329D01*
X250848391Y-149646564D01*
X250798359Y-149616626D01*
X250738967Y-149581599D01*
X250716608Y-149543640D01*
X250716816Y-149504378D01*
X250727678Y-149459104D01*
X250756663Y-149439335D01*
X250819597Y-149434842D01*
X250824407Y-149434835D01*
X250895277Y-149442879D01*
G37*
G36*
X252100554Y-149431959D02*
G01*
X252152587Y-149457173D01*
X252178580Y-149511757D01*
X252186620Y-149605191D01*
X252186786Y-149628639D01*
X252183748Y-149716191D01*
X252173002Y-149762753D01*
X252152102Y-149777913D01*
X252148648Y-149778078D01*
X252125775Y-149765651D01*
X252113923Y-149721978D01*
X252110510Y-149637468D01*
X252110510Y-149636470D01*
X252108913Y-149556021D01*
X252100821Y-149514852D01*
X252081286Y-149501416D01*
X252053303Y-149502986D01*
X252019091Y-149514331D01*
X252000319Y-149544710D01*
X251990917Y-149607369D01*
X251988411Y-149644594D01*
X251978913Y-149732401D01*
X251962005Y-149773348D01*
X251935638Y-149771145D01*
X251924057Y-149761128D01*
X251915160Y-149728550D01*
X251909022Y-149660806D01*
X251907107Y-149586147D01*
X251907107Y-149428116D01*
X252014387Y-149426636D01*
X252100554Y-149431959D01*
G37*
G36*
X240847047Y-147526239D02*
G01*
X240847047Y-147871171D01*
X240784386Y-147871171D01*
X240749043Y-147863032D01*
X240711241Y-147833700D01*
X240664051Y-147775803D01*
X240600549Y-147681969D01*
X240587339Y-147661454D01*
X240452953Y-147451736D01*
X240445568Y-147661454D01*
X240441216Y-147764246D01*
X240434800Y-147826408D01*
X240422920Y-147858145D01*
X240402173Y-147869661D01*
X240375648Y-147871171D01*
X240313113Y-147871171D01*
X240313113Y-147527928D01*
X240313113Y-147184684D01*
X240373595Y-147184684D01*
X240410918Y-147194678D01*
X240452439Y-147229505D01*
X240505221Y-147296432D01*
X240557929Y-147374334D01*
X240681781Y-147563983D01*
X240694494Y-147380690D01*
X240702087Y-147285876D01*
X240711735Y-147230439D01*
X240728359Y-147202986D01*
X240756880Y-147192122D01*
X240777127Y-147189352D01*
X240847047Y-147181307D01*
X240847047Y-147526239D01*
G37*
G36*
X246794080Y-149987485D02*
G01*
X246833245Y-149996022D01*
X246846993Y-150011425D01*
X246847447Y-150016279D01*
X246834954Y-150039094D01*
X246790405Y-150043846D01*
X246745745Y-150039278D01*
X246644044Y-150025637D01*
X246644044Y-150283239D01*
X246643362Y-150399856D01*
X246640115Y-150474775D01*
X246632497Y-150517141D01*
X246618701Y-150536100D01*
X246596923Y-150540800D01*
X246593193Y-150540841D01*
X246570121Y-150537374D01*
X246555321Y-150520860D01*
X246546972Y-150482129D01*
X246543254Y-150412010D01*
X246542348Y-150301333D01*
X246542342Y-150284638D01*
X246542342Y-150028436D01*
X246446997Y-150036651D01*
X246385916Y-150036167D01*
X246358110Y-150023856D01*
X246357878Y-150019529D01*
X246384294Y-150007879D01*
X246450193Y-149997402D01*
X246544211Y-149989593D01*
X246605776Y-149986917D01*
X246721067Y-149984792D01*
X246794080Y-149987485D01*
G37*
G36*
X250739394Y-148681595D02*
G01*
X250793758Y-148742297D01*
X250813813Y-148832458D01*
X250813813Y-148832983D01*
X250794680Y-148914370D01*
X250745827Y-148979666D01*
X250680078Y-149013543D01*
X250661261Y-149015315D01*
X250605911Y-148998059D01*
X250559559Y-148964464D01*
X250517618Y-148893829D01*
X250515280Y-148865629D01*
X250594568Y-148865629D01*
X250610684Y-148901231D01*
X250652887Y-148935787D01*
X250691743Y-148922654D01*
X250710950Y-148902300D01*
X250735078Y-148844001D01*
X250725507Y-148785242D01*
X250687433Y-148745855D01*
X250668516Y-148740341D01*
X250621792Y-148747543D01*
X250596802Y-148793847D01*
X250595757Y-148797879D01*
X250594568Y-148865629D01*
X250515280Y-148865629D01*
X250510977Y-148813721D01*
X250534992Y-148738423D01*
X250585020Y-148682215D01*
X250656418Y-148659379D01*
X250658762Y-148659359D01*
X250739394Y-148681595D01*
G37*
G36*
X244834241Y-149184663D02*
G01*
X244855490Y-149207102D01*
X244859179Y-149253612D01*
X244829168Y-149266737D01*
X244788010Y-149250058D01*
X244742042Y-149232334D01*
X244724949Y-149246980D01*
X244738245Y-149283501D01*
X244777029Y-149326037D01*
X244847205Y-149405255D01*
X244871955Y-149480878D01*
X244860365Y-149530180D01*
X244817565Y-149564248D01*
X244752792Y-149573688D01*
X244688893Y-149557900D01*
X244659966Y-149535459D01*
X244640483Y-149495927D01*
X244658436Y-149465539D01*
X244688710Y-149450497D01*
X244714558Y-149479329D01*
X244745882Y-149516083D01*
X244763826Y-149523824D01*
X244787107Y-149508003D01*
X244773602Y-149463694D01*
X244725026Y-149395626D01*
X244711711Y-149380099D01*
X244655683Y-149306972D01*
X244637829Y-149253716D01*
X244655514Y-149209868D01*
X244665946Y-149198378D01*
X244715813Y-149173568D01*
X244779446Y-149169343D01*
X244834241Y-149184663D01*
G37*
G36*
X247294322Y-149179238D02*
G01*
X247333955Y-149218614D01*
X247352665Y-149293893D01*
X247355956Y-149371271D01*
X247348849Y-149476060D01*
X247324239Y-149539474D01*
X247277190Y-149569409D01*
X247228828Y-149574674D01*
X247166824Y-149563575D01*
X247132212Y-149544164D01*
X247113790Y-149499526D01*
X247104111Y-149424010D01*
X247103546Y-149371271D01*
X247203403Y-149371271D01*
X247207263Y-149452529D01*
X247217346Y-149507620D01*
X247228828Y-149523824D01*
X247242371Y-149500665D01*
X247251553Y-149440165D01*
X247254254Y-149371271D01*
X247250394Y-149290013D01*
X247240311Y-149234923D01*
X247228828Y-149218719D01*
X247215285Y-149241877D01*
X247206104Y-149302377D01*
X247203403Y-149371271D01*
X247103546Y-149371271D01*
X247103177Y-149336834D01*
X247110987Y-149257212D01*
X247127541Y-149204361D01*
X247132212Y-149198378D01*
X247179756Y-149174884D01*
X247228828Y-149167868D01*
X247294322Y-149179238D01*
G37*
G36*
X250219735Y-149323654D02*
G01*
X250265616Y-149334250D01*
X250273666Y-149352202D01*
X250244048Y-149373657D01*
X250182505Y-149389051D01*
X250157133Y-149391802D01*
X250090402Y-149405773D01*
X250052823Y-149429773D01*
X250049242Y-149454552D01*
X250084503Y-149470861D01*
X250114614Y-149472973D01*
X250164458Y-149484891D01*
X250178178Y-149523824D01*
X250163280Y-149563699D01*
X250114614Y-149574674D01*
X250064770Y-149586592D01*
X250051051Y-149625525D01*
X250058537Y-149657303D01*
X250089622Y-149672330D01*
X250157246Y-149676357D01*
X250165465Y-149676376D01*
X250236965Y-149679703D01*
X250270775Y-149693519D01*
X250279836Y-149723574D01*
X250279879Y-149727227D01*
X250274313Y-149755628D01*
X250249862Y-149770975D01*
X250194895Y-149777143D01*
X250127327Y-149778078D01*
X249974774Y-149778078D01*
X249974774Y-149549249D01*
X249974774Y-149320420D01*
X250129446Y-149320420D01*
X250219735Y-149323654D01*
G37*
G36*
X252665999Y-150088585D02*
G01*
X252669869Y-150119202D01*
X252682768Y-150171909D01*
X252708008Y-150184885D01*
X252741716Y-150205237D01*
X252746146Y-150223023D01*
X252725794Y-150256731D01*
X252708008Y-150261161D01*
X252681489Y-150277955D01*
X252670562Y-150333624D01*
X252669869Y-150362863D01*
X252675621Y-150432326D01*
X252695460Y-150461765D01*
X252710126Y-150464564D01*
X252739503Y-150480071D01*
X252739801Y-150496346D01*
X252705967Y-150528237D01*
X252648205Y-150531324D01*
X252625375Y-150524294D01*
X252604829Y-150490810D01*
X252594385Y-150418255D01*
X252593593Y-150386169D01*
X252588947Y-150314348D01*
X252577086Y-150269144D01*
X252568168Y-150261161D01*
X252545611Y-150240567D01*
X252542742Y-150223023D01*
X252555533Y-150189174D01*
X252566399Y-150184885D01*
X252588288Y-150163335D01*
X252598181Y-150129669D01*
X252617283Y-150078509D01*
X252644703Y-150064111D01*
X252665999Y-150088585D01*
G37*
G36*
X247938820Y-147596952D02*
G01*
X247936251Y-147644294D01*
X247925770Y-147698597D01*
X247898254Y-147730751D01*
X247839293Y-147754751D01*
X247815118Y-147761936D01*
X247639417Y-147802570D01*
X247415056Y-147837500D01*
X247143920Y-147866591D01*
X246827891Y-147889711D01*
X246468856Y-147906727D01*
X246068699Y-147917506D01*
X245629304Y-147921915D01*
X245545668Y-147922022D01*
X244635435Y-147922022D01*
X244635435Y-147837128D01*
X244635435Y-147752234D01*
X245647369Y-147734887D01*
X245886736Y-147730279D01*
X246124949Y-147724759D01*
X246353778Y-147718582D01*
X246564996Y-147712007D01*
X246750373Y-147705289D01*
X246901683Y-147698686D01*
X247010695Y-147692455D01*
X247013986Y-147692223D01*
X247184774Y-147678276D01*
X247357290Y-147661072D01*
X247521975Y-147641857D01*
X247669270Y-147621877D01*
X247789616Y-147602378D01*
X247873454Y-147584607D01*
X247898203Y-147576948D01*
X247928877Y-147571826D01*
X247938820Y-147596952D01*
G37*
G36*
X249681973Y-150086112D02*
G01*
X249729532Y-150096495D01*
X249745645Y-150116726D01*
X249745946Y-150121321D01*
X249730972Y-150146458D01*
X249680059Y-150157909D01*
X249631531Y-150159459D01*
X249556119Y-150164450D01*
X249521769Y-150181421D01*
X249517117Y-150197597D01*
X249539219Y-150228271D01*
X249580680Y-150235736D01*
X249630524Y-150247654D01*
X249644244Y-150286586D01*
X249629346Y-150326462D01*
X249580680Y-150337437D01*
X249530836Y-150349355D01*
X249517117Y-150388288D01*
X249524603Y-150420066D01*
X249555688Y-150435093D01*
X249623312Y-150439120D01*
X249631531Y-150439139D01*
X249703031Y-150442466D01*
X249736841Y-150456282D01*
X249745902Y-150486337D01*
X249745946Y-150489990D01*
X249740379Y-150518391D01*
X249715928Y-150533738D01*
X249660961Y-150539906D01*
X249593393Y-150540841D01*
X249440840Y-150540841D01*
X249440840Y-150312012D01*
X249440840Y-150083183D01*
X249593393Y-150083183D01*
X249681973Y-150086112D01*
G37*
G36*
X249705310Y-149306793D02*
G01*
X249714192Y-149341980D01*
X249717179Y-149413601D01*
X249715150Y-149526601D01*
X249707807Y-149763103D01*
X249611105Y-149769234D01*
X249520903Y-149760728D01*
X249464909Y-149725870D01*
X249424083Y-149657629D01*
X249421239Y-149628391D01*
X249501275Y-149628391D01*
X249517391Y-149663994D01*
X249559594Y-149698550D01*
X249598450Y-149685417D01*
X249617657Y-149665063D01*
X249641784Y-149606763D01*
X249632213Y-149548005D01*
X249594140Y-149508618D01*
X249575223Y-149503104D01*
X249528499Y-149510306D01*
X249503508Y-149556610D01*
X249502463Y-149560641D01*
X249501275Y-149628391D01*
X249421239Y-149628391D01*
X249416537Y-149580046D01*
X249437500Y-149506670D01*
X249482200Y-149451048D01*
X249545869Y-149426726D01*
X249569861Y-149427823D01*
X249622704Y-149428499D01*
X249644712Y-149401161D01*
X249649354Y-149375002D01*
X249666858Y-149322728D01*
X249689725Y-149300864D01*
X249705310Y-149306793D01*
G37*
G36*
X251572706Y-148563060D02*
G01*
X251576576Y-148593677D01*
X251589475Y-148646383D01*
X251614714Y-148659359D01*
X251648423Y-148679711D01*
X251652852Y-148697497D01*
X251632500Y-148731206D01*
X251614714Y-148735635D01*
X251588196Y-148752429D01*
X251577268Y-148808099D01*
X251576576Y-148837337D01*
X251582328Y-148906800D01*
X251602166Y-148936240D01*
X251616833Y-148939039D01*
X251644703Y-148953227D01*
X251640634Y-148982500D01*
X251609554Y-149006918D01*
X251599365Y-149009701D01*
X251551034Y-148999651D01*
X251531552Y-148985547D01*
X251512042Y-148941957D01*
X251501133Y-148870844D01*
X251500300Y-148844965D01*
X251495030Y-148778516D01*
X251481760Y-148739734D01*
X251474874Y-148735635D01*
X251452318Y-148715042D01*
X251449449Y-148697497D01*
X251462240Y-148663648D01*
X251473106Y-148659359D01*
X251494995Y-148637810D01*
X251504888Y-148604143D01*
X251523990Y-148552983D01*
X251551410Y-148538586D01*
X251572706Y-148563060D01*
G37*
G36*
X253988121Y-149325822D02*
G01*
X253991992Y-149356440D01*
X254004890Y-149409146D01*
X254030130Y-149422122D01*
X254063838Y-149442474D01*
X254068268Y-149460260D01*
X254047916Y-149493968D01*
X254030130Y-149498398D01*
X254003611Y-149515192D01*
X253992684Y-149570861D01*
X253991992Y-149600100D01*
X253997743Y-149669563D01*
X254017582Y-149699003D01*
X254032249Y-149701802D01*
X254061685Y-149717316D01*
X254062039Y-149733583D01*
X254030375Y-149762722D01*
X253978300Y-149774892D01*
X253935175Y-149763544D01*
X253933738Y-149762200D01*
X253923159Y-149728063D01*
X253916676Y-149661748D01*
X253915715Y-149621288D01*
X253910993Y-149550171D01*
X253898960Y-149505801D01*
X253890290Y-149498398D01*
X253867733Y-149477805D01*
X253864864Y-149460260D01*
X253877655Y-149426411D01*
X253888522Y-149422122D01*
X253910411Y-149400573D01*
X253920303Y-149366906D01*
X253939405Y-149315746D01*
X253966825Y-149301348D01*
X253988121Y-149325822D01*
G37*
G36*
X245434616Y-149180845D02*
G01*
X245486036Y-149221902D01*
X245499899Y-149272683D01*
X245485302Y-149312423D01*
X245453632Y-149316741D01*
X245423071Y-149286859D01*
X245415587Y-149267011D01*
X245396574Y-149227397D01*
X245375921Y-149231172D01*
X245358255Y-149271265D01*
X245348208Y-149340601D01*
X245347347Y-149371271D01*
X245353530Y-149449381D01*
X245368993Y-149500786D01*
X245389107Y-149518414D01*
X245409241Y-149495191D01*
X245415587Y-149475531D01*
X245439947Y-149435448D01*
X245473286Y-149422635D01*
X245497144Y-149440892D01*
X245499899Y-149458181D01*
X245485520Y-149531402D01*
X245438238Y-149567808D01*
X245381967Y-149574674D01*
X245317363Y-149565303D01*
X245282325Y-149541715D01*
X245281677Y-149540215D01*
X245275897Y-149497960D01*
X245274082Y-149422451D01*
X245276118Y-149343168D01*
X245281515Y-149255047D01*
X245290959Y-149205556D01*
X245310099Y-149182499D01*
X245344588Y-149173679D01*
X245355241Y-149172387D01*
X245434616Y-149180845D01*
G37*
G36*
X247447958Y-150149775D02*
G01*
X247492248Y-150172901D01*
X247507746Y-150222443D01*
X247508413Y-150244848D01*
X247508318Y-150324725D01*
X247457936Y-150242092D01*
X247420093Y-150184346D01*
X247391399Y-150163409D01*
X247355450Y-150172125D01*
X247328859Y-150185779D01*
X247295257Y-150219098D01*
X247281094Y-150280508D01*
X247279679Y-150323540D01*
X247283080Y-150401989D01*
X247291583Y-150463039D01*
X247295112Y-150475198D01*
X247330554Y-150508839D01*
X247386231Y-150511757D01*
X247443262Y-150485722D01*
X247468928Y-150458907D01*
X247498096Y-150425560D01*
X247508418Y-150437302D01*
X247508508Y-150441109D01*
X247487211Y-150496194D01*
X247433208Y-150530634D01*
X247361334Y-150541838D01*
X247286421Y-150527212D01*
X247228828Y-150489990D01*
X247189248Y-150418904D01*
X247178981Y-150328209D01*
X247200441Y-150241448D01*
X247202866Y-150236738D01*
X247251545Y-150190162D01*
X247328503Y-150157035D01*
X247411471Y-150145260D01*
X247447958Y-150149775D01*
G37*
G36*
X249997103Y-148666312D02*
G01*
X250045414Y-148696336D01*
X250069942Y-148761364D01*
X250076476Y-148862879D01*
X250076476Y-149009321D01*
X249981131Y-149010590D01*
X249905521Y-149004939D01*
X249846325Y-148989438D01*
X249841291Y-148986899D01*
X249805508Y-148941613D01*
X249800900Y-148895898D01*
X249880145Y-148895898D01*
X249884899Y-148912179D01*
X249922292Y-148933555D01*
X249968523Y-148924888D01*
X249992811Y-148897677D01*
X249983632Y-148866313D01*
X249945648Y-148851644D01*
X249900168Y-148861739D01*
X249899291Y-148862272D01*
X249880145Y-148895898D01*
X249800900Y-148895898D01*
X249799092Y-148877959D01*
X249824057Y-148820436D01*
X249827307Y-148816997D01*
X249874158Y-148794186D01*
X249929009Y-148786486D01*
X249985603Y-148778167D01*
X249997317Y-148759540D01*
X249966106Y-148740106D01*
X249917567Y-148730890D01*
X249853776Y-148715925D01*
X249838088Y-148693728D01*
X249870289Y-148672920D01*
X249919228Y-148663981D01*
X249997103Y-148666312D01*
G37*
G36*
X250346700Y-150193724D02*
G01*
X250395738Y-150216095D01*
X250418939Y-150242336D01*
X250451587Y-150320522D01*
X250451126Y-150401050D01*
X250423094Y-150471530D01*
X250373033Y-150519574D01*
X250306481Y-150532790D01*
X250290389Y-150529847D01*
X250244920Y-150525797D01*
X250229924Y-150554772D01*
X250229029Y-150578494D01*
X250215852Y-150629980D01*
X250190890Y-150642542D01*
X250172171Y-150633550D01*
X250160561Y-150600752D01*
X250154583Y-150535415D01*
X250152763Y-150428806D01*
X250152752Y-150416938D01*
X250152752Y-150332480D01*
X250233433Y-150332480D01*
X250239217Y-150395890D01*
X250268244Y-150441500D01*
X250308314Y-150461993D01*
X250347229Y-150450051D01*
X250368868Y-150413713D01*
X250374773Y-150346602D01*
X250368398Y-150310530D01*
X250336338Y-150270589D01*
X250290188Y-150265949D01*
X250249160Y-150293485D01*
X250233433Y-150332480D01*
X250152752Y-150332480D01*
X250152752Y-150191334D01*
X250266386Y-150189053D01*
X250346700Y-150193724D01*
G37*
G36*
X252445515Y-149430354D02*
G01*
X252511312Y-149468127D01*
X252537646Y-149504858D01*
X252558685Y-149569791D01*
X252542106Y-149607593D01*
X252483316Y-149623795D01*
X252437421Y-149625525D01*
X252367975Y-149631490D01*
X252344700Y-149650160D01*
X252345820Y-149657307D01*
X252376423Y-149681484D01*
X252423260Y-149690252D01*
X252487273Y-149699807D01*
X252513668Y-149721759D01*
X252496184Y-149750262D01*
X252491155Y-149753646D01*
X252414468Y-149776368D01*
X252339490Y-149749111D01*
X252313914Y-149727227D01*
X252275198Y-149659105D01*
X252264019Y-149574197D01*
X252274943Y-149523824D01*
X252352052Y-149523824D01*
X252361053Y-149542677D01*
X252401402Y-149549249D01*
X252449897Y-149540729D01*
X252466466Y-149523824D01*
X252445238Y-149502961D01*
X252417116Y-149498398D01*
X252368443Y-149510073D01*
X252352052Y-149523824D01*
X252274943Y-149523824D01*
X252281185Y-149495042D01*
X252304390Y-149460703D01*
X252370020Y-149426645D01*
X252445515Y-149430354D01*
G37*
G36*
X242111788Y-148151821D02*
G01*
X242164818Y-148157058D01*
X242187946Y-148170052D01*
X242191642Y-148194294D01*
X242190006Y-148208058D01*
X242161093Y-148259479D01*
X242125575Y-148273272D01*
X242099509Y-148280170D01*
X242082578Y-148298402D01*
X242072351Y-148337684D01*
X242066395Y-148407735D01*
X242062278Y-148518272D01*
X242062012Y-148527231D01*
X242057007Y-148645091D01*
X242049311Y-148720710D01*
X242037339Y-148762689D01*
X242019512Y-148779626D01*
X242015376Y-148780714D01*
X241970170Y-148777530D01*
X241958169Y-148770415D01*
X241950387Y-148738683D01*
X241944326Y-148668391D01*
X241940845Y-148571821D01*
X241940340Y-148515282D01*
X241939546Y-148404190D01*
X241935806Y-148334428D01*
X241927081Y-148296484D01*
X241911334Y-148280845D01*
X241889489Y-148277978D01*
X241849614Y-148263080D01*
X241838638Y-148214414D01*
X241841220Y-148181332D01*
X241856316Y-148162333D01*
X241894953Y-148153515D01*
X241968159Y-148150981D01*
X242018385Y-148150851D01*
X242111788Y-148151821D01*
G37*
G36*
X249876567Y-150191360D02*
G01*
X249913792Y-150217558D01*
X249922660Y-150229379D01*
X249945950Y-150260337D01*
X249965351Y-150246549D01*
X249976038Y-150229379D01*
X250014460Y-150192503D01*
X250039601Y-150184885D01*
X250068466Y-150189484D01*
X250072523Y-150210923D01*
X250051509Y-150260667D01*
X250037231Y-150288726D01*
X250013431Y-150344081D01*
X250017411Y-150385398D01*
X250049944Y-150437585D01*
X250089996Y-150498688D01*
X250098519Y-150529970D01*
X250076841Y-150540422D01*
X250065205Y-150540841D01*
X250024366Y-150521729D01*
X249988929Y-150484332D01*
X249949349Y-150427824D01*
X249909769Y-150484332D01*
X249867649Y-150529497D01*
X249835211Y-150538405D01*
X249822222Y-150508375D01*
X249822222Y-150508360D01*
X249835889Y-150464869D01*
X249863993Y-150416242D01*
X249890523Y-150370379D01*
X249888170Y-150331905D01*
X249863993Y-150285891D01*
X249835066Y-150232675D01*
X249822257Y-150200712D01*
X249822222Y-150200031D01*
X249839220Y-150183524D01*
X249876567Y-150191360D01*
G37*
G36*
X250703260Y-150194667D02*
G01*
X250768285Y-150233501D01*
X250807986Y-150300312D01*
X250813813Y-150343095D01*
X250804332Y-150371427D01*
X250767881Y-150384950D01*
X250696286Y-150388288D01*
X250626717Y-150390250D01*
X250599032Y-150398930D01*
X250604324Y-150418518D01*
X250611767Y-150428061D01*
X250665531Y-150456106D01*
X250703869Y-150453002D01*
X250750333Y-150456027D01*
X250764592Y-150483181D01*
X250741755Y-150515703D01*
X250722745Y-150525408D01*
X250645447Y-150539053D01*
X250580015Y-150508658D01*
X250559559Y-150489990D01*
X250519621Y-150420464D01*
X250509911Y-150336151D01*
X250523261Y-150286586D01*
X250597697Y-150286586D01*
X250606699Y-150305440D01*
X250647048Y-150312012D01*
X250695543Y-150303492D01*
X250712112Y-150286586D01*
X250690884Y-150265724D01*
X250662761Y-150261161D01*
X250614088Y-150272836D01*
X250597697Y-150286586D01*
X250523261Y-150286586D01*
X250530785Y-150258652D01*
X250555205Y-150226963D01*
X250627403Y-150190318D01*
X250703260Y-150194667D01*
G37*
G36*
X251319299Y-148666340D02*
G01*
X251367631Y-148696460D01*
X251392131Y-148761638D01*
X251398598Y-148862409D01*
X251398598Y-149008381D01*
X251300253Y-149008381D01*
X251224870Y-149002555D01*
X251166755Y-148988227D01*
X251160413Y-148985159D01*
X251126913Y-148941256D01*
X251123542Y-148903621D01*
X251195195Y-148903621D01*
X251214810Y-148931028D01*
X251257704Y-148938062D01*
X251299946Y-148923249D01*
X251311366Y-148910771D01*
X251310309Y-148877374D01*
X251277366Y-148854291D01*
X251231439Y-148854338D01*
X251229282Y-148855122D01*
X251198117Y-148888193D01*
X251195195Y-148903621D01*
X251123542Y-148903621D01*
X251121293Y-148878507D01*
X251145166Y-148821607D01*
X251149429Y-148816997D01*
X251196280Y-148794186D01*
X251251131Y-148786486D01*
X251307725Y-148778167D01*
X251319439Y-148759540D01*
X251288228Y-148740106D01*
X251239689Y-148730890D01*
X251175898Y-148715925D01*
X251160210Y-148693728D01*
X251192411Y-148672920D01*
X251241350Y-148663981D01*
X251319299Y-148666340D01*
G37*
G36*
X252981740Y-150187867D02*
G01*
X253034287Y-150206072D01*
X253046166Y-150215395D01*
X253063111Y-150256429D01*
X253074189Y-150329460D01*
X253076676Y-150387970D01*
X253076676Y-150530035D01*
X252975426Y-150534073D01*
X252890520Y-150526294D01*
X252835586Y-150499521D01*
X252798552Y-150435993D01*
X252800244Y-150421424D01*
X252880346Y-150421424D01*
X252885099Y-150437704D01*
X252922492Y-150459081D01*
X252968723Y-150450413D01*
X252993011Y-150423202D01*
X252983832Y-150391838D01*
X252945848Y-150377170D01*
X252900368Y-150387265D01*
X252899492Y-150387798D01*
X252880346Y-150421424D01*
X252800244Y-150421424D01*
X252805572Y-150375549D01*
X252850643Y-150330215D01*
X252927761Y-150312017D01*
X252929209Y-150312012D01*
X252980525Y-150304165D01*
X253000400Y-150286586D01*
X252978306Y-150268734D01*
X252925073Y-150261163D01*
X252924124Y-150261161D01*
X252863568Y-150249790D01*
X252847847Y-150223023D01*
X252869173Y-150197087D01*
X252920253Y-150185120D01*
X252981740Y-150187867D01*
G37*
G36*
X253374802Y-149442074D02*
G01*
X253432724Y-149494802D01*
X253457861Y-149572437D01*
X253458058Y-149580332D01*
X253448577Y-149608664D01*
X253412125Y-149622188D01*
X253340530Y-149625525D01*
X253270961Y-149627487D01*
X253243276Y-149636167D01*
X253248569Y-149655755D01*
X253256011Y-149665298D01*
X253309516Y-149693343D01*
X253346555Y-149690630D01*
X253400033Y-149689019D01*
X253420386Y-149709977D01*
X253400083Y-149741340D01*
X253384165Y-149751377D01*
X253304105Y-149776491D01*
X253238186Y-149755240D01*
X253218370Y-149738162D01*
X253169645Y-149661961D01*
X253158200Y-149579283D01*
X253174619Y-149523824D01*
X253254654Y-149523824D01*
X253276458Y-149542774D01*
X253319718Y-149549249D01*
X253362977Y-149541178D01*
X253369069Y-149523824D01*
X253333207Y-149502465D01*
X253304005Y-149498398D01*
X253263511Y-149509335D01*
X253254654Y-149523824D01*
X253174619Y-149523824D01*
X253180632Y-149503513D01*
X253233538Y-149448034D01*
X253297499Y-149427050D01*
X253374802Y-149442074D01*
G37*
G36*
X251248218Y-149439365D02*
G01*
X251266314Y-149454046D01*
X251292238Y-149501960D01*
X251310321Y-149555748D01*
X251318248Y-149597963D01*
X251306371Y-149618403D01*
X251263174Y-149624963D01*
X251208545Y-149625525D01*
X251131836Y-149630241D01*
X251100301Y-149645341D01*
X251099975Y-149657307D01*
X251130577Y-149681484D01*
X251177414Y-149690252D01*
X251241427Y-149699807D01*
X251267822Y-149721759D01*
X251250338Y-149750262D01*
X251245309Y-149753646D01*
X251168623Y-149776368D01*
X251093644Y-149749111D01*
X251068068Y-149727227D01*
X251029684Y-149659834D01*
X251018035Y-149575571D01*
X251028579Y-149523824D01*
X251106206Y-149523824D01*
X251115207Y-149542677D01*
X251155556Y-149549249D01*
X251204052Y-149540729D01*
X251220620Y-149523824D01*
X251199392Y-149502961D01*
X251171270Y-149498398D01*
X251122597Y-149510073D01*
X251106206Y-149523824D01*
X251028579Y-149523824D01*
X251034048Y-149496981D01*
X251057171Y-149462076D01*
X251114288Y-149431399D01*
X251186015Y-149423520D01*
X251248218Y-149439365D01*
G37*
G36*
X252078794Y-150211065D02*
G01*
X252095981Y-150224839D01*
X252127933Y-150281576D01*
X252135936Y-150326541D01*
X252130237Y-150366072D01*
X252103733Y-150383847D01*
X252042310Y-150388258D01*
X252032115Y-150388288D01*
X251962050Y-150394101D01*
X251938004Y-150412356D01*
X251939100Y-150420070D01*
X251969767Y-150444028D01*
X252015235Y-150451852D01*
X252078078Y-150460749D01*
X252105896Y-150482901D01*
X252091394Y-150511493D01*
X252084348Y-150516408D01*
X252005198Y-150539472D01*
X251927115Y-150517029D01*
X251893250Y-150488725D01*
X251857836Y-150419570D01*
X251847329Y-150333106D01*
X251856475Y-150286586D01*
X251932532Y-150286586D01*
X251954336Y-150305537D01*
X251997596Y-150312012D01*
X252040855Y-150303941D01*
X252046947Y-150286586D01*
X252011085Y-150265227D01*
X251981882Y-150261161D01*
X251941389Y-150272098D01*
X251932532Y-150286586D01*
X251856475Y-150286586D01*
X251862973Y-150253531D01*
X251879709Y-150225399D01*
X251935763Y-150192590D01*
X252010168Y-150187792D01*
X252078794Y-150211065D01*
G37*
G36*
X252722893Y-148676603D02*
G01*
X252740988Y-148691283D01*
X252766912Y-148739197D01*
X252784996Y-148792985D01*
X252792922Y-148835200D01*
X252781045Y-148855640D01*
X252737849Y-148862201D01*
X252683220Y-148862763D01*
X252606511Y-148867478D01*
X252574976Y-148882578D01*
X252574649Y-148894544D01*
X252605252Y-148918721D01*
X252652088Y-148927489D01*
X252716102Y-148937044D01*
X252742497Y-148958996D01*
X252725012Y-148987499D01*
X252719984Y-148990883D01*
X252643297Y-149013605D01*
X252568319Y-148986348D01*
X252542742Y-148964464D01*
X252504358Y-148897072D01*
X252492710Y-148812808D01*
X252503254Y-148761061D01*
X252580880Y-148761061D01*
X252589882Y-148779914D01*
X252630231Y-148786486D01*
X252678726Y-148777966D01*
X252695295Y-148761061D01*
X252674067Y-148740198D01*
X252645945Y-148735635D01*
X252597271Y-148747311D01*
X252580880Y-148761061D01*
X252503254Y-148761061D01*
X252508723Y-148734218D01*
X252531846Y-148699313D01*
X252588963Y-148668636D01*
X252660690Y-148660757D01*
X252722893Y-148676603D01*
G37*
G36*
X240383805Y-148447836D02*
G01*
X240376676Y-148773774D01*
X240224124Y-148778020D01*
X240117337Y-148773886D01*
X240030764Y-148757325D01*
X240003711Y-148746506D01*
X239943684Y-148690253D01*
X239902278Y-148606186D01*
X239893255Y-148547915D01*
X240027077Y-148547915D01*
X240046762Y-148613469D01*
X240095025Y-148652439D01*
X240155679Y-148661122D01*
X240212537Y-148635818D01*
X240240988Y-148596837D01*
X240255718Y-148538977D01*
X240235444Y-148482908D01*
X240227144Y-148469710D01*
X240171828Y-148417558D01*
X240112839Y-148409197D01*
X240062030Y-148439991D01*
X240031254Y-148505310D01*
X240027077Y-148547915D01*
X239893255Y-148547915D01*
X239888374Y-148516396D01*
X239894760Y-148475424D01*
X239942779Y-148383497D01*
X240015520Y-148320114D01*
X240100818Y-148292852D01*
X240171809Y-148302847D01*
X240212819Y-148314101D01*
X240232131Y-148298290D01*
X240240694Y-148244367D01*
X240241729Y-148232297D01*
X240252285Y-148168644D01*
X240277901Y-148139573D01*
X240320242Y-148130018D01*
X240390935Y-148121898D01*
X240383805Y-148447836D01*
G37*
G36*
X240680387Y-149183681D02*
G01*
X240728722Y-149228874D01*
X240734430Y-149300077D01*
X240720900Y-149343477D01*
X240705759Y-149429709D01*
X240718771Y-149482666D01*
X240739898Y-149542154D01*
X240740509Y-149568157D01*
X240718663Y-149574522D01*
X240705884Y-149574674D01*
X240670899Y-149553063D01*
X240640697Y-149500820D01*
X240639833Y-149498398D01*
X240614990Y-149445574D01*
X240591269Y-149422186D01*
X240590305Y-149422122D01*
X240574196Y-149444226D01*
X240567369Y-149497481D01*
X240567367Y-149498398D01*
X240555996Y-149558954D01*
X240529229Y-149574674D01*
X240509660Y-149565094D01*
X240497917Y-149530333D01*
X240492305Y-149461364D01*
X240491091Y-149371271D01*
X240491091Y-149288638D01*
X240571955Y-149288638D01*
X240578119Y-149335259D01*
X240605505Y-149345846D01*
X240636975Y-149328295D01*
X240639055Y-149288638D01*
X240623094Y-149243926D01*
X240605505Y-149231431D01*
X240582562Y-149253056D01*
X240571955Y-149288638D01*
X240491091Y-149288638D01*
X240491091Y-149167868D01*
X240591898Y-149167868D01*
X240680387Y-149183681D01*
G37*
G36*
X241249097Y-149174490D02*
G01*
X241271105Y-149201725D01*
X241289238Y-149260622D01*
X241302846Y-149326777D01*
X241320795Y-149417644D01*
X241336876Y-149492871D01*
X241346005Y-149530180D01*
X241340667Y-149565216D01*
X241310679Y-149574940D01*
X241276350Y-149557798D01*
X241263048Y-149536536D01*
X241231035Y-149502745D01*
X241212995Y-149498398D01*
X241181662Y-149518809D01*
X241177577Y-149536536D01*
X241156650Y-149568316D01*
X241130953Y-149574674D01*
X241108533Y-149571791D01*
X241097613Y-149556447D01*
X241097805Y-149518604D01*
X241108720Y-149448222D01*
X241123095Y-149371271D01*
X241125702Y-149358558D01*
X241203003Y-149358558D01*
X241210506Y-149406358D01*
X241224902Y-149422122D01*
X241237136Y-149400968D01*
X241234651Y-149358558D01*
X241222232Y-149310921D01*
X241212751Y-149294995D01*
X241205414Y-149316820D01*
X241203003Y-149358558D01*
X241125702Y-149358558D01*
X241143888Y-149269855D01*
X241161708Y-149208825D01*
X241181140Y-149178281D01*
X241206767Y-149168324D01*
X241217262Y-149167868D01*
X241249097Y-149174490D01*
G37*
G36*
X242978026Y-149174490D02*
G01*
X243000034Y-149201725D01*
X243018167Y-149260622D01*
X243031775Y-149326777D01*
X243049724Y-149417644D01*
X243065805Y-149492871D01*
X243074934Y-149530180D01*
X243069596Y-149565216D01*
X243039608Y-149574940D01*
X243005279Y-149557798D01*
X242991977Y-149536536D01*
X242959964Y-149502745D01*
X242941924Y-149498398D01*
X242910591Y-149518809D01*
X242906506Y-149536536D01*
X242885579Y-149568316D01*
X242859882Y-149574674D01*
X242837462Y-149571791D01*
X242826542Y-149556447D01*
X242826734Y-149518604D01*
X242837649Y-149448222D01*
X242852024Y-149371271D01*
X242854630Y-149358558D01*
X242931932Y-149358558D01*
X242939435Y-149406358D01*
X242953831Y-149422122D01*
X242966065Y-149400968D01*
X242963580Y-149358558D01*
X242951161Y-149310921D01*
X242941680Y-149294995D01*
X242934343Y-149316820D01*
X242931932Y-149358558D01*
X242854630Y-149358558D01*
X242872816Y-149269855D01*
X242890637Y-149208825D01*
X242910069Y-149178281D01*
X242935696Y-149168324D01*
X242946191Y-149167868D01*
X242978026Y-149174490D01*
G37*
G36*
X251830830Y-149612811D02*
G01*
X251826875Y-149726387D01*
X251813897Y-149799115D01*
X251790876Y-149839825D01*
X251736319Y-149872377D01*
X251678467Y-149877438D01*
X251640140Y-149854354D01*
X251645299Y-149832101D01*
X251660951Y-149828929D01*
X251705909Y-149810902D01*
X251732172Y-149787123D01*
X251752334Y-149757792D01*
X251733508Y-149756381D01*
X251710821Y-149763106D01*
X251636661Y-149765229D01*
X251578108Y-149728308D01*
X251541783Y-149663351D01*
X251534306Y-149581381D01*
X251627427Y-149581381D01*
X251634612Y-149658419D01*
X251659467Y-149693787D01*
X251702463Y-149695976D01*
X251732907Y-149666371D01*
X251741841Y-149599752D01*
X251735594Y-149537438D01*
X251710707Y-149509504D01*
X251684634Y-149502986D01*
X251645729Y-149504326D01*
X251629946Y-149532490D01*
X251627427Y-149581381D01*
X251534306Y-149581381D01*
X251534304Y-149581363D01*
X251555976Y-149505660D01*
X251584149Y-149461306D01*
X251624618Y-149439295D01*
X251695184Y-149430939D01*
X251710350Y-149430293D01*
X251830830Y-149425751D01*
X251830830Y-149612811D01*
G37*
G36*
X246110020Y-149172114D02*
G01*
X246125205Y-149191673D01*
X246132795Y-149236773D01*
X246135348Y-149317642D01*
X246135535Y-149371271D01*
X246134473Y-149472615D01*
X246129584Y-149533353D01*
X246118309Y-149563714D01*
X246098091Y-149573926D01*
X246084684Y-149574674D01*
X246049637Y-149564720D01*
X246035496Y-149525859D01*
X246033833Y-149485685D01*
X246025563Y-149419868D01*
X245999169Y-149396857D01*
X245995695Y-149396696D01*
X245967488Y-149415994D01*
X245957626Y-149477581D01*
X245957557Y-149485685D01*
X245949287Y-149551503D01*
X245922892Y-149574514D01*
X245919419Y-149574674D01*
X245899851Y-149565094D01*
X245888107Y-149530333D01*
X245882495Y-149461364D01*
X245881281Y-149371271D01*
X245883077Y-149266907D01*
X245889595Y-149204273D01*
X245902527Y-149174343D01*
X245919419Y-149167868D01*
X245949697Y-149190609D01*
X245957557Y-149244144D01*
X245968928Y-149304700D01*
X245995695Y-149320420D01*
X246025973Y-149297679D01*
X246033833Y-149244144D01*
X246041825Y-149188312D01*
X246071558Y-149168655D01*
X246084684Y-149167868D01*
X246110020Y-149172114D01*
G37*
G36*
X250219208Y-148551029D02*
G01*
X250228870Y-148594019D01*
X250229029Y-148604903D01*
X250234843Y-148654572D01*
X250262980Y-148668857D01*
X250302165Y-148665243D01*
X250371588Y-148676643D01*
X250424020Y-148724281D01*
X250453837Y-148794831D01*
X250455419Y-148874968D01*
X250423144Y-148951368D01*
X250422975Y-148951599D01*
X250380528Y-148979758D01*
X250312190Y-149000296D01*
X250238975Y-149009598D01*
X250181900Y-149004048D01*
X250166979Y-148995641D01*
X250160409Y-148965282D01*
X250155446Y-148897045D01*
X250152997Y-148806955D01*
X250233433Y-148806955D01*
X250239217Y-148870365D01*
X250268244Y-148915975D01*
X250308314Y-148936467D01*
X250347229Y-148924525D01*
X250368868Y-148888188D01*
X250374773Y-148821077D01*
X250368398Y-148785004D01*
X250336338Y-148745064D01*
X250290188Y-148740424D01*
X250249160Y-148767960D01*
X250233433Y-148806955D01*
X250152997Y-148806955D01*
X250152914Y-148803894D01*
X250152752Y-148772256D01*
X250154930Y-148662505D01*
X250162502Y-148594329D01*
X250177023Y-148558599D01*
X250190890Y-148548463D01*
X250219208Y-148551029D01*
G37*
G36*
X240065786Y-149179845D02*
G01*
X240118723Y-149214988D01*
X240135135Y-149259970D01*
X240118631Y-149290208D01*
X240083731Y-149290654D01*
X240052349Y-149262510D01*
X240049046Y-149255245D01*
X240027031Y-149224582D01*
X240005842Y-149237377D01*
X239989648Y-149286348D01*
X239982623Y-149364212D01*
X239982582Y-149371271D01*
X239988776Y-149452373D01*
X240004647Y-149503084D01*
X240026126Y-149516785D01*
X240049147Y-149486855D01*
X240050900Y-149482465D01*
X240052031Y-149440440D01*
X240038007Y-149427884D01*
X240008357Y-149405728D01*
X240020572Y-149382783D01*
X240067374Y-149371326D01*
X240071571Y-149371271D01*
X240112524Y-149376822D01*
X240130726Y-149403005D01*
X240135112Y-149464116D01*
X240135135Y-149472973D01*
X240135135Y-149574674D01*
X240032635Y-149574674D01*
X239957306Y-149566232D01*
X239918390Y-149543304D01*
X239916912Y-149540215D01*
X239911132Y-149497960D01*
X239909317Y-149422451D01*
X239911354Y-149343168D01*
X239916750Y-149255047D01*
X239926194Y-149205556D01*
X239945335Y-149182499D01*
X239979823Y-149173679D01*
X239990476Y-149172387D01*
X240065786Y-149179845D01*
G37*
G36*
X243237037Y-147434137D02*
G01*
X243238799Y-147557857D01*
X243244976Y-147640290D01*
X243256899Y-147690909D01*
X243275901Y-147719185D01*
X243277306Y-147720387D01*
X243326291Y-147740064D01*
X243359939Y-147727154D01*
X243380264Y-147704768D01*
X243394051Y-147661770D01*
X243402924Y-147588836D01*
X243408509Y-147476643D01*
X243409548Y-147442592D01*
X243413256Y-147326231D01*
X243418165Y-147251492D01*
X243426772Y-147209164D01*
X243441575Y-147190034D01*
X243465072Y-147184891D01*
X243479468Y-147184684D01*
X243542142Y-147184684D01*
X243542142Y-147475231D01*
X243541658Y-147600779D01*
X243538864Y-147685797D01*
X243531746Y-147740606D01*
X243518289Y-147775528D01*
X243496479Y-147800882D01*
X243475149Y-147818475D01*
X243379907Y-147863786D01*
X243276903Y-147864421D01*
X243181799Y-147820708D01*
X243171251Y-147812145D01*
X243141077Y-147783822D01*
X243121235Y-147753723D01*
X243109426Y-147710980D01*
X243103346Y-147644723D01*
X243100694Y-147544085D01*
X243099913Y-147475259D01*
X243097197Y-147197397D01*
X243167117Y-147189352D01*
X243237037Y-147181307D01*
X243237037Y-147434137D01*
G37*
G36*
X247736914Y-146091096D02*
G01*
X247737107Y-146091391D01*
X247752658Y-146117906D01*
X247757033Y-146142889D01*
X247746074Y-146175346D01*
X247715622Y-146224282D01*
X247661520Y-146298704D01*
X247609304Y-146368193D01*
X247372629Y-146640682D01*
X247102164Y-146875837D01*
X246800211Y-147072147D01*
X246469068Y-147228102D01*
X246135535Y-147335959D01*
X245972221Y-147367870D01*
X245774099Y-147390380D01*
X245556425Y-147402997D01*
X245334453Y-147405230D01*
X245123441Y-147396589D01*
X244938644Y-147376581D01*
X244927827Y-147374863D01*
X244789533Y-147347543D01*
X244701460Y-147318738D01*
X244667480Y-147294815D01*
X244645948Y-147256572D01*
X244645304Y-147242617D01*
X244672785Y-147241374D01*
X244740262Y-147245101D01*
X244837201Y-147253065D01*
X244938757Y-147263021D01*
X245317643Y-147277930D01*
X245700235Y-147245469D01*
X246077087Y-147167303D01*
X246438751Y-147045094D01*
X246609173Y-146968853D01*
X246945456Y-146778548D01*
X247249567Y-146551736D01*
X247517604Y-146291535D01*
X247642860Y-146142242D01*
X247688115Y-146089435D01*
X247716136Y-146074183D01*
X247736914Y-146091096D01*
G37*
G36*
X241123985Y-148164376D02*
G01*
X241207718Y-148224449D01*
X241268933Y-148311183D01*
X241298713Y-148422299D01*
X241297598Y-148501400D01*
X241261820Y-148623217D01*
X241187944Y-148712655D01*
X241079918Y-148765932D01*
X241008318Y-148778373D01*
X240911599Y-148778174D01*
X240836784Y-148754516D01*
X240804068Y-148735193D01*
X240730647Y-148662238D01*
X240679843Y-148568833D01*
X240654830Y-148495388D01*
X240651457Y-148455956D01*
X240796196Y-148455956D01*
X240816503Y-148549727D01*
X240869536Y-148616756D01*
X240943458Y-148651810D01*
X241026433Y-148649659D01*
X241106627Y-148605070D01*
X241115169Y-148596951D01*
X241167159Y-148515031D01*
X241177577Y-148455956D01*
X241156836Y-148375479D01*
X241104214Y-148305055D01*
X241034112Y-148260421D01*
X240991471Y-148252552D01*
X240901932Y-148275498D01*
X240833900Y-148336480D01*
X240798687Y-148423717D01*
X240796196Y-148455956D01*
X240651457Y-148455956D01*
X240650226Y-148441561D01*
X240666007Y-148380406D01*
X240679642Y-148343604D01*
X240742212Y-148236223D01*
X240826848Y-148166886D01*
X240924633Y-148133318D01*
X241026651Y-148133240D01*
X241123985Y-148164376D01*
G37*
G36*
X252836829Y-149425918D02*
G01*
X252942542Y-149427594D01*
X253008634Y-149432557D01*
X253046335Y-149443925D01*
X253066875Y-149464819D01*
X253079595Y-149493361D01*
X253096142Y-149565482D01*
X253098548Y-149644132D01*
X253088465Y-149713448D01*
X253067547Y-149757569D01*
X253051251Y-149765365D01*
X253026547Y-149750058D01*
X253011736Y-149698645D01*
X253005372Y-149630284D01*
X252997982Y-149550846D01*
X252984819Y-149511729D01*
X252961673Y-149502427D01*
X252954521Y-149503395D01*
X252926823Y-149522206D01*
X252910811Y-149572433D01*
X252903726Y-149644833D01*
X252894033Y-149729863D01*
X252876013Y-149771281D01*
X252859231Y-149778078D01*
X252835881Y-149763086D01*
X252824535Y-149712424D01*
X252822422Y-149650153D01*
X252817081Y-149564544D01*
X252799167Y-149518842D01*
X252781718Y-149506608D01*
X252736091Y-149509864D01*
X252707262Y-149560149D01*
X252695851Y-149656284D01*
X252695684Y-149670020D01*
X252688673Y-149748301D01*
X252668206Y-149777874D01*
X252635969Y-149761128D01*
X252627122Y-149728592D01*
X252620988Y-149660765D01*
X252619019Y-149584144D01*
X252619019Y-149424111D01*
X252836829Y-149425918D01*
G37*
G36*
X244743493Y-149981623D02*
G01*
X244876900Y-149991744D01*
X244978441Y-150020069D01*
X245041245Y-150064119D01*
X245056918Y-150094668D01*
X245057702Y-150164059D01*
X245044105Y-150206829D01*
X245000363Y-150247366D01*
X244925033Y-150283271D01*
X244837287Y-150306830D01*
X244783024Y-150311870D01*
X244754864Y-150324222D01*
X244738995Y-150368143D01*
X244732173Y-150432554D01*
X244721816Y-150511999D01*
X244701042Y-150551802D01*
X244679930Y-150561545D01*
X244660811Y-150560828D01*
X244648081Y-150544586D01*
X244640466Y-150504639D01*
X244636692Y-150432806D01*
X244635487Y-150320904D01*
X244635435Y-150275738D01*
X244635435Y-150146747D01*
X244737137Y-150146747D01*
X244740028Y-150217613D01*
X244753236Y-150251182D01*
X244783558Y-150260889D01*
X244795043Y-150261161D01*
X244860659Y-150246584D01*
X244909457Y-150221581D01*
X244957535Y-150167536D01*
X244961044Y-150112612D01*
X244925238Y-150066098D01*
X244855373Y-150037280D01*
X244802372Y-150032332D01*
X244762147Y-150036838D01*
X244743089Y-150059462D01*
X244737409Y-150113870D01*
X244737137Y-150146747D01*
X244635435Y-150146747D01*
X244635435Y-149981481D01*
X244743493Y-149981623D01*
G37*
G36*
X247069248Y-150191580D02*
G01*
X247077118Y-150198360D01*
X247122665Y-150251668D01*
X247121291Y-150287701D01*
X247072363Y-150307393D01*
X247000000Y-150312012D01*
X246924483Y-150314152D01*
X246886806Y-150324754D01*
X246874006Y-150350086D01*
X246872872Y-150373496D01*
X246883069Y-150458214D01*
X246917276Y-150503031D01*
X246976482Y-150515415D01*
X247042545Y-150498880D01*
X247087159Y-150445495D01*
X247113724Y-150406530D01*
X247125786Y-150411575D01*
X247126109Y-150416129D01*
X247106291Y-150477400D01*
X247052877Y-150518582D01*
X246980220Y-150536519D01*
X246902673Y-150528056D01*
X246834587Y-150490040D01*
X246826454Y-150481995D01*
X246782455Y-150406929D01*
X246777609Y-150328430D01*
X246804162Y-150255274D01*
X246828920Y-150226154D01*
X246876503Y-150226154D01*
X246879301Y-150262952D01*
X246924523Y-150284797D01*
X246949149Y-150286586D01*
X247005990Y-150276763D01*
X247025425Y-150253533D01*
X247005938Y-150199605D01*
X246959252Y-150177515D01*
X246919828Y-150186969D01*
X246876503Y-150226154D01*
X246828920Y-150226154D01*
X246854357Y-150196236D01*
X246920440Y-150160091D01*
X246994655Y-150155614D01*
X247069248Y-150191580D01*
G37*
G36*
X247664061Y-150038311D02*
G01*
X247683222Y-150066019D01*
X247686486Y-150119113D01*
X247689103Y-150176609D01*
X247705936Y-150193925D01*
X247750460Y-150181725D01*
X247760724Y-150177871D01*
X247832572Y-150163445D01*
X247880286Y-150186675D01*
X247906866Y-150251168D01*
X247915310Y-150360532D01*
X247915315Y-150363857D01*
X247920917Y-150460339D01*
X247936986Y-150514792D01*
X247947097Y-150524002D01*
X247948274Y-150533258D01*
X247908640Y-150538672D01*
X247902602Y-150538879D01*
X247826326Y-150540931D01*
X247826326Y-150371502D01*
X247822196Y-150268151D01*
X247808015Y-150210011D01*
X247781094Y-150191980D01*
X247740221Y-150208013D01*
X247714638Y-150247380D01*
X247697266Y-150316173D01*
X247689633Y-150395812D01*
X247693265Y-150467719D01*
X247709689Y-150513313D01*
X247714774Y-150517722D01*
X247725489Y-150533699D01*
X247689054Y-150540205D01*
X247673773Y-150540510D01*
X247597497Y-150540957D01*
X247605753Y-150308388D01*
X247607789Y-150187234D01*
X247603085Y-150108981D01*
X247590882Y-150066031D01*
X247580327Y-150054465D01*
X247571350Y-150038660D01*
X247611266Y-150032781D01*
X247616566Y-150032721D01*
X247664061Y-150038311D01*
G37*
G36*
X241552433Y-148139132D02*
G01*
X241635482Y-148157851D01*
X241706711Y-148183738D01*
X241740941Y-148205706D01*
X241780601Y-148276037D01*
X241780791Y-148354967D01*
X241747763Y-148428837D01*
X241687768Y-148483989D01*
X241607057Y-148506762D01*
X241603143Y-148506807D01*
X241563864Y-148510716D01*
X241542794Y-148530928D01*
X241532802Y-148580174D01*
X241528505Y-148640052D01*
X241518269Y-148727077D01*
X241498631Y-148771444D01*
X241481442Y-148780771D01*
X241436227Y-148777533D01*
X241424235Y-148770415D01*
X241415979Y-148737874D01*
X241410380Y-148667662D01*
X241407340Y-148572045D01*
X241406764Y-148463289D01*
X241408555Y-148353659D01*
X241409508Y-148330597D01*
X241533533Y-148330597D01*
X241545736Y-148370105D01*
X241590228Y-148375127D01*
X241590481Y-148375091D01*
X241638916Y-148351233D01*
X241655908Y-148322472D01*
X241648732Y-148288411D01*
X241602843Y-148278003D01*
X241598961Y-148277978D01*
X241548491Y-148288900D01*
X241533558Y-148327968D01*
X241533533Y-148330597D01*
X241409508Y-148330597D01*
X241412616Y-148255423D01*
X241418851Y-148180845D01*
X241427163Y-148142192D01*
X241429200Y-148139764D01*
X241477145Y-148131723D01*
X241552433Y-148139132D01*
G37*
G36*
X251632177Y-150193379D02*
G01*
X251709643Y-150206968D01*
X251754220Y-150240506D01*
X251774721Y-150301028D01*
X251779956Y-150395570D01*
X251779980Y-150405860D01*
X251776073Y-150489438D01*
X251762767Y-150531385D01*
X251743170Y-150540841D01*
X251718705Y-150523539D01*
X251704006Y-150467038D01*
X251698676Y-150407357D01*
X251691360Y-150328359D01*
X251677673Y-150288118D01*
X251652316Y-150274555D01*
X251640140Y-150273874D01*
X251609783Y-150281046D01*
X251592749Y-150310583D01*
X251583823Y-150374515D01*
X251581546Y-150409014D01*
X251570069Y-150495157D01*
X251551628Y-150532934D01*
X251531188Y-150523411D01*
X251513713Y-150467654D01*
X251505328Y-150392646D01*
X251497647Y-150313868D01*
X251483204Y-150274083D01*
X251456972Y-150261466D01*
X251449449Y-150261161D01*
X251420084Y-150269553D01*
X251403569Y-150302613D01*
X251394879Y-150372169D01*
X251393571Y-150392646D01*
X251381784Y-150473606D01*
X251360694Y-150525476D01*
X251335358Y-150541415D01*
X251310834Y-150514581D01*
X251308179Y-150508142D01*
X251301528Y-150462924D01*
X251299938Y-150387374D01*
X251301809Y-150334407D01*
X251309609Y-150197597D01*
X251513013Y-150192705D01*
X251632177Y-150193379D01*
G37*
G36*
X246283678Y-150145507D02*
G01*
X246337845Y-150168814D01*
X246363770Y-150215109D01*
X246364364Y-150225043D01*
X246353972Y-150275753D01*
X246331022Y-150282111D01*
X246307854Y-150241851D01*
X246306146Y-150235736D01*
X246279507Y-150197295D01*
X246219277Y-150184950D01*
X246212327Y-150184885D01*
X246153700Y-150194964D01*
X246138118Y-150220853D01*
X246162943Y-150256031D01*
X246225533Y-150293976D01*
X246262662Y-150309249D01*
X246337192Y-150342845D01*
X246374066Y-150379272D01*
X246384718Y-150416467D01*
X246370833Y-150483231D01*
X246318691Y-150530431D01*
X246238866Y-150552696D01*
X246141931Y-150544658D01*
X246135535Y-150543024D01*
X246081655Y-150509445D01*
X246063926Y-150457203D01*
X246066431Y-150402468D01*
X246086904Y-150392182D01*
X246117881Y-150426756D01*
X246131637Y-150453449D01*
X246162963Y-150499234D01*
X246211332Y-150512401D01*
X246243776Y-150510656D01*
X246304174Y-150494894D01*
X246326226Y-150467335D01*
X246322309Y-150444989D01*
X246303963Y-150425076D01*
X246261295Y-150401060D01*
X246184409Y-150366406D01*
X246152889Y-150352828D01*
X246088962Y-150318749D01*
X246064162Y-150283346D01*
X246063900Y-150254636D01*
X246091380Y-150199751D01*
X246146480Y-150162351D01*
X246215234Y-150143811D01*
X246283678Y-150145507D01*
G37*
G36*
X251782643Y-146351647D02*
G01*
X251883059Y-146367635D01*
X251938031Y-146394381D01*
X251952534Y-146436035D01*
X251938800Y-146481883D01*
X251915928Y-146519214D01*
X251881869Y-146534280D01*
X251819621Y-146532767D01*
X251794564Y-146530117D01*
X251721937Y-146525105D01*
X251687145Y-146533490D01*
X251678278Y-146557802D01*
X251699104Y-146595312D01*
X251750289Y-146634590D01*
X251760911Y-146640287D01*
X251882443Y-146717396D01*
X251955731Y-146802837D01*
X251983079Y-146899422D01*
X251983383Y-146911717D01*
X251961784Y-147016135D01*
X251903010Y-147094924D01*
X251816096Y-147143677D01*
X251710078Y-147157990D01*
X251593991Y-147133455D01*
X251559586Y-147118373D01*
X251506895Y-147087829D01*
X251491866Y-147056380D01*
X251505107Y-147003848D01*
X251505605Y-147002416D01*
X251530739Y-146950513D01*
X251563226Y-146938514D01*
X251586159Y-146944020D01*
X251681772Y-146965397D01*
X251752376Y-146962748D01*
X251792434Y-146941230D01*
X251796411Y-146906002D01*
X251758770Y-146862221D01*
X251707714Y-146830774D01*
X251594640Y-146755077D01*
X251525715Y-146668723D01*
X251502533Y-146576790D01*
X251526688Y-146484357D01*
X251577743Y-146416843D01*
X251629970Y-146370390D01*
X251677937Y-146349960D01*
X251744112Y-146348402D01*
X251782643Y-146351647D01*
G37*
G36*
X241371563Y-147208828D02*
G01*
X241408373Y-147232622D01*
X241448906Y-147269917D01*
X241452365Y-147296317D01*
X241425064Y-147328743D01*
X241383131Y-147359080D01*
X241341286Y-147349736D01*
X241330064Y-147343096D01*
X241266857Y-147314145D01*
X241233240Y-147319012D01*
X241229987Y-147349618D01*
X241257870Y-147397883D01*
X241317661Y-147455730D01*
X241319180Y-147456924D01*
X241402848Y-147537953D01*
X241460507Y-147625090D01*
X241482665Y-147703884D01*
X241482682Y-147705799D01*
X241465761Y-147750415D01*
X241424593Y-147804348D01*
X241420274Y-147808763D01*
X241338898Y-147857573D01*
X241241010Y-147870790D01*
X241149019Y-147845543D01*
X241146107Y-147843883D01*
X241096894Y-147799744D01*
X241075864Y-147769448D01*
X241064955Y-147726799D01*
X241096016Y-147696151D01*
X241103093Y-147692234D01*
X241153813Y-147677928D01*
X241200550Y-147703735D01*
X241204171Y-147706963D01*
X241257402Y-147734435D01*
X241304988Y-147728164D01*
X241329508Y-147691537D01*
X241330130Y-147682476D01*
X241311586Y-147645723D01*
X241264337Y-147594128D01*
X241230410Y-147564601D01*
X241164162Y-147501215D01*
X241112695Y-147434228D01*
X241099527Y-147409231D01*
X241082149Y-147349795D01*
X241094766Y-147301964D01*
X241119140Y-147265698D01*
X241191218Y-147207197D01*
X241281083Y-147187586D01*
X241371563Y-147208828D01*
G37*
G36*
X243324927Y-148139172D02*
G01*
X243334069Y-148171382D01*
X243337904Y-148234335D01*
X243338732Y-148337276D01*
X243338738Y-148360113D01*
X243341717Y-148490558D01*
X243352461Y-148578035D01*
X243373680Y-148630177D01*
X243408087Y-148654617D01*
X243445041Y-148659359D01*
X243474216Y-148651186D01*
X243494797Y-148621661D01*
X243508624Y-148563281D01*
X243517539Y-148468538D01*
X243523026Y-148341541D01*
X243527380Y-148240037D01*
X243534468Y-148179198D01*
X243547159Y-148148836D01*
X243568319Y-148138767D01*
X243580280Y-148138138D01*
X243603307Y-148141865D01*
X243618564Y-148159092D01*
X243628072Y-148198882D01*
X243633848Y-148270303D01*
X243637912Y-148382420D01*
X243638379Y-148399012D01*
X243640960Y-148517587D01*
X243639476Y-148596900D01*
X243631931Y-148648497D01*
X243616329Y-148683924D01*
X243590672Y-148714729D01*
X243582328Y-148723186D01*
X243498250Y-148774377D01*
X243400444Y-148784862D01*
X243306810Y-148753756D01*
X243284348Y-148737935D01*
X243257792Y-148713188D01*
X243240481Y-148683371D01*
X243230449Y-148637877D01*
X243225735Y-148566101D01*
X243224373Y-148457435D01*
X243224324Y-148413761D01*
X243224820Y-148292502D01*
X243227542Y-148212915D01*
X243234340Y-148165825D01*
X243247064Y-148142053D01*
X243267564Y-148132424D01*
X243281531Y-148130013D01*
X243308180Y-148128464D01*
X243324927Y-148139172D01*
G37*
G36*
X244041932Y-148151785D02*
G01*
X244095149Y-148157228D01*
X244119679Y-148171135D01*
X244126602Y-148197465D01*
X244126927Y-148214414D01*
X244122184Y-148253638D01*
X244098874Y-148272222D01*
X244043372Y-148277735D01*
X244012512Y-148277978D01*
X243936021Y-148283349D01*
X243901772Y-148301093D01*
X243898098Y-148314654D01*
X243920419Y-148342453D01*
X243989172Y-148357692D01*
X244006156Y-148359148D01*
X244074519Y-148367550D01*
X244105889Y-148385617D01*
X244114119Y-148422502D01*
X244114214Y-148430530D01*
X244108341Y-148471169D01*
X244081485Y-148491565D01*
X244019792Y-148500870D01*
X244006156Y-148501912D01*
X243937702Y-148510398D01*
X243906303Y-148528554D01*
X243898166Y-148565303D01*
X243898098Y-148571832D01*
X243902970Y-148609976D01*
X243926588Y-148628184D01*
X243982454Y-148633677D01*
X244014201Y-148633934D01*
X244084930Y-148635936D01*
X244117518Y-148647417D01*
X244124659Y-148676591D01*
X244122259Y-148703854D01*
X244114526Y-148742705D01*
X244094314Y-148764493D01*
X244049054Y-148775231D01*
X243966181Y-148780934D01*
X243960618Y-148781205D01*
X243876225Y-148782380D01*
X243813322Y-148777875D01*
X243788996Y-148770611D01*
X243781949Y-148739480D01*
X243776193Y-148668203D01*
X243772332Y-148567479D01*
X243770971Y-148451718D01*
X243770971Y-148150851D01*
X243948949Y-148150851D01*
X244041932Y-148151785D01*
G37*
G36*
X245331497Y-150158266D02*
G01*
X245367695Y-150175848D01*
X245387709Y-150202694D01*
X245396290Y-150252279D01*
X245398192Y-150338080D01*
X245398198Y-150347402D01*
X245403348Y-150452533D01*
X245418365Y-150513175D01*
X245429980Y-150525969D01*
X245429610Y-150533238D01*
X245389123Y-150532876D01*
X245372772Y-150531358D01*
X245295765Y-150530500D01*
X245232185Y-150541379D01*
X245230425Y-150542018D01*
X245160664Y-150546135D01*
X245116236Y-150531753D01*
X245059120Y-150486081D01*
X245048074Y-150437491D01*
X245145550Y-150437491D01*
X245153822Y-150479060D01*
X245186537Y-150510828D01*
X245234729Y-150508093D01*
X245281800Y-150475814D01*
X245307074Y-150433279D01*
X245322490Y-150373926D01*
X245307290Y-150350069D01*
X245253434Y-150352788D01*
X245237200Y-150355758D01*
X245169337Y-150385351D01*
X245145550Y-150437491D01*
X245048074Y-150437491D01*
X245047464Y-150434810D01*
X245077554Y-150385278D01*
X245145673Y-150344823D01*
X245221159Y-150324566D01*
X245287474Y-150309082D01*
X245315174Y-150286812D01*
X245317009Y-150252326D01*
X245291204Y-150206212D01*
X245239289Y-150189552D01*
X245188809Y-150190639D01*
X245169369Y-150203762D01*
X245155425Y-150239511D01*
X245132039Y-150275370D01*
X245106349Y-150305258D01*
X245096117Y-150295982D01*
X245093901Y-150244921D01*
X245099645Y-150189175D01*
X245128610Y-150161922D01*
X245178944Y-150149013D01*
X245259756Y-150145123D01*
X245331497Y-150158266D01*
G37*
G36*
X248712326Y-146066683D02*
G01*
X248720065Y-146070921D01*
X248726790Y-146081808D01*
X248732573Y-146102475D01*
X248737485Y-146136051D01*
X248741596Y-146185664D01*
X248744979Y-146254445D01*
X248747704Y-146345523D01*
X248749842Y-146462027D01*
X248751464Y-146607087D01*
X248752642Y-146783831D01*
X248753447Y-146995390D01*
X248753949Y-147244892D01*
X248754220Y-147535468D01*
X248754331Y-147870246D01*
X248754354Y-148252356D01*
X248754354Y-148303403D01*
X248754338Y-148691626D01*
X248754241Y-149032127D01*
X248753994Y-149328035D01*
X248753524Y-149582482D01*
X248752761Y-149798594D01*
X248751634Y-149979503D01*
X248750070Y-150128338D01*
X248748000Y-150248227D01*
X248745353Y-150342300D01*
X248742056Y-150413687D01*
X248738039Y-150465516D01*
X248733231Y-150500918D01*
X248727560Y-150523022D01*
X248720956Y-150534957D01*
X248713348Y-150539852D01*
X248704663Y-150540837D01*
X248703503Y-150540841D01*
X248694680Y-150540123D01*
X248686941Y-150535886D01*
X248680216Y-150524998D01*
X248674433Y-150504331D01*
X248669521Y-150470756D01*
X248665410Y-150421142D01*
X248662027Y-150352361D01*
X248659303Y-150261283D01*
X248657165Y-150144779D01*
X248655542Y-149999720D01*
X248654364Y-149822975D01*
X248653560Y-149611416D01*
X248653057Y-149361914D01*
X248652786Y-149071338D01*
X248652675Y-148736560D01*
X248652652Y-148354451D01*
X248652652Y-148303403D01*
X248652669Y-147915181D01*
X248652765Y-147574680D01*
X248653012Y-147278771D01*
X248653482Y-147024325D01*
X248654245Y-146808212D01*
X248655373Y-146627303D01*
X248656936Y-146478469D01*
X248659006Y-146358580D01*
X248661654Y-146264507D01*
X248664950Y-146193120D01*
X248668967Y-146141290D01*
X248673776Y-146105888D01*
X248679446Y-146083785D01*
X248686050Y-146071850D01*
X248693659Y-146066955D01*
X248702343Y-146065970D01*
X248703503Y-146065966D01*
X248712326Y-146066683D01*
G37*
G36*
X242877904Y-148141053D02*
G01*
X242934104Y-148155601D01*
X242981843Y-148190487D01*
X243022874Y-148233110D01*
X243078067Y-148301890D01*
X243103621Y-148365120D01*
X243109909Y-148448633D01*
X243109910Y-148449925D01*
X243101885Y-148536126D01*
X243081591Y-148607989D01*
X243071499Y-148626607D01*
X243049380Y-148675766D01*
X243058649Y-148697244D01*
X243090752Y-148731128D01*
X243110667Y-148762477D01*
X243123164Y-148797491D01*
X243101122Y-148810421D01*
X243064191Y-148811912D01*
X243005681Y-148806575D01*
X242974438Y-148795092D01*
X242941856Y-148785834D01*
X242874299Y-148778841D01*
X242802968Y-148776023D01*
X242713999Y-148772302D01*
X242656222Y-148759106D01*
X242610005Y-148728536D01*
X242561295Y-148678802D01*
X242506557Y-148610958D01*
X242481006Y-148548632D01*
X242474306Y-148465350D01*
X242474274Y-148455956D01*
X242601401Y-148455956D01*
X242622808Y-148538249D01*
X242677376Y-148608903D01*
X242750620Y-148652498D01*
X242792437Y-148659359D01*
X242838884Y-148651294D01*
X242840576Y-148627577D01*
X242809706Y-148582888D01*
X242784284Y-148551301D01*
X242763781Y-148522174D01*
X242776160Y-148509647D01*
X242829905Y-148506821D01*
X242839002Y-148506807D01*
X242899368Y-148512940D01*
X242930698Y-148528103D01*
X242931932Y-148532232D01*
X242951280Y-148556919D01*
X242957357Y-148557657D01*
X242974076Y-148535286D01*
X242982530Y-148480188D01*
X242982782Y-148467513D01*
X242962290Y-148377769D01*
X242909017Y-148303756D01*
X242835268Y-148259345D01*
X242792092Y-148252552D01*
X242715058Y-148275338D01*
X242648833Y-148333398D01*
X242607896Y-148411289D01*
X242601401Y-148455956D01*
X242474274Y-148455956D01*
X242479787Y-148369510D01*
X242503218Y-148306396D01*
X242554905Y-148240145D01*
X242561309Y-148233110D01*
X242616061Y-148178180D01*
X242664036Y-148149858D01*
X242726386Y-148139440D01*
X242792092Y-148138138D01*
X242877904Y-148141053D01*
G37*
D12*
%TO.C,R5*%
X187400000Y-118180000D02*
X187400000Y-124720000D01*
X187400000Y-124720000D02*
X190140000Y-124720000D01*
X188770000Y-117410000D02*
X188770000Y-118180000D01*
X188770000Y-125490000D02*
X188770000Y-124720000D01*
X190140000Y-118180000D02*
X187400000Y-118180000D01*
X190140000Y-124720000D02*
X190140000Y-118180000D01*
%TO.C,C1*%
X244430000Y-120680000D02*
X244430000Y-137420000D01*
X247096000Y-120680000D02*
X244430000Y-120680000D01*
X247096000Y-137420000D02*
X244430000Y-137420000D01*
X251970000Y-120680000D02*
X249304000Y-120680000D01*
X251970000Y-120680000D02*
X251970000Y-137420000D01*
X251970000Y-137420000D02*
X249304000Y-137420000D01*
%TO.C,D2*%
X231480000Y-138330000D02*
X231480000Y-142570000D01*
X231480000Y-142570000D02*
X233720000Y-142570000D01*
X232600000Y-137680000D02*
X232600000Y-138330000D01*
X232600000Y-143220000D02*
X232600000Y-142570000D01*
X233720000Y-138330000D02*
X231480000Y-138330000D01*
X233720000Y-138930000D02*
X231480000Y-138930000D01*
X233720000Y-139050000D02*
X231480000Y-139050000D01*
X233720000Y-139170000D02*
X231480000Y-139170000D01*
X233720000Y-142570000D02*
X233720000Y-138330000D01*
D14*
%TO.C,U1*%
X198410000Y-99770000D02*
X216950000Y-99770000D01*
X198410000Y-150060000D02*
X198410000Y-99770000D01*
X216950000Y-99770000D02*
X216950000Y-150060000D01*
X216950000Y-150060000D02*
X198410000Y-150060000D01*
D15*
X197780000Y-108415000D02*
G75*
G02*
X197580000Y-108415000I-100000J0D01*
G01*
X197580000Y-108415000D02*
G75*
G02*
X197780000Y-108415000I100000J0D01*
G01*
D12*
%TO.C,J4*%
X182970000Y-124770000D02*
X182970000Y-127370000D01*
X182970000Y-124770000D02*
X185630000Y-124770000D01*
X182970000Y-127370000D02*
X185630000Y-127370000D01*
X184300000Y-122170000D02*
X185630000Y-122170000D01*
X185630000Y-122170000D02*
X185630000Y-123500000D01*
X185630000Y-124770000D02*
X185630000Y-127370000D01*
%TO.C,C2*%
X225430000Y-123330000D02*
X225430000Y-125996000D01*
X225430000Y-123330000D02*
X242170000Y-123330000D01*
X225430000Y-128204000D02*
X225430000Y-130870000D01*
X225430000Y-130870000D02*
X242170000Y-130870000D01*
X242170000Y-123330000D02*
X242170000Y-125996000D01*
X242170000Y-128204000D02*
X242170000Y-130870000D01*
%TO.C,J5*%
X258870000Y-136770000D02*
X258870000Y-134170000D01*
X258870000Y-139370000D02*
X258870000Y-138040000D01*
X260200000Y-139370000D02*
X258870000Y-139370000D01*
X261530000Y-134170000D02*
X258870000Y-134170000D01*
X261530000Y-136770000D02*
X258870000Y-136770000D01*
X261530000Y-136770000D02*
X261530000Y-134170000D01*
%TO.C,J1*%
X192120000Y-138070000D02*
X192120000Y-143210000D01*
X192120000Y-138070000D02*
X194780000Y-138070000D01*
X192120000Y-143210000D02*
X194780000Y-143210000D01*
X193450000Y-135470000D02*
X194780000Y-135470000D01*
X194780000Y-135470000D02*
X194780000Y-136800000D01*
X194780000Y-138070000D02*
X194780000Y-143210000D01*
%TO.C,D3*%
X190364000Y-106530000D02*
X190520000Y-106530000D01*
X192680000Y-106530000D02*
X192836000Y-106530000D01*
X190364485Y-106529999D02*
G75*
G02*
X190521392Y-103297666I1235515J1559999D01*
G01*
X190520001Y-106010960D02*
G75*
G02*
X190520164Y-103928871I1079999J1040960D01*
G01*
X192678608Y-103297666D02*
G75*
G02*
X192835515Y-106529999I-1078608J-1672334D01*
G01*
X192679836Y-103928871D02*
G75*
G02*
X192679999Y-106010960I-1079836J-1041129D01*
G01*
%TO.C,J2*%
X224290000Y-100570000D02*
X224290000Y-103230000D01*
X229430000Y-100570000D02*
X224290000Y-100570000D01*
X229430000Y-100570000D02*
X229430000Y-103230000D01*
X229430000Y-103230000D02*
X224290000Y-103230000D01*
X232030000Y-101900000D02*
X232030000Y-103230000D01*
X232030000Y-103230000D02*
X230700000Y-103230000D01*
%TO.C,J3*%
X244330000Y-100370000D02*
X245660000Y-100370000D01*
X244330000Y-101700000D02*
X244330000Y-100370000D01*
X246930000Y-100370000D02*
X249530000Y-100370000D01*
X246930000Y-103030000D02*
X246930000Y-100370000D01*
X246930000Y-103030000D02*
X249530000Y-103030000D01*
X249530000Y-103030000D02*
X249530000Y-100370000D01*
%TO.C,D4*%
X192164000Y-126730000D02*
X192320000Y-126730000D01*
X194480000Y-126730000D02*
X194636000Y-126730000D01*
X192164485Y-126729999D02*
G75*
G02*
X192321392Y-123497666I1235515J1559999D01*
G01*
X192320001Y-126210960D02*
G75*
G02*
X192320164Y-124128871I1079999J1040960D01*
G01*
X194478608Y-123497666D02*
G75*
G02*
X194635515Y-126729999I-1078608J-1672334D01*
G01*
X194479836Y-124128871D02*
G75*
G02*
X194479999Y-126210960I-1079836J-1041129D01*
G01*
%TD*%
M02*
