M48
; DRILL file {KiCad 8.0.0} date 2024-05-29T15:57:04+0200
; FORMAT={-:-/ absolute / inch / decimal}
; #@! TF.CreationDate,2024-05-29T15:57:04+02:00
; #@! TF.GenerationSoftware,Kicad,Pcbnew,8.0.0
; #@! TF.FileFunction,Plated,1,2,PTH
FMAT,2
INCH
; #@! TA.AperFunction,Plated,PTH,ComponentDrill
T1C0.0315
; #@! TA.AperFunction,Plated,PTH,ComponentDrill
T2C0.0354
; #@! TA.AperFunction,Plated,PTH,ComponentDrill
T3C0.0394
; #@! TA.AperFunction,Plated,PTH,ComponentDrill
T4C0.0402
; #@! TA.AperFunction,Plated,PTH,ComponentDrill
T5C0.0433
; #@! TA.AperFunction,Plated,PTH,ComponentDrill
T6C0.2087
%
G90
G05
T1
X7.2717Y-4.1811
X7.2717Y-4.5811
X7.4319Y-4.5815
X7.4319Y-4.9815
X8.863Y-5.3764
X8.863Y-5.7764
X9.0122Y-5.3787
X9.0122Y-5.6787
X9.1575Y-5.3795
X9.1575Y-5.6795
X9.311Y-5.3795
X9.311Y-5.7795
X9.5Y-4.3524
X9.5Y-4.7524
T2
X7.5433Y-4.0827
X7.5433Y-4.1827
X7.6142Y-4.878
X7.6142Y-4.978
T3
X7.2559Y-4.8622
X7.2559Y-4.9622
X7.6161Y-5.3858
X7.6161Y-5.4858
X7.6161Y-5.5858
X8.8827Y-4.0118
X8.9827Y-4.0118
X9.0827Y-4.0118
X9.6717Y-4.0039
X9.7717Y-4.0039
X10.2441Y-5.3346
X10.2441Y-5.4346
T4
X7.8764Y-4.2795
X7.8764Y-4.3795
X7.8764Y-4.4795
X7.8764Y-4.5795
X7.8764Y-4.6795
X7.8764Y-4.7795
X7.8764Y-4.8795
X7.8764Y-4.9795
X7.8764Y-5.0795
X7.8764Y-5.1795
X7.8764Y-5.2795
X7.8764Y-5.3795
X7.8764Y-5.4795
X7.8764Y-5.5795
X7.8764Y-5.6795
X8.4764Y-4.2795
X8.4764Y-4.3795
X8.4764Y-4.4795
X8.4764Y-4.5795
X8.4764Y-4.6795
X8.4764Y-4.7795
X8.4764Y-4.8795
X8.4764Y-4.9795
X8.4764Y-5.0795
X8.4764Y-5.1795
X8.4764Y-5.2795
X8.4764Y-5.3795
X8.4764Y-5.4795
X8.4764Y-5.5795
X8.4764Y-5.6795
T5
X8.9094Y-5.0039
X9.5Y-5.0039
X9.7717Y-4.7854
X9.7717Y-5.376
T6
X7.25Y-5.8524
X10.25Y-4.0276
X10.25Y-5.8268
M30
