%TF.GenerationSoftware,KiCad,Pcbnew,8.0.0*%
%TF.CreationDate,2024-05-29T15:57:02+02:00*%
%TF.ProjectId,FIR_filter_G431KB,4649525f-6669-46c7-9465-725f47343331,rev?*%
%TF.SameCoordinates,Original*%
%TF.FileFunction,Copper,L1,Top*%
%TF.FilePolarity,Positive*%
%FSLAX46Y46*%
G04 Gerber Fmt 4.6, Leading zero omitted, Abs format (unit mm)*
G04 Created by KiCad (PCBNEW 8.0.0) date 2024-05-29 15:57:02*
%MOMM*%
%LPD*%
G01*
G04 APERTURE LIST*
%TA.AperFunction,ComponentPad*%
%ADD10C,1.600000*%
%TD*%
%TA.AperFunction,ComponentPad*%
%ADD11O,1.600000X1.600000*%
%TD*%
%TA.AperFunction,ComponentPad*%
%ADD12R,1.600000X1.600000*%
%TD*%
%TA.AperFunction,ComponentPad*%
%ADD13C,2.200000*%
%TD*%
%TA.AperFunction,ComponentPad*%
%ADD14R,1.530000X1.530000*%
%TD*%
%TA.AperFunction,ComponentPad*%
%ADD15C,1.530000*%
%TD*%
%TA.AperFunction,ComponentPad*%
%ADD16R,1.700000X1.700000*%
%TD*%
%TA.AperFunction,ComponentPad*%
%ADD17O,1.700000X1.700000*%
%TD*%
%TA.AperFunction,ComponentPad*%
%ADD18C,9.200000*%
%TD*%
%TA.AperFunction,ComponentPad*%
%ADD19R,1.800000X1.800000*%
%TD*%
%TA.AperFunction,ComponentPad*%
%ADD20C,1.800000*%
%TD*%
G04 APERTURE END LIST*
D10*
%TO.P,R4,1*%
%TO.N,GND*%
X241300000Y-110550000D03*
D11*
%TO.P,R4,2*%
%TO.N,Net-(J5-Pin_1)*%
X241300000Y-120710000D03*
%TD*%
D10*
%TO.P,R3,1*%
%TO.N,Net-(D3-K)*%
X184700000Y-106200000D03*
D11*
%TO.P,R3,2*%
%TO.N,GND*%
X184700000Y-116360000D03*
%TD*%
D10*
%TO.P,R1,1*%
%TO.N,AN_IN*%
X225120000Y-136560000D03*
D11*
%TO.P,R1,2*%
%TO.N,3.3V*%
X225120000Y-146720000D03*
%TD*%
D12*
%TO.P,D1,1,K*%
%TO.N,3.3V*%
X228910000Y-144240000D03*
D11*
%TO.P,D1,2,A*%
%TO.N,AN_IN*%
X228910000Y-136620000D03*
%TD*%
D10*
%TO.P,R2,1*%
%TO.N,GND*%
X236500000Y-146800000D03*
D11*
%TO.P,R2,2*%
%TO.N,AN_IN*%
X236500000Y-136640000D03*
%TD*%
D10*
%TO.P,R5,1*%
%TO.N,Net-(D4-K)*%
X188770000Y-126530000D03*
D11*
%TO.P,R5,2*%
%TO.N,GND*%
X188770000Y-116370000D03*
%TD*%
D13*
%TO.P,C1,1*%
%TO.N,Analog_In*%
X248200000Y-121550000D03*
%TO.P,C1,2*%
%TO.N,AN_IN*%
X248200000Y-136550000D03*
%TD*%
D12*
%TO.P,D2,1,K*%
%TO.N,AN_IN*%
X232600000Y-136640000D03*
D11*
%TO.P,D2,2,A*%
%TO.N,GND*%
X232600000Y-144260000D03*
%TD*%
D14*
%TO.P,U1,CN3_1,PA9*%
%TO.N,unconnected-(U1A-PA9-PadCN3_1)*%
X200060000Y-108700000D03*
D15*
%TO.P,U1,CN3_2,PA10*%
%TO.N,unconnected-(U1A-PA10-PadCN3_2)*%
X200060000Y-111240000D03*
%TO.P,U1,CN3_3,NRST_CN3*%
%TO.N,unconnected-(U1A-NRST_CN3-PadCN3_3)*%
X200060000Y-113780000D03*
%TO.P,U1,CN3_4,GND_CN3*%
%TO.N,GND*%
X200060000Y-116320000D03*
%TO.P,U1,CN3_5,PA12*%
%TO.N,unconnected-(U1A-PA12-PadCN3_5)*%
X200060000Y-118860000D03*
%TO.P,U1,CN3_6,PB0*%
%TO.N,LED1*%
X200060000Y-121400000D03*
%TO.P,U1,CN3_7,PB7*%
%TO.N,LED2*%
X200060000Y-123940000D03*
%TO.P,U1,CN3_8,PB6*%
%TO.N,unconnected-(U1A-PB6-PadCN3_8)*%
X200060000Y-126480000D03*
%TO.P,U1,CN3_9,PB1*%
%TO.N,unconnected-(U1A-PB1-PadCN3_9)*%
X200060000Y-129020000D03*
%TO.P,U1,CN3_10,PC14*%
%TO.N,unconnected-(U1A-PC14-PadCN3_10)*%
X200060000Y-131560000D03*
%TO.P,U1,CN3_11,PC15*%
%TO.N,unconnected-(U1A-PC15-PadCN3_11)*%
X200060000Y-134100000D03*
%TO.P,U1,CN3_12,PA8*%
%TO.N,unconnected-(U1A-PA8-PadCN3_12)*%
X200060000Y-136640000D03*
%TO.P,U1,CN3_13,PA11*%
%TO.N,CHOICE*%
X200060000Y-139180000D03*
%TO.P,U1,CN3_14,PB5*%
%TO.N,unconnected-(U1A-PB5-PadCN3_14)*%
X200060000Y-141720000D03*
%TO.P,U1,CN3_15,PB4*%
%TO.N,unconnected-(U1A-PB4-PadCN3_15)*%
X200060000Y-144260000D03*
D14*
%TO.P,U1,CN4_1,VIN*%
%TO.N,Vin*%
X215300000Y-108700000D03*
D15*
%TO.P,U1,CN4_2,GND_CN4*%
%TO.N,GND*%
X215300000Y-111240000D03*
%TO.P,U1,CN4_3,NRST_CN4*%
%TO.N,unconnected-(U1B-NRST_CN4-PadCN4_3)*%
X215300000Y-113780000D03*
%TO.P,U1,CN4_4,+5V*%
%TO.N,5V*%
X215300000Y-116320000D03*
%TO.P,U1,CN4_5,PA2*%
%TO.N,unconnected-(U1B-PA2-PadCN4_5)*%
X215300000Y-118860000D03*
%TO.P,U1,CN4_6,PA7*%
%TO.N,unconnected-(U1B-PA7-PadCN4_6)*%
X215300000Y-121400000D03*
%TO.P,U1,CN4_7,PA6*%
%TO.N,unconnected-(U1B-PA6-PadCN4_7)*%
X215300000Y-123940000D03*
%TO.P,U1,CN4_8,PA5*%
%TO.N,unconnected-(U1B-PA5-PadCN4_8)*%
X215300000Y-126480000D03*
%TO.P,U1,CN4_9,PA4*%
%TO.N,DAC_OUT*%
X215300000Y-129020000D03*
%TO.P,U1,CN4_10,PA3*%
%TO.N,unconnected-(U1B-PA3-PadCN4_10)*%
X215300000Y-131560000D03*
%TO.P,U1,CN4_11,PA1*%
%TO.N,unconnected-(U1B-PA1-PadCN4_11)*%
X215300000Y-134100000D03*
%TO.P,U1,CN4_12,PA0*%
%TO.N,AN_IN*%
X215300000Y-136640000D03*
%TO.P,U1,CN4_13,AREF*%
%TO.N,unconnected-(U1B-AREF-PadCN4_13)*%
X215300000Y-139180000D03*
%TO.P,U1,CN4_14,+3V3*%
%TO.N,3.3V*%
X215300000Y-141720000D03*
%TO.P,U1,CN4_15,PB3*%
%TO.N,unconnected-(U1B-PB3-PadCN4_15)*%
X215300000Y-144260000D03*
%TD*%
D16*
%TO.P,J4,1,Pin_1*%
%TO.N,GND*%
X184300000Y-123500000D03*
D17*
%TO.P,J4,2,Pin_2*%
%TO.N,Vin*%
X184300000Y-126040000D03*
%TD*%
D13*
%TO.P,C2,1*%
%TO.N,DAC_OUT*%
X226300000Y-127100000D03*
%TO.P,C2,2*%
%TO.N,Net-(J5-Pin_1)*%
X241300000Y-127100000D03*
%TD*%
D18*
%TO.P,,1*%
%TO.N,N/C*%
X260350000Y-102300000D03*
%TD*%
D16*
%TO.P,J5,1,Pin_1*%
%TO.N,Net-(J5-Pin_1)*%
X260200000Y-138040000D03*
D17*
%TO.P,J5,2,Pin_2*%
%TO.N,GND*%
X260200000Y-135500000D03*
%TD*%
D16*
%TO.P,J1,1,Pin_1*%
%TO.N,GND*%
X193450000Y-136800000D03*
D17*
%TO.P,J1,2,Pin_2*%
%TO.N,CHOICE*%
X193450000Y-139340000D03*
%TO.P,J1,3,Pin_3*%
%TO.N,3.3V*%
X193450000Y-141880000D03*
%TD*%
D18*
%TO.P,REF\u002A\u002A,1*%
%TO.N,N/C*%
X260350000Y-148000000D03*
%TD*%
D19*
%TO.P,D3,1,K*%
%TO.N,Net-(D3-K)*%
X191600000Y-106240000D03*
D20*
%TO.P,D3,2,A*%
%TO.N,LED1*%
X191600000Y-103700000D03*
%TD*%
D16*
%TO.P,J2,1,Pin_1*%
%TO.N,DAC_OUT*%
X230700000Y-101900000D03*
D17*
%TO.P,J2,2,Pin_2*%
%TO.N,GND*%
X228160000Y-101900000D03*
%TO.P,J2,3,Pin_3*%
%TO.N,Analog_In*%
X225620000Y-101900000D03*
%TD*%
D18*
%TO.P,REF\u002A\u002A,1*%
%TO.N,N/C*%
X184150000Y-148650000D03*
%TD*%
D16*
%TO.P,J3,1,Pin_1*%
%TO.N,GND*%
X245660000Y-101700000D03*
D17*
%TO.P,J3,2,Pin_2*%
%TO.N,Analog_In*%
X248200000Y-101700000D03*
%TD*%
D19*
%TO.P,D4,1,K*%
%TO.N,Net-(D4-K)*%
X193400000Y-126440000D03*
D20*
%TO.P,D4,2,A*%
%TO.N,LED2*%
X193400000Y-123900000D03*
%TD*%
M02*
