%TF.GenerationSoftware,KiCad,Pcbnew,8.0.0*%
%TF.CreationDate,2024-05-29T15:57:05+02:00*%
%TF.ProjectId,FIR_filter_G431KB,4649525f-6669-46c7-9465-725f47343331,rev?*%
%TF.SameCoordinates,Original*%
%TF.FileFunction,Drillmap*%
%TF.FilePolarity,Positive*%
%FSLAX45Y45*%
G04 Gerber Fmt 4.5, Leading zero omitted, Abs format (unit mm)*
G04 Created by KiCad (PCBNEW 8.0.0) date 2024-05-29 15:57:05*
%MOMM*%
%LPD*%
G01*
G04 APERTURE LIST*
%ADD10C,0.050000*%
%ADD11C,0.200000*%
%ADD12C,0.100000*%
%ADD13C,0.102000*%
%ADD14C,0.110000*%
%ADD15C,0.530000*%
G04 APERTURE END LIST*
D10*
X17780000Y-9530000D02*
X26670000Y-9530000D01*
X26670000Y-15500000D01*
X17780000Y-15500000D01*
X17780000Y-9530000D01*
D11*
D12*
X18430000Y-10580000D02*
X18510000Y-10660000D01*
X18510000Y-10580000D02*
X18430000Y-10660000D01*
X18430000Y-11596000D02*
X18510000Y-11676000D01*
X18510000Y-11596000D02*
X18430000Y-11676000D01*
X18837000Y-11597000D02*
X18917000Y-11677000D01*
X18917000Y-11597000D02*
X18837000Y-11677000D01*
X18837000Y-12613000D02*
X18917000Y-12693000D01*
X18917000Y-12613000D02*
X18837000Y-12693000D01*
X22472000Y-13616000D02*
X22552000Y-13696000D01*
X22552000Y-13616000D02*
X22472000Y-13696000D01*
X22472000Y-14632000D02*
X22552000Y-14712000D01*
X22552000Y-14632000D02*
X22472000Y-14712000D01*
X22851000Y-13622000D02*
X22931000Y-13702000D01*
X22931000Y-13622000D02*
X22851000Y-13702000D01*
X22851000Y-14384000D02*
X22931000Y-14464000D01*
X22931000Y-14384000D02*
X22851000Y-14464000D01*
X23220000Y-13624000D02*
X23300000Y-13704000D01*
X23300000Y-13624000D02*
X23220000Y-13704000D01*
X23220000Y-14386000D02*
X23300000Y-14466000D01*
X23300000Y-14386000D02*
X23220000Y-14466000D01*
X23610000Y-13624000D02*
X23690000Y-13704000D01*
X23690000Y-13624000D02*
X23610000Y-13704000D01*
X23610000Y-14640000D02*
X23690000Y-14720000D01*
X23690000Y-14640000D02*
X23610000Y-14720000D01*
X24090000Y-11015000D02*
X24170000Y-11095000D01*
X24170000Y-11015000D02*
X24090000Y-11095000D01*
X24090000Y-12031000D02*
X24170000Y-12111000D01*
X24170000Y-12031000D02*
X24090000Y-12111000D01*
X19205000Y-10370000D02*
G75*
G02*
X19115000Y-10370000I-45000J0D01*
G01*
X19115000Y-10370000D02*
G75*
G02*
X19205000Y-10370000I45000J0D01*
G01*
X19205000Y-10624000D02*
G75*
G02*
X19115000Y-10624000I-45000J0D01*
G01*
X19115000Y-10624000D02*
G75*
G02*
X19205000Y-10624000I45000J0D01*
G01*
X19385000Y-12390000D02*
G75*
G02*
X19295000Y-12390000I-45000J0D01*
G01*
X19295000Y-12390000D02*
G75*
G02*
X19385000Y-12390000I45000J0D01*
G01*
X19385000Y-12644000D02*
G75*
G02*
X19295000Y-12644000I-45000J0D01*
G01*
X19295000Y-12644000D02*
G75*
G02*
X19385000Y-12644000I45000J0D01*
G01*
X18430000Y-12300000D02*
X18430000Y-12400000D01*
X18380000Y-12350000D02*
X18480000Y-12350000D01*
X18430000Y-12554000D02*
X18430000Y-12654000D01*
X18380000Y-12604000D02*
X18480000Y-12604000D01*
X19345000Y-13630000D02*
X19345000Y-13730000D01*
X19295000Y-13680000D02*
X19395000Y-13680000D01*
X19345000Y-13884000D02*
X19345000Y-13984000D01*
X19295000Y-13934000D02*
X19395000Y-13934000D01*
X19345000Y-14138000D02*
X19345000Y-14238000D01*
X19295000Y-14188000D02*
X19395000Y-14188000D01*
X22562000Y-10140000D02*
X22562000Y-10240000D01*
X22512000Y-10190000D02*
X22612000Y-10190000D01*
X22816000Y-10140000D02*
X22816000Y-10240000D01*
X22766000Y-10190000D02*
X22866000Y-10190000D01*
X23070000Y-10140000D02*
X23070000Y-10240000D01*
X23020000Y-10190000D02*
X23120000Y-10190000D01*
X24566000Y-10120000D02*
X24566000Y-10220000D01*
X24516000Y-10170000D02*
X24616000Y-10170000D01*
X24820000Y-10120000D02*
X24820000Y-10220000D01*
X24770000Y-10170000D02*
X24870000Y-10170000D01*
X26020000Y-13500000D02*
X26020000Y-13600000D01*
X25970000Y-13550000D02*
X26070000Y-13550000D01*
X26020000Y-13754000D02*
X26020000Y-13854000D01*
X25970000Y-13804000D02*
X26070000Y-13804000D01*
D13*
X20042063Y-10906063D02*
X20042063Y-10833937D01*
X19969937Y-10833937D01*
X19969937Y-10906063D01*
X20042063Y-10906063D01*
X20042063Y-11160063D02*
X20042063Y-11087937D01*
X19969937Y-11087937D01*
X19969937Y-11160063D01*
X20042063Y-11160063D01*
X20042063Y-11414063D02*
X20042063Y-11341937D01*
X19969937Y-11341937D01*
X19969937Y-11414063D01*
X20042063Y-11414063D01*
X20042063Y-11668063D02*
X20042063Y-11595937D01*
X19969937Y-11595937D01*
X19969937Y-11668063D01*
X20042063Y-11668063D01*
X20042063Y-11922063D02*
X20042063Y-11849937D01*
X19969937Y-11849937D01*
X19969937Y-11922063D01*
X20042063Y-11922063D01*
X20042063Y-12176063D02*
X20042063Y-12103937D01*
X19969937Y-12103937D01*
X19969937Y-12176063D01*
X20042063Y-12176063D01*
X20042063Y-12430063D02*
X20042063Y-12357937D01*
X19969937Y-12357937D01*
X19969937Y-12430063D01*
X20042063Y-12430063D01*
X20042063Y-12684063D02*
X20042063Y-12611937D01*
X19969937Y-12611937D01*
X19969937Y-12684063D01*
X20042063Y-12684063D01*
X20042063Y-12938063D02*
X20042063Y-12865937D01*
X19969937Y-12865937D01*
X19969937Y-12938063D01*
X20042063Y-12938063D01*
X20042063Y-13192063D02*
X20042063Y-13119937D01*
X19969937Y-13119937D01*
X19969937Y-13192063D01*
X20042063Y-13192063D01*
X20042063Y-13446063D02*
X20042063Y-13373937D01*
X19969937Y-13373937D01*
X19969937Y-13446063D01*
X20042063Y-13446063D01*
X20042063Y-13700063D02*
X20042063Y-13627937D01*
X19969937Y-13627937D01*
X19969937Y-13700063D01*
X20042063Y-13700063D01*
X20042063Y-13954063D02*
X20042063Y-13881937D01*
X19969937Y-13881937D01*
X19969937Y-13954063D01*
X20042063Y-13954063D01*
X20042063Y-14208063D02*
X20042063Y-14135937D01*
X19969937Y-14135937D01*
X19969937Y-14208063D01*
X20042063Y-14208063D01*
X20042063Y-14462063D02*
X20042063Y-14389937D01*
X19969937Y-14389937D01*
X19969937Y-14462063D01*
X20042063Y-14462063D01*
X21566063Y-10906063D02*
X21566063Y-10833937D01*
X21493937Y-10833937D01*
X21493937Y-10906063D01*
X21566063Y-10906063D01*
X21566063Y-11160063D02*
X21566063Y-11087937D01*
X21493937Y-11087937D01*
X21493937Y-11160063D01*
X21566063Y-11160063D01*
X21566063Y-11414063D02*
X21566063Y-11341937D01*
X21493937Y-11341937D01*
X21493937Y-11414063D01*
X21566063Y-11414063D01*
X21566063Y-11668063D02*
X21566063Y-11595937D01*
X21493937Y-11595937D01*
X21493937Y-11668063D01*
X21566063Y-11668063D01*
X21566063Y-11922063D02*
X21566063Y-11849937D01*
X21493937Y-11849937D01*
X21493937Y-11922063D01*
X21566063Y-11922063D01*
X21566063Y-12176063D02*
X21566063Y-12103937D01*
X21493937Y-12103937D01*
X21493937Y-12176063D01*
X21566063Y-12176063D01*
X21566063Y-12430063D02*
X21566063Y-12357937D01*
X21493937Y-12357937D01*
X21493937Y-12430063D01*
X21566063Y-12430063D01*
X21566063Y-12684063D02*
X21566063Y-12611937D01*
X21493937Y-12611937D01*
X21493937Y-12684063D01*
X21566063Y-12684063D01*
X21566063Y-12938063D02*
X21566063Y-12865937D01*
X21493937Y-12865937D01*
X21493937Y-12938063D01*
X21566063Y-12938063D01*
X21566063Y-13192063D02*
X21566063Y-13119937D01*
X21493937Y-13119937D01*
X21493937Y-13192063D01*
X21566063Y-13192063D01*
X21566063Y-13446063D02*
X21566063Y-13373937D01*
X21493937Y-13373937D01*
X21493937Y-13446063D01*
X21566063Y-13446063D01*
X21566063Y-13700063D02*
X21566063Y-13627937D01*
X21493937Y-13627937D01*
X21493937Y-13700063D01*
X21566063Y-13700063D01*
X21566063Y-13954063D02*
X21566063Y-13881937D01*
X21493937Y-13881937D01*
X21493937Y-13954063D01*
X21566063Y-13954063D01*
X21566063Y-14208063D02*
X21566063Y-14135937D01*
X21493937Y-14135937D01*
X21493937Y-14208063D01*
X21566063Y-14208063D01*
X21566063Y-14462063D02*
X21566063Y-14389937D01*
X21493937Y-14389937D01*
X21493937Y-14462063D01*
X21566063Y-14462063D01*
D14*
X22630000Y-12765000D02*
X22685000Y-12710000D01*
X22630000Y-12655000D01*
X22575000Y-12710000D01*
X22630000Y-12765000D01*
X24130000Y-12765000D02*
X24185000Y-12710000D01*
X24130000Y-12655000D01*
X24075000Y-12710000D01*
X24130000Y-12765000D01*
X24820000Y-12210000D02*
X24875000Y-12155000D01*
X24820000Y-12100000D01*
X24765000Y-12155000D01*
X24820000Y-12210000D01*
X24820000Y-13710000D02*
X24875000Y-13655000D01*
X24820000Y-13600000D01*
X24765000Y-13655000D01*
X24820000Y-13710000D01*
D15*
X18150000Y-14600000D02*
X18680000Y-15130000D01*
X18680000Y-14600000D02*
X18150000Y-15130000D01*
X18680000Y-14865000D02*
G75*
G02*
X18150000Y-14865000I-265000J0D01*
G01*
X18150000Y-14865000D02*
G75*
G02*
X18680000Y-14865000I265000J0D01*
G01*
X25770000Y-9965000D02*
X26300000Y-10495000D01*
X26300000Y-9965000D02*
X25770000Y-10495000D01*
X26300000Y-10230000D02*
G75*
G02*
X25770000Y-10230000I-265000J0D01*
G01*
X25770000Y-10230000D02*
G75*
G02*
X26300000Y-10230000I265000J0D01*
G01*
X25770000Y-14535000D02*
X26300000Y-15065000D01*
X26300000Y-14535000D02*
X25770000Y-15065000D01*
X26300000Y-14800000D02*
G75*
G02*
X25770000Y-14800000I-265000J0D01*
G01*
X25770000Y-14800000D02*
G75*
G02*
X26300000Y-14800000I265000J0D01*
G01*
D11*
X18038277Y-15813984D02*
X18038277Y-15613984D01*
X18038277Y-15613984D02*
X18085896Y-15613984D01*
X18085896Y-15613984D02*
X18114467Y-15623508D01*
X18114467Y-15623508D02*
X18133515Y-15642555D01*
X18133515Y-15642555D02*
X18143039Y-15661603D01*
X18143039Y-15661603D02*
X18152563Y-15699698D01*
X18152563Y-15699698D02*
X18152563Y-15728269D01*
X18152563Y-15728269D02*
X18143039Y-15766365D01*
X18143039Y-15766365D02*
X18133515Y-15785412D01*
X18133515Y-15785412D02*
X18114467Y-15804460D01*
X18114467Y-15804460D02*
X18085896Y-15813984D01*
X18085896Y-15813984D02*
X18038277Y-15813984D01*
X18238277Y-15813984D02*
X18238277Y-15680650D01*
X18238277Y-15718746D02*
X18247801Y-15699698D01*
X18247801Y-15699698D02*
X18257324Y-15690174D01*
X18257324Y-15690174D02*
X18276372Y-15680650D01*
X18276372Y-15680650D02*
X18295420Y-15680650D01*
X18362086Y-15813984D02*
X18362086Y-15680650D01*
X18362086Y-15613984D02*
X18352563Y-15623508D01*
X18352563Y-15623508D02*
X18362086Y-15633031D01*
X18362086Y-15633031D02*
X18371610Y-15623508D01*
X18371610Y-15623508D02*
X18362086Y-15613984D01*
X18362086Y-15613984D02*
X18362086Y-15633031D01*
X18485896Y-15813984D02*
X18466848Y-15804460D01*
X18466848Y-15804460D02*
X18457324Y-15785412D01*
X18457324Y-15785412D02*
X18457324Y-15613984D01*
X18590658Y-15813984D02*
X18571610Y-15804460D01*
X18571610Y-15804460D02*
X18562086Y-15785412D01*
X18562086Y-15785412D02*
X18562086Y-15613984D01*
X18819229Y-15813984D02*
X18819229Y-15613984D01*
X18819229Y-15613984D02*
X18885896Y-15756841D01*
X18885896Y-15756841D02*
X18952563Y-15613984D01*
X18952563Y-15613984D02*
X18952563Y-15813984D01*
X19133515Y-15813984D02*
X19133515Y-15709222D01*
X19133515Y-15709222D02*
X19123991Y-15690174D01*
X19123991Y-15690174D02*
X19104944Y-15680650D01*
X19104944Y-15680650D02*
X19066848Y-15680650D01*
X19066848Y-15680650D02*
X19047801Y-15690174D01*
X19133515Y-15804460D02*
X19114467Y-15813984D01*
X19114467Y-15813984D02*
X19066848Y-15813984D01*
X19066848Y-15813984D02*
X19047801Y-15804460D01*
X19047801Y-15804460D02*
X19038277Y-15785412D01*
X19038277Y-15785412D02*
X19038277Y-15766365D01*
X19038277Y-15766365D02*
X19047801Y-15747317D01*
X19047801Y-15747317D02*
X19066848Y-15737793D01*
X19066848Y-15737793D02*
X19114467Y-15737793D01*
X19114467Y-15737793D02*
X19133515Y-15728269D01*
X19228753Y-15680650D02*
X19228753Y-15880650D01*
X19228753Y-15690174D02*
X19247801Y-15680650D01*
X19247801Y-15680650D02*
X19285896Y-15680650D01*
X19285896Y-15680650D02*
X19304944Y-15690174D01*
X19304944Y-15690174D02*
X19314467Y-15699698D01*
X19314467Y-15699698D02*
X19323991Y-15718746D01*
X19323991Y-15718746D02*
X19323991Y-15775888D01*
X19323991Y-15775888D02*
X19314467Y-15794936D01*
X19314467Y-15794936D02*
X19304944Y-15804460D01*
X19304944Y-15804460D02*
X19285896Y-15813984D01*
X19285896Y-15813984D02*
X19247801Y-15813984D01*
X19247801Y-15813984D02*
X19228753Y-15804460D01*
X19409705Y-15794936D02*
X19419229Y-15804460D01*
X19419229Y-15804460D02*
X19409705Y-15813984D01*
X19409705Y-15813984D02*
X19400182Y-15804460D01*
X19400182Y-15804460D02*
X19409705Y-15794936D01*
X19409705Y-15794936D02*
X19409705Y-15813984D01*
X19409705Y-15690174D02*
X19419229Y-15699698D01*
X19419229Y-15699698D02*
X19409705Y-15709222D01*
X19409705Y-15709222D02*
X19400182Y-15699698D01*
X19400182Y-15699698D02*
X19409705Y-15690174D01*
X19409705Y-15690174D02*
X19409705Y-15709222D01*
D12*
X17697500Y-16102500D02*
X17777500Y-16182500D01*
X17777500Y-16102500D02*
X17697500Y-16182500D01*
D11*
X18076372Y-16033984D02*
X18095420Y-16033984D01*
X18095420Y-16033984D02*
X18114467Y-16043508D01*
X18114467Y-16043508D02*
X18123991Y-16053031D01*
X18123991Y-16053031D02*
X18133515Y-16072079D01*
X18133515Y-16072079D02*
X18143039Y-16110174D01*
X18143039Y-16110174D02*
X18143039Y-16157793D01*
X18143039Y-16157793D02*
X18133515Y-16195888D01*
X18133515Y-16195888D02*
X18123991Y-16214936D01*
X18123991Y-16214936D02*
X18114467Y-16224460D01*
X18114467Y-16224460D02*
X18095420Y-16233984D01*
X18095420Y-16233984D02*
X18076372Y-16233984D01*
X18076372Y-16233984D02*
X18057324Y-16224460D01*
X18057324Y-16224460D02*
X18047801Y-16214936D01*
X18047801Y-16214936D02*
X18038277Y-16195888D01*
X18038277Y-16195888D02*
X18028753Y-16157793D01*
X18028753Y-16157793D02*
X18028753Y-16110174D01*
X18028753Y-16110174D02*
X18038277Y-16072079D01*
X18038277Y-16072079D02*
X18047801Y-16053031D01*
X18047801Y-16053031D02*
X18057324Y-16043508D01*
X18057324Y-16043508D02*
X18076372Y-16033984D01*
X18228753Y-16214936D02*
X18238277Y-16224460D01*
X18238277Y-16224460D02*
X18228753Y-16233984D01*
X18228753Y-16233984D02*
X18219229Y-16224460D01*
X18219229Y-16224460D02*
X18228753Y-16214936D01*
X18228753Y-16214936D02*
X18228753Y-16233984D01*
X18352563Y-16119698D02*
X18333515Y-16110174D01*
X18333515Y-16110174D02*
X18323991Y-16100650D01*
X18323991Y-16100650D02*
X18314467Y-16081603D01*
X18314467Y-16081603D02*
X18314467Y-16072079D01*
X18314467Y-16072079D02*
X18323991Y-16053031D01*
X18323991Y-16053031D02*
X18333515Y-16043508D01*
X18333515Y-16043508D02*
X18352563Y-16033984D01*
X18352563Y-16033984D02*
X18390658Y-16033984D01*
X18390658Y-16033984D02*
X18409705Y-16043508D01*
X18409705Y-16043508D02*
X18419229Y-16053031D01*
X18419229Y-16053031D02*
X18428753Y-16072079D01*
X18428753Y-16072079D02*
X18428753Y-16081603D01*
X18428753Y-16081603D02*
X18419229Y-16100650D01*
X18419229Y-16100650D02*
X18409705Y-16110174D01*
X18409705Y-16110174D02*
X18390658Y-16119698D01*
X18390658Y-16119698D02*
X18352563Y-16119698D01*
X18352563Y-16119698D02*
X18333515Y-16129222D01*
X18333515Y-16129222D02*
X18323991Y-16138746D01*
X18323991Y-16138746D02*
X18314467Y-16157793D01*
X18314467Y-16157793D02*
X18314467Y-16195888D01*
X18314467Y-16195888D02*
X18323991Y-16214936D01*
X18323991Y-16214936D02*
X18333515Y-16224460D01*
X18333515Y-16224460D02*
X18352563Y-16233984D01*
X18352563Y-16233984D02*
X18390658Y-16233984D01*
X18390658Y-16233984D02*
X18409705Y-16224460D01*
X18409705Y-16224460D02*
X18419229Y-16214936D01*
X18419229Y-16214936D02*
X18428753Y-16195888D01*
X18428753Y-16195888D02*
X18428753Y-16157793D01*
X18428753Y-16157793D02*
X18419229Y-16138746D01*
X18419229Y-16138746D02*
X18409705Y-16129222D01*
X18409705Y-16129222D02*
X18390658Y-16119698D01*
X18552563Y-16033984D02*
X18571610Y-16033984D01*
X18571610Y-16033984D02*
X18590658Y-16043508D01*
X18590658Y-16043508D02*
X18600182Y-16053031D01*
X18600182Y-16053031D02*
X18609705Y-16072079D01*
X18609705Y-16072079D02*
X18619229Y-16110174D01*
X18619229Y-16110174D02*
X18619229Y-16157793D01*
X18619229Y-16157793D02*
X18609705Y-16195888D01*
X18609705Y-16195888D02*
X18600182Y-16214936D01*
X18600182Y-16214936D02*
X18590658Y-16224460D01*
X18590658Y-16224460D02*
X18571610Y-16233984D01*
X18571610Y-16233984D02*
X18552563Y-16233984D01*
X18552563Y-16233984D02*
X18533515Y-16224460D01*
X18533515Y-16224460D02*
X18523991Y-16214936D01*
X18523991Y-16214936D02*
X18514467Y-16195888D01*
X18514467Y-16195888D02*
X18504944Y-16157793D01*
X18504944Y-16157793D02*
X18504944Y-16110174D01*
X18504944Y-16110174D02*
X18514467Y-16072079D01*
X18514467Y-16072079D02*
X18523991Y-16053031D01*
X18523991Y-16053031D02*
X18533515Y-16043508D01*
X18533515Y-16043508D02*
X18552563Y-16033984D01*
X18743039Y-16033984D02*
X18762086Y-16033984D01*
X18762086Y-16033984D02*
X18781134Y-16043508D01*
X18781134Y-16043508D02*
X18790658Y-16053031D01*
X18790658Y-16053031D02*
X18800182Y-16072079D01*
X18800182Y-16072079D02*
X18809705Y-16110174D01*
X18809705Y-16110174D02*
X18809705Y-16157793D01*
X18809705Y-16157793D02*
X18800182Y-16195888D01*
X18800182Y-16195888D02*
X18790658Y-16214936D01*
X18790658Y-16214936D02*
X18781134Y-16224460D01*
X18781134Y-16224460D02*
X18762086Y-16233984D01*
X18762086Y-16233984D02*
X18743039Y-16233984D01*
X18743039Y-16233984D02*
X18723991Y-16224460D01*
X18723991Y-16224460D02*
X18714467Y-16214936D01*
X18714467Y-16214936D02*
X18704944Y-16195888D01*
X18704944Y-16195888D02*
X18695420Y-16157793D01*
X18695420Y-16157793D02*
X18695420Y-16110174D01*
X18695420Y-16110174D02*
X18704944Y-16072079D01*
X18704944Y-16072079D02*
X18714467Y-16053031D01*
X18714467Y-16053031D02*
X18723991Y-16043508D01*
X18723991Y-16043508D02*
X18743039Y-16033984D01*
X18895420Y-16233984D02*
X18895420Y-16100650D01*
X18895420Y-16119698D02*
X18904944Y-16110174D01*
X18904944Y-16110174D02*
X18923991Y-16100650D01*
X18923991Y-16100650D02*
X18952563Y-16100650D01*
X18952563Y-16100650D02*
X18971610Y-16110174D01*
X18971610Y-16110174D02*
X18981134Y-16129222D01*
X18981134Y-16129222D02*
X18981134Y-16233984D01*
X18981134Y-16129222D02*
X18990658Y-16110174D01*
X18990658Y-16110174D02*
X19009705Y-16100650D01*
X19009705Y-16100650D02*
X19038277Y-16100650D01*
X19038277Y-16100650D02*
X19057325Y-16110174D01*
X19057325Y-16110174D02*
X19066848Y-16129222D01*
X19066848Y-16129222D02*
X19066848Y-16233984D01*
X19162086Y-16233984D02*
X19162086Y-16100650D01*
X19162086Y-16119698D02*
X19171610Y-16110174D01*
X19171610Y-16110174D02*
X19190658Y-16100650D01*
X19190658Y-16100650D02*
X19219229Y-16100650D01*
X19219229Y-16100650D02*
X19238277Y-16110174D01*
X19238277Y-16110174D02*
X19247801Y-16129222D01*
X19247801Y-16129222D02*
X19247801Y-16233984D01*
X19247801Y-16129222D02*
X19257325Y-16110174D01*
X19257325Y-16110174D02*
X19276372Y-16100650D01*
X19276372Y-16100650D02*
X19304944Y-16100650D01*
X19304944Y-16100650D02*
X19323991Y-16110174D01*
X19323991Y-16110174D02*
X19333515Y-16129222D01*
X19333515Y-16129222D02*
X19333515Y-16233984D01*
X19723991Y-16024460D02*
X19552563Y-16281603D01*
X19981134Y-16033984D02*
X20000182Y-16033984D01*
X20000182Y-16033984D02*
X20019229Y-16043508D01*
X20019229Y-16043508D02*
X20028753Y-16053031D01*
X20028753Y-16053031D02*
X20038277Y-16072079D01*
X20038277Y-16072079D02*
X20047801Y-16110174D01*
X20047801Y-16110174D02*
X20047801Y-16157793D01*
X20047801Y-16157793D02*
X20038277Y-16195888D01*
X20038277Y-16195888D02*
X20028753Y-16214936D01*
X20028753Y-16214936D02*
X20019229Y-16224460D01*
X20019229Y-16224460D02*
X20000182Y-16233984D01*
X20000182Y-16233984D02*
X19981134Y-16233984D01*
X19981134Y-16233984D02*
X19962087Y-16224460D01*
X19962087Y-16224460D02*
X19952563Y-16214936D01*
X19952563Y-16214936D02*
X19943039Y-16195888D01*
X19943039Y-16195888D02*
X19933515Y-16157793D01*
X19933515Y-16157793D02*
X19933515Y-16110174D01*
X19933515Y-16110174D02*
X19943039Y-16072079D01*
X19943039Y-16072079D02*
X19952563Y-16053031D01*
X19952563Y-16053031D02*
X19962087Y-16043508D01*
X19962087Y-16043508D02*
X19981134Y-16033984D01*
X20133515Y-16214936D02*
X20143039Y-16224460D01*
X20143039Y-16224460D02*
X20133515Y-16233984D01*
X20133515Y-16233984D02*
X20123991Y-16224460D01*
X20123991Y-16224460D02*
X20133515Y-16214936D01*
X20133515Y-16214936D02*
X20133515Y-16233984D01*
X20266848Y-16033984D02*
X20285896Y-16033984D01*
X20285896Y-16033984D02*
X20304944Y-16043508D01*
X20304944Y-16043508D02*
X20314468Y-16053031D01*
X20314468Y-16053031D02*
X20323991Y-16072079D01*
X20323991Y-16072079D02*
X20333515Y-16110174D01*
X20333515Y-16110174D02*
X20333515Y-16157793D01*
X20333515Y-16157793D02*
X20323991Y-16195888D01*
X20323991Y-16195888D02*
X20314468Y-16214936D01*
X20314468Y-16214936D02*
X20304944Y-16224460D01*
X20304944Y-16224460D02*
X20285896Y-16233984D01*
X20285896Y-16233984D02*
X20266848Y-16233984D01*
X20266848Y-16233984D02*
X20247801Y-16224460D01*
X20247801Y-16224460D02*
X20238277Y-16214936D01*
X20238277Y-16214936D02*
X20228753Y-16195888D01*
X20228753Y-16195888D02*
X20219229Y-16157793D01*
X20219229Y-16157793D02*
X20219229Y-16110174D01*
X20219229Y-16110174D02*
X20228753Y-16072079D01*
X20228753Y-16072079D02*
X20238277Y-16053031D01*
X20238277Y-16053031D02*
X20247801Y-16043508D01*
X20247801Y-16043508D02*
X20266848Y-16033984D01*
X20400182Y-16033984D02*
X20523991Y-16033984D01*
X20523991Y-16033984D02*
X20457325Y-16110174D01*
X20457325Y-16110174D02*
X20485896Y-16110174D01*
X20485896Y-16110174D02*
X20504944Y-16119698D01*
X20504944Y-16119698D02*
X20514468Y-16129222D01*
X20514468Y-16129222D02*
X20523991Y-16148269D01*
X20523991Y-16148269D02*
X20523991Y-16195888D01*
X20523991Y-16195888D02*
X20514468Y-16214936D01*
X20514468Y-16214936D02*
X20504944Y-16224460D01*
X20504944Y-16224460D02*
X20485896Y-16233984D01*
X20485896Y-16233984D02*
X20428753Y-16233984D01*
X20428753Y-16233984D02*
X20409706Y-16224460D01*
X20409706Y-16224460D02*
X20400182Y-16214936D01*
X20714468Y-16233984D02*
X20600182Y-16233984D01*
X20657325Y-16233984D02*
X20657325Y-16033984D01*
X20657325Y-16033984D02*
X20638277Y-16062555D01*
X20638277Y-16062555D02*
X20619229Y-16081603D01*
X20619229Y-16081603D02*
X20600182Y-16091127D01*
X20895420Y-16033984D02*
X20800182Y-16033984D01*
X20800182Y-16033984D02*
X20790658Y-16129222D01*
X20790658Y-16129222D02*
X20800182Y-16119698D01*
X20800182Y-16119698D02*
X20819229Y-16110174D01*
X20819229Y-16110174D02*
X20866849Y-16110174D01*
X20866849Y-16110174D02*
X20885896Y-16119698D01*
X20885896Y-16119698D02*
X20895420Y-16129222D01*
X20895420Y-16129222D02*
X20904944Y-16148269D01*
X20904944Y-16148269D02*
X20904944Y-16195888D01*
X20904944Y-16195888D02*
X20895420Y-16214936D01*
X20895420Y-16214936D02*
X20885896Y-16224460D01*
X20885896Y-16224460D02*
X20866849Y-16233984D01*
X20866849Y-16233984D02*
X20819229Y-16233984D01*
X20819229Y-16233984D02*
X20800182Y-16224460D01*
X20800182Y-16224460D02*
X20790658Y-16214936D01*
X20981134Y-16033984D02*
X20981134Y-16072079D01*
X21057325Y-16033984D02*
X21057325Y-16072079D01*
X21352563Y-16310174D02*
X21343039Y-16300650D01*
X21343039Y-16300650D02*
X21323991Y-16272079D01*
X21323991Y-16272079D02*
X21314468Y-16253031D01*
X21314468Y-16253031D02*
X21304944Y-16224460D01*
X21304944Y-16224460D02*
X21295420Y-16176841D01*
X21295420Y-16176841D02*
X21295420Y-16138746D01*
X21295420Y-16138746D02*
X21304944Y-16091127D01*
X21304944Y-16091127D02*
X21314468Y-16062555D01*
X21314468Y-16062555D02*
X21323991Y-16043508D01*
X21323991Y-16043508D02*
X21343039Y-16014936D01*
X21343039Y-16014936D02*
X21352563Y-16005412D01*
X21533515Y-16233984D02*
X21419230Y-16233984D01*
X21476372Y-16233984D02*
X21476372Y-16033984D01*
X21476372Y-16033984D02*
X21457325Y-16062555D01*
X21457325Y-16062555D02*
X21438277Y-16081603D01*
X21438277Y-16081603D02*
X21419230Y-16091127D01*
X21704944Y-16100650D02*
X21704944Y-16233984D01*
X21657325Y-16024460D02*
X21609706Y-16167317D01*
X21609706Y-16167317D02*
X21733515Y-16167317D01*
X21962087Y-16233984D02*
X21962087Y-16033984D01*
X22047801Y-16233984D02*
X22047801Y-16129222D01*
X22047801Y-16129222D02*
X22038277Y-16110174D01*
X22038277Y-16110174D02*
X22019230Y-16100650D01*
X22019230Y-16100650D02*
X21990658Y-16100650D01*
X21990658Y-16100650D02*
X21971611Y-16110174D01*
X21971611Y-16110174D02*
X21962087Y-16119698D01*
X22171611Y-16233984D02*
X22152563Y-16224460D01*
X22152563Y-16224460D02*
X22143039Y-16214936D01*
X22143039Y-16214936D02*
X22133515Y-16195888D01*
X22133515Y-16195888D02*
X22133515Y-16138746D01*
X22133515Y-16138746D02*
X22143039Y-16119698D01*
X22143039Y-16119698D02*
X22152563Y-16110174D01*
X22152563Y-16110174D02*
X22171611Y-16100650D01*
X22171611Y-16100650D02*
X22200182Y-16100650D01*
X22200182Y-16100650D02*
X22219230Y-16110174D01*
X22219230Y-16110174D02*
X22228753Y-16119698D01*
X22228753Y-16119698D02*
X22238277Y-16138746D01*
X22238277Y-16138746D02*
X22238277Y-16195888D01*
X22238277Y-16195888D02*
X22228753Y-16214936D01*
X22228753Y-16214936D02*
X22219230Y-16224460D01*
X22219230Y-16224460D02*
X22200182Y-16233984D01*
X22200182Y-16233984D02*
X22171611Y-16233984D01*
X22352563Y-16233984D02*
X22333515Y-16224460D01*
X22333515Y-16224460D02*
X22323992Y-16205412D01*
X22323992Y-16205412D02*
X22323992Y-16033984D01*
X22504944Y-16224460D02*
X22485896Y-16233984D01*
X22485896Y-16233984D02*
X22447801Y-16233984D01*
X22447801Y-16233984D02*
X22428753Y-16224460D01*
X22428753Y-16224460D02*
X22419230Y-16205412D01*
X22419230Y-16205412D02*
X22419230Y-16129222D01*
X22419230Y-16129222D02*
X22428753Y-16110174D01*
X22428753Y-16110174D02*
X22447801Y-16100650D01*
X22447801Y-16100650D02*
X22485896Y-16100650D01*
X22485896Y-16100650D02*
X22504944Y-16110174D01*
X22504944Y-16110174D02*
X22514468Y-16129222D01*
X22514468Y-16129222D02*
X22514468Y-16148269D01*
X22514468Y-16148269D02*
X22419230Y-16167317D01*
X22590658Y-16224460D02*
X22609706Y-16233984D01*
X22609706Y-16233984D02*
X22647801Y-16233984D01*
X22647801Y-16233984D02*
X22666849Y-16224460D01*
X22666849Y-16224460D02*
X22676372Y-16205412D01*
X22676372Y-16205412D02*
X22676372Y-16195888D01*
X22676372Y-16195888D02*
X22666849Y-16176841D01*
X22666849Y-16176841D02*
X22647801Y-16167317D01*
X22647801Y-16167317D02*
X22619230Y-16167317D01*
X22619230Y-16167317D02*
X22600182Y-16157793D01*
X22600182Y-16157793D02*
X22590658Y-16138746D01*
X22590658Y-16138746D02*
X22590658Y-16129222D01*
X22590658Y-16129222D02*
X22600182Y-16110174D01*
X22600182Y-16110174D02*
X22619230Y-16100650D01*
X22619230Y-16100650D02*
X22647801Y-16100650D01*
X22647801Y-16100650D02*
X22666849Y-16110174D01*
X22743039Y-16310174D02*
X22752563Y-16300650D01*
X22752563Y-16300650D02*
X22771611Y-16272079D01*
X22771611Y-16272079D02*
X22781134Y-16253031D01*
X22781134Y-16253031D02*
X22790658Y-16224460D01*
X22790658Y-16224460D02*
X22800182Y-16176841D01*
X22800182Y-16176841D02*
X22800182Y-16138746D01*
X22800182Y-16138746D02*
X22790658Y-16091127D01*
X22790658Y-16091127D02*
X22781134Y-16062555D01*
X22781134Y-16062555D02*
X22771611Y-16043508D01*
X22771611Y-16043508D02*
X22752563Y-16014936D01*
X22752563Y-16014936D02*
X22743039Y-16005412D01*
D12*
X17777500Y-16406500D02*
G75*
G02*
X17687500Y-16406500I-45000J0D01*
G01*
X17687500Y-16406500D02*
G75*
G02*
X17777500Y-16406500I45000J0D01*
G01*
D11*
X18076372Y-16297984D02*
X18095420Y-16297984D01*
X18095420Y-16297984D02*
X18114467Y-16307508D01*
X18114467Y-16307508D02*
X18123991Y-16317031D01*
X18123991Y-16317031D02*
X18133515Y-16336079D01*
X18133515Y-16336079D02*
X18143039Y-16374174D01*
X18143039Y-16374174D02*
X18143039Y-16421793D01*
X18143039Y-16421793D02*
X18133515Y-16459888D01*
X18133515Y-16459888D02*
X18123991Y-16478936D01*
X18123991Y-16478936D02*
X18114467Y-16488460D01*
X18114467Y-16488460D02*
X18095420Y-16497984D01*
X18095420Y-16497984D02*
X18076372Y-16497984D01*
X18076372Y-16497984D02*
X18057324Y-16488460D01*
X18057324Y-16488460D02*
X18047801Y-16478936D01*
X18047801Y-16478936D02*
X18038277Y-16459888D01*
X18038277Y-16459888D02*
X18028753Y-16421793D01*
X18028753Y-16421793D02*
X18028753Y-16374174D01*
X18028753Y-16374174D02*
X18038277Y-16336079D01*
X18038277Y-16336079D02*
X18047801Y-16317031D01*
X18047801Y-16317031D02*
X18057324Y-16307508D01*
X18057324Y-16307508D02*
X18076372Y-16297984D01*
X18228753Y-16478936D02*
X18238277Y-16488460D01*
X18238277Y-16488460D02*
X18228753Y-16497984D01*
X18228753Y-16497984D02*
X18219229Y-16488460D01*
X18219229Y-16488460D02*
X18228753Y-16478936D01*
X18228753Y-16478936D02*
X18228753Y-16497984D01*
X18333515Y-16497984D02*
X18371610Y-16497984D01*
X18371610Y-16497984D02*
X18390658Y-16488460D01*
X18390658Y-16488460D02*
X18400182Y-16478936D01*
X18400182Y-16478936D02*
X18419229Y-16450365D01*
X18419229Y-16450365D02*
X18428753Y-16412269D01*
X18428753Y-16412269D02*
X18428753Y-16336079D01*
X18428753Y-16336079D02*
X18419229Y-16317031D01*
X18419229Y-16317031D02*
X18409705Y-16307508D01*
X18409705Y-16307508D02*
X18390658Y-16297984D01*
X18390658Y-16297984D02*
X18352563Y-16297984D01*
X18352563Y-16297984D02*
X18333515Y-16307508D01*
X18333515Y-16307508D02*
X18323991Y-16317031D01*
X18323991Y-16317031D02*
X18314467Y-16336079D01*
X18314467Y-16336079D02*
X18314467Y-16383698D01*
X18314467Y-16383698D02*
X18323991Y-16402746D01*
X18323991Y-16402746D02*
X18333515Y-16412269D01*
X18333515Y-16412269D02*
X18352563Y-16421793D01*
X18352563Y-16421793D02*
X18390658Y-16421793D01*
X18390658Y-16421793D02*
X18409705Y-16412269D01*
X18409705Y-16412269D02*
X18419229Y-16402746D01*
X18419229Y-16402746D02*
X18428753Y-16383698D01*
X18552563Y-16297984D02*
X18571610Y-16297984D01*
X18571610Y-16297984D02*
X18590658Y-16307508D01*
X18590658Y-16307508D02*
X18600182Y-16317031D01*
X18600182Y-16317031D02*
X18609705Y-16336079D01*
X18609705Y-16336079D02*
X18619229Y-16374174D01*
X18619229Y-16374174D02*
X18619229Y-16421793D01*
X18619229Y-16421793D02*
X18609705Y-16459888D01*
X18609705Y-16459888D02*
X18600182Y-16478936D01*
X18600182Y-16478936D02*
X18590658Y-16488460D01*
X18590658Y-16488460D02*
X18571610Y-16497984D01*
X18571610Y-16497984D02*
X18552563Y-16497984D01*
X18552563Y-16497984D02*
X18533515Y-16488460D01*
X18533515Y-16488460D02*
X18523991Y-16478936D01*
X18523991Y-16478936D02*
X18514467Y-16459888D01*
X18514467Y-16459888D02*
X18504944Y-16421793D01*
X18504944Y-16421793D02*
X18504944Y-16374174D01*
X18504944Y-16374174D02*
X18514467Y-16336079D01*
X18514467Y-16336079D02*
X18523991Y-16317031D01*
X18523991Y-16317031D02*
X18533515Y-16307508D01*
X18533515Y-16307508D02*
X18552563Y-16297984D01*
X18743039Y-16297984D02*
X18762086Y-16297984D01*
X18762086Y-16297984D02*
X18781134Y-16307508D01*
X18781134Y-16307508D02*
X18790658Y-16317031D01*
X18790658Y-16317031D02*
X18800182Y-16336079D01*
X18800182Y-16336079D02*
X18809705Y-16374174D01*
X18809705Y-16374174D02*
X18809705Y-16421793D01*
X18809705Y-16421793D02*
X18800182Y-16459888D01*
X18800182Y-16459888D02*
X18790658Y-16478936D01*
X18790658Y-16478936D02*
X18781134Y-16488460D01*
X18781134Y-16488460D02*
X18762086Y-16497984D01*
X18762086Y-16497984D02*
X18743039Y-16497984D01*
X18743039Y-16497984D02*
X18723991Y-16488460D01*
X18723991Y-16488460D02*
X18714467Y-16478936D01*
X18714467Y-16478936D02*
X18704944Y-16459888D01*
X18704944Y-16459888D02*
X18695420Y-16421793D01*
X18695420Y-16421793D02*
X18695420Y-16374174D01*
X18695420Y-16374174D02*
X18704944Y-16336079D01*
X18704944Y-16336079D02*
X18714467Y-16317031D01*
X18714467Y-16317031D02*
X18723991Y-16307508D01*
X18723991Y-16307508D02*
X18743039Y-16297984D01*
X18895420Y-16497984D02*
X18895420Y-16364650D01*
X18895420Y-16383698D02*
X18904944Y-16374174D01*
X18904944Y-16374174D02*
X18923991Y-16364650D01*
X18923991Y-16364650D02*
X18952563Y-16364650D01*
X18952563Y-16364650D02*
X18971610Y-16374174D01*
X18971610Y-16374174D02*
X18981134Y-16393222D01*
X18981134Y-16393222D02*
X18981134Y-16497984D01*
X18981134Y-16393222D02*
X18990658Y-16374174D01*
X18990658Y-16374174D02*
X19009705Y-16364650D01*
X19009705Y-16364650D02*
X19038277Y-16364650D01*
X19038277Y-16364650D02*
X19057325Y-16374174D01*
X19057325Y-16374174D02*
X19066848Y-16393222D01*
X19066848Y-16393222D02*
X19066848Y-16497984D01*
X19162086Y-16497984D02*
X19162086Y-16364650D01*
X19162086Y-16383698D02*
X19171610Y-16374174D01*
X19171610Y-16374174D02*
X19190658Y-16364650D01*
X19190658Y-16364650D02*
X19219229Y-16364650D01*
X19219229Y-16364650D02*
X19238277Y-16374174D01*
X19238277Y-16374174D02*
X19247801Y-16393222D01*
X19247801Y-16393222D02*
X19247801Y-16497984D01*
X19247801Y-16393222D02*
X19257325Y-16374174D01*
X19257325Y-16374174D02*
X19276372Y-16364650D01*
X19276372Y-16364650D02*
X19304944Y-16364650D01*
X19304944Y-16364650D02*
X19323991Y-16374174D01*
X19323991Y-16374174D02*
X19333515Y-16393222D01*
X19333515Y-16393222D02*
X19333515Y-16497984D01*
X19723991Y-16288460D02*
X19552563Y-16545603D01*
X19981134Y-16297984D02*
X20000182Y-16297984D01*
X20000182Y-16297984D02*
X20019229Y-16307508D01*
X20019229Y-16307508D02*
X20028753Y-16317031D01*
X20028753Y-16317031D02*
X20038277Y-16336079D01*
X20038277Y-16336079D02*
X20047801Y-16374174D01*
X20047801Y-16374174D02*
X20047801Y-16421793D01*
X20047801Y-16421793D02*
X20038277Y-16459888D01*
X20038277Y-16459888D02*
X20028753Y-16478936D01*
X20028753Y-16478936D02*
X20019229Y-16488460D01*
X20019229Y-16488460D02*
X20000182Y-16497984D01*
X20000182Y-16497984D02*
X19981134Y-16497984D01*
X19981134Y-16497984D02*
X19962087Y-16488460D01*
X19962087Y-16488460D02*
X19952563Y-16478936D01*
X19952563Y-16478936D02*
X19943039Y-16459888D01*
X19943039Y-16459888D02*
X19933515Y-16421793D01*
X19933515Y-16421793D02*
X19933515Y-16374174D01*
X19933515Y-16374174D02*
X19943039Y-16336079D01*
X19943039Y-16336079D02*
X19952563Y-16317031D01*
X19952563Y-16317031D02*
X19962087Y-16307508D01*
X19962087Y-16307508D02*
X19981134Y-16297984D01*
X20133515Y-16478936D02*
X20143039Y-16488460D01*
X20143039Y-16488460D02*
X20133515Y-16497984D01*
X20133515Y-16497984D02*
X20123991Y-16488460D01*
X20123991Y-16488460D02*
X20133515Y-16478936D01*
X20133515Y-16478936D02*
X20133515Y-16497984D01*
X20266848Y-16297984D02*
X20285896Y-16297984D01*
X20285896Y-16297984D02*
X20304944Y-16307508D01*
X20304944Y-16307508D02*
X20314468Y-16317031D01*
X20314468Y-16317031D02*
X20323991Y-16336079D01*
X20323991Y-16336079D02*
X20333515Y-16374174D01*
X20333515Y-16374174D02*
X20333515Y-16421793D01*
X20333515Y-16421793D02*
X20323991Y-16459888D01*
X20323991Y-16459888D02*
X20314468Y-16478936D01*
X20314468Y-16478936D02*
X20304944Y-16488460D01*
X20304944Y-16488460D02*
X20285896Y-16497984D01*
X20285896Y-16497984D02*
X20266848Y-16497984D01*
X20266848Y-16497984D02*
X20247801Y-16488460D01*
X20247801Y-16488460D02*
X20238277Y-16478936D01*
X20238277Y-16478936D02*
X20228753Y-16459888D01*
X20228753Y-16459888D02*
X20219229Y-16421793D01*
X20219229Y-16421793D02*
X20219229Y-16374174D01*
X20219229Y-16374174D02*
X20228753Y-16336079D01*
X20228753Y-16336079D02*
X20238277Y-16317031D01*
X20238277Y-16317031D02*
X20247801Y-16307508D01*
X20247801Y-16307508D02*
X20266848Y-16297984D01*
X20400182Y-16297984D02*
X20523991Y-16297984D01*
X20523991Y-16297984D02*
X20457325Y-16374174D01*
X20457325Y-16374174D02*
X20485896Y-16374174D01*
X20485896Y-16374174D02*
X20504944Y-16383698D01*
X20504944Y-16383698D02*
X20514468Y-16393222D01*
X20514468Y-16393222D02*
X20523991Y-16412269D01*
X20523991Y-16412269D02*
X20523991Y-16459888D01*
X20523991Y-16459888D02*
X20514468Y-16478936D01*
X20514468Y-16478936D02*
X20504944Y-16488460D01*
X20504944Y-16488460D02*
X20485896Y-16497984D01*
X20485896Y-16497984D02*
X20428753Y-16497984D01*
X20428753Y-16497984D02*
X20409706Y-16488460D01*
X20409706Y-16488460D02*
X20400182Y-16478936D01*
X20704944Y-16297984D02*
X20609706Y-16297984D01*
X20609706Y-16297984D02*
X20600182Y-16393222D01*
X20600182Y-16393222D02*
X20609706Y-16383698D01*
X20609706Y-16383698D02*
X20628753Y-16374174D01*
X20628753Y-16374174D02*
X20676372Y-16374174D01*
X20676372Y-16374174D02*
X20695420Y-16383698D01*
X20695420Y-16383698D02*
X20704944Y-16393222D01*
X20704944Y-16393222D02*
X20714468Y-16412269D01*
X20714468Y-16412269D02*
X20714468Y-16459888D01*
X20714468Y-16459888D02*
X20704944Y-16478936D01*
X20704944Y-16478936D02*
X20695420Y-16488460D01*
X20695420Y-16488460D02*
X20676372Y-16497984D01*
X20676372Y-16497984D02*
X20628753Y-16497984D01*
X20628753Y-16497984D02*
X20609706Y-16488460D01*
X20609706Y-16488460D02*
X20600182Y-16478936D01*
X20885896Y-16364650D02*
X20885896Y-16497984D01*
X20838277Y-16288460D02*
X20790658Y-16431317D01*
X20790658Y-16431317D02*
X20914468Y-16431317D01*
X20981134Y-16297984D02*
X20981134Y-16336079D01*
X21057325Y-16297984D02*
X21057325Y-16336079D01*
X21352563Y-16574174D02*
X21343039Y-16564650D01*
X21343039Y-16564650D02*
X21323991Y-16536079D01*
X21323991Y-16536079D02*
X21314468Y-16517031D01*
X21314468Y-16517031D02*
X21304944Y-16488460D01*
X21304944Y-16488460D02*
X21295420Y-16440841D01*
X21295420Y-16440841D02*
X21295420Y-16402746D01*
X21295420Y-16402746D02*
X21304944Y-16355127D01*
X21304944Y-16355127D02*
X21314468Y-16326555D01*
X21314468Y-16326555D02*
X21323991Y-16307508D01*
X21323991Y-16307508D02*
X21343039Y-16278936D01*
X21343039Y-16278936D02*
X21352563Y-16269412D01*
X21514468Y-16364650D02*
X21514468Y-16497984D01*
X21466849Y-16288460D02*
X21419230Y-16431317D01*
X21419230Y-16431317D02*
X21543039Y-16431317D01*
X21771611Y-16497984D02*
X21771611Y-16297984D01*
X21857325Y-16497984D02*
X21857325Y-16393222D01*
X21857325Y-16393222D02*
X21847801Y-16374174D01*
X21847801Y-16374174D02*
X21828753Y-16364650D01*
X21828753Y-16364650D02*
X21800182Y-16364650D01*
X21800182Y-16364650D02*
X21781134Y-16374174D01*
X21781134Y-16374174D02*
X21771611Y-16383698D01*
X21981134Y-16497984D02*
X21962087Y-16488460D01*
X21962087Y-16488460D02*
X21952563Y-16478936D01*
X21952563Y-16478936D02*
X21943039Y-16459888D01*
X21943039Y-16459888D02*
X21943039Y-16402746D01*
X21943039Y-16402746D02*
X21952563Y-16383698D01*
X21952563Y-16383698D02*
X21962087Y-16374174D01*
X21962087Y-16374174D02*
X21981134Y-16364650D01*
X21981134Y-16364650D02*
X22009706Y-16364650D01*
X22009706Y-16364650D02*
X22028753Y-16374174D01*
X22028753Y-16374174D02*
X22038277Y-16383698D01*
X22038277Y-16383698D02*
X22047801Y-16402746D01*
X22047801Y-16402746D02*
X22047801Y-16459888D01*
X22047801Y-16459888D02*
X22038277Y-16478936D01*
X22038277Y-16478936D02*
X22028753Y-16488460D01*
X22028753Y-16488460D02*
X22009706Y-16497984D01*
X22009706Y-16497984D02*
X21981134Y-16497984D01*
X22162087Y-16497984D02*
X22143039Y-16488460D01*
X22143039Y-16488460D02*
X22133515Y-16469412D01*
X22133515Y-16469412D02*
X22133515Y-16297984D01*
X22314468Y-16488460D02*
X22295420Y-16497984D01*
X22295420Y-16497984D02*
X22257325Y-16497984D01*
X22257325Y-16497984D02*
X22238277Y-16488460D01*
X22238277Y-16488460D02*
X22228753Y-16469412D01*
X22228753Y-16469412D02*
X22228753Y-16393222D01*
X22228753Y-16393222D02*
X22238277Y-16374174D01*
X22238277Y-16374174D02*
X22257325Y-16364650D01*
X22257325Y-16364650D02*
X22295420Y-16364650D01*
X22295420Y-16364650D02*
X22314468Y-16374174D01*
X22314468Y-16374174D02*
X22323992Y-16393222D01*
X22323992Y-16393222D02*
X22323992Y-16412269D01*
X22323992Y-16412269D02*
X22228753Y-16431317D01*
X22400182Y-16488460D02*
X22419230Y-16497984D01*
X22419230Y-16497984D02*
X22457325Y-16497984D01*
X22457325Y-16497984D02*
X22476372Y-16488460D01*
X22476372Y-16488460D02*
X22485896Y-16469412D01*
X22485896Y-16469412D02*
X22485896Y-16459888D01*
X22485896Y-16459888D02*
X22476372Y-16440841D01*
X22476372Y-16440841D02*
X22457325Y-16431317D01*
X22457325Y-16431317D02*
X22428753Y-16431317D01*
X22428753Y-16431317D02*
X22409706Y-16421793D01*
X22409706Y-16421793D02*
X22400182Y-16402746D01*
X22400182Y-16402746D02*
X22400182Y-16393222D01*
X22400182Y-16393222D02*
X22409706Y-16374174D01*
X22409706Y-16374174D02*
X22428753Y-16364650D01*
X22428753Y-16364650D02*
X22457325Y-16364650D01*
X22457325Y-16364650D02*
X22476372Y-16374174D01*
X22552563Y-16574174D02*
X22562087Y-16564650D01*
X22562087Y-16564650D02*
X22581134Y-16536079D01*
X22581134Y-16536079D02*
X22590658Y-16517031D01*
X22590658Y-16517031D02*
X22600182Y-16488460D01*
X22600182Y-16488460D02*
X22609706Y-16440841D01*
X22609706Y-16440841D02*
X22609706Y-16402746D01*
X22609706Y-16402746D02*
X22600182Y-16355127D01*
X22600182Y-16355127D02*
X22590658Y-16326555D01*
X22590658Y-16326555D02*
X22581134Y-16307508D01*
X22581134Y-16307508D02*
X22562087Y-16278936D01*
X22562087Y-16278936D02*
X22552563Y-16269412D01*
D12*
X17727500Y-16620500D02*
X17727500Y-16720500D01*
X17677500Y-16670500D02*
X17777500Y-16670500D01*
D11*
X18143039Y-16761984D02*
X18028753Y-16761984D01*
X18085896Y-16761984D02*
X18085896Y-16561984D01*
X18085896Y-16561984D02*
X18066848Y-16590555D01*
X18066848Y-16590555D02*
X18047801Y-16609603D01*
X18047801Y-16609603D02*
X18028753Y-16619127D01*
X18228753Y-16742936D02*
X18238277Y-16752460D01*
X18238277Y-16752460D02*
X18228753Y-16761984D01*
X18228753Y-16761984D02*
X18219229Y-16752460D01*
X18219229Y-16752460D02*
X18228753Y-16742936D01*
X18228753Y-16742936D02*
X18228753Y-16761984D01*
X18362086Y-16561984D02*
X18381134Y-16561984D01*
X18381134Y-16561984D02*
X18400182Y-16571508D01*
X18400182Y-16571508D02*
X18409705Y-16581031D01*
X18409705Y-16581031D02*
X18419229Y-16600079D01*
X18419229Y-16600079D02*
X18428753Y-16638174D01*
X18428753Y-16638174D02*
X18428753Y-16685793D01*
X18428753Y-16685793D02*
X18419229Y-16723888D01*
X18419229Y-16723888D02*
X18409705Y-16742936D01*
X18409705Y-16742936D02*
X18400182Y-16752460D01*
X18400182Y-16752460D02*
X18381134Y-16761984D01*
X18381134Y-16761984D02*
X18362086Y-16761984D01*
X18362086Y-16761984D02*
X18343039Y-16752460D01*
X18343039Y-16752460D02*
X18333515Y-16742936D01*
X18333515Y-16742936D02*
X18323991Y-16723888D01*
X18323991Y-16723888D02*
X18314467Y-16685793D01*
X18314467Y-16685793D02*
X18314467Y-16638174D01*
X18314467Y-16638174D02*
X18323991Y-16600079D01*
X18323991Y-16600079D02*
X18333515Y-16581031D01*
X18333515Y-16581031D02*
X18343039Y-16571508D01*
X18343039Y-16571508D02*
X18362086Y-16561984D01*
X18552563Y-16561984D02*
X18571610Y-16561984D01*
X18571610Y-16561984D02*
X18590658Y-16571508D01*
X18590658Y-16571508D02*
X18600182Y-16581031D01*
X18600182Y-16581031D02*
X18609705Y-16600079D01*
X18609705Y-16600079D02*
X18619229Y-16638174D01*
X18619229Y-16638174D02*
X18619229Y-16685793D01*
X18619229Y-16685793D02*
X18609705Y-16723888D01*
X18609705Y-16723888D02*
X18600182Y-16742936D01*
X18600182Y-16742936D02*
X18590658Y-16752460D01*
X18590658Y-16752460D02*
X18571610Y-16761984D01*
X18571610Y-16761984D02*
X18552563Y-16761984D01*
X18552563Y-16761984D02*
X18533515Y-16752460D01*
X18533515Y-16752460D02*
X18523991Y-16742936D01*
X18523991Y-16742936D02*
X18514467Y-16723888D01*
X18514467Y-16723888D02*
X18504944Y-16685793D01*
X18504944Y-16685793D02*
X18504944Y-16638174D01*
X18504944Y-16638174D02*
X18514467Y-16600079D01*
X18514467Y-16600079D02*
X18523991Y-16581031D01*
X18523991Y-16581031D02*
X18533515Y-16571508D01*
X18533515Y-16571508D02*
X18552563Y-16561984D01*
X18743039Y-16561984D02*
X18762086Y-16561984D01*
X18762086Y-16561984D02*
X18781134Y-16571508D01*
X18781134Y-16571508D02*
X18790658Y-16581031D01*
X18790658Y-16581031D02*
X18800182Y-16600079D01*
X18800182Y-16600079D02*
X18809705Y-16638174D01*
X18809705Y-16638174D02*
X18809705Y-16685793D01*
X18809705Y-16685793D02*
X18800182Y-16723888D01*
X18800182Y-16723888D02*
X18790658Y-16742936D01*
X18790658Y-16742936D02*
X18781134Y-16752460D01*
X18781134Y-16752460D02*
X18762086Y-16761984D01*
X18762086Y-16761984D02*
X18743039Y-16761984D01*
X18743039Y-16761984D02*
X18723991Y-16752460D01*
X18723991Y-16752460D02*
X18714467Y-16742936D01*
X18714467Y-16742936D02*
X18704944Y-16723888D01*
X18704944Y-16723888D02*
X18695420Y-16685793D01*
X18695420Y-16685793D02*
X18695420Y-16638174D01*
X18695420Y-16638174D02*
X18704944Y-16600079D01*
X18704944Y-16600079D02*
X18714467Y-16581031D01*
X18714467Y-16581031D02*
X18723991Y-16571508D01*
X18723991Y-16571508D02*
X18743039Y-16561984D01*
X18895420Y-16761984D02*
X18895420Y-16628650D01*
X18895420Y-16647698D02*
X18904944Y-16638174D01*
X18904944Y-16638174D02*
X18923991Y-16628650D01*
X18923991Y-16628650D02*
X18952563Y-16628650D01*
X18952563Y-16628650D02*
X18971610Y-16638174D01*
X18971610Y-16638174D02*
X18981134Y-16657222D01*
X18981134Y-16657222D02*
X18981134Y-16761984D01*
X18981134Y-16657222D02*
X18990658Y-16638174D01*
X18990658Y-16638174D02*
X19009705Y-16628650D01*
X19009705Y-16628650D02*
X19038277Y-16628650D01*
X19038277Y-16628650D02*
X19057325Y-16638174D01*
X19057325Y-16638174D02*
X19066848Y-16657222D01*
X19066848Y-16657222D02*
X19066848Y-16761984D01*
X19162086Y-16761984D02*
X19162086Y-16628650D01*
X19162086Y-16647698D02*
X19171610Y-16638174D01*
X19171610Y-16638174D02*
X19190658Y-16628650D01*
X19190658Y-16628650D02*
X19219229Y-16628650D01*
X19219229Y-16628650D02*
X19238277Y-16638174D01*
X19238277Y-16638174D02*
X19247801Y-16657222D01*
X19247801Y-16657222D02*
X19247801Y-16761984D01*
X19247801Y-16657222D02*
X19257325Y-16638174D01*
X19257325Y-16638174D02*
X19276372Y-16628650D01*
X19276372Y-16628650D02*
X19304944Y-16628650D01*
X19304944Y-16628650D02*
X19323991Y-16638174D01*
X19323991Y-16638174D02*
X19333515Y-16657222D01*
X19333515Y-16657222D02*
X19333515Y-16761984D01*
X19723991Y-16552460D02*
X19552563Y-16809603D01*
X19981134Y-16561984D02*
X20000182Y-16561984D01*
X20000182Y-16561984D02*
X20019229Y-16571508D01*
X20019229Y-16571508D02*
X20028753Y-16581031D01*
X20028753Y-16581031D02*
X20038277Y-16600079D01*
X20038277Y-16600079D02*
X20047801Y-16638174D01*
X20047801Y-16638174D02*
X20047801Y-16685793D01*
X20047801Y-16685793D02*
X20038277Y-16723888D01*
X20038277Y-16723888D02*
X20028753Y-16742936D01*
X20028753Y-16742936D02*
X20019229Y-16752460D01*
X20019229Y-16752460D02*
X20000182Y-16761984D01*
X20000182Y-16761984D02*
X19981134Y-16761984D01*
X19981134Y-16761984D02*
X19962087Y-16752460D01*
X19962087Y-16752460D02*
X19952563Y-16742936D01*
X19952563Y-16742936D02*
X19943039Y-16723888D01*
X19943039Y-16723888D02*
X19933515Y-16685793D01*
X19933515Y-16685793D02*
X19933515Y-16638174D01*
X19933515Y-16638174D02*
X19943039Y-16600079D01*
X19943039Y-16600079D02*
X19952563Y-16581031D01*
X19952563Y-16581031D02*
X19962087Y-16571508D01*
X19962087Y-16571508D02*
X19981134Y-16561984D01*
X20133515Y-16742936D02*
X20143039Y-16752460D01*
X20143039Y-16752460D02*
X20133515Y-16761984D01*
X20133515Y-16761984D02*
X20123991Y-16752460D01*
X20123991Y-16752460D02*
X20133515Y-16742936D01*
X20133515Y-16742936D02*
X20133515Y-16761984D01*
X20266848Y-16561984D02*
X20285896Y-16561984D01*
X20285896Y-16561984D02*
X20304944Y-16571508D01*
X20304944Y-16571508D02*
X20314468Y-16581031D01*
X20314468Y-16581031D02*
X20323991Y-16600079D01*
X20323991Y-16600079D02*
X20333515Y-16638174D01*
X20333515Y-16638174D02*
X20333515Y-16685793D01*
X20333515Y-16685793D02*
X20323991Y-16723888D01*
X20323991Y-16723888D02*
X20314468Y-16742936D01*
X20314468Y-16742936D02*
X20304944Y-16752460D01*
X20304944Y-16752460D02*
X20285896Y-16761984D01*
X20285896Y-16761984D02*
X20266848Y-16761984D01*
X20266848Y-16761984D02*
X20247801Y-16752460D01*
X20247801Y-16752460D02*
X20238277Y-16742936D01*
X20238277Y-16742936D02*
X20228753Y-16723888D01*
X20228753Y-16723888D02*
X20219229Y-16685793D01*
X20219229Y-16685793D02*
X20219229Y-16638174D01*
X20219229Y-16638174D02*
X20228753Y-16600079D01*
X20228753Y-16600079D02*
X20238277Y-16581031D01*
X20238277Y-16581031D02*
X20247801Y-16571508D01*
X20247801Y-16571508D02*
X20266848Y-16561984D01*
X20400182Y-16561984D02*
X20523991Y-16561984D01*
X20523991Y-16561984D02*
X20457325Y-16638174D01*
X20457325Y-16638174D02*
X20485896Y-16638174D01*
X20485896Y-16638174D02*
X20504944Y-16647698D01*
X20504944Y-16647698D02*
X20514468Y-16657222D01*
X20514468Y-16657222D02*
X20523991Y-16676269D01*
X20523991Y-16676269D02*
X20523991Y-16723888D01*
X20523991Y-16723888D02*
X20514468Y-16742936D01*
X20514468Y-16742936D02*
X20504944Y-16752460D01*
X20504944Y-16752460D02*
X20485896Y-16761984D01*
X20485896Y-16761984D02*
X20428753Y-16761984D01*
X20428753Y-16761984D02*
X20409706Y-16752460D01*
X20409706Y-16752460D02*
X20400182Y-16742936D01*
X20619229Y-16761984D02*
X20657325Y-16761984D01*
X20657325Y-16761984D02*
X20676372Y-16752460D01*
X20676372Y-16752460D02*
X20685896Y-16742936D01*
X20685896Y-16742936D02*
X20704944Y-16714365D01*
X20704944Y-16714365D02*
X20714468Y-16676269D01*
X20714468Y-16676269D02*
X20714468Y-16600079D01*
X20714468Y-16600079D02*
X20704944Y-16581031D01*
X20704944Y-16581031D02*
X20695420Y-16571508D01*
X20695420Y-16571508D02*
X20676372Y-16561984D01*
X20676372Y-16561984D02*
X20638277Y-16561984D01*
X20638277Y-16561984D02*
X20619229Y-16571508D01*
X20619229Y-16571508D02*
X20609706Y-16581031D01*
X20609706Y-16581031D02*
X20600182Y-16600079D01*
X20600182Y-16600079D02*
X20600182Y-16647698D01*
X20600182Y-16647698D02*
X20609706Y-16666746D01*
X20609706Y-16666746D02*
X20619229Y-16676269D01*
X20619229Y-16676269D02*
X20638277Y-16685793D01*
X20638277Y-16685793D02*
X20676372Y-16685793D01*
X20676372Y-16685793D02*
X20695420Y-16676269D01*
X20695420Y-16676269D02*
X20704944Y-16666746D01*
X20704944Y-16666746D02*
X20714468Y-16647698D01*
X20885896Y-16628650D02*
X20885896Y-16761984D01*
X20838277Y-16552460D02*
X20790658Y-16695317D01*
X20790658Y-16695317D02*
X20914468Y-16695317D01*
X20981134Y-16561984D02*
X20981134Y-16600079D01*
X21057325Y-16561984D02*
X21057325Y-16600079D01*
X21352563Y-16838174D02*
X21343039Y-16828650D01*
X21343039Y-16828650D02*
X21323991Y-16800079D01*
X21323991Y-16800079D02*
X21314468Y-16781031D01*
X21314468Y-16781031D02*
X21304944Y-16752460D01*
X21304944Y-16752460D02*
X21295420Y-16704841D01*
X21295420Y-16704841D02*
X21295420Y-16666746D01*
X21295420Y-16666746D02*
X21304944Y-16619127D01*
X21304944Y-16619127D02*
X21314468Y-16590555D01*
X21314468Y-16590555D02*
X21323991Y-16571508D01*
X21323991Y-16571508D02*
X21343039Y-16542936D01*
X21343039Y-16542936D02*
X21352563Y-16533412D01*
X21533515Y-16761984D02*
X21419230Y-16761984D01*
X21476372Y-16761984D02*
X21476372Y-16561984D01*
X21476372Y-16561984D02*
X21457325Y-16590555D01*
X21457325Y-16590555D02*
X21438277Y-16609603D01*
X21438277Y-16609603D02*
X21419230Y-16619127D01*
X21609706Y-16581031D02*
X21619230Y-16571508D01*
X21619230Y-16571508D02*
X21638277Y-16561984D01*
X21638277Y-16561984D02*
X21685896Y-16561984D01*
X21685896Y-16561984D02*
X21704944Y-16571508D01*
X21704944Y-16571508D02*
X21714468Y-16581031D01*
X21714468Y-16581031D02*
X21723991Y-16600079D01*
X21723991Y-16600079D02*
X21723991Y-16619127D01*
X21723991Y-16619127D02*
X21714468Y-16647698D01*
X21714468Y-16647698D02*
X21600182Y-16761984D01*
X21600182Y-16761984D02*
X21723991Y-16761984D01*
X21962087Y-16761984D02*
X21962087Y-16561984D01*
X22047801Y-16761984D02*
X22047801Y-16657222D01*
X22047801Y-16657222D02*
X22038277Y-16638174D01*
X22038277Y-16638174D02*
X22019230Y-16628650D01*
X22019230Y-16628650D02*
X21990658Y-16628650D01*
X21990658Y-16628650D02*
X21971611Y-16638174D01*
X21971611Y-16638174D02*
X21962087Y-16647698D01*
X22171611Y-16761984D02*
X22152563Y-16752460D01*
X22152563Y-16752460D02*
X22143039Y-16742936D01*
X22143039Y-16742936D02*
X22133515Y-16723888D01*
X22133515Y-16723888D02*
X22133515Y-16666746D01*
X22133515Y-16666746D02*
X22143039Y-16647698D01*
X22143039Y-16647698D02*
X22152563Y-16638174D01*
X22152563Y-16638174D02*
X22171611Y-16628650D01*
X22171611Y-16628650D02*
X22200182Y-16628650D01*
X22200182Y-16628650D02*
X22219230Y-16638174D01*
X22219230Y-16638174D02*
X22228753Y-16647698D01*
X22228753Y-16647698D02*
X22238277Y-16666746D01*
X22238277Y-16666746D02*
X22238277Y-16723888D01*
X22238277Y-16723888D02*
X22228753Y-16742936D01*
X22228753Y-16742936D02*
X22219230Y-16752460D01*
X22219230Y-16752460D02*
X22200182Y-16761984D01*
X22200182Y-16761984D02*
X22171611Y-16761984D01*
X22352563Y-16761984D02*
X22333515Y-16752460D01*
X22333515Y-16752460D02*
X22323992Y-16733412D01*
X22323992Y-16733412D02*
X22323992Y-16561984D01*
X22504944Y-16752460D02*
X22485896Y-16761984D01*
X22485896Y-16761984D02*
X22447801Y-16761984D01*
X22447801Y-16761984D02*
X22428753Y-16752460D01*
X22428753Y-16752460D02*
X22419230Y-16733412D01*
X22419230Y-16733412D02*
X22419230Y-16657222D01*
X22419230Y-16657222D02*
X22428753Y-16638174D01*
X22428753Y-16638174D02*
X22447801Y-16628650D01*
X22447801Y-16628650D02*
X22485896Y-16628650D01*
X22485896Y-16628650D02*
X22504944Y-16638174D01*
X22504944Y-16638174D02*
X22514468Y-16657222D01*
X22514468Y-16657222D02*
X22514468Y-16676269D01*
X22514468Y-16676269D02*
X22419230Y-16695317D01*
X22590658Y-16752460D02*
X22609706Y-16761984D01*
X22609706Y-16761984D02*
X22647801Y-16761984D01*
X22647801Y-16761984D02*
X22666849Y-16752460D01*
X22666849Y-16752460D02*
X22676372Y-16733412D01*
X22676372Y-16733412D02*
X22676372Y-16723888D01*
X22676372Y-16723888D02*
X22666849Y-16704841D01*
X22666849Y-16704841D02*
X22647801Y-16695317D01*
X22647801Y-16695317D02*
X22619230Y-16695317D01*
X22619230Y-16695317D02*
X22600182Y-16685793D01*
X22600182Y-16685793D02*
X22590658Y-16666746D01*
X22590658Y-16666746D02*
X22590658Y-16657222D01*
X22590658Y-16657222D02*
X22600182Y-16638174D01*
X22600182Y-16638174D02*
X22619230Y-16628650D01*
X22619230Y-16628650D02*
X22647801Y-16628650D01*
X22647801Y-16628650D02*
X22666849Y-16638174D01*
X22743039Y-16838174D02*
X22752563Y-16828650D01*
X22752563Y-16828650D02*
X22771611Y-16800079D01*
X22771611Y-16800079D02*
X22781134Y-16781031D01*
X22781134Y-16781031D02*
X22790658Y-16752460D01*
X22790658Y-16752460D02*
X22800182Y-16704841D01*
X22800182Y-16704841D02*
X22800182Y-16666746D01*
X22800182Y-16666746D02*
X22790658Y-16619127D01*
X22790658Y-16619127D02*
X22781134Y-16590555D01*
X22781134Y-16590555D02*
X22771611Y-16571508D01*
X22771611Y-16571508D02*
X22752563Y-16542936D01*
X22752563Y-16542936D02*
X22743039Y-16533412D01*
D13*
X17762563Y-16970563D02*
X17762563Y-16898437D01*
X17690437Y-16898437D01*
X17690437Y-16970563D01*
X17762563Y-16970563D01*
D11*
X18143039Y-17025984D02*
X18028753Y-17025984D01*
X18085896Y-17025984D02*
X18085896Y-16825984D01*
X18085896Y-16825984D02*
X18066848Y-16854555D01*
X18066848Y-16854555D02*
X18047801Y-16873603D01*
X18047801Y-16873603D02*
X18028753Y-16883127D01*
X18228753Y-17006936D02*
X18238277Y-17016460D01*
X18238277Y-17016460D02*
X18228753Y-17025984D01*
X18228753Y-17025984D02*
X18219229Y-17016460D01*
X18219229Y-17016460D02*
X18228753Y-17006936D01*
X18228753Y-17006936D02*
X18228753Y-17025984D01*
X18362086Y-16825984D02*
X18381134Y-16825984D01*
X18381134Y-16825984D02*
X18400182Y-16835508D01*
X18400182Y-16835508D02*
X18409705Y-16845031D01*
X18409705Y-16845031D02*
X18419229Y-16864079D01*
X18419229Y-16864079D02*
X18428753Y-16902174D01*
X18428753Y-16902174D02*
X18428753Y-16949793D01*
X18428753Y-16949793D02*
X18419229Y-16987889D01*
X18419229Y-16987889D02*
X18409705Y-17006936D01*
X18409705Y-17006936D02*
X18400182Y-17016460D01*
X18400182Y-17016460D02*
X18381134Y-17025984D01*
X18381134Y-17025984D02*
X18362086Y-17025984D01*
X18362086Y-17025984D02*
X18343039Y-17016460D01*
X18343039Y-17016460D02*
X18333515Y-17006936D01*
X18333515Y-17006936D02*
X18323991Y-16987889D01*
X18323991Y-16987889D02*
X18314467Y-16949793D01*
X18314467Y-16949793D02*
X18314467Y-16902174D01*
X18314467Y-16902174D02*
X18323991Y-16864079D01*
X18323991Y-16864079D02*
X18333515Y-16845031D01*
X18333515Y-16845031D02*
X18343039Y-16835508D01*
X18343039Y-16835508D02*
X18362086Y-16825984D01*
X18504944Y-16845031D02*
X18514467Y-16835508D01*
X18514467Y-16835508D02*
X18533515Y-16825984D01*
X18533515Y-16825984D02*
X18581134Y-16825984D01*
X18581134Y-16825984D02*
X18600182Y-16835508D01*
X18600182Y-16835508D02*
X18609705Y-16845031D01*
X18609705Y-16845031D02*
X18619229Y-16864079D01*
X18619229Y-16864079D02*
X18619229Y-16883127D01*
X18619229Y-16883127D02*
X18609705Y-16911698D01*
X18609705Y-16911698D02*
X18495420Y-17025984D01*
X18495420Y-17025984D02*
X18619229Y-17025984D01*
X18743039Y-16825984D02*
X18762086Y-16825984D01*
X18762086Y-16825984D02*
X18781134Y-16835508D01*
X18781134Y-16835508D02*
X18790658Y-16845031D01*
X18790658Y-16845031D02*
X18800182Y-16864079D01*
X18800182Y-16864079D02*
X18809705Y-16902174D01*
X18809705Y-16902174D02*
X18809705Y-16949793D01*
X18809705Y-16949793D02*
X18800182Y-16987889D01*
X18800182Y-16987889D02*
X18790658Y-17006936D01*
X18790658Y-17006936D02*
X18781134Y-17016460D01*
X18781134Y-17016460D02*
X18762086Y-17025984D01*
X18762086Y-17025984D02*
X18743039Y-17025984D01*
X18743039Y-17025984D02*
X18723991Y-17016460D01*
X18723991Y-17016460D02*
X18714467Y-17006936D01*
X18714467Y-17006936D02*
X18704944Y-16987889D01*
X18704944Y-16987889D02*
X18695420Y-16949793D01*
X18695420Y-16949793D02*
X18695420Y-16902174D01*
X18695420Y-16902174D02*
X18704944Y-16864079D01*
X18704944Y-16864079D02*
X18714467Y-16845031D01*
X18714467Y-16845031D02*
X18723991Y-16835508D01*
X18723991Y-16835508D02*
X18743039Y-16825984D01*
X18895420Y-17025984D02*
X18895420Y-16892650D01*
X18895420Y-16911698D02*
X18904944Y-16902174D01*
X18904944Y-16902174D02*
X18923991Y-16892650D01*
X18923991Y-16892650D02*
X18952563Y-16892650D01*
X18952563Y-16892650D02*
X18971610Y-16902174D01*
X18971610Y-16902174D02*
X18981134Y-16921222D01*
X18981134Y-16921222D02*
X18981134Y-17025984D01*
X18981134Y-16921222D02*
X18990658Y-16902174D01*
X18990658Y-16902174D02*
X19009705Y-16892650D01*
X19009705Y-16892650D02*
X19038277Y-16892650D01*
X19038277Y-16892650D02*
X19057325Y-16902174D01*
X19057325Y-16902174D02*
X19066848Y-16921222D01*
X19066848Y-16921222D02*
X19066848Y-17025984D01*
X19162086Y-17025984D02*
X19162086Y-16892650D01*
X19162086Y-16911698D02*
X19171610Y-16902174D01*
X19171610Y-16902174D02*
X19190658Y-16892650D01*
X19190658Y-16892650D02*
X19219229Y-16892650D01*
X19219229Y-16892650D02*
X19238277Y-16902174D01*
X19238277Y-16902174D02*
X19247801Y-16921222D01*
X19247801Y-16921222D02*
X19247801Y-17025984D01*
X19247801Y-16921222D02*
X19257325Y-16902174D01*
X19257325Y-16902174D02*
X19276372Y-16892650D01*
X19276372Y-16892650D02*
X19304944Y-16892650D01*
X19304944Y-16892650D02*
X19323991Y-16902174D01*
X19323991Y-16902174D02*
X19333515Y-16921222D01*
X19333515Y-16921222D02*
X19333515Y-17025984D01*
X19723991Y-16816460D02*
X19552563Y-17073603D01*
X19981134Y-16825984D02*
X20000182Y-16825984D01*
X20000182Y-16825984D02*
X20019229Y-16835508D01*
X20019229Y-16835508D02*
X20028753Y-16845031D01*
X20028753Y-16845031D02*
X20038277Y-16864079D01*
X20038277Y-16864079D02*
X20047801Y-16902174D01*
X20047801Y-16902174D02*
X20047801Y-16949793D01*
X20047801Y-16949793D02*
X20038277Y-16987889D01*
X20038277Y-16987889D02*
X20028753Y-17006936D01*
X20028753Y-17006936D02*
X20019229Y-17016460D01*
X20019229Y-17016460D02*
X20000182Y-17025984D01*
X20000182Y-17025984D02*
X19981134Y-17025984D01*
X19981134Y-17025984D02*
X19962087Y-17016460D01*
X19962087Y-17016460D02*
X19952563Y-17006936D01*
X19952563Y-17006936D02*
X19943039Y-16987889D01*
X19943039Y-16987889D02*
X19933515Y-16949793D01*
X19933515Y-16949793D02*
X19933515Y-16902174D01*
X19933515Y-16902174D02*
X19943039Y-16864079D01*
X19943039Y-16864079D02*
X19952563Y-16845031D01*
X19952563Y-16845031D02*
X19962087Y-16835508D01*
X19962087Y-16835508D02*
X19981134Y-16825984D01*
X20133515Y-17006936D02*
X20143039Y-17016460D01*
X20143039Y-17016460D02*
X20133515Y-17025984D01*
X20133515Y-17025984D02*
X20123991Y-17016460D01*
X20123991Y-17016460D02*
X20133515Y-17006936D01*
X20133515Y-17006936D02*
X20133515Y-17025984D01*
X20266848Y-16825984D02*
X20285896Y-16825984D01*
X20285896Y-16825984D02*
X20304944Y-16835508D01*
X20304944Y-16835508D02*
X20314468Y-16845031D01*
X20314468Y-16845031D02*
X20323991Y-16864079D01*
X20323991Y-16864079D02*
X20333515Y-16902174D01*
X20333515Y-16902174D02*
X20333515Y-16949793D01*
X20333515Y-16949793D02*
X20323991Y-16987889D01*
X20323991Y-16987889D02*
X20314468Y-17006936D01*
X20314468Y-17006936D02*
X20304944Y-17016460D01*
X20304944Y-17016460D02*
X20285896Y-17025984D01*
X20285896Y-17025984D02*
X20266848Y-17025984D01*
X20266848Y-17025984D02*
X20247801Y-17016460D01*
X20247801Y-17016460D02*
X20238277Y-17006936D01*
X20238277Y-17006936D02*
X20228753Y-16987889D01*
X20228753Y-16987889D02*
X20219229Y-16949793D01*
X20219229Y-16949793D02*
X20219229Y-16902174D01*
X20219229Y-16902174D02*
X20228753Y-16864079D01*
X20228753Y-16864079D02*
X20238277Y-16845031D01*
X20238277Y-16845031D02*
X20247801Y-16835508D01*
X20247801Y-16835508D02*
X20266848Y-16825984D01*
X20504944Y-16892650D02*
X20504944Y-17025984D01*
X20457325Y-16816460D02*
X20409706Y-16959317D01*
X20409706Y-16959317D02*
X20533515Y-16959317D01*
X20647801Y-16825984D02*
X20666849Y-16825984D01*
X20666849Y-16825984D02*
X20685896Y-16835508D01*
X20685896Y-16835508D02*
X20695420Y-16845031D01*
X20695420Y-16845031D02*
X20704944Y-16864079D01*
X20704944Y-16864079D02*
X20714468Y-16902174D01*
X20714468Y-16902174D02*
X20714468Y-16949793D01*
X20714468Y-16949793D02*
X20704944Y-16987889D01*
X20704944Y-16987889D02*
X20695420Y-17006936D01*
X20695420Y-17006936D02*
X20685896Y-17016460D01*
X20685896Y-17016460D02*
X20666849Y-17025984D01*
X20666849Y-17025984D02*
X20647801Y-17025984D01*
X20647801Y-17025984D02*
X20628753Y-17016460D01*
X20628753Y-17016460D02*
X20619229Y-17006936D01*
X20619229Y-17006936D02*
X20609706Y-16987889D01*
X20609706Y-16987889D02*
X20600182Y-16949793D01*
X20600182Y-16949793D02*
X20600182Y-16902174D01*
X20600182Y-16902174D02*
X20609706Y-16864079D01*
X20609706Y-16864079D02*
X20619229Y-16845031D01*
X20619229Y-16845031D02*
X20628753Y-16835508D01*
X20628753Y-16835508D02*
X20647801Y-16825984D01*
X20790658Y-16845031D02*
X20800182Y-16835508D01*
X20800182Y-16835508D02*
X20819229Y-16825984D01*
X20819229Y-16825984D02*
X20866849Y-16825984D01*
X20866849Y-16825984D02*
X20885896Y-16835508D01*
X20885896Y-16835508D02*
X20895420Y-16845031D01*
X20895420Y-16845031D02*
X20904944Y-16864079D01*
X20904944Y-16864079D02*
X20904944Y-16883127D01*
X20904944Y-16883127D02*
X20895420Y-16911698D01*
X20895420Y-16911698D02*
X20781134Y-17025984D01*
X20781134Y-17025984D02*
X20904944Y-17025984D01*
X20981134Y-16825984D02*
X20981134Y-16864079D01*
X21057325Y-16825984D02*
X21057325Y-16864079D01*
X21352563Y-17102174D02*
X21343039Y-17092650D01*
X21343039Y-17092650D02*
X21323991Y-17064079D01*
X21323991Y-17064079D02*
X21314468Y-17045031D01*
X21314468Y-17045031D02*
X21304944Y-17016460D01*
X21304944Y-17016460D02*
X21295420Y-16968841D01*
X21295420Y-16968841D02*
X21295420Y-16930746D01*
X21295420Y-16930746D02*
X21304944Y-16883127D01*
X21304944Y-16883127D02*
X21314468Y-16854555D01*
X21314468Y-16854555D02*
X21323991Y-16835508D01*
X21323991Y-16835508D02*
X21343039Y-16806936D01*
X21343039Y-16806936D02*
X21352563Y-16797412D01*
X21409706Y-16825984D02*
X21533515Y-16825984D01*
X21533515Y-16825984D02*
X21466849Y-16902174D01*
X21466849Y-16902174D02*
X21495420Y-16902174D01*
X21495420Y-16902174D02*
X21514468Y-16911698D01*
X21514468Y-16911698D02*
X21523991Y-16921222D01*
X21523991Y-16921222D02*
X21533515Y-16940270D01*
X21533515Y-16940270D02*
X21533515Y-16987889D01*
X21533515Y-16987889D02*
X21523991Y-17006936D01*
X21523991Y-17006936D02*
X21514468Y-17016460D01*
X21514468Y-17016460D02*
X21495420Y-17025984D01*
X21495420Y-17025984D02*
X21438277Y-17025984D01*
X21438277Y-17025984D02*
X21419230Y-17016460D01*
X21419230Y-17016460D02*
X21409706Y-17006936D01*
X21657325Y-16825984D02*
X21676372Y-16825984D01*
X21676372Y-16825984D02*
X21695420Y-16835508D01*
X21695420Y-16835508D02*
X21704944Y-16845031D01*
X21704944Y-16845031D02*
X21714468Y-16864079D01*
X21714468Y-16864079D02*
X21723991Y-16902174D01*
X21723991Y-16902174D02*
X21723991Y-16949793D01*
X21723991Y-16949793D02*
X21714468Y-16987889D01*
X21714468Y-16987889D02*
X21704944Y-17006936D01*
X21704944Y-17006936D02*
X21695420Y-17016460D01*
X21695420Y-17016460D02*
X21676372Y-17025984D01*
X21676372Y-17025984D02*
X21657325Y-17025984D01*
X21657325Y-17025984D02*
X21638277Y-17016460D01*
X21638277Y-17016460D02*
X21628753Y-17006936D01*
X21628753Y-17006936D02*
X21619230Y-16987889D01*
X21619230Y-16987889D02*
X21609706Y-16949793D01*
X21609706Y-16949793D02*
X21609706Y-16902174D01*
X21609706Y-16902174D02*
X21619230Y-16864079D01*
X21619230Y-16864079D02*
X21628753Y-16845031D01*
X21628753Y-16845031D02*
X21638277Y-16835508D01*
X21638277Y-16835508D02*
X21657325Y-16825984D01*
X21962087Y-17025984D02*
X21962087Y-16825984D01*
X22047801Y-17025984D02*
X22047801Y-16921222D01*
X22047801Y-16921222D02*
X22038277Y-16902174D01*
X22038277Y-16902174D02*
X22019230Y-16892650D01*
X22019230Y-16892650D02*
X21990658Y-16892650D01*
X21990658Y-16892650D02*
X21971611Y-16902174D01*
X21971611Y-16902174D02*
X21962087Y-16911698D01*
X22171611Y-17025984D02*
X22152563Y-17016460D01*
X22152563Y-17016460D02*
X22143039Y-17006936D01*
X22143039Y-17006936D02*
X22133515Y-16987889D01*
X22133515Y-16987889D02*
X22133515Y-16930746D01*
X22133515Y-16930746D02*
X22143039Y-16911698D01*
X22143039Y-16911698D02*
X22152563Y-16902174D01*
X22152563Y-16902174D02*
X22171611Y-16892650D01*
X22171611Y-16892650D02*
X22200182Y-16892650D01*
X22200182Y-16892650D02*
X22219230Y-16902174D01*
X22219230Y-16902174D02*
X22228753Y-16911698D01*
X22228753Y-16911698D02*
X22238277Y-16930746D01*
X22238277Y-16930746D02*
X22238277Y-16987889D01*
X22238277Y-16987889D02*
X22228753Y-17006936D01*
X22228753Y-17006936D02*
X22219230Y-17016460D01*
X22219230Y-17016460D02*
X22200182Y-17025984D01*
X22200182Y-17025984D02*
X22171611Y-17025984D01*
X22352563Y-17025984D02*
X22333515Y-17016460D01*
X22333515Y-17016460D02*
X22323992Y-16997412D01*
X22323992Y-16997412D02*
X22323992Y-16825984D01*
X22504944Y-17016460D02*
X22485896Y-17025984D01*
X22485896Y-17025984D02*
X22447801Y-17025984D01*
X22447801Y-17025984D02*
X22428753Y-17016460D01*
X22428753Y-17016460D02*
X22419230Y-16997412D01*
X22419230Y-16997412D02*
X22419230Y-16921222D01*
X22419230Y-16921222D02*
X22428753Y-16902174D01*
X22428753Y-16902174D02*
X22447801Y-16892650D01*
X22447801Y-16892650D02*
X22485896Y-16892650D01*
X22485896Y-16892650D02*
X22504944Y-16902174D01*
X22504944Y-16902174D02*
X22514468Y-16921222D01*
X22514468Y-16921222D02*
X22514468Y-16940270D01*
X22514468Y-16940270D02*
X22419230Y-16959317D01*
X22590658Y-17016460D02*
X22609706Y-17025984D01*
X22609706Y-17025984D02*
X22647801Y-17025984D01*
X22647801Y-17025984D02*
X22666849Y-17016460D01*
X22666849Y-17016460D02*
X22676372Y-16997412D01*
X22676372Y-16997412D02*
X22676372Y-16987889D01*
X22676372Y-16987889D02*
X22666849Y-16968841D01*
X22666849Y-16968841D02*
X22647801Y-16959317D01*
X22647801Y-16959317D02*
X22619230Y-16959317D01*
X22619230Y-16959317D02*
X22600182Y-16949793D01*
X22600182Y-16949793D02*
X22590658Y-16930746D01*
X22590658Y-16930746D02*
X22590658Y-16921222D01*
X22590658Y-16921222D02*
X22600182Y-16902174D01*
X22600182Y-16902174D02*
X22619230Y-16892650D01*
X22619230Y-16892650D02*
X22647801Y-16892650D01*
X22647801Y-16892650D02*
X22666849Y-16902174D01*
X22743039Y-17102174D02*
X22752563Y-17092650D01*
X22752563Y-17092650D02*
X22771611Y-17064079D01*
X22771611Y-17064079D02*
X22781134Y-17045031D01*
X22781134Y-17045031D02*
X22790658Y-17016460D01*
X22790658Y-17016460D02*
X22800182Y-16968841D01*
X22800182Y-16968841D02*
X22800182Y-16930746D01*
X22800182Y-16930746D02*
X22790658Y-16883127D01*
X22790658Y-16883127D02*
X22781134Y-16854555D01*
X22781134Y-16854555D02*
X22771611Y-16835508D01*
X22771611Y-16835508D02*
X22752563Y-16806936D01*
X22752563Y-16806936D02*
X22743039Y-16797412D01*
D14*
X17722500Y-17253500D02*
X17777500Y-17198500D01*
X17722500Y-17143500D01*
X17667500Y-17198500D01*
X17722500Y-17253500D01*
D11*
X18143039Y-17289984D02*
X18028753Y-17289984D01*
X18085896Y-17289984D02*
X18085896Y-17089984D01*
X18085896Y-17089984D02*
X18066848Y-17118555D01*
X18066848Y-17118555D02*
X18047801Y-17137603D01*
X18047801Y-17137603D02*
X18028753Y-17147127D01*
X18228753Y-17270936D02*
X18238277Y-17280460D01*
X18238277Y-17280460D02*
X18228753Y-17289984D01*
X18228753Y-17289984D02*
X18219229Y-17280460D01*
X18219229Y-17280460D02*
X18228753Y-17270936D01*
X18228753Y-17270936D02*
X18228753Y-17289984D01*
X18428753Y-17289984D02*
X18314467Y-17289984D01*
X18371610Y-17289984D02*
X18371610Y-17089984D01*
X18371610Y-17089984D02*
X18352563Y-17118555D01*
X18352563Y-17118555D02*
X18333515Y-17137603D01*
X18333515Y-17137603D02*
X18314467Y-17147127D01*
X18552563Y-17089984D02*
X18571610Y-17089984D01*
X18571610Y-17089984D02*
X18590658Y-17099508D01*
X18590658Y-17099508D02*
X18600182Y-17109031D01*
X18600182Y-17109031D02*
X18609705Y-17128079D01*
X18609705Y-17128079D02*
X18619229Y-17166174D01*
X18619229Y-17166174D02*
X18619229Y-17213793D01*
X18619229Y-17213793D02*
X18609705Y-17251889D01*
X18609705Y-17251889D02*
X18600182Y-17270936D01*
X18600182Y-17270936D02*
X18590658Y-17280460D01*
X18590658Y-17280460D02*
X18571610Y-17289984D01*
X18571610Y-17289984D02*
X18552563Y-17289984D01*
X18552563Y-17289984D02*
X18533515Y-17280460D01*
X18533515Y-17280460D02*
X18523991Y-17270936D01*
X18523991Y-17270936D02*
X18514467Y-17251889D01*
X18514467Y-17251889D02*
X18504944Y-17213793D01*
X18504944Y-17213793D02*
X18504944Y-17166174D01*
X18504944Y-17166174D02*
X18514467Y-17128079D01*
X18514467Y-17128079D02*
X18523991Y-17109031D01*
X18523991Y-17109031D02*
X18533515Y-17099508D01*
X18533515Y-17099508D02*
X18552563Y-17089984D01*
X18743039Y-17089984D02*
X18762086Y-17089984D01*
X18762086Y-17089984D02*
X18781134Y-17099508D01*
X18781134Y-17099508D02*
X18790658Y-17109031D01*
X18790658Y-17109031D02*
X18800182Y-17128079D01*
X18800182Y-17128079D02*
X18809705Y-17166174D01*
X18809705Y-17166174D02*
X18809705Y-17213793D01*
X18809705Y-17213793D02*
X18800182Y-17251889D01*
X18800182Y-17251889D02*
X18790658Y-17270936D01*
X18790658Y-17270936D02*
X18781134Y-17280460D01*
X18781134Y-17280460D02*
X18762086Y-17289984D01*
X18762086Y-17289984D02*
X18743039Y-17289984D01*
X18743039Y-17289984D02*
X18723991Y-17280460D01*
X18723991Y-17280460D02*
X18714467Y-17270936D01*
X18714467Y-17270936D02*
X18704944Y-17251889D01*
X18704944Y-17251889D02*
X18695420Y-17213793D01*
X18695420Y-17213793D02*
X18695420Y-17166174D01*
X18695420Y-17166174D02*
X18704944Y-17128079D01*
X18704944Y-17128079D02*
X18714467Y-17109031D01*
X18714467Y-17109031D02*
X18723991Y-17099508D01*
X18723991Y-17099508D02*
X18743039Y-17089984D01*
X18895420Y-17289984D02*
X18895420Y-17156650D01*
X18895420Y-17175698D02*
X18904944Y-17166174D01*
X18904944Y-17166174D02*
X18923991Y-17156650D01*
X18923991Y-17156650D02*
X18952563Y-17156650D01*
X18952563Y-17156650D02*
X18971610Y-17166174D01*
X18971610Y-17166174D02*
X18981134Y-17185222D01*
X18981134Y-17185222D02*
X18981134Y-17289984D01*
X18981134Y-17185222D02*
X18990658Y-17166174D01*
X18990658Y-17166174D02*
X19009705Y-17156650D01*
X19009705Y-17156650D02*
X19038277Y-17156650D01*
X19038277Y-17156650D02*
X19057325Y-17166174D01*
X19057325Y-17166174D02*
X19066848Y-17185222D01*
X19066848Y-17185222D02*
X19066848Y-17289984D01*
X19162086Y-17289984D02*
X19162086Y-17156650D01*
X19162086Y-17175698D02*
X19171610Y-17166174D01*
X19171610Y-17166174D02*
X19190658Y-17156650D01*
X19190658Y-17156650D02*
X19219229Y-17156650D01*
X19219229Y-17156650D02*
X19238277Y-17166174D01*
X19238277Y-17166174D02*
X19247801Y-17185222D01*
X19247801Y-17185222D02*
X19247801Y-17289984D01*
X19247801Y-17185222D02*
X19257325Y-17166174D01*
X19257325Y-17166174D02*
X19276372Y-17156650D01*
X19276372Y-17156650D02*
X19304944Y-17156650D01*
X19304944Y-17156650D02*
X19323991Y-17166174D01*
X19323991Y-17166174D02*
X19333515Y-17185222D01*
X19333515Y-17185222D02*
X19333515Y-17289984D01*
X19723991Y-17080460D02*
X19552563Y-17337603D01*
X19981134Y-17089984D02*
X20000182Y-17089984D01*
X20000182Y-17089984D02*
X20019229Y-17099508D01*
X20019229Y-17099508D02*
X20028753Y-17109031D01*
X20028753Y-17109031D02*
X20038277Y-17128079D01*
X20038277Y-17128079D02*
X20047801Y-17166174D01*
X20047801Y-17166174D02*
X20047801Y-17213793D01*
X20047801Y-17213793D02*
X20038277Y-17251889D01*
X20038277Y-17251889D02*
X20028753Y-17270936D01*
X20028753Y-17270936D02*
X20019229Y-17280460D01*
X20019229Y-17280460D02*
X20000182Y-17289984D01*
X20000182Y-17289984D02*
X19981134Y-17289984D01*
X19981134Y-17289984D02*
X19962087Y-17280460D01*
X19962087Y-17280460D02*
X19952563Y-17270936D01*
X19952563Y-17270936D02*
X19943039Y-17251889D01*
X19943039Y-17251889D02*
X19933515Y-17213793D01*
X19933515Y-17213793D02*
X19933515Y-17166174D01*
X19933515Y-17166174D02*
X19943039Y-17128079D01*
X19943039Y-17128079D02*
X19952563Y-17109031D01*
X19952563Y-17109031D02*
X19962087Y-17099508D01*
X19962087Y-17099508D02*
X19981134Y-17089984D01*
X20133515Y-17270936D02*
X20143039Y-17280460D01*
X20143039Y-17280460D02*
X20133515Y-17289984D01*
X20133515Y-17289984D02*
X20123991Y-17280460D01*
X20123991Y-17280460D02*
X20133515Y-17270936D01*
X20133515Y-17270936D02*
X20133515Y-17289984D01*
X20266848Y-17089984D02*
X20285896Y-17089984D01*
X20285896Y-17089984D02*
X20304944Y-17099508D01*
X20304944Y-17099508D02*
X20314468Y-17109031D01*
X20314468Y-17109031D02*
X20323991Y-17128079D01*
X20323991Y-17128079D02*
X20333515Y-17166174D01*
X20333515Y-17166174D02*
X20333515Y-17213793D01*
X20333515Y-17213793D02*
X20323991Y-17251889D01*
X20323991Y-17251889D02*
X20314468Y-17270936D01*
X20314468Y-17270936D02*
X20304944Y-17280460D01*
X20304944Y-17280460D02*
X20285896Y-17289984D01*
X20285896Y-17289984D02*
X20266848Y-17289984D01*
X20266848Y-17289984D02*
X20247801Y-17280460D01*
X20247801Y-17280460D02*
X20238277Y-17270936D01*
X20238277Y-17270936D02*
X20228753Y-17251889D01*
X20228753Y-17251889D02*
X20219229Y-17213793D01*
X20219229Y-17213793D02*
X20219229Y-17166174D01*
X20219229Y-17166174D02*
X20228753Y-17128079D01*
X20228753Y-17128079D02*
X20238277Y-17109031D01*
X20238277Y-17109031D02*
X20247801Y-17099508D01*
X20247801Y-17099508D02*
X20266848Y-17089984D01*
X20504944Y-17156650D02*
X20504944Y-17289984D01*
X20457325Y-17080460D02*
X20409706Y-17223317D01*
X20409706Y-17223317D02*
X20533515Y-17223317D01*
X20590658Y-17089984D02*
X20714468Y-17089984D01*
X20714468Y-17089984D02*
X20647801Y-17166174D01*
X20647801Y-17166174D02*
X20676372Y-17166174D01*
X20676372Y-17166174D02*
X20695420Y-17175698D01*
X20695420Y-17175698D02*
X20704944Y-17185222D01*
X20704944Y-17185222D02*
X20714468Y-17204270D01*
X20714468Y-17204270D02*
X20714468Y-17251889D01*
X20714468Y-17251889D02*
X20704944Y-17270936D01*
X20704944Y-17270936D02*
X20695420Y-17280460D01*
X20695420Y-17280460D02*
X20676372Y-17289984D01*
X20676372Y-17289984D02*
X20619229Y-17289984D01*
X20619229Y-17289984D02*
X20600182Y-17280460D01*
X20600182Y-17280460D02*
X20590658Y-17270936D01*
X20781134Y-17089984D02*
X20904944Y-17089984D01*
X20904944Y-17089984D02*
X20838277Y-17166174D01*
X20838277Y-17166174D02*
X20866849Y-17166174D01*
X20866849Y-17166174D02*
X20885896Y-17175698D01*
X20885896Y-17175698D02*
X20895420Y-17185222D01*
X20895420Y-17185222D02*
X20904944Y-17204270D01*
X20904944Y-17204270D02*
X20904944Y-17251889D01*
X20904944Y-17251889D02*
X20895420Y-17270936D01*
X20895420Y-17270936D02*
X20885896Y-17280460D01*
X20885896Y-17280460D02*
X20866849Y-17289984D01*
X20866849Y-17289984D02*
X20809706Y-17289984D01*
X20809706Y-17289984D02*
X20790658Y-17280460D01*
X20790658Y-17280460D02*
X20781134Y-17270936D01*
X20981134Y-17089984D02*
X20981134Y-17128079D01*
X21057325Y-17089984D02*
X21057325Y-17128079D01*
X21352563Y-17366174D02*
X21343039Y-17356650D01*
X21343039Y-17356650D02*
X21323991Y-17328079D01*
X21323991Y-17328079D02*
X21314468Y-17309031D01*
X21314468Y-17309031D02*
X21304944Y-17280460D01*
X21304944Y-17280460D02*
X21295420Y-17232841D01*
X21295420Y-17232841D02*
X21295420Y-17194746D01*
X21295420Y-17194746D02*
X21304944Y-17147127D01*
X21304944Y-17147127D02*
X21314468Y-17118555D01*
X21314468Y-17118555D02*
X21323991Y-17099508D01*
X21323991Y-17099508D02*
X21343039Y-17070936D01*
X21343039Y-17070936D02*
X21352563Y-17061412D01*
X21514468Y-17156650D02*
X21514468Y-17289984D01*
X21466849Y-17080460D02*
X21419230Y-17223317D01*
X21419230Y-17223317D02*
X21543039Y-17223317D01*
X21771611Y-17289984D02*
X21771611Y-17089984D01*
X21857325Y-17289984D02*
X21857325Y-17185222D01*
X21857325Y-17185222D02*
X21847801Y-17166174D01*
X21847801Y-17166174D02*
X21828753Y-17156650D01*
X21828753Y-17156650D02*
X21800182Y-17156650D01*
X21800182Y-17156650D02*
X21781134Y-17166174D01*
X21781134Y-17166174D02*
X21771611Y-17175698D01*
X21981134Y-17289984D02*
X21962087Y-17280460D01*
X21962087Y-17280460D02*
X21952563Y-17270936D01*
X21952563Y-17270936D02*
X21943039Y-17251889D01*
X21943039Y-17251889D02*
X21943039Y-17194746D01*
X21943039Y-17194746D02*
X21952563Y-17175698D01*
X21952563Y-17175698D02*
X21962087Y-17166174D01*
X21962087Y-17166174D02*
X21981134Y-17156650D01*
X21981134Y-17156650D02*
X22009706Y-17156650D01*
X22009706Y-17156650D02*
X22028753Y-17166174D01*
X22028753Y-17166174D02*
X22038277Y-17175698D01*
X22038277Y-17175698D02*
X22047801Y-17194746D01*
X22047801Y-17194746D02*
X22047801Y-17251889D01*
X22047801Y-17251889D02*
X22038277Y-17270936D01*
X22038277Y-17270936D02*
X22028753Y-17280460D01*
X22028753Y-17280460D02*
X22009706Y-17289984D01*
X22009706Y-17289984D02*
X21981134Y-17289984D01*
X22162087Y-17289984D02*
X22143039Y-17280460D01*
X22143039Y-17280460D02*
X22133515Y-17261412D01*
X22133515Y-17261412D02*
X22133515Y-17089984D01*
X22314468Y-17280460D02*
X22295420Y-17289984D01*
X22295420Y-17289984D02*
X22257325Y-17289984D01*
X22257325Y-17289984D02*
X22238277Y-17280460D01*
X22238277Y-17280460D02*
X22228753Y-17261412D01*
X22228753Y-17261412D02*
X22228753Y-17185222D01*
X22228753Y-17185222D02*
X22238277Y-17166174D01*
X22238277Y-17166174D02*
X22257325Y-17156650D01*
X22257325Y-17156650D02*
X22295420Y-17156650D01*
X22295420Y-17156650D02*
X22314468Y-17166174D01*
X22314468Y-17166174D02*
X22323992Y-17185222D01*
X22323992Y-17185222D02*
X22323992Y-17204270D01*
X22323992Y-17204270D02*
X22228753Y-17223317D01*
X22400182Y-17280460D02*
X22419230Y-17289984D01*
X22419230Y-17289984D02*
X22457325Y-17289984D01*
X22457325Y-17289984D02*
X22476372Y-17280460D01*
X22476372Y-17280460D02*
X22485896Y-17261412D01*
X22485896Y-17261412D02*
X22485896Y-17251889D01*
X22485896Y-17251889D02*
X22476372Y-17232841D01*
X22476372Y-17232841D02*
X22457325Y-17223317D01*
X22457325Y-17223317D02*
X22428753Y-17223317D01*
X22428753Y-17223317D02*
X22409706Y-17213793D01*
X22409706Y-17213793D02*
X22400182Y-17194746D01*
X22400182Y-17194746D02*
X22400182Y-17185222D01*
X22400182Y-17185222D02*
X22409706Y-17166174D01*
X22409706Y-17166174D02*
X22428753Y-17156650D01*
X22428753Y-17156650D02*
X22457325Y-17156650D01*
X22457325Y-17156650D02*
X22476372Y-17166174D01*
X22552563Y-17366174D02*
X22562087Y-17356650D01*
X22562087Y-17356650D02*
X22581134Y-17328079D01*
X22581134Y-17328079D02*
X22590658Y-17309031D01*
X22590658Y-17309031D02*
X22600182Y-17280460D01*
X22600182Y-17280460D02*
X22609706Y-17232841D01*
X22609706Y-17232841D02*
X22609706Y-17194746D01*
X22609706Y-17194746D02*
X22600182Y-17147127D01*
X22600182Y-17147127D02*
X22590658Y-17118555D01*
X22590658Y-17118555D02*
X22581134Y-17099508D01*
X22581134Y-17099508D02*
X22562087Y-17070936D01*
X22562087Y-17070936D02*
X22552563Y-17061412D01*
X17577500Y-17362500D02*
X17777500Y-17562500D01*
X17777500Y-17362500D02*
X17577500Y-17562500D01*
X17777500Y-17462500D02*
G75*
G02*
X17577500Y-17462500I-100000J0D01*
G01*
X17577500Y-17462500D02*
G75*
G02*
X17777500Y-17462500I100000J0D01*
G01*
X18133515Y-17353984D02*
X18038277Y-17353984D01*
X18038277Y-17353984D02*
X18028753Y-17449222D01*
X18028753Y-17449222D02*
X18038277Y-17439698D01*
X18038277Y-17439698D02*
X18057324Y-17430174D01*
X18057324Y-17430174D02*
X18104944Y-17430174D01*
X18104944Y-17430174D02*
X18123991Y-17439698D01*
X18123991Y-17439698D02*
X18133515Y-17449222D01*
X18133515Y-17449222D02*
X18143039Y-17468270D01*
X18143039Y-17468270D02*
X18143039Y-17515889D01*
X18143039Y-17515889D02*
X18133515Y-17534936D01*
X18133515Y-17534936D02*
X18123991Y-17544460D01*
X18123991Y-17544460D02*
X18104944Y-17553984D01*
X18104944Y-17553984D02*
X18057324Y-17553984D01*
X18057324Y-17553984D02*
X18038277Y-17544460D01*
X18038277Y-17544460D02*
X18028753Y-17534936D01*
X18228753Y-17534936D02*
X18238277Y-17544460D01*
X18238277Y-17544460D02*
X18228753Y-17553984D01*
X18228753Y-17553984D02*
X18219229Y-17544460D01*
X18219229Y-17544460D02*
X18228753Y-17534936D01*
X18228753Y-17534936D02*
X18228753Y-17553984D01*
X18304944Y-17353984D02*
X18428753Y-17353984D01*
X18428753Y-17353984D02*
X18362086Y-17430174D01*
X18362086Y-17430174D02*
X18390658Y-17430174D01*
X18390658Y-17430174D02*
X18409705Y-17439698D01*
X18409705Y-17439698D02*
X18419229Y-17449222D01*
X18419229Y-17449222D02*
X18428753Y-17468270D01*
X18428753Y-17468270D02*
X18428753Y-17515889D01*
X18428753Y-17515889D02*
X18419229Y-17534936D01*
X18419229Y-17534936D02*
X18409705Y-17544460D01*
X18409705Y-17544460D02*
X18390658Y-17553984D01*
X18390658Y-17553984D02*
X18333515Y-17553984D01*
X18333515Y-17553984D02*
X18314467Y-17544460D01*
X18314467Y-17544460D02*
X18304944Y-17534936D01*
X18552563Y-17353984D02*
X18571610Y-17353984D01*
X18571610Y-17353984D02*
X18590658Y-17363508D01*
X18590658Y-17363508D02*
X18600182Y-17373031D01*
X18600182Y-17373031D02*
X18609705Y-17392079D01*
X18609705Y-17392079D02*
X18619229Y-17430174D01*
X18619229Y-17430174D02*
X18619229Y-17477793D01*
X18619229Y-17477793D02*
X18609705Y-17515889D01*
X18609705Y-17515889D02*
X18600182Y-17534936D01*
X18600182Y-17534936D02*
X18590658Y-17544460D01*
X18590658Y-17544460D02*
X18571610Y-17553984D01*
X18571610Y-17553984D02*
X18552563Y-17553984D01*
X18552563Y-17553984D02*
X18533515Y-17544460D01*
X18533515Y-17544460D02*
X18523991Y-17534936D01*
X18523991Y-17534936D02*
X18514467Y-17515889D01*
X18514467Y-17515889D02*
X18504944Y-17477793D01*
X18504944Y-17477793D02*
X18504944Y-17430174D01*
X18504944Y-17430174D02*
X18514467Y-17392079D01*
X18514467Y-17392079D02*
X18523991Y-17373031D01*
X18523991Y-17373031D02*
X18533515Y-17363508D01*
X18533515Y-17363508D02*
X18552563Y-17353984D01*
X18743039Y-17353984D02*
X18762086Y-17353984D01*
X18762086Y-17353984D02*
X18781134Y-17363508D01*
X18781134Y-17363508D02*
X18790658Y-17373031D01*
X18790658Y-17373031D02*
X18800182Y-17392079D01*
X18800182Y-17392079D02*
X18809705Y-17430174D01*
X18809705Y-17430174D02*
X18809705Y-17477793D01*
X18809705Y-17477793D02*
X18800182Y-17515889D01*
X18800182Y-17515889D02*
X18790658Y-17534936D01*
X18790658Y-17534936D02*
X18781134Y-17544460D01*
X18781134Y-17544460D02*
X18762086Y-17553984D01*
X18762086Y-17553984D02*
X18743039Y-17553984D01*
X18743039Y-17553984D02*
X18723991Y-17544460D01*
X18723991Y-17544460D02*
X18714467Y-17534936D01*
X18714467Y-17534936D02*
X18704944Y-17515889D01*
X18704944Y-17515889D02*
X18695420Y-17477793D01*
X18695420Y-17477793D02*
X18695420Y-17430174D01*
X18695420Y-17430174D02*
X18704944Y-17392079D01*
X18704944Y-17392079D02*
X18714467Y-17373031D01*
X18714467Y-17373031D02*
X18723991Y-17363508D01*
X18723991Y-17363508D02*
X18743039Y-17353984D01*
X18895420Y-17553984D02*
X18895420Y-17420650D01*
X18895420Y-17439698D02*
X18904944Y-17430174D01*
X18904944Y-17430174D02*
X18923991Y-17420650D01*
X18923991Y-17420650D02*
X18952563Y-17420650D01*
X18952563Y-17420650D02*
X18971610Y-17430174D01*
X18971610Y-17430174D02*
X18981134Y-17449222D01*
X18981134Y-17449222D02*
X18981134Y-17553984D01*
X18981134Y-17449222D02*
X18990658Y-17430174D01*
X18990658Y-17430174D02*
X19009705Y-17420650D01*
X19009705Y-17420650D02*
X19038277Y-17420650D01*
X19038277Y-17420650D02*
X19057325Y-17430174D01*
X19057325Y-17430174D02*
X19066848Y-17449222D01*
X19066848Y-17449222D02*
X19066848Y-17553984D01*
X19162086Y-17553984D02*
X19162086Y-17420650D01*
X19162086Y-17439698D02*
X19171610Y-17430174D01*
X19171610Y-17430174D02*
X19190658Y-17420650D01*
X19190658Y-17420650D02*
X19219229Y-17420650D01*
X19219229Y-17420650D02*
X19238277Y-17430174D01*
X19238277Y-17430174D02*
X19247801Y-17449222D01*
X19247801Y-17449222D02*
X19247801Y-17553984D01*
X19247801Y-17449222D02*
X19257325Y-17430174D01*
X19257325Y-17430174D02*
X19276372Y-17420650D01*
X19276372Y-17420650D02*
X19304944Y-17420650D01*
X19304944Y-17420650D02*
X19323991Y-17430174D01*
X19323991Y-17430174D02*
X19333515Y-17449222D01*
X19333515Y-17449222D02*
X19333515Y-17553984D01*
X19723991Y-17344460D02*
X19552563Y-17601603D01*
X19981134Y-17353984D02*
X20000182Y-17353984D01*
X20000182Y-17353984D02*
X20019229Y-17363508D01*
X20019229Y-17363508D02*
X20028753Y-17373031D01*
X20028753Y-17373031D02*
X20038277Y-17392079D01*
X20038277Y-17392079D02*
X20047801Y-17430174D01*
X20047801Y-17430174D02*
X20047801Y-17477793D01*
X20047801Y-17477793D02*
X20038277Y-17515889D01*
X20038277Y-17515889D02*
X20028753Y-17534936D01*
X20028753Y-17534936D02*
X20019229Y-17544460D01*
X20019229Y-17544460D02*
X20000182Y-17553984D01*
X20000182Y-17553984D02*
X19981134Y-17553984D01*
X19981134Y-17553984D02*
X19962087Y-17544460D01*
X19962087Y-17544460D02*
X19952563Y-17534936D01*
X19952563Y-17534936D02*
X19943039Y-17515889D01*
X19943039Y-17515889D02*
X19933515Y-17477793D01*
X19933515Y-17477793D02*
X19933515Y-17430174D01*
X19933515Y-17430174D02*
X19943039Y-17392079D01*
X19943039Y-17392079D02*
X19952563Y-17373031D01*
X19952563Y-17373031D02*
X19962087Y-17363508D01*
X19962087Y-17363508D02*
X19981134Y-17353984D01*
X20133515Y-17534936D02*
X20143039Y-17544460D01*
X20143039Y-17544460D02*
X20133515Y-17553984D01*
X20133515Y-17553984D02*
X20123991Y-17544460D01*
X20123991Y-17544460D02*
X20133515Y-17534936D01*
X20133515Y-17534936D02*
X20133515Y-17553984D01*
X20219229Y-17373031D02*
X20228753Y-17363508D01*
X20228753Y-17363508D02*
X20247801Y-17353984D01*
X20247801Y-17353984D02*
X20295420Y-17353984D01*
X20295420Y-17353984D02*
X20314468Y-17363508D01*
X20314468Y-17363508D02*
X20323991Y-17373031D01*
X20323991Y-17373031D02*
X20333515Y-17392079D01*
X20333515Y-17392079D02*
X20333515Y-17411127D01*
X20333515Y-17411127D02*
X20323991Y-17439698D01*
X20323991Y-17439698D02*
X20209706Y-17553984D01*
X20209706Y-17553984D02*
X20333515Y-17553984D01*
X20457325Y-17353984D02*
X20476372Y-17353984D01*
X20476372Y-17353984D02*
X20495420Y-17363508D01*
X20495420Y-17363508D02*
X20504944Y-17373031D01*
X20504944Y-17373031D02*
X20514468Y-17392079D01*
X20514468Y-17392079D02*
X20523991Y-17430174D01*
X20523991Y-17430174D02*
X20523991Y-17477793D01*
X20523991Y-17477793D02*
X20514468Y-17515889D01*
X20514468Y-17515889D02*
X20504944Y-17534936D01*
X20504944Y-17534936D02*
X20495420Y-17544460D01*
X20495420Y-17544460D02*
X20476372Y-17553984D01*
X20476372Y-17553984D02*
X20457325Y-17553984D01*
X20457325Y-17553984D02*
X20438277Y-17544460D01*
X20438277Y-17544460D02*
X20428753Y-17534936D01*
X20428753Y-17534936D02*
X20419229Y-17515889D01*
X20419229Y-17515889D02*
X20409706Y-17477793D01*
X20409706Y-17477793D02*
X20409706Y-17430174D01*
X20409706Y-17430174D02*
X20419229Y-17392079D01*
X20419229Y-17392079D02*
X20428753Y-17373031D01*
X20428753Y-17373031D02*
X20438277Y-17363508D01*
X20438277Y-17363508D02*
X20457325Y-17353984D01*
X20638277Y-17439698D02*
X20619229Y-17430174D01*
X20619229Y-17430174D02*
X20609706Y-17420650D01*
X20609706Y-17420650D02*
X20600182Y-17401603D01*
X20600182Y-17401603D02*
X20600182Y-17392079D01*
X20600182Y-17392079D02*
X20609706Y-17373031D01*
X20609706Y-17373031D02*
X20619229Y-17363508D01*
X20619229Y-17363508D02*
X20638277Y-17353984D01*
X20638277Y-17353984D02*
X20676372Y-17353984D01*
X20676372Y-17353984D02*
X20695420Y-17363508D01*
X20695420Y-17363508D02*
X20704944Y-17373031D01*
X20704944Y-17373031D02*
X20714468Y-17392079D01*
X20714468Y-17392079D02*
X20714468Y-17401603D01*
X20714468Y-17401603D02*
X20704944Y-17420650D01*
X20704944Y-17420650D02*
X20695420Y-17430174D01*
X20695420Y-17430174D02*
X20676372Y-17439698D01*
X20676372Y-17439698D02*
X20638277Y-17439698D01*
X20638277Y-17439698D02*
X20619229Y-17449222D01*
X20619229Y-17449222D02*
X20609706Y-17458746D01*
X20609706Y-17458746D02*
X20600182Y-17477793D01*
X20600182Y-17477793D02*
X20600182Y-17515889D01*
X20600182Y-17515889D02*
X20609706Y-17534936D01*
X20609706Y-17534936D02*
X20619229Y-17544460D01*
X20619229Y-17544460D02*
X20638277Y-17553984D01*
X20638277Y-17553984D02*
X20676372Y-17553984D01*
X20676372Y-17553984D02*
X20695420Y-17544460D01*
X20695420Y-17544460D02*
X20704944Y-17534936D01*
X20704944Y-17534936D02*
X20714468Y-17515889D01*
X20714468Y-17515889D02*
X20714468Y-17477793D01*
X20714468Y-17477793D02*
X20704944Y-17458746D01*
X20704944Y-17458746D02*
X20695420Y-17449222D01*
X20695420Y-17449222D02*
X20676372Y-17439698D01*
X20781134Y-17353984D02*
X20914468Y-17353984D01*
X20914468Y-17353984D02*
X20828753Y-17553984D01*
X20981134Y-17353984D02*
X20981134Y-17392079D01*
X21057325Y-17353984D02*
X21057325Y-17392079D01*
X21352563Y-17630174D02*
X21343039Y-17620650D01*
X21343039Y-17620650D02*
X21323991Y-17592079D01*
X21323991Y-17592079D02*
X21314468Y-17573031D01*
X21314468Y-17573031D02*
X21304944Y-17544460D01*
X21304944Y-17544460D02*
X21295420Y-17496841D01*
X21295420Y-17496841D02*
X21295420Y-17458746D01*
X21295420Y-17458746D02*
X21304944Y-17411127D01*
X21304944Y-17411127D02*
X21314468Y-17382555D01*
X21314468Y-17382555D02*
X21323991Y-17363508D01*
X21323991Y-17363508D02*
X21343039Y-17334936D01*
X21343039Y-17334936D02*
X21352563Y-17325412D01*
X21409706Y-17353984D02*
X21533515Y-17353984D01*
X21533515Y-17353984D02*
X21466849Y-17430174D01*
X21466849Y-17430174D02*
X21495420Y-17430174D01*
X21495420Y-17430174D02*
X21514468Y-17439698D01*
X21514468Y-17439698D02*
X21523991Y-17449222D01*
X21523991Y-17449222D02*
X21533515Y-17468270D01*
X21533515Y-17468270D02*
X21533515Y-17515889D01*
X21533515Y-17515889D02*
X21523991Y-17534936D01*
X21523991Y-17534936D02*
X21514468Y-17544460D01*
X21514468Y-17544460D02*
X21495420Y-17553984D01*
X21495420Y-17553984D02*
X21438277Y-17553984D01*
X21438277Y-17553984D02*
X21419230Y-17544460D01*
X21419230Y-17544460D02*
X21409706Y-17534936D01*
X21771611Y-17553984D02*
X21771611Y-17353984D01*
X21857325Y-17553984D02*
X21857325Y-17449222D01*
X21857325Y-17449222D02*
X21847801Y-17430174D01*
X21847801Y-17430174D02*
X21828753Y-17420650D01*
X21828753Y-17420650D02*
X21800182Y-17420650D01*
X21800182Y-17420650D02*
X21781134Y-17430174D01*
X21781134Y-17430174D02*
X21771611Y-17439698D01*
X21981134Y-17553984D02*
X21962087Y-17544460D01*
X21962087Y-17544460D02*
X21952563Y-17534936D01*
X21952563Y-17534936D02*
X21943039Y-17515889D01*
X21943039Y-17515889D02*
X21943039Y-17458746D01*
X21943039Y-17458746D02*
X21952563Y-17439698D01*
X21952563Y-17439698D02*
X21962087Y-17430174D01*
X21962087Y-17430174D02*
X21981134Y-17420650D01*
X21981134Y-17420650D02*
X22009706Y-17420650D01*
X22009706Y-17420650D02*
X22028753Y-17430174D01*
X22028753Y-17430174D02*
X22038277Y-17439698D01*
X22038277Y-17439698D02*
X22047801Y-17458746D01*
X22047801Y-17458746D02*
X22047801Y-17515889D01*
X22047801Y-17515889D02*
X22038277Y-17534936D01*
X22038277Y-17534936D02*
X22028753Y-17544460D01*
X22028753Y-17544460D02*
X22009706Y-17553984D01*
X22009706Y-17553984D02*
X21981134Y-17553984D01*
X22162087Y-17553984D02*
X22143039Y-17544460D01*
X22143039Y-17544460D02*
X22133515Y-17525412D01*
X22133515Y-17525412D02*
X22133515Y-17353984D01*
X22314468Y-17544460D02*
X22295420Y-17553984D01*
X22295420Y-17553984D02*
X22257325Y-17553984D01*
X22257325Y-17553984D02*
X22238277Y-17544460D01*
X22238277Y-17544460D02*
X22228753Y-17525412D01*
X22228753Y-17525412D02*
X22228753Y-17449222D01*
X22228753Y-17449222D02*
X22238277Y-17430174D01*
X22238277Y-17430174D02*
X22257325Y-17420650D01*
X22257325Y-17420650D02*
X22295420Y-17420650D01*
X22295420Y-17420650D02*
X22314468Y-17430174D01*
X22314468Y-17430174D02*
X22323992Y-17449222D01*
X22323992Y-17449222D02*
X22323992Y-17468270D01*
X22323992Y-17468270D02*
X22228753Y-17487317D01*
X22400182Y-17544460D02*
X22419230Y-17553984D01*
X22419230Y-17553984D02*
X22457325Y-17553984D01*
X22457325Y-17553984D02*
X22476372Y-17544460D01*
X22476372Y-17544460D02*
X22485896Y-17525412D01*
X22485896Y-17525412D02*
X22485896Y-17515889D01*
X22485896Y-17515889D02*
X22476372Y-17496841D01*
X22476372Y-17496841D02*
X22457325Y-17487317D01*
X22457325Y-17487317D02*
X22428753Y-17487317D01*
X22428753Y-17487317D02*
X22409706Y-17477793D01*
X22409706Y-17477793D02*
X22400182Y-17458746D01*
X22400182Y-17458746D02*
X22400182Y-17449222D01*
X22400182Y-17449222D02*
X22409706Y-17430174D01*
X22409706Y-17430174D02*
X22428753Y-17420650D01*
X22428753Y-17420650D02*
X22457325Y-17420650D01*
X22457325Y-17420650D02*
X22476372Y-17430174D01*
X22552563Y-17630174D02*
X22562087Y-17620650D01*
X22562087Y-17620650D02*
X22581134Y-17592079D01*
X22581134Y-17592079D02*
X22590658Y-17573031D01*
X22590658Y-17573031D02*
X22600182Y-17544460D01*
X22600182Y-17544460D02*
X22609706Y-17496841D01*
X22609706Y-17496841D02*
X22609706Y-17458746D01*
X22609706Y-17458746D02*
X22600182Y-17411127D01*
X22600182Y-17411127D02*
X22590658Y-17382555D01*
X22590658Y-17382555D02*
X22581134Y-17363508D01*
X22581134Y-17363508D02*
X22562087Y-17334936D01*
X22562087Y-17334936D02*
X22552563Y-17325412D01*
M02*
