%TF.GenerationSoftware,KiCad,Pcbnew,8.0.0*%
%TF.CreationDate,2024-05-29T15:57:02+02:00*%
%TF.ProjectId,FIR_filter_G431KB,4649525f-6669-46c7-9465-725f47343331,rev?*%
%TF.SameCoordinates,Original*%
%TF.FileFunction,Soldermask,Top*%
%TF.FilePolarity,Negative*%
%FSLAX46Y46*%
G04 Gerber Fmt 4.6, Leading zero omitted, Abs format (unit mm)*
G04 Created by KiCad (PCBNEW 8.0.0) date 2024-05-29 15:57:02*
%MOMM*%
%LPD*%
G01*
G04 APERTURE LIST*
G04 Aperture macros list*
%AMRoundRect*
0 Rectangle with rounded corners*
0 $1 Rounding radius*
0 $2 $3 $4 $5 $6 $7 $8 $9 X,Y pos of 4 corners*
0 Add a 4 corners polygon primitive as box body*
4,1,4,$2,$3,$4,$5,$6,$7,$8,$9,$2,$3,0*
0 Add four circle primitives for the rounded corners*
1,1,$1+$1,$2,$3*
1,1,$1+$1,$4,$5*
1,1,$1+$1,$6,$7*
1,1,$1+$1,$8,$9*
0 Add four rect primitives between the rounded corners*
20,1,$1+$1,$2,$3,$4,$5,0*
20,1,$1+$1,$4,$5,$6,$7,0*
20,1,$1+$1,$6,$7,$8,$9,0*
20,1,$1+$1,$8,$9,$2,$3,0*%
G04 Aperture macros list end*
%ADD10C,1.600000*%
%ADD11O,1.600000X1.600000*%
%ADD12R,1.600000X1.600000*%
%ADD13C,2.200000*%
%ADD14RoundRect,0.102000X-0.765000X-0.765000X0.765000X-0.765000X0.765000X0.765000X-0.765000X0.765000X0*%
%ADD15C,1.734000*%
%ADD16R,1.700000X1.700000*%
%ADD17O,1.700000X1.700000*%
%ADD18C,9.200000*%
%ADD19R,1.800000X1.800000*%
%ADD20C,1.800000*%
G04 APERTURE END LIST*
D10*
%TO.C,R4*%
X241300000Y-110550000D03*
D11*
X241300000Y-120710000D03*
%TD*%
D10*
%TO.C,R3*%
X184700000Y-106200000D03*
D11*
X184700000Y-116360000D03*
%TD*%
D10*
%TO.C,R1*%
X225120000Y-136560000D03*
D11*
X225120000Y-146720000D03*
%TD*%
D12*
%TO.C,D1*%
X228910000Y-144240000D03*
D11*
X228910000Y-136620000D03*
%TD*%
D10*
%TO.C,R2*%
X236500000Y-146800000D03*
D11*
X236500000Y-136640000D03*
%TD*%
D10*
%TO.C,R5*%
X188770000Y-126530000D03*
D11*
X188770000Y-116370000D03*
%TD*%
D13*
%TO.C,C1*%
X248200000Y-121550000D03*
X248200000Y-136550000D03*
%TD*%
D12*
%TO.C,D2*%
X232600000Y-136640000D03*
D11*
X232600000Y-144260000D03*
%TD*%
D14*
%TO.C,U1*%
X200060000Y-108700000D03*
D15*
X200060000Y-111240000D03*
X200060000Y-113780000D03*
X200060000Y-116320000D03*
X200060000Y-118860000D03*
X200060000Y-121400000D03*
X200060000Y-123940000D03*
X200060000Y-126480000D03*
X200060000Y-129020000D03*
X200060000Y-131560000D03*
X200060000Y-134100000D03*
X200060000Y-136640000D03*
X200060000Y-139180000D03*
X200060000Y-141720000D03*
X200060000Y-144260000D03*
D14*
X215300000Y-108700000D03*
D15*
X215300000Y-111240000D03*
X215300000Y-113780000D03*
X215300000Y-116320000D03*
X215300000Y-118860000D03*
X215300000Y-121400000D03*
X215300000Y-123940000D03*
X215300000Y-126480000D03*
X215300000Y-129020000D03*
X215300000Y-131560000D03*
X215300000Y-134100000D03*
X215300000Y-136640000D03*
X215300000Y-139180000D03*
X215300000Y-141720000D03*
X215300000Y-144260000D03*
%TD*%
D16*
%TO.C,J4*%
X184300000Y-123500000D03*
D17*
X184300000Y-126040000D03*
%TD*%
D13*
%TO.C,C2*%
X226300000Y-127100000D03*
X241300000Y-127100000D03*
%TD*%
D18*
%TO.C,*%
X260350000Y-102300000D03*
%TD*%
D16*
%TO.C,J5*%
X260200000Y-138040000D03*
D17*
X260200000Y-135500000D03*
%TD*%
D16*
%TO.C,J1*%
X193450000Y-136800000D03*
D17*
X193450000Y-139340000D03*
X193450000Y-141880000D03*
%TD*%
D18*
%TO.C,REF\u002A\u002A*%
X260350000Y-148000000D03*
%TD*%
D19*
%TO.C,D3*%
X191600000Y-106240000D03*
D20*
X191600000Y-103700000D03*
%TD*%
D16*
%TO.C,J2*%
X230700000Y-101900000D03*
D17*
X228160000Y-101900000D03*
X225620000Y-101900000D03*
%TD*%
D18*
%TO.C,REF\u002A\u002A*%
X184150000Y-148650000D03*
%TD*%
D16*
%TO.C,J3*%
X245660000Y-101700000D03*
D17*
X248200000Y-101700000D03*
%TD*%
D19*
%TO.C,D4*%
X193400000Y-126440000D03*
D20*
X193400000Y-123900000D03*
%TD*%
M02*
