%TF.GenerationSoftware,KiCad,Pcbnew,8.0.0*%
%TF.CreationDate,2024-05-29T16:09:35+02:00*%
%TF.ProjectId,Remote_Board_L476RG,52656d6f-7465-45f4-926f-6172645f4c34,rev?*%
%TF.SameCoordinates,Original*%
%TF.FileFunction,Drillmap*%
%TF.FilePolarity,Positive*%
%FSLAX45Y45*%
G04 Gerber Fmt 4.5, Leading zero omitted, Abs format (unit mm)*
G04 Created by KiCad (PCBNEW 8.0.0) date 2024-05-29 16:09:35*
%MOMM*%
%LPD*%
G01*
G04 APERTURE LIST*
%ADD10C,0.050000*%
%ADD11C,0.200000*%
%ADD12C,0.100000*%
%ADD13C,0.130000*%
G04 APERTURE END LIST*
D10*
X7600000Y-3000000D02*
X27500000Y-3000000D01*
X27500000Y-15300000D01*
X7600000Y-15300000D01*
X7600000Y-3000000D01*
X8620000Y-4675000D02*
X11445000Y-4675000D01*
X11445000Y-8400000D01*
X8620000Y-8400000D01*
X8620000Y-4675000D01*
X14750000Y-3550000D02*
X20250000Y-3550000D01*
X20250000Y-7250000D01*
X14750000Y-7250000D01*
X14750000Y-3550000D01*
D11*
D12*
X10010000Y-8970000D02*
X10070000Y-9030000D01*
X10070000Y-8970000D02*
X10010000Y-9030000D01*
X10010000Y-9770000D02*
X10070000Y-9830000D01*
X10070000Y-9770000D02*
X10010000Y-9830000D01*
X10290000Y-8970000D02*
X10350000Y-9030000D01*
X10350000Y-8970000D02*
X10290000Y-9030000D01*
X10290000Y-9770000D02*
X10350000Y-9830000D01*
X10350000Y-9770000D02*
X10290000Y-9830000D01*
X10550000Y-8970000D02*
X10610000Y-9030000D01*
X10610000Y-8970000D02*
X10550000Y-9030000D01*
X10550000Y-9770000D02*
X10610000Y-9830000D01*
X10610000Y-9770000D02*
X10550000Y-9830000D01*
X11070000Y-10650000D02*
X11130000Y-10710000D01*
X11130000Y-10650000D02*
X11070000Y-10710000D01*
X11250000Y-10440000D02*
X11310000Y-10500000D01*
X11310000Y-10440000D02*
X11250000Y-10500000D01*
X11440000Y-10230000D02*
X11500000Y-10290000D01*
X11500000Y-10230000D02*
X11440000Y-10290000D01*
X11620000Y-10080000D02*
X11680000Y-10140000D01*
X11680000Y-10080000D02*
X11620000Y-10140000D01*
X12470000Y-10050000D02*
X12530000Y-10110000D01*
X12530000Y-10050000D02*
X12470000Y-10110000D01*
X13320000Y-4840000D02*
X13380000Y-4900000D01*
X13380000Y-4840000D02*
X13320000Y-4900000D01*
X13320000Y-6360000D02*
X13380000Y-6420000D01*
X13380000Y-6360000D02*
X13320000Y-6420000D01*
X13900000Y-4600000D02*
X13960000Y-4660000D01*
X13960000Y-4600000D02*
X13900000Y-4660000D01*
X13900000Y-6120000D02*
X13960000Y-6180000D01*
X13960000Y-6120000D02*
X13900000Y-6180000D01*
X13930000Y-12890000D02*
X13990000Y-12950000D01*
X13990000Y-12890000D02*
X13930000Y-12950000D01*
X14070000Y-10910000D02*
X14130000Y-10970000D01*
X14130000Y-10910000D02*
X14070000Y-10970000D01*
X14270000Y-6120000D02*
X14330000Y-6180000D01*
X14330000Y-6120000D02*
X14270000Y-6180000D01*
X14405000Y-8665000D02*
X14465000Y-8725000D01*
X14465000Y-8665000D02*
X14405000Y-8725000D01*
X14425000Y-8435000D02*
X14485000Y-8495000D01*
X14485000Y-8435000D02*
X14425000Y-8495000D01*
X14950000Y-10230000D02*
X15010000Y-10290000D01*
X15010000Y-10230000D02*
X14950000Y-10290000D01*
X16170000Y-8720000D02*
X16230000Y-8780000D01*
X16230000Y-8720000D02*
X16170000Y-8780000D01*
X16300000Y-9030000D02*
X16360000Y-9090000D01*
X16360000Y-9030000D02*
X16300000Y-9090000D01*
X16830000Y-8770000D02*
X16890000Y-8830000D01*
X16890000Y-8770000D02*
X16830000Y-8830000D01*
X16840000Y-9080000D02*
X16900000Y-9140000D01*
X16900000Y-9080000D02*
X16840000Y-9140000D01*
X16840000Y-9080000D02*
X16900000Y-9140000D01*
X16900000Y-9080000D02*
X16840000Y-9140000D01*
X17680000Y-11520000D02*
X17740000Y-11580000D01*
X17740000Y-11520000D02*
X17680000Y-11580000D01*
X17680000Y-12260000D02*
X17740000Y-12320000D01*
X17740000Y-12260000D02*
X17680000Y-12320000D01*
X20250000Y-8020000D02*
X20310000Y-8080000D01*
X20310000Y-8020000D02*
X20250000Y-8080000D01*
X20920000Y-12100000D02*
X20980000Y-12160000D01*
X20980000Y-12100000D02*
X20920000Y-12160000D01*
X21020000Y-6700000D02*
X21080000Y-6760000D01*
X21080000Y-6700000D02*
X21020000Y-6760000D01*
X21140000Y-11100000D02*
X21200000Y-11160000D01*
X21200000Y-11100000D02*
X21140000Y-11160000D01*
X21140000Y-12530000D02*
X21200000Y-12590000D01*
X21200000Y-12530000D02*
X21140000Y-12590000D01*
X22080000Y-9310000D02*
X22140000Y-9370000D01*
X22140000Y-9310000D02*
X22080000Y-9370000D01*
X22270000Y-12850000D02*
X22330000Y-12910000D01*
X22330000Y-12850000D02*
X22270000Y-12910000D01*
X22670000Y-6690000D02*
X22730000Y-6750000D01*
X22730000Y-6690000D02*
X22670000Y-6750000D01*
X22980000Y-14410000D02*
X23040000Y-14470000D01*
X23040000Y-14410000D02*
X22980000Y-14470000D01*
X24290000Y-5630000D02*
X24350000Y-5690000D01*
X24350000Y-5630000D02*
X24290000Y-5690000D01*
X24370000Y-6890000D02*
X24430000Y-6950000D01*
X24430000Y-6890000D02*
X24370000Y-6950000D01*
X24650000Y-7780000D02*
X24710000Y-7840000D01*
X24710000Y-7780000D02*
X24650000Y-7840000D01*
X24650000Y-7780000D02*
X24710000Y-7840000D01*
X24710000Y-7780000D02*
X24650000Y-7840000D01*
X25120000Y-6450000D02*
X25180000Y-6510000D01*
X25180000Y-6450000D02*
X25120000Y-6510000D01*
X23828100Y-12890000D02*
G75*
G02*
X23751900Y-12890000I-38100J0D01*
G01*
X23751900Y-12890000D02*
G75*
G02*
X23828100Y-12890000I38100J0D01*
G01*
X23828100Y-13390000D02*
G75*
G02*
X23751900Y-13390000I-38100J0D01*
G01*
X23751900Y-13390000D02*
G75*
G02*
X23828100Y-13390000I38100J0D01*
G01*
X23928100Y-6470000D02*
G75*
G02*
X23851900Y-6470000I-38100J0D01*
G01*
X23851900Y-6470000D02*
G75*
G02*
X23928100Y-6470000I38100J0D01*
G01*
X24428100Y-6470000D02*
G75*
G02*
X24351900Y-6470000I-38100J0D01*
G01*
X24351900Y-6470000D02*
G75*
G02*
X24428100Y-6470000I38100J0D01*
G01*
X24718100Y-5660000D02*
G75*
G02*
X24641900Y-5660000I-38100J0D01*
G01*
X24641900Y-5660000D02*
G75*
G02*
X24718100Y-5660000I38100J0D01*
G01*
X24718100Y-7360000D02*
G75*
G02*
X24641900Y-7360000I-38100J0D01*
G01*
X24641900Y-7360000D02*
G75*
G02*
X24718100Y-7360000I38100J0D01*
G01*
X25218100Y-5660000D02*
G75*
G02*
X25141900Y-5660000I-38100J0D01*
G01*
X25141900Y-5660000D02*
G75*
G02*
X25218100Y-5660000I38100J0D01*
G01*
X25218100Y-7360000D02*
G75*
G02*
X25141900Y-7360000I-38100J0D01*
G01*
X25141900Y-7360000D02*
G75*
G02*
X25218100Y-7360000I38100J0D01*
G01*
X25518100Y-6490000D02*
G75*
G02*
X25441900Y-6490000I-38100J0D01*
G01*
X25441900Y-6490000D02*
G75*
G02*
X25518100Y-6490000I38100J0D01*
G01*
X26018100Y-6490000D02*
G75*
G02*
X25941900Y-6490000I-38100J0D01*
G01*
X25941900Y-6490000D02*
G75*
G02*
X26018100Y-6490000I38100J0D01*
G01*
X8164000Y-3600000D02*
X8164000Y-3680000D01*
X8124000Y-3640000D02*
X8204000Y-3640000D01*
X9180000Y-3600000D02*
X9180000Y-3680000D01*
X9140000Y-3640000D02*
X9220000Y-3640000D01*
X11874000Y-11920000D02*
X11874000Y-12000000D01*
X11834000Y-11960000D02*
X11914000Y-11960000D01*
X11874000Y-12680000D02*
X11874000Y-12760000D01*
X11834000Y-12720000D02*
X11914000Y-12720000D01*
X11874000Y-13430000D02*
X11874000Y-13510000D01*
X11834000Y-13470000D02*
X11914000Y-13470000D01*
X11884000Y-11170000D02*
X11884000Y-11250000D01*
X11844000Y-11210000D02*
X11924000Y-11210000D01*
X12060000Y-9834000D02*
X12060000Y-9914000D01*
X12020000Y-9874000D02*
X12100000Y-9874000D01*
X12060000Y-10596000D02*
X12060000Y-10676000D01*
X12020000Y-10636000D02*
X12100000Y-10636000D01*
X12314000Y-9834000D02*
X12314000Y-9914000D01*
X12274000Y-9874000D02*
X12354000Y-9874000D01*
X12314000Y-10596000D02*
X12314000Y-10676000D01*
X12274000Y-10636000D02*
X12354000Y-10636000D01*
X12390000Y-11540000D02*
X12390000Y-11620000D01*
X12350000Y-11580000D02*
X12430000Y-11580000D01*
X12390000Y-12290000D02*
X12390000Y-12370000D01*
X12350000Y-12330000D02*
X12430000Y-12330000D01*
X12390000Y-13050000D02*
X12390000Y-13130000D01*
X12350000Y-13090000D02*
X12430000Y-13090000D01*
X12390000Y-13800000D02*
X12390000Y-13880000D01*
X12350000Y-13840000D02*
X12430000Y-13840000D01*
X12568000Y-9834000D02*
X12568000Y-9914000D01*
X12528000Y-9874000D02*
X12608000Y-9874000D01*
X12568000Y-10596000D02*
X12568000Y-10676000D01*
X12528000Y-10636000D02*
X12608000Y-10636000D01*
X12822000Y-9834000D02*
X12822000Y-9914000D01*
X12782000Y-9874000D02*
X12862000Y-9874000D01*
X12822000Y-10596000D02*
X12822000Y-10676000D01*
X12782000Y-10636000D02*
X12862000Y-10636000D01*
X12890000Y-11540000D02*
X12890000Y-11620000D01*
X12850000Y-11580000D02*
X12930000Y-11580000D01*
X12890000Y-11920000D02*
X12890000Y-12000000D01*
X12850000Y-11960000D02*
X12930000Y-11960000D01*
X12890000Y-12290000D02*
X12890000Y-12370000D01*
X12850000Y-12330000D02*
X12930000Y-12330000D01*
X12890000Y-12680000D02*
X12890000Y-12760000D01*
X12850000Y-12720000D02*
X12930000Y-12720000D01*
X12890000Y-13050000D02*
X12890000Y-13130000D01*
X12850000Y-13090000D02*
X12930000Y-13090000D01*
X12890000Y-13430000D02*
X12890000Y-13510000D01*
X12850000Y-13470000D02*
X12930000Y-13470000D01*
X12890000Y-13800000D02*
X12890000Y-13880000D01*
X12850000Y-13840000D02*
X12930000Y-13840000D01*
X12900000Y-11170000D02*
X12900000Y-11250000D01*
X12860000Y-11210000D02*
X12940000Y-11210000D01*
X13076000Y-9834000D02*
X13076000Y-9914000D01*
X13036000Y-9874000D02*
X13116000Y-9874000D01*
X13076000Y-10596000D02*
X13076000Y-10676000D01*
X13036000Y-10636000D02*
X13116000Y-10636000D01*
X13330000Y-9834000D02*
X13330000Y-9914000D01*
X13290000Y-9874000D02*
X13370000Y-9874000D01*
X13330000Y-10596000D02*
X13330000Y-10676000D01*
X13290000Y-10636000D02*
X13370000Y-10636000D01*
X13584000Y-9834000D02*
X13584000Y-9914000D01*
X13544000Y-9874000D02*
X13624000Y-9874000D01*
X13584000Y-10596000D02*
X13584000Y-10676000D01*
X13544000Y-10636000D02*
X13624000Y-10636000D01*
X13838000Y-9834000D02*
X13838000Y-9914000D01*
X13798000Y-9874000D02*
X13878000Y-9874000D01*
X13838000Y-10596000D02*
X13838000Y-10676000D01*
X13798000Y-10636000D02*
X13878000Y-10636000D01*
X14092000Y-9834000D02*
X14092000Y-9914000D01*
X14052000Y-9874000D02*
X14132000Y-9874000D01*
X14092000Y-10596000D02*
X14092000Y-10676000D01*
X14052000Y-10636000D02*
X14132000Y-10636000D01*
X16770000Y-13400000D02*
X16770000Y-13480000D01*
X16730000Y-13440000D02*
X16810000Y-13440000D01*
X17020000Y-13000000D02*
X17020000Y-13080000D01*
X16980000Y-13040000D02*
X17060000Y-13040000D01*
X17700000Y-8610000D02*
X17700000Y-8690000D01*
X17660000Y-8650000D02*
X17740000Y-8650000D01*
X17700000Y-9626000D02*
X17700000Y-9706000D01*
X17660000Y-9666000D02*
X17740000Y-9666000D01*
X17786000Y-13400000D02*
X17786000Y-13480000D01*
X17746000Y-13440000D02*
X17826000Y-13440000D01*
X18036000Y-13000000D02*
X18036000Y-13080000D01*
X17996000Y-13040000D02*
X18076000Y-13040000D01*
X18300000Y-8610000D02*
X18300000Y-8690000D01*
X18260000Y-8650000D02*
X18340000Y-8650000D01*
X18300000Y-9626000D02*
X18300000Y-9706000D01*
X18260000Y-9666000D02*
X18340000Y-9666000D01*
X18950000Y-8610000D02*
X18950000Y-8690000D01*
X18910000Y-8650000D02*
X18990000Y-8650000D01*
X18950000Y-9626000D02*
X18950000Y-9706000D01*
X18910000Y-9666000D02*
X18990000Y-9666000D01*
X19550000Y-8610000D02*
X19550000Y-8690000D01*
X19510000Y-8650000D02*
X19590000Y-8650000D01*
X19550000Y-9626000D02*
X19550000Y-9706000D01*
X19510000Y-9666000D02*
X19590000Y-9666000D01*
X20150000Y-9548000D02*
X20150000Y-9628000D01*
X20110000Y-9588000D02*
X20190000Y-9588000D01*
X20150000Y-10310000D02*
X20150000Y-10390000D01*
X20110000Y-10350000D02*
X20190000Y-10350000D01*
X20550000Y-9548000D02*
X20550000Y-9628000D01*
X20510000Y-9588000D02*
X20590000Y-9588000D01*
X20550000Y-10564000D02*
X20550000Y-10644000D01*
X20510000Y-10604000D02*
X20590000Y-10604000D01*
X20950000Y-9548000D02*
X20950000Y-9628000D01*
X20910000Y-9588000D02*
X20990000Y-9588000D01*
X20950000Y-10310000D02*
X20950000Y-10390000D01*
X20910000Y-10350000D02*
X20990000Y-10350000D01*
X22300000Y-13370000D02*
X22300000Y-13450000D01*
X22260000Y-13410000D02*
X22340000Y-13410000D01*
X22300000Y-13870000D02*
X22300000Y-13950000D01*
X22260000Y-13910000D02*
X22340000Y-13910000D01*
X22450000Y-9560000D02*
X22450000Y-9640000D01*
X22410000Y-9600000D02*
X22490000Y-9600000D01*
X22704000Y-9306000D02*
X22704000Y-9386000D01*
X22664000Y-9346000D02*
X22744000Y-9346000D01*
X22704000Y-9814000D02*
X22704000Y-9894000D01*
X22664000Y-9854000D02*
X22744000Y-9854000D01*
X23260000Y-11990000D02*
X23260000Y-12070000D01*
X23220000Y-12030000D02*
X23300000Y-12030000D01*
X23260000Y-13006000D02*
X23260000Y-13086000D01*
X23220000Y-13046000D02*
X23300000Y-13046000D01*
X23790000Y-13680000D02*
X23790000Y-13760000D01*
X23750000Y-13720000D02*
X23830000Y-13720000D01*
X23790000Y-14696000D02*
X23790000Y-14776000D01*
X23750000Y-14736000D02*
X23830000Y-14736000D01*
X20798431Y-5244431D02*
X20798431Y-5181569D01*
X20735569Y-5181569D01*
X20735569Y-5244431D01*
X20798431Y-5244431D01*
X20798431Y-5498431D02*
X20798431Y-5435569D01*
X20735569Y-5435569D01*
X20735569Y-5498431D01*
X20798431Y-5498431D01*
X20798431Y-5752431D02*
X20798431Y-5689569D01*
X20735569Y-5689569D01*
X20735569Y-5752431D01*
X20798431Y-5752431D01*
X20798431Y-6006431D02*
X20798431Y-5943569D01*
X20735569Y-5943569D01*
X20735569Y-6006431D01*
X20798431Y-6006431D01*
X20798431Y-6260431D02*
X20798431Y-6197569D01*
X20735569Y-6197569D01*
X20735569Y-6260431D01*
X20798431Y-6260431D01*
X20798431Y-6514431D02*
X20798431Y-6451569D01*
X20735569Y-6451569D01*
X20735569Y-6514431D01*
X20798431Y-6514431D01*
X20798431Y-6768431D02*
X20798431Y-6705569D01*
X20735569Y-6705569D01*
X20735569Y-6768431D01*
X20798431Y-6768431D01*
X20798431Y-7022431D02*
X20798431Y-6959569D01*
X20735569Y-6959569D01*
X20735569Y-7022431D01*
X20798431Y-7022431D01*
X23084431Y-5244431D02*
X23084431Y-5181569D01*
X23021569Y-5181569D01*
X23021569Y-5244431D01*
X23084431Y-5244431D01*
X23084431Y-5498431D02*
X23084431Y-5435569D01*
X23021569Y-5435569D01*
X23021569Y-5498431D01*
X23084431Y-5498431D01*
X23084431Y-5752431D02*
X23084431Y-5689569D01*
X23021569Y-5689569D01*
X23021569Y-5752431D01*
X23084431Y-5752431D01*
X23084431Y-6006431D02*
X23084431Y-5943569D01*
X23021569Y-5943569D01*
X23021569Y-6006431D01*
X23084431Y-6006431D01*
X23084431Y-6260431D02*
X23084431Y-6197569D01*
X23021569Y-6197569D01*
X23021569Y-6260431D01*
X23084431Y-6260431D01*
X23084431Y-6514431D02*
X23084431Y-6451569D01*
X23021569Y-6451569D01*
X23021569Y-6514431D01*
X23084431Y-6514431D01*
X23084431Y-6768431D02*
X23084431Y-6705569D01*
X23021569Y-6705569D01*
X23021569Y-6768431D01*
X23084431Y-6768431D01*
X23084431Y-7022431D02*
X23084431Y-6959569D01*
X23021569Y-6959569D01*
X23021569Y-7022431D01*
X23084431Y-7022431D01*
X17700000Y-8095000D02*
X17745000Y-8050000D01*
X17700000Y-8005000D01*
X17655000Y-8050000D01*
X17700000Y-8095000D01*
X17700000Y-8349000D02*
X17745000Y-8304000D01*
X17700000Y-8259000D01*
X17655000Y-8304000D01*
X17700000Y-8349000D01*
X18300000Y-8095000D02*
X18345000Y-8050000D01*
X18300000Y-8005000D01*
X18255000Y-8050000D01*
X18300000Y-8095000D01*
X18300000Y-8349000D02*
X18345000Y-8304000D01*
X18300000Y-8259000D01*
X18255000Y-8304000D01*
X18300000Y-8349000D01*
X18950000Y-8095000D02*
X18995000Y-8050000D01*
X18950000Y-8005000D01*
X18905000Y-8050000D01*
X18950000Y-8095000D01*
X18950000Y-8349000D02*
X18995000Y-8304000D01*
X18950000Y-8259000D01*
X18905000Y-8304000D01*
X18950000Y-8349000D01*
X19550000Y-8095000D02*
X19595000Y-8050000D01*
X19550000Y-8005000D01*
X19505000Y-8050000D01*
X19550000Y-8095000D01*
X19550000Y-8349000D02*
X19595000Y-8304000D01*
X19550000Y-8259000D01*
X19505000Y-8304000D01*
X19550000Y-8349000D01*
X22662500Y-12677500D02*
X22707500Y-12632500D01*
X22662500Y-12587500D01*
X22617500Y-12632500D01*
X22662500Y-12677500D01*
X22662500Y-12931500D02*
X22707500Y-12886500D01*
X22662500Y-12841500D01*
X22617500Y-12886500D01*
X22662500Y-12931500D01*
X9477500Y-3585000D02*
X9577500Y-3685000D01*
X9577500Y-3585000D02*
X9477500Y-3685000D01*
X9577500Y-3635000D02*
G75*
G02*
X9477500Y-3635000I-50000J0D01*
G01*
X9477500Y-3635000D02*
G75*
G02*
X9577500Y-3635000I50000J0D01*
G01*
X9731500Y-3585000D02*
X9831500Y-3685000D01*
X9831500Y-3585000D02*
X9731500Y-3685000D01*
X9831500Y-3635000D02*
G75*
G02*
X9731500Y-3635000I-50000J0D01*
G01*
X9731500Y-3635000D02*
G75*
G02*
X9831500Y-3635000I50000J0D01*
G01*
X9985500Y-3585000D02*
X10085500Y-3685000D01*
X10085500Y-3585000D02*
X9985500Y-3685000D01*
X10085500Y-3635000D02*
G75*
G02*
X9985500Y-3635000I-50000J0D01*
G01*
X9985500Y-3635000D02*
G75*
G02*
X10085500Y-3635000I50000J0D01*
G01*
X10239500Y-3585000D02*
X10339500Y-3685000D01*
X10339500Y-3585000D02*
X10239500Y-3685000D01*
X10339500Y-3635000D02*
G75*
G02*
X10239500Y-3635000I-50000J0D01*
G01*
X10239500Y-3635000D02*
G75*
G02*
X10339500Y-3635000I50000J0D01*
G01*
X10493500Y-3585000D02*
X10593500Y-3685000D01*
X10593500Y-3585000D02*
X10493500Y-3685000D01*
X10593500Y-3635000D02*
G75*
G02*
X10493500Y-3635000I-50000J0D01*
G01*
X10493500Y-3635000D02*
G75*
G02*
X10593500Y-3635000I50000J0D01*
G01*
X13620000Y-4068000D02*
X13720000Y-4168000D01*
X13720000Y-4068000D02*
X13620000Y-4168000D01*
X13720000Y-4118000D02*
G75*
G02*
X13620000Y-4118000I-50000J0D01*
G01*
X13620000Y-4118000D02*
G75*
G02*
X13720000Y-4118000I50000J0D01*
G01*
X13620000Y-4322000D02*
X13720000Y-4422000D01*
X13720000Y-4322000D02*
X13620000Y-4422000D01*
X13720000Y-4372000D02*
G75*
G02*
X13620000Y-4372000I-50000J0D01*
G01*
X13620000Y-4372000D02*
G75*
G02*
X13720000Y-4372000I50000J0D01*
G01*
X13620000Y-4576000D02*
X13720000Y-4676000D01*
X13720000Y-4576000D02*
X13620000Y-4676000D01*
X13720000Y-4626000D02*
G75*
G02*
X13620000Y-4626000I-50000J0D01*
G01*
X13620000Y-4626000D02*
G75*
G02*
X13720000Y-4626000I50000J0D01*
G01*
X13620000Y-4830000D02*
X13720000Y-4930000D01*
X13720000Y-4830000D02*
X13620000Y-4930000D01*
X13720000Y-4880000D02*
G75*
G02*
X13620000Y-4880000I-50000J0D01*
G01*
X13620000Y-4880000D02*
G75*
G02*
X13720000Y-4880000I50000J0D01*
G01*
X13620000Y-5084000D02*
X13720000Y-5184000D01*
X13720000Y-5084000D02*
X13620000Y-5184000D01*
X13720000Y-5134000D02*
G75*
G02*
X13620000Y-5134000I-50000J0D01*
G01*
X13620000Y-5134000D02*
G75*
G02*
X13720000Y-5134000I50000J0D01*
G01*
X13620000Y-5338000D02*
X13720000Y-5438000D01*
X13720000Y-5338000D02*
X13620000Y-5438000D01*
X13720000Y-5388000D02*
G75*
G02*
X13620000Y-5388000I-50000J0D01*
G01*
X13620000Y-5388000D02*
G75*
G02*
X13720000Y-5388000I50000J0D01*
G01*
X13620000Y-5592000D02*
X13720000Y-5692000D01*
X13720000Y-5592000D02*
X13620000Y-5692000D01*
X13720000Y-5642000D02*
G75*
G02*
X13620000Y-5642000I-50000J0D01*
G01*
X13620000Y-5642000D02*
G75*
G02*
X13720000Y-5642000I50000J0D01*
G01*
X13620000Y-5846000D02*
X13720000Y-5946000D01*
X13720000Y-5846000D02*
X13620000Y-5946000D01*
X13720000Y-5896000D02*
G75*
G02*
X13620000Y-5896000I-50000J0D01*
G01*
X13620000Y-5896000D02*
G75*
G02*
X13720000Y-5896000I50000J0D01*
G01*
X13620000Y-6100000D02*
X13720000Y-6200000D01*
X13720000Y-6100000D02*
X13620000Y-6200000D01*
X13720000Y-6150000D02*
G75*
G02*
X13620000Y-6150000I-50000J0D01*
G01*
X13620000Y-6150000D02*
G75*
G02*
X13720000Y-6150000I50000J0D01*
G01*
X13620000Y-6354000D02*
X13720000Y-6454000D01*
X13720000Y-6354000D02*
X13620000Y-6454000D01*
X13720000Y-6404000D02*
G75*
G02*
X13620000Y-6404000I-50000J0D01*
G01*
X13620000Y-6404000D02*
G75*
G02*
X13720000Y-6404000I50000J0D01*
G01*
X13620000Y-6608000D02*
X13720000Y-6708000D01*
X13720000Y-6608000D02*
X13620000Y-6708000D01*
X13720000Y-6658000D02*
G75*
G02*
X13620000Y-6658000I-50000J0D01*
G01*
X13620000Y-6658000D02*
G75*
G02*
X13720000Y-6658000I50000J0D01*
G01*
X14347000Y-14155000D02*
X14447000Y-14255000D01*
X14447000Y-14155000D02*
X14347000Y-14255000D01*
X14447000Y-14205000D02*
G75*
G02*
X14347000Y-14205000I-50000J0D01*
G01*
X14347000Y-14205000D02*
G75*
G02*
X14447000Y-14205000I50000J0D01*
G01*
X14601000Y-14155000D02*
X14701000Y-14255000D01*
X14701000Y-14155000D02*
X14601000Y-14255000D01*
X14701000Y-14205000D02*
G75*
G02*
X14601000Y-14205000I-50000J0D01*
G01*
X14601000Y-14205000D02*
G75*
G02*
X14701000Y-14205000I50000J0D01*
G01*
X14855000Y-14155000D02*
X14955000Y-14255000D01*
X14955000Y-14155000D02*
X14855000Y-14255000D01*
X14955000Y-14205000D02*
G75*
G02*
X14855000Y-14205000I-50000J0D01*
G01*
X14855000Y-14205000D02*
G75*
G02*
X14955000Y-14205000I50000J0D01*
G01*
X15312000Y-9300000D02*
X15412000Y-9400000D01*
X15412000Y-9300000D02*
X15312000Y-9400000D01*
X15412000Y-9350000D02*
G75*
G02*
X15312000Y-9350000I-50000J0D01*
G01*
X15312000Y-9350000D02*
G75*
G02*
X15412000Y-9350000I50000J0D01*
G01*
X15312000Y-9554000D02*
X15412000Y-9654000D01*
X15412000Y-9554000D02*
X15312000Y-9654000D01*
X15412000Y-9604000D02*
G75*
G02*
X15312000Y-9604000I-50000J0D01*
G01*
X15312000Y-9604000D02*
G75*
G02*
X15412000Y-9604000I50000J0D01*
G01*
X15312000Y-9808000D02*
X15412000Y-9908000D01*
X15412000Y-9808000D02*
X15312000Y-9908000D01*
X15412000Y-9858000D02*
G75*
G02*
X15312000Y-9858000I-50000J0D01*
G01*
X15312000Y-9858000D02*
G75*
G02*
X15412000Y-9858000I50000J0D01*
G01*
X15312000Y-10062000D02*
X15412000Y-10162000D01*
X15412000Y-10062000D02*
X15312000Y-10162000D01*
X15412000Y-10112000D02*
G75*
G02*
X15312000Y-10112000I-50000J0D01*
G01*
X15312000Y-10112000D02*
G75*
G02*
X15412000Y-10112000I50000J0D01*
G01*
X15312000Y-10316000D02*
X15412000Y-10416000D01*
X15412000Y-10316000D02*
X15312000Y-10416000D01*
X15412000Y-10366000D02*
G75*
G02*
X15312000Y-10366000I-50000J0D01*
G01*
X15312000Y-10366000D02*
G75*
G02*
X15412000Y-10366000I50000J0D01*
G01*
X15312000Y-10570000D02*
X15412000Y-10670000D01*
X15412000Y-10570000D02*
X15312000Y-10670000D01*
X15412000Y-10620000D02*
G75*
G02*
X15312000Y-10620000I-50000J0D01*
G01*
X15312000Y-10620000D02*
G75*
G02*
X15412000Y-10620000I50000J0D01*
G01*
X15312000Y-10824000D02*
X15412000Y-10924000D01*
X15412000Y-10824000D02*
X15312000Y-10924000D01*
X15412000Y-10874000D02*
G75*
G02*
X15312000Y-10874000I-50000J0D01*
G01*
X15312000Y-10874000D02*
G75*
G02*
X15412000Y-10874000I50000J0D01*
G01*
X15312000Y-11078000D02*
X15412000Y-11178000D01*
X15412000Y-11078000D02*
X15312000Y-11178000D01*
X15412000Y-11128000D02*
G75*
G02*
X15312000Y-11128000I-50000J0D01*
G01*
X15312000Y-11128000D02*
G75*
G02*
X15412000Y-11128000I50000J0D01*
G01*
X15312000Y-11332000D02*
X15412000Y-11432000D01*
X15412000Y-11332000D02*
X15312000Y-11432000D01*
X15412000Y-11382000D02*
G75*
G02*
X15312000Y-11382000I-50000J0D01*
G01*
X15312000Y-11382000D02*
G75*
G02*
X15412000Y-11382000I50000J0D01*
G01*
X15312000Y-11586000D02*
X15412000Y-11686000D01*
X15412000Y-11586000D02*
X15312000Y-11686000D01*
X15412000Y-11636000D02*
G75*
G02*
X15312000Y-11636000I-50000J0D01*
G01*
X15312000Y-11636000D02*
G75*
G02*
X15412000Y-11636000I50000J0D01*
G01*
X15312000Y-11840000D02*
X15412000Y-11940000D01*
X15412000Y-11840000D02*
X15312000Y-11940000D01*
X15412000Y-11890000D02*
G75*
G02*
X15312000Y-11890000I-50000J0D01*
G01*
X15312000Y-11890000D02*
G75*
G02*
X15412000Y-11890000I50000J0D01*
G01*
X15312000Y-12094000D02*
X15412000Y-12194000D01*
X15412000Y-12094000D02*
X15312000Y-12194000D01*
X15412000Y-12144000D02*
G75*
G02*
X15312000Y-12144000I-50000J0D01*
G01*
X15312000Y-12144000D02*
G75*
G02*
X15412000Y-12144000I50000J0D01*
G01*
X15312000Y-12348000D02*
X15412000Y-12448000D01*
X15412000Y-12348000D02*
X15312000Y-12448000D01*
X15412000Y-12398000D02*
G75*
G02*
X15312000Y-12398000I-50000J0D01*
G01*
X15312000Y-12398000D02*
G75*
G02*
X15412000Y-12398000I50000J0D01*
G01*
X15312000Y-12602000D02*
X15412000Y-12702000D01*
X15412000Y-12602000D02*
X15312000Y-12702000D01*
X15412000Y-12652000D02*
G75*
G02*
X15312000Y-12652000I-50000J0D01*
G01*
X15312000Y-12652000D02*
G75*
G02*
X15412000Y-12652000I50000J0D01*
G01*
X15312000Y-12856000D02*
X15412000Y-12956000D01*
X15412000Y-12856000D02*
X15312000Y-12956000D01*
X15412000Y-12906000D02*
G75*
G02*
X15312000Y-12906000I-50000J0D01*
G01*
X15312000Y-12906000D02*
G75*
G02*
X15412000Y-12906000I50000J0D01*
G01*
X15312000Y-13110000D02*
X15412000Y-13210000D01*
X15412000Y-13110000D02*
X15312000Y-13210000D01*
X15412000Y-13160000D02*
G75*
G02*
X15312000Y-13160000I-50000J0D01*
G01*
X15312000Y-13160000D02*
G75*
G02*
X15412000Y-13160000I50000J0D01*
G01*
X15312000Y-13364000D02*
X15412000Y-13464000D01*
X15412000Y-13364000D02*
X15312000Y-13464000D01*
X15412000Y-13414000D02*
G75*
G02*
X15312000Y-13414000I-50000J0D01*
G01*
X15312000Y-13414000D02*
G75*
G02*
X15412000Y-13414000I50000J0D01*
G01*
X15312000Y-13618000D02*
X15412000Y-13718000D01*
X15412000Y-13618000D02*
X15312000Y-13718000D01*
X15412000Y-13668000D02*
G75*
G02*
X15312000Y-13668000I-50000J0D01*
G01*
X15312000Y-13668000D02*
G75*
G02*
X15412000Y-13668000I50000J0D01*
G01*
X15312000Y-13872000D02*
X15412000Y-13972000D01*
X15412000Y-13872000D02*
X15312000Y-13972000D01*
X15412000Y-13922000D02*
G75*
G02*
X15312000Y-13922000I-50000J0D01*
G01*
X15312000Y-13922000D02*
G75*
G02*
X15412000Y-13922000I50000J0D01*
G01*
X15312000Y-14126000D02*
X15412000Y-14226000D01*
X15412000Y-14126000D02*
X15312000Y-14226000D01*
X15412000Y-14176000D02*
G75*
G02*
X15312000Y-14176000I-50000J0D01*
G01*
X15312000Y-14176000D02*
G75*
G02*
X15412000Y-14176000I50000J0D01*
G01*
X15566000Y-9300000D02*
X15666000Y-9400000D01*
X15666000Y-9300000D02*
X15566000Y-9400000D01*
X15666000Y-9350000D02*
G75*
G02*
X15566000Y-9350000I-50000J0D01*
G01*
X15566000Y-9350000D02*
G75*
G02*
X15666000Y-9350000I50000J0D01*
G01*
X15566000Y-9554000D02*
X15666000Y-9654000D01*
X15666000Y-9554000D02*
X15566000Y-9654000D01*
X15666000Y-9604000D02*
G75*
G02*
X15566000Y-9604000I-50000J0D01*
G01*
X15566000Y-9604000D02*
G75*
G02*
X15666000Y-9604000I50000J0D01*
G01*
X15566000Y-9808000D02*
X15666000Y-9908000D01*
X15666000Y-9808000D02*
X15566000Y-9908000D01*
X15666000Y-9858000D02*
G75*
G02*
X15566000Y-9858000I-50000J0D01*
G01*
X15566000Y-9858000D02*
G75*
G02*
X15666000Y-9858000I50000J0D01*
G01*
X15566000Y-10062000D02*
X15666000Y-10162000D01*
X15666000Y-10062000D02*
X15566000Y-10162000D01*
X15666000Y-10112000D02*
G75*
G02*
X15566000Y-10112000I-50000J0D01*
G01*
X15566000Y-10112000D02*
G75*
G02*
X15666000Y-10112000I50000J0D01*
G01*
X15566000Y-10316000D02*
X15666000Y-10416000D01*
X15666000Y-10316000D02*
X15566000Y-10416000D01*
X15666000Y-10366000D02*
G75*
G02*
X15566000Y-10366000I-50000J0D01*
G01*
X15566000Y-10366000D02*
G75*
G02*
X15666000Y-10366000I50000J0D01*
G01*
X15566000Y-10570000D02*
X15666000Y-10670000D01*
X15666000Y-10570000D02*
X15566000Y-10670000D01*
X15666000Y-10620000D02*
G75*
G02*
X15566000Y-10620000I-50000J0D01*
G01*
X15566000Y-10620000D02*
G75*
G02*
X15666000Y-10620000I50000J0D01*
G01*
X15566000Y-10824000D02*
X15666000Y-10924000D01*
X15666000Y-10824000D02*
X15566000Y-10924000D01*
X15666000Y-10874000D02*
G75*
G02*
X15566000Y-10874000I-50000J0D01*
G01*
X15566000Y-10874000D02*
G75*
G02*
X15666000Y-10874000I50000J0D01*
G01*
X15566000Y-11078000D02*
X15666000Y-11178000D01*
X15666000Y-11078000D02*
X15566000Y-11178000D01*
X15666000Y-11128000D02*
G75*
G02*
X15566000Y-11128000I-50000J0D01*
G01*
X15566000Y-11128000D02*
G75*
G02*
X15666000Y-11128000I50000J0D01*
G01*
X15566000Y-11332000D02*
X15666000Y-11432000D01*
X15666000Y-11332000D02*
X15566000Y-11432000D01*
X15666000Y-11382000D02*
G75*
G02*
X15566000Y-11382000I-50000J0D01*
G01*
X15566000Y-11382000D02*
G75*
G02*
X15666000Y-11382000I50000J0D01*
G01*
X15566000Y-11586000D02*
X15666000Y-11686000D01*
X15666000Y-11586000D02*
X15566000Y-11686000D01*
X15666000Y-11636000D02*
G75*
G02*
X15566000Y-11636000I-50000J0D01*
G01*
X15566000Y-11636000D02*
G75*
G02*
X15666000Y-11636000I50000J0D01*
G01*
X15566000Y-11840000D02*
X15666000Y-11940000D01*
X15666000Y-11840000D02*
X15566000Y-11940000D01*
X15666000Y-11890000D02*
G75*
G02*
X15566000Y-11890000I-50000J0D01*
G01*
X15566000Y-11890000D02*
G75*
G02*
X15666000Y-11890000I50000J0D01*
G01*
X15566000Y-12094000D02*
X15666000Y-12194000D01*
X15666000Y-12094000D02*
X15566000Y-12194000D01*
X15666000Y-12144000D02*
G75*
G02*
X15566000Y-12144000I-50000J0D01*
G01*
X15566000Y-12144000D02*
G75*
G02*
X15666000Y-12144000I50000J0D01*
G01*
X15566000Y-12348000D02*
X15666000Y-12448000D01*
X15666000Y-12348000D02*
X15566000Y-12448000D01*
X15666000Y-12398000D02*
G75*
G02*
X15566000Y-12398000I-50000J0D01*
G01*
X15566000Y-12398000D02*
G75*
G02*
X15666000Y-12398000I50000J0D01*
G01*
X15566000Y-12602000D02*
X15666000Y-12702000D01*
X15666000Y-12602000D02*
X15566000Y-12702000D01*
X15666000Y-12652000D02*
G75*
G02*
X15566000Y-12652000I-50000J0D01*
G01*
X15566000Y-12652000D02*
G75*
G02*
X15666000Y-12652000I50000J0D01*
G01*
X15566000Y-12856000D02*
X15666000Y-12956000D01*
X15666000Y-12856000D02*
X15566000Y-12956000D01*
X15666000Y-12906000D02*
G75*
G02*
X15566000Y-12906000I-50000J0D01*
G01*
X15566000Y-12906000D02*
G75*
G02*
X15666000Y-12906000I50000J0D01*
G01*
X15566000Y-13110000D02*
X15666000Y-13210000D01*
X15666000Y-13110000D02*
X15566000Y-13210000D01*
X15666000Y-13160000D02*
G75*
G02*
X15566000Y-13160000I-50000J0D01*
G01*
X15566000Y-13160000D02*
G75*
G02*
X15666000Y-13160000I50000J0D01*
G01*
X15566000Y-13364000D02*
X15666000Y-13464000D01*
X15666000Y-13364000D02*
X15566000Y-13464000D01*
X15666000Y-13414000D02*
G75*
G02*
X15566000Y-13414000I-50000J0D01*
G01*
X15566000Y-13414000D02*
G75*
G02*
X15666000Y-13414000I50000J0D01*
G01*
X15566000Y-13618000D02*
X15666000Y-13718000D01*
X15666000Y-13618000D02*
X15566000Y-13718000D01*
X15666000Y-13668000D02*
G75*
G02*
X15566000Y-13668000I-50000J0D01*
G01*
X15566000Y-13668000D02*
G75*
G02*
X15666000Y-13668000I50000J0D01*
G01*
X15566000Y-13872000D02*
X15666000Y-13972000D01*
X15666000Y-13872000D02*
X15566000Y-13972000D01*
X15666000Y-13922000D02*
G75*
G02*
X15566000Y-13922000I-50000J0D01*
G01*
X15566000Y-13922000D02*
G75*
G02*
X15666000Y-13922000I50000J0D01*
G01*
X15566000Y-14126000D02*
X15666000Y-14226000D01*
X15666000Y-14126000D02*
X15566000Y-14226000D01*
X15666000Y-14176000D02*
G75*
G02*
X15566000Y-14176000I-50000J0D01*
G01*
X15566000Y-14176000D02*
G75*
G02*
X15666000Y-14176000I50000J0D01*
G01*
X16720000Y-13885000D02*
X16820000Y-13985000D01*
X16820000Y-13885000D02*
X16720000Y-13985000D01*
X16820000Y-13935000D02*
G75*
G02*
X16720000Y-13935000I-50000J0D01*
G01*
X16720000Y-13935000D02*
G75*
G02*
X16820000Y-13935000I50000J0D01*
G01*
X16974000Y-13885000D02*
X17074000Y-13985000D01*
X17074000Y-13885000D02*
X16974000Y-13985000D01*
X17074000Y-13935000D02*
G75*
G02*
X16974000Y-13935000I-50000J0D01*
G01*
X16974000Y-13935000D02*
G75*
G02*
X17074000Y-13935000I50000J0D01*
G01*
X17228000Y-13885000D02*
X17328000Y-13985000D01*
X17328000Y-13885000D02*
X17228000Y-13985000D01*
X17328000Y-13935000D02*
G75*
G02*
X17228000Y-13935000I-50000J0D01*
G01*
X17228000Y-13935000D02*
G75*
G02*
X17328000Y-13935000I50000J0D01*
G01*
X17482000Y-13885000D02*
X17582000Y-13985000D01*
X17582000Y-13885000D02*
X17482000Y-13985000D01*
X17582000Y-13935000D02*
G75*
G02*
X17482000Y-13935000I-50000J0D01*
G01*
X17482000Y-13935000D02*
G75*
G02*
X17582000Y-13935000I50000J0D01*
G01*
X21416000Y-9300000D02*
X21516000Y-9400000D01*
X21516000Y-9300000D02*
X21416000Y-9400000D01*
X21516000Y-9350000D02*
G75*
G02*
X21416000Y-9350000I-50000J0D01*
G01*
X21416000Y-9350000D02*
G75*
G02*
X21516000Y-9350000I50000J0D01*
G01*
X21416000Y-9554000D02*
X21516000Y-9654000D01*
X21516000Y-9554000D02*
X21416000Y-9654000D01*
X21516000Y-9604000D02*
G75*
G02*
X21416000Y-9604000I-50000J0D01*
G01*
X21416000Y-9604000D02*
G75*
G02*
X21516000Y-9604000I50000J0D01*
G01*
X21416000Y-9808000D02*
X21516000Y-9908000D01*
X21516000Y-9808000D02*
X21416000Y-9908000D01*
X21516000Y-9858000D02*
G75*
G02*
X21416000Y-9858000I-50000J0D01*
G01*
X21416000Y-9858000D02*
G75*
G02*
X21516000Y-9858000I50000J0D01*
G01*
X21416000Y-10062000D02*
X21516000Y-10162000D01*
X21516000Y-10062000D02*
X21416000Y-10162000D01*
X21516000Y-10112000D02*
G75*
G02*
X21416000Y-10112000I-50000J0D01*
G01*
X21416000Y-10112000D02*
G75*
G02*
X21516000Y-10112000I50000J0D01*
G01*
X21416000Y-10316000D02*
X21516000Y-10416000D01*
X21516000Y-10316000D02*
X21416000Y-10416000D01*
X21516000Y-10366000D02*
G75*
G02*
X21416000Y-10366000I-50000J0D01*
G01*
X21416000Y-10366000D02*
G75*
G02*
X21516000Y-10366000I50000J0D01*
G01*
X21416000Y-10570000D02*
X21516000Y-10670000D01*
X21516000Y-10570000D02*
X21416000Y-10670000D01*
X21516000Y-10620000D02*
G75*
G02*
X21416000Y-10620000I-50000J0D01*
G01*
X21416000Y-10620000D02*
G75*
G02*
X21516000Y-10620000I50000J0D01*
G01*
X21416000Y-10824000D02*
X21516000Y-10924000D01*
X21516000Y-10824000D02*
X21416000Y-10924000D01*
X21516000Y-10874000D02*
G75*
G02*
X21416000Y-10874000I-50000J0D01*
G01*
X21416000Y-10874000D02*
G75*
G02*
X21516000Y-10874000I50000J0D01*
G01*
X21416000Y-11078000D02*
X21516000Y-11178000D01*
X21516000Y-11078000D02*
X21416000Y-11178000D01*
X21516000Y-11128000D02*
G75*
G02*
X21416000Y-11128000I-50000J0D01*
G01*
X21416000Y-11128000D02*
G75*
G02*
X21516000Y-11128000I50000J0D01*
G01*
X21416000Y-11332000D02*
X21516000Y-11432000D01*
X21516000Y-11332000D02*
X21416000Y-11432000D01*
X21516000Y-11382000D02*
G75*
G02*
X21416000Y-11382000I-50000J0D01*
G01*
X21416000Y-11382000D02*
G75*
G02*
X21516000Y-11382000I50000J0D01*
G01*
X21416000Y-11586000D02*
X21516000Y-11686000D01*
X21516000Y-11586000D02*
X21416000Y-11686000D01*
X21516000Y-11636000D02*
G75*
G02*
X21416000Y-11636000I-50000J0D01*
G01*
X21416000Y-11636000D02*
G75*
G02*
X21516000Y-11636000I50000J0D01*
G01*
X21416000Y-11840000D02*
X21516000Y-11940000D01*
X21516000Y-11840000D02*
X21416000Y-11940000D01*
X21516000Y-11890000D02*
G75*
G02*
X21416000Y-11890000I-50000J0D01*
G01*
X21416000Y-11890000D02*
G75*
G02*
X21516000Y-11890000I50000J0D01*
G01*
X21416000Y-12094000D02*
X21516000Y-12194000D01*
X21516000Y-12094000D02*
X21416000Y-12194000D01*
X21516000Y-12144000D02*
G75*
G02*
X21416000Y-12144000I-50000J0D01*
G01*
X21416000Y-12144000D02*
G75*
G02*
X21516000Y-12144000I50000J0D01*
G01*
X21416000Y-12348000D02*
X21516000Y-12448000D01*
X21516000Y-12348000D02*
X21416000Y-12448000D01*
X21516000Y-12398000D02*
G75*
G02*
X21416000Y-12398000I-50000J0D01*
G01*
X21416000Y-12398000D02*
G75*
G02*
X21516000Y-12398000I50000J0D01*
G01*
X21416000Y-12602000D02*
X21516000Y-12702000D01*
X21516000Y-12602000D02*
X21416000Y-12702000D01*
X21516000Y-12652000D02*
G75*
G02*
X21416000Y-12652000I-50000J0D01*
G01*
X21416000Y-12652000D02*
G75*
G02*
X21516000Y-12652000I50000J0D01*
G01*
X21416000Y-12856000D02*
X21516000Y-12956000D01*
X21516000Y-12856000D02*
X21416000Y-12956000D01*
X21516000Y-12906000D02*
G75*
G02*
X21416000Y-12906000I-50000J0D01*
G01*
X21416000Y-12906000D02*
G75*
G02*
X21516000Y-12906000I50000J0D01*
G01*
X21416000Y-13110000D02*
X21516000Y-13210000D01*
X21516000Y-13110000D02*
X21416000Y-13210000D01*
X21516000Y-13160000D02*
G75*
G02*
X21416000Y-13160000I-50000J0D01*
G01*
X21416000Y-13160000D02*
G75*
G02*
X21516000Y-13160000I50000J0D01*
G01*
X21416000Y-13364000D02*
X21516000Y-13464000D01*
X21516000Y-13364000D02*
X21416000Y-13464000D01*
X21516000Y-13414000D02*
G75*
G02*
X21416000Y-13414000I-50000J0D01*
G01*
X21416000Y-13414000D02*
G75*
G02*
X21516000Y-13414000I50000J0D01*
G01*
X21416000Y-13618000D02*
X21516000Y-13718000D01*
X21516000Y-13618000D02*
X21416000Y-13718000D01*
X21516000Y-13668000D02*
G75*
G02*
X21416000Y-13668000I-50000J0D01*
G01*
X21416000Y-13668000D02*
G75*
G02*
X21516000Y-13668000I50000J0D01*
G01*
X21416000Y-13872000D02*
X21516000Y-13972000D01*
X21516000Y-13872000D02*
X21416000Y-13972000D01*
X21516000Y-13922000D02*
G75*
G02*
X21416000Y-13922000I-50000J0D01*
G01*
X21416000Y-13922000D02*
G75*
G02*
X21516000Y-13922000I50000J0D01*
G01*
X21416000Y-14126000D02*
X21516000Y-14226000D01*
X21516000Y-14126000D02*
X21416000Y-14226000D01*
X21516000Y-14176000D02*
G75*
G02*
X21416000Y-14176000I-50000J0D01*
G01*
X21416000Y-14176000D02*
G75*
G02*
X21516000Y-14176000I50000J0D01*
G01*
X21670000Y-9300000D02*
X21770000Y-9400000D01*
X21770000Y-9300000D02*
X21670000Y-9400000D01*
X21770000Y-9350000D02*
G75*
G02*
X21670000Y-9350000I-50000J0D01*
G01*
X21670000Y-9350000D02*
G75*
G02*
X21770000Y-9350000I50000J0D01*
G01*
X21670000Y-9554000D02*
X21770000Y-9654000D01*
X21770000Y-9554000D02*
X21670000Y-9654000D01*
X21770000Y-9604000D02*
G75*
G02*
X21670000Y-9604000I-50000J0D01*
G01*
X21670000Y-9604000D02*
G75*
G02*
X21770000Y-9604000I50000J0D01*
G01*
X21670000Y-9808000D02*
X21770000Y-9908000D01*
X21770000Y-9808000D02*
X21670000Y-9908000D01*
X21770000Y-9858000D02*
G75*
G02*
X21670000Y-9858000I-50000J0D01*
G01*
X21670000Y-9858000D02*
G75*
G02*
X21770000Y-9858000I50000J0D01*
G01*
X21670000Y-10062000D02*
X21770000Y-10162000D01*
X21770000Y-10062000D02*
X21670000Y-10162000D01*
X21770000Y-10112000D02*
G75*
G02*
X21670000Y-10112000I-50000J0D01*
G01*
X21670000Y-10112000D02*
G75*
G02*
X21770000Y-10112000I50000J0D01*
G01*
X21670000Y-10316000D02*
X21770000Y-10416000D01*
X21770000Y-10316000D02*
X21670000Y-10416000D01*
X21770000Y-10366000D02*
G75*
G02*
X21670000Y-10366000I-50000J0D01*
G01*
X21670000Y-10366000D02*
G75*
G02*
X21770000Y-10366000I50000J0D01*
G01*
X21670000Y-10570000D02*
X21770000Y-10670000D01*
X21770000Y-10570000D02*
X21670000Y-10670000D01*
X21770000Y-10620000D02*
G75*
G02*
X21670000Y-10620000I-50000J0D01*
G01*
X21670000Y-10620000D02*
G75*
G02*
X21770000Y-10620000I50000J0D01*
G01*
X21670000Y-10824000D02*
X21770000Y-10924000D01*
X21770000Y-10824000D02*
X21670000Y-10924000D01*
X21770000Y-10874000D02*
G75*
G02*
X21670000Y-10874000I-50000J0D01*
G01*
X21670000Y-10874000D02*
G75*
G02*
X21770000Y-10874000I50000J0D01*
G01*
X21670000Y-11078000D02*
X21770000Y-11178000D01*
X21770000Y-11078000D02*
X21670000Y-11178000D01*
X21770000Y-11128000D02*
G75*
G02*
X21670000Y-11128000I-50000J0D01*
G01*
X21670000Y-11128000D02*
G75*
G02*
X21770000Y-11128000I50000J0D01*
G01*
X21670000Y-11332000D02*
X21770000Y-11432000D01*
X21770000Y-11332000D02*
X21670000Y-11432000D01*
X21770000Y-11382000D02*
G75*
G02*
X21670000Y-11382000I-50000J0D01*
G01*
X21670000Y-11382000D02*
G75*
G02*
X21770000Y-11382000I50000J0D01*
G01*
X21670000Y-11586000D02*
X21770000Y-11686000D01*
X21770000Y-11586000D02*
X21670000Y-11686000D01*
X21770000Y-11636000D02*
G75*
G02*
X21670000Y-11636000I-50000J0D01*
G01*
X21670000Y-11636000D02*
G75*
G02*
X21770000Y-11636000I50000J0D01*
G01*
X21670000Y-11840000D02*
X21770000Y-11940000D01*
X21770000Y-11840000D02*
X21670000Y-11940000D01*
X21770000Y-11890000D02*
G75*
G02*
X21670000Y-11890000I-50000J0D01*
G01*
X21670000Y-11890000D02*
G75*
G02*
X21770000Y-11890000I50000J0D01*
G01*
X21670000Y-12094000D02*
X21770000Y-12194000D01*
X21770000Y-12094000D02*
X21670000Y-12194000D01*
X21770000Y-12144000D02*
G75*
G02*
X21670000Y-12144000I-50000J0D01*
G01*
X21670000Y-12144000D02*
G75*
G02*
X21770000Y-12144000I50000J0D01*
G01*
X21670000Y-12348000D02*
X21770000Y-12448000D01*
X21770000Y-12348000D02*
X21670000Y-12448000D01*
X21770000Y-12398000D02*
G75*
G02*
X21670000Y-12398000I-50000J0D01*
G01*
X21670000Y-12398000D02*
G75*
G02*
X21770000Y-12398000I50000J0D01*
G01*
X21670000Y-12602000D02*
X21770000Y-12702000D01*
X21770000Y-12602000D02*
X21670000Y-12702000D01*
X21770000Y-12652000D02*
G75*
G02*
X21670000Y-12652000I-50000J0D01*
G01*
X21670000Y-12652000D02*
G75*
G02*
X21770000Y-12652000I50000J0D01*
G01*
X21670000Y-12856000D02*
X21770000Y-12956000D01*
X21770000Y-12856000D02*
X21670000Y-12956000D01*
X21770000Y-12906000D02*
G75*
G02*
X21670000Y-12906000I-50000J0D01*
G01*
X21670000Y-12906000D02*
G75*
G02*
X21770000Y-12906000I50000J0D01*
G01*
X21670000Y-13110000D02*
X21770000Y-13210000D01*
X21770000Y-13110000D02*
X21670000Y-13210000D01*
X21770000Y-13160000D02*
G75*
G02*
X21670000Y-13160000I-50000J0D01*
G01*
X21670000Y-13160000D02*
G75*
G02*
X21770000Y-13160000I50000J0D01*
G01*
X21670000Y-13364000D02*
X21770000Y-13464000D01*
X21770000Y-13364000D02*
X21670000Y-13464000D01*
X21770000Y-13414000D02*
G75*
G02*
X21670000Y-13414000I-50000J0D01*
G01*
X21670000Y-13414000D02*
G75*
G02*
X21770000Y-13414000I50000J0D01*
G01*
X21670000Y-13618000D02*
X21770000Y-13718000D01*
X21770000Y-13618000D02*
X21670000Y-13718000D01*
X21770000Y-13668000D02*
G75*
G02*
X21670000Y-13668000I-50000J0D01*
G01*
X21670000Y-13668000D02*
G75*
G02*
X21770000Y-13668000I50000J0D01*
G01*
X21670000Y-13872000D02*
X21770000Y-13972000D01*
X21770000Y-13872000D02*
X21670000Y-13972000D01*
X21770000Y-13922000D02*
G75*
G02*
X21670000Y-13922000I-50000J0D01*
G01*
X21670000Y-13922000D02*
G75*
G02*
X21770000Y-13922000I50000J0D01*
G01*
X21670000Y-14126000D02*
X21770000Y-14226000D01*
X21770000Y-14126000D02*
X21670000Y-14226000D01*
X21770000Y-14176000D02*
G75*
G02*
X21670000Y-14176000I-50000J0D01*
G01*
X21670000Y-14176000D02*
G75*
G02*
X21770000Y-14176000I50000J0D01*
G01*
X22706000Y-13990000D02*
X22806000Y-14090000D01*
X22806000Y-13990000D02*
X22706000Y-14090000D01*
X22806000Y-14040000D02*
G75*
G02*
X22706000Y-14040000I-50000J0D01*
G01*
X22706000Y-14040000D02*
G75*
G02*
X22806000Y-14040000I50000J0D01*
G01*
X22960000Y-13990000D02*
X23060000Y-14090000D01*
X23060000Y-13990000D02*
X22960000Y-14090000D01*
X23060000Y-14040000D02*
G75*
G02*
X22960000Y-14040000I-50000J0D01*
G01*
X22960000Y-14040000D02*
G75*
G02*
X23060000Y-14040000I50000J0D01*
G01*
X24200000Y-3392000D02*
X24300000Y-3492000D01*
X24300000Y-3392000D02*
X24200000Y-3492000D01*
X24300000Y-3442000D02*
G75*
G02*
X24200000Y-3442000I-50000J0D01*
G01*
X24200000Y-3442000D02*
G75*
G02*
X24300000Y-3442000I50000J0D01*
G01*
X24200000Y-3646000D02*
X24300000Y-3746000D01*
X24300000Y-3646000D02*
X24200000Y-3746000D01*
X24300000Y-3696000D02*
G75*
G02*
X24200000Y-3696000I-50000J0D01*
G01*
X24200000Y-3696000D02*
G75*
G02*
X24300000Y-3696000I50000J0D01*
G01*
X24200000Y-3900000D02*
X24300000Y-4000000D01*
X24300000Y-3900000D02*
X24200000Y-4000000D01*
X24300000Y-3950000D02*
G75*
G02*
X24200000Y-3950000I-50000J0D01*
G01*
X24200000Y-3950000D02*
G75*
G02*
X24300000Y-3950000I50000J0D01*
G01*
X24700000Y-3392000D02*
X24800000Y-3492000D01*
X24800000Y-3392000D02*
X24700000Y-3492000D01*
X24800000Y-3442000D02*
G75*
G02*
X24700000Y-3442000I-50000J0D01*
G01*
X24700000Y-3442000D02*
G75*
G02*
X24800000Y-3442000I50000J0D01*
G01*
X24700000Y-3646000D02*
X24800000Y-3746000D01*
X24800000Y-3646000D02*
X24700000Y-3746000D01*
X24800000Y-3696000D02*
G75*
G02*
X24700000Y-3696000I-50000J0D01*
G01*
X24700000Y-3696000D02*
G75*
G02*
X24800000Y-3696000I50000J0D01*
G01*
X24700000Y-3900000D02*
X24800000Y-4000000D01*
X24800000Y-3900000D02*
X24700000Y-4000000D01*
X24800000Y-3950000D02*
G75*
G02*
X24700000Y-3950000I-50000J0D01*
G01*
X24700000Y-3950000D02*
G75*
G02*
X24800000Y-3950000I50000J0D01*
G01*
D13*
X26126000Y-3795000D02*
X26256000Y-3925000D01*
X26256000Y-3795000D02*
X26126000Y-3925000D01*
X26191000Y-3795000D02*
X26191000Y-3925000D01*
X26126000Y-3860000D02*
X26256000Y-3860000D01*
X26634000Y-3795000D02*
X26764000Y-3925000D01*
X26764000Y-3795000D02*
X26634000Y-3925000D01*
X26699000Y-3795000D02*
X26699000Y-3925000D01*
X26634000Y-3860000D02*
X26764000Y-3860000D01*
D11*
X7858277Y-15613984D02*
X7858277Y-15413984D01*
X7858277Y-15413984D02*
X7905896Y-15413984D01*
X7905896Y-15413984D02*
X7934467Y-15423508D01*
X7934467Y-15423508D02*
X7953515Y-15442555D01*
X7953515Y-15442555D02*
X7963039Y-15461603D01*
X7963039Y-15461603D02*
X7972562Y-15499698D01*
X7972562Y-15499698D02*
X7972562Y-15528269D01*
X7972562Y-15528269D02*
X7963039Y-15566365D01*
X7963039Y-15566365D02*
X7953515Y-15585412D01*
X7953515Y-15585412D02*
X7934467Y-15604460D01*
X7934467Y-15604460D02*
X7905896Y-15613984D01*
X7905896Y-15613984D02*
X7858277Y-15613984D01*
X8058277Y-15613984D02*
X8058277Y-15480650D01*
X8058277Y-15518746D02*
X8067801Y-15499698D01*
X8067801Y-15499698D02*
X8077324Y-15490174D01*
X8077324Y-15490174D02*
X8096372Y-15480650D01*
X8096372Y-15480650D02*
X8115420Y-15480650D01*
X8182086Y-15613984D02*
X8182086Y-15480650D01*
X8182086Y-15413984D02*
X8172562Y-15423508D01*
X8172562Y-15423508D02*
X8182086Y-15433031D01*
X8182086Y-15433031D02*
X8191610Y-15423508D01*
X8191610Y-15423508D02*
X8182086Y-15413984D01*
X8182086Y-15413984D02*
X8182086Y-15433031D01*
X8305896Y-15613984D02*
X8286848Y-15604460D01*
X8286848Y-15604460D02*
X8277324Y-15585412D01*
X8277324Y-15585412D02*
X8277324Y-15413984D01*
X8410658Y-15613984D02*
X8391610Y-15604460D01*
X8391610Y-15604460D02*
X8382086Y-15585412D01*
X8382086Y-15585412D02*
X8382086Y-15413984D01*
X8639229Y-15613984D02*
X8639229Y-15413984D01*
X8639229Y-15413984D02*
X8705896Y-15556841D01*
X8705896Y-15556841D02*
X8772563Y-15413984D01*
X8772563Y-15413984D02*
X8772563Y-15613984D01*
X8953515Y-15613984D02*
X8953515Y-15509222D01*
X8953515Y-15509222D02*
X8943991Y-15490174D01*
X8943991Y-15490174D02*
X8924944Y-15480650D01*
X8924944Y-15480650D02*
X8886848Y-15480650D01*
X8886848Y-15480650D02*
X8867801Y-15490174D01*
X8953515Y-15604460D02*
X8934467Y-15613984D01*
X8934467Y-15613984D02*
X8886848Y-15613984D01*
X8886848Y-15613984D02*
X8867801Y-15604460D01*
X8867801Y-15604460D02*
X8858277Y-15585412D01*
X8858277Y-15585412D02*
X8858277Y-15566365D01*
X8858277Y-15566365D02*
X8867801Y-15547317D01*
X8867801Y-15547317D02*
X8886848Y-15537793D01*
X8886848Y-15537793D02*
X8934467Y-15537793D01*
X8934467Y-15537793D02*
X8953515Y-15528269D01*
X9048753Y-15480650D02*
X9048753Y-15680650D01*
X9048753Y-15490174D02*
X9067801Y-15480650D01*
X9067801Y-15480650D02*
X9105896Y-15480650D01*
X9105896Y-15480650D02*
X9124944Y-15490174D01*
X9124944Y-15490174D02*
X9134467Y-15499698D01*
X9134467Y-15499698D02*
X9143991Y-15518746D01*
X9143991Y-15518746D02*
X9143991Y-15575888D01*
X9143991Y-15575888D02*
X9134467Y-15594936D01*
X9134467Y-15594936D02*
X9124944Y-15604460D01*
X9124944Y-15604460D02*
X9105896Y-15613984D01*
X9105896Y-15613984D02*
X9067801Y-15613984D01*
X9067801Y-15613984D02*
X9048753Y-15604460D01*
X9229705Y-15594936D02*
X9239229Y-15604460D01*
X9239229Y-15604460D02*
X9229705Y-15613984D01*
X9229705Y-15613984D02*
X9220182Y-15604460D01*
X9220182Y-15604460D02*
X9229705Y-15594936D01*
X9229705Y-15594936D02*
X9229705Y-15613984D01*
X9229705Y-15490174D02*
X9239229Y-15499698D01*
X9239229Y-15499698D02*
X9229705Y-15509222D01*
X9229705Y-15509222D02*
X9220182Y-15499698D01*
X9220182Y-15499698D02*
X9229705Y-15490174D01*
X9229705Y-15490174D02*
X9229705Y-15509222D01*
D12*
X7537500Y-15912500D02*
X7597500Y-15972500D01*
X7597500Y-15912500D02*
X7537500Y-15972500D01*
D11*
X7896372Y-15833984D02*
X7915420Y-15833984D01*
X7915420Y-15833984D02*
X7934467Y-15843508D01*
X7934467Y-15843508D02*
X7943991Y-15853031D01*
X7943991Y-15853031D02*
X7953515Y-15872079D01*
X7953515Y-15872079D02*
X7963039Y-15910174D01*
X7963039Y-15910174D02*
X7963039Y-15957793D01*
X7963039Y-15957793D02*
X7953515Y-15995888D01*
X7953515Y-15995888D02*
X7943991Y-16014936D01*
X7943991Y-16014936D02*
X7934467Y-16024460D01*
X7934467Y-16024460D02*
X7915420Y-16033984D01*
X7915420Y-16033984D02*
X7896372Y-16033984D01*
X7896372Y-16033984D02*
X7877324Y-16024460D01*
X7877324Y-16024460D02*
X7867801Y-16014936D01*
X7867801Y-16014936D02*
X7858277Y-15995888D01*
X7858277Y-15995888D02*
X7848753Y-15957793D01*
X7848753Y-15957793D02*
X7848753Y-15910174D01*
X7848753Y-15910174D02*
X7858277Y-15872079D01*
X7858277Y-15872079D02*
X7867801Y-15853031D01*
X7867801Y-15853031D02*
X7877324Y-15843508D01*
X7877324Y-15843508D02*
X7896372Y-15833984D01*
X8048753Y-16014936D02*
X8058277Y-16024460D01*
X8058277Y-16024460D02*
X8048753Y-16033984D01*
X8048753Y-16033984D02*
X8039229Y-16024460D01*
X8039229Y-16024460D02*
X8048753Y-16014936D01*
X8048753Y-16014936D02*
X8048753Y-16033984D01*
X8229705Y-15833984D02*
X8191610Y-15833984D01*
X8191610Y-15833984D02*
X8172562Y-15843508D01*
X8172562Y-15843508D02*
X8163039Y-15853031D01*
X8163039Y-15853031D02*
X8143991Y-15881603D01*
X8143991Y-15881603D02*
X8134467Y-15919698D01*
X8134467Y-15919698D02*
X8134467Y-15995888D01*
X8134467Y-15995888D02*
X8143991Y-16014936D01*
X8143991Y-16014936D02*
X8153515Y-16024460D01*
X8153515Y-16024460D02*
X8172562Y-16033984D01*
X8172562Y-16033984D02*
X8210658Y-16033984D01*
X8210658Y-16033984D02*
X8229705Y-16024460D01*
X8229705Y-16024460D02*
X8239229Y-16014936D01*
X8239229Y-16014936D02*
X8248753Y-15995888D01*
X8248753Y-15995888D02*
X8248753Y-15948269D01*
X8248753Y-15948269D02*
X8239229Y-15929222D01*
X8239229Y-15929222D02*
X8229705Y-15919698D01*
X8229705Y-15919698D02*
X8210658Y-15910174D01*
X8210658Y-15910174D02*
X8172562Y-15910174D01*
X8172562Y-15910174D02*
X8153515Y-15919698D01*
X8153515Y-15919698D02*
X8143991Y-15929222D01*
X8143991Y-15929222D02*
X8134467Y-15948269D01*
X8372562Y-15833984D02*
X8391610Y-15833984D01*
X8391610Y-15833984D02*
X8410658Y-15843508D01*
X8410658Y-15843508D02*
X8420182Y-15853031D01*
X8420182Y-15853031D02*
X8429705Y-15872079D01*
X8429705Y-15872079D02*
X8439229Y-15910174D01*
X8439229Y-15910174D02*
X8439229Y-15957793D01*
X8439229Y-15957793D02*
X8429705Y-15995888D01*
X8429705Y-15995888D02*
X8420182Y-16014936D01*
X8420182Y-16014936D02*
X8410658Y-16024460D01*
X8410658Y-16024460D02*
X8391610Y-16033984D01*
X8391610Y-16033984D02*
X8372562Y-16033984D01*
X8372562Y-16033984D02*
X8353515Y-16024460D01*
X8353515Y-16024460D02*
X8343991Y-16014936D01*
X8343991Y-16014936D02*
X8334467Y-15995888D01*
X8334467Y-15995888D02*
X8324943Y-15957793D01*
X8324943Y-15957793D02*
X8324943Y-15910174D01*
X8324943Y-15910174D02*
X8334467Y-15872079D01*
X8334467Y-15872079D02*
X8343991Y-15853031D01*
X8343991Y-15853031D02*
X8353515Y-15843508D01*
X8353515Y-15843508D02*
X8372562Y-15833984D01*
X8563039Y-15833984D02*
X8582086Y-15833984D01*
X8582086Y-15833984D02*
X8601134Y-15843508D01*
X8601134Y-15843508D02*
X8610658Y-15853031D01*
X8610658Y-15853031D02*
X8620182Y-15872079D01*
X8620182Y-15872079D02*
X8629705Y-15910174D01*
X8629705Y-15910174D02*
X8629705Y-15957793D01*
X8629705Y-15957793D02*
X8620182Y-15995888D01*
X8620182Y-15995888D02*
X8610658Y-16014936D01*
X8610658Y-16014936D02*
X8601134Y-16024460D01*
X8601134Y-16024460D02*
X8582086Y-16033984D01*
X8582086Y-16033984D02*
X8563039Y-16033984D01*
X8563039Y-16033984D02*
X8543991Y-16024460D01*
X8543991Y-16024460D02*
X8534467Y-16014936D01*
X8534467Y-16014936D02*
X8524944Y-15995888D01*
X8524944Y-15995888D02*
X8515420Y-15957793D01*
X8515420Y-15957793D02*
X8515420Y-15910174D01*
X8515420Y-15910174D02*
X8524944Y-15872079D01*
X8524944Y-15872079D02*
X8534467Y-15853031D01*
X8534467Y-15853031D02*
X8543991Y-15843508D01*
X8543991Y-15843508D02*
X8563039Y-15833984D01*
X8715420Y-16033984D02*
X8715420Y-15900650D01*
X8715420Y-15919698D02*
X8724944Y-15910174D01*
X8724944Y-15910174D02*
X8743991Y-15900650D01*
X8743991Y-15900650D02*
X8772563Y-15900650D01*
X8772563Y-15900650D02*
X8791610Y-15910174D01*
X8791610Y-15910174D02*
X8801134Y-15929222D01*
X8801134Y-15929222D02*
X8801134Y-16033984D01*
X8801134Y-15929222D02*
X8810658Y-15910174D01*
X8810658Y-15910174D02*
X8829705Y-15900650D01*
X8829705Y-15900650D02*
X8858277Y-15900650D01*
X8858277Y-15900650D02*
X8877325Y-15910174D01*
X8877325Y-15910174D02*
X8886848Y-15929222D01*
X8886848Y-15929222D02*
X8886848Y-16033984D01*
X8982086Y-16033984D02*
X8982086Y-15900650D01*
X8982086Y-15919698D02*
X8991610Y-15910174D01*
X8991610Y-15910174D02*
X9010658Y-15900650D01*
X9010658Y-15900650D02*
X9039229Y-15900650D01*
X9039229Y-15900650D02*
X9058277Y-15910174D01*
X9058277Y-15910174D02*
X9067801Y-15929222D01*
X9067801Y-15929222D02*
X9067801Y-16033984D01*
X9067801Y-15929222D02*
X9077325Y-15910174D01*
X9077325Y-15910174D02*
X9096372Y-15900650D01*
X9096372Y-15900650D02*
X9124944Y-15900650D01*
X9124944Y-15900650D02*
X9143991Y-15910174D01*
X9143991Y-15910174D02*
X9153515Y-15929222D01*
X9153515Y-15929222D02*
X9153515Y-16033984D01*
X9543991Y-15824460D02*
X9372563Y-16081603D01*
X9801134Y-15833984D02*
X9820182Y-15833984D01*
X9820182Y-15833984D02*
X9839229Y-15843508D01*
X9839229Y-15843508D02*
X9848753Y-15853031D01*
X9848753Y-15853031D02*
X9858277Y-15872079D01*
X9858277Y-15872079D02*
X9867801Y-15910174D01*
X9867801Y-15910174D02*
X9867801Y-15957793D01*
X9867801Y-15957793D02*
X9858277Y-15995888D01*
X9858277Y-15995888D02*
X9848753Y-16014936D01*
X9848753Y-16014936D02*
X9839229Y-16024460D01*
X9839229Y-16024460D02*
X9820182Y-16033984D01*
X9820182Y-16033984D02*
X9801134Y-16033984D01*
X9801134Y-16033984D02*
X9782087Y-16024460D01*
X9782087Y-16024460D02*
X9772563Y-16014936D01*
X9772563Y-16014936D02*
X9763039Y-15995888D01*
X9763039Y-15995888D02*
X9753515Y-15957793D01*
X9753515Y-15957793D02*
X9753515Y-15910174D01*
X9753515Y-15910174D02*
X9763039Y-15872079D01*
X9763039Y-15872079D02*
X9772563Y-15853031D01*
X9772563Y-15853031D02*
X9782087Y-15843508D01*
X9782087Y-15843508D02*
X9801134Y-15833984D01*
X9953515Y-16014936D02*
X9963039Y-16024460D01*
X9963039Y-16024460D02*
X9953515Y-16033984D01*
X9953515Y-16033984D02*
X9943991Y-16024460D01*
X9943991Y-16024460D02*
X9953515Y-16014936D01*
X9953515Y-16014936D02*
X9953515Y-16033984D01*
X10086848Y-15833984D02*
X10105896Y-15833984D01*
X10105896Y-15833984D02*
X10124944Y-15843508D01*
X10124944Y-15843508D02*
X10134468Y-15853031D01*
X10134468Y-15853031D02*
X10143991Y-15872079D01*
X10143991Y-15872079D02*
X10153515Y-15910174D01*
X10153515Y-15910174D02*
X10153515Y-15957793D01*
X10153515Y-15957793D02*
X10143991Y-15995888D01*
X10143991Y-15995888D02*
X10134468Y-16014936D01*
X10134468Y-16014936D02*
X10124944Y-16024460D01*
X10124944Y-16024460D02*
X10105896Y-16033984D01*
X10105896Y-16033984D02*
X10086848Y-16033984D01*
X10086848Y-16033984D02*
X10067801Y-16024460D01*
X10067801Y-16024460D02*
X10058277Y-16014936D01*
X10058277Y-16014936D02*
X10048753Y-15995888D01*
X10048753Y-15995888D02*
X10039229Y-15957793D01*
X10039229Y-15957793D02*
X10039229Y-15910174D01*
X10039229Y-15910174D02*
X10048753Y-15872079D01*
X10048753Y-15872079D02*
X10058277Y-15853031D01*
X10058277Y-15853031D02*
X10067801Y-15843508D01*
X10067801Y-15843508D02*
X10086848Y-15833984D01*
X10229706Y-15853031D02*
X10239229Y-15843508D01*
X10239229Y-15843508D02*
X10258277Y-15833984D01*
X10258277Y-15833984D02*
X10305896Y-15833984D01*
X10305896Y-15833984D02*
X10324944Y-15843508D01*
X10324944Y-15843508D02*
X10334468Y-15853031D01*
X10334468Y-15853031D02*
X10343991Y-15872079D01*
X10343991Y-15872079D02*
X10343991Y-15891127D01*
X10343991Y-15891127D02*
X10334468Y-15919698D01*
X10334468Y-15919698D02*
X10220182Y-16033984D01*
X10220182Y-16033984D02*
X10343991Y-16033984D01*
X10410658Y-15833984D02*
X10534468Y-15833984D01*
X10534468Y-15833984D02*
X10467801Y-15910174D01*
X10467801Y-15910174D02*
X10496372Y-15910174D01*
X10496372Y-15910174D02*
X10515420Y-15919698D01*
X10515420Y-15919698D02*
X10524944Y-15929222D01*
X10524944Y-15929222D02*
X10534468Y-15948269D01*
X10534468Y-15948269D02*
X10534468Y-15995888D01*
X10534468Y-15995888D02*
X10524944Y-16014936D01*
X10524944Y-16014936D02*
X10515420Y-16024460D01*
X10515420Y-16024460D02*
X10496372Y-16033984D01*
X10496372Y-16033984D02*
X10439229Y-16033984D01*
X10439229Y-16033984D02*
X10420182Y-16024460D01*
X10420182Y-16024460D02*
X10410658Y-16014936D01*
X10705896Y-15833984D02*
X10667801Y-15833984D01*
X10667801Y-15833984D02*
X10648753Y-15843508D01*
X10648753Y-15843508D02*
X10639229Y-15853031D01*
X10639229Y-15853031D02*
X10620182Y-15881603D01*
X10620182Y-15881603D02*
X10610658Y-15919698D01*
X10610658Y-15919698D02*
X10610658Y-15995888D01*
X10610658Y-15995888D02*
X10620182Y-16014936D01*
X10620182Y-16014936D02*
X10629706Y-16024460D01*
X10629706Y-16024460D02*
X10648753Y-16033984D01*
X10648753Y-16033984D02*
X10686849Y-16033984D01*
X10686849Y-16033984D02*
X10705896Y-16024460D01*
X10705896Y-16024460D02*
X10715420Y-16014936D01*
X10715420Y-16014936D02*
X10724944Y-15995888D01*
X10724944Y-15995888D02*
X10724944Y-15948269D01*
X10724944Y-15948269D02*
X10715420Y-15929222D01*
X10715420Y-15929222D02*
X10705896Y-15919698D01*
X10705896Y-15919698D02*
X10686849Y-15910174D01*
X10686849Y-15910174D02*
X10648753Y-15910174D01*
X10648753Y-15910174D02*
X10629706Y-15919698D01*
X10629706Y-15919698D02*
X10620182Y-15929222D01*
X10620182Y-15929222D02*
X10610658Y-15948269D01*
X10801134Y-15833984D02*
X10801134Y-15872079D01*
X10877325Y-15833984D02*
X10877325Y-15872079D01*
X11172563Y-16110174D02*
X11163039Y-16100650D01*
X11163039Y-16100650D02*
X11143991Y-16072079D01*
X11143991Y-16072079D02*
X11134468Y-16053031D01*
X11134468Y-16053031D02*
X11124944Y-16024460D01*
X11124944Y-16024460D02*
X11115420Y-15976841D01*
X11115420Y-15976841D02*
X11115420Y-15938746D01*
X11115420Y-15938746D02*
X11124944Y-15891127D01*
X11124944Y-15891127D02*
X11134468Y-15862555D01*
X11134468Y-15862555D02*
X11143991Y-15843508D01*
X11143991Y-15843508D02*
X11163039Y-15814936D01*
X11163039Y-15814936D02*
X11172563Y-15805412D01*
X11334468Y-15900650D02*
X11334468Y-16033984D01*
X11286848Y-15824460D02*
X11239229Y-15967317D01*
X11239229Y-15967317D02*
X11363039Y-15967317D01*
X11429706Y-15853031D02*
X11439229Y-15843508D01*
X11439229Y-15843508D02*
X11458277Y-15833984D01*
X11458277Y-15833984D02*
X11505896Y-15833984D01*
X11505896Y-15833984D02*
X11524944Y-15843508D01*
X11524944Y-15843508D02*
X11534468Y-15853031D01*
X11534468Y-15853031D02*
X11543991Y-15872079D01*
X11543991Y-15872079D02*
X11543991Y-15891127D01*
X11543991Y-15891127D02*
X11534468Y-15919698D01*
X11534468Y-15919698D02*
X11420182Y-16033984D01*
X11420182Y-16033984D02*
X11543991Y-16033984D01*
X11782087Y-16033984D02*
X11782087Y-15833984D01*
X11867801Y-16033984D02*
X11867801Y-15929222D01*
X11867801Y-15929222D02*
X11858277Y-15910174D01*
X11858277Y-15910174D02*
X11839230Y-15900650D01*
X11839230Y-15900650D02*
X11810658Y-15900650D01*
X11810658Y-15900650D02*
X11791610Y-15910174D01*
X11791610Y-15910174D02*
X11782087Y-15919698D01*
X11991610Y-16033984D02*
X11972563Y-16024460D01*
X11972563Y-16024460D02*
X11963039Y-16014936D01*
X11963039Y-16014936D02*
X11953515Y-15995888D01*
X11953515Y-15995888D02*
X11953515Y-15938746D01*
X11953515Y-15938746D02*
X11963039Y-15919698D01*
X11963039Y-15919698D02*
X11972563Y-15910174D01*
X11972563Y-15910174D02*
X11991610Y-15900650D01*
X11991610Y-15900650D02*
X12020182Y-15900650D01*
X12020182Y-15900650D02*
X12039230Y-15910174D01*
X12039230Y-15910174D02*
X12048753Y-15919698D01*
X12048753Y-15919698D02*
X12058277Y-15938746D01*
X12058277Y-15938746D02*
X12058277Y-15995888D01*
X12058277Y-15995888D02*
X12048753Y-16014936D01*
X12048753Y-16014936D02*
X12039230Y-16024460D01*
X12039230Y-16024460D02*
X12020182Y-16033984D01*
X12020182Y-16033984D02*
X11991610Y-16033984D01*
X12172563Y-16033984D02*
X12153515Y-16024460D01*
X12153515Y-16024460D02*
X12143991Y-16005412D01*
X12143991Y-16005412D02*
X12143991Y-15833984D01*
X12324944Y-16024460D02*
X12305896Y-16033984D01*
X12305896Y-16033984D02*
X12267801Y-16033984D01*
X12267801Y-16033984D02*
X12248753Y-16024460D01*
X12248753Y-16024460D02*
X12239230Y-16005412D01*
X12239230Y-16005412D02*
X12239230Y-15929222D01*
X12239230Y-15929222D02*
X12248753Y-15910174D01*
X12248753Y-15910174D02*
X12267801Y-15900650D01*
X12267801Y-15900650D02*
X12305896Y-15900650D01*
X12305896Y-15900650D02*
X12324944Y-15910174D01*
X12324944Y-15910174D02*
X12334468Y-15929222D01*
X12334468Y-15929222D02*
X12334468Y-15948269D01*
X12334468Y-15948269D02*
X12239230Y-15967317D01*
X12410658Y-16024460D02*
X12429706Y-16033984D01*
X12429706Y-16033984D02*
X12467801Y-16033984D01*
X12467801Y-16033984D02*
X12486849Y-16024460D01*
X12486849Y-16024460D02*
X12496372Y-16005412D01*
X12496372Y-16005412D02*
X12496372Y-15995888D01*
X12496372Y-15995888D02*
X12486849Y-15976841D01*
X12486849Y-15976841D02*
X12467801Y-15967317D01*
X12467801Y-15967317D02*
X12439230Y-15967317D01*
X12439230Y-15967317D02*
X12420182Y-15957793D01*
X12420182Y-15957793D02*
X12410658Y-15938746D01*
X12410658Y-15938746D02*
X12410658Y-15929222D01*
X12410658Y-15929222D02*
X12420182Y-15910174D01*
X12420182Y-15910174D02*
X12439230Y-15900650D01*
X12439230Y-15900650D02*
X12467801Y-15900650D01*
X12467801Y-15900650D02*
X12486849Y-15910174D01*
X12563039Y-16110174D02*
X12572563Y-16100650D01*
X12572563Y-16100650D02*
X12591611Y-16072079D01*
X12591611Y-16072079D02*
X12601134Y-16053031D01*
X12601134Y-16053031D02*
X12610658Y-16024460D01*
X12610658Y-16024460D02*
X12620182Y-15976841D01*
X12620182Y-15976841D02*
X12620182Y-15938746D01*
X12620182Y-15938746D02*
X12610658Y-15891127D01*
X12610658Y-15891127D02*
X12601134Y-15862555D01*
X12601134Y-15862555D02*
X12591611Y-15843508D01*
X12591611Y-15843508D02*
X12572563Y-15814936D01*
X12572563Y-15814936D02*
X12563039Y-15805412D01*
D12*
X7597500Y-16206500D02*
G75*
G02*
X7521300Y-16206500I-38100J0D01*
G01*
X7521300Y-16206500D02*
G75*
G02*
X7597500Y-16206500I38100J0D01*
G01*
D11*
X7896372Y-16097984D02*
X7915420Y-16097984D01*
X7915420Y-16097984D02*
X7934467Y-16107508D01*
X7934467Y-16107508D02*
X7943991Y-16117031D01*
X7943991Y-16117031D02*
X7953515Y-16136079D01*
X7953515Y-16136079D02*
X7963039Y-16174174D01*
X7963039Y-16174174D02*
X7963039Y-16221793D01*
X7963039Y-16221793D02*
X7953515Y-16259888D01*
X7953515Y-16259888D02*
X7943991Y-16278936D01*
X7943991Y-16278936D02*
X7934467Y-16288460D01*
X7934467Y-16288460D02*
X7915420Y-16297984D01*
X7915420Y-16297984D02*
X7896372Y-16297984D01*
X7896372Y-16297984D02*
X7877324Y-16288460D01*
X7877324Y-16288460D02*
X7867801Y-16278936D01*
X7867801Y-16278936D02*
X7858277Y-16259888D01*
X7858277Y-16259888D02*
X7848753Y-16221793D01*
X7848753Y-16221793D02*
X7848753Y-16174174D01*
X7848753Y-16174174D02*
X7858277Y-16136079D01*
X7858277Y-16136079D02*
X7867801Y-16117031D01*
X7867801Y-16117031D02*
X7877324Y-16107508D01*
X7877324Y-16107508D02*
X7896372Y-16097984D01*
X8048753Y-16278936D02*
X8058277Y-16288460D01*
X8058277Y-16288460D02*
X8048753Y-16297984D01*
X8048753Y-16297984D02*
X8039229Y-16288460D01*
X8039229Y-16288460D02*
X8048753Y-16278936D01*
X8048753Y-16278936D02*
X8048753Y-16297984D01*
X8124943Y-16097984D02*
X8258277Y-16097984D01*
X8258277Y-16097984D02*
X8172562Y-16297984D01*
X8420182Y-16097984D02*
X8382086Y-16097984D01*
X8382086Y-16097984D02*
X8363039Y-16107508D01*
X8363039Y-16107508D02*
X8353515Y-16117031D01*
X8353515Y-16117031D02*
X8334467Y-16145603D01*
X8334467Y-16145603D02*
X8324943Y-16183698D01*
X8324943Y-16183698D02*
X8324943Y-16259888D01*
X8324943Y-16259888D02*
X8334467Y-16278936D01*
X8334467Y-16278936D02*
X8343991Y-16288460D01*
X8343991Y-16288460D02*
X8363039Y-16297984D01*
X8363039Y-16297984D02*
X8401134Y-16297984D01*
X8401134Y-16297984D02*
X8420182Y-16288460D01*
X8420182Y-16288460D02*
X8429705Y-16278936D01*
X8429705Y-16278936D02*
X8439229Y-16259888D01*
X8439229Y-16259888D02*
X8439229Y-16212269D01*
X8439229Y-16212269D02*
X8429705Y-16193222D01*
X8429705Y-16193222D02*
X8420182Y-16183698D01*
X8420182Y-16183698D02*
X8401134Y-16174174D01*
X8401134Y-16174174D02*
X8363039Y-16174174D01*
X8363039Y-16174174D02*
X8343991Y-16183698D01*
X8343991Y-16183698D02*
X8334467Y-16193222D01*
X8334467Y-16193222D02*
X8324943Y-16212269D01*
X8515420Y-16117031D02*
X8524944Y-16107508D01*
X8524944Y-16107508D02*
X8543991Y-16097984D01*
X8543991Y-16097984D02*
X8591610Y-16097984D01*
X8591610Y-16097984D02*
X8610658Y-16107508D01*
X8610658Y-16107508D02*
X8620182Y-16117031D01*
X8620182Y-16117031D02*
X8629705Y-16136079D01*
X8629705Y-16136079D02*
X8629705Y-16155127D01*
X8629705Y-16155127D02*
X8620182Y-16183698D01*
X8620182Y-16183698D02*
X8505896Y-16297984D01*
X8505896Y-16297984D02*
X8629705Y-16297984D01*
X8715420Y-16297984D02*
X8715420Y-16164650D01*
X8715420Y-16183698D02*
X8724944Y-16174174D01*
X8724944Y-16174174D02*
X8743991Y-16164650D01*
X8743991Y-16164650D02*
X8772563Y-16164650D01*
X8772563Y-16164650D02*
X8791610Y-16174174D01*
X8791610Y-16174174D02*
X8801134Y-16193222D01*
X8801134Y-16193222D02*
X8801134Y-16297984D01*
X8801134Y-16193222D02*
X8810658Y-16174174D01*
X8810658Y-16174174D02*
X8829705Y-16164650D01*
X8829705Y-16164650D02*
X8858277Y-16164650D01*
X8858277Y-16164650D02*
X8877325Y-16174174D01*
X8877325Y-16174174D02*
X8886848Y-16193222D01*
X8886848Y-16193222D02*
X8886848Y-16297984D01*
X8982086Y-16297984D02*
X8982086Y-16164650D01*
X8982086Y-16183698D02*
X8991610Y-16174174D01*
X8991610Y-16174174D02*
X9010658Y-16164650D01*
X9010658Y-16164650D02*
X9039229Y-16164650D01*
X9039229Y-16164650D02*
X9058277Y-16174174D01*
X9058277Y-16174174D02*
X9067801Y-16193222D01*
X9067801Y-16193222D02*
X9067801Y-16297984D01*
X9067801Y-16193222D02*
X9077325Y-16174174D01*
X9077325Y-16174174D02*
X9096372Y-16164650D01*
X9096372Y-16164650D02*
X9124944Y-16164650D01*
X9124944Y-16164650D02*
X9143991Y-16174174D01*
X9143991Y-16174174D02*
X9153515Y-16193222D01*
X9153515Y-16193222D02*
X9153515Y-16297984D01*
X9543991Y-16088460D02*
X9372563Y-16345603D01*
X9801134Y-16097984D02*
X9820182Y-16097984D01*
X9820182Y-16097984D02*
X9839229Y-16107508D01*
X9839229Y-16107508D02*
X9848753Y-16117031D01*
X9848753Y-16117031D02*
X9858277Y-16136079D01*
X9858277Y-16136079D02*
X9867801Y-16174174D01*
X9867801Y-16174174D02*
X9867801Y-16221793D01*
X9867801Y-16221793D02*
X9858277Y-16259888D01*
X9858277Y-16259888D02*
X9848753Y-16278936D01*
X9848753Y-16278936D02*
X9839229Y-16288460D01*
X9839229Y-16288460D02*
X9820182Y-16297984D01*
X9820182Y-16297984D02*
X9801134Y-16297984D01*
X9801134Y-16297984D02*
X9782087Y-16288460D01*
X9782087Y-16288460D02*
X9772563Y-16278936D01*
X9772563Y-16278936D02*
X9763039Y-16259888D01*
X9763039Y-16259888D02*
X9753515Y-16221793D01*
X9753515Y-16221793D02*
X9753515Y-16174174D01*
X9753515Y-16174174D02*
X9763039Y-16136079D01*
X9763039Y-16136079D02*
X9772563Y-16117031D01*
X9772563Y-16117031D02*
X9782087Y-16107508D01*
X9782087Y-16107508D02*
X9801134Y-16097984D01*
X9953515Y-16278936D02*
X9963039Y-16288460D01*
X9963039Y-16288460D02*
X9953515Y-16297984D01*
X9953515Y-16297984D02*
X9943991Y-16288460D01*
X9943991Y-16288460D02*
X9953515Y-16278936D01*
X9953515Y-16278936D02*
X9953515Y-16297984D01*
X10086848Y-16097984D02*
X10105896Y-16097984D01*
X10105896Y-16097984D02*
X10124944Y-16107508D01*
X10124944Y-16107508D02*
X10134468Y-16117031D01*
X10134468Y-16117031D02*
X10143991Y-16136079D01*
X10143991Y-16136079D02*
X10153515Y-16174174D01*
X10153515Y-16174174D02*
X10153515Y-16221793D01*
X10153515Y-16221793D02*
X10143991Y-16259888D01*
X10143991Y-16259888D02*
X10134468Y-16278936D01*
X10134468Y-16278936D02*
X10124944Y-16288460D01*
X10124944Y-16288460D02*
X10105896Y-16297984D01*
X10105896Y-16297984D02*
X10086848Y-16297984D01*
X10086848Y-16297984D02*
X10067801Y-16288460D01*
X10067801Y-16288460D02*
X10058277Y-16278936D01*
X10058277Y-16278936D02*
X10048753Y-16259888D01*
X10048753Y-16259888D02*
X10039229Y-16221793D01*
X10039229Y-16221793D02*
X10039229Y-16174174D01*
X10039229Y-16174174D02*
X10048753Y-16136079D01*
X10048753Y-16136079D02*
X10058277Y-16117031D01*
X10058277Y-16117031D02*
X10067801Y-16107508D01*
X10067801Y-16107508D02*
X10086848Y-16097984D01*
X10220182Y-16097984D02*
X10343991Y-16097984D01*
X10343991Y-16097984D02*
X10277325Y-16174174D01*
X10277325Y-16174174D02*
X10305896Y-16174174D01*
X10305896Y-16174174D02*
X10324944Y-16183698D01*
X10324944Y-16183698D02*
X10334468Y-16193222D01*
X10334468Y-16193222D02*
X10343991Y-16212269D01*
X10343991Y-16212269D02*
X10343991Y-16259888D01*
X10343991Y-16259888D02*
X10334468Y-16278936D01*
X10334468Y-16278936D02*
X10324944Y-16288460D01*
X10324944Y-16288460D02*
X10305896Y-16297984D01*
X10305896Y-16297984D02*
X10248753Y-16297984D01*
X10248753Y-16297984D02*
X10229706Y-16288460D01*
X10229706Y-16288460D02*
X10220182Y-16278936D01*
X10467801Y-16097984D02*
X10486849Y-16097984D01*
X10486849Y-16097984D02*
X10505896Y-16107508D01*
X10505896Y-16107508D02*
X10515420Y-16117031D01*
X10515420Y-16117031D02*
X10524944Y-16136079D01*
X10524944Y-16136079D02*
X10534468Y-16174174D01*
X10534468Y-16174174D02*
X10534468Y-16221793D01*
X10534468Y-16221793D02*
X10524944Y-16259888D01*
X10524944Y-16259888D02*
X10515420Y-16278936D01*
X10515420Y-16278936D02*
X10505896Y-16288460D01*
X10505896Y-16288460D02*
X10486849Y-16297984D01*
X10486849Y-16297984D02*
X10467801Y-16297984D01*
X10467801Y-16297984D02*
X10448753Y-16288460D01*
X10448753Y-16288460D02*
X10439229Y-16278936D01*
X10439229Y-16278936D02*
X10429706Y-16259888D01*
X10429706Y-16259888D02*
X10420182Y-16221793D01*
X10420182Y-16221793D02*
X10420182Y-16174174D01*
X10420182Y-16174174D02*
X10429706Y-16136079D01*
X10429706Y-16136079D02*
X10439229Y-16117031D01*
X10439229Y-16117031D02*
X10448753Y-16107508D01*
X10448753Y-16107508D02*
X10467801Y-16097984D01*
X10658277Y-16097984D02*
X10677325Y-16097984D01*
X10677325Y-16097984D02*
X10696372Y-16107508D01*
X10696372Y-16107508D02*
X10705896Y-16117031D01*
X10705896Y-16117031D02*
X10715420Y-16136079D01*
X10715420Y-16136079D02*
X10724944Y-16174174D01*
X10724944Y-16174174D02*
X10724944Y-16221793D01*
X10724944Y-16221793D02*
X10715420Y-16259888D01*
X10715420Y-16259888D02*
X10705896Y-16278936D01*
X10705896Y-16278936D02*
X10696372Y-16288460D01*
X10696372Y-16288460D02*
X10677325Y-16297984D01*
X10677325Y-16297984D02*
X10658277Y-16297984D01*
X10658277Y-16297984D02*
X10639229Y-16288460D01*
X10639229Y-16288460D02*
X10629706Y-16278936D01*
X10629706Y-16278936D02*
X10620182Y-16259888D01*
X10620182Y-16259888D02*
X10610658Y-16221793D01*
X10610658Y-16221793D02*
X10610658Y-16174174D01*
X10610658Y-16174174D02*
X10620182Y-16136079D01*
X10620182Y-16136079D02*
X10629706Y-16117031D01*
X10629706Y-16117031D02*
X10639229Y-16107508D01*
X10639229Y-16107508D02*
X10658277Y-16097984D01*
X10801134Y-16097984D02*
X10801134Y-16136079D01*
X10877325Y-16097984D02*
X10877325Y-16136079D01*
X11172563Y-16374174D02*
X11163039Y-16364650D01*
X11163039Y-16364650D02*
X11143991Y-16336079D01*
X11143991Y-16336079D02*
X11134468Y-16317031D01*
X11134468Y-16317031D02*
X11124944Y-16288460D01*
X11124944Y-16288460D02*
X11115420Y-16240841D01*
X11115420Y-16240841D02*
X11115420Y-16202746D01*
X11115420Y-16202746D02*
X11124944Y-16155127D01*
X11124944Y-16155127D02*
X11134468Y-16126555D01*
X11134468Y-16126555D02*
X11143991Y-16107508D01*
X11143991Y-16107508D02*
X11163039Y-16078936D01*
X11163039Y-16078936D02*
X11172563Y-16069412D01*
X11353515Y-16297984D02*
X11239229Y-16297984D01*
X11296372Y-16297984D02*
X11296372Y-16097984D01*
X11296372Y-16097984D02*
X11277325Y-16126555D01*
X11277325Y-16126555D02*
X11258277Y-16145603D01*
X11258277Y-16145603D02*
X11239229Y-16155127D01*
X11477325Y-16097984D02*
X11496372Y-16097984D01*
X11496372Y-16097984D02*
X11515420Y-16107508D01*
X11515420Y-16107508D02*
X11524944Y-16117031D01*
X11524944Y-16117031D02*
X11534468Y-16136079D01*
X11534468Y-16136079D02*
X11543991Y-16174174D01*
X11543991Y-16174174D02*
X11543991Y-16221793D01*
X11543991Y-16221793D02*
X11534468Y-16259888D01*
X11534468Y-16259888D02*
X11524944Y-16278936D01*
X11524944Y-16278936D02*
X11515420Y-16288460D01*
X11515420Y-16288460D02*
X11496372Y-16297984D01*
X11496372Y-16297984D02*
X11477325Y-16297984D01*
X11477325Y-16297984D02*
X11458277Y-16288460D01*
X11458277Y-16288460D02*
X11448753Y-16278936D01*
X11448753Y-16278936D02*
X11439229Y-16259888D01*
X11439229Y-16259888D02*
X11429706Y-16221793D01*
X11429706Y-16221793D02*
X11429706Y-16174174D01*
X11429706Y-16174174D02*
X11439229Y-16136079D01*
X11439229Y-16136079D02*
X11448753Y-16117031D01*
X11448753Y-16117031D02*
X11458277Y-16107508D01*
X11458277Y-16107508D02*
X11477325Y-16097984D01*
X11782087Y-16297984D02*
X11782087Y-16097984D01*
X11867801Y-16297984D02*
X11867801Y-16193222D01*
X11867801Y-16193222D02*
X11858277Y-16174174D01*
X11858277Y-16174174D02*
X11839230Y-16164650D01*
X11839230Y-16164650D02*
X11810658Y-16164650D01*
X11810658Y-16164650D02*
X11791610Y-16174174D01*
X11791610Y-16174174D02*
X11782087Y-16183698D01*
X11991610Y-16297984D02*
X11972563Y-16288460D01*
X11972563Y-16288460D02*
X11963039Y-16278936D01*
X11963039Y-16278936D02*
X11953515Y-16259888D01*
X11953515Y-16259888D02*
X11953515Y-16202746D01*
X11953515Y-16202746D02*
X11963039Y-16183698D01*
X11963039Y-16183698D02*
X11972563Y-16174174D01*
X11972563Y-16174174D02*
X11991610Y-16164650D01*
X11991610Y-16164650D02*
X12020182Y-16164650D01*
X12020182Y-16164650D02*
X12039230Y-16174174D01*
X12039230Y-16174174D02*
X12048753Y-16183698D01*
X12048753Y-16183698D02*
X12058277Y-16202746D01*
X12058277Y-16202746D02*
X12058277Y-16259888D01*
X12058277Y-16259888D02*
X12048753Y-16278936D01*
X12048753Y-16278936D02*
X12039230Y-16288460D01*
X12039230Y-16288460D02*
X12020182Y-16297984D01*
X12020182Y-16297984D02*
X11991610Y-16297984D01*
X12172563Y-16297984D02*
X12153515Y-16288460D01*
X12153515Y-16288460D02*
X12143991Y-16269412D01*
X12143991Y-16269412D02*
X12143991Y-16097984D01*
X12324944Y-16288460D02*
X12305896Y-16297984D01*
X12305896Y-16297984D02*
X12267801Y-16297984D01*
X12267801Y-16297984D02*
X12248753Y-16288460D01*
X12248753Y-16288460D02*
X12239230Y-16269412D01*
X12239230Y-16269412D02*
X12239230Y-16193222D01*
X12239230Y-16193222D02*
X12248753Y-16174174D01*
X12248753Y-16174174D02*
X12267801Y-16164650D01*
X12267801Y-16164650D02*
X12305896Y-16164650D01*
X12305896Y-16164650D02*
X12324944Y-16174174D01*
X12324944Y-16174174D02*
X12334468Y-16193222D01*
X12334468Y-16193222D02*
X12334468Y-16212269D01*
X12334468Y-16212269D02*
X12239230Y-16231317D01*
X12410658Y-16288460D02*
X12429706Y-16297984D01*
X12429706Y-16297984D02*
X12467801Y-16297984D01*
X12467801Y-16297984D02*
X12486849Y-16288460D01*
X12486849Y-16288460D02*
X12496372Y-16269412D01*
X12496372Y-16269412D02*
X12496372Y-16259888D01*
X12496372Y-16259888D02*
X12486849Y-16240841D01*
X12486849Y-16240841D02*
X12467801Y-16231317D01*
X12467801Y-16231317D02*
X12439230Y-16231317D01*
X12439230Y-16231317D02*
X12420182Y-16221793D01*
X12420182Y-16221793D02*
X12410658Y-16202746D01*
X12410658Y-16202746D02*
X12410658Y-16193222D01*
X12410658Y-16193222D02*
X12420182Y-16174174D01*
X12420182Y-16174174D02*
X12439230Y-16164650D01*
X12439230Y-16164650D02*
X12467801Y-16164650D01*
X12467801Y-16164650D02*
X12486849Y-16174174D01*
X12563039Y-16374174D02*
X12572563Y-16364650D01*
X12572563Y-16364650D02*
X12591611Y-16336079D01*
X12591611Y-16336079D02*
X12601134Y-16317031D01*
X12601134Y-16317031D02*
X12610658Y-16288460D01*
X12610658Y-16288460D02*
X12620182Y-16240841D01*
X12620182Y-16240841D02*
X12620182Y-16202746D01*
X12620182Y-16202746D02*
X12610658Y-16155127D01*
X12610658Y-16155127D02*
X12601134Y-16126555D01*
X12601134Y-16126555D02*
X12591611Y-16107508D01*
X12591611Y-16107508D02*
X12572563Y-16078936D01*
X12572563Y-16078936D02*
X12563039Y-16069412D01*
D12*
X7557500Y-16430500D02*
X7557500Y-16510500D01*
X7517500Y-16470500D02*
X7597500Y-16470500D01*
D11*
X7896372Y-16361984D02*
X7915420Y-16361984D01*
X7915420Y-16361984D02*
X7934467Y-16371508D01*
X7934467Y-16371508D02*
X7943991Y-16381031D01*
X7943991Y-16381031D02*
X7953515Y-16400079D01*
X7953515Y-16400079D02*
X7963039Y-16438174D01*
X7963039Y-16438174D02*
X7963039Y-16485793D01*
X7963039Y-16485793D02*
X7953515Y-16523888D01*
X7953515Y-16523888D02*
X7943991Y-16542936D01*
X7943991Y-16542936D02*
X7934467Y-16552460D01*
X7934467Y-16552460D02*
X7915420Y-16561984D01*
X7915420Y-16561984D02*
X7896372Y-16561984D01*
X7896372Y-16561984D02*
X7877324Y-16552460D01*
X7877324Y-16552460D02*
X7867801Y-16542936D01*
X7867801Y-16542936D02*
X7858277Y-16523888D01*
X7858277Y-16523888D02*
X7848753Y-16485793D01*
X7848753Y-16485793D02*
X7848753Y-16438174D01*
X7848753Y-16438174D02*
X7858277Y-16400079D01*
X7858277Y-16400079D02*
X7867801Y-16381031D01*
X7867801Y-16381031D02*
X7877324Y-16371508D01*
X7877324Y-16371508D02*
X7896372Y-16361984D01*
X8048753Y-16542936D02*
X8058277Y-16552460D01*
X8058277Y-16552460D02*
X8048753Y-16561984D01*
X8048753Y-16561984D02*
X8039229Y-16552460D01*
X8039229Y-16552460D02*
X8048753Y-16542936D01*
X8048753Y-16542936D02*
X8048753Y-16561984D01*
X8172562Y-16447698D02*
X8153515Y-16438174D01*
X8153515Y-16438174D02*
X8143991Y-16428650D01*
X8143991Y-16428650D02*
X8134467Y-16409603D01*
X8134467Y-16409603D02*
X8134467Y-16400079D01*
X8134467Y-16400079D02*
X8143991Y-16381031D01*
X8143991Y-16381031D02*
X8153515Y-16371508D01*
X8153515Y-16371508D02*
X8172562Y-16361984D01*
X8172562Y-16361984D02*
X8210658Y-16361984D01*
X8210658Y-16361984D02*
X8229705Y-16371508D01*
X8229705Y-16371508D02*
X8239229Y-16381031D01*
X8239229Y-16381031D02*
X8248753Y-16400079D01*
X8248753Y-16400079D02*
X8248753Y-16409603D01*
X8248753Y-16409603D02*
X8239229Y-16428650D01*
X8239229Y-16428650D02*
X8229705Y-16438174D01*
X8229705Y-16438174D02*
X8210658Y-16447698D01*
X8210658Y-16447698D02*
X8172562Y-16447698D01*
X8172562Y-16447698D02*
X8153515Y-16457222D01*
X8153515Y-16457222D02*
X8143991Y-16466746D01*
X8143991Y-16466746D02*
X8134467Y-16485793D01*
X8134467Y-16485793D02*
X8134467Y-16523888D01*
X8134467Y-16523888D02*
X8143991Y-16542936D01*
X8143991Y-16542936D02*
X8153515Y-16552460D01*
X8153515Y-16552460D02*
X8172562Y-16561984D01*
X8172562Y-16561984D02*
X8210658Y-16561984D01*
X8210658Y-16561984D02*
X8229705Y-16552460D01*
X8229705Y-16552460D02*
X8239229Y-16542936D01*
X8239229Y-16542936D02*
X8248753Y-16523888D01*
X8248753Y-16523888D02*
X8248753Y-16485793D01*
X8248753Y-16485793D02*
X8239229Y-16466746D01*
X8239229Y-16466746D02*
X8229705Y-16457222D01*
X8229705Y-16457222D02*
X8210658Y-16447698D01*
X8372562Y-16361984D02*
X8391610Y-16361984D01*
X8391610Y-16361984D02*
X8410658Y-16371508D01*
X8410658Y-16371508D02*
X8420182Y-16381031D01*
X8420182Y-16381031D02*
X8429705Y-16400079D01*
X8429705Y-16400079D02*
X8439229Y-16438174D01*
X8439229Y-16438174D02*
X8439229Y-16485793D01*
X8439229Y-16485793D02*
X8429705Y-16523888D01*
X8429705Y-16523888D02*
X8420182Y-16542936D01*
X8420182Y-16542936D02*
X8410658Y-16552460D01*
X8410658Y-16552460D02*
X8391610Y-16561984D01*
X8391610Y-16561984D02*
X8372562Y-16561984D01*
X8372562Y-16561984D02*
X8353515Y-16552460D01*
X8353515Y-16552460D02*
X8343991Y-16542936D01*
X8343991Y-16542936D02*
X8334467Y-16523888D01*
X8334467Y-16523888D02*
X8324943Y-16485793D01*
X8324943Y-16485793D02*
X8324943Y-16438174D01*
X8324943Y-16438174D02*
X8334467Y-16400079D01*
X8334467Y-16400079D02*
X8343991Y-16381031D01*
X8343991Y-16381031D02*
X8353515Y-16371508D01*
X8353515Y-16371508D02*
X8372562Y-16361984D01*
X8563039Y-16361984D02*
X8582086Y-16361984D01*
X8582086Y-16361984D02*
X8601134Y-16371508D01*
X8601134Y-16371508D02*
X8610658Y-16381031D01*
X8610658Y-16381031D02*
X8620182Y-16400079D01*
X8620182Y-16400079D02*
X8629705Y-16438174D01*
X8629705Y-16438174D02*
X8629705Y-16485793D01*
X8629705Y-16485793D02*
X8620182Y-16523888D01*
X8620182Y-16523888D02*
X8610658Y-16542936D01*
X8610658Y-16542936D02*
X8601134Y-16552460D01*
X8601134Y-16552460D02*
X8582086Y-16561984D01*
X8582086Y-16561984D02*
X8563039Y-16561984D01*
X8563039Y-16561984D02*
X8543991Y-16552460D01*
X8543991Y-16552460D02*
X8534467Y-16542936D01*
X8534467Y-16542936D02*
X8524944Y-16523888D01*
X8524944Y-16523888D02*
X8515420Y-16485793D01*
X8515420Y-16485793D02*
X8515420Y-16438174D01*
X8515420Y-16438174D02*
X8524944Y-16400079D01*
X8524944Y-16400079D02*
X8534467Y-16381031D01*
X8534467Y-16381031D02*
X8543991Y-16371508D01*
X8543991Y-16371508D02*
X8563039Y-16361984D01*
X8715420Y-16561984D02*
X8715420Y-16428650D01*
X8715420Y-16447698D02*
X8724944Y-16438174D01*
X8724944Y-16438174D02*
X8743991Y-16428650D01*
X8743991Y-16428650D02*
X8772563Y-16428650D01*
X8772563Y-16428650D02*
X8791610Y-16438174D01*
X8791610Y-16438174D02*
X8801134Y-16457222D01*
X8801134Y-16457222D02*
X8801134Y-16561984D01*
X8801134Y-16457222D02*
X8810658Y-16438174D01*
X8810658Y-16438174D02*
X8829705Y-16428650D01*
X8829705Y-16428650D02*
X8858277Y-16428650D01*
X8858277Y-16428650D02*
X8877325Y-16438174D01*
X8877325Y-16438174D02*
X8886848Y-16457222D01*
X8886848Y-16457222D02*
X8886848Y-16561984D01*
X8982086Y-16561984D02*
X8982086Y-16428650D01*
X8982086Y-16447698D02*
X8991610Y-16438174D01*
X8991610Y-16438174D02*
X9010658Y-16428650D01*
X9010658Y-16428650D02*
X9039229Y-16428650D01*
X9039229Y-16428650D02*
X9058277Y-16438174D01*
X9058277Y-16438174D02*
X9067801Y-16457222D01*
X9067801Y-16457222D02*
X9067801Y-16561984D01*
X9067801Y-16457222D02*
X9077325Y-16438174D01*
X9077325Y-16438174D02*
X9096372Y-16428650D01*
X9096372Y-16428650D02*
X9124944Y-16428650D01*
X9124944Y-16428650D02*
X9143991Y-16438174D01*
X9143991Y-16438174D02*
X9153515Y-16457222D01*
X9153515Y-16457222D02*
X9153515Y-16561984D01*
X9543991Y-16352460D02*
X9372563Y-16609603D01*
X9801134Y-16361984D02*
X9820182Y-16361984D01*
X9820182Y-16361984D02*
X9839229Y-16371508D01*
X9839229Y-16371508D02*
X9848753Y-16381031D01*
X9848753Y-16381031D02*
X9858277Y-16400079D01*
X9858277Y-16400079D02*
X9867801Y-16438174D01*
X9867801Y-16438174D02*
X9867801Y-16485793D01*
X9867801Y-16485793D02*
X9858277Y-16523888D01*
X9858277Y-16523888D02*
X9848753Y-16542936D01*
X9848753Y-16542936D02*
X9839229Y-16552460D01*
X9839229Y-16552460D02*
X9820182Y-16561984D01*
X9820182Y-16561984D02*
X9801134Y-16561984D01*
X9801134Y-16561984D02*
X9782087Y-16552460D01*
X9782087Y-16552460D02*
X9772563Y-16542936D01*
X9772563Y-16542936D02*
X9763039Y-16523888D01*
X9763039Y-16523888D02*
X9753515Y-16485793D01*
X9753515Y-16485793D02*
X9753515Y-16438174D01*
X9753515Y-16438174D02*
X9763039Y-16400079D01*
X9763039Y-16400079D02*
X9772563Y-16381031D01*
X9772563Y-16381031D02*
X9782087Y-16371508D01*
X9782087Y-16371508D02*
X9801134Y-16361984D01*
X9953515Y-16542936D02*
X9963039Y-16552460D01*
X9963039Y-16552460D02*
X9953515Y-16561984D01*
X9953515Y-16561984D02*
X9943991Y-16552460D01*
X9943991Y-16552460D02*
X9953515Y-16542936D01*
X9953515Y-16542936D02*
X9953515Y-16561984D01*
X10086848Y-16361984D02*
X10105896Y-16361984D01*
X10105896Y-16361984D02*
X10124944Y-16371508D01*
X10124944Y-16371508D02*
X10134468Y-16381031D01*
X10134468Y-16381031D02*
X10143991Y-16400079D01*
X10143991Y-16400079D02*
X10153515Y-16438174D01*
X10153515Y-16438174D02*
X10153515Y-16485793D01*
X10153515Y-16485793D02*
X10143991Y-16523888D01*
X10143991Y-16523888D02*
X10134468Y-16542936D01*
X10134468Y-16542936D02*
X10124944Y-16552460D01*
X10124944Y-16552460D02*
X10105896Y-16561984D01*
X10105896Y-16561984D02*
X10086848Y-16561984D01*
X10086848Y-16561984D02*
X10067801Y-16552460D01*
X10067801Y-16552460D02*
X10058277Y-16542936D01*
X10058277Y-16542936D02*
X10048753Y-16523888D01*
X10048753Y-16523888D02*
X10039229Y-16485793D01*
X10039229Y-16485793D02*
X10039229Y-16438174D01*
X10039229Y-16438174D02*
X10048753Y-16400079D01*
X10048753Y-16400079D02*
X10058277Y-16381031D01*
X10058277Y-16381031D02*
X10067801Y-16371508D01*
X10067801Y-16371508D02*
X10086848Y-16361984D01*
X10220182Y-16361984D02*
X10343991Y-16361984D01*
X10343991Y-16361984D02*
X10277325Y-16438174D01*
X10277325Y-16438174D02*
X10305896Y-16438174D01*
X10305896Y-16438174D02*
X10324944Y-16447698D01*
X10324944Y-16447698D02*
X10334468Y-16457222D01*
X10334468Y-16457222D02*
X10343991Y-16476269D01*
X10343991Y-16476269D02*
X10343991Y-16523888D01*
X10343991Y-16523888D02*
X10334468Y-16542936D01*
X10334468Y-16542936D02*
X10324944Y-16552460D01*
X10324944Y-16552460D02*
X10305896Y-16561984D01*
X10305896Y-16561984D02*
X10248753Y-16561984D01*
X10248753Y-16561984D02*
X10229706Y-16552460D01*
X10229706Y-16552460D02*
X10220182Y-16542936D01*
X10534468Y-16561984D02*
X10420182Y-16561984D01*
X10477325Y-16561984D02*
X10477325Y-16361984D01*
X10477325Y-16361984D02*
X10458277Y-16390555D01*
X10458277Y-16390555D02*
X10439229Y-16409603D01*
X10439229Y-16409603D02*
X10420182Y-16419127D01*
X10715420Y-16361984D02*
X10620182Y-16361984D01*
X10620182Y-16361984D02*
X10610658Y-16457222D01*
X10610658Y-16457222D02*
X10620182Y-16447698D01*
X10620182Y-16447698D02*
X10639229Y-16438174D01*
X10639229Y-16438174D02*
X10686849Y-16438174D01*
X10686849Y-16438174D02*
X10705896Y-16447698D01*
X10705896Y-16447698D02*
X10715420Y-16457222D01*
X10715420Y-16457222D02*
X10724944Y-16476269D01*
X10724944Y-16476269D02*
X10724944Y-16523888D01*
X10724944Y-16523888D02*
X10715420Y-16542936D01*
X10715420Y-16542936D02*
X10705896Y-16552460D01*
X10705896Y-16552460D02*
X10686849Y-16561984D01*
X10686849Y-16561984D02*
X10639229Y-16561984D01*
X10639229Y-16561984D02*
X10620182Y-16552460D01*
X10620182Y-16552460D02*
X10610658Y-16542936D01*
X10801134Y-16361984D02*
X10801134Y-16400079D01*
X10877325Y-16361984D02*
X10877325Y-16400079D01*
X11172563Y-16638174D02*
X11163039Y-16628650D01*
X11163039Y-16628650D02*
X11143991Y-16600079D01*
X11143991Y-16600079D02*
X11134468Y-16581031D01*
X11134468Y-16581031D02*
X11124944Y-16552460D01*
X11124944Y-16552460D02*
X11115420Y-16504841D01*
X11115420Y-16504841D02*
X11115420Y-16466746D01*
X11115420Y-16466746D02*
X11124944Y-16419127D01*
X11124944Y-16419127D02*
X11134468Y-16390555D01*
X11134468Y-16390555D02*
X11143991Y-16371508D01*
X11143991Y-16371508D02*
X11163039Y-16342936D01*
X11163039Y-16342936D02*
X11172563Y-16333412D01*
X11334468Y-16361984D02*
X11296372Y-16361984D01*
X11296372Y-16361984D02*
X11277325Y-16371508D01*
X11277325Y-16371508D02*
X11267801Y-16381031D01*
X11267801Y-16381031D02*
X11248753Y-16409603D01*
X11248753Y-16409603D02*
X11239229Y-16447698D01*
X11239229Y-16447698D02*
X11239229Y-16523888D01*
X11239229Y-16523888D02*
X11248753Y-16542936D01*
X11248753Y-16542936D02*
X11258277Y-16552460D01*
X11258277Y-16552460D02*
X11277325Y-16561984D01*
X11277325Y-16561984D02*
X11315420Y-16561984D01*
X11315420Y-16561984D02*
X11334468Y-16552460D01*
X11334468Y-16552460D02*
X11343991Y-16542936D01*
X11343991Y-16542936D02*
X11353515Y-16523888D01*
X11353515Y-16523888D02*
X11353515Y-16476269D01*
X11353515Y-16476269D02*
X11343991Y-16457222D01*
X11343991Y-16457222D02*
X11334468Y-16447698D01*
X11334468Y-16447698D02*
X11315420Y-16438174D01*
X11315420Y-16438174D02*
X11277325Y-16438174D01*
X11277325Y-16438174D02*
X11258277Y-16447698D01*
X11258277Y-16447698D02*
X11248753Y-16457222D01*
X11248753Y-16457222D02*
X11239229Y-16476269D01*
X11420182Y-16361984D02*
X11543991Y-16361984D01*
X11543991Y-16361984D02*
X11477325Y-16438174D01*
X11477325Y-16438174D02*
X11505896Y-16438174D01*
X11505896Y-16438174D02*
X11524944Y-16447698D01*
X11524944Y-16447698D02*
X11534468Y-16457222D01*
X11534468Y-16457222D02*
X11543991Y-16476269D01*
X11543991Y-16476269D02*
X11543991Y-16523888D01*
X11543991Y-16523888D02*
X11534468Y-16542936D01*
X11534468Y-16542936D02*
X11524944Y-16552460D01*
X11524944Y-16552460D02*
X11505896Y-16561984D01*
X11505896Y-16561984D02*
X11448753Y-16561984D01*
X11448753Y-16561984D02*
X11429706Y-16552460D01*
X11429706Y-16552460D02*
X11420182Y-16542936D01*
X11782087Y-16561984D02*
X11782087Y-16361984D01*
X11867801Y-16561984D02*
X11867801Y-16457222D01*
X11867801Y-16457222D02*
X11858277Y-16438174D01*
X11858277Y-16438174D02*
X11839230Y-16428650D01*
X11839230Y-16428650D02*
X11810658Y-16428650D01*
X11810658Y-16428650D02*
X11791610Y-16438174D01*
X11791610Y-16438174D02*
X11782087Y-16447698D01*
X11991610Y-16561984D02*
X11972563Y-16552460D01*
X11972563Y-16552460D02*
X11963039Y-16542936D01*
X11963039Y-16542936D02*
X11953515Y-16523888D01*
X11953515Y-16523888D02*
X11953515Y-16466746D01*
X11953515Y-16466746D02*
X11963039Y-16447698D01*
X11963039Y-16447698D02*
X11972563Y-16438174D01*
X11972563Y-16438174D02*
X11991610Y-16428650D01*
X11991610Y-16428650D02*
X12020182Y-16428650D01*
X12020182Y-16428650D02*
X12039230Y-16438174D01*
X12039230Y-16438174D02*
X12048753Y-16447698D01*
X12048753Y-16447698D02*
X12058277Y-16466746D01*
X12058277Y-16466746D02*
X12058277Y-16523888D01*
X12058277Y-16523888D02*
X12048753Y-16542936D01*
X12048753Y-16542936D02*
X12039230Y-16552460D01*
X12039230Y-16552460D02*
X12020182Y-16561984D01*
X12020182Y-16561984D02*
X11991610Y-16561984D01*
X12172563Y-16561984D02*
X12153515Y-16552460D01*
X12153515Y-16552460D02*
X12143991Y-16533412D01*
X12143991Y-16533412D02*
X12143991Y-16361984D01*
X12324944Y-16552460D02*
X12305896Y-16561984D01*
X12305896Y-16561984D02*
X12267801Y-16561984D01*
X12267801Y-16561984D02*
X12248753Y-16552460D01*
X12248753Y-16552460D02*
X12239230Y-16533412D01*
X12239230Y-16533412D02*
X12239230Y-16457222D01*
X12239230Y-16457222D02*
X12248753Y-16438174D01*
X12248753Y-16438174D02*
X12267801Y-16428650D01*
X12267801Y-16428650D02*
X12305896Y-16428650D01*
X12305896Y-16428650D02*
X12324944Y-16438174D01*
X12324944Y-16438174D02*
X12334468Y-16457222D01*
X12334468Y-16457222D02*
X12334468Y-16476269D01*
X12334468Y-16476269D02*
X12239230Y-16495317D01*
X12410658Y-16552460D02*
X12429706Y-16561984D01*
X12429706Y-16561984D02*
X12467801Y-16561984D01*
X12467801Y-16561984D02*
X12486849Y-16552460D01*
X12486849Y-16552460D02*
X12496372Y-16533412D01*
X12496372Y-16533412D02*
X12496372Y-16523888D01*
X12496372Y-16523888D02*
X12486849Y-16504841D01*
X12486849Y-16504841D02*
X12467801Y-16495317D01*
X12467801Y-16495317D02*
X12439230Y-16495317D01*
X12439230Y-16495317D02*
X12420182Y-16485793D01*
X12420182Y-16485793D02*
X12410658Y-16466746D01*
X12410658Y-16466746D02*
X12410658Y-16457222D01*
X12410658Y-16457222D02*
X12420182Y-16438174D01*
X12420182Y-16438174D02*
X12439230Y-16428650D01*
X12439230Y-16428650D02*
X12467801Y-16428650D01*
X12467801Y-16428650D02*
X12486849Y-16438174D01*
X12563039Y-16638174D02*
X12572563Y-16628650D01*
X12572563Y-16628650D02*
X12591611Y-16600079D01*
X12591611Y-16600079D02*
X12601134Y-16581031D01*
X12601134Y-16581031D02*
X12610658Y-16552460D01*
X12610658Y-16552460D02*
X12620182Y-16504841D01*
X12620182Y-16504841D02*
X12620182Y-16466746D01*
X12620182Y-16466746D02*
X12610658Y-16419127D01*
X12610658Y-16419127D02*
X12601134Y-16390555D01*
X12601134Y-16390555D02*
X12591611Y-16371508D01*
X12591611Y-16371508D02*
X12572563Y-16342936D01*
X12572563Y-16342936D02*
X12563039Y-16333412D01*
D12*
X7584481Y-16765931D02*
X7584481Y-16703069D01*
X7521619Y-16703069D01*
X7521619Y-16765931D01*
X7584481Y-16765931D01*
D11*
X7896372Y-16625984D02*
X7915420Y-16625984D01*
X7915420Y-16625984D02*
X7934467Y-16635508D01*
X7934467Y-16635508D02*
X7943991Y-16645031D01*
X7943991Y-16645031D02*
X7953515Y-16664079D01*
X7953515Y-16664079D02*
X7963039Y-16702174D01*
X7963039Y-16702174D02*
X7963039Y-16749793D01*
X7963039Y-16749793D02*
X7953515Y-16787889D01*
X7953515Y-16787889D02*
X7943991Y-16806936D01*
X7943991Y-16806936D02*
X7934467Y-16816460D01*
X7934467Y-16816460D02*
X7915420Y-16825984D01*
X7915420Y-16825984D02*
X7896372Y-16825984D01*
X7896372Y-16825984D02*
X7877324Y-16816460D01*
X7877324Y-16816460D02*
X7867801Y-16806936D01*
X7867801Y-16806936D02*
X7858277Y-16787889D01*
X7858277Y-16787889D02*
X7848753Y-16749793D01*
X7848753Y-16749793D02*
X7848753Y-16702174D01*
X7848753Y-16702174D02*
X7858277Y-16664079D01*
X7858277Y-16664079D02*
X7867801Y-16645031D01*
X7867801Y-16645031D02*
X7877324Y-16635508D01*
X7877324Y-16635508D02*
X7896372Y-16625984D01*
X8048753Y-16806936D02*
X8058277Y-16816460D01*
X8058277Y-16816460D02*
X8048753Y-16825984D01*
X8048753Y-16825984D02*
X8039229Y-16816460D01*
X8039229Y-16816460D02*
X8048753Y-16806936D01*
X8048753Y-16806936D02*
X8048753Y-16825984D01*
X8172562Y-16711698D02*
X8153515Y-16702174D01*
X8153515Y-16702174D02*
X8143991Y-16692650D01*
X8143991Y-16692650D02*
X8134467Y-16673603D01*
X8134467Y-16673603D02*
X8134467Y-16664079D01*
X8134467Y-16664079D02*
X8143991Y-16645031D01*
X8143991Y-16645031D02*
X8153515Y-16635508D01*
X8153515Y-16635508D02*
X8172562Y-16625984D01*
X8172562Y-16625984D02*
X8210658Y-16625984D01*
X8210658Y-16625984D02*
X8229705Y-16635508D01*
X8229705Y-16635508D02*
X8239229Y-16645031D01*
X8239229Y-16645031D02*
X8248753Y-16664079D01*
X8248753Y-16664079D02*
X8248753Y-16673603D01*
X8248753Y-16673603D02*
X8239229Y-16692650D01*
X8239229Y-16692650D02*
X8229705Y-16702174D01*
X8229705Y-16702174D02*
X8210658Y-16711698D01*
X8210658Y-16711698D02*
X8172562Y-16711698D01*
X8172562Y-16711698D02*
X8153515Y-16721222D01*
X8153515Y-16721222D02*
X8143991Y-16730746D01*
X8143991Y-16730746D02*
X8134467Y-16749793D01*
X8134467Y-16749793D02*
X8134467Y-16787889D01*
X8134467Y-16787889D02*
X8143991Y-16806936D01*
X8143991Y-16806936D02*
X8153515Y-16816460D01*
X8153515Y-16816460D02*
X8172562Y-16825984D01*
X8172562Y-16825984D02*
X8210658Y-16825984D01*
X8210658Y-16825984D02*
X8229705Y-16816460D01*
X8229705Y-16816460D02*
X8239229Y-16806936D01*
X8239229Y-16806936D02*
X8248753Y-16787889D01*
X8248753Y-16787889D02*
X8248753Y-16749793D01*
X8248753Y-16749793D02*
X8239229Y-16730746D01*
X8239229Y-16730746D02*
X8229705Y-16721222D01*
X8229705Y-16721222D02*
X8210658Y-16711698D01*
X8363039Y-16711698D02*
X8343991Y-16702174D01*
X8343991Y-16702174D02*
X8334467Y-16692650D01*
X8334467Y-16692650D02*
X8324943Y-16673603D01*
X8324943Y-16673603D02*
X8324943Y-16664079D01*
X8324943Y-16664079D02*
X8334467Y-16645031D01*
X8334467Y-16645031D02*
X8343991Y-16635508D01*
X8343991Y-16635508D02*
X8363039Y-16625984D01*
X8363039Y-16625984D02*
X8401134Y-16625984D01*
X8401134Y-16625984D02*
X8420182Y-16635508D01*
X8420182Y-16635508D02*
X8429705Y-16645031D01*
X8429705Y-16645031D02*
X8439229Y-16664079D01*
X8439229Y-16664079D02*
X8439229Y-16673603D01*
X8439229Y-16673603D02*
X8429705Y-16692650D01*
X8429705Y-16692650D02*
X8420182Y-16702174D01*
X8420182Y-16702174D02*
X8401134Y-16711698D01*
X8401134Y-16711698D02*
X8363039Y-16711698D01*
X8363039Y-16711698D02*
X8343991Y-16721222D01*
X8343991Y-16721222D02*
X8334467Y-16730746D01*
X8334467Y-16730746D02*
X8324943Y-16749793D01*
X8324943Y-16749793D02*
X8324943Y-16787889D01*
X8324943Y-16787889D02*
X8334467Y-16806936D01*
X8334467Y-16806936D02*
X8343991Y-16816460D01*
X8343991Y-16816460D02*
X8363039Y-16825984D01*
X8363039Y-16825984D02*
X8401134Y-16825984D01*
X8401134Y-16825984D02*
X8420182Y-16816460D01*
X8420182Y-16816460D02*
X8429705Y-16806936D01*
X8429705Y-16806936D02*
X8439229Y-16787889D01*
X8439229Y-16787889D02*
X8439229Y-16749793D01*
X8439229Y-16749793D02*
X8429705Y-16730746D01*
X8429705Y-16730746D02*
X8420182Y-16721222D01*
X8420182Y-16721222D02*
X8401134Y-16711698D01*
X8534467Y-16825984D02*
X8572563Y-16825984D01*
X8572563Y-16825984D02*
X8591610Y-16816460D01*
X8591610Y-16816460D02*
X8601134Y-16806936D01*
X8601134Y-16806936D02*
X8620182Y-16778365D01*
X8620182Y-16778365D02*
X8629705Y-16740269D01*
X8629705Y-16740269D02*
X8629705Y-16664079D01*
X8629705Y-16664079D02*
X8620182Y-16645031D01*
X8620182Y-16645031D02*
X8610658Y-16635508D01*
X8610658Y-16635508D02*
X8591610Y-16625984D01*
X8591610Y-16625984D02*
X8553515Y-16625984D01*
X8553515Y-16625984D02*
X8534467Y-16635508D01*
X8534467Y-16635508D02*
X8524944Y-16645031D01*
X8524944Y-16645031D02*
X8515420Y-16664079D01*
X8515420Y-16664079D02*
X8515420Y-16711698D01*
X8515420Y-16711698D02*
X8524944Y-16730746D01*
X8524944Y-16730746D02*
X8534467Y-16740269D01*
X8534467Y-16740269D02*
X8553515Y-16749793D01*
X8553515Y-16749793D02*
X8591610Y-16749793D01*
X8591610Y-16749793D02*
X8610658Y-16740269D01*
X8610658Y-16740269D02*
X8620182Y-16730746D01*
X8620182Y-16730746D02*
X8629705Y-16711698D01*
X8715420Y-16825984D02*
X8715420Y-16692650D01*
X8715420Y-16711698D02*
X8724944Y-16702174D01*
X8724944Y-16702174D02*
X8743991Y-16692650D01*
X8743991Y-16692650D02*
X8772563Y-16692650D01*
X8772563Y-16692650D02*
X8791610Y-16702174D01*
X8791610Y-16702174D02*
X8801134Y-16721222D01*
X8801134Y-16721222D02*
X8801134Y-16825984D01*
X8801134Y-16721222D02*
X8810658Y-16702174D01*
X8810658Y-16702174D02*
X8829705Y-16692650D01*
X8829705Y-16692650D02*
X8858277Y-16692650D01*
X8858277Y-16692650D02*
X8877325Y-16702174D01*
X8877325Y-16702174D02*
X8886848Y-16721222D01*
X8886848Y-16721222D02*
X8886848Y-16825984D01*
X8982086Y-16825984D02*
X8982086Y-16692650D01*
X8982086Y-16711698D02*
X8991610Y-16702174D01*
X8991610Y-16702174D02*
X9010658Y-16692650D01*
X9010658Y-16692650D02*
X9039229Y-16692650D01*
X9039229Y-16692650D02*
X9058277Y-16702174D01*
X9058277Y-16702174D02*
X9067801Y-16721222D01*
X9067801Y-16721222D02*
X9067801Y-16825984D01*
X9067801Y-16721222D02*
X9077325Y-16702174D01*
X9077325Y-16702174D02*
X9096372Y-16692650D01*
X9096372Y-16692650D02*
X9124944Y-16692650D01*
X9124944Y-16692650D02*
X9143991Y-16702174D01*
X9143991Y-16702174D02*
X9153515Y-16721222D01*
X9153515Y-16721222D02*
X9153515Y-16825984D01*
X9543991Y-16616460D02*
X9372563Y-16873603D01*
X9801134Y-16625984D02*
X9820182Y-16625984D01*
X9820182Y-16625984D02*
X9839229Y-16635508D01*
X9839229Y-16635508D02*
X9848753Y-16645031D01*
X9848753Y-16645031D02*
X9858277Y-16664079D01*
X9858277Y-16664079D02*
X9867801Y-16702174D01*
X9867801Y-16702174D02*
X9867801Y-16749793D01*
X9867801Y-16749793D02*
X9858277Y-16787889D01*
X9858277Y-16787889D02*
X9848753Y-16806936D01*
X9848753Y-16806936D02*
X9839229Y-16816460D01*
X9839229Y-16816460D02*
X9820182Y-16825984D01*
X9820182Y-16825984D02*
X9801134Y-16825984D01*
X9801134Y-16825984D02*
X9782087Y-16816460D01*
X9782087Y-16816460D02*
X9772563Y-16806936D01*
X9772563Y-16806936D02*
X9763039Y-16787889D01*
X9763039Y-16787889D02*
X9753515Y-16749793D01*
X9753515Y-16749793D02*
X9753515Y-16702174D01*
X9753515Y-16702174D02*
X9763039Y-16664079D01*
X9763039Y-16664079D02*
X9772563Y-16645031D01*
X9772563Y-16645031D02*
X9782087Y-16635508D01*
X9782087Y-16635508D02*
X9801134Y-16625984D01*
X9953515Y-16806936D02*
X9963039Y-16816460D01*
X9963039Y-16816460D02*
X9953515Y-16825984D01*
X9953515Y-16825984D02*
X9943991Y-16816460D01*
X9943991Y-16816460D02*
X9953515Y-16806936D01*
X9953515Y-16806936D02*
X9953515Y-16825984D01*
X10086848Y-16625984D02*
X10105896Y-16625984D01*
X10105896Y-16625984D02*
X10124944Y-16635508D01*
X10124944Y-16635508D02*
X10134468Y-16645031D01*
X10134468Y-16645031D02*
X10143991Y-16664079D01*
X10143991Y-16664079D02*
X10153515Y-16702174D01*
X10153515Y-16702174D02*
X10153515Y-16749793D01*
X10153515Y-16749793D02*
X10143991Y-16787889D01*
X10143991Y-16787889D02*
X10134468Y-16806936D01*
X10134468Y-16806936D02*
X10124944Y-16816460D01*
X10124944Y-16816460D02*
X10105896Y-16825984D01*
X10105896Y-16825984D02*
X10086848Y-16825984D01*
X10086848Y-16825984D02*
X10067801Y-16816460D01*
X10067801Y-16816460D02*
X10058277Y-16806936D01*
X10058277Y-16806936D02*
X10048753Y-16787889D01*
X10048753Y-16787889D02*
X10039229Y-16749793D01*
X10039229Y-16749793D02*
X10039229Y-16702174D01*
X10039229Y-16702174D02*
X10048753Y-16664079D01*
X10048753Y-16664079D02*
X10058277Y-16645031D01*
X10058277Y-16645031D02*
X10067801Y-16635508D01*
X10067801Y-16635508D02*
X10086848Y-16625984D01*
X10220182Y-16625984D02*
X10343991Y-16625984D01*
X10343991Y-16625984D02*
X10277325Y-16702174D01*
X10277325Y-16702174D02*
X10305896Y-16702174D01*
X10305896Y-16702174D02*
X10324944Y-16711698D01*
X10324944Y-16711698D02*
X10334468Y-16721222D01*
X10334468Y-16721222D02*
X10343991Y-16740269D01*
X10343991Y-16740269D02*
X10343991Y-16787889D01*
X10343991Y-16787889D02*
X10334468Y-16806936D01*
X10334468Y-16806936D02*
X10324944Y-16816460D01*
X10324944Y-16816460D02*
X10305896Y-16825984D01*
X10305896Y-16825984D02*
X10248753Y-16825984D01*
X10248753Y-16825984D02*
X10229706Y-16816460D01*
X10229706Y-16816460D02*
X10220182Y-16806936D01*
X10524944Y-16625984D02*
X10429706Y-16625984D01*
X10429706Y-16625984D02*
X10420182Y-16721222D01*
X10420182Y-16721222D02*
X10429706Y-16711698D01*
X10429706Y-16711698D02*
X10448753Y-16702174D01*
X10448753Y-16702174D02*
X10496372Y-16702174D01*
X10496372Y-16702174D02*
X10515420Y-16711698D01*
X10515420Y-16711698D02*
X10524944Y-16721222D01*
X10524944Y-16721222D02*
X10534468Y-16740269D01*
X10534468Y-16740269D02*
X10534468Y-16787889D01*
X10534468Y-16787889D02*
X10524944Y-16806936D01*
X10524944Y-16806936D02*
X10515420Y-16816460D01*
X10515420Y-16816460D02*
X10496372Y-16825984D01*
X10496372Y-16825984D02*
X10448753Y-16825984D01*
X10448753Y-16825984D02*
X10429706Y-16816460D01*
X10429706Y-16816460D02*
X10420182Y-16806936D01*
X10658277Y-16625984D02*
X10677325Y-16625984D01*
X10677325Y-16625984D02*
X10696372Y-16635508D01*
X10696372Y-16635508D02*
X10705896Y-16645031D01*
X10705896Y-16645031D02*
X10715420Y-16664079D01*
X10715420Y-16664079D02*
X10724944Y-16702174D01*
X10724944Y-16702174D02*
X10724944Y-16749793D01*
X10724944Y-16749793D02*
X10715420Y-16787889D01*
X10715420Y-16787889D02*
X10705896Y-16806936D01*
X10705896Y-16806936D02*
X10696372Y-16816460D01*
X10696372Y-16816460D02*
X10677325Y-16825984D01*
X10677325Y-16825984D02*
X10658277Y-16825984D01*
X10658277Y-16825984D02*
X10639229Y-16816460D01*
X10639229Y-16816460D02*
X10629706Y-16806936D01*
X10629706Y-16806936D02*
X10620182Y-16787889D01*
X10620182Y-16787889D02*
X10610658Y-16749793D01*
X10610658Y-16749793D02*
X10610658Y-16702174D01*
X10610658Y-16702174D02*
X10620182Y-16664079D01*
X10620182Y-16664079D02*
X10629706Y-16645031D01*
X10629706Y-16645031D02*
X10639229Y-16635508D01*
X10639229Y-16635508D02*
X10658277Y-16625984D01*
X10801134Y-16625984D02*
X10801134Y-16664079D01*
X10877325Y-16625984D02*
X10877325Y-16664079D01*
X11172563Y-16902174D02*
X11163039Y-16892650D01*
X11163039Y-16892650D02*
X11143991Y-16864079D01*
X11143991Y-16864079D02*
X11134468Y-16845031D01*
X11134468Y-16845031D02*
X11124944Y-16816460D01*
X11124944Y-16816460D02*
X11115420Y-16768841D01*
X11115420Y-16768841D02*
X11115420Y-16730746D01*
X11115420Y-16730746D02*
X11124944Y-16683127D01*
X11124944Y-16683127D02*
X11134468Y-16654555D01*
X11134468Y-16654555D02*
X11143991Y-16635508D01*
X11143991Y-16635508D02*
X11163039Y-16606936D01*
X11163039Y-16606936D02*
X11172563Y-16597412D01*
X11353515Y-16825984D02*
X11239229Y-16825984D01*
X11296372Y-16825984D02*
X11296372Y-16625984D01*
X11296372Y-16625984D02*
X11277325Y-16654555D01*
X11277325Y-16654555D02*
X11258277Y-16673603D01*
X11258277Y-16673603D02*
X11239229Y-16683127D01*
X11524944Y-16625984D02*
X11486848Y-16625984D01*
X11486848Y-16625984D02*
X11467801Y-16635508D01*
X11467801Y-16635508D02*
X11458277Y-16645031D01*
X11458277Y-16645031D02*
X11439229Y-16673603D01*
X11439229Y-16673603D02*
X11429706Y-16711698D01*
X11429706Y-16711698D02*
X11429706Y-16787889D01*
X11429706Y-16787889D02*
X11439229Y-16806936D01*
X11439229Y-16806936D02*
X11448753Y-16816460D01*
X11448753Y-16816460D02*
X11467801Y-16825984D01*
X11467801Y-16825984D02*
X11505896Y-16825984D01*
X11505896Y-16825984D02*
X11524944Y-16816460D01*
X11524944Y-16816460D02*
X11534468Y-16806936D01*
X11534468Y-16806936D02*
X11543991Y-16787889D01*
X11543991Y-16787889D02*
X11543991Y-16740269D01*
X11543991Y-16740269D02*
X11534468Y-16721222D01*
X11534468Y-16721222D02*
X11524944Y-16711698D01*
X11524944Y-16711698D02*
X11505896Y-16702174D01*
X11505896Y-16702174D02*
X11467801Y-16702174D01*
X11467801Y-16702174D02*
X11448753Y-16711698D01*
X11448753Y-16711698D02*
X11439229Y-16721222D01*
X11439229Y-16721222D02*
X11429706Y-16740269D01*
X11782087Y-16825984D02*
X11782087Y-16625984D01*
X11867801Y-16825984D02*
X11867801Y-16721222D01*
X11867801Y-16721222D02*
X11858277Y-16702174D01*
X11858277Y-16702174D02*
X11839230Y-16692650D01*
X11839230Y-16692650D02*
X11810658Y-16692650D01*
X11810658Y-16692650D02*
X11791610Y-16702174D01*
X11791610Y-16702174D02*
X11782087Y-16711698D01*
X11991610Y-16825984D02*
X11972563Y-16816460D01*
X11972563Y-16816460D02*
X11963039Y-16806936D01*
X11963039Y-16806936D02*
X11953515Y-16787889D01*
X11953515Y-16787889D02*
X11953515Y-16730746D01*
X11953515Y-16730746D02*
X11963039Y-16711698D01*
X11963039Y-16711698D02*
X11972563Y-16702174D01*
X11972563Y-16702174D02*
X11991610Y-16692650D01*
X11991610Y-16692650D02*
X12020182Y-16692650D01*
X12020182Y-16692650D02*
X12039230Y-16702174D01*
X12039230Y-16702174D02*
X12048753Y-16711698D01*
X12048753Y-16711698D02*
X12058277Y-16730746D01*
X12058277Y-16730746D02*
X12058277Y-16787889D01*
X12058277Y-16787889D02*
X12048753Y-16806936D01*
X12048753Y-16806936D02*
X12039230Y-16816460D01*
X12039230Y-16816460D02*
X12020182Y-16825984D01*
X12020182Y-16825984D02*
X11991610Y-16825984D01*
X12172563Y-16825984D02*
X12153515Y-16816460D01*
X12153515Y-16816460D02*
X12143991Y-16797412D01*
X12143991Y-16797412D02*
X12143991Y-16625984D01*
X12324944Y-16816460D02*
X12305896Y-16825984D01*
X12305896Y-16825984D02*
X12267801Y-16825984D01*
X12267801Y-16825984D02*
X12248753Y-16816460D01*
X12248753Y-16816460D02*
X12239230Y-16797412D01*
X12239230Y-16797412D02*
X12239230Y-16721222D01*
X12239230Y-16721222D02*
X12248753Y-16702174D01*
X12248753Y-16702174D02*
X12267801Y-16692650D01*
X12267801Y-16692650D02*
X12305896Y-16692650D01*
X12305896Y-16692650D02*
X12324944Y-16702174D01*
X12324944Y-16702174D02*
X12334468Y-16721222D01*
X12334468Y-16721222D02*
X12334468Y-16740269D01*
X12334468Y-16740269D02*
X12239230Y-16759317D01*
X12410658Y-16816460D02*
X12429706Y-16825984D01*
X12429706Y-16825984D02*
X12467801Y-16825984D01*
X12467801Y-16825984D02*
X12486849Y-16816460D01*
X12486849Y-16816460D02*
X12496372Y-16797412D01*
X12496372Y-16797412D02*
X12496372Y-16787889D01*
X12496372Y-16787889D02*
X12486849Y-16768841D01*
X12486849Y-16768841D02*
X12467801Y-16759317D01*
X12467801Y-16759317D02*
X12439230Y-16759317D01*
X12439230Y-16759317D02*
X12420182Y-16749793D01*
X12420182Y-16749793D02*
X12410658Y-16730746D01*
X12410658Y-16730746D02*
X12410658Y-16721222D01*
X12410658Y-16721222D02*
X12420182Y-16702174D01*
X12420182Y-16702174D02*
X12439230Y-16692650D01*
X12439230Y-16692650D02*
X12467801Y-16692650D01*
X12467801Y-16692650D02*
X12486849Y-16702174D01*
X12563039Y-16902174D02*
X12572563Y-16892650D01*
X12572563Y-16892650D02*
X12591611Y-16864079D01*
X12591611Y-16864079D02*
X12601134Y-16845031D01*
X12601134Y-16845031D02*
X12610658Y-16816460D01*
X12610658Y-16816460D02*
X12620182Y-16768841D01*
X12620182Y-16768841D02*
X12620182Y-16730746D01*
X12620182Y-16730746D02*
X12610658Y-16683127D01*
X12610658Y-16683127D02*
X12601134Y-16654555D01*
X12601134Y-16654555D02*
X12591611Y-16635508D01*
X12591611Y-16635508D02*
X12572563Y-16606936D01*
X12572563Y-16606936D02*
X12563039Y-16597412D01*
D12*
X7552500Y-17043500D02*
X7597500Y-16998500D01*
X7552500Y-16953500D01*
X7507500Y-16998500D01*
X7552500Y-17043500D01*
D11*
X7896372Y-16889984D02*
X7915420Y-16889984D01*
X7915420Y-16889984D02*
X7934467Y-16899508D01*
X7934467Y-16899508D02*
X7943991Y-16909031D01*
X7943991Y-16909031D02*
X7953515Y-16928079D01*
X7953515Y-16928079D02*
X7963039Y-16966174D01*
X7963039Y-16966174D02*
X7963039Y-17013793D01*
X7963039Y-17013793D02*
X7953515Y-17051889D01*
X7953515Y-17051889D02*
X7943991Y-17070936D01*
X7943991Y-17070936D02*
X7934467Y-17080460D01*
X7934467Y-17080460D02*
X7915420Y-17089984D01*
X7915420Y-17089984D02*
X7896372Y-17089984D01*
X7896372Y-17089984D02*
X7877324Y-17080460D01*
X7877324Y-17080460D02*
X7867801Y-17070936D01*
X7867801Y-17070936D02*
X7858277Y-17051889D01*
X7858277Y-17051889D02*
X7848753Y-17013793D01*
X7848753Y-17013793D02*
X7848753Y-16966174D01*
X7848753Y-16966174D02*
X7858277Y-16928079D01*
X7858277Y-16928079D02*
X7867801Y-16909031D01*
X7867801Y-16909031D02*
X7877324Y-16899508D01*
X7877324Y-16899508D02*
X7896372Y-16889984D01*
X8048753Y-17070936D02*
X8058277Y-17080460D01*
X8058277Y-17080460D02*
X8048753Y-17089984D01*
X8048753Y-17089984D02*
X8039229Y-17080460D01*
X8039229Y-17080460D02*
X8048753Y-17070936D01*
X8048753Y-17070936D02*
X8048753Y-17089984D01*
X8153515Y-17089984D02*
X8191610Y-17089984D01*
X8191610Y-17089984D02*
X8210658Y-17080460D01*
X8210658Y-17080460D02*
X8220182Y-17070936D01*
X8220182Y-17070936D02*
X8239229Y-17042365D01*
X8239229Y-17042365D02*
X8248753Y-17004270D01*
X8248753Y-17004270D02*
X8248753Y-16928079D01*
X8248753Y-16928079D02*
X8239229Y-16909031D01*
X8239229Y-16909031D02*
X8229705Y-16899508D01*
X8229705Y-16899508D02*
X8210658Y-16889984D01*
X8210658Y-16889984D02*
X8172562Y-16889984D01*
X8172562Y-16889984D02*
X8153515Y-16899508D01*
X8153515Y-16899508D02*
X8143991Y-16909031D01*
X8143991Y-16909031D02*
X8134467Y-16928079D01*
X8134467Y-16928079D02*
X8134467Y-16975698D01*
X8134467Y-16975698D02*
X8143991Y-16994746D01*
X8143991Y-16994746D02*
X8153515Y-17004270D01*
X8153515Y-17004270D02*
X8172562Y-17013793D01*
X8172562Y-17013793D02*
X8210658Y-17013793D01*
X8210658Y-17013793D02*
X8229705Y-17004270D01*
X8229705Y-17004270D02*
X8239229Y-16994746D01*
X8239229Y-16994746D02*
X8248753Y-16975698D01*
X8372562Y-16889984D02*
X8391610Y-16889984D01*
X8391610Y-16889984D02*
X8410658Y-16899508D01*
X8410658Y-16899508D02*
X8420182Y-16909031D01*
X8420182Y-16909031D02*
X8429705Y-16928079D01*
X8429705Y-16928079D02*
X8439229Y-16966174D01*
X8439229Y-16966174D02*
X8439229Y-17013793D01*
X8439229Y-17013793D02*
X8429705Y-17051889D01*
X8429705Y-17051889D02*
X8420182Y-17070936D01*
X8420182Y-17070936D02*
X8410658Y-17080460D01*
X8410658Y-17080460D02*
X8391610Y-17089984D01*
X8391610Y-17089984D02*
X8372562Y-17089984D01*
X8372562Y-17089984D02*
X8353515Y-17080460D01*
X8353515Y-17080460D02*
X8343991Y-17070936D01*
X8343991Y-17070936D02*
X8334467Y-17051889D01*
X8334467Y-17051889D02*
X8324943Y-17013793D01*
X8324943Y-17013793D02*
X8324943Y-16966174D01*
X8324943Y-16966174D02*
X8334467Y-16928079D01*
X8334467Y-16928079D02*
X8343991Y-16909031D01*
X8343991Y-16909031D02*
X8353515Y-16899508D01*
X8353515Y-16899508D02*
X8372562Y-16889984D01*
X8563039Y-16889984D02*
X8582086Y-16889984D01*
X8582086Y-16889984D02*
X8601134Y-16899508D01*
X8601134Y-16899508D02*
X8610658Y-16909031D01*
X8610658Y-16909031D02*
X8620182Y-16928079D01*
X8620182Y-16928079D02*
X8629705Y-16966174D01*
X8629705Y-16966174D02*
X8629705Y-17013793D01*
X8629705Y-17013793D02*
X8620182Y-17051889D01*
X8620182Y-17051889D02*
X8610658Y-17070936D01*
X8610658Y-17070936D02*
X8601134Y-17080460D01*
X8601134Y-17080460D02*
X8582086Y-17089984D01*
X8582086Y-17089984D02*
X8563039Y-17089984D01*
X8563039Y-17089984D02*
X8543991Y-17080460D01*
X8543991Y-17080460D02*
X8534467Y-17070936D01*
X8534467Y-17070936D02*
X8524944Y-17051889D01*
X8524944Y-17051889D02*
X8515420Y-17013793D01*
X8515420Y-17013793D02*
X8515420Y-16966174D01*
X8515420Y-16966174D02*
X8524944Y-16928079D01*
X8524944Y-16928079D02*
X8534467Y-16909031D01*
X8534467Y-16909031D02*
X8543991Y-16899508D01*
X8543991Y-16899508D02*
X8563039Y-16889984D01*
X8715420Y-17089984D02*
X8715420Y-16956650D01*
X8715420Y-16975698D02*
X8724944Y-16966174D01*
X8724944Y-16966174D02*
X8743991Y-16956650D01*
X8743991Y-16956650D02*
X8772563Y-16956650D01*
X8772563Y-16956650D02*
X8791610Y-16966174D01*
X8791610Y-16966174D02*
X8801134Y-16985222D01*
X8801134Y-16985222D02*
X8801134Y-17089984D01*
X8801134Y-16985222D02*
X8810658Y-16966174D01*
X8810658Y-16966174D02*
X8829705Y-16956650D01*
X8829705Y-16956650D02*
X8858277Y-16956650D01*
X8858277Y-16956650D02*
X8877325Y-16966174D01*
X8877325Y-16966174D02*
X8886848Y-16985222D01*
X8886848Y-16985222D02*
X8886848Y-17089984D01*
X8982086Y-17089984D02*
X8982086Y-16956650D01*
X8982086Y-16975698D02*
X8991610Y-16966174D01*
X8991610Y-16966174D02*
X9010658Y-16956650D01*
X9010658Y-16956650D02*
X9039229Y-16956650D01*
X9039229Y-16956650D02*
X9058277Y-16966174D01*
X9058277Y-16966174D02*
X9067801Y-16985222D01*
X9067801Y-16985222D02*
X9067801Y-17089984D01*
X9067801Y-16985222D02*
X9077325Y-16966174D01*
X9077325Y-16966174D02*
X9096372Y-16956650D01*
X9096372Y-16956650D02*
X9124944Y-16956650D01*
X9124944Y-16956650D02*
X9143991Y-16966174D01*
X9143991Y-16966174D02*
X9153515Y-16985222D01*
X9153515Y-16985222D02*
X9153515Y-17089984D01*
X9543991Y-16880460D02*
X9372563Y-17137603D01*
X9801134Y-16889984D02*
X9820182Y-16889984D01*
X9820182Y-16889984D02*
X9839229Y-16899508D01*
X9839229Y-16899508D02*
X9848753Y-16909031D01*
X9848753Y-16909031D02*
X9858277Y-16928079D01*
X9858277Y-16928079D02*
X9867801Y-16966174D01*
X9867801Y-16966174D02*
X9867801Y-17013793D01*
X9867801Y-17013793D02*
X9858277Y-17051889D01*
X9858277Y-17051889D02*
X9848753Y-17070936D01*
X9848753Y-17070936D02*
X9839229Y-17080460D01*
X9839229Y-17080460D02*
X9820182Y-17089984D01*
X9820182Y-17089984D02*
X9801134Y-17089984D01*
X9801134Y-17089984D02*
X9782087Y-17080460D01*
X9782087Y-17080460D02*
X9772563Y-17070936D01*
X9772563Y-17070936D02*
X9763039Y-17051889D01*
X9763039Y-17051889D02*
X9753515Y-17013793D01*
X9753515Y-17013793D02*
X9753515Y-16966174D01*
X9753515Y-16966174D02*
X9763039Y-16928079D01*
X9763039Y-16928079D02*
X9772563Y-16909031D01*
X9772563Y-16909031D02*
X9782087Y-16899508D01*
X9782087Y-16899508D02*
X9801134Y-16889984D01*
X9953515Y-17070936D02*
X9963039Y-17080460D01*
X9963039Y-17080460D02*
X9953515Y-17089984D01*
X9953515Y-17089984D02*
X9943991Y-17080460D01*
X9943991Y-17080460D02*
X9953515Y-17070936D01*
X9953515Y-17070936D02*
X9953515Y-17089984D01*
X10086848Y-16889984D02*
X10105896Y-16889984D01*
X10105896Y-16889984D02*
X10124944Y-16899508D01*
X10124944Y-16899508D02*
X10134468Y-16909031D01*
X10134468Y-16909031D02*
X10143991Y-16928079D01*
X10143991Y-16928079D02*
X10153515Y-16966174D01*
X10153515Y-16966174D02*
X10153515Y-17013793D01*
X10153515Y-17013793D02*
X10143991Y-17051889D01*
X10143991Y-17051889D02*
X10134468Y-17070936D01*
X10134468Y-17070936D02*
X10124944Y-17080460D01*
X10124944Y-17080460D02*
X10105896Y-17089984D01*
X10105896Y-17089984D02*
X10086848Y-17089984D01*
X10086848Y-17089984D02*
X10067801Y-17080460D01*
X10067801Y-17080460D02*
X10058277Y-17070936D01*
X10058277Y-17070936D02*
X10048753Y-17051889D01*
X10048753Y-17051889D02*
X10039229Y-17013793D01*
X10039229Y-17013793D02*
X10039229Y-16966174D01*
X10039229Y-16966174D02*
X10048753Y-16928079D01*
X10048753Y-16928079D02*
X10058277Y-16909031D01*
X10058277Y-16909031D02*
X10067801Y-16899508D01*
X10067801Y-16899508D02*
X10086848Y-16889984D01*
X10220182Y-16889984D02*
X10343991Y-16889984D01*
X10343991Y-16889984D02*
X10277325Y-16966174D01*
X10277325Y-16966174D02*
X10305896Y-16966174D01*
X10305896Y-16966174D02*
X10324944Y-16975698D01*
X10324944Y-16975698D02*
X10334468Y-16985222D01*
X10334468Y-16985222D02*
X10343991Y-17004270D01*
X10343991Y-17004270D02*
X10343991Y-17051889D01*
X10343991Y-17051889D02*
X10334468Y-17070936D01*
X10334468Y-17070936D02*
X10324944Y-17080460D01*
X10324944Y-17080460D02*
X10305896Y-17089984D01*
X10305896Y-17089984D02*
X10248753Y-17089984D01*
X10248753Y-17089984D02*
X10229706Y-17080460D01*
X10229706Y-17080460D02*
X10220182Y-17070936D01*
X10524944Y-16889984D02*
X10429706Y-16889984D01*
X10429706Y-16889984D02*
X10420182Y-16985222D01*
X10420182Y-16985222D02*
X10429706Y-16975698D01*
X10429706Y-16975698D02*
X10448753Y-16966174D01*
X10448753Y-16966174D02*
X10496372Y-16966174D01*
X10496372Y-16966174D02*
X10515420Y-16975698D01*
X10515420Y-16975698D02*
X10524944Y-16985222D01*
X10524944Y-16985222D02*
X10534468Y-17004270D01*
X10534468Y-17004270D02*
X10534468Y-17051889D01*
X10534468Y-17051889D02*
X10524944Y-17070936D01*
X10524944Y-17070936D02*
X10515420Y-17080460D01*
X10515420Y-17080460D02*
X10496372Y-17089984D01*
X10496372Y-17089984D02*
X10448753Y-17089984D01*
X10448753Y-17089984D02*
X10429706Y-17080460D01*
X10429706Y-17080460D02*
X10420182Y-17070936D01*
X10705896Y-16956650D02*
X10705896Y-17089984D01*
X10658277Y-16880460D02*
X10610658Y-17023317D01*
X10610658Y-17023317D02*
X10734468Y-17023317D01*
X10801134Y-16889984D02*
X10801134Y-16928079D01*
X10877325Y-16889984D02*
X10877325Y-16928079D01*
X11172563Y-17166174D02*
X11163039Y-17156650D01*
X11163039Y-17156650D02*
X11143991Y-17128079D01*
X11143991Y-17128079D02*
X11134468Y-17109031D01*
X11134468Y-17109031D02*
X11124944Y-17080460D01*
X11124944Y-17080460D02*
X11115420Y-17032841D01*
X11115420Y-17032841D02*
X11115420Y-16994746D01*
X11115420Y-16994746D02*
X11124944Y-16947127D01*
X11124944Y-16947127D02*
X11134468Y-16918555D01*
X11134468Y-16918555D02*
X11143991Y-16899508D01*
X11143991Y-16899508D02*
X11163039Y-16870936D01*
X11163039Y-16870936D02*
X11172563Y-16861412D01*
X11353515Y-17089984D02*
X11239229Y-17089984D01*
X11296372Y-17089984D02*
X11296372Y-16889984D01*
X11296372Y-16889984D02*
X11277325Y-16918555D01*
X11277325Y-16918555D02*
X11258277Y-16937603D01*
X11258277Y-16937603D02*
X11239229Y-16947127D01*
X11477325Y-16889984D02*
X11496372Y-16889984D01*
X11496372Y-16889984D02*
X11515420Y-16899508D01*
X11515420Y-16899508D02*
X11524944Y-16909031D01*
X11524944Y-16909031D02*
X11534468Y-16928079D01*
X11534468Y-16928079D02*
X11543991Y-16966174D01*
X11543991Y-16966174D02*
X11543991Y-17013793D01*
X11543991Y-17013793D02*
X11534468Y-17051889D01*
X11534468Y-17051889D02*
X11524944Y-17070936D01*
X11524944Y-17070936D02*
X11515420Y-17080460D01*
X11515420Y-17080460D02*
X11496372Y-17089984D01*
X11496372Y-17089984D02*
X11477325Y-17089984D01*
X11477325Y-17089984D02*
X11458277Y-17080460D01*
X11458277Y-17080460D02*
X11448753Y-17070936D01*
X11448753Y-17070936D02*
X11439229Y-17051889D01*
X11439229Y-17051889D02*
X11429706Y-17013793D01*
X11429706Y-17013793D02*
X11429706Y-16966174D01*
X11429706Y-16966174D02*
X11439229Y-16928079D01*
X11439229Y-16928079D02*
X11448753Y-16909031D01*
X11448753Y-16909031D02*
X11458277Y-16899508D01*
X11458277Y-16899508D02*
X11477325Y-16889984D01*
X11782087Y-17089984D02*
X11782087Y-16889984D01*
X11867801Y-17089984D02*
X11867801Y-16985222D01*
X11867801Y-16985222D02*
X11858277Y-16966174D01*
X11858277Y-16966174D02*
X11839230Y-16956650D01*
X11839230Y-16956650D02*
X11810658Y-16956650D01*
X11810658Y-16956650D02*
X11791610Y-16966174D01*
X11791610Y-16966174D02*
X11782087Y-16975698D01*
X11991610Y-17089984D02*
X11972563Y-17080460D01*
X11972563Y-17080460D02*
X11963039Y-17070936D01*
X11963039Y-17070936D02*
X11953515Y-17051889D01*
X11953515Y-17051889D02*
X11953515Y-16994746D01*
X11953515Y-16994746D02*
X11963039Y-16975698D01*
X11963039Y-16975698D02*
X11972563Y-16966174D01*
X11972563Y-16966174D02*
X11991610Y-16956650D01*
X11991610Y-16956650D02*
X12020182Y-16956650D01*
X12020182Y-16956650D02*
X12039230Y-16966174D01*
X12039230Y-16966174D02*
X12048753Y-16975698D01*
X12048753Y-16975698D02*
X12058277Y-16994746D01*
X12058277Y-16994746D02*
X12058277Y-17051889D01*
X12058277Y-17051889D02*
X12048753Y-17070936D01*
X12048753Y-17070936D02*
X12039230Y-17080460D01*
X12039230Y-17080460D02*
X12020182Y-17089984D01*
X12020182Y-17089984D02*
X11991610Y-17089984D01*
X12172563Y-17089984D02*
X12153515Y-17080460D01*
X12153515Y-17080460D02*
X12143991Y-17061412D01*
X12143991Y-17061412D02*
X12143991Y-16889984D01*
X12324944Y-17080460D02*
X12305896Y-17089984D01*
X12305896Y-17089984D02*
X12267801Y-17089984D01*
X12267801Y-17089984D02*
X12248753Y-17080460D01*
X12248753Y-17080460D02*
X12239230Y-17061412D01*
X12239230Y-17061412D02*
X12239230Y-16985222D01*
X12239230Y-16985222D02*
X12248753Y-16966174D01*
X12248753Y-16966174D02*
X12267801Y-16956650D01*
X12267801Y-16956650D02*
X12305896Y-16956650D01*
X12305896Y-16956650D02*
X12324944Y-16966174D01*
X12324944Y-16966174D02*
X12334468Y-16985222D01*
X12334468Y-16985222D02*
X12334468Y-17004270D01*
X12334468Y-17004270D02*
X12239230Y-17023317D01*
X12410658Y-17080460D02*
X12429706Y-17089984D01*
X12429706Y-17089984D02*
X12467801Y-17089984D01*
X12467801Y-17089984D02*
X12486849Y-17080460D01*
X12486849Y-17080460D02*
X12496372Y-17061412D01*
X12496372Y-17061412D02*
X12496372Y-17051889D01*
X12496372Y-17051889D02*
X12486849Y-17032841D01*
X12486849Y-17032841D02*
X12467801Y-17023317D01*
X12467801Y-17023317D02*
X12439230Y-17023317D01*
X12439230Y-17023317D02*
X12420182Y-17013793D01*
X12420182Y-17013793D02*
X12410658Y-16994746D01*
X12410658Y-16994746D02*
X12410658Y-16985222D01*
X12410658Y-16985222D02*
X12420182Y-16966174D01*
X12420182Y-16966174D02*
X12439230Y-16956650D01*
X12439230Y-16956650D02*
X12467801Y-16956650D01*
X12467801Y-16956650D02*
X12486849Y-16966174D01*
X12563039Y-17166174D02*
X12572563Y-17156650D01*
X12572563Y-17156650D02*
X12591611Y-17128079D01*
X12591611Y-17128079D02*
X12601134Y-17109031D01*
X12601134Y-17109031D02*
X12610658Y-17080460D01*
X12610658Y-17080460D02*
X12620182Y-17032841D01*
X12620182Y-17032841D02*
X12620182Y-16994746D01*
X12620182Y-16994746D02*
X12610658Y-16947127D01*
X12610658Y-16947127D02*
X12601134Y-16918555D01*
X12601134Y-16918555D02*
X12591611Y-16899508D01*
X12591611Y-16899508D02*
X12572563Y-16870936D01*
X12572563Y-16870936D02*
X12563039Y-16861412D01*
D12*
X7497500Y-17212500D02*
X7597500Y-17312500D01*
X7597500Y-17212500D02*
X7497500Y-17312500D01*
X7597500Y-17262500D02*
G75*
G02*
X7497500Y-17262500I-50000J0D01*
G01*
X7497500Y-17262500D02*
G75*
G02*
X7597500Y-17262500I50000J0D01*
G01*
D11*
X7963039Y-17353984D02*
X7848753Y-17353984D01*
X7905896Y-17353984D02*
X7905896Y-17153984D01*
X7905896Y-17153984D02*
X7886848Y-17182555D01*
X7886848Y-17182555D02*
X7867801Y-17201603D01*
X7867801Y-17201603D02*
X7848753Y-17211127D01*
X8048753Y-17334936D02*
X8058277Y-17344460D01*
X8058277Y-17344460D02*
X8048753Y-17353984D01*
X8048753Y-17353984D02*
X8039229Y-17344460D01*
X8039229Y-17344460D02*
X8048753Y-17334936D01*
X8048753Y-17334936D02*
X8048753Y-17353984D01*
X8182086Y-17153984D02*
X8201134Y-17153984D01*
X8201134Y-17153984D02*
X8220182Y-17163508D01*
X8220182Y-17163508D02*
X8229705Y-17173031D01*
X8229705Y-17173031D02*
X8239229Y-17192079D01*
X8239229Y-17192079D02*
X8248753Y-17230174D01*
X8248753Y-17230174D02*
X8248753Y-17277793D01*
X8248753Y-17277793D02*
X8239229Y-17315889D01*
X8239229Y-17315889D02*
X8229705Y-17334936D01*
X8229705Y-17334936D02*
X8220182Y-17344460D01*
X8220182Y-17344460D02*
X8201134Y-17353984D01*
X8201134Y-17353984D02*
X8182086Y-17353984D01*
X8182086Y-17353984D02*
X8163039Y-17344460D01*
X8163039Y-17344460D02*
X8153515Y-17334936D01*
X8153515Y-17334936D02*
X8143991Y-17315889D01*
X8143991Y-17315889D02*
X8134467Y-17277793D01*
X8134467Y-17277793D02*
X8134467Y-17230174D01*
X8134467Y-17230174D02*
X8143991Y-17192079D01*
X8143991Y-17192079D02*
X8153515Y-17173031D01*
X8153515Y-17173031D02*
X8163039Y-17163508D01*
X8163039Y-17163508D02*
X8182086Y-17153984D01*
X8372562Y-17153984D02*
X8391610Y-17153984D01*
X8391610Y-17153984D02*
X8410658Y-17163508D01*
X8410658Y-17163508D02*
X8420182Y-17173031D01*
X8420182Y-17173031D02*
X8429705Y-17192079D01*
X8429705Y-17192079D02*
X8439229Y-17230174D01*
X8439229Y-17230174D02*
X8439229Y-17277793D01*
X8439229Y-17277793D02*
X8429705Y-17315889D01*
X8429705Y-17315889D02*
X8420182Y-17334936D01*
X8420182Y-17334936D02*
X8410658Y-17344460D01*
X8410658Y-17344460D02*
X8391610Y-17353984D01*
X8391610Y-17353984D02*
X8372562Y-17353984D01*
X8372562Y-17353984D02*
X8353515Y-17344460D01*
X8353515Y-17344460D02*
X8343991Y-17334936D01*
X8343991Y-17334936D02*
X8334467Y-17315889D01*
X8334467Y-17315889D02*
X8324943Y-17277793D01*
X8324943Y-17277793D02*
X8324943Y-17230174D01*
X8324943Y-17230174D02*
X8334467Y-17192079D01*
X8334467Y-17192079D02*
X8343991Y-17173031D01*
X8343991Y-17173031D02*
X8353515Y-17163508D01*
X8353515Y-17163508D02*
X8372562Y-17153984D01*
X8563039Y-17153984D02*
X8582086Y-17153984D01*
X8582086Y-17153984D02*
X8601134Y-17163508D01*
X8601134Y-17163508D02*
X8610658Y-17173031D01*
X8610658Y-17173031D02*
X8620182Y-17192079D01*
X8620182Y-17192079D02*
X8629705Y-17230174D01*
X8629705Y-17230174D02*
X8629705Y-17277793D01*
X8629705Y-17277793D02*
X8620182Y-17315889D01*
X8620182Y-17315889D02*
X8610658Y-17334936D01*
X8610658Y-17334936D02*
X8601134Y-17344460D01*
X8601134Y-17344460D02*
X8582086Y-17353984D01*
X8582086Y-17353984D02*
X8563039Y-17353984D01*
X8563039Y-17353984D02*
X8543991Y-17344460D01*
X8543991Y-17344460D02*
X8534467Y-17334936D01*
X8534467Y-17334936D02*
X8524944Y-17315889D01*
X8524944Y-17315889D02*
X8515420Y-17277793D01*
X8515420Y-17277793D02*
X8515420Y-17230174D01*
X8515420Y-17230174D02*
X8524944Y-17192079D01*
X8524944Y-17192079D02*
X8534467Y-17173031D01*
X8534467Y-17173031D02*
X8543991Y-17163508D01*
X8543991Y-17163508D02*
X8563039Y-17153984D01*
X8715420Y-17353984D02*
X8715420Y-17220650D01*
X8715420Y-17239698D02*
X8724944Y-17230174D01*
X8724944Y-17230174D02*
X8743991Y-17220650D01*
X8743991Y-17220650D02*
X8772563Y-17220650D01*
X8772563Y-17220650D02*
X8791610Y-17230174D01*
X8791610Y-17230174D02*
X8801134Y-17249222D01*
X8801134Y-17249222D02*
X8801134Y-17353984D01*
X8801134Y-17249222D02*
X8810658Y-17230174D01*
X8810658Y-17230174D02*
X8829705Y-17220650D01*
X8829705Y-17220650D02*
X8858277Y-17220650D01*
X8858277Y-17220650D02*
X8877325Y-17230174D01*
X8877325Y-17230174D02*
X8886848Y-17249222D01*
X8886848Y-17249222D02*
X8886848Y-17353984D01*
X8982086Y-17353984D02*
X8982086Y-17220650D01*
X8982086Y-17239698D02*
X8991610Y-17230174D01*
X8991610Y-17230174D02*
X9010658Y-17220650D01*
X9010658Y-17220650D02*
X9039229Y-17220650D01*
X9039229Y-17220650D02*
X9058277Y-17230174D01*
X9058277Y-17230174D02*
X9067801Y-17249222D01*
X9067801Y-17249222D02*
X9067801Y-17353984D01*
X9067801Y-17249222D02*
X9077325Y-17230174D01*
X9077325Y-17230174D02*
X9096372Y-17220650D01*
X9096372Y-17220650D02*
X9124944Y-17220650D01*
X9124944Y-17220650D02*
X9143991Y-17230174D01*
X9143991Y-17230174D02*
X9153515Y-17249222D01*
X9153515Y-17249222D02*
X9153515Y-17353984D01*
X9543991Y-17144460D02*
X9372563Y-17401603D01*
X9801134Y-17153984D02*
X9820182Y-17153984D01*
X9820182Y-17153984D02*
X9839229Y-17163508D01*
X9839229Y-17163508D02*
X9848753Y-17173031D01*
X9848753Y-17173031D02*
X9858277Y-17192079D01*
X9858277Y-17192079D02*
X9867801Y-17230174D01*
X9867801Y-17230174D02*
X9867801Y-17277793D01*
X9867801Y-17277793D02*
X9858277Y-17315889D01*
X9858277Y-17315889D02*
X9848753Y-17334936D01*
X9848753Y-17334936D02*
X9839229Y-17344460D01*
X9839229Y-17344460D02*
X9820182Y-17353984D01*
X9820182Y-17353984D02*
X9801134Y-17353984D01*
X9801134Y-17353984D02*
X9782087Y-17344460D01*
X9782087Y-17344460D02*
X9772563Y-17334936D01*
X9772563Y-17334936D02*
X9763039Y-17315889D01*
X9763039Y-17315889D02*
X9753515Y-17277793D01*
X9753515Y-17277793D02*
X9753515Y-17230174D01*
X9753515Y-17230174D02*
X9763039Y-17192079D01*
X9763039Y-17192079D02*
X9772563Y-17173031D01*
X9772563Y-17173031D02*
X9782087Y-17163508D01*
X9782087Y-17163508D02*
X9801134Y-17153984D01*
X9953515Y-17334936D02*
X9963039Y-17344460D01*
X9963039Y-17344460D02*
X9953515Y-17353984D01*
X9953515Y-17353984D02*
X9943991Y-17344460D01*
X9943991Y-17344460D02*
X9953515Y-17334936D01*
X9953515Y-17334936D02*
X9953515Y-17353984D01*
X10086848Y-17153984D02*
X10105896Y-17153984D01*
X10105896Y-17153984D02*
X10124944Y-17163508D01*
X10124944Y-17163508D02*
X10134468Y-17173031D01*
X10134468Y-17173031D02*
X10143991Y-17192079D01*
X10143991Y-17192079D02*
X10153515Y-17230174D01*
X10153515Y-17230174D02*
X10153515Y-17277793D01*
X10153515Y-17277793D02*
X10143991Y-17315889D01*
X10143991Y-17315889D02*
X10134468Y-17334936D01*
X10134468Y-17334936D02*
X10124944Y-17344460D01*
X10124944Y-17344460D02*
X10105896Y-17353984D01*
X10105896Y-17353984D02*
X10086848Y-17353984D01*
X10086848Y-17353984D02*
X10067801Y-17344460D01*
X10067801Y-17344460D02*
X10058277Y-17334936D01*
X10058277Y-17334936D02*
X10048753Y-17315889D01*
X10048753Y-17315889D02*
X10039229Y-17277793D01*
X10039229Y-17277793D02*
X10039229Y-17230174D01*
X10039229Y-17230174D02*
X10048753Y-17192079D01*
X10048753Y-17192079D02*
X10058277Y-17173031D01*
X10058277Y-17173031D02*
X10067801Y-17163508D01*
X10067801Y-17163508D02*
X10086848Y-17153984D01*
X10220182Y-17153984D02*
X10343991Y-17153984D01*
X10343991Y-17153984D02*
X10277325Y-17230174D01*
X10277325Y-17230174D02*
X10305896Y-17230174D01*
X10305896Y-17230174D02*
X10324944Y-17239698D01*
X10324944Y-17239698D02*
X10334468Y-17249222D01*
X10334468Y-17249222D02*
X10343991Y-17268270D01*
X10343991Y-17268270D02*
X10343991Y-17315889D01*
X10343991Y-17315889D02*
X10334468Y-17334936D01*
X10334468Y-17334936D02*
X10324944Y-17344460D01*
X10324944Y-17344460D02*
X10305896Y-17353984D01*
X10305896Y-17353984D02*
X10248753Y-17353984D01*
X10248753Y-17353984D02*
X10229706Y-17344460D01*
X10229706Y-17344460D02*
X10220182Y-17334936D01*
X10439229Y-17353984D02*
X10477325Y-17353984D01*
X10477325Y-17353984D02*
X10496372Y-17344460D01*
X10496372Y-17344460D02*
X10505896Y-17334936D01*
X10505896Y-17334936D02*
X10524944Y-17306365D01*
X10524944Y-17306365D02*
X10534468Y-17268270D01*
X10534468Y-17268270D02*
X10534468Y-17192079D01*
X10534468Y-17192079D02*
X10524944Y-17173031D01*
X10524944Y-17173031D02*
X10515420Y-17163508D01*
X10515420Y-17163508D02*
X10496372Y-17153984D01*
X10496372Y-17153984D02*
X10458277Y-17153984D01*
X10458277Y-17153984D02*
X10439229Y-17163508D01*
X10439229Y-17163508D02*
X10429706Y-17173031D01*
X10429706Y-17173031D02*
X10420182Y-17192079D01*
X10420182Y-17192079D02*
X10420182Y-17239698D01*
X10420182Y-17239698D02*
X10429706Y-17258746D01*
X10429706Y-17258746D02*
X10439229Y-17268270D01*
X10439229Y-17268270D02*
X10458277Y-17277793D01*
X10458277Y-17277793D02*
X10496372Y-17277793D01*
X10496372Y-17277793D02*
X10515420Y-17268270D01*
X10515420Y-17268270D02*
X10524944Y-17258746D01*
X10524944Y-17258746D02*
X10534468Y-17239698D01*
X10705896Y-17220650D02*
X10705896Y-17353984D01*
X10658277Y-17144460D02*
X10610658Y-17287317D01*
X10610658Y-17287317D02*
X10734468Y-17287317D01*
X10801134Y-17153984D02*
X10801134Y-17192079D01*
X10877325Y-17153984D02*
X10877325Y-17192079D01*
X11172563Y-17430174D02*
X11163039Y-17420650D01*
X11163039Y-17420650D02*
X11143991Y-17392079D01*
X11143991Y-17392079D02*
X11134468Y-17373031D01*
X11134468Y-17373031D02*
X11124944Y-17344460D01*
X11124944Y-17344460D02*
X11115420Y-17296841D01*
X11115420Y-17296841D02*
X11115420Y-17258746D01*
X11115420Y-17258746D02*
X11124944Y-17211127D01*
X11124944Y-17211127D02*
X11134468Y-17182555D01*
X11134468Y-17182555D02*
X11143991Y-17163508D01*
X11143991Y-17163508D02*
X11163039Y-17134936D01*
X11163039Y-17134936D02*
X11172563Y-17125412D01*
X11353515Y-17353984D02*
X11239229Y-17353984D01*
X11296372Y-17353984D02*
X11296372Y-17153984D01*
X11296372Y-17153984D02*
X11277325Y-17182555D01*
X11277325Y-17182555D02*
X11258277Y-17201603D01*
X11258277Y-17201603D02*
X11239229Y-17211127D01*
X11543991Y-17353984D02*
X11429706Y-17353984D01*
X11486848Y-17353984D02*
X11486848Y-17153984D01*
X11486848Y-17153984D02*
X11467801Y-17182555D01*
X11467801Y-17182555D02*
X11448753Y-17201603D01*
X11448753Y-17201603D02*
X11429706Y-17211127D01*
X11734468Y-17353984D02*
X11620182Y-17353984D01*
X11677325Y-17353984D02*
X11677325Y-17153984D01*
X11677325Y-17153984D02*
X11658277Y-17182555D01*
X11658277Y-17182555D02*
X11639229Y-17201603D01*
X11639229Y-17201603D02*
X11620182Y-17211127D01*
X11972563Y-17353984D02*
X11972563Y-17153984D01*
X12058277Y-17353984D02*
X12058277Y-17249222D01*
X12058277Y-17249222D02*
X12048753Y-17230174D01*
X12048753Y-17230174D02*
X12029706Y-17220650D01*
X12029706Y-17220650D02*
X12001134Y-17220650D01*
X12001134Y-17220650D02*
X11982087Y-17230174D01*
X11982087Y-17230174D02*
X11972563Y-17239698D01*
X12182087Y-17353984D02*
X12163039Y-17344460D01*
X12163039Y-17344460D02*
X12153515Y-17334936D01*
X12153515Y-17334936D02*
X12143991Y-17315889D01*
X12143991Y-17315889D02*
X12143991Y-17258746D01*
X12143991Y-17258746D02*
X12153515Y-17239698D01*
X12153515Y-17239698D02*
X12163039Y-17230174D01*
X12163039Y-17230174D02*
X12182087Y-17220650D01*
X12182087Y-17220650D02*
X12210658Y-17220650D01*
X12210658Y-17220650D02*
X12229706Y-17230174D01*
X12229706Y-17230174D02*
X12239230Y-17239698D01*
X12239230Y-17239698D02*
X12248753Y-17258746D01*
X12248753Y-17258746D02*
X12248753Y-17315889D01*
X12248753Y-17315889D02*
X12239230Y-17334936D01*
X12239230Y-17334936D02*
X12229706Y-17344460D01*
X12229706Y-17344460D02*
X12210658Y-17353984D01*
X12210658Y-17353984D02*
X12182087Y-17353984D01*
X12363039Y-17353984D02*
X12343991Y-17344460D01*
X12343991Y-17344460D02*
X12334468Y-17325412D01*
X12334468Y-17325412D02*
X12334468Y-17153984D01*
X12515420Y-17344460D02*
X12496372Y-17353984D01*
X12496372Y-17353984D02*
X12458277Y-17353984D01*
X12458277Y-17353984D02*
X12439230Y-17344460D01*
X12439230Y-17344460D02*
X12429706Y-17325412D01*
X12429706Y-17325412D02*
X12429706Y-17249222D01*
X12429706Y-17249222D02*
X12439230Y-17230174D01*
X12439230Y-17230174D02*
X12458277Y-17220650D01*
X12458277Y-17220650D02*
X12496372Y-17220650D01*
X12496372Y-17220650D02*
X12515420Y-17230174D01*
X12515420Y-17230174D02*
X12524944Y-17249222D01*
X12524944Y-17249222D02*
X12524944Y-17268270D01*
X12524944Y-17268270D02*
X12429706Y-17287317D01*
X12601134Y-17344460D02*
X12620182Y-17353984D01*
X12620182Y-17353984D02*
X12658277Y-17353984D01*
X12658277Y-17353984D02*
X12677325Y-17344460D01*
X12677325Y-17344460D02*
X12686849Y-17325412D01*
X12686849Y-17325412D02*
X12686849Y-17315889D01*
X12686849Y-17315889D02*
X12677325Y-17296841D01*
X12677325Y-17296841D02*
X12658277Y-17287317D01*
X12658277Y-17287317D02*
X12629706Y-17287317D01*
X12629706Y-17287317D02*
X12610658Y-17277793D01*
X12610658Y-17277793D02*
X12601134Y-17258746D01*
X12601134Y-17258746D02*
X12601134Y-17249222D01*
X12601134Y-17249222D02*
X12610658Y-17230174D01*
X12610658Y-17230174D02*
X12629706Y-17220650D01*
X12629706Y-17220650D02*
X12658277Y-17220650D01*
X12658277Y-17220650D02*
X12677325Y-17230174D01*
X12753515Y-17430174D02*
X12763039Y-17420650D01*
X12763039Y-17420650D02*
X12782087Y-17392079D01*
X12782087Y-17392079D02*
X12791611Y-17373031D01*
X12791611Y-17373031D02*
X12801134Y-17344460D01*
X12801134Y-17344460D02*
X12810658Y-17296841D01*
X12810658Y-17296841D02*
X12810658Y-17258746D01*
X12810658Y-17258746D02*
X12801134Y-17211127D01*
X12801134Y-17211127D02*
X12791611Y-17182555D01*
X12791611Y-17182555D02*
X12782087Y-17163508D01*
X12782087Y-17163508D02*
X12763039Y-17134936D01*
X12763039Y-17134936D02*
X12753515Y-17125412D01*
D13*
X7467500Y-17461500D02*
X7597500Y-17591500D01*
X7597500Y-17461500D02*
X7467500Y-17591500D01*
X7532500Y-17461500D02*
X7532500Y-17591500D01*
X7467500Y-17526500D02*
X7597500Y-17526500D01*
D11*
X7963039Y-17617984D02*
X7848753Y-17617984D01*
X7905896Y-17617984D02*
X7905896Y-17417984D01*
X7905896Y-17417984D02*
X7886848Y-17446555D01*
X7886848Y-17446555D02*
X7867801Y-17465603D01*
X7867801Y-17465603D02*
X7848753Y-17475127D01*
X8048753Y-17598936D02*
X8058277Y-17608460D01*
X8058277Y-17608460D02*
X8048753Y-17617984D01*
X8048753Y-17617984D02*
X8039229Y-17608460D01*
X8039229Y-17608460D02*
X8048753Y-17598936D01*
X8048753Y-17598936D02*
X8048753Y-17617984D01*
X8124943Y-17417984D02*
X8248753Y-17417984D01*
X8248753Y-17417984D02*
X8182086Y-17494174D01*
X8182086Y-17494174D02*
X8210658Y-17494174D01*
X8210658Y-17494174D02*
X8229705Y-17503698D01*
X8229705Y-17503698D02*
X8239229Y-17513222D01*
X8239229Y-17513222D02*
X8248753Y-17532270D01*
X8248753Y-17532270D02*
X8248753Y-17579889D01*
X8248753Y-17579889D02*
X8239229Y-17598936D01*
X8239229Y-17598936D02*
X8229705Y-17608460D01*
X8229705Y-17608460D02*
X8210658Y-17617984D01*
X8210658Y-17617984D02*
X8153515Y-17617984D01*
X8153515Y-17617984D02*
X8134467Y-17608460D01*
X8134467Y-17608460D02*
X8124943Y-17598936D01*
X8372562Y-17417984D02*
X8391610Y-17417984D01*
X8391610Y-17417984D02*
X8410658Y-17427508D01*
X8410658Y-17427508D02*
X8420182Y-17437031D01*
X8420182Y-17437031D02*
X8429705Y-17456079D01*
X8429705Y-17456079D02*
X8439229Y-17494174D01*
X8439229Y-17494174D02*
X8439229Y-17541793D01*
X8439229Y-17541793D02*
X8429705Y-17579889D01*
X8429705Y-17579889D02*
X8420182Y-17598936D01*
X8420182Y-17598936D02*
X8410658Y-17608460D01*
X8410658Y-17608460D02*
X8391610Y-17617984D01*
X8391610Y-17617984D02*
X8372562Y-17617984D01*
X8372562Y-17617984D02*
X8353515Y-17608460D01*
X8353515Y-17608460D02*
X8343991Y-17598936D01*
X8343991Y-17598936D02*
X8334467Y-17579889D01*
X8334467Y-17579889D02*
X8324943Y-17541793D01*
X8324943Y-17541793D02*
X8324943Y-17494174D01*
X8324943Y-17494174D02*
X8334467Y-17456079D01*
X8334467Y-17456079D02*
X8343991Y-17437031D01*
X8343991Y-17437031D02*
X8353515Y-17427508D01*
X8353515Y-17427508D02*
X8372562Y-17417984D01*
X8563039Y-17417984D02*
X8582086Y-17417984D01*
X8582086Y-17417984D02*
X8601134Y-17427508D01*
X8601134Y-17427508D02*
X8610658Y-17437031D01*
X8610658Y-17437031D02*
X8620182Y-17456079D01*
X8620182Y-17456079D02*
X8629705Y-17494174D01*
X8629705Y-17494174D02*
X8629705Y-17541793D01*
X8629705Y-17541793D02*
X8620182Y-17579889D01*
X8620182Y-17579889D02*
X8610658Y-17598936D01*
X8610658Y-17598936D02*
X8601134Y-17608460D01*
X8601134Y-17608460D02*
X8582086Y-17617984D01*
X8582086Y-17617984D02*
X8563039Y-17617984D01*
X8563039Y-17617984D02*
X8543991Y-17608460D01*
X8543991Y-17608460D02*
X8534467Y-17598936D01*
X8534467Y-17598936D02*
X8524944Y-17579889D01*
X8524944Y-17579889D02*
X8515420Y-17541793D01*
X8515420Y-17541793D02*
X8515420Y-17494174D01*
X8515420Y-17494174D02*
X8524944Y-17456079D01*
X8524944Y-17456079D02*
X8534467Y-17437031D01*
X8534467Y-17437031D02*
X8543991Y-17427508D01*
X8543991Y-17427508D02*
X8563039Y-17417984D01*
X8715420Y-17617984D02*
X8715420Y-17484650D01*
X8715420Y-17503698D02*
X8724944Y-17494174D01*
X8724944Y-17494174D02*
X8743991Y-17484650D01*
X8743991Y-17484650D02*
X8772563Y-17484650D01*
X8772563Y-17484650D02*
X8791610Y-17494174D01*
X8791610Y-17494174D02*
X8801134Y-17513222D01*
X8801134Y-17513222D02*
X8801134Y-17617984D01*
X8801134Y-17513222D02*
X8810658Y-17494174D01*
X8810658Y-17494174D02*
X8829705Y-17484650D01*
X8829705Y-17484650D02*
X8858277Y-17484650D01*
X8858277Y-17484650D02*
X8877325Y-17494174D01*
X8877325Y-17494174D02*
X8886848Y-17513222D01*
X8886848Y-17513222D02*
X8886848Y-17617984D01*
X8982086Y-17617984D02*
X8982086Y-17484650D01*
X8982086Y-17503698D02*
X8991610Y-17494174D01*
X8991610Y-17494174D02*
X9010658Y-17484650D01*
X9010658Y-17484650D02*
X9039229Y-17484650D01*
X9039229Y-17484650D02*
X9058277Y-17494174D01*
X9058277Y-17494174D02*
X9067801Y-17513222D01*
X9067801Y-17513222D02*
X9067801Y-17617984D01*
X9067801Y-17513222D02*
X9077325Y-17494174D01*
X9077325Y-17494174D02*
X9096372Y-17484650D01*
X9096372Y-17484650D02*
X9124944Y-17484650D01*
X9124944Y-17484650D02*
X9143991Y-17494174D01*
X9143991Y-17494174D02*
X9153515Y-17513222D01*
X9153515Y-17513222D02*
X9153515Y-17617984D01*
X9543991Y-17408460D02*
X9372563Y-17665603D01*
X9801134Y-17417984D02*
X9820182Y-17417984D01*
X9820182Y-17417984D02*
X9839229Y-17427508D01*
X9839229Y-17427508D02*
X9848753Y-17437031D01*
X9848753Y-17437031D02*
X9858277Y-17456079D01*
X9858277Y-17456079D02*
X9867801Y-17494174D01*
X9867801Y-17494174D02*
X9867801Y-17541793D01*
X9867801Y-17541793D02*
X9858277Y-17579889D01*
X9858277Y-17579889D02*
X9848753Y-17598936D01*
X9848753Y-17598936D02*
X9839229Y-17608460D01*
X9839229Y-17608460D02*
X9820182Y-17617984D01*
X9820182Y-17617984D02*
X9801134Y-17617984D01*
X9801134Y-17617984D02*
X9782087Y-17608460D01*
X9782087Y-17608460D02*
X9772563Y-17598936D01*
X9772563Y-17598936D02*
X9763039Y-17579889D01*
X9763039Y-17579889D02*
X9753515Y-17541793D01*
X9753515Y-17541793D02*
X9753515Y-17494174D01*
X9753515Y-17494174D02*
X9763039Y-17456079D01*
X9763039Y-17456079D02*
X9772563Y-17437031D01*
X9772563Y-17437031D02*
X9782087Y-17427508D01*
X9782087Y-17427508D02*
X9801134Y-17417984D01*
X9953515Y-17598936D02*
X9963039Y-17608460D01*
X9963039Y-17608460D02*
X9953515Y-17617984D01*
X9953515Y-17617984D02*
X9943991Y-17608460D01*
X9943991Y-17608460D02*
X9953515Y-17598936D01*
X9953515Y-17598936D02*
X9953515Y-17617984D01*
X10086848Y-17417984D02*
X10105896Y-17417984D01*
X10105896Y-17417984D02*
X10124944Y-17427508D01*
X10124944Y-17427508D02*
X10134468Y-17437031D01*
X10134468Y-17437031D02*
X10143991Y-17456079D01*
X10143991Y-17456079D02*
X10153515Y-17494174D01*
X10153515Y-17494174D02*
X10153515Y-17541793D01*
X10153515Y-17541793D02*
X10143991Y-17579889D01*
X10143991Y-17579889D02*
X10134468Y-17598936D01*
X10134468Y-17598936D02*
X10124944Y-17608460D01*
X10124944Y-17608460D02*
X10105896Y-17617984D01*
X10105896Y-17617984D02*
X10086848Y-17617984D01*
X10086848Y-17617984D02*
X10067801Y-17608460D01*
X10067801Y-17608460D02*
X10058277Y-17598936D01*
X10058277Y-17598936D02*
X10048753Y-17579889D01*
X10048753Y-17579889D02*
X10039229Y-17541793D01*
X10039229Y-17541793D02*
X10039229Y-17494174D01*
X10039229Y-17494174D02*
X10048753Y-17456079D01*
X10048753Y-17456079D02*
X10058277Y-17437031D01*
X10058277Y-17437031D02*
X10067801Y-17427508D01*
X10067801Y-17427508D02*
X10086848Y-17417984D01*
X10334468Y-17417984D02*
X10239229Y-17417984D01*
X10239229Y-17417984D02*
X10229706Y-17513222D01*
X10229706Y-17513222D02*
X10239229Y-17503698D01*
X10239229Y-17503698D02*
X10258277Y-17494174D01*
X10258277Y-17494174D02*
X10305896Y-17494174D01*
X10305896Y-17494174D02*
X10324944Y-17503698D01*
X10324944Y-17503698D02*
X10334468Y-17513222D01*
X10334468Y-17513222D02*
X10343991Y-17532270D01*
X10343991Y-17532270D02*
X10343991Y-17579889D01*
X10343991Y-17579889D02*
X10334468Y-17598936D01*
X10334468Y-17598936D02*
X10324944Y-17608460D01*
X10324944Y-17608460D02*
X10305896Y-17617984D01*
X10305896Y-17617984D02*
X10258277Y-17617984D01*
X10258277Y-17617984D02*
X10239229Y-17608460D01*
X10239229Y-17608460D02*
X10229706Y-17598936D01*
X10534468Y-17617984D02*
X10420182Y-17617984D01*
X10477325Y-17617984D02*
X10477325Y-17417984D01*
X10477325Y-17417984D02*
X10458277Y-17446555D01*
X10458277Y-17446555D02*
X10439229Y-17465603D01*
X10439229Y-17465603D02*
X10420182Y-17475127D01*
X10610658Y-17437031D02*
X10620182Y-17427508D01*
X10620182Y-17427508D02*
X10639229Y-17417984D01*
X10639229Y-17417984D02*
X10686849Y-17417984D01*
X10686849Y-17417984D02*
X10705896Y-17427508D01*
X10705896Y-17427508D02*
X10715420Y-17437031D01*
X10715420Y-17437031D02*
X10724944Y-17456079D01*
X10724944Y-17456079D02*
X10724944Y-17475127D01*
X10724944Y-17475127D02*
X10715420Y-17503698D01*
X10715420Y-17503698D02*
X10601134Y-17617984D01*
X10601134Y-17617984D02*
X10724944Y-17617984D01*
X10801134Y-17417984D02*
X10801134Y-17456079D01*
X10877325Y-17417984D02*
X10877325Y-17456079D01*
X11172563Y-17694174D02*
X11163039Y-17684650D01*
X11163039Y-17684650D02*
X11143991Y-17656079D01*
X11143991Y-17656079D02*
X11134468Y-17637031D01*
X11134468Y-17637031D02*
X11124944Y-17608460D01*
X11124944Y-17608460D02*
X11115420Y-17560841D01*
X11115420Y-17560841D02*
X11115420Y-17522746D01*
X11115420Y-17522746D02*
X11124944Y-17475127D01*
X11124944Y-17475127D02*
X11134468Y-17446555D01*
X11134468Y-17446555D02*
X11143991Y-17427508D01*
X11143991Y-17427508D02*
X11163039Y-17398936D01*
X11163039Y-17398936D02*
X11172563Y-17389412D01*
X11239229Y-17437031D02*
X11248753Y-17427508D01*
X11248753Y-17427508D02*
X11267801Y-17417984D01*
X11267801Y-17417984D02*
X11315420Y-17417984D01*
X11315420Y-17417984D02*
X11334468Y-17427508D01*
X11334468Y-17427508D02*
X11343991Y-17437031D01*
X11343991Y-17437031D02*
X11353515Y-17456079D01*
X11353515Y-17456079D02*
X11353515Y-17475127D01*
X11353515Y-17475127D02*
X11343991Y-17503698D01*
X11343991Y-17503698D02*
X11229706Y-17617984D01*
X11229706Y-17617984D02*
X11353515Y-17617984D01*
X11591610Y-17617984D02*
X11591610Y-17417984D01*
X11677325Y-17617984D02*
X11677325Y-17513222D01*
X11677325Y-17513222D02*
X11667801Y-17494174D01*
X11667801Y-17494174D02*
X11648753Y-17484650D01*
X11648753Y-17484650D02*
X11620182Y-17484650D01*
X11620182Y-17484650D02*
X11601134Y-17494174D01*
X11601134Y-17494174D02*
X11591610Y-17503698D01*
X11801134Y-17617984D02*
X11782087Y-17608460D01*
X11782087Y-17608460D02*
X11772563Y-17598936D01*
X11772563Y-17598936D02*
X11763039Y-17579889D01*
X11763039Y-17579889D02*
X11763039Y-17522746D01*
X11763039Y-17522746D02*
X11772563Y-17503698D01*
X11772563Y-17503698D02*
X11782087Y-17494174D01*
X11782087Y-17494174D02*
X11801134Y-17484650D01*
X11801134Y-17484650D02*
X11829706Y-17484650D01*
X11829706Y-17484650D02*
X11848753Y-17494174D01*
X11848753Y-17494174D02*
X11858277Y-17503698D01*
X11858277Y-17503698D02*
X11867801Y-17522746D01*
X11867801Y-17522746D02*
X11867801Y-17579889D01*
X11867801Y-17579889D02*
X11858277Y-17598936D01*
X11858277Y-17598936D02*
X11848753Y-17608460D01*
X11848753Y-17608460D02*
X11829706Y-17617984D01*
X11829706Y-17617984D02*
X11801134Y-17617984D01*
X11982087Y-17617984D02*
X11963039Y-17608460D01*
X11963039Y-17608460D02*
X11953515Y-17589412D01*
X11953515Y-17589412D02*
X11953515Y-17417984D01*
X12134468Y-17608460D02*
X12115420Y-17617984D01*
X12115420Y-17617984D02*
X12077325Y-17617984D01*
X12077325Y-17617984D02*
X12058277Y-17608460D01*
X12058277Y-17608460D02*
X12048753Y-17589412D01*
X12048753Y-17589412D02*
X12048753Y-17513222D01*
X12048753Y-17513222D02*
X12058277Y-17494174D01*
X12058277Y-17494174D02*
X12077325Y-17484650D01*
X12077325Y-17484650D02*
X12115420Y-17484650D01*
X12115420Y-17484650D02*
X12134468Y-17494174D01*
X12134468Y-17494174D02*
X12143991Y-17513222D01*
X12143991Y-17513222D02*
X12143991Y-17532270D01*
X12143991Y-17532270D02*
X12048753Y-17551317D01*
X12220182Y-17608460D02*
X12239230Y-17617984D01*
X12239230Y-17617984D02*
X12277325Y-17617984D01*
X12277325Y-17617984D02*
X12296372Y-17608460D01*
X12296372Y-17608460D02*
X12305896Y-17589412D01*
X12305896Y-17589412D02*
X12305896Y-17579889D01*
X12305896Y-17579889D02*
X12296372Y-17560841D01*
X12296372Y-17560841D02*
X12277325Y-17551317D01*
X12277325Y-17551317D02*
X12248753Y-17551317D01*
X12248753Y-17551317D02*
X12229706Y-17541793D01*
X12229706Y-17541793D02*
X12220182Y-17522746D01*
X12220182Y-17522746D02*
X12220182Y-17513222D01*
X12220182Y-17513222D02*
X12229706Y-17494174D01*
X12229706Y-17494174D02*
X12248753Y-17484650D01*
X12248753Y-17484650D02*
X12277325Y-17484650D01*
X12277325Y-17484650D02*
X12296372Y-17494174D01*
X12372563Y-17694174D02*
X12382087Y-17684650D01*
X12382087Y-17684650D02*
X12401134Y-17656079D01*
X12401134Y-17656079D02*
X12410658Y-17637031D01*
X12410658Y-17637031D02*
X12420182Y-17608460D01*
X12420182Y-17608460D02*
X12429706Y-17560841D01*
X12429706Y-17560841D02*
X12429706Y-17522746D01*
X12429706Y-17522746D02*
X12420182Y-17475127D01*
X12420182Y-17475127D02*
X12410658Y-17446555D01*
X12410658Y-17446555D02*
X12401134Y-17427508D01*
X12401134Y-17427508D02*
X12382087Y-17398936D01*
X12382087Y-17398936D02*
X12372563Y-17389412D01*
M02*
