M48
; DRILL file {KiCad 8.0.0} date 2024-05-29T16:09:35+0200
; FORMAT={-:-/ absolute / inch / decimal}
; #@! TF.CreationDate,2024-05-29T16:09:35+02:00
; #@! TF.GenerationSoftware,Kicad,Pcbnew,8.0.0
; #@! TF.FileFunction,Plated,1,2,PTH
FMAT,2
INCH
; #@! TA.AperFunction,Plated,PTH,ViaDrill
T1C0.0236
; #@! TA.AperFunction,Plated,PTH,ComponentDrill
T2C0.0300
; #@! TA.AperFunction,Plated,PTH,ComponentDrill
T3C0.0315
; #@! TA.AperFunction,Plated,PTH,ComponentDrill
T4C0.0350
; #@! TA.AperFunction,Plated,PTH,ComponentDrill
T5C0.0354
; #@! TA.AperFunction,Plated,PTH,ComponentDrill
T6C0.0394
; #@! TA.AperFunction,Plated,PTH,ComponentDrill
T7C0.0512
%
G90
G05
T1
X3.9528Y-3.5433
X3.9528Y-3.8583
X4.063Y-3.5433
X4.063Y-3.8583
X4.1654Y-3.5433
X4.1654Y-3.8583
X4.3701Y-4.2047
X4.4409Y-4.122
X4.5157Y-4.0394
X4.5866Y-3.9803
X4.9213Y-3.9685
X5.2559Y-1.9173
X5.2559Y-2.5157
X5.4843Y-1.8228
X5.4843Y-2.4213
X5.4961Y-5.0866
X5.5512Y-4.3071
X5.6299Y-2.4213
X5.6831Y-3.4232
X5.6909Y-3.3327
X5.8976Y-4.0394
X6.378Y-3.4449
X6.4291Y-3.5669
X6.6378Y-3.4646
X6.6417Y-3.5866
X6.6417Y-3.5866
X6.9724Y-4.5472
X6.9724Y-4.8386
X7.9843Y-3.1693
X8.248Y-4.7756
X8.2874Y-2.6496
X8.3346Y-4.3819
X8.3346Y-4.9449
X8.7047Y-3.6772
X8.7795Y-5.0709
X8.937Y-2.6457
X9.0591Y-5.685
X9.5748Y-2.2283
X9.6063Y-2.7244
X9.7165Y-3.0748
X9.7165Y-3.0748
X9.9016Y-2.5512
T2
X9.3661Y-5.0748
X9.3661Y-5.2717
X9.4055Y-2.5472
X9.6024Y-2.5472
X9.7165Y-2.2283
X9.7165Y-2.8976
X9.9134Y-2.2283
X9.9134Y-2.8976
X10.0315Y-2.5551
X10.2283Y-2.5551
T3
X3.2142Y-1.4331
X3.6142Y-1.4331
X4.6748Y-4.7087
X4.6748Y-5.0079
X4.6748Y-5.3031
X4.6787Y-4.4134
X4.748Y-3.8874
X4.748Y-4.1874
X4.848Y-3.8874
X4.848Y-4.1874
X4.878Y-4.5591
X4.878Y-4.8543
X4.878Y-5.1535
X4.878Y-5.4488
X4.948Y-3.8874
X4.948Y-4.1874
X5.048Y-3.8874
X5.048Y-4.1874
X5.0748Y-4.5591
X5.0748Y-4.7087
X5.0748Y-4.8543
X5.0748Y-5.0079
X5.0748Y-5.1535
X5.0748Y-5.3031
X5.0748Y-5.4488
X5.0787Y-4.4134
X5.148Y-3.8874
X5.148Y-4.1874
X5.248Y-3.8874
X5.248Y-4.1874
X5.348Y-3.8874
X5.348Y-4.1874
X5.448Y-3.8874
X5.448Y-4.1874
X5.548Y-3.8874
X5.548Y-4.1874
X6.6024Y-5.2913
X6.7008Y-5.1339
X6.9685Y-3.4055
X6.9685Y-3.8055
X7.0024Y-5.2913
X7.1008Y-5.1339
X7.2047Y-3.4055
X7.2047Y-3.8055
X7.4606Y-3.4055
X7.4606Y-3.8055
X7.6969Y-3.4055
X7.6969Y-3.8055
X7.9331Y-3.7748
X7.9331Y-4.0748
X8.0906Y-3.7748
X8.0906Y-4.1748
X8.248Y-3.7748
X8.248Y-4.0748
X8.7795Y-5.2795
X8.7795Y-5.4764
X8.8386Y-3.7795
X8.9386Y-3.6795
X8.9386Y-3.8795
X9.1575Y-4.7362
X9.1575Y-5.1362
X9.3661Y-5.4016
X9.3661Y-5.8016
T4
X8.176Y-2.0524
X8.176Y-2.1524
X8.176Y-2.2524
X8.176Y-2.3524
X8.176Y-2.4524
X8.176Y-2.5524
X8.176Y-2.6524
X8.176Y-2.7524
X9.076Y-2.0524
X9.076Y-2.1524
X9.076Y-2.2524
X9.076Y-2.3524
X9.076Y-2.4524
X9.076Y-2.5524
X9.076Y-2.6524
X9.076Y-2.7524
T5
X6.9685Y-3.1693
X6.9685Y-3.2693
X7.2047Y-3.1693
X7.2047Y-3.2693
X7.4606Y-3.1693
X7.4606Y-3.2693
X7.6969Y-3.1693
X7.6969Y-3.2693
X8.9222Y-4.9734
X8.9222Y-5.0734
T6
X3.751Y-1.4311
X3.851Y-1.4311
X3.951Y-1.4311
X4.051Y-1.4311
X4.151Y-1.4311
X5.3819Y-1.6213
X5.3819Y-1.7213
X5.3819Y-1.8213
X5.3819Y-1.9213
X5.3819Y-2.0213
X5.3819Y-2.1213
X5.3819Y-2.2213
X5.3819Y-2.3213
X5.3819Y-2.4213
X5.3819Y-2.5213
X5.3819Y-2.6213
X5.6681Y-5.5925
X5.7681Y-5.5925
X5.8681Y-5.5925
X6.048Y-3.6811
X6.048Y-3.7811
X6.048Y-3.8811
X6.048Y-3.9811
X6.048Y-4.0811
X6.048Y-4.1811
X6.048Y-4.2811
X6.048Y-4.3811
X6.048Y-4.4811
X6.048Y-4.5811
X6.048Y-4.6811
X6.048Y-4.7811
X6.048Y-4.8811
X6.048Y-4.9811
X6.048Y-5.0811
X6.048Y-5.1811
X6.048Y-5.2811
X6.048Y-5.3811
X6.048Y-5.4811
X6.048Y-5.5811
X6.148Y-3.6811
X6.148Y-3.7811
X6.148Y-3.8811
X6.148Y-3.9811
X6.148Y-4.0811
X6.148Y-4.1811
X6.148Y-4.2811
X6.148Y-4.3811
X6.148Y-4.4811
X6.148Y-4.5811
X6.148Y-4.6811
X6.148Y-4.7811
X6.148Y-4.8811
X6.148Y-4.9811
X6.148Y-5.0811
X6.148Y-5.1811
X6.148Y-5.2811
X6.148Y-5.3811
X6.148Y-5.4811
X6.148Y-5.5811
X6.6024Y-5.4862
X6.7024Y-5.4862
X6.8024Y-5.4862
X6.9024Y-5.4862
X8.4512Y-3.6811
X8.4512Y-3.7811
X8.4512Y-3.8811
X8.4512Y-3.9811
X8.4512Y-4.0811
X8.4512Y-4.1811
X8.4512Y-4.2811
X8.4512Y-4.3811
X8.4512Y-4.4811
X8.4512Y-4.5811
X8.4512Y-4.6811
X8.4512Y-4.7811
X8.4512Y-4.8811
X8.4512Y-4.9811
X8.4512Y-5.0811
X8.4512Y-5.1811
X8.4512Y-5.2811
X8.4512Y-5.3811
X8.4512Y-5.4811
X8.4512Y-5.5811
X8.5512Y-3.6811
X8.5512Y-3.7811
X8.5512Y-3.8811
X8.5512Y-3.9811
X8.5512Y-4.0811
X8.5512Y-4.1811
X8.5512Y-4.2811
X8.5512Y-4.3811
X8.5512Y-4.4811
X8.5512Y-4.5811
X8.5512Y-4.6811
X8.5512Y-4.7811
X8.5512Y-4.8811
X8.5512Y-4.9811
X8.5512Y-5.0811
X8.5512Y-5.1811
X8.5512Y-5.2811
X8.5512Y-5.3811
X8.5512Y-5.4811
X8.5512Y-5.5811
X8.9591Y-5.5276
X9.0591Y-5.5276
X9.5472Y-1.3551
X9.5472Y-1.4551
X9.5472Y-1.5551
X9.7441Y-1.3551
X9.7441Y-1.4551
X9.7441Y-1.5551
T7
X10.3114Y-1.5197
X10.5114Y-1.5197
M30
