G04 #@! TF.GenerationSoftware,KiCad,Pcbnew,(5.0.1)-4*
G04 #@! TF.CreationDate,2019-05-14T08:42:29+02:00*
G04 #@! TF.ProjectId,carte_filtre,63617274655F66696C7472652E6B6963,rev?*
G04 #@! TF.SameCoordinates,Original*
G04 #@! TF.FileFunction,Soldermask,Bot*
G04 #@! TF.FilePolarity,Negative*
%FSLAX46Y46*%
G04 Gerber Fmt 4.6, Leading zero omitted, Abs format (unit mm)*
G04 Created by KiCad (PCBNEW (5.0.1)-4) date 14/05/2019 08:42:29*
%MOMM*%
%LPD*%
G01*
G04 APERTURE LIST*
%ADD10C,0.100000*%
G04 APERTURE END LIST*
D10*
G36*
X254721646Y-141577735D02*
X255072248Y-141722959D01*
X255568075Y-141928337D01*
X256327264Y-142435612D01*
X256329843Y-142437335D01*
X256977665Y-143085157D01*
X256977667Y-143085160D01*
X257486663Y-143846925D01*
X257692041Y-144342752D01*
X257837265Y-144693354D01*
X258016000Y-145591915D01*
X258016000Y-146508085D01*
X257837265Y-147406646D01*
X257692040Y-147757249D01*
X257486663Y-148253075D01*
X256979388Y-149012264D01*
X256977665Y-149014843D01*
X256329843Y-149662665D01*
X256329840Y-149662667D01*
X255568075Y-150171663D01*
X255072248Y-150377041D01*
X254721646Y-150522265D01*
X253823085Y-150701000D01*
X252906915Y-150701000D01*
X252008354Y-150522265D01*
X251657752Y-150377041D01*
X251161925Y-150171663D01*
X250400160Y-149662667D01*
X250400157Y-149662665D01*
X249752335Y-149014843D01*
X249750612Y-149012264D01*
X249243337Y-148253075D01*
X249037959Y-147757248D01*
X248892735Y-147406646D01*
X248714000Y-146508085D01*
X248714000Y-145591915D01*
X248892735Y-144693354D01*
X249037959Y-144342752D01*
X249243337Y-143846925D01*
X249752333Y-143085160D01*
X249752335Y-143085157D01*
X250400157Y-142437335D01*
X250402736Y-142435612D01*
X251161925Y-141928337D01*
X251657752Y-141722959D01*
X252008354Y-141577735D01*
X252906915Y-141399000D01*
X253823085Y-141399000D01*
X254721646Y-141577735D01*
X254721646Y-141577735D01*
G37*
G36*
X179156646Y-141577735D02*
X179507248Y-141722959D01*
X180003075Y-141928337D01*
X180762264Y-142435612D01*
X180764843Y-142437335D01*
X181412665Y-143085157D01*
X181412667Y-143085160D01*
X181921663Y-143846925D01*
X182127041Y-144342752D01*
X182272265Y-144693354D01*
X182451000Y-145591915D01*
X182451000Y-146508085D01*
X182272265Y-147406646D01*
X182127041Y-147757248D01*
X181921663Y-148253075D01*
X181414388Y-149012264D01*
X181412665Y-149014843D01*
X180764843Y-149662665D01*
X180764840Y-149662667D01*
X180003075Y-150171663D01*
X179507248Y-150377041D01*
X179156646Y-150522265D01*
X178258085Y-150701000D01*
X177341915Y-150701000D01*
X176443354Y-150522265D01*
X176092752Y-150377041D01*
X175596925Y-150171663D01*
X174835160Y-149662667D01*
X174835157Y-149662665D01*
X174187335Y-149014843D01*
X174185612Y-149012264D01*
X173678337Y-148253075D01*
X173472959Y-147757248D01*
X173327735Y-147406646D01*
X173149000Y-146508085D01*
X173149000Y-145591915D01*
X173327735Y-144693354D01*
X173472959Y-144342752D01*
X173678337Y-143846925D01*
X174187333Y-143085160D01*
X174187335Y-143085157D01*
X174835157Y-142437335D01*
X174837736Y-142435612D01*
X175596925Y-141928337D01*
X176092752Y-141722959D01*
X176443354Y-141577735D01*
X177341915Y-141399000D01*
X178258085Y-141399000D01*
X179156646Y-141577735D01*
X179156646Y-141577735D01*
G37*
G36*
X188070442Y-144520518D02*
X188136627Y-144527037D01*
X188249853Y-144561384D01*
X188306467Y-144578557D01*
X188393311Y-144624977D01*
X188462991Y-144662222D01*
X188498729Y-144691552D01*
X188600186Y-144774814D01*
X188680369Y-144872519D01*
X188712778Y-144912009D01*
X188712779Y-144912011D01*
X188796443Y-145068533D01*
X188813616Y-145125147D01*
X188847963Y-145238373D01*
X188865359Y-145415000D01*
X188847963Y-145591627D01*
X188826243Y-145663228D01*
X188796443Y-145761467D01*
X188727698Y-145890078D01*
X188712778Y-145917991D01*
X188683448Y-145953729D01*
X188600186Y-146055186D01*
X188498729Y-146138448D01*
X188462991Y-146167778D01*
X188462989Y-146167779D01*
X188306467Y-146251443D01*
X188299069Y-146253687D01*
X188136627Y-146302963D01*
X188070442Y-146309482D01*
X188004260Y-146316000D01*
X187915740Y-146316000D01*
X187849558Y-146309482D01*
X187783373Y-146302963D01*
X187620931Y-146253687D01*
X187613533Y-146251443D01*
X187457011Y-146167779D01*
X187457009Y-146167778D01*
X187421271Y-146138448D01*
X187319814Y-146055186D01*
X187236552Y-145953729D01*
X187207222Y-145917991D01*
X187192302Y-145890078D01*
X187123557Y-145761467D01*
X187093757Y-145663228D01*
X187072037Y-145591627D01*
X187054641Y-145415000D01*
X187072037Y-145238373D01*
X187106384Y-145125147D01*
X187123557Y-145068533D01*
X187207221Y-144912011D01*
X187207222Y-144912009D01*
X187239631Y-144872519D01*
X187319814Y-144774814D01*
X187421271Y-144691552D01*
X187457009Y-144662222D01*
X187526689Y-144624977D01*
X187613533Y-144578557D01*
X187670147Y-144561384D01*
X187783373Y-144527037D01*
X187849558Y-144520518D01*
X187915740Y-144514000D01*
X188004260Y-144514000D01*
X188070442Y-144520518D01*
X188070442Y-144520518D01*
G37*
G36*
X225753228Y-144596703D02*
X225908100Y-144660853D01*
X226047481Y-144753985D01*
X226166015Y-144872519D01*
X226259147Y-145011900D01*
X226323297Y-145166772D01*
X226356000Y-145331184D01*
X226356000Y-145498816D01*
X226323297Y-145663228D01*
X226259147Y-145818100D01*
X226166015Y-145957481D01*
X226047481Y-146076015D01*
X225908100Y-146169147D01*
X225753228Y-146233297D01*
X225588816Y-146266000D01*
X225421184Y-146266000D01*
X225256772Y-146233297D01*
X225101900Y-146169147D01*
X224962519Y-146076015D01*
X224843985Y-145957481D01*
X224750853Y-145818100D01*
X224686703Y-145663228D01*
X224654000Y-145498816D01*
X224654000Y-145331184D01*
X224686703Y-145166772D01*
X224750853Y-145011900D01*
X224843985Y-144872519D01*
X224962519Y-144753985D01*
X225101900Y-144660853D01*
X225256772Y-144596703D01*
X225421184Y-144564000D01*
X225588816Y-144564000D01*
X225753228Y-144596703D01*
X225753228Y-144596703D01*
G37*
G36*
X230753228Y-144596703D02*
X230908100Y-144660853D01*
X231047481Y-144753985D01*
X231166015Y-144872519D01*
X231259147Y-145011900D01*
X231323297Y-145166772D01*
X231356000Y-145331184D01*
X231356000Y-145498816D01*
X231323297Y-145663228D01*
X231259147Y-145818100D01*
X231166015Y-145957481D01*
X231047481Y-146076015D01*
X230908100Y-146169147D01*
X230753228Y-146233297D01*
X230588816Y-146266000D01*
X230421184Y-146266000D01*
X230256772Y-146233297D01*
X230101900Y-146169147D01*
X229962519Y-146076015D01*
X229843985Y-145957481D01*
X229750853Y-145818100D01*
X229686703Y-145663228D01*
X229654000Y-145498816D01*
X229654000Y-145331184D01*
X229686703Y-145166772D01*
X229750853Y-145011900D01*
X229843985Y-144872519D01*
X229962519Y-144753985D01*
X230101900Y-144660853D01*
X230256772Y-144596703D01*
X230421184Y-144564000D01*
X230588816Y-144564000D01*
X230753228Y-144596703D01*
X230753228Y-144596703D01*
G37*
G36*
X195511821Y-144576313D02*
X195511824Y-144576314D01*
X195511825Y-144576314D01*
X195672239Y-144624975D01*
X195672241Y-144624976D01*
X195672244Y-144624977D01*
X195820078Y-144703995D01*
X195949659Y-144810341D01*
X196056005Y-144939922D01*
X196135023Y-145087756D01*
X196135024Y-145087759D01*
X196135025Y-145087761D01*
X196180713Y-145238375D01*
X196183687Y-145248179D01*
X196200117Y-145415000D01*
X196183687Y-145581821D01*
X196183686Y-145581824D01*
X196183686Y-145581825D01*
X196158993Y-145663228D01*
X196135023Y-145742244D01*
X196056005Y-145890078D01*
X195949659Y-146019659D01*
X195820078Y-146126005D01*
X195672244Y-146205023D01*
X195672241Y-146205024D01*
X195672239Y-146205025D01*
X195511825Y-146253686D01*
X195511824Y-146253686D01*
X195511821Y-146253687D01*
X195386804Y-146266000D01*
X194503196Y-146266000D01*
X194378179Y-146253687D01*
X194378176Y-146253686D01*
X194378175Y-146253686D01*
X194217761Y-146205025D01*
X194217759Y-146205024D01*
X194217756Y-146205023D01*
X194069922Y-146126005D01*
X193940341Y-146019659D01*
X193833995Y-145890078D01*
X193754977Y-145742244D01*
X193731008Y-145663228D01*
X193706314Y-145581825D01*
X193706314Y-145581824D01*
X193706313Y-145581821D01*
X193689883Y-145415000D01*
X193706313Y-145248179D01*
X193709287Y-145238375D01*
X193754975Y-145087761D01*
X193754976Y-145087759D01*
X193754977Y-145087756D01*
X193833995Y-144939922D01*
X193940341Y-144810341D01*
X194069922Y-144703995D01*
X194217756Y-144624977D01*
X194217759Y-144624976D01*
X194217761Y-144624975D01*
X194378175Y-144576314D01*
X194378176Y-144576314D01*
X194378179Y-144576313D01*
X194503196Y-144564000D01*
X195386804Y-144564000D01*
X195511821Y-144576313D01*
X195511821Y-144576313D01*
G37*
G36*
X210751821Y-144576313D02*
X210751824Y-144576314D01*
X210751825Y-144576314D01*
X210912239Y-144624975D01*
X210912241Y-144624976D01*
X210912244Y-144624977D01*
X211060078Y-144703995D01*
X211189659Y-144810341D01*
X211296005Y-144939922D01*
X211375023Y-145087756D01*
X211375024Y-145087759D01*
X211375025Y-145087761D01*
X211420713Y-145238375D01*
X211423687Y-145248179D01*
X211440117Y-145415000D01*
X211423687Y-145581821D01*
X211423686Y-145581824D01*
X211423686Y-145581825D01*
X211398993Y-145663228D01*
X211375023Y-145742244D01*
X211296005Y-145890078D01*
X211189659Y-146019659D01*
X211060078Y-146126005D01*
X210912244Y-146205023D01*
X210912241Y-146205024D01*
X210912239Y-146205025D01*
X210751825Y-146253686D01*
X210751824Y-146253686D01*
X210751821Y-146253687D01*
X210626804Y-146266000D01*
X209743196Y-146266000D01*
X209618179Y-146253687D01*
X209618176Y-146253686D01*
X209618175Y-146253686D01*
X209457761Y-146205025D01*
X209457759Y-146205024D01*
X209457756Y-146205023D01*
X209309922Y-146126005D01*
X209180341Y-146019659D01*
X209073995Y-145890078D01*
X208994977Y-145742244D01*
X208971008Y-145663228D01*
X208946314Y-145581825D01*
X208946314Y-145581824D01*
X208946313Y-145581821D01*
X208929883Y-145415000D01*
X208946313Y-145248179D01*
X208949287Y-145238375D01*
X208994975Y-145087761D01*
X208994976Y-145087759D01*
X208994977Y-145087756D01*
X209073995Y-144939922D01*
X209180341Y-144810341D01*
X209309922Y-144703995D01*
X209457756Y-144624977D01*
X209457759Y-144624976D01*
X209457761Y-144624975D01*
X209618175Y-144576314D01*
X209618176Y-144576314D01*
X209618179Y-144576313D01*
X209743196Y-144564000D01*
X210626804Y-144564000D01*
X210751821Y-144576313D01*
X210751821Y-144576313D01*
G37*
G36*
X188070443Y-141980519D02*
X188136627Y-141987037D01*
X188249853Y-142021384D01*
X188306467Y-142038557D01*
X188393311Y-142084977D01*
X188462991Y-142122222D01*
X188498729Y-142151552D01*
X188600186Y-142234814D01*
X188683448Y-142336271D01*
X188712778Y-142372009D01*
X188712779Y-142372011D01*
X188796443Y-142528533D01*
X188813616Y-142585147D01*
X188847963Y-142698373D01*
X188865359Y-142875000D01*
X188847963Y-143051627D01*
X188813616Y-143164853D01*
X188796443Y-143221467D01*
X188727698Y-143350078D01*
X188712778Y-143377991D01*
X188683448Y-143413729D01*
X188600186Y-143515186D01*
X188498729Y-143598448D01*
X188462991Y-143627778D01*
X188462989Y-143627779D01*
X188306467Y-143711443D01*
X188299069Y-143713687D01*
X188136627Y-143762963D01*
X188070442Y-143769482D01*
X188004260Y-143776000D01*
X187915740Y-143776000D01*
X187849558Y-143769482D01*
X187783373Y-143762963D01*
X187620931Y-143713687D01*
X187613533Y-143711443D01*
X187457011Y-143627779D01*
X187457009Y-143627778D01*
X187421271Y-143598448D01*
X187319814Y-143515186D01*
X187236552Y-143413729D01*
X187207222Y-143377991D01*
X187192302Y-143350078D01*
X187123557Y-143221467D01*
X187106384Y-143164853D01*
X187072037Y-143051627D01*
X187054641Y-142875000D01*
X187072037Y-142698373D01*
X187106384Y-142585147D01*
X187123557Y-142528533D01*
X187207221Y-142372011D01*
X187207222Y-142372009D01*
X187236552Y-142336271D01*
X187319814Y-142234814D01*
X187421271Y-142151552D01*
X187457009Y-142122222D01*
X187526689Y-142084977D01*
X187613533Y-142038557D01*
X187670147Y-142021384D01*
X187783373Y-141987037D01*
X187849557Y-141980519D01*
X187915740Y-141974000D01*
X188004260Y-141974000D01*
X188070443Y-141980519D01*
X188070443Y-141980519D01*
G37*
G36*
X195511821Y-142036313D02*
X195511824Y-142036314D01*
X195511825Y-142036314D01*
X195672239Y-142084975D01*
X195672241Y-142084976D01*
X195672244Y-142084977D01*
X195820078Y-142163995D01*
X195949659Y-142270341D01*
X196056005Y-142399922D01*
X196135023Y-142547756D01*
X196135024Y-142547759D01*
X196135025Y-142547761D01*
X196180713Y-142698375D01*
X196183687Y-142708179D01*
X196200117Y-142875000D01*
X196183687Y-143041821D01*
X196183686Y-143041824D01*
X196183686Y-143041825D01*
X196180713Y-143051627D01*
X196135023Y-143202244D01*
X196056005Y-143350078D01*
X195949659Y-143479659D01*
X195820078Y-143586005D01*
X195672244Y-143665023D01*
X195672241Y-143665024D01*
X195672239Y-143665025D01*
X195511825Y-143713686D01*
X195511824Y-143713686D01*
X195511821Y-143713687D01*
X195386804Y-143726000D01*
X194503196Y-143726000D01*
X194378179Y-143713687D01*
X194378176Y-143713686D01*
X194378175Y-143713686D01*
X194217761Y-143665025D01*
X194217759Y-143665024D01*
X194217756Y-143665023D01*
X194069922Y-143586005D01*
X193940341Y-143479659D01*
X193833995Y-143350078D01*
X193754977Y-143202244D01*
X193709288Y-143051627D01*
X193706314Y-143041825D01*
X193706314Y-143041824D01*
X193706313Y-143041821D01*
X193689883Y-142875000D01*
X193706313Y-142708179D01*
X193709287Y-142698375D01*
X193754975Y-142547761D01*
X193754976Y-142547759D01*
X193754977Y-142547756D01*
X193833995Y-142399922D01*
X193940341Y-142270341D01*
X194069922Y-142163995D01*
X194217756Y-142084977D01*
X194217759Y-142084976D01*
X194217761Y-142084975D01*
X194378175Y-142036314D01*
X194378176Y-142036314D01*
X194378179Y-142036313D01*
X194503196Y-142024000D01*
X195386804Y-142024000D01*
X195511821Y-142036313D01*
X195511821Y-142036313D01*
G37*
G36*
X210751821Y-142036313D02*
X210751824Y-142036314D01*
X210751825Y-142036314D01*
X210912239Y-142084975D01*
X210912241Y-142084976D01*
X210912244Y-142084977D01*
X211060078Y-142163995D01*
X211189659Y-142270341D01*
X211296005Y-142399922D01*
X211375023Y-142547756D01*
X211375024Y-142547759D01*
X211375025Y-142547761D01*
X211420713Y-142698375D01*
X211423687Y-142708179D01*
X211440117Y-142875000D01*
X211423687Y-143041821D01*
X211423686Y-143041824D01*
X211423686Y-143041825D01*
X211420713Y-143051627D01*
X211375023Y-143202244D01*
X211296005Y-143350078D01*
X211189659Y-143479659D01*
X211060078Y-143586005D01*
X210912244Y-143665023D01*
X210912241Y-143665024D01*
X210912239Y-143665025D01*
X210751825Y-143713686D01*
X210751824Y-143713686D01*
X210751821Y-143713687D01*
X210626804Y-143726000D01*
X209743196Y-143726000D01*
X209618179Y-143713687D01*
X209618176Y-143713686D01*
X209618175Y-143713686D01*
X209457761Y-143665025D01*
X209457759Y-143665024D01*
X209457756Y-143665023D01*
X209309922Y-143586005D01*
X209180341Y-143479659D01*
X209073995Y-143350078D01*
X208994977Y-143202244D01*
X208949288Y-143051627D01*
X208946314Y-143041825D01*
X208946314Y-143041824D01*
X208946313Y-143041821D01*
X208929883Y-142875000D01*
X208946313Y-142708179D01*
X208949287Y-142698375D01*
X208994975Y-142547761D01*
X208994976Y-142547759D01*
X208994977Y-142547756D01*
X209073995Y-142399922D01*
X209180341Y-142270341D01*
X209309922Y-142163995D01*
X209457756Y-142084977D01*
X209457759Y-142084976D01*
X209457761Y-142084975D01*
X209618175Y-142036314D01*
X209618176Y-142036314D01*
X209618179Y-142036313D01*
X209743196Y-142024000D01*
X210626804Y-142024000D01*
X210751821Y-142036313D01*
X210751821Y-142036313D01*
G37*
G36*
X188861000Y-141236000D02*
X187059000Y-141236000D01*
X187059000Y-139434000D01*
X188861000Y-139434000D01*
X188861000Y-141236000D01*
X188861000Y-141236000D01*
G37*
G36*
X210751821Y-139496313D02*
X210751824Y-139496314D01*
X210751825Y-139496314D01*
X210912239Y-139544975D01*
X210912241Y-139544976D01*
X210912244Y-139544977D01*
X211060078Y-139623995D01*
X211189659Y-139730341D01*
X211296005Y-139859922D01*
X211375023Y-140007756D01*
X211423687Y-140168179D01*
X211440117Y-140335000D01*
X211423687Y-140501821D01*
X211375023Y-140662244D01*
X211296005Y-140810078D01*
X211189659Y-140939659D01*
X211060078Y-141046005D01*
X210912244Y-141125023D01*
X210912241Y-141125024D01*
X210912239Y-141125025D01*
X210751825Y-141173686D01*
X210751824Y-141173686D01*
X210751821Y-141173687D01*
X210626804Y-141186000D01*
X209743196Y-141186000D01*
X209618179Y-141173687D01*
X209618176Y-141173686D01*
X209618175Y-141173686D01*
X209457761Y-141125025D01*
X209457759Y-141125024D01*
X209457756Y-141125023D01*
X209309922Y-141046005D01*
X209180341Y-140939659D01*
X209073995Y-140810078D01*
X208994977Y-140662244D01*
X208946313Y-140501821D01*
X208929883Y-140335000D01*
X208946313Y-140168179D01*
X208994977Y-140007756D01*
X209073995Y-139859922D01*
X209180341Y-139730341D01*
X209309922Y-139623995D01*
X209457756Y-139544977D01*
X209457759Y-139544976D01*
X209457761Y-139544975D01*
X209618175Y-139496314D01*
X209618176Y-139496314D01*
X209618179Y-139496313D01*
X209743196Y-139484000D01*
X210626804Y-139484000D01*
X210751821Y-139496313D01*
X210751821Y-139496313D01*
G37*
G36*
X195511821Y-139496313D02*
X195511824Y-139496314D01*
X195511825Y-139496314D01*
X195672239Y-139544975D01*
X195672241Y-139544976D01*
X195672244Y-139544977D01*
X195820078Y-139623995D01*
X195949659Y-139730341D01*
X196056005Y-139859922D01*
X196135023Y-140007756D01*
X196183687Y-140168179D01*
X196200117Y-140335000D01*
X196183687Y-140501821D01*
X196135023Y-140662244D01*
X196056005Y-140810078D01*
X195949659Y-140939659D01*
X195820078Y-141046005D01*
X195672244Y-141125023D01*
X195672241Y-141125024D01*
X195672239Y-141125025D01*
X195511825Y-141173686D01*
X195511824Y-141173686D01*
X195511821Y-141173687D01*
X195386804Y-141186000D01*
X194503196Y-141186000D01*
X194378179Y-141173687D01*
X194378176Y-141173686D01*
X194378175Y-141173686D01*
X194217761Y-141125025D01*
X194217759Y-141125024D01*
X194217756Y-141125023D01*
X194069922Y-141046005D01*
X193940341Y-140939659D01*
X193833995Y-140810078D01*
X193754977Y-140662244D01*
X193706313Y-140501821D01*
X193689883Y-140335000D01*
X193706313Y-140168179D01*
X193754977Y-140007756D01*
X193833995Y-139859922D01*
X193940341Y-139730341D01*
X194069922Y-139623995D01*
X194217756Y-139544977D01*
X194217759Y-139544976D01*
X194217761Y-139544975D01*
X194378175Y-139496314D01*
X194378176Y-139496314D01*
X194378179Y-139496313D01*
X194503196Y-139484000D01*
X195386804Y-139484000D01*
X195511821Y-139496313D01*
X195511821Y-139496313D01*
G37*
G36*
X231071821Y-137591313D02*
X231071824Y-137591314D01*
X231071825Y-137591314D01*
X231232239Y-137639975D01*
X231232241Y-137639976D01*
X231232244Y-137639977D01*
X231380078Y-137718995D01*
X231509659Y-137825341D01*
X231616005Y-137954922D01*
X231695023Y-138102756D01*
X231695024Y-138102759D01*
X231695025Y-138102761D01*
X231743686Y-138263175D01*
X231743687Y-138263179D01*
X231760117Y-138430000D01*
X231743687Y-138596821D01*
X231743686Y-138596824D01*
X231743686Y-138596825D01*
X231718993Y-138678228D01*
X231695023Y-138757244D01*
X231616005Y-138905078D01*
X231509659Y-139034659D01*
X231380078Y-139141005D01*
X231232244Y-139220023D01*
X231232241Y-139220024D01*
X231232239Y-139220025D01*
X231071825Y-139268686D01*
X231071824Y-139268686D01*
X231071821Y-139268687D01*
X230946804Y-139281000D01*
X230063196Y-139281000D01*
X229938179Y-139268687D01*
X229938176Y-139268686D01*
X229938175Y-139268686D01*
X229777761Y-139220025D01*
X229777759Y-139220024D01*
X229777756Y-139220023D01*
X229629922Y-139141005D01*
X229500341Y-139034659D01*
X229393995Y-138905078D01*
X229314977Y-138757244D01*
X229291008Y-138678228D01*
X229266314Y-138596825D01*
X229266314Y-138596824D01*
X229266313Y-138596821D01*
X229249883Y-138430000D01*
X229266313Y-138263179D01*
X229266314Y-138263175D01*
X229314975Y-138102761D01*
X229314976Y-138102759D01*
X229314977Y-138102756D01*
X229393995Y-137954922D01*
X229500341Y-137825341D01*
X229629922Y-137718995D01*
X229777756Y-137639977D01*
X229777759Y-137639976D01*
X229777761Y-137639975D01*
X229938175Y-137591314D01*
X229938176Y-137591314D01*
X229938179Y-137591313D01*
X230063196Y-137579000D01*
X230946804Y-137579000D01*
X231071821Y-137591313D01*
X231071821Y-137591313D01*
G37*
G36*
X223451821Y-137591313D02*
X223451824Y-137591314D01*
X223451825Y-137591314D01*
X223612239Y-137639975D01*
X223612241Y-137639976D01*
X223612244Y-137639977D01*
X223760078Y-137718995D01*
X223889659Y-137825341D01*
X223996005Y-137954922D01*
X224075023Y-138102756D01*
X224075024Y-138102759D01*
X224075025Y-138102761D01*
X224123686Y-138263175D01*
X224123687Y-138263179D01*
X224140117Y-138430000D01*
X224123687Y-138596821D01*
X224123686Y-138596824D01*
X224123686Y-138596825D01*
X224098993Y-138678228D01*
X224075023Y-138757244D01*
X223996005Y-138905078D01*
X223889659Y-139034659D01*
X223760078Y-139141005D01*
X223612244Y-139220023D01*
X223612241Y-139220024D01*
X223612239Y-139220025D01*
X223451825Y-139268686D01*
X223451824Y-139268686D01*
X223451821Y-139268687D01*
X223326804Y-139281000D01*
X222443196Y-139281000D01*
X222318179Y-139268687D01*
X222318176Y-139268686D01*
X222318175Y-139268686D01*
X222157761Y-139220025D01*
X222157759Y-139220024D01*
X222157756Y-139220023D01*
X222009922Y-139141005D01*
X221880341Y-139034659D01*
X221773995Y-138905078D01*
X221694977Y-138757244D01*
X221671008Y-138678228D01*
X221646314Y-138596825D01*
X221646314Y-138596824D01*
X221646313Y-138596821D01*
X221629883Y-138430000D01*
X221646313Y-138263179D01*
X221646314Y-138263175D01*
X221694975Y-138102761D01*
X221694976Y-138102759D01*
X221694977Y-138102756D01*
X221773995Y-137954922D01*
X221880341Y-137825341D01*
X222009922Y-137718995D01*
X222157756Y-137639977D01*
X222157759Y-137639976D01*
X222157761Y-137639975D01*
X222318175Y-137591314D01*
X222318176Y-137591314D01*
X222318179Y-137591313D01*
X222443196Y-137579000D01*
X223326804Y-137579000D01*
X223451821Y-137591313D01*
X223451821Y-137591313D01*
G37*
G36*
X237103228Y-137611703D02*
X237258100Y-137675853D01*
X237397481Y-137768985D01*
X237516015Y-137887519D01*
X237609147Y-138026900D01*
X237673297Y-138181772D01*
X237706000Y-138346184D01*
X237706000Y-138513816D01*
X237673297Y-138678228D01*
X237609147Y-138833100D01*
X237516015Y-138972481D01*
X237397481Y-139091015D01*
X237258100Y-139184147D01*
X237103228Y-139248297D01*
X236938816Y-139281000D01*
X236771184Y-139281000D01*
X236606772Y-139248297D01*
X236451900Y-139184147D01*
X236312519Y-139091015D01*
X236193985Y-138972481D01*
X236100853Y-138833100D01*
X236036703Y-138678228D01*
X236004000Y-138513816D01*
X236004000Y-138346184D01*
X236036703Y-138181772D01*
X236100853Y-138026900D01*
X236193985Y-137887519D01*
X236312519Y-137768985D01*
X236451900Y-137675853D01*
X236606772Y-137611703D01*
X236771184Y-137579000D01*
X236938816Y-137579000D01*
X237103228Y-137611703D01*
X237103228Y-137611703D01*
G37*
G36*
X247181821Y-137591313D02*
X247181824Y-137591314D01*
X247181825Y-137591314D01*
X247342239Y-137639975D01*
X247342241Y-137639976D01*
X247342244Y-137639977D01*
X247490078Y-137718995D01*
X247619659Y-137825341D01*
X247726005Y-137954922D01*
X247805023Y-138102756D01*
X247805024Y-138102759D01*
X247805025Y-138102761D01*
X247853686Y-138263175D01*
X247853687Y-138263179D01*
X247870117Y-138430000D01*
X247853687Y-138596821D01*
X247853686Y-138596824D01*
X247853686Y-138596825D01*
X247828993Y-138678228D01*
X247805023Y-138757244D01*
X247726005Y-138905078D01*
X247619659Y-139034659D01*
X247490078Y-139141005D01*
X247342244Y-139220023D01*
X247342241Y-139220024D01*
X247342239Y-139220025D01*
X247181825Y-139268686D01*
X247181824Y-139268686D01*
X247181821Y-139268687D01*
X247056804Y-139281000D01*
X246973196Y-139281000D01*
X246848179Y-139268687D01*
X246848176Y-139268686D01*
X246848175Y-139268686D01*
X246687761Y-139220025D01*
X246687759Y-139220024D01*
X246687756Y-139220023D01*
X246539922Y-139141005D01*
X246410341Y-139034659D01*
X246303995Y-138905078D01*
X246224977Y-138757244D01*
X246201008Y-138678228D01*
X246176314Y-138596825D01*
X246176314Y-138596824D01*
X246176313Y-138596821D01*
X246159883Y-138430000D01*
X246176313Y-138263179D01*
X246176314Y-138263175D01*
X246224975Y-138102761D01*
X246224976Y-138102759D01*
X246224977Y-138102756D01*
X246303995Y-137954922D01*
X246410341Y-137825341D01*
X246539922Y-137718995D01*
X246687756Y-137639977D01*
X246687759Y-137639976D01*
X246687761Y-137639975D01*
X246848175Y-137591314D01*
X246848176Y-137591314D01*
X246848179Y-137591313D01*
X246973196Y-137579000D01*
X247056804Y-137579000D01*
X247181821Y-137591313D01*
X247181821Y-137591313D01*
G37*
G36*
X195511821Y-136956313D02*
X195511824Y-136956314D01*
X195511825Y-136956314D01*
X195672239Y-137004975D01*
X195672241Y-137004976D01*
X195672244Y-137004977D01*
X195820078Y-137083995D01*
X195949659Y-137190341D01*
X196056005Y-137319922D01*
X196135023Y-137467756D01*
X196135024Y-137467759D01*
X196135025Y-137467761D01*
X196183686Y-137628175D01*
X196183687Y-137628179D01*
X196200117Y-137795000D01*
X196183687Y-137961821D01*
X196183686Y-137961824D01*
X196183686Y-137961825D01*
X196140934Y-138102761D01*
X196135023Y-138122244D01*
X196056005Y-138270078D01*
X195949659Y-138399659D01*
X195820078Y-138506005D01*
X195672244Y-138585023D01*
X195672241Y-138585024D01*
X195672239Y-138585025D01*
X195511825Y-138633686D01*
X195511824Y-138633686D01*
X195511821Y-138633687D01*
X195386804Y-138646000D01*
X194503196Y-138646000D01*
X194378179Y-138633687D01*
X194378176Y-138633686D01*
X194378175Y-138633686D01*
X194217761Y-138585025D01*
X194217759Y-138585024D01*
X194217756Y-138585023D01*
X194069922Y-138506005D01*
X193940341Y-138399659D01*
X193833995Y-138270078D01*
X193754977Y-138122244D01*
X193749067Y-138102761D01*
X193706314Y-137961825D01*
X193706314Y-137961824D01*
X193706313Y-137961821D01*
X193689883Y-137795000D01*
X193706313Y-137628179D01*
X193706314Y-137628175D01*
X193754975Y-137467761D01*
X193754976Y-137467759D01*
X193754977Y-137467756D01*
X193833995Y-137319922D01*
X193940341Y-137190341D01*
X194069922Y-137083995D01*
X194217756Y-137004977D01*
X194217759Y-137004976D01*
X194217761Y-137004975D01*
X194378175Y-136956314D01*
X194378176Y-136956314D01*
X194378179Y-136956313D01*
X194503196Y-136944000D01*
X195386804Y-136944000D01*
X195511821Y-136956313D01*
X195511821Y-136956313D01*
G37*
G36*
X210751821Y-136956313D02*
X210751824Y-136956314D01*
X210751825Y-136956314D01*
X210912239Y-137004975D01*
X210912241Y-137004976D01*
X210912244Y-137004977D01*
X211060078Y-137083995D01*
X211189659Y-137190341D01*
X211296005Y-137319922D01*
X211375023Y-137467756D01*
X211375024Y-137467759D01*
X211375025Y-137467761D01*
X211423686Y-137628175D01*
X211423687Y-137628179D01*
X211440117Y-137795000D01*
X211423687Y-137961821D01*
X211423686Y-137961824D01*
X211423686Y-137961825D01*
X211380934Y-138102761D01*
X211375023Y-138122244D01*
X211296005Y-138270078D01*
X211189659Y-138399659D01*
X211060078Y-138506005D01*
X210912244Y-138585023D01*
X210912241Y-138585024D01*
X210912239Y-138585025D01*
X210751825Y-138633686D01*
X210751824Y-138633686D01*
X210751821Y-138633687D01*
X210626804Y-138646000D01*
X209743196Y-138646000D01*
X209618179Y-138633687D01*
X209618176Y-138633686D01*
X209618175Y-138633686D01*
X209457761Y-138585025D01*
X209457759Y-138585024D01*
X209457756Y-138585023D01*
X209309922Y-138506005D01*
X209180341Y-138399659D01*
X209073995Y-138270078D01*
X208994977Y-138122244D01*
X208989067Y-138102761D01*
X208946314Y-137961825D01*
X208946314Y-137961824D01*
X208946313Y-137961821D01*
X208929883Y-137795000D01*
X208946313Y-137628179D01*
X208946314Y-137628175D01*
X208994975Y-137467761D01*
X208994976Y-137467759D01*
X208994977Y-137467756D01*
X209073995Y-137319922D01*
X209180341Y-137190341D01*
X209309922Y-137083995D01*
X209457756Y-137004977D01*
X209457759Y-137004976D01*
X209457761Y-137004975D01*
X209618175Y-136956314D01*
X209618176Y-136956314D01*
X209618179Y-136956313D01*
X209743196Y-136944000D01*
X210626804Y-136944000D01*
X210751821Y-136956313D01*
X210751821Y-136956313D01*
G37*
G36*
X223451821Y-135051313D02*
X223451824Y-135051314D01*
X223451825Y-135051314D01*
X223612239Y-135099975D01*
X223612241Y-135099976D01*
X223612244Y-135099977D01*
X223760078Y-135178995D01*
X223889659Y-135285341D01*
X223996005Y-135414922D01*
X224075023Y-135562756D01*
X224075024Y-135562759D01*
X224075025Y-135562761D01*
X224123686Y-135723175D01*
X224123687Y-135723179D01*
X224140117Y-135890000D01*
X224123687Y-136056821D01*
X224123686Y-136056824D01*
X224123686Y-136056825D01*
X224084620Y-136185610D01*
X224075023Y-136217244D01*
X223996005Y-136365078D01*
X223889659Y-136494659D01*
X223760078Y-136601005D01*
X223612244Y-136680023D01*
X223612241Y-136680024D01*
X223612239Y-136680025D01*
X223451825Y-136728686D01*
X223451824Y-136728686D01*
X223451821Y-136728687D01*
X223326804Y-136741000D01*
X222443196Y-136741000D01*
X222318179Y-136728687D01*
X222318176Y-136728686D01*
X222318175Y-136728686D01*
X222157761Y-136680025D01*
X222157759Y-136680024D01*
X222157756Y-136680023D01*
X222009922Y-136601005D01*
X221880341Y-136494659D01*
X221773995Y-136365078D01*
X221694977Y-136217244D01*
X221685381Y-136185610D01*
X221646314Y-136056825D01*
X221646314Y-136056824D01*
X221646313Y-136056821D01*
X221629883Y-135890000D01*
X221646313Y-135723179D01*
X221646314Y-135723175D01*
X221694975Y-135562761D01*
X221694976Y-135562759D01*
X221694977Y-135562756D01*
X221773995Y-135414922D01*
X221880341Y-135285341D01*
X222009922Y-135178995D01*
X222157756Y-135099977D01*
X222157759Y-135099976D01*
X222157761Y-135099975D01*
X222318175Y-135051314D01*
X222318176Y-135051314D01*
X222318179Y-135051313D01*
X222443196Y-135039000D01*
X223326804Y-135039000D01*
X223451821Y-135051313D01*
X223451821Y-135051313D01*
G37*
G36*
X231071821Y-135051313D02*
X231071824Y-135051314D01*
X231071825Y-135051314D01*
X231232239Y-135099975D01*
X231232241Y-135099976D01*
X231232244Y-135099977D01*
X231380078Y-135178995D01*
X231509659Y-135285341D01*
X231616005Y-135414922D01*
X231695023Y-135562756D01*
X231695024Y-135562759D01*
X231695025Y-135562761D01*
X231743686Y-135723175D01*
X231743687Y-135723179D01*
X231760117Y-135890000D01*
X231743687Y-136056821D01*
X231743686Y-136056824D01*
X231743686Y-136056825D01*
X231704620Y-136185610D01*
X231695023Y-136217244D01*
X231616005Y-136365078D01*
X231509659Y-136494659D01*
X231380078Y-136601005D01*
X231232244Y-136680023D01*
X231232241Y-136680024D01*
X231232239Y-136680025D01*
X231071825Y-136728686D01*
X231071824Y-136728686D01*
X231071821Y-136728687D01*
X230946804Y-136741000D01*
X230063196Y-136741000D01*
X229938179Y-136728687D01*
X229938176Y-136728686D01*
X229938175Y-136728686D01*
X229777761Y-136680025D01*
X229777759Y-136680024D01*
X229777756Y-136680023D01*
X229629922Y-136601005D01*
X229500341Y-136494659D01*
X229393995Y-136365078D01*
X229314977Y-136217244D01*
X229305381Y-136185610D01*
X229266314Y-136056825D01*
X229266314Y-136056824D01*
X229266313Y-136056821D01*
X229249883Y-135890000D01*
X229266313Y-135723179D01*
X229266314Y-135723175D01*
X229314975Y-135562761D01*
X229314976Y-135562759D01*
X229314977Y-135562756D01*
X229393995Y-135414922D01*
X229500341Y-135285341D01*
X229629922Y-135178995D01*
X229777756Y-135099977D01*
X229777759Y-135099976D01*
X229777761Y-135099975D01*
X229938175Y-135051314D01*
X229938176Y-135051314D01*
X229938179Y-135051313D01*
X230063196Y-135039000D01*
X230946804Y-135039000D01*
X231071821Y-135051313D01*
X231071821Y-135051313D01*
G37*
G36*
X179376565Y-134164389D02*
X179567834Y-134243615D01*
X179739976Y-134358637D01*
X179886363Y-134505024D01*
X180001385Y-134677166D01*
X180080611Y-134868435D01*
X180121000Y-135071484D01*
X180121000Y-135278516D01*
X180080611Y-135481565D01*
X180001385Y-135672834D01*
X179886363Y-135844976D01*
X179739976Y-135991363D01*
X179567834Y-136106385D01*
X179376565Y-136185611D01*
X179173516Y-136226000D01*
X178966484Y-136226000D01*
X178763435Y-136185611D01*
X178572166Y-136106385D01*
X178400024Y-135991363D01*
X178253637Y-135844976D01*
X178138615Y-135672834D01*
X178059389Y-135481565D01*
X178019000Y-135278516D01*
X178019000Y-135071484D01*
X178059389Y-134868435D01*
X178138615Y-134677166D01*
X178253637Y-134505024D01*
X178400024Y-134358637D01*
X178572166Y-134243615D01*
X178763435Y-134164389D01*
X178966484Y-134124000D01*
X179173516Y-134124000D01*
X179376565Y-134164389D01*
X179376565Y-134164389D01*
G37*
G36*
X195511821Y-134416313D02*
X195511824Y-134416314D01*
X195511825Y-134416314D01*
X195672239Y-134464975D01*
X195672241Y-134464976D01*
X195672244Y-134464977D01*
X195820078Y-134543995D01*
X195949659Y-134650341D01*
X196056005Y-134779922D01*
X196135023Y-134927756D01*
X196183687Y-135088179D01*
X196200117Y-135255000D01*
X196183687Y-135421821D01*
X196183686Y-135421824D01*
X196183686Y-135421825D01*
X196140934Y-135562761D01*
X196135023Y-135582244D01*
X196056005Y-135730078D01*
X195949659Y-135859659D01*
X195820078Y-135966005D01*
X195672244Y-136045023D01*
X195672241Y-136045024D01*
X195672239Y-136045025D01*
X195511825Y-136093686D01*
X195511824Y-136093686D01*
X195511821Y-136093687D01*
X195386804Y-136106000D01*
X194503196Y-136106000D01*
X194378179Y-136093687D01*
X194378176Y-136093686D01*
X194378175Y-136093686D01*
X194217761Y-136045025D01*
X194217759Y-136045024D01*
X194217756Y-136045023D01*
X194069922Y-135966005D01*
X193940341Y-135859659D01*
X193833995Y-135730078D01*
X193754977Y-135582244D01*
X193749067Y-135562761D01*
X193706314Y-135421825D01*
X193706314Y-135421824D01*
X193706313Y-135421821D01*
X193689883Y-135255000D01*
X193706313Y-135088179D01*
X193754977Y-134927756D01*
X193833995Y-134779922D01*
X193940341Y-134650341D01*
X194069922Y-134543995D01*
X194217756Y-134464977D01*
X194217759Y-134464976D01*
X194217761Y-134464975D01*
X194378175Y-134416314D01*
X194378176Y-134416314D01*
X194378179Y-134416313D01*
X194503196Y-134404000D01*
X195386804Y-134404000D01*
X195511821Y-134416313D01*
X195511821Y-134416313D01*
G37*
G36*
X210751821Y-134416313D02*
X210751824Y-134416314D01*
X210751825Y-134416314D01*
X210912239Y-134464975D01*
X210912241Y-134464976D01*
X210912244Y-134464977D01*
X211060078Y-134543995D01*
X211189659Y-134650341D01*
X211296005Y-134779922D01*
X211375023Y-134927756D01*
X211423687Y-135088179D01*
X211440117Y-135255000D01*
X211423687Y-135421821D01*
X211423686Y-135421824D01*
X211423686Y-135421825D01*
X211380934Y-135562761D01*
X211375023Y-135582244D01*
X211296005Y-135730078D01*
X211189659Y-135859659D01*
X211060078Y-135966005D01*
X210912244Y-136045023D01*
X210912241Y-136045024D01*
X210912239Y-136045025D01*
X210751825Y-136093686D01*
X210751824Y-136093686D01*
X210751821Y-136093687D01*
X210626804Y-136106000D01*
X209743196Y-136106000D01*
X209618179Y-136093687D01*
X209618176Y-136093686D01*
X209618175Y-136093686D01*
X209457761Y-136045025D01*
X209457759Y-136045024D01*
X209457756Y-136045023D01*
X209309922Y-135966005D01*
X209180341Y-135859659D01*
X209073995Y-135730078D01*
X208994977Y-135582244D01*
X208989067Y-135562761D01*
X208946314Y-135421825D01*
X208946314Y-135421824D01*
X208946313Y-135421821D01*
X208929883Y-135255000D01*
X208946313Y-135088179D01*
X208994977Y-134927756D01*
X209073995Y-134779922D01*
X209180341Y-134650341D01*
X209309922Y-134543995D01*
X209457756Y-134464977D01*
X209457759Y-134464976D01*
X209457761Y-134464975D01*
X209618175Y-134416314D01*
X209618176Y-134416314D01*
X209618179Y-134416313D01*
X209743196Y-134404000D01*
X210626804Y-134404000D01*
X210751821Y-134416313D01*
X210751821Y-134416313D01*
G37*
G36*
X236965442Y-132455518D02*
X237031627Y-132462037D01*
X237144853Y-132496384D01*
X237201467Y-132513557D01*
X237288311Y-132559977D01*
X237357991Y-132597222D01*
X237393729Y-132626552D01*
X237495186Y-132709814D01*
X237578448Y-132811271D01*
X237607778Y-132847009D01*
X237607779Y-132847011D01*
X237691443Y-133003533D01*
X237703184Y-133042239D01*
X237742963Y-133173373D01*
X237760359Y-133350000D01*
X237742963Y-133526627D01*
X237734754Y-133553687D01*
X237691443Y-133696467D01*
X237622698Y-133825078D01*
X237607778Y-133852991D01*
X237578448Y-133888729D01*
X237495186Y-133990186D01*
X237393729Y-134073448D01*
X237357991Y-134102778D01*
X237357989Y-134102779D01*
X237201467Y-134186443D01*
X237194069Y-134188687D01*
X237031627Y-134237963D01*
X236974240Y-134243615D01*
X236899260Y-134251000D01*
X236810740Y-134251000D01*
X236735760Y-134243615D01*
X236678373Y-134237963D01*
X236515931Y-134188687D01*
X236508533Y-134186443D01*
X236352011Y-134102779D01*
X236352009Y-134102778D01*
X236316271Y-134073448D01*
X236214814Y-133990186D01*
X236131552Y-133888729D01*
X236102222Y-133852991D01*
X236087302Y-133825078D01*
X236018557Y-133696467D01*
X235975246Y-133553687D01*
X235967037Y-133526627D01*
X235949641Y-133350000D01*
X235967037Y-133173373D01*
X236006816Y-133042239D01*
X236018557Y-133003533D01*
X236102221Y-132847011D01*
X236102222Y-132847009D01*
X236131552Y-132811271D01*
X236214814Y-132709814D01*
X236316271Y-132626552D01*
X236352009Y-132597222D01*
X236421689Y-132559977D01*
X236508533Y-132513557D01*
X236565147Y-132496384D01*
X236678373Y-132462037D01*
X236744558Y-132455518D01*
X236810740Y-132449000D01*
X236899260Y-132449000D01*
X236965442Y-132455518D01*
X236965442Y-132455518D01*
G37*
G36*
X231071821Y-132511313D02*
X231071824Y-132511314D01*
X231071825Y-132511314D01*
X231232239Y-132559975D01*
X231232241Y-132559976D01*
X231232244Y-132559977D01*
X231380078Y-132638995D01*
X231509659Y-132745341D01*
X231616005Y-132874922D01*
X231695023Y-133022756D01*
X231695024Y-133022759D01*
X231695025Y-133022761D01*
X231740713Y-133173375D01*
X231743687Y-133183179D01*
X231760117Y-133350000D01*
X231743687Y-133516821D01*
X231743686Y-133516824D01*
X231743686Y-133516825D01*
X231740713Y-133526627D01*
X231695023Y-133677244D01*
X231616005Y-133825078D01*
X231509659Y-133954659D01*
X231380078Y-134061005D01*
X231232244Y-134140023D01*
X231232241Y-134140024D01*
X231232239Y-134140025D01*
X231071825Y-134188686D01*
X231071824Y-134188686D01*
X231071821Y-134188687D01*
X230946804Y-134201000D01*
X230063196Y-134201000D01*
X229938179Y-134188687D01*
X229938176Y-134188686D01*
X229938175Y-134188686D01*
X229777761Y-134140025D01*
X229777759Y-134140024D01*
X229777756Y-134140023D01*
X229629922Y-134061005D01*
X229500341Y-133954659D01*
X229393995Y-133825078D01*
X229314977Y-133677244D01*
X229269288Y-133526627D01*
X229266314Y-133516825D01*
X229266314Y-133516824D01*
X229266313Y-133516821D01*
X229249883Y-133350000D01*
X229266313Y-133183179D01*
X229269287Y-133173375D01*
X229314975Y-133022761D01*
X229314976Y-133022759D01*
X229314977Y-133022756D01*
X229393995Y-132874922D01*
X229500341Y-132745341D01*
X229629922Y-132638995D01*
X229777756Y-132559977D01*
X229777759Y-132559976D01*
X229777761Y-132559975D01*
X229938175Y-132511314D01*
X229938176Y-132511314D01*
X229938179Y-132511313D01*
X230063196Y-132499000D01*
X230946804Y-132499000D01*
X231071821Y-132511313D01*
X231071821Y-132511313D01*
G37*
G36*
X223451821Y-132511313D02*
X223451824Y-132511314D01*
X223451825Y-132511314D01*
X223612239Y-132559975D01*
X223612241Y-132559976D01*
X223612244Y-132559977D01*
X223760078Y-132638995D01*
X223889659Y-132745341D01*
X223996005Y-132874922D01*
X224075023Y-133022756D01*
X224075024Y-133022759D01*
X224075025Y-133022761D01*
X224120713Y-133173375D01*
X224123687Y-133183179D01*
X224140117Y-133350000D01*
X224123687Y-133516821D01*
X224123686Y-133516824D01*
X224123686Y-133516825D01*
X224120713Y-133526627D01*
X224075023Y-133677244D01*
X223996005Y-133825078D01*
X223889659Y-133954659D01*
X223760078Y-134061005D01*
X223612244Y-134140023D01*
X223612241Y-134140024D01*
X223612239Y-134140025D01*
X223451825Y-134188686D01*
X223451824Y-134188686D01*
X223451821Y-134188687D01*
X223326804Y-134201000D01*
X222443196Y-134201000D01*
X222318179Y-134188687D01*
X222318176Y-134188686D01*
X222318175Y-134188686D01*
X222157761Y-134140025D01*
X222157759Y-134140024D01*
X222157756Y-134140023D01*
X222009922Y-134061005D01*
X221880341Y-133954659D01*
X221773995Y-133825078D01*
X221694977Y-133677244D01*
X221649288Y-133526627D01*
X221646314Y-133516825D01*
X221646314Y-133516824D01*
X221646313Y-133516821D01*
X221629883Y-133350000D01*
X221646313Y-133183179D01*
X221649287Y-133173375D01*
X221694975Y-133022761D01*
X221694976Y-133022759D01*
X221694977Y-133022756D01*
X221773995Y-132874922D01*
X221880341Y-132745341D01*
X222009922Y-132638995D01*
X222157756Y-132559977D01*
X222157759Y-132559976D01*
X222157761Y-132559975D01*
X222318175Y-132511314D01*
X222318176Y-132511314D01*
X222318179Y-132511313D01*
X222443196Y-132499000D01*
X223326804Y-132499000D01*
X223451821Y-132511313D01*
X223451821Y-132511313D01*
G37*
G36*
X210751821Y-131876313D02*
X210751824Y-131876314D01*
X210751825Y-131876314D01*
X210912239Y-131924975D01*
X210912241Y-131924976D01*
X210912244Y-131924977D01*
X211060078Y-132003995D01*
X211189659Y-132110341D01*
X211296005Y-132239922D01*
X211375023Y-132387756D01*
X211375024Y-132387759D01*
X211375025Y-132387761D01*
X211423686Y-132548175D01*
X211423687Y-132548179D01*
X211440117Y-132715000D01*
X211423687Y-132881821D01*
X211423686Y-132881824D01*
X211423686Y-132881825D01*
X211380934Y-133022761D01*
X211375023Y-133042244D01*
X211296005Y-133190078D01*
X211189659Y-133319659D01*
X211060078Y-133426005D01*
X210912244Y-133505023D01*
X210912241Y-133505024D01*
X210912239Y-133505025D01*
X210751825Y-133553686D01*
X210751824Y-133553686D01*
X210751821Y-133553687D01*
X210626804Y-133566000D01*
X209743196Y-133566000D01*
X209618179Y-133553687D01*
X209618176Y-133553686D01*
X209618175Y-133553686D01*
X209457761Y-133505025D01*
X209457759Y-133505024D01*
X209457756Y-133505023D01*
X209309922Y-133426005D01*
X209180341Y-133319659D01*
X209073995Y-133190078D01*
X208994977Y-133042244D01*
X208989067Y-133022761D01*
X208946314Y-132881825D01*
X208946314Y-132881824D01*
X208946313Y-132881821D01*
X208929883Y-132715000D01*
X208946313Y-132548179D01*
X208946314Y-132548175D01*
X208994975Y-132387761D01*
X208994976Y-132387759D01*
X208994977Y-132387756D01*
X209073995Y-132239922D01*
X209180341Y-132110341D01*
X209309922Y-132003995D01*
X209457756Y-131924977D01*
X209457759Y-131924976D01*
X209457761Y-131924975D01*
X209618175Y-131876314D01*
X209618176Y-131876314D01*
X209618179Y-131876313D01*
X209743196Y-131864000D01*
X210626804Y-131864000D01*
X210751821Y-131876313D01*
X210751821Y-131876313D01*
G37*
G36*
X195511821Y-131876313D02*
X195511824Y-131876314D01*
X195511825Y-131876314D01*
X195672239Y-131924975D01*
X195672241Y-131924976D01*
X195672244Y-131924977D01*
X195820078Y-132003995D01*
X195949659Y-132110341D01*
X196056005Y-132239922D01*
X196135023Y-132387756D01*
X196135024Y-132387759D01*
X196135025Y-132387761D01*
X196183686Y-132548175D01*
X196183687Y-132548179D01*
X196200117Y-132715000D01*
X196183687Y-132881821D01*
X196183686Y-132881824D01*
X196183686Y-132881825D01*
X196140934Y-133022761D01*
X196135023Y-133042244D01*
X196056005Y-133190078D01*
X195949659Y-133319659D01*
X195820078Y-133426005D01*
X195672244Y-133505023D01*
X195672241Y-133505024D01*
X195672239Y-133505025D01*
X195511825Y-133553686D01*
X195511824Y-133553686D01*
X195511821Y-133553687D01*
X195386804Y-133566000D01*
X194503196Y-133566000D01*
X194378179Y-133553687D01*
X194378176Y-133553686D01*
X194378175Y-133553686D01*
X194217761Y-133505025D01*
X194217759Y-133505024D01*
X194217756Y-133505023D01*
X194069922Y-133426005D01*
X193940341Y-133319659D01*
X193833995Y-133190078D01*
X193754977Y-133042244D01*
X193749067Y-133022761D01*
X193706314Y-132881825D01*
X193706314Y-132881824D01*
X193706313Y-132881821D01*
X193689883Y-132715000D01*
X193706313Y-132548179D01*
X193706314Y-132548175D01*
X193754975Y-132387761D01*
X193754976Y-132387759D01*
X193754977Y-132387756D01*
X193833995Y-132239922D01*
X193940341Y-132110341D01*
X194069922Y-132003995D01*
X194217756Y-131924977D01*
X194217759Y-131924976D01*
X194217761Y-131924975D01*
X194378175Y-131876314D01*
X194378176Y-131876314D01*
X194378179Y-131876313D01*
X194503196Y-131864000D01*
X195386804Y-131864000D01*
X195511821Y-131876313D01*
X195511821Y-131876313D01*
G37*
G36*
X242956565Y-129799389D02*
X243147834Y-129878615D01*
X243319976Y-129993637D01*
X243466363Y-130140024D01*
X243581385Y-130312166D01*
X243660611Y-130503435D01*
X243701000Y-130706484D01*
X243701000Y-130913516D01*
X243660611Y-131116565D01*
X243581385Y-131307834D01*
X243466363Y-131479976D01*
X243319976Y-131626363D01*
X243147834Y-131741385D01*
X242956565Y-131820611D01*
X242753516Y-131861000D01*
X242546484Y-131861000D01*
X242343435Y-131820611D01*
X242152166Y-131741385D01*
X241980024Y-131626363D01*
X241833637Y-131479976D01*
X241718615Y-131307834D01*
X241639389Y-131116565D01*
X241599000Y-130913516D01*
X241599000Y-130706484D01*
X241639389Y-130503435D01*
X241718615Y-130312166D01*
X241833637Y-130140024D01*
X241980024Y-129993637D01*
X242152166Y-129878615D01*
X242343435Y-129799389D01*
X242546484Y-129759000D01*
X242753516Y-129759000D01*
X242956565Y-129799389D01*
X242956565Y-129799389D01*
G37*
G36*
X247956565Y-129799389D02*
X248147834Y-129878615D01*
X248319976Y-129993637D01*
X248466363Y-130140024D01*
X248581385Y-130312166D01*
X248660611Y-130503435D01*
X248701000Y-130706484D01*
X248701000Y-130913516D01*
X248660611Y-131116565D01*
X248581385Y-131307834D01*
X248466363Y-131479976D01*
X248319976Y-131626363D01*
X248147834Y-131741385D01*
X247956565Y-131820611D01*
X247753516Y-131861000D01*
X247546484Y-131861000D01*
X247343435Y-131820611D01*
X247152166Y-131741385D01*
X246980024Y-131626363D01*
X246833637Y-131479976D01*
X246718615Y-131307834D01*
X246639389Y-131116565D01*
X246599000Y-130913516D01*
X246599000Y-130706484D01*
X246639389Y-130503435D01*
X246718615Y-130312166D01*
X246833637Y-130140024D01*
X246980024Y-129993637D01*
X247152166Y-129878615D01*
X247343435Y-129799389D01*
X247546484Y-129759000D01*
X247753516Y-129759000D01*
X247956565Y-129799389D01*
X247956565Y-129799389D01*
G37*
G36*
X237756000Y-131711000D02*
X235954000Y-131711000D01*
X235954000Y-129909000D01*
X237756000Y-129909000D01*
X237756000Y-131711000D01*
X237756000Y-131711000D01*
G37*
G36*
X254266000Y-131711000D02*
X252464000Y-131711000D01*
X252464000Y-129909000D01*
X254266000Y-129909000D01*
X254266000Y-131711000D01*
X254266000Y-131711000D01*
G37*
G36*
X231071821Y-129971313D02*
X231071824Y-129971314D01*
X231071825Y-129971314D01*
X231232239Y-130019975D01*
X231232241Y-130019976D01*
X231232244Y-130019977D01*
X231380078Y-130098995D01*
X231509659Y-130205341D01*
X231616005Y-130334922D01*
X231695023Y-130482756D01*
X231695024Y-130482759D01*
X231695025Y-130482761D01*
X231700935Y-130502244D01*
X231743687Y-130643179D01*
X231760117Y-130810000D01*
X231743687Y-130976821D01*
X231695023Y-131137244D01*
X231616005Y-131285078D01*
X231509659Y-131414659D01*
X231380078Y-131521005D01*
X231232244Y-131600023D01*
X231232241Y-131600024D01*
X231232239Y-131600025D01*
X231071825Y-131648686D01*
X231071824Y-131648686D01*
X231071821Y-131648687D01*
X230946804Y-131661000D01*
X230063196Y-131661000D01*
X229938179Y-131648687D01*
X229938176Y-131648686D01*
X229938175Y-131648686D01*
X229777761Y-131600025D01*
X229777759Y-131600024D01*
X229777756Y-131600023D01*
X229629922Y-131521005D01*
X229500341Y-131414659D01*
X229393995Y-131285078D01*
X229314977Y-131137244D01*
X229266313Y-130976821D01*
X229249883Y-130810000D01*
X229266313Y-130643179D01*
X229309065Y-130502244D01*
X229314975Y-130482761D01*
X229314976Y-130482759D01*
X229314977Y-130482756D01*
X229393995Y-130334922D01*
X229500341Y-130205341D01*
X229629922Y-130098995D01*
X229777756Y-130019977D01*
X229777759Y-130019976D01*
X229777761Y-130019975D01*
X229938175Y-129971314D01*
X229938176Y-129971314D01*
X229938179Y-129971313D01*
X230063196Y-129959000D01*
X230946804Y-129959000D01*
X231071821Y-129971313D01*
X231071821Y-129971313D01*
G37*
G36*
X224136000Y-131661000D02*
X221634000Y-131661000D01*
X221634000Y-129959000D01*
X224136000Y-129959000D01*
X224136000Y-131661000D01*
X224136000Y-131661000D01*
G37*
G36*
X180121000Y-131226000D02*
X178019000Y-131226000D01*
X178019000Y-129124000D01*
X180121000Y-129124000D01*
X180121000Y-131226000D01*
X180121000Y-131226000D01*
G37*
G36*
X210751821Y-129336313D02*
X210751824Y-129336314D01*
X210751825Y-129336314D01*
X210912239Y-129384975D01*
X210912241Y-129384976D01*
X210912244Y-129384977D01*
X211060078Y-129463995D01*
X211189659Y-129570341D01*
X211296005Y-129699922D01*
X211375023Y-129847756D01*
X211375024Y-129847759D01*
X211375025Y-129847761D01*
X211408769Y-129959000D01*
X211423687Y-130008179D01*
X211440117Y-130175000D01*
X211423687Y-130341821D01*
X211423686Y-130341824D01*
X211423686Y-130341825D01*
X211380934Y-130482761D01*
X211375023Y-130502244D01*
X211296005Y-130650078D01*
X211189659Y-130779659D01*
X211060078Y-130886005D01*
X210912244Y-130965023D01*
X210912241Y-130965024D01*
X210912239Y-130965025D01*
X210751825Y-131013686D01*
X210751824Y-131013686D01*
X210751821Y-131013687D01*
X210626804Y-131026000D01*
X209743196Y-131026000D01*
X209618179Y-131013687D01*
X209618176Y-131013686D01*
X209618175Y-131013686D01*
X209457761Y-130965025D01*
X209457759Y-130965024D01*
X209457756Y-130965023D01*
X209309922Y-130886005D01*
X209180341Y-130779659D01*
X209073995Y-130650078D01*
X208994977Y-130502244D01*
X208989067Y-130482761D01*
X208946314Y-130341825D01*
X208946314Y-130341824D01*
X208946313Y-130341821D01*
X208929883Y-130175000D01*
X208946313Y-130008179D01*
X208961231Y-129959000D01*
X208994975Y-129847761D01*
X208994976Y-129847759D01*
X208994977Y-129847756D01*
X209073995Y-129699922D01*
X209180341Y-129570341D01*
X209309922Y-129463995D01*
X209457756Y-129384977D01*
X209457759Y-129384976D01*
X209457761Y-129384975D01*
X209618175Y-129336314D01*
X209618176Y-129336314D01*
X209618179Y-129336313D01*
X209743196Y-129324000D01*
X210626804Y-129324000D01*
X210751821Y-129336313D01*
X210751821Y-129336313D01*
G37*
G36*
X195511821Y-129336313D02*
X195511824Y-129336314D01*
X195511825Y-129336314D01*
X195672239Y-129384975D01*
X195672241Y-129384976D01*
X195672244Y-129384977D01*
X195820078Y-129463995D01*
X195949659Y-129570341D01*
X196056005Y-129699922D01*
X196135023Y-129847756D01*
X196135024Y-129847759D01*
X196135025Y-129847761D01*
X196168769Y-129959000D01*
X196183687Y-130008179D01*
X196200117Y-130175000D01*
X196183687Y-130341821D01*
X196183686Y-130341824D01*
X196183686Y-130341825D01*
X196140934Y-130482761D01*
X196135023Y-130502244D01*
X196056005Y-130650078D01*
X195949659Y-130779659D01*
X195820078Y-130886005D01*
X195672244Y-130965023D01*
X195672241Y-130965024D01*
X195672239Y-130965025D01*
X195511825Y-131013686D01*
X195511824Y-131013686D01*
X195511821Y-131013687D01*
X195386804Y-131026000D01*
X194503196Y-131026000D01*
X194378179Y-131013687D01*
X194378176Y-131013686D01*
X194378175Y-131013686D01*
X194217761Y-130965025D01*
X194217759Y-130965024D01*
X194217756Y-130965023D01*
X194069922Y-130886005D01*
X193940341Y-130779659D01*
X193833995Y-130650078D01*
X193754977Y-130502244D01*
X193749067Y-130482761D01*
X193706314Y-130341825D01*
X193706314Y-130341824D01*
X193706313Y-130341821D01*
X193689883Y-130175000D01*
X193706313Y-130008179D01*
X193721231Y-129959000D01*
X193754975Y-129847761D01*
X193754976Y-129847759D01*
X193754977Y-129847756D01*
X193833995Y-129699922D01*
X193940341Y-129570341D01*
X194069922Y-129463995D01*
X194217756Y-129384977D01*
X194217759Y-129384976D01*
X194217761Y-129384975D01*
X194378175Y-129336314D01*
X194378176Y-129336314D01*
X194378179Y-129336313D01*
X194503196Y-129324000D01*
X195386804Y-129324000D01*
X195511821Y-129336313D01*
X195511821Y-129336313D01*
G37*
G36*
X253475442Y-127375518D02*
X253541627Y-127382037D01*
X253654853Y-127416384D01*
X253711467Y-127433557D01*
X253776239Y-127468179D01*
X253867991Y-127517222D01*
X253903729Y-127546552D01*
X254005186Y-127629814D01*
X254088448Y-127731271D01*
X254117778Y-127767009D01*
X254117779Y-127767011D01*
X254201443Y-127923533D01*
X254201443Y-127923534D01*
X254252963Y-128093373D01*
X254270359Y-128270000D01*
X254252963Y-128446627D01*
X254244754Y-128473687D01*
X254201443Y-128616467D01*
X254127348Y-128755087D01*
X254117778Y-128772991D01*
X254088448Y-128808729D01*
X254005186Y-128910186D01*
X253903729Y-128993448D01*
X253867991Y-129022778D01*
X253867989Y-129022779D01*
X253711467Y-129106443D01*
X253654853Y-129123616D01*
X253541627Y-129157963D01*
X253475442Y-129164482D01*
X253409260Y-129171000D01*
X253320740Y-129171000D01*
X253254558Y-129164482D01*
X253188373Y-129157963D01*
X253075147Y-129123616D01*
X253018533Y-129106443D01*
X252862011Y-129022779D01*
X252862009Y-129022778D01*
X252826271Y-128993448D01*
X252724814Y-128910186D01*
X252641552Y-128808729D01*
X252612222Y-128772991D01*
X252602652Y-128755087D01*
X252528557Y-128616467D01*
X252485246Y-128473687D01*
X252477037Y-128446627D01*
X252459641Y-128270000D01*
X252477037Y-128093373D01*
X252528557Y-127923534D01*
X252528557Y-127923533D01*
X252612221Y-127767011D01*
X252612222Y-127767009D01*
X252641552Y-127731271D01*
X252724814Y-127629814D01*
X252826271Y-127546552D01*
X252862009Y-127517222D01*
X252953761Y-127468179D01*
X253018533Y-127433557D01*
X253075147Y-127416384D01*
X253188373Y-127382037D01*
X253254558Y-127375518D01*
X253320740Y-127369000D01*
X253409260Y-127369000D01*
X253475442Y-127375518D01*
X253475442Y-127375518D01*
G37*
G36*
X210751821Y-126796313D02*
X210751824Y-126796314D01*
X210751825Y-126796314D01*
X210912239Y-126844975D01*
X210912241Y-126844976D01*
X210912244Y-126844977D01*
X211060078Y-126923995D01*
X211189659Y-127030341D01*
X211296005Y-127159922D01*
X211375023Y-127307756D01*
X211375024Y-127307759D01*
X211375025Y-127307761D01*
X211423686Y-127468175D01*
X211423687Y-127468179D01*
X211440117Y-127635000D01*
X211423687Y-127801821D01*
X211375023Y-127962244D01*
X211296005Y-128110078D01*
X211189659Y-128239659D01*
X211060078Y-128346005D01*
X210912244Y-128425023D01*
X210912241Y-128425024D01*
X210912239Y-128425025D01*
X210751825Y-128473686D01*
X210751824Y-128473686D01*
X210751821Y-128473687D01*
X210626804Y-128486000D01*
X209743196Y-128486000D01*
X209618179Y-128473687D01*
X209618176Y-128473686D01*
X209618175Y-128473686D01*
X209457761Y-128425025D01*
X209457759Y-128425024D01*
X209457756Y-128425023D01*
X209309922Y-128346005D01*
X209180341Y-128239659D01*
X209073995Y-128110078D01*
X208994977Y-127962244D01*
X208946313Y-127801821D01*
X208929883Y-127635000D01*
X208946313Y-127468179D01*
X208946314Y-127468175D01*
X208994975Y-127307761D01*
X208994976Y-127307759D01*
X208994977Y-127307756D01*
X209073995Y-127159922D01*
X209180341Y-127030341D01*
X209309922Y-126923995D01*
X209457756Y-126844977D01*
X209457759Y-126844976D01*
X209457761Y-126844975D01*
X209618175Y-126796314D01*
X209618176Y-126796314D01*
X209618179Y-126796313D01*
X209743196Y-126784000D01*
X210626804Y-126784000D01*
X210751821Y-126796313D01*
X210751821Y-126796313D01*
G37*
G36*
X195511821Y-126796313D02*
X195511824Y-126796314D01*
X195511825Y-126796314D01*
X195672239Y-126844975D01*
X195672241Y-126844976D01*
X195672244Y-126844977D01*
X195820078Y-126923995D01*
X195949659Y-127030341D01*
X196056005Y-127159922D01*
X196135023Y-127307756D01*
X196135024Y-127307759D01*
X196135025Y-127307761D01*
X196183686Y-127468175D01*
X196183687Y-127468179D01*
X196200117Y-127635000D01*
X196183687Y-127801821D01*
X196135023Y-127962244D01*
X196056005Y-128110078D01*
X195949659Y-128239659D01*
X195820078Y-128346005D01*
X195672244Y-128425023D01*
X195672241Y-128425024D01*
X195672239Y-128425025D01*
X195511825Y-128473686D01*
X195511824Y-128473686D01*
X195511821Y-128473687D01*
X195386804Y-128486000D01*
X194503196Y-128486000D01*
X194378179Y-128473687D01*
X194378176Y-128473686D01*
X194378175Y-128473686D01*
X194217761Y-128425025D01*
X194217759Y-128425024D01*
X194217756Y-128425023D01*
X194069922Y-128346005D01*
X193940341Y-128239659D01*
X193833995Y-128110078D01*
X193754977Y-127962244D01*
X193706313Y-127801821D01*
X193689883Y-127635000D01*
X193706313Y-127468179D01*
X193706314Y-127468175D01*
X193754975Y-127307761D01*
X193754976Y-127307759D01*
X193754977Y-127307756D01*
X193833995Y-127159922D01*
X193940341Y-127030341D01*
X194069922Y-126923995D01*
X194217756Y-126844977D01*
X194217759Y-126844976D01*
X194217761Y-126844975D01*
X194378175Y-126796314D01*
X194378176Y-126796314D01*
X194378179Y-126796313D01*
X194503196Y-126784000D01*
X195386804Y-126784000D01*
X195511821Y-126796313D01*
X195511821Y-126796313D01*
G37*
G36*
X188208228Y-125466703D02*
X188363100Y-125530853D01*
X188502481Y-125623985D01*
X188621015Y-125742519D01*
X188714147Y-125881900D01*
X188778297Y-126036772D01*
X188811000Y-126201184D01*
X188811000Y-126368816D01*
X188778297Y-126533228D01*
X188714147Y-126688100D01*
X188621015Y-126827481D01*
X188502481Y-126946015D01*
X188363100Y-127039147D01*
X188208228Y-127103297D01*
X188043816Y-127136000D01*
X187876184Y-127136000D01*
X187711772Y-127103297D01*
X187556900Y-127039147D01*
X187417519Y-126946015D01*
X187298985Y-126827481D01*
X187205853Y-126688100D01*
X187141703Y-126533228D01*
X187109000Y-126368816D01*
X187109000Y-126201184D01*
X187141703Y-126036772D01*
X187205853Y-125881900D01*
X187298985Y-125742519D01*
X187417519Y-125623985D01*
X187556900Y-125530853D01*
X187711772Y-125466703D01*
X187876184Y-125434000D01*
X188043816Y-125434000D01*
X188208228Y-125466703D01*
X188208228Y-125466703D01*
G37*
G36*
X223451821Y-124891313D02*
X223451824Y-124891314D01*
X223451825Y-124891314D01*
X223612239Y-124939975D01*
X223612241Y-124939976D01*
X223612244Y-124939977D01*
X223760078Y-125018995D01*
X223889659Y-125125341D01*
X223996005Y-125254922D01*
X224075023Y-125402756D01*
X224075024Y-125402759D01*
X224075025Y-125402761D01*
X224123686Y-125563175D01*
X224123687Y-125563179D01*
X224140117Y-125730000D01*
X224123687Y-125896821D01*
X224123686Y-125896824D01*
X224123686Y-125896825D01*
X224081234Y-126036772D01*
X224075023Y-126057244D01*
X223996005Y-126205078D01*
X223889659Y-126334659D01*
X223760078Y-126441005D01*
X223612244Y-126520023D01*
X223612241Y-126520024D01*
X223612239Y-126520025D01*
X223451825Y-126568686D01*
X223451824Y-126568686D01*
X223451821Y-126568687D01*
X223326804Y-126581000D01*
X222443196Y-126581000D01*
X222318179Y-126568687D01*
X222318176Y-126568686D01*
X222318175Y-126568686D01*
X222157761Y-126520025D01*
X222157759Y-126520024D01*
X222157756Y-126520023D01*
X222009922Y-126441005D01*
X221880341Y-126334659D01*
X221773995Y-126205078D01*
X221694977Y-126057244D01*
X221688767Y-126036772D01*
X221646314Y-125896825D01*
X221646314Y-125896824D01*
X221646313Y-125896821D01*
X221629883Y-125730000D01*
X221646313Y-125563179D01*
X221646314Y-125563175D01*
X221694975Y-125402761D01*
X221694976Y-125402759D01*
X221694977Y-125402756D01*
X221773995Y-125254922D01*
X221880341Y-125125341D01*
X222009922Y-125018995D01*
X222157756Y-124939977D01*
X222157759Y-124939976D01*
X222157761Y-124939975D01*
X222318175Y-124891314D01*
X222318176Y-124891314D01*
X222318179Y-124891313D01*
X222443196Y-124879000D01*
X223326804Y-124879000D01*
X223451821Y-124891313D01*
X223451821Y-124891313D01*
G37*
G36*
X231756000Y-126581000D02*
X229254000Y-126581000D01*
X229254000Y-124879000D01*
X231756000Y-124879000D01*
X231756000Y-126581000D01*
X231756000Y-126581000D01*
G37*
G36*
X210751821Y-124256313D02*
X210751824Y-124256314D01*
X210751825Y-124256314D01*
X210912239Y-124304975D01*
X210912241Y-124304976D01*
X210912244Y-124304977D01*
X211060078Y-124383995D01*
X211189659Y-124490341D01*
X211296005Y-124619922D01*
X211375023Y-124767756D01*
X211423687Y-124928179D01*
X211440117Y-125095000D01*
X211423687Y-125261821D01*
X211423686Y-125261824D01*
X211423686Y-125261825D01*
X211380934Y-125402761D01*
X211375023Y-125422244D01*
X211296005Y-125570078D01*
X211189659Y-125699659D01*
X211060078Y-125806005D01*
X210912244Y-125885023D01*
X210912241Y-125885024D01*
X210912239Y-125885025D01*
X210751825Y-125933686D01*
X210751824Y-125933686D01*
X210751821Y-125933687D01*
X210626804Y-125946000D01*
X209743196Y-125946000D01*
X209618179Y-125933687D01*
X209618176Y-125933686D01*
X209618175Y-125933686D01*
X209457761Y-125885025D01*
X209457759Y-125885024D01*
X209457756Y-125885023D01*
X209309922Y-125806005D01*
X209180341Y-125699659D01*
X209073995Y-125570078D01*
X208994977Y-125422244D01*
X208989067Y-125402761D01*
X208946314Y-125261825D01*
X208946314Y-125261824D01*
X208946313Y-125261821D01*
X208929883Y-125095000D01*
X208946313Y-124928179D01*
X208994977Y-124767756D01*
X209073995Y-124619922D01*
X209180341Y-124490341D01*
X209309922Y-124383995D01*
X209457756Y-124304977D01*
X209457759Y-124304976D01*
X209457761Y-124304975D01*
X209618175Y-124256314D01*
X209618176Y-124256314D01*
X209618179Y-124256313D01*
X209743196Y-124244000D01*
X210626804Y-124244000D01*
X210751821Y-124256313D01*
X210751821Y-124256313D01*
G37*
G36*
X195511821Y-124256313D02*
X195511824Y-124256314D01*
X195511825Y-124256314D01*
X195672239Y-124304975D01*
X195672241Y-124304976D01*
X195672244Y-124304977D01*
X195820078Y-124383995D01*
X195949659Y-124490341D01*
X196056005Y-124619922D01*
X196135023Y-124767756D01*
X196183687Y-124928179D01*
X196200117Y-125095000D01*
X196183687Y-125261821D01*
X196183686Y-125261824D01*
X196183686Y-125261825D01*
X196140934Y-125402761D01*
X196135023Y-125422244D01*
X196056005Y-125570078D01*
X195949659Y-125699659D01*
X195820078Y-125806005D01*
X195672244Y-125885023D01*
X195672241Y-125885024D01*
X195672239Y-125885025D01*
X195511825Y-125933686D01*
X195511824Y-125933686D01*
X195511821Y-125933687D01*
X195386804Y-125946000D01*
X194503196Y-125946000D01*
X194378179Y-125933687D01*
X194378176Y-125933686D01*
X194378175Y-125933686D01*
X194217761Y-125885025D01*
X194217759Y-125885024D01*
X194217756Y-125885023D01*
X194069922Y-125806005D01*
X193940341Y-125699659D01*
X193833995Y-125570078D01*
X193754977Y-125422244D01*
X193749067Y-125402761D01*
X193706314Y-125261825D01*
X193706314Y-125261824D01*
X193706313Y-125261821D01*
X193689883Y-125095000D01*
X193706313Y-124928179D01*
X193754977Y-124767756D01*
X193833995Y-124619922D01*
X193940341Y-124490341D01*
X194069922Y-124383995D01*
X194217756Y-124304977D01*
X194217759Y-124304976D01*
X194217761Y-124304975D01*
X194378175Y-124256314D01*
X194378176Y-124256314D01*
X194378179Y-124256313D01*
X194503196Y-124244000D01*
X195386804Y-124244000D01*
X195511821Y-124256313D01*
X195511821Y-124256313D01*
G37*
G36*
X181876000Y-124726000D02*
X180074000Y-124726000D01*
X180074000Y-122924000D01*
X181876000Y-122924000D01*
X181876000Y-124726000D01*
X181876000Y-124726000D01*
G37*
G36*
X231071821Y-122351313D02*
X231071824Y-122351314D01*
X231071825Y-122351314D01*
X231232239Y-122399975D01*
X231232241Y-122399976D01*
X231232244Y-122399977D01*
X231380078Y-122478995D01*
X231509659Y-122585341D01*
X231616005Y-122714922D01*
X231695023Y-122862756D01*
X231695024Y-122862759D01*
X231695025Y-122862761D01*
X231743686Y-123023175D01*
X231743687Y-123023179D01*
X231760117Y-123190000D01*
X231743687Y-123356821D01*
X231743686Y-123356824D01*
X231743686Y-123356825D01*
X231718993Y-123438228D01*
X231695023Y-123517244D01*
X231616005Y-123665078D01*
X231509659Y-123794659D01*
X231380078Y-123901005D01*
X231232244Y-123980023D01*
X231232241Y-123980024D01*
X231232239Y-123980025D01*
X231071825Y-124028686D01*
X231071824Y-124028686D01*
X231071821Y-124028687D01*
X230946804Y-124041000D01*
X230063196Y-124041000D01*
X229938179Y-124028687D01*
X229938176Y-124028686D01*
X229938175Y-124028686D01*
X229777761Y-123980025D01*
X229777759Y-123980024D01*
X229777756Y-123980023D01*
X229629922Y-123901005D01*
X229500341Y-123794659D01*
X229393995Y-123665078D01*
X229314977Y-123517244D01*
X229291008Y-123438228D01*
X229266314Y-123356825D01*
X229266314Y-123356824D01*
X229266313Y-123356821D01*
X229249883Y-123190000D01*
X229266313Y-123023179D01*
X229266314Y-123023175D01*
X229314975Y-122862761D01*
X229314976Y-122862759D01*
X229314977Y-122862756D01*
X229393995Y-122714922D01*
X229500341Y-122585341D01*
X229629922Y-122478995D01*
X229777756Y-122399977D01*
X229777759Y-122399976D01*
X229777761Y-122399975D01*
X229938175Y-122351314D01*
X229938176Y-122351314D01*
X229938179Y-122351313D01*
X230063196Y-122339000D01*
X230946804Y-122339000D01*
X231071821Y-122351313D01*
X231071821Y-122351313D01*
G37*
G36*
X223451821Y-122351313D02*
X223451824Y-122351314D01*
X223451825Y-122351314D01*
X223612239Y-122399975D01*
X223612241Y-122399976D01*
X223612244Y-122399977D01*
X223760078Y-122478995D01*
X223889659Y-122585341D01*
X223996005Y-122714922D01*
X224075023Y-122862756D01*
X224075024Y-122862759D01*
X224075025Y-122862761D01*
X224123686Y-123023175D01*
X224123687Y-123023179D01*
X224140117Y-123190000D01*
X224123687Y-123356821D01*
X224123686Y-123356824D01*
X224123686Y-123356825D01*
X224098993Y-123438228D01*
X224075023Y-123517244D01*
X223996005Y-123665078D01*
X223889659Y-123794659D01*
X223760078Y-123901005D01*
X223612244Y-123980023D01*
X223612241Y-123980024D01*
X223612239Y-123980025D01*
X223451825Y-124028686D01*
X223451824Y-124028686D01*
X223451821Y-124028687D01*
X223326804Y-124041000D01*
X222443196Y-124041000D01*
X222318179Y-124028687D01*
X222318176Y-124028686D01*
X222318175Y-124028686D01*
X222157761Y-123980025D01*
X222157759Y-123980024D01*
X222157756Y-123980023D01*
X222009922Y-123901005D01*
X221880341Y-123794659D01*
X221773995Y-123665078D01*
X221694977Y-123517244D01*
X221671008Y-123438228D01*
X221646314Y-123356825D01*
X221646314Y-123356824D01*
X221646313Y-123356821D01*
X221629883Y-123190000D01*
X221646313Y-123023179D01*
X221646314Y-123023175D01*
X221694975Y-122862761D01*
X221694976Y-122862759D01*
X221694977Y-122862756D01*
X221773995Y-122714922D01*
X221880341Y-122585341D01*
X222009922Y-122478995D01*
X222157756Y-122399977D01*
X222157759Y-122399976D01*
X222157761Y-122399975D01*
X222318175Y-122351314D01*
X222318176Y-122351314D01*
X222318179Y-122351313D01*
X222443196Y-122339000D01*
X223326804Y-122339000D01*
X223451821Y-122351313D01*
X223451821Y-122351313D01*
G37*
G36*
X242736821Y-122351313D02*
X242736824Y-122351314D01*
X242736825Y-122351314D01*
X242897239Y-122399975D01*
X242897241Y-122399976D01*
X242897244Y-122399977D01*
X243045078Y-122478995D01*
X243174659Y-122585341D01*
X243281005Y-122714922D01*
X243360023Y-122862756D01*
X243360024Y-122862759D01*
X243360025Y-122862761D01*
X243408686Y-123023175D01*
X243408687Y-123023179D01*
X243425117Y-123190000D01*
X243408687Y-123356821D01*
X243408686Y-123356824D01*
X243408686Y-123356825D01*
X243383993Y-123438228D01*
X243360023Y-123517244D01*
X243281005Y-123665078D01*
X243174659Y-123794659D01*
X243045078Y-123901005D01*
X242897244Y-123980023D01*
X242897241Y-123980024D01*
X242897239Y-123980025D01*
X242736825Y-124028686D01*
X242736824Y-124028686D01*
X242736821Y-124028687D01*
X242611804Y-124041000D01*
X242528196Y-124041000D01*
X242403179Y-124028687D01*
X242403176Y-124028686D01*
X242403175Y-124028686D01*
X242242761Y-123980025D01*
X242242759Y-123980024D01*
X242242756Y-123980023D01*
X242094922Y-123901005D01*
X241965341Y-123794659D01*
X241858995Y-123665078D01*
X241779977Y-123517244D01*
X241756008Y-123438228D01*
X241731314Y-123356825D01*
X241731314Y-123356824D01*
X241731313Y-123356821D01*
X241714883Y-123190000D01*
X241731313Y-123023179D01*
X241731314Y-123023175D01*
X241779975Y-122862761D01*
X241779976Y-122862759D01*
X241779977Y-122862756D01*
X241858995Y-122714922D01*
X241965341Y-122585341D01*
X242094922Y-122478995D01*
X242242756Y-122399977D01*
X242242759Y-122399976D01*
X242242761Y-122399975D01*
X242403175Y-122351314D01*
X242403176Y-122351314D01*
X242403179Y-122351313D01*
X242528196Y-122339000D01*
X242611804Y-122339000D01*
X242736821Y-122351313D01*
X242736821Y-122351313D01*
G37*
G36*
X238373228Y-122371703D02*
X238528100Y-122435853D01*
X238667481Y-122528985D01*
X238786015Y-122647519D01*
X238879147Y-122786900D01*
X238943297Y-122941772D01*
X238976000Y-123106184D01*
X238976000Y-123273816D01*
X238943297Y-123438228D01*
X238879147Y-123593100D01*
X238786015Y-123732481D01*
X238667481Y-123851015D01*
X238528100Y-123944147D01*
X238373228Y-124008297D01*
X238208816Y-124041000D01*
X238041184Y-124041000D01*
X237876772Y-124008297D01*
X237721900Y-123944147D01*
X237582519Y-123851015D01*
X237463985Y-123732481D01*
X237370853Y-123593100D01*
X237306703Y-123438228D01*
X237274000Y-123273816D01*
X237274000Y-123106184D01*
X237306703Y-122941772D01*
X237370853Y-122786900D01*
X237463985Y-122647519D01*
X237582519Y-122528985D01*
X237721900Y-122435853D01*
X237876772Y-122371703D01*
X238041184Y-122339000D01*
X238208816Y-122339000D01*
X238373228Y-122371703D01*
X238373228Y-122371703D01*
G37*
G36*
X210751821Y-121716313D02*
X210751824Y-121716314D01*
X210751825Y-121716314D01*
X210912239Y-121764975D01*
X210912241Y-121764976D01*
X210912244Y-121764977D01*
X211060078Y-121843995D01*
X211189659Y-121950341D01*
X211296005Y-122079922D01*
X211375023Y-122227756D01*
X211375024Y-122227759D01*
X211375025Y-122227761D01*
X211423686Y-122388175D01*
X211423687Y-122388179D01*
X211440117Y-122555000D01*
X211423687Y-122721821D01*
X211423686Y-122721824D01*
X211423686Y-122721825D01*
X211380934Y-122862761D01*
X211375023Y-122882244D01*
X211296005Y-123030078D01*
X211189659Y-123159659D01*
X211060078Y-123266005D01*
X210912244Y-123345023D01*
X210912241Y-123345024D01*
X210912239Y-123345025D01*
X210751825Y-123393686D01*
X210751824Y-123393686D01*
X210751821Y-123393687D01*
X210626804Y-123406000D01*
X209743196Y-123406000D01*
X209618179Y-123393687D01*
X209618176Y-123393686D01*
X209618175Y-123393686D01*
X209457761Y-123345025D01*
X209457759Y-123345024D01*
X209457756Y-123345023D01*
X209309922Y-123266005D01*
X209180341Y-123159659D01*
X209073995Y-123030078D01*
X208994977Y-122882244D01*
X208989067Y-122862761D01*
X208946314Y-122721825D01*
X208946314Y-122721824D01*
X208946313Y-122721821D01*
X208929883Y-122555000D01*
X208946313Y-122388179D01*
X208946314Y-122388175D01*
X208994975Y-122227761D01*
X208994976Y-122227759D01*
X208994977Y-122227756D01*
X209073995Y-122079922D01*
X209180341Y-121950341D01*
X209309922Y-121843995D01*
X209457756Y-121764977D01*
X209457759Y-121764976D01*
X209457761Y-121764975D01*
X209618175Y-121716314D01*
X209618176Y-121716314D01*
X209618179Y-121716313D01*
X209743196Y-121704000D01*
X210626804Y-121704000D01*
X210751821Y-121716313D01*
X210751821Y-121716313D01*
G37*
G36*
X195511821Y-121716313D02*
X195511824Y-121716314D01*
X195511825Y-121716314D01*
X195672239Y-121764975D01*
X195672241Y-121764976D01*
X195672244Y-121764977D01*
X195820078Y-121843995D01*
X195949659Y-121950341D01*
X196056005Y-122079922D01*
X196135023Y-122227756D01*
X196135024Y-122227759D01*
X196135025Y-122227761D01*
X196183686Y-122388175D01*
X196183687Y-122388179D01*
X196200117Y-122555000D01*
X196183687Y-122721821D01*
X196183686Y-122721824D01*
X196183686Y-122721825D01*
X196140934Y-122862761D01*
X196135023Y-122882244D01*
X196056005Y-123030078D01*
X195949659Y-123159659D01*
X195820078Y-123266005D01*
X195672244Y-123345023D01*
X195672241Y-123345024D01*
X195672239Y-123345025D01*
X195511825Y-123393686D01*
X195511824Y-123393686D01*
X195511821Y-123393687D01*
X195386804Y-123406000D01*
X194503196Y-123406000D01*
X194378179Y-123393687D01*
X194378176Y-123393686D01*
X194378175Y-123393686D01*
X194217761Y-123345025D01*
X194217759Y-123345024D01*
X194217756Y-123345023D01*
X194069922Y-123266005D01*
X193940341Y-123159659D01*
X193833995Y-123030078D01*
X193754977Y-122882244D01*
X193749067Y-122862761D01*
X193706314Y-122721825D01*
X193706314Y-122721824D01*
X193706313Y-122721821D01*
X193689883Y-122555000D01*
X193706313Y-122388179D01*
X193706314Y-122388175D01*
X193754975Y-122227761D01*
X193754976Y-122227759D01*
X193754977Y-122227756D01*
X193833995Y-122079922D01*
X193940341Y-121950341D01*
X194069922Y-121843995D01*
X194217756Y-121764977D01*
X194217759Y-121764976D01*
X194217761Y-121764975D01*
X194378175Y-121716314D01*
X194378176Y-121716314D01*
X194378179Y-121716313D01*
X194503196Y-121704000D01*
X195386804Y-121704000D01*
X195511821Y-121716313D01*
X195511821Y-121716313D01*
G37*
G36*
X181085443Y-120390519D02*
X181151627Y-120397037D01*
X181264853Y-120431384D01*
X181321467Y-120448557D01*
X181386239Y-120483179D01*
X181477991Y-120532222D01*
X181513729Y-120561552D01*
X181615186Y-120644814D01*
X181695369Y-120742519D01*
X181727778Y-120782009D01*
X181727779Y-120782011D01*
X181811443Y-120938533D01*
X181811443Y-120938534D01*
X181862963Y-121108373D01*
X181880359Y-121285000D01*
X181862963Y-121461627D01*
X181854754Y-121488687D01*
X181811443Y-121631467D01*
X181740080Y-121764975D01*
X181727778Y-121787991D01*
X181698448Y-121823729D01*
X181615186Y-121925186D01*
X181513729Y-122008448D01*
X181477991Y-122037778D01*
X181477989Y-122037779D01*
X181321467Y-122121443D01*
X181273478Y-122136000D01*
X181151627Y-122172963D01*
X181085442Y-122179482D01*
X181019260Y-122186000D01*
X180930740Y-122186000D01*
X180864558Y-122179482D01*
X180798373Y-122172963D01*
X180676522Y-122136000D01*
X180628533Y-122121443D01*
X180472011Y-122037779D01*
X180472009Y-122037778D01*
X180436271Y-122008448D01*
X180334814Y-121925186D01*
X180251552Y-121823729D01*
X180222222Y-121787991D01*
X180209920Y-121764975D01*
X180138557Y-121631467D01*
X180095246Y-121488687D01*
X180087037Y-121461627D01*
X180069641Y-121285000D01*
X180087037Y-121108373D01*
X180138557Y-120938534D01*
X180138557Y-120938533D01*
X180222221Y-120782011D01*
X180222222Y-120782009D01*
X180254631Y-120742519D01*
X180334814Y-120644814D01*
X180436271Y-120561552D01*
X180472009Y-120532222D01*
X180563761Y-120483179D01*
X180628533Y-120448557D01*
X180685147Y-120431384D01*
X180798373Y-120397037D01*
X180864557Y-120390519D01*
X180930740Y-120384000D01*
X181019260Y-120384000D01*
X181085443Y-120390519D01*
X181085443Y-120390519D01*
G37*
G36*
X188208228Y-120466703D02*
X188363100Y-120530853D01*
X188502481Y-120623985D01*
X188621015Y-120742519D01*
X188714147Y-120881900D01*
X188778297Y-121036772D01*
X188811000Y-121201184D01*
X188811000Y-121368816D01*
X188778297Y-121533228D01*
X188714147Y-121688100D01*
X188621015Y-121827481D01*
X188502481Y-121946015D01*
X188363100Y-122039147D01*
X188208228Y-122103297D01*
X188043816Y-122136000D01*
X187876184Y-122136000D01*
X187711772Y-122103297D01*
X187556900Y-122039147D01*
X187417519Y-121946015D01*
X187298985Y-121827481D01*
X187205853Y-121688100D01*
X187141703Y-121533228D01*
X187109000Y-121368816D01*
X187109000Y-121201184D01*
X187141703Y-121036772D01*
X187205853Y-120881900D01*
X187298985Y-120742519D01*
X187417519Y-120623985D01*
X187556900Y-120530853D01*
X187711772Y-120466703D01*
X187876184Y-120434000D01*
X188043816Y-120434000D01*
X188208228Y-120466703D01*
X188208228Y-120466703D01*
G37*
G36*
X231071821Y-119811313D02*
X231071824Y-119811314D01*
X231071825Y-119811314D01*
X231232239Y-119859975D01*
X231232241Y-119859976D01*
X231232244Y-119859977D01*
X231380078Y-119938995D01*
X231509659Y-120045341D01*
X231616005Y-120174922D01*
X231695023Y-120322756D01*
X231695024Y-120322759D01*
X231695025Y-120322761D01*
X231743686Y-120483175D01*
X231743687Y-120483179D01*
X231760117Y-120650000D01*
X231743687Y-120816821D01*
X231743686Y-120816824D01*
X231743686Y-120816825D01*
X231723946Y-120881900D01*
X231695023Y-120977244D01*
X231616005Y-121125078D01*
X231509659Y-121254659D01*
X231380078Y-121361005D01*
X231232244Y-121440023D01*
X231232241Y-121440024D01*
X231232239Y-121440025D01*
X231071825Y-121488686D01*
X231071824Y-121488686D01*
X231071821Y-121488687D01*
X230946804Y-121501000D01*
X230063196Y-121501000D01*
X229938179Y-121488687D01*
X229938176Y-121488686D01*
X229938175Y-121488686D01*
X229777761Y-121440025D01*
X229777759Y-121440024D01*
X229777756Y-121440023D01*
X229629922Y-121361005D01*
X229500341Y-121254659D01*
X229393995Y-121125078D01*
X229314977Y-120977244D01*
X229286055Y-120881900D01*
X229266314Y-120816825D01*
X229266314Y-120816824D01*
X229266313Y-120816821D01*
X229249883Y-120650000D01*
X229266313Y-120483179D01*
X229266314Y-120483175D01*
X229314975Y-120322761D01*
X229314976Y-120322759D01*
X229314977Y-120322756D01*
X229393995Y-120174922D01*
X229500341Y-120045341D01*
X229629922Y-119938995D01*
X229777756Y-119859977D01*
X229777759Y-119859976D01*
X229777761Y-119859975D01*
X229938175Y-119811314D01*
X229938176Y-119811314D01*
X229938179Y-119811313D01*
X230063196Y-119799000D01*
X230946804Y-119799000D01*
X231071821Y-119811313D01*
X231071821Y-119811313D01*
G37*
G36*
X223451821Y-119811313D02*
X223451824Y-119811314D01*
X223451825Y-119811314D01*
X223612239Y-119859975D01*
X223612241Y-119859976D01*
X223612244Y-119859977D01*
X223760078Y-119938995D01*
X223889659Y-120045341D01*
X223996005Y-120174922D01*
X224075023Y-120322756D01*
X224075024Y-120322759D01*
X224075025Y-120322761D01*
X224123686Y-120483175D01*
X224123687Y-120483179D01*
X224140117Y-120650000D01*
X224123687Y-120816821D01*
X224123686Y-120816824D01*
X224123686Y-120816825D01*
X224103946Y-120881900D01*
X224075023Y-120977244D01*
X223996005Y-121125078D01*
X223889659Y-121254659D01*
X223760078Y-121361005D01*
X223612244Y-121440023D01*
X223612241Y-121440024D01*
X223612239Y-121440025D01*
X223451825Y-121488686D01*
X223451824Y-121488686D01*
X223451821Y-121488687D01*
X223326804Y-121501000D01*
X222443196Y-121501000D01*
X222318179Y-121488687D01*
X222318176Y-121488686D01*
X222318175Y-121488686D01*
X222157761Y-121440025D01*
X222157759Y-121440024D01*
X222157756Y-121440023D01*
X222009922Y-121361005D01*
X221880341Y-121254659D01*
X221773995Y-121125078D01*
X221694977Y-120977244D01*
X221666055Y-120881900D01*
X221646314Y-120816825D01*
X221646314Y-120816824D01*
X221646313Y-120816821D01*
X221629883Y-120650000D01*
X221646313Y-120483179D01*
X221646314Y-120483175D01*
X221694975Y-120322761D01*
X221694976Y-120322759D01*
X221694977Y-120322756D01*
X221773995Y-120174922D01*
X221880341Y-120045341D01*
X222009922Y-119938995D01*
X222157756Y-119859977D01*
X222157759Y-119859976D01*
X222157761Y-119859975D01*
X222318175Y-119811314D01*
X222318176Y-119811314D01*
X222318179Y-119811313D01*
X222443196Y-119799000D01*
X223326804Y-119799000D01*
X223451821Y-119811313D01*
X223451821Y-119811313D01*
G37*
G36*
X210751821Y-119176313D02*
X210751824Y-119176314D01*
X210751825Y-119176314D01*
X210912239Y-119224975D01*
X210912241Y-119224976D01*
X210912244Y-119224977D01*
X211060078Y-119303995D01*
X211189659Y-119410341D01*
X211296005Y-119539922D01*
X211375023Y-119687756D01*
X211423687Y-119848179D01*
X211440117Y-120015000D01*
X211423687Y-120181821D01*
X211423686Y-120181824D01*
X211423686Y-120181825D01*
X211380934Y-120322761D01*
X211375023Y-120342244D01*
X211296005Y-120490078D01*
X211189659Y-120619659D01*
X211060078Y-120726005D01*
X210912244Y-120805023D01*
X210912241Y-120805024D01*
X210912239Y-120805025D01*
X210751825Y-120853686D01*
X210751824Y-120853686D01*
X210751821Y-120853687D01*
X210626804Y-120866000D01*
X209743196Y-120866000D01*
X209618179Y-120853687D01*
X209618176Y-120853686D01*
X209618175Y-120853686D01*
X209457761Y-120805025D01*
X209457759Y-120805024D01*
X209457756Y-120805023D01*
X209309922Y-120726005D01*
X209180341Y-120619659D01*
X209073995Y-120490078D01*
X208994977Y-120342244D01*
X208989067Y-120322761D01*
X208946314Y-120181825D01*
X208946314Y-120181824D01*
X208946313Y-120181821D01*
X208929883Y-120015000D01*
X208946313Y-119848179D01*
X208994977Y-119687756D01*
X209073995Y-119539922D01*
X209180341Y-119410341D01*
X209309922Y-119303995D01*
X209457756Y-119224977D01*
X209457759Y-119224976D01*
X209457761Y-119224975D01*
X209618175Y-119176314D01*
X209618176Y-119176314D01*
X209618179Y-119176313D01*
X209743196Y-119164000D01*
X210626804Y-119164000D01*
X210751821Y-119176313D01*
X210751821Y-119176313D01*
G37*
G36*
X195511821Y-119176313D02*
X195511824Y-119176314D01*
X195511825Y-119176314D01*
X195672239Y-119224975D01*
X195672241Y-119224976D01*
X195672244Y-119224977D01*
X195820078Y-119303995D01*
X195949659Y-119410341D01*
X196056005Y-119539922D01*
X196135023Y-119687756D01*
X196183687Y-119848179D01*
X196200117Y-120015000D01*
X196183687Y-120181821D01*
X196183686Y-120181824D01*
X196183686Y-120181825D01*
X196140934Y-120322761D01*
X196135023Y-120342244D01*
X196056005Y-120490078D01*
X195949659Y-120619659D01*
X195820078Y-120726005D01*
X195672244Y-120805023D01*
X195672241Y-120805024D01*
X195672239Y-120805025D01*
X195511825Y-120853686D01*
X195511824Y-120853686D01*
X195511821Y-120853687D01*
X195386804Y-120866000D01*
X194503196Y-120866000D01*
X194378179Y-120853687D01*
X194378176Y-120853686D01*
X194378175Y-120853686D01*
X194217761Y-120805025D01*
X194217759Y-120805024D01*
X194217756Y-120805023D01*
X194069922Y-120726005D01*
X193940341Y-120619659D01*
X193833995Y-120490078D01*
X193754977Y-120342244D01*
X193749067Y-120322761D01*
X193706314Y-120181825D01*
X193706314Y-120181824D01*
X193706313Y-120181821D01*
X193689883Y-120015000D01*
X193706313Y-119848179D01*
X193754977Y-119687756D01*
X193833995Y-119539922D01*
X193940341Y-119410341D01*
X194069922Y-119303995D01*
X194217756Y-119224977D01*
X194217759Y-119224976D01*
X194217761Y-119224975D01*
X194378175Y-119176314D01*
X194378176Y-119176314D01*
X194378179Y-119176313D01*
X194503196Y-119164000D01*
X195386804Y-119164000D01*
X195511821Y-119176313D01*
X195511821Y-119176313D01*
G37*
G36*
X223451821Y-117271313D02*
X223451824Y-117271314D01*
X223451825Y-117271314D01*
X223612239Y-117319975D01*
X223612241Y-117319976D01*
X223612244Y-117319977D01*
X223760078Y-117398995D01*
X223889659Y-117505341D01*
X223996005Y-117634922D01*
X224075023Y-117782756D01*
X224075024Y-117782759D01*
X224075025Y-117782761D01*
X224080935Y-117802244D01*
X224123687Y-117943179D01*
X224140117Y-118110000D01*
X224123687Y-118276821D01*
X224123686Y-118276824D01*
X224123686Y-118276825D01*
X224093602Y-118376000D01*
X224075023Y-118437244D01*
X223996005Y-118585078D01*
X223889659Y-118714659D01*
X223760078Y-118821005D01*
X223612244Y-118900023D01*
X223612241Y-118900024D01*
X223612239Y-118900025D01*
X223451825Y-118948686D01*
X223451824Y-118948686D01*
X223451821Y-118948687D01*
X223326804Y-118961000D01*
X222443196Y-118961000D01*
X222318179Y-118948687D01*
X222318176Y-118948686D01*
X222318175Y-118948686D01*
X222157761Y-118900025D01*
X222157759Y-118900024D01*
X222157756Y-118900023D01*
X222009922Y-118821005D01*
X221880341Y-118714659D01*
X221773995Y-118585078D01*
X221694977Y-118437244D01*
X221676399Y-118376000D01*
X221646314Y-118276825D01*
X221646314Y-118276824D01*
X221646313Y-118276821D01*
X221629883Y-118110000D01*
X221646313Y-117943179D01*
X221689065Y-117802244D01*
X221694975Y-117782761D01*
X221694976Y-117782759D01*
X221694977Y-117782756D01*
X221773995Y-117634922D01*
X221880341Y-117505341D01*
X222009922Y-117398995D01*
X222157756Y-117319977D01*
X222157759Y-117319976D01*
X222157761Y-117319975D01*
X222318175Y-117271314D01*
X222318176Y-117271314D01*
X222318179Y-117271313D01*
X222443196Y-117259000D01*
X223326804Y-117259000D01*
X223451821Y-117271313D01*
X223451821Y-117271313D01*
G37*
G36*
X231071821Y-117271313D02*
X231071824Y-117271314D01*
X231071825Y-117271314D01*
X231232239Y-117319975D01*
X231232241Y-117319976D01*
X231232244Y-117319977D01*
X231380078Y-117398995D01*
X231509659Y-117505341D01*
X231616005Y-117634922D01*
X231695023Y-117782756D01*
X231695024Y-117782759D01*
X231695025Y-117782761D01*
X231700935Y-117802244D01*
X231743687Y-117943179D01*
X231760117Y-118110000D01*
X231743687Y-118276821D01*
X231743686Y-118276824D01*
X231743686Y-118276825D01*
X231713602Y-118376000D01*
X231695023Y-118437244D01*
X231616005Y-118585078D01*
X231509659Y-118714659D01*
X231380078Y-118821005D01*
X231232244Y-118900023D01*
X231232241Y-118900024D01*
X231232239Y-118900025D01*
X231071825Y-118948686D01*
X231071824Y-118948686D01*
X231071821Y-118948687D01*
X230946804Y-118961000D01*
X230063196Y-118961000D01*
X229938179Y-118948687D01*
X229938176Y-118948686D01*
X229938175Y-118948686D01*
X229777761Y-118900025D01*
X229777759Y-118900024D01*
X229777756Y-118900023D01*
X229629922Y-118821005D01*
X229500341Y-118714659D01*
X229393995Y-118585078D01*
X229314977Y-118437244D01*
X229296399Y-118376000D01*
X229266314Y-118276825D01*
X229266314Y-118276824D01*
X229266313Y-118276821D01*
X229249883Y-118110000D01*
X229266313Y-117943179D01*
X229309065Y-117802244D01*
X229314975Y-117782761D01*
X229314976Y-117782759D01*
X229314977Y-117782756D01*
X229393995Y-117634922D01*
X229500341Y-117505341D01*
X229629922Y-117398995D01*
X229777756Y-117319977D01*
X229777759Y-117319976D01*
X229777761Y-117319975D01*
X229938175Y-117271314D01*
X229938176Y-117271314D01*
X229938179Y-117271313D01*
X230063196Y-117259000D01*
X230946804Y-117259000D01*
X231071821Y-117271313D01*
X231071821Y-117271313D01*
G37*
G36*
X218071000Y-118376000D02*
X216269000Y-118376000D01*
X216269000Y-116574000D01*
X218071000Y-116574000D01*
X218071000Y-118376000D01*
X218071000Y-118376000D01*
G37*
G36*
X195511821Y-116636313D02*
X195511824Y-116636314D01*
X195511825Y-116636314D01*
X195672239Y-116684975D01*
X195672241Y-116684976D01*
X195672244Y-116684977D01*
X195820078Y-116763995D01*
X195949659Y-116870341D01*
X196056005Y-116999922D01*
X196135023Y-117147756D01*
X196183687Y-117308179D01*
X196200117Y-117475000D01*
X196183687Y-117641821D01*
X196183686Y-117641824D01*
X196183686Y-117641825D01*
X196140934Y-117782761D01*
X196135023Y-117802244D01*
X196056005Y-117950078D01*
X195949659Y-118079659D01*
X195820078Y-118186005D01*
X195672244Y-118265023D01*
X195672241Y-118265024D01*
X195672239Y-118265025D01*
X195511825Y-118313686D01*
X195511824Y-118313686D01*
X195511821Y-118313687D01*
X195386804Y-118326000D01*
X194503196Y-118326000D01*
X194378179Y-118313687D01*
X194378176Y-118313686D01*
X194378175Y-118313686D01*
X194217761Y-118265025D01*
X194217759Y-118265024D01*
X194217756Y-118265023D01*
X194069922Y-118186005D01*
X193940341Y-118079659D01*
X193833995Y-117950078D01*
X193754977Y-117802244D01*
X193749067Y-117782761D01*
X193706314Y-117641825D01*
X193706314Y-117641824D01*
X193706313Y-117641821D01*
X193689883Y-117475000D01*
X193706313Y-117308179D01*
X193754977Y-117147756D01*
X193833995Y-116999922D01*
X193940341Y-116870341D01*
X194069922Y-116763995D01*
X194217756Y-116684977D01*
X194217759Y-116684976D01*
X194217761Y-116684975D01*
X194378175Y-116636314D01*
X194378176Y-116636314D01*
X194378179Y-116636313D01*
X194503196Y-116624000D01*
X195386804Y-116624000D01*
X195511821Y-116636313D01*
X195511821Y-116636313D01*
G37*
G36*
X210751821Y-116636313D02*
X210751824Y-116636314D01*
X210751825Y-116636314D01*
X210912239Y-116684975D01*
X210912241Y-116684976D01*
X210912244Y-116684977D01*
X211060078Y-116763995D01*
X211189659Y-116870341D01*
X211296005Y-116999922D01*
X211375023Y-117147756D01*
X211423687Y-117308179D01*
X211440117Y-117475000D01*
X211423687Y-117641821D01*
X211423686Y-117641824D01*
X211423686Y-117641825D01*
X211380934Y-117782761D01*
X211375023Y-117802244D01*
X211296005Y-117950078D01*
X211189659Y-118079659D01*
X211060078Y-118186005D01*
X210912244Y-118265023D01*
X210912241Y-118265024D01*
X210912239Y-118265025D01*
X210751825Y-118313686D01*
X210751824Y-118313686D01*
X210751821Y-118313687D01*
X210626804Y-118326000D01*
X209743196Y-118326000D01*
X209618179Y-118313687D01*
X209618176Y-118313686D01*
X209618175Y-118313686D01*
X209457761Y-118265025D01*
X209457759Y-118265024D01*
X209457756Y-118265023D01*
X209309922Y-118186005D01*
X209180341Y-118079659D01*
X209073995Y-117950078D01*
X208994977Y-117802244D01*
X208989067Y-117782761D01*
X208946314Y-117641825D01*
X208946314Y-117641824D01*
X208946313Y-117641821D01*
X208929883Y-117475000D01*
X208946313Y-117308179D01*
X208994977Y-117147756D01*
X209073995Y-116999922D01*
X209180341Y-116870341D01*
X209309922Y-116763995D01*
X209457756Y-116684977D01*
X209457759Y-116684976D01*
X209457761Y-116684975D01*
X209618175Y-116636314D01*
X209618176Y-116636314D01*
X209618179Y-116636313D01*
X209743196Y-116624000D01*
X210626804Y-116624000D01*
X210751821Y-116636313D01*
X210751821Y-116636313D01*
G37*
G36*
X179971000Y-115836000D02*
X178169000Y-115836000D01*
X178169000Y-114034000D01*
X179971000Y-114034000D01*
X179971000Y-115836000D01*
X179971000Y-115836000D01*
G37*
G36*
X217280442Y-114040518D02*
X217346627Y-114047037D01*
X217459853Y-114081384D01*
X217516467Y-114098557D01*
X217603311Y-114144977D01*
X217672991Y-114182222D01*
X217708729Y-114211552D01*
X217810186Y-114294814D01*
X217893448Y-114396271D01*
X217922778Y-114432009D01*
X217922779Y-114432011D01*
X218006443Y-114588533D01*
X218023616Y-114645147D01*
X218057963Y-114758373D01*
X218075359Y-114935000D01*
X218057963Y-115111627D01*
X218023616Y-115224853D01*
X218006443Y-115281467D01*
X217937698Y-115410078D01*
X217922778Y-115437991D01*
X217893448Y-115473729D01*
X217810186Y-115575186D01*
X217708729Y-115658448D01*
X217672991Y-115687778D01*
X217672989Y-115687779D01*
X217516467Y-115771443D01*
X217509069Y-115773687D01*
X217346627Y-115822963D01*
X217280443Y-115829481D01*
X217214260Y-115836000D01*
X217125740Y-115836000D01*
X217059557Y-115829481D01*
X216993373Y-115822963D01*
X216830931Y-115773687D01*
X216823533Y-115771443D01*
X216667011Y-115687779D01*
X216667009Y-115687778D01*
X216631271Y-115658448D01*
X216529814Y-115575186D01*
X216446552Y-115473729D01*
X216417222Y-115437991D01*
X216402302Y-115410078D01*
X216333557Y-115281467D01*
X216316384Y-115224853D01*
X216282037Y-115111627D01*
X216264641Y-114935000D01*
X216282037Y-114758373D01*
X216316384Y-114645147D01*
X216333557Y-114588533D01*
X216417221Y-114432011D01*
X216417222Y-114432009D01*
X216446552Y-114396271D01*
X216529814Y-114294814D01*
X216631271Y-114211552D01*
X216667009Y-114182222D01*
X216736689Y-114144977D01*
X216823533Y-114098557D01*
X216880147Y-114081384D01*
X216993373Y-114047037D01*
X217059558Y-114040518D01*
X217125740Y-114034000D01*
X217214260Y-114034000D01*
X217280442Y-114040518D01*
X217280442Y-114040518D01*
G37*
G36*
X210751821Y-114096313D02*
X210751824Y-114096314D01*
X210751825Y-114096314D01*
X210912239Y-114144975D01*
X210912241Y-114144976D01*
X210912244Y-114144977D01*
X211060078Y-114223995D01*
X211189659Y-114330341D01*
X211296005Y-114459922D01*
X211375023Y-114607756D01*
X211375024Y-114607759D01*
X211375025Y-114607761D01*
X211420713Y-114758375D01*
X211423687Y-114768179D01*
X211440117Y-114935000D01*
X211423687Y-115101821D01*
X211423686Y-115101824D01*
X211423686Y-115101825D01*
X211420713Y-115111627D01*
X211375023Y-115262244D01*
X211296005Y-115410078D01*
X211189659Y-115539659D01*
X211060078Y-115646005D01*
X210912244Y-115725023D01*
X210912241Y-115725024D01*
X210912239Y-115725025D01*
X210751825Y-115773686D01*
X210751824Y-115773686D01*
X210751821Y-115773687D01*
X210626804Y-115786000D01*
X209743196Y-115786000D01*
X209618179Y-115773687D01*
X209618176Y-115773686D01*
X209618175Y-115773686D01*
X209457761Y-115725025D01*
X209457759Y-115725024D01*
X209457756Y-115725023D01*
X209309922Y-115646005D01*
X209180341Y-115539659D01*
X209073995Y-115410078D01*
X208994977Y-115262244D01*
X208949288Y-115111627D01*
X208946314Y-115101825D01*
X208946314Y-115101824D01*
X208946313Y-115101821D01*
X208929883Y-114935000D01*
X208946313Y-114768179D01*
X208949287Y-114758375D01*
X208994975Y-114607761D01*
X208994976Y-114607759D01*
X208994977Y-114607756D01*
X209073995Y-114459922D01*
X209180341Y-114330341D01*
X209309922Y-114223995D01*
X209457756Y-114144977D01*
X209457759Y-114144976D01*
X209457761Y-114144975D01*
X209618175Y-114096314D01*
X209618176Y-114096314D01*
X209618179Y-114096313D01*
X209743196Y-114084000D01*
X210626804Y-114084000D01*
X210751821Y-114096313D01*
X210751821Y-114096313D01*
G37*
G36*
X195511821Y-114096313D02*
X195511824Y-114096314D01*
X195511825Y-114096314D01*
X195672239Y-114144975D01*
X195672241Y-114144976D01*
X195672244Y-114144977D01*
X195820078Y-114223995D01*
X195949659Y-114330341D01*
X196056005Y-114459922D01*
X196135023Y-114607756D01*
X196135024Y-114607759D01*
X196135025Y-114607761D01*
X196180713Y-114758375D01*
X196183687Y-114768179D01*
X196200117Y-114935000D01*
X196183687Y-115101821D01*
X196183686Y-115101824D01*
X196183686Y-115101825D01*
X196180713Y-115111627D01*
X196135023Y-115262244D01*
X196056005Y-115410078D01*
X195949659Y-115539659D01*
X195820078Y-115646005D01*
X195672244Y-115725023D01*
X195672241Y-115725024D01*
X195672239Y-115725025D01*
X195511825Y-115773686D01*
X195511824Y-115773686D01*
X195511821Y-115773687D01*
X195386804Y-115786000D01*
X194503196Y-115786000D01*
X194378179Y-115773687D01*
X194378176Y-115773686D01*
X194378175Y-115773686D01*
X194217761Y-115725025D01*
X194217759Y-115725024D01*
X194217756Y-115725023D01*
X194069922Y-115646005D01*
X193940341Y-115539659D01*
X193833995Y-115410078D01*
X193754977Y-115262244D01*
X193709288Y-115111627D01*
X193706314Y-115101825D01*
X193706314Y-115101824D01*
X193706313Y-115101821D01*
X193689883Y-114935000D01*
X193706313Y-114768179D01*
X193709287Y-114758375D01*
X193754975Y-114607761D01*
X193754976Y-114607759D01*
X193754977Y-114607756D01*
X193833995Y-114459922D01*
X193940341Y-114330341D01*
X194069922Y-114223995D01*
X194217756Y-114144977D01*
X194217759Y-114144976D01*
X194217761Y-114144975D01*
X194378175Y-114096314D01*
X194378176Y-114096314D01*
X194378179Y-114096313D01*
X194503196Y-114084000D01*
X195386804Y-114084000D01*
X195511821Y-114096313D01*
X195511821Y-114096313D01*
G37*
G36*
X242818228Y-112211703D02*
X242973100Y-112275853D01*
X243112481Y-112368985D01*
X243231015Y-112487519D01*
X243324147Y-112626900D01*
X243388297Y-112781772D01*
X243421000Y-112946184D01*
X243421000Y-113113816D01*
X243388297Y-113278228D01*
X243324147Y-113433100D01*
X243231015Y-113572481D01*
X243112481Y-113691015D01*
X242973100Y-113784147D01*
X242818228Y-113848297D01*
X242653816Y-113881000D01*
X242486184Y-113881000D01*
X242321772Y-113848297D01*
X242166900Y-113784147D01*
X242027519Y-113691015D01*
X241908985Y-113572481D01*
X241815853Y-113433100D01*
X241751703Y-113278228D01*
X241719000Y-113113816D01*
X241719000Y-112946184D01*
X241751703Y-112781772D01*
X241815853Y-112626900D01*
X241908985Y-112487519D01*
X242027519Y-112368985D01*
X242166900Y-112275853D01*
X242321772Y-112211703D01*
X242486184Y-112179000D01*
X242653816Y-112179000D01*
X242818228Y-112211703D01*
X242818228Y-112211703D01*
G37*
G36*
X238291821Y-112191313D02*
X238291824Y-112191314D01*
X238291825Y-112191314D01*
X238452239Y-112239975D01*
X238452241Y-112239976D01*
X238452244Y-112239977D01*
X238600078Y-112318995D01*
X238729659Y-112425341D01*
X238836005Y-112554922D01*
X238915023Y-112702756D01*
X238915024Y-112702759D01*
X238915025Y-112702761D01*
X238963686Y-112863175D01*
X238963687Y-112863179D01*
X238980117Y-113030000D01*
X238963687Y-113196821D01*
X238963686Y-113196824D01*
X238963686Y-113196825D01*
X238933602Y-113296000D01*
X238915023Y-113357244D01*
X238836005Y-113505078D01*
X238729659Y-113634659D01*
X238600078Y-113741005D01*
X238452244Y-113820023D01*
X238452241Y-113820024D01*
X238452239Y-113820025D01*
X238291825Y-113868686D01*
X238291824Y-113868686D01*
X238291821Y-113868687D01*
X238166804Y-113881000D01*
X238083196Y-113881000D01*
X237958179Y-113868687D01*
X237958176Y-113868686D01*
X237958175Y-113868686D01*
X237797761Y-113820025D01*
X237797759Y-113820024D01*
X237797756Y-113820023D01*
X237649922Y-113741005D01*
X237520341Y-113634659D01*
X237413995Y-113505078D01*
X237334977Y-113357244D01*
X237316399Y-113296000D01*
X237286314Y-113196825D01*
X237286314Y-113196824D01*
X237286313Y-113196821D01*
X237269883Y-113030000D01*
X237286313Y-112863179D01*
X237286314Y-112863175D01*
X237334975Y-112702761D01*
X237334976Y-112702759D01*
X237334977Y-112702756D01*
X237413995Y-112554922D01*
X237520341Y-112425341D01*
X237649922Y-112318995D01*
X237797756Y-112239977D01*
X237797759Y-112239976D01*
X237797761Y-112239975D01*
X237958175Y-112191314D01*
X237958176Y-112191314D01*
X237958179Y-112191313D01*
X238083196Y-112179000D01*
X238166804Y-112179000D01*
X238291821Y-112191313D01*
X238291821Y-112191313D01*
G37*
G36*
X179180443Y-111500519D02*
X179246627Y-111507037D01*
X179359853Y-111541384D01*
X179416467Y-111558557D01*
X179503311Y-111604977D01*
X179572991Y-111642222D01*
X179608729Y-111671552D01*
X179710186Y-111754814D01*
X179790369Y-111852519D01*
X179822778Y-111892009D01*
X179822779Y-111892011D01*
X179906443Y-112048533D01*
X179923616Y-112105147D01*
X179957963Y-112218373D01*
X179975359Y-112395000D01*
X179957963Y-112571627D01*
X179941196Y-112626900D01*
X179906443Y-112741467D01*
X179841388Y-112863175D01*
X179822778Y-112897991D01*
X179793448Y-112933729D01*
X179710186Y-113035186D01*
X179614375Y-113113815D01*
X179572991Y-113147778D01*
X179572989Y-113147779D01*
X179416467Y-113231443D01*
X179409069Y-113233687D01*
X179246627Y-113282963D01*
X179180443Y-113289481D01*
X179114260Y-113296000D01*
X179025740Y-113296000D01*
X178959557Y-113289481D01*
X178893373Y-113282963D01*
X178730931Y-113233687D01*
X178723533Y-113231443D01*
X178567011Y-113147779D01*
X178567009Y-113147778D01*
X178525625Y-113113815D01*
X178429814Y-113035186D01*
X178346552Y-112933729D01*
X178317222Y-112897991D01*
X178298612Y-112863175D01*
X178233557Y-112741467D01*
X178198804Y-112626900D01*
X178182037Y-112571627D01*
X178164641Y-112395000D01*
X178182037Y-112218373D01*
X178216384Y-112105147D01*
X178233557Y-112048533D01*
X178317221Y-111892011D01*
X178317222Y-111892009D01*
X178349631Y-111852519D01*
X178429814Y-111754814D01*
X178531271Y-111671552D01*
X178567009Y-111642222D01*
X178636689Y-111604977D01*
X178723533Y-111558557D01*
X178780147Y-111541384D01*
X178893373Y-111507037D01*
X178959557Y-111500519D01*
X179025740Y-111494000D01*
X179114260Y-111494000D01*
X179180443Y-111500519D01*
X179180443Y-111500519D01*
G37*
G36*
X232023228Y-111576703D02*
X232178100Y-111640853D01*
X232317481Y-111733985D01*
X232436015Y-111852519D01*
X232529147Y-111991900D01*
X232593297Y-112146772D01*
X232626000Y-112311184D01*
X232626000Y-112478816D01*
X232593297Y-112643228D01*
X232529147Y-112798100D01*
X232436015Y-112937481D01*
X232317481Y-113056015D01*
X232178100Y-113149147D01*
X232023228Y-113213297D01*
X231858816Y-113246000D01*
X231691184Y-113246000D01*
X231526772Y-113213297D01*
X231371900Y-113149147D01*
X231232519Y-113056015D01*
X231113985Y-112937481D01*
X231020853Y-112798100D01*
X230956703Y-112643228D01*
X230924000Y-112478816D01*
X230924000Y-112311184D01*
X230956703Y-112146772D01*
X231020853Y-111991900D01*
X231113985Y-111852519D01*
X231232519Y-111733985D01*
X231371900Y-111640853D01*
X231526772Y-111576703D01*
X231691184Y-111544000D01*
X231858816Y-111544000D01*
X232023228Y-111576703D01*
X232023228Y-111576703D01*
G37*
G36*
X228131821Y-111556313D02*
X228131824Y-111556314D01*
X228131825Y-111556314D01*
X228292239Y-111604975D01*
X228292241Y-111604976D01*
X228292244Y-111604977D01*
X228440078Y-111683995D01*
X228569659Y-111790341D01*
X228676005Y-111919922D01*
X228755023Y-112067756D01*
X228755024Y-112067759D01*
X228755025Y-112067761D01*
X228800713Y-112218375D01*
X228803687Y-112228179D01*
X228820117Y-112395000D01*
X228803687Y-112561821D01*
X228803686Y-112561824D01*
X228803686Y-112561825D01*
X228760934Y-112702761D01*
X228755023Y-112722244D01*
X228676005Y-112870078D01*
X228569659Y-112999659D01*
X228440078Y-113106005D01*
X228292244Y-113185023D01*
X228292241Y-113185024D01*
X228292239Y-113185025D01*
X228131825Y-113233686D01*
X228131824Y-113233686D01*
X228131821Y-113233687D01*
X228006804Y-113246000D01*
X227923196Y-113246000D01*
X227798179Y-113233687D01*
X227798176Y-113233686D01*
X227798175Y-113233686D01*
X227637761Y-113185025D01*
X227637759Y-113185024D01*
X227637756Y-113185023D01*
X227489922Y-113106005D01*
X227360341Y-112999659D01*
X227253995Y-112870078D01*
X227174977Y-112722244D01*
X227169067Y-112702761D01*
X227126314Y-112561825D01*
X227126314Y-112561824D01*
X227126313Y-112561821D01*
X227109883Y-112395000D01*
X227126313Y-112228179D01*
X227129287Y-112218375D01*
X227174975Y-112067761D01*
X227174976Y-112067759D01*
X227174977Y-112067756D01*
X227253995Y-111919922D01*
X227360341Y-111790341D01*
X227489922Y-111683995D01*
X227637756Y-111604977D01*
X227637759Y-111604976D01*
X227637761Y-111604975D01*
X227798175Y-111556314D01*
X227798176Y-111556314D01*
X227798179Y-111556313D01*
X227923196Y-111544000D01*
X228006804Y-111544000D01*
X228131821Y-111556313D01*
X228131821Y-111556313D01*
G37*
G36*
X210751821Y-111556313D02*
X210751824Y-111556314D01*
X210751825Y-111556314D01*
X210912239Y-111604975D01*
X210912241Y-111604976D01*
X210912244Y-111604977D01*
X211060078Y-111683995D01*
X211189659Y-111790341D01*
X211296005Y-111919922D01*
X211375023Y-112067756D01*
X211375024Y-112067759D01*
X211375025Y-112067761D01*
X211420713Y-112218375D01*
X211423687Y-112228179D01*
X211440117Y-112395000D01*
X211423687Y-112561821D01*
X211423686Y-112561824D01*
X211423686Y-112561825D01*
X211380934Y-112702761D01*
X211375023Y-112722244D01*
X211296005Y-112870078D01*
X211189659Y-112999659D01*
X211060078Y-113106005D01*
X210912244Y-113185023D01*
X210912241Y-113185024D01*
X210912239Y-113185025D01*
X210751825Y-113233686D01*
X210751824Y-113233686D01*
X210751821Y-113233687D01*
X210626804Y-113246000D01*
X209743196Y-113246000D01*
X209618179Y-113233687D01*
X209618176Y-113233686D01*
X209618175Y-113233686D01*
X209457761Y-113185025D01*
X209457759Y-113185024D01*
X209457756Y-113185023D01*
X209309922Y-113106005D01*
X209180341Y-112999659D01*
X209073995Y-112870078D01*
X208994977Y-112722244D01*
X208989067Y-112702761D01*
X208946314Y-112561825D01*
X208946314Y-112561824D01*
X208946313Y-112561821D01*
X208929883Y-112395000D01*
X208946313Y-112228179D01*
X208949287Y-112218375D01*
X208994975Y-112067761D01*
X208994976Y-112067759D01*
X208994977Y-112067756D01*
X209073995Y-111919922D01*
X209180341Y-111790341D01*
X209309922Y-111683995D01*
X209457756Y-111604977D01*
X209457759Y-111604976D01*
X209457761Y-111604975D01*
X209618175Y-111556314D01*
X209618176Y-111556314D01*
X209618179Y-111556313D01*
X209743196Y-111544000D01*
X210626804Y-111544000D01*
X210751821Y-111556313D01*
X210751821Y-111556313D01*
G37*
G36*
X195511821Y-111556313D02*
X195511824Y-111556314D01*
X195511825Y-111556314D01*
X195672239Y-111604975D01*
X195672241Y-111604976D01*
X195672244Y-111604977D01*
X195820078Y-111683995D01*
X195949659Y-111790341D01*
X196056005Y-111919922D01*
X196135023Y-112067756D01*
X196135024Y-112067759D01*
X196135025Y-112067761D01*
X196180713Y-112218375D01*
X196183687Y-112228179D01*
X196200117Y-112395000D01*
X196183687Y-112561821D01*
X196183686Y-112561824D01*
X196183686Y-112561825D01*
X196140934Y-112702761D01*
X196135023Y-112722244D01*
X196056005Y-112870078D01*
X195949659Y-112999659D01*
X195820078Y-113106005D01*
X195672244Y-113185023D01*
X195672241Y-113185024D01*
X195672239Y-113185025D01*
X195511825Y-113233686D01*
X195511824Y-113233686D01*
X195511821Y-113233687D01*
X195386804Y-113246000D01*
X194503196Y-113246000D01*
X194378179Y-113233687D01*
X194378176Y-113233686D01*
X194378175Y-113233686D01*
X194217761Y-113185025D01*
X194217759Y-113185024D01*
X194217756Y-113185023D01*
X194069922Y-113106005D01*
X193940341Y-112999659D01*
X193833995Y-112870078D01*
X193754977Y-112722244D01*
X193749067Y-112702761D01*
X193706314Y-112561825D01*
X193706314Y-112561824D01*
X193706313Y-112561821D01*
X193689883Y-112395000D01*
X193706313Y-112228179D01*
X193709287Y-112218375D01*
X193754975Y-112067761D01*
X193754976Y-112067759D01*
X193754977Y-112067756D01*
X193833995Y-111919922D01*
X193940341Y-111790341D01*
X194069922Y-111683995D01*
X194217756Y-111604977D01*
X194217759Y-111604976D01*
X194217761Y-111604975D01*
X194378175Y-111556314D01*
X194378176Y-111556314D01*
X194378179Y-111556313D01*
X194503196Y-111544000D01*
X195386804Y-111544000D01*
X195511821Y-111556313D01*
X195511821Y-111556313D01*
G37*
G36*
X179180443Y-108960519D02*
X179246627Y-108967037D01*
X179358588Y-109001000D01*
X179416467Y-109018557D01*
X179503311Y-109064977D01*
X179572991Y-109102222D01*
X179608729Y-109131552D01*
X179710186Y-109214814D01*
X179793448Y-109316271D01*
X179822778Y-109352009D01*
X179822779Y-109352011D01*
X179906443Y-109508533D01*
X179923616Y-109565147D01*
X179957963Y-109678373D01*
X179975359Y-109855000D01*
X179957963Y-110031627D01*
X179923616Y-110144853D01*
X179906443Y-110201467D01*
X179837698Y-110330078D01*
X179822778Y-110357991D01*
X179793448Y-110393729D01*
X179710186Y-110495186D01*
X179608729Y-110578448D01*
X179572991Y-110607778D01*
X179572989Y-110607779D01*
X179416467Y-110691443D01*
X179409069Y-110693687D01*
X179246627Y-110742963D01*
X179180442Y-110749482D01*
X179114260Y-110756000D01*
X179025740Y-110756000D01*
X178959558Y-110749482D01*
X178893373Y-110742963D01*
X178730931Y-110693687D01*
X178723533Y-110691443D01*
X178567011Y-110607779D01*
X178567009Y-110607778D01*
X178531271Y-110578448D01*
X178429814Y-110495186D01*
X178346552Y-110393729D01*
X178317222Y-110357991D01*
X178302302Y-110330078D01*
X178233557Y-110201467D01*
X178216384Y-110144853D01*
X178182037Y-110031627D01*
X178164641Y-109855000D01*
X178182037Y-109678373D01*
X178216384Y-109565147D01*
X178233557Y-109508533D01*
X178317221Y-109352011D01*
X178317222Y-109352009D01*
X178346552Y-109316271D01*
X178429814Y-109214814D01*
X178531271Y-109131552D01*
X178567009Y-109102222D01*
X178636689Y-109064977D01*
X178723533Y-109018557D01*
X178781412Y-109001000D01*
X178893373Y-108967037D01*
X178959557Y-108960519D01*
X179025740Y-108954000D01*
X179114260Y-108954000D01*
X179180443Y-108960519D01*
X179180443Y-108960519D01*
G37*
G36*
X210751821Y-109016313D02*
X210751824Y-109016314D01*
X210751825Y-109016314D01*
X210912239Y-109064975D01*
X210912241Y-109064976D01*
X210912244Y-109064977D01*
X211060078Y-109143995D01*
X211189659Y-109250341D01*
X211296005Y-109379922D01*
X211375023Y-109527756D01*
X211375024Y-109527759D01*
X211375025Y-109527761D01*
X211420713Y-109678375D01*
X211423687Y-109688179D01*
X211440117Y-109855000D01*
X211423687Y-110021821D01*
X211423686Y-110021824D01*
X211423686Y-110021825D01*
X211420713Y-110031627D01*
X211375023Y-110182244D01*
X211296005Y-110330078D01*
X211189659Y-110459659D01*
X211060078Y-110566005D01*
X210912244Y-110645023D01*
X210912241Y-110645024D01*
X210912239Y-110645025D01*
X210751825Y-110693686D01*
X210751824Y-110693686D01*
X210751821Y-110693687D01*
X210626804Y-110706000D01*
X209743196Y-110706000D01*
X209618179Y-110693687D01*
X209618176Y-110693686D01*
X209618175Y-110693686D01*
X209457761Y-110645025D01*
X209457759Y-110645024D01*
X209457756Y-110645023D01*
X209309922Y-110566005D01*
X209180341Y-110459659D01*
X209073995Y-110330078D01*
X208994977Y-110182244D01*
X208949288Y-110031627D01*
X208946314Y-110021825D01*
X208946314Y-110021824D01*
X208946313Y-110021821D01*
X208929883Y-109855000D01*
X208946313Y-109688179D01*
X208949287Y-109678375D01*
X208994975Y-109527761D01*
X208994976Y-109527759D01*
X208994977Y-109527756D01*
X209073995Y-109379922D01*
X209180341Y-109250341D01*
X209309922Y-109143995D01*
X209457756Y-109064977D01*
X209457759Y-109064976D01*
X209457761Y-109064975D01*
X209618175Y-109016314D01*
X209618176Y-109016314D01*
X209618179Y-109016313D01*
X209743196Y-109004000D01*
X210626804Y-109004000D01*
X210751821Y-109016313D01*
X210751821Y-109016313D01*
G37*
G36*
X195511821Y-109016313D02*
X195511824Y-109016314D01*
X195511825Y-109016314D01*
X195672239Y-109064975D01*
X195672241Y-109064976D01*
X195672244Y-109064977D01*
X195820078Y-109143995D01*
X195949659Y-109250341D01*
X196056005Y-109379922D01*
X196135023Y-109527756D01*
X196135024Y-109527759D01*
X196135025Y-109527761D01*
X196180713Y-109678375D01*
X196183687Y-109688179D01*
X196200117Y-109855000D01*
X196183687Y-110021821D01*
X196183686Y-110021824D01*
X196183686Y-110021825D01*
X196180713Y-110031627D01*
X196135023Y-110182244D01*
X196056005Y-110330078D01*
X195949659Y-110459659D01*
X195820078Y-110566005D01*
X195672244Y-110645023D01*
X195672241Y-110645024D01*
X195672239Y-110645025D01*
X195511825Y-110693686D01*
X195511824Y-110693686D01*
X195511821Y-110693687D01*
X195386804Y-110706000D01*
X194503196Y-110706000D01*
X194378179Y-110693687D01*
X194378176Y-110693686D01*
X194378175Y-110693686D01*
X194217761Y-110645025D01*
X194217759Y-110645024D01*
X194217756Y-110645023D01*
X194069922Y-110566005D01*
X193940341Y-110459659D01*
X193833995Y-110330078D01*
X193754977Y-110182244D01*
X193709288Y-110031627D01*
X193706314Y-110021825D01*
X193706314Y-110021824D01*
X193706313Y-110021821D01*
X193689883Y-109855000D01*
X193706313Y-109688179D01*
X193709287Y-109678375D01*
X193754975Y-109527761D01*
X193754976Y-109527759D01*
X193754977Y-109527756D01*
X193833995Y-109379922D01*
X193940341Y-109250341D01*
X194069922Y-109143995D01*
X194217756Y-109064977D01*
X194217759Y-109064976D01*
X194217761Y-109064975D01*
X194378175Y-109016314D01*
X194378176Y-109016314D01*
X194378179Y-109016313D01*
X194503196Y-109004000D01*
X195386804Y-109004000D01*
X195511821Y-109016313D01*
X195511821Y-109016313D01*
G37*
G36*
X238431565Y-106939389D02*
X238622834Y-107018615D01*
X238794976Y-107133637D01*
X238941363Y-107280024D01*
X239056385Y-107452166D01*
X239135611Y-107643435D01*
X239176000Y-107846484D01*
X239176000Y-108053516D01*
X239135611Y-108256565D01*
X239056385Y-108447834D01*
X238941363Y-108619976D01*
X238794976Y-108766363D01*
X238622834Y-108881385D01*
X238431565Y-108960611D01*
X238228516Y-109001000D01*
X238021484Y-109001000D01*
X237818435Y-108960611D01*
X237627166Y-108881385D01*
X237455024Y-108766363D01*
X237308637Y-108619976D01*
X237193615Y-108447834D01*
X237114389Y-108256565D01*
X237074000Y-108053516D01*
X237074000Y-107846484D01*
X237114389Y-107643435D01*
X237193615Y-107452166D01*
X237308637Y-107280024D01*
X237455024Y-107133637D01*
X237627166Y-107018615D01*
X237818435Y-106939389D01*
X238021484Y-106899000D01*
X238228516Y-106899000D01*
X238431565Y-106939389D01*
X238431565Y-106939389D01*
G37*
G36*
X243431565Y-106939389D02*
X243622834Y-107018615D01*
X243794976Y-107133637D01*
X243941363Y-107280024D01*
X244056385Y-107452166D01*
X244135611Y-107643435D01*
X244176000Y-107846484D01*
X244176000Y-108053516D01*
X244135611Y-108256565D01*
X244056385Y-108447834D01*
X243941363Y-108619976D01*
X243794976Y-108766363D01*
X243622834Y-108881385D01*
X243431565Y-108960611D01*
X243228516Y-109001000D01*
X243021484Y-109001000D01*
X242818435Y-108960611D01*
X242627166Y-108881385D01*
X242455024Y-108766363D01*
X242308637Y-108619976D01*
X242193615Y-108447834D01*
X242114389Y-108256565D01*
X242074000Y-108053516D01*
X242074000Y-107846484D01*
X242114389Y-107643435D01*
X242193615Y-107452166D01*
X242308637Y-107280024D01*
X242455024Y-107133637D01*
X242627166Y-107018615D01*
X242818435Y-106939389D01*
X243021484Y-106899000D01*
X243228516Y-106899000D01*
X243431565Y-106939389D01*
X243431565Y-106939389D01*
G37*
G36*
X179180443Y-106420519D02*
X179246627Y-106427037D01*
X179359853Y-106461384D01*
X179416467Y-106478557D01*
X179503311Y-106524977D01*
X179572991Y-106562222D01*
X179587324Y-106573985D01*
X179710186Y-106674814D01*
X179793448Y-106776271D01*
X179822778Y-106812009D01*
X179822779Y-106812011D01*
X179906443Y-106968533D01*
X179921635Y-107018615D01*
X179957963Y-107138373D01*
X179975359Y-107315000D01*
X179957963Y-107491627D01*
X179923616Y-107604853D01*
X179906443Y-107661467D01*
X179844431Y-107777481D01*
X179822778Y-107817991D01*
X179793448Y-107853729D01*
X179710186Y-107955186D01*
X179608729Y-108038448D01*
X179572991Y-108067778D01*
X179572989Y-108067779D01*
X179416467Y-108151443D01*
X179409069Y-108153687D01*
X179246627Y-108202963D01*
X179180443Y-108209481D01*
X179114260Y-108216000D01*
X179025740Y-108216000D01*
X178959557Y-108209481D01*
X178893373Y-108202963D01*
X178730931Y-108153687D01*
X178723533Y-108151443D01*
X178567011Y-108067779D01*
X178567009Y-108067778D01*
X178531271Y-108038448D01*
X178429814Y-107955186D01*
X178346552Y-107853729D01*
X178317222Y-107817991D01*
X178295569Y-107777481D01*
X178233557Y-107661467D01*
X178216384Y-107604853D01*
X178182037Y-107491627D01*
X178164641Y-107315000D01*
X178182037Y-107138373D01*
X178218365Y-107018615D01*
X178233557Y-106968533D01*
X178317221Y-106812011D01*
X178317222Y-106812009D01*
X178346552Y-106776271D01*
X178429814Y-106674814D01*
X178552676Y-106573985D01*
X178567009Y-106562222D01*
X178636689Y-106524977D01*
X178723533Y-106478557D01*
X178780147Y-106461384D01*
X178893373Y-106427037D01*
X178959557Y-106420519D01*
X179025740Y-106414000D01*
X179114260Y-106414000D01*
X179180443Y-106420519D01*
X179180443Y-106420519D01*
G37*
G36*
X195511821Y-106476313D02*
X195511824Y-106476314D01*
X195511825Y-106476314D01*
X195672239Y-106524975D01*
X195672241Y-106524976D01*
X195672244Y-106524977D01*
X195820078Y-106603995D01*
X195949659Y-106710341D01*
X196056005Y-106839922D01*
X196135023Y-106987756D01*
X196135024Y-106987759D01*
X196135025Y-106987761D01*
X196180713Y-107138375D01*
X196183687Y-107148179D01*
X196200117Y-107315000D01*
X196183687Y-107481821D01*
X196183686Y-107481824D01*
X196183686Y-107481825D01*
X196136281Y-107638100D01*
X196135023Y-107642244D01*
X196056005Y-107790078D01*
X195949659Y-107919659D01*
X195820078Y-108026005D01*
X195672244Y-108105023D01*
X195672241Y-108105024D01*
X195672239Y-108105025D01*
X195511825Y-108153686D01*
X195511824Y-108153686D01*
X195511821Y-108153687D01*
X195386804Y-108166000D01*
X194503196Y-108166000D01*
X194378179Y-108153687D01*
X194378176Y-108153686D01*
X194378175Y-108153686D01*
X194217761Y-108105025D01*
X194217759Y-108105024D01*
X194217756Y-108105023D01*
X194069922Y-108026005D01*
X193940341Y-107919659D01*
X193833995Y-107790078D01*
X193754977Y-107642244D01*
X193753720Y-107638100D01*
X193706314Y-107481825D01*
X193706314Y-107481824D01*
X193706313Y-107481821D01*
X193689883Y-107315000D01*
X193706313Y-107148179D01*
X193709287Y-107138375D01*
X193754975Y-106987761D01*
X193754976Y-106987759D01*
X193754977Y-106987756D01*
X193833995Y-106839922D01*
X193940341Y-106710341D01*
X194069922Y-106603995D01*
X194217756Y-106524977D01*
X194217759Y-106524976D01*
X194217761Y-106524975D01*
X194378175Y-106476314D01*
X194378176Y-106476314D01*
X194378179Y-106476313D01*
X194503196Y-106464000D01*
X195386804Y-106464000D01*
X195511821Y-106476313D01*
X195511821Y-106476313D01*
G37*
G36*
X210751821Y-106476313D02*
X210751824Y-106476314D01*
X210751825Y-106476314D01*
X210912239Y-106524975D01*
X210912241Y-106524976D01*
X210912244Y-106524977D01*
X211060078Y-106603995D01*
X211189659Y-106710341D01*
X211296005Y-106839922D01*
X211375023Y-106987756D01*
X211375024Y-106987759D01*
X211375025Y-106987761D01*
X211420713Y-107138375D01*
X211423687Y-107148179D01*
X211440117Y-107315000D01*
X211423687Y-107481821D01*
X211423686Y-107481824D01*
X211423686Y-107481825D01*
X211376281Y-107638100D01*
X211375023Y-107642244D01*
X211296005Y-107790078D01*
X211189659Y-107919659D01*
X211060078Y-108026005D01*
X210912244Y-108105023D01*
X210912241Y-108105024D01*
X210912239Y-108105025D01*
X210751825Y-108153686D01*
X210751824Y-108153686D01*
X210751821Y-108153687D01*
X210626804Y-108166000D01*
X209743196Y-108166000D01*
X209618179Y-108153687D01*
X209618176Y-108153686D01*
X209618175Y-108153686D01*
X209457761Y-108105025D01*
X209457759Y-108105024D01*
X209457756Y-108105023D01*
X209309922Y-108026005D01*
X209180341Y-107919659D01*
X209073995Y-107790078D01*
X208994977Y-107642244D01*
X208993720Y-107638100D01*
X208946314Y-107481825D01*
X208946314Y-107481824D01*
X208946313Y-107481821D01*
X208929883Y-107315000D01*
X208946313Y-107148179D01*
X208949287Y-107138375D01*
X208994975Y-106987761D01*
X208994976Y-106987759D01*
X208994977Y-106987756D01*
X209073995Y-106839922D01*
X209180341Y-106710341D01*
X209309922Y-106603995D01*
X209457756Y-106524977D01*
X209457759Y-106524976D01*
X209457761Y-106524975D01*
X209618175Y-106476314D01*
X209618176Y-106476314D01*
X209618179Y-106476313D01*
X209743196Y-106464000D01*
X210626804Y-106464000D01*
X210751821Y-106476313D01*
X210751821Y-106476313D01*
G37*
G36*
X185033228Y-106416703D02*
X185188100Y-106480853D01*
X185327481Y-106573985D01*
X185446015Y-106692519D01*
X185539147Y-106831900D01*
X185603297Y-106986772D01*
X185636000Y-107151184D01*
X185636000Y-107318816D01*
X185603297Y-107483228D01*
X185539147Y-107638100D01*
X185446015Y-107777481D01*
X185327481Y-107896015D01*
X185188100Y-107989147D01*
X185033228Y-108053297D01*
X184868816Y-108086000D01*
X184701184Y-108086000D01*
X184536772Y-108053297D01*
X184381900Y-107989147D01*
X184242519Y-107896015D01*
X184123985Y-107777481D01*
X184030853Y-107638100D01*
X183966703Y-107483228D01*
X183934000Y-107318816D01*
X183934000Y-107151184D01*
X183966703Y-106986772D01*
X184030853Y-106831900D01*
X184123985Y-106692519D01*
X184242519Y-106573985D01*
X184381900Y-106480853D01*
X184536772Y-106416703D01*
X184701184Y-106384000D01*
X184868816Y-106384000D01*
X185033228Y-106416703D01*
X185033228Y-106416703D01*
G37*
G36*
X179180443Y-103880519D02*
X179246627Y-103887037D01*
X179359853Y-103921384D01*
X179416467Y-103938557D01*
X179503311Y-103984977D01*
X179572991Y-104022222D01*
X179608729Y-104051552D01*
X179710186Y-104134814D01*
X179793448Y-104236271D01*
X179822778Y-104272009D01*
X179822779Y-104272011D01*
X179906443Y-104428533D01*
X179923616Y-104485147D01*
X179957963Y-104598373D01*
X179975359Y-104775000D01*
X179957963Y-104951627D01*
X179923616Y-105064853D01*
X179906443Y-105121467D01*
X179837698Y-105250078D01*
X179822778Y-105277991D01*
X179793448Y-105313729D01*
X179710186Y-105415186D01*
X179608729Y-105498448D01*
X179572991Y-105527778D01*
X179572989Y-105527779D01*
X179416467Y-105611443D01*
X179409069Y-105613687D01*
X179246627Y-105662963D01*
X179180443Y-105669481D01*
X179114260Y-105676000D01*
X179025740Y-105676000D01*
X178959557Y-105669481D01*
X178893373Y-105662963D01*
X178730931Y-105613687D01*
X178723533Y-105611443D01*
X178567011Y-105527779D01*
X178567009Y-105527778D01*
X178531271Y-105498448D01*
X178429814Y-105415186D01*
X178346552Y-105313729D01*
X178317222Y-105277991D01*
X178302302Y-105250078D01*
X178233557Y-105121467D01*
X178216384Y-105064853D01*
X178182037Y-104951627D01*
X178164641Y-104775000D01*
X178182037Y-104598373D01*
X178216384Y-104485147D01*
X178233557Y-104428533D01*
X178317221Y-104272011D01*
X178317222Y-104272009D01*
X178346552Y-104236271D01*
X178429814Y-104134814D01*
X178531271Y-104051552D01*
X178567009Y-104022222D01*
X178636689Y-103984977D01*
X178723533Y-103938557D01*
X178780147Y-103921384D01*
X178893373Y-103887037D01*
X178959557Y-103880519D01*
X179025740Y-103874000D01*
X179114260Y-103874000D01*
X179180443Y-103880519D01*
X179180443Y-103880519D01*
G37*
G36*
X220611000Y-105676000D02*
X218809000Y-105676000D01*
X218809000Y-103874000D01*
X220611000Y-103874000D01*
X220611000Y-105676000D01*
X220611000Y-105676000D01*
G37*
G36*
X228816000Y-105626000D02*
X227114000Y-105626000D01*
X227114000Y-103924000D01*
X228816000Y-103924000D01*
X228816000Y-105626000D01*
X228816000Y-105626000D01*
G37*
G36*
X210751821Y-103936313D02*
X210751824Y-103936314D01*
X210751825Y-103936314D01*
X210912239Y-103984975D01*
X210912241Y-103984976D01*
X210912244Y-103984977D01*
X211060078Y-104063995D01*
X211189659Y-104170341D01*
X211296005Y-104299922D01*
X211375023Y-104447756D01*
X211375024Y-104447759D01*
X211375025Y-104447761D01*
X211420713Y-104598375D01*
X211423687Y-104608179D01*
X211440117Y-104775000D01*
X211423687Y-104941821D01*
X211423686Y-104941824D01*
X211423686Y-104941825D01*
X211420713Y-104951627D01*
X211375023Y-105102244D01*
X211296005Y-105250078D01*
X211189659Y-105379659D01*
X211060078Y-105486005D01*
X210912244Y-105565023D01*
X210912241Y-105565024D01*
X210912239Y-105565025D01*
X210751825Y-105613686D01*
X210751824Y-105613686D01*
X210751821Y-105613687D01*
X210626804Y-105626000D01*
X209743196Y-105626000D01*
X209618179Y-105613687D01*
X209618176Y-105613686D01*
X209618175Y-105613686D01*
X209457761Y-105565025D01*
X209457759Y-105565024D01*
X209457756Y-105565023D01*
X209309922Y-105486005D01*
X209180341Y-105379659D01*
X209073995Y-105250078D01*
X208994977Y-105102244D01*
X208949288Y-104951627D01*
X208946314Y-104941825D01*
X208946314Y-104941824D01*
X208946313Y-104941821D01*
X208929883Y-104775000D01*
X208946313Y-104608179D01*
X208949287Y-104598375D01*
X208994975Y-104447761D01*
X208994976Y-104447759D01*
X208994977Y-104447756D01*
X209073995Y-104299922D01*
X209180341Y-104170341D01*
X209309922Y-104063995D01*
X209457756Y-103984977D01*
X209457759Y-103984976D01*
X209457761Y-103984975D01*
X209618175Y-103936314D01*
X209618176Y-103936314D01*
X209618179Y-103936313D01*
X209743196Y-103924000D01*
X210626804Y-103924000D01*
X210751821Y-103936313D01*
X210751821Y-103936313D01*
G37*
G36*
X224321821Y-103936313D02*
X224321824Y-103936314D01*
X224321825Y-103936314D01*
X224482239Y-103984975D01*
X224482241Y-103984976D01*
X224482244Y-103984977D01*
X224630078Y-104063995D01*
X224759659Y-104170341D01*
X224866005Y-104299922D01*
X224945023Y-104447756D01*
X224945024Y-104447759D01*
X224945025Y-104447761D01*
X224990713Y-104598375D01*
X224993687Y-104608179D01*
X225010117Y-104775000D01*
X224993687Y-104941821D01*
X224993686Y-104941824D01*
X224993686Y-104941825D01*
X224990713Y-104951627D01*
X224945023Y-105102244D01*
X224866005Y-105250078D01*
X224759659Y-105379659D01*
X224630078Y-105486005D01*
X224482244Y-105565023D01*
X224482241Y-105565024D01*
X224482239Y-105565025D01*
X224321825Y-105613686D01*
X224321824Y-105613686D01*
X224321821Y-105613687D01*
X224196804Y-105626000D01*
X224113196Y-105626000D01*
X223988179Y-105613687D01*
X223988176Y-105613686D01*
X223988175Y-105613686D01*
X223827761Y-105565025D01*
X223827759Y-105565024D01*
X223827756Y-105565023D01*
X223679922Y-105486005D01*
X223550341Y-105379659D01*
X223443995Y-105250078D01*
X223364977Y-105102244D01*
X223319288Y-104951627D01*
X223316314Y-104941825D01*
X223316314Y-104941824D01*
X223316313Y-104941821D01*
X223299883Y-104775000D01*
X223316313Y-104608179D01*
X223319287Y-104598375D01*
X223364975Y-104447761D01*
X223364976Y-104447759D01*
X223364977Y-104447756D01*
X223443995Y-104299922D01*
X223550341Y-104170341D01*
X223679922Y-104063995D01*
X223827756Y-103984977D01*
X223827759Y-103984976D01*
X223827761Y-103984975D01*
X223988175Y-103936314D01*
X223988176Y-103936314D01*
X223988179Y-103936313D01*
X224113196Y-103924000D01*
X224196804Y-103924000D01*
X224321821Y-103936313D01*
X224321821Y-103936313D01*
G37*
G36*
X195511821Y-103936313D02*
X195511824Y-103936314D01*
X195511825Y-103936314D01*
X195672239Y-103984975D01*
X195672241Y-103984976D01*
X195672244Y-103984977D01*
X195820078Y-104063995D01*
X195949659Y-104170341D01*
X196056005Y-104299922D01*
X196135023Y-104447756D01*
X196135024Y-104447759D01*
X196135025Y-104447761D01*
X196180713Y-104598375D01*
X196183687Y-104608179D01*
X196200117Y-104775000D01*
X196183687Y-104941821D01*
X196183686Y-104941824D01*
X196183686Y-104941825D01*
X196180713Y-104951627D01*
X196135023Y-105102244D01*
X196056005Y-105250078D01*
X195949659Y-105379659D01*
X195820078Y-105486005D01*
X195672244Y-105565023D01*
X195672241Y-105565024D01*
X195672239Y-105565025D01*
X195511825Y-105613686D01*
X195511824Y-105613686D01*
X195511821Y-105613687D01*
X195386804Y-105626000D01*
X194503196Y-105626000D01*
X194378179Y-105613687D01*
X194378176Y-105613686D01*
X194378175Y-105613686D01*
X194217761Y-105565025D01*
X194217759Y-105565024D01*
X194217756Y-105565023D01*
X194069922Y-105486005D01*
X193940341Y-105379659D01*
X193833995Y-105250078D01*
X193754977Y-105102244D01*
X193709288Y-104951627D01*
X193706314Y-104941825D01*
X193706314Y-104941824D01*
X193706313Y-104941821D01*
X193689883Y-104775000D01*
X193706313Y-104608179D01*
X193709287Y-104598375D01*
X193754975Y-104447761D01*
X193754976Y-104447759D01*
X193754977Y-104447756D01*
X193833995Y-104299922D01*
X193940341Y-104170341D01*
X194069922Y-104063995D01*
X194217756Y-103984977D01*
X194217759Y-103984976D01*
X194217761Y-103984975D01*
X194378175Y-103936314D01*
X194378176Y-103936314D01*
X194378179Y-103936313D01*
X194503196Y-103924000D01*
X195386804Y-103924000D01*
X195511821Y-103936313D01*
X195511821Y-103936313D01*
G37*
G36*
X255356646Y-95222735D02*
X255707248Y-95367959D01*
X256203075Y-95573337D01*
X256962264Y-96080612D01*
X256964843Y-96082335D01*
X257612665Y-96730157D01*
X257612667Y-96730160D01*
X258121663Y-97491925D01*
X258289042Y-97896014D01*
X258472265Y-98338354D01*
X258651000Y-99236915D01*
X258651000Y-100153085D01*
X258472265Y-101051646D01*
X258355310Y-101334000D01*
X258121663Y-101898075D01*
X257677882Y-102562239D01*
X257612665Y-102659843D01*
X256964843Y-103307665D01*
X256964840Y-103307667D01*
X256203075Y-103816663D01*
X255796728Y-103984977D01*
X255356646Y-104167265D01*
X254458085Y-104346000D01*
X253541915Y-104346000D01*
X252643354Y-104167265D01*
X252203272Y-103984977D01*
X251796925Y-103816663D01*
X251035160Y-103307667D01*
X251035157Y-103307665D01*
X250387335Y-102659843D01*
X250322118Y-102562239D01*
X249878337Y-101898075D01*
X249644690Y-101334000D01*
X249527735Y-101051646D01*
X249349000Y-100153085D01*
X249349000Y-99236915D01*
X249527735Y-98338354D01*
X249710958Y-97896014D01*
X249878337Y-97491925D01*
X250387333Y-96730160D01*
X250387335Y-96730157D01*
X251035157Y-96082335D01*
X251037736Y-96080612D01*
X251796925Y-95573337D01*
X252292752Y-95367959D01*
X252643354Y-95222735D01*
X253541915Y-95044000D01*
X254458085Y-95044000D01*
X255356646Y-95222735D01*
X255356646Y-95222735D01*
G37*
G36*
X219820442Y-101340518D02*
X219886627Y-101347037D01*
X219999853Y-101381384D01*
X220056467Y-101398557D01*
X220143311Y-101444977D01*
X220212991Y-101482222D01*
X220248729Y-101511552D01*
X220350186Y-101594814D01*
X220430369Y-101692519D01*
X220462778Y-101732009D01*
X220462779Y-101732011D01*
X220546443Y-101888533D01*
X220563616Y-101945147D01*
X220597963Y-102058373D01*
X220615359Y-102235000D01*
X220597963Y-102411627D01*
X220576243Y-102483228D01*
X220546443Y-102581467D01*
X220477698Y-102710078D01*
X220462778Y-102737991D01*
X220433448Y-102773729D01*
X220350186Y-102875186D01*
X220248729Y-102958448D01*
X220212991Y-102987778D01*
X220212989Y-102987779D01*
X220056467Y-103071443D01*
X220049069Y-103073687D01*
X219886627Y-103122963D01*
X219820442Y-103129482D01*
X219754260Y-103136000D01*
X219665740Y-103136000D01*
X219599558Y-103129482D01*
X219533373Y-103122963D01*
X219370931Y-103073687D01*
X219363533Y-103071443D01*
X219207011Y-102987779D01*
X219207009Y-102987778D01*
X219171271Y-102958448D01*
X219069814Y-102875186D01*
X218986552Y-102773729D01*
X218957222Y-102737991D01*
X218942302Y-102710078D01*
X218873557Y-102581467D01*
X218843757Y-102483228D01*
X218822037Y-102411627D01*
X218804641Y-102235000D01*
X218822037Y-102058373D01*
X218856384Y-101945147D01*
X218873557Y-101888533D01*
X218957221Y-101732011D01*
X218957222Y-101732009D01*
X218989631Y-101692519D01*
X219069814Y-101594814D01*
X219171271Y-101511552D01*
X219207009Y-101482222D01*
X219276689Y-101444977D01*
X219363533Y-101398557D01*
X219420147Y-101381384D01*
X219533373Y-101347037D01*
X219599558Y-101340518D01*
X219665740Y-101334000D01*
X219754260Y-101334000D01*
X219820442Y-101340518D01*
X219820442Y-101340518D01*
G37*
G36*
X179180442Y-101340518D02*
X179246627Y-101347037D01*
X179359853Y-101381384D01*
X179416467Y-101398557D01*
X179503311Y-101444977D01*
X179572991Y-101482222D01*
X179608729Y-101511552D01*
X179710186Y-101594814D01*
X179790369Y-101692519D01*
X179822778Y-101732009D01*
X179822779Y-101732011D01*
X179906443Y-101888533D01*
X179923616Y-101945147D01*
X179957963Y-102058373D01*
X179975359Y-102235000D01*
X179957963Y-102411627D01*
X179936243Y-102483228D01*
X179906443Y-102581467D01*
X179837698Y-102710078D01*
X179822778Y-102737991D01*
X179793448Y-102773729D01*
X179710186Y-102875186D01*
X179608729Y-102958448D01*
X179572991Y-102987778D01*
X179572989Y-102987779D01*
X179416467Y-103071443D01*
X179409069Y-103073687D01*
X179246627Y-103122963D01*
X179180442Y-103129482D01*
X179114260Y-103136000D01*
X179025740Y-103136000D01*
X178959558Y-103129482D01*
X178893373Y-103122963D01*
X178730931Y-103073687D01*
X178723533Y-103071443D01*
X178567011Y-102987779D01*
X178567009Y-102987778D01*
X178531271Y-102958448D01*
X178429814Y-102875186D01*
X178346552Y-102773729D01*
X178317222Y-102737991D01*
X178302302Y-102710078D01*
X178233557Y-102581467D01*
X178203757Y-102483228D01*
X178182037Y-102411627D01*
X178164641Y-102235000D01*
X178182037Y-102058373D01*
X178216384Y-101945147D01*
X178233557Y-101888533D01*
X178317221Y-101732011D01*
X178317222Y-101732009D01*
X178349631Y-101692519D01*
X178429814Y-101594814D01*
X178531271Y-101511552D01*
X178567009Y-101482222D01*
X178636689Y-101444977D01*
X178723533Y-101398557D01*
X178780147Y-101381384D01*
X178893373Y-101347037D01*
X178959558Y-101340518D01*
X179025740Y-101334000D01*
X179114260Y-101334000D01*
X179180442Y-101340518D01*
X179180442Y-101340518D01*
G37*
G36*
X195511821Y-101396313D02*
X195511824Y-101396314D01*
X195511825Y-101396314D01*
X195672239Y-101444975D01*
X195672241Y-101444976D01*
X195672244Y-101444977D01*
X195820078Y-101523995D01*
X195949659Y-101630341D01*
X196056005Y-101759922D01*
X196135023Y-101907756D01*
X196135024Y-101907759D01*
X196135025Y-101907761D01*
X196180713Y-102058375D01*
X196183687Y-102068179D01*
X196200117Y-102235000D01*
X196183687Y-102401821D01*
X196183686Y-102401824D01*
X196183686Y-102401825D01*
X196158993Y-102483228D01*
X196135023Y-102562244D01*
X196056005Y-102710078D01*
X195949659Y-102839659D01*
X195820078Y-102946005D01*
X195672244Y-103025023D01*
X195672241Y-103025024D01*
X195672239Y-103025025D01*
X195511825Y-103073686D01*
X195511824Y-103073686D01*
X195511821Y-103073687D01*
X195386804Y-103086000D01*
X194503196Y-103086000D01*
X194378179Y-103073687D01*
X194378176Y-103073686D01*
X194378175Y-103073686D01*
X194217761Y-103025025D01*
X194217759Y-103025024D01*
X194217756Y-103025023D01*
X194069922Y-102946005D01*
X193940341Y-102839659D01*
X193833995Y-102710078D01*
X193754977Y-102562244D01*
X193731008Y-102483228D01*
X193706314Y-102401825D01*
X193706314Y-102401824D01*
X193706313Y-102401821D01*
X193689883Y-102235000D01*
X193706313Y-102068179D01*
X193709287Y-102058375D01*
X193754975Y-101907761D01*
X193754976Y-101907759D01*
X193754977Y-101907756D01*
X193833995Y-101759922D01*
X193940341Y-101630341D01*
X194069922Y-101523995D01*
X194217756Y-101444977D01*
X194217759Y-101444976D01*
X194217761Y-101444975D01*
X194378175Y-101396314D01*
X194378176Y-101396314D01*
X194378179Y-101396313D01*
X194503196Y-101384000D01*
X195386804Y-101384000D01*
X195511821Y-101396313D01*
X195511821Y-101396313D01*
G37*
G36*
X231941821Y-101396313D02*
X231941824Y-101396314D01*
X231941825Y-101396314D01*
X232102239Y-101444975D01*
X232102241Y-101444976D01*
X232102244Y-101444977D01*
X232250078Y-101523995D01*
X232379659Y-101630341D01*
X232486005Y-101759922D01*
X232565023Y-101907756D01*
X232565024Y-101907759D01*
X232565025Y-101907761D01*
X232610713Y-102058375D01*
X232613687Y-102068179D01*
X232630117Y-102235000D01*
X232613687Y-102401821D01*
X232613686Y-102401824D01*
X232613686Y-102401825D01*
X232588993Y-102483228D01*
X232565023Y-102562244D01*
X232486005Y-102710078D01*
X232379659Y-102839659D01*
X232250078Y-102946005D01*
X232102244Y-103025023D01*
X232102241Y-103025024D01*
X232102239Y-103025025D01*
X231941825Y-103073686D01*
X231941824Y-103073686D01*
X231941821Y-103073687D01*
X231816804Y-103086000D01*
X231733196Y-103086000D01*
X231608179Y-103073687D01*
X231608176Y-103073686D01*
X231608175Y-103073686D01*
X231447761Y-103025025D01*
X231447759Y-103025024D01*
X231447756Y-103025023D01*
X231299922Y-102946005D01*
X231170341Y-102839659D01*
X231063995Y-102710078D01*
X230984977Y-102562244D01*
X230961008Y-102483228D01*
X230936314Y-102401825D01*
X230936314Y-102401824D01*
X230936313Y-102401821D01*
X230919883Y-102235000D01*
X230936313Y-102068179D01*
X230939287Y-102058375D01*
X230984975Y-101907761D01*
X230984976Y-101907759D01*
X230984977Y-101907756D01*
X231063995Y-101759922D01*
X231170341Y-101630341D01*
X231299922Y-101523995D01*
X231447756Y-101444977D01*
X231447759Y-101444976D01*
X231447761Y-101444975D01*
X231608175Y-101396314D01*
X231608176Y-101396314D01*
X231608179Y-101396313D01*
X231733196Y-101384000D01*
X231816804Y-101384000D01*
X231941821Y-101396313D01*
X231941821Y-101396313D01*
G37*
G36*
X214878228Y-101416703D02*
X215033100Y-101480853D01*
X215172481Y-101573985D01*
X215291015Y-101692519D01*
X215384147Y-101831900D01*
X215448297Y-101986772D01*
X215481000Y-102151184D01*
X215481000Y-102318816D01*
X215448297Y-102483228D01*
X215384147Y-102638100D01*
X215291015Y-102777481D01*
X215172481Y-102896015D01*
X215033100Y-102989147D01*
X214878228Y-103053297D01*
X214713816Y-103086000D01*
X214546184Y-103086000D01*
X214381772Y-103053297D01*
X214226900Y-102989147D01*
X214087519Y-102896015D01*
X213968985Y-102777481D01*
X213875853Y-102638100D01*
X213811703Y-102483228D01*
X213779000Y-102318816D01*
X213779000Y-102151184D01*
X213811703Y-101986772D01*
X213875853Y-101831900D01*
X213968985Y-101692519D01*
X214087519Y-101573985D01*
X214226900Y-101480853D01*
X214381772Y-101416703D01*
X214546184Y-101384000D01*
X214713816Y-101384000D01*
X214878228Y-101416703D01*
X214878228Y-101416703D01*
G37*
G36*
X185033228Y-101416703D02*
X185188100Y-101480853D01*
X185327481Y-101573985D01*
X185446015Y-101692519D01*
X185539147Y-101831900D01*
X185603297Y-101986772D01*
X185636000Y-102151184D01*
X185636000Y-102318816D01*
X185603297Y-102483228D01*
X185539147Y-102638100D01*
X185446015Y-102777481D01*
X185327481Y-102896015D01*
X185188100Y-102989147D01*
X185033228Y-103053297D01*
X184868816Y-103086000D01*
X184701184Y-103086000D01*
X184536772Y-103053297D01*
X184381900Y-102989147D01*
X184242519Y-102896015D01*
X184123985Y-102777481D01*
X184030853Y-102638100D01*
X183966703Y-102483228D01*
X183934000Y-102318816D01*
X183934000Y-102151184D01*
X183966703Y-101986772D01*
X184030853Y-101831900D01*
X184123985Y-101692519D01*
X184242519Y-101573985D01*
X184381900Y-101480853D01*
X184536772Y-101416703D01*
X184701184Y-101384000D01*
X184868816Y-101384000D01*
X185033228Y-101416703D01*
X185033228Y-101416703D01*
G37*
G36*
X210751821Y-101396313D02*
X210751824Y-101396314D01*
X210751825Y-101396314D01*
X210912239Y-101444975D01*
X210912241Y-101444976D01*
X210912244Y-101444977D01*
X211060078Y-101523995D01*
X211189659Y-101630341D01*
X211296005Y-101759922D01*
X211375023Y-101907756D01*
X211375024Y-101907759D01*
X211375025Y-101907761D01*
X211420713Y-102058375D01*
X211423687Y-102068179D01*
X211440117Y-102235000D01*
X211423687Y-102401821D01*
X211423686Y-102401824D01*
X211423686Y-102401825D01*
X211398993Y-102483228D01*
X211375023Y-102562244D01*
X211296005Y-102710078D01*
X211189659Y-102839659D01*
X211060078Y-102946005D01*
X210912244Y-103025023D01*
X210912241Y-103025024D01*
X210912239Y-103025025D01*
X210751825Y-103073686D01*
X210751824Y-103073686D01*
X210751821Y-103073687D01*
X210626804Y-103086000D01*
X209743196Y-103086000D01*
X209618179Y-103073687D01*
X209618176Y-103073686D01*
X209618175Y-103073686D01*
X209457761Y-103025025D01*
X209457759Y-103025024D01*
X209457756Y-103025023D01*
X209309922Y-102946005D01*
X209180341Y-102839659D01*
X209073995Y-102710078D01*
X208994977Y-102562244D01*
X208971008Y-102483228D01*
X208946314Y-102401825D01*
X208946314Y-102401824D01*
X208946313Y-102401821D01*
X208929883Y-102235000D01*
X208946313Y-102068179D01*
X208949287Y-102058375D01*
X208994975Y-101907761D01*
X208994976Y-101907759D01*
X208994977Y-101907756D01*
X209073995Y-101759922D01*
X209180341Y-101630341D01*
X209309922Y-101523995D01*
X209457756Y-101444977D01*
X209457759Y-101444976D01*
X209457761Y-101444975D01*
X209618175Y-101396314D01*
X209618176Y-101396314D01*
X209618179Y-101396313D01*
X209743196Y-101384000D01*
X210626804Y-101384000D01*
X210751821Y-101396313D01*
X210751821Y-101396313D01*
G37*
G36*
X195511821Y-98856313D02*
X195511824Y-98856314D01*
X195511825Y-98856314D01*
X195672239Y-98904975D01*
X195672241Y-98904976D01*
X195672244Y-98904977D01*
X195820078Y-98983995D01*
X195949659Y-99090341D01*
X196056005Y-99219922D01*
X196135023Y-99367756D01*
X196183687Y-99528179D01*
X196200117Y-99695000D01*
X196183687Y-99861821D01*
X196135023Y-100022244D01*
X196056005Y-100170078D01*
X195949659Y-100299659D01*
X195820078Y-100406005D01*
X195672244Y-100485023D01*
X195672241Y-100485024D01*
X195672239Y-100485025D01*
X195511825Y-100533686D01*
X195511824Y-100533686D01*
X195511821Y-100533687D01*
X195386804Y-100546000D01*
X194503196Y-100546000D01*
X194378179Y-100533687D01*
X194378176Y-100533686D01*
X194378175Y-100533686D01*
X194217761Y-100485025D01*
X194217759Y-100485024D01*
X194217756Y-100485023D01*
X194069922Y-100406005D01*
X193940341Y-100299659D01*
X193833995Y-100170078D01*
X193754977Y-100022244D01*
X193706313Y-99861821D01*
X193689883Y-99695000D01*
X193706313Y-99528179D01*
X193754977Y-99367756D01*
X193833995Y-99219922D01*
X193940341Y-99090341D01*
X194069922Y-98983995D01*
X194217756Y-98904977D01*
X194217759Y-98904976D01*
X194217761Y-98904975D01*
X194378175Y-98856314D01*
X194378176Y-98856314D01*
X194378179Y-98856313D01*
X194503196Y-98844000D01*
X195386804Y-98844000D01*
X195511821Y-98856313D01*
X195511821Y-98856313D01*
G37*
G36*
X210751821Y-98856313D02*
X210751824Y-98856314D01*
X210751825Y-98856314D01*
X210912239Y-98904975D01*
X210912241Y-98904976D01*
X210912244Y-98904977D01*
X211060078Y-98983995D01*
X211189659Y-99090341D01*
X211296005Y-99219922D01*
X211375023Y-99367756D01*
X211423687Y-99528179D01*
X211440117Y-99695000D01*
X211423687Y-99861821D01*
X211375023Y-100022244D01*
X211296005Y-100170078D01*
X211189659Y-100299659D01*
X211060078Y-100406005D01*
X210912244Y-100485023D01*
X210912241Y-100485024D01*
X210912239Y-100485025D01*
X210751825Y-100533686D01*
X210751824Y-100533686D01*
X210751821Y-100533687D01*
X210626804Y-100546000D01*
X209743196Y-100546000D01*
X209618179Y-100533687D01*
X209618176Y-100533686D01*
X209618175Y-100533686D01*
X209457761Y-100485025D01*
X209457759Y-100485024D01*
X209457756Y-100485023D01*
X209309922Y-100406005D01*
X209180341Y-100299659D01*
X209073995Y-100170078D01*
X208994977Y-100022244D01*
X208946313Y-99861821D01*
X208929883Y-99695000D01*
X208946313Y-99528179D01*
X208994977Y-99367756D01*
X209073995Y-99219922D01*
X209180341Y-99090341D01*
X209309922Y-98983995D01*
X209457756Y-98904977D01*
X209457759Y-98904976D01*
X209457761Y-98904975D01*
X209618175Y-98856314D01*
X209618176Y-98856314D01*
X209618179Y-98856313D01*
X209743196Y-98844000D01*
X210626804Y-98844000D01*
X210751821Y-98856313D01*
X210751821Y-98856313D01*
G37*
G36*
X240775442Y-96895518D02*
X240841627Y-96902037D01*
X240954853Y-96936384D01*
X241011467Y-96953557D01*
X241076239Y-96988179D01*
X241167991Y-97037222D01*
X241198769Y-97062481D01*
X241305186Y-97149814D01*
X241388448Y-97251271D01*
X241417778Y-97287009D01*
X241417779Y-97287011D01*
X241501443Y-97443533D01*
X241501443Y-97443534D01*
X241552963Y-97613373D01*
X241570359Y-97790000D01*
X241552963Y-97966627D01*
X241544754Y-97993687D01*
X241501443Y-98136467D01*
X241427348Y-98275087D01*
X241417778Y-98292991D01*
X241388448Y-98328729D01*
X241305186Y-98430186D01*
X241203729Y-98513448D01*
X241167991Y-98542778D01*
X241167989Y-98542779D01*
X241011467Y-98626443D01*
X240954853Y-98643616D01*
X240841627Y-98677963D01*
X240775442Y-98684482D01*
X240709260Y-98691000D01*
X240620740Y-98691000D01*
X240554558Y-98684482D01*
X240488373Y-98677963D01*
X240375147Y-98643616D01*
X240318533Y-98626443D01*
X240162011Y-98542779D01*
X240162009Y-98542778D01*
X240126271Y-98513448D01*
X240024814Y-98430186D01*
X239941552Y-98328729D01*
X239912222Y-98292991D01*
X239902652Y-98275087D01*
X239828557Y-98136467D01*
X239785246Y-97993687D01*
X239777037Y-97966627D01*
X239759641Y-97790000D01*
X239777037Y-97613373D01*
X239828557Y-97443534D01*
X239828557Y-97443533D01*
X239912221Y-97287011D01*
X239912222Y-97287009D01*
X239941552Y-97251271D01*
X240024814Y-97149814D01*
X240131231Y-97062481D01*
X240162009Y-97037222D01*
X240253761Y-96988179D01*
X240318533Y-96953557D01*
X240375147Y-96936384D01*
X240488373Y-96902037D01*
X240554558Y-96895518D01*
X240620740Y-96889000D01*
X240709260Y-96889000D01*
X240775442Y-96895518D01*
X240775442Y-96895518D01*
G37*
G36*
X244106000Y-98691000D02*
X242304000Y-98691000D01*
X242304000Y-96889000D01*
X244106000Y-96889000D01*
X244106000Y-98691000D01*
X244106000Y-98691000D01*
G37*
G36*
X214878228Y-96416703D02*
X215033100Y-96480853D01*
X215172481Y-96573985D01*
X215291015Y-96692519D01*
X215384147Y-96831900D01*
X215448297Y-96986772D01*
X215481000Y-97151184D01*
X215481000Y-97318816D01*
X215448297Y-97483228D01*
X215384147Y-97638100D01*
X215291015Y-97777481D01*
X215172481Y-97896015D01*
X215033100Y-97989147D01*
X214878228Y-98053297D01*
X214713816Y-98086000D01*
X214546184Y-98086000D01*
X214381772Y-98053297D01*
X214226900Y-97989147D01*
X214087519Y-97896015D01*
X213968985Y-97777481D01*
X213875853Y-97638100D01*
X213811703Y-97483228D01*
X213779000Y-97318816D01*
X213779000Y-97151184D01*
X213811703Y-96986772D01*
X213875853Y-96831900D01*
X213968985Y-96692519D01*
X214087519Y-96573985D01*
X214226900Y-96480853D01*
X214381772Y-96416703D01*
X214546184Y-96384000D01*
X214713816Y-96384000D01*
X214878228Y-96416703D01*
X214878228Y-96416703D01*
G37*
G36*
X225006000Y-98006000D02*
X223304000Y-98006000D01*
X223304000Y-96304000D01*
X225006000Y-96304000D01*
X225006000Y-98006000D01*
X225006000Y-98006000D01*
G37*
G36*
X210751821Y-96316313D02*
X210751824Y-96316314D01*
X210751825Y-96316314D01*
X210912239Y-96364975D01*
X210912241Y-96364976D01*
X210912244Y-96364977D01*
X211060078Y-96443995D01*
X211189659Y-96550341D01*
X211296005Y-96679922D01*
X211375023Y-96827756D01*
X211375024Y-96827759D01*
X211375025Y-96827761D01*
X211423260Y-96986772D01*
X211423687Y-96988179D01*
X211440117Y-97155000D01*
X211423687Y-97321821D01*
X211423686Y-97321824D01*
X211423686Y-97321825D01*
X211418690Y-97338296D01*
X211375023Y-97482244D01*
X211296005Y-97630078D01*
X211189659Y-97759659D01*
X211060078Y-97866005D01*
X210912244Y-97945023D01*
X210912241Y-97945024D01*
X210912239Y-97945025D01*
X210751825Y-97993686D01*
X210751824Y-97993686D01*
X210751821Y-97993687D01*
X210626804Y-98006000D01*
X209743196Y-98006000D01*
X209618179Y-97993687D01*
X209618176Y-97993686D01*
X209618175Y-97993686D01*
X209457761Y-97945025D01*
X209457759Y-97945024D01*
X209457756Y-97945023D01*
X209309922Y-97866005D01*
X209180341Y-97759659D01*
X209073995Y-97630078D01*
X208994977Y-97482244D01*
X208951311Y-97338296D01*
X208946314Y-97321825D01*
X208946314Y-97321824D01*
X208946313Y-97321821D01*
X208929883Y-97155000D01*
X208946313Y-96988179D01*
X208946740Y-96986772D01*
X208994975Y-96827761D01*
X208994976Y-96827759D01*
X208994977Y-96827756D01*
X209073995Y-96679922D01*
X209180341Y-96550341D01*
X209309922Y-96443995D01*
X209457756Y-96364977D01*
X209457759Y-96364976D01*
X209457761Y-96364975D01*
X209618175Y-96316314D01*
X209618176Y-96316314D01*
X209618179Y-96316313D01*
X209743196Y-96304000D01*
X210626804Y-96304000D01*
X210751821Y-96316313D01*
X210751821Y-96316313D01*
G37*
G36*
X196196000Y-98006000D02*
X193694000Y-98006000D01*
X193694000Y-96304000D01*
X196196000Y-96304000D01*
X196196000Y-98006000D01*
X196196000Y-98006000D01*
G37*
G36*
X179236821Y-95681313D02*
X179236824Y-95681314D01*
X179236825Y-95681314D01*
X179397239Y-95729975D01*
X179397241Y-95729976D01*
X179397244Y-95729977D01*
X179545078Y-95808995D01*
X179674659Y-95915341D01*
X179781005Y-96044922D01*
X179860023Y-96192756D01*
X179860024Y-96192759D01*
X179860025Y-96192761D01*
X179893769Y-96304000D01*
X179908687Y-96353179D01*
X179925117Y-96520000D01*
X179908687Y-96686821D01*
X179908686Y-96686824D01*
X179908686Y-96686825D01*
X179865934Y-96827761D01*
X179860023Y-96847244D01*
X179781005Y-96995078D01*
X179674659Y-97124659D01*
X179545078Y-97231005D01*
X179397244Y-97310023D01*
X179397241Y-97310024D01*
X179397239Y-97310025D01*
X179236825Y-97358686D01*
X179236824Y-97358686D01*
X179236821Y-97358687D01*
X179111804Y-97371000D01*
X179028196Y-97371000D01*
X178903179Y-97358687D01*
X178903176Y-97358686D01*
X178903175Y-97358686D01*
X178742761Y-97310025D01*
X178742759Y-97310024D01*
X178742756Y-97310023D01*
X178594922Y-97231005D01*
X178465341Y-97124659D01*
X178358995Y-96995078D01*
X178279977Y-96847244D01*
X178274067Y-96827761D01*
X178231314Y-96686825D01*
X178231314Y-96686824D01*
X178231313Y-96686821D01*
X178214883Y-96520000D01*
X178231313Y-96353179D01*
X178246231Y-96304000D01*
X178279975Y-96192761D01*
X178279976Y-96192759D01*
X178279977Y-96192756D01*
X178358995Y-96044922D01*
X178465341Y-95915341D01*
X178594922Y-95808995D01*
X178742756Y-95729977D01*
X178742759Y-95729976D01*
X178742761Y-95729975D01*
X178903175Y-95681314D01*
X178903176Y-95681314D01*
X178903179Y-95681313D01*
X179028196Y-95669000D01*
X179111804Y-95669000D01*
X179236821Y-95681313D01*
X179236821Y-95681313D01*
G37*
G36*
X189478228Y-95701703D02*
X189633100Y-95765853D01*
X189772481Y-95858985D01*
X189891015Y-95977519D01*
X189984147Y-96116900D01*
X190048297Y-96271772D01*
X190081000Y-96436184D01*
X190081000Y-96603816D01*
X190048297Y-96768228D01*
X189984147Y-96923100D01*
X189891015Y-97062481D01*
X189772481Y-97181015D01*
X189633100Y-97274147D01*
X189478228Y-97338297D01*
X189313816Y-97371000D01*
X189146184Y-97371000D01*
X188981772Y-97338297D01*
X188826900Y-97274147D01*
X188687519Y-97181015D01*
X188568985Y-97062481D01*
X188475853Y-96923100D01*
X188411703Y-96768228D01*
X188379000Y-96603816D01*
X188379000Y-96436184D01*
X188411703Y-96271772D01*
X188475853Y-96116900D01*
X188568985Y-95977519D01*
X188687519Y-95858985D01*
X188826900Y-95765853D01*
X188981772Y-95701703D01*
X189146184Y-95669000D01*
X189313816Y-95669000D01*
X189478228Y-95701703D01*
X189478228Y-95701703D01*
G37*
M02*
