M48
;DRILL file {KiCad (5.0.1)-4} date 14/05/2019 08:42:32
;FORMAT={-:-/ absolute / metric / decimal}
FMAT,2
METRIC,TZ
T1C0.800
T2C1.000
T3C5.300
%
G90
G05
M71
T1
X194.945Y-97.155
X194.945Y-99.695
X194.945Y-102.235
X194.945Y-104.775
X194.945Y-107.315
X194.945Y-109.855
X194.945Y-112.395
X194.945Y-114.935
X194.945Y-117.475
X194.945Y-120.015
X194.945Y-122.555
X194.945Y-125.095
X194.945Y-127.635
X194.945Y-130.175
X194.945Y-132.715
X194.945Y-135.255
X194.945Y-137.795
X194.945Y-140.335
X194.945Y-142.875
X194.945Y-145.415
X210.185Y-97.155
X210.185Y-99.695
X210.185Y-102.235
X210.185Y-104.775
X210.185Y-107.315
X210.185Y-109.855
X210.185Y-112.395
X210.185Y-114.935
X210.185Y-117.475
X210.185Y-120.015
X210.185Y-122.555
X210.185Y-125.095
X210.185Y-127.635
X210.185Y-130.175
X210.185Y-132.715
X210.185Y-135.255
X210.185Y-137.795
X210.185Y-140.335
X210.185Y-142.875
X210.185Y-145.415
X225.505Y-145.415
X230.505Y-145.415
X227.965Y-104.775
X227.965Y-112.395
X187.96Y-121.285
X187.96Y-126.285
X184.785Y-102.235
X184.785Y-107.235
X224.155Y-97.155
X224.155Y-104.775
X179.07Y-96.52
X189.23Y-96.52
X222.885Y-130.81
X222.885Y-133.35
X222.885Y-135.89
X222.885Y-138.43
X230.505Y-130.81
X230.505Y-133.35
X230.505Y-135.89
X230.505Y-138.43
X231.775Y-102.235
X231.775Y-112.395
X238.125Y-113.03
X238.125Y-123.19
X214.63Y-97.235
X214.63Y-102.235
X236.855Y-138.43
X247.015Y-138.43
X242.57Y-113.03
X242.57Y-123.19
X222.885Y-118.11
X222.885Y-120.65
X222.885Y-123.19
X222.885Y-125.73
X230.505Y-118.11
X230.505Y-120.65
X230.505Y-123.19
X230.505Y-125.73
T2
X180.975Y-121.285
X180.975Y-123.825
X219.71Y-102.235
X219.71Y-104.775
X217.17Y-114.935
X217.17Y-117.475
X242.65Y-130.81
X247.65Y-130.81
X240.665Y-97.79
X243.205Y-97.79
X238.125Y-107.95
X243.125Y-107.95
X236.855Y-130.81
X236.855Y-133.35
X253.365Y-128.27
X253.365Y-130.81
X187.96Y-140.335
X187.96Y-142.875
X187.96Y-145.415
X179.07Y-102.235
X179.07Y-104.775
X179.07Y-107.315
X179.07Y-109.855
X179.07Y-112.395
X179.07Y-114.935
X179.07Y-130.175
X179.07Y-135.175
T3
X177.8Y-146.05
X254.Y-99.695
X253.365Y-146.05
T0
M30
