G04 #@! TF.GenerationSoftware,KiCad,Pcbnew,(5.0.1)-4*
G04 #@! TF.CreationDate,2019-05-14T08:42:29+02:00*
G04 #@! TF.ProjectId,carte_filtre,63617274655F66696C7472652E6B6963,rev?*
G04 #@! TF.SameCoordinates,Original*
G04 #@! TF.FileFunction,Copper,L1,Top,Signal*
G04 #@! TF.FilePolarity,Positive*
%FSLAX46Y46*%
G04 Gerber Fmt 4.6, Leading zero omitted, Abs format (unit mm)*
G04 Created by KiCad (PCBNEW (5.0.1)-4) date 14/05/2019 08:42:29*
%MOMM*%
%LPD*%
G01*
G04 APERTURE LIST*
G04 #@! TA.AperFunction,ComponentPad*
%ADD10R,2.000000X2.000000*%
G04 #@! TD*
G04 #@! TA.AperFunction,ComponentPad*
%ADD11C,2.000000*%
G04 #@! TD*
G04 #@! TA.AperFunction,ComponentPad*
%ADD12C,1.600000*%
G04 #@! TD*
G04 #@! TA.AperFunction,ComponentPad*
%ADD13R,2.400000X1.600000*%
G04 #@! TD*
G04 #@! TA.AperFunction,ComponentPad*
%ADD14O,2.400000X1.600000*%
G04 #@! TD*
G04 #@! TA.AperFunction,ComponentPad*
%ADD15C,9.200000*%
G04 #@! TD*
G04 #@! TA.AperFunction,ComponentPad*
%ADD16O,1.600000X1.600000*%
G04 #@! TD*
G04 #@! TA.AperFunction,ComponentPad*
%ADD17R,1.600000X1.600000*%
G04 #@! TD*
G04 #@! TA.AperFunction,ComponentPad*
%ADD18R,1.700000X1.700000*%
G04 #@! TD*
G04 #@! TA.AperFunction,ComponentPad*
%ADD19O,1.700000X1.700000*%
G04 #@! TD*
G04 APERTURE END LIST*
D10*
G04 #@! TO.P,C7,1*
G04 #@! TO.N,VDD*
X179070000Y-130175000D03*
D11*
G04 #@! TO.P,C7,2*
G04 #@! TO.N,GND*
X179070000Y-135175000D03*
G04 #@! TD*
D12*
G04 #@! TO.P,C4,1*
G04 #@! TO.N,VDD*
X225505000Y-145415000D03*
G04 #@! TO.P,C4,2*
G04 #@! TO.N,GND*
X230505000Y-145415000D03*
G04 #@! TD*
D13*
G04 #@! TO.P,U3,1*
G04 #@! TO.N,VDD*
X230505000Y-125730000D03*
D14*
G04 #@! TO.P,U3,5*
G04 #@! TO.N,ADC_CS*
X222885000Y-118110000D03*
G04 #@! TO.P,U3,2*
G04 #@! TO.N,ANALOG_IN*
X230505000Y-123190000D03*
G04 #@! TO.P,U3,6*
G04 #@! TO.N,MISO_SPI*
X222885000Y-120650000D03*
G04 #@! TO.P,U3,3*
G04 #@! TO.N,GND*
X230505000Y-120650000D03*
G04 #@! TO.P,U3,7*
G04 #@! TO.N,SCK_SPI*
X222885000Y-123190000D03*
G04 #@! TO.P,U3,4*
G04 #@! TO.N,GND*
X230505000Y-118110000D03*
G04 #@! TO.P,U3,8*
G04 #@! TO.N,VDD*
X222885000Y-125730000D03*
G04 #@! TD*
D15*
G04 #@! TO.P,H,1*
G04 #@! TO.N,N/C*
X253365000Y-146050000D03*
G04 #@! TD*
G04 #@! TO.P,REF\002A\002A,1*
G04 #@! TO.N,N/C*
X177800000Y-146050000D03*
G04 #@! TD*
D12*
G04 #@! TO.P,C1,1*
G04 #@! TO.N,GND*
X184785000Y-107235000D03*
G04 #@! TO.P,C1,2*
G04 #@! TO.N,MCLR*
X184785000Y-102235000D03*
G04 #@! TD*
G04 #@! TO.P,C2,2*
G04 #@! TO.N,GND*
X214630000Y-102235000D03*
G04 #@! TO.P,C2,1*
G04 #@! TO.N,VDD*
X214630000Y-97235000D03*
G04 #@! TD*
G04 #@! TO.P,C3,2*
G04 #@! TO.N,GND*
X187960000Y-126285000D03*
G04 #@! TO.P,C3,1*
G04 #@! TO.N,VDD*
X187960000Y-121285000D03*
G04 #@! TD*
D11*
G04 #@! TO.P,C5,1*
G04 #@! TO.N,Net-(C5-Pad1)*
X238125000Y-107950000D03*
G04 #@! TO.P,C5,2*
G04 #@! TO.N,ANALOG_IN_NOT_FILTERED*
X243125000Y-107950000D03*
G04 #@! TD*
G04 #@! TO.P,C6,1*
G04 #@! TO.N,ANALOG_OUT*
X247650000Y-130810000D03*
G04 #@! TO.P,C6,2*
G04 #@! TO.N,ANALOG_OUT_MOY*
X242650000Y-130810000D03*
G04 #@! TD*
D16*
G04 #@! TO.P,D1,2*
G04 #@! TO.N,ANALOG_IN*
X224155000Y-104775000D03*
D17*
G04 #@! TO.P,D1,1*
G04 #@! TO.N,VDD*
X224155000Y-97155000D03*
G04 #@! TD*
G04 #@! TO.P,D2,1*
G04 #@! TO.N,ANALOG_IN*
X227965000Y-104775000D03*
D16*
G04 #@! TO.P,D2,2*
G04 #@! TO.N,GND*
X227965000Y-112395000D03*
G04 #@! TD*
D18*
G04 #@! TO.P,J1,1*
G04 #@! TO.N,GND*
X180975000Y-123825000D03*
D19*
G04 #@! TO.P,J1,2*
G04 #@! TO.N,VDD*
X180975000Y-121285000D03*
G04 #@! TD*
D18*
G04 #@! TO.P,J2,1*
G04 #@! TO.N,Net-(J2-Pad1)*
X179070000Y-114935000D03*
D19*
G04 #@! TO.P,J2,2*
G04 #@! TO.N,PGC*
X179070000Y-112395000D03*
G04 #@! TO.P,J2,3*
G04 #@! TO.N,PGD*
X179070000Y-109855000D03*
G04 #@! TO.P,J2,4*
G04 #@! TO.N,GND*
X179070000Y-107315000D03*
G04 #@! TO.P,J2,5*
G04 #@! TO.N,VDD*
X179070000Y-104775000D03*
G04 #@! TO.P,J2,6*
G04 #@! TO.N,MCLR*
X179070000Y-102235000D03*
G04 #@! TD*
D18*
G04 #@! TO.P,J3,1*
G04 #@! TO.N,GND*
X187960000Y-140335000D03*
D19*
G04 #@! TO.P,J3,2*
G04 #@! TO.N,CHOIX_IN*
X187960000Y-142875000D03*
G04 #@! TO.P,J3,3*
G04 #@! TO.N,VDD*
X187960000Y-145415000D03*
G04 #@! TD*
D18*
G04 #@! TO.P,J4,1*
G04 #@! TO.N,ANALOG_IN_NOT_FILTERED*
X243205000Y-97790000D03*
D19*
G04 #@! TO.P,J4,2*
G04 #@! TO.N,GND*
X240665000Y-97790000D03*
G04 #@! TD*
G04 #@! TO.P,J5,2*
G04 #@! TO.N,GND*
X253365000Y-128270000D03*
D18*
G04 #@! TO.P,J5,1*
G04 #@! TO.N,ANALOG_OUT*
X253365000Y-130810000D03*
G04 #@! TD*
D16*
G04 #@! TO.P,R1,2*
G04 #@! TO.N,VDD*
X179070000Y-96520000D03*
D12*
G04 #@! TO.P,R1,1*
G04 #@! TO.N,MCLR*
X189230000Y-96520000D03*
G04 #@! TD*
G04 #@! TO.P,R3,1*
G04 #@! TO.N,VDD*
X238125000Y-123190000D03*
D16*
G04 #@! TO.P,R3,2*
G04 #@! TO.N,Net-(C5-Pad1)*
X238125000Y-113030000D03*
G04 #@! TD*
D12*
G04 #@! TO.P,R4,1*
G04 #@! TO.N,Net-(C5-Pad1)*
X242570000Y-113030000D03*
D16*
G04 #@! TO.P,R4,2*
G04 #@! TO.N,GND*
X242570000Y-123190000D03*
G04 #@! TD*
G04 #@! TO.P,R5,2*
G04 #@! TO.N,Net-(C5-Pad1)*
X231775000Y-102235000D03*
D12*
G04 #@! TO.P,R5,1*
G04 #@! TO.N,ANALOG_IN*
X231775000Y-112395000D03*
G04 #@! TD*
G04 #@! TO.P,R6,1*
G04 #@! TO.N,GND*
X236855000Y-138430000D03*
D16*
G04 #@! TO.P,R6,2*
G04 #@! TO.N,ANALOG_OUT*
X247015000Y-138430000D03*
G04 #@! TD*
D13*
G04 #@! TO.P,U1,1*
G04 #@! TO.N,MCLR*
X194945000Y-97155000D03*
D14*
G04 #@! TO.P,U1,21*
G04 #@! TO.N,VDD*
X210185000Y-145415000D03*
G04 #@! TO.P,U1,2*
X194945000Y-99695000D03*
G04 #@! TO.P,U1,22*
G04 #@! TO.N,DAC_LD*
X210185000Y-142875000D03*
G04 #@! TO.P,U1,3*
G04 #@! TO.N,GND*
X194945000Y-102235000D03*
G04 #@! TO.P,U1,23*
G04 #@! TO.N,DAC_CS*
X210185000Y-140335000D03*
G04 #@! TO.P,U1,4*
G04 #@! TO.N,Net-(U1-Pad4)*
X194945000Y-104775000D03*
G04 #@! TO.P,U1,24*
G04 #@! TO.N,SCK_SPI*
X210185000Y-137795000D03*
G04 #@! TO.P,U1,5*
G04 #@! TO.N,Net-(U1-Pad5)*
X194945000Y-107315000D03*
G04 #@! TO.P,U1,25*
G04 #@! TO.N,MOSI_SPI*
X210185000Y-135255000D03*
G04 #@! TO.P,U1,6*
G04 #@! TO.N,Net-(U1-Pad6)*
X194945000Y-109855000D03*
G04 #@! TO.P,U1,26*
G04 #@! TO.N,MISO_SPI*
X210185000Y-132715000D03*
G04 #@! TO.P,U1,7*
G04 #@! TO.N,Net-(U1-Pad7)*
X194945000Y-112395000D03*
G04 #@! TO.P,U1,27*
G04 #@! TO.N,Net-(U1-Pad27)*
X210185000Y-130175000D03*
G04 #@! TO.P,U1,8*
G04 #@! TO.N,PGC*
X194945000Y-114935000D03*
G04 #@! TO.P,U1,28*
G04 #@! TO.N,Net-(U1-Pad28)*
X210185000Y-127635000D03*
G04 #@! TO.P,U1,9*
G04 #@! TO.N,PGD*
X194945000Y-117475000D03*
G04 #@! TO.P,U1,29*
G04 #@! TO.N,Net-(U1-Pad29)*
X210185000Y-125095000D03*
G04 #@! TO.P,U1,10*
G04 #@! TO.N,Net-(U1-Pad10)*
X194945000Y-120015000D03*
G04 #@! TO.P,U1,30*
G04 #@! TO.N,TEST*
X210185000Y-122555000D03*
G04 #@! TO.P,U1,11*
G04 #@! TO.N,VDD*
X194945000Y-122555000D03*
G04 #@! TO.P,U1,31*
G04 #@! TO.N,GND*
X210185000Y-120015000D03*
G04 #@! TO.P,U1,12*
X194945000Y-125095000D03*
G04 #@! TO.P,U1,32*
G04 #@! TO.N,VDD*
X210185000Y-117475000D03*
G04 #@! TO.P,U1,13*
G04 #@! TO.N,Net-(U1-Pad13)*
X194945000Y-127635000D03*
G04 #@! TO.P,U1,33*
G04 #@! TO.N,Net-(U1-Pad33)*
X210185000Y-114935000D03*
G04 #@! TO.P,U1,14*
G04 #@! TO.N,Net-(U1-Pad14)*
X194945000Y-130175000D03*
G04 #@! TO.P,U1,34*
G04 #@! TO.N,Net-(U1-Pad34)*
X210185000Y-112395000D03*
G04 #@! TO.P,U1,15*
G04 #@! TO.N,Net-(U1-Pad15)*
X194945000Y-132715000D03*
G04 #@! TO.P,U1,35*
G04 #@! TO.N,Net-(U1-Pad35)*
X210185000Y-109855000D03*
G04 #@! TO.P,U1,16*
G04 #@! TO.N,Net-(U1-Pad16)*
X194945000Y-135255000D03*
G04 #@! TO.P,U1,36*
G04 #@! TO.N,ADC_CS*
X210185000Y-107315000D03*
G04 #@! TO.P,U1,17*
G04 #@! TO.N,Net-(U1-Pad17)*
X194945000Y-137795000D03*
G04 #@! TO.P,U1,37*
G04 #@! TO.N,VDD*
X210185000Y-104775000D03*
G04 #@! TO.P,U1,18*
G04 #@! TO.N,Net-(U1-Pad18)*
X194945000Y-140335000D03*
G04 #@! TO.P,U1,38*
G04 #@! TO.N,ANALOG_IN*
X210185000Y-102235000D03*
G04 #@! TO.P,U1,19*
G04 #@! TO.N,CHOIX_IN*
X194945000Y-142875000D03*
G04 #@! TO.P,U1,39*
G04 #@! TO.N,GND*
X210185000Y-99695000D03*
G04 #@! TO.P,U1,20*
X194945000Y-145415000D03*
G04 #@! TO.P,U1,40*
G04 #@! TO.N,VDD*
X210185000Y-97155000D03*
G04 #@! TD*
G04 #@! TO.P,U2,8*
G04 #@! TO.N,ANALOG_OUT_MOY*
X230505000Y-130810000D03*
G04 #@! TO.P,U2,4*
G04 #@! TO.N,MOSI_SPI*
X222885000Y-138430000D03*
G04 #@! TO.P,U2,7*
G04 #@! TO.N,GND*
X230505000Y-133350000D03*
G04 #@! TO.P,U2,3*
G04 #@! TO.N,SCK_SPI*
X222885000Y-135890000D03*
G04 #@! TO.P,U2,6*
G04 #@! TO.N,VDD*
X230505000Y-135890000D03*
G04 #@! TO.P,U2,2*
G04 #@! TO.N,DAC_CS*
X222885000Y-133350000D03*
G04 #@! TO.P,U2,5*
G04 #@! TO.N,DAC_LD*
X230505000Y-138430000D03*
D13*
G04 #@! TO.P,U2,1*
G04 #@! TO.N,VDD*
X222885000Y-130810000D03*
G04 #@! TD*
D15*
G04 #@! TO.P,REF\002A\002A,1*
G04 #@! TO.N,N/C*
X254000000Y-99695000D03*
G04 #@! TD*
D18*
G04 #@! TO.P,J6,1*
G04 #@! TO.N,TEST*
X217170000Y-117475000D03*
D19*
G04 #@! TO.P,J6,2*
G04 #@! TO.N,GND*
X217170000Y-114935000D03*
G04 #@! TD*
D18*
G04 #@! TO.P,J7,1*
G04 #@! TO.N,ANALOG_IN*
X219710000Y-104775000D03*
D19*
G04 #@! TO.P,J7,2*
G04 #@! TO.N,GND*
X219710000Y-102235000D03*
G04 #@! TD*
G04 #@! TO.P,J8,2*
G04 #@! TO.N,GND*
X236855000Y-133350000D03*
D18*
G04 #@! TO.P,J8,1*
G04 #@! TO.N,ANALOG_OUT_MOY*
X236855000Y-130810000D03*
G04 #@! TD*
M02*
