M48
; DRILL file {KiCad 9.0.4} date 2025-09-29T13:52:36+0200
; FORMAT={-:-/ absolute / metric / decimal}
; #@! TF.CreationDate,2025-09-29T13:52:36+02:00
; #@! TF.GenerationSoftware,Kicad,Pcbnew,9.0.4
; #@! TF.FileFunction,Plated,1,2,PTH
FMAT,2
METRIC
; #@! TA.AperFunction,Plated,PTH,ViaDrill
T1C0.600
; #@! TA.AperFunction,Plated,PTH,ComponentDrill
T2C0.800
; #@! TA.AperFunction,Plated,PTH,ComponentDrill
T3C0.813
; #@! TA.AperFunction,Plated,PTH,ComponentDrill
T4C1.000
; #@! TA.AperFunction,Plated,PTH,ComponentDrill
T5C1.100
; #@! TA.AperFunction,Plated,PTH,ComponentDrill
T6C5.300
%
G90
G05
T1
X251.25Y-128.0
T2
X184.84Y-103.0
X187.5Y-107.0
X189.38Y-128.46
X189.38Y-131.0
X189.38Y-133.54
X189.38Y-136.08
X195.0Y-103.0
X197.0Y-128.46
X197.0Y-131.0
X197.0Y-133.54
X197.0Y-136.08
X197.66Y-107.0
X207.46Y-114.96
X207.46Y-120.04
X208.0Y-110.0
X210.0Y-117.5
X214.5Y-119.0
X214.5Y-129.16
X216.5Y-99.0
X218.0Y-119.0
X218.0Y-129.16
X218.0Y-135.5
X218.16Y-110.0
X219.0Y-99.0
X221.5Y-110.0
X223.34Y-113.96
X223.34Y-116.5
X223.34Y-119.04
X223.34Y-121.58
X223.34Y-124.12
X223.34Y-126.66
X223.34Y-129.2
X224.0Y-99.0
X226.5Y-99.0
X228.16Y-135.5
X230.96Y-113.96
X230.96Y-116.5
X230.96Y-119.04
X230.96Y-121.58
X230.96Y-124.12
X230.96Y-126.66
X230.96Y-129.2
X231.66Y-110.0
X235.0Y-126.75
X235.0Y-136.91
X235.09Y-102.25
X239.25Y-115.92
X239.25Y-126.08
X245.25Y-102.25
X247.5Y-115.96
X247.5Y-121.04
X248.0Y-130.46
X248.0Y-133.0
X248.0Y-135.54
X248.0Y-138.08
X249.0Y-102.5
X250.04Y-118.5
X254.0Y-102.5
X255.62Y-130.46
X255.62Y-133.0
X255.62Y-135.54
X255.62Y-138.08
X257.0Y-102.34
X257.0Y-112.5
T3
X183.5Y-91.0
X184.77Y-98.62
X187.31Y-98.62
X188.58Y-91.0
X255.96Y-90.696
X257.23Y-98.316
X259.77Y-98.316
X261.04Y-90.696
T4
X183.0Y-87.5
X185.0Y-114.5
X185.0Y-117.04
X185.0Y-119.58
X185.0Y-128.38
X185.0Y-130.92
X185.0Y-133.46
X185.54Y-87.5
X188.08Y-87.5
X203.0Y-130.96
X203.0Y-133.5
X214.46Y-142.0
X217.0Y-142.0
X218.96Y-92.5
X219.54Y-142.0
X221.5Y-92.5
X224.04Y-92.5
X232.46Y-141.0
X235.0Y-141.0
X235.25Y-108.5
X235.25Y-111.04
X261.0Y-132.96
X261.0Y-135.5
T5
X209.0Y-88.0
X219.16Y-88.0
X224.17Y-88.0
X234.33Y-88.0
T6
X184.0Y-145.5
X199.5Y-92.5
X245.0Y-92.0
X260.35Y-145.0
M30
