%TF.GenerationSoftware,KiCad,Pcbnew,9.0.4*%
%TF.CreationDate,2025-09-29T14:00:37+02:00*%
%TF.ProjectId,AM_modulation_fiber,414d5f6d-6f64-4756-9c61-74696f6e5f66,rev?*%
%TF.SameCoordinates,Original*%
%TF.FileFunction,Copper,L1,Top*%
%TF.FilePolarity,Positive*%
%FSLAX46Y46*%
G04 Gerber Fmt 4.6, Leading zero omitted, Abs format (unit mm)*
G04 Created by KiCad (PCBNEW 9.0.4) date 2025-09-29 14:00:37*
%MOMM*%
%LPD*%
G01*
G04 APERTURE LIST*
G04 Aperture macros list*
%AMRoundRect*
0 Rectangle with rounded corners*
0 $1 Rounding radius*
0 $2 $3 $4 $5 $6 $7 $8 $9 X,Y pos of 4 corners*
0 Add a 4 corners polygon primitive as box body*
4,1,4,$2,$3,$4,$5,$6,$7,$8,$9,$2,$3,0*
0 Add four circle primitives for the rounded corners*
1,1,$1+$1,$2,$3*
1,1,$1+$1,$4,$5*
1,1,$1+$1,$6,$7*
1,1,$1+$1,$8,$9*
0 Add four rect primitives between the rounded corners*
20,1,$1+$1,$2,$3,$4,$5,0*
20,1,$1+$1,$4,$5,$6,$7,0*
20,1,$1+$1,$6,$7,$8,$9,0*
20,1,$1+$1,$8,$9,$2,$3,0*%
G04 Aperture macros list end*
%TA.AperFunction,ComponentPad*%
%ADD10R,1.700000X1.700000*%
%TD*%
%TA.AperFunction,ComponentPad*%
%ADD11C,1.700000*%
%TD*%
%TA.AperFunction,ComponentPad*%
%ADD12O,1.320800X2.641600*%
%TD*%
%TA.AperFunction,ComponentPad*%
%ADD13C,1.600000*%
%TD*%
%TA.AperFunction,ComponentPad*%
%ADD14RoundRect,0.250000X0.550000X0.550000X-0.550000X0.550000X-0.550000X-0.550000X0.550000X-0.550000X0*%
%TD*%
%TA.AperFunction,ComponentPad*%
%ADD15C,9.200000*%
%TD*%
%TA.AperFunction,ComponentPad*%
%ADD16RoundRect,0.250000X-0.950000X-0.550000X0.950000X-0.550000X0.950000X0.550000X-0.950000X0.550000X0*%
%TD*%
%TA.AperFunction,ComponentPad*%
%ADD17O,2.400000X1.600000*%
%TD*%
%TA.AperFunction,ComponentPad*%
%ADD18C,1.440000*%
%TD*%
%TA.AperFunction,ComponentPad*%
%ADD19RoundRect,0.249999X0.850001X0.850001X-0.850001X0.850001X-0.850001X-0.850001X0.850001X-0.850001X0*%
%TD*%
%TA.AperFunction,ComponentPad*%
%ADD20C,2.200000*%
%TD*%
%TA.AperFunction,ViaPad*%
%ADD21C,1.400000*%
%TD*%
%TA.AperFunction,Conductor*%
%ADD22C,0.700000*%
%TD*%
%TA.AperFunction,Conductor*%
%ADD23C,1.000000*%
%TD*%
G04 APERTURE END LIST*
D10*
%TO.P,J3,1,Pin_1*%
%TO.N,OUT_PHD*%
X259500000Y-113080000D03*
D11*
%TO.P,J3,2,Pin_2*%
%TO.N,GND*%
X259500000Y-110540000D03*
%TO.P,J3,3,Pin_3*%
%TO.N,VS_PHD*%
X259500000Y-108000000D03*
%TD*%
D12*
%TO.P,XR2,1*%
%TO.N,N/C*%
X261040000Y-90695700D03*
%TO.P,XR2,2*%
X255960000Y-90695700D03*
%TO.P,XR2,A*%
%TO.N,VS_PHD*%
X257230000Y-98315700D03*
%TO.P,XR2,K*%
%TO.N,VCC+*%
X259770000Y-98315700D03*
%TD*%
D13*
%TO.P,R10,1*%
%TO.N,IN_DEM*%
X235000000Y-136910000D03*
%TO.P,R10,2*%
%TO.N,Net-(U4C--)*%
X235000000Y-126750000D03*
%TD*%
D14*
%TO.P,C1,1*%
%TO.N,VCC+*%
X226500000Y-99000000D03*
D13*
%TO.P,C1,2*%
%TO.N,GND*%
X224000000Y-99000000D03*
%TD*%
D10*
%TO.P,J7,1,Pin_1*%
%TO.N,IN_2*%
X219540000Y-142000000D03*
D11*
%TO.P,J7,2,Pin_2*%
%TO.N,GND*%
X217000000Y-142000000D03*
%TO.P,J7,3,Pin_3*%
%TO.N,IN_1*%
X214460000Y-142000000D03*
%TD*%
D12*
%TO.P,XR1,1*%
%TO.N,N/C*%
X188580000Y-91000000D03*
%TO.P,XR1,2*%
X183500000Y-91000000D03*
%TO.P,XR1,A*%
%TO.N,OUT_LED*%
X184770000Y-98620000D03*
%TO.P,XR1,K*%
%TO.N,I_LED*%
X187310000Y-98620000D03*
%TD*%
D10*
%TO.P,J2,1,Pin_1*%
%TO.N,IN_CAR*%
X185000000Y-133460000D03*
D11*
%TO.P,J2,2,Pin_2*%
%TO.N,GND*%
X185000000Y-130920000D03*
%TO.P,J2,3,Pin_3*%
%TO.N,IN_MOD*%
X185000000Y-128380000D03*
%TD*%
D10*
%TO.P,J4,1,Pin_1*%
%TO.N,OUT_MOD*%
X203000000Y-130960000D03*
D11*
%TO.P,J4,2,Pin_2*%
%TO.N,GND*%
X203000000Y-133500000D03*
%TD*%
D13*
%TO.P,R1,1*%
%TO.N,I_LED*%
X187500000Y-107000000D03*
%TO.P,R1,2*%
%TO.N,GND*%
X197660000Y-107000000D03*
%TD*%
D15*
%TO.P,,1*%
%TO.N,N/C*%
X199500000Y-92500000D03*
%TD*%
D16*
%TO.P,U2,1,X1*%
%TO.N,IN_MOD*%
X189380000Y-128460000D03*
D17*
%TO.P,U2,2,X2*%
%TO.N,GND*%
X189380000Y-131000000D03*
%TO.P,U2,3,Y1*%
%TO.N,IN_CAR*%
X189380000Y-133540000D03*
%TO.P,U2,4,Y2*%
%TO.N,GND*%
X189380000Y-136080000D03*
%TO.P,U2,5,-VS*%
%TO.N,VCC-*%
X197000000Y-136080000D03*
%TO.P,U2,6,Z*%
%TO.N,GND*%
X197000000Y-133540000D03*
%TO.P,U2,7,W*%
%TO.N,OUT_MOD*%
X197000000Y-131000000D03*
%TO.P,U2,8,+VS*%
%TO.N,VCC+*%
X197000000Y-128460000D03*
%TD*%
D18*
%TO.P,RV1,1,1*%
%TO.N,VCC+*%
X207460000Y-120040000D03*
%TO.P,RV1,2,2*%
%TO.N,Offset*%
X210000000Y-117500000D03*
%TO.P,RV1,3,3*%
%TO.N,GND*%
X207460000Y-114960000D03*
%TD*%
D10*
%TO.P,J5,1,Pin_1*%
%TO.N,IN_DEM*%
X235000000Y-141000000D03*
D11*
%TO.P,J5,2,Pin_2*%
%TO.N,GND*%
X232460000Y-141000000D03*
%TD*%
D18*
%TO.P,RV2,1,1*%
%TO.N,Net-(U3-X1)*%
X247500000Y-121040000D03*
%TO.P,RV2,2,2*%
%TO.N,Net-(R11-Pad2)*%
X250040000Y-118500000D03*
%TO.P,RV2,3,3*%
X247500000Y-115960000D03*
%TD*%
D13*
%TO.P,R9,1*%
%TO.N,Net-(U4D-+)*%
X245250000Y-102250000D03*
%TO.P,R9,2*%
%TO.N,GND*%
X235090000Y-102250000D03*
%TD*%
D10*
%TO.P,J6,1,Pin_1*%
%TO.N,OUT_DEM*%
X261000000Y-132960000D03*
D11*
%TO.P,J6,2,Pin_2*%
%TO.N,GND*%
X261000000Y-135500000D03*
%TD*%
D13*
%TO.P,R3,1*%
%TO.N,Net-(U4A--)*%
X195000000Y-103000000D03*
%TO.P,R3,2*%
%TO.N,OUT_LED*%
X184840000Y-103000000D03*
%TD*%
D10*
%TO.P,J9,1,Pin_1*%
%TO.N,GND*%
X183000000Y-87500000D03*
D11*
%TO.P,J9,2,Pin_2*%
%TO.N,VCC+*%
X185540000Y-87500000D03*
%TO.P,J9,3,Pin_3*%
%TO.N,OUT_LED*%
X188080000Y-87500000D03*
%TD*%
D19*
%TO.P,D2,1,K*%
%TO.N,GND*%
X219160000Y-88000000D03*
D20*
%TO.P,D2,2,A*%
%TO.N,VCC-*%
X209000000Y-88000000D03*
%TD*%
D15*
%TO.P,,1*%
%TO.N,N/C*%
X245000000Y-92000000D03*
%TD*%
D13*
%TO.P,R6,1*%
%TO.N,IN_1*%
X214500000Y-129160000D03*
%TO.P,R6,2*%
%TO.N,Net-(U4A-+)*%
X214500000Y-119000000D03*
%TD*%
%TO.P,R8,1*%
%TO.N,VS_PHD*%
X254000000Y-108000000D03*
%TO.P,R8,2*%
%TO.N,GND*%
X243840000Y-108000000D03*
%TD*%
D15*
%TO.P,REF\u002A\u002A,1*%
%TO.N,N/C*%
X260350000Y-145000000D03*
%TD*%
D16*
%TO.P,U3,1,X1*%
%TO.N,Net-(U3-X1)*%
X248000000Y-130460000D03*
D17*
%TO.P,U3,2,X2*%
%TO.N,GND*%
X248000000Y-133000000D03*
%TO.P,U3,3,Y1*%
%TO.N,IN_CAR*%
X248000000Y-135540000D03*
%TO.P,U3,4,Y2*%
%TO.N,GND*%
X248000000Y-138080000D03*
%TO.P,U3,5,-VS*%
%TO.N,VCC-*%
X255620000Y-138080000D03*
%TO.P,U3,6,Z*%
%TO.N,GND*%
X255620000Y-135540000D03*
%TO.P,U3,7,W*%
%TO.N,OUT_DEM*%
X255620000Y-133000000D03*
%TO.P,U3,8,+VS*%
%TO.N,VCC+*%
X255620000Y-130460000D03*
%TD*%
D13*
%TO.P,R11,1*%
%TO.N,Net-(U4C--)*%
X239250000Y-126080000D03*
%TO.P,R11,2*%
%TO.N,Net-(R11-Pad2)*%
X239250000Y-115920000D03*
%TD*%
%TO.P,R2,1*%
%TO.N,Offset*%
X208000000Y-110000000D03*
%TO.P,R2,2*%
%TO.N,Net-(U4A-+)*%
X218160000Y-110000000D03*
%TD*%
D19*
%TO.P,D1,1,K*%
%TO.N,VCC+*%
X234330000Y-88000000D03*
D20*
%TO.P,D1,2,A*%
%TO.N,GND*%
X224170000Y-88000000D03*
%TD*%
D13*
%TO.P,R4,1*%
%TO.N,GND*%
X231660000Y-110000000D03*
%TO.P,R4,2*%
%TO.N,Net-(U4A--)*%
X221500000Y-110000000D03*
%TD*%
%TO.P,R7,1*%
%TO.N,GND*%
X228160000Y-135500000D03*
%TO.P,R7,2*%
%TO.N,IN_2*%
X218000000Y-135500000D03*
%TD*%
D10*
%TO.P,J1,1,Pin_1*%
%TO.N,VCC-*%
X218960000Y-92500000D03*
D11*
%TO.P,J1,2,Pin_2*%
%TO.N,GND*%
X221500000Y-92500000D03*
%TO.P,J1,3,Pin_3*%
%TO.N,VCC+*%
X224040000Y-92500000D03*
%TD*%
D13*
%TO.P,C3,1*%
%TO.N,VS_PHD*%
X254000000Y-102500000D03*
%TO.P,C3,2*%
%TO.N,Net-(U4D-+)*%
X249000000Y-102500000D03*
%TD*%
D15*
%TO.P,REF\u002A\u002A,1*%
%TO.N,N/C*%
X184000000Y-145500000D03*
%TD*%
D13*
%TO.P,R5,1*%
%TO.N,IN_2*%
X218000000Y-129160000D03*
%TO.P,R5,2*%
%TO.N,Net-(U4A-+)*%
X218000000Y-119000000D03*
%TD*%
D14*
%TO.P,C2,1*%
%TO.N,GND*%
X219000000Y-99000000D03*
D13*
%TO.P,C2,2*%
%TO.N,VCC-*%
X216500000Y-99000000D03*
%TD*%
D10*
%TO.P,J8,1,Pin_1*%
%TO.N,OUT_LED*%
X185000000Y-114460000D03*
D11*
%TO.P,J8,2,Pin_2*%
%TO.N,GND*%
X185000000Y-117000000D03*
%TD*%
D16*
%TO.P,U4,1*%
%TO.N,OUT_LED*%
X223340000Y-113960000D03*
D17*
%TO.P,U4,2,-*%
%TO.N,Net-(U4A--)*%
X223340000Y-116500000D03*
%TO.P,U4,3,+*%
%TO.N,Net-(U4A-+)*%
X223340000Y-119040000D03*
%TO.P,U4,4,V+*%
%TO.N,VCC+*%
X223340000Y-121580000D03*
%TO.P,U4,5*%
%TO.N,N/C*%
X223340000Y-124120000D03*
%TO.P,U4,6*%
X223340000Y-126660000D03*
%TO.P,U4,7*%
X223340000Y-129200000D03*
%TO.P,U4,8*%
%TO.N,Net-(U3-X1)*%
X230960000Y-129200000D03*
%TO.P,U4,9,-*%
%TO.N,Net-(U4C--)*%
X230960000Y-126660000D03*
%TO.P,U4,10,+*%
%TO.N,GND*%
X230960000Y-124120000D03*
%TO.P,U4,11,V-*%
%TO.N,VCC-*%
X230960000Y-121580000D03*
%TO.P,U4,12,+*%
%TO.N,Net-(U4D-+)*%
X230960000Y-119040000D03*
%TO.P,U4,13,-*%
%TO.N,OUT_PHD*%
X230960000Y-116500000D03*
%TO.P,U4,14*%
X230960000Y-113960000D03*
%TD*%
D21*
%TO.N,Net-(U3-X1)*%
X251250000Y-128000000D03*
%TD*%
D22*
%TO.N,OUT_PHD*%
X257580000Y-115000000D02*
X259500000Y-113080000D01*
X255000000Y-115000000D02*
X257580000Y-115000000D01*
X253960000Y-113960000D02*
X255000000Y-115000000D01*
X230960000Y-113960000D02*
X253960000Y-113960000D01*
%TO.N,VCC+*%
X224040000Y-93960000D02*
X224040000Y-92500000D01*
X185540000Y-87500000D02*
X185540000Y-92540000D01*
X222500000Y-95500000D02*
X224040000Y-93960000D01*
X206500000Y-99500000D02*
X210500000Y-95500000D01*
X210500000Y-95500000D02*
X222500000Y-95500000D01*
X185540000Y-92540000D02*
X192500000Y-99500000D01*
X192500000Y-99500000D02*
X206500000Y-99500000D01*
D23*
%TO.N,VCC-*%
X254250000Y-141750000D02*
X242500000Y-141750000D01*
X241250000Y-140500000D02*
X241250000Y-134750000D01*
D22*
X227750000Y-121750000D02*
X227920000Y-121580000D01*
D23*
X197000000Y-136080000D02*
X210420000Y-136080000D01*
X210420000Y-136080000D02*
X213750000Y-132750000D01*
X216500000Y-99500000D02*
X227500000Y-110500000D01*
X227500000Y-131750000D02*
X227500000Y-121750000D01*
X255620000Y-138880000D02*
X255620000Y-140380000D01*
D22*
X227920000Y-121580000D02*
X230960000Y-121580000D01*
D23*
X227500000Y-132750000D02*
X227500000Y-131750000D01*
X242500000Y-141750000D02*
X241250000Y-140500000D01*
X239250000Y-132750000D02*
X227500000Y-132750000D01*
X241250000Y-134750000D02*
X239250000Y-132750000D01*
D22*
X227500000Y-121750000D02*
X227750000Y-121750000D01*
D23*
X227500000Y-110500000D02*
X227500000Y-121750000D01*
D22*
X255620000Y-138080000D02*
X255620000Y-138880000D01*
D23*
X216500000Y-99000000D02*
X216500000Y-99500000D01*
X255620000Y-140380000D02*
X254250000Y-141750000D01*
X213750000Y-132750000D02*
X227500000Y-132750000D01*
D22*
%TO.N,Net-(U3-X1)*%
X251250000Y-128000000D02*
X251250000Y-122500000D01*
X249920000Y-121250000D02*
X249710000Y-121040000D01*
X249710000Y-121040000D02*
X247500000Y-121040000D01*
X251250000Y-122500000D02*
X250000000Y-121250000D01*
X250000000Y-121250000D02*
X249920000Y-121250000D01*
%TD*%
M02*
