%TF.GenerationSoftware,KiCad,Pcbnew,(5.1.6)-1*%
%TF.CreationDate,2021-03-12T10:12:50+01:00*%
%TF.ProjectId,carte_alim_signaux,63617274-655f-4616-9c69-6d5f7369676e,rev?*%
%TF.SameCoordinates,Original*%
%TF.FileFunction,Soldermask,Bot*%
%TF.FilePolarity,Negative*%
%FSLAX46Y46*%
G04 Gerber Fmt 4.6, Leading zero omitted, Abs format (unit mm)*
G04 Created by KiCad (PCBNEW (5.1.6)-1) date 2021-03-12 10:12:50*
%MOMM*%
%LPD*%
G01*
G04 APERTURE LIST*
%ADD10C,3.910000*%
%ADD11C,3.656000*%
%ADD12C,2.700000*%
%ADD13R,2.700000X2.700000*%
%ADD14R,1.800000X1.800000*%
%ADD15O,1.800000X1.800000*%
%ADD16C,1.700000*%
%ADD17R,1.700000X1.700000*%
%ADD18R,2.005000X2.100000*%
%ADD19O,2.005000X2.100000*%
%ADD20C,1.600000*%
%ADD21R,1.600000X1.600000*%
G04 APERTURE END LIST*
D10*
%TO.C,J1*%
X132715000Y-138430000D03*
X126365000Y-138430000D03*
X132715000Y-132080000D03*
D11*
X129540000Y-135255000D03*
D10*
X126365000Y-132080000D03*
%TD*%
%TO.C,J2*%
X105410000Y-132080000D03*
D11*
X108585000Y-135255000D03*
D10*
X111760000Y-132080000D03*
X105410000Y-138430000D03*
X111760000Y-138430000D03*
%TD*%
%TO.C,J3*%
X105410000Y-156845000D03*
D11*
X108585000Y-160020000D03*
D10*
X111760000Y-156845000D03*
X105410000Y-163195000D03*
X111760000Y-163195000D03*
%TD*%
%TO.C,J4*%
X132080000Y-163195000D03*
X125730000Y-163195000D03*
X132080000Y-156845000D03*
D11*
X128905000Y-160020000D03*
D10*
X125730000Y-156845000D03*
%TD*%
%TO.C,J5*%
X105410000Y-174625000D03*
D11*
X108585000Y-177800000D03*
D10*
X111760000Y-174625000D03*
X105410000Y-180975000D03*
X111760000Y-180975000D03*
%TD*%
%TO.C,J6*%
X132080000Y-180975000D03*
X125730000Y-180975000D03*
X132080000Y-174625000D03*
D11*
X128905000Y-177800000D03*
D10*
X125730000Y-174625000D03*
%TD*%
D12*
%TO.C,J7*%
X125095000Y-64770000D03*
D13*
X120015000Y-64770000D03*
%TD*%
%TO.C,J8*%
X106680000Y-64770000D03*
D12*
X111760000Y-64770000D03*
%TD*%
D14*
%TO.C,J9*%
X151765000Y-117475000D03*
D15*
X151765000Y-120015000D03*
X151765000Y-122555000D03*
X151765000Y-125095000D03*
X151765000Y-127635000D03*
X151765000Y-130175000D03*
X151765000Y-132715000D03*
X151765000Y-135255000D03*
X151765000Y-137795000D03*
X151765000Y-140335000D03*
X151765000Y-142875000D03*
X151765000Y-145415000D03*
X151765000Y-147955000D03*
X151765000Y-150495000D03*
X151765000Y-153035000D03*
X151765000Y-155575000D03*
X151765000Y-158115000D03*
X151765000Y-160655000D03*
%TD*%
D16*
%TO.C,C1*%
X125015000Y-76835000D03*
X120015000Y-76835000D03*
%TD*%
%TO.C,C2*%
X111760000Y-76835000D03*
X106760000Y-76835000D03*
%TD*%
%TO.C,C3*%
X120095000Y-85090000D03*
D17*
X125095000Y-85090000D03*
%TD*%
D16*
%TO.C,C4*%
X111680000Y-85090000D03*
D17*
X106680000Y-85090000D03*
%TD*%
%TO.C,C5*%
X132160000Y-106045000D03*
D16*
X137160000Y-106045000D03*
%TD*%
D17*
%TO.C,C6*%
X132080000Y-95885000D03*
D16*
X137080000Y-95885000D03*
%TD*%
%TO.C,C7*%
X137080000Y-114935000D03*
X132080000Y-114935000D03*
%TD*%
%TO.C,C8*%
X132160000Y-86360000D03*
X137160000Y-86360000D03*
%TD*%
D18*
%TO.C,U1*%
X116205000Y-106045000D03*
D19*
X118745000Y-106045000D03*
X121285000Y-106045000D03*
%TD*%
D20*
%TO.C,U2*%
X118745000Y-95885000D03*
X116205000Y-95885000D03*
D21*
X121285000Y-95885000D03*
%TD*%
M02*
