M48
; DRILL file {KiCad (5.1.6)-1} date 03/12/21 10:12:52
; FORMAT={-:-/ absolute / inch / decimal}
; #@! TF.CreationDate,2021-03-12T10:12:52+01:00
; #@! TF.GenerationSoftware,Kicad,Pcbnew,(5.1.6)-1
; #@! TF.FileFunction,Plated,1,2,PTH
FMAT,2
INCH
T1C0.0315
T2C0.0394
T3C0.0433
T4C0.0500
T5C0.0512
T6C0.0600
%
G90
G05
T1
X5.65Y-4.625
X5.65Y-4.725
X5.65Y-4.875
X5.65Y-5.05
X5.65Y-5.325
X5.65Y-5.425
X5.65Y-5.625
X5.65Y-5.725
X5.65Y-5.875
X5.65Y-6.025
X5.8Y-6.025
X5.8Y-6.125
X5.8Y-6.225
X5.8Y-6.325
X5.2Y-3.775
X5.3969Y-3.775
X4.725Y-3.025
X4.9219Y-3.025
X4.7281Y-3.35
X4.925Y-3.35
X4.575Y-3.775
X4.675Y-3.775
X4.775Y-3.775
X5.2031Y-3.4
X5.4Y-3.4
X5.2Y-4.525
X5.3969Y-4.525
X5.2031Y-4.175
X5.4Y-4.175
X4.2Y-3.35
X4.3969Y-3.35
X4.2031Y-3.025
X4.4Y-3.025
T2
X5.975Y-4.625
X5.975Y-4.725
X5.975Y-4.825
X5.975Y-4.925
X5.975Y-5.025
X5.975Y-5.125
X5.975Y-5.225
X5.975Y-5.325
X5.975Y-5.425
X5.975Y-5.525
X5.975Y-5.625
X5.975Y-5.725
X5.975Y-5.825
X5.975Y-5.925
X5.975Y-6.025
X5.975Y-6.125
X5.975Y-6.225
X5.975Y-6.325
T3
X4.575Y-4.175
X4.675Y-4.175
X4.775Y-4.175
T4
X5.075Y-7.0
X5.1Y-5.325
X4.275Y-7.0
X5.075Y-6.3
X4.275Y-6.3
X4.275Y-5.325
T5
X4.2Y-2.55
X4.4Y-2.55
X4.725Y-2.55
X4.925Y-2.55
T6
X4.15Y-5.2
X4.15Y-5.45
X4.4Y-5.2
X4.4Y-5.45
X4.95Y-6.875
X4.95Y-7.125
X5.2Y-6.875
X5.2Y-7.125
X4.975Y-5.2
X4.975Y-5.45
X5.225Y-5.2
X5.225Y-5.45
X4.15Y-6.875
X4.15Y-7.125
X4.4Y-6.875
X4.4Y-7.125
X4.95Y-6.175
X4.95Y-6.425
X5.2Y-6.175
X5.2Y-6.425
X4.15Y-6.175
X4.15Y-6.425
X4.4Y-6.175
X4.4Y-6.425
T0
M30
