%TF.GenerationSoftware,KiCad,Pcbnew,(5.0.1)-4*%
%TF.CreationDate,2021-03-16T16:24:39+01:00*%
%TF.ProjectId,carte_alim_signauxv2,63617274655F616C696D5F7369676E61,rev?*%
%TF.SameCoordinates,Original*%
%TF.FileFunction,Soldermask,Bot*%
%TF.FilePolarity,Negative*%
%FSLAX46Y46*%
G04 Gerber Fmt 4.6, Leading zero omitted, Abs format (unit mm)*
G04 Created by KiCad (PCBNEW (5.0.1)-4) date 16/03/2021 16:24:39*
%MOMM*%
%LPD*%
G01*
G04 APERTURE LIST*
%ADD10C,0.100000*%
G04 APERTURE END LIST*
D10*
G36*
X188860000Y-106945000D02*
X187060000Y-106945000D01*
X187060000Y-105145000D01*
X188860000Y-105145000D01*
X188860000Y-106945000D01*
X188860000Y-106945000D01*
G37*
G36*
X165276432Y-105158022D02*
X165446081Y-105209485D01*
X165602433Y-105293056D01*
X165739475Y-105405525D01*
X165851944Y-105542567D01*
X165935515Y-105698919D01*
X165986978Y-105868568D01*
X166004354Y-106045000D01*
X165986978Y-106221432D01*
X165935515Y-106391081D01*
X165851944Y-106547433D01*
X165739475Y-106684475D01*
X165602433Y-106796944D01*
X165446081Y-106880515D01*
X165276432Y-106931978D01*
X165144211Y-106945000D01*
X165055789Y-106945000D01*
X164923568Y-106931978D01*
X164753919Y-106880515D01*
X164597567Y-106796944D01*
X164460525Y-106684475D01*
X164348056Y-106547433D01*
X164264485Y-106391081D01*
X164213022Y-106221432D01*
X164195646Y-106045000D01*
X164213022Y-105868568D01*
X164264485Y-105698919D01*
X164348056Y-105542567D01*
X164460525Y-105405525D01*
X164597567Y-105293056D01*
X164753919Y-105209485D01*
X164923568Y-105158022D01*
X165055789Y-105145000D01*
X165144211Y-105145000D01*
X165276432Y-105158022D01*
X165276432Y-105158022D01*
G37*
G36*
X144956432Y-105158022D02*
X145126081Y-105209485D01*
X145282433Y-105293056D01*
X145419475Y-105405525D01*
X145531944Y-105542567D01*
X145615515Y-105698919D01*
X145666978Y-105868568D01*
X145684354Y-106045000D01*
X145666978Y-106221432D01*
X145615515Y-106391081D01*
X145531944Y-106547433D01*
X145419475Y-106684475D01*
X145282433Y-106796944D01*
X145126081Y-106880515D01*
X144956432Y-106931978D01*
X144824211Y-106945000D01*
X144735789Y-106945000D01*
X144603568Y-106931978D01*
X144433919Y-106880515D01*
X144277567Y-106796944D01*
X144140525Y-106684475D01*
X144028056Y-106547433D01*
X143944485Y-106391081D01*
X143893022Y-106221432D01*
X143875646Y-106045000D01*
X143893022Y-105868568D01*
X143944485Y-105698919D01*
X144028056Y-105542567D01*
X144140525Y-105405525D01*
X144277567Y-105293056D01*
X144433919Y-105209485D01*
X144603568Y-105158022D01*
X144735789Y-105145000D01*
X144824211Y-105145000D01*
X144956432Y-105158022D01*
X144956432Y-105158022D01*
G37*
G36*
X147496432Y-105158022D02*
X147666081Y-105209485D01*
X147822433Y-105293056D01*
X147959475Y-105405525D01*
X148071944Y-105542567D01*
X148155515Y-105698919D01*
X148206978Y-105868568D01*
X148224354Y-106045000D01*
X148206978Y-106221432D01*
X148155515Y-106391081D01*
X148071944Y-106547433D01*
X147959475Y-106684475D01*
X147822433Y-106796944D01*
X147666081Y-106880515D01*
X147496432Y-106931978D01*
X147364211Y-106945000D01*
X147275789Y-106945000D01*
X147143568Y-106931978D01*
X146973919Y-106880515D01*
X146817567Y-106796944D01*
X146680525Y-106684475D01*
X146568056Y-106547433D01*
X146484485Y-106391081D01*
X146433022Y-106221432D01*
X146415646Y-106045000D01*
X146433022Y-105868568D01*
X146484485Y-105698919D01*
X146568056Y-105542567D01*
X146680525Y-105405525D01*
X146817567Y-105293056D01*
X146973919Y-105209485D01*
X147143568Y-105158022D01*
X147275789Y-105145000D01*
X147364211Y-105145000D01*
X147496432Y-105158022D01*
X147496432Y-105158022D01*
G37*
G36*
X150036432Y-105158022D02*
X150206081Y-105209485D01*
X150362433Y-105293056D01*
X150499475Y-105405525D01*
X150611944Y-105542567D01*
X150695515Y-105698919D01*
X150746978Y-105868568D01*
X150764354Y-106045000D01*
X150746978Y-106221432D01*
X150695515Y-106391081D01*
X150611944Y-106547433D01*
X150499475Y-106684475D01*
X150362433Y-106796944D01*
X150206081Y-106880515D01*
X150036432Y-106931978D01*
X149904211Y-106945000D01*
X149815789Y-106945000D01*
X149683568Y-106931978D01*
X149513919Y-106880515D01*
X149357567Y-106796944D01*
X149220525Y-106684475D01*
X149108056Y-106547433D01*
X149024485Y-106391081D01*
X148973022Y-106221432D01*
X148955646Y-106045000D01*
X148973022Y-105868568D01*
X149024485Y-105698919D01*
X149108056Y-105542567D01*
X149220525Y-105405525D01*
X149357567Y-105293056D01*
X149513919Y-105209485D01*
X149683568Y-105158022D01*
X149815789Y-105145000D01*
X149904211Y-105145000D01*
X150036432Y-105158022D01*
X150036432Y-105158022D01*
G37*
G36*
X152576432Y-105158022D02*
X152746081Y-105209485D01*
X152902433Y-105293056D01*
X153039475Y-105405525D01*
X153151944Y-105542567D01*
X153235515Y-105698919D01*
X153286978Y-105868568D01*
X153304354Y-106045000D01*
X153286978Y-106221432D01*
X153235515Y-106391081D01*
X153151944Y-106547433D01*
X153039475Y-106684475D01*
X152902433Y-106796944D01*
X152746081Y-106880515D01*
X152576432Y-106931978D01*
X152444211Y-106945000D01*
X152355789Y-106945000D01*
X152223568Y-106931978D01*
X152053919Y-106880515D01*
X151897567Y-106796944D01*
X151760525Y-106684475D01*
X151648056Y-106547433D01*
X151564485Y-106391081D01*
X151513022Y-106221432D01*
X151495646Y-106045000D01*
X151513022Y-105868568D01*
X151564485Y-105698919D01*
X151648056Y-105542567D01*
X151760525Y-105405525D01*
X151897567Y-105293056D01*
X152053919Y-105209485D01*
X152223568Y-105158022D01*
X152355789Y-105145000D01*
X152444211Y-105145000D01*
X152576432Y-105158022D01*
X152576432Y-105158022D01*
G37*
G36*
X155116432Y-105158022D02*
X155286081Y-105209485D01*
X155442433Y-105293056D01*
X155579475Y-105405525D01*
X155691944Y-105542567D01*
X155775515Y-105698919D01*
X155826978Y-105868568D01*
X155844354Y-106045000D01*
X155826978Y-106221432D01*
X155775515Y-106391081D01*
X155691944Y-106547433D01*
X155579475Y-106684475D01*
X155442433Y-106796944D01*
X155286081Y-106880515D01*
X155116432Y-106931978D01*
X154984211Y-106945000D01*
X154895789Y-106945000D01*
X154763568Y-106931978D01*
X154593919Y-106880515D01*
X154437567Y-106796944D01*
X154300525Y-106684475D01*
X154188056Y-106547433D01*
X154104485Y-106391081D01*
X154053022Y-106221432D01*
X154035646Y-106045000D01*
X154053022Y-105868568D01*
X154104485Y-105698919D01*
X154188056Y-105542567D01*
X154300525Y-105405525D01*
X154437567Y-105293056D01*
X154593919Y-105209485D01*
X154763568Y-105158022D01*
X154895789Y-105145000D01*
X154984211Y-105145000D01*
X155116432Y-105158022D01*
X155116432Y-105158022D01*
G37*
G36*
X157656432Y-105158022D02*
X157826081Y-105209485D01*
X157982433Y-105293056D01*
X158119475Y-105405525D01*
X158231944Y-105542567D01*
X158315515Y-105698919D01*
X158366978Y-105868568D01*
X158384354Y-106045000D01*
X158366978Y-106221432D01*
X158315515Y-106391081D01*
X158231944Y-106547433D01*
X158119475Y-106684475D01*
X157982433Y-106796944D01*
X157826081Y-106880515D01*
X157656432Y-106931978D01*
X157524211Y-106945000D01*
X157435789Y-106945000D01*
X157303568Y-106931978D01*
X157133919Y-106880515D01*
X156977567Y-106796944D01*
X156840525Y-106684475D01*
X156728056Y-106547433D01*
X156644485Y-106391081D01*
X156593022Y-106221432D01*
X156575646Y-106045000D01*
X156593022Y-105868568D01*
X156644485Y-105698919D01*
X156728056Y-105542567D01*
X156840525Y-105405525D01*
X156977567Y-105293056D01*
X157133919Y-105209485D01*
X157303568Y-105158022D01*
X157435789Y-105145000D01*
X157524211Y-105145000D01*
X157656432Y-105158022D01*
X157656432Y-105158022D01*
G37*
G36*
X160196432Y-105158022D02*
X160366081Y-105209485D01*
X160522433Y-105293056D01*
X160659475Y-105405525D01*
X160771944Y-105542567D01*
X160855515Y-105698919D01*
X160906978Y-105868568D01*
X160924354Y-106045000D01*
X160906978Y-106221432D01*
X160855515Y-106391081D01*
X160771944Y-106547433D01*
X160659475Y-106684475D01*
X160522433Y-106796944D01*
X160366081Y-106880515D01*
X160196432Y-106931978D01*
X160064211Y-106945000D01*
X159975789Y-106945000D01*
X159843568Y-106931978D01*
X159673919Y-106880515D01*
X159517567Y-106796944D01*
X159380525Y-106684475D01*
X159268056Y-106547433D01*
X159184485Y-106391081D01*
X159133022Y-106221432D01*
X159115646Y-106045000D01*
X159133022Y-105868568D01*
X159184485Y-105698919D01*
X159268056Y-105542567D01*
X159380525Y-105405525D01*
X159517567Y-105293056D01*
X159673919Y-105209485D01*
X159843568Y-105158022D01*
X159975789Y-105145000D01*
X160064211Y-105145000D01*
X160196432Y-105158022D01*
X160196432Y-105158022D01*
G37*
G36*
X162736432Y-105158022D02*
X162906081Y-105209485D01*
X163062433Y-105293056D01*
X163199475Y-105405525D01*
X163311944Y-105542567D01*
X163395515Y-105698919D01*
X163446978Y-105868568D01*
X163464354Y-106045000D01*
X163446978Y-106221432D01*
X163395515Y-106391081D01*
X163311944Y-106547433D01*
X163199475Y-106684475D01*
X163062433Y-106796944D01*
X162906081Y-106880515D01*
X162736432Y-106931978D01*
X162604211Y-106945000D01*
X162515789Y-106945000D01*
X162383568Y-106931978D01*
X162213919Y-106880515D01*
X162057567Y-106796944D01*
X161920525Y-106684475D01*
X161808056Y-106547433D01*
X161724485Y-106391081D01*
X161673022Y-106221432D01*
X161655646Y-106045000D01*
X161673022Y-105868568D01*
X161724485Y-105698919D01*
X161808056Y-105542567D01*
X161920525Y-105405525D01*
X162057567Y-105293056D01*
X162213919Y-105209485D01*
X162383568Y-105158022D01*
X162515789Y-105145000D01*
X162604211Y-105145000D01*
X162736432Y-105158022D01*
X162736432Y-105158022D01*
G37*
G36*
X170356432Y-105158022D02*
X170526081Y-105209485D01*
X170682433Y-105293056D01*
X170819475Y-105405525D01*
X170931944Y-105542567D01*
X171015515Y-105698919D01*
X171066978Y-105868568D01*
X171084354Y-106045000D01*
X171066978Y-106221432D01*
X171015515Y-106391081D01*
X170931944Y-106547433D01*
X170819475Y-106684475D01*
X170682433Y-106796944D01*
X170526081Y-106880515D01*
X170356432Y-106931978D01*
X170224211Y-106945000D01*
X170135789Y-106945000D01*
X170003568Y-106931978D01*
X169833919Y-106880515D01*
X169677567Y-106796944D01*
X169540525Y-106684475D01*
X169428056Y-106547433D01*
X169344485Y-106391081D01*
X169293022Y-106221432D01*
X169275646Y-106045000D01*
X169293022Y-105868568D01*
X169344485Y-105698919D01*
X169428056Y-105542567D01*
X169540525Y-105405525D01*
X169677567Y-105293056D01*
X169833919Y-105209485D01*
X170003568Y-105158022D01*
X170135789Y-105145000D01*
X170224211Y-105145000D01*
X170356432Y-105158022D01*
X170356432Y-105158022D01*
G37*
G36*
X172896432Y-105158022D02*
X173066081Y-105209485D01*
X173222433Y-105293056D01*
X173359475Y-105405525D01*
X173471944Y-105542567D01*
X173555515Y-105698919D01*
X173606978Y-105868568D01*
X173624354Y-106045000D01*
X173606978Y-106221432D01*
X173555515Y-106391081D01*
X173471944Y-106547433D01*
X173359475Y-106684475D01*
X173222433Y-106796944D01*
X173066081Y-106880515D01*
X172896432Y-106931978D01*
X172764211Y-106945000D01*
X172675789Y-106945000D01*
X172543568Y-106931978D01*
X172373919Y-106880515D01*
X172217567Y-106796944D01*
X172080525Y-106684475D01*
X171968056Y-106547433D01*
X171884485Y-106391081D01*
X171833022Y-106221432D01*
X171815646Y-106045000D01*
X171833022Y-105868568D01*
X171884485Y-105698919D01*
X171968056Y-105542567D01*
X172080525Y-105405525D01*
X172217567Y-105293056D01*
X172373919Y-105209485D01*
X172543568Y-105158022D01*
X172675789Y-105145000D01*
X172764211Y-105145000D01*
X172896432Y-105158022D01*
X172896432Y-105158022D01*
G37*
G36*
X175436432Y-105158022D02*
X175606081Y-105209485D01*
X175762433Y-105293056D01*
X175899475Y-105405525D01*
X176011944Y-105542567D01*
X176095515Y-105698919D01*
X176146978Y-105868568D01*
X176164354Y-106045000D01*
X176146978Y-106221432D01*
X176095515Y-106391081D01*
X176011944Y-106547433D01*
X175899475Y-106684475D01*
X175762433Y-106796944D01*
X175606081Y-106880515D01*
X175436432Y-106931978D01*
X175304211Y-106945000D01*
X175215789Y-106945000D01*
X175083568Y-106931978D01*
X174913919Y-106880515D01*
X174757567Y-106796944D01*
X174620525Y-106684475D01*
X174508056Y-106547433D01*
X174424485Y-106391081D01*
X174373022Y-106221432D01*
X174355646Y-106045000D01*
X174373022Y-105868568D01*
X174424485Y-105698919D01*
X174508056Y-105542567D01*
X174620525Y-105405525D01*
X174757567Y-105293056D01*
X174913919Y-105209485D01*
X175083568Y-105158022D01*
X175215789Y-105145000D01*
X175304211Y-105145000D01*
X175436432Y-105158022D01*
X175436432Y-105158022D01*
G37*
G36*
X177976432Y-105158022D02*
X178146081Y-105209485D01*
X178302433Y-105293056D01*
X178439475Y-105405525D01*
X178551944Y-105542567D01*
X178635515Y-105698919D01*
X178686978Y-105868568D01*
X178704354Y-106045000D01*
X178686978Y-106221432D01*
X178635515Y-106391081D01*
X178551944Y-106547433D01*
X178439475Y-106684475D01*
X178302433Y-106796944D01*
X178146081Y-106880515D01*
X177976432Y-106931978D01*
X177844211Y-106945000D01*
X177755789Y-106945000D01*
X177623568Y-106931978D01*
X177453919Y-106880515D01*
X177297567Y-106796944D01*
X177160525Y-106684475D01*
X177048056Y-106547433D01*
X176964485Y-106391081D01*
X176913022Y-106221432D01*
X176895646Y-106045000D01*
X176913022Y-105868568D01*
X176964485Y-105698919D01*
X177048056Y-105542567D01*
X177160525Y-105405525D01*
X177297567Y-105293056D01*
X177453919Y-105209485D01*
X177623568Y-105158022D01*
X177755789Y-105145000D01*
X177844211Y-105145000D01*
X177976432Y-105158022D01*
X177976432Y-105158022D01*
G37*
G36*
X180516432Y-105158022D02*
X180686081Y-105209485D01*
X180842433Y-105293056D01*
X180979475Y-105405525D01*
X181091944Y-105542567D01*
X181175515Y-105698919D01*
X181226978Y-105868568D01*
X181244354Y-106045000D01*
X181226978Y-106221432D01*
X181175515Y-106391081D01*
X181091944Y-106547433D01*
X180979475Y-106684475D01*
X180842433Y-106796944D01*
X180686081Y-106880515D01*
X180516432Y-106931978D01*
X180384211Y-106945000D01*
X180295789Y-106945000D01*
X180163568Y-106931978D01*
X179993919Y-106880515D01*
X179837567Y-106796944D01*
X179700525Y-106684475D01*
X179588056Y-106547433D01*
X179504485Y-106391081D01*
X179453022Y-106221432D01*
X179435646Y-106045000D01*
X179453022Y-105868568D01*
X179504485Y-105698919D01*
X179588056Y-105542567D01*
X179700525Y-105405525D01*
X179837567Y-105293056D01*
X179993919Y-105209485D01*
X180163568Y-105158022D01*
X180295789Y-105145000D01*
X180384211Y-105145000D01*
X180516432Y-105158022D01*
X180516432Y-105158022D01*
G37*
G36*
X183056432Y-105158022D02*
X183226081Y-105209485D01*
X183382433Y-105293056D01*
X183519475Y-105405525D01*
X183631944Y-105542567D01*
X183715515Y-105698919D01*
X183766978Y-105868568D01*
X183784354Y-106045000D01*
X183766978Y-106221432D01*
X183715515Y-106391081D01*
X183631944Y-106547433D01*
X183519475Y-106684475D01*
X183382433Y-106796944D01*
X183226081Y-106880515D01*
X183056432Y-106931978D01*
X182924211Y-106945000D01*
X182835789Y-106945000D01*
X182703568Y-106931978D01*
X182533919Y-106880515D01*
X182377567Y-106796944D01*
X182240525Y-106684475D01*
X182128056Y-106547433D01*
X182044485Y-106391081D01*
X181993022Y-106221432D01*
X181975646Y-106045000D01*
X181993022Y-105868568D01*
X182044485Y-105698919D01*
X182128056Y-105542567D01*
X182240525Y-105405525D01*
X182377567Y-105293056D01*
X182533919Y-105209485D01*
X182703568Y-105158022D01*
X182835789Y-105145000D01*
X182924211Y-105145000D01*
X183056432Y-105158022D01*
X183056432Y-105158022D01*
G37*
G36*
X185596432Y-105158022D02*
X185766081Y-105209485D01*
X185922433Y-105293056D01*
X186059475Y-105405525D01*
X186171944Y-105542567D01*
X186255515Y-105698919D01*
X186306978Y-105868568D01*
X186324354Y-106045000D01*
X186306978Y-106221432D01*
X186255515Y-106391081D01*
X186171944Y-106547433D01*
X186059475Y-106684475D01*
X185922433Y-106796944D01*
X185766081Y-106880515D01*
X185596432Y-106931978D01*
X185464211Y-106945000D01*
X185375789Y-106945000D01*
X185243568Y-106931978D01*
X185073919Y-106880515D01*
X184917567Y-106796944D01*
X184780525Y-106684475D01*
X184668056Y-106547433D01*
X184584485Y-106391081D01*
X184533022Y-106221432D01*
X184515646Y-106045000D01*
X184533022Y-105868568D01*
X184584485Y-105698919D01*
X184668056Y-105542567D01*
X184780525Y-105405525D01*
X184917567Y-105293056D01*
X185073919Y-105209485D01*
X185243568Y-105158022D01*
X185375789Y-105145000D01*
X185464211Y-105145000D01*
X185596432Y-105158022D01*
X185596432Y-105158022D01*
G37*
G36*
X167816432Y-105158022D02*
X167986081Y-105209485D01*
X168142433Y-105293056D01*
X168279475Y-105405525D01*
X168391944Y-105542567D01*
X168475515Y-105698919D01*
X168526978Y-105868568D01*
X168544354Y-106045000D01*
X168526978Y-106221432D01*
X168475515Y-106391081D01*
X168391944Y-106547433D01*
X168279475Y-106684475D01*
X168142433Y-106796944D01*
X167986081Y-106880515D01*
X167816432Y-106931978D01*
X167684211Y-106945000D01*
X167595789Y-106945000D01*
X167463568Y-106931978D01*
X167293919Y-106880515D01*
X167137567Y-106796944D01*
X167000525Y-106684475D01*
X166888056Y-106547433D01*
X166804485Y-106391081D01*
X166753022Y-106221432D01*
X166735646Y-106045000D01*
X166753022Y-105868568D01*
X166804485Y-105698919D01*
X166888056Y-105542567D01*
X167000525Y-105405525D01*
X167137567Y-105293056D01*
X167293919Y-105209485D01*
X167463568Y-105158022D01*
X167595789Y-105145000D01*
X167684211Y-105145000D01*
X167816432Y-105158022D01*
X167816432Y-105158022D01*
G37*
G36*
X253580000Y-86575000D02*
X251880000Y-86575000D01*
X251880000Y-84875000D01*
X253580000Y-84875000D01*
X253580000Y-86575000D01*
X253580000Y-86575000D01*
G37*
G36*
X265663352Y-84955743D02*
X265808941Y-85016048D01*
X265939973Y-85103601D01*
X266051399Y-85215027D01*
X266138952Y-85346059D01*
X266199257Y-85491648D01*
X266230000Y-85646205D01*
X266230000Y-85803795D01*
X266199257Y-85958352D01*
X266138952Y-86103941D01*
X266051399Y-86234973D01*
X265939973Y-86346399D01*
X265808941Y-86433952D01*
X265663352Y-86494257D01*
X265508795Y-86525000D01*
X265351205Y-86525000D01*
X265196648Y-86494257D01*
X265051059Y-86433952D01*
X264920027Y-86346399D01*
X264808601Y-86234973D01*
X264721048Y-86103941D01*
X264660743Y-85958352D01*
X264630000Y-85803795D01*
X264630000Y-85646205D01*
X264660743Y-85491648D01*
X264721048Y-85346059D01*
X264808601Y-85215027D01*
X264920027Y-85103601D01*
X265051059Y-85016048D01*
X265196648Y-84955743D01*
X265351205Y-84925000D01*
X265508795Y-84925000D01*
X265663352Y-84955743D01*
X265663352Y-84955743D01*
G37*
G36*
X268203352Y-84955743D02*
X268348941Y-85016048D01*
X268479973Y-85103601D01*
X268591399Y-85215027D01*
X268678952Y-85346059D01*
X268739257Y-85491648D01*
X268770000Y-85646205D01*
X268770000Y-85803795D01*
X268739257Y-85958352D01*
X268678952Y-86103941D01*
X268591399Y-86234973D01*
X268479973Y-86346399D01*
X268348941Y-86433952D01*
X268203352Y-86494257D01*
X268048795Y-86525000D01*
X267891205Y-86525000D01*
X267736648Y-86494257D01*
X267591059Y-86433952D01*
X267460027Y-86346399D01*
X267348601Y-86234973D01*
X267261048Y-86103941D01*
X267200743Y-85958352D01*
X267170000Y-85803795D01*
X267170000Y-85646205D01*
X267200743Y-85491648D01*
X267261048Y-85346059D01*
X267348601Y-85215027D01*
X267460027Y-85103601D01*
X267591059Y-85016048D01*
X267736648Y-84955743D01*
X267891205Y-84925000D01*
X268048795Y-84925000D01*
X268203352Y-84955743D01*
X268203352Y-84955743D01*
G37*
G36*
X263690000Y-86525000D02*
X262090000Y-86525000D01*
X262090000Y-84925000D01*
X263690000Y-84925000D01*
X263690000Y-86525000D01*
X263690000Y-86525000D01*
G37*
G36*
X239007934Y-84827664D02*
X239162627Y-84891740D01*
X239301847Y-84984764D01*
X239420236Y-85103153D01*
X239513260Y-85242373D01*
X239577336Y-85397066D01*
X239610000Y-85561281D01*
X239610000Y-85728719D01*
X239577336Y-85892934D01*
X239513260Y-86047627D01*
X239420236Y-86186847D01*
X239301847Y-86305236D01*
X239162627Y-86398260D01*
X239007934Y-86462336D01*
X238843719Y-86495000D01*
X238676281Y-86495000D01*
X238512066Y-86462336D01*
X238357373Y-86398260D01*
X238218153Y-86305236D01*
X238099764Y-86186847D01*
X238006740Y-86047627D01*
X237942664Y-85892934D01*
X237910000Y-85728719D01*
X237910000Y-85561281D01*
X237942664Y-85397066D01*
X238006740Y-85242373D01*
X238099764Y-85103153D01*
X238218153Y-84984764D01*
X238357373Y-84891740D01*
X238512066Y-84827664D01*
X238676281Y-84795000D01*
X238843719Y-84795000D01*
X239007934Y-84827664D01*
X239007934Y-84827664D01*
G37*
G36*
X223716526Y-82784505D02*
X223905496Y-82841829D01*
X224079654Y-82934918D01*
X224232304Y-83060196D01*
X224357582Y-83212846D01*
X224450671Y-83387005D01*
X224507995Y-83575975D01*
X224522500Y-83723254D01*
X224522500Y-83916747D01*
X224507995Y-84064026D01*
X224450671Y-84252996D01*
X224357582Y-84427154D01*
X224232304Y-84579804D01*
X224079654Y-84705082D01*
X223905495Y-84798171D01*
X223716525Y-84855495D01*
X223520000Y-84874850D01*
X223323474Y-84855495D01*
X223134504Y-84798171D01*
X222960346Y-84705082D01*
X222807696Y-84579804D01*
X222682418Y-84427154D01*
X222589329Y-84252995D01*
X222532005Y-84064025D01*
X222517500Y-83916746D01*
X222517500Y-83723253D01*
X222532005Y-83575974D01*
X222589329Y-83387004D01*
X222682418Y-83212846D01*
X222807696Y-83060196D01*
X222960347Y-82934918D01*
X223134505Y-82841829D01*
X223323475Y-82784505D01*
X223520000Y-82765150D01*
X223716526Y-82784505D01*
X223716526Y-82784505D01*
G37*
G36*
X221176526Y-82784505D02*
X221365496Y-82841829D01*
X221539654Y-82934918D01*
X221692304Y-83060196D01*
X221817582Y-83212846D01*
X221910671Y-83387005D01*
X221967995Y-83575975D01*
X221982500Y-83723254D01*
X221982500Y-83916747D01*
X221967995Y-84064026D01*
X221910671Y-84252996D01*
X221817582Y-84427154D01*
X221692304Y-84579804D01*
X221539654Y-84705082D01*
X221365495Y-84798171D01*
X221176525Y-84855495D01*
X220980000Y-84874850D01*
X220783474Y-84855495D01*
X220594504Y-84798171D01*
X220420346Y-84705082D01*
X220267696Y-84579804D01*
X220142418Y-84427154D01*
X220049329Y-84252995D01*
X219992005Y-84064025D01*
X219977500Y-83916746D01*
X219977500Y-83723253D01*
X219992005Y-83575974D01*
X220049329Y-83387004D01*
X220142418Y-83212846D01*
X220267696Y-83060196D01*
X220420347Y-82934918D01*
X220594505Y-82841829D01*
X220783475Y-82784505D01*
X220980000Y-82765150D01*
X221176526Y-82784505D01*
X221176526Y-82784505D01*
G37*
G36*
X227062500Y-84870000D02*
X225057500Y-84870000D01*
X225057500Y-82770000D01*
X227062500Y-82770000D01*
X227062500Y-84870000D01*
X227062500Y-84870000D01*
G37*
G36*
X202812934Y-82922664D02*
X202967627Y-82986740D01*
X203106847Y-83079764D01*
X203225236Y-83198153D01*
X203318260Y-83337373D01*
X203382336Y-83492066D01*
X203415000Y-83656281D01*
X203415000Y-83823719D01*
X203382336Y-83987934D01*
X203318260Y-84142627D01*
X203225236Y-84281847D01*
X203106847Y-84400236D01*
X202967627Y-84493260D01*
X202812934Y-84557336D01*
X202648719Y-84590000D01*
X202481281Y-84590000D01*
X202317066Y-84557336D01*
X202162373Y-84493260D01*
X202023153Y-84400236D01*
X201904764Y-84281847D01*
X201811740Y-84142627D01*
X201747664Y-83987934D01*
X201715000Y-83823719D01*
X201715000Y-83656281D01*
X201747664Y-83492066D01*
X201811740Y-83337373D01*
X201904764Y-83198153D01*
X202023153Y-83079764D01*
X202162373Y-82986740D01*
X202317066Y-82922664D01*
X202481281Y-82890000D01*
X202648719Y-82890000D01*
X202812934Y-82922664D01*
X202812934Y-82922664D01*
G37*
G36*
X212305000Y-84590000D02*
X210605000Y-84590000D01*
X210605000Y-82890000D01*
X212305000Y-82890000D01*
X212305000Y-84590000D01*
X212305000Y-84590000D01*
G37*
G36*
X252977934Y-79907664D02*
X253132627Y-79971740D01*
X253271847Y-80064764D01*
X253390236Y-80183153D01*
X253483260Y-80322373D01*
X253547336Y-80477066D01*
X253580000Y-80641281D01*
X253580000Y-80808719D01*
X253547336Y-80972934D01*
X253483260Y-81127627D01*
X253390236Y-81266847D01*
X253271847Y-81385236D01*
X253132627Y-81478260D01*
X252977934Y-81542336D01*
X252813719Y-81575000D01*
X252646281Y-81575000D01*
X252482066Y-81542336D01*
X252327373Y-81478260D01*
X252188153Y-81385236D01*
X252069764Y-81266847D01*
X251976740Y-81127627D01*
X251912664Y-80972934D01*
X251880000Y-80808719D01*
X251880000Y-80641281D01*
X251912664Y-80477066D01*
X251976740Y-80322373D01*
X252069764Y-80183153D01*
X252188153Y-80064764D01*
X252327373Y-79971740D01*
X252482066Y-79907664D01*
X252646281Y-79875000D01*
X252813719Y-79875000D01*
X252977934Y-79907664D01*
X252977934Y-79907664D01*
G37*
G36*
X239007934Y-79827664D02*
X239162627Y-79891740D01*
X239301847Y-79984764D01*
X239420236Y-80103153D01*
X239513260Y-80242373D01*
X239577336Y-80397066D01*
X239610000Y-80561281D01*
X239610000Y-80728719D01*
X239577336Y-80892934D01*
X239513260Y-81047627D01*
X239420236Y-81186847D01*
X239301847Y-81305236D01*
X239162627Y-81398260D01*
X239007934Y-81462336D01*
X238843719Y-81495000D01*
X238676281Y-81495000D01*
X238512066Y-81462336D01*
X238357373Y-81398260D01*
X238218153Y-81305236D01*
X238099764Y-81186847D01*
X238006740Y-81047627D01*
X237942664Y-80892934D01*
X237910000Y-80728719D01*
X237910000Y-80561281D01*
X237942664Y-80397066D01*
X238006740Y-80242373D01*
X238099764Y-80103153D01*
X238218153Y-79984764D01*
X238357373Y-79891740D01*
X238512066Y-79827664D01*
X238676281Y-79795000D01*
X238843719Y-79795000D01*
X239007934Y-79827664D01*
X239007934Y-79827664D01*
G37*
G36*
X211702934Y-77922664D02*
X211857627Y-77986740D01*
X211996847Y-78079764D01*
X212115236Y-78198153D01*
X212208260Y-78337373D01*
X212272336Y-78492066D01*
X212305000Y-78656281D01*
X212305000Y-78823719D01*
X212272336Y-78987934D01*
X212208260Y-79142627D01*
X212115236Y-79281847D01*
X211996847Y-79400236D01*
X211857627Y-79493260D01*
X211702934Y-79557336D01*
X211538719Y-79590000D01*
X211371281Y-79590000D01*
X211207066Y-79557336D01*
X211052373Y-79493260D01*
X210913153Y-79400236D01*
X210794764Y-79281847D01*
X210701740Y-79142627D01*
X210637664Y-78987934D01*
X210605000Y-78823719D01*
X210605000Y-78656281D01*
X210637664Y-78492066D01*
X210701740Y-78337373D01*
X210794764Y-78198153D01*
X210913153Y-78079764D01*
X211052373Y-77986740D01*
X211207066Y-77922664D01*
X211371281Y-77890000D01*
X211538719Y-77890000D01*
X211702934Y-77922664D01*
X211702934Y-77922664D01*
G37*
G36*
X202812934Y-77922664D02*
X202967627Y-77986740D01*
X203106847Y-78079764D01*
X203225236Y-78198153D01*
X203318260Y-78337373D01*
X203382336Y-78492066D01*
X203415000Y-78656281D01*
X203415000Y-78823719D01*
X203382336Y-78987934D01*
X203318260Y-79142627D01*
X203225236Y-79281847D01*
X203106847Y-79400236D01*
X202967627Y-79493260D01*
X202812934Y-79557336D01*
X202648719Y-79590000D01*
X202481281Y-79590000D01*
X202317066Y-79557336D01*
X202162373Y-79493260D01*
X202023153Y-79400236D01*
X201904764Y-79281847D01*
X201811740Y-79142627D01*
X201747664Y-78987934D01*
X201715000Y-78823719D01*
X201715000Y-78656281D01*
X201747664Y-78492066D01*
X201811740Y-78337373D01*
X201904764Y-78198153D01*
X202023153Y-78079764D01*
X202162373Y-77986740D01*
X202317066Y-77922664D01*
X202481281Y-77890000D01*
X202648719Y-77890000D01*
X202812934Y-77922664D01*
X202812934Y-77922664D01*
G37*
G36*
X257422934Y-74112664D02*
X257577627Y-74176740D01*
X257716847Y-74269764D01*
X257835236Y-74388153D01*
X257928260Y-74527373D01*
X257992336Y-74682066D01*
X258025000Y-74846281D01*
X258025000Y-75013719D01*
X257992336Y-75177934D01*
X257928260Y-75332627D01*
X257835236Y-75471847D01*
X257716847Y-75590236D01*
X257577627Y-75683260D01*
X257422934Y-75747336D01*
X257258719Y-75780000D01*
X257091281Y-75780000D01*
X256927066Y-75747336D01*
X256772373Y-75683260D01*
X256633153Y-75590236D01*
X256514764Y-75471847D01*
X256421740Y-75332627D01*
X256357664Y-75177934D01*
X256325000Y-75013719D01*
X256325000Y-74846281D01*
X256357664Y-74682066D01*
X256421740Y-74527373D01*
X256514764Y-74388153D01*
X256633153Y-74269764D01*
X256772373Y-74176740D01*
X256927066Y-74112664D01*
X257091281Y-74080000D01*
X257258719Y-74080000D01*
X257422934Y-74112664D01*
X257422934Y-74112664D01*
G37*
G36*
X246627934Y-74112664D02*
X246782627Y-74176740D01*
X246921847Y-74269764D01*
X247040236Y-74388153D01*
X247133260Y-74527373D01*
X247197336Y-74682066D01*
X247230000Y-74846281D01*
X247230000Y-75013719D01*
X247197336Y-75177934D01*
X247133260Y-75332627D01*
X247040236Y-75471847D01*
X246921847Y-75590236D01*
X246782627Y-75683260D01*
X246627934Y-75747336D01*
X246463719Y-75780000D01*
X246296281Y-75780000D01*
X246132066Y-75747336D01*
X245977373Y-75683260D01*
X245838153Y-75590236D01*
X245719764Y-75471847D01*
X245626740Y-75332627D01*
X245562664Y-75177934D01*
X245530000Y-75013719D01*
X245530000Y-74846281D01*
X245562664Y-74682066D01*
X245626740Y-74527373D01*
X245719764Y-74388153D01*
X245838153Y-74269764D01*
X245977373Y-74176740D01*
X246132066Y-74112664D01*
X246296281Y-74080000D01*
X246463719Y-74080000D01*
X246627934Y-74112664D01*
X246627934Y-74112664D01*
G37*
G36*
X241627934Y-74112664D02*
X241782627Y-74176740D01*
X241921847Y-74269764D01*
X242040236Y-74388153D01*
X242133260Y-74527373D01*
X242197336Y-74682066D01*
X242230000Y-74846281D01*
X242230000Y-75013719D01*
X242197336Y-75177934D01*
X242133260Y-75332627D01*
X242040236Y-75471847D01*
X241921847Y-75590236D01*
X241782627Y-75683260D01*
X241627934Y-75747336D01*
X241463719Y-75780000D01*
X241296281Y-75780000D01*
X241132066Y-75747336D01*
X240977373Y-75683260D01*
X240838153Y-75590236D01*
X240719764Y-75471847D01*
X240626740Y-75332627D01*
X240562664Y-75177934D01*
X240530000Y-75013719D01*
X240530000Y-74846281D01*
X240562664Y-74682066D01*
X240626740Y-74527373D01*
X240719764Y-74388153D01*
X240838153Y-74269764D01*
X240977373Y-74176740D01*
X241132066Y-74112664D01*
X241296281Y-74080000D01*
X241463719Y-74080000D01*
X241627934Y-74112664D01*
X241627934Y-74112664D01*
G37*
G36*
X262422934Y-74112664D02*
X262577627Y-74176740D01*
X262716847Y-74269764D01*
X262835236Y-74388153D01*
X262928260Y-74527373D01*
X262992336Y-74682066D01*
X263025000Y-74846281D01*
X263025000Y-75013719D01*
X262992336Y-75177934D01*
X262928260Y-75332627D01*
X262835236Y-75471847D01*
X262716847Y-75590236D01*
X262577627Y-75683260D01*
X262422934Y-75747336D01*
X262258719Y-75780000D01*
X262091281Y-75780000D01*
X261927066Y-75747336D01*
X261772373Y-75683260D01*
X261633153Y-75590236D01*
X261514764Y-75471847D01*
X261421740Y-75332627D01*
X261357664Y-75177934D01*
X261325000Y-75013719D01*
X261325000Y-74846281D01*
X261357664Y-74682066D01*
X261421740Y-74527373D01*
X261514764Y-74388153D01*
X261633153Y-74269764D01*
X261772373Y-74176740D01*
X261927066Y-74112664D01*
X262091281Y-74080000D01*
X262258719Y-74080000D01*
X262422934Y-74112664D01*
X262422934Y-74112664D01*
G37*
G36*
X246547934Y-65857664D02*
X246702627Y-65921740D01*
X246841847Y-66014764D01*
X246960236Y-66133153D01*
X247053260Y-66272373D01*
X247117336Y-66427066D01*
X247150000Y-66591281D01*
X247150000Y-66758719D01*
X247117336Y-66922934D01*
X247053260Y-67077627D01*
X246960236Y-67216847D01*
X246841847Y-67335236D01*
X246702627Y-67428260D01*
X246547934Y-67492336D01*
X246383719Y-67525000D01*
X246216281Y-67525000D01*
X246052066Y-67492336D01*
X245897373Y-67428260D01*
X245758153Y-67335236D01*
X245639764Y-67216847D01*
X245546740Y-67077627D01*
X245482664Y-66922934D01*
X245450000Y-66758719D01*
X245450000Y-66591281D01*
X245482664Y-66427066D01*
X245546740Y-66272373D01*
X245639764Y-66133153D01*
X245758153Y-66014764D01*
X245897373Y-65921740D01*
X246052066Y-65857664D01*
X246216281Y-65825000D01*
X246383719Y-65825000D01*
X246547934Y-65857664D01*
X246547934Y-65857664D01*
G37*
G36*
X263105000Y-67525000D02*
X261405000Y-67525000D01*
X261405000Y-65825000D01*
X263105000Y-65825000D01*
X263105000Y-67525000D01*
X263105000Y-67525000D01*
G37*
G36*
X257502934Y-65857664D02*
X257657627Y-65921740D01*
X257796847Y-66014764D01*
X257915236Y-66133153D01*
X258008260Y-66272373D01*
X258072336Y-66427066D01*
X258105000Y-66591281D01*
X258105000Y-66758719D01*
X258072336Y-66922934D01*
X258008260Y-67077627D01*
X257915236Y-67216847D01*
X257796847Y-67335236D01*
X257657627Y-67428260D01*
X257502934Y-67492336D01*
X257338719Y-67525000D01*
X257171281Y-67525000D01*
X257007066Y-67492336D01*
X256852373Y-67428260D01*
X256713153Y-67335236D01*
X256594764Y-67216847D01*
X256501740Y-67077627D01*
X256437664Y-66922934D01*
X256405000Y-66758719D01*
X256405000Y-66591281D01*
X256437664Y-66427066D01*
X256501740Y-66272373D01*
X256594764Y-66133153D01*
X256713153Y-66014764D01*
X256852373Y-65921740D01*
X257007066Y-65857664D01*
X257171281Y-65825000D01*
X257338719Y-65825000D01*
X257502934Y-65857664D01*
X257502934Y-65857664D01*
G37*
G36*
X242150000Y-67525000D02*
X240450000Y-67525000D01*
X240450000Y-65825000D01*
X242150000Y-65825000D01*
X242150000Y-67525000D01*
X242150000Y-67525000D01*
G37*
G36*
X152335250Y-61620129D02*
X152691040Y-61767502D01*
X153011243Y-61981455D01*
X153283545Y-62253757D01*
X153497498Y-62573960D01*
X153644871Y-62929750D01*
X153720000Y-63307448D01*
X153720000Y-63692552D01*
X153644871Y-64070250D01*
X153497498Y-64426040D01*
X153283545Y-64746243D01*
X153011243Y-65018545D01*
X152691040Y-65232498D01*
X152335250Y-65379871D01*
X151957552Y-65455000D01*
X151572448Y-65455000D01*
X151194750Y-65379871D01*
X150838960Y-65232498D01*
X150518757Y-65018545D01*
X150246455Y-64746243D01*
X150032502Y-64426040D01*
X149885129Y-64070250D01*
X149810000Y-63692552D01*
X149810000Y-63307448D01*
X149885129Y-62929750D01*
X150032502Y-62573960D01*
X150246455Y-62253757D01*
X150518757Y-61981455D01*
X150838960Y-61767502D01*
X151194750Y-61620129D01*
X151572448Y-61545000D01*
X151957552Y-61545000D01*
X152335250Y-61620129D01*
X152335250Y-61620129D01*
G37*
G36*
X212025250Y-61620129D02*
X212381040Y-61767502D01*
X212701243Y-61981455D01*
X212973545Y-62253757D01*
X213187498Y-62573960D01*
X213334871Y-62929750D01*
X213410000Y-63307448D01*
X213410000Y-63692552D01*
X213334871Y-64070250D01*
X213187498Y-64426040D01*
X212973545Y-64746243D01*
X212701243Y-65018545D01*
X212381040Y-65232498D01*
X212025250Y-65379871D01*
X211647552Y-65455000D01*
X211262448Y-65455000D01*
X210884750Y-65379871D01*
X210528960Y-65232498D01*
X210208757Y-65018545D01*
X209936455Y-64746243D01*
X209722502Y-64426040D01*
X209575129Y-64070250D01*
X209500000Y-63692552D01*
X209500000Y-63307448D01*
X209575129Y-62929750D01*
X209722502Y-62573960D01*
X209936455Y-62253757D01*
X210208757Y-61981455D01*
X210528960Y-61767502D01*
X210884750Y-61620129D01*
X211262448Y-61545000D01*
X211647552Y-61545000D01*
X212025250Y-61620129D01*
X212025250Y-61620129D01*
G37*
G36*
X205675250Y-61620129D02*
X206031040Y-61767502D01*
X206351243Y-61981455D01*
X206623545Y-62253757D01*
X206837498Y-62573960D01*
X206984871Y-62929750D01*
X207060000Y-63307448D01*
X207060000Y-63692552D01*
X206984871Y-64070250D01*
X206837498Y-64426040D01*
X206623545Y-64746243D01*
X206351243Y-65018545D01*
X206031040Y-65232498D01*
X205675250Y-65379871D01*
X205297552Y-65455000D01*
X204912448Y-65455000D01*
X204534750Y-65379871D01*
X204178960Y-65232498D01*
X203858757Y-65018545D01*
X203586455Y-64746243D01*
X203372502Y-64426040D01*
X203225129Y-64070250D01*
X203150000Y-63692552D01*
X203150000Y-63307448D01*
X203225129Y-62929750D01*
X203372502Y-62573960D01*
X203586455Y-62253757D01*
X203858757Y-61981455D01*
X204178960Y-61767502D01*
X204534750Y-61620129D01*
X204912448Y-61545000D01*
X205297552Y-61545000D01*
X205675250Y-61620129D01*
X205675250Y-61620129D01*
G37*
G36*
X125665250Y-61620129D02*
X126021040Y-61767502D01*
X126341243Y-61981455D01*
X126613545Y-62253757D01*
X126827498Y-62573960D01*
X126974871Y-62929750D01*
X127050000Y-63307448D01*
X127050000Y-63692552D01*
X126974871Y-64070250D01*
X126827498Y-64426040D01*
X126613545Y-64746243D01*
X126341243Y-65018545D01*
X126021040Y-65232498D01*
X125665250Y-65379871D01*
X125287552Y-65455000D01*
X124902448Y-65455000D01*
X124524750Y-65379871D01*
X124168960Y-65232498D01*
X123848757Y-65018545D01*
X123576455Y-64746243D01*
X123362502Y-64426040D01*
X123215129Y-64070250D01*
X123140000Y-63692552D01*
X123140000Y-63307448D01*
X123215129Y-62929750D01*
X123362502Y-62573960D01*
X123576455Y-62253757D01*
X123848757Y-61981455D01*
X124168960Y-61767502D01*
X124524750Y-61620129D01*
X124902448Y-61545000D01*
X125287552Y-61545000D01*
X125665250Y-61620129D01*
X125665250Y-61620129D01*
G37*
G36*
X132015250Y-61620129D02*
X132371040Y-61767502D01*
X132691243Y-61981455D01*
X132963545Y-62253757D01*
X133177498Y-62573960D01*
X133324871Y-62929750D01*
X133400000Y-63307448D01*
X133400000Y-63692552D01*
X133324871Y-64070250D01*
X133177498Y-64426040D01*
X132963545Y-64746243D01*
X132691243Y-65018545D01*
X132371040Y-65232498D01*
X132015250Y-65379871D01*
X131637552Y-65455000D01*
X131252448Y-65455000D01*
X130874750Y-65379871D01*
X130518960Y-65232498D01*
X130198757Y-65018545D01*
X129926455Y-64746243D01*
X129712502Y-64426040D01*
X129565129Y-64070250D01*
X129490000Y-63692552D01*
X129490000Y-63307448D01*
X129565129Y-62929750D01*
X129712502Y-62573960D01*
X129926455Y-62253757D01*
X130198757Y-61981455D01*
X130518960Y-61767502D01*
X130874750Y-61620129D01*
X131252448Y-61545000D01*
X131637552Y-61545000D01*
X132015250Y-61620129D01*
X132015250Y-61620129D01*
G37*
G36*
X98995250Y-61620129D02*
X99351040Y-61767502D01*
X99671243Y-61981455D01*
X99943545Y-62253757D01*
X100157498Y-62573960D01*
X100304871Y-62929750D01*
X100380000Y-63307448D01*
X100380000Y-63692552D01*
X100304871Y-64070250D01*
X100157498Y-64426040D01*
X99943545Y-64746243D01*
X99671243Y-65018545D01*
X99351040Y-65232498D01*
X98995250Y-65379871D01*
X98617552Y-65455000D01*
X98232448Y-65455000D01*
X97854750Y-65379871D01*
X97498960Y-65232498D01*
X97178757Y-65018545D01*
X96906455Y-64746243D01*
X96692502Y-64426040D01*
X96545129Y-64070250D01*
X96470000Y-63692552D01*
X96470000Y-63307448D01*
X96545129Y-62929750D01*
X96692502Y-62573960D01*
X96906455Y-62253757D01*
X97178757Y-61981455D01*
X97498960Y-61767502D01*
X97854750Y-61620129D01*
X98232448Y-61545000D01*
X98617552Y-61545000D01*
X98995250Y-61620129D01*
X98995250Y-61620129D01*
G37*
G36*
X158685250Y-61620129D02*
X159041040Y-61767502D01*
X159361243Y-61981455D01*
X159633545Y-62253757D01*
X159847498Y-62573960D01*
X159994871Y-62929750D01*
X160070000Y-63307448D01*
X160070000Y-63692552D01*
X159994871Y-64070250D01*
X159847498Y-64426040D01*
X159633545Y-64746243D01*
X159361243Y-65018545D01*
X159041040Y-65232498D01*
X158685250Y-65379871D01*
X158307552Y-65455000D01*
X157922448Y-65455000D01*
X157544750Y-65379871D01*
X157188960Y-65232498D01*
X156868757Y-65018545D01*
X156596455Y-64746243D01*
X156382502Y-64426040D01*
X156235129Y-64070250D01*
X156160000Y-63692552D01*
X156160000Y-63307448D01*
X156235129Y-62929750D01*
X156382502Y-62573960D01*
X156596455Y-62253757D01*
X156868757Y-61981455D01*
X157188960Y-61767502D01*
X157544750Y-61620129D01*
X157922448Y-61545000D01*
X158307552Y-61545000D01*
X158685250Y-61620129D01*
X158685250Y-61620129D01*
G37*
G36*
X179005250Y-61620129D02*
X179361040Y-61767502D01*
X179681243Y-61981455D01*
X179953545Y-62253757D01*
X180167498Y-62573960D01*
X180314871Y-62929750D01*
X180390000Y-63307448D01*
X180390000Y-63692552D01*
X180314871Y-64070250D01*
X180167498Y-64426040D01*
X179953545Y-64746243D01*
X179681243Y-65018545D01*
X179361040Y-65232498D01*
X179005250Y-65379871D01*
X178627552Y-65455000D01*
X178242448Y-65455000D01*
X177864750Y-65379871D01*
X177508960Y-65232498D01*
X177188757Y-65018545D01*
X176916455Y-64746243D01*
X176702502Y-64426040D01*
X176555129Y-64070250D01*
X176480000Y-63692552D01*
X176480000Y-63307448D01*
X176555129Y-62929750D01*
X176702502Y-62573960D01*
X176916455Y-62253757D01*
X177188757Y-61981455D01*
X177508960Y-61767502D01*
X177864750Y-61620129D01*
X178242448Y-61545000D01*
X178627552Y-61545000D01*
X179005250Y-61620129D01*
X179005250Y-61620129D01*
G37*
G36*
X92645250Y-61620129D02*
X93001040Y-61767502D01*
X93321243Y-61981455D01*
X93593545Y-62253757D01*
X93807498Y-62573960D01*
X93954871Y-62929750D01*
X94030000Y-63307448D01*
X94030000Y-63692552D01*
X93954871Y-64070250D01*
X93807498Y-64426040D01*
X93593545Y-64746243D01*
X93321243Y-65018545D01*
X93001040Y-65232498D01*
X92645250Y-65379871D01*
X92267552Y-65455000D01*
X91882448Y-65455000D01*
X91504750Y-65379871D01*
X91148960Y-65232498D01*
X90828757Y-65018545D01*
X90556455Y-64746243D01*
X90342502Y-64426040D01*
X90195129Y-64070250D01*
X90120000Y-63692552D01*
X90120000Y-63307448D01*
X90195129Y-62929750D01*
X90342502Y-62573960D01*
X90556455Y-62253757D01*
X90828757Y-61981455D01*
X91148960Y-61767502D01*
X91504750Y-61620129D01*
X91882448Y-61545000D01*
X92267552Y-61545000D01*
X92645250Y-61620129D01*
X92645250Y-61620129D01*
G37*
G36*
X72325250Y-61620129D02*
X72681040Y-61767502D01*
X73001243Y-61981455D01*
X73273545Y-62253757D01*
X73487498Y-62573960D01*
X73634871Y-62929750D01*
X73710000Y-63307448D01*
X73710000Y-63692552D01*
X73634871Y-64070250D01*
X73487498Y-64426040D01*
X73273545Y-64746243D01*
X73001243Y-65018545D01*
X72681040Y-65232498D01*
X72325250Y-65379871D01*
X71947552Y-65455000D01*
X71562448Y-65455000D01*
X71184750Y-65379871D01*
X70828960Y-65232498D01*
X70508757Y-65018545D01*
X70236455Y-64746243D01*
X70022502Y-64426040D01*
X69875129Y-64070250D01*
X69800000Y-63692552D01*
X69800000Y-63307448D01*
X69875129Y-62929750D01*
X70022502Y-62573960D01*
X70236455Y-62253757D01*
X70508757Y-61981455D01*
X70828960Y-61767502D01*
X71184750Y-61620129D01*
X71562448Y-61545000D01*
X71947552Y-61545000D01*
X72325250Y-61620129D01*
X72325250Y-61620129D01*
G37*
G36*
X65975250Y-61620129D02*
X66331040Y-61767502D01*
X66651243Y-61981455D01*
X66923545Y-62253757D01*
X67137498Y-62573960D01*
X67284871Y-62929750D01*
X67360000Y-63307448D01*
X67360000Y-63692552D01*
X67284871Y-64070250D01*
X67137498Y-64426040D01*
X66923545Y-64746243D01*
X66651243Y-65018545D01*
X66331040Y-65232498D01*
X65975250Y-65379871D01*
X65597552Y-65455000D01*
X65212448Y-65455000D01*
X64834750Y-65379871D01*
X64478960Y-65232498D01*
X64158757Y-65018545D01*
X63886455Y-64746243D01*
X63672502Y-64426040D01*
X63525129Y-64070250D01*
X63450000Y-63692552D01*
X63450000Y-63307448D01*
X63525129Y-62929750D01*
X63672502Y-62573960D01*
X63886455Y-62253757D01*
X64158757Y-61981455D01*
X64478960Y-61767502D01*
X64834750Y-61620129D01*
X65212448Y-61545000D01*
X65597552Y-61545000D01*
X65975250Y-61620129D01*
X65975250Y-61620129D01*
G37*
G36*
X185355250Y-61620129D02*
X185711040Y-61767502D01*
X186031243Y-61981455D01*
X186303545Y-62253757D01*
X186517498Y-62573960D01*
X186664871Y-62929750D01*
X186740000Y-63307448D01*
X186740000Y-63692552D01*
X186664871Y-64070250D01*
X186517498Y-64426040D01*
X186303545Y-64746243D01*
X186031243Y-65018545D01*
X185711040Y-65232498D01*
X185355250Y-65379871D01*
X184977552Y-65455000D01*
X184592448Y-65455000D01*
X184214750Y-65379871D01*
X183858960Y-65232498D01*
X183538757Y-65018545D01*
X183266455Y-64746243D01*
X183052502Y-64426040D01*
X182905129Y-64070250D01*
X182830000Y-63692552D01*
X182830000Y-63307448D01*
X182905129Y-62929750D01*
X183052502Y-62573960D01*
X183266455Y-62253757D01*
X183538757Y-61981455D01*
X183858960Y-61767502D01*
X184214750Y-61620129D01*
X184592448Y-61545000D01*
X184977552Y-61545000D01*
X185355250Y-61620129D01*
X185355250Y-61620129D01*
G37*
G36*
X95783205Y-58567248D02*
X95783207Y-58567249D01*
X95783208Y-58567249D01*
X96115883Y-58705047D01*
X96115884Y-58705048D01*
X96415285Y-58905102D01*
X96669898Y-59159715D01*
X96669900Y-59159718D01*
X96869953Y-59459117D01*
X97007751Y-59791792D01*
X97078000Y-60144958D01*
X97078000Y-60505042D01*
X97007751Y-60858208D01*
X96869953Y-61190883D01*
X96869952Y-61190884D01*
X96669898Y-61490285D01*
X96415285Y-61744898D01*
X96415282Y-61744900D01*
X96115883Y-61944953D01*
X95783208Y-62082751D01*
X95783207Y-62082751D01*
X95783205Y-62082752D01*
X95430044Y-62153000D01*
X95069956Y-62153000D01*
X94716795Y-62082752D01*
X94716793Y-62082751D01*
X94716792Y-62082751D01*
X94384117Y-61944953D01*
X94084718Y-61744900D01*
X94084715Y-61744898D01*
X93830102Y-61490285D01*
X93630048Y-61190884D01*
X93630047Y-61190883D01*
X93492249Y-60858208D01*
X93422000Y-60505042D01*
X93422000Y-60144958D01*
X93492249Y-59791792D01*
X93630047Y-59459117D01*
X93830100Y-59159718D01*
X93830102Y-59159715D01*
X94084715Y-58905102D01*
X94384116Y-58705048D01*
X94384117Y-58705047D01*
X94716792Y-58567249D01*
X94716793Y-58567249D01*
X94716795Y-58567248D01*
X95069956Y-58497000D01*
X95430044Y-58497000D01*
X95783205Y-58567248D01*
X95783205Y-58567248D01*
G37*
G36*
X69113205Y-58567248D02*
X69113207Y-58567249D01*
X69113208Y-58567249D01*
X69445883Y-58705047D01*
X69445884Y-58705048D01*
X69745285Y-58905102D01*
X69999898Y-59159715D01*
X69999900Y-59159718D01*
X70199953Y-59459117D01*
X70337751Y-59791792D01*
X70408000Y-60144958D01*
X70408000Y-60505042D01*
X70337751Y-60858208D01*
X70199953Y-61190883D01*
X70199952Y-61190884D01*
X69999898Y-61490285D01*
X69745285Y-61744898D01*
X69745282Y-61744900D01*
X69445883Y-61944953D01*
X69113208Y-62082751D01*
X69113207Y-62082751D01*
X69113205Y-62082752D01*
X68760044Y-62153000D01*
X68399956Y-62153000D01*
X68046795Y-62082752D01*
X68046793Y-62082751D01*
X68046792Y-62082751D01*
X67714117Y-61944953D01*
X67414718Y-61744900D01*
X67414715Y-61744898D01*
X67160102Y-61490285D01*
X66960048Y-61190884D01*
X66960047Y-61190883D01*
X66822249Y-60858208D01*
X66752000Y-60505042D01*
X66752000Y-60144958D01*
X66822249Y-59791792D01*
X66960047Y-59459117D01*
X67160100Y-59159718D01*
X67160102Y-59159715D01*
X67414715Y-58905102D01*
X67714116Y-58705048D01*
X67714117Y-58705047D01*
X68046792Y-58567249D01*
X68046793Y-58567249D01*
X68046795Y-58567248D01*
X68399956Y-58497000D01*
X68760044Y-58497000D01*
X69113205Y-58567248D01*
X69113205Y-58567248D01*
G37*
G36*
X128803205Y-58567248D02*
X128803207Y-58567249D01*
X128803208Y-58567249D01*
X129135883Y-58705047D01*
X129135884Y-58705048D01*
X129435285Y-58905102D01*
X129689898Y-59159715D01*
X129689900Y-59159718D01*
X129889953Y-59459117D01*
X130027751Y-59791792D01*
X130098000Y-60144958D01*
X130098000Y-60505042D01*
X130027751Y-60858208D01*
X129889953Y-61190883D01*
X129889952Y-61190884D01*
X129689898Y-61490285D01*
X129435285Y-61744898D01*
X129435282Y-61744900D01*
X129135883Y-61944953D01*
X128803208Y-62082751D01*
X128803207Y-62082751D01*
X128803205Y-62082752D01*
X128450044Y-62153000D01*
X128089956Y-62153000D01*
X127736795Y-62082752D01*
X127736793Y-62082751D01*
X127736792Y-62082751D01*
X127404117Y-61944953D01*
X127104718Y-61744900D01*
X127104715Y-61744898D01*
X126850102Y-61490285D01*
X126650048Y-61190884D01*
X126650047Y-61190883D01*
X126512249Y-60858208D01*
X126442000Y-60505042D01*
X126442000Y-60144958D01*
X126512249Y-59791792D01*
X126650047Y-59459117D01*
X126850100Y-59159718D01*
X126850102Y-59159715D01*
X127104715Y-58905102D01*
X127404116Y-58705048D01*
X127404117Y-58705047D01*
X127736792Y-58567249D01*
X127736793Y-58567249D01*
X127736795Y-58567248D01*
X128089956Y-58497000D01*
X128450044Y-58497000D01*
X128803205Y-58567248D01*
X128803205Y-58567248D01*
G37*
G36*
X182143205Y-58567248D02*
X182143207Y-58567249D01*
X182143208Y-58567249D01*
X182475883Y-58705047D01*
X182475884Y-58705048D01*
X182775285Y-58905102D01*
X183029898Y-59159715D01*
X183029900Y-59159718D01*
X183229953Y-59459117D01*
X183367751Y-59791792D01*
X183438000Y-60144958D01*
X183438000Y-60505042D01*
X183367751Y-60858208D01*
X183229953Y-61190883D01*
X183229952Y-61190884D01*
X183029898Y-61490285D01*
X182775285Y-61744898D01*
X182775282Y-61744900D01*
X182475883Y-61944953D01*
X182143208Y-62082751D01*
X182143207Y-62082751D01*
X182143205Y-62082752D01*
X181790044Y-62153000D01*
X181429956Y-62153000D01*
X181076795Y-62082752D01*
X181076793Y-62082751D01*
X181076792Y-62082751D01*
X180744117Y-61944953D01*
X180444718Y-61744900D01*
X180444715Y-61744898D01*
X180190102Y-61490285D01*
X179990048Y-61190884D01*
X179990047Y-61190883D01*
X179852249Y-60858208D01*
X179782000Y-60505042D01*
X179782000Y-60144958D01*
X179852249Y-59791792D01*
X179990047Y-59459117D01*
X180190100Y-59159718D01*
X180190102Y-59159715D01*
X180444715Y-58905102D01*
X180744116Y-58705048D01*
X180744117Y-58705047D01*
X181076792Y-58567249D01*
X181076793Y-58567249D01*
X181076795Y-58567248D01*
X181429956Y-58497000D01*
X181790044Y-58497000D01*
X182143205Y-58567248D01*
X182143205Y-58567248D01*
G37*
G36*
X208813205Y-58567248D02*
X208813207Y-58567249D01*
X208813208Y-58567249D01*
X209145883Y-58705047D01*
X209145884Y-58705048D01*
X209445285Y-58905102D01*
X209699898Y-59159715D01*
X209699900Y-59159718D01*
X209899953Y-59459117D01*
X210037751Y-59791792D01*
X210108000Y-60144958D01*
X210108000Y-60505042D01*
X210037751Y-60858208D01*
X209899953Y-61190883D01*
X209899952Y-61190884D01*
X209699898Y-61490285D01*
X209445285Y-61744898D01*
X209445282Y-61744900D01*
X209145883Y-61944953D01*
X208813208Y-62082751D01*
X208813207Y-62082751D01*
X208813205Y-62082752D01*
X208460044Y-62153000D01*
X208099956Y-62153000D01*
X207746795Y-62082752D01*
X207746793Y-62082751D01*
X207746792Y-62082751D01*
X207414117Y-61944953D01*
X207114718Y-61744900D01*
X207114715Y-61744898D01*
X206860102Y-61490285D01*
X206660048Y-61190884D01*
X206660047Y-61190883D01*
X206522249Y-60858208D01*
X206452000Y-60505042D01*
X206452000Y-60144958D01*
X206522249Y-59791792D01*
X206660047Y-59459117D01*
X206860100Y-59159718D01*
X206860102Y-59159715D01*
X207114715Y-58905102D01*
X207414116Y-58705048D01*
X207414117Y-58705047D01*
X207746792Y-58567249D01*
X207746793Y-58567249D01*
X207746795Y-58567248D01*
X208099956Y-58497000D01*
X208460044Y-58497000D01*
X208813205Y-58567248D01*
X208813205Y-58567248D01*
G37*
G36*
X155473205Y-58567248D02*
X155473207Y-58567249D01*
X155473208Y-58567249D01*
X155805883Y-58705047D01*
X155805884Y-58705048D01*
X156105285Y-58905102D01*
X156359898Y-59159715D01*
X156359900Y-59159718D01*
X156559953Y-59459117D01*
X156697751Y-59791792D01*
X156768000Y-60144958D01*
X156768000Y-60505042D01*
X156697751Y-60858208D01*
X156559953Y-61190883D01*
X156559952Y-61190884D01*
X156359898Y-61490285D01*
X156105285Y-61744898D01*
X156105282Y-61744900D01*
X155805883Y-61944953D01*
X155473208Y-62082751D01*
X155473207Y-62082751D01*
X155473205Y-62082752D01*
X155120044Y-62153000D01*
X154759956Y-62153000D01*
X154406795Y-62082752D01*
X154406793Y-62082751D01*
X154406792Y-62082751D01*
X154074117Y-61944953D01*
X153774718Y-61744900D01*
X153774715Y-61744898D01*
X153520102Y-61490285D01*
X153320048Y-61190884D01*
X153320047Y-61190883D01*
X153182249Y-60858208D01*
X153112000Y-60505042D01*
X153112000Y-60144958D01*
X153182249Y-59791792D01*
X153320047Y-59459117D01*
X153520100Y-59159718D01*
X153520102Y-59159715D01*
X153774715Y-58905102D01*
X154074116Y-58705048D01*
X154074117Y-58705047D01*
X154406792Y-58567249D01*
X154406793Y-58567249D01*
X154406795Y-58567248D01*
X154759956Y-58497000D01*
X155120044Y-58497000D01*
X155473205Y-58567248D01*
X155473205Y-58567248D01*
G37*
G36*
X212025250Y-55270129D02*
X212381040Y-55417502D01*
X212701243Y-55631455D01*
X212973545Y-55903757D01*
X213187498Y-56223960D01*
X213334871Y-56579750D01*
X213410000Y-56957448D01*
X213410000Y-57342552D01*
X213334871Y-57720250D01*
X213187498Y-58076040D01*
X212973545Y-58396243D01*
X212701243Y-58668545D01*
X212381040Y-58882498D01*
X212025250Y-59029871D01*
X211647552Y-59105000D01*
X211262448Y-59105000D01*
X210884750Y-59029871D01*
X210528960Y-58882498D01*
X210208757Y-58668545D01*
X209936455Y-58396243D01*
X209722502Y-58076040D01*
X209575129Y-57720250D01*
X209500000Y-57342552D01*
X209500000Y-56957448D01*
X209575129Y-56579750D01*
X209722502Y-56223960D01*
X209936455Y-55903757D01*
X210208757Y-55631455D01*
X210528960Y-55417502D01*
X210884750Y-55270129D01*
X211262448Y-55195000D01*
X211647552Y-55195000D01*
X212025250Y-55270129D01*
X212025250Y-55270129D01*
G37*
G36*
X125665250Y-55270129D02*
X126021040Y-55417502D01*
X126341243Y-55631455D01*
X126613545Y-55903757D01*
X126827498Y-56223960D01*
X126974871Y-56579750D01*
X127050000Y-56957448D01*
X127050000Y-57342552D01*
X126974871Y-57720250D01*
X126827498Y-58076040D01*
X126613545Y-58396243D01*
X126341243Y-58668545D01*
X126021040Y-58882498D01*
X125665250Y-59029871D01*
X125287552Y-59105000D01*
X124902448Y-59105000D01*
X124524750Y-59029871D01*
X124168960Y-58882498D01*
X123848757Y-58668545D01*
X123576455Y-58396243D01*
X123362502Y-58076040D01*
X123215129Y-57720250D01*
X123140000Y-57342552D01*
X123140000Y-56957448D01*
X123215129Y-56579750D01*
X123362502Y-56223960D01*
X123576455Y-55903757D01*
X123848757Y-55631455D01*
X124168960Y-55417502D01*
X124524750Y-55270129D01*
X124902448Y-55195000D01*
X125287552Y-55195000D01*
X125665250Y-55270129D01*
X125665250Y-55270129D01*
G37*
G36*
X98995250Y-55270129D02*
X99351040Y-55417502D01*
X99671243Y-55631455D01*
X99943545Y-55903757D01*
X100157498Y-56223960D01*
X100304871Y-56579750D01*
X100380000Y-56957448D01*
X100380000Y-57342552D01*
X100304871Y-57720250D01*
X100157498Y-58076040D01*
X99943545Y-58396243D01*
X99671243Y-58668545D01*
X99351040Y-58882498D01*
X98995250Y-59029871D01*
X98617552Y-59105000D01*
X98232448Y-59105000D01*
X97854750Y-59029871D01*
X97498960Y-58882498D01*
X97178757Y-58668545D01*
X96906455Y-58396243D01*
X96692502Y-58076040D01*
X96545129Y-57720250D01*
X96470000Y-57342552D01*
X96470000Y-56957448D01*
X96545129Y-56579750D01*
X96692502Y-56223960D01*
X96906455Y-55903757D01*
X97178757Y-55631455D01*
X97498960Y-55417502D01*
X97854750Y-55270129D01*
X98232448Y-55195000D01*
X98617552Y-55195000D01*
X98995250Y-55270129D01*
X98995250Y-55270129D01*
G37*
G36*
X92645250Y-55270129D02*
X93001040Y-55417502D01*
X93321243Y-55631455D01*
X93593545Y-55903757D01*
X93807498Y-56223960D01*
X93954871Y-56579750D01*
X94030000Y-56957448D01*
X94030000Y-57342552D01*
X93954871Y-57720250D01*
X93807498Y-58076040D01*
X93593545Y-58396243D01*
X93321243Y-58668545D01*
X93001040Y-58882498D01*
X92645250Y-59029871D01*
X92267552Y-59105000D01*
X91882448Y-59105000D01*
X91504750Y-59029871D01*
X91148960Y-58882498D01*
X90828757Y-58668545D01*
X90556455Y-58396243D01*
X90342502Y-58076040D01*
X90195129Y-57720250D01*
X90120000Y-57342552D01*
X90120000Y-56957448D01*
X90195129Y-56579750D01*
X90342502Y-56223960D01*
X90556455Y-55903757D01*
X90828757Y-55631455D01*
X91148960Y-55417502D01*
X91504750Y-55270129D01*
X91882448Y-55195000D01*
X92267552Y-55195000D01*
X92645250Y-55270129D01*
X92645250Y-55270129D01*
G37*
G36*
X65975250Y-55270129D02*
X66331040Y-55417502D01*
X66651243Y-55631455D01*
X66923545Y-55903757D01*
X67137498Y-56223960D01*
X67284871Y-56579750D01*
X67360000Y-56957448D01*
X67360000Y-57342552D01*
X67284871Y-57720250D01*
X67137498Y-58076040D01*
X66923545Y-58396243D01*
X66651243Y-58668545D01*
X66331040Y-58882498D01*
X65975250Y-59029871D01*
X65597552Y-59105000D01*
X65212448Y-59105000D01*
X64834750Y-59029871D01*
X64478960Y-58882498D01*
X64158757Y-58668545D01*
X63886455Y-58396243D01*
X63672502Y-58076040D01*
X63525129Y-57720250D01*
X63450000Y-57342552D01*
X63450000Y-56957448D01*
X63525129Y-56579750D01*
X63672502Y-56223960D01*
X63886455Y-55903757D01*
X64158757Y-55631455D01*
X64478960Y-55417502D01*
X64834750Y-55270129D01*
X65212448Y-55195000D01*
X65597552Y-55195000D01*
X65975250Y-55270129D01*
X65975250Y-55270129D01*
G37*
G36*
X132015250Y-55270129D02*
X132371040Y-55417502D01*
X132691243Y-55631455D01*
X132963545Y-55903757D01*
X133177498Y-56223960D01*
X133324871Y-56579750D01*
X133400000Y-56957448D01*
X133400000Y-57342552D01*
X133324871Y-57720250D01*
X133177498Y-58076040D01*
X132963545Y-58396243D01*
X132691243Y-58668545D01*
X132371040Y-58882498D01*
X132015250Y-59029871D01*
X131637552Y-59105000D01*
X131252448Y-59105000D01*
X130874750Y-59029871D01*
X130518960Y-58882498D01*
X130198757Y-58668545D01*
X129926455Y-58396243D01*
X129712502Y-58076040D01*
X129565129Y-57720250D01*
X129490000Y-57342552D01*
X129490000Y-56957448D01*
X129565129Y-56579750D01*
X129712502Y-56223960D01*
X129926455Y-55903757D01*
X130198757Y-55631455D01*
X130518960Y-55417502D01*
X130874750Y-55270129D01*
X131252448Y-55195000D01*
X131637552Y-55195000D01*
X132015250Y-55270129D01*
X132015250Y-55270129D01*
G37*
G36*
X205675250Y-55270129D02*
X206031040Y-55417502D01*
X206351243Y-55631455D01*
X206623545Y-55903757D01*
X206837498Y-56223960D01*
X206984871Y-56579750D01*
X207060000Y-56957448D01*
X207060000Y-57342552D01*
X206984871Y-57720250D01*
X206837498Y-58076040D01*
X206623545Y-58396243D01*
X206351243Y-58668545D01*
X206031040Y-58882498D01*
X205675250Y-59029871D01*
X205297552Y-59105000D01*
X204912448Y-59105000D01*
X204534750Y-59029871D01*
X204178960Y-58882498D01*
X203858757Y-58668545D01*
X203586455Y-58396243D01*
X203372502Y-58076040D01*
X203225129Y-57720250D01*
X203150000Y-57342552D01*
X203150000Y-56957448D01*
X203225129Y-56579750D01*
X203372502Y-56223960D01*
X203586455Y-55903757D01*
X203858757Y-55631455D01*
X204178960Y-55417502D01*
X204534750Y-55270129D01*
X204912448Y-55195000D01*
X205297552Y-55195000D01*
X205675250Y-55270129D01*
X205675250Y-55270129D01*
G37*
G36*
X179005250Y-55270129D02*
X179361040Y-55417502D01*
X179681243Y-55631455D01*
X179953545Y-55903757D01*
X180167498Y-56223960D01*
X180314871Y-56579750D01*
X180390000Y-56957448D01*
X180390000Y-57342552D01*
X180314871Y-57720250D01*
X180167498Y-58076040D01*
X179953545Y-58396243D01*
X179681243Y-58668545D01*
X179361040Y-58882498D01*
X179005250Y-59029871D01*
X178627552Y-59105000D01*
X178242448Y-59105000D01*
X177864750Y-59029871D01*
X177508960Y-58882498D01*
X177188757Y-58668545D01*
X176916455Y-58396243D01*
X176702502Y-58076040D01*
X176555129Y-57720250D01*
X176480000Y-57342552D01*
X176480000Y-56957448D01*
X176555129Y-56579750D01*
X176702502Y-56223960D01*
X176916455Y-55903757D01*
X177188757Y-55631455D01*
X177508960Y-55417502D01*
X177864750Y-55270129D01*
X178242448Y-55195000D01*
X178627552Y-55195000D01*
X179005250Y-55270129D01*
X179005250Y-55270129D01*
G37*
G36*
X158685250Y-55270129D02*
X159041040Y-55417502D01*
X159361243Y-55631455D01*
X159633545Y-55903757D01*
X159847498Y-56223960D01*
X159994871Y-56579750D01*
X160070000Y-56957448D01*
X160070000Y-57342552D01*
X159994871Y-57720250D01*
X159847498Y-58076040D01*
X159633545Y-58396243D01*
X159361243Y-58668545D01*
X159041040Y-58882498D01*
X158685250Y-59029871D01*
X158307552Y-59105000D01*
X157922448Y-59105000D01*
X157544750Y-59029871D01*
X157188960Y-58882498D01*
X156868757Y-58668545D01*
X156596455Y-58396243D01*
X156382502Y-58076040D01*
X156235129Y-57720250D01*
X156160000Y-57342552D01*
X156160000Y-56957448D01*
X156235129Y-56579750D01*
X156382502Y-56223960D01*
X156596455Y-55903757D01*
X156868757Y-55631455D01*
X157188960Y-55417502D01*
X157544750Y-55270129D01*
X157922448Y-55195000D01*
X158307552Y-55195000D01*
X158685250Y-55270129D01*
X158685250Y-55270129D01*
G37*
G36*
X185355250Y-55270129D02*
X185711040Y-55417502D01*
X186031243Y-55631455D01*
X186303545Y-55903757D01*
X186517498Y-56223960D01*
X186664871Y-56579750D01*
X186740000Y-56957448D01*
X186740000Y-57342552D01*
X186664871Y-57720250D01*
X186517498Y-58076040D01*
X186303545Y-58396243D01*
X186031243Y-58668545D01*
X185711040Y-58882498D01*
X185355250Y-59029871D01*
X184977552Y-59105000D01*
X184592448Y-59105000D01*
X184214750Y-59029871D01*
X183858960Y-58882498D01*
X183538757Y-58668545D01*
X183266455Y-58396243D01*
X183052502Y-58076040D01*
X182905129Y-57720250D01*
X182830000Y-57342552D01*
X182830000Y-56957448D01*
X182905129Y-56579750D01*
X183052502Y-56223960D01*
X183266455Y-55903757D01*
X183538757Y-55631455D01*
X183858960Y-55417502D01*
X184214750Y-55270129D01*
X184592448Y-55195000D01*
X184977552Y-55195000D01*
X185355250Y-55270129D01*
X185355250Y-55270129D01*
G37*
G36*
X72325250Y-55270129D02*
X72681040Y-55417502D01*
X73001243Y-55631455D01*
X73273545Y-55903757D01*
X73487498Y-56223960D01*
X73634871Y-56579750D01*
X73710000Y-56957448D01*
X73710000Y-57342552D01*
X73634871Y-57720250D01*
X73487498Y-58076040D01*
X73273545Y-58396243D01*
X73001243Y-58668545D01*
X72681040Y-58882498D01*
X72325250Y-59029871D01*
X71947552Y-59105000D01*
X71562448Y-59105000D01*
X71184750Y-59029871D01*
X70828960Y-58882498D01*
X70508757Y-58668545D01*
X70236455Y-58396243D01*
X70022502Y-58076040D01*
X69875129Y-57720250D01*
X69800000Y-57342552D01*
X69800000Y-56957448D01*
X69875129Y-56579750D01*
X70022502Y-56223960D01*
X70236455Y-55903757D01*
X70508757Y-55631455D01*
X70828960Y-55417502D01*
X71184750Y-55270129D01*
X71562448Y-55195000D01*
X71947552Y-55195000D01*
X72325250Y-55270129D01*
X72325250Y-55270129D01*
G37*
G36*
X152335250Y-55270129D02*
X152691040Y-55417502D01*
X153011243Y-55631455D01*
X153283545Y-55903757D01*
X153497498Y-56223960D01*
X153644871Y-56579750D01*
X153720000Y-56957448D01*
X153720000Y-57342552D01*
X153644871Y-57720250D01*
X153497498Y-58076040D01*
X153283545Y-58396243D01*
X153011243Y-58668545D01*
X152691040Y-58882498D01*
X152335250Y-59029871D01*
X151957552Y-59105000D01*
X151572448Y-59105000D01*
X151194750Y-59029871D01*
X150838960Y-58882498D01*
X150518757Y-58668545D01*
X150246455Y-58396243D01*
X150032502Y-58076040D01*
X149885129Y-57720250D01*
X149810000Y-57342552D01*
X149810000Y-56957448D01*
X149885129Y-56579750D01*
X150032502Y-56223960D01*
X150246455Y-55903757D01*
X150518757Y-55631455D01*
X150838960Y-55417502D01*
X151194750Y-55270129D01*
X151572448Y-55195000D01*
X151957552Y-55195000D01*
X152335250Y-55270129D01*
X152335250Y-55270129D01*
G37*
G36*
X246773778Y-52041879D02*
X247019466Y-52143646D01*
X247240578Y-52291389D01*
X247428611Y-52479422D01*
X247576354Y-52700534D01*
X247678121Y-52946222D01*
X247730000Y-53207035D01*
X247730000Y-53472965D01*
X247678121Y-53733778D01*
X247576354Y-53979466D01*
X247428611Y-54200578D01*
X247240578Y-54388611D01*
X247019466Y-54536354D01*
X246773778Y-54638121D01*
X246512965Y-54690000D01*
X246247035Y-54690000D01*
X245986222Y-54638121D01*
X245740534Y-54536354D01*
X245519422Y-54388611D01*
X245331389Y-54200578D01*
X245183646Y-53979466D01*
X245081879Y-53733778D01*
X245030000Y-53472965D01*
X245030000Y-53207035D01*
X245081879Y-52946222D01*
X245183646Y-52700534D01*
X245331389Y-52479422D01*
X245519422Y-52291389D01*
X245740534Y-52143646D01*
X245986222Y-52041879D01*
X246247035Y-51990000D01*
X246512965Y-51990000D01*
X246773778Y-52041879D01*
X246773778Y-52041879D01*
G37*
G36*
X262648778Y-52041879D02*
X262894466Y-52143646D01*
X263115578Y-52291389D01*
X263303611Y-52479422D01*
X263451354Y-52700534D01*
X263553121Y-52946222D01*
X263605000Y-53207035D01*
X263605000Y-53472965D01*
X263553121Y-53733778D01*
X263451354Y-53979466D01*
X263303611Y-54200578D01*
X263115578Y-54388611D01*
X262894466Y-54536354D01*
X262648778Y-54638121D01*
X262387965Y-54690000D01*
X262122035Y-54690000D01*
X261861222Y-54638121D01*
X261615534Y-54536354D01*
X261394422Y-54388611D01*
X261206389Y-54200578D01*
X261058646Y-53979466D01*
X260956879Y-53733778D01*
X260905000Y-53472965D01*
X260905000Y-53207035D01*
X260956879Y-52946222D01*
X261058646Y-52700534D01*
X261206389Y-52479422D01*
X261394422Y-52291389D01*
X261615534Y-52143646D01*
X261861222Y-52041879D01*
X262122035Y-51990000D01*
X262387965Y-51990000D01*
X262648778Y-52041879D01*
X262648778Y-52041879D01*
G37*
G36*
X258525000Y-54690000D02*
X255825000Y-54690000D01*
X255825000Y-51990000D01*
X258525000Y-51990000D01*
X258525000Y-54690000D01*
X258525000Y-54690000D01*
G37*
G36*
X242650000Y-54690000D02*
X239950000Y-54690000D01*
X239950000Y-51990000D01*
X242650000Y-51990000D01*
X242650000Y-54690000D01*
X242650000Y-54690000D01*
G37*
M02*
